<?xml version="1.0" standalone="no"?>
 <!DOCTYPE svg PUBLIC "-//W3C//DTD SVG 1.1//EN" 
 "http://www.w3.org/Graphics/SVG/1.1/DTD/svg11.dtd"> 
<svg
  xmlns:svg="http://www.w3.org/2000/svg"
  xmlns="http://www.w3.org/2000/svg"
  xmlns:xlink="http://www.w3.org/1999/xlink"
  xmlns:inkscape="http://www.inkscape.org/namespaces/inkscape"
  version="1.1"
  width="36.9824mm" height="129.9972mm" viewBox="0.0000 0.0000 36.9824 129.9972">
<title>SVG Image created as bottom.svg date 2026-05-13T09:02:38 </title>
  <desc>Image generated by PCBNEW </desc>
<g style="fill:#000000; fill-opacity:1.0000;stroke:#000000; stroke-opacity:1.0000;
stroke-linecap:round; stroke-linejoin:round;"
 transform="translate(0 0) scale(1 1)">
</g>
<g style="fill:#4D7FC4; fill-opacity:1.0000; stroke:none;">
<circle cx="10.8599" cy="127.1070" r="0.7620" /> 
<circle cx="10.8599" cy="124.5670" r="0.7620" /> 
<circle cx="10.8599" cy="122.0270" r="0.7620" /> 
<circle cx="10.8599" cy="119.4870" r="0.7620" /> 
<circle cx="10.8599" cy="116.9470" r="0.7620" /> 
<circle cx="10.8599" cy="114.4070" r="0.7620" /> 
<circle cx="10.8599" cy="111.8670" r="0.7620" /> 
<circle cx="26.0999" cy="111.8670" r="0.7620" /> 
<circle cx="26.0999" cy="114.4070" r="0.7620" /> 
<circle cx="26.0999" cy="116.9470" r="0.7620" /> 
<circle cx="26.0999" cy="119.4870" r="0.7620" /> 
<circle cx="26.0999" cy="122.0270" r="0.7620" /> 
<circle cx="26.0999" cy="124.5670" r="0.7620" /> 
<circle cx="26.0999" cy="127.1070" r="0.7620" /> 
<path style="fill:#4D7FC4; fill-opacity:1.0000; stroke:none;fill-rule:evenodd;"
d="M 6.8824,4.1440
6.8824,5.9440
8.6824,5.9440
8.6824,4.1440
Z" /> 
<circle cx="10.3224" cy="5.0440" r="0.9000" /> 
<path style="fill:#4D7FC4; fill-opacity:1.0000; stroke:none;fill-rule:evenodd;"
d="M 24.4379,5.4576
24.4568,5.5527
24.5106,5.6332
24.5912,5.6871
24.6863,5.7060
25.9895,5.7060
26.0845,5.6871
26.1651,5.6332
26.2189,5.5527
26.2379,5.4576
26.2379,4.1544
26.2189,4.0593
26.1651,3.9788
26.0845,3.9249
25.9895,3.9060
24.6863,3.9060
24.5912,3.9249
24.5106,3.9788
24.4568,4.0593
24.4379,4.1544
Z" /> 
<circle cx="27.8779" cy="4.8060" r="0.9000" /> 
<circle cx="30.4179" cy="4.8060" r="0.9000" /> 
<path style="fill:#4D7FC4; fill-opacity:1.0000; stroke:none;fill-rule:evenodd;"
d="M 22.7351,56.8297
22.8308,56.8107
22.9119,56.7565
22.9661,56.6754
22.9851,56.5797
22.9851,54.5797
22.9661,54.4840
22.9119,54.4029
22.8308,54.3487
22.7351,54.3297
20.7351,54.3297
20.6394,54.3487
20.5583,54.4029
20.5041,54.4840
20.4851,54.5797
20.4851,56.5797
20.5041,56.6754
20.5583,56.7565
20.6394,56.8107
20.7351,56.8297
Z" /> 
<circle cx="10.7325" cy="54.6039" r="1.2500" /> 
<circle cx="11.9346" cy="46.0480" r="1.3750" /> 
<circle cx="19.5926" cy="40.6102" r="1.2500" /> 
<circle cx="34.6327" cy="43.1063" r="1.2500" /> 
<circle cx="25.0302" cy="32.9521" r="1.2500" /> 
<circle cx="11.9346" cy="32.9520" r="1.3750" /> 
<path style="fill:#4D7FC4; fill-opacity:1.0000; stroke:none;fill-rule:evenodd;"
d="M 27.2323,25.6461
27.3280,25.6271
27.4091,25.5729
27.4633,25.4918
27.4823,25.3961
27.4823,23.3961
27.4633,23.3005
27.4091,23.2194
27.3280,23.1652
27.2323,23.1461
25.2323,23.1461
25.1366,23.1652
25.0555,23.2194
25.0013,23.3005
24.9823,23.3961
24.9823,25.3961
25.0013,25.4918
25.0555,25.5729
25.1366,25.6271
25.2323,25.6461
Z" /> 
<circle cx="2.3321" cy="35.8936" r="1.2500" /> 
<path style="fill:#4D7FC4; fill-opacity:1.0000; stroke:none;fill-rule:evenodd;"
d="M 16.5699,6.1650
16.5699,6.6870
17.1699,6.6870
17.1699,6.1650
Z" /> 
<path style="fill:#4D7FC4; fill-opacity:1.0000; stroke:none;fill-rule:evenodd;"
d="M 16.5699,6.9870
16.5699,7.5090
17.1699,7.5090
17.1699,6.9870
Z" /> 
<path style="fill:#4D7FC4; fill-opacity:1.0000; stroke:none;fill-rule:evenodd;"
d="M 17.7127,7.5844
17.6797,7.5844
17.5028,7.6196
17.3362,7.6886
17.1862,7.7888
17.0587,7.9164
16.9585,8.0663
16.8895,8.2329
16.8543,8.4098
16.8543,8.5902
16.8895,8.7671
16.9585,8.9337
17.0587,9.0836
17.1862,9.2112
17.3362,9.3114
17.5028,9.3804
17.6797,9.4156
17.8600,9.4156
18.0369,9.3804
18.2035,9.3114
18.3535,9.2112
18.4810,9.0836
18.5812,8.9337
18.6502,8.7671
18.6854,8.5902
18.6854,8.4370
18.4099,8.4370
18.4099,8.5630
18.3853,8.6867
18.3370,8.8032
18.2670,8.9080
18.1778,8.9971
18.0730,9.0672
17.9565,9.1154
17.8329,9.1400
17.7068,9.1400
17.5832,9.1154
17.4667,9.0672
17.3619,8.9971
17.2727,8.9080
17.2027,8.8032
17.1545,8.6867
17.1299,8.5630
17.1299,8.4370
17.1545,8.3133
17.2027,8.1968
17.2727,8.0920
17.3619,8.0029
17.4667,7.9328
17.5832,7.8846
17.7068,7.8600
17.7234,7.8600
17.7406,7.8671
17.7991,7.8671
17.8163,7.8600
17.8329,7.8600
17.9565,7.8846
18.0730,7.9328
18.1778,8.0029
18.2670,8.0920
18.3370,8.1968
18.3853,8.3133
18.4099,8.4370
18.6854,8.4370
18.6854,8.4098
18.6502,8.2329
18.5812,8.0663
18.4810,7.9164
18.3535,7.7888
18.2035,7.6886
18.0369,7.6196
17.8600,7.5844
17.8270,7.5844
17.7991,7.5729
17.7406,7.5729
Z" /> 
<path style="fill:#4D7FC4; fill-opacity:1.0000; stroke:none;fill-rule:evenodd;"
d="M 18.3699,6.9870
18.3699,7.5090
18.9699,7.5090
18.9699,6.9870
Z" /> 
<path style="fill:#4D7FC4; fill-opacity:1.0000; stroke:none;fill-rule:evenodd;"
d="M 18.3699,6.1650
18.3699,6.6870
18.9699,6.6870
18.9699,6.1650
Z" /> 
<path style="fill:#4D7FC4; fill-opacity:1.0000; stroke:none;fill-rule:evenodd;"
d="M 17.4699,6.1650
17.4699,6.6870
18.0699,6.6870
18.0699,6.1650
Z" /> 
<circle cx="5.4339" cy="113.1720" r="0.3000" /> 
<circle cx="4.2559" cy="9.6320" r="0.3000" /> 
<circle cx="16.4479" cy="97.2620" r="0.3000" /> 
<circle cx="17.7699" cy="4.7860" r="0.3000" /> 
<circle cx="23.9409" cy="46.4620" r="0.3000" /> 
</g>
<g style="fill:none; 
stroke:#4D7FC4; stroke-width:0.2000; stroke-opacity:1; 
stroke-linecap:round; stroke-linejoin:round;">
<path d="M5.3199 113.0580
L5.3199 16.6383
" />
<path d="M15.5779 15.5820
L21.0199 10.1400
" />
<path d="M5.4339 113.1720
L5.3199 113.0580
" />
<path d="M21.0199 8.8855
L19.3824 7.2480
" />
<path d="M5.3199 16.6383
L6.3762 15.5820
" />
<path d="M21.0199 10.1400
L21.0199 8.8855
" />
<path d="M19.3824 7.2480
L18.6699 7.2480
" />
<path d="M6.3762 15.5820
L15.5779 15.5820
" />
<path d="M3.3199 10.5680
L3.3199 33.9877
" />
<path d="M3.3199 33.9877
L3.8821 34.5499
" />
<path d="M3.8821 37.6297
L3.3199 38.1919
" />
<path d="M3.3199 118.4240
L9.4629 124.5670
" />
<path d="M3.8821 34.5499
L3.8821 37.6297
" />
<path d="M4.2559 9.6320
L3.3199 10.5680
" />
<path d="M9.4629 124.5670
L10.8599 124.5670
" />
<path d="M3.3199 38.1919
L3.3199 118.4240
" />
<path d="M4.2821 116.8462
L4.2821 14.9398
" />
<path d="M10.8599 122.0270
L9.4629 122.0270
" />
<path d="M9.4629 122.0270
L4.2821 116.8462
" />
<path d="M12.7959 6.4260
L16.8699 6.4260
" />
<path d="M4.2821 14.9398
L12.7959 6.4260
" />
<path d="M4.8199 15.1640
L4.8199 114.8440
" />
<path d="M4.8199 114.8440
L9.4629 119.4870
" />
<path d="M16.8699 7.2480
L12.7359 7.2480
" />
<path d="M12.7359 7.2480
L4.8199 15.1640
" />
<path d="M9.4629 119.4870
L10.8599 119.4870
" />
<path d="M5.8199 16.7040
L5.8199 111.8670
" />
<path d="M25.3379 15.9820
L6.5419 15.9820
" />
<path d="M5.8199 111.8670
L10.8599 111.8670
" />
<path d="M6.5419 15.9820
L5.8199 16.7040
" />
<path d="M25.3379 4.8060
L25.3379 15.9820
" />
<path d="M11.9346 46.0480
L15.4319 49.5452
" />
<path d="M21.6549 114.4070
L26.0999 114.4070
" />
<path d="M15.4319 108.1840
L21.6549 114.4070
" />
<path d="M15.4319 49.5452
L15.4319 108.1840
" />
<path d="M13.6539 52.5580
L13.6539 109.2000
" />
<path d="M11.9346 39.1643
L8.5739 42.5250
" />
<path d="M11.9346 32.9520
L11.9346 39.1643
" />
<path d="M21.4009 116.9470
L26.0999 116.9470
" />
<path d="M8.5739 47.4780
L13.6539 52.5580
" />
<path d="M8.5739 42.5250
L8.5739 47.4780
" />
<path d="M13.6539 109.2000
L21.4009 116.9470
" />
<path d="M17.7699 6.4260
L17.7699 7.7200
" />
<path d="M17.7699 4.7860
L17.7699 6.4260
" />
<path d="M23.9409 46.4620
L25.7189 44.6840
" />
<path d="M33.0550 44.6840
L34.6327 43.1063
" />
<path d="M25.7189 44.6840
L33.0550 44.6840
" />
<path style="fill:#4D7FC4; fill-opacity:1.0000; stroke:none;fill-rule:evenodd;"
d="M 31.5399,0.5202
31.4941,0.5730
31.4829,0.6245
31.4829,2.5659
31.4488,2.6932
31.4158,2.7502
31.3829,2.8073
31.2897,2.9005
31.1756,2.9664
31.0483,3.0005
31.0483,3.0005
24.8165,3.0005
24.8165,3.0005
24.6892,2.9664
24.5751,2.9005
24.4819,2.8073
24.4160,2.6932
24.3819,2.5659
24.3819,0.6245
24.3622,0.5575
24.3094,0.5117
24.2579,0.5005
12.7069,0.5005
12.6399,0.5202
12.5941,0.5730
12.5829,0.6245
12.5829,2.5659
12.5488,2.6932
12.5158,2.7502
12.4829,2.8073
12.3897,2.9005
12.2756,2.9664
12.1483,3.0005
12.1483,3.0005
5.9165,3.0005
5.9165,3.0005
5.7892,2.9664
5.6751,2.9005
5.5819,2.8073
5.5160,2.6932
5.4819,2.5659
5.4819,0.6245
5.4622,0.5575
5.4094,0.5117
5.3579,0.5005
0.6069,0.5005
0.5399,0.5202
0.4941,0.5730
0.4829,0.6245
0.4829,35.4607
0.5026,35.5278
0.5554,35.5735
0.6245,35.5835
0.6881,35.5545
0.7248,35.4991
0.8025,35.2600
0.8453,35.1760
0.9204,35.0285
1.0732,34.8184
1.2569,34.6347
1.3569,34.5620
1.4670,34.4820
1.4670,34.4820
1.4670,34.4820
1.5393,34.4451
1.6985,34.3640
1.9456,34.2837
2.2022,34.2431
2.2022,34.2431
2.4620,34.2431
2.4620,34.2431
2.6996,34.2807
2.7689,34.2718
2.8224,34.2268
2.8430,34.1600
2.8388,34.1262
2.8194,34.0536
2.8194,33.9218
2.8194,10.5021
2.8535,10.3748
2.9194,10.2607
3.0125,10.1675
3.5190,9.6610
3.5525,9.5997
3.5554,9.5733
3.5554,9.5630
3.5823,9.4277
3.5823,9.4277
3.5823,9.4277
3.5823,9.4277
3.6351,9.3002
3.6351,9.3002
3.7117,9.1855
3.7117,9.1855
3.8093,9.0879
3.8093,9.0879
3.9240,9.0112
3.9241,9.0112
4.0515,8.9584
4.0515,8.9584
4.1869,8.9315
4.1869,8.9315
4.3248,8.9315
4.3248,8.9315
4.4602,8.9584
4.4602,8.9584
4.5877,9.0112
4.5877,9.0112
4.7024,9.0879
4.7024,9.0879
4.8000,9.1855
4.8000,9.1855
4.8766,9.3002
4.8766,9.3002
4.9294,9.4277
4.9294,9.4277
4.9564,9.5630
4.9564,9.5630
4.9564,9.7010
4.9564,9.7010
4.9564,9.7010
4.9294,9.8363
4.9294,9.8363
4.8766,9.9638
4.8766,9.9638
4.8000,10.0785
4.8000,10.0785
4.7024,10.1761
4.7024,10.1761
4.5877,10.2528
4.5877,10.2528
4.4602,10.3056
4.4602,10.3056
4.4602,10.3056
4.4602,10.3056
4.3249,10.3325
4.3248,10.3325
4.3145,10.3325
4.2475,10.3522
4.2268,10.3688
3.8567,10.7390
3.8232,10.8003
3.8204,10.8267
3.8204,14.3943
3.8400,14.4614
3.8928,14.5071
3.9620,14.5171
4.0256,14.4880
4.0320,14.4820
12.4885,6.0255
12.4885,6.0255
12.5456,5.9926
12.6027,5.9596
12.6760,5.9400
12.7300,5.9255
12.7300,5.9255
16.1916,5.9255
16.2586,5.9058
16.2793,5.8892
16.3315,5.8370
16.3315,5.8369
16.4083,5.7978
16.4446,5.7794
16.5383,5.7645
17.1454,5.7645
17.2124,5.7448
17.2581,5.6920
17.2694,5.6405
17.2694,5.3275
17.2497,5.2605
17.2330,5.2398
17.2257,5.2325
17.1491,5.1178
17.0963,4.9903
17.0850,4.9338
11.7224,4.9338
11.7224,5.1542
11.6879,5.3718
11.6198,5.5814
11.5198,5.7778
11.4735,5.8415
10.7645,5.1326
10.7417,5.2177
10.6825,5.3203
10.5987,5.4041
10.4961,5.4633
10.4110,5.4861
11.1199,6.1951
11.1199,6.1951
11.0562,6.2414
10.8598,6.3414
10.6502,6.4095
10.4326,6.4440
10.2122,6.4440
9.9946,6.4095
9.7850,6.3414
9.5886,6.2414
9.5249,6.1951
9.5249,6.1951
10.2338,5.4861
10.1487,5.4633
10.0461,5.4041
9.9623,5.3203
9.9031,5.2177
9.8803,5.1326
9.1548,5.8581
9.1483,5.8594
9.0985,5.9085
9.0829,5.9687
9.0829,5.9755
9.0829,5.9755
9.0680,6.0693
9.0104,6.1823
9.0104,6.1823
9.0104,6.1823
8.9207,6.2720
8.9207,6.2720
8.9207,6.2721
8.8077,6.3296
8.8077,6.3296
8.7139,6.3445
8.7139,6.3445
6.8509,6.3445
6.7571,6.3296
6.6441,6.2721
6.5543,6.1823
6.4968,6.0693
6.4968,6.0693
6.4968,6.0693
6.4819,5.9755
6.4819,5.9755
6.4819,4.1125
6.4968,4.0187
6.5543,3.9057
6.5544,3.9057
6.5544,3.9057
6.6441,3.8160
6.6441,3.8160
6.6441,3.8159
6.7209,3.7768
6.7571,3.7584
6.8509,3.7435
8.7139,3.7435
8.7949,3.7563
8.8077,3.7584
8.9207,3.8159
8.9207,3.8160
8.9207,3.8160
9.0104,3.9057
9.0104,3.9057
9.0680,4.0187
9.0829,4.1125
9.0829,4.1193
9.1026,4.1863
9.1554,4.2321
9.1573,4.2324
9.8803,4.9554
9.9031,4.8703
9.9623,4.7677
10.0461,4.6839
10.1487,4.6247
10.2338,4.6019
9.5249,3.8929
9.5886,3.8466
9.7850,3.7466
9.9946,3.6785
10.2122,3.6440
10.4326,3.6440
10.6502,3.6785
10.8598,3.7466
11.0562,3.8466
11.1199,3.8929
11.1199,3.8929
10.4110,4.6019
10.4961,4.6247
10.5987,4.6839
10.6825,4.7677
10.7417,4.8703
10.7645,4.9554
11.4735,4.2465
11.4735,4.2465
11.5198,4.3102
11.6198,4.5066
11.6879,4.7162
11.7224,4.9338
17.0850,4.9338
17.0694,4.8550
17.0694,4.7170
17.0694,4.7170
17.0963,4.5817
17.0963,4.5817
17.0963,4.5817
17.1391,4.4782
17.1491,4.4542
17.1491,4.4542
17.2257,4.3395
17.2257,4.3395
17.3233,4.2419
17.3233,4.2419
17.4380,4.1652
17.4381,4.1652
17.5655,4.1124
17.5655,4.1124
17.7009,4.0855
17.7009,4.0855
17.8388,4.0855
17.8389,4.0855
17.9742,4.1124
17.9742,4.1124
18.1017,4.1652
18.1017,4.1652
18.2164,4.2419
18.2164,4.2419
18.3140,4.3395
18.3140,4.3395
18.3906,4.4542
18.3906,4.4542
18.4434,4.5817
18.4434,4.5817
18.4704,4.7170
18.4704,4.7170
18.4704,4.8550
18.4704,4.8550
18.4704,4.8550
18.4434,4.9903
18.4434,4.9903
18.3906,5.1178
18.3906,5.1178
18.3140,5.2325
18.3067,5.2398
18.2920,5.2668
18.2754,5.2926
18.2745,5.2988
18.2732,5.3012
18.2704,5.3275
18.2704,5.5410
18.2900,5.6080
18.3428,5.6538
18.3944,5.6650
18.4199,5.6650
18.4199,5.9400
18.4334,5.9963
18.4555,6.0397
18.4555,6.0397
18.4704,6.1335
18.4704,6.3020
18.4900,6.3690
18.5428,6.4148
18.5944,6.4260
18.6699,6.4260
18.6699,6.4625
18.6895,6.5295
18.7423,6.5753
18.7939,6.5865
19.0014,6.5865
19.0823,6.5993
19.0952,6.6014
19.2082,6.6589
19.2082,6.6589
19.2151,6.6625
19.2714,6.6760
19.4699,6.6760
19.4773,6.6834
19.4895,6.7252
19.5423,6.7709
19.5618,6.7779
19.5756,6.7816
19.6897,6.8475
19.6897,6.8475
21.4204,8.5781
21.4204,8.5781
21.4862,8.6923
21.5204,8.8196
21.5204,10.2059
21.4862,10.3332
21.4753,10.3522
21.4204,10.4473
21.4204,10.4473
21.4204,10.4473
16.5978,15.2698
16.5644,15.3311
16.5693,15.4008
16.6112,15.4568
16.6767,15.4812
16.6855,15.4815
24.7134,15.4815
24.7804,15.4618
24.8261,15.4090
24.8374,15.3575
24.8374,6.2305
24.8177,6.1635
24.7649,6.1177
24.7623,6.1172
19.4699,6.1172
19.4699,6.1760
18.9199,6.1760
18.9199,5.6650
19.0177,5.6650
19.0772,5.6714
19.0772,5.6714
19.2119,5.7216
19.2119,5.7216
19.3270,5.8078
19.3270,5.8078
19.4132,5.9229
19.4132,5.9229
19.4635,6.0576
19.4635,6.0576
19.4699,6.1172
24.7623,6.1172
24.7134,6.1065
24.6207,6.1065
24.6207,6.1065
24.5839,6.1036
24.4265,6.0579
24.3344,6.0034
24.3203,5.9951
24.2854,5.9744
24.1694,5.8585
24.0860,5.7174
24.0403,5.5599
24.0374,5.5231
24.0374,4.0889
24.0403,4.0521
24.0627,3.9748
24.0627,3.9748
24.0860,3.8946
24.0860,3.8946
24.1397,3.8038
24.1694,3.7535
24.1695,3.7535
24.2854,3.6376
24.2854,3.6376
24.3712,3.5868
24.4265,3.5541
24.5839,3.5084
24.5839,3.5084
24.5839,3.5084
24.6207,3.5055
24.6207,3.5055
26.0550,3.5055
26.0550,3.5055
26.0918,3.5084
26.0918,3.5084
26.1705,3.5313
26.2492,3.5541
26.2492,3.5541
26.2492,3.5541
26.3903,3.6376
26.3903,3.6376
26.5063,3.7535
26.5063,3.7535
26.5897,3.8946
26.5897,3.8946
26.6170,3.9886
26.6546,4.0475
26.7181,4.0767
26.7873,4.0669
26.8364,4.0269
26.8498,4.0085
26.8859,3.9588
27.0306,3.8140
27.0306,3.8140
27.1962,3.6937
27.1962,3.6937
27.1962,3.6937
27.2724,3.6549
27.3786,3.6008
27.5733,3.5375
27.7572,3.5084
27.7755,3.5055
27.9802,3.5055
27.9985,3.5084
28.1824,3.5375
28.3771,3.6008
28.5595,3.6937
28.7251,3.8140
28.8698,3.9588
28.8698,3.9588
28.9910,4.1255
29.0463,4.1682
29.1159,4.1742
29.1777,4.1416
29.2018,4.1089
29.2205,4.0722
29.2668,4.0085
29.2668,4.0085
29.9757,4.7174
29.9985,4.6323
30.0578,4.5297
30.1415,4.4459
30.2442,4.3867
30.3293,4.3639
29.6203,3.6549
29.6841,3.6086
29.8804,3.5086
30.0900,3.4405
30.3077,3.4060
30.5280,3.4060
30.7457,3.4405
30.9553,3.5086
31.1516,3.6086
31.2154,3.6549
31.2154,3.6549
30.5064,4.3639
30.5915,4.3867
30.6942,4.4459
30.7779,4.5297
30.8372,4.6323
30.8600,4.7174
31.5689,4.0085
31.5689,4.0085
31.6152,4.0722
31.7153,4.2686
31.7834,4.4782
31.8179,4.6958
31.8179,4.9162
31.7834,5.1338
31.7153,5.3434
31.6152,5.5398
31.5689,5.6035
30.8600,4.8946
30.8372,4.9797
30.7779,5.0823
30.6942,5.1661
30.5915,5.2253
30.5064,5.2481
31.2154,5.9571
31.2154,5.9571
31.1516,6.0034
30.9553,6.1034
30.7457,6.1715
30.5280,6.2060
30.3077,6.2060
30.0900,6.1715
29.8804,6.1034
29.6841,6.0034
29.6203,5.9571
29.6203,5.9571
30.3293,5.2481
30.2442,5.2253
30.1415,5.1661
30.0578,5.0823
29.9985,4.9797
29.9757,4.8946
29.2668,5.6035
29.2668,5.6035
29.2205,5.5398
29.2018,5.5031
29.1538,5.4523
29.0860,5.4355
29.0198,5.4580
28.9910,5.4865
28.8698,5.6532
28.7251,5.7980
28.5995,5.8892
28.5595,5.9183
28.4472,5.9755
28.3771,6.0112
28.3771,6.0112
28.3771,6.0112
28.2894,6.0397
28.1824,6.0745
28.0813,6.0905
27.9802,6.1065
27.9802,6.1065
27.7755,6.1065
27.7755,6.1065
27.5733,6.0745
27.3786,6.0112
27.1962,5.9183
27.0843,5.8370
27.0306,5.7980
27.0306,5.7980
27.0306,5.7980
26.8859,5.6532
26.8364,5.5851
26.7811,5.5424
26.7115,5.5365
26.6497,5.5691
26.6170,5.6234
26.5897,5.7174
26.5897,5.7174
26.5063,5.8585
26.5063,5.8585
26.3903,5.9744
26.3903,5.9744
26.3885,5.9755
26.2492,6.0579
26.0918,6.1036
26.0550,6.1065
25.9624,6.1065
25.8953,6.1262
25.8496,6.1790
25.8384,6.2305
25.8384,16.0479
25.8042,16.1752
25.7713,16.2323
25.7384,16.2893
25.6452,16.3825
25.5310,16.4484
25.4037,16.4825
25.2720,16.4825
6.8005,16.4825
6.7335,16.5022
6.7129,16.5188
6.3567,16.8750
6.3232,16.9363
6.3204,16.9627
6.3204,28.3810
6.3400,28.4480
6.3928,28.4938
6.4620,28.5037
6.5256,28.4747
6.5320,28.4687
7.6450,27.3557
7.6450,27.3557
7.7453,27.2555
7.7453,27.2555
7.7453,27.2555
7.7482,27.2538
7.8594,27.1896
7.9867,27.1555
7.9867,27.1555
8.1185,27.1555
8.2458,27.1896
8.3599,27.2555
8.3599,27.2555
8.8902,27.7858
9.5137,28.4093
9.5137,28.4093
9.5796,28.5234
9.6137,28.6507
9.6137,28.7825
9.5967,28.8462
9.5796,28.9098
9.5467,28.9669
9.5137,29.0239
9.5137,29.0239
9.5137,29.0239
8.1039,30.4338
8.1039,30.4338
8.0995,30.4381
8.0995,30.4381
8.0063,30.5313
7.8922,30.5972
7.7649,30.6313
7.7649,30.6313
7.7649,30.6313
7.6331,30.6313
7.6331,30.6313
7.5058,30.5972
7.3917,30.5313
6.7682,29.9078
6.7096,29.8493
6.7096,29.8492
6.5320,29.6717
6.4707,29.6382
6.4010,29.6432
6.3451,29.6850
6.3207,29.7505
6.3204,29.7593
6.3204,49.2407
6.3400,49.3077
6.3928,49.3534
6.4620,49.3634
6.5256,49.3344
6.5320,49.3283
6.8614,48.9990
7.3917,48.4687
7.3917,48.4687
7.4488,48.4357
7.5058,48.4028
7.5695,48.3857
7.6331,48.3687
7.7649,48.3687
7.8922,48.4028
8.0063,48.4687
8.0063,48.4687
8.0995,48.5619
9.4380,49.9003
9.4380,49.9003
9.4380,49.9003
9.5137,49.9761
9.5796,50.0902
9.6137,50.2175
9.6137,50.3493
9.5796,50.4766
9.5645,50.5028
9.5137,50.5907
8.9834,51.1210
8.3599,51.7445
8.2611,51.8016
8.2458,51.8104
8.2458,51.8104
8.1185,51.8445
8.1185,51.8445
8.1185,51.8445
7.9867,51.8445
7.9867,51.8445
7.8935,51.8196
7.8594,51.8104
7.8187,51.7869
7.7453,51.7445
7.6521,51.6514
7.6521,51.6514
7.6419,51.6412
7.6419,51.6411
6.5320,50.5313
6.4707,50.4978
6.4010,50.5028
6.3451,50.5447
6.3207,50.6101
6.3204,50.6190
6.3204,111.2425
6.3400,111.3095
6.3928,111.3553
6.4444,111.3665
9.7342,111.3665
9.8012,111.3468
9.8447,111.2988
9.8656,111.2577
9.9731,111.1097
10.1025,110.9803
10.2506,110.8727
10.2506,110.8727
10.2506,110.8727
10.4136,110.7897
10.5876,110.7331
10.5876,110.7331
10.5876,110.7331
10.7684,110.7045
10.7684,110.7045
10.9513,110.7045
10.9514,110.7045
11.1321,110.7331
11.3061,110.7897
11.4691,110.8727
11.6172,110.9803
11.7466,111.1097
11.8541,111.2577
11.9372,111.4208
11.9937,111.5948
12.0224,111.7755
12.0224,111.9585
11.9937,112.1392
11.9937,112.1392
11.9372,112.3132
11.8726,112.4400
11.8541,112.4763
11.7466,112.6243
11.6172,112.7537
11.4787,112.8543
11.4691,112.8613
11.3061,112.9443
11.1321,113.0009
11.0925,113.0071
11.0459,113.0145
10.9828,113.0445
10.9458,113.1038
10.9468,113.1736
10.9854,113.2319
11.0459,113.2595
11.1321,113.2731
11.3061,113.3297
11.4691,113.4127
11.6172,113.5203
11.7466,113.6497
11.8541,113.7977
11.9372,113.9608
11.9937,114.1348
12.0224,114.3155
12.0224,114.4985
11.9937,114.6792
11.9937,114.6792
11.9520,114.8075
11.9372,114.8532
11.8541,115.0163
11.7466,115.1643
11.6172,115.2937
11.4787,115.3943
11.4691,115.4013
11.3061,115.4843
11.1321,115.5409
11.0925,115.5471
11.0459,115.5545
10.9828,115.5845
10.9458,115.6438
10.9468,115.7136
10.9854,115.7719
11.0459,115.7995
11.1321,115.8131
11.3061,115.8697
11.4691,115.9527
11.6172,116.0603
11.7466,116.1897
11.8541,116.3377
11.9372,116.5008
11.9937,116.6748
12.0224,116.8555
12.0224,117.0385
11.9937,117.2192
11.9937,117.2192
11.9377,117.3917
11.9372,117.3932
11.8541,117.5563
11.7466,117.7043
11.6172,117.8337
11.4787,117.9343
11.4691,117.9413
11.3061,118.0243
11.1321,118.0809
11.0925,118.0871
11.0459,118.0945
10.9828,118.1245
10.9458,118.1838
10.9468,118.2536
10.9854,118.3119
11.0459,118.3395
11.1321,118.3531
11.3061,118.4097
11.4691,118.4927
11.6172,118.6003
11.7466,118.7297
11.8541,118.8777
11.9372,119.0408
11.9937,119.2148
12.0224,119.3955
12.0224,119.5785
11.9937,119.7592
11.9937,119.7592
11.9520,119.8875
11.9372,119.9332
11.8541,120.0963
11.7466,120.2443
11.6172,120.3737
11.4787,120.4743
11.4691,120.4813
11.3061,120.5643
11.1321,120.6209
11.0925,120.6271
11.0459,120.6345
10.9828,120.6645
10.9458,120.7238
10.9468,120.7936
10.9854,120.8519
11.0459,120.8795
11.1321,120.8931
11.1321,120.8931
11.2999,120.9476
11.3061,120.9497
11.4691,121.0327
11.6172,121.1403
11.7466,121.2697
11.8541,121.4177
11.9372,121.5808
11.9937,121.7548
12.0224,121.9355
12.0224,122.1185
12.0097,122.1986
11.9937,122.2992
11.9476,122.4412
11.9372,122.4732
11.8541,122.6363
11.7466,122.7843
11.6172,122.9137
11.4787,123.0143
11.4691,123.0213
11.3061,123.1043
11.1321,123.1609
11.0925,123.1671
11.0459,123.1745
10.9828,123.2045
10.9458,123.2638
10.9468,123.3336
10.9854,123.3919
11.0459,123.4195
11.1321,123.4331
11.3061,123.4897
11.4691,123.5727
11.6172,123.6803
11.7466,123.8097
11.8541,123.9577
11.9372,124.1208
11.9937,124.2948
12.0224,124.4755
12.0224,124.6585
11.9937,124.8392
11.9937,124.8392
11.9520,124.9675
11.9372,125.0132
11.8541,125.1763
11.7466,125.3243
11.6172,125.4537
11.4787,125.5543
11.4691,125.5613
11.3061,125.6443
11.1321,125.7009
11.0925,125.7071
11.0459,125.7145
10.9828,125.7445
10.9458,125.8038
10.9468,125.8736
10.9854,125.9319
11.0459,125.9595
11.1321,125.9731
11.3061,126.0297
11.4691,126.1127
11.6172,126.2203
11.7466,126.3497
11.8541,126.4977
11.9372,126.6608
11.9937,126.8348
12.0224,127.0155
12.0224,127.1985
11.9937,127.3792
11.9372,127.5532
11.8541,127.7163
11.7466,127.8643
11.6172,127.9937
11.4787,128.0943
11.4691,128.1013
11.3061,128.1843
11.1321,128.2409
11.0643,128.2516
10.9514,128.2695
10.9513,128.2695
10.7684,128.2695
10.6680,128.2536
10.5876,128.2409
10.4136,128.1843
10.2506,128.1013
10.1675,128.0409
10.1025,127.9937
10.1025,127.9937
10.1025,127.9937
9.9731,127.8643
9.9731,127.8643
9.9731,127.8643
9.9260,127.7994
9.8656,127.7163
9.7825,127.5532
9.7260,127.3792
9.7133,127.2989
9.6974,127.1985
9.6974,127.0155
9.7260,126.8348
9.7260,126.8348
9.7825,126.6608
9.8656,126.4977
9.8725,126.4882
9.9731,126.3497
10.1025,126.2203
10.2506,126.1127
10.2506,126.1127
10.2506,126.1127
10.4136,126.0297
10.5876,125.9731
10.5876,125.9731
10.5876,125.9731
10.6738,125.9595
10.7370,125.9295
10.7739,125.8702
10.7729,125.8004
10.7343,125.7421
10.6738,125.7145
10.6404,125.7092
10.5876,125.7009
10.4136,125.6443
10.2506,125.5613
10.1675,125.5009
10.1025,125.4537
10.1025,125.4537
10.1025,125.4537
9.9731,125.3243
9.9731,125.3243
9.9731,125.3243
9.8656,125.1763
9.8656,125.1763
9.8656,125.1763
9.8447,125.1352
9.7967,125.0844
9.7342,125.0675
9.3970,125.0675
9.3970,125.0675
9.2697,125.0334
9.1555,124.9675
2.9194,118.7313
2.8535,118.6172
2.8194,118.4899
2.8194,118.3581
2.8194,38.1260
2.8535,37.9987
2.9194,37.8846
3.0125,37.7914
3.2585,37.5455
3.2920,37.4842
3.2870,37.4145
3.2451,37.3585
3.1796,37.3341
3.1145,37.3473
3.0925,37.3585
2.9657,37.4232
2.9657,37.4232
2.9657,37.4232
2.7186,37.5035
2.5864,37.5244
2.4620,37.5441
2.4620,37.5441
2.2022,37.5441
2.0888,37.5261
1.9456,37.5035
1.6985,37.4232
1.4670,37.3052
1.2569,37.1525
1.0732,36.9688
0.9204,36.7586
0.8025,36.5272
0.7248,36.2881
0.6854,36.2304
0.6210,36.2032
0.5522,36.2152
0.5007,36.2624
0.4829,36.3264
0.4829,129.3755
0.5026,129.4425
0.5554,129.4883
0.6069,129.4995
36.3579,129.4995
36.4249,129.4798
36.4707,129.4270
36.4819,129.3755
36.4819,121.9277
27.3619,121.9277
27.3619,122.1263
27.3308,122.3225
27.3308,122.3225
27.2694,122.5114
27.1792,122.6884
27.1521,122.7257
26.5375,122.1111
26.5141,122.1986
26.4555,122.2999
26.3728,122.3827
26.2714,122.4412
26.1839,122.4646
26.7986,123.0793
26.7986,123.0793
26.7613,123.1064
26.5843,123.1965
26.4771,123.2314
26.4194,123.2708
26.3922,123.3352
26.4041,123.4040
26.4514,123.4555
26.4771,123.4672
26.5461,123.4897
26.7091,123.5727
26.8572,123.6803
26.9866,123.8097
27.0941,123.9577
27.1772,124.1208
27.2337,124.2948
27.2624,124.4755
27.2624,124.6585
27.2337,124.8392
27.2337,124.8392
27.1920,124.9675
27.1772,125.0132
27.0941,125.1763
26.9866,125.3243
26.8572,125.4537
26.7187,125.5543
26.7091,125.5613
26.5461,125.6443
26.3721,125.7009
26.3325,125.7071
26.2859,125.7145
26.2228,125.7445
26.1858,125.8038
26.1868,125.8736
26.2254,125.9319
26.2859,125.9595
26.3721,125.9731
26.5461,126.0297
26.7091,126.1127
26.8572,126.2203
26.9866,126.3497
27.0941,126.4977
27.1772,126.6608
27.2337,126.8348
27.2624,127.0155
27.2624,127.1985
27.2337,127.3792
27.1772,127.5532
27.0941,127.7163
26.9866,127.8643
26.8572,127.9937
26.7187,128.0943
26.7091,128.1013
26.5461,128.1843
26.3721,128.2409
26.3043,128.2516
26.1914,128.2695
26.1913,128.2695
26.0084,128.2695
25.9080,128.2536
25.8276,128.2409
25.6536,128.1843
25.4906,128.1013
25.4075,128.0409
25.3425,127.9937
25.3425,127.9937
25.3425,127.9937
25.2131,127.8643
25.2131,127.8643
25.2131,127.8643
25.1660,127.7994
25.1056,127.7163
25.0225,127.5532
24.9660,127.3792
24.9533,127.2989
24.9374,127.1985
24.9374,127.0155
24.9660,126.8348
24.9660,126.8348
25.0225,126.6608
25.1056,126.4977
25.1125,126.4882
25.2131,126.3497
25.3425,126.2203
25.4906,126.1127
25.4906,126.1127
25.4906,126.1127
25.6536,126.0297
25.8276,125.9731
25.8276,125.9731
25.8276,125.9731
25.9138,125.9595
25.9770,125.9295
26.0139,125.8702
26.0129,125.8004
25.9743,125.7421
25.9138,125.7145
25.8804,125.7092
25.8276,125.7009
25.6536,125.6443
25.4906,125.5613
25.4075,125.5009
25.3425,125.4537
25.3425,125.4537
25.3425,125.4537
25.2131,125.3243
25.2131,125.3243
25.2131,125.3243
25.1660,125.2594
25.1056,125.1763
25.0225,125.0132
24.9660,124.8392
24.9533,124.7589
24.9374,124.6585
24.9374,124.4755
24.9660,124.2948
24.9660,124.2948
25.0225,124.1208
25.1056,123.9577
25.1125,123.9482
25.2131,123.8097
25.3425,123.6803
25.4906,123.5727
25.4906,123.5727
25.4906,123.5727
25.5415,123.5468
25.6536,123.4897
25.6816,123.4806
25.7226,123.4672
25.7803,123.4278
25.8075,123.3634
25.7956,123.2946
25.7484,123.2431
25.7226,123.2314
25.6154,123.1965
25.4384,123.1064
25.4011,123.0793
26.0158,122.4646
25.9283,122.4412
25.8269,122.3827
25.7442,122.2999
25.6856,122.1986
25.6622,122.1111
25.0476,122.7257
25.0205,122.6884
24.9303,122.5114
24.8689,122.3225
24.8689,122.3225
24.8379,122.1263
24.8379,121.9277
24.8689,121.7315
24.8689,121.7315
24.9303,121.5426
25.0205,121.3656
25.0476,121.3283
25.6622,121.9429
25.6856,121.8554
25.7442,121.7541
25.8269,121.6713
25.9283,121.6128
26.0158,121.5894
25.4011,120.9747
25.4011,120.9747
25.4384,120.9476
25.6154,120.8575
25.7226,120.8226
25.7803,120.7832
25.8075,120.7188
25.7956,120.6500
25.7484,120.5985
25.7226,120.5868
25.6536,120.5643
25.4906,120.4813
25.4075,120.4209
25.3425,120.3737
25.3425,120.3737
25.3425,120.3737
25.2131,120.2443
25.2131,120.2443
25.2131,120.2443
25.1660,120.1794
25.1056,120.0963
25.0225,119.9332
24.9660,119.7592
24.9533,119.6789
24.9374,119.5785
24.9374,119.3955
24.9660,119.2148
24.9660,119.2148
25.0225,119.0408
25.1056,118.8777
25.1125,118.8682
25.2131,118.7297
25.3425,118.6003
25.4906,118.4927
25.4906,118.4927
25.4906,118.4927
25.6536,118.4097
25.8276,118.3531
25.8276,118.3531
25.8276,118.3531
25.9138,118.3395
25.9770,118.3095
26.0139,118.2502
26.0129,118.1804
25.9743,118.1221
25.9138,118.0945
25.8804,118.0892
25.8276,118.0809
25.6536,118.0243
25.4906,117.9413
25.4075,117.8809
25.3425,117.8337
25.3425,117.8337
25.3425,117.8337
25.2131,117.7043
25.2131,117.7043
25.2131,117.7043
25.1056,117.5563
25.1056,117.5563
25.1056,117.5563
25.0847,117.5152
25.0367,117.4644
24.9742,117.4475
21.3350,117.4475
21.3350,117.4475
21.2077,117.4134
21.0935,117.3475
13.2534,109.5073
13.1875,109.3932
13.1534,109.2659
13.1534,109.1341
13.1534,54.4740
12.3830,54.4740
12.3830,54.7338
12.3424,54.9904
12.2621,55.2375
12.1810,55.3967
12.1441,55.4690
11.9914,55.6792
11.8077,55.8629
11.5976,56.0156
11.4501,56.0907
11.3661,56.1335
11.3661,56.1335
11.3661,56.1335
11.1190,56.2138
10.9868,56.2347
10.8624,56.2544
10.8624,56.2544
10.6026,56.2544
10.4892,56.2365
10.3460,56.2138
10.0989,56.1335
9.8675,56.0156
9.6573,55.8629
9.4736,55.6792
9.3209,55.4690
9.2029,55.2375
9.1227,54.9904
9.1000,54.8472
9.0820,54.7338
9.0820,54.4740
9.1065,54.3193
9.1227,54.2174
9.2029,53.9704
9.2029,53.9703
9.2029,53.9703
9.2457,53.8864
9.3209,53.7389
9.4736,53.5287
9.6573,53.3450
9.8675,53.1923
9.9397,53.1555
10.0989,53.0743
10.3460,52.9941
10.6026,52.9534
10.6026,52.9534
10.8624,52.9534
10.8624,52.9534
11.1190,52.9941
11.3661,53.0743
11.5976,53.1923
11.8077,53.3450
11.8077,53.3450
11.9914,53.5287
11.9914,53.5287
12.1441,53.7389
12.2621,53.9703
12.3424,54.2174
12.3830,54.4740
13.1534,54.4740
13.1534,52.8167
13.1337,52.7496
13.1170,52.7290
10.6714,50.2834
8.1734,47.7853
8.1075,47.6712
8.0734,47.5439
8.0734,47.4121
8.0734,42.4591
8.1075,42.3318
8.1734,42.2177
8.2665,42.1245
11.3978,38.9933
11.4313,38.9319
11.4341,38.9056
11.4341,34.7493
11.4144,34.6823
11.3616,34.6366
11.3576,34.6348
11.1818,34.5620
11.1476,34.5478
11.1476,34.5478
11.1476,34.5478
10.9461,34.4315
10.7614,34.2898
10.5968,34.1252
10.4551,33.9406
10.3388,33.7390
10.2497,33.5240
10.1895,33.2991
10.1591,33.0684
10.1591,32.8356
10.1895,32.6049
10.2497,32.3801
10.2752,32.3186
10.3388,32.1651
10.3388,32.1650
10.4551,31.9635
10.4551,31.9635
10.5968,31.7788
10.5968,31.7788
10.7614,31.6143
10.7614,31.6143
10.9461,31.4726
10.9461,31.4726
10.9461,31.4726
10.9461,31.4726
10.9461,31.4726
11.1476,31.3562
11.1476,31.3562
11.3626,31.2671
11.5875,31.2069
11.8182,31.1765
11.8182,31.1765
11.8182,31.1765
12.0510,31.1765
12.0510,31.1765
12.0510,31.1765
12.2817,31.2069
12.5065,31.2671
12.7216,31.3562
12.7216,31.3562
12.9231,31.4726
12.9231,31.4726
13.1078,31.6143
13.1078,31.6143
13.2723,31.7788
13.2723,31.7788
13.4140,31.9635
13.4140,31.9635
13.5304,32.1650
13.5304,32.1651
13.6195,32.3801
13.6797,32.6049
13.7101,32.8356
13.7101,32.8357
13.7101,33.0684
13.7101,33.0684
13.7083,33.0820
13.6797,33.2991
13.6691,33.3386
13.6195,33.5240
13.5304,33.7390
13.5304,33.7390
13.4140,33.9405
13.4140,33.9406
13.2723,34.1252
13.2723,34.1252
13.1078,34.2898
13.1078,34.2898
12.9231,34.4315
12.9231,34.4315
12.7216,34.5478
12.7216,34.5478
12.5624,34.6137
12.5116,34.6348
12.4572,34.6786
12.4352,34.7449
12.4351,34.7493
12.4351,39.2302
12.4010,39.3575
12.3680,39.4145
12.3351,39.4716
12.3351,39.4716
9.1107,42.6960
9.0772,42.7573
9.0744,42.7837
9.0744,47.2193
9.0940,47.2864
9.1107,47.3070
14.0544,52.2507
14.0544,52.2507
14.1202,52.3648
14.1544,52.4921
14.1544,108.9413
14.1740,109.0084
14.1907,109.0290
21.5718,116.4102
21.6332,116.4437
21.6595,116.4465
24.9742,116.4465
25.0412,116.4268
25.0847,116.3788
25.1056,116.3377
25.2131,116.1897
25.3425,116.0603
25.4906,115.9527
25.4906,115.9527
25.4906,115.9527
25.6536,115.8697
25.8276,115.8131
25.8276,115.8131
25.8276,115.8131
25.9138,115.7995
25.9770,115.7695
26.0139,115.7102
26.0129,115.6404
25.9743,115.5821
25.9138,115.5545
25.8804,115.5492
25.8276,115.5409
25.6536,115.4843
25.4906,115.4013
25.4075,115.3409
25.3425,115.2937
25.3425,115.2937
25.3425,115.2937
25.2131,115.1643
25.2131,115.1643
25.2131,115.1643
25.1056,115.0163
25.1056,115.0163
25.1056,115.0163
25.0847,114.9752
25.0367,114.9244
24.9742,114.9075
21.5890,114.9075
21.5890,114.9075
21.4617,114.8734
21.3475,114.8075
15.0314,108.4913
14.9655,108.3772
14.9314,108.2499
14.9314,108.1181
14.9314,49.8039
14.9117,49.7369
14.8950,49.7162
12.8516,47.6728
12.7903,47.6393
12.7206,47.6443
12.7165,47.6459
12.5065,47.7328
12.2817,47.7931
12.0510,47.8235
12.0510,47.8235
11.8182,47.8235
11.8182,47.8235
11.5875,47.7931
11.3627,47.7328
11.2176,47.6728
11.1476,47.6438
11.1476,47.6438
11.1476,47.6438
10.9461,47.5274
10.7614,47.3857
10.5968,47.2211
10.4551,47.0365
10.3388,46.8349
10.3217,46.7938
10.2497,46.6199
10.2497,46.6199
10.2497,46.6199
10.1895,46.3951
10.1591,46.1643
10.1591,45.9316
10.1895,45.7008
10.2497,45.4760
10.2497,45.4760
10.3388,45.2610
10.3388,45.2610
10.4551,45.0594
10.4551,45.0594
10.5968,44.8748
10.5968,44.8748
10.7614,44.7102
10.7614,44.7102
10.9461,44.5685
10.9461,44.5685
10.9461,44.5685
10.9461,44.5685
10.9461,44.5685
11.1476,44.4521
11.1476,44.4521
11.3626,44.3631
11.5875,44.3028
11.8182,44.2725
11.8182,44.2725
11.8182,44.2725
12.0510,44.2725
12.0510,44.2725
12.0510,44.2725
12.2817,44.3028
12.5065,44.3631
12.7216,44.4521
12.7216,44.4521
12.9231,44.5685
12.9231,44.5685
13.1078,44.7102
13.1078,44.7102
13.2723,44.8748
13.2723,44.8748
13.4140,45.0594
13.4140,45.0594
13.5304,45.2610
13.5304,45.2610
13.6195,45.4760
13.6797,45.7008
13.7101,45.9316
13.7101,45.9316
13.7101,46.1643
13.7101,46.1643
13.6800,46.3930
13.6797,46.3951
13.6433,46.5310
13.6195,46.6199
13.5325,46.8298
13.5251,46.8993
13.5563,46.9618
13.5594,46.9649
15.7566,49.1622
15.7566,49.1622
15.8324,49.2379
15.8982,49.3520
15.9324,49.4793
15.9324,107.9253
15.9520,107.9924
15.9687,108.0130
21.8258,113.8702
21.8872,113.9037
21.9135,113.9065
24.9742,113.9065
25.0412,113.8868
25.0847,113.8388
25.1056,113.7977
25.2131,113.6497
25.3425,113.5203
25.4906,113.4127
25.4906,113.4127
25.4906,113.4127
25.6536,113.3297
25.8276,113.2731
25.8276,113.2731
25.8276,113.2731
25.9138,113.2595
25.9770,113.2295
26.0139,113.1702
26.0129,113.1004
25.9743,113.0421
25.9138,113.0145
25.8804,113.0092
25.8276,113.0009
25.6536,112.9443
25.4906,112.8613
25.4075,112.8009
25.3425,112.7537
25.3425,112.7537
25.3425,112.7537
25.2131,112.6243
25.2131,112.6243
25.2131,112.6243
25.1660,112.5594
25.1056,112.4763
25.0225,112.3132
24.9660,112.1392
24.9533,112.0589
24.9374,111.9585
24.9374,111.7755
24.9660,111.5948
24.9660,111.5948
25.0225,111.4208
25.1056,111.2577
25.1167,111.2425
25.2131,111.1097
25.3425,110.9803
25.4906,110.8727
25.4906,110.8727
25.4906,110.8727
25.6536,110.7897
25.8276,110.7331
25.8276,110.7331
25.8276,110.7331
26.0084,110.7045
26.0084,110.7045
26.1913,110.7045
26.1914,110.7045
26.3721,110.7331
26.5461,110.7897
26.7091,110.8727
26.8572,110.9803
26.9866,111.1097
27.0941,111.2577
27.1772,111.4208
27.2337,111.5948
27.2624,111.7755
27.2624,111.9585
27.2337,112.1392
27.2337,112.1392
27.1772,112.3132
27.1126,112.4400
27.0941,112.4763
26.9866,112.6243
26.8572,112.7537
26.7187,112.8543
26.7091,112.8613
26.5461,112.9443
26.3721,113.0009
26.3325,113.0071
26.2859,113.0145
26.2228,113.0445
26.1858,113.1038
26.1868,113.1736
26.2254,113.2319
26.2859,113.2595
26.3721,113.2731
26.5461,113.3297
26.7091,113.4127
26.8572,113.5203
26.9866,113.6497
27.0941,113.7977
27.1772,113.9608
27.2337,114.1348
27.2624,114.3155
27.2624,114.4985
27.2337,114.6792
27.2337,114.6792
27.1920,114.8075
27.1772,114.8532
27.0941,115.0163
26.9866,115.1643
26.8572,115.2937
26.7187,115.3943
26.7091,115.4013
26.5461,115.4843
26.3721,115.5409
26.3325,115.5471
26.2859,115.5545
26.2228,115.5845
26.1858,115.6438
26.1868,115.7136
26.2254,115.7719
26.2859,115.7995
26.3721,115.8131
26.5461,115.8697
26.7091,115.9527
26.8572,116.0603
26.9866,116.1897
27.0941,116.3377
27.1772,116.5008
27.2337,116.6748
27.2624,116.8555
27.2624,117.0385
27.2337,117.2192
27.2337,117.2192
27.1777,117.3917
27.1772,117.3932
27.0941,117.5563
26.9866,117.7043
26.8572,117.8337
26.7187,117.9343
26.7091,117.9413
26.5461,118.0243
26.3721,118.0809
26.3325,118.0871
26.2859,118.0945
26.2228,118.1245
26.1858,118.1838
26.1868,118.2536
26.2254,118.3119
26.2859,118.3395
26.3721,118.3531
26.5461,118.4097
26.7091,118.4927
26.8572,118.6003
26.9866,118.7297
27.0941,118.8777
27.1772,119.0408
27.2337,119.2148
27.2624,119.3955
27.2624,119.5785
27.2337,119.7592
27.2337,119.7592
27.1920,119.8875
27.1772,119.9332
27.0941,120.0963
26.9866,120.2443
26.8572,120.3737
26.7187,120.4743
26.7091,120.4813
26.5461,120.5643
26.4771,120.5868
26.4194,120.6262
26.3922,120.6906
26.4041,120.7594
26.4514,120.8109
26.4771,120.8226
26.5843,120.8575
26.7613,120.9476
26.7986,120.9747
26.7986,120.9747
26.1839,121.5894
26.2714,121.6128
26.3728,121.6713
26.4555,121.7541
26.5141,121.8554
26.5375,121.9429
27.1521,121.3283
27.1521,121.3283
27.1792,121.3656
27.2694,121.5426
27.3308,121.7315
27.3308,121.7315
27.3619,121.9277
36.4819,121.9277
36.4819,54.5140
23.3856,54.5140
23.3856,56.6454
23.3827,56.6823
23.3827,56.6823
23.3368,56.8401
23.3368,56.8401
23.2532,56.9816
23.2532,56.9816
23.1370,57.0978
23.1370,57.0978
23.1370,57.0978
22.9955,57.1814
22.9539,57.1935
22.8377,57.2273
22.8377,57.2273
22.8377,57.2273
22.8008,57.2302
22.8008,57.2302
20.6694,57.2302
20.6694,57.2302
20.6325,57.2273
20.6325,57.2273
20.6325,57.2273
20.5909,57.2152
20.4747,57.1814
20.3332,57.0978
20.2170,56.9816
20.1333,56.8401
20.0875,56.6823
20.0846,56.6454
20.0846,54.5140
20.0875,54.4771
20.0884,54.4740
20.1333,54.3193
20.1333,54.3193
20.1333,54.3193
20.2170,54.1778
20.2170,54.1778
20.2170,54.1778
20.3332,54.0616
20.3332,54.0616
20.4747,53.9779
20.4747,53.9779
20.6325,53.9321
20.6325,53.9321
20.6694,53.9292
20.6694,53.9292
22.8008,53.9292
22.8008,53.9292
22.8377,53.9321
22.8377,53.9321
22.9955,53.9779
22.9955,53.9779
23.1370,54.0616
23.1370,54.0616
23.2532,54.1778
23.2532,54.1778
23.3368,54.3193
23.3368,54.3193
23.3827,54.4771
23.3827,54.4771
23.3856,54.5140
36.4819,54.5140
36.4819,49.8639
30.8269,49.8639
30.8269,49.9957
30.7928,50.1230
30.7599,50.1801
30.7269,50.2371
29.2195,51.7445
29.1207,51.8016
29.1054,51.8104
29.1054,51.8104
28.9781,51.8445
28.9781,51.8445
28.8463,51.8445
28.8463,51.8445
28.7190,51.8104
28.6049,51.7445
28.5117,51.6514
28.5117,51.6514
28.5015,51.6411
28.5015,51.6411
27.9814,51.1210
27.4511,50.5907
27.3852,50.4766
27.3511,50.3493
27.3511,50.2175
27.3852,50.0902
27.4511,49.9761
27.5443,49.8829
27.5443,49.8829
27.5486,49.8785
27.5486,49.8785
28.9585,48.4687
28.9585,48.4687
28.9585,48.4687
29.0155,48.4357
29.0726,48.4028
29.1362,48.3857
29.1999,48.3687
29.3317,48.3687
29.4590,48.4028
29.5731,48.4687
29.5731,48.4687
30.1034,48.9990
30.6512,49.5468
30.6512,49.5468
30.7269,49.6225
30.7928,49.7366
30.8269,49.8639
36.4819,49.8639
36.4819,43.5391
36.4622,43.4721
36.4094,43.4263
36.3403,43.4164
36.2767,43.4454
36.2400,43.5008
36.1981,43.6297
36.1623,43.7398
36.0444,43.9713
35.8916,44.1815
35.7079,44.3652
35.4978,44.5179
35.3910,44.5723
35.2663,44.6358
35.2663,44.6358
35.2663,44.6358
35.0192,44.7161
34.8870,44.7371
34.7626,44.7568
34.7626,44.7568
34.5028,44.7568
34.3894,44.7388
34.2462,44.7161
33.9991,44.6358
33.9547,44.6132
33.8861,44.6003
33.8213,44.6266
33.8108,44.6360
33.4555,44.9913
33.3623,45.0845
33.2482,45.1504
33.1209,45.1845
25.9775,45.1845
25.9105,45.2042
25.8898,45.2208
24.6777,46.4330
24.6442,46.4943
24.6414,46.5207
24.6414,46.5310
24.6414,46.5310
24.6414,46.5310
24.6144,46.6663
24.6144,46.6663
24.5616,46.7938
24.5616,46.7938
24.4850,46.9085
24.4850,46.9085
24.3874,47.0061
24.3874,47.0061
24.2727,47.0828
24.2727,47.0828
24.1452,47.1356
24.1452,47.1356
24.1452,47.1356
24.1452,47.1356
24.0099,47.1625
24.0098,47.1625
23.8719,47.1625
23.7808,47.1444
23.7365,47.1356
23.6090,47.0828
23.4943,47.0061
23.3967,46.9085
23.3201,46.7938
23.2673,46.6663
23.2404,46.5310
23.2404,46.3930
23.2404,46.3930
23.2673,46.2577
23.2673,46.2577
23.2673,46.2577
23.3059,46.1643
23.3201,46.1302
23.3201,46.1302
23.3967,46.0155
23.3967,46.0155
23.4943,45.9179
23.4943,45.9179
23.6090,45.8412
23.6091,45.8412
23.7365,45.7884
23.7365,45.7884
23.8719,45.7615
23.8719,45.7615
23.8822,45.7615
23.9492,45.7418
23.9699,45.7252
25.4115,44.2835
25.4115,44.2835
25.4686,44.2506
25.5257,44.2176
25.5893,44.2006
25.6530,44.1835
25.6530,44.1835
32.7963,44.1835
32.8633,44.1638
32.8840,44.1472
33.1030,43.9282
33.1364,43.8669
33.1315,43.7972
33.1258,43.7842
33.1031,43.7398
33.0229,43.4927
33.0002,43.3496
32.9822,43.2362
32.9822,42.9764
33.0107,42.7966
33.0229,42.7198
33.1031,42.4727
33.1031,42.4727
33.1031,42.4727
33.1459,42.3887
33.2211,42.2412
33.3738,42.0310
33.5575,41.8473
33.7677,41.6946
33.8400,41.6578
33.9991,41.5767
34.2462,41.4964
34.5028,41.4558
34.5028,41.4558
34.7626,41.4558
34.7626,41.4558
35.0192,41.4964
35.2663,41.5767
35.4978,41.6946
35.7079,41.8473
35.7080,41.8473
35.8916,42.0310
35.8917,42.0310
36.0444,42.2412
36.1623,42.4727
36.2400,42.7117
36.2794,42.7694
36.3438,42.7966
36.4126,42.7847
36.4641,42.7374
36.4819,42.6734
36.4819,40.4803
21.2431,40.4803
21.2431,40.7401
21.2024,40.9967
21.1221,41.2437
21.0410,41.4029
21.0042,41.4752
20.8515,41.6854
20.6678,41.8691
20.4576,42.0218
20.3101,42.0969
20.2261,42.1397
20.2261,42.1397
20.2261,42.1397
19.9791,42.2200
19.8469,42.2410
19.7225,42.2607
19.7225,42.2607
19.4627,42.2607
19.3398,42.2412
19.2061,42.2200
18.9590,42.1397
18.7275,42.0218
18.5173,41.8691
18.3336,41.6854
18.1809,41.4752
18.0630,41.2437
17.9827,40.9967
17.9600,40.8535
17.9421,40.7401
17.9421,40.4803
17.9636,40.3442
17.9827,40.2237
18.0630,39.9766
18.0630,39.9766
18.0630,39.9766
18.1058,39.8926
18.1809,39.7451
18.3336,39.5349
18.5173,39.3512
18.6840,39.2302
18.7275,39.1985
18.7275,39.1985
18.7275,39.1985
18.7998,39.1617
18.9590,39.0806
19.2061,39.0003
19.4627,38.9597
19.4627,38.9597
19.7225,38.9597
19.7225,38.9597
19.9791,39.0003
20.2261,39.0806
20.4576,39.1985
20.6678,39.3512
20.6678,39.3512
20.8515,39.5349
20.8515,39.5349
21.0042,39.7451
21.1221,39.9766
21.2024,40.2237
21.2431,40.4803
36.4819,40.4803
36.4819,32.8222
26.6807,32.8222
26.6807,33.0820
26.6401,33.3386
26.5598,33.5857
26.4418,33.8172
26.2891,34.0274
26.2891,34.0274
26.1054,34.2111
25.8953,34.3638
25.7624,34.4315
25.6638,34.4817
25.6638,34.4817
25.6638,34.4817
25.4167,34.5620
25.2845,34.5829
25.1601,34.6026
25.1601,34.6026
24.9003,34.6026
24.7869,34.5847
24.6437,34.5620
24.3966,34.4817
24.1652,34.3638
23.9550,34.2111
23.7713,34.0274
23.6186,33.8172
23.5006,33.5857
23.4203,33.3386
23.3977,33.1954
23.3797,33.0820
23.3797,32.8222
23.4141,32.6049
23.4203,32.5656
23.5006,32.3186
23.5006,32.3186
23.5006,32.3186
23.5434,32.2346
23.6186,32.0871
23.7713,31.8769
23.9550,31.6932
23.9550,31.6932
24.1652,31.5405
24.1652,31.5405
24.1652,31.5405
24.2374,31.5037
24.3966,31.4226
24.6437,31.3423
24.9003,31.3016
24.9003,31.3016
25.1601,31.3016
25.1601,31.3016
25.4167,31.3423
25.6638,31.4226
25.8953,31.5405
26.1054,31.6932
26.1054,31.6932
26.2891,31.8769
26.2891,31.8769
26.4418,32.0871
26.5598,32.3186
26.6401,32.5656
26.6807,32.8222
36.4819,32.8222
36.4819,29.0043
30.8269,29.0043
30.8269,29.1361
30.7928,29.2634
30.7756,29.2932
30.7269,29.3775
30.7269,29.3775
30.2552,29.8492
30.1966,29.9078
29.6663,30.4381
29.5731,30.5313
29.4590,30.5972
29.3317,30.6313
29.3317,30.6313
29.1999,30.6313
29.1999,30.6313
29.1999,30.6313
29.0726,30.5972
28.9585,30.5313
28.8653,30.4381
28.8653,30.4381
27.5545,29.1273
27.5545,29.1273
27.5443,29.1171
27.5443,29.1171
27.4511,29.0239
27.3852,28.9098
27.3511,28.7825
27.3511,28.6507
27.3852,28.5234
27.4511,28.4093
28.0746,27.7858
28.5047,27.3557
28.5047,27.3557
28.6049,27.2555
28.6049,27.2555
28.7190,27.1896
28.7190,27.1896
28.7190,27.1896
28.8463,27.1555
28.9781,27.1555
29.1054,27.1896
29.2195,27.2555
29.2195,27.2555
30.7269,28.7629
30.7269,28.7629
30.7928,28.8770
30.8016,28.9098
30.8269,29.0043
36.4819,29.0043
36.4819,23.3304
27.8828,23.3304
27.8828,25.4618
27.8799,25.4987
27.8799,25.4987
27.8340,25.6565
27.8340,25.6565
27.7504,25.7980
27.7504,25.7980
27.6342,25.9142
27.6342,25.9142
27.6342,25.9142
27.4927,25.9979
27.4511,26.0100
27.3349,26.0437
27.3349,26.0437
27.3349,26.0437
27.2980,26.0466
27.2980,26.0466
25.1666,26.0466
25.1666,26.0466
25.1297,26.0437
25.1297,26.0437
25.1297,26.0437
25.0881,26.0316
24.9719,25.9979
24.8304,25.9142
24.7142,25.7980
24.6305,25.6565
24.5847,25.4987
24.5818,25.4618
24.5818,23.3304
24.5847,23.2936
24.6305,23.1357
24.7142,22.9943
24.7142,22.9943
24.7142,22.9943
24.8304,22.8781
24.8304,22.8780
24.9719,22.7944
24.9719,22.7944
25.1297,22.7485
25.1297,22.7485
25.1666,22.7456
25.1666,22.7456
27.2980,22.7456
27.2980,22.7456
27.3349,22.7485
27.3349,22.7485
27.4927,22.7944
27.4927,22.7944
27.6342,22.8780
27.6342,22.8781
27.7504,22.9943
27.7504,22.9943
27.8340,23.1357
27.8340,23.1357
27.8799,23.2936
27.8799,23.2936
27.8828,23.3304
36.4819,23.3304
36.4819,0.6245
36.4622,0.5575
36.4094,0.5117
36.3579,0.5005
31.6069,0.5005
Z" /> 
</g>
<g style="fill:#02FFEE; fill-opacity:0.4000; stroke:none;">
<circle cx="10.8599" cy="127.1070" r="0.7620" /> 
<circle cx="10.8599" cy="124.5670" r="0.7620" /> 
<circle cx="10.8599" cy="122.0270" r="0.7620" /> 
<circle cx="10.8599" cy="119.4870" r="0.7620" /> 
<circle cx="10.8599" cy="116.9470" r="0.7620" /> 
<circle cx="10.8599" cy="114.4070" r="0.7620" /> 
<circle cx="10.8599" cy="111.8670" r="0.7620" /> 
<circle cx="26.0999" cy="111.8670" r="0.7620" /> 
<circle cx="26.0999" cy="114.4070" r="0.7620" /> 
<circle cx="26.0999" cy="116.9470" r="0.7620" /> 
<circle cx="26.0999" cy="119.4870" r="0.7620" /> 
<circle cx="26.0999" cy="122.0270" r="0.7620" /> 
<circle cx="26.0999" cy="124.5670" r="0.7620" /> 
<circle cx="26.0999" cy="127.1070" r="0.7620" /> 
<path style="fill:#02FFEE; fill-opacity:0.4000; stroke:none;fill-rule:evenodd;"
d="M 6.8824,4.1440
6.8824,5.9440
8.6824,5.9440
8.6824,4.1440
Z" /> 
<circle cx="10.3224" cy="5.0440" r="0.9000" /> 
<path style="fill:#02FFEE; fill-opacity:0.4000; stroke:none;fill-rule:evenodd;"
d="M 24.4379,5.4576
24.4568,5.5527
24.5106,5.6332
24.5912,5.6871
24.6863,5.7060
25.9895,5.7060
26.0845,5.6871
26.1651,5.6332
26.2189,5.5527
26.2379,5.4576
26.2379,4.1544
26.2189,4.0593
26.1651,3.9788
26.0845,3.9249
25.9895,3.9060
24.6863,3.9060
24.5912,3.9249
24.5106,3.9788
24.4568,4.0593
24.4379,4.1544
Z" /> 
<circle cx="27.8779" cy="4.8060" r="0.9000" /> 
<circle cx="30.4179" cy="4.8060" r="0.9000" /> 
<path style="fill:#02FFEE; fill-opacity:0.4000; stroke:none;fill-rule:evenodd;"
d="M 22.7351,56.8297
22.8308,56.8107
22.9119,56.7565
22.9661,56.6754
22.9851,56.5797
22.9851,54.5797
22.9661,54.4840
22.9119,54.4029
22.8308,54.3487
22.7351,54.3297
20.7351,54.3297
20.6394,54.3487
20.5583,54.4029
20.5041,54.4840
20.4851,54.5797
20.4851,56.5797
20.5041,56.6754
20.5583,56.7565
20.6394,56.8107
20.7351,56.8297
Z" /> 
<circle cx="10.7325" cy="54.6039" r="1.2500" /> 
<circle cx="11.9346" cy="46.0480" r="1.3750" /> 
<circle cx="19.5926" cy="40.6102" r="1.2500" /> 
<circle cx="34.6327" cy="43.1063" r="1.2500" /> 
<circle cx="25.0302" cy="32.9521" r="1.2500" /> 
<circle cx="11.9346" cy="32.9520" r="1.3750" /> 
<path style="fill:#02FFEE; fill-opacity:0.4000; stroke:none;fill-rule:evenodd;"
d="M 27.2323,25.6461
27.3280,25.6271
27.4091,25.5729
27.4633,25.4918
27.4823,25.3961
27.4823,23.3961
27.4633,23.3005
27.4091,23.2194
27.3280,23.1652
27.2323,23.1461
25.2323,23.1461
25.1366,23.1652
25.0555,23.2194
25.0013,23.3005
24.9823,23.3961
24.9823,25.3961
25.0013,25.4918
25.0555,25.5729
25.1366,25.6271
25.2323,25.6461
Z" /> 
<circle cx="2.3321" cy="35.8936" r="1.2500" /> 
<circle cx="17.7699" cy="8.5000" r="0.2500" /> 
<path style="fill:#02FFEE; fill-opacity:0.4000; stroke:none;fill-rule:evenodd;"
d="M 16.5699,6.1650
16.5699,6.6870
17.1699,6.6870
17.1699,6.1650
Z" /> 
<path style="fill:#02FFEE; fill-opacity:0.4000; stroke:none;fill-rule:evenodd;"
d="M 16.5699,6.9870
16.5699,7.5090
17.1699,7.5090
17.1699,6.9870
Z" /> 
<path style="fill:#02FFEE; fill-opacity:0.4000; stroke:none;fill-rule:evenodd;"
d="M 17.7127,7.5844
17.6797,7.5844
17.5028,7.6196
17.3362,7.6886
17.1862,7.7888
17.0587,7.9164
16.9585,8.0663
16.8895,8.2329
16.8543,8.4098
16.8543,8.5902
16.8895,8.7671
16.9585,8.9337
17.0587,9.0836
17.1862,9.2112
17.3362,9.3114
17.5028,9.3804
17.6797,9.4156
17.8600,9.4156
18.0369,9.3804
18.2035,9.3114
18.3535,9.2112
18.4810,9.0836
18.5812,8.9337
18.6502,8.7671
18.6854,8.5902
18.6854,8.4370
18.4099,8.4370
18.4099,8.5630
18.3853,8.6867
18.3370,8.8032
18.2670,8.9080
18.1778,8.9971
18.0730,9.0672
17.9565,9.1154
17.8329,9.1400
17.7068,9.1400
17.5832,9.1154
17.4667,9.0672
17.3619,8.9971
17.2727,8.9080
17.2027,8.8032
17.1545,8.6867
17.1299,8.5630
17.1299,8.4370
17.1545,8.3133
17.2027,8.1968
17.2727,8.0920
17.3619,8.0029
17.4667,7.9328
17.5832,7.8846
17.7068,7.8600
17.7234,7.8600
17.7406,7.8671
17.7991,7.8671
17.8163,7.8600
17.8329,7.8600
17.9565,7.8846
18.0730,7.9328
18.1778,8.0029
18.2670,8.0920
18.3370,8.1968
18.3853,8.3133
18.4099,8.4370
18.6854,8.4370
18.6854,8.4098
18.6502,8.2329
18.5812,8.0663
18.4810,7.9164
18.3535,7.7888
18.2035,7.6886
18.0369,7.6196
17.8600,7.5844
17.8270,7.5844
17.7991,7.5729
17.7406,7.5729
Z" /> 
<path style="fill:#02FFEE; fill-opacity:0.4000; stroke:none;fill-rule:evenodd;"
d="M 18.3699,6.9870
18.3699,7.5090
18.9699,7.5090
18.9699,6.9870
Z" /> 
<path style="fill:#02FFEE; fill-opacity:0.4000; stroke:none;fill-rule:evenodd;"
d="M 18.3699,6.1650
18.3699,6.6870
18.9699,6.6870
18.9699,6.1650
Z" /> 
<path style="fill:#02FFEE; fill-opacity:0.4000; stroke:none;fill-rule:evenodd;"
d="M 17.4699,6.1650
17.4699,6.6870
18.0699,6.6870
18.0699,6.1650
Z" /> 
</g>
<g style="fill:none; 
stroke:#E8B2A7; stroke-width:0.1500; stroke-opacity:1; 
stroke-linecap:round; stroke-linejoin:round;">
<text x="17.7699" y="5.2900"
textLength="2.3452" font-size="1.3333" lengthAdjust="spacingAndGlyphs"
text-anchor="middle" opacity="0" stroke-opacity="0">M1</text>
<g class="stroked-text"><desc>M1</desc>
<path d="M16.9603 5.2448
L16.9603 4.2448
" />
<path d="M16.9603 4.2448
L17.2937 4.9591
" />
<path d="M17.2937 4.9591
L17.6270 4.2448
" />
<path d="M17.6270 4.2448
L17.6270 5.2448
" />
<path d="M18.6270 5.2448
L18.0556 5.2448
" />
<path d="M18.3413 5.2448
L18.3413 4.2448
" />
<path d="M18.3413 4.2448
L18.2460 4.3877
" />
<path d="M18.2460 4.3877
L18.1508 4.4829
" />
<path d="M18.1508 4.4829
L18.0556 4.5305
" />
</g></g>
<g style="fill:none; 
stroke:#E8B2A7; stroke-width:0.1200; stroke-opacity:1; 
stroke-linecap:round; stroke-linejoin:round;">
<path d="M19.1949 5.9400
L19.1949 9.6400
" />
<path d="M19.1949 9.6400
L16.3449 9.6400
" />
<path d="M16.6449 5.9400
L19.1949 5.9400
" />
<path d="M16.3449 9.6400
L16.3449 6.2400
" />
<path style="fill:none; 
stroke:#E8B2A7; stroke-width:0.1200; stroke-opacity:1; 
stroke-linecap:round; stroke-linejoin:round;fill:none"
d="M 16.3449,5.9400
16.0649,5.9400
16.3449,5.6600
Z" /> 
<path style="fill:#E8B2A7; fill-opacity:1.0000; stroke:none;fill-rule:evenodd;"
d="M 16.0649,5.9400
16.3449,5.9400
16.3449,5.6600
Z" /> 
</g>
<g style="fill:none; 
stroke:#D0D2CD; stroke-width:0.4000; stroke-opacity:1; 
stroke-linecap:round; stroke-linejoin:round;">
<path d="M36.9824 0.0000
L36.9824 130.0000
" />
<path d="M36.9824 0.0000
L30.9824 0.0000
" />
<path d="M36.9824 130.0000
L-0.0176 130.0000
" />
<path d="M30.9824 2.5000
L30.9824 0.0000
" />
<path d="M30.9824 2.5000
L24.8824 2.5000
" />
<path d="M30.3264 29.0702
L28.9122 27.6560
" />
<path d="M30.3264 49.9298
L29.7961 49.3995
" />
<path d="M29.7961 29.6005
L30.3264 29.0702
" />
<path d="M29.7961 49.3995
L29.2658 48.8692
" />
<path d="M29.2658 30.1308
L29.7961 29.6005
" />
<path d="M29.2658 48.8692
L27.8516 50.2834
" />
<path d="M28.9122 27.6560
L28.3819 28.1863
" />
<path d="M28.9122 51.3440
L30.3264 49.9298
" />
<path d="M28.3819 28.1863
L27.8516 28.7166
" />
<path d="M28.3819 50.8137
L28.9122 51.3440
" />
<path d="M27.8516 28.7166
L29.2658 30.1308
" />
<path d="M27.8516 50.2834
L28.3819 50.8137
" />
<path d="M24.8824 2.5000
L24.8824 0.0000
" />
<path d="M12.0824 0.0000
L24.8824 0.0000
" />
<path d="M12.0824 2.5000
L12.0824 0.0000
" />
<path d="M9.1132 28.7166
L8.5829 28.1863
" />
<path d="M9.1132 50.2834
L7.6990 48.8692
" />
<path d="M8.5829 28.1863
L8.0526 27.6560
" />
<path d="M8.5829 50.8137
L9.1132 50.2834
" />
<path d="M8.0526 27.6560
L6.6384 29.0702
" />
<path d="M8.0526 51.3440
L8.5829 50.8137
" />
<path d="M7.6990 30.1308
L9.1132 28.7166
" />
<path d="M7.6990 48.8692
L7.1687 49.3995
" />
<path d="M7.1687 29.6005
L7.6990 30.1308
" />
<path d="M7.1687 49.3995
L6.6384 49.9298
" />
<path d="M6.6384 29.0702
L7.1687 29.6005
" />
<path d="M6.6384 49.9298
L8.0526 51.3440
" />
<path d="M5.9824 0.0000
L-0.0176 0.0000
" />
<path d="M5.9824 2.5000
L12.0824 2.5000
" />
<path d="M5.9824 2.5000
L5.9824 0.0000
" />
<path d="M-0.0176 0.0000
L-0.0176 130.0000
" />
</g>
<g style="fill:#FFFFFF; fill-opacity:1.0000; stroke:none;">
<circle cx="5.4339" cy="113.1720" r="0.1500" /> 
<circle cx="4.2559" cy="9.6320" r="0.1500" /> 
<circle cx="16.4479" cy="97.2620" r="0.1500" /> 
<circle cx="17.7699" cy="4.7860" r="0.1500" /> 
<circle cx="23.9409" cy="46.4620" r="0.1500" /> 
</g>
<g style="fill:#FFFFFF; fill-opacity:1.0000; stroke:none;">
<circle cx="10.8599" cy="127.1070" r="0.4445" /> 
</g>
<g style="fill:#FFFFFF; fill-opacity:1.0000; stroke:none;">
<circle cx="10.8599" cy="124.5670" r="0.4445" /> 
</g>
<g style="fill:#FFFFFF; fill-opacity:1.0000; stroke:none;">
<circle cx="10.8599" cy="122.0270" r="0.4445" /> 
</g>
<g style="fill:#FFFFFF; fill-opacity:1.0000; stroke:none;">
<circle cx="10.8599" cy="119.4870" r="0.4445" /> 
</g>
<g style="fill:#FFFFFF; fill-opacity:1.0000; stroke:none;">
<circle cx="10.8599" cy="116.9470" r="0.4445" /> 
</g>
<g style="fill:#FFFFFF; fill-opacity:1.0000; stroke:none;">
<circle cx="10.8599" cy="114.4070" r="0.4445" /> 
</g>
<g style="fill:#FFFFFF; fill-opacity:1.0000; stroke:none;">
<circle cx="10.8599" cy="111.8670" r="0.4445" /> 
</g>
<g style="fill:#FFFFFF; fill-opacity:1.0000; stroke:none;">
<circle cx="26.0999" cy="111.8670" r="0.4445" /> 
</g>
<g style="fill:#FFFFFF; fill-opacity:1.0000; stroke:none;">
<circle cx="26.0999" cy="114.4070" r="0.4445" /> 
</g>
<g style="fill:#FFFFFF; fill-opacity:1.0000; stroke:none;">
<circle cx="26.0999" cy="116.9470" r="0.4445" /> 
</g>
<g style="fill:#FFFFFF; fill-opacity:1.0000; stroke:none;">
<circle cx="26.0999" cy="119.4870" r="0.4445" /> 
</g>
<g style="fill:#FFFFFF; fill-opacity:1.0000; stroke:none;">
<circle cx="26.0999" cy="122.0270" r="0.4445" /> 
</g>
<g style="fill:#FFFFFF; fill-opacity:1.0000; stroke:none;">
<circle cx="26.0999" cy="124.5670" r="0.4445" /> 
</g>
<g style="fill:#FFFFFF; fill-opacity:1.0000; stroke:none;">
<circle cx="26.0999" cy="127.1070" r="0.4445" /> 
</g>
<g style="fill:#FFFFFF; fill-opacity:1.0000; stroke:none;">
<circle cx="7.7824" cy="5.0440" r="0.4500" /> 
</g>
<g style="fill:#FFFFFF; fill-opacity:1.0000; stroke:none;">
<circle cx="10.3224" cy="5.0440" r="0.4500" /> 
</g>
<g style="fill:#FFFFFF; fill-opacity:1.0000; stroke:none;">
<circle cx="25.3379" cy="4.8060" r="0.4500" /> 
</g>
<g style="fill:#FFFFFF; fill-opacity:1.0000; stroke:none;">
<circle cx="27.8779" cy="4.8060" r="0.4500" /> 
</g>
<g style="fill:#FFFFFF; fill-opacity:1.0000; stroke:none;">
<circle cx="30.4179" cy="4.8060" r="0.4500" /> 
</g>
<g style="fill:#FFFFFF; fill-opacity:1.0000; stroke:none;">
<circle cx="21.7351" cy="55.5797" r="0.8500" /> 
</g>
<g style="fill:#FFFFFF; fill-opacity:1.0000; stroke:none;">
<circle cx="10.7325" cy="54.6039" r="0.8500" /> 
</g>
<g style="fill:#FFFFFF; fill-opacity:1.0000; stroke:none;">
<circle cx="11.9346" cy="46.0480" r="0.8500" /> 
</g>
<g style="fill:#FFFFFF; fill-opacity:1.0000; stroke:none;">
<circle cx="19.5926" cy="40.6102" r="0.8500" /> 
</g>
<g style="fill:#FFFFFF; fill-opacity:1.0000; stroke:none;">
<circle cx="34.6327" cy="43.1063" r="0.8500" /> 
</g>
<g style="fill:#FFFFFF; fill-opacity:1.0000; stroke:none;">
<circle cx="25.0302" cy="32.9521" r="0.8500" /> 
</g>
<g style="fill:#FFFFFF; fill-opacity:1.0000; stroke:none;">
<circle cx="11.9346" cy="32.9520" r="0.8500" /> 
</g>
<g style="fill:#FFFFFF; fill-opacity:1.0000; stroke:none;">
<circle cx="26.2323" cy="24.3961" r="0.8500" /> 
</g>
<g style="fill:#FFFFFF; fill-opacity:1.0000; stroke:none;">
<circle cx="2.3321" cy="35.8936" r="0.8500" /> 
</g>
<g style="fill:#000000; fill-opacity:1.0000; stroke:none;">
<circle cx="17.7699" cy="8.5000" r="0.2500" /> 
</g> 
</svg>
