<?xml version="1.0" standalone="no"?>
 <!DOCTYPE svg PUBLIC "-//W3C//DTD SVG 1.1//EN" 
 "http://www.w3.org/Graphics/SVG/1.1/DTD/svg11.dtd"> 
<svg
  xmlns:svg="http://www.w3.org/2000/svg"
  xmlns="http://www.w3.org/2000/svg"
  xmlns:xlink="http://www.w3.org/1999/xlink"
  xmlns:inkscape="http://www.inkscape.org/namespaces/inkscape"
  version="1.1"
  width="36.9824mm" height="129.9972mm" viewBox="0.0000 0.0000 36.9824 129.9972">
<title>SVG Image created as bottom.svg date 2026-05-23T21:38:35 </title>
  <desc>Image generated by PCBNEW </desc>
<g style="fill:#000000; fill-opacity:1.0000;stroke:#000000; stroke-opacity:1.0000;
stroke-linecap:round; stroke-linejoin:round;"
 transform="translate(0 0) scale(1 1)">
<path style="fill:#4D7FC4; fill-opacity:1.0000; stroke:none;fill-rule:evenodd;"
d="M 16.9535,115.1243
17.0587,115.1034
17.1479,115.0438
17.2075,114.9545
17.2285,114.8493
17.2285,112.8993
17.2075,112.7941
17.1479,112.7048
17.0587,112.6452
16.9535,112.6243
16.4035,112.6243
16.2982,112.6452
16.2090,112.7048
16.1494,112.7941
16.1285,112.8993
16.1285,114.8493
16.1494,114.9545
16.2090,115.0438
16.2982,115.1034
16.4035,115.1243
Z" /> 
<path style="fill:#4D7FC4; fill-opacity:1.0000; stroke:none;fill-rule:evenodd;"
d="M 19.4935,115.1243
19.5987,115.1034
19.6879,115.0438
19.7475,114.9545
19.7685,114.8493
19.7685,112.8993
19.7475,112.7941
19.6879,112.7048
19.5987,112.6452
19.4935,112.6243
18.9435,112.6243
18.8382,112.6452
18.7490,112.7048
18.6894,112.7941
18.6685,112.8993
18.6685,114.8493
18.6894,114.9545
18.7490,115.0438
18.8382,115.1034
18.9435,115.1243
Z" /> 
<path style="fill:#4D7FC4; fill-opacity:1.0000; stroke:none;fill-rule:evenodd;"
d="M 6.8824,4.1440
6.8824,5.9440
8.6824,5.9440
8.6824,4.1440
Z" /> 
</g>
<g style="fill:#4D7FC4; fill-opacity:1.0000; stroke:none;">
<circle cx="10.3224" cy="5.0440" r="0.9000" /> 
<path style="fill:#4D7FC4; fill-opacity:1.0000; stroke:none;fill-rule:evenodd;"
d="M 24.4379,5.4576
24.4568,5.5527
24.5106,5.6332
24.5912,5.6871
24.6863,5.7060
25.9895,5.7060
26.0845,5.6871
26.1651,5.6332
26.2189,5.5527
26.2379,5.4576
26.2379,4.1544
26.2189,4.0593
26.1651,3.9788
26.0845,3.9249
25.9895,3.9060
24.6863,3.9060
24.5912,3.9249
24.5106,3.9788
24.4568,4.0593
24.4379,4.1544
Z" /> 
<circle cx="27.8779" cy="4.8060" r="0.9000" /> 
<circle cx="30.4179" cy="4.8060" r="0.9000" /> 
<path style="fill:#4D7FC4; fill-opacity:1.0000; stroke:none;fill-rule:evenodd;"
d="M 22.7351,56.8297
22.8308,56.8107
22.9119,56.7565
22.9661,56.6754
22.9851,56.5797
22.9851,54.5797
22.9661,54.4840
22.9119,54.4029
22.8308,54.3487
22.7351,54.3297
20.7351,54.3297
20.6394,54.3487
20.5583,54.4029
20.5041,54.4840
20.4851,54.5797
20.4851,56.5797
20.5041,56.6754
20.5583,56.7565
20.6394,56.8107
20.7351,56.8297
Z" /> 
<circle cx="10.7325" cy="54.6039" r="1.2500" /> 
<circle cx="11.9346" cy="46.0480" r="1.3750" /> 
<circle cx="19.5926" cy="40.6102" r="1.2500" /> 
<circle cx="34.6327" cy="43.1063" r="1.2500" /> 
<circle cx="25.0302" cy="32.9521" r="1.2500" /> 
<circle cx="11.9346" cy="32.9520" r="1.3750" /> 
<path style="fill:#4D7FC4; fill-opacity:1.0000; stroke:none;fill-rule:evenodd;"
d="M 27.2323,25.6461
27.3280,25.6271
27.4091,25.5729
27.4633,25.4918
27.4823,25.3961
27.4823,23.3961
27.4633,23.3005
27.4091,23.2194
27.3280,23.1652
27.2323,23.1461
25.2323,23.1461
25.1366,23.1652
25.0555,23.2194
25.0013,23.3005
24.9823,23.3961
24.9823,25.3961
25.0013,25.4918
25.0555,25.5729
25.1366,25.6271
25.2323,25.6461
Z" /> 
<circle cx="2.3321" cy="35.8936" r="1.2500" /> 
<path style="fill:#4D7FC4; fill-opacity:1.0000; stroke:none;fill-rule:evenodd;"
d="M 19.5199,126.8610
19.5008,126.7653
19.4466,126.6842
19.3655,126.6300
19.2699,126.6110
18.5699,126.6110
18.4742,126.6300
18.3931,126.6842
18.3389,126.7653
18.3199,126.8610
18.3199,128.1110
18.3389,128.2067
18.3931,128.2878
18.4742,128.3420
18.5699,128.3610
19.2699,128.3610
19.3655,128.3420
19.4466,128.2878
19.5008,128.2067
19.5199,128.1110
Z" /> 
</g>
<g style="fill:none; 
stroke:#4D7FC4; stroke-width:1.2000; stroke-opacity:1; 
stroke-linecap:round; stroke-linejoin:round;">
<path d="M16.9199 127.2110
L16.9199 127.7610
" />
</g>
<g style="fill:#4D7FC4; fill-opacity:1.0000; stroke:none;">
<circle cx="10.3199" cy="127.0360" r="0.5000" /> 
<circle cx="26.5699" cy="114.2860" r="0.5000" /> 
<circle cx="26.5699" cy="119.5360" r="0.5000" /> 
<path style="fill:#4D7FC4; fill-opacity:1.0000; stroke:none;fill-rule:evenodd;"
d="M 16.5699,6.1650
16.5699,6.6870
17.1699,6.6870
17.1699,6.1650
Z" /> 
<path style="fill:#4D7FC4; fill-opacity:1.0000; stroke:none;fill-rule:evenodd;"
d="M 16.5699,6.9870
16.5699,7.5090
17.1699,7.5090
17.1699,6.9870
Z" /> 
<path style="fill:#4D7FC4; fill-opacity:1.0000; stroke:none;fill-rule:evenodd;"
d="M 18.5784,8.4682
18.5784,8.4204
18.5474,8.2641
18.4864,8.1170
18.3979,7.9846
18.2853,7.8719
18.1529,7.7834
18.0057,7.7225
17.8495,7.6914
17.6902,7.6914
17.5340,7.7225
17.3868,7.7834
17.2544,7.8719
17.1418,7.9846
17.0533,8.1170
16.9923,8.2641
16.9613,8.4204
16.9613,8.5796
16.9923,8.7359
17.0533,8.8830
17.1418,9.0154
17.2544,9.1281
17.3868,9.2166
17.5340,9.2775
17.6902,9.3086
17.8373,9.3086
17.8373,9.0125
17.7024,9.0125
17.5720,8.9776
17.4552,8.9101
17.3598,8.8147
17.2923,8.6978
17.2574,8.5675
17.2574,8.4325
17.2923,8.3022
17.3598,8.1853
17.4552,8.0899
17.5720,8.0224
17.7024,7.9875
17.8373,7.9875
17.9677,8.0224
18.0845,8.0899
18.1800,8.1853
18.2474,8.3022
18.2824,8.4325
18.2824,8.5675
18.2474,8.6978
18.1800,8.8147
18.0845,8.9101
17.9677,8.9776
17.8373,9.0125
17.8373,9.3086
17.8495,9.3086
18.0057,9.2775
18.1529,9.2166
18.2853,9.1281
18.3979,9.0154
18.4864,8.8830
18.5474,8.7359
18.5784,8.5796
18.5784,8.5318
18.5795,8.5293
18.5795,8.4707
Z" /> 
<path style="fill:#4D7FC4; fill-opacity:1.0000; stroke:none;fill-rule:evenodd;"
d="M 18.3699,6.9870
18.3699,7.5090
18.9699,7.5090
18.9699,6.9870
Z" /> 
<path style="fill:#4D7FC4; fill-opacity:1.0000; stroke:none;fill-rule:evenodd;"
d="M 18.3699,6.1650
18.3699,6.6870
18.9699,6.6870
18.9699,6.1650
Z" /> 
<path style="fill:#4D7FC4; fill-opacity:1.0000; stroke:none;fill-rule:evenodd;"
d="M 17.4699,6.1650
17.4699,6.6870
18.0699,6.6870
18.0699,6.1650
Z" /> 
<circle cx="10.3199" cy="122.0360" r="0.5000" /> 
<circle cx="26.6199" cy="124.5860" r="0.5000" /> 
<circle cx="26.6199" cy="126.9860" r="0.5000" /> 
<circle cx="10.3199" cy="111.7860" r="0.5000" /> 
<circle cx="10.3199" cy="116.7860" r="0.5000" /> 
<circle cx="10.3199" cy="114.2860" r="0.5000" /> 
<circle cx="26.6199" cy="121.9860" r="0.5000" /> 
<circle cx="10.3199" cy="119.2860" r="0.5000" /> 
<circle cx="26.5699" cy="116.7860" r="0.5000" /> 
<circle cx="26.5699" cy="111.7860" r="0.5000" /> 
<circle cx="10.3199" cy="124.5360" r="0.5000" /> 
<circle cx="12.6199" cy="96.7860" r="0.3000" /> 
<circle cx="17.7699" cy="5.1860" r="0.3000" /> 
<circle cx="20.1199" cy="9.0860" r="0.3000" /> 
<circle cx="16.9199" cy="117.1360" r="0.3000" /> 
<circle cx="5.8199" cy="109.7860" r="0.3000" /> 
<circle cx="4.2559" cy="9.6320" r="0.3000" /> 
<circle cx="23.9409" cy="46.4620" r="0.3000" /> 
</g>
<g style="fill:none; 
stroke:#4D7FC4; stroke-width:0.2000; stroke-opacity:1; 
stroke-linecap:round; stroke-linejoin:round;">
<path d="M20.1199 9.0860
L19.5199 8.4860
" />
<path d="M18.4464 8.4860
L18.4324 8.5000
" />
<path d="M19.5199 8.4860
L18.4464 8.4860
" />
<path d="M16.9199 117.1360
L16.9199 127.4860
" />
<path d="M17.7699 5.1860
L17.7699 6.4260
" />
<path d="M21.0199 10.1400
L21.0199 8.8855
" />
<path d="M5.3199 51.2860
L5.3199 16.6383
" />
<path d="M5.8199 51.7860
L5.3199 51.2860
" />
<path d="M5.3199 16.6383
L6.3762 15.5820
" />
<path d="M5.8199 109.7860
L5.8199 51.7860
" />
<path d="M21.0199 8.8855
L19.3824 7.2480
" />
<path d="M19.3824 7.2480
L18.6699 7.2480
" />
<path d="M6.3762 15.5820
L15.5779 15.5820
" />
<path d="M15.5779 15.5820
L21.0199 10.1400
" />
<path d="M6.5699 124.5360
L10.3199 124.5360
" />
<path d="M3.8821 37.6297
L3.8821 34.5499
" />
<path d="M3.3199 33.9877
L3.3199 10.5680
" />
<path d="M1.8199 39.6919
L3.8821 37.6297
" />
<path d="M6.5699 124.5360
L1.8199 119.7860
" />
<path d="M1.8199 119.7860
L1.8199 39.6919
" />
<path d="M3.3199 10.5680
L4.2559 9.6320
" />
<path d="M3.8821 34.5499
L3.3199 33.9877
" />
<path d="M12.7959 6.4260
L16.8699 6.4260
" />
<path d="M6.5699 122.0360
L2.8199 118.2860
" />
<path d="M2.8199 39.2576
L4.2821 37.7954
" />
<path d="M6.5699 122.0360
L10.3199 122.0360
" />
<path d="M2.8199 118.2860
L2.8199 39.2576
" />
<path d="M4.2821 34.3842
L3.7199 33.8220
" />
<path d="M3.7199 15.5020
L12.7959 6.4260
" />
<path d="M3.7199 33.8220
L3.7199 15.5020
" />
<path d="M4.2821 37.7954
L4.2821 34.3842
" />
<path d="M6.5699 119.2860
L10.3199 119.2860
" />
<path d="M4.8199 15.1640
L4.8199 117.5360
" />
<path d="M16.8699 7.2480
L12.7359 7.2480
" />
<path d="M4.8199 117.5360
L6.5699 119.2860
" />
<path d="M12.7359 7.2480
L4.8199 15.1640
" />
<path d="M25.3379 4.8060
L25.3379 15.9820
" />
<path d="M6.8199 108.2010
L10.4049 111.7860
" />
<path d="M6.5419 15.9820
L5.8199 16.7040
" />
<path d="M6.8199 51.7860
L6.8199 108.2010
" />
<path d="M25.3379 15.9820
L6.5419 15.9820
" />
<path d="M5.8199 16.7040
L5.8199 50.7860
" />
<path d="M5.8199 50.7860
L6.8199 51.7860
" />
<path d="M26.5699 114.2860
L26.5699 114.3260
" />
<path d="M15.4319 103.1480
L26.5699 114.2860
" />
<path d="M11.9346 46.0480
L15.4319 49.5452
" />
<path d="M15.4319 49.5452
L15.4319 103.1480
" />
<path d="M8.5739 42.5250
L8.5739 47.4780
" />
<path d="M8.5739 47.4780
L13.6539 52.5580
" />
<path d="M13.6539 103.8700
L26.4899 116.7060
" />
<path d="M11.9346 39.1643
L8.5739 42.5250
" />
<path d="M26.4899 116.7060
L26.4899 116.7860
" />
<path d="M11.9346 32.9520
L11.9346 39.1643
" />
<path d="M13.6539 52.5580
L13.6539 103.8700
" />
<path d="M23.9409 46.4620
L25.7189 44.6840
" />
<path d="M33.0550 44.6840
L34.6327 43.1063
" />
<path d="M25.7189 44.6840
L33.0550 44.6840
" />
<path d="M18.9199 117.1360
L18.9199 127.4860
" />
<path d="M16.6785 114.8946
L18.9199 117.1360
" />
<path d="M16.6785 113.8743
L16.6785 114.8946
" />
<path style="fill:#4D7FC4; fill-opacity:1.0000; stroke:none;fill-rule:evenodd;"
d="M 31.5399,0.5202
31.4941,0.5730
31.4829,0.6245
31.4829,2.5659
31.4488,2.6932
31.4158,2.7502
31.3829,2.8073
31.2897,2.9005
31.1756,2.9664
31.0483,3.0005
31.0483,3.0005
24.8165,3.0005
24.8165,3.0005
24.6892,2.9664
24.5751,2.9005
24.4819,2.8073
24.4160,2.6932
24.3819,2.5659
24.3819,0.6245
24.3622,0.5575
24.3094,0.5117
24.2579,0.5005
12.7069,0.5005
12.6399,0.5202
12.5941,0.5730
12.5829,0.6245
12.5829,2.5659
12.5488,2.6932
12.5158,2.7502
12.4829,2.8073
12.3897,2.9005
12.2756,2.9664
12.1483,3.0005
12.1483,3.0005
5.9165,3.0005
5.9165,3.0005
5.7892,2.9664
5.6751,2.9005
5.5819,2.8073
5.5160,2.6932
5.4819,2.5659
5.4819,0.6245
5.4622,0.5575
5.4094,0.5117
5.3579,0.5005
0.6069,0.5005
0.5399,0.5202
0.4941,0.5730
0.4829,0.6245
0.4829,35.4607
0.5026,35.5278
0.5554,35.5735
0.6245,35.5835
0.6881,35.5545
0.7248,35.4991
0.8025,35.2600
0.8453,35.1760
0.9204,35.0285
1.0732,34.8184
1.2569,34.6347
1.3569,34.5620
1.4670,34.4820
1.4670,34.4820
1.4670,34.4820
1.5393,34.4451
1.6985,34.3640
1.9456,34.2837
2.2022,34.2431
2.2022,34.2431
2.4620,34.2431
2.4620,34.2431
2.6996,34.2807
2.7689,34.2718
2.8224,34.2268
2.8430,34.1600
2.8388,34.1262
2.8194,34.0536
2.8194,33.9218
2.8194,10.5021
2.8535,10.3748
2.9194,10.2607
3.0125,10.1675
3.5190,9.6610
3.5525,9.5997
3.5554,9.5733
3.5554,9.5630
3.5823,9.4277
3.5823,9.4277
3.5823,9.4277
3.5864,9.4178
3.6351,9.3002
3.6351,9.3002
3.7117,9.1855
3.7117,9.1855
3.8093,9.0879
3.8093,9.0879
3.9240,9.0112
3.9241,9.0112
4.0515,8.9584
4.0515,8.9584
4.1869,8.9315
4.1869,8.9315
4.3248,8.9315
4.3248,8.9315
4.4602,8.9584
4.4602,8.9584
4.5877,9.0112
4.5877,9.0112
4.7024,9.0879
4.7024,9.0879
4.8000,9.1855
4.8000,9.1855
4.8766,9.3002
4.8766,9.3002
4.9294,9.4277
4.9294,9.4277
4.9564,9.5630
4.9564,9.5630
4.9564,9.7010
4.9564,9.7010
4.9564,9.7010
4.9294,9.8363
4.9294,9.8363
4.8766,9.9638
4.8766,9.9638
4.8000,10.0785
4.8000,10.0785
4.7024,10.1761
4.7024,10.1761
4.5877,10.2528
4.5877,10.2528
4.4602,10.3056
4.4602,10.3056
4.4602,10.3056
4.4602,10.3056
4.3249,10.3325
4.3248,10.3325
4.3145,10.3325
4.2475,10.3522
4.2268,10.3688
3.8567,10.7390
3.8232,10.8003
3.8204,10.8267
3.8204,14.3943
3.8400,14.4614
3.8928,14.5071
3.9620,14.5171
4.0256,14.4880
4.0320,14.4820
12.4885,6.0255
12.4885,6.0255
12.5456,5.9926
12.6027,5.9596
12.6760,5.9400
12.7300,5.9255
12.7300,5.9255
16.1916,5.9255
16.2586,5.9058
16.2793,5.8892
16.3315,5.8370
16.3315,5.8369
16.4083,5.7978
16.4446,5.7794
16.5383,5.7645
17.0819,5.7645
17.1490,5.7448
17.1947,5.6920
17.2047,5.6229
17.1850,5.5716
17.1491,5.5178
17.1491,5.5178
17.1491,5.5178
17.0963,5.3903
17.0823,5.3203
17.0694,5.2550
17.0694,5.1170
17.0963,4.9817
17.0963,4.9817
17.0963,4.9817
17.1161,4.9338
11.7224,4.9338
11.7224,5.1542
11.6879,5.3718
11.6198,5.5814
11.5198,5.7778
11.4735,5.8415
10.7645,5.1326
10.7417,5.2177
10.6825,5.3203
10.5987,5.4041
10.4961,5.4633
10.4110,5.4861
11.1199,6.1951
11.1199,6.1951
11.0562,6.2414
10.8598,6.3414
10.6502,6.4095
10.4326,6.4440
10.2122,6.4440
9.9946,6.4095
9.7850,6.3414
9.5886,6.2414
9.5249,6.1951
9.5249,6.1951
10.2338,5.4861
10.1487,5.4633
10.0461,5.4041
9.9623,5.3203
9.9031,5.2177
9.8803,5.1326
9.1548,5.8581
9.1483,5.8594
9.0985,5.9085
9.0829,5.9687
9.0829,5.9755
9.0829,5.9755
9.0680,6.0693
9.0104,6.1823
9.0104,6.1823
9.0104,6.1823
8.9207,6.2720
8.9207,6.2720
8.9207,6.2721
8.8077,6.3296
8.8077,6.3296
8.7139,6.3445
8.7139,6.3445
6.8509,6.3445
6.7571,6.3296
6.6441,6.2721
6.5543,6.1823
6.4968,6.0693
6.4968,6.0693
6.4968,6.0693
6.4819,5.9755
6.4819,5.9755
6.4819,4.1125
6.4968,4.0187
6.5543,3.9057
6.5544,3.9057
6.5544,3.9057
6.6441,3.8160
6.6441,3.8160
6.6441,3.8159
6.7209,3.7768
6.7571,3.7584
6.8509,3.7435
8.7139,3.7435
8.7949,3.7563
8.8077,3.7584
8.9207,3.8159
8.9207,3.8160
8.9207,3.8160
9.0104,3.9057
9.0104,3.9057
9.0680,4.0187
9.0829,4.1125
9.0829,4.1193
9.1026,4.1863
9.1554,4.2321
9.1573,4.2324
9.8803,4.9554
9.9031,4.8703
9.9623,4.7677
10.0461,4.6839
10.1487,4.6247
10.2338,4.6019
9.5249,3.8929
9.5886,3.8466
9.7850,3.7466
9.9946,3.6785
10.2122,3.6440
10.4326,3.6440
10.6502,3.6785
10.8598,3.7466
11.0562,3.8466
11.1199,3.8929
11.1199,3.8929
10.4110,4.6019
10.4961,4.6247
10.5987,4.6839
10.6825,4.7677
10.7417,4.8703
10.7645,4.9554
11.4735,4.2465
11.4735,4.2465
11.5198,4.3102
11.6198,4.5066
11.6879,4.7162
11.7224,4.9338
17.1161,4.9338
17.1491,4.8542
17.1491,4.8542
17.2257,4.7395
17.2257,4.7395
17.3233,4.6419
17.3233,4.6419
17.4380,4.5652
17.4381,4.5652
17.5655,4.5124
17.5655,4.5124
17.7009,4.4855
17.7009,4.4855
17.8388,4.4855
17.8389,4.4855
17.9742,4.5124
17.9742,4.5124
18.1017,4.5652
18.1017,4.5652
18.2164,4.6419
18.2164,4.6419
18.3140,4.7395
18.3140,4.7395
18.3906,4.8542
18.3906,4.8542
18.4434,4.9817
18.4434,4.9817
18.4704,5.1170
18.4704,5.1170
18.4704,5.2550
18.4704,5.2550
18.4704,5.2550
18.4434,5.3903
18.4434,5.3903
18.3883,5.5234
18.3906,5.5244
18.3787,5.5821
18.4037,5.6473
18.4146,5.6597
18.4199,5.6650
18.4199,5.9400
18.4334,5.9963
18.4555,6.0397
18.4555,6.0397
18.4704,6.1335
18.4704,6.3020
18.4900,6.3690
18.5428,6.4148
18.5944,6.4260
18.6699,6.4260
18.6699,6.4625
18.6895,6.5295
18.7423,6.5753
18.7939,6.5865
19.0014,6.5865
19.0823,6.5993
19.0952,6.6014
19.2082,6.6589
19.2082,6.6589
19.2151,6.6625
19.2714,6.6760
19.4699,6.6760
19.4773,6.6834
19.4895,6.7252
19.5423,6.7709
19.5618,6.7779
19.5756,6.7816
19.6897,6.8475
19.6897,6.8475
21.4204,8.5781
21.4204,8.5781
21.4862,8.6923
21.5204,8.8196
21.5204,10.2059
21.4862,10.3332
21.4753,10.3522
21.4204,10.4473
21.4204,10.4473
21.4204,10.4473
16.5978,15.2698
16.5644,15.3311
16.5693,15.4008
16.6112,15.4568
16.6767,15.4812
16.6855,15.4815
24.7134,15.4815
24.7804,15.4618
24.8261,15.4090
24.8374,15.3575
24.8374,6.2305
24.8177,6.1635
24.7649,6.1177
24.7623,6.1172
19.4699,6.1172
19.4699,6.1760
18.9199,6.1760
18.9199,5.6650
19.0177,5.6650
19.0772,5.6714
19.0772,5.6714
19.2119,5.7216
19.2119,5.7216
19.3270,5.8078
19.3270,5.8078
19.4132,5.9229
19.4132,5.9229
19.4635,6.0576
19.4635,6.0576
19.4699,6.1172
24.7623,6.1172
24.7134,6.1065
24.6207,6.1065
24.6207,6.1065
24.5839,6.1036
24.4265,6.0579
24.3344,6.0034
24.3203,5.9951
24.2854,5.9744
24.1694,5.8585
24.0860,5.7174
24.0403,5.5599
24.0374,5.5231
24.0374,4.0889
24.0403,4.0521
24.0627,3.9748
24.0627,3.9748
24.0860,3.8946
24.0860,3.8946
24.1397,3.8038
24.1694,3.7535
24.1695,3.7535
24.2854,3.6376
24.2854,3.6376
24.3712,3.5868
24.4265,3.5541
24.5839,3.5084
24.5839,3.5084
24.5839,3.5084
24.6207,3.5055
24.6207,3.5055
26.0550,3.5055
26.0550,3.5055
26.0918,3.5084
26.0918,3.5084
26.1705,3.5313
26.2492,3.5541
26.2492,3.5541
26.2492,3.5541
26.3903,3.6376
26.3903,3.6376
26.5063,3.7535
26.5063,3.7535
26.5897,3.8946
26.5897,3.8946
26.6170,3.9886
26.6546,4.0475
26.7181,4.0767
26.7873,4.0669
26.8364,4.0269
26.8498,4.0085
26.8859,3.9588
27.0306,3.8140
27.0306,3.8140
27.1962,3.6937
27.1962,3.6937
27.1962,3.6937
27.2724,3.6549
27.3786,3.6008
27.5733,3.5375
27.7572,3.5084
27.7755,3.5055
27.9802,3.5055
27.9985,3.5084
28.1824,3.5375
28.3771,3.6008
28.5595,3.6937
28.7251,3.8140
28.8698,3.9588
28.8698,3.9588
28.9910,4.1255
29.0463,4.1682
29.1159,4.1742
29.1777,4.1416
29.2018,4.1089
29.2205,4.0722
29.2668,4.0085
29.2668,4.0085
29.9757,4.7174
29.9985,4.6323
30.0578,4.5297
30.1415,4.4459
30.2442,4.3867
30.3293,4.3639
29.6203,3.6549
29.6841,3.6086
29.8804,3.5086
30.0900,3.4405
30.3077,3.4060
30.5280,3.4060
30.7457,3.4405
30.9553,3.5086
31.1516,3.6086
31.2154,3.6549
31.2154,3.6549
30.5064,4.3639
30.5915,4.3867
30.6942,4.4459
30.7779,4.5297
30.8372,4.6323
30.8600,4.7174
31.5689,4.0085
31.5689,4.0085
31.6152,4.0722
31.7153,4.2686
31.7834,4.4782
31.8179,4.6958
31.8179,4.9162
31.7834,5.1338
31.7153,5.3434
31.6152,5.5398
31.5689,5.6035
30.8600,4.8946
30.8372,4.9797
30.7779,5.0823
30.6942,5.1661
30.5915,5.2253
30.5064,5.2481
31.2154,5.9571
31.2154,5.9571
31.1516,6.0034
30.9553,6.1034
30.7457,6.1715
30.5280,6.2060
30.3077,6.2060
30.0900,6.1715
29.8804,6.1034
29.6841,6.0034
29.6203,5.9571
29.6203,5.9571
30.3293,5.2481
30.2442,5.2253
30.1415,5.1661
30.0578,5.0823
29.9985,4.9797
29.9757,4.8946
29.2668,5.6035
29.2668,5.6035
29.2205,5.5398
29.2018,5.5031
29.1538,5.4523
29.0860,5.4355
29.0198,5.4580
28.9910,5.4865
28.8698,5.6532
28.7251,5.7980
28.5995,5.8892
28.5595,5.9183
28.4472,5.9755
28.3771,6.0112
28.3771,6.0112
28.3771,6.0112
28.2894,6.0397
28.1824,6.0745
28.0813,6.0905
27.9802,6.1065
27.9802,6.1065
27.7755,6.1065
27.7755,6.1065
27.5733,6.0745
27.3786,6.0112
27.1962,5.9183
27.0843,5.8370
27.0306,5.7980
27.0306,5.7980
27.0306,5.7980
26.8859,5.6532
26.8364,5.5851
26.7811,5.5424
26.7115,5.5365
26.6497,5.5691
26.6170,5.6234
26.5897,5.7174
26.5897,5.7174
26.5063,5.8585
26.5063,5.8585
26.3903,5.9744
26.3903,5.9744
26.3885,5.9755
26.2492,6.0579
26.0918,6.1036
26.0550,6.1065
25.9624,6.1065
25.8953,6.1262
25.8496,6.1790
25.8384,6.2305
25.8384,16.0479
25.8042,16.1752
25.7713,16.2323
25.7384,16.2893
25.6452,16.3825
25.5310,16.4484
25.4037,16.4825
6.8005,16.4825
6.7335,16.5022
6.7129,16.5188
6.3567,16.8750
6.3232,16.9363
6.3204,16.9627
6.3204,28.3810
6.3400,28.4480
6.3928,28.4938
6.4620,28.5037
6.5256,28.4747
6.5320,28.4687
7.6450,27.3557
7.6450,27.3557
7.7453,27.2555
7.7453,27.2555
7.7453,27.2555
7.7482,27.2538
7.8594,27.1896
7.9867,27.1555
7.9867,27.1555
8.1185,27.1555
8.2458,27.1896
8.3599,27.2555
8.3599,27.2555
8.8902,27.7858
9.5137,28.4093
9.5137,28.4093
9.5796,28.5234
9.6137,28.6507
9.6137,28.7825
9.5967,28.8462
9.5796,28.9098
9.5467,28.9669
9.5137,29.0239
9.5137,29.0239
9.5137,29.0239
8.1039,30.4338
8.1039,30.4338
8.0995,30.4381
8.0995,30.4381
8.0063,30.5313
7.8922,30.5972
7.7649,30.6313
7.7649,30.6313
7.7649,30.6313
7.6331,30.6313
7.6331,30.6313
7.5058,30.5972
7.3917,30.5313
6.7682,29.9078
6.7096,29.8493
6.7096,29.8492
6.5320,29.6717
6.4707,29.6382
6.4010,29.6432
6.3451,29.6850
6.3207,29.7505
6.3204,29.7593
6.3204,49.2407
6.3400,49.3077
6.3928,49.3534
6.4620,49.3634
6.5256,49.3344
6.5320,49.3283
6.8614,48.9990
7.3917,48.4687
7.3917,48.4687
7.4488,48.4357
7.5058,48.4028
7.5695,48.3857
7.6331,48.3687
7.7649,48.3687
7.8922,48.4028
8.0063,48.4687
8.0063,48.4687
8.0995,48.5619
9.4380,49.9003
9.4380,49.9003
9.4380,49.9003
9.5137,49.9761
9.5796,50.0902
9.6137,50.2175
9.6137,50.3493
9.5796,50.4766
9.5467,50.5336
9.5137,50.5907
8.9834,51.1210
8.3599,51.7445
8.2611,51.8016
8.2458,51.8104
8.2458,51.8104
8.1185,51.8445
8.1185,51.8445
8.1185,51.8445
7.9867,51.8445
7.9867,51.8445
7.8935,51.8196
7.8594,51.8104
7.8187,51.7869
7.7453,51.7445
7.6521,51.6514
7.6521,51.6514
7.6419,51.6412
7.6419,51.6411
7.5010,51.5003
7.4397,51.4668
7.3700,51.4718
7.3141,51.5136
7.2896,51.5791
7.2935,51.6200
7.2992,51.6411
7.3204,51.7201
7.3204,107.9423
7.3400,108.0094
7.3567,108.0300
10.1759,110.8492
10.2372,110.8827
10.2635,110.8855
10.4085,110.8855
10.5825,110.9201
10.5825,110.9201
10.7464,110.9880
10.7464,110.9880
10.8939,111.0865
10.8939,111.0865
11.0193,111.2120
11.0193,111.2120
11.1179,111.3594
11.1179,111.3595
11.1857,111.5233
11.1858,111.5233
11.2204,111.6973
11.2204,111.8747
11.1858,112.0487
11.1857,112.0487
11.1179,112.2125
11.1179,112.2126
11.0193,112.3600
11.0193,112.3600
10.8939,112.4855
10.8939,112.4855
10.7464,112.5840
10.7464,112.5840
10.6594,112.6200
10.5825,112.6519
10.5825,112.6519
10.5825,112.6519
10.4086,112.6865
10.4085,112.6865
10.4085,112.6865
10.2312,112.6865
10.2312,112.6865
10.1732,112.6750
10.0572,112.6519
10.0572,112.6519
10.0572,112.6519
9.8933,112.5840
9.7458,112.4855
9.6204,112.3600
9.5218,112.2125
9.4540,112.0487
9.4194,111.8747
9.4194,111.6973
9.4194,111.6973
9.4247,111.6703
9.4378,111.6047
9.4316,111.5351
9.4038,111.4928
6.5320,108.6210
6.4707,108.5875
6.4010,108.5925
6.3451,108.6344
6.3207,108.6998
6.3204,108.7087
6.3204,109.2445
6.3400,109.3115
6.3567,109.3322
6.3640,109.3395
6.3640,109.3395
6.4406,109.4542
6.4406,109.4542
6.4934,109.5817
6.4934,109.5817
6.5204,109.7170
6.5204,109.7170
6.5204,109.8550
6.5204,109.8550
6.5204,109.8550
6.4934,109.9903
6.4934,109.9903
6.4406,110.1178
6.4406,110.1178
6.3640,110.2325
6.3640,110.2325
6.2664,110.3301
6.2664,110.3301
6.1517,110.4068
6.1517,110.4068
6.0242,110.4596
6.0242,110.4596
6.0242,110.4596
6.0242,110.4596
5.8889,110.4865
5.8888,110.4865
5.7509,110.4865
5.6598,110.4684
5.6155,110.4596
5.4918,110.4083
5.4223,110.4009
5.3599,110.4321
5.3242,110.4922
5.3204,110.5229
5.3204,117.2773
5.3400,117.3444
5.3567,117.3650
6.7409,118.7492
6.8022,118.7827
6.8285,118.7855
9.5050,118.7855
9.5720,118.7658
9.6081,118.7304
9.6204,118.7120
9.7458,118.5865
9.7458,118.5865
9.8933,118.4880
9.8933,118.4880
10.0572,118.4201
10.0572,118.4201
10.2312,118.3855
10.2312,118.3855
10.4085,118.3855
10.4085,118.3855
10.5825,118.4201
10.5825,118.4201
10.7464,118.4880
10.7464,118.4880
10.8939,118.5865
10.8939,118.5865
11.0193,118.7120
11.0193,118.7120
11.1179,118.8594
11.1179,118.8595
11.1857,119.0233
11.1858,119.0233
11.2204,119.1973
11.2204,119.3747
11.1858,119.5487
11.1857,119.5487
11.1179,119.7125
11.1179,119.7126
11.0193,119.8600
11.0193,119.8600
10.8939,119.9855
10.8939,119.9855
10.7464,120.0840
10.7464,120.0840
10.6235,120.1349
10.5825,120.1519
10.5825,120.1519
10.5825,120.1519
10.4086,120.1865
10.4085,120.1865
10.4085,120.1865
10.2312,120.1865
10.2312,120.1865
10.1732,120.1750
10.0572,120.1519
10.0572,120.1519
10.0572,120.1519
9.8933,120.0840
9.7458,119.9855
9.6204,119.8600
9.6081,119.8416
9.5545,119.7968
9.5050,119.7865
6.5040,119.7865
6.5040,119.7865
6.3767,119.7524
6.2625,119.6865
4.4194,117.8433
4.3535,117.7292
4.3194,117.6019
4.3194,117.4701
4.3194,38.7653
4.2997,38.6982
4.2469,38.6525
4.1777,38.6425
4.1142,38.6716
4.1077,38.6776
3.3567,39.4286
3.3232,39.4899
3.3204,39.5163
3.3204,118.0273
3.3400,118.0944
3.3567,118.1150
6.7409,121.4992
6.8022,121.5327
6.8285,121.5355
9.5050,121.5355
9.5720,121.5158
9.6081,121.4804
9.6204,121.4620
9.7458,121.3365
9.7458,121.3365
9.8933,121.2380
9.8933,121.2380
10.0572,121.1701
10.0572,121.1701
10.2312,121.1355
10.2312,121.1355
10.4085,121.1355
10.4085,121.1355
10.5825,121.1701
10.5825,121.1701
10.7464,121.2380
10.7464,121.2380
10.8939,121.3365
10.8939,121.3365
11.0193,121.4620
11.0193,121.4620
11.1179,121.6094
11.1179,121.6095
11.1857,121.7733
11.1858,121.7733
11.2204,121.9473
11.2204,122.1247
11.1858,122.2987
11.1857,122.2987
11.1179,122.4625
11.1179,122.4626
11.0193,122.6100
11.0193,122.6100
10.8939,122.7355
10.8939,122.7355
10.7464,122.8340
10.7464,122.8340
10.6542,122.8722
10.5825,122.9019
10.5825,122.9019
10.5825,122.9019
10.4086,122.9365
10.4085,122.9365
10.4085,122.9365
10.2312,122.9365
10.2312,122.9365
10.1732,122.9250
10.0572,122.9019
10.0572,122.9019
10.0572,122.9019
9.8933,122.8340
9.7458,122.7355
9.6204,122.6100
9.6081,122.5916
9.5545,122.5468
9.5050,122.5365
6.5040,122.5365
6.5040,122.5365
6.3767,122.5024
6.2625,122.4365
2.5320,118.7060
2.4707,118.6725
2.4010,118.6775
2.3451,118.7194
2.3207,118.7848
2.3204,118.7937
2.3204,119.5273
2.3400,119.5944
2.3567,119.6150
6.7409,123.9992
6.8022,124.0327
6.8285,124.0355
9.5050,124.0355
9.5720,124.0158
9.6081,123.9804
9.6204,123.9620
9.7458,123.8365
9.7458,123.8365
9.8933,123.7380
9.8933,123.7380
10.0572,123.6701
10.0572,123.6701
10.2312,123.6355
10.2312,123.6355
10.4085,123.6355
10.4085,123.6355
10.5825,123.6701
10.5825,123.6701
10.7464,123.7380
10.7464,123.7380
10.8939,123.8365
10.8939,123.8365
11.0193,123.9620
11.0193,123.9620
11.1179,124.1094
11.1179,124.1095
11.1857,124.2733
11.1858,124.2733
11.2204,124.4473
11.2204,124.6247
11.1858,124.7987
11.1857,124.7987
11.1179,124.9625
11.1179,124.9626
11.0193,125.1100
11.0193,125.1100
10.8939,125.2355
10.8939,125.2355
10.7464,125.3340
10.7464,125.3340
10.6257,125.3840
10.5825,125.4019
10.5825,125.4019
10.5825,125.4019
10.4086,125.4365
10.4085,125.4365
10.4085,125.4365
10.2312,125.4365
10.2312,125.4365
10.1732,125.4250
10.0572,125.4019
10.0572,125.4019
10.0572,125.4019
9.8933,125.3340
9.7458,125.2355
9.6204,125.1100
9.6081,125.0916
9.5545,125.0468
9.5050,125.0365
6.5040,125.0365
6.5040,125.0365
6.3767,125.0024
6.2625,124.9365
1.4194,120.0933
1.3535,119.9792
1.3194,119.8519
1.3194,119.7201
1.3194,39.6260
1.3535,39.4987
1.4194,39.3846
1.5125,39.2914
3.2585,37.5455
3.2920,37.4842
3.2870,37.4145
3.2451,37.3585
3.1796,37.3341
3.1145,37.3473
3.0925,37.3585
2.9657,37.4232
2.9657,37.4232
2.9657,37.4232
2.7186,37.5035
2.5864,37.5244
2.4620,37.5441
2.4620,37.5441
2.2022,37.5441
2.0888,37.5261
1.9456,37.5035
1.6985,37.4232
1.4670,37.3052
1.2569,37.1525
1.0732,36.9688
0.9204,36.7586
0.8025,36.5272
0.7248,36.2881
0.6854,36.2304
0.6210,36.2032
0.5522,36.2152
0.5007,36.2624
0.4829,36.3264
0.4829,129.3755
0.5026,129.4425
0.5554,129.4883
0.6069,129.4995
36.3579,129.4995
36.4249,129.4798
36.4707,129.4270
36.4819,129.3755
36.4819,126.8973
27.5204,126.8973
27.5204,127.0747
27.4858,127.2487
27.4857,127.2487
27.4179,127.4125
27.4179,127.4126
27.3193,127.5600
27.3193,127.5600
27.1939,127.6855
27.1939,127.6855
27.0464,127.7840
27.0464,127.7840
26.9257,127.8340
26.8825,127.8519
26.8825,127.8519
26.8825,127.8519
26.7086,127.8865
26.7085,127.8865
26.7085,127.8865
26.5312,127.8865
26.5312,127.8865
26.4732,127.8750
26.3572,127.8519
26.3572,127.8519
26.3572,127.8519
26.1933,127.7840
26.0458,127.6855
25.9204,127.5600
25.8218,127.4125
25.7540,127.2487
25.7194,127.0747
25.7194,126.8973
25.7194,126.8973
25.7353,126.8171
25.7353,126.8171
25.7396,126.7953
19.9204,126.7953
19.9204,128.1767
19.9175,128.2136
19.9175,128.2136
19.8716,128.3714
19.8716,128.3714
19.7879,128.5129
19.7879,128.5129
19.6717,128.6291
19.6717,128.6291
19.6717,128.6291
19.5303,128.7127
19.4948,128.7230
19.3724,128.7586
19.3724,128.7586
19.3724,128.7586
19.3355,128.7615
19.3355,128.7615
18.5042,128.7615
18.5042,128.7615
18.4673,128.7586
18.4673,128.7586
18.4673,128.7586
18.4257,128.7465
18.3095,128.7127
18.1680,128.6291
18.0518,128.5129
17.9681,128.3714
17.9658,128.3633
17.9282,128.3045
17.8647,128.2752
17.7955,128.2850
17.7436,128.3290
17.6970,128.3988
17.6970,128.3988
17.5576,128.5381
17.5576,128.5381
17.3938,128.6476
17.3938,128.6476
17.2366,128.7127
17.2117,128.7231
17.2117,128.7231
17.2117,128.7231
17.0184,128.7615
17.0184,128.7615
16.8213,128.7615
16.6913,128.7356
16.6280,128.7231
16.4459,128.6476
16.2821,128.5381
16.1427,128.3988
16.0332,128.2349
15.9578,128.0528
15.9278,127.9019
15.9194,127.8595
15.9194,127.1125
15.9486,126.9654
15.9522,126.9473
11.2204,126.9473
11.2204,127.1247
11.1858,127.2987
11.1857,127.2987
11.1179,127.4625
11.1179,127.4626
11.0193,127.6100
11.0193,127.6100
10.8939,127.7355
10.8939,127.7355
10.7464,127.8340
10.7464,127.8340
10.6726,127.8646
10.5825,127.9019
10.5825,127.9019
10.5825,127.9019
10.4086,127.9365
10.4085,127.9365
10.4085,127.9365
10.2312,127.9365
10.2312,127.9365
10.1732,127.9250
10.0572,127.9019
10.0572,127.9019
10.0572,127.9019
9.8933,127.8340
9.7458,127.7355
9.6204,127.6100
9.5218,127.4625
9.4540,127.2987
9.4440,127.2487
9.4194,127.1247
9.4194,127.1247
9.4194,126.9473
9.4194,126.9473
9.4540,126.7733
9.4540,126.7733
9.5218,126.6095
9.5218,126.6094
9.6204,126.4620
9.6204,126.4620
9.7458,126.3365
9.7458,126.3365
9.8933,126.2380
9.8933,126.2380
10.0572,126.1701
10.0572,126.1701
10.2312,126.1355
10.2312,126.1355
10.4085,126.1355
10.4085,126.1355
10.5825,126.1701
10.5825,126.1701
10.7464,126.2380
10.7464,126.2380
10.8939,126.3365
10.8939,126.3365
11.0193,126.4620
11.0193,126.4620
11.1179,126.6094
11.1179,126.6095
11.1857,126.7733
11.1858,126.7733
11.2204,126.9473
15.9522,126.9473
15.9578,126.9192
15.9578,126.9192
15.9578,126.9192
15.9669,126.8973
16.0332,126.7371
16.0332,126.7371
16.1427,126.5732
16.1427,126.5732
16.2821,126.4339
16.2821,126.4339
16.3642,126.3790
16.4091,126.3253
16.4194,126.2759
16.4194,117.6775
16.3997,117.6105
16.3830,117.5898
16.3757,117.5825
16.2991,117.4678
16.2463,117.3403
16.2337,117.2773
16.2194,117.2050
16.2194,117.0670
16.2463,116.9317
16.2463,116.9317
16.2463,116.9317
16.2463,116.9317
16.2991,116.8042
16.2991,116.8042
16.3705,116.6973
11.2204,116.6973
11.2204,116.8747
11.1858,117.0487
11.1857,117.0487
11.1179,117.2125
11.1179,117.2126
11.0193,117.3600
11.0193,117.3600
10.8939,117.4855
10.8939,117.4855
10.7464,117.5840
10.7464,117.5840
10.6825,117.6105
10.5825,117.6519
10.5825,117.6519
10.5825,117.6519
10.4086,117.6865
10.4085,117.6865
10.4085,117.6865
10.2312,117.6865
10.2312,117.6865
10.1732,117.6750
10.0572,117.6519
10.0572,117.6519
10.0572,117.6519
9.8933,117.5840
9.7458,117.4855
9.6204,117.3600
9.5218,117.2125
9.4540,117.0487
9.4194,116.8747
9.4194,116.6973
9.4194,116.6973
9.4194,116.6973
9.4540,116.5233
9.4540,116.5233
9.4573,116.5152
9.4792,116.4624
9.5218,116.3595
9.5218,116.3594
9.6204,116.2120
9.6204,116.2120
9.7458,116.0865
9.7458,116.0865
9.8933,115.9880
9.8933,115.9880
10.0572,115.9201
10.0572,115.9201
10.2312,115.8855
10.2312,115.8855
10.4085,115.8855
10.4085,115.8855
10.5825,115.9201
10.5825,115.9201
10.7464,115.9880
10.7464,115.9880
10.8939,116.0865
10.8939,116.0865
11.0193,116.2120
11.0193,116.2120
11.1179,116.3594
11.1179,116.3595
11.1857,116.5233
11.1858,116.5233
11.2204,116.6973
16.3705,116.6973
16.3757,116.6895
16.4733,116.5919
16.4733,116.5919
16.5880,116.5152
16.5881,116.5152
16.7155,116.4624
16.7155,116.4624
16.8509,116.4355
16.8509,116.4355
16.9888,116.4355
16.9888,116.4355
17.1242,116.4624
17.1242,116.4624
17.1242,116.4624
17.1242,116.4624
17.1932,116.4910
17.2555,116.5168
17.3249,116.5243
17.3874,116.4930
17.4231,116.4329
17.4206,116.3631
17.3906,116.3146
16.6372,115.5611
16.5758,115.5276
16.5495,115.5248
16.3489,115.5248
16.3489,115.5248
16.2808,115.5186
16.1242,115.4698
15.9838,115.3849
15.8678,115.2690
15.7829,115.1286
15.7341,114.9720
15.7280,114.9039
15.7280,114.1973
11.2204,114.1973
11.2204,114.3747
11.1858,114.5487
11.1857,114.5487
11.1179,114.7125
11.1179,114.7126
11.0193,114.8600
11.0193,114.8600
10.8939,114.9855
10.8939,114.9855
10.7464,115.0840
10.7464,115.0840
10.6388,115.1286
10.5825,115.1519
10.5825,115.1519
10.5825,115.1519
10.4086,115.1865
10.4085,115.1865
10.4085,115.1865
10.2312,115.1865
10.2312,115.1865
10.1732,115.1750
10.0572,115.1519
10.0572,115.1519
10.0572,115.1519
9.8933,115.0840
9.7458,114.9855
9.6204,114.8600
9.5218,114.7125
9.4540,114.5487
9.4194,114.3747
9.4194,114.1973
9.4194,114.1973
9.4194,114.1973
9.4540,114.0233
9.4540,114.0233
9.5218,113.8595
9.5218,113.8594
9.6204,113.7120
9.6204,113.7120
9.7458,113.5865
9.7458,113.5865
9.8933,113.4880
9.8933,113.4880
10.0572,113.4201
10.0572,113.4201
10.2312,113.3855
10.2312,113.3855
10.4085,113.3855
10.4085,113.3855
10.5825,113.4201
10.5825,113.4201
10.7464,113.4880
10.7464,113.4880
10.8939,113.5865
10.8939,113.5865
11.0193,113.7120
11.0193,113.7120
11.1179,113.8594
11.1179,113.8595
11.1857,114.0233
11.1858,114.0233
11.2204,114.1973
15.7280,114.1973
15.7280,112.8447
15.7341,112.7766
15.7829,112.6200
15.7829,112.6200
15.8678,112.4797
15.8678,112.4796
15.9838,112.3637
15.9838,112.3636
16.1242,112.2788
16.1242,112.2788
16.2808,112.2300
16.2808,112.2300
16.2808,112.2300
16.3489,112.2238
17.0080,112.2238
17.0761,112.2300
17.0761,112.2300
17.0761,112.2300
17.2327,112.2788
17.2327,112.2788
17.3731,112.3636
17.3731,112.3637
17.4891,112.4796
17.4891,112.4797
17.5740,112.6200
17.5740,112.6200
17.6228,112.7766
17.6228,112.7766
17.6290,112.8447
17.6290,114.9039
17.6228,114.9720
17.6073,115.0217
17.6061,115.0916
17.6380,115.1463
19.2446,116.7529
19.2446,116.7529
19.2446,116.7529
19.3204,116.8287
19.3862,116.9428
19.4204,117.0701
19.4204,126.1342
19.4400,126.2013
19.4928,126.2470
19.5098,126.2533
19.5303,126.2593
19.6717,126.3429
19.6717,126.3429
19.7879,126.4591
19.7879,126.4591
19.8716,126.6006
19.8716,126.6006
19.9175,126.7584
19.9175,126.7584
19.9204,126.7953
25.7396,126.7953
25.7540,126.7233
25.7540,126.7233
25.8218,126.5595
25.8218,126.5594
25.9204,126.4120
25.9204,126.4120
26.0458,126.2865
26.0458,126.2865
26.1933,126.1880
26.1933,126.1880
26.3572,126.1201
26.3572,126.1201
26.5312,126.0855
26.5312,126.0855
26.7085,126.0855
26.7085,126.0855
26.8825,126.1201
26.8825,126.1201
27.0464,126.1880
27.0464,126.1880
27.1939,126.2865
27.1939,126.2865
27.3193,126.4120
27.3193,126.4120
27.4179,126.5594
27.4179,126.5595
27.4857,126.7233
27.4858,126.7233
27.5204,126.8973
36.4819,126.8973
36.4819,124.4973
27.5204,124.4973
27.5204,124.6747
27.4858,124.8487
27.4857,124.8487
27.4179,125.0125
27.4179,125.0126
27.3193,125.1600
27.3193,125.1600
27.1939,125.2855
27.1939,125.2855
27.0464,125.3840
27.0464,125.3840
26.9235,125.4349
26.8825,125.4519
26.8825,125.4519
26.8825,125.4519
26.7086,125.4865
26.7085,125.4865
26.7085,125.4865
26.5312,125.4865
26.5312,125.4865
26.4732,125.4750
26.3572,125.4519
26.3572,125.4519
26.3572,125.4519
26.1933,125.3840
26.0458,125.2855
25.9204,125.1600
25.8218,125.0125
25.7540,124.8487
25.7440,124.7987
25.7194,124.6747
25.7194,124.6747
25.7194,124.4973
25.7194,124.4973
25.7540,124.3233
25.7540,124.3233
25.8218,124.1595
25.8218,124.1594
25.9204,124.0120
25.9204,124.0120
26.0458,123.8865
26.0458,123.8865
26.1933,123.7880
26.1933,123.7880
26.3572,123.7201
26.3572,123.7201
26.5312,123.6855
26.5312,123.6855
26.7085,123.6855
26.7085,123.6855
26.8825,123.7201
26.8825,123.7201
27.0464,123.7880
27.0464,123.7880
27.1939,123.8865
27.1939,123.8865
27.3193,124.0120
27.3193,124.0120
27.4179,124.1594
27.4179,124.1595
27.4857,124.3233
27.4858,124.3233
27.5204,124.4973
36.4819,124.4973
36.4819,122.8486
27.1289,122.8486
27.0935,122.8722
26.9115,122.9476
26.9115,122.9476
26.7184,122.9860
26.7183,122.9860
26.5214,122.9860
26.5214,122.9860
26.3282,122.9476
26.3282,122.9476
26.1462,122.8722
26.1462,122.8722
26.1108,122.8486
26.1108,122.8486
26.6199,122.3396
26.6199,122.3396
27.1289,122.8486
36.4819,122.8486
36.4819,121.8875
27.6199,121.8875
27.6199,122.0845
27.5814,122.2777
27.5814,122.2777
27.5060,122.4597
27.5060,122.4597
27.4824,122.4950
26.9734,121.9860
26.9734,121.9860
27.0231,121.9363
26.8699,121.9363
26.8699,122.0357
26.8318,122.1276
26.7615,122.1979
26.6696,122.2360
26.5701,122.2360
26.4782,122.1979
26.4079,122.1276
26.3699,122.0357
26.3699,121.9860
26.2663,121.9860
26.2663,121.9860
25.7573,122.4950
25.7573,122.4950
25.7337,122.4597
25.7337,122.4597
25.6583,122.2777
25.6583,122.2777
25.6199,122.0845
25.6199,122.0845
25.6199,121.8875
25.6199,121.8875
25.6583,121.6943
25.6583,121.6943
25.7337,121.5123
25.7573,121.4770
26.2663,121.9860
26.3699,121.9860
26.3699,121.9363
26.4079,121.8444
26.4782,121.7741
26.5701,121.7360
26.6696,121.7360
26.7615,121.7741
26.8318,121.8444
26.8699,121.9363
27.0231,121.9363
27.4824,121.4770
27.4824,121.4770
27.5060,121.5123
27.5060,121.5123
27.5814,121.6943
27.5814,121.6943
27.6199,121.8875
36.4819,121.8875
36.4819,121.1234
27.1289,121.1234
26.6199,121.6324
26.6199,121.6324
26.1108,121.1234
26.1462,121.0998
26.1462,121.0998
26.3282,121.0244
26.3282,121.0244
26.5214,120.9860
26.7184,120.9860
26.9115,121.0244
26.9115,121.0244
27.0935,121.0998
27.0935,121.0998
27.1289,121.1234
27.1289,121.1234
36.4819,121.1234
36.4819,119.4473
27.4704,119.4473
27.4704,119.6247
27.4358,119.7987
27.4357,119.7987
27.3679,119.9625
27.3679,119.9626
27.2693,120.1100
27.2693,120.1100
27.1439,120.2355
27.1439,120.2355
26.9964,120.3340
26.9964,120.3340
26.8735,120.3849
26.8325,120.4019
26.8325,120.4019
26.8325,120.4019
26.6586,120.4365
26.6585,120.4365
26.6585,120.4365
26.4812,120.4365
26.4812,120.4365
26.4232,120.4250
26.3072,120.4019
26.3072,120.4019
26.3072,120.4019
26.1433,120.3340
25.9958,120.2355
25.8704,120.1100
25.7718,119.9625
25.7040,119.7987
25.7036,119.7968
25.6694,119.6247
25.6694,119.6247
25.6694,119.4473
25.6694,119.4473
25.7040,119.2733
25.7040,119.2733
25.7718,119.1095
25.7718,119.1094
25.8704,118.9620
25.8704,118.9620
25.9958,118.8365
25.9958,118.8365
26.1433,118.7380
26.1433,118.7380
26.3072,118.6701
26.3072,118.6701
26.4812,118.6355
26.4812,118.6355
26.6585,118.6355
26.6585,118.6355
26.8325,118.6701
26.8325,118.6701
26.9964,118.7380
26.9964,118.7380
27.1439,118.8365
27.1439,118.8365
27.2693,118.9620
27.2693,118.9620
27.3679,119.1094
27.3679,119.1095
27.4357,119.2733
27.4358,119.2733
27.4704,119.4473
36.4819,119.4473
36.4819,116.6973
27.4704,116.6973
27.4704,116.8747
27.4358,117.0487
27.4357,117.0487
27.3679,117.2125
27.3679,117.2126
27.2693,117.3600
27.2693,117.3600
27.1439,117.4855
27.1439,117.4855
26.9964,117.5840
26.9964,117.5840
26.9325,117.6105
26.8325,117.6519
26.8325,117.6519
26.8325,117.6519
26.6586,117.6865
26.6585,117.6865
26.6585,117.6865
26.4812,117.6865
26.4812,117.6865
26.4232,117.6750
26.3072,117.6519
26.3072,117.6519
26.3072,117.6519
26.1433,117.5840
25.9958,117.4855
25.8704,117.3600
25.7718,117.2125
25.7040,117.0487
25.6694,116.8747
25.6694,116.6973
25.6737,116.6756
25.6675,116.6060
25.6397,116.5637
21.9207,112.8447
20.1690,112.8447
20.1690,114.9039
20.1628,114.9720
20.1628,114.9720
20.1628,114.9720
20.1140,115.1286
20.1140,115.1286
20.0291,115.2689
20.0291,115.2690
19.9131,115.3849
19.9131,115.3850
19.7727,115.4698
19.7727,115.4698
19.6161,115.5186
19.5480,115.5248
19.5480,115.5248
18.8889,115.5248
18.8889,115.5248
18.8208,115.5186
18.6642,115.4698
18.5238,115.3849
18.4078,115.2690
18.3229,115.1286
18.2741,114.9720
18.2680,114.9039
18.2680,112.8447
18.2741,112.7766
18.3229,112.6200
18.3229,112.6200
18.4078,112.4797
18.4078,112.4796
18.5238,112.3637
18.5238,112.3636
18.6642,112.2788
18.6642,112.2788
18.8208,112.2300
18.8208,112.2300
18.8208,112.2300
18.8889,112.2238
19.5480,112.2238
19.6161,112.2300
19.6161,112.2300
19.6161,112.2300
19.7727,112.2788
19.7727,112.2788
19.9131,112.3636
19.9131,112.3637
20.0291,112.4796
20.0291,112.4797
20.1140,112.6200
20.1140,112.6200
20.1628,112.7766
20.1628,112.7766
20.1690,112.8447
21.9207,112.8447
13.3568,104.2807
13.3567,104.2807
13.3465,104.2705
13.3465,104.2705
13.2534,104.1773
13.1875,104.0632
13.1534,103.9359
13.1534,54.4740
12.3830,54.4740
12.3830,54.7338
12.3424,54.9904
12.2621,55.2375
12.1810,55.3967
12.1441,55.4690
11.9914,55.6792
11.8077,55.8629
11.5976,56.0156
11.4501,56.0907
11.3661,56.1335
11.3661,56.1335
11.3661,56.1335
11.1190,56.2138
10.9868,56.2347
10.8624,56.2544
10.8624,56.2544
10.6026,56.2544
10.4892,56.2365
10.3460,56.2138
10.0989,56.1335
9.8675,56.0156
9.6573,55.8629
9.4736,55.6792
9.3209,55.4690
9.2029,55.2375
9.1227,54.9904
9.1000,54.8472
9.0820,54.7338
9.0820,54.4740
9.1065,54.3193
9.1227,54.2174
9.2029,53.9704
9.2029,53.9703
9.2029,53.9703
9.2457,53.8864
9.3209,53.7389
9.4736,53.5287
9.6573,53.3450
9.8675,53.1923
9.9397,53.1555
10.0989,53.0743
10.3460,52.9941
10.6026,52.9534
10.6026,52.9534
10.8624,52.9534
10.8624,52.9534
11.1190,52.9941
11.3661,53.0743
11.5976,53.1923
11.8077,53.3450
11.8077,53.3450
11.9914,53.5287
11.9914,53.5287
12.1441,53.7389
12.2621,53.9703
12.3424,54.2174
12.3830,54.4740
13.1534,54.4740
13.1534,52.8167
13.1337,52.7496
13.1170,52.7290
10.6714,50.2834
8.1734,47.7853
8.1075,47.6712
8.0734,47.5439
8.0734,47.4121
8.0734,42.4591
8.1075,42.3318
8.1734,42.2177
8.2665,42.1245
11.3978,38.9933
11.4313,38.9319
11.4341,38.9056
11.4341,34.7493
11.4144,34.6823
11.3616,34.6366
11.3576,34.6348
11.1818,34.5620
11.1476,34.5478
11.1476,34.5478
11.1476,34.5478
10.9461,34.4315
10.7614,34.2898
10.5968,34.1252
10.4551,33.9406
10.3388,33.7390
10.2497,33.5240
10.1895,33.2991
10.1591,33.0684
10.1591,32.8356
10.1895,32.6049
10.2497,32.3801
10.2752,32.3186
10.3388,32.1651
10.3388,32.1650
10.4551,31.9635
10.4551,31.9635
10.5968,31.7788
10.5968,31.7788
10.7614,31.6143
10.7614,31.6143
10.9461,31.4726
10.9461,31.4726
10.9461,31.4726
10.9461,31.4726
10.9461,31.4726
11.1476,31.3562
11.1476,31.3562
11.3626,31.2671
11.5875,31.2069
11.8182,31.1765
11.8182,31.1765
11.8182,31.1765
12.0510,31.1765
12.0510,31.1765
12.0510,31.1765
12.2817,31.2069
12.5065,31.2671
12.7216,31.3562
12.7216,31.3562
12.9231,31.4726
12.9231,31.4726
13.1078,31.6143
13.1078,31.6143
13.2723,31.7788
13.2723,31.7788
13.4140,31.9635
13.4140,31.9635
13.5304,32.1650
13.5304,32.1651
13.6195,32.3801
13.6797,32.6049
13.7101,32.8356
13.7101,32.8357
13.7101,33.0684
13.7101,33.0684
13.7083,33.0820
13.6797,33.2991
13.6691,33.3386
13.6195,33.5240
13.5304,33.7390
13.5304,33.7390
13.4140,33.9405
13.4140,33.9406
13.2723,34.1252
13.2723,34.1252
13.1078,34.2898
13.1078,34.2898
12.9231,34.4315
12.9231,34.4315
12.7216,34.5478
12.7216,34.5478
12.5624,34.6137
12.5116,34.6348
12.4572,34.6786
12.4352,34.7449
12.4351,34.7493
12.4351,39.2302
12.4010,39.3575
12.3853,39.3846
12.3351,39.4716
12.3351,39.4716
9.1107,42.6960
9.0772,42.7573
9.0744,42.7837
9.0744,47.2193
9.0940,47.2864
9.1107,47.3070
14.0544,52.2507
14.0544,52.2507
14.1202,52.3648
14.1544,52.4921
14.1544,103.6113
14.1740,103.6784
14.1907,103.6990
26.3476,115.8559
26.4089,115.8894
26.4594,115.8898
26.4812,115.8855
26.4812,115.8855
26.6585,115.8855
26.6585,115.8855
26.8325,115.9201
26.8325,115.9201
26.9964,115.9880
26.9964,115.9880
27.1439,116.0865
27.1439,116.0865
27.2693,116.2120
27.2693,116.2120
27.3679,116.3594
27.3679,116.3595
27.4357,116.5233
27.4358,116.5233
27.4704,116.6973
36.4819,116.6973
36.4819,114.1973
27.4704,114.1973
27.4704,114.3747
27.4358,114.5487
27.4357,114.5487
27.3679,114.7125
27.3679,114.7126
27.2693,114.8600
27.2693,114.8600
27.1439,114.9855
27.1439,114.9855
26.9964,115.0840
26.9964,115.0840
26.8888,115.1286
26.8325,115.1519
26.8325,115.1519
26.8325,115.1519
26.6586,115.1865
26.6585,115.1865
26.6585,115.1865
26.4812,115.1865
26.4812,115.1865
26.4232,115.1750
26.3072,115.1519
26.3072,115.1519
26.3072,115.1519
26.1433,115.0840
25.9958,114.9855
25.8704,114.8600
25.7718,114.7125
25.7040,114.5487
25.6694,114.3747
25.6694,114.1973
25.6737,114.1756
25.6675,114.1060
25.6397,114.0637
15.0314,103.4553
14.9655,103.3412
14.9314,103.2139
14.9314,103.0821
14.9314,49.8039
14.9117,49.7369
14.8950,49.7162
12.8516,47.6728
12.7903,47.6393
12.7206,47.6443
12.7165,47.6459
12.5065,47.7328
12.2817,47.7931
12.0510,47.8235
12.0510,47.8235
11.8182,47.8235
11.8182,47.8235
11.5875,47.7931
11.3627,47.7328
11.2176,47.6728
11.1476,47.6438
11.1476,47.6438
11.1476,47.6438
10.9461,47.5274
10.7614,47.3857
10.5968,47.2211
10.4551,47.0365
10.3388,46.8349
10.3217,46.7938
10.2497,46.6199
10.2497,46.6199
10.2497,46.6199
10.1895,46.3951
10.1591,46.1643
10.1591,45.9316
10.1895,45.7008
10.2497,45.4760
10.2497,45.4760
10.3388,45.2610
10.3388,45.2610
10.4551,45.0594
10.4551,45.0594
10.5968,44.8748
10.5968,44.8748
10.7614,44.7102
10.7614,44.7102
10.9461,44.5685
10.9461,44.5685
10.9461,44.5685
10.9461,44.5685
10.9461,44.5685
11.1476,44.4521
11.1476,44.4521
11.3626,44.3631
11.5875,44.3028
11.8182,44.2725
11.8182,44.2725
11.8182,44.2725
12.0510,44.2725
12.0510,44.2725
12.0510,44.2725
12.2817,44.3028
12.5065,44.3631
12.7216,44.4521
12.7216,44.4521
12.9231,44.5685
12.9231,44.5685
13.1078,44.7102
13.1078,44.7102
13.2723,44.8748
13.2723,44.8748
13.4140,45.0594
13.4140,45.0594
13.5304,45.2610
13.5304,45.2610
13.6195,45.4760
13.6797,45.7008
13.7101,45.9316
13.7101,45.9316
13.7101,46.1643
13.7101,46.1643
13.6800,46.3930
13.6797,46.3951
13.6433,46.5310
13.6195,46.6199
13.5325,46.8298
13.5251,46.8993
13.5563,46.9618
13.5594,46.9649
15.7566,49.1622
15.7566,49.1622
15.8324,49.2379
15.8982,49.3520
15.9324,49.4793
15.9324,102.8893
15.9520,102.9564
15.9687,102.9770
26.3476,113.3559
26.4089,113.3894
26.4594,113.3898
26.4812,113.3855
26.4812,113.3855
26.6585,113.3855
26.6585,113.3855
26.8325,113.4201
26.8325,113.4201
26.9964,113.4880
26.9964,113.4880
27.1439,113.5865
27.1439,113.5865
27.2693,113.7120
27.2693,113.7120
27.3679,113.8594
27.3679,113.8595
27.4357,114.0233
27.4358,114.0233
27.4704,114.1973
36.4819,114.1973
36.4819,111.6973
27.4704,111.6973
27.4704,111.8747
27.4358,112.0487
27.4357,112.0487
27.3679,112.2125
27.3679,112.2126
27.2693,112.3600
27.2693,112.3600
27.1439,112.4855
27.1439,112.4855
26.9964,112.5840
26.9964,112.5840
26.9094,112.6200
26.8325,112.6519
26.8325,112.6519
26.8325,112.6519
26.6586,112.6865
26.6585,112.6865
26.6585,112.6865
26.4812,112.6865
26.4812,112.6865
26.4232,112.6750
26.3072,112.6519
26.3072,112.6519
26.3072,112.6519
26.1433,112.5840
25.9958,112.4855
25.8704,112.3600
25.7718,112.2125
25.7040,112.0487
25.6694,111.8747
25.6694,111.6973
25.6694,111.6973
25.6694,111.6973
25.6694,111.6973
25.7040,111.5233
25.7040,111.5233
25.7718,111.3595
25.7718,111.3594
25.8704,111.2120
25.8704,111.2120
25.9958,111.0865
25.9958,111.0865
26.1433,110.9880
26.1433,110.9880
26.3072,110.9201
26.3072,110.9201
26.4812,110.8855
26.4812,110.8855
26.6585,110.8855
26.6585,110.8855
26.8325,110.9201
26.8325,110.9201
26.9964,110.9880
26.9964,110.9880
27.1439,111.0865
27.1439,111.0865
27.2693,111.2120
27.2693,111.2120
27.3679,111.3594
27.3679,111.3595
27.4357,111.5233
27.4358,111.5233
27.4704,111.6973
36.4819,111.6973
36.4819,54.5140
23.3856,54.5140
23.3856,56.6454
23.3827,56.6823
23.3827,56.6823
23.3368,56.8401
23.3368,56.8401
23.2532,56.9816
23.2532,56.9816
23.1370,57.0978
23.1370,57.0978
23.1370,57.0978
22.9955,57.1814
22.9539,57.1935
22.8377,57.2273
22.8377,57.2273
22.8377,57.2273
22.8008,57.2302
22.8008,57.2302
20.6694,57.2302
20.6694,57.2302
20.6325,57.2273
20.6325,57.2273
20.6325,57.2273
20.5909,57.2152
20.4747,57.1814
20.3332,57.0978
20.2170,56.9816
20.1333,56.8401
20.0875,56.6823
20.0846,56.6454
20.0846,54.5140
20.0875,54.4771
20.0884,54.4740
20.1333,54.3193
20.1333,54.3193
20.1333,54.3193
20.2170,54.1778
20.2170,54.1778
20.2170,54.1778
20.3332,54.0616
20.3332,54.0616
20.4747,53.9779
20.4747,53.9779
20.6325,53.9321
20.6325,53.9321
20.6694,53.9292
20.6694,53.9292
22.8008,53.9292
22.8008,53.9292
22.8377,53.9321
22.8377,53.9321
22.9955,53.9779
22.9955,53.9779
23.1370,54.0616
23.1370,54.0616
23.2532,54.1778
23.2532,54.1778
23.3368,54.3193
23.3368,54.3193
23.3827,54.4771
23.3827,54.4771
23.3856,54.5140
36.4819,54.5140
36.4819,49.8639
30.8269,49.8639
30.8269,49.9957
30.7928,50.1230
30.7599,50.1801
30.7269,50.2371
29.2195,51.7445
29.1207,51.8016
29.1054,51.8104
29.1054,51.8104
28.9781,51.8445
28.9781,51.8445
28.8463,51.8445
28.8463,51.8445
28.7190,51.8104
28.6049,51.7445
28.5117,51.6514
28.5117,51.6514
28.5015,51.6411
28.5015,51.6411
27.9814,51.1210
27.4511,50.5907
27.3852,50.4766
27.3511,50.3493
27.3511,50.2175
27.3852,50.0902
27.4511,49.9761
27.5443,49.8829
27.5443,49.8829
27.5486,49.8785
27.5486,49.8785
28.9585,48.4687
28.9585,48.4687
28.9585,48.4687
29.0155,48.4357
29.0726,48.4028
29.1362,48.3857
29.1999,48.3687
29.3317,48.3687
29.4590,48.4028
29.5731,48.4687
29.5731,48.4687
30.1034,48.9990
30.6512,49.5468
30.6512,49.5468
30.7269,49.6225
30.7928,49.7366
30.8269,49.8639
36.4819,49.8639
36.4819,43.5391
36.4622,43.4721
36.4094,43.4263
36.3403,43.4164
36.2767,43.4454
36.2400,43.5008
36.1981,43.6297
36.1623,43.7398
36.0444,43.9713
35.8916,44.1815
35.7079,44.3652
35.4978,44.5179
35.3910,44.5723
35.2663,44.6358
35.2663,44.6358
35.2663,44.6358
35.0192,44.7161
34.8870,44.7371
34.7626,44.7568
34.7626,44.7568
34.5028,44.7568
34.3894,44.7388
34.2462,44.7161
33.9991,44.6358
33.9547,44.6132
33.8861,44.6003
33.8213,44.6266
33.8108,44.6360
33.4555,44.9913
33.3623,45.0845
33.2482,45.1504
33.1209,45.1845
25.9775,45.1845
25.9105,45.2042
25.8898,45.2208
24.6777,46.4330
24.6442,46.4943
24.6414,46.5207
24.6414,46.5310
24.6414,46.5310
24.6414,46.5310
24.6144,46.6663
24.6144,46.6663
24.5616,46.7938
24.5616,46.7938
24.4850,46.9085
24.4850,46.9085
24.3874,47.0061
24.3874,47.0061
24.2727,47.0828
24.2727,47.0828
24.1452,47.1356
24.1452,47.1356
24.1452,47.1356
24.1452,47.1356
24.0099,47.1625
24.0098,47.1625
23.8719,47.1625
23.7808,47.1444
23.7365,47.1356
23.6090,47.0828
23.4943,47.0061
23.3967,46.9085
23.3201,46.7938
23.2673,46.6663
23.2404,46.5310
23.2404,46.3930
23.2404,46.3930
23.2673,46.2577
23.2673,46.2577
23.2673,46.2577
23.3059,46.1643
23.3201,46.1302
23.3201,46.1302
23.3967,46.0155
23.3967,46.0155
23.4943,45.9179
23.4943,45.9179
23.6090,45.8412
23.6091,45.8412
23.7365,45.7884
23.7365,45.7884
23.8719,45.7615
23.8719,45.7615
23.8822,45.7615
23.9492,45.7418
23.9699,45.7252
25.4115,44.2835
25.4115,44.2835
25.4686,44.2506
25.5257,44.2176
25.5893,44.2006
25.6530,44.1835
25.6530,44.1835
32.7963,44.1835
32.8633,44.1638
32.8840,44.1472
33.1030,43.9282
33.1364,43.8669
33.1315,43.7972
33.1258,43.7842
33.1031,43.7398
33.0229,43.4927
33.0002,43.3496
32.9822,43.2362
32.9822,42.9764
33.0107,42.7966
33.0229,42.7198
33.1031,42.4727
33.1031,42.4727
33.1031,42.4727
33.1459,42.3887
33.2211,42.2412
33.3738,42.0310
33.5575,41.8473
33.7677,41.6946
33.8400,41.6578
33.9991,41.5767
34.2462,41.4964
34.5028,41.4558
34.5028,41.4558
34.7626,41.4558
34.7626,41.4558
35.0192,41.4964
35.2663,41.5767
35.4978,41.6946
35.7079,41.8473
35.7080,41.8473
35.8916,42.0310
35.8917,42.0310
36.0444,42.2412
36.1623,42.4727
36.2400,42.7117
36.2794,42.7694
36.3438,42.7966
36.4126,42.7847
36.4641,42.7374
36.4819,42.6734
36.4819,40.4803
21.2431,40.4803
21.2431,40.7401
21.2024,40.9967
21.1221,41.2437
21.0410,41.4029
21.0042,41.4752
20.8515,41.6854
20.6678,41.8691
20.4576,42.0218
20.3101,42.0969
20.2261,42.1397
20.2261,42.1397
20.2261,42.1397
19.9791,42.2200
19.8469,42.2410
19.7225,42.2607
19.7225,42.2607
19.4627,42.2607
19.3398,42.2412
19.2061,42.2200
18.9590,42.1397
18.7275,42.0218
18.5173,41.8691
18.3336,41.6854
18.1809,41.4752
18.0630,41.2437
17.9827,40.9967
17.9600,40.8535
17.9421,40.7401
17.9421,40.4803
17.9636,40.3442
17.9827,40.2237
18.0630,39.9766
18.0630,39.9766
18.0630,39.9766
18.1058,39.8926
18.1809,39.7451
18.3336,39.5349
18.5173,39.3512
18.6840,39.2302
18.7275,39.1985
18.7275,39.1985
18.7275,39.1985
18.7998,39.1617
18.9590,39.0806
19.2061,39.0003
19.4627,38.9597
19.4627,38.9597
19.7225,38.9597
19.7225,38.9597
19.9791,39.0003
20.2261,39.0806
20.4576,39.1985
20.6678,39.3512
20.6678,39.3512
20.8515,39.5349
20.8515,39.5349
21.0042,39.7451
21.1221,39.9766
21.2024,40.2237
21.2431,40.4803
36.4819,40.4803
36.4819,32.8222
26.6807,32.8222
26.6807,33.0820
26.6401,33.3386
26.5598,33.5857
26.4418,33.8172
26.2891,34.0274
26.2891,34.0274
26.1054,34.2111
25.8953,34.3638
25.7624,34.4315
25.6638,34.4817
25.6638,34.4817
25.6638,34.4817
25.4167,34.5620
25.2845,34.5829
25.1601,34.6026
25.1601,34.6026
24.9003,34.6026
24.7869,34.5847
24.6437,34.5620
24.3966,34.4817
24.1652,34.3638
23.9550,34.2111
23.7713,34.0274
23.6186,33.8172
23.5006,33.5857
23.4203,33.3386
23.3977,33.1954
23.3797,33.0820
23.3797,32.8222
23.4141,32.6049
23.4203,32.5656
23.5006,32.3186
23.5006,32.3186
23.5006,32.3186
23.5434,32.2346
23.6186,32.0871
23.7713,31.8769
23.9550,31.6932
23.9550,31.6932
24.1652,31.5405
24.1652,31.5405
24.1652,31.5405
24.2374,31.5037
24.3966,31.4226
24.6437,31.3423
24.9003,31.3016
24.9003,31.3016
25.1601,31.3016
25.1601,31.3016
25.4167,31.3423
25.6638,31.4226
25.8953,31.5405
26.1054,31.6932
26.1054,31.6932
26.2891,31.8769
26.2891,31.8769
26.4418,32.0871
26.5598,32.3186
26.6401,32.5656
26.6807,32.8222
36.4819,32.8222
36.4819,29.0043
30.8269,29.0043
30.8269,29.1361
30.7928,29.2634
30.7756,29.2932
30.7269,29.3775
30.7269,29.3775
30.2552,29.8492
30.1966,29.9078
29.6663,30.4381
29.5731,30.5313
29.4590,30.5972
29.3317,30.6313
29.3317,30.6313
29.1999,30.6313
29.1999,30.6313
29.1999,30.6313
29.0726,30.5972
28.9585,30.5313
28.8653,30.4381
28.8653,30.4381
27.5545,29.1273
27.5545,29.1273
27.5443,29.1171
27.5443,29.1171
27.4511,29.0239
27.3852,28.9098
27.3511,28.7825
27.3511,28.6507
27.3852,28.5234
27.4511,28.4093
28.0746,27.7858
28.5047,27.3557
28.5047,27.3557
28.6049,27.2555
28.6049,27.2555
28.7190,27.1896
28.7190,27.1896
28.7190,27.1896
28.8463,27.1555
28.9781,27.1555
29.1054,27.1896
29.2195,27.2555
29.2195,27.2555
30.7269,28.7629
30.7269,28.7629
30.7928,28.8770
30.8016,28.9098
30.8269,29.0043
36.4819,29.0043
36.4819,23.3304
27.8828,23.3304
27.8828,25.4618
27.8799,25.4987
27.8799,25.4987
27.8340,25.6565
27.8340,25.6565
27.7504,25.7980
27.7504,25.7980
27.6342,25.9142
27.6342,25.9142
27.6342,25.9142
27.4927,25.9979
27.4511,26.0100
27.3349,26.0437
27.3349,26.0437
27.3349,26.0437
27.2980,26.0466
27.2980,26.0466
25.1666,26.0466
25.1666,26.0466
25.1297,26.0437
25.1297,26.0437
25.1297,26.0437
25.0881,26.0316
24.9719,25.9979
24.8304,25.9142
24.7142,25.7980
24.6305,25.6565
24.5847,25.4987
24.5818,25.4618
24.5818,23.3304
24.5847,23.2936
24.6305,23.1357
24.7142,22.9943
24.7142,22.9943
24.7142,22.9943
24.8304,22.8781
24.8304,22.8780
24.9719,22.7944
24.9719,22.7944
25.1297,22.7485
25.1297,22.7485
25.1666,22.7456
25.1666,22.7456
27.2980,22.7456
27.2980,22.7456
27.3349,22.7485
27.3349,22.7485
27.4927,22.7944
27.4927,22.7944
27.6342,22.8780
27.6342,22.8781
27.7504,22.9943
27.7504,22.9943
27.8340,23.1357
27.8340,23.1357
27.8799,23.2936
27.8799,23.2936
27.8828,23.3304
36.4819,23.3304
36.4819,0.6245
36.4622,0.5575
36.4094,0.5117
36.3579,0.5005
31.6069,0.5005
Z" /> 
<path style="fill:#02FFEE; fill-opacity:0.4000; stroke:none;fill-rule:evenodd;"
d="M 16.9535,115.1243
17.0587,115.1034
17.1479,115.0438
17.2075,114.9545
17.2285,114.8493
17.2285,112.8993
17.2075,112.7941
17.1479,112.7048
17.0587,112.6452
16.9535,112.6243
16.4035,112.6243
16.2982,112.6452
16.2090,112.7048
16.1494,112.7941
16.1285,112.8993
16.1285,114.8493
16.1494,114.9545
16.2090,115.0438
16.2982,115.1034
16.4035,115.1243
Z" /> 
<path style="fill:#02FFEE; fill-opacity:0.4000; stroke:none;fill-rule:evenodd;"
d="M 19.4935,115.1243
19.5987,115.1034
19.6879,115.0438
19.7475,114.9545
19.7685,114.8493
19.7685,112.8993
19.7475,112.7941
19.6879,112.7048
19.5987,112.6452
19.4935,112.6243
18.9435,112.6243
18.8382,112.6452
18.7490,112.7048
18.6894,112.7941
18.6685,112.8993
18.6685,114.8493
18.6894,114.9545
18.7490,115.0438
18.8382,115.1034
18.9435,115.1243
Z" /> 
<path style="fill:#02FFEE; fill-opacity:0.4000; stroke:none;fill-rule:evenodd;"
d="M 6.8824,4.1440
6.8824,5.9440
8.6824,5.9440
8.6824,4.1440
Z" /> 
</g>
<g style="fill:#02FFEE; fill-opacity:0.4000; stroke:none;">
<circle cx="10.3224" cy="5.0440" r="0.9000" /> 
<path style="fill:#02FFEE; fill-opacity:0.4000; stroke:none;fill-rule:evenodd;"
d="M 24.4379,5.4576
24.4568,5.5527
24.5106,5.6332
24.5912,5.6871
24.6863,5.7060
25.9895,5.7060
26.0845,5.6871
26.1651,5.6332
26.2189,5.5527
26.2379,5.4576
26.2379,4.1544
26.2189,4.0593
26.1651,3.9788
26.0845,3.9249
25.9895,3.9060
24.6863,3.9060
24.5912,3.9249
24.5106,3.9788
24.4568,4.0593
24.4379,4.1544
Z" /> 
<circle cx="27.8779" cy="4.8060" r="0.9000" /> 
<circle cx="30.4179" cy="4.8060" r="0.9000" /> 
<path style="fill:#02FFEE; fill-opacity:0.4000; stroke:none;fill-rule:evenodd;"
d="M 22.7351,56.8297
22.8308,56.8107
22.9119,56.7565
22.9661,56.6754
22.9851,56.5797
22.9851,54.5797
22.9661,54.4840
22.9119,54.4029
22.8308,54.3487
22.7351,54.3297
20.7351,54.3297
20.6394,54.3487
20.5583,54.4029
20.5041,54.4840
20.4851,54.5797
20.4851,56.5797
20.5041,56.6754
20.5583,56.7565
20.6394,56.8107
20.7351,56.8297
Z" /> 
<circle cx="10.7325" cy="54.6039" r="1.2500" /> 
<circle cx="11.9346" cy="46.0480" r="1.3750" /> 
<circle cx="19.5926" cy="40.6102" r="1.2500" /> 
<circle cx="34.6327" cy="43.1063" r="1.2500" /> 
<circle cx="25.0302" cy="32.9521" r="1.2500" /> 
<circle cx="11.9346" cy="32.9520" r="1.3750" /> 
<path style="fill:#02FFEE; fill-opacity:0.4000; stroke:none;fill-rule:evenodd;"
d="M 27.2323,25.6461
27.3280,25.6271
27.4091,25.5729
27.4633,25.4918
27.4823,25.3961
27.4823,23.3961
27.4633,23.3005
27.4091,23.2194
27.3280,23.1652
27.2323,23.1461
25.2323,23.1461
25.1366,23.1652
25.0555,23.2194
25.0013,23.3005
24.9823,23.3961
24.9823,25.3961
25.0013,25.4918
25.0555,25.5729
25.1366,25.6271
25.2323,25.6461
Z" /> 
<circle cx="2.3321" cy="35.8936" r="1.2500" /> 
<path style="fill:#02FFEE; fill-opacity:0.4000; stroke:none;fill-rule:evenodd;"
d="M 19.5199,126.8610
19.5008,126.7653
19.4466,126.6842
19.3655,126.6300
19.2699,126.6110
18.5699,126.6110
18.4742,126.6300
18.3931,126.6842
18.3389,126.7653
18.3199,126.8610
18.3199,128.1110
18.3389,128.2067
18.3931,128.2878
18.4742,128.3420
18.5699,128.3610
19.2699,128.3610
19.3655,128.3420
19.4466,128.2878
19.5008,128.2067
19.5199,128.1110
Z" /> 
</g>
<g style="fill:none; 
stroke:#02FFEE; stroke-width:1.2000; stroke-opacity:1; 
stroke-linecap:round; stroke-linejoin:round;">
<path d="M16.9199 127.2110
L16.9199 127.7610
" />
</g>
<g style="fill:#02FFEE; fill-opacity:0.4000; stroke:none;">
<circle cx="10.3199" cy="127.0360" r="0.5000" /> 
<circle cx="26.5699" cy="114.2860" r="0.5000" /> 
<circle cx="26.5699" cy="119.5360" r="0.5000" /> 
<circle cx="17.7699" cy="8.5000" r="0.2500" /> 
<path style="fill:#02FFEE; fill-opacity:0.4000; stroke:none;fill-rule:evenodd;"
d="M 16.5699,6.1650
16.5699,6.6870
17.1699,6.6870
17.1699,6.1650
Z" /> 
<path style="fill:#02FFEE; fill-opacity:0.4000; stroke:none;fill-rule:evenodd;"
d="M 16.5699,6.9870
16.5699,7.5090
17.1699,7.5090
17.1699,6.9870
Z" /> 
<path style="fill:#02FFEE; fill-opacity:0.4000; stroke:none;fill-rule:evenodd;"
d="M 18.5784,8.4682
18.5784,8.4204
18.5474,8.2641
18.4864,8.1170
18.3979,7.9846
18.2853,7.8719
18.1529,7.7834
18.0057,7.7225
17.8495,7.6914
17.6902,7.6914
17.5340,7.7225
17.3868,7.7834
17.2544,7.8719
17.1418,7.9846
17.0533,8.1170
16.9923,8.2641
16.9613,8.4204
16.9613,8.5796
16.9923,8.7359
17.0533,8.8830
17.1418,9.0154
17.2544,9.1281
17.3868,9.2166
17.5340,9.2775
17.6902,9.3086
17.8373,9.3086
17.8373,9.0125
17.7024,9.0125
17.5720,8.9776
17.4552,8.9101
17.3598,8.8147
17.2923,8.6978
17.2574,8.5675
17.2574,8.4325
17.2923,8.3022
17.3598,8.1853
17.4552,8.0899
17.5720,8.0224
17.7024,7.9875
17.8373,7.9875
17.9677,8.0224
18.0845,8.0899
18.1800,8.1853
18.2474,8.3022
18.2824,8.4325
18.2824,8.5675
18.2474,8.6978
18.1800,8.8147
18.0845,8.9101
17.9677,8.9776
17.8373,9.0125
17.8373,9.3086
17.8495,9.3086
18.0057,9.2775
18.1529,9.2166
18.2853,9.1281
18.3979,9.0154
18.4864,8.8830
18.5474,8.7359
18.5784,8.5796
18.5784,8.5318
18.5795,8.5293
18.5795,8.4707
Z" /> 
<path style="fill:#02FFEE; fill-opacity:0.4000; stroke:none;fill-rule:evenodd;"
d="M 18.3699,6.9870
18.3699,7.5090
18.9699,7.5090
18.9699,6.9870
Z" /> 
<path style="fill:#02FFEE; fill-opacity:0.4000; stroke:none;fill-rule:evenodd;"
d="M 18.3699,6.1650
18.3699,6.6870
18.9699,6.6870
18.9699,6.1650
Z" /> 
<path style="fill:#02FFEE; fill-opacity:0.4000; stroke:none;fill-rule:evenodd;"
d="M 17.4699,6.1650
17.4699,6.6870
18.0699,6.6870
18.0699,6.1650
Z" /> 
<circle cx="10.3199" cy="122.0360" r="0.5000" /> 
<circle cx="26.6199" cy="124.5860" r="0.5000" /> 
<circle cx="26.6199" cy="126.9860" r="0.5000" /> 
<circle cx="10.3199" cy="111.7860" r="0.5000" /> 
<circle cx="10.3199" cy="116.7860" r="0.5000" /> 
<circle cx="10.3199" cy="114.2860" r="0.5000" /> 
<circle cx="26.6199" cy="121.9860" r="0.5000" /> 
<circle cx="10.3199" cy="119.2860" r="0.5000" /> 
<circle cx="26.5699" cy="116.7860" r="0.5000" /> 
<circle cx="26.5699" cy="111.7860" r="0.5000" /> 
<circle cx="10.3199" cy="124.5360" r="0.5000" /> 
</g>
<g style="fill:none; 
stroke:#E8B2A7; stroke-width:0.1875; stroke-opacity:1; 
stroke-linecap:round; stroke-linejoin:round;">
<text x="29.2199" y="112.0583"
textLength="1.1268" font-size="1.0000" lengthAdjust="spacingAndGlyphs"
text-anchor="middle" opacity="0" stroke-opacity="0">8</text>
<g class="stroked-text"><desc>8</desc>
<path d="M29.1484 111.5615
L29.0770 111.5234
" />
<path d="M29.0770 111.5234
L29.0413 111.4853
" />
<path d="M29.0413 111.4853
L29.0056 111.4091
" />
<path d="M29.0056 111.4091
L29.0056 111.3710
" />
<path d="M29.0056 111.3710
L29.0413 111.2948
" />
<path d="M29.0413 111.2948
L29.0770 111.2567
" />
<path d="M29.0770 111.2567
L29.1484 111.2186
" />
<path d="M29.1484 111.2186
L29.2913 111.2186
" />
<path d="M29.2913 111.2186
L29.3627 111.2567
" />
<path d="M29.3627 111.2567
L29.3984 111.2948
" />
<path d="M29.3984 111.2948
L29.4341 111.3710
" />
<path d="M29.4341 111.3710
L29.4341 111.4091
" />
<path d="M29.4341 111.4091
L29.3984 111.4853
" />
<path d="M29.3984 111.4853
L29.3627 111.5234
" />
<path d="M29.3627 111.5234
L29.2913 111.5615
" />
<path d="M29.2913 111.5615
L29.1484 111.5615
" />
<path d="M29.1484 111.5615
L29.0770 111.5996
" />
<path d="M29.0770 111.5996
L29.0413 111.6377
" />
<path d="M29.0413 111.6377
L29.0056 111.7139
" />
<path d="M29.0056 111.7139
L29.0056 111.8662
" />
<path d="M29.0056 111.8662
L29.0413 111.9424
" />
<path d="M29.0413 111.9424
L29.0770 111.9805
" />
<path d="M29.0770 111.9805
L29.1484 112.0186
" />
<path d="M29.1484 112.0186
L29.2913 112.0186
" />
<path d="M29.2913 112.0186
L29.3627 111.9805
" />
<path d="M29.3627 111.9805
L29.3984 111.9424
" />
<path d="M29.3984 111.9424
L29.4341 111.8662
" />
<path d="M29.4341 111.8662
L29.4341 111.7139
" />
<path d="M29.4341 111.7139
L29.3984 111.6377
" />
<path d="M29.3984 111.6377
L29.3627 111.5996
" />
<path d="M29.3627 111.5996
L29.2913 111.5615
" />
</g><text x="29.2199" y="113.3462"
textLength="0.5625" font-size="1.0000" lengthAdjust="spacingAndGlyphs"
text-anchor="middle" opacity="0" stroke-opacity="0"></text>
<g class="stroked-text"><desc></desc>
</g><text x="29.2199" y="114.6342"
textLength="1.1268" font-size="1.0000" lengthAdjust="spacingAndGlyphs"
text-anchor="middle" opacity="0" stroke-opacity="0">9</text>
<g class="stroked-text"><desc>9</desc>
<path d="M29.0770 114.5945
L29.2199 114.5945
" />
<path d="M29.2199 114.5945
L29.2913 114.5564
" />
<path d="M29.2913 114.5564
L29.3270 114.5183
" />
<path d="M29.3270 114.5183
L29.3984 114.4040
" />
<path d="M29.3984 114.4040
L29.4341 114.2517
" />
<path d="M29.4341 114.2517
L29.4341 113.9469
" />
<path d="M29.4341 113.9469
L29.3984 113.8707
" />
<path d="M29.3984 113.8707
L29.3627 113.8326
" />
<path d="M29.3627 113.8326
L29.2913 113.7945
" />
<path d="M29.2913 113.7945
L29.1484 113.7945
" />
<path d="M29.1484 113.7945
L29.0770 113.8326
" />
<path d="M29.0770 113.8326
L29.0413 113.8707
" />
<path d="M29.0413 113.8707
L29.0056 113.9469
" />
<path d="M29.0056 113.9469
L29.0056 114.1374
" />
<path d="M29.0056 114.1374
L29.0413 114.2136
" />
<path d="M29.0413 114.2136
L29.0770 114.2517
" />
<path d="M29.0770 114.2517
L29.1484 114.2898
" />
<path d="M29.1484 114.2898
L29.2913 114.2898
" />
<path d="M29.2913 114.2898
L29.3627 114.2517
" />
<path d="M29.3627 114.2517
L29.3984 114.2136
" />
<path d="M29.3984 114.2136
L29.4341 114.1374
" />
</g><text x="29.2199" y="115.9221"
textLength="0.5625" font-size="1.0000" lengthAdjust="spacingAndGlyphs"
text-anchor="middle" opacity="0" stroke-opacity="0"></text>
<g class="stroked-text"><desc></desc>
</g><text x="29.2199" y="117.2101"
textLength="1.8411" font-size="1.0000" lengthAdjust="spacingAndGlyphs"
text-anchor="middle" opacity="0" stroke-opacity="0">10</text>
<g class="stroked-text"><desc>10</desc>
<path d="M29.0770 117.1704
L28.6484 117.1704
" />
<path d="M28.8627 117.1704
L28.8627 116.3704
" />
<path d="M28.8627 116.3704
L28.7913 116.4847
" />
<path d="M28.7913 116.4847
L28.7199 116.5609
" />
<path d="M28.7199 116.5609
L28.6484 116.5990
" />
<path d="M29.5413 116.3704
L29.6127 116.3704
" />
<path d="M29.6127 116.3704
L29.6841 116.4085
" />
<path d="M29.6841 116.4085
L29.7199 116.4466
" />
<path d="M29.7199 116.4466
L29.7556 116.5228
" />
<path d="M29.7556 116.5228
L29.7913 116.6752
" />
<path d="M29.7913 116.6752
L29.7913 116.8657
" />
<path d="M29.7913 116.8657
L29.7556 117.0181
" />
<path d="M29.7556 117.0181
L29.7199 117.0942
" />
<path d="M29.7199 117.0942
L29.6841 117.1323
" />
<path d="M29.6841 117.1323
L29.6127 117.1704
" />
<path d="M29.6127 117.1704
L29.5413 117.1704
" />
<path d="M29.5413 117.1704
L29.4699 117.1323
" />
<path d="M29.4699 117.1323
L29.4341 117.0942
" />
<path d="M29.4341 117.0942
L29.3984 117.0181
" />
<path d="M29.3984 117.0181
L29.3627 116.8657
" />
<path d="M29.3627 116.8657
L29.3627 116.6752
" />
<path d="M29.3627 116.6752
L29.3984 116.5228
" />
<path d="M29.3984 116.5228
L29.4341 116.4466
" />
<path d="M29.4341 116.4466
L29.4699 116.4085
" />
<path d="M29.4699 116.4085
L29.5413 116.3704
" />
</g><text x="29.2199" y="118.4980"
textLength="0.5625" font-size="1.0000" lengthAdjust="spacingAndGlyphs"
text-anchor="middle" opacity="0" stroke-opacity="0"></text>
<g class="stroked-text"><desc></desc>
</g><text x="29.2199" y="119.7860"
textLength="1.8411" font-size="1.0000" lengthAdjust="spacingAndGlyphs"
text-anchor="middle" opacity="0" stroke-opacity="0">11</text>
<g class="stroked-text"><desc>11</desc>
<path d="M29.0770 119.7463
L28.6484 119.7463
" />
<path d="M28.8627 119.7463
L28.8627 118.9463
" />
<path d="M28.8627 118.9463
L28.7913 119.0606
" />
<path d="M28.7913 119.0606
L28.7199 119.1368
" />
<path d="M28.7199 119.1368
L28.6484 119.1749
" />
<path d="M29.7913 119.7463
L29.3627 119.7463
" />
<path d="M29.5770 119.7463
L29.5770 118.9463
" />
<path d="M29.5770 118.9463
L29.5056 119.0606
" />
<path d="M29.5056 119.0606
L29.4341 119.1368
" />
<path d="M29.4341 119.1368
L29.3627 119.1749
" />
</g><text x="29.2199" y="121.0740"
textLength="0.5625" font-size="1.0000" lengthAdjust="spacingAndGlyphs"
text-anchor="middle" opacity="0" stroke-opacity="0"></text>
<g class="stroked-text"><desc></desc>
</g><text x="29.2199" y="122.3619"
textLength="1.8411" font-size="1.0000" lengthAdjust="spacingAndGlyphs"
text-anchor="middle" opacity="0" stroke-opacity="0">12</text>
<g class="stroked-text"><desc>12</desc>
<path d="M29.0770 122.3223
L28.6484 122.3223
" />
<path d="M28.8627 122.3223
L28.8627 121.5223
" />
<path d="M28.8627 121.5223
L28.7913 121.6365
" />
<path d="M28.7913 121.6365
L28.7199 121.7127
" />
<path d="M28.7199 121.7127
L28.6484 121.7508
" />
<path d="M29.3627 121.5984
L29.3984 121.5603
" />
<path d="M29.3984 121.5603
L29.4699 121.5223
" />
<path d="M29.4699 121.5223
L29.6484 121.5223
" />
<path d="M29.6484 121.5223
L29.7199 121.5603
" />
<path d="M29.7199 121.5603
L29.7556 121.5984
" />
<path d="M29.7556 121.5984
L29.7913 121.6746
" />
<path d="M29.7913 121.6746
L29.7913 121.7508
" />
<path d="M29.7913 121.7508
L29.7556 121.8651
" />
<path d="M29.7556 121.8651
L29.3270 122.3223
" />
<path d="M29.3270 122.3223
L29.7913 122.3223
" />
</g><text x="29.2199" y="123.6499"
textLength="0.5625" font-size="1.0000" lengthAdjust="spacingAndGlyphs"
text-anchor="middle" opacity="0" stroke-opacity="0"></text>
<g class="stroked-text"><desc></desc>
</g><text x="29.2199" y="124.9378"
textLength="2.4482" font-size="1.0000" lengthAdjust="spacingAndGlyphs"
text-anchor="middle" opacity="0" stroke-opacity="0">gnd</text>
<g class="stroked-text"><desc>gnd</desc>
<path d="M28.7020 124.3648
L28.7020 125.0125
" />
<path d="M28.7020 125.0125
L28.6663 125.0886
" />
<path d="M28.6663 125.0886
L28.6306 125.1267
" />
<path d="M28.6306 125.1267
L28.5591 125.1648
" />
<path d="M28.5591 125.1648
L28.4520 125.1648
" />
<path d="M28.4520 125.1648
L28.3806 125.1267
" />
<path d="M28.7020 124.8601
L28.6306 124.8982
" />
<path d="M28.6306 124.8982
L28.4877 124.8982
" />
<path d="M28.4877 124.8982
L28.4163 124.8601
" />
<path d="M28.4163 124.8601
L28.3806 124.8220
" />
<path d="M28.3806 124.8220
L28.3449 124.7458
" />
<path d="M28.3449 124.7458
L28.3449 124.5172
" />
<path d="M28.3449 124.5172
L28.3806 124.4410
" />
<path d="M28.3806 124.4410
L28.4163 124.4029
" />
<path d="M28.4163 124.4029
L28.4877 124.3648
" />
<path d="M28.4877 124.3648
L28.6306 124.3648
" />
<path d="M28.6306 124.3648
L28.7020 124.4029
" />
<path d="M29.0591 124.3648
L29.0591 124.8982
" />
<path d="M29.0591 124.4410
L29.0949 124.4029
" />
<path d="M29.0949 124.4029
L29.1663 124.3648
" />
<path d="M29.1663 124.3648
L29.2734 124.3648
" />
<path d="M29.2734 124.3648
L29.3449 124.4029
" />
<path d="M29.3449 124.4029
L29.3806 124.4791
" />
<path d="M29.3806 124.4791
L29.3806 124.8982
" />
<path d="M30.0591 124.8982
L30.0591 124.0982
" />
<path d="M30.0591 124.8601
L29.9877 124.8982
" />
<path d="M29.9877 124.8982
L29.8449 124.8982
" />
<path d="M29.8449 124.8982
L29.7734 124.8601
" />
<path d="M29.7734 124.8601
L29.7377 124.8220
" />
<path d="M29.7377 124.8220
L29.7020 124.7458
" />
<path d="M29.7020 124.7458
L29.7020 124.5172
" />
<path d="M29.7020 124.5172
L29.7377 124.4410
" />
<path d="M29.7377 124.4410
L29.7734 124.4029
" />
<path d="M29.7734 124.4029
L29.8449 124.3648
" />
<path d="M29.8449 124.3648
L29.9877 124.3648
" />
<path d="M29.9877 124.3648
L30.0591 124.4029
" />
</g><text x="29.2199" y="126.2258"
textLength="0.5625" font-size="1.0000" lengthAdjust="spacingAndGlyphs"
text-anchor="middle" opacity="0" stroke-opacity="0"></text>
<g class="stroked-text"><desc></desc>
</g><text x="29.2199" y="127.5137"
textLength="2.2696" font-size="1.0000" lengthAdjust="spacingAndGlyphs"
text-anchor="middle" opacity="0" stroke-opacity="0">vcc</text>
<g class="stroked-text"><desc>vcc</desc>
<path d="M28.3984 126.9407
L28.5770 127.4741
" />
<path d="M28.5770 127.4741
L28.7556 126.9407
" />
<path d="M29.3627 127.4360
L29.2913 127.4741
" />
<path d="M29.2913 127.4741
L29.1484 127.4741
" />
<path d="M29.1484 127.4741
L29.0770 127.4360
" />
<path d="M29.0770 127.4360
L29.0413 127.3979
" />
<path d="M29.0413 127.3979
L29.0056 127.3217
" />
<path d="M29.0056 127.3217
L29.0056 127.0931
" />
<path d="M29.0056 127.0931
L29.0413 127.0169
" />
<path d="M29.0413 127.0169
L29.0770 126.9788
" />
<path d="M29.0770 126.9788
L29.1484 126.9407
" />
<path d="M29.1484 126.9407
L29.2913 126.9407
" />
<path d="M29.2913 126.9407
L29.3627 126.9788
" />
<path d="M30.0056 127.4360
L29.9341 127.4741
" />
<path d="M29.9341 127.4741
L29.7913 127.4741
" />
<path d="M29.7913 127.4741
L29.7199 127.4360
" />
<path d="M29.7199 127.4360
L29.6841 127.3979
" />
<path d="M29.6841 127.3979
L29.6484 127.3217
" />
<path d="M29.6484 127.3217
L29.6484 127.0931
" />
<path d="M29.6484 127.0931
L29.6841 127.0169
" />
<path d="M29.6841 127.0169
L29.7199 126.9788
" />
<path d="M29.7199 126.9788
L29.7913 126.9407
" />
<path d="M29.7913 126.9407
L29.9341 126.9407
" />
<path d="M29.9341 126.9407
L30.0056 126.9788
" />
</g><text x="18.0699" y="116.6860"
textLength="4.8054" font-size="1.0000" lengthAdjust="spacingAndGlyphs"
text-anchor="middle" opacity="0" stroke-opacity="0">bat gnd</text>
<g class="stroked-text"><desc>bat gnd</desc>
<path d="M16.0520 116.6463
L16.0520 115.8463
" />
<path d="M16.0520 116.1511
L16.1234 116.1130
" />
<path d="M16.1234 116.1130
L16.2663 116.1130
" />
<path d="M16.2663 116.1130
L16.3377 116.1511
" />
<path d="M16.3377 116.1511
L16.3734 116.1892
" />
<path d="M16.3734 116.1892
L16.4091 116.2654
" />
<path d="M16.4091 116.2654
L16.4091 116.4940
" />
<path d="M16.4091 116.4940
L16.3734 116.5702
" />
<path d="M16.3734 116.5702
L16.3377 116.6082
" />
<path d="M16.3377 116.6082
L16.2663 116.6463
" />
<path d="M16.2663 116.6463
L16.1234 116.6463
" />
<path d="M16.1234 116.6463
L16.0520 116.6082
" />
<path d="M17.0520 116.6463
L17.0520 116.2273
" />
<path d="M17.0520 116.2273
L17.0163 116.1511
" />
<path d="M17.0163 116.1511
L16.9449 116.1130
" />
<path d="M16.9449 116.1130
L16.8020 116.1130
" />
<path d="M16.8020 116.1130
L16.7306 116.1511
" />
<path d="M17.0520 116.6082
L16.9806 116.6463
" />
<path d="M16.9806 116.6463
L16.8020 116.6463
" />
<path d="M16.8020 116.6463
L16.7306 116.6082
" />
<path d="M16.7306 116.6082
L16.6949 116.5321
" />
<path d="M16.6949 116.5321
L16.6949 116.4559
" />
<path d="M16.6949 116.4559
L16.7306 116.3797
" />
<path d="M16.7306 116.3797
L16.8020 116.3416
" />
<path d="M16.8020 116.3416
L16.9806 116.3416
" />
<path d="M16.9806 116.3416
L17.0520 116.3035
" />
<path d="M17.3020 116.1130
L17.5877 116.1130
" />
<path d="M17.4091 115.8463
L17.4091 116.5321
" />
<path d="M17.4091 116.5321
L17.4449 116.6082
" />
<path d="M17.4449 116.6082
L17.5163 116.6463
" />
<path d="M17.5163 116.6463
L17.5877 116.6463
" />
<path d="M18.7306 116.1130
L18.7306 116.7606
" />
<path d="M18.7306 116.7606
L18.6949 116.8368
" />
<path d="M18.6949 116.8368
L18.6591 116.8749
" />
<path d="M18.6591 116.8749
L18.5877 116.9130
" />
<path d="M18.5877 116.9130
L18.4806 116.9130
" />
<path d="M18.4806 116.9130
L18.4091 116.8749
" />
<path d="M18.7306 116.6082
L18.6591 116.6463
" />
<path d="M18.6591 116.6463
L18.5163 116.6463
" />
<path d="M18.5163 116.6463
L18.4449 116.6082
" />
<path d="M18.4449 116.6082
L18.4091 116.5702
" />
<path d="M18.4091 116.5702
L18.3734 116.4940
" />
<path d="M18.3734 116.4940
L18.3734 116.2654
" />
<path d="M18.3734 116.2654
L18.4091 116.1892
" />
<path d="M18.4091 116.1892
L18.4449 116.1511
" />
<path d="M18.4449 116.1511
L18.5163 116.1130
" />
<path d="M18.5163 116.1130
L18.6591 116.1130
" />
<path d="M18.6591 116.1130
L18.7306 116.1511
" />
<path d="M19.0877 116.1130
L19.0877 116.6463
" />
<path d="M19.0877 116.1892
L19.1234 116.1511
" />
<path d="M19.1234 116.1511
L19.1949 116.1130
" />
<path d="M19.1949 116.1130
L19.3020 116.1130
" />
<path d="M19.3020 116.1130
L19.3734 116.1511
" />
<path d="M19.3734 116.1511
L19.4091 116.2273
" />
<path d="M19.4091 116.2273
L19.4091 116.6463
" />
<path d="M20.0877 116.6463
L20.0877 115.8463
" />
<path d="M20.0877 116.6082
L20.0163 116.6463
" />
<path d="M20.0163 116.6463
L19.8734 116.6463
" />
<path d="M19.8734 116.6463
L19.8020 116.6082
" />
<path d="M19.8020 116.6082
L19.7663 116.5702
" />
<path d="M19.7663 116.5702
L19.7306 116.4940
" />
<path d="M19.7306 116.4940
L19.7306 116.2654
" />
<path d="M19.7306 116.2654
L19.7663 116.1892
" />
<path d="M19.7663 116.1892
L19.8020 116.1511
" />
<path d="M19.8020 116.1511
L19.8734 116.1130
" />
<path d="M19.8734 116.1130
L20.0163 116.1130
" />
<path d="M20.0163 116.1130
L20.0877 116.1511
" />
</g><text x="8.0199" y="112.0583"
textLength="1.1268" font-size="1.0000" lengthAdjust="spacingAndGlyphs"
text-anchor="middle" opacity="0" stroke-opacity="0">7</text>
<g class="stroked-text"><desc>7</desc>
<path d="M7.7699 111.2186
L8.2699 111.2186
" />
<path d="M8.2699 111.2186
L7.9484 112.0186
" />
</g><text x="8.0199" y="113.3462"
textLength="0.5625" font-size="1.0000" lengthAdjust="spacingAndGlyphs"
text-anchor="middle" opacity="0" stroke-opacity="0"></text>
<g class="stroked-text"><desc></desc>
</g><text x="8.0199" y="114.6342"
textLength="1.1268" font-size="1.0000" lengthAdjust="spacingAndGlyphs"
text-anchor="middle" opacity="0" stroke-opacity="0">6</text>
<g class="stroked-text"><desc>6</desc>
<path d="M8.1627 113.7945
L8.0199 113.7945
" />
<path d="M8.0199 113.7945
L7.9484 113.8326
" />
<path d="M7.9484 113.8326
L7.9127 113.8707
" />
<path d="M7.9127 113.8707
L7.8413 113.9850
" />
<path d="M7.8413 113.9850
L7.8056 114.1374
" />
<path d="M7.8056 114.1374
L7.8056 114.4421
" />
<path d="M7.8056 114.4421
L7.8413 114.5183
" />
<path d="M7.8413 114.5183
L7.8770 114.5564
" />
<path d="M7.8770 114.5564
L7.9484 114.5945
" />
<path d="M7.9484 114.5945
L8.0913 114.5945
" />
<path d="M8.0913 114.5945
L8.1627 114.5564
" />
<path d="M8.1627 114.5564
L8.1984 114.5183
" />
<path d="M8.1984 114.5183
L8.2341 114.4421
" />
<path d="M8.2341 114.4421
L8.2341 114.2517
" />
<path d="M8.2341 114.2517
L8.1984 114.1755
" />
<path d="M8.1984 114.1755
L8.1627 114.1374
" />
<path d="M8.1627 114.1374
L8.0913 114.0993
" />
<path d="M8.0913 114.0993
L7.9484 114.0993
" />
<path d="M7.9484 114.0993
L7.8770 114.1374
" />
<path d="M7.8770 114.1374
L7.8413 114.1755
" />
<path d="M7.8413 114.1755
L7.8056 114.2517
" />
</g><text x="8.0199" y="115.9221"
textLength="0.5625" font-size="1.0000" lengthAdjust="spacingAndGlyphs"
text-anchor="middle" opacity="0" stroke-opacity="0"></text>
<g class="stroked-text"><desc></desc>
</g><text x="8.0199" y="117.2101"
textLength="1.1268" font-size="1.0000" lengthAdjust="spacingAndGlyphs"
text-anchor="middle" opacity="0" stroke-opacity="0">5</text>
<g class="stroked-text"><desc>5</desc>
<path d="M8.1984 116.3704
L7.8413 116.3704
" />
<path d="M7.8413 116.3704
L7.8056 116.7514
" />
<path d="M7.8056 116.7514
L7.8413 116.7133
" />
<path d="M7.8413 116.7133
L7.9127 116.6752
" />
<path d="M7.9127 116.6752
L8.0913 116.6752
" />
<path d="M8.0913 116.6752
L8.1627 116.7133
" />
<path d="M8.1627 116.7133
L8.1984 116.7514
" />
<path d="M8.1984 116.7514
L8.2341 116.8276
" />
<path d="M8.2341 116.8276
L8.2341 117.0181
" />
<path d="M8.2341 117.0181
L8.1984 117.0942
" />
<path d="M8.1984 117.0942
L8.1627 117.1323
" />
<path d="M8.1627 117.1323
L8.0913 117.1704
" />
<path d="M8.0913 117.1704
L7.9127 117.1704
" />
<path d="M7.9127 117.1704
L7.8413 117.1323
" />
<path d="M7.8413 117.1323
L7.8056 117.0942
" />
</g><text x="8.0199" y="118.4980"
textLength="0.5625" font-size="1.0000" lengthAdjust="spacingAndGlyphs"
text-anchor="middle" opacity="0" stroke-opacity="0"></text>
<g class="stroked-text"><desc></desc>
</g><text x="8.0199" y="119.7860"
textLength="1.1268" font-size="1.0000" lengthAdjust="spacingAndGlyphs"
text-anchor="middle" opacity="0" stroke-opacity="0">4</text>
<g class="stroked-text"><desc>4</desc>
<path d="M8.1627 119.2130
L8.1627 119.7463
" />
<path d="M7.9841 118.9082
L7.8056 119.4797
" />
<path d="M7.8056 119.4797
L8.2699 119.4797
" />
</g><text x="8.0199" y="121.0740"
textLength="0.5625" font-size="1.0000" lengthAdjust="spacingAndGlyphs"
text-anchor="middle" opacity="0" stroke-opacity="0"></text>
<g class="stroked-text"><desc></desc>
</g><text x="8.0199" y="122.3619"
textLength="1.1268" font-size="1.0000" lengthAdjust="spacingAndGlyphs"
text-anchor="middle" opacity="0" stroke-opacity="0">3</text>
<g class="stroked-text"><desc>3</desc>
<path d="M7.7699 121.5223
L8.2341 121.5223
" />
<path d="M8.2341 121.5223
L7.9841 121.8270
" />
<path d="M7.9841 121.8270
L8.0913 121.8270
" />
<path d="M8.0913 121.8270
L8.1627 121.8651
" />
<path d="M8.1627 121.8651
L8.1984 121.9032
" />
<path d="M8.1984 121.9032
L8.2341 121.9794
" />
<path d="M8.2341 121.9794
L8.2341 122.1699
" />
<path d="M8.2341 122.1699
L8.1984 122.2461
" />
<path d="M8.1984 122.2461
L8.1627 122.2842
" />
<path d="M8.1627 122.2842
L8.0913 122.3223
" />
<path d="M8.0913 122.3223
L7.8770 122.3223
" />
<path d="M7.8770 122.3223
L7.8056 122.2842
" />
<path d="M7.8056 122.2842
L7.7699 122.2461
" />
</g><text x="8.0199" y="123.6499"
textLength="0.5625" font-size="1.0000" lengthAdjust="spacingAndGlyphs"
text-anchor="middle" opacity="0" stroke-opacity="0"></text>
<g class="stroked-text"><desc></desc>
</g><text x="8.0199" y="124.9378"
textLength="1.1268" font-size="1.0000" lengthAdjust="spacingAndGlyphs"
text-anchor="middle" opacity="0" stroke-opacity="0">2</text>
<g class="stroked-text"><desc>2</desc>
<path d="M7.8056 124.1744
L7.8413 124.1363
" />
<path d="M7.8413 124.1363
L7.9127 124.0982
" />
<path d="M7.9127 124.0982
L8.0913 124.0982
" />
<path d="M8.0913 124.0982
L8.1627 124.1363
" />
<path d="M8.1627 124.1363
L8.1984 124.1744
" />
<path d="M8.1984 124.1744
L8.2341 124.2505
" />
<path d="M8.2341 124.2505
L8.2341 124.3267
" />
<path d="M8.2341 124.3267
L8.1984 124.4410
" />
<path d="M8.1984 124.4410
L7.7699 124.8982
" />
<path d="M7.7699 124.8982
L8.2341 124.8982
" />
</g><text x="8.0199" y="126.2258"
textLength="0.5625" font-size="1.0000" lengthAdjust="spacingAndGlyphs"
text-anchor="middle" opacity="0" stroke-opacity="0"></text>
<g class="stroked-text"><desc></desc>
</g><text x="8.0199" y="127.5137"
textLength="1.1268" font-size="1.0000" lengthAdjust="spacingAndGlyphs"
text-anchor="middle" opacity="0" stroke-opacity="0">1</text>
<g class="stroked-text"><desc>1</desc>
<path d="M8.2341 127.4741
L7.8056 127.4741
" />
<path d="M8.0199 127.4741
L8.0199 126.6741
" />
<path d="M8.0199 126.6741
L7.9484 126.7884
" />
<path d="M7.9484 126.7884
L7.8770 126.8646
" />
<path d="M7.8770 126.8646
L7.8056 126.9026
" />
</g></g>
<g style="fill:none; 
stroke:#E8B2A7; stroke-width:0.1500; stroke-opacity:1; 
stroke-linecap:round; stroke-linejoin:round;">
<text x="17.9199" y="130.5360"
textLength="1.9643" font-size="1.3333" lengthAdjust="spacingAndGlyphs"
text-anchor="middle" opacity="0" stroke-opacity="0">J1</text>
<g class="stroked-text"><desc>J1</desc>
<path d="M17.5865 129.4908
L17.5865 130.2051
" />
<path d="M17.5865 130.2051
L17.5389 130.3480
" />
<path d="M17.5389 130.3480
L17.4437 130.4432
" />
<path d="M17.4437 130.4432
L17.3008 130.4908
" />
<path d="M17.3008 130.4908
L17.2056 130.4908
" />
<path d="M18.5865 130.4908
L18.0151 130.4908
" />
<path d="M18.3008 130.4908
L18.3008 129.4908
" />
<path d="M18.3008 129.4908
L18.2056 129.6337
" />
<path d="M18.2056 129.6337
L18.1103 129.7289
" />
<path d="M18.1103 129.7289
L18.0151 129.7765
" />
</g><text x="17.7699" y="4.5800"
textLength="3.3452" font-size="1.3333" lengthAdjust="spacingAndGlyphs"
text-anchor="middle" opacity="0" stroke-opacity="0">MK1</text>
<g class="stroked-text"><desc>MK1</desc>
<path d="M16.4603 4.5348
L16.4603 3.5348
" />
<path d="M16.4603 3.5348
L16.7937 4.2491
" />
<path d="M16.7937 4.2491
L17.1270 3.5348
" />
<path d="M17.1270 3.5348
L17.1270 4.5348
" />
<path d="M17.6032 4.5348
L17.6032 3.5348
" />
<path d="M18.1746 4.5348
L17.7460 3.9634
" />
<path d="M18.1746 3.5348
L17.6032 4.1062
" />
<path d="M19.1270 4.5348
L18.5556 4.5348
" />
<path d="M18.8413 4.5348
L18.8413 3.5348
" />
<path d="M18.8413 3.5348
L18.7460 3.6777
" />
<path d="M18.7460 3.6777
L18.6508 3.7729
" />
<path d="M18.6508 3.7729
L18.5556 3.8205
" />
</g></g>
<g style="fill:none; 
stroke:#E8B2A7; stroke-width:0.1200; stroke-opacity:1; 
stroke-linecap:round; stroke-linejoin:round;">
<path d="M20.9799 121.1260
L14.8599 121.1260
" />
<path d="M20.9799 127.3460
L20.0599 127.3460
" />
<path d="M20.9799 128.9460
L20.9799 121.1260
" />
<path d="M20.0599 127.3460
L20.0599 128.9460
" />
<path d="M20.0599 128.9460
L20.9799 128.9460
" />
<path d="M19.7799 127.3460
L20.0599 127.3460
" />
<path d="M19.7799 127.3460
L19.7799 128.5610
" />
<path d="M19.7199 123.3860
L19.7199 121.1260
" />
<path d="M19.2199 123.3860
L19.2199 121.1260
" />
<path d="M18.4199 121.1260
L18.4199 125.4860
" />
<path d="M18.4199 125.4860
L17.4199 125.4860
" />
<path d="M17.4199 125.4860
L17.4199 121.1260
" />
<path d="M15.7799 127.3460
L16.0599 127.3460
" />
<path d="M15.7799 128.9460
L15.7799 127.3460
" />
<path d="M14.8599 121.1260
L14.8599 128.9460
" />
<path d="M14.8599 127.3460
L15.7799 127.3460
" />
<path d="M14.8599 128.9460
L15.7799 128.9460
" />
<path style="fill:none; 
stroke:#E8B2A7; stroke-width:0.1200; stroke-opacity:1; 
stroke-linecap:round; stroke-linejoin:round;fill:none"
d="M 20.2199,123.3860
19.2199,123.3860
19.2199,124.9860
20.2199,124.9860
Z" /> 
<path style="fill:none; 
stroke:#E8B2A7; stroke-width:0.1200; stroke-opacity:1; 
stroke-linecap:round; stroke-linejoin:round;fill:none"
d="M 16.6199,123.3860
15.6199,123.3860
15.6199,124.9860
16.6199,124.9860
Z" /> 
<path d="M11.0199 126.3360
L9.6199 126.3360
" />
<path d="M11.0199 127.7360
L11.0199 126.3360
" />
<path d="M9.6199 126.3360
L9.6199 127.7360
" />
<path d="M9.6199 127.7360
L11.0199 127.7360
" />
<path d="M27.2699 113.5860
L25.8699 113.5860
" />
<path d="M27.2699 114.9860
L27.2699 113.5860
" />
<path d="M25.8699 113.5860
L25.8699 114.9860
" />
<path d="M25.8699 114.9860
L27.2699 114.9860
" />
<path d="M27.2699 118.8360
L25.8699 118.8360
" />
<path d="M27.2699 120.2360
L27.2699 118.8360
" />
<path d="M25.8699 118.8360
L25.8699 120.2360
" />
<path d="M25.8699 120.2360
L27.2699 120.2360
" />
<path d="M19.1949 5.9400
L19.1949 9.6400
" />
<path d="M19.1949 9.6400
L16.3449 9.6400
" />
<path d="M16.6449 5.9400
L19.1949 5.9400
" />
<path d="M16.3449 9.6400
L16.3449 6.2400
" />
<path style="fill:none; 
stroke:#E8B2A7; stroke-width:0.1200; stroke-opacity:1; 
stroke-linecap:round; stroke-linejoin:round;fill:none"
d="M 16.3449,5.9400
16.0649,5.9400
16.3449,5.6600
Z" /> 
<path style="fill:#E8B2A7; fill-opacity:1.0000; stroke:none;fill-rule:evenodd;"
d="M 16.0649,5.9400
16.3449,5.9400
16.3449,5.6600
Z" /> 
</g>
<g style="fill:none; 
stroke:#E8B2A7; stroke-width:0.1200; stroke-opacity:1; 
stroke-linecap:round; stroke-linejoin:round;">
<path d="M11.0199 121.3360
L9.6199 121.3360
" />
<path d="M11.0199 122.7360
L11.0199 121.3360
" />
<path d="M9.6199 121.3360
L9.6199 122.7360
" />
<path d="M9.6199 122.7360
L11.0199 122.7360
" />
<path d="M27.3199 123.8860
L25.9199 123.8860
" />
<path d="M27.3199 125.2860
L27.3199 123.8860
" />
<path d="M25.9199 123.8860
L25.9199 125.2860
" />
<path d="M25.9199 125.2860
L27.3199 125.2860
" />
<path d="M27.3199 126.2860
L25.9199 126.2860
" />
<path d="M27.3199 127.6860
L27.3199 126.2860
" />
<path d="M25.9199 126.2860
L25.9199 127.6860
" />
<path d="M25.9199 127.6860
L27.3199 127.6860
" />
<path d="M11.0199 111.0860
L9.6199 111.0860
" />
<path d="M11.0199 112.4860
L11.0199 111.0860
" />
<path d="M9.6199 111.0860
L9.6199 112.4860
" />
<path d="M9.6199 112.4860
L11.0199 112.4860
" />
<path d="M11.0199 116.0860
L9.6199 116.0860
" />
<path d="M11.0199 117.4860
L11.0199 116.0860
" />
<path d="M9.6199 116.0860
L9.6199 117.4860
" />
<path d="M9.6199 117.4860
L11.0199 117.4860
" />
<path d="M11.0199 113.5860
L9.6199 113.5860
" />
<path d="M11.0199 114.9860
L11.0199 113.5860
" />
<path d="M9.6199 113.5860
L9.6199 114.9860
" />
<path d="M9.6199 114.9860
L11.0199 114.9860
" />
<path d="M27.3199 121.2860
L25.9199 121.2860
" />
<path d="M27.3199 122.6860
L27.3199 121.2860
" />
<path d="M25.9199 121.2860
L25.9199 122.6860
" />
<path d="M25.9199 122.6860
L27.3199 122.6860
" />
<path d="M11.0199 118.5860
L9.6199 118.5860
" />
<path d="M11.0199 119.9860
L11.0199 118.5860
" />
<path d="M9.6199 118.5860
L9.6199 119.9860
" />
<path d="M9.6199 119.9860
L11.0199 119.9860
" />
<path d="M27.2699 116.0860
L25.8699 116.0860
" />
<path d="M27.2699 117.4860
L27.2699 116.0860
" />
<path d="M25.8699 116.0860
L25.8699 117.4860
" />
<path d="M25.8699 117.4860
L27.2699 117.4860
" />
<path d="M27.2699 111.0860
L25.8699 111.0860
" />
<path d="M27.2699 112.4860
L27.2699 111.0860
" />
<path d="M25.8699 111.0860
L25.8699 112.4860
" />
<path d="M25.8699 112.4860
L27.2699 112.4860
" />
<path d="M11.0199 123.8360
L9.6199 123.8360
" />
<path d="M11.0199 125.2360
L11.0199 123.8360
" />
<path d="M9.6199 123.8360
L9.6199 125.2360
" />
<path d="M9.6199 125.2360
L11.0199 125.2360
" />
</g>
<g style="fill:none; 
stroke:#D0D2CD; stroke-width:0.4000; stroke-opacity:1; 
stroke-linecap:round; stroke-linejoin:round;">
<path d="M36.9824 0.0000
L36.9824 130.0000
" />
<path d="M36.9824 0.0000
L30.9824 0.0000
" />
<path d="M36.9824 130.0000
L-0.0176 130.0000
" />
<path d="M30.9824 2.5000
L30.9824 0.0000
" />
<path d="M30.9824 2.5000
L24.8824 2.5000
" />
<path d="M30.3264 29.0702
L28.9122 27.6560
" />
<path d="M30.3264 49.9298
L29.7961 49.3995
" />
<path d="M29.7961 29.6005
L30.3264 29.0702
" />
<path d="M29.7961 49.3995
L29.2658 48.8692
" />
<path d="M29.2658 30.1308
L29.7961 29.6005
" />
<path d="M29.2658 48.8692
L27.8516 50.2834
" />
<path d="M28.9122 27.6560
L28.3819 28.1863
" />
<path d="M28.9122 51.3440
L30.3264 49.9298
" />
<path d="M28.3819 28.1863
L27.8516 28.7166
" />
<path d="M28.3819 50.8137
L28.9122 51.3440
" />
<path d="M27.8516 28.7166
L29.2658 30.1308
" />
<path d="M27.8516 50.2834
L28.3819 50.8137
" />
<path d="M24.8824 2.5000
L24.8824 0.0000
" />
<path d="M12.0824 0.0000
L24.8824 0.0000
" />
<path d="M12.0824 2.5000
L12.0824 0.0000
" />
<path d="M9.1132 28.7166
L8.5829 28.1863
" />
<path d="M9.1132 50.2834
L7.6990 48.8692
" />
<path d="M8.5829 28.1863
L8.0526 27.6560
" />
<path d="M8.5829 50.8137
L9.1132 50.2834
" />
<path d="M8.0526 27.6560
L6.6384 29.0702
" />
<path d="M8.0526 51.3440
L8.5829 50.8137
" />
<path d="M7.6990 30.1308
L9.1132 28.7166
" />
<path d="M7.6990 48.8692
L7.1687 49.3995
" />
<path d="M7.1687 29.6005
L7.6990 30.1308
" />
<path d="M7.1687 49.3995
L6.6384 49.9298
" />
<path d="M6.6384 29.0702
L7.1687 29.6005
" />
<path d="M6.6384 49.9298
L8.0526 51.3440
" />
<path d="M5.9824 0.0000
L-0.0176 0.0000
" />
<path d="M5.9824 2.5000
L12.0824 2.5000
" />
<path d="M5.9824 2.5000
L5.9824 0.0000
" />
<path d="M-0.0176 0.0000
L-0.0176 130.0000
" />
</g>
<g style="fill:#FFFFFF; fill-opacity:1.0000; stroke:none;">
<circle cx="12.6199" cy="96.7860" r="0.1500" /> 
<circle cx="17.7699" cy="5.1860" r="0.1500" /> 
<circle cx="20.1199" cy="9.0860" r="0.1500" /> 
<circle cx="16.9199" cy="117.1360" r="0.1500" /> 
<circle cx="5.8199" cy="109.7860" r="0.1500" /> 
<circle cx="4.2559" cy="9.6320" r="0.1500" /> 
<circle cx="23.9409" cy="46.4620" r="0.1500" /> 
</g>
<g style="fill:#FFFFFF; fill-opacity:1.0000; stroke:none;">
<circle cx="16.6785" cy="113.8743" r="0.2500" /> 
</g>
<g style="fill:#FFFFFF; fill-opacity:1.0000; stroke:none;">
<circle cx="19.2185" cy="113.8743" r="0.2500" /> 
</g>
<g style="fill:#FFFFFF; fill-opacity:1.0000; stroke:none;">
<circle cx="7.7824" cy="5.0440" r="0.4500" /> 
</g>
<g style="fill:#FFFFFF; fill-opacity:1.0000; stroke:none;">
<circle cx="10.3224" cy="5.0440" r="0.4500" /> 
</g>
<g style="fill:#FFFFFF; fill-opacity:1.0000; stroke:none;">
<circle cx="25.3379" cy="4.8060" r="0.4500" /> 
</g>
<g style="fill:#FFFFFF; fill-opacity:1.0000; stroke:none;">
<circle cx="27.8779" cy="4.8060" r="0.4500" /> 
</g>
<g style="fill:#FFFFFF; fill-opacity:1.0000; stroke:none;">
<circle cx="30.4179" cy="4.8060" r="0.4500" /> 
</g>
<g style="fill:#FFFFFF; fill-opacity:1.0000; stroke:none;">
<circle cx="21.7351" cy="55.5797" r="0.8500" /> 
</g>
<g style="fill:#FFFFFF; fill-opacity:1.0000; stroke:none;">
<circle cx="10.7325" cy="54.6039" r="0.8500" /> 
</g>
<g style="fill:#FFFFFF; fill-opacity:1.0000; stroke:none;">
<circle cx="11.9346" cy="46.0480" r="0.8500" /> 
</g>
<g style="fill:#FFFFFF; fill-opacity:1.0000; stroke:none;">
<circle cx="19.5926" cy="40.6102" r="0.8500" /> 
</g>
<g style="fill:#FFFFFF; fill-opacity:1.0000; stroke:none;">
<circle cx="34.6327" cy="43.1063" r="0.8500" /> 
</g>
<g style="fill:#FFFFFF; fill-opacity:1.0000; stroke:none;">
<circle cx="25.0302" cy="32.9521" r="0.8500" /> 
</g>
<g style="fill:#FFFFFF; fill-opacity:1.0000; stroke:none;">
<circle cx="11.9346" cy="32.9520" r="0.8500" /> 
</g>
<g style="fill:#FFFFFF; fill-opacity:1.0000; stroke:none;">
<circle cx="26.2323" cy="24.3961" r="0.8500" /> 
</g>
<g style="fill:#FFFFFF; fill-opacity:1.0000; stroke:none;">
<circle cx="2.3321" cy="35.8936" r="0.8500" /> 
</g>
<g style="fill:#FFFFFF; fill-opacity:1.0000; stroke:none;">
<circle cx="10.3199" cy="127.0360" r="0.2500" /> 
</g>
<g style="fill:#FFFFFF; fill-opacity:1.0000; stroke:none;">
<circle cx="26.5699" cy="114.2860" r="0.2500" /> 
</g>
<g style="fill:#FFFFFF; fill-opacity:1.0000; stroke:none;">
<circle cx="26.5699" cy="119.5360" r="0.2500" /> 
</g>
<g style="fill:#000000; fill-opacity:1.0000; stroke:none;">
<circle cx="17.7699" cy="8.5000" r="0.2500" /> 
</g>
<g style="fill:#FFFFFF; fill-opacity:1.0000; stroke:none;">
<circle cx="10.3199" cy="122.0360" r="0.2500" /> 
</g>
<g style="fill:#FFFFFF; fill-opacity:1.0000; stroke:none;">
<circle cx="26.6199" cy="124.5860" r="0.2500" /> 
</g>
<g style="fill:#FFFFFF; fill-opacity:1.0000; stroke:none;">
<circle cx="26.6199" cy="126.9860" r="0.2500" /> 
</g>
<g style="fill:#FFFFFF; fill-opacity:1.0000; stroke:none;">
<circle cx="10.3199" cy="111.7860" r="0.2500" /> 
</g>
<g style="fill:#FFFFFF; fill-opacity:1.0000; stroke:none;">
<circle cx="10.3199" cy="116.7860" r="0.2500" /> 
</g>
<g style="fill:#FFFFFF; fill-opacity:1.0000; stroke:none;">
<circle cx="10.3199" cy="114.2860" r="0.2500" /> 
</g>
<g style="fill:#FFFFFF; fill-opacity:1.0000; stroke:none;">
<circle cx="26.6199" cy="121.9860" r="0.2500" /> 
</g>
<g style="fill:#FFFFFF; fill-opacity:1.0000; stroke:none;">
<circle cx="10.3199" cy="119.2860" r="0.2500" /> 
</g>
<g style="fill:#FFFFFF; fill-opacity:1.0000; stroke:none;">
<circle cx="26.5699" cy="116.7860" r="0.2500" /> 
</g>
<g style="fill:#FFFFFF; fill-opacity:1.0000; stroke:none;">
<circle cx="26.5699" cy="111.7860" r="0.2500" /> 
</g>
<g style="fill:#FFFFFF; fill-opacity:1.0000; stroke:none;">
<circle cx="10.3199" cy="124.5360" r="0.2500" /> 
</g> 
</svg>
