%TF.GenerationSoftware,KiCad,Pcbnew,10.0.3*%
%TF.CreationDate,2026-07-22T10:39:54-07:00*%
%TF.ProjectId,c6remote,63367265-6d6f-4746-952e-6b696361645f,rev?*%
%TF.SameCoordinates,Original*%
%TF.FileFunction,Legend,Bot*%
%TF.FilePolarity,Positive*%
%FSLAX46Y46*%
G04 Gerber Fmt 4.6, Leading zero omitted, Abs format (unit mm)*
G04 Created by KiCad (PCBNEW 10.0.3) date 2026-07-22 10:39:54*
%MOMM*%
%LPD*%
G01*
G04 APERTURE LIST*
%ADD10C,0.187500*%
%ADD11C,0.150000*%
%ADD12C,0.120000*%
G04 APERTURE END LIST*
D10*
X45590930Y-139775472D02*
X45662359Y-139737377D01*
X45662359Y-139737377D02*
X45698073Y-139699281D01*
X45698073Y-139699281D02*
X45733787Y-139623091D01*
X45733787Y-139623091D02*
X45733787Y-139584996D01*
X45733787Y-139584996D02*
X45698073Y-139508805D01*
X45698073Y-139508805D02*
X45662359Y-139470710D01*
X45662359Y-139470710D02*
X45590930Y-139432615D01*
X45590930Y-139432615D02*
X45448073Y-139432615D01*
X45448073Y-139432615D02*
X45376645Y-139470710D01*
X45376645Y-139470710D02*
X45340930Y-139508805D01*
X45340930Y-139508805D02*
X45305216Y-139584996D01*
X45305216Y-139584996D02*
X45305216Y-139623091D01*
X45305216Y-139623091D02*
X45340930Y-139699281D01*
X45340930Y-139699281D02*
X45376645Y-139737377D01*
X45376645Y-139737377D02*
X45448073Y-139775472D01*
X45448073Y-139775472D02*
X45590930Y-139775472D01*
X45590930Y-139775472D02*
X45662359Y-139813567D01*
X45662359Y-139813567D02*
X45698073Y-139851662D01*
X45698073Y-139851662D02*
X45733787Y-139927853D01*
X45733787Y-139927853D02*
X45733787Y-140080234D01*
X45733787Y-140080234D02*
X45698073Y-140156424D01*
X45698073Y-140156424D02*
X45662359Y-140194520D01*
X45662359Y-140194520D02*
X45590930Y-140232615D01*
X45590930Y-140232615D02*
X45448073Y-140232615D01*
X45448073Y-140232615D02*
X45376645Y-140194520D01*
X45376645Y-140194520D02*
X45340930Y-140156424D01*
X45340930Y-140156424D02*
X45305216Y-140080234D01*
X45305216Y-140080234D02*
X45305216Y-139927853D01*
X45305216Y-139927853D02*
X45340930Y-139851662D01*
X45340930Y-139851662D02*
X45376645Y-139813567D01*
X45376645Y-139813567D02*
X45448073Y-139775472D01*
X45662359Y-142808525D02*
X45519502Y-142808525D01*
X45519502Y-142808525D02*
X45448073Y-142770430D01*
X45448073Y-142770430D02*
X45412359Y-142732334D01*
X45412359Y-142732334D02*
X45340930Y-142618049D01*
X45340930Y-142618049D02*
X45305216Y-142465668D01*
X45305216Y-142465668D02*
X45305216Y-142160906D01*
X45305216Y-142160906D02*
X45340930Y-142084715D01*
X45340930Y-142084715D02*
X45376645Y-142046620D01*
X45376645Y-142046620D02*
X45448073Y-142008525D01*
X45448073Y-142008525D02*
X45590930Y-142008525D01*
X45590930Y-142008525D02*
X45662359Y-142046620D01*
X45662359Y-142046620D02*
X45698073Y-142084715D01*
X45698073Y-142084715D02*
X45733787Y-142160906D01*
X45733787Y-142160906D02*
X45733787Y-142351382D01*
X45733787Y-142351382D02*
X45698073Y-142427572D01*
X45698073Y-142427572D02*
X45662359Y-142465668D01*
X45662359Y-142465668D02*
X45590930Y-142503763D01*
X45590930Y-142503763D02*
X45448073Y-142503763D01*
X45448073Y-142503763D02*
X45376645Y-142465668D01*
X45376645Y-142465668D02*
X45340930Y-142427572D01*
X45340930Y-142427572D02*
X45305216Y-142351382D01*
X45305216Y-145384435D02*
X45733787Y-145384435D01*
X45519502Y-145384435D02*
X45519502Y-144584435D01*
X45519502Y-144584435D02*
X45590930Y-144698720D01*
X45590930Y-144698720D02*
X45662359Y-144774911D01*
X45662359Y-144774911D02*
X45733787Y-144813006D01*
X44840930Y-144584435D02*
X44769501Y-144584435D01*
X44769501Y-144584435D02*
X44698073Y-144622530D01*
X44698073Y-144622530D02*
X44662359Y-144660625D01*
X44662359Y-144660625D02*
X44626644Y-144736816D01*
X44626644Y-144736816D02*
X44590930Y-144889197D01*
X44590930Y-144889197D02*
X44590930Y-145079673D01*
X44590930Y-145079673D02*
X44626644Y-145232054D01*
X44626644Y-145232054D02*
X44662359Y-145308244D01*
X44662359Y-145308244D02*
X44698073Y-145346340D01*
X44698073Y-145346340D02*
X44769501Y-145384435D01*
X44769501Y-145384435D02*
X44840930Y-145384435D01*
X44840930Y-145384435D02*
X44912359Y-145346340D01*
X44912359Y-145346340D02*
X44948073Y-145308244D01*
X44948073Y-145308244D02*
X44983787Y-145232054D01*
X44983787Y-145232054D02*
X45019501Y-145079673D01*
X45019501Y-145079673D02*
X45019501Y-144889197D01*
X45019501Y-144889197D02*
X44983787Y-144736816D01*
X44983787Y-144736816D02*
X44948073Y-144660625D01*
X44948073Y-144660625D02*
X44912359Y-144622530D01*
X44912359Y-144622530D02*
X44840930Y-144584435D01*
X45305216Y-147960345D02*
X45733787Y-147960345D01*
X45519502Y-147960345D02*
X45519502Y-147160345D01*
X45519502Y-147160345D02*
X45590930Y-147274630D01*
X45590930Y-147274630D02*
X45662359Y-147350821D01*
X45662359Y-147350821D02*
X45733787Y-147388916D01*
X44590930Y-147960345D02*
X45019501Y-147960345D01*
X44805216Y-147960345D02*
X44805216Y-147160345D01*
X44805216Y-147160345D02*
X44876644Y-147274630D01*
X44876644Y-147274630D02*
X44948073Y-147350821D01*
X44948073Y-147350821D02*
X45019501Y-147388916D01*
X45305216Y-150536255D02*
X45733787Y-150536255D01*
X45519502Y-150536255D02*
X45519502Y-149736255D01*
X45519502Y-149736255D02*
X45590930Y-149850540D01*
X45590930Y-149850540D02*
X45662359Y-149926731D01*
X45662359Y-149926731D02*
X45733787Y-149964826D01*
X45019501Y-149812445D02*
X44983787Y-149774350D01*
X44983787Y-149774350D02*
X44912359Y-149736255D01*
X44912359Y-149736255D02*
X44733787Y-149736255D01*
X44733787Y-149736255D02*
X44662359Y-149774350D01*
X44662359Y-149774350D02*
X44626644Y-149812445D01*
X44626644Y-149812445D02*
X44590930Y-149888636D01*
X44590930Y-149888636D02*
X44590930Y-149964826D01*
X44590930Y-149964826D02*
X44626644Y-150079112D01*
X44626644Y-150079112D02*
X45055216Y-150536255D01*
X45055216Y-150536255D02*
X44590930Y-150536255D01*
X45376645Y-152578831D02*
X45376645Y-153226450D01*
X45376645Y-153226450D02*
X45412359Y-153302641D01*
X45412359Y-153302641D02*
X45448073Y-153340736D01*
X45448073Y-153340736D02*
X45519502Y-153378831D01*
X45519502Y-153378831D02*
X45626645Y-153378831D01*
X45626645Y-153378831D02*
X45698073Y-153340736D01*
X45376645Y-153074070D02*
X45448073Y-153112165D01*
X45448073Y-153112165D02*
X45590930Y-153112165D01*
X45590930Y-153112165D02*
X45662359Y-153074070D01*
X45662359Y-153074070D02*
X45698073Y-153035974D01*
X45698073Y-153035974D02*
X45733787Y-152959784D01*
X45733787Y-152959784D02*
X45733787Y-152731212D01*
X45733787Y-152731212D02*
X45698073Y-152655022D01*
X45698073Y-152655022D02*
X45662359Y-152616927D01*
X45662359Y-152616927D02*
X45590930Y-152578831D01*
X45590930Y-152578831D02*
X45448073Y-152578831D01*
X45448073Y-152578831D02*
X45376645Y-152616927D01*
X45019502Y-152578831D02*
X45019502Y-153112165D01*
X45019502Y-152655022D02*
X44983788Y-152616927D01*
X44983788Y-152616927D02*
X44912359Y-152578831D01*
X44912359Y-152578831D02*
X44805216Y-152578831D01*
X44805216Y-152578831D02*
X44733788Y-152616927D01*
X44733788Y-152616927D02*
X44698074Y-152693117D01*
X44698074Y-152693117D02*
X44698074Y-153112165D01*
X44019503Y-153112165D02*
X44019503Y-152312165D01*
X44019503Y-153074070D02*
X44090931Y-153112165D01*
X44090931Y-153112165D02*
X44233788Y-153112165D01*
X44233788Y-153112165D02*
X44305217Y-153074070D01*
X44305217Y-153074070D02*
X44340931Y-153035974D01*
X44340931Y-153035974D02*
X44376645Y-152959784D01*
X44376645Y-152959784D02*
X44376645Y-152731212D01*
X44376645Y-152731212D02*
X44340931Y-152655022D01*
X44340931Y-152655022D02*
X44305217Y-152616927D01*
X44305217Y-152616927D02*
X44233788Y-152578831D01*
X44233788Y-152578831D02*
X44090931Y-152578831D01*
X44090931Y-152578831D02*
X44019503Y-152616927D01*
X45769502Y-155154741D02*
X45590930Y-155688075D01*
X45590930Y-155688075D02*
X45412359Y-155154741D01*
X44805216Y-155649980D02*
X44876644Y-155688075D01*
X44876644Y-155688075D02*
X45019501Y-155688075D01*
X45019501Y-155688075D02*
X45090930Y-155649980D01*
X45090930Y-155649980D02*
X45126644Y-155611884D01*
X45126644Y-155611884D02*
X45162358Y-155535694D01*
X45162358Y-155535694D02*
X45162358Y-155307122D01*
X45162358Y-155307122D02*
X45126644Y-155230932D01*
X45126644Y-155230932D02*
X45090930Y-155192837D01*
X45090930Y-155192837D02*
X45019501Y-155154741D01*
X45019501Y-155154741D02*
X44876644Y-155154741D01*
X44876644Y-155154741D02*
X44805216Y-155192837D01*
X44162359Y-155649980D02*
X44233787Y-155688075D01*
X44233787Y-155688075D02*
X44376644Y-155688075D01*
X44376644Y-155688075D02*
X44448073Y-155649980D01*
X44448073Y-155649980D02*
X44483787Y-155611884D01*
X44483787Y-155611884D02*
X44519501Y-155535694D01*
X44519501Y-155535694D02*
X44519501Y-155307122D01*
X44519501Y-155307122D02*
X44483787Y-155230932D01*
X44483787Y-155230932D02*
X44448073Y-155192837D01*
X44448073Y-155192837D02*
X44376644Y-155154741D01*
X44376644Y-155154741D02*
X44233787Y-155154741D01*
X44233787Y-155154741D02*
X44162359Y-155192837D01*
X57352855Y-144860345D02*
X57352855Y-144060345D01*
X57352855Y-144365107D02*
X57281427Y-144327011D01*
X57281427Y-144327011D02*
X57138569Y-144327011D01*
X57138569Y-144327011D02*
X57067141Y-144365107D01*
X57067141Y-144365107D02*
X57031427Y-144403202D01*
X57031427Y-144403202D02*
X56995712Y-144479392D01*
X56995712Y-144479392D02*
X56995712Y-144707964D01*
X56995712Y-144707964D02*
X57031427Y-144784154D01*
X57031427Y-144784154D02*
X57067141Y-144822250D01*
X57067141Y-144822250D02*
X57138569Y-144860345D01*
X57138569Y-144860345D02*
X57281427Y-144860345D01*
X57281427Y-144860345D02*
X57352855Y-144822250D01*
X56352856Y-144860345D02*
X56352856Y-144441297D01*
X56352856Y-144441297D02*
X56388570Y-144365107D01*
X56388570Y-144365107D02*
X56459998Y-144327011D01*
X56459998Y-144327011D02*
X56602856Y-144327011D01*
X56602856Y-144327011D02*
X56674284Y-144365107D01*
X56352856Y-144822250D02*
X56424284Y-144860345D01*
X56424284Y-144860345D02*
X56602856Y-144860345D01*
X56602856Y-144860345D02*
X56674284Y-144822250D01*
X56674284Y-144822250D02*
X56709998Y-144746059D01*
X56709998Y-144746059D02*
X56709998Y-144669869D01*
X56709998Y-144669869D02*
X56674284Y-144593678D01*
X56674284Y-144593678D02*
X56602856Y-144555583D01*
X56602856Y-144555583D02*
X56424284Y-144555583D01*
X56424284Y-144555583D02*
X56352856Y-144517488D01*
X56102856Y-144327011D02*
X55817142Y-144327011D01*
X55995713Y-144060345D02*
X55995713Y-144746059D01*
X55995713Y-144746059D02*
X55959999Y-144822250D01*
X55959999Y-144822250D02*
X55888570Y-144860345D01*
X55888570Y-144860345D02*
X55817142Y-144860345D01*
X54674285Y-144327011D02*
X54674285Y-144974630D01*
X54674285Y-144974630D02*
X54709999Y-145050821D01*
X54709999Y-145050821D02*
X54745713Y-145088916D01*
X54745713Y-145088916D02*
X54817142Y-145127011D01*
X54817142Y-145127011D02*
X54924285Y-145127011D01*
X54924285Y-145127011D02*
X54995713Y-145088916D01*
X54674285Y-144822250D02*
X54745713Y-144860345D01*
X54745713Y-144860345D02*
X54888570Y-144860345D01*
X54888570Y-144860345D02*
X54959999Y-144822250D01*
X54959999Y-144822250D02*
X54995713Y-144784154D01*
X54995713Y-144784154D02*
X55031427Y-144707964D01*
X55031427Y-144707964D02*
X55031427Y-144479392D01*
X55031427Y-144479392D02*
X54995713Y-144403202D01*
X54995713Y-144403202D02*
X54959999Y-144365107D01*
X54959999Y-144365107D02*
X54888570Y-144327011D01*
X54888570Y-144327011D02*
X54745713Y-144327011D01*
X54745713Y-144327011D02*
X54674285Y-144365107D01*
X54317142Y-144327011D02*
X54317142Y-144860345D01*
X54317142Y-144403202D02*
X54281428Y-144365107D01*
X54281428Y-144365107D02*
X54209999Y-144327011D01*
X54209999Y-144327011D02*
X54102856Y-144327011D01*
X54102856Y-144327011D02*
X54031428Y-144365107D01*
X54031428Y-144365107D02*
X53995714Y-144441297D01*
X53995714Y-144441297D02*
X53995714Y-144860345D01*
X53317143Y-144860345D02*
X53317143Y-144060345D01*
X53317143Y-144822250D02*
X53388571Y-144860345D01*
X53388571Y-144860345D02*
X53531428Y-144860345D01*
X53531428Y-144860345D02*
X53602857Y-144822250D01*
X53602857Y-144822250D02*
X53638571Y-144784154D01*
X53638571Y-144784154D02*
X53674285Y-144707964D01*
X53674285Y-144707964D02*
X53674285Y-144479392D01*
X53674285Y-144479392D02*
X53638571Y-144403202D01*
X53638571Y-144403202D02*
X53602857Y-144365107D01*
X53602857Y-144365107D02*
X53531428Y-144327011D01*
X53531428Y-144327011D02*
X53388571Y-144327011D01*
X53388571Y-144327011D02*
X53317143Y-144365107D01*
X65000000Y-139582615D02*
X64500000Y-139582615D01*
X64500000Y-139582615D02*
X64821428Y-140382615D01*
X64607143Y-142158525D02*
X64750000Y-142158525D01*
X64750000Y-142158525D02*
X64821428Y-142196620D01*
X64821428Y-142196620D02*
X64857143Y-142234715D01*
X64857143Y-142234715D02*
X64928571Y-142349001D01*
X64928571Y-142349001D02*
X64964285Y-142501382D01*
X64964285Y-142501382D02*
X64964285Y-142806144D01*
X64964285Y-142806144D02*
X64928571Y-142882334D01*
X64928571Y-142882334D02*
X64892857Y-142920430D01*
X64892857Y-142920430D02*
X64821428Y-142958525D01*
X64821428Y-142958525D02*
X64678571Y-142958525D01*
X64678571Y-142958525D02*
X64607143Y-142920430D01*
X64607143Y-142920430D02*
X64571428Y-142882334D01*
X64571428Y-142882334D02*
X64535714Y-142806144D01*
X64535714Y-142806144D02*
X64535714Y-142615668D01*
X64535714Y-142615668D02*
X64571428Y-142539477D01*
X64571428Y-142539477D02*
X64607143Y-142501382D01*
X64607143Y-142501382D02*
X64678571Y-142463287D01*
X64678571Y-142463287D02*
X64821428Y-142463287D01*
X64821428Y-142463287D02*
X64892857Y-142501382D01*
X64892857Y-142501382D02*
X64928571Y-142539477D01*
X64928571Y-142539477D02*
X64964285Y-142615668D01*
X64571428Y-144734435D02*
X64928571Y-144734435D01*
X64928571Y-144734435D02*
X64964285Y-145115387D01*
X64964285Y-145115387D02*
X64928571Y-145077292D01*
X64928571Y-145077292D02*
X64857143Y-145039197D01*
X64857143Y-145039197D02*
X64678571Y-145039197D01*
X64678571Y-145039197D02*
X64607143Y-145077292D01*
X64607143Y-145077292D02*
X64571428Y-145115387D01*
X64571428Y-145115387D02*
X64535714Y-145191578D01*
X64535714Y-145191578D02*
X64535714Y-145382054D01*
X64535714Y-145382054D02*
X64571428Y-145458244D01*
X64571428Y-145458244D02*
X64607143Y-145496340D01*
X64607143Y-145496340D02*
X64678571Y-145534435D01*
X64678571Y-145534435D02*
X64857143Y-145534435D01*
X64857143Y-145534435D02*
X64928571Y-145496340D01*
X64928571Y-145496340D02*
X64964285Y-145458244D01*
X64607143Y-147577011D02*
X64607143Y-148110345D01*
X64785714Y-147272250D02*
X64964285Y-147843678D01*
X64964285Y-147843678D02*
X64500000Y-147843678D01*
X65000000Y-149886255D02*
X64535714Y-149886255D01*
X64535714Y-149886255D02*
X64785714Y-150191017D01*
X64785714Y-150191017D02*
X64678571Y-150191017D01*
X64678571Y-150191017D02*
X64607143Y-150229112D01*
X64607143Y-150229112D02*
X64571428Y-150267207D01*
X64571428Y-150267207D02*
X64535714Y-150343398D01*
X64535714Y-150343398D02*
X64535714Y-150533874D01*
X64535714Y-150533874D02*
X64571428Y-150610064D01*
X64571428Y-150610064D02*
X64607143Y-150648160D01*
X64607143Y-150648160D02*
X64678571Y-150686255D01*
X64678571Y-150686255D02*
X64892857Y-150686255D01*
X64892857Y-150686255D02*
X64964285Y-150648160D01*
X64964285Y-150648160D02*
X65000000Y-150610064D01*
X64964285Y-152538355D02*
X64928571Y-152500260D01*
X64928571Y-152500260D02*
X64857143Y-152462165D01*
X64857143Y-152462165D02*
X64678571Y-152462165D01*
X64678571Y-152462165D02*
X64607143Y-152500260D01*
X64607143Y-152500260D02*
X64571428Y-152538355D01*
X64571428Y-152538355D02*
X64535714Y-152614546D01*
X64535714Y-152614546D02*
X64535714Y-152690736D01*
X64535714Y-152690736D02*
X64571428Y-152805022D01*
X64571428Y-152805022D02*
X65000000Y-153262165D01*
X65000000Y-153262165D02*
X64535714Y-153262165D01*
X64535714Y-155838075D02*
X64964285Y-155838075D01*
X64750000Y-155838075D02*
X64750000Y-155038075D01*
X64750000Y-155038075D02*
X64821428Y-155152360D01*
X64821428Y-155152360D02*
X64892857Y-155228551D01*
X64892857Y-155228551D02*
X64964285Y-155266646D01*
D11*
X40583333Y-146054819D02*
X40583333Y-146769104D01*
X40583333Y-146769104D02*
X40630952Y-146911961D01*
X40630952Y-146911961D02*
X40726190Y-147007200D01*
X40726190Y-147007200D02*
X40869047Y-147054819D01*
X40869047Y-147054819D02*
X40964285Y-147054819D01*
X39583333Y-147054819D02*
X40154761Y-147054819D01*
X39869047Y-147054819D02*
X39869047Y-146054819D01*
X39869047Y-146054819D02*
X39964285Y-146197676D01*
X39964285Y-146197676D02*
X40059523Y-146292914D01*
X40059523Y-146292914D02*
X40154761Y-146340533D01*
X60954819Y-142833333D02*
X60478628Y-142500000D01*
X60954819Y-142261905D02*
X59954819Y-142261905D01*
X59954819Y-142261905D02*
X59954819Y-142642857D01*
X59954819Y-142642857D02*
X60002438Y-142738095D01*
X60002438Y-142738095D02*
X60050057Y-142785714D01*
X60050057Y-142785714D02*
X60145295Y-142833333D01*
X60145295Y-142833333D02*
X60288152Y-142833333D01*
X60288152Y-142833333D02*
X60383390Y-142785714D01*
X60383390Y-142785714D02*
X60431009Y-142738095D01*
X60431009Y-142738095D02*
X60478628Y-142642857D01*
X60478628Y-142642857D02*
X60478628Y-142261905D01*
X59954819Y-143166667D02*
X59954819Y-143833333D01*
X59954819Y-143833333D02*
X60954819Y-143404762D01*
X58341666Y-35142819D02*
X58674999Y-34666628D01*
X58913094Y-35142819D02*
X58913094Y-34142819D01*
X58913094Y-34142819D02*
X58532142Y-34142819D01*
X58532142Y-34142819D02*
X58436904Y-34190438D01*
X58436904Y-34190438D02*
X58389285Y-34238057D01*
X58389285Y-34238057D02*
X58341666Y-34333295D01*
X58341666Y-34333295D02*
X58341666Y-34476152D01*
X58341666Y-34476152D02*
X58389285Y-34571390D01*
X58389285Y-34571390D02*
X58436904Y-34619009D01*
X58436904Y-34619009D02*
X58532142Y-34666628D01*
X58532142Y-34666628D02*
X58913094Y-34666628D01*
X58008332Y-34142819D02*
X57389285Y-34142819D01*
X57389285Y-34142819D02*
X57722618Y-34523771D01*
X57722618Y-34523771D02*
X57579761Y-34523771D01*
X57579761Y-34523771D02*
X57484523Y-34571390D01*
X57484523Y-34571390D02*
X57436904Y-34619009D01*
X57436904Y-34619009D02*
X57389285Y-34714247D01*
X57389285Y-34714247D02*
X57389285Y-34952342D01*
X57389285Y-34952342D02*
X57436904Y-35047580D01*
X57436904Y-35047580D02*
X57484523Y-35095200D01*
X57484523Y-35095200D02*
X57579761Y-35142819D01*
X57579761Y-35142819D02*
X57865475Y-35142819D01*
X57865475Y-35142819D02*
X57960713Y-35095200D01*
X57960713Y-35095200D02*
X58008332Y-35047580D01*
X54659523Y-32734819D02*
X54659523Y-31734819D01*
X54659523Y-31734819D02*
X54326190Y-32449104D01*
X54326190Y-32449104D02*
X53992857Y-31734819D01*
X53992857Y-31734819D02*
X53992857Y-32734819D01*
X53516666Y-32734819D02*
X53516666Y-31734819D01*
X52945238Y-32734819D02*
X53373809Y-32163390D01*
X52945238Y-31734819D02*
X53516666Y-32306247D01*
X51992857Y-32734819D02*
X52564285Y-32734819D01*
X52278571Y-32734819D02*
X52278571Y-31734819D01*
X52278571Y-31734819D02*
X52373809Y-31877676D01*
X52373809Y-31877676D02*
X52469047Y-31972914D01*
X52469047Y-31972914D02*
X52564285Y-32020533D01*
X49416666Y-32024819D02*
X49749999Y-31548628D01*
X49988094Y-32024819D02*
X49988094Y-31024819D01*
X49988094Y-31024819D02*
X49607142Y-31024819D01*
X49607142Y-31024819D02*
X49511904Y-31072438D01*
X49511904Y-31072438D02*
X49464285Y-31120057D01*
X49464285Y-31120057D02*
X49416666Y-31215295D01*
X49416666Y-31215295D02*
X49416666Y-31358152D01*
X49416666Y-31358152D02*
X49464285Y-31453390D01*
X49464285Y-31453390D02*
X49511904Y-31501009D01*
X49511904Y-31501009D02*
X49607142Y-31548628D01*
X49607142Y-31548628D02*
X49988094Y-31548628D01*
X48559523Y-31024819D02*
X48749999Y-31024819D01*
X48749999Y-31024819D02*
X48845237Y-31072438D01*
X48845237Y-31072438D02*
X48892856Y-31120057D01*
X48892856Y-31120057D02*
X48988094Y-31262914D01*
X48988094Y-31262914D02*
X49035713Y-31453390D01*
X49035713Y-31453390D02*
X49035713Y-31834342D01*
X49035713Y-31834342D02*
X48988094Y-31929580D01*
X48988094Y-31929580D02*
X48940475Y-31977200D01*
X48940475Y-31977200D02*
X48845237Y-32024819D01*
X48845237Y-32024819D02*
X48654761Y-32024819D01*
X48654761Y-32024819D02*
X48559523Y-31977200D01*
X48559523Y-31977200D02*
X48511904Y-31929580D01*
X48511904Y-31929580D02*
X48464285Y-31834342D01*
X48464285Y-31834342D02*
X48464285Y-31596247D01*
X48464285Y-31596247D02*
X48511904Y-31501009D01*
X48511904Y-31501009D02*
X48559523Y-31453390D01*
X48559523Y-31453390D02*
X48654761Y-31405771D01*
X48654761Y-31405771D02*
X48845237Y-31405771D01*
X48845237Y-31405771D02*
X48940475Y-31453390D01*
X48940475Y-31453390D02*
X48988094Y-31501009D01*
X48988094Y-31501009D02*
X49035713Y-31596247D01*
X44261904Y-34724819D02*
X44261904Y-35534342D01*
X44261904Y-35534342D02*
X44214285Y-35629580D01*
X44214285Y-35629580D02*
X44166666Y-35677200D01*
X44166666Y-35677200D02*
X44071428Y-35724819D01*
X44071428Y-35724819D02*
X43880952Y-35724819D01*
X43880952Y-35724819D02*
X43785714Y-35677200D01*
X43785714Y-35677200D02*
X43738095Y-35629580D01*
X43738095Y-35629580D02*
X43690476Y-35534342D01*
X43690476Y-35534342D02*
X43690476Y-34724819D01*
X43261904Y-34820057D02*
X43214285Y-34772438D01*
X43214285Y-34772438D02*
X43119047Y-34724819D01*
X43119047Y-34724819D02*
X42880952Y-34724819D01*
X42880952Y-34724819D02*
X42785714Y-34772438D01*
X42785714Y-34772438D02*
X42738095Y-34820057D01*
X42738095Y-34820057D02*
X42690476Y-34915295D01*
X42690476Y-34915295D02*
X42690476Y-35010533D01*
X42690476Y-35010533D02*
X42738095Y-35153390D01*
X42738095Y-35153390D02*
X43309523Y-35724819D01*
X43309523Y-35724819D02*
X42690476Y-35724819D01*
X50416666Y-154704819D02*
X50749999Y-154228628D01*
X50988094Y-154704819D02*
X50988094Y-153704819D01*
X50988094Y-153704819D02*
X50607142Y-153704819D01*
X50607142Y-153704819D02*
X50511904Y-153752438D01*
X50511904Y-153752438D02*
X50464285Y-153800057D01*
X50464285Y-153800057D02*
X50416666Y-153895295D01*
X50416666Y-153895295D02*
X50416666Y-154038152D01*
X50416666Y-154038152D02*
X50464285Y-154133390D01*
X50464285Y-154133390D02*
X50511904Y-154181009D01*
X50511904Y-154181009D02*
X50607142Y-154228628D01*
X50607142Y-154228628D02*
X50988094Y-154228628D01*
X49845237Y-154133390D02*
X49940475Y-154085771D01*
X49940475Y-154085771D02*
X49988094Y-154038152D01*
X49988094Y-154038152D02*
X50035713Y-153942914D01*
X50035713Y-153942914D02*
X50035713Y-153895295D01*
X50035713Y-153895295D02*
X49988094Y-153800057D01*
X49988094Y-153800057D02*
X49940475Y-153752438D01*
X49940475Y-153752438D02*
X49845237Y-153704819D01*
X49845237Y-153704819D02*
X49654761Y-153704819D01*
X49654761Y-153704819D02*
X49559523Y-153752438D01*
X49559523Y-153752438D02*
X49511904Y-153800057D01*
X49511904Y-153800057D02*
X49464285Y-153895295D01*
X49464285Y-153895295D02*
X49464285Y-153942914D01*
X49464285Y-153942914D02*
X49511904Y-154038152D01*
X49511904Y-154038152D02*
X49559523Y-154085771D01*
X49559523Y-154085771D02*
X49654761Y-154133390D01*
X49654761Y-154133390D02*
X49845237Y-154133390D01*
X49845237Y-154133390D02*
X49940475Y-154181009D01*
X49940475Y-154181009D02*
X49988094Y-154228628D01*
X49988094Y-154228628D02*
X50035713Y-154323866D01*
X50035713Y-154323866D02*
X50035713Y-154514342D01*
X50035713Y-154514342D02*
X49988094Y-154609580D01*
X49988094Y-154609580D02*
X49940475Y-154657200D01*
X49940475Y-154657200D02*
X49845237Y-154704819D01*
X49845237Y-154704819D02*
X49654761Y-154704819D01*
X49654761Y-154704819D02*
X49559523Y-154657200D01*
X49559523Y-154657200D02*
X49511904Y-154609580D01*
X49511904Y-154609580D02*
X49464285Y-154514342D01*
X49464285Y-154514342D02*
X49464285Y-154323866D01*
X49464285Y-154323866D02*
X49511904Y-154228628D01*
X49511904Y-154228628D02*
X49559523Y-154181009D01*
X49559523Y-154181009D02*
X49654761Y-154133390D01*
%TO.C,J1*%
D12*
X36190000Y-151460000D02*
X36190000Y-155710000D01*
X36190000Y-155710000D02*
X37210000Y-155710000D01*
X37210000Y-154110000D02*
X38490000Y-154110000D01*
X37210000Y-155710000D02*
X37210000Y-154110000D01*
X37910000Y-147890000D02*
X42590000Y-147890000D01*
X38490000Y-154110000D02*
X38490000Y-157000000D01*
X43290000Y-154110000D02*
X42010000Y-154110000D01*
X43290000Y-155710000D02*
X43290000Y-154110000D01*
X44310000Y-151460000D02*
X44310000Y-155710000D01*
X44310000Y-155710000D02*
X43290000Y-155710000D01*
%TO.C,R7*%
X58312500Y-142762742D02*
X58312500Y-143237258D01*
X59357500Y-142762742D02*
X59357500Y-143237258D01*
%TO.C,TP_SD*%
X62385000Y-154550000D02*
X63785000Y-154550000D01*
X62385000Y-155950000D02*
X62385000Y-154550000D01*
X63785000Y-154550000D02*
X63785000Y-155950000D01*
X63785000Y-155950000D02*
X62385000Y-155950000D01*
%TO.C,TP_ANO_ENC2*%
X46135000Y-141800000D02*
X47535000Y-141800000D01*
X46135000Y-143200000D02*
X46135000Y-141800000D01*
X47535000Y-141800000D02*
X47535000Y-143200000D01*
X47535000Y-143200000D02*
X46135000Y-143200000D01*
%TO.C,R3*%
X57937742Y-32735500D02*
X58412258Y-32735500D01*
X57937742Y-33780500D02*
X58412258Y-33780500D01*
%TO.C,TP_GPIO18_D10_MOSI*%
X46135000Y-147050000D02*
X47535000Y-147050000D01*
X46135000Y-148450000D02*
X46135000Y-147050000D01*
X47535000Y-147050000D02*
X47535000Y-148450000D01*
X47535000Y-148450000D02*
X46135000Y-148450000D01*
%TO.C,MK1*%
X51925000Y-34140000D02*
X51925000Y-37840000D01*
X51925000Y-37840000D02*
X54775000Y-37840000D01*
X54475000Y-34140000D02*
X51925000Y-34140000D01*
X54775000Y-37840000D02*
X54775000Y-34440000D01*
X54775000Y-34140000D02*
X55055000Y-34140000D01*
X54775000Y-33860000D01*
X54775000Y-34140000D01*
G36*
X55055000Y-34140000D02*
G01*
X54775000Y-34140000D01*
X54775000Y-33860000D01*
X55055000Y-34140000D01*
G37*
%TO.C,TP_SCK*%
X62385000Y-149550000D02*
X63785000Y-149550000D01*
X62385000Y-150950000D02*
X62385000Y-149550000D01*
X63785000Y-149550000D02*
X63785000Y-150950000D01*
X63785000Y-150950000D02*
X62385000Y-150950000D01*
%TO.C,R6*%
X49487258Y-32477500D02*
X49012742Y-32477500D01*
X49487258Y-33522500D02*
X49012742Y-33522500D01*
%TO.C,U2*%
X41040000Y-30720000D02*
X40820000Y-30720000D01*
X46620000Y-34380000D02*
X43540000Y-34380000D01*
X46700000Y-30720000D02*
X46240000Y-30720000D01*
X46700000Y-30720000D02*
X46700000Y-31920000D01*
X41040000Y-30720000D02*
G75*
G02*
X46240000Y-30720000I2600000J-1100000D01*
G01*
%TO.C,TP_GND*%
X46085000Y-152100000D02*
X47485000Y-152100000D01*
X46085000Y-153500000D02*
X46085000Y-152100000D01*
X47485000Y-152100000D02*
X47485000Y-153500000D01*
X47485000Y-153500000D02*
X46085000Y-153500000D01*
%TO.C,TP_IR_REC*%
X62385000Y-139300000D02*
X63785000Y-139300000D01*
X62385000Y-140700000D02*
X62385000Y-139300000D01*
X63785000Y-139300000D02*
X63785000Y-140700000D01*
X63785000Y-140700000D02*
X62385000Y-140700000D01*
%TO.C,TP_SDA*%
X62385000Y-144300000D02*
X63785000Y-144300000D01*
X62385000Y-145700000D02*
X62385000Y-144300000D01*
X63785000Y-144300000D02*
X63785000Y-145700000D01*
X63785000Y-145700000D02*
X62385000Y-145700000D01*
%TO.C,TP_SCL*%
X62385000Y-141800000D02*
X63785000Y-141800000D01*
X62385000Y-143200000D02*
X62385000Y-141800000D01*
X63785000Y-141800000D02*
X63785000Y-143200000D01*
X63785000Y-143200000D02*
X62385000Y-143200000D01*
%TO.C,TP_3V3*%
X46085000Y-149500000D02*
X47485000Y-149500000D01*
X46085000Y-150900000D02*
X46085000Y-149500000D01*
X47485000Y-149500000D02*
X47485000Y-150900000D01*
X47485000Y-150900000D02*
X46085000Y-150900000D01*
%TO.C,R8*%
X50487258Y-152227500D02*
X50012742Y-152227500D01*
X50487258Y-153272500D02*
X50012742Y-153272500D01*
%TO.C,TP_WS*%
X62385000Y-146800000D02*
X63785000Y-146800000D01*
X62385000Y-148200000D02*
X62385000Y-146800000D01*
X63785000Y-146800000D02*
X63785000Y-148200000D01*
X63785000Y-148200000D02*
X62385000Y-148200000D01*
%TO.C,TP_ANO_ENC1*%
X46135000Y-144300000D02*
X47535000Y-144300000D01*
X46135000Y-145700000D02*
X46135000Y-144300000D01*
X47535000Y-144300000D02*
X47535000Y-145700000D01*
X47535000Y-145700000D02*
X46135000Y-145700000D01*
%TO.C,TP_LED1*%
X46135000Y-139300000D02*
X47535000Y-139300000D01*
X46135000Y-140700000D02*
X46135000Y-139300000D01*
X47535000Y-139300000D02*
X47535000Y-140700000D01*
X47535000Y-140700000D02*
X46135000Y-140700000D01*
%TO.C,TP_IR_EMIT*%
X62385000Y-152050000D02*
X63785000Y-152050000D01*
X62385000Y-153450000D02*
X62385000Y-152050000D01*
X63785000Y-152050000D02*
X63785000Y-153450000D01*
X63785000Y-153450000D02*
X62385000Y-153450000D01*
%TD*%
M02*
