%TF.GenerationSoftware,KiCad,Pcbnew,10.0.3*%
%TF.CreationDate,2026-07-22T10:39:54-07:00*%
%TF.ProjectId,c6remote,63367265-6d6f-4746-952e-6b696361645f,rev?*%
%TF.SameCoordinates,Original*%
%TF.FileFunction,Copper,L1,Top*%
%TF.FilePolarity,Positive*%
%FSLAX46Y46*%
G04 Gerber Fmt 4.6, Leading zero omitted, Abs format (unit mm)*
G04 Created by KiCad (PCBNEW 10.0.3) date 2026-07-22 10:39:54*
%MOMM*%
%LPD*%
G01*
G04 APERTURE LIST*
G04 Aperture macros list*
%AMRoundRect*
0 Rectangle with rounded corners*
0 $1 Rounding radius*
0 $2 $3 $4 $5 $6 $7 $8 $9 X,Y pos of 4 corners*
0 Add a 4 corners polygon primitive as box body*
4,1,4,$2,$3,$4,$5,$6,$7,$8,$9,$2,$3,0*
0 Add four circle primitives for the rounded corners*
1,1,$1+$1,$2,$3*
1,1,$1+$1,$4,$5*
1,1,$1+$1,$6,$7*
1,1,$1+$1,$8,$9*
0 Add four rect primitives between the rounded corners*
20,1,$1+$1,$2,$3,$4,$5,0*
20,1,$1+$1,$4,$5,$6,$7,0*
20,1,$1+$1,$6,$7,$8,$9,0*
20,1,$1+$1,$8,$9,$2,$3,0*%
%AMFreePoly0*
4,1,21,-0.141464,0.553536,-0.140000,0.550000,-0.140000,0.355000,0.355000,0.355000,0.358536,0.353536,0.360000,0.350000,0.360000,-0.350000,0.358536,-0.353536,0.355000,-0.355000,-0.140000,-0.355000,-0.140000,-0.550000,-0.141464,-0.553536,-0.145000,-0.555000,-0.345000,-0.555000,-0.348536,-0.553536,-0.350000,-0.550000,-0.350000,0.550000,-0.348536,0.553536,-0.345000,0.555000,-0.145000,0.555000,
-0.141464,0.553536,-0.141464,0.553536,$1*%
%AMFreePoly1*
4,1,21,0.348536,0.553536,0.350000,0.550000,0.350000,-0.550000,0.348536,-0.553536,0.345000,-0.555000,0.145000,-0.555000,0.141464,-0.553536,0.140000,-0.550000,0.140000,-0.355000,-0.355000,-0.355000,-0.358536,-0.353536,-0.360000,-0.350000,-0.360000,0.350000,-0.358536,0.353536,-0.355000,0.355000,0.140000,0.355000,0.140000,0.550000,0.141464,0.553536,0.145000,0.555000,0.345000,0.555000,
0.348536,0.553536,0.348536,0.553536,$1*%
G04 Aperture macros list end*
%TA.AperFunction,SMDPad,CuDef*%
%ADD10RoundRect,0.200000X-0.275000X0.200000X-0.275000X-0.200000X0.275000X-0.200000X0.275000X0.200000X0*%
%TD*%
%TA.AperFunction,SMDPad,CuDef*%
%ADD11RoundRect,0.250000X0.250000X0.475000X-0.250000X0.475000X-0.250000X-0.475000X0.250000X-0.475000X0*%
%TD*%
%TA.AperFunction,SMDPad,CuDef*%
%ADD12RoundRect,0.500000X0.875000X0.500000X-0.875000X0.500000X-0.875000X-0.500000X0.875000X-0.500000X0*%
%TD*%
%TA.AperFunction,ComponentPad*%
%ADD13C,1.700000*%
%TD*%
%TA.AperFunction,ComponentPad*%
%ADD14RoundRect,0.275000X0.275000X-0.975000X0.275000X0.975000X-0.275000X0.975000X-0.275000X-0.975000X0*%
%TD*%
%TA.AperFunction,SMDPad,CuDef*%
%ADD15RoundRect,0.150000X0.587500X0.150000X-0.587500X0.150000X-0.587500X-0.150000X0.587500X-0.150000X0*%
%TD*%
%TA.AperFunction,SMDPad,CuDef*%
%ADD16FreePoly0,90.000000*%
%TD*%
%TA.AperFunction,SMDPad,CuDef*%
%ADD17FreePoly1,90.000000*%
%TD*%
%TA.AperFunction,SMDPad,CuDef*%
%ADD18RoundRect,0.250000X-0.250000X-0.475000X0.250000X-0.475000X0.250000X0.475000X-0.250000X0.475000X0*%
%TD*%
%TA.AperFunction,ComponentPad*%
%ADD19C,1.000000*%
%TD*%
%TA.AperFunction,SMDPad,CuDef*%
%ADD20RoundRect,0.225000X-0.250000X0.225000X-0.250000X-0.225000X0.250000X-0.225000X0.250000X0.225000X0*%
%TD*%
%TA.AperFunction,SMDPad,CuDef*%
%ADD21FreePoly0,0.000000*%
%TD*%
%TA.AperFunction,SMDPad,CuDef*%
%ADD22FreePoly1,0.000000*%
%TD*%
%TA.AperFunction,ComponentPad*%
%ADD23R,1.800000X1.800000*%
%TD*%
%TA.AperFunction,ComponentPad*%
%ADD24C,1.800000*%
%TD*%
%TA.AperFunction,SMDPad,CuDef*%
%ADD25RoundRect,0.200000X0.275000X-0.200000X0.275000X0.200000X-0.275000X0.200000X-0.275000X-0.200000X0*%
%TD*%
%TA.AperFunction,SMDPad,CuDef*%
%ADD26RoundRect,0.100000X-0.850000X-0.100000X0.850000X-0.100000X0.850000X0.100000X-0.850000X0.100000X0*%
%TD*%
%TA.AperFunction,SMDPad,CuDef*%
%ADD27R,1.600000X0.850000*%
%TD*%
%TA.AperFunction,ComponentPad*%
%ADD28RoundRect,0.250000X1.000000X-1.000000X1.000000X1.000000X-1.000000X1.000000X-1.000000X-1.000000X0*%
%TD*%
%TA.AperFunction,ComponentPad*%
%ADD29C,2.500000*%
%TD*%
%TA.AperFunction,ComponentPad*%
%ADD30C,2.750000*%
%TD*%
%TA.AperFunction,ComponentPad*%
%ADD31RoundRect,0.248400X-0.651600X-0.651600X0.651600X-0.651600X0.651600X0.651600X-0.651600X0.651600X0*%
%TD*%
%TA.AperFunction,ViaPad*%
%ADD32C,0.600000*%
%TD*%
%TA.AperFunction,Conductor*%
%ADD33C,0.200000*%
%TD*%
G04 APERTURE END LIST*
D10*
%TO.P,R4,1*%
%TO.N,+3.3V*%
X59000000Y-118925000D03*
%TO.P,R4,2*%
%TO.N,sda*%
X59000000Y-120575000D03*
%TD*%
D11*
%TO.P,C1,1*%
%TO.N,+3.3V*%
X56950000Y-125000000D03*
%TO.P,C1,2*%
%TO.N,GND*%
X55050000Y-125000000D03*
%TD*%
D12*
%TO.P,U1,1,GPIO0_A0_D0_1*%
%TO.N,sd*%
X63000000Y-155240000D03*
%TO.P,U1,2,GPIO1_A1_D1_2*%
%TO.N,IR EMIT*%
X63000000Y-152700000D03*
%TO.P,U1,3,GPIO2_A2_D2_3*%
%TO.N,sck*%
X63000000Y-150160000D03*
%TO.P,U1,4,GPIO21_D3_4*%
%TO.N,ws*%
X63000000Y-147620000D03*
%TO.P,U1,5,GPIO22_D4_SDA_5*%
%TO.N,sda*%
X63000000Y-145080000D03*
%TO.P,U1,6,GPIO23_D5_SCL_6*%
%TO.N,scl*%
X63000000Y-142540000D03*
%TO.P,U1,7,GPIO16_D6_TX_7*%
%TO.N,IR REC*%
X63000000Y-140000000D03*
%TO.P,U1,8,GPIO17_D7_RX_8*%
%TO.N,led_1*%
X46835000Y-140000000D03*
%TO.P,U1,9,GPIO19_D8_SCK_9*%
%TO.N,ano_enc2*%
X46835000Y-142540000D03*
%TO.P,U1,10,GPIO20_D9_MISO_10*%
%TO.N,ano_enc1*%
X46835000Y-145080000D03*
%TO.P,U1,11,GPIO18_D10_MOSI_11*%
%TO.N,unconnected-(U1-GPIO18_D10_MOSI-Pad11)*%
X46835000Y-147620000D03*
%TO.P,U1,12,3V3_12*%
%TO.N,+3.3V*%
X46835000Y-150160000D03*
%TO.P,U1,13,GND_13*%
%TO.N,GND*%
X46835000Y-152700000D03*
%TO.P,U1,14,VBUS_14*%
%TO.N,VCC*%
X46835000Y-155240000D03*
D13*
%TO.P,U1,24,GPIO5_MTDI_24*%
%TO.N,exp_int*%
X56218400Y-156261500D03*
%TO.P,U1,25,GPIO7_MTDO_25*%
%TO.N,unconnected-(U1-GPIO7_MTDO-Pad25)*%
X53678400Y-156261500D03*
%TO.P,U1,26,CHIP_EN_26*%
%TO.N,unconnected-(U1-CHIP_EN-Pad26)*%
X56218400Y-153721500D03*
%TO.P,U1,27,GND_27*%
%TO.N,GND*%
X53678400Y-153721500D03*
%TO.P,U1,28,GPIO4_MTMS_28*%
%TO.N,bat_sense*%
X56218400Y-151181500D03*
%TO.P,U1,29,GPIO6_MTCK_29*%
%TO.N,unconnected-(U1-GPIO6_MTCK-Pad29)*%
X53678400Y-151181500D03*
%TO.P,U1,30,GPIO9_BOOT_30*%
%TO.N,unconnected-(U1-GPIO9_BOOT-Pad30)*%
X56218400Y-148641500D03*
%TO.P,U1,31,3V3_31*%
%TO.N,+3.3V*%
X53771000Y-148698300D03*
D14*
%TO.P,U1,32,BAT_32*%
%TO.N,BAT*%
X56726400Y-142088300D03*
%TO.P,U1,33,GND_33*%
%TO.N,GND*%
X54186400Y-142088300D03*
%TD*%
D15*
%TO.P,Q1,1,B_1*%
%TO.N,Net-(Q1-B)*%
X69263500Y-32954000D03*
%TO.P,Q1,2,E_2*%
%TO.N,GND*%
X69263500Y-31054000D03*
%TO.P,Q1,3,C_3*%
%TO.N,Net-(D1-K)*%
X67388500Y-32004000D03*
%TD*%
D16*
%TO.P,SW10,1,1_1*%
%TO.N,GND*%
X64036000Y-109418000D03*
D17*
%TO.P,SW10,2,2_2*%
X64036000Y-104958000D03*
D16*
%TO.P,SW10,3,3_3*%
%TO.N,sw10*%
X67536000Y-109418000D03*
D17*
%TO.P,SW10,4,4_4*%
X67536000Y-104958000D03*
%TD*%
D16*
%TO.P,SW9,1,1_1*%
%TO.N,GND*%
X64036000Y-121864000D03*
D17*
%TO.P,SW9,2,2_2*%
X64036000Y-117404000D03*
D16*
%TO.P,SW9,3,3_3*%
%TO.N,sw9*%
X67536000Y-121864000D03*
D17*
%TO.P,SW9,4,4_4*%
X67536000Y-117404000D03*
%TD*%
D18*
%TO.P,C2,1*%
%TO.N,+3.3V*%
X43800000Y-133750000D03*
%TO.P,C2,2*%
%TO.N,GND*%
X45700000Y-133750000D03*
%TD*%
D19*
%TO.P,TP_VCC1,1,1_1*%
%TO.N,VCC*%
X46785000Y-155250000D03*
%TD*%
D20*
%TO.P,C3,1*%
%TO.N,Net-(U2-Vs)*%
X46250000Y-35475000D03*
%TO.P,C3,2*%
%TO.N,GND*%
X46250000Y-37025000D03*
%TD*%
D16*
%TO.P,SW5,1,1_1*%
%TO.N,GND*%
X39144000Y-121864000D03*
D17*
%TO.P,SW5,2,2_2*%
X39144000Y-117404000D03*
D16*
%TO.P,SW5,3,3_3*%
%TO.N,sw5*%
X42644000Y-121864000D03*
D17*
%TO.P,SW5,4,4_4*%
X42644000Y-117404000D03*
%TD*%
D21*
%TO.P,SW2,1,1_1*%
%TO.N,GND*%
X38664000Y-39906000D03*
D22*
%TO.P,SW2,2,2_2*%
X43124000Y-39906000D03*
D21*
%TO.P,SW2,3,3_3*%
%TO.N,sw2*%
X38664000Y-43406000D03*
D22*
%TO.P,SW2,4,4_4*%
X43124000Y-43406000D03*
%TD*%
D16*
%TO.P,SW7,1,1_1*%
%TO.N,GND*%
X51590000Y-109418000D03*
D17*
%TO.P,SW7,2,2_2*%
X51590000Y-104958000D03*
D16*
%TO.P,SW7,3,3_3*%
%TO.N,sw7*%
X55090000Y-109418000D03*
D17*
%TO.P,SW7,4,4_4*%
X55090000Y-104958000D03*
%TD*%
D10*
%TO.P,R9,1*%
%TO.N,+3.3V*%
X67750000Y-154175000D03*
%TO.P,R9,2*%
%TO.N,exp_int*%
X67750000Y-155825000D03*
%TD*%
D23*
%TO.P,D1,1,K_1*%
%TO.N,Net-(D1-K)*%
X64037455Y-33258000D03*
D24*
%TO.P,D1,2,A_2*%
%TO.N,Net-(D1-A)*%
X61497455Y-33258000D03*
%TD*%
D16*
%TO.P,SW4,1,1_1*%
%TO.N,GND*%
X39086910Y-109444000D03*
D17*
%TO.P,SW4,2,2_2*%
X39086910Y-104984000D03*
D16*
%TO.P,SW4,3,3_3*%
%TO.N,sw4*%
X42586910Y-109444000D03*
D17*
%TO.P,SW4,4,4_4*%
X42586910Y-104984000D03*
%TD*%
D25*
%TO.P,R2,1*%
%TO.N,led_1*%
X41250000Y-140575000D03*
%TO.P,R2,2*%
%TO.N,Net-(D2-DIN)*%
X41250000Y-138925000D03*
%TD*%
D21*
%TO.P,SW1,1,1_1*%
%TO.N,GND*%
X63556000Y-39906000D03*
D22*
%TO.P,SW1,2,2_2*%
X68016000Y-39906000D03*
D21*
%TO.P,SW1,3,3_3*%
%TO.N,sw1*%
X63556000Y-43406000D03*
D22*
%TO.P,SW1,4,4_4*%
X68016000Y-43406000D03*
%TD*%
D16*
%TO.P,SW11,1,1_1*%
%TO.N,GND*%
X64036000Y-96972000D03*
D17*
%TO.P,SW11,2,2_2*%
X64036000Y-92512000D03*
D16*
%TO.P,SW11,3,3_3*%
%TO.N,sw11*%
X67536000Y-96972000D03*
D17*
%TO.P,SW11,4,4_4*%
X67536000Y-92512000D03*
%TD*%
D26*
%TO.P,U3,1,~{INT}_1*%
%TO.N,exp_int*%
X49784000Y-127089000D03*
%TO.P,U3,2,A1_2*%
%TO.N,GND*%
X49784000Y-127739000D03*
%TO.P,U3,3,A2_3*%
X49784000Y-128389000D03*
%TO.P,U3,4,P0_4*%
%TO.N,sw1*%
X49784000Y-129039000D03*
%TO.P,U3,5,P1_5*%
%TO.N,sw2*%
X49784000Y-129689000D03*
%TO.P,U3,6,P2_6*%
%TO.N,sw3*%
X49784000Y-130339000D03*
%TO.P,U3,7,P3_7*%
%TO.N,sw4*%
X49784000Y-130989000D03*
%TO.P,U3,8,P4_8*%
%TO.N,sw5*%
X49784000Y-131639000D03*
%TO.P,U3,9,P5_9*%
%TO.N,sw6*%
X49784000Y-132289000D03*
%TO.P,U3,10,P6_10*%
%TO.N,sw7*%
X49784000Y-132939000D03*
%TO.P,U3,11,P7_11*%
%TO.N,sw8*%
X49784000Y-133589000D03*
%TO.P,U3,12,GND_12*%
%TO.N,GND*%
X49784000Y-134239000D03*
%TO.P,U3,13,P10_13*%
%TO.N,sw10*%
X56784000Y-134239000D03*
%TO.P,U3,14,P11_14*%
%TO.N,sw9*%
X56784000Y-133589000D03*
%TO.P,U3,15,P12_15*%
%TO.N,sw11*%
X56784000Y-132939000D03*
%TO.P,U3,16,P13_16*%
%TO.N,ano_sw1*%
X56784000Y-132289000D03*
%TO.P,U3,17,P14_17*%
%TO.N,ano_sw2*%
X56784000Y-131639000D03*
%TO.P,U3,18,P15_18*%
%TO.N,ano_sw3*%
X56784000Y-130989000D03*
%TO.P,U3,19,P16_19*%
%TO.N,ano_sw4*%
X56784000Y-130339000D03*
%TO.P,U3,20,P17_20*%
%TO.N,ano_sw5*%
X56784000Y-129689000D03*
%TO.P,U3,21,A0_21*%
%TO.N,GND*%
X56784000Y-129039000D03*
%TO.P,U3,22,SCL_22*%
%TO.N,scl*%
X56784000Y-128389000D03*
%TO.P,U3,23,SDA_23*%
%TO.N,sda*%
X56784000Y-127739000D03*
%TO.P,U3,24,VCC_24*%
%TO.N,+3.3V*%
X56784000Y-127089000D03*
%TD*%
D25*
%TO.P,R1,1*%
%TO.N,IR EMIT*%
X69088000Y-37401000D03*
%TO.P,R1,2*%
%TO.N,Net-(Q1-B)*%
X69088000Y-35751000D03*
%TD*%
D16*
%TO.P,SW8,1,1_1*%
%TO.N,GND*%
X51590000Y-121864000D03*
D17*
%TO.P,SW8,2,2_2*%
X51590000Y-117404000D03*
D16*
%TO.P,SW8,3,3_3*%
%TO.N,sw8*%
X55090000Y-121864000D03*
D17*
%TO.P,SW8,4,4_4*%
X55090000Y-117404000D03*
%TD*%
D27*
%TO.P,D2,1,DOUT_1*%
%TO.N,unconnected-(D2-DOUT-Pad1)*%
X38250000Y-133750000D03*
%TO.P,D2,2,VSS_2*%
%TO.N,GND*%
X38250000Y-135500000D03*
%TO.P,D2,3,DIN_3*%
%TO.N,Net-(D2-DIN)*%
X41750000Y-135500000D03*
%TO.P,D2,4,VDD_4*%
%TO.N,+3.3V*%
X41750000Y-133750000D03*
%TD*%
D10*
%TO.P,R5,1*%
%TO.N,+3.3V*%
X60000000Y-122250000D03*
%TO.P,R5,2*%
%TO.N,scl*%
X60000000Y-123900000D03*
%TD*%
D28*
%TO.P,ENC1,1,COM_B_1*%
%TO.N,GND*%
X50084764Y-83793690D03*
D29*
%TO.P,ENC1,2,S2_DOWN_2*%
%TO.N,ano_sw4*%
X61087345Y-82817923D03*
D30*
%TO.P,ENC1,3,ENCA_3*%
%TO.N,ano_enc2*%
X59885264Y-74261954D03*
D29*
%TO.P,ENC1,4,S1_CENTER_4*%
%TO.N,ano_sw3*%
X52227297Y-68824158D03*
%TO.P,ENC1,5,S5_LEFT_5*%
%TO.N,ano_sw5*%
X37187136Y-71320254D03*
%TO.P,ENC1,6,COM_A_6*%
%TO.N,GND*%
X46789646Y-61166136D03*
D30*
%TO.P,ENC1,7,ENCB_7*%
%TO.N,ano_enc1*%
X59885264Y-61166020D03*
D28*
%TO.P,ENC1,8,S4_UP_8*%
%TO.N,ano_sw2*%
X45587565Y-52610131D03*
D29*
%TO.P,ENC1,9,S3_RIGHT_9*%
%TO.N,ano_sw1*%
X69487774Y-64107590D03*
%TD*%
D16*
%TO.P,SW6,1,1_1*%
%TO.N,GND*%
X51590000Y-96972000D03*
D17*
%TO.P,SW6,2,2_2*%
X51590000Y-92512000D03*
D16*
%TO.P,SW6,3,3_3*%
%TO.N,sw6*%
X55090000Y-96972000D03*
D17*
%TO.P,SW6,4,4_4*%
X55090000Y-92512000D03*
%TD*%
D16*
%TO.P,SW3,1,1_1*%
%TO.N,GND*%
X39144000Y-96972000D03*
D17*
%TO.P,SW3,2,2_2*%
X39144000Y-92512000D03*
D16*
%TO.P,SW3,3,3_3*%
%TO.N,sw3*%
X42644000Y-96972000D03*
D17*
%TO.P,SW3,4,4_4*%
X42644000Y-92512000D03*
%TD*%
D19*
%TO.P,TP_SD,1*%
%TO.N,sd*%
X63085000Y-155250000D03*
%TD*%
%TO.P,TP_ANO_ENC2,1*%
%TO.N,ano_enc2*%
X46835000Y-142500000D03*
%TD*%
%TO.P,TP_GPIO18_D10_MOSI,1*%
%TO.N,unconnected-(U1-GPIO18_D10_MOSI-Pad11)*%
X46835000Y-147750000D03*
%TD*%
%TO.P,TP_SCK,1*%
%TO.N,sck*%
X63085000Y-150250000D03*
%TD*%
D31*
%TO.P,U2,1,OUT_1*%
%TO.N,IR REC*%
X41000000Y-33020000D03*
D24*
%TO.P,U2,2,GND_2*%
%TO.N,GND*%
X43540000Y-33020000D03*
%TO.P,U2,3,Vs_3*%
%TO.N,Net-(U2-Vs)*%
X46080000Y-33020000D03*
%TD*%
D19*
%TO.P,TP_GND,1*%
%TO.N,GND*%
X46785000Y-152800000D03*
%TD*%
%TO.P,TP_IR_REC,1*%
%TO.N,IR REC*%
X63085000Y-140000000D03*
%TD*%
%TO.P,TP_SDA,1*%
%TO.N,sda*%
X63085000Y-145000000D03*
%TD*%
%TO.P,TP_SCL,1*%
%TO.N,scl*%
X63085000Y-142500000D03*
%TD*%
%TO.P,TP_3V3,1*%
%TO.N,+3.3V*%
X46785000Y-150200000D03*
%TD*%
%TO.P,TP_WS,1*%
%TO.N,ws*%
X63085000Y-147500000D03*
%TD*%
%TO.P,TP_ANO_ENC1,1*%
%TO.N,ano_enc1*%
X46835000Y-145000000D03*
%TD*%
%TO.P,TP_LED1,1*%
%TO.N,led_1*%
X46835000Y-140000000D03*
%TD*%
%TO.P,TP_IR_EMIT,1*%
%TO.N,IR EMIT*%
X63085000Y-152750000D03*
%TD*%
D32*
%TO.N,+3.3V*%
X43250000Y-132250000D03*
X57250000Y-123250000D03*
X67750000Y-154175000D03*
%TO.N,GND*%
X53350000Y-33350000D03*
X50750000Y-36750000D03*
%TO.N,sd*%
X66000000Y-138000000D03*
%TO.N,IR EMIT*%
X69500000Y-39000000D03*
%TO.N,exp_int*%
X48250000Y-126600000D03*
X67750000Y-155825000D03*
X58085000Y-154500000D03*
X48250000Y-136750000D03*
%TO.N,ano_sw5*%
X47879000Y-74676000D03*
%TD*%
%TO.N,+3.3V*%
D33*
X60000000Y-119425000D02*
X59500000Y-118925000D01*
X56950000Y-126923000D02*
X56784000Y-127089000D01*
X56950000Y-125000000D02*
X56950000Y-126923000D01*
X57250000Y-124800000D02*
X57050000Y-125000000D01*
X43250000Y-132250000D02*
X43800000Y-132800000D01*
X60000000Y-122250000D02*
X60000000Y-119425000D01*
X57050000Y-125000000D02*
X56950000Y-125000000D01*
X57250000Y-123250000D02*
X57250000Y-124800000D01*
X42000000Y-133500000D02*
X41750000Y-133750000D01*
X43800000Y-132800000D02*
X43800000Y-133750000D01*
X57250000Y-123250000D02*
X57250000Y-120675000D01*
X57250000Y-120675000D02*
X59000000Y-118925000D01*
X53771000Y-148698300D02*
X51136700Y-148698300D01*
X49675000Y-150160000D02*
X46835000Y-150160000D01*
X41750000Y-133750000D02*
X43800000Y-133750000D01*
X51136700Y-148698300D02*
X49675000Y-150160000D01*
%TO.N,sda*%
X61996000Y-145161000D02*
X61085000Y-144250000D01*
X59000000Y-120575000D02*
X59000000Y-126750000D01*
X54750000Y-135665000D02*
X54750000Y-128511000D01*
X61085000Y-142000000D02*
X54750000Y-135665000D01*
X62545000Y-145161000D02*
X61996000Y-145161000D01*
X61085000Y-144250000D02*
X61085000Y-142000000D01*
X54750000Y-128511000D02*
X55522000Y-127739000D01*
X58011000Y-127739000D02*
X56784000Y-127739000D01*
X63080000Y-145000000D02*
X63000000Y-145080000D01*
X55522000Y-127739000D02*
X56784000Y-127739000D01*
X59000000Y-126750000D02*
X58011000Y-127739000D01*
%TO.N,GND*%
X58159000Y-129039000D02*
X58166000Y-129032000D01*
X56784000Y-129039000D02*
X58159000Y-129039000D01*
X54186400Y-143051400D02*
X54186400Y-142088300D01*
%TO.N,sd*%
X65500000Y-155250000D02*
X63085000Y-155250000D01*
X66000000Y-154750000D02*
X65500000Y-155250000D01*
X66000000Y-138000000D02*
X66000000Y-154750000D01*
%TO.N,IR EMIT*%
X69500000Y-39000000D02*
X69500000Y-37813000D01*
X63050000Y-152750000D02*
X63000000Y-152700000D01*
X69500000Y-37813000D02*
X69088000Y-37401000D01*
%TO.N,sck*%
X63090000Y-150250000D02*
X63000000Y-150160000D01*
%TO.N,scl*%
X55533000Y-135698000D02*
X62456000Y-142621000D01*
X60000000Y-126750000D02*
X60000000Y-123900000D01*
X56784000Y-128389000D02*
X55834001Y-128389000D01*
X58361000Y-128389000D02*
X60000000Y-126750000D01*
X55533000Y-128690001D02*
X55533000Y-135698000D01*
X55834001Y-128389000D02*
X55533000Y-128690001D01*
X62456000Y-142621000D02*
X62545000Y-142621000D01*
X56784000Y-128389000D02*
X58361000Y-128389000D01*
%TO.N,IR REC*%
X41382000Y-33000000D02*
X41402000Y-33020000D01*
%TO.N,led_1*%
X43750000Y-140000000D02*
X43175000Y-140575000D01*
X46835000Y-140000000D02*
X43750000Y-140000000D01*
X43175000Y-140575000D02*
X41250000Y-140575000D01*
%TO.N,VCC*%
X46845000Y-155260000D02*
X46785000Y-155200000D01*
%TO.N,exp_int*%
X49784000Y-127089000D02*
X49295000Y-126600000D01*
X49295000Y-126600000D02*
X48250000Y-126600000D01*
X59000000Y-153585000D02*
X58085000Y-154500000D01*
X59000000Y-148000000D02*
X59000000Y-153585000D01*
X48250000Y-136750000D02*
X50500000Y-139000000D01*
X52500000Y-145500000D02*
X56500000Y-145500000D01*
X56500000Y-145500000D02*
X59000000Y-148000000D01*
X50500000Y-139000000D02*
X50500000Y-143500000D01*
X50500000Y-143500000D02*
X52500000Y-145500000D01*
X56323500Y-156261500D02*
X56218400Y-156261500D01*
X58085000Y-154500000D02*
X56323500Y-156261500D01*
%TO.N,Net-(Q1-B)*%
X69088000Y-33129500D02*
X69263500Y-32954000D01*
X69088000Y-35751000D02*
X69088000Y-33129500D01*
%TO.N,Net-(D1-K)*%
X67388500Y-32004000D02*
X65291455Y-32004000D01*
X65291455Y-32004000D02*
X64037455Y-33258000D01*
%TO.N,sw10*%
X68750000Y-126766500D02*
X68750000Y-110632000D01*
X68750000Y-110632000D02*
X67536000Y-109418000D01*
X56784000Y-134239000D02*
X61277500Y-134239000D01*
X67536000Y-109418000D02*
X67536000Y-104958000D01*
X61277500Y-134239000D02*
X68750000Y-126766500D01*
%TO.N,sw9*%
X67250000Y-122150000D02*
X67536000Y-121864000D01*
X67250000Y-127187000D02*
X67250000Y-122150000D01*
X60848000Y-133589000D02*
X67250000Y-127187000D01*
X56784000Y-133589000D02*
X60848000Y-133589000D01*
X67536000Y-121864000D02*
X67536000Y-117404000D01*
%TO.N,Net-(U2-Vs)*%
X46250000Y-33190000D02*
X46080000Y-33020000D01*
X46250000Y-35475000D02*
X46250000Y-33190000D01*
%TO.N,sw5*%
X47438000Y-131639000D02*
X49784000Y-131639000D01*
X42644000Y-121864000D02*
X42750000Y-121970000D01*
X42750000Y-121970000D02*
X42750000Y-126951000D01*
X42750000Y-126951000D02*
X47438000Y-131639000D01*
X42644000Y-121864000D02*
X42644000Y-117404000D01*
%TO.N,sw2*%
X49784000Y-129689000D02*
X47901000Y-129689000D01*
X46482000Y-92202000D02*
X39500000Y-85220000D01*
X38664000Y-43406000D02*
X43124000Y-43406000D01*
X39500000Y-44242000D02*
X38664000Y-43406000D01*
X47901000Y-129689000D02*
X46482000Y-128270000D01*
X46482000Y-128270000D02*
X46482000Y-92202000D01*
X39500000Y-85220000D02*
X39500000Y-44242000D01*
%TO.N,sw7*%
X55090000Y-109418000D02*
X55090000Y-104958000D01*
X53000000Y-131500000D02*
X51561000Y-132939000D01*
X55090000Y-109418000D02*
X53000000Y-111508000D01*
X51561000Y-132939000D02*
X49784000Y-132939000D01*
X53000000Y-111508000D02*
X53000000Y-131500000D01*
%TO.N,Net-(D1-A)*%
X61481455Y-33274000D02*
X61497455Y-33258000D01*
%TO.N,sw4*%
X42586910Y-109444000D02*
X42586910Y-104984000D01*
X43750000Y-110607090D02*
X43750000Y-127093750D01*
X47645250Y-130989000D02*
X49784000Y-130989000D01*
X42586910Y-109444000D02*
X43750000Y-110607090D01*
X43750000Y-127093750D02*
X47645250Y-130989000D01*
%TO.N,Net-(D2-DIN)*%
X41250000Y-138925000D02*
X41250000Y-136000000D01*
X41250000Y-136000000D02*
X41750000Y-135500000D01*
%TO.N,sw1*%
X63556000Y-43406000D02*
X68016000Y-43406000D01*
X47117000Y-128143000D02*
X47117000Y-91888900D01*
X48013000Y-129039000D02*
X47117000Y-128143000D01*
X40250000Y-51750000D02*
X48594000Y-43406000D01*
X49784000Y-129039000D02*
X48013000Y-129039000D01*
X48594000Y-43406000D02*
X63556000Y-43406000D01*
X40250000Y-85021900D02*
X40250000Y-51750000D01*
X47117000Y-91888900D02*
X40250000Y-85021900D01*
%TO.N,sw11*%
X60609000Y-132939000D02*
X56784000Y-132939000D01*
X67536000Y-96972000D02*
X67536000Y-92512000D01*
X66500000Y-127048000D02*
X60609000Y-132939000D01*
X66500000Y-98008000D02*
X66500000Y-127048000D01*
X67536000Y-96972000D02*
X66500000Y-98008000D01*
%TO.N,sw3*%
X42644000Y-96972000D02*
X42644000Y-92512000D01*
X44500000Y-127050000D02*
X44500000Y-98828000D01*
X49784000Y-130339000D02*
X47789000Y-130339000D01*
X44500000Y-98828000D02*
X42644000Y-96972000D01*
X47789000Y-130339000D02*
X44500000Y-127050000D01*
%TO.N,sw6*%
X51211000Y-132289000D02*
X49784000Y-132289000D01*
X55090000Y-96972000D02*
X52500000Y-99562000D01*
X55090000Y-96972000D02*
X55090000Y-92512000D01*
X52500000Y-131000000D02*
X51211000Y-132289000D01*
X52500000Y-99562000D02*
X52500000Y-131000000D01*
%TO.N,sw8*%
X51911000Y-133589000D02*
X49784000Y-133589000D01*
X55090000Y-121864000D02*
X55090000Y-117404000D01*
X53500000Y-123454000D02*
X53500000Y-132000000D01*
X55090000Y-121864000D02*
X53500000Y-123454000D01*
X53500000Y-132000000D02*
X51911000Y-133589000D01*
%TO.N,ano_sw1*%
X60497000Y-132289000D02*
X56784000Y-132289000D01*
X66000000Y-92708062D02*
X66000000Y-126786000D01*
X69487774Y-89220288D02*
X66000000Y-92708062D01*
X66000000Y-126786000D02*
X60497000Y-132289000D01*
X69487774Y-64107590D02*
X69487774Y-89220288D01*
%TO.N,ano_sw2*%
X65500000Y-126524000D02*
X65500000Y-92488000D01*
X68834000Y-77978000D02*
X45587565Y-54731565D01*
X68834000Y-89154000D02*
X68834000Y-77978000D01*
X65500000Y-92488000D02*
X68834000Y-89154000D01*
X56784000Y-131639000D02*
X60385000Y-131639000D01*
X45587565Y-54731565D02*
X45587565Y-52610131D01*
X60385000Y-131639000D02*
X65500000Y-126524000D01*
%TO.N,ano_sw3*%
X68072000Y-78232000D02*
X58664158Y-68824158D01*
X60273000Y-130989000D02*
X65000000Y-126262000D01*
X56784000Y-130989000D02*
X60273000Y-130989000D01*
X65000000Y-126262000D02*
X65000000Y-91972000D01*
X58664158Y-68824158D02*
X52227297Y-68824158D01*
X68072000Y-88900000D02*
X68072000Y-78232000D01*
X65000000Y-91972000D02*
X68072000Y-88900000D01*
%TO.N,ano_sw4*%
X62500000Y-127873000D02*
X62500000Y-84230578D01*
X62500000Y-84230578D02*
X61087345Y-82817923D01*
X60034000Y-130339000D02*
X62500000Y-127873000D01*
X56784000Y-130339000D02*
X60034000Y-130339000D01*
%TO.N,ano_sw5*%
X62000000Y-88797000D02*
X62000000Y-127484000D01*
X47879000Y-74676000D02*
X62000000Y-88797000D01*
X59795000Y-129689000D02*
X56784000Y-129689000D01*
X62000000Y-127484000D02*
X59795000Y-129689000D01*
%TD*%
%TA.AperFunction,Conductor*%
%TO.N,GND*%
G36*
X40279994Y-28734185D02*
G01*
X40325749Y-28786989D01*
X40336955Y-28838500D01*
X40336955Y-30779891D01*
X40371063Y-30907187D01*
X40404009Y-30964250D01*
X40436955Y-31021314D01*
X40530141Y-31114500D01*
X40644269Y-31180392D01*
X40771563Y-31214500D01*
X40771565Y-31214500D01*
X47003345Y-31214500D01*
X47003347Y-31214500D01*
X47130641Y-31180392D01*
X47244769Y-31114500D01*
X47337955Y-31021314D01*
X47403847Y-30907186D01*
X47437955Y-30779892D01*
X47437955Y-28838500D01*
X47457640Y-28771461D01*
X47510444Y-28725706D01*
X47561955Y-28714500D01*
X59112955Y-28714500D01*
X59179994Y-28734185D01*
X59225749Y-28786989D01*
X59236955Y-28838500D01*
X59236955Y-30779891D01*
X59271063Y-30907187D01*
X59304009Y-30964250D01*
X59336955Y-31021314D01*
X59430141Y-31114500D01*
X59544269Y-31180392D01*
X59671563Y-31214500D01*
X59671565Y-31214500D01*
X65903345Y-31214500D01*
X65903347Y-31214500D01*
X66030641Y-31180392D01*
X66144769Y-31114500D01*
X66237955Y-31021314D01*
X66303847Y-30907186D01*
X66331496Y-30803998D01*
X68028704Y-30803998D01*
X68028705Y-30804000D01*
X69013500Y-30804000D01*
X69513500Y-30804000D01*
X70498295Y-30804000D01*
X70498295Y-30803998D01*
X70498100Y-30801513D01*
X70452281Y-30643801D01*
X70368685Y-30502447D01*
X70368678Y-30502438D01*
X70252561Y-30386321D01*
X70252552Y-30386314D01*
X70111196Y-30302717D01*
X70111193Y-30302716D01*
X69953495Y-30256900D01*
X69953489Y-30256899D01*
X69916649Y-30254000D01*
X69513500Y-30254000D01*
X69513500Y-30804000D01*
X69013500Y-30804000D01*
X69013500Y-30254000D01*
X68610350Y-30254000D01*
X68573510Y-30256899D01*
X68573504Y-30256900D01*
X68415806Y-30302716D01*
X68415803Y-30302717D01*
X68274447Y-30386314D01*
X68274438Y-30386321D01*
X68158321Y-30502438D01*
X68158314Y-30502447D01*
X68074718Y-30643801D01*
X68028899Y-30801513D01*
X68028704Y-30803998D01*
X66331496Y-30803998D01*
X66337955Y-30779892D01*
X66337955Y-28838500D01*
X66357640Y-28771461D01*
X66410444Y-28725706D01*
X66461955Y-28714500D01*
X71212955Y-28714500D01*
X71279994Y-28734185D01*
X71325749Y-28786989D01*
X71336955Y-28838500D01*
X71336955Y-63674744D01*
X71317270Y-63741783D01*
X71264466Y-63787538D01*
X71195308Y-63797482D01*
X71131752Y-63768457D01*
X71095024Y-63713063D01*
X71017351Y-63474013D01*
X70974561Y-63390035D01*
X70899408Y-63242539D01*
X70746705Y-63032361D01*
X70563003Y-62848659D01*
X70532940Y-62826817D01*
X70352828Y-62695958D01*
X70352827Y-62695957D01*
X70352825Y-62695956D01*
X70280538Y-62659124D01*
X70121350Y-62578012D01*
X69874267Y-62497730D01*
X69617676Y-62457090D01*
X69617671Y-62457090D01*
X69357877Y-62457090D01*
X69357872Y-62457090D01*
X69101280Y-62497730D01*
X68854197Y-62578012D01*
X68622719Y-62695958D01*
X68412548Y-62848656D01*
X68412542Y-62848661D01*
X68228845Y-63032358D01*
X68228840Y-63032364D01*
X68076142Y-63242535D01*
X67958196Y-63474013D01*
X67877914Y-63721096D01*
X67837274Y-63977687D01*
X67837274Y-64237492D01*
X67877914Y-64494083D01*
X67958196Y-64741166D01*
X68039308Y-64900354D01*
X68076140Y-64972641D01*
X68228843Y-65182819D01*
X68412545Y-65366521D01*
X68622723Y-65519224D01*
X68854202Y-65637169D01*
X68901590Y-65652566D01*
X68959266Y-65692001D01*
X68986465Y-65756359D01*
X68987274Y-65770497D01*
X68987274Y-77124098D01*
X68967589Y-77191137D01*
X68914785Y-77236892D01*
X68845627Y-77246836D01*
X68782071Y-77217811D01*
X68775593Y-77211779D01*
X52613468Y-61049654D01*
X58109764Y-61049654D01*
X58109764Y-61282385D01*
X58109765Y-61282402D01*
X58140142Y-61513142D01*
X58200384Y-61737967D01*
X58289444Y-61952980D01*
X58289452Y-61952996D01*
X58405817Y-62154544D01*
X58405828Y-62154560D01*
X58547506Y-62339199D01*
X58547512Y-62339206D01*
X58712077Y-62503771D01*
X58712084Y-62503777D01*
X58795461Y-62567754D01*
X58896732Y-62645462D01*
X58896739Y-62645466D01*
X59098287Y-62761831D01*
X59098303Y-62761839D01*
X59313316Y-62850899D01*
X59313318Y-62850899D01*
X59313324Y-62850902D01*
X59538138Y-62911141D01*
X59768892Y-62941520D01*
X59768899Y-62941520D01*
X60001629Y-62941520D01*
X60001636Y-62941520D01*
X60232390Y-62911141D01*
X60457204Y-62850902D01*
X60515351Y-62826817D01*
X60672224Y-62761839D01*
X60672227Y-62761837D01*
X60672233Y-62761835D01*
X60873796Y-62645462D01*
X61058445Y-62503776D01*
X61223020Y-62339201D01*
X61364706Y-62154552D01*
X61481079Y-61952989D01*
X61570146Y-61737960D01*
X61630385Y-61513146D01*
X61660764Y-61282392D01*
X61660764Y-61049648D01*
X61630385Y-60818894D01*
X61570146Y-60594080D01*
X61570143Y-60594072D01*
X61481083Y-60379059D01*
X61481075Y-60379043D01*
X61364710Y-60177495D01*
X61364706Y-60177488D01*
X61223020Y-59992839D01*
X61223015Y-59992833D01*
X61058450Y-59828268D01*
X61058443Y-59828262D01*
X60873804Y-59686584D01*
X60873802Y-59686582D01*
X60873796Y-59686578D01*
X60873791Y-59686575D01*
X60873788Y-59686573D01*
X60672240Y-59570208D01*
X60672224Y-59570200D01*
X60457211Y-59481140D01*
X60232386Y-59420898D01*
X60001646Y-59390521D01*
X60001641Y-59390520D01*
X60001636Y-59390520D01*
X59768892Y-59390520D01*
X59768886Y-59390520D01*
X59768881Y-59390521D01*
X59538141Y-59420898D01*
X59313316Y-59481140D01*
X59098303Y-59570200D01*
X59098287Y-59570208D01*
X58896739Y-59686573D01*
X58896723Y-59686584D01*
X58712084Y-59828262D01*
X58712077Y-59828268D01*
X58547512Y-59992833D01*
X58547506Y-59992840D01*
X58405828Y-60177479D01*
X58405817Y-60177495D01*
X58289452Y-60379043D01*
X58289444Y-60379059D01*
X58200384Y-60594072D01*
X58140142Y-60818897D01*
X58109765Y-61049637D01*
X58109764Y-61049654D01*
X52613468Y-61049654D01*
X48428544Y-56864730D01*
X62206120Y-56864730D01*
X62206120Y-56996514D01*
X62240228Y-57123808D01*
X62306120Y-57237936D01*
X62306121Y-57237937D01*
X62306122Y-57237938D01*
X63715992Y-58647807D01*
X63716002Y-58647818D01*
X63720332Y-58652148D01*
X63720333Y-58652149D01*
X63813519Y-58745335D01*
X63927647Y-58811227D01*
X64054940Y-58845335D01*
X64054941Y-58845335D01*
X64054942Y-58845335D01*
X64186723Y-58845335D01*
X64186725Y-58845335D01*
X64314019Y-58811227D01*
X64428147Y-58745335D01*
X65051663Y-58121819D01*
X65110222Y-58063260D01*
X65110233Y-58063247D01*
X65478598Y-57694883D01*
X65478604Y-57694879D01*
X65488807Y-57684675D01*
X65488809Y-57684675D01*
X65581994Y-57591490D01*
X65647886Y-57477361D01*
X65681994Y-57350068D01*
X65681994Y-57218283D01*
X65656680Y-57123808D01*
X65647887Y-57090989D01*
X65581994Y-56976861D01*
X65488809Y-56883675D01*
X65488806Y-56883673D01*
X65484478Y-56879345D01*
X65484478Y-56879344D01*
X65484473Y-56879340D01*
X64174853Y-55569720D01*
X64174841Y-55569706D01*
X64074597Y-55469464D01*
X64074596Y-55469463D01*
X64074594Y-55469461D01*
X64071659Y-55467766D01*
X63960467Y-55403567D01*
X63833173Y-55369461D01*
X63833172Y-55369461D01*
X63701387Y-55369461D01*
X63574092Y-55403569D01*
X63459966Y-55469461D01*
X63459963Y-55469463D01*
X62929636Y-55999792D01*
X62306122Y-56623305D01*
X62306120Y-56623308D01*
X62240228Y-56737434D01*
X62206120Y-56864730D01*
X48428544Y-56864730D01*
X46124384Y-54560570D01*
X46109680Y-54533642D01*
X46093088Y-54507824D01*
X46092196Y-54501623D01*
X46090899Y-54499247D01*
X46088065Y-54472889D01*
X46088065Y-54384631D01*
X46107750Y-54317592D01*
X46160554Y-54271837D01*
X46212065Y-54260631D01*
X46653251Y-54260631D01*
X46653259Y-54260631D01*
X46690134Y-54257729D01*
X46690136Y-54257728D01*
X46690138Y-54257728D01*
X46731756Y-54245636D01*
X46847963Y-54211875D01*
X46989430Y-54128212D01*
X47105646Y-54011996D01*
X47189309Y-53870529D01*
X47235163Y-53712700D01*
X47238065Y-53675825D01*
X47238065Y-51544437D01*
X47235163Y-51507562D01*
X47189309Y-51349733D01*
X47105646Y-51208266D01*
X47105644Y-51208264D01*
X47105641Y-51208260D01*
X46989435Y-51092054D01*
X46989427Y-51092048D01*
X46847961Y-51008386D01*
X46847958Y-51008385D01*
X46690138Y-50962533D01*
X46690132Y-50962532D01*
X46653266Y-50959631D01*
X46653259Y-50959631D01*
X44521871Y-50959631D01*
X44521863Y-50959631D01*
X44484997Y-50962532D01*
X44484991Y-50962533D01*
X44327171Y-51008385D01*
X44327168Y-51008386D01*
X44185702Y-51092048D01*
X44185694Y-51092054D01*
X44069488Y-51208260D01*
X44069482Y-51208268D01*
X43985820Y-51349734D01*
X43985819Y-51349737D01*
X43939967Y-51507557D01*
X43939966Y-51507563D01*
X43937065Y-51544429D01*
X43937065Y-53675832D01*
X43939966Y-53712698D01*
X43939967Y-53712704D01*
X43985819Y-53870524D01*
X43985820Y-53870527D01*
X44069482Y-54011993D01*
X44069488Y-54012001D01*
X44185694Y-54128207D01*
X44185698Y-54128210D01*
X44185700Y-54128212D01*
X44327167Y-54211875D01*
X44368789Y-54223967D01*
X44484991Y-54257728D01*
X44484994Y-54257728D01*
X44484996Y-54257729D01*
X44521871Y-54260631D01*
X44963065Y-54260631D01*
X45030104Y-54280316D01*
X45075859Y-54333120D01*
X45087065Y-54384631D01*
X45087065Y-54797456D01*
X45121173Y-54924752D01*
X45154119Y-54981815D01*
X45187065Y-55038879D01*
X45187067Y-55038881D01*
X58260163Y-68111977D01*
X58293648Y-68173300D01*
X58288664Y-68242992D01*
X58246792Y-68298925D01*
X58181328Y-68323342D01*
X58172482Y-68323658D01*
X53890205Y-68323658D01*
X53823166Y-68303973D01*
X53777411Y-68251169D01*
X53772274Y-68237977D01*
X53756874Y-68190581D01*
X53714084Y-68106603D01*
X53638931Y-67959107D01*
X53486228Y-67748929D01*
X53302526Y-67565227D01*
X53092348Y-67412524D01*
X53020061Y-67375692D01*
X52860873Y-67294580D01*
X52613790Y-67214298D01*
X52357199Y-67173658D01*
X52357194Y-67173658D01*
X52097400Y-67173658D01*
X52097395Y-67173658D01*
X51840803Y-67214298D01*
X51593720Y-67294580D01*
X51362242Y-67412526D01*
X51152071Y-67565224D01*
X51152065Y-67565229D01*
X50968368Y-67748926D01*
X50968363Y-67748932D01*
X50815665Y-67959103D01*
X50697719Y-68190581D01*
X50617437Y-68437664D01*
X50576797Y-68694255D01*
X50576797Y-68954060D01*
X50617437Y-69210651D01*
X50697719Y-69457734D01*
X50778831Y-69616922D01*
X50815663Y-69689209D01*
X50968366Y-69899387D01*
X51152068Y-70083089D01*
X51362246Y-70235792D01*
X51509742Y-70310945D01*
X51593720Y-70353735D01*
X51593722Y-70353735D01*
X51593725Y-70353737D01*
X51840804Y-70434018D01*
X51973003Y-70454955D01*
X52097395Y-70474658D01*
X52097400Y-70474658D01*
X52357199Y-70474658D01*
X52480030Y-70455203D01*
X52613790Y-70434018D01*
X52860869Y-70353737D01*
X53092348Y-70235792D01*
X53302526Y-70083089D01*
X53486228Y-69899387D01*
X53638931Y-69689209D01*
X53756876Y-69457730D01*
X53772274Y-69410337D01*
X53811712Y-69352664D01*
X53876071Y-69325466D01*
X53890205Y-69324658D01*
X58405482Y-69324658D01*
X58472521Y-69344343D01*
X58493163Y-69360977D01*
X67535181Y-78402995D01*
X67568666Y-78464318D01*
X67571500Y-78490676D01*
X67571500Y-88641324D01*
X67551815Y-88708363D01*
X67535181Y-88729005D01*
X64692686Y-91571499D01*
X64692685Y-91571500D01*
X64648502Y-91615682D01*
X64587179Y-91649167D01*
X64560822Y-91652000D01*
X64286000Y-91652000D01*
X64286000Y-93382000D01*
X64375500Y-93382000D01*
X64442539Y-93401685D01*
X64488294Y-93454489D01*
X64499500Y-93506000D01*
X64499500Y-95978000D01*
X64479815Y-96045039D01*
X64427011Y-96090794D01*
X64375500Y-96102000D01*
X64286000Y-96102000D01*
X64286000Y-97832000D01*
X64375500Y-97832000D01*
X64442539Y-97851685D01*
X64488294Y-97904489D01*
X64499500Y-97956000D01*
X64499500Y-103974000D01*
X64479815Y-104041039D01*
X64427011Y-104086794D01*
X64375500Y-104098000D01*
X64286000Y-104098000D01*
X64286000Y-105828000D01*
X64375500Y-105828000D01*
X64442539Y-105847685D01*
X64488294Y-105900489D01*
X64499500Y-105952000D01*
X64499500Y-108424000D01*
X64479815Y-108491039D01*
X64427011Y-108536794D01*
X64375500Y-108548000D01*
X64286000Y-108548000D01*
X64286000Y-110278000D01*
X64375500Y-110278000D01*
X64442539Y-110297685D01*
X64488294Y-110350489D01*
X64499500Y-110402000D01*
X64499500Y-116420000D01*
X64479815Y-116487039D01*
X64427011Y-116532794D01*
X64375500Y-116544000D01*
X64286000Y-116544000D01*
X64286000Y-118274000D01*
X64375500Y-118274000D01*
X64442539Y-118293685D01*
X64488294Y-118346489D01*
X64499500Y-118398000D01*
X64499500Y-120870000D01*
X64479815Y-120937039D01*
X64427011Y-120982794D01*
X64375500Y-120994000D01*
X64286000Y-120994000D01*
X64286000Y-122724000D01*
X64375500Y-122724000D01*
X64442539Y-122743685D01*
X64488294Y-122796489D01*
X64499500Y-122848000D01*
X64499500Y-126003324D01*
X64479815Y-126070363D01*
X64463181Y-126091005D01*
X63212181Y-127342005D01*
X63150858Y-127375490D01*
X63081166Y-127370506D01*
X63025233Y-127328634D01*
X63000816Y-127263170D01*
X63000500Y-127254324D01*
X63000500Y-122731183D01*
X63020185Y-122664144D01*
X63072989Y-122618389D01*
X63142147Y-122608445D01*
X63187776Y-122624543D01*
X63285667Y-122682627D01*
X63292732Y-122685554D01*
X63343728Y-122703544D01*
X63486001Y-122723999D01*
X63486003Y-122724000D01*
X63786000Y-122724000D01*
X63786000Y-120994000D01*
X63685998Y-120994000D01*
X63632011Y-120996893D01*
X63492740Y-121032442D01*
X63485669Y-121035371D01*
X63390923Y-121087106D01*
X63285722Y-121185049D01*
X63285721Y-121185051D01*
X63231141Y-121277037D01*
X63180002Y-121324646D01*
X63111243Y-121337050D01*
X63046692Y-121310311D01*
X63006845Y-121252918D01*
X63000500Y-121213761D01*
X63000500Y-118057144D01*
X63020185Y-117990105D01*
X63072989Y-117944350D01*
X63142147Y-117934406D01*
X63205703Y-117963431D01*
X63233333Y-117997718D01*
X63264107Y-118054078D01*
X63362049Y-118159277D01*
X63362051Y-118159278D01*
X63485672Y-118232629D01*
X63492732Y-118235554D01*
X63543728Y-118253544D01*
X63686001Y-118273999D01*
X63686003Y-118274000D01*
X63786000Y-118274000D01*
X63786000Y-116544000D01*
X63485998Y-116544000D01*
X63432011Y-116546893D01*
X63292740Y-116582442D01*
X63285669Y-116585371D01*
X63184113Y-116640825D01*
X63182485Y-116637843D01*
X63131082Y-116655952D01*
X63063092Y-116639854D01*
X63014599Y-116589553D01*
X63000500Y-116532127D01*
X63000500Y-110285183D01*
X63020185Y-110218144D01*
X63072989Y-110172389D01*
X63142147Y-110162445D01*
X63187776Y-110178543D01*
X63285667Y-110236627D01*
X63292732Y-110239554D01*
X63343728Y-110257544D01*
X63486001Y-110277999D01*
X63486003Y-110278000D01*
X63786000Y-110278000D01*
X63786000Y-108548000D01*
X63685998Y-108548000D01*
X63632011Y-108550893D01*
X63492740Y-108586442D01*
X63485669Y-108589371D01*
X63390923Y-108641106D01*
X63285722Y-108739049D01*
X63285721Y-108739051D01*
X63231141Y-108831037D01*
X63180002Y-108878646D01*
X63111243Y-108891050D01*
X63046692Y-108864311D01*
X63006845Y-108806918D01*
X63000500Y-108767761D01*
X63000500Y-105611144D01*
X63020185Y-105544105D01*
X63072989Y-105498350D01*
X63142147Y-105488406D01*
X63205703Y-105517431D01*
X63233333Y-105551718D01*
X63264107Y-105608078D01*
X63362049Y-105713277D01*
X63362051Y-105713278D01*
X63485672Y-105786629D01*
X63492732Y-105789554D01*
X63543728Y-105807544D01*
X63686001Y-105827999D01*
X63686003Y-105828000D01*
X63786000Y-105828000D01*
X63786000Y-104098000D01*
X63485998Y-104098000D01*
X63432011Y-104100893D01*
X63292740Y-104136442D01*
X63285669Y-104139371D01*
X63184113Y-104194825D01*
X63182485Y-104191843D01*
X63131082Y-104209952D01*
X63063092Y-104193854D01*
X63014599Y-104143553D01*
X63000500Y-104086127D01*
X63000500Y-97839183D01*
X63020185Y-97772144D01*
X63072989Y-97726389D01*
X63142147Y-97716445D01*
X63187776Y-97732543D01*
X63285667Y-97790627D01*
X63292732Y-97793554D01*
X63343728Y-97811544D01*
X63486001Y-97831999D01*
X63486003Y-97832000D01*
X63786000Y-97832000D01*
X63786000Y-96102000D01*
X63685998Y-96102000D01*
X63632011Y-96104893D01*
X63492740Y-96140442D01*
X63485669Y-96143371D01*
X63390923Y-96195106D01*
X63285722Y-96293049D01*
X63285721Y-96293051D01*
X63231141Y-96385037D01*
X63180002Y-96432646D01*
X63111243Y-96445050D01*
X63046692Y-96418311D01*
X63006845Y-96360918D01*
X63000500Y-96321761D01*
X63000500Y-93165144D01*
X63020185Y-93098105D01*
X63072989Y-93052350D01*
X63142147Y-93042406D01*
X63205703Y-93071431D01*
X63233333Y-93105718D01*
X63264107Y-93162078D01*
X63362049Y-93267277D01*
X63362051Y-93267278D01*
X63485672Y-93340629D01*
X63492732Y-93343554D01*
X63543728Y-93361544D01*
X63686001Y-93381999D01*
X63686003Y-93382000D01*
X63786000Y-93382000D01*
X63786000Y-91652000D01*
X63485998Y-91652000D01*
X63432011Y-91654893D01*
X63292740Y-91690442D01*
X63285669Y-91693371D01*
X63184113Y-91748825D01*
X63182485Y-91745843D01*
X63131082Y-91763952D01*
X63063092Y-91747854D01*
X63014599Y-91697553D01*
X63000500Y-91640127D01*
X63000500Y-84164688D01*
X63000500Y-84164686D01*
X62966392Y-84037392D01*
X62900500Y-83923264D01*
X62807314Y-83830078D01*
X62617105Y-83639869D01*
X62583620Y-83578546D01*
X62588604Y-83508854D01*
X62594296Y-83495904D01*
X62616924Y-83451495D01*
X62697205Y-83204416D01*
X62733326Y-82976355D01*
X62737845Y-82947825D01*
X62737845Y-82688020D01*
X62716292Y-82551944D01*
X62697205Y-82431430D01*
X62616924Y-82184351D01*
X62616922Y-82184348D01*
X62616922Y-82184346D01*
X62550600Y-82054184D01*
X62498979Y-81952872D01*
X62346276Y-81742694D01*
X62162574Y-81558992D01*
X61952396Y-81406289D01*
X61880109Y-81369457D01*
X61720921Y-81288345D01*
X61473838Y-81208063D01*
X61217247Y-81167423D01*
X61217242Y-81167423D01*
X60957448Y-81167423D01*
X60957443Y-81167423D01*
X60700851Y-81208063D01*
X60453768Y-81288345D01*
X60222290Y-81406291D01*
X60012119Y-81558989D01*
X60012113Y-81558994D01*
X59828416Y-81742691D01*
X59828411Y-81742697D01*
X59675713Y-81952868D01*
X59557767Y-82184346D01*
X59477485Y-82431429D01*
X59436845Y-82688020D01*
X59436845Y-82947825D01*
X59477485Y-83204416D01*
X59557767Y-83451499D01*
X59621289Y-83576165D01*
X59675711Y-83682974D01*
X59828414Y-83893152D01*
X60012116Y-84076854D01*
X60222294Y-84229557D01*
X60329103Y-84283979D01*
X60453768Y-84347500D01*
X60453770Y-84347500D01*
X60453773Y-84347502D01*
X60700852Y-84427783D01*
X60833051Y-84448720D01*
X60957443Y-84468423D01*
X60957448Y-84468423D01*
X61217247Y-84468423D01*
X61330643Y-84450462D01*
X61473838Y-84427783D01*
X61720917Y-84347502D01*
X61765315Y-84324879D01*
X61789606Y-84320317D01*
X61812764Y-84311680D01*
X61823342Y-84313981D01*
X61833982Y-84311983D01*
X61856884Y-84321277D01*
X61881037Y-84326532D01*
X61894306Y-84336465D01*
X61898723Y-84338258D01*
X61909291Y-84347683D01*
X61963181Y-84401573D01*
X61996666Y-84462896D01*
X61999500Y-84489254D01*
X61999500Y-87789324D01*
X61979815Y-87856363D01*
X61927011Y-87902118D01*
X61857853Y-87912062D01*
X61794297Y-87883037D01*
X61787819Y-87877005D01*
X52342300Y-78431486D01*
X62206120Y-78431486D01*
X62206120Y-78563269D01*
X62240228Y-78690565D01*
X62273174Y-78747628D01*
X62306120Y-78804692D01*
X62836450Y-79335022D01*
X63459966Y-79958539D01*
X63558801Y-80015602D01*
X63574090Y-80024429D01*
X63574094Y-80024431D01*
X63701387Y-80058539D01*
X63701388Y-80058539D01*
X63701389Y-80058539D01*
X63833169Y-80058539D01*
X63833172Y-80058539D01*
X63926360Y-80033570D01*
X63960467Y-80024432D01*
X64001166Y-80000932D01*
X64074594Y-79958539D01*
X64167780Y-79865354D01*
X64167780Y-79865353D01*
X64177982Y-79855152D01*
X64177989Y-79855142D01*
X65478597Y-78554534D01*
X65478607Y-78554527D01*
X65542457Y-78490676D01*
X65581994Y-78451139D01*
X65624387Y-78377711D01*
X65647887Y-78337012D01*
X65657025Y-78302905D01*
X65681994Y-78209717D01*
X65681994Y-78077932D01*
X65647886Y-77950639D01*
X65630664Y-77920810D01*
X65625641Y-77912109D01*
X65625640Y-77912108D01*
X65581994Y-77836510D01*
X65488809Y-77743325D01*
X65488808Y-77743324D01*
X65484478Y-77738994D01*
X65484467Y-77738984D01*
X64958477Y-77212995D01*
X64428149Y-76682667D01*
X64428147Y-76682665D01*
X64371083Y-76649719D01*
X64314020Y-76616773D01*
X64250372Y-76599719D01*
X64186725Y-76582665D01*
X64054940Y-76582665D01*
X63927645Y-76616773D01*
X63813519Y-76682665D01*
X63813516Y-76682667D01*
X63720331Y-76775853D01*
X62381865Y-78114318D01*
X62381864Y-78114318D01*
X62381865Y-78114319D01*
X62306120Y-78190064D01*
X62240228Y-78304190D01*
X62206120Y-78431486D01*
X52342300Y-78431486D01*
X48615819Y-74705005D01*
X48582334Y-74643682D01*
X48579500Y-74617324D01*
X48579500Y-74607004D01*
X48552581Y-74471677D01*
X48552580Y-74471676D01*
X48552580Y-74471672D01*
X48513912Y-74378319D01*
X48499778Y-74344195D01*
X48499771Y-74344182D01*
X48423114Y-74229458D01*
X48423111Y-74229454D01*
X48339245Y-74145588D01*
X58109764Y-74145588D01*
X58109764Y-74378319D01*
X58109765Y-74378336D01*
X58139869Y-74607004D01*
X58140143Y-74609080D01*
X58176561Y-74744995D01*
X58200384Y-74833901D01*
X58289444Y-75048914D01*
X58289452Y-75048930D01*
X58405817Y-75250478D01*
X58405828Y-75250494D01*
X58547506Y-75435133D01*
X58547512Y-75435140D01*
X58712077Y-75599705D01*
X58712083Y-75599710D01*
X58896732Y-75741396D01*
X58896739Y-75741400D01*
X59098287Y-75857765D01*
X59098303Y-75857773D01*
X59313316Y-75946833D01*
X59313318Y-75946833D01*
X59313324Y-75946836D01*
X59538138Y-76007075D01*
X59768892Y-76037454D01*
X59768899Y-76037454D01*
X60001629Y-76037454D01*
X60001636Y-76037454D01*
X60232390Y-76007075D01*
X60457204Y-75946836D01*
X60515217Y-75922806D01*
X60672224Y-75857773D01*
X60672227Y-75857771D01*
X60672233Y-75857769D01*
X60873796Y-75741396D01*
X61058445Y-75599710D01*
X61223020Y-75435135D01*
X61364706Y-75250486D01*
X61481079Y-75048923D01*
X61498106Y-75007817D01*
X61570143Y-74833901D01*
X61570142Y-74833901D01*
X61570146Y-74833894D01*
X61630385Y-74609080D01*
X61660764Y-74378326D01*
X61660764Y-74145582D01*
X61630385Y-73914828D01*
X61570146Y-73690014D01*
X61570143Y-73690006D01*
X61481083Y-73474993D01*
X61481075Y-73474977D01*
X61364710Y-73273429D01*
X61364706Y-73273422D01*
X61223020Y-73088773D01*
X61223015Y-73088767D01*
X61058450Y-72924202D01*
X61058443Y-72924196D01*
X60873804Y-72782518D01*
X60873802Y-72782516D01*
X60873796Y-72782512D01*
X60873791Y-72782509D01*
X60873788Y-72782507D01*
X60672240Y-72666142D01*
X60672224Y-72666134D01*
X60457211Y-72577074D01*
X60232386Y-72516832D01*
X60001646Y-72486455D01*
X60001641Y-72486454D01*
X60001636Y-72486454D01*
X59768892Y-72486454D01*
X59768886Y-72486454D01*
X59768881Y-72486455D01*
X59538141Y-72516832D01*
X59313316Y-72577074D01*
X59098303Y-72666134D01*
X59098287Y-72666142D01*
X58896739Y-72782507D01*
X58896723Y-72782518D01*
X58712084Y-72924196D01*
X58712077Y-72924202D01*
X58547512Y-73088767D01*
X58547506Y-73088774D01*
X58405828Y-73273413D01*
X58405817Y-73273429D01*
X58289452Y-73474977D01*
X58289444Y-73474993D01*
X58200384Y-73690006D01*
X58140142Y-73914831D01*
X58109765Y-74145571D01*
X58109764Y-74145588D01*
X48339245Y-74145588D01*
X48325545Y-74131888D01*
X48325541Y-74131885D01*
X48210817Y-74055228D01*
X48210804Y-74055221D01*
X48083332Y-74002421D01*
X48083322Y-74002418D01*
X47947995Y-73975500D01*
X47947993Y-73975500D01*
X47810007Y-73975500D01*
X47810005Y-73975500D01*
X47674677Y-74002418D01*
X47674667Y-74002421D01*
X47547195Y-74055221D01*
X47547182Y-74055228D01*
X47432458Y-74131885D01*
X47432454Y-74131888D01*
X47334888Y-74229454D01*
X47334885Y-74229458D01*
X47258228Y-74344182D01*
X47258221Y-74344195D01*
X47205421Y-74471667D01*
X47205418Y-74471677D01*
X47178500Y-74607004D01*
X47178500Y-74607007D01*
X47178500Y-74744993D01*
X47178500Y-74744995D01*
X47178499Y-74744995D01*
X47205418Y-74880322D01*
X47205421Y-74880332D01*
X47258221Y-75007804D01*
X47258228Y-75007817D01*
X47334885Y-75122541D01*
X47334888Y-75122545D01*
X47432454Y-75220111D01*
X47432458Y-75220114D01*
X47547182Y-75296771D01*
X47547195Y-75296778D01*
X47674667Y-75349578D01*
X47674672Y-75349580D01*
X47674676Y-75349580D01*
X47674677Y-75349581D01*
X47810004Y-75376500D01*
X47810007Y-75376500D01*
X47820324Y-75376500D01*
X47887363Y-75396185D01*
X47908005Y-75412819D01*
X61463181Y-88967995D01*
X61496666Y-89029318D01*
X61499500Y-89055676D01*
X61499500Y-127225324D01*
X61479815Y-127292363D01*
X61463181Y-127313005D01*
X59624005Y-129152181D01*
X59562682Y-129185666D01*
X59536324Y-129188500D01*
X57975439Y-129188500D01*
X57954838Y-129182450D01*
X57933404Y-129181158D01*
X57913007Y-129170167D01*
X57908400Y-129168815D01*
X57902240Y-129164590D01*
X57901691Y-129164189D01*
X57876331Y-129145204D01*
X57875108Y-129144748D01*
X57867372Y-129139090D01*
X57850898Y-129117587D01*
X57831743Y-129098435D01*
X57829964Y-129090264D01*
X57824880Y-129083627D01*
X57822646Y-129056633D01*
X57816886Y-129030163D01*
X57819807Y-129022328D01*
X57819118Y-129013995D01*
X57831833Y-128990077D01*
X57841298Y-128964697D01*
X57848768Y-128958223D01*
X57851917Y-128952302D01*
X57862356Y-128946449D01*
X57870312Y-128939555D01*
X57869231Y-128938111D01*
X57901128Y-128914233D01*
X57966592Y-128889816D01*
X57975439Y-128889500D01*
X58426890Y-128889500D01*
X58426892Y-128889500D01*
X58554186Y-128855392D01*
X58668314Y-128789500D01*
X60400500Y-127057314D01*
X60466392Y-126943186D01*
X60500500Y-126815892D01*
X60500500Y-126684108D01*
X60500500Y-124739425D01*
X60520185Y-124672386D01*
X60572989Y-124626631D01*
X60577022Y-124624875D01*
X60577841Y-124624536D01*
X60703282Y-124528282D01*
X60799536Y-124402841D01*
X60860044Y-124256762D01*
X60875500Y-124139361D01*
X60875499Y-123660640D01*
X60875499Y-123660636D01*
X60860046Y-123543246D01*
X60860044Y-123543241D01*
X60860044Y-123543238D01*
X60799536Y-123397159D01*
X60703282Y-123271718D01*
X60703280Y-123271717D01*
X60703280Y-123271716D01*
X60575120Y-123173376D01*
X60533917Y-123116948D01*
X60529762Y-123047202D01*
X60563974Y-122986282D01*
X60575120Y-122976624D01*
X60651283Y-122918182D01*
X60703282Y-122878282D01*
X60799536Y-122752841D01*
X60860044Y-122606762D01*
X60875500Y-122489361D01*
X60875499Y-122010640D01*
X60875499Y-122010636D01*
X60860046Y-121893246D01*
X60860044Y-121893241D01*
X60860044Y-121893238D01*
X60799536Y-121747159D01*
X60703282Y-121621718D01*
X60703280Y-121621717D01*
X60703280Y-121621716D01*
X60577841Y-121525464D01*
X60577832Y-121525459D01*
X60577038Y-121525130D01*
X60576470Y-121524672D01*
X60570799Y-121521398D01*
X60571309Y-121520513D01*
X60522638Y-121481285D01*
X60500579Y-121414989D01*
X60500500Y-121410573D01*
X60500500Y-119359110D01*
X60500500Y-119359108D01*
X60466392Y-119231814D01*
X60400500Y-119117686D01*
X60307314Y-119024500D01*
X59883844Y-118601030D01*
X59856964Y-118560802D01*
X59799536Y-118422160D01*
X59799536Y-118422159D01*
X59703282Y-118296718D01*
X59577841Y-118200464D01*
X59431762Y-118139956D01*
X59431760Y-118139955D01*
X59314361Y-118124500D01*
X58685636Y-118124500D01*
X58568246Y-118139953D01*
X58568237Y-118139956D01*
X58422160Y-118200463D01*
X58296718Y-118296718D01*
X58200463Y-118422160D01*
X58139956Y-118568237D01*
X58139955Y-118568239D01*
X58124501Y-118685629D01*
X58124500Y-118685645D01*
X58124500Y-119041323D01*
X58104815Y-119108362D01*
X58088181Y-119129004D01*
X56942686Y-120274500D01*
X56849502Y-120367683D01*
X56849500Y-120367686D01*
X56783608Y-120481812D01*
X56749500Y-120609108D01*
X56749500Y-122708481D01*
X56729815Y-122775520D01*
X56713181Y-122796162D01*
X56705888Y-122803454D01*
X56705885Y-122803458D01*
X56629228Y-122918182D01*
X56629221Y-122918195D01*
X56576421Y-123045667D01*
X56576418Y-123045677D01*
X56549500Y-123181004D01*
X56549500Y-123181007D01*
X56549500Y-123318993D01*
X56549500Y-123318995D01*
X56549499Y-123318995D01*
X56576418Y-123454322D01*
X56576421Y-123454332D01*
X56629221Y-123581804D01*
X56629228Y-123581817D01*
X56697737Y-123684347D01*
X56718615Y-123751024D01*
X56700131Y-123818405D01*
X56648152Y-123865095D01*
X56604367Y-123876856D01*
X56597431Y-123877402D01*
X56597426Y-123877402D01*
X56439606Y-123923254D01*
X56439603Y-123923255D01*
X56298137Y-124006917D01*
X56298129Y-124006923D01*
X56181923Y-124123129D01*
X56181916Y-124123138D01*
X56164734Y-124152193D01*
X56113665Y-124199876D01*
X56044923Y-124212380D01*
X55980334Y-124185735D01*
X55952463Y-124154169D01*
X55892315Y-124056654D01*
X55768345Y-123932684D01*
X55619124Y-123840643D01*
X55619119Y-123840641D01*
X55452697Y-123785494D01*
X55452690Y-123785493D01*
X55349986Y-123775000D01*
X55300000Y-123775000D01*
X55300000Y-126224999D01*
X55349972Y-126224999D01*
X55349986Y-126224998D01*
X55452697Y-126214505D01*
X55619119Y-126159358D01*
X55619124Y-126159356D01*
X55768345Y-126067315D01*
X55892317Y-125943343D01*
X55952463Y-125845831D01*
X56004411Y-125799106D01*
X56073373Y-125787883D01*
X56137455Y-125815726D01*
X56164732Y-125847803D01*
X56181919Y-125876865D01*
X56181921Y-125876867D01*
X56181923Y-125876870D01*
X56298129Y-125993076D01*
X56298132Y-125993078D01*
X56298135Y-125993081D01*
X56388623Y-126046595D01*
X56396371Y-126054893D01*
X56406703Y-126059612D01*
X56419787Y-126079971D01*
X56436304Y-126097661D01*
X56439313Y-126110355D01*
X56444477Y-126118390D01*
X56449500Y-126153325D01*
X56449500Y-126364500D01*
X56429815Y-126431539D01*
X56377011Y-126477294D01*
X56325500Y-126488500D01*
X55886129Y-126488500D01*
X55886123Y-126488501D01*
X55826516Y-126494908D01*
X55691671Y-126545202D01*
X55691664Y-126545206D01*
X55576455Y-126631452D01*
X55576452Y-126631455D01*
X55490206Y-126746664D01*
X55490202Y-126746671D01*
X55439910Y-126881513D01*
X55439909Y-126881517D01*
X55433500Y-126941127D01*
X55433500Y-126941134D01*
X55433500Y-126941135D01*
X55433500Y-127149408D01*
X55413815Y-127216447D01*
X55361011Y-127262202D01*
X55341600Y-127269181D01*
X55328815Y-127272607D01*
X55328814Y-127272607D01*
X55214686Y-127338500D01*
X55214683Y-127338502D01*
X54349502Y-128203683D01*
X54349500Y-128203686D01*
X54283608Y-128317812D01*
X54249500Y-128445108D01*
X54249500Y-135730891D01*
X54283608Y-135858187D01*
X54316554Y-135915250D01*
X54349500Y-135972314D01*
X54349502Y-135972316D01*
X60548181Y-142170995D01*
X60581666Y-142232318D01*
X60584500Y-142258676D01*
X60584500Y-144315891D01*
X60618608Y-144443187D01*
X60651554Y-144500250D01*
X60684500Y-144557314D01*
X60684502Y-144557316D01*
X61188181Y-145060995D01*
X61221666Y-145122318D01*
X61224500Y-145148676D01*
X61224500Y-145643010D01*
X61224501Y-145643029D01*
X61230687Y-145721643D01*
X61230688Y-145721645D01*
X61279680Y-145904488D01*
X61301783Y-145947868D01*
X61365614Y-146073146D01*
X61484743Y-146220257D01*
X61525961Y-146253635D01*
X61565672Y-146311122D01*
X61567999Y-146380953D01*
X61532203Y-146440957D01*
X61525961Y-146446365D01*
X61484743Y-146479742D01*
X61365614Y-146626853D01*
X61279680Y-146795512D01*
X61230687Y-146978356D01*
X61230687Y-146978357D01*
X61224500Y-147056973D01*
X61224500Y-148183010D01*
X61224501Y-148183029D01*
X61230687Y-148261643D01*
X61240376Y-148297802D01*
X61279680Y-148444488D01*
X61301783Y-148487868D01*
X61365614Y-148613146D01*
X61484743Y-148760257D01*
X61525961Y-148793635D01*
X61565672Y-148851122D01*
X61567999Y-148920953D01*
X61532203Y-148980957D01*
X61525961Y-148986365D01*
X61484743Y-149019742D01*
X61365614Y-149166853D01*
X61279680Y-149335512D01*
X61230687Y-149518356D01*
X61230687Y-149518357D01*
X61224500Y-149596973D01*
X61224500Y-150723010D01*
X61224501Y-150723029D01*
X61230687Y-150801643D01*
X61230688Y-150801645D01*
X61279680Y-150984488D01*
X61301783Y-151027868D01*
X61365614Y-151153146D01*
X61484743Y-151300257D01*
X61525961Y-151333635D01*
X61565672Y-151391122D01*
X61567999Y-151460953D01*
X61532203Y-151520957D01*
X61525961Y-151526365D01*
X61484743Y-151559742D01*
X61365614Y-151706853D01*
X61279680Y-151875512D01*
X61230687Y-152058356D01*
X61230687Y-152058357D01*
X61224500Y-152136973D01*
X61224500Y-153263010D01*
X61224501Y-153263029D01*
X61230687Y-153341643D01*
X61254007Y-153428673D01*
X61279680Y-153524488D01*
X61291007Y-153546718D01*
X61365614Y-153693146D01*
X61484743Y-153840257D01*
X61525961Y-153873635D01*
X61565672Y-153931122D01*
X61567999Y-154000953D01*
X61532203Y-154060957D01*
X61525961Y-154066365D01*
X61484743Y-154099742D01*
X61365614Y-154246853D01*
X61279680Y-154415512D01*
X61230687Y-154598356D01*
X61230687Y-154598357D01*
X61224500Y-154676973D01*
X61224500Y-155803010D01*
X61224501Y-155803029D01*
X61230687Y-155881643D01*
X61230688Y-155881645D01*
X61279680Y-156064488D01*
X61301783Y-156107868D01*
X61365614Y-156233146D01*
X61414859Y-156293958D01*
X61484743Y-156380257D01*
X61574920Y-156453281D01*
X61631853Y-156499385D01*
X61715371Y-156541938D01*
X61800512Y-156585320D01*
X61983355Y-156634312D01*
X62061979Y-156640500D01*
X63938020Y-156640499D01*
X64016645Y-156634312D01*
X64199488Y-156585320D01*
X64328008Y-156519835D01*
X64368146Y-156499385D01*
X64368147Y-156499383D01*
X64368149Y-156499383D01*
X64515257Y-156380257D01*
X64634383Y-156233149D01*
X64720320Y-156064488D01*
X64769312Y-155881645D01*
X64770640Y-155864772D01*
X64795524Y-155799483D01*
X64851755Y-155758012D01*
X64894258Y-155750500D01*
X65565890Y-155750500D01*
X65565892Y-155750500D01*
X65693186Y-155716392D01*
X65807314Y-155650500D01*
X66400500Y-155057314D01*
X66466392Y-154943186D01*
X66500500Y-154815892D01*
X66500500Y-154684107D01*
X66500500Y-153935638D01*
X66874500Y-153935638D01*
X66874500Y-154414363D01*
X66889953Y-154531753D01*
X66889956Y-154531762D01*
X66900974Y-154558363D01*
X66950464Y-154677841D01*
X67046718Y-154803282D01*
X67090361Y-154836770D01*
X67174880Y-154901624D01*
X67216082Y-154958053D01*
X67220237Y-155027799D01*
X67186024Y-155088719D01*
X67174880Y-155098376D01*
X67046718Y-155196718D01*
X66950463Y-155322160D01*
X66889956Y-155468237D01*
X66889955Y-155468239D01*
X66874500Y-155585638D01*
X66874500Y-156064363D01*
X66889953Y-156181753D01*
X66889956Y-156181762D01*
X66950464Y-156327841D01*
X67046718Y-156453282D01*
X67172159Y-156549536D01*
X67318238Y-156610044D01*
X67435639Y-156625500D01*
X68064360Y-156625499D01*
X68064363Y-156625499D01*
X68181753Y-156610046D01*
X68181757Y-156610044D01*
X68181762Y-156610044D01*
X68327841Y-156549536D01*
X68453282Y-156453282D01*
X68549536Y-156327841D01*
X68610044Y-156181762D01*
X68625500Y-156064361D01*
X68625499Y-155585640D01*
X68625499Y-155585638D01*
X68625499Y-155585636D01*
X68610046Y-155468246D01*
X68610044Y-155468239D01*
X68610044Y-155468238D01*
X68549536Y-155322159D01*
X68453282Y-155196718D01*
X68453280Y-155196717D01*
X68453280Y-155196716D01*
X68325120Y-155098376D01*
X68283917Y-155041948D01*
X68279762Y-154972202D01*
X68313974Y-154911282D01*
X68325120Y-154901624D01*
X68409639Y-154836770D01*
X68453282Y-154803282D01*
X68549536Y-154677841D01*
X68610044Y-154531762D01*
X68625500Y-154414361D01*
X68625499Y-153935640D01*
X68625499Y-153935638D01*
X68625499Y-153935636D01*
X68610046Y-153818246D01*
X68610044Y-153818239D01*
X68610044Y-153818238D01*
X68549536Y-153672159D01*
X68453282Y-153546718D01*
X68327841Y-153450464D01*
X68275235Y-153428674D01*
X68181762Y-153389956D01*
X68181760Y-153389955D01*
X68064361Y-153374500D01*
X67435636Y-153374500D01*
X67318246Y-153389953D01*
X67318237Y-153389956D01*
X67172160Y-153450463D01*
X67046718Y-153546718D01*
X66950463Y-153672160D01*
X66889956Y-153818237D01*
X66889955Y-153818239D01*
X66874500Y-153935638D01*
X66500500Y-153935638D01*
X66500500Y-138541518D01*
X66520185Y-138474479D01*
X66536823Y-138453833D01*
X66544114Y-138446542D01*
X66620775Y-138331811D01*
X66673580Y-138204328D01*
X66700500Y-138068993D01*
X66700500Y-137931007D01*
X66700500Y-137931004D01*
X66673581Y-137795677D01*
X66673580Y-137795676D01*
X66673580Y-137795672D01*
X66673578Y-137795667D01*
X66620778Y-137668195D01*
X66620771Y-137668182D01*
X66544114Y-137553458D01*
X66544111Y-137553454D01*
X66446545Y-137455888D01*
X66446541Y-137455885D01*
X66331817Y-137379228D01*
X66331804Y-137379221D01*
X66204332Y-137326421D01*
X66204322Y-137326418D01*
X66068995Y-137299500D01*
X66068993Y-137299500D01*
X65931007Y-137299500D01*
X65931005Y-137299500D01*
X65795677Y-137326418D01*
X65795667Y-137326421D01*
X65668195Y-137379221D01*
X65668182Y-137379228D01*
X65553458Y-137455885D01*
X65553454Y-137455888D01*
X65455888Y-137553454D01*
X65455885Y-137553458D01*
X65379228Y-137668182D01*
X65379221Y-137668195D01*
X65326421Y-137795667D01*
X65326418Y-137795677D01*
X65299500Y-137931004D01*
X65299500Y-137931007D01*
X65299500Y-138068993D01*
X65299500Y-138068995D01*
X65299499Y-138068995D01*
X65326418Y-138204322D01*
X65326421Y-138204332D01*
X65379221Y-138331804D01*
X65379228Y-138331817D01*
X65455885Y-138446541D01*
X65463177Y-138453833D01*
X65496665Y-138515155D01*
X65499500Y-138541518D01*
X65499500Y-154491324D01*
X65490855Y-154520764D01*
X65484332Y-154550751D01*
X65480577Y-154555766D01*
X65479815Y-154558363D01*
X65463181Y-154579005D01*
X65329005Y-154713181D01*
X65267682Y-154746666D01*
X65241324Y-154749500D01*
X64895831Y-154749500D01*
X64828792Y-154729815D01*
X64783037Y-154677011D01*
X64772213Y-154635226D01*
X64769312Y-154598356D01*
X64761445Y-154568995D01*
X64720320Y-154415512D01*
X64643537Y-154264816D01*
X64634385Y-154246853D01*
X64597679Y-154201525D01*
X64515257Y-154099743D01*
X64474037Y-154066364D01*
X64434328Y-154008879D01*
X64432000Y-153939048D01*
X64467795Y-153879044D01*
X64474025Y-153873645D01*
X64515257Y-153840257D01*
X64634383Y-153693149D01*
X64645078Y-153672160D01*
X64655914Y-153650892D01*
X64720320Y-153524488D01*
X64769312Y-153341645D01*
X64775500Y-153263021D01*
X64775499Y-152136980D01*
X64769312Y-152058355D01*
X64720320Y-151875512D01*
X64664369Y-151765702D01*
X64634385Y-151706853D01*
X64596676Y-151660287D01*
X64515257Y-151559743D01*
X64474037Y-151526364D01*
X64434328Y-151468879D01*
X64432000Y-151399048D01*
X64467795Y-151339044D01*
X64474025Y-151333645D01*
X64515257Y-151300257D01*
X64634383Y-151153149D01*
X64720320Y-150984488D01*
X64769312Y-150801645D01*
X64775500Y-150723021D01*
X64775499Y-149596980D01*
X64769312Y-149518355D01*
X64720320Y-149335512D01*
X64669167Y-149235119D01*
X64634385Y-149166853D01*
X64597679Y-149121525D01*
X64515257Y-149019743D01*
X64474037Y-148986364D01*
X64434328Y-148928879D01*
X64432000Y-148859048D01*
X64467795Y-148799044D01*
X64474025Y-148793645D01*
X64515257Y-148760257D01*
X64634383Y-148613149D01*
X64720320Y-148444488D01*
X64769312Y-148261645D01*
X64775500Y-148183021D01*
X64775499Y-147056980D01*
X64769312Y-146978355D01*
X64720320Y-146795512D01*
X64676938Y-146710371D01*
X64634385Y-146626853D01*
X64601554Y-146586311D01*
X64515257Y-146479743D01*
X64474037Y-146446364D01*
X64434328Y-146388879D01*
X64432000Y-146319048D01*
X64467795Y-146259044D01*
X64474025Y-146253645D01*
X64515257Y-146220257D01*
X64634383Y-146073149D01*
X64720320Y-145904488D01*
X64769312Y-145721645D01*
X64775500Y-145643021D01*
X64775499Y-144516980D01*
X64769312Y-144438355D01*
X64720320Y-144255512D01*
X64676938Y-144170371D01*
X64634385Y-144086853D01*
X64601554Y-144046311D01*
X64515257Y-143939743D01*
X64474037Y-143906364D01*
X64434328Y-143848879D01*
X64432000Y-143779048D01*
X64467795Y-143719044D01*
X64474025Y-143713645D01*
X64515257Y-143680257D01*
X64634383Y-143533149D01*
X64720320Y-143364488D01*
X64769312Y-143181645D01*
X64775500Y-143103021D01*
X64775499Y-141976980D01*
X64769312Y-141898355D01*
X64720320Y-141715512D01*
X64676938Y-141630371D01*
X64634385Y-141546853D01*
X64601554Y-141506311D01*
X64515257Y-141399743D01*
X64474037Y-141366364D01*
X64434328Y-141308879D01*
X64432000Y-141239048D01*
X64467795Y-141179044D01*
X64474025Y-141173645D01*
X64515257Y-141140257D01*
X64634383Y-140993149D01*
X64647088Y-140968215D01*
X64665666Y-140931753D01*
X64720320Y-140824488D01*
X64769312Y-140641645D01*
X64775500Y-140563021D01*
X64775499Y-139436980D01*
X64769312Y-139358355D01*
X64720320Y-139175512D01*
X64676938Y-139090371D01*
X64634385Y-139006853D01*
X64575478Y-138934110D01*
X64515257Y-138859743D01*
X64428958Y-138789859D01*
X64368146Y-138740614D01*
X64242868Y-138676783D01*
X64199488Y-138654680D01*
X64132562Y-138636747D01*
X64016643Y-138605687D01*
X63944736Y-138600028D01*
X63938021Y-138599500D01*
X63938020Y-138599500D01*
X62061989Y-138599500D01*
X62061970Y-138599501D01*
X61983356Y-138605687D01*
X61800512Y-138654680D01*
X61631853Y-138740614D01*
X61484743Y-138859743D01*
X61365614Y-139006853D01*
X61279680Y-139175512D01*
X61230687Y-139358356D01*
X61230687Y-139358357D01*
X61224500Y-139436973D01*
X61224500Y-140382324D01*
X61204815Y-140449363D01*
X61152011Y-140495118D01*
X61082853Y-140505062D01*
X61019297Y-140476037D01*
X61012819Y-140470005D01*
X56069819Y-135527005D01*
X56036334Y-135465682D01*
X56033500Y-135439324D01*
X56033500Y-134963499D01*
X56053185Y-134896460D01*
X56105989Y-134850705D01*
X56157500Y-134839499D01*
X57681871Y-134839499D01*
X57681872Y-134839499D01*
X57741483Y-134833091D01*
X57876331Y-134782796D01*
X57901128Y-134764233D01*
X57966592Y-134739816D01*
X57975439Y-134739500D01*
X61343390Y-134739500D01*
X61343392Y-134739500D01*
X61470686Y-134705392D01*
X61584814Y-134639500D01*
X69150500Y-127073814D01*
X69216392Y-126959686D01*
X69250500Y-126832392D01*
X69250500Y-126700607D01*
X69250500Y-110566108D01*
X69243825Y-110541198D01*
X69216392Y-110438814D01*
X69202010Y-110413904D01*
X69150500Y-110324686D01*
X69057314Y-110231500D01*
X69057313Y-110231499D01*
X69052983Y-110227169D01*
X69052972Y-110227159D01*
X68537819Y-109712005D01*
X68504334Y-109650682D01*
X68501500Y-109624324D01*
X68501500Y-109562989D01*
X68500250Y-109531179D01*
X68500249Y-109531177D01*
X68476874Y-109433822D01*
X68470631Y-109407818D01*
X68467702Y-109400747D01*
X68438819Y-109344060D01*
X68438815Y-109344055D01*
X68438812Y-109344050D01*
X68356430Y-109247590D01*
X68349006Y-109241250D01*
X68350751Y-109239205D01*
X68313834Y-109198398D01*
X68301500Y-109144485D01*
X68301500Y-109062989D01*
X68300250Y-109031179D01*
X68300249Y-109031177D01*
X68276874Y-108933822D01*
X68270631Y-108907818D01*
X68267702Y-108900747D01*
X68238819Y-108844060D01*
X68238815Y-108844055D01*
X68238812Y-108844050D01*
X68156430Y-108747590D01*
X68156426Y-108747587D01*
X68095709Y-108710379D01*
X68048834Y-108658566D01*
X68036500Y-108604652D01*
X68036500Y-105776677D01*
X68056185Y-105709638D01*
X68099346Y-105670590D01*
X68098868Y-105669875D01*
X68103721Y-105666632D01*
X68104209Y-105666191D01*
X68104940Y-105665819D01*
X68104945Y-105665814D01*
X68104949Y-105665812D01*
X68201409Y-105583430D01*
X68201410Y-105583427D01*
X68201413Y-105583426D01*
X68267702Y-105475253D01*
X68270631Y-105468182D01*
X68281653Y-105438306D01*
X68301500Y-105313000D01*
X68301500Y-105225923D01*
X68321185Y-105158884D01*
X68344970Y-105131631D01*
X68348738Y-105128413D01*
X68401413Y-105083426D01*
X68467702Y-104975253D01*
X68470631Y-104968182D01*
X68481653Y-104938306D01*
X68501500Y-104813000D01*
X68501500Y-104613000D01*
X68501271Y-104607180D01*
X68500250Y-104581179D01*
X68500249Y-104581177D01*
X68476874Y-104483822D01*
X68470631Y-104457818D01*
X68467702Y-104450747D01*
X68438819Y-104394060D01*
X68438815Y-104394055D01*
X68438812Y-104394050D01*
X68356430Y-104297590D01*
X68356424Y-104297585D01*
X68248259Y-104231301D01*
X68248251Y-104231297D01*
X68241179Y-104228367D01*
X68211307Y-104217347D01*
X68211305Y-104217346D01*
X68105846Y-104200643D01*
X68086000Y-104197500D01*
X68085999Y-104197500D01*
X67124500Y-104197500D01*
X67057461Y-104177815D01*
X67011706Y-104125011D01*
X67000500Y-104073500D01*
X67000500Y-98266675D01*
X67020185Y-98199636D01*
X67036819Y-98178994D01*
X67446994Y-97768819D01*
X67508317Y-97735334D01*
X67534675Y-97732500D01*
X68086010Y-97732500D01*
X68117820Y-97731250D01*
X68241182Y-97701631D01*
X68248253Y-97698702D01*
X68304940Y-97669819D01*
X68304946Y-97669813D01*
X68304949Y-97669812D01*
X68401409Y-97587430D01*
X68401410Y-97587427D01*
X68401413Y-97587426D01*
X68467702Y-97479253D01*
X68470631Y-97472182D01*
X68481653Y-97442306D01*
X68501500Y-97317000D01*
X68501500Y-97117000D01*
X68500250Y-97085180D01*
X68470631Y-96961818D01*
X68467702Y-96954747D01*
X68438819Y-96898060D01*
X68438815Y-96898055D01*
X68438812Y-96898050D01*
X68356430Y-96801590D01*
X68349006Y-96795250D01*
X68350751Y-96793205D01*
X68313834Y-96752398D01*
X68301500Y-96698485D01*
X68301500Y-96616989D01*
X68300250Y-96585179D01*
X68300249Y-96585177D01*
X68270632Y-96461822D01*
X68270631Y-96461820D01*
X68270631Y-96461818D01*
X68267702Y-96454747D01*
X68238819Y-96398060D01*
X68238815Y-96398055D01*
X68238812Y-96398050D01*
X68156430Y-96301590D01*
X68156426Y-96301587D01*
X68095709Y-96264379D01*
X68048834Y-96212566D01*
X68036500Y-96158652D01*
X68036500Y-93330677D01*
X68056185Y-93263638D01*
X68099346Y-93224590D01*
X68098868Y-93223875D01*
X68103721Y-93220632D01*
X68104209Y-93220191D01*
X68104940Y-93219819D01*
X68104945Y-93219814D01*
X68104949Y-93219812D01*
X68201409Y-93137430D01*
X68201410Y-93137427D01*
X68201413Y-93137426D01*
X68267702Y-93029253D01*
X68270631Y-93022182D01*
X68281653Y-92992306D01*
X68301500Y-92867000D01*
X68301500Y-92779923D01*
X68321185Y-92712884D01*
X68344970Y-92685631D01*
X68348738Y-92682413D01*
X68401413Y-92637426D01*
X68467702Y-92529253D01*
X68470631Y-92522182D01*
X68481653Y-92492306D01*
X68501500Y-92367000D01*
X68501500Y-92167000D01*
X68500250Y-92135180D01*
X68470631Y-92011818D01*
X68467702Y-92004747D01*
X68438819Y-91948060D01*
X68438815Y-91948055D01*
X68438812Y-91948050D01*
X68356430Y-91851590D01*
X68356424Y-91851585D01*
X68248259Y-91785301D01*
X68248251Y-91785297D01*
X68241179Y-91782367D01*
X68211307Y-91771347D01*
X68211305Y-91771346D01*
X68105846Y-91754643D01*
X68086000Y-91751500D01*
X68085999Y-91751500D01*
X67963738Y-91751500D01*
X67896699Y-91731815D01*
X67850944Y-91679011D01*
X67841000Y-91609853D01*
X67870025Y-91546297D01*
X67876057Y-91539819D01*
X68189951Y-91225923D01*
X69784878Y-89630995D01*
X69784883Y-89630992D01*
X69795086Y-89620788D01*
X69795088Y-89620788D01*
X69888274Y-89527602D01*
X69954166Y-89413474D01*
X69955324Y-89409149D01*
X69957642Y-89400502D01*
X69957642Y-89400501D01*
X69962985Y-89380556D01*
X69988274Y-89286181D01*
X69988274Y-89154396D01*
X69988274Y-65770497D01*
X70007959Y-65703458D01*
X70060763Y-65657703D01*
X70073947Y-65652569D01*
X70121346Y-65637169D01*
X70352825Y-65519224D01*
X70563003Y-65366521D01*
X70746705Y-65182819D01*
X70899408Y-64972641D01*
X71017353Y-64741162D01*
X71095024Y-64502117D01*
X71134462Y-64444441D01*
X71198820Y-64417243D01*
X71267667Y-64429158D01*
X71319142Y-64476402D01*
X71336955Y-64540435D01*
X71336955Y-157589500D01*
X71317270Y-157656539D01*
X71264466Y-157702294D01*
X71212955Y-157713500D01*
X56579214Y-157713500D01*
X56512175Y-157693815D01*
X56466420Y-157641011D01*
X56456476Y-157571853D01*
X56485501Y-157508297D01*
X56540895Y-157471569D01*
X56560436Y-157465219D01*
X56698425Y-157420384D01*
X56873805Y-157331024D01*
X57033046Y-157215328D01*
X57172228Y-157076146D01*
X57287924Y-156916905D01*
X57377284Y-156741525D01*
X57438109Y-156554326D01*
X57454113Y-156453281D01*
X57468900Y-156359922D01*
X57468900Y-156163077D01*
X57438109Y-155968677D01*
X57438109Y-155968674D01*
X57433639Y-155954919D01*
X57431645Y-155885080D01*
X57463888Y-155828924D01*
X58055994Y-155236819D01*
X58117317Y-155203334D01*
X58143675Y-155200500D01*
X58153995Y-155200500D01*
X58245041Y-155182389D01*
X58289328Y-155173580D01*
X58416811Y-155120775D01*
X58531542Y-155044114D01*
X58629114Y-154946542D01*
X58705775Y-154831811D01*
X58758580Y-154704328D01*
X58779659Y-154598357D01*
X58785500Y-154568995D01*
X58785500Y-154558676D01*
X58805185Y-154491637D01*
X58821819Y-154470995D01*
X59400496Y-153892318D01*
X59400499Y-153892315D01*
X59400500Y-153892311D01*
X59400503Y-153892309D01*
X59427419Y-153845690D01*
X59439474Y-153824810D01*
X59466392Y-153778186D01*
X59474981Y-153746132D01*
X59478101Y-153734490D01*
X59486445Y-153703347D01*
X59500500Y-153650893D01*
X59500500Y-153519108D01*
X59500500Y-147934108D01*
X59466392Y-147806814D01*
X59400500Y-147692686D01*
X59307314Y-147599500D01*
X56807314Y-145099500D01*
X56740622Y-145060995D01*
X56693187Y-145033608D01*
X56629539Y-145016554D01*
X56565892Y-144999500D01*
X56565891Y-144999500D01*
X52758676Y-144999500D01*
X52691637Y-144979815D01*
X52670995Y-144963181D01*
X51120453Y-143412639D01*
X53215612Y-143412639D01*
X53301646Y-143549562D01*
X53425137Y-143673053D01*
X53573013Y-143765969D01*
X53737860Y-143823651D01*
X53867869Y-143838299D01*
X53867873Y-143838300D01*
X54504927Y-143838300D01*
X54504930Y-143838299D01*
X54634939Y-143823651D01*
X54799786Y-143765969D01*
X54947662Y-143673053D01*
X55071156Y-143549559D01*
X55157187Y-143412640D01*
X54186400Y-142441853D01*
X53215612Y-143412639D01*
X51120453Y-143412639D01*
X51036819Y-143329005D01*
X51003334Y-143267682D01*
X51000500Y-143241324D01*
X51000500Y-142784747D01*
X53136400Y-142784747D01*
X53832847Y-142088300D01*
X53832847Y-142088299D01*
X53783120Y-142038572D01*
X53936400Y-142038572D01*
X53936400Y-142138028D01*
X53974460Y-142229914D01*
X54044786Y-142300240D01*
X54136672Y-142338300D01*
X54236128Y-142338300D01*
X54328014Y-142300240D01*
X54398340Y-142229914D01*
X54436400Y-142138028D01*
X54436400Y-142088299D01*
X54539953Y-142088299D01*
X54539953Y-142088300D01*
X55236399Y-142784747D01*
X55236400Y-142784746D01*
X55236400Y-141391853D01*
X55236399Y-141391852D01*
X54539953Y-142088299D01*
X54436400Y-142088299D01*
X54436400Y-142038572D01*
X54398340Y-141946686D01*
X54328014Y-141876360D01*
X54236128Y-141838300D01*
X54136672Y-141838300D01*
X54044786Y-141876360D01*
X53974460Y-141946686D01*
X53936400Y-142038572D01*
X53783120Y-142038572D01*
X53136400Y-141391852D01*
X53136400Y-142784747D01*
X51000500Y-142784747D01*
X51000500Y-140763959D01*
X53215612Y-140763959D01*
X54186400Y-141734747D01*
X54186401Y-141734747D01*
X54862440Y-141058706D01*
X55775900Y-141058706D01*
X55775900Y-143117894D01*
X55782085Y-143185957D01*
X55782086Y-143185962D01*
X55782087Y-143185964D01*
X55830885Y-143342563D01*
X55830888Y-143342572D01*
X55915748Y-143482948D01*
X55915751Y-143482952D01*
X56031747Y-143598948D01*
X56031751Y-143598951D01*
X56172127Y-143683811D01*
X56172130Y-143683812D01*
X56328743Y-143732615D01*
X56396806Y-143738800D01*
X56396809Y-143738800D01*
X57055991Y-143738800D01*
X57055994Y-143738800D01*
X57124057Y-143732615D01*
X57280670Y-143683812D01*
X57286553Y-143680256D01*
X57421048Y-143598951D01*
X57421047Y-143598951D01*
X57421053Y-143598948D01*
X57537048Y-143482953D01*
X57566576Y-143434108D01*
X57621911Y-143342572D01*
X57621914Y-143342563D01*
X57626139Y-143329005D01*
X57670715Y-143185957D01*
X57676900Y-143117894D01*
X57676900Y-141058706D01*
X57670715Y-140990643D01*
X57621912Y-140834030D01*
X57621911Y-140834027D01*
X57537051Y-140693651D01*
X57537048Y-140693647D01*
X57421052Y-140577651D01*
X57421048Y-140577648D01*
X57280672Y-140492788D01*
X57280663Y-140492785D01*
X57124064Y-140443987D01*
X57124062Y-140443986D01*
X57124057Y-140443985D01*
X57055994Y-140437800D01*
X56396806Y-140437800D01*
X56328743Y-140443985D01*
X56328739Y-140443986D01*
X56328735Y-140443987D01*
X56172136Y-140492785D01*
X56172127Y-140492788D01*
X56031751Y-140577648D01*
X56031747Y-140577651D01*
X55915751Y-140693647D01*
X55915748Y-140693651D01*
X55830888Y-140834027D01*
X55830885Y-140834036D01*
X55782087Y-140990635D01*
X55782085Y-140990643D01*
X55775900Y-141058706D01*
X54862440Y-141058706D01*
X54952931Y-140968215D01*
X55157186Y-140763959D01*
X55071153Y-140627037D01*
X54947662Y-140503546D01*
X54799786Y-140410630D01*
X54634939Y-140352948D01*
X54504930Y-140338300D01*
X53867869Y-140338300D01*
X53737860Y-140352948D01*
X53573013Y-140410630D01*
X53425137Y-140503546D01*
X53301645Y-140627038D01*
X53215612Y-140763959D01*
X51000500Y-140763959D01*
X51000500Y-138934110D01*
X51000500Y-138934108D01*
X50966392Y-138806814D01*
X50900500Y-138692686D01*
X50807314Y-138599500D01*
X48986819Y-136779005D01*
X48953334Y-136717682D01*
X48950500Y-136691324D01*
X48950500Y-136681004D01*
X48923581Y-136545677D01*
X48923580Y-136545676D01*
X48923580Y-136545672D01*
X48883744Y-136449499D01*
X48870778Y-136418195D01*
X48870771Y-136418182D01*
X48794114Y-136303458D01*
X48794111Y-136303454D01*
X48696545Y-136205888D01*
X48696541Y-136205885D01*
X48581817Y-136129228D01*
X48581804Y-136129221D01*
X48454332Y-136076421D01*
X48454322Y-136076418D01*
X48318995Y-136049500D01*
X48318993Y-136049500D01*
X48181007Y-136049500D01*
X48181005Y-136049500D01*
X48045677Y-136076418D01*
X48045667Y-136076421D01*
X47918195Y-136129221D01*
X47918182Y-136129228D01*
X47803458Y-136205885D01*
X47803454Y-136205888D01*
X47705888Y-136303454D01*
X47705885Y-136303458D01*
X47629228Y-136418182D01*
X47629221Y-136418195D01*
X47576421Y-136545667D01*
X47576418Y-136545677D01*
X47549500Y-136681004D01*
X47549500Y-136681007D01*
X47549500Y-136818993D01*
X47549500Y-136818995D01*
X47549499Y-136818995D01*
X47576418Y-136954322D01*
X47576421Y-136954332D01*
X47629221Y-137081804D01*
X47629228Y-137081817D01*
X47705885Y-137196541D01*
X47705888Y-137196545D01*
X47803454Y-137294111D01*
X47803458Y-137294114D01*
X47918182Y-137370771D01*
X47918195Y-137370778D01*
X48045667Y-137423578D01*
X48045672Y-137423580D01*
X48045676Y-137423580D01*
X48045677Y-137423581D01*
X48181004Y-137450500D01*
X48181007Y-137450500D01*
X48191324Y-137450500D01*
X48258363Y-137470185D01*
X48279005Y-137486819D01*
X49963181Y-139170995D01*
X49996666Y-139232318D01*
X49999500Y-139258676D01*
X49999500Y-143565891D01*
X50033608Y-143693187D01*
X50056372Y-143732614D01*
X50099500Y-143807314D01*
X52192686Y-145900500D01*
X52306814Y-145966392D01*
X52434107Y-146000500D01*
X52434108Y-146000500D01*
X56241324Y-146000500D01*
X56308363Y-146020185D01*
X56329005Y-146036819D01*
X58463181Y-148170995D01*
X58496666Y-148232318D01*
X58499500Y-148258676D01*
X58499500Y-153326324D01*
X58479815Y-153393363D01*
X58463181Y-153414005D01*
X58114005Y-153763181D01*
X58052682Y-153796666D01*
X58026324Y-153799500D01*
X58016005Y-153799500D01*
X57880677Y-153826418D01*
X57880667Y-153826421D01*
X57753195Y-153879221D01*
X57753182Y-153879228D01*
X57660460Y-153941184D01*
X57593782Y-153962062D01*
X57526402Y-153943577D01*
X57479712Y-153891599D01*
X57468889Y-153824810D01*
X57468518Y-153824781D01*
X57468637Y-153823257D01*
X57468536Y-153822629D01*
X57468875Y-153820232D01*
X57468900Y-153819924D01*
X57468900Y-153623077D01*
X57438109Y-153428673D01*
X57399231Y-153309020D01*
X57377284Y-153241475D01*
X57377282Y-153241472D01*
X57377282Y-153241470D01*
X57322079Y-153133129D01*
X57287924Y-153066095D01*
X57172228Y-152906854D01*
X57033046Y-152767672D01*
X56882628Y-152658386D01*
X56873803Y-152651974D01*
X56697187Y-152561985D01*
X56646390Y-152514011D01*
X56629595Y-152446190D01*
X56652132Y-152380055D01*
X56697187Y-152341015D01*
X56873803Y-152251025D01*
X56873802Y-152251025D01*
X56873805Y-152251024D01*
X57033046Y-152135328D01*
X57172228Y-151996146D01*
X57287924Y-151836905D01*
X57377284Y-151661525D01*
X57438109Y-151474326D01*
X57443448Y-151440617D01*
X57468900Y-151279922D01*
X57468900Y-151083077D01*
X57438109Y-150888673D01*
X57384286Y-150723026D01*
X57377284Y-150701475D01*
X57377282Y-150701472D01*
X57377282Y-150701470D01*
X57305454Y-150560500D01*
X57287924Y-150526095D01*
X57172228Y-150366854D01*
X57033046Y-150227672D01*
X56953425Y-150169824D01*
X56873803Y-150111974D01*
X56697187Y-150021985D01*
X56646390Y-149974011D01*
X56629595Y-149906190D01*
X56652132Y-149840055D01*
X56697187Y-149801015D01*
X56873803Y-149711025D01*
X56873802Y-149711025D01*
X56873805Y-149711024D01*
X57033046Y-149595328D01*
X57172228Y-149456146D01*
X57287924Y-149296905D01*
X57377284Y-149121525D01*
X57438109Y-148934326D01*
X57443448Y-148900617D01*
X57468900Y-148739922D01*
X57468900Y-148543077D01*
X57438109Y-148348673D01*
X57400169Y-148231908D01*
X57377284Y-148161475D01*
X57377282Y-148161472D01*
X57377282Y-148161470D01*
X57287923Y-147986094D01*
X57250154Y-147934110D01*
X57172228Y-147826854D01*
X57033046Y-147687672D01*
X56873805Y-147571976D01*
X56698429Y-147482617D01*
X56511226Y-147421790D01*
X56316822Y-147391000D01*
X56316817Y-147391000D01*
X56119983Y-147391000D01*
X56119978Y-147391000D01*
X55925573Y-147421790D01*
X55738370Y-147482617D01*
X55562994Y-147571976D01*
X55484817Y-147628776D01*
X55403754Y-147687672D01*
X55403752Y-147687674D01*
X55403751Y-147687674D01*
X55264574Y-147826851D01*
X55264574Y-147826852D01*
X55264572Y-147826854D01*
X55226006Y-147879934D01*
X55148872Y-147986099D01*
X55090713Y-148100243D01*
X55042739Y-148151039D01*
X54974918Y-148167834D01*
X54908783Y-148145296D01*
X54869744Y-148100243D01*
X54840523Y-148042894D01*
X54724828Y-147883654D01*
X54585646Y-147744472D01*
X54426405Y-147628776D01*
X54251029Y-147539417D01*
X54063826Y-147478590D01*
X53869422Y-147447800D01*
X53869417Y-147447800D01*
X53672583Y-147447800D01*
X53672578Y-147447800D01*
X53478173Y-147478590D01*
X53290970Y-147539417D01*
X53115594Y-147628776D01*
X53034532Y-147687672D01*
X52956354Y-147744472D01*
X52956352Y-147744474D01*
X52956351Y-147744474D01*
X52817174Y-147883651D01*
X52817174Y-147883652D01*
X52817172Y-147883654D01*
X52767485Y-147952041D01*
X52701476Y-148042894D01*
X52657045Y-148130095D01*
X52609070Y-148180891D01*
X52546560Y-148197800D01*
X51070808Y-148197800D01*
X50943512Y-148231908D01*
X50829386Y-148297800D01*
X50829383Y-148297802D01*
X49504005Y-149623181D01*
X49442682Y-149656666D01*
X49416324Y-149659500D01*
X48730045Y-149659500D01*
X48663006Y-149639815D01*
X48617251Y-149587011D01*
X48606427Y-149545229D01*
X48604312Y-149518356D01*
X48602863Y-149512947D01*
X48555320Y-149335512D01*
X48504167Y-149235119D01*
X48469385Y-149166853D01*
X48432679Y-149121525D01*
X48350257Y-149019743D01*
X48309037Y-148986364D01*
X48269328Y-148928879D01*
X48267000Y-148859048D01*
X48302795Y-148799044D01*
X48309025Y-148793645D01*
X48350257Y-148760257D01*
X48469383Y-148613149D01*
X48555320Y-148444488D01*
X48604312Y-148261645D01*
X48610500Y-148183021D01*
X48610499Y-147056980D01*
X48604312Y-146978355D01*
X48555320Y-146795512D01*
X48511938Y-146710371D01*
X48469385Y-146626853D01*
X48436554Y-146586311D01*
X48350257Y-146479743D01*
X48309037Y-146446364D01*
X48269328Y-146388879D01*
X48267000Y-146319048D01*
X48302795Y-146259044D01*
X48309025Y-146253645D01*
X48350257Y-146220257D01*
X48469383Y-146073149D01*
X48555320Y-145904488D01*
X48604312Y-145721645D01*
X48610500Y-145643021D01*
X48610499Y-144516980D01*
X48604312Y-144438355D01*
X48555320Y-144255512D01*
X48511938Y-144170371D01*
X48469385Y-144086853D01*
X48436554Y-144046311D01*
X48350257Y-143939743D01*
X48309037Y-143906364D01*
X48269328Y-143848879D01*
X48267000Y-143779048D01*
X48302795Y-143719044D01*
X48309025Y-143713645D01*
X48350257Y-143680257D01*
X48469383Y-143533149D01*
X48555320Y-143364488D01*
X48604312Y-143181645D01*
X48610500Y-143103021D01*
X48610499Y-141976980D01*
X48604312Y-141898355D01*
X48555320Y-141715512D01*
X48511938Y-141630371D01*
X48469385Y-141546853D01*
X48436554Y-141506311D01*
X48350257Y-141399743D01*
X48309037Y-141366364D01*
X48269328Y-141308879D01*
X48267000Y-141239048D01*
X48302795Y-141179044D01*
X48309025Y-141173645D01*
X48350257Y-141140257D01*
X48469383Y-140993149D01*
X48482088Y-140968215D01*
X48500666Y-140931753D01*
X48555320Y-140824488D01*
X48604312Y-140641645D01*
X48610500Y-140563021D01*
X48610499Y-139436980D01*
X48604312Y-139358355D01*
X48555320Y-139175512D01*
X48511938Y-139090371D01*
X48469385Y-139006853D01*
X48410478Y-138934110D01*
X48350257Y-138859743D01*
X48263958Y-138789859D01*
X48203146Y-138740614D01*
X48077868Y-138676783D01*
X48034488Y-138654680D01*
X47967562Y-138636747D01*
X47851643Y-138605687D01*
X47779736Y-138600028D01*
X47773021Y-138599500D01*
X47773020Y-138599500D01*
X45896989Y-138599500D01*
X45896970Y-138599501D01*
X45818356Y-138605687D01*
X45635512Y-138654680D01*
X45466853Y-138740614D01*
X45319743Y-138859743D01*
X45200614Y-139006853D01*
X45114680Y-139175512D01*
X45065687Y-139358356D01*
X45063573Y-139385229D01*
X45038689Y-139450517D01*
X44982458Y-139491988D01*
X44939955Y-139499500D01*
X43684108Y-139499500D01*
X43556812Y-139533608D01*
X43442686Y-139599500D01*
X43442683Y-139599502D01*
X43004005Y-140038181D01*
X42942682Y-140071666D01*
X42916324Y-140074500D01*
X42112482Y-140074500D01*
X42045443Y-140054815D01*
X42014106Y-140025986D01*
X41953282Y-139946718D01*
X41827841Y-139850464D01*
X41825120Y-139848376D01*
X41783917Y-139791948D01*
X41779762Y-139722202D01*
X41813974Y-139661282D01*
X41825120Y-139651624D01*
X41846824Y-139634969D01*
X41953282Y-139553282D01*
X42049536Y-139427841D01*
X42110044Y-139281762D01*
X42125500Y-139164361D01*
X42125499Y-138685640D01*
X42125499Y-138685638D01*
X42125499Y-138685636D01*
X42110046Y-138568246D01*
X42110044Y-138568239D01*
X42110044Y-138568238D01*
X42049536Y-138422159D01*
X41953282Y-138296718D01*
X41953280Y-138296717D01*
X41953280Y-138296716D01*
X41827841Y-138200464D01*
X41827832Y-138200459D01*
X41827038Y-138200130D01*
X41826470Y-138199672D01*
X41820799Y-138196398D01*
X41821309Y-138195513D01*
X41772638Y-138156285D01*
X41750579Y-138089989D01*
X41750500Y-138085573D01*
X41750500Y-136449499D01*
X41770185Y-136382460D01*
X41822989Y-136336705D01*
X41874500Y-136325499D01*
X42581517Y-136325499D01*
X42581518Y-136325499D01*
X42675304Y-136310646D01*
X42788342Y-136253050D01*
X42878050Y-136163342D01*
X42935646Y-136050304D01*
X42935646Y-136050302D01*
X42935647Y-136050301D01*
X42950499Y-135956524D01*
X42950500Y-135956519D01*
X42950499Y-135043482D01*
X42935646Y-134949696D01*
X42878050Y-134836658D01*
X42878046Y-134836654D01*
X42878045Y-134836652D01*
X42788347Y-134746954D01*
X42788342Y-134746950D01*
X42765837Y-134735483D01*
X42759479Y-134729478D01*
X42751190Y-134726699D01*
X42734469Y-134705856D01*
X42715042Y-134687507D01*
X42712940Y-134679019D01*
X42707469Y-134672199D01*
X42704671Y-134645625D01*
X42698248Y-134619686D01*
X42701068Y-134611409D01*
X42700153Y-134602713D01*
X42712167Y-134578843D01*
X42720787Y-134553551D01*
X42728459Y-134546474D01*
X42731566Y-134540303D01*
X42751027Y-134525659D01*
X42759096Y-134518218D01*
X42762391Y-134516272D01*
X42788342Y-134503050D01*
X42793461Y-134497930D01*
X42806993Y-134489942D01*
X42826211Y-134485081D01*
X42843606Y-134475571D01*
X42859390Y-134476691D01*
X42874730Y-134472812D01*
X42893524Y-134479113D01*
X42913301Y-134480517D01*
X42925974Y-134489993D01*
X42940975Y-134495023D01*
X42953379Y-134510485D01*
X42969257Y-134522358D01*
X42976763Y-134533602D01*
X43031916Y-134626861D01*
X43031923Y-134626870D01*
X43148129Y-134743076D01*
X43148133Y-134743079D01*
X43148135Y-134743081D01*
X43289602Y-134826744D01*
X43323726Y-134836658D01*
X43447426Y-134872597D01*
X43447429Y-134872597D01*
X43447431Y-134872598D01*
X43484306Y-134875500D01*
X43484314Y-134875500D01*
X44115686Y-134875500D01*
X44115694Y-134875500D01*
X44152569Y-134872598D01*
X44152571Y-134872597D01*
X44152573Y-134872597D01*
X44227924Y-134850705D01*
X44310398Y-134826744D01*
X44451865Y-134743081D01*
X44568081Y-134626865D01*
X44585265Y-134597807D01*
X44636330Y-134550124D01*
X44705072Y-134537618D01*
X44769662Y-134564262D01*
X44797535Y-134595830D01*
X44857680Y-134693340D01*
X44857683Y-134693344D01*
X44981654Y-134817315D01*
X45130875Y-134909356D01*
X45130880Y-134909358D01*
X45297302Y-134964505D01*
X45297309Y-134964506D01*
X45400019Y-134974999D01*
X45950000Y-134974999D01*
X45999972Y-134974999D01*
X45999986Y-134974998D01*
X46102697Y-134964505D01*
X46269119Y-134909358D01*
X46269124Y-134909356D01*
X46418345Y-134817315D01*
X46542315Y-134693345D01*
X46634356Y-134544124D01*
X46634358Y-134544119D01*
X46669191Y-134439001D01*
X48341988Y-134439001D01*
X48349442Y-134495627D01*
X48349444Y-134495633D01*
X48409899Y-134641585D01*
X48506075Y-134766924D01*
X48631413Y-134863100D01*
X48777365Y-134923554D01*
X48777369Y-134923555D01*
X48894676Y-134938999D01*
X49583999Y-134938999D01*
X49984000Y-134938999D01*
X50673324Y-134938999D01*
X50790628Y-134923557D01*
X50790633Y-134923555D01*
X50936585Y-134863100D01*
X51061924Y-134766924D01*
X51158100Y-134641586D01*
X51218555Y-134495631D01*
X51226012Y-134439000D01*
X49984000Y-134439000D01*
X49984000Y-134938999D01*
X49583999Y-134938999D01*
X49584000Y-134938998D01*
X49584000Y-134439000D01*
X48341990Y-134439000D01*
X48341988Y-134439001D01*
X46669191Y-134439001D01*
X46689505Y-134377696D01*
X46689506Y-134377691D01*
X46699999Y-134274986D01*
X46700000Y-134274973D01*
X46700000Y-134000000D01*
X45950000Y-134000000D01*
X45950000Y-134974999D01*
X45400019Y-134974999D01*
X45449999Y-134974998D01*
X45450000Y-134974998D01*
X45450000Y-133500000D01*
X45950000Y-133500000D01*
X46699999Y-133500000D01*
X46699999Y-133225028D01*
X46699998Y-133225013D01*
X46689505Y-133122302D01*
X46634358Y-132955880D01*
X46634356Y-132955875D01*
X46542315Y-132806654D01*
X46418345Y-132682684D01*
X46269124Y-132590643D01*
X46269119Y-132590641D01*
X46102697Y-132535494D01*
X46102690Y-132535493D01*
X45999986Y-132525000D01*
X45950000Y-132525000D01*
X45950000Y-133500000D01*
X45450000Y-133500000D01*
X45450000Y-132525000D01*
X45449999Y-132524999D01*
X45400029Y-132525000D01*
X45400011Y-132525001D01*
X45297302Y-132535494D01*
X45130880Y-132590641D01*
X45130875Y-132590643D01*
X44981654Y-132682684D01*
X44857682Y-132806656D01*
X44797535Y-132904170D01*
X44745587Y-132950894D01*
X44676624Y-132962115D01*
X44612542Y-132934272D01*
X44585265Y-132902193D01*
X44568081Y-132873135D01*
X44568078Y-132873132D01*
X44568076Y-132873129D01*
X44451870Y-132756923D01*
X44451861Y-132756916D01*
X44322817Y-132680600D01*
X44275133Y-132629531D01*
X44267573Y-132609667D01*
X44266392Y-132606814D01*
X44200499Y-132492685D01*
X43986819Y-132279005D01*
X43953334Y-132217682D01*
X43950500Y-132191324D01*
X43950500Y-132181004D01*
X43923581Y-132045677D01*
X43923580Y-132045676D01*
X43923580Y-132045672D01*
X43923578Y-132045667D01*
X43870778Y-131918195D01*
X43870771Y-131918182D01*
X43794114Y-131803458D01*
X43794111Y-131803454D01*
X43696545Y-131705888D01*
X43696541Y-131705885D01*
X43581817Y-131629228D01*
X43581804Y-131629221D01*
X43454332Y-131576421D01*
X43454322Y-131576418D01*
X43318995Y-131549500D01*
X43318993Y-131549500D01*
X43181007Y-131549500D01*
X43181005Y-131549500D01*
X43045677Y-131576418D01*
X43045667Y-131576421D01*
X42918195Y-131629221D01*
X42918182Y-131629228D01*
X42803458Y-131705885D01*
X42803454Y-131705888D01*
X42705888Y-131803454D01*
X42705885Y-131803458D01*
X42629228Y-131918182D01*
X42629221Y-131918195D01*
X42576421Y-132045667D01*
X42576418Y-132045677D01*
X42549500Y-132181004D01*
X42549500Y-132181007D01*
X42549500Y-132318993D01*
X42549500Y-132318995D01*
X42549499Y-132318995D01*
X42576418Y-132454322D01*
X42576421Y-132454332D01*
X42629221Y-132581804D01*
X42629228Y-132581817D01*
X42705885Y-132696541D01*
X42705888Y-132696545D01*
X42730291Y-132720948D01*
X42763776Y-132782271D01*
X42758792Y-132851963D01*
X42716920Y-132907896D01*
X42651456Y-132932313D01*
X42623214Y-132931103D01*
X42581520Y-132924500D01*
X40918482Y-132924500D01*
X40837519Y-132937323D01*
X40824696Y-132939354D01*
X40711658Y-132996950D01*
X40711657Y-132996951D01*
X40711652Y-132996954D01*
X40621954Y-133086652D01*
X40621951Y-133086657D01*
X40621950Y-133086658D01*
X40621841Y-133086872D01*
X40564352Y-133199698D01*
X40549500Y-133293475D01*
X40549500Y-134206517D01*
X40560292Y-134274657D01*
X40564354Y-134300304D01*
X40621950Y-134413342D01*
X40621952Y-134413344D01*
X40621954Y-134413347D01*
X40711652Y-134503045D01*
X40711655Y-134503047D01*
X40711658Y-134503050D01*
X40726250Y-134510485D01*
X40734161Y-134514516D01*
X40784956Y-134562490D01*
X40801751Y-134630312D01*
X40779213Y-134696446D01*
X40734161Y-134735484D01*
X40711659Y-134746949D01*
X40711652Y-134746954D01*
X40621954Y-134836652D01*
X40621951Y-134836657D01*
X40621950Y-134836658D01*
X40614793Y-134850705D01*
X40564352Y-134949698D01*
X40549500Y-135043475D01*
X40549500Y-135956517D01*
X40560292Y-136024657D01*
X40564354Y-136050304D01*
X40621950Y-136163342D01*
X40711658Y-136253050D01*
X40711660Y-136253051D01*
X40713181Y-136254572D01*
X40746666Y-136315895D01*
X40749500Y-136342254D01*
X40749500Y-138085573D01*
X40729815Y-138152612D01*
X40677011Y-138198367D01*
X40672962Y-138200130D01*
X40672167Y-138200459D01*
X40672158Y-138200464D01*
X40546719Y-138296716D01*
X40450463Y-138422160D01*
X40389956Y-138568237D01*
X40389955Y-138568239D01*
X40374500Y-138685638D01*
X40374500Y-139164363D01*
X40389953Y-139281753D01*
X40389956Y-139281762D01*
X40432813Y-139385229D01*
X40450464Y-139427841D01*
X40546718Y-139553282D01*
X40662282Y-139641957D01*
X40674880Y-139651624D01*
X40716082Y-139708053D01*
X40720237Y-139777799D01*
X40686024Y-139838719D01*
X40674880Y-139848376D01*
X40546718Y-139946718D01*
X40450463Y-140072160D01*
X40389956Y-140218237D01*
X40389955Y-140218239D01*
X40374500Y-140335638D01*
X40374500Y-140814363D01*
X40389953Y-140931753D01*
X40389956Y-140931762D01*
X40450464Y-141077841D01*
X40546718Y-141203282D01*
X40672159Y-141299536D01*
X40818238Y-141360044D01*
X40935639Y-141375500D01*
X41564360Y-141375499D01*
X41564363Y-141375499D01*
X41681753Y-141360046D01*
X41681757Y-141360044D01*
X41681762Y-141360044D01*
X41827841Y-141299536D01*
X41953282Y-141203282D01*
X42014106Y-141124013D01*
X42070534Y-141082811D01*
X42112482Y-141075500D01*
X43240890Y-141075500D01*
X43240892Y-141075500D01*
X43368186Y-141041392D01*
X43482314Y-140975500D01*
X43920995Y-140536819D01*
X43982318Y-140503334D01*
X44008676Y-140500500D01*
X44939955Y-140500500D01*
X45006994Y-140520185D01*
X45052749Y-140572989D01*
X45063573Y-140614771D01*
X45065687Y-140641643D01*
X45096747Y-140757562D01*
X45114680Y-140824488D01*
X45119542Y-140834030D01*
X45200614Y-140993146D01*
X45319743Y-141140257D01*
X45360961Y-141173635D01*
X45400672Y-141231122D01*
X45402999Y-141300953D01*
X45367203Y-141360957D01*
X45360961Y-141366365D01*
X45319743Y-141399742D01*
X45200614Y-141546853D01*
X45114680Y-141715512D01*
X45065687Y-141898356D01*
X45065687Y-141898357D01*
X45059500Y-141976973D01*
X45059500Y-143103010D01*
X45059501Y-143103029D01*
X45065687Y-143181643D01*
X45066843Y-143185957D01*
X45114680Y-143364488D01*
X45136783Y-143407868D01*
X45200614Y-143533146D01*
X45319743Y-143680257D01*
X45360961Y-143713635D01*
X45400672Y-143771122D01*
X45402999Y-143840953D01*
X45367203Y-143900957D01*
X45360961Y-143906365D01*
X45319743Y-143939742D01*
X45200614Y-144086853D01*
X45114680Y-144255512D01*
X45065687Y-144438356D01*
X45065687Y-144438357D01*
X45059500Y-144516973D01*
X45059500Y-145643010D01*
X45059501Y-145643029D01*
X45065687Y-145721643D01*
X45065688Y-145721645D01*
X45114680Y-145904488D01*
X45136783Y-145947868D01*
X45200614Y-146073146D01*
X45319743Y-146220257D01*
X45360961Y-146253635D01*
X45400672Y-146311122D01*
X45402999Y-146380953D01*
X45367203Y-146440957D01*
X45360961Y-146446365D01*
X45319743Y-146479742D01*
X45200614Y-146626853D01*
X45114680Y-146795512D01*
X45065687Y-146978356D01*
X45065687Y-146978357D01*
X45059500Y-147056973D01*
X45059500Y-148183010D01*
X45059501Y-148183029D01*
X45065687Y-148261643D01*
X45075376Y-148297802D01*
X45114680Y-148444488D01*
X45136783Y-148487868D01*
X45200614Y-148613146D01*
X45319743Y-148760257D01*
X45360961Y-148793635D01*
X45400672Y-148851122D01*
X45402999Y-148920953D01*
X45367203Y-148980957D01*
X45360961Y-148986365D01*
X45319743Y-149019742D01*
X45200614Y-149166853D01*
X45114680Y-149335512D01*
X45065687Y-149518356D01*
X45065687Y-149518357D01*
X45059500Y-149596973D01*
X45059500Y-150723010D01*
X45059501Y-150723029D01*
X45065687Y-150801643D01*
X45065688Y-150801645D01*
X45114680Y-150984488D01*
X45136783Y-151027868D01*
X45200614Y-151153146D01*
X45249859Y-151213958D01*
X45319743Y-151300257D01*
X45426311Y-151386554D01*
X45466853Y-151419385D01*
X45548437Y-151460953D01*
X45635512Y-151505320D01*
X45818355Y-151554312D01*
X45896979Y-151560500D01*
X46631566Y-151560499D01*
X46698603Y-151580183D01*
X46744358Y-151632987D01*
X46754302Y-151702146D01*
X46725277Y-151765702D01*
X46666499Y-151803476D01*
X46655755Y-151806116D01*
X46493318Y-151838427D01*
X46493310Y-151838429D01*
X46311325Y-151913809D01*
X46311318Y-151913813D01*
X46275979Y-151937426D01*
X46275978Y-151937426D01*
X46785000Y-152446446D01*
X46785001Y-152446446D01*
X47294020Y-151937426D01*
X47258675Y-151913809D01*
X47258673Y-151913808D01*
X47076693Y-151838430D01*
X47076681Y-151838427D01*
X46914243Y-151806116D01*
X46852332Y-151773731D01*
X46817758Y-151713016D01*
X46821497Y-151643246D01*
X46862364Y-151586574D01*
X46927382Y-151560993D01*
X46938424Y-151560499D01*
X47773020Y-151560499D01*
X47851645Y-151554312D01*
X48034488Y-151505320D01*
X48182312Y-151430000D01*
X48203146Y-151419385D01*
X48203147Y-151419383D01*
X48203149Y-151419383D01*
X48350257Y-151300257D01*
X48469383Y-151153149D01*
X48555320Y-150984488D01*
X48604312Y-150801645D01*
X48606427Y-150774770D01*
X48631311Y-150709483D01*
X48687542Y-150668012D01*
X48730045Y-150660500D01*
X49740890Y-150660500D01*
X49740892Y-150660500D01*
X49868186Y-150626392D01*
X49982314Y-150560500D01*
X51307695Y-149235119D01*
X51369018Y-149201634D01*
X51395376Y-149198800D01*
X52546560Y-149198800D01*
X52613599Y-149218485D01*
X52657045Y-149266505D01*
X52701476Y-149353705D01*
X52817172Y-149512946D01*
X52956354Y-149652128D01*
X53115595Y-149767824D01*
X53159361Y-149790123D01*
X53190174Y-149805824D01*
X53240970Y-149853799D01*
X53257765Y-149921620D01*
X53235227Y-149987755D01*
X53190174Y-150026794D01*
X53022994Y-150111976D01*
X52932141Y-150177985D01*
X52863754Y-150227672D01*
X52863752Y-150227674D01*
X52863751Y-150227674D01*
X52724574Y-150366851D01*
X52724574Y-150366852D01*
X52724572Y-150366854D01*
X52674885Y-150435241D01*
X52608876Y-150526094D01*
X52519517Y-150701470D01*
X52458690Y-150888673D01*
X52427900Y-151083077D01*
X52427900Y-151279922D01*
X52458690Y-151474326D01*
X52519517Y-151661529D01*
X52572596Y-151765702D01*
X52608876Y-151836905D01*
X52724572Y-151996146D01*
X52863754Y-152135328D01*
X52983184Y-152222100D01*
X53022996Y-152251025D01*
X53090028Y-152285179D01*
X53140825Y-152333153D01*
X53157620Y-152400974D01*
X53135083Y-152467109D01*
X53090030Y-152506148D01*
X52970843Y-152566878D01*
X52970840Y-152566880D01*
X52916682Y-152606227D01*
X52916682Y-152606228D01*
X53678400Y-153367946D01*
X53678401Y-153367946D01*
X54440116Y-152606228D01*
X54385947Y-152566873D01*
X54385942Y-152566870D01*
X54266770Y-152506148D01*
X54215974Y-152458174D01*
X54199179Y-152390353D01*
X54221717Y-152324218D01*
X54266770Y-152285179D01*
X54333805Y-152251024D01*
X54493046Y-152135328D01*
X54632228Y-151996146D01*
X54747924Y-151836905D01*
X54811048Y-151713016D01*
X54837915Y-151660287D01*
X54885889Y-151609490D01*
X54953710Y-151592695D01*
X55019845Y-151615232D01*
X55058885Y-151660287D01*
X55148874Y-151836903D01*
X55176926Y-151875512D01*
X55264572Y-151996146D01*
X55403754Y-152135328D01*
X55562995Y-152251024D01*
X55641410Y-152290978D01*
X55739613Y-152341015D01*
X55790409Y-152388989D01*
X55807204Y-152456810D01*
X55784667Y-152522945D01*
X55739613Y-152561985D01*
X55562994Y-152651976D01*
X55554172Y-152658386D01*
X55403754Y-152767672D01*
X55403752Y-152767674D01*
X55403751Y-152767674D01*
X55264574Y-152906851D01*
X55264574Y-152906852D01*
X55264572Y-152906854D01*
X55206724Y-152986474D01*
X55148874Y-153066097D01*
X55114719Y-153133130D01*
X55066745Y-153183925D01*
X54998924Y-153200720D01*
X54932789Y-153178182D01*
X54893750Y-153133129D01*
X54833024Y-153013949D01*
X54793670Y-152959782D01*
X54793669Y-152959782D01*
X54031954Y-153721499D01*
X54031954Y-153721500D01*
X54793670Y-154483217D01*
X54793670Y-154483216D01*
X54833022Y-154429054D01*
X54893750Y-154309870D01*
X54941724Y-154259074D01*
X55009545Y-154242279D01*
X55075680Y-154264816D01*
X55114720Y-154309870D01*
X55148876Y-154376905D01*
X55264572Y-154536146D01*
X55403754Y-154675328D01*
X55562995Y-154791024D01*
X55652775Y-154836769D01*
X55739613Y-154881015D01*
X55790409Y-154928989D01*
X55807204Y-154996810D01*
X55784667Y-155062945D01*
X55739613Y-155101985D01*
X55562994Y-155191976D01*
X55501274Y-155236819D01*
X55403754Y-155307672D01*
X55403752Y-155307674D01*
X55403751Y-155307674D01*
X55264574Y-155446851D01*
X55264574Y-155446852D01*
X55264572Y-155446854D01*
X55249036Y-155468238D01*
X55148876Y-155606094D01*
X55058885Y-155782713D01*
X55010911Y-155833509D01*
X54943090Y-155850304D01*
X54876955Y-155827767D01*
X54837915Y-155782713D01*
X54770549Y-155650499D01*
X54747924Y-155606095D01*
X54632228Y-155446854D01*
X54493046Y-155307672D01*
X54333805Y-155191976D01*
X54266770Y-155157820D01*
X54215974Y-155109845D01*
X54199179Y-155042024D01*
X54221716Y-154975889D01*
X54266770Y-154936850D01*
X54385954Y-154876122D01*
X54440116Y-154836770D01*
X54440117Y-154836770D01*
X53678400Y-154075054D01*
X52916682Y-154836769D01*
X52916682Y-154836770D01*
X52970849Y-154876124D01*
X53090029Y-154936850D01*
X53140825Y-154984825D01*
X53157620Y-155052646D01*
X53135082Y-155118781D01*
X53090030Y-155157819D01*
X53022997Y-155191974D01*
X53007362Y-155203334D01*
X52863754Y-155307672D01*
X52863752Y-155307674D01*
X52863751Y-155307674D01*
X52724574Y-155446851D01*
X52724574Y-155446852D01*
X52724572Y-155446854D01*
X52709036Y-155468238D01*
X52608876Y-155606094D01*
X52519517Y-155781470D01*
X52458690Y-155968673D01*
X52427900Y-156163077D01*
X52427900Y-156359922D01*
X52458690Y-156554326D01*
X52519517Y-156741529D01*
X52608875Y-156916903D01*
X52608876Y-156916905D01*
X52724572Y-157076146D01*
X52863754Y-157215328D01*
X53022995Y-157331024D01*
X53105855Y-157373243D01*
X53198370Y-157420382D01*
X53198372Y-157420382D01*
X53198375Y-157420384D01*
X53322983Y-157460872D01*
X53355905Y-157471569D01*
X53413580Y-157511007D01*
X53440778Y-157575366D01*
X53428863Y-157644212D01*
X53381619Y-157695688D01*
X53317586Y-157713500D01*
X35461955Y-157713500D01*
X35394916Y-157693815D01*
X35349161Y-157641011D01*
X35337955Y-157589500D01*
X35337955Y-154676973D01*
X45059500Y-154676973D01*
X45059500Y-155803010D01*
X45059501Y-155803029D01*
X45065687Y-155881643D01*
X45065688Y-155881645D01*
X45114680Y-156064488D01*
X45136783Y-156107868D01*
X45200614Y-156233146D01*
X45249859Y-156293958D01*
X45319743Y-156380257D01*
X45409920Y-156453281D01*
X45466853Y-156499385D01*
X45550371Y-156541938D01*
X45635512Y-156585320D01*
X45818355Y-156634312D01*
X45896979Y-156640500D01*
X47773020Y-156640499D01*
X47851645Y-156634312D01*
X48034488Y-156585320D01*
X48163008Y-156519835D01*
X48203146Y-156499385D01*
X48203147Y-156499383D01*
X48203149Y-156499383D01*
X48350257Y-156380257D01*
X48469383Y-156233149D01*
X48555320Y-156064488D01*
X48604312Y-155881645D01*
X48610500Y-155803021D01*
X48610499Y-154676980D01*
X48604312Y-154598355D01*
X48555320Y-154415512D01*
X48478537Y-154264816D01*
X48469385Y-154246853D01*
X48432679Y-154201525D01*
X48350257Y-154099743D01*
X48228262Y-154000953D01*
X48203146Y-153980614D01*
X48077868Y-153916783D01*
X48034488Y-153894680D01*
X47916681Y-153863114D01*
X47851643Y-153845687D01*
X47773026Y-153839500D01*
X47413407Y-153839500D01*
X47402578Y-153836320D01*
X47391356Y-153837524D01*
X47369652Y-153826652D01*
X47346368Y-153819815D01*
X47338977Y-153811286D01*
X47328886Y-153806231D01*
X47316505Y-153785352D01*
X47300613Y-153767011D01*
X47298082Y-153754282D01*
X47293250Y-153746132D01*
X47291266Y-153719993D01*
X47289487Y-153711039D01*
X47291328Y-153659880D01*
X47246701Y-153615253D01*
X52328400Y-153615253D01*
X52328400Y-153827746D01*
X52361642Y-154037627D01*
X52361642Y-154037630D01*
X52427304Y-154239717D01*
X52523775Y-154429050D01*
X52563128Y-154483216D01*
X53324846Y-153721500D01*
X53275118Y-153671772D01*
X53428400Y-153671772D01*
X53428400Y-153771228D01*
X53466460Y-153863114D01*
X53536786Y-153933440D01*
X53628672Y-153971500D01*
X53728128Y-153971500D01*
X53820014Y-153933440D01*
X53890340Y-153863114D01*
X53928400Y-153771228D01*
X53928400Y-153671772D01*
X53890340Y-153579886D01*
X53820014Y-153509560D01*
X53728128Y-153471500D01*
X53628672Y-153471500D01*
X53536786Y-153509560D01*
X53466460Y-153579886D01*
X53428400Y-153671772D01*
X53275118Y-153671772D01*
X52563128Y-152959782D01*
X52563127Y-152959782D01*
X52523780Y-153013939D01*
X52427304Y-153203282D01*
X52361642Y-153405369D01*
X52361642Y-153405372D01*
X52328400Y-153615253D01*
X47246701Y-153615253D01*
X46785001Y-153153553D01*
X46785000Y-153153553D01*
X46275978Y-153662573D01*
X46279994Y-153703347D01*
X46266974Y-153771993D01*
X46218909Y-153822703D01*
X46156591Y-153839500D01*
X45896989Y-153839500D01*
X45896970Y-153839501D01*
X45818356Y-153845687D01*
X45635512Y-153894680D01*
X45466853Y-153980614D01*
X45319743Y-154099743D01*
X45200614Y-154246853D01*
X45114680Y-154415512D01*
X45065687Y-154598356D01*
X45065687Y-154598357D01*
X45059500Y-154676973D01*
X35337955Y-154676973D01*
X35337955Y-152701504D01*
X45785000Y-152701504D01*
X45785000Y-152898495D01*
X45823427Y-153091681D01*
X45823430Y-153091693D01*
X45898808Y-153273673D01*
X45898809Y-153273675D01*
X45922425Y-153309019D01*
X46431446Y-152800000D01*
X46431446Y-152799999D01*
X46381719Y-152750272D01*
X46535000Y-152750272D01*
X46535000Y-152849728D01*
X46573060Y-152941614D01*
X46643386Y-153011940D01*
X46735272Y-153050000D01*
X46834728Y-153050000D01*
X46926614Y-153011940D01*
X46996940Y-152941614D01*
X47035000Y-152849728D01*
X47035000Y-152799999D01*
X47138553Y-152799999D01*
X47138553Y-152800001D01*
X47647572Y-153309020D01*
X47647573Y-153309019D01*
X47671187Y-153273680D01*
X47671190Y-153273676D01*
X47746569Y-153091693D01*
X47746572Y-153091681D01*
X47784999Y-152898495D01*
X47785000Y-152898492D01*
X47785000Y-152701508D01*
X47784999Y-152701504D01*
X47746572Y-152508318D01*
X47746569Y-152508306D01*
X47671192Y-152326328D01*
X47647572Y-152290979D01*
X47138553Y-152799999D01*
X47035000Y-152799999D01*
X47035000Y-152750272D01*
X46996940Y-152658386D01*
X46926614Y-152588060D01*
X46834728Y-152550000D01*
X46735272Y-152550000D01*
X46643386Y-152588060D01*
X46573060Y-152658386D01*
X46535000Y-152750272D01*
X46381719Y-152750272D01*
X45922426Y-152290978D01*
X45922426Y-152290979D01*
X45898813Y-152326318D01*
X45898809Y-152326325D01*
X45823429Y-152508310D01*
X45823427Y-152508318D01*
X45785000Y-152701504D01*
X35337955Y-152701504D01*
X35337955Y-135972844D01*
X36950000Y-135972844D01*
X36956401Y-136032372D01*
X36956403Y-136032379D01*
X37006645Y-136167086D01*
X37006649Y-136167093D01*
X37092809Y-136282187D01*
X37092812Y-136282190D01*
X37207906Y-136368350D01*
X37207913Y-136368354D01*
X37342620Y-136418596D01*
X37342627Y-136418598D01*
X37402155Y-136424999D01*
X37402172Y-136425000D01*
X38000000Y-136425000D01*
X38500000Y-136425000D01*
X39097828Y-136425000D01*
X39097844Y-136424999D01*
X39157372Y-136418598D01*
X39157379Y-136418596D01*
X39292086Y-136368354D01*
X39292093Y-136368350D01*
X39407187Y-136282190D01*
X39407190Y-136282187D01*
X39493350Y-136167093D01*
X39493354Y-136167086D01*
X39543596Y-136032379D01*
X39543598Y-136032372D01*
X39549999Y-135972844D01*
X39550000Y-135972827D01*
X39550000Y-135750000D01*
X38500000Y-135750000D01*
X38500000Y-136425000D01*
X38000000Y-136425000D01*
X38000000Y-135750000D01*
X36950000Y-135750000D01*
X36950000Y-135972844D01*
X35337955Y-135972844D01*
X35337955Y-135027155D01*
X36950000Y-135027155D01*
X36950000Y-135250000D01*
X39550000Y-135250000D01*
X39550000Y-135027172D01*
X39549999Y-135027155D01*
X39543598Y-134967627D01*
X39543596Y-134967620D01*
X39493354Y-134832913D01*
X39493350Y-134832906D01*
X39407190Y-134717813D01*
X39330962Y-134660748D01*
X39289091Y-134604814D01*
X39284107Y-134535122D01*
X39317590Y-134473801D01*
X39378050Y-134413342D01*
X39435646Y-134300304D01*
X39435646Y-134300302D01*
X39435647Y-134300301D01*
X39450499Y-134206524D01*
X39450500Y-134206519D01*
X39450499Y-133293482D01*
X39435646Y-133199696D01*
X39378050Y-133086658D01*
X39378046Y-133086654D01*
X39378045Y-133086652D01*
X39288347Y-132996954D01*
X39288344Y-132996952D01*
X39288342Y-132996950D01*
X39207728Y-132955875D01*
X39175301Y-132939352D01*
X39081524Y-132924500D01*
X37418482Y-132924500D01*
X37337519Y-132937323D01*
X37324696Y-132939354D01*
X37211658Y-132996950D01*
X37211657Y-132996951D01*
X37211652Y-132996954D01*
X37121954Y-133086652D01*
X37121951Y-133086657D01*
X37121950Y-133086658D01*
X37121841Y-133086872D01*
X37064352Y-133199698D01*
X37049500Y-133293475D01*
X37049500Y-134206517D01*
X37060292Y-134274657D01*
X37064354Y-134300304D01*
X37121950Y-134413342D01*
X37121952Y-134413344D01*
X37121954Y-134413347D01*
X37182407Y-134473800D01*
X37215892Y-134535123D01*
X37210908Y-134604815D01*
X37169038Y-134660747D01*
X37092809Y-134717812D01*
X37006649Y-134832906D01*
X37006645Y-134832913D01*
X36956403Y-134967620D01*
X36956401Y-134967627D01*
X36950000Y-135027155D01*
X35337955Y-135027155D01*
X35337955Y-122209002D01*
X38079000Y-122209002D01*
X38081893Y-122262988D01*
X38117442Y-122402259D01*
X38120371Y-122409330D01*
X38172106Y-122504076D01*
X38270049Y-122609277D01*
X38270051Y-122609278D01*
X38393672Y-122682629D01*
X38400732Y-122685554D01*
X38451728Y-122703544D01*
X38594001Y-122723999D01*
X38594003Y-122724000D01*
X38894000Y-122724000D01*
X39394000Y-122724000D01*
X39694002Y-122724000D01*
X39747988Y-122721106D01*
X39887259Y-122685557D01*
X39894330Y-122682628D01*
X39989076Y-122630893D01*
X40094277Y-122532950D01*
X40094278Y-122532948D01*
X40167629Y-122409327D01*
X40170554Y-122402267D01*
X40188544Y-122351271D01*
X40208999Y-122208998D01*
X40209000Y-122208997D01*
X40209000Y-122109000D01*
X39394000Y-122109000D01*
X39394000Y-122724000D01*
X38894000Y-122724000D01*
X38894000Y-122109000D01*
X38079000Y-122109000D01*
X38079000Y-122209002D01*
X35337955Y-122209002D01*
X35337955Y-121590122D01*
X38267978Y-121590122D01*
X38275406Y-121609000D01*
X38894000Y-121609000D01*
X39394000Y-121609000D01*
X40018209Y-121609000D01*
X40023381Y-121597105D01*
X40010986Y-121572388D01*
X40009000Y-121550283D01*
X40009000Y-121508997D01*
X40006106Y-121455011D01*
X39970557Y-121315740D01*
X39967628Y-121308669D01*
X39915893Y-121213923D01*
X39817950Y-121108722D01*
X39817948Y-121108721D01*
X39694327Y-121035370D01*
X39687267Y-121032445D01*
X39636271Y-121014455D01*
X39493998Y-120994000D01*
X39394000Y-120994000D01*
X39394000Y-121609000D01*
X38894000Y-121609000D01*
X38894000Y-120994000D01*
X38793998Y-120994000D01*
X38740011Y-120996893D01*
X38600740Y-121032442D01*
X38593669Y-121035371D01*
X38498923Y-121087106D01*
X38393722Y-121185049D01*
X38393721Y-121185051D01*
X38320370Y-121308672D01*
X38317445Y-121315732D01*
X38299455Y-121366728D01*
X38279000Y-121509001D01*
X38279000Y-121551676D01*
X38269759Y-121583146D01*
X38267978Y-121590122D01*
X35337955Y-121590122D01*
X35337955Y-117670893D01*
X38264619Y-117670893D01*
X38277014Y-117695610D01*
X38279000Y-117717716D01*
X38279000Y-117759002D01*
X38281893Y-117812988D01*
X38317442Y-117952259D01*
X38320371Y-117959330D01*
X38372106Y-118054076D01*
X38470049Y-118159277D01*
X38470051Y-118159278D01*
X38593672Y-118232629D01*
X38600732Y-118235554D01*
X38651728Y-118253544D01*
X38794001Y-118273999D01*
X38794003Y-118274000D01*
X38894000Y-118274000D01*
X39394000Y-118274000D01*
X39494002Y-118274000D01*
X39547988Y-118271106D01*
X39687259Y-118235557D01*
X39694330Y-118232628D01*
X39789076Y-118180893D01*
X39894277Y-118082950D01*
X39894278Y-118082948D01*
X39967629Y-117959327D01*
X39970554Y-117952267D01*
X39988544Y-117901271D01*
X40008999Y-117758998D01*
X40009000Y-117758997D01*
X40009000Y-117716322D01*
X40020173Y-117678269D01*
X40012592Y-117659000D01*
X39394000Y-117659000D01*
X39394000Y-118274000D01*
X38894000Y-118274000D01*
X38894000Y-117659000D01*
X38269791Y-117659000D01*
X38264619Y-117670893D01*
X35337955Y-117670893D01*
X35337955Y-117059001D01*
X38079000Y-117059001D01*
X38079000Y-117159000D01*
X38894000Y-117159000D01*
X39394000Y-117159000D01*
X40209000Y-117159000D01*
X40209000Y-117058997D01*
X40206106Y-117005011D01*
X40170557Y-116865740D01*
X40167628Y-116858669D01*
X40115893Y-116763923D01*
X40017950Y-116658722D01*
X40017948Y-116658721D01*
X39894327Y-116585370D01*
X39887267Y-116582445D01*
X39836271Y-116564455D01*
X39693998Y-116544000D01*
X39394000Y-116544000D01*
X39394000Y-117159000D01*
X38894000Y-117159000D01*
X38894000Y-116544000D01*
X38593998Y-116544000D01*
X38540011Y-116546893D01*
X38400740Y-116582442D01*
X38393669Y-116585371D01*
X38298923Y-116637106D01*
X38193722Y-116735049D01*
X38193721Y-116735051D01*
X38120370Y-116858672D01*
X38117445Y-116865732D01*
X38099455Y-116916728D01*
X38079000Y-117059001D01*
X35337955Y-117059001D01*
X35337955Y-109789002D01*
X38021910Y-109789002D01*
X38024803Y-109842988D01*
X38060352Y-109982259D01*
X38063281Y-109989330D01*
X38115016Y-110084076D01*
X38212959Y-110189277D01*
X38212961Y-110189278D01*
X38336582Y-110262629D01*
X38343642Y-110265554D01*
X38394638Y-110283544D01*
X38536911Y-110303999D01*
X38536913Y-110304000D01*
X38836910Y-110304000D01*
X39336910Y-110304000D01*
X39636912Y-110304000D01*
X39690898Y-110301106D01*
X39830169Y-110265557D01*
X39837240Y-110262628D01*
X39931986Y-110210893D01*
X40037187Y-110112950D01*
X40037188Y-110112948D01*
X40110539Y-109989327D01*
X40113464Y-109982267D01*
X40131454Y-109931271D01*
X40151909Y-109788998D01*
X40151910Y-109788997D01*
X40151910Y-109689000D01*
X39336910Y-109689000D01*
X39336910Y-110304000D01*
X38836910Y-110304000D01*
X38836910Y-109689000D01*
X38021910Y-109689000D01*
X38021910Y-109789002D01*
X35337955Y-109789002D01*
X35337955Y-109170122D01*
X38210888Y-109170122D01*
X38218316Y-109189000D01*
X38836910Y-109189000D01*
X39336910Y-109189000D01*
X39961119Y-109189000D01*
X39966291Y-109177105D01*
X39953896Y-109152388D01*
X39951910Y-109130283D01*
X39951910Y-109088997D01*
X39949016Y-109035011D01*
X39913467Y-108895740D01*
X39910538Y-108888669D01*
X39858803Y-108793923D01*
X39760860Y-108688722D01*
X39760858Y-108688721D01*
X39637237Y-108615370D01*
X39630177Y-108612445D01*
X39579181Y-108594455D01*
X39436908Y-108574000D01*
X39336910Y-108574000D01*
X39336910Y-109189000D01*
X38836910Y-109189000D01*
X38836910Y-108574000D01*
X38736908Y-108574000D01*
X38682921Y-108576893D01*
X38543650Y-108612442D01*
X38536579Y-108615371D01*
X38441833Y-108667106D01*
X38336632Y-108765049D01*
X38336631Y-108765051D01*
X38263280Y-108888672D01*
X38260355Y-108895732D01*
X38242365Y-108946728D01*
X38221910Y-109089001D01*
X38221910Y-109131676D01*
X38212669Y-109163146D01*
X38210888Y-109170122D01*
X35337955Y-109170122D01*
X35337955Y-105250893D01*
X38207529Y-105250893D01*
X38219924Y-105275610D01*
X38221910Y-105297716D01*
X38221910Y-105339002D01*
X38224803Y-105392988D01*
X38260352Y-105532259D01*
X38263281Y-105539330D01*
X38315016Y-105634076D01*
X38412959Y-105739277D01*
X38412961Y-105739278D01*
X38536582Y-105812629D01*
X38543642Y-105815554D01*
X38594638Y-105833544D01*
X38736911Y-105853999D01*
X38736913Y-105854000D01*
X38836910Y-105854000D01*
X39336910Y-105854000D01*
X39436912Y-105854000D01*
X39490898Y-105851106D01*
X39630169Y-105815557D01*
X39637240Y-105812628D01*
X39731986Y-105760893D01*
X39837187Y-105662950D01*
X39837188Y-105662948D01*
X39910539Y-105539327D01*
X39913464Y-105532267D01*
X39931454Y-105481271D01*
X39951909Y-105338998D01*
X39951910Y-105338997D01*
X39951910Y-105296322D01*
X39963083Y-105258269D01*
X39955502Y-105239000D01*
X39336910Y-105239000D01*
X39336910Y-105854000D01*
X38836910Y-105854000D01*
X38836910Y-105239000D01*
X38212701Y-105239000D01*
X38207529Y-105250893D01*
X35337955Y-105250893D01*
X35337955Y-104639001D01*
X38021910Y-104639001D01*
X38021910Y-104739000D01*
X38836910Y-104739000D01*
X39336910Y-104739000D01*
X40151910Y-104739000D01*
X40151910Y-104638997D01*
X40149016Y-104585011D01*
X40113467Y-104445740D01*
X40110538Y-104438669D01*
X40058803Y-104343923D01*
X39960860Y-104238722D01*
X39960858Y-104238721D01*
X39837237Y-104165370D01*
X39830177Y-104162445D01*
X39779181Y-104144455D01*
X39636908Y-104124000D01*
X39336910Y-104124000D01*
X39336910Y-104739000D01*
X38836910Y-104739000D01*
X38836910Y-104124000D01*
X38536908Y-104124000D01*
X38482921Y-104126893D01*
X38343650Y-104162442D01*
X38336579Y-104165371D01*
X38241833Y-104217106D01*
X38136632Y-104315049D01*
X38136631Y-104315051D01*
X38063280Y-104438672D01*
X38060355Y-104445732D01*
X38042365Y-104496728D01*
X38021910Y-104639001D01*
X35337955Y-104639001D01*
X35337955Y-97317002D01*
X38079000Y-97317002D01*
X38081893Y-97370988D01*
X38117442Y-97510259D01*
X38120371Y-97517330D01*
X38172106Y-97612076D01*
X38270049Y-97717277D01*
X38270051Y-97717278D01*
X38393672Y-97790629D01*
X38400732Y-97793554D01*
X38451728Y-97811544D01*
X38594001Y-97831999D01*
X38594003Y-97832000D01*
X38894000Y-97832000D01*
X39394000Y-97832000D01*
X39694002Y-97832000D01*
X39747988Y-97829106D01*
X39887259Y-97793557D01*
X39894330Y-97790628D01*
X39989076Y-97738893D01*
X40094277Y-97640950D01*
X40094278Y-97640948D01*
X40167629Y-97517327D01*
X40170554Y-97510267D01*
X40188544Y-97459271D01*
X40208999Y-97316998D01*
X40209000Y-97316997D01*
X40209000Y-97217000D01*
X39394000Y-97217000D01*
X39394000Y-97832000D01*
X38894000Y-97832000D01*
X38894000Y-97217000D01*
X38079000Y-97217000D01*
X38079000Y-97317002D01*
X35337955Y-97317002D01*
X35337955Y-96698122D01*
X38267978Y-96698122D01*
X38275406Y-96717000D01*
X38894000Y-96717000D01*
X39394000Y-96717000D01*
X40018209Y-96717000D01*
X40023381Y-96705105D01*
X40010986Y-96680388D01*
X40009000Y-96658283D01*
X40009000Y-96616997D01*
X40006106Y-96563011D01*
X39970557Y-96423740D01*
X39967628Y-96416669D01*
X39915893Y-96321923D01*
X39817950Y-96216722D01*
X39817948Y-96216721D01*
X39694327Y-96143370D01*
X39687267Y-96140445D01*
X39636271Y-96122455D01*
X39493998Y-96102000D01*
X39394000Y-96102000D01*
X39394000Y-96717000D01*
X38894000Y-96717000D01*
X38894000Y-96102000D01*
X38793998Y-96102000D01*
X38740011Y-96104893D01*
X38600740Y-96140442D01*
X38593669Y-96143371D01*
X38498923Y-96195106D01*
X38393722Y-96293049D01*
X38393721Y-96293051D01*
X38320370Y-96416672D01*
X38317445Y-96423732D01*
X38299455Y-96474728D01*
X38279000Y-96617001D01*
X38279000Y-96659676D01*
X38269759Y-96691146D01*
X38267978Y-96698122D01*
X35337955Y-96698122D01*
X35337955Y-92778893D01*
X38264619Y-92778893D01*
X38277014Y-92803610D01*
X38279000Y-92825716D01*
X38279000Y-92867002D01*
X38281893Y-92920988D01*
X38317442Y-93060259D01*
X38320371Y-93067330D01*
X38372106Y-93162076D01*
X38470049Y-93267277D01*
X38470051Y-93267278D01*
X38593672Y-93340629D01*
X38600732Y-93343554D01*
X38651728Y-93361544D01*
X38794001Y-93381999D01*
X38794003Y-93382000D01*
X38894000Y-93382000D01*
X39394000Y-93382000D01*
X39494002Y-93382000D01*
X39547988Y-93379106D01*
X39687259Y-93343557D01*
X39694330Y-93340628D01*
X39789076Y-93288893D01*
X39894277Y-93190950D01*
X39894278Y-93190948D01*
X39967629Y-93067327D01*
X39970554Y-93060267D01*
X39988544Y-93009271D01*
X40008999Y-92866998D01*
X40009000Y-92866997D01*
X40009000Y-92824322D01*
X40020173Y-92786269D01*
X40012592Y-92767000D01*
X39394000Y-92767000D01*
X39394000Y-93382000D01*
X38894000Y-93382000D01*
X38894000Y-92767000D01*
X38269791Y-92767000D01*
X38264619Y-92778893D01*
X35337955Y-92778893D01*
X35337955Y-92167001D01*
X38079000Y-92167001D01*
X38079000Y-92267000D01*
X38894000Y-92267000D01*
X39394000Y-92267000D01*
X40209000Y-92267000D01*
X40209000Y-92166997D01*
X40206106Y-92113011D01*
X40170557Y-91973740D01*
X40167628Y-91966669D01*
X40115893Y-91871923D01*
X40017950Y-91766722D01*
X40017948Y-91766721D01*
X39894327Y-91693370D01*
X39887267Y-91690445D01*
X39836271Y-91672455D01*
X39693998Y-91652000D01*
X39394000Y-91652000D01*
X39394000Y-92267000D01*
X38894000Y-92267000D01*
X38894000Y-91652000D01*
X38593998Y-91652000D01*
X38540011Y-91654893D01*
X38400740Y-91690442D01*
X38393669Y-91693371D01*
X38298923Y-91745106D01*
X38193722Y-91843049D01*
X38193721Y-91843051D01*
X38120370Y-91966672D01*
X38117445Y-91973732D01*
X38099455Y-92024728D01*
X38079000Y-92167001D01*
X35337955Y-92167001D01*
X35337955Y-71753099D01*
X35357640Y-71686060D01*
X35410444Y-71640305D01*
X35479602Y-71630361D01*
X35543158Y-71659386D01*
X35579886Y-71714781D01*
X35592997Y-71755132D01*
X35657557Y-71953826D01*
X35775502Y-72185305D01*
X35928205Y-72395483D01*
X36111907Y-72579185D01*
X36322085Y-72731888D01*
X36469581Y-72807041D01*
X36553559Y-72849831D01*
X36553561Y-72849831D01*
X36553564Y-72849833D01*
X36800643Y-72930114D01*
X36932842Y-72951051D01*
X37057234Y-72970754D01*
X37057239Y-72970754D01*
X37317038Y-72970754D01*
X37430434Y-72952793D01*
X37573629Y-72930114D01*
X37820708Y-72849833D01*
X38052187Y-72731888D01*
X38262365Y-72579185D01*
X38446067Y-72395483D01*
X38598770Y-72185305D01*
X38716715Y-71953826D01*
X38757569Y-71828089D01*
X38797007Y-71770415D01*
X38861366Y-71743217D01*
X38930212Y-71755132D01*
X38981688Y-71802376D01*
X38999500Y-71866409D01*
X38999500Y-85285891D01*
X39033608Y-85413187D01*
X39066554Y-85470250D01*
X39099500Y-85527314D01*
X39099502Y-85527316D01*
X45945181Y-92372995D01*
X45978666Y-92434318D01*
X45981500Y-92460676D01*
X45981500Y-127524324D01*
X45961815Y-127591363D01*
X45909011Y-127637118D01*
X45839853Y-127647062D01*
X45776297Y-127618037D01*
X45769819Y-127612005D01*
X45036819Y-126879005D01*
X45003334Y-126817682D01*
X45000500Y-126791324D01*
X45000500Y-98762110D01*
X45000500Y-98762108D01*
X44966392Y-98634814D01*
X44900500Y-98520686D01*
X44807314Y-98427500D01*
X43645819Y-97266005D01*
X43612334Y-97204682D01*
X43609500Y-97178324D01*
X43609500Y-97116989D01*
X43608250Y-97085179D01*
X43608249Y-97085177D01*
X43578632Y-96961822D01*
X43578631Y-96961820D01*
X43578631Y-96961818D01*
X43575702Y-96954747D01*
X43546819Y-96898060D01*
X43546815Y-96898055D01*
X43546812Y-96898050D01*
X43464430Y-96801590D01*
X43457006Y-96795250D01*
X43458751Y-96793205D01*
X43421834Y-96752398D01*
X43409500Y-96698485D01*
X43409500Y-96616989D01*
X43408250Y-96585179D01*
X43408249Y-96585177D01*
X43378632Y-96461822D01*
X43378631Y-96461820D01*
X43378631Y-96461818D01*
X43375702Y-96454747D01*
X43346819Y-96398060D01*
X43346815Y-96398055D01*
X43346812Y-96398050D01*
X43264430Y-96301590D01*
X43264426Y-96301587D01*
X43203709Y-96264379D01*
X43156834Y-96212566D01*
X43144500Y-96158652D01*
X43144500Y-93330677D01*
X43164185Y-93263638D01*
X43207346Y-93224590D01*
X43206868Y-93223875D01*
X43211721Y-93220632D01*
X43212209Y-93220191D01*
X43212940Y-93219819D01*
X43212945Y-93219814D01*
X43212949Y-93219812D01*
X43309409Y-93137430D01*
X43309410Y-93137427D01*
X43309413Y-93137426D01*
X43375702Y-93029253D01*
X43378631Y-93022182D01*
X43389653Y-92992306D01*
X43409500Y-92867000D01*
X43409500Y-92779923D01*
X43429185Y-92712884D01*
X43452970Y-92685631D01*
X43456738Y-92682413D01*
X43509413Y-92637426D01*
X43575702Y-92529253D01*
X43578631Y-92522182D01*
X43589653Y-92492306D01*
X43609500Y-92367000D01*
X43609500Y-92167000D01*
X43608250Y-92135180D01*
X43578631Y-92011818D01*
X43575702Y-92004747D01*
X43546819Y-91948060D01*
X43546815Y-91948055D01*
X43546812Y-91948050D01*
X43464430Y-91851590D01*
X43464424Y-91851585D01*
X43356259Y-91785301D01*
X43356251Y-91785297D01*
X43349179Y-91782367D01*
X43319307Y-91771347D01*
X43319305Y-91771346D01*
X43213846Y-91754643D01*
X43194000Y-91751500D01*
X42094000Y-91751500D01*
X42093990Y-91751500D01*
X42062179Y-91752749D01*
X42062177Y-91752750D01*
X41938822Y-91782367D01*
X41932966Y-91784793D01*
X41931747Y-91785298D01*
X41875060Y-91814181D01*
X41875058Y-91814182D01*
X41875055Y-91814184D01*
X41875050Y-91814187D01*
X41778590Y-91896569D01*
X41778585Y-91896575D01*
X41712301Y-92004740D01*
X41712297Y-92004748D01*
X41709367Y-92011820D01*
X41698347Y-92041692D01*
X41698346Y-92041694D01*
X41678500Y-92167000D01*
X41678500Y-92367010D01*
X41679749Y-92398820D01*
X41679750Y-92398822D01*
X41709367Y-92522177D01*
X41709368Y-92522179D01*
X41709369Y-92522182D01*
X41712298Y-92529253D01*
X41741181Y-92585940D01*
X41741183Y-92585942D01*
X41741184Y-92585944D01*
X41741187Y-92585949D01*
X41823570Y-92682410D01*
X41830995Y-92688751D01*
X41829248Y-92690796D01*
X41866163Y-92731594D01*
X41878500Y-92785515D01*
X41878500Y-92867010D01*
X41879749Y-92898820D01*
X41879750Y-92898822D01*
X41909367Y-93022177D01*
X41909368Y-93022179D01*
X41909369Y-93022182D01*
X41912298Y-93029253D01*
X41941181Y-93085940D01*
X41941183Y-93085942D01*
X41941184Y-93085944D01*
X41941187Y-93085949D01*
X42023569Y-93182409D01*
X42023572Y-93182411D01*
X42023574Y-93182413D01*
X42084290Y-93219620D01*
X42131165Y-93271432D01*
X42143500Y-93325347D01*
X42143500Y-96153322D01*
X42123815Y-96220361D01*
X42080655Y-96259411D01*
X42081132Y-96260125D01*
X42076294Y-96263356D01*
X42075800Y-96263804D01*
X42075061Y-96264180D01*
X42075050Y-96264187D01*
X41978590Y-96346569D01*
X41978585Y-96346575D01*
X41912301Y-96454740D01*
X41912297Y-96454748D01*
X41909367Y-96461820D01*
X41898347Y-96491692D01*
X41898346Y-96491694D01*
X41878500Y-96617000D01*
X41878500Y-96704077D01*
X41858815Y-96771116D01*
X41835030Y-96798369D01*
X41778587Y-96846573D01*
X41778585Y-96846575D01*
X41712301Y-96954740D01*
X41712297Y-96954748D01*
X41709367Y-96961820D01*
X41698347Y-96991692D01*
X41698346Y-96991694D01*
X41678500Y-97117000D01*
X41678500Y-97317010D01*
X41679749Y-97348820D01*
X41679750Y-97348822D01*
X41709367Y-97472177D01*
X41709368Y-97472179D01*
X41709369Y-97472182D01*
X41712298Y-97479253D01*
X41741181Y-97535940D01*
X41741183Y-97535942D01*
X41741184Y-97535944D01*
X41741187Y-97535949D01*
X41823569Y-97632409D01*
X41823575Y-97632414D01*
X41931740Y-97698698D01*
X41931747Y-97698702D01*
X41936748Y-97700773D01*
X41938820Y-97701632D01*
X41953756Y-97707142D01*
X41968694Y-97712653D01*
X42094000Y-97732500D01*
X42645324Y-97732500D01*
X42712363Y-97752185D01*
X42733005Y-97768819D01*
X43963181Y-98998995D01*
X43996666Y-99060318D01*
X43999500Y-99086676D01*
X43999500Y-109849414D01*
X43979815Y-109916453D01*
X43927011Y-109962208D01*
X43857853Y-109972152D01*
X43794297Y-109943127D01*
X43787819Y-109937095D01*
X43588729Y-109738005D01*
X43555244Y-109676682D01*
X43552410Y-109650324D01*
X43552410Y-109588989D01*
X43551160Y-109557179D01*
X43551159Y-109557177D01*
X43521542Y-109433822D01*
X43521541Y-109433820D01*
X43521541Y-109433818D01*
X43518612Y-109426747D01*
X43489729Y-109370060D01*
X43489725Y-109370055D01*
X43489722Y-109370050D01*
X43407340Y-109273590D01*
X43399916Y-109267250D01*
X43401661Y-109265205D01*
X43364744Y-109224398D01*
X43352410Y-109170485D01*
X43352410Y-109088989D01*
X43351160Y-109057179D01*
X43351159Y-109057177D01*
X43321542Y-108933822D01*
X43321541Y-108933820D01*
X43321541Y-108933818D01*
X43318612Y-108926747D01*
X43289729Y-108870060D01*
X43289725Y-108870055D01*
X43289722Y-108870050D01*
X43207340Y-108773590D01*
X43207336Y-108773587D01*
X43146619Y-108736379D01*
X43099744Y-108684566D01*
X43087410Y-108630652D01*
X43087410Y-105802677D01*
X43107095Y-105735638D01*
X43150256Y-105696590D01*
X43149778Y-105695875D01*
X43154631Y-105692632D01*
X43155119Y-105692191D01*
X43155850Y-105691819D01*
X43155855Y-105691814D01*
X43155859Y-105691812D01*
X43252319Y-105609430D01*
X43252320Y-105609427D01*
X43252323Y-105609426D01*
X43318612Y-105501253D01*
X43321541Y-105494182D01*
X43332563Y-105464306D01*
X43352410Y-105339000D01*
X43352410Y-105251923D01*
X43372095Y-105184884D01*
X43395880Y-105157631D01*
X43399648Y-105154413D01*
X43452323Y-105109426D01*
X43518612Y-105001253D01*
X43521541Y-104994182D01*
X43532563Y-104964306D01*
X43552410Y-104839000D01*
X43552410Y-104639000D01*
X43551160Y-104607180D01*
X43521541Y-104483818D01*
X43518612Y-104476747D01*
X43489729Y-104420060D01*
X43489725Y-104420055D01*
X43489722Y-104420050D01*
X43407340Y-104323590D01*
X43407334Y-104323585D01*
X43299169Y-104257301D01*
X43299161Y-104257297D01*
X43292089Y-104254367D01*
X43262217Y-104243347D01*
X43262215Y-104243346D01*
X43156756Y-104226643D01*
X43136910Y-104223500D01*
X42036910Y-104223500D01*
X42036900Y-104223500D01*
X42005089Y-104224749D01*
X42005087Y-104224750D01*
X41881732Y-104254367D01*
X41875876Y-104256793D01*
X41874657Y-104257298D01*
X41817970Y-104286181D01*
X41817968Y-104286182D01*
X41817965Y-104286184D01*
X41817960Y-104286187D01*
X41721500Y-104368569D01*
X41721495Y-104368575D01*
X41655211Y-104476740D01*
X41655207Y-104476748D01*
X41652277Y-104483820D01*
X41641257Y-104513692D01*
X41641256Y-104513694D01*
X41621410Y-104639000D01*
X41621410Y-104839010D01*
X41622659Y-104870820D01*
X41622660Y-104870822D01*
X41652277Y-104994177D01*
X41652278Y-104994179D01*
X41652279Y-104994182D01*
X41655208Y-105001253D01*
X41684091Y-105057940D01*
X41684093Y-105057942D01*
X41684094Y-105057944D01*
X41684097Y-105057949D01*
X41766480Y-105154410D01*
X41773905Y-105160751D01*
X41772158Y-105162796D01*
X41809073Y-105203594D01*
X41821410Y-105257515D01*
X41821410Y-105339010D01*
X41822659Y-105370820D01*
X41822660Y-105370822D01*
X41852277Y-105494177D01*
X41852278Y-105494179D01*
X41852279Y-105494182D01*
X41855208Y-105501253D01*
X41884091Y-105557940D01*
X41884093Y-105557942D01*
X41884094Y-105557944D01*
X41884097Y-105557949D01*
X41966479Y-105654409D01*
X41966482Y-105654411D01*
X41966484Y-105654413D01*
X42008982Y-105680456D01*
X42027200Y-105691620D01*
X42074075Y-105743432D01*
X42086410Y-105797347D01*
X42086410Y-108625322D01*
X42066725Y-108692361D01*
X42023565Y-108731411D01*
X42024042Y-108732125D01*
X42019204Y-108735356D01*
X42018710Y-108735804D01*
X42017971Y-108736180D01*
X42017960Y-108736187D01*
X41921500Y-108818569D01*
X41921495Y-108818575D01*
X41855211Y-108926740D01*
X41855207Y-108926748D01*
X41852277Y-108933820D01*
X41841257Y-108963692D01*
X41841256Y-108963694D01*
X41821410Y-109089000D01*
X41821410Y-109176077D01*
X41801725Y-109243116D01*
X41777940Y-109270369D01*
X41721497Y-109318573D01*
X41721495Y-109318575D01*
X41655211Y-109426740D01*
X41655207Y-109426748D01*
X41652277Y-109433820D01*
X41641257Y-109463692D01*
X41641256Y-109463694D01*
X41621410Y-109589000D01*
X41621410Y-109789010D01*
X41622659Y-109820820D01*
X41622660Y-109820822D01*
X41652277Y-109944177D01*
X41652278Y-109944181D01*
X41652279Y-109944182D01*
X41655208Y-109951253D01*
X41684091Y-110007940D01*
X41684093Y-110007942D01*
X41684094Y-110007944D01*
X41684097Y-110007949D01*
X41766479Y-110104409D01*
X41766485Y-110104414D01*
X41862542Y-110163278D01*
X41874657Y-110170702D01*
X41878730Y-110172389D01*
X41881730Y-110173632D01*
X41894926Y-110178500D01*
X41911604Y-110184653D01*
X42036910Y-110204500D01*
X42588234Y-110204500D01*
X42655273Y-110224185D01*
X42675915Y-110240819D01*
X43213181Y-110778085D01*
X43246666Y-110839408D01*
X43249500Y-110865766D01*
X43249500Y-116519500D01*
X43229815Y-116586539D01*
X43177011Y-116632294D01*
X43125500Y-116643500D01*
X42093990Y-116643500D01*
X42062179Y-116644749D01*
X42062177Y-116644750D01*
X41938822Y-116674367D01*
X41932966Y-116676793D01*
X41931747Y-116677298D01*
X41875060Y-116706181D01*
X41875058Y-116706182D01*
X41875055Y-116706184D01*
X41875050Y-116706187D01*
X41778590Y-116788569D01*
X41778585Y-116788575D01*
X41712301Y-116896740D01*
X41712297Y-116896748D01*
X41709367Y-116903820D01*
X41698347Y-116933692D01*
X41698346Y-116933694D01*
X41678500Y-117059000D01*
X41678500Y-117259010D01*
X41679749Y-117290820D01*
X41679750Y-117290822D01*
X41709367Y-117414177D01*
X41709368Y-117414179D01*
X41709369Y-117414182D01*
X41712298Y-117421253D01*
X41741181Y-117477940D01*
X41741183Y-117477942D01*
X41741184Y-117477944D01*
X41741187Y-117477949D01*
X41823570Y-117574410D01*
X41830995Y-117580751D01*
X41829248Y-117582796D01*
X41866163Y-117623594D01*
X41878500Y-117677515D01*
X41878500Y-117759010D01*
X41879749Y-117790820D01*
X41879750Y-117790822D01*
X41909367Y-117914177D01*
X41909368Y-117914179D01*
X41909369Y-117914182D01*
X41912298Y-117921253D01*
X41941181Y-117977940D01*
X41941183Y-117977942D01*
X41941184Y-117977944D01*
X41941187Y-117977949D01*
X42023569Y-118074409D01*
X42023572Y-118074411D01*
X42023574Y-118074413D01*
X42084290Y-118111620D01*
X42131165Y-118163432D01*
X42143500Y-118217347D01*
X42143500Y-121045322D01*
X42123815Y-121112361D01*
X42080655Y-121151411D01*
X42081132Y-121152125D01*
X42076294Y-121155356D01*
X42075800Y-121155804D01*
X42075061Y-121156180D01*
X42075050Y-121156187D01*
X41978590Y-121238569D01*
X41978585Y-121238575D01*
X41912301Y-121346740D01*
X41912297Y-121346748D01*
X41909367Y-121353820D01*
X41898347Y-121383692D01*
X41898346Y-121383694D01*
X41878500Y-121509000D01*
X41878500Y-121596077D01*
X41858815Y-121663116D01*
X41835030Y-121690369D01*
X41778587Y-121738573D01*
X41778585Y-121738575D01*
X41712301Y-121846740D01*
X41712297Y-121846748D01*
X41709367Y-121853820D01*
X41698347Y-121883692D01*
X41698346Y-121883694D01*
X41678500Y-122009000D01*
X41678500Y-122209010D01*
X41679749Y-122240820D01*
X41679750Y-122240822D01*
X41709367Y-122364177D01*
X41709368Y-122364179D01*
X41709369Y-122364182D01*
X41712298Y-122371253D01*
X41741181Y-122427940D01*
X41741183Y-122427942D01*
X41741184Y-122427944D01*
X41741187Y-122427949D01*
X41823569Y-122524409D01*
X41823575Y-122524414D01*
X41930709Y-122590066D01*
X41931747Y-122590702D01*
X41936748Y-122592773D01*
X41938820Y-122593632D01*
X41953756Y-122599142D01*
X41968694Y-122604653D01*
X42094000Y-122624500D01*
X42125500Y-122624500D01*
X42192539Y-122644185D01*
X42238294Y-122696989D01*
X42249500Y-122748500D01*
X42249500Y-126885108D01*
X42249500Y-127016892D01*
X42260565Y-127058186D01*
X42283608Y-127144187D01*
X42307062Y-127184809D01*
X42349500Y-127258314D01*
X42349501Y-127258315D01*
X42349502Y-127258316D01*
X47033159Y-131941972D01*
X47033169Y-131941983D01*
X47037499Y-131946313D01*
X47037500Y-131946314D01*
X47130686Y-132039500D01*
X47244814Y-132105392D01*
X47372107Y-132139500D01*
X47372108Y-132139500D01*
X48309500Y-132139500D01*
X48376539Y-132159185D01*
X48422294Y-132211989D01*
X48433500Y-132263499D01*
X48433500Y-132436869D01*
X48433501Y-132436876D01*
X48439908Y-132496483D01*
X48467577Y-132570667D01*
X48472561Y-132640358D01*
X48467577Y-132657331D01*
X48439910Y-132731511D01*
X48439909Y-132731515D01*
X48439909Y-132731517D01*
X48433500Y-132791127D01*
X48433500Y-132791134D01*
X48433500Y-132791135D01*
X48433500Y-133086869D01*
X48433501Y-133086876D01*
X48439908Y-133146483D01*
X48467577Y-133220667D01*
X48472561Y-133290358D01*
X48467577Y-133307331D01*
X48439910Y-133381511D01*
X48439909Y-133381515D01*
X48439909Y-133381517D01*
X48433500Y-133441127D01*
X48433500Y-133441134D01*
X48433500Y-133441135D01*
X48433500Y-133736869D01*
X48433501Y-133736886D01*
X48434680Y-133747850D01*
X48422271Y-133816609D01*
X48410188Y-133835912D01*
X48409900Y-133836410D01*
X48349444Y-133982368D01*
X48341987Y-134039000D01*
X48525103Y-134039000D01*
X48592142Y-134058685D01*
X48599403Y-134063726D01*
X48691668Y-134132795D01*
X48691671Y-134132797D01*
X48826517Y-134183091D01*
X48826516Y-134183091D01*
X48833444Y-134183835D01*
X48886127Y-134189500D01*
X50681872Y-134189499D01*
X50741483Y-134183091D01*
X50876331Y-134132796D01*
X50901128Y-134114233D01*
X50966592Y-134089816D01*
X50975439Y-134089500D01*
X51976890Y-134089500D01*
X51976892Y-134089500D01*
X52104186Y-134055392D01*
X52218314Y-133989500D01*
X53900499Y-132307315D01*
X53939653Y-132239500D01*
X53966392Y-132193186D01*
X53989916Y-132105392D01*
X54000500Y-132065893D01*
X54000500Y-131934108D01*
X54000500Y-126035523D01*
X54020185Y-125968484D01*
X54072989Y-125922729D01*
X54142147Y-125912785D01*
X54205703Y-125941810D01*
X54212181Y-125947842D01*
X54331654Y-126067315D01*
X54480875Y-126159356D01*
X54480880Y-126159358D01*
X54647302Y-126214505D01*
X54647309Y-126214506D01*
X54750019Y-126224999D01*
X54799999Y-126224998D01*
X54800000Y-126224998D01*
X54800000Y-123775000D01*
X54799999Y-123774999D01*
X54750029Y-123775000D01*
X54750011Y-123775001D01*
X54647302Y-123785494D01*
X54480880Y-123840641D01*
X54480875Y-123840643D01*
X54331654Y-123932684D01*
X54212181Y-124052158D01*
X54150858Y-124085643D01*
X54081166Y-124080659D01*
X54025233Y-124038787D01*
X54000816Y-123973323D01*
X54000500Y-123964477D01*
X54000500Y-123712676D01*
X54020185Y-123645637D01*
X54036819Y-123624995D01*
X55000995Y-122660819D01*
X55062318Y-122627334D01*
X55088676Y-122624500D01*
X55640010Y-122624500D01*
X55671820Y-122623250D01*
X55795182Y-122593631D01*
X55802253Y-122590702D01*
X55858940Y-122561819D01*
X55858946Y-122561813D01*
X55858949Y-122561812D01*
X55955409Y-122479430D01*
X55955410Y-122479427D01*
X55955413Y-122479426D01*
X56021702Y-122371253D01*
X56024631Y-122364182D01*
X56035653Y-122334306D01*
X56055500Y-122209000D01*
X56055500Y-122009000D01*
X56054250Y-121977180D01*
X56024631Y-121853818D01*
X56021702Y-121846747D01*
X55992819Y-121790060D01*
X55992815Y-121790055D01*
X55992812Y-121790050D01*
X55910430Y-121693590D01*
X55903006Y-121687250D01*
X55904751Y-121685205D01*
X55867834Y-121644398D01*
X55855500Y-121590485D01*
X55855500Y-121508989D01*
X55854250Y-121477179D01*
X55854249Y-121477177D01*
X55838117Y-121409989D01*
X55824631Y-121353818D01*
X55821702Y-121346747D01*
X55792819Y-121290060D01*
X55792815Y-121290055D01*
X55792812Y-121290050D01*
X55710430Y-121193590D01*
X55710426Y-121193587D01*
X55649709Y-121156379D01*
X55602834Y-121104566D01*
X55590500Y-121050652D01*
X55590500Y-118222677D01*
X55610185Y-118155638D01*
X55653346Y-118116590D01*
X55652868Y-118115875D01*
X55657721Y-118112632D01*
X55658209Y-118112191D01*
X55658940Y-118111819D01*
X55658945Y-118111814D01*
X55658949Y-118111812D01*
X55755409Y-118029430D01*
X55755410Y-118029427D01*
X55755413Y-118029426D01*
X55821702Y-117921253D01*
X55824631Y-117914182D01*
X55835653Y-117884306D01*
X55855500Y-117759000D01*
X55855500Y-117671923D01*
X55875185Y-117604884D01*
X55898970Y-117577631D01*
X55902738Y-117574413D01*
X55955413Y-117529426D01*
X56021702Y-117421253D01*
X56024631Y-117414182D01*
X56035653Y-117384306D01*
X56055500Y-117259000D01*
X56055500Y-117059000D01*
X56054250Y-117027180D01*
X56024631Y-116903818D01*
X56021702Y-116896747D01*
X55992819Y-116840060D01*
X55992815Y-116840055D01*
X55992812Y-116840050D01*
X55910430Y-116743590D01*
X55910424Y-116743585D01*
X55802259Y-116677301D01*
X55802251Y-116677297D01*
X55795179Y-116674367D01*
X55765307Y-116663347D01*
X55765305Y-116663346D01*
X55659846Y-116646643D01*
X55640000Y-116643500D01*
X54540000Y-116643500D01*
X54539990Y-116643500D01*
X54508179Y-116644749D01*
X54508177Y-116644750D01*
X54384822Y-116674367D01*
X54378966Y-116676793D01*
X54377747Y-116677298D01*
X54321060Y-116706181D01*
X54321058Y-116706182D01*
X54321055Y-116706184D01*
X54321050Y-116706187D01*
X54224590Y-116788569D01*
X54224585Y-116788575D01*
X54158301Y-116896740D01*
X54158297Y-116896748D01*
X54155367Y-116903820D01*
X54144347Y-116933692D01*
X54144346Y-116933694D01*
X54124500Y-117059000D01*
X54124500Y-117259010D01*
X54125749Y-117290820D01*
X54125750Y-117290822D01*
X54155367Y-117414177D01*
X54155368Y-117414179D01*
X54155369Y-117414182D01*
X54158298Y-117421253D01*
X54187181Y-117477940D01*
X54187183Y-117477942D01*
X54187184Y-117477944D01*
X54187187Y-117477949D01*
X54269570Y-117574410D01*
X54276995Y-117580751D01*
X54275248Y-117582796D01*
X54312163Y-117623594D01*
X54324500Y-117677515D01*
X54324500Y-117759010D01*
X54325749Y-117790820D01*
X54325750Y-117790822D01*
X54355367Y-117914177D01*
X54355368Y-117914179D01*
X54355369Y-117914182D01*
X54358298Y-117921253D01*
X54387181Y-117977940D01*
X54387183Y-117977942D01*
X54387184Y-117977944D01*
X54387187Y-117977949D01*
X54469569Y-118074409D01*
X54469572Y-118074411D01*
X54469574Y-118074413D01*
X54530290Y-118111620D01*
X54577165Y-118163432D01*
X54589500Y-118217347D01*
X54589500Y-121045322D01*
X54569815Y-121112361D01*
X54526655Y-121151411D01*
X54527132Y-121152125D01*
X54522294Y-121155356D01*
X54521800Y-121155804D01*
X54521061Y-121156180D01*
X54521050Y-121156187D01*
X54424590Y-121238569D01*
X54424585Y-121238575D01*
X54358301Y-121346740D01*
X54358297Y-121346748D01*
X54355367Y-121353820D01*
X54344347Y-121383692D01*
X54344346Y-121383694D01*
X54324500Y-121509000D01*
X54324500Y-121596077D01*
X54304815Y-121663116D01*
X54281030Y-121690369D01*
X54224587Y-121738573D01*
X54224585Y-121738575D01*
X54158301Y-121846740D01*
X54158297Y-121846748D01*
X54155367Y-121853820D01*
X54144347Y-121883692D01*
X54144346Y-121883694D01*
X54124500Y-122009000D01*
X54124500Y-122070324D01*
X54104815Y-122137363D01*
X54088181Y-122158005D01*
X53712181Y-122534005D01*
X53650858Y-122567490D01*
X53581166Y-122562506D01*
X53525233Y-122520634D01*
X53500816Y-122455170D01*
X53500500Y-122446324D01*
X53500500Y-111766676D01*
X53520185Y-111699637D01*
X53536819Y-111678995D01*
X55000995Y-110214819D01*
X55062318Y-110181334D01*
X55088676Y-110178500D01*
X55640010Y-110178500D01*
X55671820Y-110177250D01*
X55795182Y-110147631D01*
X55802253Y-110144702D01*
X55858940Y-110115819D01*
X55858946Y-110115813D01*
X55858949Y-110115812D01*
X55955409Y-110033430D01*
X55955410Y-110033427D01*
X55955413Y-110033426D01*
X56021702Y-109925253D01*
X56024631Y-109918182D01*
X56035653Y-109888306D01*
X56055500Y-109763000D01*
X56055500Y-109563000D01*
X56055271Y-109557180D01*
X56054250Y-109531179D01*
X56054249Y-109531177D01*
X56030874Y-109433822D01*
X56024631Y-109407818D01*
X56021702Y-109400747D01*
X55992819Y-109344060D01*
X55992815Y-109344055D01*
X55992812Y-109344050D01*
X55910430Y-109247590D01*
X55903006Y-109241250D01*
X55904751Y-109239205D01*
X55867834Y-109198398D01*
X55855500Y-109144485D01*
X55855500Y-109062989D01*
X55854250Y-109031179D01*
X55854249Y-109031177D01*
X55830874Y-108933822D01*
X55824631Y-108907818D01*
X55821702Y-108900747D01*
X55792819Y-108844060D01*
X55792815Y-108844055D01*
X55792812Y-108844050D01*
X55710430Y-108747590D01*
X55710426Y-108747587D01*
X55649709Y-108710379D01*
X55602834Y-108658566D01*
X55590500Y-108604652D01*
X55590500Y-105776677D01*
X55610185Y-105709638D01*
X55653346Y-105670590D01*
X55652868Y-105669875D01*
X55657721Y-105666632D01*
X55658209Y-105666191D01*
X55658940Y-105665819D01*
X55658945Y-105665814D01*
X55658949Y-105665812D01*
X55755409Y-105583430D01*
X55755410Y-105583427D01*
X55755413Y-105583426D01*
X55821702Y-105475253D01*
X55824631Y-105468182D01*
X55835653Y-105438306D01*
X55855500Y-105313000D01*
X55855500Y-105225923D01*
X55875185Y-105158884D01*
X55898970Y-105131631D01*
X55902738Y-105128413D01*
X55955413Y-105083426D01*
X56021702Y-104975253D01*
X56024631Y-104968182D01*
X56035653Y-104938306D01*
X56055500Y-104813000D01*
X56055500Y-104613000D01*
X56055271Y-104607180D01*
X56054250Y-104581179D01*
X56054249Y-104581177D01*
X56030874Y-104483822D01*
X56024631Y-104457818D01*
X56021702Y-104450747D01*
X55992819Y-104394060D01*
X55992815Y-104394055D01*
X55992812Y-104394050D01*
X55910430Y-104297590D01*
X55910424Y-104297585D01*
X55802259Y-104231301D01*
X55802251Y-104231297D01*
X55795179Y-104228367D01*
X55765307Y-104217347D01*
X55765305Y-104217346D01*
X55659846Y-104200643D01*
X55640000Y-104197500D01*
X54540000Y-104197500D01*
X54539990Y-104197500D01*
X54508179Y-104198749D01*
X54508177Y-104198750D01*
X54384822Y-104228367D01*
X54378966Y-104230793D01*
X54377747Y-104231298D01*
X54321060Y-104260181D01*
X54321058Y-104260182D01*
X54321055Y-104260184D01*
X54321050Y-104260187D01*
X54224590Y-104342569D01*
X54224585Y-104342575D01*
X54158301Y-104450740D01*
X54158297Y-104450748D01*
X54155367Y-104457820D01*
X54144347Y-104487692D01*
X54144346Y-104487694D01*
X54124500Y-104613000D01*
X54124500Y-104813010D01*
X54125749Y-104844820D01*
X54125750Y-104844822D01*
X54155367Y-104968177D01*
X54155368Y-104968179D01*
X54155369Y-104968182D01*
X54158298Y-104975253D01*
X54187181Y-105031940D01*
X54187183Y-105031942D01*
X54187184Y-105031944D01*
X54187187Y-105031949D01*
X54269570Y-105128410D01*
X54276995Y-105134751D01*
X54275248Y-105136796D01*
X54312163Y-105177594D01*
X54324500Y-105231515D01*
X54324500Y-105313010D01*
X54325749Y-105344820D01*
X54325750Y-105344822D01*
X54355367Y-105468177D01*
X54355368Y-105468179D01*
X54355369Y-105468182D01*
X54358298Y-105475253D01*
X54387181Y-105531940D01*
X54387183Y-105531942D01*
X54387184Y-105531944D01*
X54387187Y-105531949D01*
X54469569Y-105628409D01*
X54469572Y-105628411D01*
X54469574Y-105628413D01*
X54512002Y-105654413D01*
X54530290Y-105665620D01*
X54577165Y-105717432D01*
X54589500Y-105771347D01*
X54589500Y-108599322D01*
X54569815Y-108666361D01*
X54526655Y-108705411D01*
X54527132Y-108706125D01*
X54522294Y-108709356D01*
X54521800Y-108709804D01*
X54521061Y-108710180D01*
X54521050Y-108710187D01*
X54424590Y-108792569D01*
X54424585Y-108792575D01*
X54358301Y-108900740D01*
X54358297Y-108900748D01*
X54355367Y-108907820D01*
X54344347Y-108937692D01*
X54344346Y-108937694D01*
X54324500Y-109063000D01*
X54324500Y-109150077D01*
X54304815Y-109217116D01*
X54281030Y-109244369D01*
X54224587Y-109292573D01*
X54224585Y-109292575D01*
X54158301Y-109400740D01*
X54158297Y-109400748D01*
X54155367Y-109407820D01*
X54144347Y-109437692D01*
X54144346Y-109437694D01*
X54124500Y-109563000D01*
X54124500Y-109624324D01*
X54104815Y-109691363D01*
X54088181Y-109712005D01*
X53212181Y-110588005D01*
X53150858Y-110621490D01*
X53081166Y-110616506D01*
X53025233Y-110574634D01*
X53000816Y-110509170D01*
X53000500Y-110500324D01*
X53000500Y-99820676D01*
X53020185Y-99753637D01*
X53036819Y-99732995D01*
X55000995Y-97768819D01*
X55062318Y-97735334D01*
X55088676Y-97732500D01*
X55640010Y-97732500D01*
X55671820Y-97731250D01*
X55795182Y-97701631D01*
X55802253Y-97698702D01*
X55858940Y-97669819D01*
X55858946Y-97669813D01*
X55858949Y-97669812D01*
X55955409Y-97587430D01*
X55955410Y-97587427D01*
X55955413Y-97587426D01*
X56021702Y-97479253D01*
X56024631Y-97472182D01*
X56035653Y-97442306D01*
X56055500Y-97317000D01*
X56055500Y-97117000D01*
X56054250Y-97085180D01*
X56024631Y-96961818D01*
X56021702Y-96954747D01*
X55992819Y-96898060D01*
X55992815Y-96898055D01*
X55992812Y-96898050D01*
X55910430Y-96801590D01*
X55903006Y-96795250D01*
X55904751Y-96793205D01*
X55867834Y-96752398D01*
X55855500Y-96698485D01*
X55855500Y-96616989D01*
X55854250Y-96585179D01*
X55854249Y-96585177D01*
X55824632Y-96461822D01*
X55824631Y-96461820D01*
X55824631Y-96461818D01*
X55821702Y-96454747D01*
X55792819Y-96398060D01*
X55792815Y-96398055D01*
X55792812Y-96398050D01*
X55710430Y-96301590D01*
X55710426Y-96301587D01*
X55649709Y-96264379D01*
X55602834Y-96212566D01*
X55590500Y-96158652D01*
X55590500Y-93330677D01*
X55610185Y-93263638D01*
X55653346Y-93224590D01*
X55652868Y-93223875D01*
X55657721Y-93220632D01*
X55658209Y-93220191D01*
X55658940Y-93219819D01*
X55658945Y-93219814D01*
X55658949Y-93219812D01*
X55755409Y-93137430D01*
X55755410Y-93137427D01*
X55755413Y-93137426D01*
X55821702Y-93029253D01*
X55824631Y-93022182D01*
X55835653Y-92992306D01*
X55855500Y-92867000D01*
X55855500Y-92779923D01*
X55875185Y-92712884D01*
X55898970Y-92685631D01*
X55902738Y-92682413D01*
X55955413Y-92637426D01*
X56021702Y-92529253D01*
X56024631Y-92522182D01*
X56035653Y-92492306D01*
X56055500Y-92367000D01*
X56055500Y-92167000D01*
X56054250Y-92135180D01*
X56024631Y-92011818D01*
X56021702Y-92004747D01*
X55992819Y-91948060D01*
X55992815Y-91948055D01*
X55992812Y-91948050D01*
X55910430Y-91851590D01*
X55910424Y-91851585D01*
X55802259Y-91785301D01*
X55802251Y-91785297D01*
X55795179Y-91782367D01*
X55765307Y-91771347D01*
X55765305Y-91771346D01*
X55659846Y-91754643D01*
X55640000Y-91751500D01*
X54540000Y-91751500D01*
X54539990Y-91751500D01*
X54508179Y-91752749D01*
X54508177Y-91752750D01*
X54384822Y-91782367D01*
X54378966Y-91784793D01*
X54377747Y-91785298D01*
X54321060Y-91814181D01*
X54321058Y-91814182D01*
X54321055Y-91814184D01*
X54321050Y-91814187D01*
X54224590Y-91896569D01*
X54224585Y-91896575D01*
X54158301Y-92004740D01*
X54158297Y-92004748D01*
X54155367Y-92011820D01*
X54144347Y-92041692D01*
X54144346Y-92041694D01*
X54124500Y-92167000D01*
X54124500Y-92367010D01*
X54125749Y-92398820D01*
X54125750Y-92398822D01*
X54155367Y-92522177D01*
X54155368Y-92522179D01*
X54155369Y-92522182D01*
X54158298Y-92529253D01*
X54187181Y-92585940D01*
X54187183Y-92585942D01*
X54187184Y-92585944D01*
X54187187Y-92585949D01*
X54269570Y-92682410D01*
X54276995Y-92688751D01*
X54275248Y-92690796D01*
X54312163Y-92731594D01*
X54324500Y-92785515D01*
X54324500Y-92867010D01*
X54325749Y-92898820D01*
X54325750Y-92898822D01*
X54355367Y-93022177D01*
X54355368Y-93022179D01*
X54355369Y-93022182D01*
X54358298Y-93029253D01*
X54387181Y-93085940D01*
X54387183Y-93085942D01*
X54387184Y-93085944D01*
X54387187Y-93085949D01*
X54469569Y-93182409D01*
X54469572Y-93182411D01*
X54469574Y-93182413D01*
X54530290Y-93219620D01*
X54577165Y-93271432D01*
X54589500Y-93325347D01*
X54589500Y-96153322D01*
X54569815Y-96220361D01*
X54526655Y-96259411D01*
X54527132Y-96260125D01*
X54522294Y-96263356D01*
X54521800Y-96263804D01*
X54521061Y-96264180D01*
X54521050Y-96264187D01*
X54424590Y-96346569D01*
X54424585Y-96346575D01*
X54358301Y-96454740D01*
X54358297Y-96454748D01*
X54355367Y-96461820D01*
X54344347Y-96491692D01*
X54344346Y-96491694D01*
X54324500Y-96617000D01*
X54324500Y-96704077D01*
X54304815Y-96771116D01*
X54281030Y-96798369D01*
X54224587Y-96846573D01*
X54224585Y-96846575D01*
X54158301Y-96954740D01*
X54158297Y-96954748D01*
X54155367Y-96961820D01*
X54144347Y-96991692D01*
X54144346Y-96991694D01*
X54124500Y-97117000D01*
X54124500Y-97178324D01*
X54104815Y-97245363D01*
X54088181Y-97266005D01*
X52099502Y-99254683D01*
X52099500Y-99254686D01*
X52033608Y-99368812D01*
X51999500Y-99496108D01*
X51999500Y-103974000D01*
X51979815Y-104041039D01*
X51927011Y-104086794D01*
X51875500Y-104098000D01*
X51840000Y-104098000D01*
X51840000Y-105828000D01*
X51875500Y-105828000D01*
X51942539Y-105847685D01*
X51988294Y-105900489D01*
X51999500Y-105952000D01*
X51999500Y-108424000D01*
X51979815Y-108491039D01*
X51927011Y-108536794D01*
X51875500Y-108548000D01*
X51840000Y-108548000D01*
X51840000Y-110278000D01*
X51875500Y-110278000D01*
X51942539Y-110297685D01*
X51988294Y-110350489D01*
X51999500Y-110402000D01*
X51999500Y-116420000D01*
X51979815Y-116487039D01*
X51927011Y-116532794D01*
X51875500Y-116544000D01*
X51840000Y-116544000D01*
X51840000Y-118274000D01*
X51875500Y-118274000D01*
X51942539Y-118293685D01*
X51988294Y-118346489D01*
X51999500Y-118398000D01*
X51999500Y-120870000D01*
X51979815Y-120937039D01*
X51927011Y-120982794D01*
X51875500Y-120994000D01*
X51840000Y-120994000D01*
X51840000Y-122724000D01*
X51875500Y-122724000D01*
X51942539Y-122743685D01*
X51988294Y-122796489D01*
X51999500Y-122848000D01*
X51999500Y-130741323D01*
X51979815Y-130808362D01*
X51963181Y-130829004D01*
X51327707Y-131464478D01*
X51266384Y-131497963D01*
X51196692Y-131492979D01*
X51140759Y-131451107D01*
X51123844Y-131420130D01*
X51100422Y-131357333D01*
X51095438Y-131287642D01*
X51100420Y-131270672D01*
X51128091Y-131196483D01*
X51134500Y-131136873D01*
X51134499Y-130841128D01*
X51128091Y-130781517D01*
X51100421Y-130707332D01*
X51095438Y-130637642D01*
X51100420Y-130620672D01*
X51128091Y-130546483D01*
X51134500Y-130486873D01*
X51134499Y-130191128D01*
X51128091Y-130131517D01*
X51100421Y-130057332D01*
X51095438Y-129987642D01*
X51100420Y-129970672D01*
X51128091Y-129896483D01*
X51134500Y-129836873D01*
X51134499Y-129541128D01*
X51128091Y-129481517D01*
X51100421Y-129407332D01*
X51095438Y-129337642D01*
X51100420Y-129320672D01*
X51128091Y-129246483D01*
X51134500Y-129186873D01*
X51134499Y-128891128D01*
X51134498Y-128891126D01*
X51134498Y-128891111D01*
X51133320Y-128880155D01*
X51145725Y-128811395D01*
X51157794Y-128792115D01*
X51158102Y-128791582D01*
X51218555Y-128645631D01*
X51226012Y-128589000D01*
X51042897Y-128589000D01*
X50975858Y-128569315D01*
X50968596Y-128564273D01*
X50876331Y-128495204D01*
X50876328Y-128495202D01*
X50741482Y-128444908D01*
X50741483Y-128444908D01*
X50681883Y-128438501D01*
X50681881Y-128438500D01*
X50681873Y-128438500D01*
X50681865Y-128438500D01*
X48886129Y-128438500D01*
X48886123Y-128438501D01*
X48826516Y-128444908D01*
X48691671Y-128495202D01*
X48691668Y-128495204D01*
X48666872Y-128513767D01*
X48601408Y-128538184D01*
X48592561Y-128538500D01*
X48271676Y-128538500D01*
X48204637Y-128518815D01*
X48183995Y-128502181D01*
X47870814Y-128189000D01*
X48341987Y-128189000D01*
X51226010Y-128189000D01*
X51226011Y-128188998D01*
X51218558Y-128132377D01*
X51218555Y-128132368D01*
X51209892Y-128111453D01*
X51202423Y-128041983D01*
X51209892Y-128016546D01*
X51218556Y-127995629D01*
X51226012Y-127939000D01*
X48341990Y-127939000D01*
X48341988Y-127939001D01*
X48349442Y-127995627D01*
X48349443Y-127995629D01*
X48358108Y-128016549D01*
X48365576Y-128086018D01*
X48358109Y-128111449D01*
X48349443Y-128132370D01*
X48341987Y-128189000D01*
X47870814Y-128189000D01*
X47653819Y-127972005D01*
X47620334Y-127910682D01*
X47617500Y-127884324D01*
X47617500Y-127251848D01*
X47637185Y-127184809D01*
X47689989Y-127139054D01*
X47759147Y-127129110D01*
X47810387Y-127148744D01*
X47918189Y-127220775D01*
X47918191Y-127220776D01*
X47918195Y-127220778D01*
X48043323Y-127272607D01*
X48045672Y-127273580D01*
X48045676Y-127273580D01*
X48045677Y-127273581D01*
X48181004Y-127300500D01*
X48239198Y-127300500D01*
X48306237Y-127320185D01*
X48351992Y-127372989D01*
X48361936Y-127442147D01*
X48353759Y-127471954D01*
X48349443Y-127482371D01*
X48341987Y-127539000D01*
X48525103Y-127539000D01*
X48592142Y-127558685D01*
X48599403Y-127563726D01*
X48636322Y-127591363D01*
X48691668Y-127632795D01*
X48691671Y-127632797D01*
X48826517Y-127683091D01*
X48826516Y-127683091D01*
X48833444Y-127683835D01*
X48886127Y-127689500D01*
X50681872Y-127689499D01*
X50741483Y-127683091D01*
X50876331Y-127632796D01*
X50968586Y-127563733D01*
X51034050Y-127539316D01*
X51042897Y-127539000D01*
X51226010Y-127539000D01*
X51226011Y-127538998D01*
X51218557Y-127482372D01*
X51218555Y-127482366D01*
X51158100Y-127336412D01*
X51154035Y-127329372D01*
X51155187Y-127328706D01*
X51133039Y-127271421D01*
X51133319Y-127247848D01*
X51134500Y-127236873D01*
X51134499Y-126941128D01*
X51128091Y-126881517D01*
X51127521Y-126879990D01*
X51077797Y-126746671D01*
X51077793Y-126746664D01*
X50991547Y-126631455D01*
X50991544Y-126631452D01*
X50876335Y-126545206D01*
X50876328Y-126545202D01*
X50741482Y-126494908D01*
X50741483Y-126494908D01*
X50681883Y-126488501D01*
X50681881Y-126488500D01*
X50681873Y-126488500D01*
X50681865Y-126488500D01*
X49942676Y-126488500D01*
X49875637Y-126468815D01*
X49854995Y-126452181D01*
X49602316Y-126199502D01*
X49602314Y-126199500D01*
X49532783Y-126159356D01*
X49488187Y-126133608D01*
X49424539Y-126116554D01*
X49360892Y-126099500D01*
X49360891Y-126099500D01*
X48791519Y-126099500D01*
X48724480Y-126079815D01*
X48703838Y-126063181D01*
X48696545Y-126055888D01*
X48696541Y-126055885D01*
X48581817Y-125979228D01*
X48581804Y-125979221D01*
X48454332Y-125926421D01*
X48454322Y-125926418D01*
X48318995Y-125899500D01*
X48318993Y-125899500D01*
X48181007Y-125899500D01*
X48181005Y-125899500D01*
X48045677Y-125926418D01*
X48045667Y-125926421D01*
X47918195Y-125979221D01*
X47918182Y-125979228D01*
X47810391Y-126051253D01*
X47743714Y-126072131D01*
X47676333Y-126053647D01*
X47629643Y-126001668D01*
X47617500Y-125948151D01*
X47617500Y-122209002D01*
X50525000Y-122209002D01*
X50527893Y-122262988D01*
X50563442Y-122402259D01*
X50566371Y-122409330D01*
X50618106Y-122504076D01*
X50716049Y-122609277D01*
X50716051Y-122609278D01*
X50839672Y-122682629D01*
X50846732Y-122685554D01*
X50897728Y-122703544D01*
X51040001Y-122723999D01*
X51040003Y-122724000D01*
X51340000Y-122724000D01*
X51340000Y-122109000D01*
X50525000Y-122109000D01*
X50525000Y-122209002D01*
X47617500Y-122209002D01*
X47617500Y-121590122D01*
X50713978Y-121590122D01*
X50721406Y-121609000D01*
X51340000Y-121609000D01*
X51340000Y-120994000D01*
X51239998Y-120994000D01*
X51186011Y-120996893D01*
X51046740Y-121032442D01*
X51039669Y-121035371D01*
X50944923Y-121087106D01*
X50839722Y-121185049D01*
X50839721Y-121185051D01*
X50766370Y-121308672D01*
X50763445Y-121315732D01*
X50745455Y-121366728D01*
X50725000Y-121509001D01*
X50725000Y-121551676D01*
X50715759Y-121583146D01*
X50713978Y-121590122D01*
X47617500Y-121590122D01*
X47617500Y-117670893D01*
X50710619Y-117670893D01*
X50723014Y-117695610D01*
X50725000Y-117717716D01*
X50725000Y-117759002D01*
X50727893Y-117812988D01*
X50763442Y-117952259D01*
X50766371Y-117959330D01*
X50818106Y-118054076D01*
X50916049Y-118159277D01*
X50916051Y-118159278D01*
X51039672Y-118232629D01*
X51046732Y-118235554D01*
X51097728Y-118253544D01*
X51240001Y-118273999D01*
X51240003Y-118274000D01*
X51340000Y-118274000D01*
X51340000Y-117659000D01*
X50715791Y-117659000D01*
X50710619Y-117670893D01*
X47617500Y-117670893D01*
X47617500Y-117059001D01*
X50525000Y-117059001D01*
X50525000Y-117159000D01*
X51340000Y-117159000D01*
X51340000Y-116544000D01*
X51039998Y-116544000D01*
X50986011Y-116546893D01*
X50846740Y-116582442D01*
X50839669Y-116585371D01*
X50744923Y-116637106D01*
X50639722Y-116735049D01*
X50639721Y-116735051D01*
X50566370Y-116858672D01*
X50563445Y-116865732D01*
X50545455Y-116916728D01*
X50525000Y-117059001D01*
X47617500Y-117059001D01*
X47617500Y-109763002D01*
X50525000Y-109763002D01*
X50527893Y-109816988D01*
X50563442Y-109956259D01*
X50566371Y-109963330D01*
X50618106Y-110058076D01*
X50716049Y-110163277D01*
X50716051Y-110163278D01*
X50839672Y-110236629D01*
X50846732Y-110239554D01*
X50897728Y-110257544D01*
X51040001Y-110277999D01*
X51040003Y-110278000D01*
X51340000Y-110278000D01*
X51340000Y-109663000D01*
X50525000Y-109663000D01*
X50525000Y-109763002D01*
X47617500Y-109763002D01*
X47617500Y-109144122D01*
X50713978Y-109144122D01*
X50721406Y-109163000D01*
X51340000Y-109163000D01*
X51340000Y-108548000D01*
X51239998Y-108548000D01*
X51186011Y-108550893D01*
X51046740Y-108586442D01*
X51039669Y-108589371D01*
X50944923Y-108641106D01*
X50839722Y-108739049D01*
X50839721Y-108739051D01*
X50766370Y-108862672D01*
X50763445Y-108869732D01*
X50745455Y-108920728D01*
X50725000Y-109063001D01*
X50725000Y-109105676D01*
X50715759Y-109137146D01*
X50713978Y-109144122D01*
X47617500Y-109144122D01*
X47617500Y-105224893D01*
X50710619Y-105224893D01*
X50723014Y-105249610D01*
X50725000Y-105271716D01*
X50725000Y-105313002D01*
X50727893Y-105366988D01*
X50763442Y-105506259D01*
X50766371Y-105513330D01*
X50818106Y-105608076D01*
X50916049Y-105713277D01*
X50916051Y-105713278D01*
X51039672Y-105786629D01*
X51046732Y-105789554D01*
X51097728Y-105807544D01*
X51240001Y-105827999D01*
X51240003Y-105828000D01*
X51340000Y-105828000D01*
X51340000Y-105213000D01*
X50715791Y-105213000D01*
X50710619Y-105224893D01*
X47617500Y-105224893D01*
X47617500Y-104613001D01*
X50525000Y-104613001D01*
X50525000Y-104713000D01*
X51340000Y-104713000D01*
X51340000Y-104098000D01*
X51039998Y-104098000D01*
X50986011Y-104100893D01*
X50846740Y-104136442D01*
X50839669Y-104139371D01*
X50744923Y-104191106D01*
X50639722Y-104289049D01*
X50639721Y-104289051D01*
X50566370Y-104412672D01*
X50563445Y-104419732D01*
X50545455Y-104470728D01*
X50525000Y-104613001D01*
X47617500Y-104613001D01*
X47617500Y-97317002D01*
X50525000Y-97317002D01*
X50527893Y-97370988D01*
X50563442Y-97510259D01*
X50566371Y-97517330D01*
X50618106Y-97612076D01*
X50716049Y-97717277D01*
X50716051Y-97717278D01*
X50839672Y-97790629D01*
X50846732Y-97793554D01*
X50897728Y-97811544D01*
X51040001Y-97831999D01*
X51040003Y-97832000D01*
X51340000Y-97832000D01*
X51840000Y-97832000D01*
X52140002Y-97832000D01*
X52193988Y-97829106D01*
X52333259Y-97793557D01*
X52340330Y-97790628D01*
X52435076Y-97738893D01*
X52540277Y-97640950D01*
X52540278Y-97640948D01*
X52613629Y-97517327D01*
X52616554Y-97510267D01*
X52634544Y-97459271D01*
X52654999Y-97316998D01*
X52655000Y-97316997D01*
X52655000Y-97217000D01*
X51840000Y-97217000D01*
X51840000Y-97832000D01*
X51340000Y-97832000D01*
X51340000Y-97217000D01*
X50525000Y-97217000D01*
X50525000Y-97317002D01*
X47617500Y-97317002D01*
X47617500Y-96698122D01*
X50713978Y-96698122D01*
X50721406Y-96717000D01*
X51340000Y-96717000D01*
X51840000Y-96717000D01*
X52464209Y-96717000D01*
X52469381Y-96705105D01*
X52456986Y-96680388D01*
X52455000Y-96658283D01*
X52455000Y-96616997D01*
X52452106Y-96563011D01*
X52416557Y-96423740D01*
X52413628Y-96416669D01*
X52361893Y-96321923D01*
X52263950Y-96216722D01*
X52263948Y-96216721D01*
X52140327Y-96143370D01*
X52133267Y-96140445D01*
X52082271Y-96122455D01*
X51939998Y-96102000D01*
X51840000Y-96102000D01*
X51840000Y-96717000D01*
X51340000Y-96717000D01*
X51340000Y-96102000D01*
X51239998Y-96102000D01*
X51186011Y-96104893D01*
X51046740Y-96140442D01*
X51039669Y-96143371D01*
X50944923Y-96195106D01*
X50839722Y-96293049D01*
X50839721Y-96293051D01*
X50766370Y-96416672D01*
X50763445Y-96423732D01*
X50745455Y-96474728D01*
X50725000Y-96617001D01*
X50725000Y-96659676D01*
X50715759Y-96691146D01*
X50713978Y-96698122D01*
X47617500Y-96698122D01*
X47617500Y-92778893D01*
X50710619Y-92778893D01*
X50723014Y-92803610D01*
X50725000Y-92825716D01*
X50725000Y-92867002D01*
X50727893Y-92920988D01*
X50763442Y-93060259D01*
X50766371Y-93067330D01*
X50818106Y-93162076D01*
X50916049Y-93267277D01*
X50916051Y-93267278D01*
X51039672Y-93340629D01*
X51046732Y-93343554D01*
X51097728Y-93361544D01*
X51240001Y-93381999D01*
X51240003Y-93382000D01*
X51340000Y-93382000D01*
X51840000Y-93382000D01*
X51940002Y-93382000D01*
X51993988Y-93379106D01*
X52133259Y-93343557D01*
X52140330Y-93340628D01*
X52235076Y-93288893D01*
X52340277Y-93190950D01*
X52340278Y-93190948D01*
X52413629Y-93067327D01*
X52416554Y-93060267D01*
X52434544Y-93009271D01*
X52454999Y-92866998D01*
X52455000Y-92866997D01*
X52455000Y-92824322D01*
X52466173Y-92786269D01*
X52458592Y-92767000D01*
X51840000Y-92767000D01*
X51840000Y-93382000D01*
X51340000Y-93382000D01*
X51340000Y-92767000D01*
X50715791Y-92767000D01*
X50710619Y-92778893D01*
X47617500Y-92778893D01*
X47617500Y-92167001D01*
X50525000Y-92167001D01*
X50525000Y-92267000D01*
X51340000Y-92267000D01*
X51840000Y-92267000D01*
X52655000Y-92267000D01*
X52655000Y-92166997D01*
X52652106Y-92113011D01*
X52616557Y-91973740D01*
X52613628Y-91966669D01*
X52561893Y-91871923D01*
X52463950Y-91766722D01*
X52463948Y-91766721D01*
X52340327Y-91693370D01*
X52333267Y-91690445D01*
X52282271Y-91672455D01*
X52139998Y-91652000D01*
X51840000Y-91652000D01*
X51840000Y-92267000D01*
X51340000Y-92267000D01*
X51340000Y-91652000D01*
X51039998Y-91652000D01*
X50986011Y-91654893D01*
X50846740Y-91690442D01*
X50839669Y-91693371D01*
X50744923Y-91745106D01*
X50639722Y-91843049D01*
X50639721Y-91843051D01*
X50566370Y-91966672D01*
X50563445Y-91973732D01*
X50545455Y-92024728D01*
X50525000Y-92167001D01*
X47617500Y-92167001D01*
X47617500Y-91823010D01*
X47617500Y-91823008D01*
X47583392Y-91695714D01*
X47517500Y-91581586D01*
X47424314Y-91488400D01*
X40786819Y-84850905D01*
X40753334Y-84789582D01*
X40750500Y-84763224D01*
X40750500Y-82743703D01*
X48334764Y-82743703D01*
X48334764Y-83543690D01*
X49268284Y-83543690D01*
X49267429Y-83545754D01*
X49234764Y-83709972D01*
X49234764Y-83877408D01*
X49267429Y-84041626D01*
X49268284Y-84043690D01*
X48334765Y-84043690D01*
X48334765Y-84843676D01*
X48345258Y-84946387D01*
X48400405Y-85112809D01*
X48400407Y-85112814D01*
X48492448Y-85262035D01*
X48616418Y-85386005D01*
X48765639Y-85478046D01*
X48765644Y-85478048D01*
X48932066Y-85533195D01*
X48932073Y-85533196D01*
X49034783Y-85543689D01*
X49834763Y-85543689D01*
X49834764Y-85543688D01*
X49834764Y-84610170D01*
X49836828Y-84611025D01*
X50001046Y-84643690D01*
X50168482Y-84643690D01*
X50332700Y-84611025D01*
X50334764Y-84610170D01*
X50334764Y-85543689D01*
X51134736Y-85543689D01*
X51134750Y-85543688D01*
X51237461Y-85533195D01*
X51403883Y-85478048D01*
X51403888Y-85478046D01*
X51553109Y-85386005D01*
X51677079Y-85262035D01*
X51769120Y-85112814D01*
X51769122Y-85112809D01*
X51824269Y-84946387D01*
X51824270Y-84946380D01*
X51834763Y-84843676D01*
X51834764Y-84843663D01*
X51834764Y-84043690D01*
X50901244Y-84043690D01*
X50902099Y-84041626D01*
X50934764Y-83877408D01*
X50934764Y-83709972D01*
X50902099Y-83545754D01*
X50901244Y-83543690D01*
X51834763Y-83543690D01*
X51834763Y-82743718D01*
X51834762Y-82743703D01*
X51824269Y-82640992D01*
X51769122Y-82474570D01*
X51769120Y-82474565D01*
X51677079Y-82325344D01*
X51553109Y-82201374D01*
X51403888Y-82109333D01*
X51403883Y-82109331D01*
X51237461Y-82054184D01*
X51237454Y-82054183D01*
X51134750Y-82043690D01*
X50334764Y-82043690D01*
X50334764Y-82977209D01*
X50332700Y-82976355D01*
X50168482Y-82943690D01*
X50001046Y-82943690D01*
X49836828Y-82976355D01*
X49834764Y-82977209D01*
X49834764Y-82043690D01*
X49034792Y-82043690D01*
X49034776Y-82043691D01*
X48932066Y-82054184D01*
X48765644Y-82109331D01*
X48765639Y-82109333D01*
X48616418Y-82201374D01*
X48492448Y-82325344D01*
X48400407Y-82474565D01*
X48400405Y-82474570D01*
X48345258Y-82640992D01*
X48345257Y-82640999D01*
X48334764Y-82743703D01*
X40750500Y-82743703D01*
X40750500Y-78077933D01*
X40992916Y-78077933D01*
X40992916Y-78209717D01*
X41017419Y-78301167D01*
X41027024Y-78337012D01*
X41059970Y-78394075D01*
X41092916Y-78451139D01*
X42600316Y-79958539D01*
X42699151Y-80015602D01*
X42714440Y-80024429D01*
X42714444Y-80024431D01*
X42841738Y-80058539D01*
X42841740Y-80058539D01*
X42973521Y-80058539D01*
X42973523Y-80058539D01*
X43100816Y-80024431D01*
X43214945Y-79958539D01*
X43308130Y-79865354D01*
X43308130Y-79865352D01*
X43318334Y-79855149D01*
X43318338Y-79855144D01*
X43838460Y-79335022D01*
X44368790Y-78804692D01*
X44434682Y-78690564D01*
X44468790Y-78563270D01*
X44468790Y-78431485D01*
X44434682Y-78304192D01*
X44368790Y-78190064D01*
X44275604Y-78096878D01*
X44275603Y-78096877D01*
X44271273Y-78092547D01*
X44271262Y-78092537D01*
X42861393Y-76682667D01*
X42861392Y-76682666D01*
X42861391Y-76682665D01*
X42804327Y-76649719D01*
X42747264Y-76616773D01*
X42683616Y-76599719D01*
X42619970Y-76582665D01*
X42488185Y-76582665D01*
X42360889Y-76616773D01*
X42246763Y-76682665D01*
X42246760Y-76682667D01*
X41716433Y-77212995D01*
X41168669Y-77760755D01*
X41168660Y-77760767D01*
X41092916Y-77836511D01*
X41027024Y-77950637D01*
X40998500Y-78057093D01*
X40992916Y-78077933D01*
X40750500Y-78077933D01*
X40750500Y-61051441D01*
X45039646Y-61051441D01*
X45039646Y-61280830D01*
X45039647Y-61280846D01*
X45069588Y-61508273D01*
X45128964Y-61729866D01*
X45216748Y-61941795D01*
X45216752Y-61941805D01*
X45331445Y-62140460D01*
X45331451Y-62140467D01*
X45388027Y-62214200D01*
X46035530Y-61566696D01*
X46036386Y-61568762D01*
X46129408Y-61707980D01*
X46247802Y-61826374D01*
X46387020Y-61919396D01*
X46389083Y-61920250D01*
X45741580Y-62567753D01*
X45741580Y-62567754D01*
X45815312Y-62624330D01*
X46013976Y-62739029D01*
X46013986Y-62739033D01*
X46225915Y-62826817D01*
X46447508Y-62886193D01*
X46674935Y-62916134D01*
X46674952Y-62916136D01*
X46904340Y-62916136D01*
X46904356Y-62916134D01*
X47131783Y-62886193D01*
X47353376Y-62826817D01*
X47565305Y-62739033D01*
X47565314Y-62739029D01*
X47763973Y-62624333D01*
X47763980Y-62624328D01*
X47837710Y-62567753D01*
X47190207Y-61920250D01*
X47192272Y-61919396D01*
X47331490Y-61826374D01*
X47449884Y-61707980D01*
X47542906Y-61568762D01*
X47543760Y-61566697D01*
X48191263Y-62214200D01*
X48247838Y-62140470D01*
X48247843Y-62140463D01*
X48362539Y-61941804D01*
X48362543Y-61941795D01*
X48450327Y-61729866D01*
X48509703Y-61508273D01*
X48539644Y-61280846D01*
X48539646Y-61280830D01*
X48539646Y-61051441D01*
X48539644Y-61051425D01*
X48509703Y-60823998D01*
X48450327Y-60602405D01*
X48362543Y-60390476D01*
X48362539Y-60390466D01*
X48247840Y-60191802D01*
X48191264Y-60118070D01*
X48191263Y-60118070D01*
X47543760Y-60765573D01*
X47542906Y-60763510D01*
X47449884Y-60624292D01*
X47331490Y-60505898D01*
X47192272Y-60412876D01*
X47190206Y-60412020D01*
X47837710Y-59764517D01*
X47837710Y-59764516D01*
X47763977Y-59707941D01*
X47763970Y-59707935D01*
X47565315Y-59593242D01*
X47565305Y-59593238D01*
X47353376Y-59505454D01*
X47131783Y-59446078D01*
X46904356Y-59416137D01*
X46904340Y-59416136D01*
X46674952Y-59416136D01*
X46674935Y-59416137D01*
X46447508Y-59446078D01*
X46225915Y-59505454D01*
X46013986Y-59593238D01*
X46013976Y-59593242D01*
X45815319Y-59707937D01*
X45815305Y-59707946D01*
X45741580Y-59764516D01*
X46389084Y-60412020D01*
X46387020Y-60412876D01*
X46247802Y-60505898D01*
X46129408Y-60624292D01*
X46036386Y-60763510D01*
X46035530Y-60765574D01*
X45388026Y-60118070D01*
X45331456Y-60191795D01*
X45331447Y-60191809D01*
X45216752Y-60390466D01*
X45216748Y-60390476D01*
X45128964Y-60602405D01*
X45069588Y-60823998D01*
X45039647Y-61051425D01*
X45039646Y-61051441D01*
X40750500Y-61051441D01*
X40750500Y-57218283D01*
X40992916Y-57218283D01*
X40992916Y-57350067D01*
X41027024Y-57477361D01*
X41044246Y-57507191D01*
X41092915Y-57591486D01*
X41092919Y-57591493D01*
X41564659Y-58063231D01*
X41623247Y-58121819D01*
X42153577Y-58652149D01*
X42246763Y-58745335D01*
X42360891Y-58811227D01*
X42488185Y-58845335D01*
X42488187Y-58845335D01*
X42619968Y-58845335D01*
X42619969Y-58845335D01*
X42619970Y-58845335D01*
X42747263Y-58811227D01*
X42861391Y-58745335D01*
X42954577Y-58652149D01*
X42954577Y-58652148D01*
X44265394Y-57341329D01*
X44265399Y-57341326D01*
X44275602Y-57331122D01*
X44275604Y-57331122D01*
X44368790Y-57237936D01*
X44434682Y-57123808D01*
X44468790Y-56996515D01*
X44468790Y-56864730D01*
X44434682Y-56737436D01*
X44368790Y-56623308D01*
X43745274Y-55999792D01*
X43315200Y-55569717D01*
X43315198Y-55569714D01*
X43214946Y-55469462D01*
X43214941Y-55469458D01*
X43100818Y-55403570D01*
X43100817Y-55403569D01*
X43100816Y-55403569D01*
X42973523Y-55369461D01*
X42841738Y-55369461D01*
X42714442Y-55403569D01*
X42600316Y-55469461D01*
X42600313Y-55469463D01*
X41092918Y-56976858D01*
X41092916Y-56976861D01*
X41027024Y-57090987D01*
X41018230Y-57123808D01*
X40992916Y-57218283D01*
X40750500Y-57218283D01*
X40750500Y-52008676D01*
X40770185Y-51941637D01*
X40786819Y-51920995D01*
X48764995Y-43942819D01*
X48826318Y-43909334D01*
X48852676Y-43906500D01*
X62679473Y-43906500D01*
X62746512Y-43926185D01*
X62792267Y-43978989D01*
X62800046Y-44001550D01*
X62826367Y-44111177D01*
X62826368Y-44111179D01*
X62826369Y-44111182D01*
X62829298Y-44118253D01*
X62858181Y-44174940D01*
X62858183Y-44174942D01*
X62858184Y-44174944D01*
X62858187Y-44174949D01*
X62940569Y-44271409D01*
X62940575Y-44271414D01*
X63048740Y-44337698D01*
X63048747Y-44337702D01*
X63053748Y-44339773D01*
X63055820Y-44340632D01*
X63070756Y-44346142D01*
X63085694Y-44351653D01*
X63211000Y-44371500D01*
X63211001Y-44371500D01*
X63411010Y-44371500D01*
X63442820Y-44370250D01*
X63566182Y-44340631D01*
X63573253Y-44337702D01*
X63629940Y-44308819D01*
X63629946Y-44308813D01*
X63629949Y-44308812D01*
X63726409Y-44226430D01*
X63726410Y-44226427D01*
X63726413Y-44226426D01*
X63726414Y-44226423D01*
X63732750Y-44219006D01*
X63734794Y-44220751D01*
X63775602Y-44183834D01*
X63829515Y-44171500D01*
X63911010Y-44171500D01*
X63942820Y-44170250D01*
X64066182Y-44140631D01*
X64073253Y-44137702D01*
X64129940Y-44108819D01*
X64129946Y-44108813D01*
X64129949Y-44108812D01*
X64226409Y-44026430D01*
X64226409Y-44026428D01*
X64226413Y-44026426D01*
X64263620Y-43965709D01*
X64315432Y-43918835D01*
X64369347Y-43906500D01*
X67197322Y-43906500D01*
X67264361Y-43926185D01*
X67303411Y-43969344D01*
X67304125Y-43968868D01*
X67307356Y-43973705D01*
X67307804Y-43974200D01*
X67308180Y-43974938D01*
X67308187Y-43974949D01*
X67390569Y-44071409D01*
X67390575Y-44071414D01*
X67467009Y-44118253D01*
X67498747Y-44137702D01*
X67503748Y-44139773D01*
X67505820Y-44140632D01*
X67520756Y-44146142D01*
X67535694Y-44151653D01*
X67661000Y-44171500D01*
X67748077Y-44171500D01*
X67815116Y-44191185D01*
X67842369Y-44214970D01*
X67890573Y-44271412D01*
X67890575Y-44271414D01*
X67998740Y-44337698D01*
X67998747Y-44337702D01*
X68003748Y-44339773D01*
X68005820Y-44340632D01*
X68020756Y-44346142D01*
X68035694Y-44351653D01*
X68161000Y-44371500D01*
X68161001Y-44371500D01*
X68361010Y-44371500D01*
X68392820Y-44370250D01*
X68516182Y-44340631D01*
X68523253Y-44337702D01*
X68579940Y-44308819D01*
X68579946Y-44308813D01*
X68579949Y-44308812D01*
X68676409Y-44226430D01*
X68676410Y-44226427D01*
X68676413Y-44226426D01*
X68742702Y-44118253D01*
X68745631Y-44111182D01*
X68756653Y-44081306D01*
X68776500Y-43956000D01*
X68776500Y-42856000D01*
X68775804Y-42838294D01*
X68775250Y-42824179D01*
X68775249Y-42824177D01*
X68765979Y-42785569D01*
X68745631Y-42700818D01*
X68742702Y-42693747D01*
X68713819Y-42637060D01*
X68713815Y-42637055D01*
X68713812Y-42637050D01*
X68631430Y-42540590D01*
X68631424Y-42540585D01*
X68523259Y-42474301D01*
X68523251Y-42474297D01*
X68516179Y-42471367D01*
X68486307Y-42460347D01*
X68486305Y-42460346D01*
X68380846Y-42443643D01*
X68361000Y-42440500D01*
X68161000Y-42440500D01*
X68160990Y-42440500D01*
X68129179Y-42441749D01*
X68129177Y-42441750D01*
X68005822Y-42471367D01*
X67999966Y-42473793D01*
X67998747Y-42474298D01*
X67942060Y-42503181D01*
X67942058Y-42503182D01*
X67942055Y-42503184D01*
X67942050Y-42503187D01*
X67845590Y-42585569D01*
X67839250Y-42592994D01*
X67837205Y-42591248D01*
X67796398Y-42628166D01*
X67742485Y-42640500D01*
X67660990Y-42640500D01*
X67629179Y-42641749D01*
X67629177Y-42641750D01*
X67505822Y-42671367D01*
X67499966Y-42673793D01*
X67498747Y-42674298D01*
X67442060Y-42703181D01*
X67442058Y-42703182D01*
X67442055Y-42703184D01*
X67442050Y-42703187D01*
X67345590Y-42785569D01*
X67345587Y-42785574D01*
X67310608Y-42842655D01*
X67308380Y-42846290D01*
X67256568Y-42893165D01*
X67202653Y-42905500D01*
X64374678Y-42905500D01*
X64307639Y-42885815D01*
X64268588Y-42842655D01*
X64267875Y-42843132D01*
X64264643Y-42838294D01*
X64264196Y-42837800D01*
X64263819Y-42837060D01*
X64263816Y-42837057D01*
X64263812Y-42837050D01*
X64181430Y-42740590D01*
X64181424Y-42740585D01*
X64073259Y-42674301D01*
X64073251Y-42674297D01*
X64066179Y-42671367D01*
X64036307Y-42660347D01*
X64036305Y-42660346D01*
X63930846Y-42643643D01*
X63911000Y-42640500D01*
X63910999Y-42640500D01*
X63823923Y-42640500D01*
X63756884Y-42620815D01*
X63729631Y-42597030D01*
X63681426Y-42540587D01*
X63681424Y-42540585D01*
X63573259Y-42474301D01*
X63573251Y-42474297D01*
X63566179Y-42471367D01*
X63536307Y-42460347D01*
X63536305Y-42460346D01*
X63430846Y-42443643D01*
X63411000Y-42440500D01*
X63211000Y-42440500D01*
X63210990Y-42440500D01*
X63179179Y-42441749D01*
X63179177Y-42441750D01*
X63055822Y-42471367D01*
X63049966Y-42473793D01*
X63048747Y-42474298D01*
X62992060Y-42503181D01*
X62992058Y-42503182D01*
X62992055Y-42503184D01*
X62992050Y-42503187D01*
X62895590Y-42585569D01*
X62895585Y-42585575D01*
X62829301Y-42693740D01*
X62829297Y-42693748D01*
X62826367Y-42700820D01*
X62815347Y-42730692D01*
X62815346Y-42730694D01*
X62807883Y-42777817D01*
X62806655Y-42785575D01*
X62804228Y-42800898D01*
X62774299Y-42864032D01*
X62714988Y-42900964D01*
X62681755Y-42905500D01*
X48528108Y-42905500D01*
X48400812Y-42939608D01*
X48286686Y-43005500D01*
X48286683Y-43005502D01*
X40212181Y-51080005D01*
X40150858Y-51113490D01*
X40081166Y-51108506D01*
X40025233Y-51066634D01*
X40000816Y-51001170D01*
X40000500Y-50992324D01*
X40000500Y-44176110D01*
X40000500Y-44176108D01*
X39970084Y-44062592D01*
X39971747Y-43992743D01*
X40010910Y-43934881D01*
X40075138Y-43907377D01*
X40089859Y-43906500D01*
X42305322Y-43906500D01*
X42372361Y-43926185D01*
X42411411Y-43969344D01*
X42412125Y-43968868D01*
X42415356Y-43973705D01*
X42415804Y-43974200D01*
X42416180Y-43974938D01*
X42416187Y-43974949D01*
X42498569Y-44071409D01*
X42498575Y-44071414D01*
X42575009Y-44118253D01*
X42606747Y-44137702D01*
X42611748Y-44139773D01*
X42613820Y-44140632D01*
X42628756Y-44146142D01*
X42643694Y-44151653D01*
X42769000Y-44171500D01*
X42856077Y-44171500D01*
X42923116Y-44191185D01*
X42950369Y-44214970D01*
X42998573Y-44271412D01*
X42998575Y-44271414D01*
X43106740Y-44337698D01*
X43106747Y-44337702D01*
X43111748Y-44339773D01*
X43113820Y-44340632D01*
X43128756Y-44346142D01*
X43143694Y-44351653D01*
X43269000Y-44371500D01*
X43269001Y-44371500D01*
X43469010Y-44371500D01*
X43500820Y-44370250D01*
X43624182Y-44340631D01*
X43631253Y-44337702D01*
X43687940Y-44308819D01*
X43687946Y-44308813D01*
X43687949Y-44308812D01*
X43784409Y-44226430D01*
X43784410Y-44226427D01*
X43784413Y-44226426D01*
X43850702Y-44118253D01*
X43853631Y-44111182D01*
X43864653Y-44081306D01*
X43884500Y-43956000D01*
X43884500Y-42856000D01*
X43883804Y-42838294D01*
X43883250Y-42824179D01*
X43883249Y-42824177D01*
X43873979Y-42785569D01*
X43853631Y-42700818D01*
X43850702Y-42693747D01*
X43821819Y-42637060D01*
X43821815Y-42637055D01*
X43821812Y-42637050D01*
X43739430Y-42540590D01*
X43739424Y-42540585D01*
X43631259Y-42474301D01*
X43631251Y-42474297D01*
X43624179Y-42471367D01*
X43594307Y-42460347D01*
X43594305Y-42460346D01*
X43488846Y-42443643D01*
X43469000Y-42440500D01*
X43269000Y-42440500D01*
X43268990Y-42440500D01*
X43237179Y-42441749D01*
X43237177Y-42441750D01*
X43113822Y-42471367D01*
X43107966Y-42473793D01*
X43106747Y-42474298D01*
X43050060Y-42503181D01*
X43050058Y-42503182D01*
X43050055Y-42503184D01*
X43050050Y-42503187D01*
X42953590Y-42585569D01*
X42947250Y-42592994D01*
X42945205Y-42591248D01*
X42904398Y-42628166D01*
X42850485Y-42640500D01*
X42768990Y-42640500D01*
X42737179Y-42641749D01*
X42737177Y-42641750D01*
X42613822Y-42671367D01*
X42607966Y-42673793D01*
X42606747Y-42674298D01*
X42550060Y-42703181D01*
X42550058Y-42703182D01*
X42550055Y-42703184D01*
X42550050Y-42703187D01*
X42453590Y-42785569D01*
X42453587Y-42785574D01*
X42418608Y-42842655D01*
X42416380Y-42846290D01*
X42364568Y-42893165D01*
X42310653Y-42905500D01*
X39482678Y-42905500D01*
X39415639Y-42885815D01*
X39376588Y-42842655D01*
X39375875Y-42843132D01*
X39372643Y-42838294D01*
X39372196Y-42837800D01*
X39371819Y-42837060D01*
X39371816Y-42837057D01*
X39371812Y-42837050D01*
X39289430Y-42740590D01*
X39289424Y-42740585D01*
X39181259Y-42674301D01*
X39181251Y-42674297D01*
X39174179Y-42671367D01*
X39144307Y-42660347D01*
X39144305Y-42660346D01*
X39038846Y-42643643D01*
X39019000Y-42640500D01*
X39018999Y-42640500D01*
X38931923Y-42640500D01*
X38864884Y-42620815D01*
X38837631Y-42597030D01*
X38789426Y-42540587D01*
X38789424Y-42540585D01*
X38681259Y-42474301D01*
X38681251Y-42474297D01*
X38674179Y-42471367D01*
X38644307Y-42460347D01*
X38644305Y-42460346D01*
X38538846Y-42443643D01*
X38519000Y-42440500D01*
X38319000Y-42440500D01*
X38318990Y-42440500D01*
X38287179Y-42441749D01*
X38287177Y-42441750D01*
X38163822Y-42471367D01*
X38157966Y-42473793D01*
X38156747Y-42474298D01*
X38100060Y-42503181D01*
X38100058Y-42503182D01*
X38100055Y-42503184D01*
X38100050Y-42503187D01*
X38003590Y-42585569D01*
X38003585Y-42585575D01*
X37937301Y-42693740D01*
X37937297Y-42693748D01*
X37934367Y-42700820D01*
X37923347Y-42730692D01*
X37923346Y-42730694D01*
X37903500Y-42856000D01*
X37903500Y-43956010D01*
X37904749Y-43987820D01*
X37904750Y-43987822D01*
X37934367Y-44111177D01*
X37934368Y-44111179D01*
X37934369Y-44111182D01*
X37937298Y-44118253D01*
X37966181Y-44174940D01*
X37966183Y-44174942D01*
X37966184Y-44174944D01*
X37966187Y-44174949D01*
X38048569Y-44271409D01*
X38048575Y-44271414D01*
X38156740Y-44337698D01*
X38156747Y-44337702D01*
X38161748Y-44339773D01*
X38163820Y-44340632D01*
X38178756Y-44346142D01*
X38193694Y-44351653D01*
X38319000Y-44371500D01*
X38319001Y-44371500D01*
X38519010Y-44371500D01*
X38550820Y-44370250D01*
X38674182Y-44340631D01*
X38681253Y-44337702D01*
X38737870Y-44308854D01*
X38762158Y-44304292D01*
X38785317Y-44295655D01*
X38795896Y-44297956D01*
X38806536Y-44295958D01*
X38829437Y-44305252D01*
X38853590Y-44310507D01*
X38866861Y-44320441D01*
X38871277Y-44322234D01*
X38881844Y-44331658D01*
X38963181Y-44412995D01*
X38996666Y-44474318D01*
X38999500Y-44500676D01*
X38999500Y-70774098D01*
X38979815Y-70841137D01*
X38927011Y-70886892D01*
X38857853Y-70896836D01*
X38794297Y-70867811D01*
X38757569Y-70812417D01*
X38716713Y-70686677D01*
X38673923Y-70602699D01*
X38598770Y-70455203D01*
X38446067Y-70245025D01*
X38262365Y-70061323D01*
X38052187Y-69908620D01*
X37979900Y-69871788D01*
X37820712Y-69790676D01*
X37573629Y-69710394D01*
X37317038Y-69669754D01*
X37317033Y-69669754D01*
X37057239Y-69669754D01*
X37057234Y-69669754D01*
X36800642Y-69710394D01*
X36553559Y-69790676D01*
X36322081Y-69908622D01*
X36111910Y-70061320D01*
X36111904Y-70061325D01*
X35928207Y-70245022D01*
X35928202Y-70245028D01*
X35775504Y-70455199D01*
X35657558Y-70686677D01*
X35579886Y-70925727D01*
X35540448Y-70983402D01*
X35476089Y-71010600D01*
X35407243Y-70998685D01*
X35355767Y-70951441D01*
X35337955Y-70887408D01*
X35337955Y-40456002D01*
X37804000Y-40456002D01*
X37806893Y-40509988D01*
X37842442Y-40649259D01*
X37845371Y-40656330D01*
X37897106Y-40751076D01*
X37995049Y-40856277D01*
X37995051Y-40856278D01*
X38118672Y-40929629D01*
X38125732Y-40932554D01*
X38176728Y-40950544D01*
X38319001Y-40970999D01*
X38319003Y-40971000D01*
X38419000Y-40971000D01*
X43369000Y-40971000D01*
X43469002Y-40971000D01*
X43522988Y-40968106D01*
X43662259Y-40932557D01*
X43669330Y-40929628D01*
X43764076Y-40877893D01*
X43869277Y-40779950D01*
X43869278Y-40779948D01*
X43942629Y-40656327D01*
X43945554Y-40649267D01*
X43963544Y-40598271D01*
X43983998Y-40456002D01*
X62696000Y-40456002D01*
X62698893Y-40509988D01*
X62734442Y-40649259D01*
X62737371Y-40656330D01*
X62789106Y-40751076D01*
X62887049Y-40856277D01*
X62887051Y-40856278D01*
X63010672Y-40929629D01*
X63017732Y-40932554D01*
X63068728Y-40950544D01*
X63211001Y-40970999D01*
X63211003Y-40971000D01*
X63311000Y-40971000D01*
X68261000Y-40971000D01*
X68361002Y-40971000D01*
X68414988Y-40968106D01*
X68554259Y-40932557D01*
X68561330Y-40929628D01*
X68656076Y-40877893D01*
X68761277Y-40779950D01*
X68761278Y-40779948D01*
X68834629Y-40656327D01*
X68837554Y-40649267D01*
X68855544Y-40598271D01*
X68875999Y-40455998D01*
X68876000Y-40455997D01*
X68876000Y-40156000D01*
X68261000Y-40156000D01*
X68261000Y-40971000D01*
X63311000Y-40971000D01*
X63311000Y-40780208D01*
X63811000Y-40780208D01*
X63822843Y-40785372D01*
X63847745Y-40772944D01*
X63869617Y-40771000D01*
X63911002Y-40771000D01*
X63964988Y-40768106D01*
X64104259Y-40732557D01*
X64111330Y-40729628D01*
X64206076Y-40677893D01*
X64311277Y-40579950D01*
X64311278Y-40579948D01*
X64384629Y-40456327D01*
X64387554Y-40449267D01*
X64405544Y-40398271D01*
X64425998Y-40256002D01*
X67146000Y-40256002D01*
X67148893Y-40309988D01*
X67184442Y-40449259D01*
X67187371Y-40456330D01*
X67239106Y-40551076D01*
X67337049Y-40656277D01*
X67337051Y-40656278D01*
X67460672Y-40729629D01*
X67467732Y-40732554D01*
X67518728Y-40750544D01*
X67661001Y-40770999D01*
X67661003Y-40771000D01*
X67703687Y-40771000D01*
X67741737Y-40782172D01*
X67761000Y-40774592D01*
X67761000Y-40156000D01*
X67146000Y-40156000D01*
X67146000Y-40256002D01*
X64425998Y-40256002D01*
X64425999Y-40255998D01*
X64426000Y-40255997D01*
X64426000Y-40156000D01*
X63811000Y-40156000D01*
X63811000Y-40780208D01*
X63311000Y-40780208D01*
X63311000Y-40156000D01*
X62696000Y-40156000D01*
X62696000Y-40456002D01*
X43983998Y-40456002D01*
X43983999Y-40455998D01*
X43984000Y-40455997D01*
X43984000Y-40156000D01*
X43369000Y-40156000D01*
X43369000Y-40971000D01*
X38419000Y-40971000D01*
X38419000Y-40780208D01*
X38919000Y-40780208D01*
X38930843Y-40785372D01*
X38955745Y-40772944D01*
X38977617Y-40771000D01*
X39019002Y-40771000D01*
X39072988Y-40768106D01*
X39212259Y-40732557D01*
X39219330Y-40729628D01*
X39314076Y-40677893D01*
X39419277Y-40579950D01*
X39419278Y-40579948D01*
X39492629Y-40456327D01*
X39495554Y-40449267D01*
X39513544Y-40398271D01*
X39533998Y-40256002D01*
X42254000Y-40256002D01*
X42256893Y-40309988D01*
X42292442Y-40449259D01*
X42295371Y-40456330D01*
X42347106Y-40551076D01*
X42445049Y-40656277D01*
X42445051Y-40656278D01*
X42568672Y-40729629D01*
X42575732Y-40732554D01*
X42626728Y-40750544D01*
X42769001Y-40770999D01*
X42769003Y-40771000D01*
X42811687Y-40771000D01*
X42849737Y-40782172D01*
X42869000Y-40774592D01*
X42869000Y-40156000D01*
X42254000Y-40156000D01*
X42254000Y-40256002D01*
X39533998Y-40256002D01*
X39533999Y-40255998D01*
X39534000Y-40255997D01*
X39534000Y-40156000D01*
X38919000Y-40156000D01*
X38919000Y-40780208D01*
X38419000Y-40780208D01*
X38419000Y-40156000D01*
X37804000Y-40156000D01*
X37804000Y-40456002D01*
X35337955Y-40456002D01*
X35337955Y-39356001D01*
X37804000Y-39356001D01*
X37804000Y-39656000D01*
X38419000Y-39656000D01*
X38419000Y-39054775D01*
X38919000Y-39054775D01*
X38919000Y-39656000D01*
X39534000Y-39656000D01*
X39534000Y-39556006D01*
X39534000Y-39556001D01*
X42254000Y-39556001D01*
X42254000Y-39656000D01*
X42869000Y-39656000D01*
X43369000Y-39656000D01*
X43984000Y-39656000D01*
X43984000Y-39356006D01*
X43984000Y-39356001D01*
X62696000Y-39356001D01*
X62696000Y-39656000D01*
X63311000Y-39656000D01*
X63311000Y-39054775D01*
X63811000Y-39054775D01*
X63811000Y-39656000D01*
X64426000Y-39656000D01*
X64426000Y-39556006D01*
X64426000Y-39556001D01*
X67146000Y-39556001D01*
X67146000Y-39656000D01*
X67761000Y-39656000D01*
X67761000Y-39031791D01*
X67749105Y-39026618D01*
X67724388Y-39039014D01*
X67702283Y-39041000D01*
X67660998Y-39041000D01*
X67607011Y-39043893D01*
X67467740Y-39079442D01*
X67460669Y-39082371D01*
X67365923Y-39134106D01*
X67260722Y-39232049D01*
X67260721Y-39232051D01*
X67187370Y-39355672D01*
X67184445Y-39362732D01*
X67166455Y-39413728D01*
X67146000Y-39556001D01*
X64426000Y-39556001D01*
X64425999Y-39555988D01*
X64423106Y-39502011D01*
X64387557Y-39362740D01*
X64384628Y-39355669D01*
X64332893Y-39260923D01*
X64234950Y-39155722D01*
X64234948Y-39155721D01*
X64111327Y-39082370D01*
X64104267Y-39079445D01*
X64053271Y-39061455D01*
X63910998Y-39041000D01*
X63880496Y-39041000D01*
X63811000Y-39054775D01*
X63311000Y-39054775D01*
X63311000Y-38841000D01*
X63210998Y-38841000D01*
X63157011Y-38843893D01*
X63017740Y-38879442D01*
X63010669Y-38882371D01*
X62915923Y-38934106D01*
X62810722Y-39032049D01*
X62810721Y-39032051D01*
X62737370Y-39155672D01*
X62734445Y-39162732D01*
X62716455Y-39213728D01*
X62696000Y-39356001D01*
X43984000Y-39356001D01*
X43983999Y-39355988D01*
X43981106Y-39302011D01*
X43945557Y-39162740D01*
X43942628Y-39155669D01*
X43890893Y-39060923D01*
X43792950Y-38955722D01*
X43792948Y-38955721D01*
X43669327Y-38882370D01*
X43662267Y-38879445D01*
X43611271Y-38861455D01*
X43468998Y-38841000D01*
X43369000Y-38841000D01*
X43369000Y-39656000D01*
X42869000Y-39656000D01*
X42869000Y-39031791D01*
X42857105Y-39026618D01*
X42832388Y-39039014D01*
X42810283Y-39041000D01*
X42768998Y-39041000D01*
X42715011Y-39043893D01*
X42575740Y-39079442D01*
X42568669Y-39082371D01*
X42473923Y-39134106D01*
X42368722Y-39232049D01*
X42368721Y-39232051D01*
X42295370Y-39355672D01*
X42292445Y-39362732D01*
X42274455Y-39413728D01*
X42254000Y-39556001D01*
X39534000Y-39556001D01*
X39533999Y-39555988D01*
X39531106Y-39502011D01*
X39495557Y-39362740D01*
X39492628Y-39355669D01*
X39440893Y-39260923D01*
X39342950Y-39155722D01*
X39342948Y-39155721D01*
X39219327Y-39082370D01*
X39212267Y-39079445D01*
X39161271Y-39061455D01*
X39018998Y-39041000D01*
X38988496Y-39041000D01*
X38919000Y-39054775D01*
X38419000Y-39054775D01*
X38419000Y-38841000D01*
X38318998Y-38841000D01*
X38265011Y-38843893D01*
X38125740Y-38879442D01*
X38118669Y-38882371D01*
X38023923Y-38934106D01*
X37918722Y-39032049D01*
X37918721Y-39032051D01*
X37845370Y-39155672D01*
X37842445Y-39162732D01*
X37824455Y-39213728D01*
X37804000Y-39356001D01*
X35337955Y-39356001D01*
X35337955Y-37298322D01*
X45275001Y-37298322D01*
X45285144Y-37397607D01*
X45338452Y-37558481D01*
X45338457Y-37558492D01*
X45427424Y-37702728D01*
X45427427Y-37702732D01*
X45547267Y-37822572D01*
X45547271Y-37822575D01*
X45691507Y-37911542D01*
X45691518Y-37911547D01*
X45852393Y-37964855D01*
X45951683Y-37974999D01*
X46500000Y-37974999D01*
X46548308Y-37974999D01*
X46548322Y-37974998D01*
X46647607Y-37964855D01*
X46808481Y-37911547D01*
X46808492Y-37911542D01*
X46952728Y-37822575D01*
X46952732Y-37822572D01*
X47072572Y-37702732D01*
X47072575Y-37702728D01*
X47161542Y-37558492D01*
X47161547Y-37558481D01*
X47214855Y-37397606D01*
X47224999Y-37298322D01*
X47225000Y-37298309D01*
X47225000Y-37275000D01*
X46500000Y-37275000D01*
X46500000Y-37974999D01*
X45951683Y-37974999D01*
X45999999Y-37974998D01*
X46000000Y-37974998D01*
X46000000Y-37275000D01*
X45275001Y-37275000D01*
X45275001Y-37298322D01*
X35337955Y-37298322D01*
X35337955Y-32302872D01*
X39699500Y-32302872D01*
X39699500Y-33737127D01*
X39702395Y-33773912D01*
X39702395Y-33773914D01*
X39702396Y-33773917D01*
X39748136Y-33931357D01*
X39748137Y-33931358D01*
X39831591Y-34072472D01*
X39831598Y-34072481D01*
X39947518Y-34188401D01*
X39947522Y-34188404D01*
X39947524Y-34188406D01*
X40088643Y-34271864D01*
X40246083Y-34317604D01*
X40282878Y-34320500D01*
X40282884Y-34320500D01*
X41717116Y-34320500D01*
X41717122Y-34320500D01*
X41753917Y-34317604D01*
X41911357Y-34271864D01*
X42052476Y-34188406D01*
X42168406Y-34072476D01*
X42251864Y-33931357D01*
X42262592Y-33894429D01*
X42268413Y-33883356D01*
X42284364Y-33866890D01*
X42296701Y-33847572D01*
X42308212Y-33842274D01*
X42317029Y-33833174D01*
X42339349Y-33827946D01*
X42360173Y-33818364D01*
X42383628Y-33817575D01*
X42385058Y-33817241D01*
X42385795Y-33817502D01*
X42387905Y-33817432D01*
X42388933Y-33817512D01*
X43097861Y-33108584D01*
X43120667Y-33193694D01*
X43179910Y-33296306D01*
X43263694Y-33380090D01*
X43366306Y-33439333D01*
X43451414Y-33462137D01*
X42742485Y-34171065D01*
X42742485Y-34171066D01*
X42806243Y-34217388D01*
X43002589Y-34317432D01*
X43212164Y-34385526D01*
X43429819Y-34420000D01*
X43650181Y-34420000D01*
X43867835Y-34385526D01*
X44077410Y-34317432D01*
X44273760Y-34217386D01*
X44337513Y-34171066D01*
X44337514Y-34171066D01*
X43628585Y-33462138D01*
X43713694Y-33439333D01*
X43816306Y-33380090D01*
X43900090Y-33296306D01*
X43959333Y-33193694D01*
X43982138Y-33108585D01*
X44691066Y-33817514D01*
X44691066Y-33817513D01*
X44737388Y-33753758D01*
X44756084Y-33717065D01*
X44804058Y-33666269D01*
X44871879Y-33649473D01*
X44938014Y-33672010D01*
X44966887Y-33700474D01*
X45088028Y-33867213D01*
X45232786Y-34011971D01*
X45378808Y-34118060D01*
X45398390Y-34132287D01*
X45538232Y-34203540D01*
X45580785Y-34225222D01*
X45663817Y-34252200D01*
X45684219Y-34266150D01*
X45706703Y-34276418D01*
X45712555Y-34285525D01*
X45721493Y-34291636D01*
X45731115Y-34314404D01*
X45744477Y-34335196D01*
X45746836Y-34351603D01*
X45748692Y-34355995D01*
X45749500Y-34370131D01*
X45749500Y-34600718D01*
X45729815Y-34667757D01*
X45688622Y-34707450D01*
X45613580Y-34751830D01*
X45613574Y-34751834D01*
X45501834Y-34863574D01*
X45501827Y-34863583D01*
X45421382Y-34999609D01*
X45421380Y-34999614D01*
X45377292Y-35151366D01*
X45377290Y-35151379D01*
X45374500Y-35186829D01*
X45374500Y-35763150D01*
X45374501Y-35763175D01*
X45377291Y-35798627D01*
X45421380Y-35950385D01*
X45421382Y-35950390D01*
X45501827Y-36086416D01*
X45501834Y-36086425D01*
X45507370Y-36091961D01*
X45540855Y-36153284D01*
X45535871Y-36222976D01*
X45507371Y-36267322D01*
X45427427Y-36347267D01*
X45427424Y-36347271D01*
X45338457Y-36491507D01*
X45338452Y-36491518D01*
X45285144Y-36652393D01*
X45275000Y-36751677D01*
X45275000Y-36775000D01*
X47224999Y-36775000D01*
X47224999Y-36751692D01*
X47224998Y-36751677D01*
X47214856Y-36652396D01*
X47214854Y-36652389D01*
X47208796Y-36634108D01*
X52849500Y-36634108D01*
X52849500Y-36765892D01*
X52866554Y-36829539D01*
X52883608Y-36893187D01*
X52916554Y-36950250D01*
X52949500Y-37007314D01*
X53042686Y-37100500D01*
X53141521Y-37157563D01*
X53148581Y-37161639D01*
X53156814Y-37166392D01*
X53284108Y-37200500D01*
X53284110Y-37200500D01*
X53415890Y-37200500D01*
X53415892Y-37200500D01*
X53543186Y-37166392D01*
X53657314Y-37100500D01*
X53750500Y-37007314D01*
X53816392Y-36893186D01*
X53850500Y-36765892D01*
X53850500Y-36634108D01*
X53816392Y-36506814D01*
X53750500Y-36392686D01*
X53657314Y-36299500D01*
X53600250Y-36266554D01*
X53543187Y-36233608D01*
X53479539Y-36216554D01*
X53415892Y-36199500D01*
X53284108Y-36199500D01*
X53156812Y-36233608D01*
X53042686Y-36299500D01*
X53042683Y-36299502D01*
X52949502Y-36392683D01*
X52949500Y-36392686D01*
X52883608Y-36506812D01*
X52858505Y-36600500D01*
X52849500Y-36634108D01*
X47208796Y-36634108D01*
X47161547Y-36491518D01*
X47161542Y-36491507D01*
X47072575Y-36347271D01*
X47072572Y-36347267D01*
X46992628Y-36267323D01*
X46959143Y-36206000D01*
X46964127Y-36136308D01*
X46992630Y-36091959D01*
X46998170Y-36086420D01*
X47078618Y-35950390D01*
X47122709Y-35798627D01*
X47125500Y-35763163D01*
X47125499Y-35186838D01*
X47122709Y-35151373D01*
X47078618Y-34999610D01*
X46998170Y-34863580D01*
X46998168Y-34863578D01*
X46998165Y-34863574D01*
X46886425Y-34751834D01*
X46886422Y-34751832D01*
X46886420Y-34751830D01*
X46811378Y-34707450D01*
X46763695Y-34656380D01*
X46750500Y-34600718D01*
X46750500Y-34203540D01*
X46770185Y-34136501D01*
X46801612Y-34103223D01*
X46927219Y-34011966D01*
X47071966Y-33867219D01*
X47071968Y-33867215D01*
X47071971Y-33867213D01*
X47124732Y-33794590D01*
X47192287Y-33701610D01*
X47285220Y-33519219D01*
X47348477Y-33324534D01*
X47375226Y-33155648D01*
X60196955Y-33155648D01*
X60196955Y-33360351D01*
X60228977Y-33562534D01*
X60292236Y-33757223D01*
X60338272Y-33847572D01*
X60380963Y-33931358D01*
X60385170Y-33939613D01*
X60505483Y-34105213D01*
X60650241Y-34249971D01*
X60805204Y-34362556D01*
X60815845Y-34370287D01*
X60913412Y-34420000D01*
X60998231Y-34463218D01*
X60998233Y-34463218D01*
X60998236Y-34463220D01*
X61068500Y-34486050D01*
X61192920Y-34526477D01*
X61294012Y-34542488D01*
X61395103Y-34558500D01*
X61395104Y-34558500D01*
X61599806Y-34558500D01*
X61599807Y-34558500D01*
X61801989Y-34526477D01*
X61996674Y-34463220D01*
X62179065Y-34370287D01*
X62298792Y-34283301D01*
X62344668Y-34249971D01*
X62344670Y-34249968D01*
X62344674Y-34249966D01*
X62489421Y-34105219D01*
X62512635Y-34073266D01*
X62567963Y-34030599D01*
X62637576Y-34024618D01*
X62699373Y-34057222D01*
X62733732Y-34118060D01*
X62736955Y-34146146D01*
X62736955Y-34189516D01*
X62742610Y-34225220D01*
X62751809Y-34283304D01*
X62809405Y-34396342D01*
X62809407Y-34396344D01*
X62809409Y-34396347D01*
X62899107Y-34486045D01*
X62899109Y-34486046D01*
X62899113Y-34486050D01*
X63012149Y-34543645D01*
X63012153Y-34543647D01*
X63105930Y-34558499D01*
X63105936Y-34558500D01*
X64968973Y-34558499D01*
X65062759Y-34543646D01*
X65175797Y-34486050D01*
X65265505Y-34396342D01*
X65323101Y-34283304D01*
X65323101Y-34283302D01*
X65323102Y-34283301D01*
X65337954Y-34189524D01*
X65337955Y-34189519D01*
X65337954Y-32716676D01*
X65346598Y-32687237D01*
X65353122Y-32657250D01*
X65356876Y-32652234D01*
X65357639Y-32649638D01*
X65374273Y-32628995D01*
X65462451Y-32540818D01*
X65523775Y-32507334D01*
X65550132Y-32504500D01*
X66314320Y-32504500D01*
X66381359Y-32524185D01*
X66400799Y-32542213D01*
X66402085Y-32540928D01*
X66408074Y-32546917D01*
X66408078Y-32546922D01*
X66408082Y-32546925D01*
X66528656Y-32638360D01*
X66528657Y-32638360D01*
X66528658Y-32638361D01*
X66669436Y-32693877D01*
X66757898Y-32704500D01*
X66757903Y-32704500D01*
X68001500Y-32704500D01*
X68068539Y-32724185D01*
X68114294Y-32776989D01*
X68125500Y-32828500D01*
X68125500Y-33147102D01*
X68131095Y-33193694D01*
X68136122Y-33235561D01*
X68191639Y-33376343D01*
X68283077Y-33496922D01*
X68403656Y-33588360D01*
X68403657Y-33588360D01*
X68403658Y-33588361D01*
X68508992Y-33629899D01*
X68564134Y-33672804D01*
X68587327Y-33738712D01*
X68587500Y-33745253D01*
X68587500Y-34911573D01*
X68567815Y-34978612D01*
X68515011Y-35024367D01*
X68510962Y-35026130D01*
X68510167Y-35026459D01*
X68510158Y-35026464D01*
X68384719Y-35122716D01*
X68288463Y-35248160D01*
X68227956Y-35394237D01*
X68227955Y-35394239D01*
X68212500Y-35511638D01*
X68212500Y-35990363D01*
X68227953Y-36107753D01*
X68227956Y-36107762D01*
X68268647Y-36206000D01*
X68288464Y-36253841D01*
X68384718Y-36379282D01*
X68500282Y-36467957D01*
X68512880Y-36477624D01*
X68554082Y-36534053D01*
X68558237Y-36603799D01*
X68524024Y-36664719D01*
X68512880Y-36674376D01*
X68384718Y-36772718D01*
X68288463Y-36898160D01*
X68227956Y-37044237D01*
X68227955Y-37044239D01*
X68212500Y-37161638D01*
X68212500Y-37640363D01*
X68227953Y-37757753D01*
X68227956Y-37757762D01*
X68288464Y-37903841D01*
X68384718Y-38029282D01*
X68510159Y-38125536D01*
X68656238Y-38186044D01*
X68773639Y-38201500D01*
X68875500Y-38201499D01*
X68884185Y-38204049D01*
X68893147Y-38202761D01*
X68917185Y-38213738D01*
X68942538Y-38221183D01*
X68948466Y-38228024D01*
X68956703Y-38231786D01*
X68970989Y-38254016D01*
X68988294Y-38273986D01*
X68990581Y-38284502D01*
X68994477Y-38290564D01*
X68999500Y-38325499D01*
X68999500Y-38458481D01*
X68979815Y-38525520D01*
X68963181Y-38546162D01*
X68955888Y-38553454D01*
X68955885Y-38553458D01*
X68879228Y-38668182D01*
X68879221Y-38668195D01*
X68826421Y-38795667D01*
X68826418Y-38795677D01*
X68817197Y-38842035D01*
X68784811Y-38903946D01*
X68724095Y-38938520D01*
X68654326Y-38934779D01*
X68632305Y-38924484D01*
X68561330Y-38882371D01*
X68554267Y-38879445D01*
X68503271Y-38861455D01*
X68360998Y-38841000D01*
X68261000Y-38841000D01*
X68261000Y-39656000D01*
X68876000Y-39656000D01*
X68876635Y-39655364D01*
X68895685Y-39590489D01*
X68948489Y-39544734D01*
X69017647Y-39534790D01*
X69068890Y-39554425D01*
X69168189Y-39620775D01*
X69168191Y-39620776D01*
X69168195Y-39620778D01*
X69295667Y-39673578D01*
X69295672Y-39673580D01*
X69295676Y-39673580D01*
X69295677Y-39673581D01*
X69431004Y-39700500D01*
X69431007Y-39700500D01*
X69568995Y-39700500D01*
X69660041Y-39682389D01*
X69704328Y-39673580D01*
X69831811Y-39620775D01*
X69946542Y-39544114D01*
X70044114Y-39446542D01*
X70120775Y-39331811D01*
X70173580Y-39204328D01*
X70200500Y-39068993D01*
X70200500Y-38931007D01*
X70200500Y-38931004D01*
X70173581Y-38795677D01*
X70173580Y-38795676D01*
X70173580Y-38795672D01*
X70173578Y-38795667D01*
X70120778Y-38668195D01*
X70120771Y-38668182D01*
X70044114Y-38553458D01*
X70044111Y-38553454D01*
X70036819Y-38546162D01*
X70003334Y-38484839D01*
X70000500Y-38458481D01*
X70000500Y-37747110D01*
X70000500Y-37747108D01*
X69967724Y-37624784D01*
X69963499Y-37592691D01*
X69963499Y-37161636D01*
X69948046Y-37044246D01*
X69948044Y-37044239D01*
X69948044Y-37044238D01*
X69887536Y-36898159D01*
X69791282Y-36772718D01*
X69791280Y-36772717D01*
X69791280Y-36772716D01*
X69663120Y-36674376D01*
X69621917Y-36617948D01*
X69617762Y-36548202D01*
X69651974Y-36487282D01*
X69663120Y-36477624D01*
X69684824Y-36460969D01*
X69791282Y-36379282D01*
X69887536Y-36253841D01*
X69948044Y-36107762D01*
X69963500Y-35990361D01*
X69963499Y-35511640D01*
X69963499Y-35511638D01*
X69963499Y-35511636D01*
X69948046Y-35394246D01*
X69948044Y-35394239D01*
X69948044Y-35394238D01*
X69887536Y-35248159D01*
X69791282Y-35122718D01*
X69791280Y-35122717D01*
X69791280Y-35122716D01*
X69665841Y-35026464D01*
X69665832Y-35026459D01*
X69665038Y-35026130D01*
X69664470Y-35025672D01*
X69658799Y-35022398D01*
X69659309Y-35021513D01*
X69610638Y-34982285D01*
X69588579Y-34915989D01*
X69588500Y-34911573D01*
X69588500Y-33778500D01*
X69608185Y-33711461D01*
X69660989Y-33665706D01*
X69712500Y-33654500D01*
X69894097Y-33654500D01*
X69894102Y-33654500D01*
X69982564Y-33643877D01*
X70123342Y-33588361D01*
X70243922Y-33496922D01*
X70335361Y-33376342D01*
X70390877Y-33235564D01*
X70401500Y-33147102D01*
X70401500Y-32760898D01*
X70390877Y-32672436D01*
X70335361Y-32531658D01*
X70335360Y-32531657D01*
X70335360Y-32531656D01*
X70243922Y-32411077D01*
X70123343Y-32319639D01*
X69987410Y-32266034D01*
X69982564Y-32264123D01*
X69982563Y-32264122D01*
X69982561Y-32264122D01*
X69936926Y-32258642D01*
X69894102Y-32253500D01*
X68650500Y-32253500D01*
X68641814Y-32250949D01*
X68632853Y-32252238D01*
X68608812Y-32241259D01*
X68583461Y-32233815D01*
X68577533Y-32226974D01*
X68569297Y-32223213D01*
X68555007Y-32200978D01*
X68537706Y-32181011D01*
X68535418Y-32170496D01*
X68531523Y-32164435D01*
X68526500Y-32129500D01*
X68526500Y-31978000D01*
X68546185Y-31910961D01*
X68598989Y-31865206D01*
X68650500Y-31854000D01*
X69013500Y-31854000D01*
X69513500Y-31854000D01*
X69916634Y-31854000D01*
X69916649Y-31853999D01*
X69953489Y-31851100D01*
X69953495Y-31851099D01*
X70111193Y-31805283D01*
X70111196Y-31805282D01*
X70252552Y-31721685D01*
X70252561Y-31721678D01*
X70368678Y-31605561D01*
X70368685Y-31605552D01*
X70452281Y-31464198D01*
X70498100Y-31306486D01*
X70498295Y-31304001D01*
X70498295Y-31304000D01*
X69513500Y-31304000D01*
X69513500Y-31854000D01*
X69013500Y-31854000D01*
X69013500Y-31304000D01*
X68030680Y-31304000D01*
X68022804Y-31303529D01*
X68022793Y-31303721D01*
X68019102Y-31303500D01*
X66757898Y-31303500D01*
X66718853Y-31308188D01*
X66669438Y-31314122D01*
X66528656Y-31369639D01*
X66408082Y-31461074D01*
X66402085Y-31467072D01*
X66399473Y-31464460D01*
X66357198Y-31495851D01*
X66314320Y-31503500D01*
X65225563Y-31503500D01*
X65098267Y-31537608D01*
X64984141Y-31603500D01*
X64984138Y-31603502D01*
X64666459Y-31921181D01*
X64605136Y-31954666D01*
X64578778Y-31957500D01*
X63105937Y-31957500D01*
X63024974Y-31970323D01*
X63012151Y-31972354D01*
X62899113Y-32029950D01*
X62899112Y-32029951D01*
X62899107Y-32029954D01*
X62809409Y-32119652D01*
X62809406Y-32119657D01*
X62809405Y-32119658D01*
X62796129Y-32145713D01*
X62751807Y-32232698D01*
X62736955Y-32326475D01*
X62736955Y-32369849D01*
X62717270Y-32436888D01*
X62664466Y-32482643D01*
X62595308Y-32492587D01*
X62531752Y-32463562D01*
X62512637Y-32442734D01*
X62489426Y-32410786D01*
X62344668Y-32266028D01*
X62179068Y-32145715D01*
X62179067Y-32145714D01*
X62179065Y-32145713D01*
X62106307Y-32108641D01*
X61996678Y-32052781D01*
X61801989Y-31989522D01*
X61627450Y-31961878D01*
X61599807Y-31957500D01*
X61395103Y-31957500D01*
X61370784Y-31961351D01*
X61192920Y-31989522D01*
X60998231Y-32052781D01*
X60815841Y-32145715D01*
X60650241Y-32266028D01*
X60505483Y-32410786D01*
X60385170Y-32576386D01*
X60292236Y-32758776D01*
X60228977Y-32953465D01*
X60196955Y-33155648D01*
X47375226Y-33155648D01*
X47380500Y-33122352D01*
X47380500Y-32917648D01*
X47366380Y-32828500D01*
X47348477Y-32715465D01*
X47319127Y-32625137D01*
X47285220Y-32520781D01*
X47285218Y-32520778D01*
X47285218Y-32520776D01*
X47229323Y-32411077D01*
X47192287Y-32338390D01*
X47166482Y-32302872D01*
X47071971Y-32172786D01*
X46927213Y-32028028D01*
X46761613Y-31907715D01*
X46761612Y-31907714D01*
X46761610Y-31907713D01*
X46685496Y-31868931D01*
X46579223Y-31814781D01*
X46384534Y-31751522D01*
X46196103Y-31721678D01*
X46182352Y-31719500D01*
X45977648Y-31719500D01*
X45963897Y-31721678D01*
X45775465Y-31751522D01*
X45580776Y-31814781D01*
X45398386Y-31907715D01*
X45232786Y-32028028D01*
X45088032Y-32172782D01*
X45088028Y-32172787D01*
X44966887Y-32339525D01*
X44911557Y-32382191D01*
X44841944Y-32388170D01*
X44780149Y-32355565D01*
X44756084Y-32322935D01*
X44737388Y-32286243D01*
X44691066Y-32222485D01*
X44691065Y-32222485D01*
X43982137Y-32931413D01*
X43959333Y-32846306D01*
X43900090Y-32743694D01*
X43816306Y-32659910D01*
X43713694Y-32600667D01*
X43628583Y-32577861D01*
X44337513Y-31868932D01*
X44273756Y-31822611D01*
X44077410Y-31722567D01*
X43867835Y-31654473D01*
X43650181Y-31620000D01*
X43429819Y-31620000D01*
X43212164Y-31654473D01*
X43002589Y-31722567D01*
X42806233Y-31822616D01*
X42742485Y-31868931D01*
X42742485Y-31868932D01*
X43451414Y-32577861D01*
X43366306Y-32600667D01*
X43263694Y-32659910D01*
X43179910Y-32743694D01*
X43120667Y-32846306D01*
X43097861Y-32931415D01*
X42388931Y-32222485D01*
X42387903Y-32222566D01*
X42319526Y-32208202D01*
X42269769Y-32159150D01*
X42268413Y-32156642D01*
X42262590Y-32145565D01*
X42251864Y-32108643D01*
X42168406Y-31967524D01*
X42168404Y-31967522D01*
X42168401Y-31967518D01*
X42052481Y-31851598D01*
X42052472Y-31851591D01*
X41966640Y-31800830D01*
X41911357Y-31768136D01*
X41753917Y-31722396D01*
X41753916Y-31722395D01*
X41753913Y-31722395D01*
X41717127Y-31719500D01*
X41717122Y-31719500D01*
X40282878Y-31719500D01*
X40282872Y-31719500D01*
X40246087Y-31722395D01*
X40246085Y-31722395D01*
X40167363Y-31745266D01*
X40088643Y-31768136D01*
X40088641Y-31768136D01*
X40088641Y-31768137D01*
X39947527Y-31851591D01*
X39947518Y-31851598D01*
X39831598Y-31967518D01*
X39831591Y-31967527D01*
X39748137Y-32108641D01*
X39748136Y-32108643D01*
X39737366Y-32145715D01*
X39702395Y-32266085D01*
X39702395Y-32266087D01*
X39699500Y-32302872D01*
X35337955Y-32302872D01*
X35337955Y-28838500D01*
X35357640Y-28771461D01*
X35410444Y-28725706D01*
X35461955Y-28714500D01*
X40212955Y-28714500D01*
X40279994Y-28734185D01*
G37*
%TD.AperFunction*%
%TD*%
M02*
