%TF.GenerationSoftware,KiCad,Pcbnew,10.0.3*%
%TF.CreationDate,2026-09-07T19:09:25-07:00*%
%TF.ProjectId,c6remote,63367265-6d6f-4746-952e-6b696361645f,rev?*%
%TF.SameCoordinates,Original*%
%TF.FileFunction,Legend,Top*%
%TF.FilePolarity,Positive*%
%FSLAX46Y46*%
G04 Gerber Fmt 4.6, Leading zero omitted, Abs format (unit mm)*
G04 Created by KiCad (PCBNEW 10.0.3) date 2026-09-07 19:09:25*
%MOMM*%
%LPD*%
G01*
G04 APERTURE LIST*
%ADD10C,0.000000*%
%ADD11C,0.150000*%
%ADD12C,0.800000*%
%ADD13C,0.187500*%
%ADD14C,0.200000*%
%ADD15C,0.504000*%
%ADD16C,0.250000*%
%ADD17C,0.120000*%
G04 APERTURE END LIST*
D10*
G36*
X53825998Y-45736572D02*
G01*
X53836031Y-45736960D01*
X53846035Y-45737602D01*
X53856004Y-45738497D01*
X53865936Y-45739641D01*
X53875825Y-45741033D01*
X53885669Y-45742668D01*
X53895462Y-45744545D01*
X53905201Y-45746661D01*
X53914882Y-45749013D01*
X53924500Y-45751598D01*
X53934052Y-45754413D01*
X53943533Y-45757457D01*
X53952940Y-45760726D01*
X53962268Y-45764217D01*
X53971513Y-45767928D01*
X53980661Y-45771856D01*
X53989696Y-45775999D01*
X53998614Y-45780352D01*
X54007412Y-45784915D01*
X54016085Y-45789684D01*
X54024629Y-45794657D01*
X54033040Y-45799830D01*
X54041314Y-45805202D01*
X54049447Y-45810768D01*
X54057435Y-45816527D01*
X54065273Y-45822477D01*
X54072959Y-45828613D01*
X54080487Y-45834934D01*
X54087853Y-45841437D01*
X54095054Y-45848118D01*
X54102086Y-45854976D01*
X54109107Y-45862171D01*
X54115931Y-45869514D01*
X54122557Y-45877005D01*
X54128984Y-45884639D01*
X54135210Y-45892414D01*
X54141234Y-45900327D01*
X54147055Y-45908376D01*
X54152671Y-45916558D01*
X54158080Y-45924870D01*
X54163282Y-45933310D01*
X54168275Y-45941875D01*
X54173058Y-45950561D01*
X54177629Y-45959367D01*
X54181987Y-45968290D01*
X54186131Y-45977326D01*
X54190059Y-45986474D01*
X54193760Y-45995719D01*
X54197222Y-46005047D01*
X54200445Y-46014454D01*
X54203429Y-46023935D01*
X54206175Y-46033487D01*
X54208681Y-46043106D01*
X54210949Y-46052786D01*
X54212979Y-46062525D01*
X54214769Y-46072319D01*
X54216321Y-46082162D01*
X54217634Y-46092052D01*
X54218709Y-46101983D01*
X54219544Y-46111953D01*
X54220141Y-46121957D01*
X54220499Y-46131990D01*
X54220619Y-46142049D01*
X54220499Y-46151945D01*
X54220141Y-46161836D01*
X54219544Y-46171716D01*
X54218709Y-46181580D01*
X54217634Y-46191422D01*
X54216321Y-46201236D01*
X54214770Y-46211019D01*
X54212979Y-46220763D01*
X54210950Y-46230464D01*
X54208682Y-46240116D01*
X54206175Y-46249713D01*
X54203429Y-46259251D01*
X54200445Y-46268724D01*
X54197222Y-46278127D01*
X54193760Y-46287453D01*
X54190059Y-46296698D01*
X54186131Y-46305846D01*
X54181987Y-46314883D01*
X54177629Y-46323805D01*
X54173058Y-46332611D01*
X54168275Y-46341298D01*
X54163282Y-46349862D01*
X54158080Y-46358302D01*
X54152670Y-46366614D01*
X54147055Y-46374796D01*
X54141234Y-46382846D01*
X54135210Y-46390759D01*
X54128984Y-46398534D01*
X54122557Y-46406168D01*
X54115931Y-46413658D01*
X54109107Y-46421002D01*
X54102086Y-46428196D01*
X54095054Y-46435054D01*
X54087853Y-46441736D01*
X54080487Y-46448239D01*
X54072959Y-46454560D01*
X54065273Y-46460696D01*
X54057435Y-46466645D01*
X54049447Y-46472404D01*
X54041314Y-46477971D01*
X54033040Y-46483342D01*
X54024629Y-46488516D01*
X54016085Y-46493488D01*
X54007412Y-46498257D01*
X53998614Y-46502820D01*
X53989696Y-46507174D01*
X53980661Y-46511317D01*
X53971513Y-46515245D01*
X53962268Y-46518955D01*
X53952940Y-46522447D01*
X53943533Y-46525715D01*
X53934052Y-46528759D01*
X53924500Y-46531575D01*
X53914882Y-46534160D01*
X53905201Y-46536511D01*
X53895462Y-46538627D01*
X53885669Y-46540504D01*
X53875826Y-46542139D01*
X53865936Y-46543531D01*
X53856004Y-46544675D01*
X53846035Y-46545570D01*
X53836031Y-46546213D01*
X53825998Y-46546600D01*
X53815939Y-46546730D01*
X53806042Y-46546600D01*
X53796152Y-46546213D01*
X53786272Y-46545570D01*
X53776408Y-46544675D01*
X53766566Y-46543531D01*
X53756752Y-46542139D01*
X53746969Y-46540504D01*
X53737225Y-46538627D01*
X53727524Y-46536511D01*
X53717872Y-46534160D01*
X53708274Y-46531575D01*
X53698736Y-46528759D01*
X53689263Y-46525715D01*
X53679861Y-46522447D01*
X53670534Y-46518955D01*
X53661289Y-46515245D01*
X53652142Y-46511317D01*
X53643105Y-46507174D01*
X53634182Y-46502820D01*
X53625376Y-46498257D01*
X53616690Y-46493488D01*
X53608125Y-46488516D01*
X53599686Y-46483342D01*
X53591373Y-46477971D01*
X53583191Y-46472404D01*
X53575142Y-46466645D01*
X53567229Y-46460696D01*
X53559454Y-46454560D01*
X53551820Y-46448239D01*
X53544330Y-46441736D01*
X53536986Y-46435054D01*
X53529792Y-46428196D01*
X53522923Y-46421002D01*
X53516212Y-46413658D01*
X53509664Y-46406168D01*
X53503284Y-46398534D01*
X53497077Y-46390759D01*
X53491050Y-46382845D01*
X53485207Y-46374796D01*
X53479554Y-46366614D01*
X53474096Y-46358302D01*
X53468839Y-46349862D01*
X53463788Y-46341298D01*
X53458949Y-46332611D01*
X53454327Y-46323805D01*
X53449928Y-46314883D01*
X53445756Y-46305846D01*
X53441818Y-46296698D01*
X53438117Y-46287453D01*
X53434655Y-46278127D01*
X53431432Y-46268724D01*
X53428448Y-46259251D01*
X53425702Y-46249713D01*
X53423196Y-46240116D01*
X53420927Y-46230464D01*
X53418898Y-46220763D01*
X53417108Y-46211019D01*
X53415556Y-46201236D01*
X53414243Y-46191422D01*
X53413168Y-46181580D01*
X53412333Y-46171716D01*
X53411736Y-46161836D01*
X53411378Y-46151945D01*
X53411258Y-46142049D01*
X53411378Y-46131990D01*
X53411736Y-46121957D01*
X53412333Y-46111953D01*
X53413168Y-46101983D01*
X53414243Y-46092052D01*
X53415556Y-46082162D01*
X53417107Y-46072319D01*
X53418898Y-46062525D01*
X53420927Y-46052786D01*
X53423195Y-46043106D01*
X53425702Y-46033487D01*
X53428448Y-46023935D01*
X53431432Y-46014454D01*
X53434655Y-46005047D01*
X53438117Y-45995719D01*
X53441818Y-45986474D01*
X53445756Y-45977326D01*
X53449928Y-45968290D01*
X53454327Y-45959367D01*
X53458949Y-45950561D01*
X53463789Y-45941875D01*
X53468839Y-45933310D01*
X53474096Y-45924870D01*
X53479554Y-45916558D01*
X53485207Y-45908376D01*
X53491050Y-45900327D01*
X53497077Y-45892413D01*
X53503284Y-45884638D01*
X53509664Y-45877004D01*
X53516212Y-45869514D01*
X53522923Y-45862171D01*
X53529792Y-45854976D01*
X53536986Y-45848118D01*
X53544330Y-45841437D01*
X53551820Y-45834934D01*
X53559454Y-45828613D01*
X53567229Y-45822477D01*
X53575142Y-45816527D01*
X53583191Y-45810768D01*
X53591373Y-45805202D01*
X53599686Y-45799830D01*
X53608125Y-45794657D01*
X53616690Y-45789684D01*
X53625376Y-45784915D01*
X53634182Y-45780352D01*
X53643105Y-45775999D01*
X53652142Y-45771856D01*
X53661289Y-45767928D01*
X53670534Y-45764217D01*
X53679861Y-45760726D01*
X53689263Y-45757457D01*
X53698736Y-45754413D01*
X53708274Y-45751598D01*
X53717872Y-45749013D01*
X53727524Y-45746661D01*
X53737225Y-45744545D01*
X53746969Y-45742668D01*
X53756752Y-45741033D01*
X53766566Y-45739641D01*
X53776408Y-45738497D01*
X53786272Y-45737602D01*
X53796152Y-45736960D01*
X53806042Y-45736572D01*
X53815939Y-45736442D01*
X53825998Y-45736572D01*
G37*
G36*
X53247781Y-39992268D02*
G01*
X53253765Y-39992663D01*
X53259730Y-39993326D01*
X53265666Y-39994258D01*
X53271564Y-39995458D01*
X53277414Y-39996927D01*
X53283206Y-39998663D01*
X53288931Y-40000668D01*
X53294579Y-40002941D01*
X53300140Y-40005483D01*
X53305605Y-40008293D01*
X53310964Y-40011371D01*
X53316207Y-40014718D01*
X53321325Y-40018333D01*
X53326308Y-40022217D01*
X53331146Y-40026368D01*
X56934828Y-43269431D01*
X56934827Y-43269440D01*
X56942911Y-43277301D01*
X56950139Y-43285525D01*
X56956526Y-43294073D01*
X56962089Y-43302904D01*
X56966843Y-43311978D01*
X56970802Y-43321255D01*
X56973983Y-43330695D01*
X56976401Y-43340257D01*
X56978071Y-43349902D01*
X56979009Y-43359588D01*
X56979230Y-43369276D01*
X56978750Y-43378926D01*
X56977583Y-43388498D01*
X56975747Y-43397950D01*
X56973255Y-43407243D01*
X56970123Y-43416337D01*
X56966368Y-43425192D01*
X56962003Y-43433767D01*
X56957045Y-43442021D01*
X56951509Y-43449916D01*
X56945411Y-43457410D01*
X56938766Y-43464464D01*
X56931589Y-43471036D01*
X56923896Y-43477088D01*
X56915702Y-43482578D01*
X56907023Y-43487467D01*
X56897874Y-43491714D01*
X56888271Y-43495279D01*
X56878229Y-43498121D01*
X56867763Y-43500202D01*
X56856889Y-43501479D01*
X56845622Y-43501914D01*
X55834643Y-43501914D01*
X55834584Y-43501665D01*
X55834515Y-43501379D01*
X55834421Y-43501007D01*
X55618144Y-43501007D01*
X55613246Y-43500917D01*
X55608382Y-43500649D01*
X55603556Y-43500206D01*
X55598771Y-43499590D01*
X55594031Y-43498805D01*
X55589339Y-43497851D01*
X55584700Y-43496732D01*
X55580118Y-43495451D01*
X55575595Y-43494010D01*
X55571136Y-43492411D01*
X55566744Y-43490658D01*
X55562423Y-43488752D01*
X55558177Y-43486696D01*
X55554010Y-43484493D01*
X55549925Y-43482145D01*
X55545925Y-43479656D01*
X55542015Y-43477026D01*
X55538198Y-43474260D01*
X55534479Y-43471359D01*
X55530860Y-43468326D01*
X55527345Y-43465164D01*
X55523939Y-43461875D01*
X55520644Y-43458462D01*
X55517465Y-43454927D01*
X55514406Y-43451272D01*
X55511469Y-43447502D01*
X55508659Y-43443617D01*
X55505979Y-43439620D01*
X55503434Y-43435515D01*
X55501026Y-43431303D01*
X55498760Y-43426988D01*
X55496639Y-43422571D01*
X55480963Y-43389872D01*
X55463035Y-43355713D01*
X55442768Y-43320586D01*
X55420073Y-43284984D01*
X55394861Y-43249400D01*
X55367045Y-43214325D01*
X55336536Y-43180253D01*
X55303246Y-43147677D01*
X55267086Y-43117088D01*
X55247902Y-43102692D01*
X55227968Y-43088979D01*
X55207272Y-43076009D01*
X55185804Y-43063843D01*
X55163552Y-43052544D01*
X55140505Y-43042173D01*
X55116652Y-43032792D01*
X55091983Y-43024461D01*
X55066486Y-43017243D01*
X55040150Y-43011200D01*
X55012964Y-43006392D01*
X54984918Y-43002882D01*
X54955999Y-43000730D01*
X54926197Y-43000000D01*
X52750000Y-43000000D01*
X52706696Y-43001061D01*
X52664892Y-43004205D01*
X52624579Y-43009374D01*
X52585750Y-43016510D01*
X52548397Y-43025554D01*
X52512510Y-43036448D01*
X52478082Y-43049133D01*
X52445105Y-43063551D01*
X52413570Y-43079644D01*
X52383470Y-43097353D01*
X52354796Y-43116620D01*
X52327539Y-43137386D01*
X52301692Y-43159593D01*
X52277246Y-43183184D01*
X52254194Y-43208098D01*
X52232527Y-43234279D01*
X52212236Y-43261667D01*
X52193314Y-43290205D01*
X52175752Y-43319833D01*
X52159543Y-43350494D01*
X52144677Y-43382129D01*
X52131147Y-43414679D01*
X52108062Y-43482294D01*
X52090220Y-43552872D01*
X52077558Y-43625944D01*
X52070009Y-43701046D01*
X52067507Y-43777708D01*
X52083315Y-46526366D01*
X52083185Y-46533228D01*
X52082714Y-46540003D01*
X52081909Y-46546681D01*
X52080778Y-46553254D01*
X52079331Y-46559715D01*
X52077574Y-46566053D01*
X52075518Y-46572262D01*
X52073169Y-46578332D01*
X52070537Y-46584255D01*
X52067629Y-46590023D01*
X52064454Y-46595627D01*
X52061021Y-46601058D01*
X52057337Y-46606309D01*
X52053411Y-46611372D01*
X52049251Y-46616236D01*
X52044865Y-46620895D01*
X52040263Y-46625339D01*
X52035451Y-46629561D01*
X52030440Y-46633551D01*
X52025235Y-46637302D01*
X52019848Y-46640804D01*
X52014284Y-46644050D01*
X52008553Y-46647031D01*
X52002664Y-46649739D01*
X51996624Y-46652165D01*
X51990441Y-46654301D01*
X51984125Y-46656138D01*
X51977683Y-46657668D01*
X51971124Y-46658883D01*
X51964456Y-46659774D01*
X51957687Y-46660332D01*
X51950826Y-46660549D01*
X51500779Y-46663448D01*
X51500774Y-46663067D01*
X51500771Y-46662648D01*
X51500770Y-46661771D01*
X50627614Y-46662392D01*
X50620749Y-46662223D01*
X50613973Y-46661713D01*
X50607295Y-46660869D01*
X50600725Y-46659700D01*
X50594269Y-46658214D01*
X50587937Y-46656421D01*
X50581738Y-46654327D01*
X50575678Y-46651941D01*
X50569767Y-46649273D01*
X50564014Y-46646329D01*
X50558425Y-46643120D01*
X50553011Y-46639652D01*
X50547779Y-46635935D01*
X50542738Y-46631976D01*
X50537896Y-46627785D01*
X50533261Y-46623369D01*
X50528842Y-46618738D01*
X50524648Y-46613898D01*
X50520686Y-46608860D01*
X50516965Y-46603630D01*
X50513494Y-46598218D01*
X50510280Y-46592632D01*
X50507333Y-46586880D01*
X50504660Y-46580971D01*
X50502270Y-46574913D01*
X50500172Y-46568715D01*
X50498374Y-46562384D01*
X50496883Y-46555930D01*
X50495710Y-46549360D01*
X50494861Y-46542683D01*
X50494345Y-46535908D01*
X50494172Y-46529042D01*
X50494172Y-43635254D01*
X50493998Y-43628392D01*
X50493483Y-43621620D01*
X50492635Y-43614946D01*
X50491463Y-43608380D01*
X50489974Y-43601928D01*
X50488177Y-43595600D01*
X50486080Y-43589404D01*
X50483693Y-43583348D01*
X50481022Y-43577441D01*
X50478077Y-43571692D01*
X50474866Y-43566107D01*
X50471398Y-43560697D01*
X50467680Y-43555469D01*
X50463721Y-43550431D01*
X50459530Y-43545593D01*
X50455115Y-43540961D01*
X50450484Y-43536546D01*
X50445645Y-43532355D01*
X50440608Y-43528396D01*
X50435379Y-43524678D01*
X50429969Y-43521210D01*
X50424385Y-43517999D01*
X50418635Y-43515054D01*
X50412728Y-43512384D01*
X50406672Y-43509996D01*
X50400476Y-43507900D01*
X50394148Y-43506103D01*
X50387697Y-43504614D01*
X50381130Y-43503441D01*
X50374456Y-43502593D01*
X50367684Y-43502078D01*
X50360822Y-43501905D01*
X49655150Y-43501905D01*
X49643897Y-43501471D01*
X49633036Y-43500196D01*
X49622581Y-43498119D01*
X49612549Y-43495282D01*
X49602954Y-43491724D01*
X49593812Y-43487485D01*
X49585138Y-43482606D01*
X49576949Y-43477126D01*
X49569259Y-43471085D01*
X49562083Y-43464524D01*
X49555438Y-43457482D01*
X49549339Y-43450001D01*
X49543800Y-43442119D01*
X49538839Y-43433877D01*
X49534469Y-43425314D01*
X49530706Y-43416472D01*
X49527567Y-43407391D01*
X49525066Y-43398109D01*
X49523218Y-43388668D01*
X49522040Y-43379107D01*
X49521546Y-43369467D01*
X49521752Y-43359787D01*
X49522674Y-43350108D01*
X49524327Y-43340470D01*
X49526726Y-43330913D01*
X49529886Y-43321477D01*
X49533824Y-43312201D01*
X49538555Y-43303127D01*
X49544094Y-43294294D01*
X49550456Y-43285743D01*
X49557657Y-43277513D01*
X49565713Y-43269644D01*
X53152513Y-40026581D01*
X53157341Y-40022418D01*
X53162315Y-40018523D01*
X53167424Y-40014895D01*
X53172659Y-40011536D01*
X53178010Y-40008445D01*
X53183468Y-40005622D01*
X53189023Y-40003067D01*
X53194666Y-40000781D01*
X53200386Y-39998762D01*
X53206174Y-39997012D01*
X53212020Y-39995529D01*
X53217915Y-39994315D01*
X53223849Y-39993369D01*
X53229812Y-39992692D01*
X53235795Y-39992282D01*
X53241788Y-39992141D01*
X53247781Y-39992268D01*
G37*
G36*
X54837998Y-43307555D02*
G01*
X54847889Y-43307913D01*
X54857769Y-43308510D01*
X54867632Y-43309346D01*
X54877474Y-43310420D01*
X54887289Y-43311733D01*
X54897071Y-43313285D01*
X54906815Y-43315076D01*
X54916516Y-43317105D01*
X54926168Y-43319373D01*
X54935766Y-43321880D01*
X54945304Y-43324625D01*
X54954777Y-43327610D01*
X54964179Y-43330833D01*
X54973506Y-43334295D01*
X54982751Y-43337995D01*
X54991899Y-43341924D01*
X55000935Y-43346067D01*
X55009858Y-43350426D01*
X55018664Y-43354997D01*
X55027351Y-43359780D01*
X55035915Y-43364773D01*
X55044355Y-43369975D01*
X55052667Y-43375384D01*
X55060849Y-43381000D01*
X55068898Y-43386821D01*
X55076812Y-43392845D01*
X55084587Y-43399071D01*
X55092221Y-43405498D01*
X55099711Y-43412124D01*
X55107054Y-43418948D01*
X55114249Y-43425969D01*
X55121270Y-43433163D01*
X55128094Y-43440507D01*
X55134720Y-43447997D01*
X55141147Y-43455631D01*
X55147373Y-43463406D01*
X55153398Y-43471320D01*
X55159218Y-43479369D01*
X55164834Y-43487551D01*
X55170243Y-43495863D01*
X55175445Y-43504303D01*
X55180438Y-43512867D01*
X55185221Y-43521554D01*
X55189792Y-43530360D01*
X55194151Y-43539283D01*
X55198295Y-43548319D01*
X55202223Y-43557467D01*
X55205923Y-43566712D01*
X55209385Y-43576038D01*
X55212608Y-43585441D01*
X55215592Y-43594914D01*
X55218338Y-43604452D01*
X55220845Y-43614050D01*
X55223113Y-43623702D01*
X55225142Y-43633402D01*
X55226933Y-43643147D01*
X55228484Y-43652929D01*
X55229798Y-43662744D01*
X55230872Y-43672586D01*
X55231707Y-43682449D01*
X55232304Y-43692329D01*
X55232662Y-43702220D01*
X55232782Y-43712116D01*
X55232782Y-46950484D01*
X55232662Y-46960543D01*
X55232304Y-46970576D01*
X55231707Y-46980580D01*
X55230872Y-46990550D01*
X55229798Y-47000481D01*
X55228484Y-47010371D01*
X55226933Y-47020214D01*
X55225142Y-47030008D01*
X55223113Y-47039747D01*
X55220845Y-47049427D01*
X55218338Y-47059046D01*
X55215592Y-47068597D01*
X55212608Y-47078079D01*
X55209385Y-47087485D01*
X55205923Y-47096813D01*
X55202223Y-47106059D01*
X55198295Y-47115206D01*
X55194151Y-47124241D01*
X55189792Y-47133160D01*
X55185221Y-47141957D01*
X55180438Y-47150630D01*
X55175445Y-47159174D01*
X55170243Y-47167585D01*
X55164834Y-47175859D01*
X55159218Y-47183992D01*
X55153398Y-47191980D01*
X55147373Y-47199818D01*
X55141147Y-47207503D01*
X55134720Y-47215031D01*
X55128094Y-47222398D01*
X55121270Y-47229599D01*
X55114249Y-47236630D01*
X55107054Y-47243651D01*
X55099711Y-47250476D01*
X55092220Y-47257102D01*
X55084586Y-47263529D01*
X55076811Y-47269755D01*
X55068898Y-47275779D01*
X55060849Y-47281600D01*
X55052667Y-47287215D01*
X55044355Y-47292625D01*
X55035915Y-47297827D01*
X55027350Y-47302820D01*
X55018664Y-47307603D01*
X55009858Y-47312174D01*
X55000935Y-47316532D01*
X54991899Y-47320676D01*
X54982751Y-47324605D01*
X54973506Y-47328305D01*
X54964179Y-47331767D01*
X54954777Y-47334990D01*
X54945304Y-47337974D01*
X54935766Y-47340720D01*
X54926168Y-47343227D01*
X54916516Y-47345495D01*
X54906815Y-47347524D01*
X54897071Y-47349315D01*
X54887289Y-47350866D01*
X54877474Y-47352180D01*
X54867632Y-47353254D01*
X54857769Y-47354090D01*
X54847889Y-47354686D01*
X54837998Y-47355045D01*
X54828102Y-47355164D01*
X52803775Y-47355164D01*
X52793879Y-47355045D01*
X52783988Y-47354686D01*
X52774108Y-47354090D01*
X52764244Y-47353254D01*
X52754402Y-47352180D01*
X52744588Y-47350866D01*
X52734805Y-47349315D01*
X52725061Y-47347524D01*
X52715360Y-47345495D01*
X52705708Y-47343227D01*
X52696110Y-47340720D01*
X52686572Y-47337974D01*
X52677099Y-47334990D01*
X52667697Y-47331767D01*
X52658371Y-47328305D01*
X52649126Y-47324605D01*
X52639978Y-47320676D01*
X52630941Y-47316532D01*
X52622018Y-47312174D01*
X52613212Y-47307603D01*
X52604526Y-47302820D01*
X52595961Y-47297827D01*
X52587521Y-47292625D01*
X52579209Y-47287215D01*
X52571027Y-47281600D01*
X52562978Y-47275779D01*
X52555065Y-47269755D01*
X52547290Y-47263529D01*
X52539656Y-47257102D01*
X52532166Y-47250476D01*
X52524822Y-47243651D01*
X52517627Y-47236630D01*
X52510606Y-47229599D01*
X52503782Y-47222398D01*
X52497156Y-47215031D01*
X52490729Y-47207503D01*
X52484503Y-47199818D01*
X52478479Y-47191980D01*
X52472658Y-47183992D01*
X52467042Y-47175859D01*
X52461633Y-47167585D01*
X52456431Y-47159174D01*
X52451438Y-47150630D01*
X52446655Y-47141957D01*
X52442084Y-47133160D01*
X52437726Y-47124241D01*
X52433582Y-47115206D01*
X52429653Y-47106059D01*
X52425953Y-47096813D01*
X52422491Y-47087485D01*
X52419268Y-47078079D01*
X52416284Y-47068597D01*
X52413538Y-47059046D01*
X52411032Y-47049427D01*
X52408764Y-47039747D01*
X52406734Y-47030008D01*
X52404944Y-47020214D01*
X52403392Y-47010371D01*
X52402079Y-47000481D01*
X52401004Y-46990550D01*
X52400169Y-46980580D01*
X52399572Y-46970576D01*
X52399214Y-46960543D01*
X52399094Y-46950484D01*
X52399094Y-46142049D01*
X53006578Y-46142049D01*
X53006827Y-46161842D01*
X53007573Y-46181623D01*
X53008812Y-46201383D01*
X53010543Y-46221110D01*
X53012761Y-46240794D01*
X53015466Y-46260424D01*
X53018653Y-46279988D01*
X53022321Y-46299476D01*
X53026466Y-46318878D01*
X53031086Y-46338182D01*
X53036178Y-46357378D01*
X53041739Y-46376454D01*
X53047767Y-46395400D01*
X53054258Y-46414204D01*
X53061211Y-46432857D01*
X53068623Y-46451347D01*
X53076327Y-46469653D01*
X53084499Y-46487754D01*
X53093134Y-46505641D01*
X53102221Y-46523304D01*
X53111753Y-46540733D01*
X53121722Y-46557920D01*
X53132119Y-46574854D01*
X53142938Y-46591527D01*
X53154168Y-46607928D01*
X53165803Y-46624049D01*
X53177834Y-46639879D01*
X53190252Y-46655409D01*
X53203051Y-46670630D01*
X53216221Y-46685533D01*
X53229755Y-46700107D01*
X53243645Y-46714343D01*
X53257881Y-46728222D01*
X53272455Y-46741729D01*
X53287357Y-46754857D01*
X53302578Y-46767605D01*
X53318109Y-46779968D01*
X53333939Y-46791941D01*
X53350060Y-46803521D01*
X53366461Y-46814703D01*
X53383133Y-46825484D01*
X53400068Y-46835859D01*
X53417255Y-46845825D01*
X53434684Y-46855377D01*
X53452347Y-46864511D01*
X53470234Y-46873223D01*
X53488335Y-46881509D01*
X53506640Y-46889365D01*
X53525120Y-46896777D01*
X53543745Y-46903730D01*
X53562509Y-46910222D01*
X53581404Y-46916250D01*
X53600424Y-46921811D01*
X53619561Y-46926903D01*
X53638810Y-46931523D01*
X53658164Y-46935668D01*
X53677615Y-46939335D01*
X53697157Y-46942523D01*
X53716783Y-46945227D01*
X53736487Y-46947446D01*
X53756261Y-46949176D01*
X53776099Y-46950416D01*
X53795993Y-46951161D01*
X53815938Y-46951410D01*
X53835894Y-46951161D01*
X53855818Y-46950416D01*
X53875701Y-46949176D01*
X53895535Y-46947446D01*
X53915308Y-46945227D01*
X53935013Y-46942523D01*
X53954638Y-46939335D01*
X53974176Y-46935668D01*
X53993616Y-46931523D01*
X54012948Y-46926903D01*
X54032164Y-46921811D01*
X54051254Y-46916250D01*
X54070208Y-46910222D01*
X54089017Y-46903730D01*
X54107672Y-46896777D01*
X54126162Y-46889365D01*
X54144457Y-46881509D01*
X54162529Y-46873223D01*
X54180370Y-46864511D01*
X54197974Y-46855377D01*
X54215333Y-46845825D01*
X54232442Y-46835859D01*
X54249292Y-46825484D01*
X54265879Y-46814703D01*
X54282194Y-46803521D01*
X54298230Y-46791941D01*
X54313982Y-46779968D01*
X54329443Y-46767605D01*
X54344605Y-46754857D01*
X54359461Y-46741728D01*
X54374006Y-46728222D01*
X54388232Y-46714343D01*
X54402274Y-46700107D01*
X54415923Y-46685533D01*
X54429176Y-46670630D01*
X54442029Y-46655409D01*
X54454482Y-46639879D01*
X54466530Y-46624048D01*
X54478171Y-46607928D01*
X54489402Y-46591527D01*
X54500221Y-46574854D01*
X54510625Y-46557920D01*
X54520611Y-46540733D01*
X54530177Y-46523303D01*
X54539319Y-46505641D01*
X54548036Y-46487754D01*
X54556324Y-46469653D01*
X54564180Y-46451347D01*
X54571592Y-46432857D01*
X54578545Y-46414204D01*
X54585036Y-46395399D01*
X54591064Y-46376453D01*
X54596625Y-46357377D01*
X54601717Y-46338182D01*
X54606337Y-46318878D01*
X54610482Y-46299476D01*
X54614150Y-46279988D01*
X54617337Y-46260423D01*
X54620041Y-46240794D01*
X54622260Y-46221110D01*
X54623991Y-46201383D01*
X54625230Y-46181623D01*
X54625976Y-46161842D01*
X54626225Y-46142049D01*
X54625976Y-46122094D01*
X54625230Y-46102170D01*
X54623991Y-46082286D01*
X54622260Y-46062453D01*
X54620041Y-46042680D01*
X54617337Y-46022975D01*
X54614150Y-46003349D01*
X54610482Y-45983812D01*
X54606337Y-45964372D01*
X54601717Y-45945039D01*
X54596625Y-45925823D01*
X54591064Y-45906733D01*
X54585036Y-45887779D01*
X54578545Y-45868970D01*
X54571592Y-45850316D01*
X54564180Y-45831825D01*
X54556324Y-45813530D01*
X54548036Y-45795456D01*
X54539319Y-45777611D01*
X54530177Y-45759999D01*
X54520611Y-45742626D01*
X54510625Y-45725497D01*
X54500221Y-45708617D01*
X54489402Y-45691993D01*
X54478171Y-45675629D01*
X54466530Y-45659531D01*
X54454482Y-45643704D01*
X54442029Y-45628154D01*
X54429176Y-45612886D01*
X54415923Y-45597906D01*
X54402274Y-45583218D01*
X54388232Y-45568829D01*
X54374006Y-45554950D01*
X54359461Y-45541444D01*
X54344605Y-45528315D01*
X54329443Y-45515567D01*
X54313983Y-45503205D01*
X54298231Y-45491231D01*
X54282194Y-45479652D01*
X54265879Y-45468469D01*
X54249293Y-45457688D01*
X54232442Y-45447313D01*
X54215333Y-45437348D01*
X54197974Y-45427796D01*
X54180370Y-45418662D01*
X54162529Y-45409949D01*
X54144458Y-45401663D01*
X54126162Y-45393807D01*
X54107672Y-45386395D01*
X54089017Y-45379442D01*
X54070208Y-45372951D01*
X54051254Y-45366923D01*
X54032164Y-45361361D01*
X54012948Y-45356270D01*
X53993615Y-45351650D01*
X53974176Y-45347505D01*
X53954638Y-45343837D01*
X53935012Y-45340650D01*
X53915308Y-45337946D01*
X53895535Y-45335727D01*
X53875701Y-45333996D01*
X53855818Y-45332757D01*
X53835894Y-45332011D01*
X53815938Y-45331762D01*
X53795993Y-45332011D01*
X53776099Y-45332757D01*
X53756261Y-45333996D01*
X53736487Y-45335727D01*
X53716783Y-45337946D01*
X53697157Y-45340650D01*
X53677615Y-45343837D01*
X53658164Y-45347505D01*
X53638810Y-45351650D01*
X53619561Y-45356270D01*
X53600424Y-45361361D01*
X53581404Y-45366923D01*
X53562509Y-45372951D01*
X53543745Y-45379442D01*
X53525120Y-45386395D01*
X53506640Y-45393807D01*
X53488335Y-45401663D01*
X53470234Y-45409949D01*
X53452347Y-45418662D01*
X53434684Y-45427796D01*
X53417255Y-45437348D01*
X53400068Y-45447313D01*
X53383133Y-45457689D01*
X53366461Y-45468469D01*
X53350060Y-45479652D01*
X53333939Y-45491232D01*
X53318109Y-45503205D01*
X53302578Y-45515567D01*
X53287357Y-45528315D01*
X53272455Y-45541444D01*
X53257881Y-45554950D01*
X53243645Y-45568829D01*
X53229755Y-45583218D01*
X53216221Y-45597906D01*
X53203051Y-45612886D01*
X53190252Y-45628154D01*
X53177834Y-45643704D01*
X53165803Y-45659531D01*
X53154168Y-45675629D01*
X53142938Y-45691993D01*
X53132119Y-45708618D01*
X53121722Y-45725497D01*
X53111753Y-45742626D01*
X53102221Y-45759999D01*
X53093134Y-45777611D01*
X53084499Y-45795457D01*
X53076327Y-45813530D01*
X53068623Y-45831825D01*
X53061211Y-45850316D01*
X53054258Y-45868970D01*
X53047767Y-45887779D01*
X53041739Y-45906733D01*
X53036177Y-45925823D01*
X53031086Y-45945039D01*
X53026466Y-45964372D01*
X53022321Y-45983812D01*
X53018653Y-46003349D01*
X53015466Y-46022975D01*
X53012761Y-46042679D01*
X53010543Y-46062453D01*
X53008812Y-46082286D01*
X53007573Y-46102170D01*
X53006827Y-46122094D01*
X53006578Y-46142049D01*
X52399094Y-46142049D01*
X52399094Y-44793732D01*
X52399094Y-43845466D01*
X52803775Y-43845466D01*
X52803775Y-44793732D01*
X52803948Y-44800595D01*
X52804463Y-44807367D01*
X52805311Y-44814040D01*
X52806484Y-44820607D01*
X52807973Y-44827059D01*
X52809770Y-44833387D01*
X52811866Y-44839583D01*
X52814254Y-44845638D01*
X52816924Y-44851545D01*
X52819869Y-44857295D01*
X52823080Y-44862879D01*
X52826549Y-44868290D01*
X52830266Y-44873518D01*
X52834225Y-44878556D01*
X52838416Y-44883394D01*
X52842832Y-44888025D01*
X52847463Y-44892441D01*
X52852301Y-44896632D01*
X52857339Y-44900591D01*
X52862567Y-44904308D01*
X52867977Y-44907777D01*
X52873562Y-44910988D01*
X52879311Y-44913933D01*
X52885218Y-44916603D01*
X52891274Y-44918991D01*
X52897470Y-44921087D01*
X52903798Y-44922884D01*
X52910250Y-44924373D01*
X52916817Y-44925546D01*
X52923490Y-44926394D01*
X52930262Y-44926909D01*
X52937125Y-44927082D01*
X54694751Y-44927082D01*
X54701614Y-44926909D01*
X54708386Y-44926394D01*
X54715059Y-44925546D01*
X54721626Y-44924373D01*
X54728078Y-44922884D01*
X54734406Y-44921087D01*
X54740602Y-44918991D01*
X54746658Y-44916603D01*
X54752565Y-44913933D01*
X54758314Y-44910988D01*
X54763899Y-44907777D01*
X54769309Y-44904308D01*
X54774537Y-44900591D01*
X54779575Y-44896632D01*
X54784413Y-44892441D01*
X54789045Y-44888025D01*
X54793460Y-44883394D01*
X54797651Y-44878556D01*
X54801610Y-44873518D01*
X54805328Y-44868290D01*
X54808796Y-44862879D01*
X54812007Y-44857295D01*
X54814952Y-44851545D01*
X54817622Y-44845638D01*
X54820010Y-44839583D01*
X54822107Y-44833387D01*
X54823904Y-44827059D01*
X54825393Y-44820607D01*
X54826565Y-44814040D01*
X54827413Y-44807367D01*
X54827928Y-44800595D01*
X54828102Y-44793732D01*
X54828102Y-43845466D01*
X54827928Y-43838603D01*
X54827413Y-43831831D01*
X54826565Y-43825158D01*
X54825393Y-43818591D01*
X54823904Y-43812139D01*
X54822107Y-43805811D01*
X54820010Y-43799615D01*
X54817622Y-43793559D01*
X54814952Y-43787653D01*
X54812007Y-43781903D01*
X54808796Y-43776318D01*
X54805328Y-43770908D01*
X54801610Y-43765680D01*
X54797651Y-43760642D01*
X54793460Y-43755804D01*
X54789045Y-43751173D01*
X54784413Y-43746757D01*
X54779575Y-43742566D01*
X54774537Y-43738607D01*
X54769309Y-43734890D01*
X54763899Y-43731421D01*
X54758314Y-43728210D01*
X54752565Y-43725265D01*
X54746658Y-43722595D01*
X54740602Y-43720207D01*
X54734406Y-43718111D01*
X54728078Y-43716314D01*
X54721626Y-43714825D01*
X54715059Y-43713652D01*
X54708386Y-43712804D01*
X54701614Y-43712289D01*
X54694751Y-43712116D01*
X52937125Y-43712116D01*
X52930262Y-43712289D01*
X52923490Y-43712804D01*
X52916817Y-43713652D01*
X52910250Y-43714825D01*
X52903798Y-43716314D01*
X52897470Y-43718111D01*
X52891274Y-43720207D01*
X52885218Y-43722595D01*
X52879311Y-43725265D01*
X52873562Y-43728210D01*
X52867977Y-43731421D01*
X52862567Y-43734890D01*
X52857339Y-43738607D01*
X52852301Y-43742566D01*
X52847463Y-43746757D01*
X52842832Y-43751173D01*
X52838416Y-43755804D01*
X52834225Y-43760642D01*
X52830266Y-43765680D01*
X52826549Y-43770908D01*
X52823080Y-43776318D01*
X52819869Y-43781903D01*
X52816924Y-43787653D01*
X52814254Y-43793559D01*
X52811866Y-43799615D01*
X52809770Y-43805811D01*
X52807973Y-43812139D01*
X52806484Y-43818591D01*
X52805311Y-43825158D01*
X52804463Y-43831831D01*
X52803948Y-43838603D01*
X52803775Y-43845466D01*
X52399094Y-43845466D01*
X52399094Y-43712116D01*
X52399214Y-43702220D01*
X52399572Y-43692329D01*
X52400169Y-43682449D01*
X52401004Y-43672586D01*
X52402079Y-43662744D01*
X52403392Y-43652929D01*
X52404944Y-43643147D01*
X52406734Y-43633403D01*
X52408763Y-43623702D01*
X52411031Y-43614050D01*
X52413538Y-43604452D01*
X52416284Y-43594914D01*
X52419268Y-43585441D01*
X52422491Y-43576039D01*
X52425953Y-43566712D01*
X52429653Y-43557467D01*
X52433582Y-43548319D01*
X52437726Y-43539283D01*
X52442084Y-43530360D01*
X52446655Y-43521554D01*
X52451438Y-43512867D01*
X52456431Y-43504303D01*
X52461633Y-43495863D01*
X52467043Y-43487551D01*
X52472658Y-43479369D01*
X52478479Y-43471320D01*
X52484503Y-43463407D01*
X52490729Y-43455632D01*
X52497156Y-43447998D01*
X52503782Y-43440507D01*
X52510606Y-43433164D01*
X52517627Y-43425969D01*
X52524822Y-43418948D01*
X52532166Y-43412124D01*
X52539656Y-43405498D01*
X52547290Y-43399071D01*
X52555065Y-43392844D01*
X52562978Y-43386820D01*
X52571027Y-43381000D01*
X52579209Y-43375384D01*
X52587521Y-43369975D01*
X52595961Y-43364773D01*
X52604526Y-43359780D01*
X52613212Y-43354997D01*
X52622018Y-43350426D01*
X52630941Y-43346067D01*
X52639978Y-43341924D01*
X52649126Y-43337995D01*
X52658371Y-43334295D01*
X52667697Y-43330833D01*
X52677099Y-43327610D01*
X52686572Y-43324626D01*
X52696110Y-43321880D01*
X52705708Y-43319373D01*
X52715360Y-43317105D01*
X52725061Y-43315076D01*
X52734805Y-43313285D01*
X52744588Y-43311733D01*
X52754402Y-43310420D01*
X52764244Y-43309346D01*
X52774108Y-43308510D01*
X52783988Y-43307914D01*
X52793879Y-43307555D01*
X52803775Y-43307436D01*
X54828102Y-43307436D01*
X54837998Y-43307555D01*
G37*
D11*
X52750000Y-34800000D02*
X53950000Y-34800000D01*
X54500000Y-31575000D02*
G75*
G02*
X52200000Y-31575000I-1150000J0D01*
G01*
X52200000Y-31575000D02*
G75*
G02*
X54500000Y-31575000I1150000J0D01*
G01*
D12*
X53350000Y-33500000D02*
X53350000Y-33800000D01*
D11*
X53350000Y-34550000D02*
X53350000Y-34800000D01*
X54200000Y-33700000D02*
G75*
G02*
X52500000Y-33700000I-850000J0D01*
G01*
D13*
X45343571Y-139775472D02*
X45272142Y-139737377D01*
X45272142Y-139737377D02*
X45236428Y-139699281D01*
X45236428Y-139699281D02*
X45200714Y-139623091D01*
X45200714Y-139623091D02*
X45200714Y-139584996D01*
X45200714Y-139584996D02*
X45236428Y-139508805D01*
X45236428Y-139508805D02*
X45272142Y-139470710D01*
X45272142Y-139470710D02*
X45343571Y-139432615D01*
X45343571Y-139432615D02*
X45486428Y-139432615D01*
X45486428Y-139432615D02*
X45557857Y-139470710D01*
X45557857Y-139470710D02*
X45593571Y-139508805D01*
X45593571Y-139508805D02*
X45629285Y-139584996D01*
X45629285Y-139584996D02*
X45629285Y-139623091D01*
X45629285Y-139623091D02*
X45593571Y-139699281D01*
X45593571Y-139699281D02*
X45557857Y-139737377D01*
X45557857Y-139737377D02*
X45486428Y-139775472D01*
X45486428Y-139775472D02*
X45343571Y-139775472D01*
X45343571Y-139775472D02*
X45272142Y-139813567D01*
X45272142Y-139813567D02*
X45236428Y-139851662D01*
X45236428Y-139851662D02*
X45200714Y-139927853D01*
X45200714Y-139927853D02*
X45200714Y-140080234D01*
X45200714Y-140080234D02*
X45236428Y-140156424D01*
X45236428Y-140156424D02*
X45272142Y-140194520D01*
X45272142Y-140194520D02*
X45343571Y-140232615D01*
X45343571Y-140232615D02*
X45486428Y-140232615D01*
X45486428Y-140232615D02*
X45557857Y-140194520D01*
X45557857Y-140194520D02*
X45593571Y-140156424D01*
X45593571Y-140156424D02*
X45629285Y-140080234D01*
X45629285Y-140080234D02*
X45629285Y-139927853D01*
X45629285Y-139927853D02*
X45593571Y-139851662D01*
X45593571Y-139851662D02*
X45557857Y-139813567D01*
X45557857Y-139813567D02*
X45486428Y-139775472D01*
X45272142Y-142808525D02*
X45414999Y-142808525D01*
X45414999Y-142808525D02*
X45486428Y-142770430D01*
X45486428Y-142770430D02*
X45522142Y-142732334D01*
X45522142Y-142732334D02*
X45593571Y-142618049D01*
X45593571Y-142618049D02*
X45629285Y-142465668D01*
X45629285Y-142465668D02*
X45629285Y-142160906D01*
X45629285Y-142160906D02*
X45593571Y-142084715D01*
X45593571Y-142084715D02*
X45557857Y-142046620D01*
X45557857Y-142046620D02*
X45486428Y-142008525D01*
X45486428Y-142008525D02*
X45343571Y-142008525D01*
X45343571Y-142008525D02*
X45272142Y-142046620D01*
X45272142Y-142046620D02*
X45236428Y-142084715D01*
X45236428Y-142084715D02*
X45200714Y-142160906D01*
X45200714Y-142160906D02*
X45200714Y-142351382D01*
X45200714Y-142351382D02*
X45236428Y-142427572D01*
X45236428Y-142427572D02*
X45272142Y-142465668D01*
X45272142Y-142465668D02*
X45343571Y-142503763D01*
X45343571Y-142503763D02*
X45486428Y-142503763D01*
X45486428Y-142503763D02*
X45557857Y-142465668D01*
X45557857Y-142465668D02*
X45593571Y-142427572D01*
X45593571Y-142427572D02*
X45629285Y-142351382D01*
X45272142Y-145384435D02*
X44843571Y-145384435D01*
X45057856Y-145384435D02*
X45057856Y-144584435D01*
X45057856Y-144584435D02*
X44986428Y-144698720D01*
X44986428Y-144698720D02*
X44914999Y-144774911D01*
X44914999Y-144774911D02*
X44843571Y-144813006D01*
X45736428Y-144584435D02*
X45807857Y-144584435D01*
X45807857Y-144584435D02*
X45879285Y-144622530D01*
X45879285Y-144622530D02*
X45915000Y-144660625D01*
X45915000Y-144660625D02*
X45950714Y-144736816D01*
X45950714Y-144736816D02*
X45986428Y-144889197D01*
X45986428Y-144889197D02*
X45986428Y-145079673D01*
X45986428Y-145079673D02*
X45950714Y-145232054D01*
X45950714Y-145232054D02*
X45915000Y-145308244D01*
X45915000Y-145308244D02*
X45879285Y-145346340D01*
X45879285Y-145346340D02*
X45807857Y-145384435D01*
X45807857Y-145384435D02*
X45736428Y-145384435D01*
X45736428Y-145384435D02*
X45665000Y-145346340D01*
X45665000Y-145346340D02*
X45629285Y-145308244D01*
X45629285Y-145308244D02*
X45593571Y-145232054D01*
X45593571Y-145232054D02*
X45557857Y-145079673D01*
X45557857Y-145079673D02*
X45557857Y-144889197D01*
X45557857Y-144889197D02*
X45593571Y-144736816D01*
X45593571Y-144736816D02*
X45629285Y-144660625D01*
X45629285Y-144660625D02*
X45665000Y-144622530D01*
X45665000Y-144622530D02*
X45736428Y-144584435D01*
X45272142Y-147960345D02*
X44843571Y-147960345D01*
X45057856Y-147960345D02*
X45057856Y-147160345D01*
X45057856Y-147160345D02*
X44986428Y-147274630D01*
X44986428Y-147274630D02*
X44914999Y-147350821D01*
X44914999Y-147350821D02*
X44843571Y-147388916D01*
X45986428Y-147960345D02*
X45557857Y-147960345D01*
X45772142Y-147960345D02*
X45772142Y-147160345D01*
X45772142Y-147160345D02*
X45700714Y-147274630D01*
X45700714Y-147274630D02*
X45629285Y-147350821D01*
X45629285Y-147350821D02*
X45557857Y-147388916D01*
X45272142Y-150536255D02*
X44843571Y-150536255D01*
X45057856Y-150536255D02*
X45057856Y-149736255D01*
X45057856Y-149736255D02*
X44986428Y-149850540D01*
X44986428Y-149850540D02*
X44914999Y-149926731D01*
X44914999Y-149926731D02*
X44843571Y-149964826D01*
X45557857Y-149812445D02*
X45593571Y-149774350D01*
X45593571Y-149774350D02*
X45665000Y-149736255D01*
X45665000Y-149736255D02*
X45843571Y-149736255D01*
X45843571Y-149736255D02*
X45915000Y-149774350D01*
X45915000Y-149774350D02*
X45950714Y-149812445D01*
X45950714Y-149812445D02*
X45986428Y-149888636D01*
X45986428Y-149888636D02*
X45986428Y-149964826D01*
X45986428Y-149964826D02*
X45950714Y-150079112D01*
X45950714Y-150079112D02*
X45522142Y-150536255D01*
X45522142Y-150536255D02*
X45986428Y-150536255D01*
X44897144Y-152578831D02*
X44897144Y-153226450D01*
X44897144Y-153226450D02*
X44861429Y-153302641D01*
X44861429Y-153302641D02*
X44825715Y-153340736D01*
X44825715Y-153340736D02*
X44754286Y-153378831D01*
X44754286Y-153378831D02*
X44647144Y-153378831D01*
X44647144Y-153378831D02*
X44575715Y-153340736D01*
X44897144Y-153074070D02*
X44825715Y-153112165D01*
X44825715Y-153112165D02*
X44682858Y-153112165D01*
X44682858Y-153112165D02*
X44611429Y-153074070D01*
X44611429Y-153074070D02*
X44575715Y-153035974D01*
X44575715Y-153035974D02*
X44540001Y-152959784D01*
X44540001Y-152959784D02*
X44540001Y-152731212D01*
X44540001Y-152731212D02*
X44575715Y-152655022D01*
X44575715Y-152655022D02*
X44611429Y-152616927D01*
X44611429Y-152616927D02*
X44682858Y-152578831D01*
X44682858Y-152578831D02*
X44825715Y-152578831D01*
X44825715Y-152578831D02*
X44897144Y-152616927D01*
X45254286Y-152578831D02*
X45254286Y-153112165D01*
X45254286Y-152655022D02*
X45290000Y-152616927D01*
X45290000Y-152616927D02*
X45361429Y-152578831D01*
X45361429Y-152578831D02*
X45468572Y-152578831D01*
X45468572Y-152578831D02*
X45540000Y-152616927D01*
X45540000Y-152616927D02*
X45575715Y-152693117D01*
X45575715Y-152693117D02*
X45575715Y-153112165D01*
X46254286Y-153112165D02*
X46254286Y-152312165D01*
X46254286Y-153074070D02*
X46182857Y-153112165D01*
X46182857Y-153112165D02*
X46040000Y-153112165D01*
X46040000Y-153112165D02*
X45968571Y-153074070D01*
X45968571Y-153074070D02*
X45932857Y-153035974D01*
X45932857Y-153035974D02*
X45897143Y-152959784D01*
X45897143Y-152959784D02*
X45897143Y-152731212D01*
X45897143Y-152731212D02*
X45932857Y-152655022D01*
X45932857Y-152655022D02*
X45968571Y-152616927D01*
X45968571Y-152616927D02*
X46040000Y-152578831D01*
X46040000Y-152578831D02*
X46182857Y-152578831D01*
X46182857Y-152578831D02*
X46254286Y-152616927D01*
X44593571Y-155154741D02*
X44772143Y-155688075D01*
X44772143Y-155688075D02*
X44950714Y-155154741D01*
X45557858Y-155649980D02*
X45486429Y-155688075D01*
X45486429Y-155688075D02*
X45343572Y-155688075D01*
X45343572Y-155688075D02*
X45272143Y-155649980D01*
X45272143Y-155649980D02*
X45236429Y-155611884D01*
X45236429Y-155611884D02*
X45200715Y-155535694D01*
X45200715Y-155535694D02*
X45200715Y-155307122D01*
X45200715Y-155307122D02*
X45236429Y-155230932D01*
X45236429Y-155230932D02*
X45272143Y-155192837D01*
X45272143Y-155192837D02*
X45343572Y-155154741D01*
X45343572Y-155154741D02*
X45486429Y-155154741D01*
X45486429Y-155154741D02*
X45557858Y-155192837D01*
X46200715Y-155649980D02*
X46129286Y-155688075D01*
X46129286Y-155688075D02*
X45986429Y-155688075D01*
X45986429Y-155688075D02*
X45915000Y-155649980D01*
X45915000Y-155649980D02*
X45879286Y-155611884D01*
X45879286Y-155611884D02*
X45843572Y-155535694D01*
X45843572Y-155535694D02*
X45843572Y-155307122D01*
X45843572Y-155307122D02*
X45879286Y-155230932D01*
X45879286Y-155230932D02*
X45915000Y-155192837D01*
X45915000Y-155192837D02*
X45986429Y-155154741D01*
X45986429Y-155154741D02*
X46129286Y-155154741D01*
X46129286Y-155154741D02*
X46200715Y-155192837D01*
X66499999Y-139582615D02*
X66999999Y-139582615D01*
X66999999Y-139582615D02*
X66678571Y-140382615D01*
X66892857Y-142158525D02*
X66749999Y-142158525D01*
X66749999Y-142158525D02*
X66678571Y-142196620D01*
X66678571Y-142196620D02*
X66642857Y-142234715D01*
X66642857Y-142234715D02*
X66571428Y-142349001D01*
X66571428Y-142349001D02*
X66535714Y-142501382D01*
X66535714Y-142501382D02*
X66535714Y-142806144D01*
X66535714Y-142806144D02*
X66571428Y-142882334D01*
X66571428Y-142882334D02*
X66607142Y-142920430D01*
X66607142Y-142920430D02*
X66678571Y-142958525D01*
X66678571Y-142958525D02*
X66821428Y-142958525D01*
X66821428Y-142958525D02*
X66892857Y-142920430D01*
X66892857Y-142920430D02*
X66928571Y-142882334D01*
X66928571Y-142882334D02*
X66964285Y-142806144D01*
X66964285Y-142806144D02*
X66964285Y-142615668D01*
X66964285Y-142615668D02*
X66928571Y-142539477D01*
X66928571Y-142539477D02*
X66892857Y-142501382D01*
X66892857Y-142501382D02*
X66821428Y-142463287D01*
X66821428Y-142463287D02*
X66678571Y-142463287D01*
X66678571Y-142463287D02*
X66607142Y-142501382D01*
X66607142Y-142501382D02*
X66571428Y-142539477D01*
X66571428Y-142539477D02*
X66535714Y-142615668D01*
X66928571Y-144734435D02*
X66571428Y-144734435D01*
X66571428Y-144734435D02*
X66535714Y-145115387D01*
X66535714Y-145115387D02*
X66571428Y-145077292D01*
X66571428Y-145077292D02*
X66642857Y-145039197D01*
X66642857Y-145039197D02*
X66821428Y-145039197D01*
X66821428Y-145039197D02*
X66892857Y-145077292D01*
X66892857Y-145077292D02*
X66928571Y-145115387D01*
X66928571Y-145115387D02*
X66964285Y-145191578D01*
X66964285Y-145191578D02*
X66964285Y-145382054D01*
X66964285Y-145382054D02*
X66928571Y-145458244D01*
X66928571Y-145458244D02*
X66892857Y-145496340D01*
X66892857Y-145496340D02*
X66821428Y-145534435D01*
X66821428Y-145534435D02*
X66642857Y-145534435D01*
X66642857Y-145534435D02*
X66571428Y-145496340D01*
X66571428Y-145496340D02*
X66535714Y-145458244D01*
X66892857Y-147577011D02*
X66892857Y-148110345D01*
X66714285Y-147272250D02*
X66535714Y-147843678D01*
X66535714Y-147843678D02*
X66999999Y-147843678D01*
X66499999Y-149886255D02*
X66964285Y-149886255D01*
X66964285Y-149886255D02*
X66714285Y-150191017D01*
X66714285Y-150191017D02*
X66821428Y-150191017D01*
X66821428Y-150191017D02*
X66892857Y-150229112D01*
X66892857Y-150229112D02*
X66928571Y-150267207D01*
X66928571Y-150267207D02*
X66964285Y-150343398D01*
X66964285Y-150343398D02*
X66964285Y-150533874D01*
X66964285Y-150533874D02*
X66928571Y-150610064D01*
X66928571Y-150610064D02*
X66892857Y-150648160D01*
X66892857Y-150648160D02*
X66821428Y-150686255D01*
X66821428Y-150686255D02*
X66607142Y-150686255D01*
X66607142Y-150686255D02*
X66535714Y-150648160D01*
X66535714Y-150648160D02*
X66499999Y-150610064D01*
X66535714Y-152538355D02*
X66571428Y-152500260D01*
X66571428Y-152500260D02*
X66642857Y-152462165D01*
X66642857Y-152462165D02*
X66821428Y-152462165D01*
X66821428Y-152462165D02*
X66892857Y-152500260D01*
X66892857Y-152500260D02*
X66928571Y-152538355D01*
X66928571Y-152538355D02*
X66964285Y-152614546D01*
X66964285Y-152614546D02*
X66964285Y-152690736D01*
X66964285Y-152690736D02*
X66928571Y-152805022D01*
X66928571Y-152805022D02*
X66499999Y-153262165D01*
X66499999Y-153262165D02*
X66964285Y-153262165D01*
X66964285Y-155838075D02*
X66535714Y-155838075D01*
X66749999Y-155838075D02*
X66749999Y-155038075D01*
X66749999Y-155038075D02*
X66678571Y-155152360D01*
X66678571Y-155152360D02*
X66607142Y-155228551D01*
X66607142Y-155228551D02*
X66535714Y-155266646D01*
D11*
X48865953Y-138254819D02*
X49532619Y-139254819D01*
X49532619Y-138254819D02*
X48865953Y-139254819D01*
X49913572Y-139254819D02*
X49913572Y-138254819D01*
X50342143Y-138969104D02*
X50818333Y-138969104D01*
X50246905Y-139254819D02*
X50580238Y-138254819D01*
X50580238Y-138254819D02*
X50913571Y-139254819D01*
X51437381Y-138254819D02*
X51627857Y-138254819D01*
X51627857Y-138254819D02*
X51723095Y-138302438D01*
X51723095Y-138302438D02*
X51818333Y-138397676D01*
X51818333Y-138397676D02*
X51865952Y-138588152D01*
X51865952Y-138588152D02*
X51865952Y-138921485D01*
X51865952Y-138921485D02*
X51818333Y-139111961D01*
X51818333Y-139111961D02*
X51723095Y-139207200D01*
X51723095Y-139207200D02*
X51627857Y-139254819D01*
X51627857Y-139254819D02*
X51437381Y-139254819D01*
X51437381Y-139254819D02*
X51342143Y-139207200D01*
X51342143Y-139207200D02*
X51246905Y-139111961D01*
X51246905Y-139111961D02*
X51199286Y-138921485D01*
X51199286Y-138921485D02*
X51199286Y-138588152D01*
X51199286Y-138588152D02*
X51246905Y-138397676D01*
X51246905Y-138397676D02*
X51342143Y-138302438D01*
X51342143Y-138302438D02*
X51437381Y-138254819D01*
X52294524Y-138873866D02*
X53056429Y-138873866D01*
X53532619Y-138731009D02*
X53865952Y-138731009D01*
X54008809Y-139254819D02*
X53532619Y-139254819D01*
X53532619Y-139254819D02*
X53532619Y-138254819D01*
X53532619Y-138254819D02*
X54008809Y-138254819D01*
X54389762Y-139207200D02*
X54532619Y-139254819D01*
X54532619Y-139254819D02*
X54770714Y-139254819D01*
X54770714Y-139254819D02*
X54865952Y-139207200D01*
X54865952Y-139207200D02*
X54913571Y-139159580D01*
X54913571Y-139159580D02*
X54961190Y-139064342D01*
X54961190Y-139064342D02*
X54961190Y-138969104D01*
X54961190Y-138969104D02*
X54913571Y-138873866D01*
X54913571Y-138873866D02*
X54865952Y-138826247D01*
X54865952Y-138826247D02*
X54770714Y-138778628D01*
X54770714Y-138778628D02*
X54580238Y-138731009D01*
X54580238Y-138731009D02*
X54485000Y-138683390D01*
X54485000Y-138683390D02*
X54437381Y-138635771D01*
X54437381Y-138635771D02*
X54389762Y-138540533D01*
X54389762Y-138540533D02*
X54389762Y-138445295D01*
X54389762Y-138445295D02*
X54437381Y-138350057D01*
X54437381Y-138350057D02*
X54485000Y-138302438D01*
X54485000Y-138302438D02*
X54580238Y-138254819D01*
X54580238Y-138254819D02*
X54818333Y-138254819D01*
X54818333Y-138254819D02*
X54961190Y-138302438D01*
X55389762Y-139254819D02*
X55389762Y-138254819D01*
X55389762Y-138254819D02*
X55770714Y-138254819D01*
X55770714Y-138254819D02*
X55865952Y-138302438D01*
X55865952Y-138302438D02*
X55913571Y-138350057D01*
X55913571Y-138350057D02*
X55961190Y-138445295D01*
X55961190Y-138445295D02*
X55961190Y-138588152D01*
X55961190Y-138588152D02*
X55913571Y-138683390D01*
X55913571Y-138683390D02*
X55865952Y-138731009D01*
X55865952Y-138731009D02*
X55770714Y-138778628D01*
X55770714Y-138778628D02*
X55389762Y-138778628D01*
X56294524Y-138254819D02*
X56913571Y-138254819D01*
X56913571Y-138254819D02*
X56580238Y-138635771D01*
X56580238Y-138635771D02*
X56723095Y-138635771D01*
X56723095Y-138635771D02*
X56818333Y-138683390D01*
X56818333Y-138683390D02*
X56865952Y-138731009D01*
X56865952Y-138731009D02*
X56913571Y-138826247D01*
X56913571Y-138826247D02*
X56913571Y-139064342D01*
X56913571Y-139064342D02*
X56865952Y-139159580D01*
X56865952Y-139159580D02*
X56818333Y-139207200D01*
X56818333Y-139207200D02*
X56723095Y-139254819D01*
X56723095Y-139254819D02*
X56437381Y-139254819D01*
X56437381Y-139254819D02*
X56342143Y-139207200D01*
X56342143Y-139207200D02*
X56294524Y-139159580D01*
X57294524Y-138350057D02*
X57342143Y-138302438D01*
X57342143Y-138302438D02*
X57437381Y-138254819D01*
X57437381Y-138254819D02*
X57675476Y-138254819D01*
X57675476Y-138254819D02*
X57770714Y-138302438D01*
X57770714Y-138302438D02*
X57818333Y-138350057D01*
X57818333Y-138350057D02*
X57865952Y-138445295D01*
X57865952Y-138445295D02*
X57865952Y-138540533D01*
X57865952Y-138540533D02*
X57818333Y-138683390D01*
X57818333Y-138683390D02*
X57246905Y-139254819D01*
X57246905Y-139254819D02*
X57865952Y-139254819D01*
X58294524Y-138873866D02*
X59056429Y-138873866D01*
X60104047Y-139159580D02*
X60056428Y-139207200D01*
X60056428Y-139207200D02*
X59913571Y-139254819D01*
X59913571Y-139254819D02*
X59818333Y-139254819D01*
X59818333Y-139254819D02*
X59675476Y-139207200D01*
X59675476Y-139207200D02*
X59580238Y-139111961D01*
X59580238Y-139111961D02*
X59532619Y-139016723D01*
X59532619Y-139016723D02*
X59485000Y-138826247D01*
X59485000Y-138826247D02*
X59485000Y-138683390D01*
X59485000Y-138683390D02*
X59532619Y-138492914D01*
X59532619Y-138492914D02*
X59580238Y-138397676D01*
X59580238Y-138397676D02*
X59675476Y-138302438D01*
X59675476Y-138302438D02*
X59818333Y-138254819D01*
X59818333Y-138254819D02*
X59913571Y-138254819D01*
X59913571Y-138254819D02*
X60056428Y-138302438D01*
X60056428Y-138302438D02*
X60104047Y-138350057D01*
X60961190Y-138254819D02*
X60770714Y-138254819D01*
X60770714Y-138254819D02*
X60675476Y-138302438D01*
X60675476Y-138302438D02*
X60627857Y-138350057D01*
X60627857Y-138350057D02*
X60532619Y-138492914D01*
X60532619Y-138492914D02*
X60485000Y-138683390D01*
X60485000Y-138683390D02*
X60485000Y-139064342D01*
X60485000Y-139064342D02*
X60532619Y-139159580D01*
X60532619Y-139159580D02*
X60580238Y-139207200D01*
X60580238Y-139207200D02*
X60675476Y-139254819D01*
X60675476Y-139254819D02*
X60865952Y-139254819D01*
X60865952Y-139254819D02*
X60961190Y-139207200D01*
X60961190Y-139207200D02*
X61008809Y-139159580D01*
X61008809Y-139159580D02*
X61056428Y-139064342D01*
X61056428Y-139064342D02*
X61056428Y-138826247D01*
X61056428Y-138826247D02*
X61008809Y-138731009D01*
X61008809Y-138731009D02*
X60961190Y-138683390D01*
X60961190Y-138683390D02*
X60865952Y-138635771D01*
X60865952Y-138635771D02*
X60675476Y-138635771D01*
X60675476Y-138635771D02*
X60580238Y-138683390D01*
X60580238Y-138683390D02*
X60532619Y-138731009D01*
X60532619Y-138731009D02*
X60485000Y-138826247D01*
D13*
G36*
X37500000Y-121492546D02*
G01*
X37500000Y-121863398D01*
X36928746Y-121863398D01*
X36789711Y-121870634D01*
X36725406Y-121881380D01*
X36687678Y-121895180D01*
X36654891Y-121920434D01*
X36632357Y-121955172D01*
X36619831Y-121998799D01*
X36614863Y-122065265D01*
X36618886Y-122115439D01*
X36631258Y-122167297D01*
X36651644Y-122219310D01*
X36683557Y-122279496D01*
X37500000Y-122279496D01*
X37500000Y-122648333D01*
X35905582Y-122648333D01*
X35905582Y-122279496D01*
X36474912Y-122279496D01*
X36405210Y-122180249D01*
X36356943Y-122090452D01*
X36326437Y-121996096D01*
X36315910Y-121889135D01*
X36323427Y-121796700D01*
X36344631Y-121718969D01*
X36378373Y-121653266D01*
X36424720Y-121597601D01*
X36481696Y-121554072D01*
X36552720Y-121521366D01*
X36640852Y-121500211D01*
X36749960Y-121492546D01*
X37500000Y-121492546D01*
G37*
G36*
X37040038Y-119984612D02*
G01*
X37139694Y-120005580D01*
X37227169Y-120039062D01*
X37304215Y-120084673D01*
X37372138Y-120142768D01*
X37428728Y-120211214D01*
X37473577Y-120290122D01*
X37506800Y-120381047D01*
X37527774Y-120486010D01*
X37535170Y-120607410D01*
X37527775Y-120728806D01*
X37506803Y-120833778D01*
X37473581Y-120924724D01*
X37428731Y-121003661D01*
X37372138Y-121072143D01*
X37304220Y-121130202D01*
X37227177Y-121175788D01*
X37139701Y-121209252D01*
X37040043Y-121230210D01*
X36926090Y-121237556D01*
X36811179Y-121230141D01*
X36710936Y-121209007D01*
X36623184Y-121175301D01*
X36546118Y-121129429D01*
X36478393Y-121071044D01*
X36421903Y-121002162D01*
X36377184Y-120923076D01*
X36344104Y-120832283D01*
X36323253Y-120727833D01*
X36315910Y-120607410D01*
X36573831Y-120607410D01*
X36577579Y-120658941D01*
X36588119Y-120702298D01*
X36608505Y-120741531D01*
X36645088Y-120781616D01*
X36689866Y-120810885D01*
X36753990Y-120835471D01*
X36827833Y-120849938D01*
X36928105Y-120855438D01*
X37018465Y-120850764D01*
X37090496Y-120838036D01*
X37154394Y-120815592D01*
X37200863Y-120786745D01*
X37235430Y-120750537D01*
X37258932Y-120708434D01*
X37272470Y-120660743D01*
X37277250Y-120604387D01*
X37273027Y-120555153D01*
X37260489Y-120508583D01*
X37238089Y-120466639D01*
X37203977Y-120431188D01*
X37156569Y-120400258D01*
X37098647Y-120377424D01*
X37031052Y-120364605D01*
X36928105Y-120359473D01*
X36831466Y-120364545D01*
X36759119Y-120377974D01*
X36695653Y-120400988D01*
X36650218Y-120429173D01*
X36614294Y-120465669D01*
X36591141Y-120508125D01*
X36578241Y-120555509D01*
X36573831Y-120607410D01*
X36315910Y-120607410D01*
X36323359Y-120485077D01*
X36344452Y-120379621D01*
X36377816Y-120288561D01*
X36422795Y-120209809D01*
X36479492Y-120141761D01*
X36547539Y-120084047D01*
X36624706Y-120038713D01*
X36712299Y-120005422D01*
X36812061Y-119984571D01*
X36926090Y-119977263D01*
X37040038Y-119984612D01*
G37*
G36*
X36683557Y-118587918D02*
G01*
X37500000Y-118587918D01*
X37500000Y-118958862D01*
X36924624Y-118958862D01*
X36781559Y-118962983D01*
X36725836Y-118971218D01*
X36685663Y-118985515D01*
X36653733Y-119008699D01*
X36631808Y-119041385D01*
X36619682Y-119082873D01*
X36614863Y-119146440D01*
X36620347Y-119199808D01*
X36636937Y-119251953D01*
X36683557Y-119344186D01*
X37500000Y-119344186D01*
X37500000Y-119713023D01*
X36351081Y-119713023D01*
X36351081Y-119344186D01*
X36474912Y-119344186D01*
X36406481Y-119248192D01*
X36357950Y-119161736D01*
X36326646Y-119071060D01*
X36315910Y-118969120D01*
X36321815Y-118894672D01*
X36338897Y-118828179D01*
X36366743Y-118768261D01*
X36405367Y-118714983D01*
X36454670Y-118669711D01*
X36516037Y-118631973D01*
X36430637Y-118519914D01*
X36369308Y-118416826D01*
X36338985Y-118345687D01*
X36321565Y-118277667D01*
X36315910Y-118211845D01*
X36323727Y-118119511D01*
X36345611Y-118043456D01*
X36380242Y-117980555D01*
X36427743Y-117928554D01*
X36485702Y-117888424D01*
X36556807Y-117858238D01*
X36643778Y-117838766D01*
X36749960Y-117831742D01*
X37500000Y-117831742D01*
X37500000Y-118202686D01*
X36924624Y-118202686D01*
X36781010Y-118206258D01*
X36725785Y-118214075D01*
X36685663Y-118228332D01*
X36653804Y-118250801D01*
X36631808Y-118283653D01*
X36619683Y-118325724D01*
X36614863Y-118390173D01*
X36618832Y-118435648D01*
X36630800Y-118480299D01*
X36683557Y-118587918D01*
G37*
G36*
X36995882Y-117202420D02*
G01*
X37082167Y-117186586D01*
X37150527Y-117152295D01*
X37204893Y-117099472D01*
X37242716Y-117032288D01*
X37267856Y-116941502D01*
X37277250Y-116820210D01*
X37266555Y-116705327D01*
X37234385Y-116593797D01*
X37187630Y-116491321D01*
X37142428Y-116420599D01*
X37142428Y-116379657D01*
X37439549Y-116379657D01*
X37483827Y-116503807D01*
X37512547Y-116615321D01*
X37529258Y-116729126D01*
X37535170Y-116860236D01*
X37527819Y-117002968D01*
X37507164Y-117124661D01*
X37474891Y-117228259D01*
X37432087Y-117316333D01*
X37379191Y-117391006D01*
X37313079Y-117456100D01*
X37237258Y-117506841D01*
X37150347Y-117543959D01*
X37050354Y-117567208D01*
X36934791Y-117575379D01*
X36820426Y-117567709D01*
X36719928Y-117545764D01*
X36631205Y-117510579D01*
X36552544Y-117462409D01*
X36482698Y-117400715D01*
X36424570Y-117328493D01*
X36378628Y-117246154D01*
X36344719Y-117152231D01*
X36323399Y-117044827D01*
X36317715Y-116951369D01*
X36544521Y-116951369D01*
X36551175Y-117020486D01*
X36569995Y-117078146D01*
X36600300Y-117126674D01*
X36642256Y-117163993D01*
X36700178Y-117190019D01*
X36778995Y-117203427D01*
X36778995Y-116724956D01*
X36703042Y-116733705D01*
X36645945Y-116753398D01*
X36603415Y-116782383D01*
X36572215Y-116822443D01*
X36552020Y-116877175D01*
X36544521Y-116951369D01*
X36317715Y-116951369D01*
X36315910Y-116921693D01*
X36326199Y-116780682D01*
X36354661Y-116666455D01*
X36398842Y-116574037D01*
X36457968Y-116499550D01*
X36532821Y-116440135D01*
X36623546Y-116396190D01*
X36733410Y-116368173D01*
X36866647Y-116358134D01*
X36995882Y-116358134D01*
X36995882Y-117202420D01*
G37*
G36*
X36269016Y-114883517D02*
G01*
X36269016Y-115359974D01*
X37500000Y-115359974D01*
X37500000Y-115753449D01*
X36269016Y-115753449D01*
X36269016Y-116229906D01*
X35975924Y-116229906D01*
X35975924Y-114883517D01*
X36269016Y-114883517D01*
G37*
G36*
X37500000Y-113511666D02*
G01*
X37500000Y-113882519D01*
X36928746Y-113882519D01*
X36789711Y-113889754D01*
X36725406Y-113900500D01*
X36687678Y-113914301D01*
X36654891Y-113939554D01*
X36632357Y-113974293D01*
X36619831Y-114017920D01*
X36614863Y-114084385D01*
X36618886Y-114134560D01*
X36631258Y-114186418D01*
X36651644Y-114238431D01*
X36683557Y-114298617D01*
X37500000Y-114298617D01*
X37500000Y-114667454D01*
X35905582Y-114667454D01*
X35905582Y-114298617D01*
X36474912Y-114298617D01*
X36405210Y-114199369D01*
X36356943Y-114109573D01*
X36326437Y-114015216D01*
X36315910Y-113908256D01*
X36323427Y-113815820D01*
X36344631Y-113738089D01*
X36378373Y-113672387D01*
X36424720Y-113616721D01*
X36481696Y-113573192D01*
X36552720Y-113540486D01*
X36640852Y-113519332D01*
X36749960Y-113511666D01*
X37500000Y-113511666D01*
G37*
G36*
X37500000Y-112803851D02*
G01*
X37500000Y-113172688D01*
X36351081Y-113172688D01*
X36351081Y-112803851D01*
X37500000Y-112803851D01*
G37*
G36*
X36186950Y-112793592D02*
G01*
X36186950Y-113182946D01*
X35905582Y-113182946D01*
X35905582Y-112793592D01*
X36186950Y-112793592D01*
G37*
G36*
X37500000Y-111300292D02*
G01*
X37500000Y-111671144D01*
X36928746Y-111671144D01*
X36789711Y-111678380D01*
X36725406Y-111689126D01*
X36687678Y-111702926D01*
X36654891Y-111728180D01*
X36632357Y-111762918D01*
X36619831Y-111806545D01*
X36614863Y-111873011D01*
X36618886Y-111923185D01*
X36631258Y-111975043D01*
X36651644Y-112027056D01*
X36683557Y-112087242D01*
X37500000Y-112087242D01*
X37500000Y-112456079D01*
X36351081Y-112456079D01*
X36351081Y-112087242D01*
X36474912Y-112087242D01*
X36405210Y-111987994D01*
X36356943Y-111898198D01*
X36326437Y-111803842D01*
X36315910Y-111696881D01*
X36323427Y-111604446D01*
X36344631Y-111526715D01*
X36378373Y-111461012D01*
X36424720Y-111405347D01*
X36481696Y-111361817D01*
X36552720Y-111329112D01*
X36640852Y-111307957D01*
X36749960Y-111300292D01*
X37500000Y-111300292D01*
G37*
G36*
X37475947Y-109848038D02*
G01*
X37565838Y-109863907D01*
X37640958Y-109888507D01*
X37710969Y-109924348D01*
X37768089Y-109967334D01*
X37813974Y-110017559D01*
X37851590Y-110075303D01*
X37882208Y-110141703D01*
X37905565Y-110217960D01*
X37926349Y-110339394D01*
X37933775Y-110482841D01*
X37930137Y-110602160D01*
X37919303Y-110719055D01*
X37902613Y-110831262D01*
X37884132Y-110920372D01*
X37593789Y-110920372D01*
X37593789Y-110875309D01*
X37618113Y-110803622D01*
X37642149Y-110710354D01*
X37659008Y-110615120D01*
X37664131Y-110536147D01*
X37658863Y-110438575D01*
X37645263Y-110369635D01*
X37621330Y-110311063D01*
X37591774Y-110271724D01*
X37555354Y-110244752D01*
X37508151Y-110225654D01*
X37454532Y-110215156D01*
X37385969Y-110211274D01*
X37364536Y-110211274D01*
X37413154Y-110281348D01*
X37450632Y-110358827D01*
X37474204Y-110442910D01*
X37482414Y-110539170D01*
X37472338Y-110658757D01*
X37443984Y-110758458D01*
X37398904Y-110842010D01*
X37336876Y-110912129D01*
X37261320Y-110965847D01*
X37165538Y-111006766D01*
X37044975Y-111033522D01*
X36894033Y-111043287D01*
X36799545Y-111038448D01*
X36718133Y-111024793D01*
X36648019Y-111003353D01*
X36550647Y-110954831D01*
X36467585Y-110890605D01*
X36404357Y-110815987D01*
X36355935Y-110724092D01*
X36325843Y-110623654D01*
X36315910Y-110521676D01*
X36321654Y-110430959D01*
X36333828Y-110372199D01*
X36585554Y-110372199D01*
X36595913Y-110465492D01*
X36624330Y-110536462D01*
X36669360Y-110590461D01*
X36729200Y-110629308D01*
X36805580Y-110654149D01*
X36903101Y-110663184D01*
X37012931Y-110654614D01*
X37087024Y-110632684D01*
X37135284Y-110601177D01*
X37170453Y-110555694D01*
X37192852Y-110495865D01*
X37201046Y-110417262D01*
X37196710Y-110362533D01*
X37183644Y-110308635D01*
X37163133Y-110257269D01*
X37137299Y-110211274D01*
X36614314Y-110211274D01*
X36593248Y-110289218D01*
X36585554Y-110372199D01*
X36333828Y-110372199D01*
X36337984Y-110352141D01*
X36364508Y-110278590D01*
X36398983Y-110213289D01*
X36351081Y-110200008D01*
X36351081Y-109842345D01*
X37368658Y-109842345D01*
X37475947Y-109848038D01*
G37*
G36*
X36966573Y-108772561D02*
G01*
X36966573Y-109554383D01*
X36673482Y-109554383D01*
X36673482Y-108772561D01*
X36966573Y-108772561D01*
G37*
G36*
X37535170Y-107886693D02*
G01*
X37525827Y-108033415D01*
X37499175Y-108161832D01*
X37470267Y-108242396D01*
X37433161Y-108314320D01*
X37387892Y-108378537D01*
X37333822Y-108434436D01*
X37270981Y-108481470D01*
X37198390Y-108519953D01*
X37120642Y-108547094D01*
X37031997Y-108564155D01*
X36930669Y-108570145D01*
X36823925Y-108563685D01*
X36731637Y-108545375D01*
X36651683Y-108516381D01*
X36577214Y-108475343D01*
X36512624Y-108425428D01*
X36456960Y-108366263D01*
X36412953Y-108301557D01*
X36377269Y-108230108D01*
X36349890Y-108151116D01*
X36324477Y-108027360D01*
X36315910Y-107897958D01*
X36322499Y-107782892D01*
X36341372Y-107680796D01*
X36370960Y-107583897D01*
X36407593Y-107495324D01*
X36720376Y-107495324D01*
X36720376Y-107547622D01*
X36679985Y-107599371D01*
X36634647Y-107673652D01*
X36599568Y-107765884D01*
X36589285Y-107818312D01*
X36585554Y-107882662D01*
X36591942Y-107955370D01*
X36609945Y-108015998D01*
X36638674Y-108066870D01*
X36678428Y-108109625D01*
X36744593Y-108152281D01*
X36827171Y-108179297D01*
X36930578Y-108189035D01*
X37037232Y-108178795D01*
X37118508Y-108150916D01*
X37180255Y-108107610D01*
X37226282Y-108048140D01*
X37255127Y-107972691D01*
X37265526Y-107876526D01*
X37261541Y-107808806D01*
X37250322Y-107751046D01*
X37232925Y-107697995D01*
X37214327Y-107658264D01*
X37173019Y-107596807D01*
X37130704Y-107547622D01*
X37130704Y-107495324D01*
X37445869Y-107495324D01*
X37482605Y-107584180D01*
X37510990Y-107677224D01*
X37528876Y-107774810D01*
X37535170Y-107886693D01*
G37*
G36*
X37095004Y-106050467D02*
G01*
X37200955Y-106082623D01*
X37266686Y-106115618D01*
X37324175Y-106155855D01*
X37374245Y-106203523D01*
X37440561Y-106292641D01*
X37489558Y-106395682D01*
X37510954Y-106469448D01*
X37524522Y-106554121D01*
X37529309Y-106651312D01*
X37519660Y-106784801D01*
X37492031Y-106901905D01*
X37462326Y-106974657D01*
X37424354Y-107039078D01*
X37378000Y-107096078D01*
X37315182Y-107152233D01*
X37240106Y-107199736D01*
X37151038Y-107238503D01*
X37057083Y-107264820D01*
X36947141Y-107281686D01*
X36818745Y-107287687D01*
X36685552Y-107282180D01*
X36567503Y-107266478D01*
X36462914Y-107241617D01*
X36362796Y-107204141D01*
X36271443Y-107154041D01*
X36187866Y-107090949D01*
X36118421Y-107018841D01*
X36059144Y-106932554D01*
X36009996Y-106830190D01*
X35975960Y-106721461D01*
X35954293Y-106595147D01*
X35946615Y-106448438D01*
X35956965Y-106284582D01*
X35972444Y-106168719D01*
X36274877Y-106168719D01*
X36274877Y-106207645D01*
X36244836Y-106301434D01*
X36232429Y-106369942D01*
X36227983Y-106451552D01*
X36234805Y-106550306D01*
X36253876Y-106632494D01*
X36283742Y-106700944D01*
X36323879Y-106757924D01*
X36375093Y-106806216D01*
X36435624Y-106844320D01*
X36506920Y-106872463D01*
X36590958Y-106890090D01*
X36548557Y-106809095D01*
X36515029Y-106723578D01*
X36511213Y-106707732D01*
X36749685Y-106707732D01*
X36759852Y-106801979D01*
X36785131Y-106892197D01*
X36818470Y-106893204D01*
X36877089Y-106894212D01*
X36995819Y-106887272D01*
X37081978Y-106869116D01*
X37155627Y-106838270D01*
X37204801Y-106801979D01*
X37232090Y-106770655D01*
X37250872Y-106734385D01*
X37261789Y-106694323D01*
X37265526Y-106650305D01*
X37261993Y-106615952D01*
X37250414Y-106575566D01*
X37231280Y-106537429D01*
X37204801Y-106505866D01*
X37167689Y-106477535D01*
X37123469Y-106455124D01*
X37071856Y-106441511D01*
X36995424Y-106436165D01*
X36925505Y-106442060D01*
X36874616Y-106457689D01*
X36831814Y-106483642D01*
X36799236Y-106517131D01*
X36775589Y-106556838D01*
X36760310Y-106604234D01*
X36749685Y-106707732D01*
X36511213Y-106707732D01*
X36493352Y-106633567D01*
X36485903Y-106534534D01*
X36491165Y-106447300D01*
X36506328Y-106369029D01*
X36532777Y-106295389D01*
X36571541Y-106227062D01*
X36614982Y-106174704D01*
X36667692Y-106129403D01*
X36730726Y-106090866D01*
X36799233Y-106063463D01*
X36881603Y-106045880D01*
X36980587Y-106039575D01*
X37095004Y-106050467D01*
G37*
G36*
X36351081Y-103883430D02*
G01*
X37500000Y-104327097D01*
X37500000Y-104745119D01*
X36351081Y-105185764D01*
X36351081Y-104795402D01*
X37140871Y-104528964D01*
X36351081Y-104265640D01*
X36351081Y-103883430D01*
G37*
G36*
X37500000Y-102561130D02*
G01*
X37500000Y-103579623D01*
X37236217Y-103579623D01*
X37236217Y-103257863D01*
X36427285Y-103257863D01*
X36427285Y-103579623D01*
X36181088Y-103579623D01*
X36172479Y-103438206D01*
X36160116Y-103373916D01*
X36142711Y-103325457D01*
X36112836Y-103277895D01*
X36077041Y-103245590D01*
X36032968Y-103225016D01*
X35975924Y-103214815D01*
X35975924Y-102875654D01*
X37236217Y-102875654D01*
X37236217Y-102561130D01*
X37500000Y-102561130D01*
G37*
G36*
X37500000Y-101789658D02*
G01*
X37500000Y-102172875D01*
X37095533Y-102172875D01*
X37095533Y-101789658D01*
X37500000Y-101789658D01*
G37*
G36*
X36783025Y-100364868D02*
G01*
X36829716Y-100319694D01*
X36883317Y-100285000D01*
X36946268Y-100263453D01*
X37035908Y-100255233D01*
X37140356Y-100266005D01*
X37236492Y-100297823D01*
X37295066Y-100330831D01*
X37348147Y-100374048D01*
X37396227Y-100428432D01*
X37452440Y-100520587D01*
X37495054Y-100630848D01*
X37520018Y-100753687D01*
X37529309Y-100913132D01*
X37521217Y-101095929D01*
X37499450Y-101238463D01*
X37466012Y-101367326D01*
X37432497Y-101459289D01*
X37095533Y-101459289D01*
X37095533Y-101419356D01*
X37145278Y-101325621D01*
X37190330Y-101208788D01*
X37220956Y-101088130D01*
X37230355Y-100984848D01*
X37220555Y-100855796D01*
X37204321Y-100790113D01*
X37177416Y-100737918D01*
X37148533Y-100703617D01*
X37114676Y-100677468D01*
X37072930Y-100661301D01*
X37008247Y-100654937D01*
X36946099Y-100663333D01*
X36903925Y-100685711D01*
X36872646Y-100720815D01*
X36851443Y-100766586D01*
X36838972Y-100819604D01*
X36833308Y-100887486D01*
X36831751Y-101018645D01*
X36831751Y-101102634D01*
X36567969Y-101102634D01*
X36567969Y-101015531D01*
X36562931Y-100874206D01*
X36554076Y-100815393D01*
X36539484Y-100769609D01*
X36516258Y-100729212D01*
X36488193Y-100702014D01*
X36451470Y-100685824D01*
X36394037Y-100679483D01*
X36351723Y-100685734D01*
X36320398Y-100703113D01*
X36295499Y-100729458D01*
X36276068Y-100762464D01*
X36261158Y-100804757D01*
X36251705Y-100856803D01*
X36245568Y-100950043D01*
X36253460Y-101047755D01*
X36278816Y-101159054D01*
X36319125Y-101269439D01*
X36374528Y-101377315D01*
X36374528Y-101415234D01*
X36043060Y-101415234D01*
X36011870Y-101323199D01*
X35977939Y-101186806D01*
X35954455Y-101041347D01*
X35946615Y-100893714D01*
X35953278Y-100753828D01*
X35971528Y-100640557D01*
X36001998Y-100537827D01*
X36038206Y-100461221D01*
X36094703Y-100386647D01*
X36159289Y-100336291D01*
X36234988Y-100305910D01*
X36326077Y-100295258D01*
X36407421Y-100304088D01*
X36481908Y-100330172D01*
X36551391Y-100374210D01*
X36609429Y-100432205D01*
X36651391Y-100500828D01*
X36678061Y-100582122D01*
X36691892Y-100582122D01*
X36702330Y-100529476D01*
X36720560Y-100471480D01*
X36746881Y-100415707D01*
X36783025Y-100364868D01*
G37*
G36*
X37500000Y-98006856D02*
G01*
X37500000Y-99204684D01*
X37246842Y-99204684D01*
X37037007Y-98929636D01*
X36928605Y-98799734D01*
X36845490Y-98708810D01*
X36726998Y-98596879D01*
X36637761Y-98532588D01*
X36577033Y-98502804D01*
X36518952Y-98485799D01*
X36462547Y-98480290D01*
X36396349Y-98488311D01*
X36343942Y-98510804D01*
X36302080Y-98547426D01*
X36272175Y-98595367D01*
X36252731Y-98658320D01*
X36245568Y-98740592D01*
X36254691Y-98835286D01*
X36283579Y-98938886D01*
X36326946Y-99039542D01*
X36380390Y-99131960D01*
X36380390Y-99164750D01*
X36041778Y-99164750D01*
X36012511Y-99082842D01*
X35978397Y-98950152D01*
X35954520Y-98807710D01*
X35946615Y-98665762D01*
X35955471Y-98520014D01*
X35979895Y-98401506D01*
X36017438Y-98305548D01*
X36066782Y-98228231D01*
X36132107Y-98163051D01*
X36208814Y-98116557D01*
X36299174Y-98087727D01*
X36406585Y-98077564D01*
X36500799Y-98085549D01*
X36591707Y-98109444D01*
X36680534Y-98149829D01*
X36763250Y-98203024D01*
X36852238Y-98275560D01*
X36948346Y-98370655D01*
X37031388Y-98464948D01*
X37106250Y-98558234D01*
X37206908Y-98692415D01*
X37206908Y-98006856D01*
X37500000Y-98006856D01*
G37*
G36*
X36923550Y-96534487D02*
G01*
X37080604Y-96560175D01*
X37179432Y-96589090D01*
X37261497Y-96625499D01*
X37329182Y-96668710D01*
X37389618Y-96723848D01*
X37439298Y-96788390D01*
X37478750Y-96863433D01*
X37505702Y-96944271D01*
X37523077Y-97040988D01*
X37529309Y-97156433D01*
X37523093Y-97269811D01*
X37505626Y-97366355D01*
X37478292Y-97448516D01*
X37438306Y-97524748D01*
X37388097Y-97589579D01*
X37327167Y-97644247D01*
X37257416Y-97688865D01*
X37175159Y-97725586D01*
X37078497Y-97753881D01*
X36924240Y-97778708D01*
X36737962Y-97787678D01*
X36546586Y-97778327D01*
X36393854Y-97752874D01*
X36298872Y-97724077D01*
X36217047Y-97687023D01*
X36146741Y-97642140D01*
X36085857Y-97586834D01*
X36036027Y-97521655D01*
X35996715Y-97445402D01*
X35969809Y-97363305D01*
X35952685Y-97267723D01*
X35946615Y-97156433D01*
X36227983Y-97156433D01*
X36235531Y-97215881D01*
X36256999Y-97264257D01*
X36292536Y-97304194D01*
X36344761Y-97336775D01*
X36425714Y-97363641D01*
X36551875Y-97383299D01*
X36738969Y-97391089D01*
X36920941Y-97383262D01*
X37046123Y-97363337D01*
X37128598Y-97335768D01*
X37182317Y-97302582D01*
X37218600Y-97262526D01*
X37240343Y-97214641D01*
X37247941Y-97156433D01*
X37240345Y-97098273D01*
X37218606Y-97050417D01*
X37182323Y-97010374D01*
X37128598Y-96977189D01*
X37046086Y-96949652D01*
X36920332Y-96929711D01*
X36736954Y-96921868D01*
X36551267Y-96929642D01*
X36425676Y-96949285D01*
X36344761Y-96976181D01*
X36292530Y-97008763D01*
X36256993Y-97048686D01*
X36235529Y-97097033D01*
X36227983Y-97156433D01*
X35946615Y-97156433D01*
X35952979Y-97040287D01*
X35970706Y-96943268D01*
X35998181Y-96862425D01*
X36038427Y-96787568D01*
X36089438Y-96723009D01*
X36151871Y-96667703D01*
X36221457Y-96623579D01*
X36303054Y-96587206D01*
X36398434Y-96559076D01*
X36550912Y-96534279D01*
X36736954Y-96525279D01*
X36923550Y-96534487D01*
G37*
G36*
X37500000Y-95023185D02*
G01*
X37500000Y-96221013D01*
X37246842Y-96221013D01*
X37037007Y-95945965D01*
X36928605Y-95816063D01*
X36845490Y-95725139D01*
X36726998Y-95613208D01*
X36637761Y-95548918D01*
X36577033Y-95519133D01*
X36518952Y-95502128D01*
X36462547Y-95496619D01*
X36396349Y-95504641D01*
X36343942Y-95527134D01*
X36302080Y-95563755D01*
X36272175Y-95611696D01*
X36252731Y-95674649D01*
X36245568Y-95756921D01*
X36254691Y-95851616D01*
X36283579Y-95955216D01*
X36326946Y-96055871D01*
X36380390Y-96148290D01*
X36380390Y-96181079D01*
X36041778Y-96181079D01*
X36012511Y-96099171D01*
X35978397Y-95966481D01*
X35954520Y-95824040D01*
X35946615Y-95682091D01*
X35955471Y-95536343D01*
X35979895Y-95417836D01*
X36017438Y-95321877D01*
X36066782Y-95244561D01*
X36132107Y-95179380D01*
X36208814Y-95132886D01*
X36299174Y-95104056D01*
X36406585Y-95093893D01*
X36500799Y-95101878D01*
X36591707Y-95125773D01*
X36680534Y-95166159D01*
X36763250Y-95219353D01*
X36852238Y-95291889D01*
X36948346Y-95386985D01*
X37031388Y-95481278D01*
X37106250Y-95574563D01*
X37206908Y-95708744D01*
X37206908Y-95023185D01*
X37500000Y-95023185D01*
G37*
G36*
X37095004Y-93544256D02*
G01*
X37200955Y-93576412D01*
X37266686Y-93609408D01*
X37324175Y-93649644D01*
X37374245Y-93697313D01*
X37440561Y-93786430D01*
X37489558Y-93889471D01*
X37510954Y-93963237D01*
X37524522Y-94047910D01*
X37529309Y-94145101D01*
X37519660Y-94278590D01*
X37492031Y-94395695D01*
X37462326Y-94468446D01*
X37424354Y-94532867D01*
X37378000Y-94589868D01*
X37315182Y-94646022D01*
X37240106Y-94693525D01*
X37151038Y-94732292D01*
X37057083Y-94758609D01*
X36947141Y-94775475D01*
X36818745Y-94781476D01*
X36685552Y-94775969D01*
X36567503Y-94760267D01*
X36462914Y-94735406D01*
X36362796Y-94697931D01*
X36271443Y-94647831D01*
X36187866Y-94584739D01*
X36118421Y-94512630D01*
X36059144Y-94426343D01*
X36009996Y-94323979D01*
X35975960Y-94215251D01*
X35954293Y-94088937D01*
X35946615Y-93942227D01*
X35956965Y-93778371D01*
X35972444Y-93662508D01*
X36274877Y-93662508D01*
X36274877Y-93701434D01*
X36244836Y-93795224D01*
X36232429Y-93863731D01*
X36227983Y-93945341D01*
X36234805Y-94044095D01*
X36253876Y-94126283D01*
X36283742Y-94194733D01*
X36323879Y-94251713D01*
X36375093Y-94300005D01*
X36435624Y-94338109D01*
X36506920Y-94366252D01*
X36590958Y-94383879D01*
X36548557Y-94302885D01*
X36515029Y-94217367D01*
X36511213Y-94201522D01*
X36749685Y-94201522D01*
X36759852Y-94295769D01*
X36785131Y-94385986D01*
X36818470Y-94386993D01*
X36877089Y-94388001D01*
X36995819Y-94381061D01*
X37081978Y-94362905D01*
X37155627Y-94332059D01*
X37204801Y-94295769D01*
X37232090Y-94264444D01*
X37250872Y-94228175D01*
X37261789Y-94188112D01*
X37265526Y-94144094D01*
X37261993Y-94109741D01*
X37250414Y-94069356D01*
X37231280Y-94031218D01*
X37204801Y-93999655D01*
X37167689Y-93971325D01*
X37123469Y-93948913D01*
X37071856Y-93935300D01*
X36995424Y-93929954D01*
X36925505Y-93935849D01*
X36874616Y-93951478D01*
X36831814Y-93977431D01*
X36799236Y-94010921D01*
X36775589Y-94050627D01*
X36760310Y-94098024D01*
X36749685Y-94201522D01*
X36511213Y-94201522D01*
X36493352Y-94127357D01*
X36485903Y-94028323D01*
X36491165Y-93941090D01*
X36506328Y-93862818D01*
X36532777Y-93789178D01*
X36571541Y-93720852D01*
X36614982Y-93668494D01*
X36667692Y-93623193D01*
X36730726Y-93584656D01*
X36799233Y-93557252D01*
X36881603Y-93539669D01*
X36980587Y-93533365D01*
X37095004Y-93544256D01*
G37*
G36*
X37500000Y-92856232D02*
G01*
X37500000Y-93239449D01*
X37095533Y-93239449D01*
X37095533Y-92856232D01*
X37500000Y-92856232D01*
G37*
G36*
X36779825Y-91320330D02*
G01*
X36898145Y-91336892D01*
X37008888Y-91363847D01*
X37115108Y-91403358D01*
X37206886Y-91453281D01*
X37285951Y-91513415D01*
X37359888Y-91591091D01*
X37420598Y-91680467D01*
X37468492Y-91782968D01*
X37501296Y-91891838D01*
X37522019Y-92016096D01*
X37529309Y-92158033D01*
X37519966Y-92321981D01*
X37503480Y-92437752D01*
X37201046Y-92437752D01*
X37201046Y-92396720D01*
X37231638Y-92309158D01*
X37243302Y-92247050D01*
X37247941Y-92153912D01*
X37242963Y-92074662D01*
X37228066Y-91997108D01*
X37201954Y-91924617D01*
X37165326Y-91864942D01*
X37113997Y-91810118D01*
X37050654Y-91765565D01*
X36977069Y-91733692D01*
X36884965Y-91713267D01*
X36931200Y-91801794D01*
X36963001Y-91878772D01*
X36982647Y-91960193D01*
X36990020Y-92068824D01*
X36984725Y-92153586D01*
X36969138Y-92233321D01*
X36942311Y-92308528D01*
X36904383Y-92376203D01*
X36860401Y-92428668D01*
X36807827Y-92473803D01*
X36745747Y-92511941D01*
X36678216Y-92538993D01*
X36596382Y-92556415D01*
X36497352Y-92562683D01*
X36401068Y-92555492D01*
X36314649Y-92534681D01*
X36236471Y-92500805D01*
X36165251Y-92453629D01*
X36100122Y-92392140D01*
X36034549Y-92302894D01*
X35986865Y-92200368D01*
X35957081Y-92082077D01*
X35946852Y-91947923D01*
X36210397Y-91947923D01*
X36213830Y-91987105D01*
X36224044Y-92024310D01*
X36242040Y-92059136D01*
X36271122Y-92094469D01*
X36307359Y-92122589D01*
X36356027Y-92146218D01*
X36411588Y-92160853D01*
X36481507Y-92166185D01*
X36548893Y-92160384D01*
X36600392Y-92144661D01*
X36643962Y-92118648D01*
X36676687Y-92085218D01*
X36699708Y-92046734D01*
X36715156Y-92000771D01*
X36723369Y-91950803D01*
X36726238Y-91894617D01*
X36714606Y-91794233D01*
X36690792Y-91710244D01*
X36659010Y-91708687D01*
X36596728Y-91707130D01*
X36479045Y-91713802D01*
X36393946Y-91731219D01*
X36321018Y-91761142D01*
X36271122Y-91797256D01*
X36243104Y-91829571D01*
X36224594Y-91865949D01*
X36213979Y-91905717D01*
X36210397Y-91947923D01*
X35946852Y-91947923D01*
X35946615Y-91944809D01*
X35956446Y-91807211D01*
X35983984Y-91692293D01*
X36013537Y-91621550D01*
X36051455Y-91558441D01*
X36097923Y-91502150D01*
X36160707Y-91446003D01*
X36234833Y-91399234D01*
X36321864Y-91361832D01*
X36413677Y-91336734D01*
X36523120Y-91320490D01*
X36653057Y-91314663D01*
X36779825Y-91320330D01*
G37*
D14*
G36*
X46097886Y-49250000D02*
G01*
X45702310Y-49250000D01*
X45702310Y-48678746D01*
X45694592Y-48539711D01*
X45683129Y-48475406D01*
X45668409Y-48437678D01*
X45641472Y-48404891D01*
X45604417Y-48382357D01*
X45557882Y-48369831D01*
X45486985Y-48364863D01*
X45433466Y-48368886D01*
X45378151Y-48381258D01*
X45322670Y-48401644D01*
X45258472Y-48433557D01*
X45258472Y-49250000D01*
X44865045Y-49250000D01*
X44865045Y-47655582D01*
X45258472Y-47655582D01*
X45258472Y-48224912D01*
X45364336Y-48155210D01*
X45460119Y-48106943D01*
X45560766Y-48076437D01*
X45674857Y-48065910D01*
X45773455Y-48073427D01*
X45856368Y-48094631D01*
X45926451Y-48128373D01*
X45985827Y-48174720D01*
X46032258Y-48231696D01*
X46067144Y-48302720D01*
X46089709Y-48390852D01*
X46097886Y-48499960D01*
X46097886Y-49250000D01*
G37*
G36*
X47172518Y-48073359D02*
G01*
X47285005Y-48094452D01*
X47382136Y-48127816D01*
X47466138Y-48172795D01*
X47538723Y-48229492D01*
X47600284Y-48297539D01*
X47648641Y-48374706D01*
X47684151Y-48462299D01*
X47706392Y-48562061D01*
X47714187Y-48676090D01*
X47706348Y-48790038D01*
X47683982Y-48889694D01*
X47648268Y-48977169D01*
X47599617Y-49054215D01*
X47537648Y-49122138D01*
X47464640Y-49178728D01*
X47380471Y-49223577D01*
X47283484Y-49256800D01*
X47171524Y-49277774D01*
X47042031Y-49285170D01*
X46912542Y-49277775D01*
X46800571Y-49256803D01*
X46703562Y-49223581D01*
X46619362Y-49178731D01*
X46546316Y-49122138D01*
X46484385Y-49054220D01*
X46435761Y-48977177D01*
X46400065Y-48889701D01*
X46377710Y-48790043D01*
X46370013Y-48678105D01*
X46777467Y-48678105D01*
X46782453Y-48768465D01*
X46796029Y-48840496D01*
X46819969Y-48904394D01*
X46850740Y-48950863D01*
X46889362Y-48985430D01*
X46934271Y-49008932D01*
X46985142Y-49022470D01*
X47045255Y-49027250D01*
X47097771Y-49023027D01*
X47147446Y-49010489D01*
X47192186Y-48988089D01*
X47230000Y-48953977D01*
X47262992Y-48906569D01*
X47287348Y-48848647D01*
X47301022Y-48781052D01*
X47306497Y-48678105D01*
X47301086Y-48581466D01*
X47286762Y-48509119D01*
X47262214Y-48445653D01*
X47232149Y-48400218D01*
X47193220Y-48364294D01*
X47147935Y-48341141D01*
X47097392Y-48328241D01*
X47042031Y-48323831D01*
X46987064Y-48327579D01*
X46940817Y-48338119D01*
X46898967Y-48358505D01*
X46856211Y-48395088D01*
X46824990Y-48439866D01*
X46798765Y-48503990D01*
X46783334Y-48577833D01*
X46777467Y-48678105D01*
X46370013Y-48678105D01*
X46369874Y-48676090D01*
X46377784Y-48561179D01*
X46400327Y-48460936D01*
X46436280Y-48373184D01*
X46485210Y-48296118D01*
X46547488Y-48228393D01*
X46620961Y-48171903D01*
X46705320Y-48127184D01*
X46802166Y-48094104D01*
X46913580Y-48073253D01*
X47042031Y-48065910D01*
X47172518Y-48073359D01*
G37*
G36*
X49196155Y-48433557D02*
G01*
X49196155Y-49250000D01*
X48800482Y-49250000D01*
X48800482Y-48674624D01*
X48796085Y-48531559D01*
X48787301Y-48475836D01*
X48772052Y-48435663D01*
X48747322Y-48403733D01*
X48712456Y-48381808D01*
X48668203Y-48369682D01*
X48600398Y-48364863D01*
X48543473Y-48370347D01*
X48487851Y-48386937D01*
X48389470Y-48433557D01*
X48389470Y-49250000D01*
X47996043Y-49250000D01*
X47996043Y-48101081D01*
X48389470Y-48101081D01*
X48389470Y-48224912D01*
X48491863Y-48156481D01*
X48584082Y-48107950D01*
X48680804Y-48076646D01*
X48789540Y-48065910D01*
X48868951Y-48071815D01*
X48939876Y-48088897D01*
X49003789Y-48116743D01*
X49060619Y-48155367D01*
X49108910Y-48204670D01*
X49149163Y-48266037D01*
X49268693Y-48180637D01*
X49378653Y-48119308D01*
X49454535Y-48088985D01*
X49527090Y-48071565D01*
X49597299Y-48065910D01*
X49695789Y-48073727D01*
X49776915Y-48095611D01*
X49844009Y-48130242D01*
X49899477Y-48177743D01*
X49942282Y-48235702D01*
X49974480Y-48306807D01*
X49995251Y-48393778D01*
X50002743Y-48499960D01*
X50002743Y-49250000D01*
X49607069Y-49250000D01*
X49607069Y-48674624D01*
X49603259Y-48531010D01*
X49594921Y-48475785D01*
X49579714Y-48435663D01*
X49555746Y-48403804D01*
X49520705Y-48381808D01*
X49475829Y-48369683D01*
X49407083Y-48364863D01*
X49358576Y-48368832D01*
X49310949Y-48380800D01*
X49196155Y-48433557D01*
G37*
G36*
X51123874Y-48076199D02*
G01*
X51245716Y-48104661D01*
X51344295Y-48148842D01*
X51423747Y-48207968D01*
X51487124Y-48282821D01*
X51533999Y-48373546D01*
X51563883Y-48483410D01*
X51574592Y-48616647D01*
X51574592Y-48745882D01*
X50674020Y-48745882D01*
X50690909Y-48832167D01*
X50727486Y-48900527D01*
X50783831Y-48954893D01*
X50855494Y-48992716D01*
X50952332Y-49017856D01*
X51081710Y-49027250D01*
X51204252Y-49016555D01*
X51323217Y-48984385D01*
X51432525Y-48937630D01*
X51507962Y-48892428D01*
X51551633Y-48892428D01*
X51551633Y-49189549D01*
X51419207Y-49233827D01*
X51300258Y-49262547D01*
X51178866Y-49279258D01*
X51039016Y-49285170D01*
X50886769Y-49277819D01*
X50756962Y-49257164D01*
X50646458Y-49224891D01*
X50552513Y-49182087D01*
X50472861Y-49129191D01*
X50403428Y-49063079D01*
X50349304Y-48987258D01*
X50309711Y-48900347D01*
X50284912Y-48800354D01*
X50276197Y-48684791D01*
X50284378Y-48570426D01*
X50294028Y-48528995D01*
X50672945Y-48528995D01*
X51183315Y-48528995D01*
X51173982Y-48453042D01*
X51152976Y-48395945D01*
X51122059Y-48353415D01*
X51079328Y-48322215D01*
X51020948Y-48302020D01*
X50941807Y-48294521D01*
X50868083Y-48301175D01*
X50806579Y-48319995D01*
X50754815Y-48350300D01*
X50715008Y-48392256D01*
X50687247Y-48450178D01*
X50672945Y-48528995D01*
X50294028Y-48528995D01*
X50307786Y-48469928D01*
X50345316Y-48381205D01*
X50396698Y-48302544D01*
X50462505Y-48232698D01*
X50539541Y-48174570D01*
X50627370Y-48128628D01*
X50727555Y-48094719D01*
X50842119Y-48073399D01*
X50973461Y-48065910D01*
X51123874Y-48076199D01*
G37*
G36*
X53147516Y-48019016D02*
G01*
X52639295Y-48019016D01*
X52639295Y-49250000D01*
X52219588Y-49250000D01*
X52219588Y-48019016D01*
X51711368Y-48019016D01*
X51711368Y-47725924D01*
X53147516Y-47725924D01*
X53147516Y-48019016D01*
G37*
G36*
X54610824Y-49250000D02*
G01*
X54215248Y-49250000D01*
X54215248Y-48678746D01*
X54207530Y-48539711D01*
X54196067Y-48475406D01*
X54181347Y-48437678D01*
X54154410Y-48404891D01*
X54117355Y-48382357D01*
X54070820Y-48369831D01*
X53999923Y-48364863D01*
X53946404Y-48368886D01*
X53891089Y-48381258D01*
X53835608Y-48401644D01*
X53771410Y-48433557D01*
X53771410Y-49250000D01*
X53377983Y-49250000D01*
X53377983Y-47655582D01*
X53771410Y-47655582D01*
X53771410Y-48224912D01*
X53877274Y-48155210D01*
X53973057Y-48106943D01*
X54073704Y-48076437D01*
X54187795Y-48065910D01*
X54286393Y-48073427D01*
X54369306Y-48094631D01*
X54439389Y-48128373D01*
X54498765Y-48174720D01*
X54545196Y-48231696D01*
X54580082Y-48302720D01*
X54602647Y-48390852D01*
X54610824Y-48499960D01*
X54610824Y-49250000D01*
G37*
G36*
X55365827Y-49250000D02*
G01*
X54972401Y-49250000D01*
X54972401Y-48101081D01*
X55365827Y-48101081D01*
X55365827Y-49250000D01*
G37*
G36*
X55376769Y-47936950D02*
G01*
X54961459Y-47936950D01*
X54961459Y-47655582D01*
X55376769Y-47655582D01*
X55376769Y-47936950D01*
G37*
G36*
X56969623Y-49250000D02*
G01*
X56574048Y-49250000D01*
X56574048Y-48678746D01*
X56566329Y-48539711D01*
X56554867Y-48475406D01*
X56540147Y-48437678D01*
X56513209Y-48404891D01*
X56476155Y-48382357D01*
X56429619Y-48369831D01*
X56358723Y-48364863D01*
X56305203Y-48368886D01*
X56249888Y-48381258D01*
X56194408Y-48401644D01*
X56130209Y-48433557D01*
X56130209Y-49250000D01*
X55736783Y-49250000D01*
X55736783Y-48101081D01*
X56130209Y-48101081D01*
X56130209Y-48224912D01*
X56236074Y-48155210D01*
X56331856Y-48106943D01*
X56432503Y-48076437D01*
X56546595Y-48065910D01*
X56645192Y-48073427D01*
X56728105Y-48094631D01*
X56798188Y-48128373D01*
X56857565Y-48174720D01*
X56903996Y-48231696D01*
X56938882Y-48302720D01*
X56961447Y-48390852D01*
X56969623Y-48499960D01*
X56969623Y-49250000D01*
G37*
G36*
X57896911Y-48071654D02*
G01*
X57980984Y-48087984D01*
X58059438Y-48114508D01*
X58129093Y-48148983D01*
X58143259Y-48101081D01*
X58524766Y-48101081D01*
X58524766Y-49118658D01*
X58518694Y-49225947D01*
X58501766Y-49315838D01*
X58475527Y-49390958D01*
X58437297Y-49460969D01*
X58391444Y-49518089D01*
X58337872Y-49563974D01*
X58276278Y-49601590D01*
X58205451Y-49632208D01*
X58124110Y-49655565D01*
X57994580Y-49676349D01*
X57841570Y-49683775D01*
X57714297Y-49680137D01*
X57589609Y-49669303D01*
X57469922Y-49652613D01*
X57374871Y-49634132D01*
X57374871Y-49343789D01*
X57422938Y-49343789D01*
X57499404Y-49368113D01*
X57598891Y-49392149D01*
X57700473Y-49409008D01*
X57784710Y-49414131D01*
X57888788Y-49408863D01*
X57962324Y-49395263D01*
X58024800Y-49371330D01*
X58066762Y-49341774D01*
X58095532Y-49305354D01*
X58115904Y-49258151D01*
X58127101Y-49204532D01*
X58131242Y-49135969D01*
X58131242Y-49114536D01*
X58056497Y-49163154D01*
X57973852Y-49200632D01*
X57884163Y-49224204D01*
X57781486Y-49232414D01*
X57653927Y-49222338D01*
X57547579Y-49193984D01*
X57458457Y-49148904D01*
X57383664Y-49086876D01*
X57326364Y-49011320D01*
X57282717Y-48915538D01*
X57254177Y-48794975D01*
X57244387Y-48653101D01*
X57649205Y-48653101D01*
X57658347Y-48762931D01*
X57681738Y-48837024D01*
X57715346Y-48885284D01*
X57763861Y-48920453D01*
X57827678Y-48942852D01*
X57911521Y-48951046D01*
X57969899Y-48946710D01*
X58027390Y-48933644D01*
X58082181Y-48913133D01*
X58131242Y-48887299D01*
X58131242Y-48364314D01*
X58048102Y-48343248D01*
X57959588Y-48335554D01*
X57860076Y-48345913D01*
X57784374Y-48374330D01*
X57726776Y-48419360D01*
X57685340Y-48479200D01*
X57658842Y-48555580D01*
X57649205Y-48653101D01*
X57244387Y-48653101D01*
X57243761Y-48644033D01*
X57248923Y-48549545D01*
X57263488Y-48468133D01*
X57286357Y-48398019D01*
X57338114Y-48300647D01*
X57406623Y-48217585D01*
X57486215Y-48154357D01*
X57584236Y-48105935D01*
X57691370Y-48075843D01*
X57800147Y-48065910D01*
X57896911Y-48071654D01*
G37*
G36*
X59320412Y-49250000D02*
G01*
X58911647Y-49250000D01*
X58911647Y-48845533D01*
X59320412Y-48845533D01*
X59320412Y-49250000D01*
G37*
G36*
X60099058Y-49250000D02*
G01*
X59705632Y-49250000D01*
X59705632Y-48101081D01*
X60099058Y-48101081D01*
X60099058Y-49250000D01*
G37*
G36*
X60110000Y-47936950D02*
G01*
X59694690Y-47936950D01*
X59694690Y-47655582D01*
X60110000Y-47655582D01*
X60110000Y-47936950D01*
G37*
G36*
X61183070Y-48073359D02*
G01*
X61295556Y-48094452D01*
X61392687Y-48127816D01*
X61476689Y-48172795D01*
X61549274Y-48229492D01*
X61610835Y-48297539D01*
X61659192Y-48374706D01*
X61694702Y-48462299D01*
X61716943Y-48562061D01*
X61724738Y-48676090D01*
X61716899Y-48790038D01*
X61694533Y-48889694D01*
X61658820Y-48977169D01*
X61610168Y-49054215D01*
X61548200Y-49122138D01*
X61475191Y-49178728D01*
X61391022Y-49223577D01*
X61294035Y-49256800D01*
X61182075Y-49277774D01*
X61052582Y-49285170D01*
X60923093Y-49277775D01*
X60811122Y-49256803D01*
X60714113Y-49223581D01*
X60629913Y-49178731D01*
X60556867Y-49122138D01*
X60494936Y-49054220D01*
X60446312Y-48977177D01*
X60410617Y-48889701D01*
X60388261Y-48790043D01*
X60380565Y-48678105D01*
X60788018Y-48678105D01*
X60793004Y-48768465D01*
X60806581Y-48840496D01*
X60830521Y-48904394D01*
X60861291Y-48950863D01*
X60899913Y-48985430D01*
X60944822Y-49008932D01*
X60995694Y-49022470D01*
X61055806Y-49027250D01*
X61108323Y-49023027D01*
X61157997Y-49010489D01*
X61202737Y-48988089D01*
X61240551Y-48953977D01*
X61273543Y-48906569D01*
X61297900Y-48848647D01*
X61311574Y-48781052D01*
X61317048Y-48678105D01*
X61311638Y-48581466D01*
X61297313Y-48509119D01*
X61272765Y-48445653D01*
X61242701Y-48400218D01*
X61203771Y-48364294D01*
X61158486Y-48341141D01*
X61107943Y-48328241D01*
X61052582Y-48323831D01*
X60997615Y-48327579D01*
X60951368Y-48338119D01*
X60909519Y-48358505D01*
X60866762Y-48395088D01*
X60835541Y-48439866D01*
X60809316Y-48503990D01*
X60793885Y-48577833D01*
X60788018Y-48678105D01*
X60380565Y-48678105D01*
X60380426Y-48676090D01*
X60388335Y-48561179D01*
X60410878Y-48460936D01*
X60446832Y-48373184D01*
X60495761Y-48296118D01*
X60558039Y-48228393D01*
X60631513Y-48171903D01*
X60715871Y-48127184D01*
X60812718Y-48094104D01*
X60924131Y-48073253D01*
X61052582Y-48065910D01*
X61183070Y-48073359D01*
G37*
D11*
X60884819Y-119916666D02*
X60408628Y-120249999D01*
X60884819Y-120488094D02*
X59884819Y-120488094D01*
X59884819Y-120488094D02*
X59884819Y-120107142D01*
X59884819Y-120107142D02*
X59932438Y-120011904D01*
X59932438Y-120011904D02*
X59980057Y-119964285D01*
X59980057Y-119964285D02*
X60075295Y-119916666D01*
X60075295Y-119916666D02*
X60218152Y-119916666D01*
X60218152Y-119916666D02*
X60313390Y-119964285D01*
X60313390Y-119964285D02*
X60361009Y-120011904D01*
X60361009Y-120011904D02*
X60408628Y-120107142D01*
X60408628Y-120107142D02*
X60408628Y-120488094D01*
X60218152Y-119059523D02*
X60884819Y-119059523D01*
X59837200Y-119297618D02*
X60551485Y-119535713D01*
X60551485Y-119535713D02*
X60551485Y-118916666D01*
X55833333Y-123859580D02*
X55785714Y-123907200D01*
X55785714Y-123907200D02*
X55642857Y-123954819D01*
X55642857Y-123954819D02*
X55547619Y-123954819D01*
X55547619Y-123954819D02*
X55404762Y-123907200D01*
X55404762Y-123907200D02*
X55309524Y-123811961D01*
X55309524Y-123811961D02*
X55261905Y-123716723D01*
X55261905Y-123716723D02*
X55214286Y-123526247D01*
X55214286Y-123526247D02*
X55214286Y-123383390D01*
X55214286Y-123383390D02*
X55261905Y-123192914D01*
X55261905Y-123192914D02*
X55309524Y-123097676D01*
X55309524Y-123097676D02*
X55404762Y-123002438D01*
X55404762Y-123002438D02*
X55547619Y-122954819D01*
X55547619Y-122954819D02*
X55642857Y-122954819D01*
X55642857Y-122954819D02*
X55785714Y-123002438D01*
X55785714Y-123002438D02*
X55833333Y-123050057D01*
X56785714Y-123954819D02*
X56214286Y-123954819D01*
X56500000Y-123954819D02*
X56500000Y-122954819D01*
X56500000Y-122954819D02*
X56404762Y-123097676D01*
X56404762Y-123097676D02*
X56309524Y-123192914D01*
X56309524Y-123192914D02*
X56214286Y-123240533D01*
X67315791Y-52571675D02*
X68022898Y-51864569D01*
X68022898Y-51864569D02*
X68191257Y-52032927D01*
X68191257Y-52032927D02*
X68258600Y-52167614D01*
X68258600Y-52167614D02*
X68258600Y-52302301D01*
X68258600Y-52302301D02*
X68224928Y-52403317D01*
X68224928Y-52403317D02*
X68123913Y-52571675D01*
X68123913Y-52571675D02*
X68022898Y-52672691D01*
X68022898Y-52672691D02*
X67854539Y-52773706D01*
X67854539Y-52773706D02*
X67753524Y-52807378D01*
X67753524Y-52807378D02*
X67618837Y-52807378D01*
X67618837Y-52807378D02*
X67484150Y-52740034D01*
X67484150Y-52740034D02*
X67315791Y-52571675D01*
X68797348Y-53110423D02*
X68325944Y-53581828D01*
X68898363Y-52672691D02*
X68224928Y-53009408D01*
X68224928Y-53009408D02*
X68662661Y-53447141D01*
X68404761Y-30300057D02*
X68309523Y-30252438D01*
X68309523Y-30252438D02*
X68214285Y-30157200D01*
X68214285Y-30157200D02*
X68071428Y-30014342D01*
X68071428Y-30014342D02*
X67976190Y-29966723D01*
X67976190Y-29966723D02*
X67880952Y-29966723D01*
X67928571Y-30204819D02*
X67833333Y-30157200D01*
X67833333Y-30157200D02*
X67738095Y-30061961D01*
X67738095Y-30061961D02*
X67690476Y-29871485D01*
X67690476Y-29871485D02*
X67690476Y-29538152D01*
X67690476Y-29538152D02*
X67738095Y-29347676D01*
X67738095Y-29347676D02*
X67833333Y-29252438D01*
X67833333Y-29252438D02*
X67928571Y-29204819D01*
X67928571Y-29204819D02*
X68119047Y-29204819D01*
X68119047Y-29204819D02*
X68214285Y-29252438D01*
X68214285Y-29252438D02*
X68309523Y-29347676D01*
X68309523Y-29347676D02*
X68357142Y-29538152D01*
X68357142Y-29538152D02*
X68357142Y-29871485D01*
X68357142Y-29871485D02*
X68309523Y-30061961D01*
X68309523Y-30061961D02*
X68214285Y-30157200D01*
X68214285Y-30157200D02*
X68119047Y-30204819D01*
X68119047Y-30204819D02*
X67928571Y-30204819D01*
X69309523Y-30204819D02*
X68738095Y-30204819D01*
X69023809Y-30204819D02*
X69023809Y-29204819D01*
X69023809Y-29204819D02*
X68928571Y-29347676D01*
X68928571Y-29347676D02*
X68833333Y-29442914D01*
X68833333Y-29442914D02*
X68738095Y-29490533D01*
X36600057Y-140407738D02*
X36552438Y-140502976D01*
X36552438Y-140502976D02*
X36457200Y-140598214D01*
X36457200Y-140598214D02*
X36314342Y-140741071D01*
X36314342Y-140741071D02*
X36266723Y-140836309D01*
X36266723Y-140836309D02*
X36266723Y-140931547D01*
X36504819Y-140883928D02*
X36457200Y-140979166D01*
X36457200Y-140979166D02*
X36361961Y-141074404D01*
X36361961Y-141074404D02*
X36171485Y-141122023D01*
X36171485Y-141122023D02*
X35838152Y-141122023D01*
X35838152Y-141122023D02*
X35647676Y-141074404D01*
X35647676Y-141074404D02*
X35552438Y-140979166D01*
X35552438Y-140979166D02*
X35504819Y-140883928D01*
X35504819Y-140883928D02*
X35504819Y-140693452D01*
X35504819Y-140693452D02*
X35552438Y-140598214D01*
X35552438Y-140598214D02*
X35647676Y-140502976D01*
X35647676Y-140502976D02*
X35838152Y-140455357D01*
X35838152Y-140455357D02*
X36171485Y-140455357D01*
X36171485Y-140455357D02*
X36361961Y-140502976D01*
X36361961Y-140502976D02*
X36457200Y-140598214D01*
X36457200Y-140598214D02*
X36504819Y-140693452D01*
X36504819Y-140693452D02*
X36504819Y-140883928D01*
X35504819Y-140122023D02*
X35504819Y-139502976D01*
X35504819Y-139502976D02*
X35885771Y-139836309D01*
X35885771Y-139836309D02*
X35885771Y-139693452D01*
X35885771Y-139693452D02*
X35933390Y-139598214D01*
X35933390Y-139598214D02*
X35981009Y-139550595D01*
X35981009Y-139550595D02*
X36076247Y-139502976D01*
X36076247Y-139502976D02*
X36314342Y-139502976D01*
X36314342Y-139502976D02*
X36409580Y-139550595D01*
X36409580Y-139550595D02*
X36457200Y-139598214D01*
X36457200Y-139598214D02*
X36504819Y-139693452D01*
X36504819Y-139693452D02*
X36504819Y-139979166D01*
X36504819Y-139979166D02*
X36457200Y-140074404D01*
X36457200Y-140074404D02*
X36409580Y-140122023D01*
X63886476Y-103853200D02*
X64029333Y-103900819D01*
X64029333Y-103900819D02*
X64267428Y-103900819D01*
X64267428Y-103900819D02*
X64362666Y-103853200D01*
X64362666Y-103853200D02*
X64410285Y-103805580D01*
X64410285Y-103805580D02*
X64457904Y-103710342D01*
X64457904Y-103710342D02*
X64457904Y-103615104D01*
X64457904Y-103615104D02*
X64410285Y-103519866D01*
X64410285Y-103519866D02*
X64362666Y-103472247D01*
X64362666Y-103472247D02*
X64267428Y-103424628D01*
X64267428Y-103424628D02*
X64076952Y-103377009D01*
X64076952Y-103377009D02*
X63981714Y-103329390D01*
X63981714Y-103329390D02*
X63934095Y-103281771D01*
X63934095Y-103281771D02*
X63886476Y-103186533D01*
X63886476Y-103186533D02*
X63886476Y-103091295D01*
X63886476Y-103091295D02*
X63934095Y-102996057D01*
X63934095Y-102996057D02*
X63981714Y-102948438D01*
X63981714Y-102948438D02*
X64076952Y-102900819D01*
X64076952Y-102900819D02*
X64315047Y-102900819D01*
X64315047Y-102900819D02*
X64457904Y-102948438D01*
X64791238Y-102900819D02*
X65029333Y-103900819D01*
X65029333Y-103900819D02*
X65219809Y-103186533D01*
X65219809Y-103186533D02*
X65410285Y-103900819D01*
X65410285Y-103900819D02*
X65648381Y-102900819D01*
X66553142Y-103900819D02*
X65981714Y-103900819D01*
X66267428Y-103900819D02*
X66267428Y-102900819D01*
X66267428Y-102900819D02*
X66172190Y-103043676D01*
X66172190Y-103043676D02*
X66076952Y-103138914D01*
X66076952Y-103138914D02*
X65981714Y-103186533D01*
X67172190Y-102900819D02*
X67267428Y-102900819D01*
X67267428Y-102900819D02*
X67362666Y-102948438D01*
X67362666Y-102948438D02*
X67410285Y-102996057D01*
X67410285Y-102996057D02*
X67457904Y-103091295D01*
X67457904Y-103091295D02*
X67505523Y-103281771D01*
X67505523Y-103281771D02*
X67505523Y-103519866D01*
X67505523Y-103519866D02*
X67457904Y-103710342D01*
X67457904Y-103710342D02*
X67410285Y-103805580D01*
X67410285Y-103805580D02*
X67362666Y-103853200D01*
X67362666Y-103853200D02*
X67267428Y-103900819D01*
X67267428Y-103900819D02*
X67172190Y-103900819D01*
X67172190Y-103900819D02*
X67076952Y-103853200D01*
X67076952Y-103853200D02*
X67029333Y-103805580D01*
X67029333Y-103805580D02*
X66981714Y-103710342D01*
X66981714Y-103710342D02*
X66934095Y-103519866D01*
X66934095Y-103519866D02*
X66934095Y-103281771D01*
X66934095Y-103281771D02*
X66981714Y-103091295D01*
X66981714Y-103091295D02*
X67029333Y-102996057D01*
X67029333Y-102996057D02*
X67076952Y-102948438D01*
X67076952Y-102948438D02*
X67172190Y-102900819D01*
X64362667Y-116299200D02*
X64505524Y-116346819D01*
X64505524Y-116346819D02*
X64743619Y-116346819D01*
X64743619Y-116346819D02*
X64838857Y-116299200D01*
X64838857Y-116299200D02*
X64886476Y-116251580D01*
X64886476Y-116251580D02*
X64934095Y-116156342D01*
X64934095Y-116156342D02*
X64934095Y-116061104D01*
X64934095Y-116061104D02*
X64886476Y-115965866D01*
X64886476Y-115965866D02*
X64838857Y-115918247D01*
X64838857Y-115918247D02*
X64743619Y-115870628D01*
X64743619Y-115870628D02*
X64553143Y-115823009D01*
X64553143Y-115823009D02*
X64457905Y-115775390D01*
X64457905Y-115775390D02*
X64410286Y-115727771D01*
X64410286Y-115727771D02*
X64362667Y-115632533D01*
X64362667Y-115632533D02*
X64362667Y-115537295D01*
X64362667Y-115537295D02*
X64410286Y-115442057D01*
X64410286Y-115442057D02*
X64457905Y-115394438D01*
X64457905Y-115394438D02*
X64553143Y-115346819D01*
X64553143Y-115346819D02*
X64791238Y-115346819D01*
X64791238Y-115346819D02*
X64934095Y-115394438D01*
X65267429Y-115346819D02*
X65505524Y-116346819D01*
X65505524Y-116346819D02*
X65696000Y-115632533D01*
X65696000Y-115632533D02*
X65886476Y-116346819D01*
X65886476Y-116346819D02*
X66124572Y-115346819D01*
X66553143Y-116346819D02*
X66743619Y-116346819D01*
X66743619Y-116346819D02*
X66838857Y-116299200D01*
X66838857Y-116299200D02*
X66886476Y-116251580D01*
X66886476Y-116251580D02*
X66981714Y-116108723D01*
X66981714Y-116108723D02*
X67029333Y-115918247D01*
X67029333Y-115918247D02*
X67029333Y-115537295D01*
X67029333Y-115537295D02*
X66981714Y-115442057D01*
X66981714Y-115442057D02*
X66934095Y-115394438D01*
X66934095Y-115394438D02*
X66838857Y-115346819D01*
X66838857Y-115346819D02*
X66648381Y-115346819D01*
X66648381Y-115346819D02*
X66553143Y-115394438D01*
X66553143Y-115394438D02*
X66505524Y-115442057D01*
X66505524Y-115442057D02*
X66457905Y-115537295D01*
X66457905Y-115537295D02*
X66457905Y-115775390D01*
X66457905Y-115775390D02*
X66505524Y-115870628D01*
X66505524Y-115870628D02*
X66553143Y-115918247D01*
X66553143Y-115918247D02*
X66648381Y-115965866D01*
X66648381Y-115965866D02*
X66838857Y-115965866D01*
X66838857Y-115965866D02*
X66934095Y-115918247D01*
X66934095Y-115918247D02*
X66981714Y-115870628D01*
X66981714Y-115870628D02*
X67029333Y-115775390D01*
X48083333Y-35859580D02*
X48035714Y-35907200D01*
X48035714Y-35907200D02*
X47892857Y-35954819D01*
X47892857Y-35954819D02*
X47797619Y-35954819D01*
X47797619Y-35954819D02*
X47654762Y-35907200D01*
X47654762Y-35907200D02*
X47559524Y-35811961D01*
X47559524Y-35811961D02*
X47511905Y-35716723D01*
X47511905Y-35716723D02*
X47464286Y-35526247D01*
X47464286Y-35526247D02*
X47464286Y-35383390D01*
X47464286Y-35383390D02*
X47511905Y-35192914D01*
X47511905Y-35192914D02*
X47559524Y-35097676D01*
X47559524Y-35097676D02*
X47654762Y-35002438D01*
X47654762Y-35002438D02*
X47797619Y-34954819D01*
X47797619Y-34954819D02*
X47892857Y-34954819D01*
X47892857Y-34954819D02*
X48035714Y-35002438D01*
X48035714Y-35002438D02*
X48083333Y-35050057D01*
X48416667Y-34954819D02*
X49035714Y-34954819D01*
X49035714Y-34954819D02*
X48702381Y-35335771D01*
X48702381Y-35335771D02*
X48845238Y-35335771D01*
X48845238Y-35335771D02*
X48940476Y-35383390D01*
X48940476Y-35383390D02*
X48988095Y-35431009D01*
X48988095Y-35431009D02*
X49035714Y-35526247D01*
X49035714Y-35526247D02*
X49035714Y-35764342D01*
X49035714Y-35764342D02*
X48988095Y-35859580D01*
X48988095Y-35859580D02*
X48940476Y-35907200D01*
X48940476Y-35907200D02*
X48845238Y-35954819D01*
X48845238Y-35954819D02*
X48559524Y-35954819D01*
X48559524Y-35954819D02*
X48464286Y-35907200D01*
X48464286Y-35907200D02*
X48416667Y-35859580D01*
X39470667Y-116299200D02*
X39613524Y-116346819D01*
X39613524Y-116346819D02*
X39851619Y-116346819D01*
X39851619Y-116346819D02*
X39946857Y-116299200D01*
X39946857Y-116299200D02*
X39994476Y-116251580D01*
X39994476Y-116251580D02*
X40042095Y-116156342D01*
X40042095Y-116156342D02*
X40042095Y-116061104D01*
X40042095Y-116061104D02*
X39994476Y-115965866D01*
X39994476Y-115965866D02*
X39946857Y-115918247D01*
X39946857Y-115918247D02*
X39851619Y-115870628D01*
X39851619Y-115870628D02*
X39661143Y-115823009D01*
X39661143Y-115823009D02*
X39565905Y-115775390D01*
X39565905Y-115775390D02*
X39518286Y-115727771D01*
X39518286Y-115727771D02*
X39470667Y-115632533D01*
X39470667Y-115632533D02*
X39470667Y-115537295D01*
X39470667Y-115537295D02*
X39518286Y-115442057D01*
X39518286Y-115442057D02*
X39565905Y-115394438D01*
X39565905Y-115394438D02*
X39661143Y-115346819D01*
X39661143Y-115346819D02*
X39899238Y-115346819D01*
X39899238Y-115346819D02*
X40042095Y-115394438D01*
X40375429Y-115346819D02*
X40613524Y-116346819D01*
X40613524Y-116346819D02*
X40804000Y-115632533D01*
X40804000Y-115632533D02*
X40994476Y-116346819D01*
X40994476Y-116346819D02*
X41232572Y-115346819D01*
X42089714Y-115346819D02*
X41613524Y-115346819D01*
X41613524Y-115346819D02*
X41565905Y-115823009D01*
X41565905Y-115823009D02*
X41613524Y-115775390D01*
X41613524Y-115775390D02*
X41708762Y-115727771D01*
X41708762Y-115727771D02*
X41946857Y-115727771D01*
X41946857Y-115727771D02*
X42042095Y-115775390D01*
X42042095Y-115775390D02*
X42089714Y-115823009D01*
X42089714Y-115823009D02*
X42137333Y-115918247D01*
X42137333Y-115918247D02*
X42137333Y-116156342D01*
X42137333Y-116156342D02*
X42089714Y-116251580D01*
X42089714Y-116251580D02*
X42042095Y-116299200D01*
X42042095Y-116299200D02*
X41946857Y-116346819D01*
X41946857Y-116346819D02*
X41708762Y-116346819D01*
X41708762Y-116346819D02*
X41613524Y-116299200D01*
X41613524Y-116299200D02*
X41565905Y-116251580D01*
X39416667Y-44843200D02*
X39559524Y-44890819D01*
X39559524Y-44890819D02*
X39797619Y-44890819D01*
X39797619Y-44890819D02*
X39892857Y-44843200D01*
X39892857Y-44843200D02*
X39940476Y-44795580D01*
X39940476Y-44795580D02*
X39988095Y-44700342D01*
X39988095Y-44700342D02*
X39988095Y-44605104D01*
X39988095Y-44605104D02*
X39940476Y-44509866D01*
X39940476Y-44509866D02*
X39892857Y-44462247D01*
X39892857Y-44462247D02*
X39797619Y-44414628D01*
X39797619Y-44414628D02*
X39607143Y-44367009D01*
X39607143Y-44367009D02*
X39511905Y-44319390D01*
X39511905Y-44319390D02*
X39464286Y-44271771D01*
X39464286Y-44271771D02*
X39416667Y-44176533D01*
X39416667Y-44176533D02*
X39416667Y-44081295D01*
X39416667Y-44081295D02*
X39464286Y-43986057D01*
X39464286Y-43986057D02*
X39511905Y-43938438D01*
X39511905Y-43938438D02*
X39607143Y-43890819D01*
X39607143Y-43890819D02*
X39845238Y-43890819D01*
X39845238Y-43890819D02*
X39988095Y-43938438D01*
X40321429Y-43890819D02*
X40559524Y-44890819D01*
X40559524Y-44890819D02*
X40750000Y-44176533D01*
X40750000Y-44176533D02*
X40940476Y-44890819D01*
X40940476Y-44890819D02*
X41178572Y-43890819D01*
X41511905Y-43986057D02*
X41559524Y-43938438D01*
X41559524Y-43938438D02*
X41654762Y-43890819D01*
X41654762Y-43890819D02*
X41892857Y-43890819D01*
X41892857Y-43890819D02*
X41988095Y-43938438D01*
X41988095Y-43938438D02*
X42035714Y-43986057D01*
X42035714Y-43986057D02*
X42083333Y-44081295D01*
X42083333Y-44081295D02*
X42083333Y-44176533D01*
X42083333Y-44176533D02*
X42035714Y-44319390D01*
X42035714Y-44319390D02*
X41464286Y-44890819D01*
X41464286Y-44890819D02*
X42083333Y-44890819D01*
X51916667Y-103853200D02*
X52059524Y-103900819D01*
X52059524Y-103900819D02*
X52297619Y-103900819D01*
X52297619Y-103900819D02*
X52392857Y-103853200D01*
X52392857Y-103853200D02*
X52440476Y-103805580D01*
X52440476Y-103805580D02*
X52488095Y-103710342D01*
X52488095Y-103710342D02*
X52488095Y-103615104D01*
X52488095Y-103615104D02*
X52440476Y-103519866D01*
X52440476Y-103519866D02*
X52392857Y-103472247D01*
X52392857Y-103472247D02*
X52297619Y-103424628D01*
X52297619Y-103424628D02*
X52107143Y-103377009D01*
X52107143Y-103377009D02*
X52011905Y-103329390D01*
X52011905Y-103329390D02*
X51964286Y-103281771D01*
X51964286Y-103281771D02*
X51916667Y-103186533D01*
X51916667Y-103186533D02*
X51916667Y-103091295D01*
X51916667Y-103091295D02*
X51964286Y-102996057D01*
X51964286Y-102996057D02*
X52011905Y-102948438D01*
X52011905Y-102948438D02*
X52107143Y-102900819D01*
X52107143Y-102900819D02*
X52345238Y-102900819D01*
X52345238Y-102900819D02*
X52488095Y-102948438D01*
X52821429Y-102900819D02*
X53059524Y-103900819D01*
X53059524Y-103900819D02*
X53250000Y-103186533D01*
X53250000Y-103186533D02*
X53440476Y-103900819D01*
X53440476Y-103900819D02*
X53678572Y-102900819D01*
X53964286Y-102900819D02*
X54630952Y-102900819D01*
X54630952Y-102900819D02*
X54202381Y-103900819D01*
X69258333Y-156954819D02*
X68925000Y-156478628D01*
X68686905Y-156954819D02*
X68686905Y-155954819D01*
X68686905Y-155954819D02*
X69067857Y-155954819D01*
X69067857Y-155954819D02*
X69163095Y-156002438D01*
X69163095Y-156002438D02*
X69210714Y-156050057D01*
X69210714Y-156050057D02*
X69258333Y-156145295D01*
X69258333Y-156145295D02*
X69258333Y-156288152D01*
X69258333Y-156288152D02*
X69210714Y-156383390D01*
X69210714Y-156383390D02*
X69163095Y-156431009D01*
X69163095Y-156431009D02*
X69067857Y-156478628D01*
X69067857Y-156478628D02*
X68686905Y-156478628D01*
X69734524Y-156954819D02*
X69925000Y-156954819D01*
X69925000Y-156954819D02*
X70020238Y-156907200D01*
X70020238Y-156907200D02*
X70067857Y-156859580D01*
X70067857Y-156859580D02*
X70163095Y-156716723D01*
X70163095Y-156716723D02*
X70210714Y-156526247D01*
X70210714Y-156526247D02*
X70210714Y-156145295D01*
X70210714Y-156145295D02*
X70163095Y-156050057D01*
X70163095Y-156050057D02*
X70115476Y-156002438D01*
X70115476Y-156002438D02*
X70020238Y-155954819D01*
X70020238Y-155954819D02*
X69829762Y-155954819D01*
X69829762Y-155954819D02*
X69734524Y-156002438D01*
X69734524Y-156002438D02*
X69686905Y-156050057D01*
X69686905Y-156050057D02*
X69639286Y-156145295D01*
X69639286Y-156145295D02*
X69639286Y-156383390D01*
X69639286Y-156383390D02*
X69686905Y-156478628D01*
X69686905Y-156478628D02*
X69734524Y-156526247D01*
X69734524Y-156526247D02*
X69829762Y-156573866D01*
X69829762Y-156573866D02*
X70020238Y-156573866D01*
X70020238Y-156573866D02*
X70115476Y-156526247D01*
X70115476Y-156526247D02*
X70163095Y-156478628D01*
X70163095Y-156478628D02*
X70210714Y-156383390D01*
X39413577Y-103879200D02*
X39556434Y-103926819D01*
X39556434Y-103926819D02*
X39794529Y-103926819D01*
X39794529Y-103926819D02*
X39889767Y-103879200D01*
X39889767Y-103879200D02*
X39937386Y-103831580D01*
X39937386Y-103831580D02*
X39985005Y-103736342D01*
X39985005Y-103736342D02*
X39985005Y-103641104D01*
X39985005Y-103641104D02*
X39937386Y-103545866D01*
X39937386Y-103545866D02*
X39889767Y-103498247D01*
X39889767Y-103498247D02*
X39794529Y-103450628D01*
X39794529Y-103450628D02*
X39604053Y-103403009D01*
X39604053Y-103403009D02*
X39508815Y-103355390D01*
X39508815Y-103355390D02*
X39461196Y-103307771D01*
X39461196Y-103307771D02*
X39413577Y-103212533D01*
X39413577Y-103212533D02*
X39413577Y-103117295D01*
X39413577Y-103117295D02*
X39461196Y-103022057D01*
X39461196Y-103022057D02*
X39508815Y-102974438D01*
X39508815Y-102974438D02*
X39604053Y-102926819D01*
X39604053Y-102926819D02*
X39842148Y-102926819D01*
X39842148Y-102926819D02*
X39985005Y-102974438D01*
X40318339Y-102926819D02*
X40556434Y-103926819D01*
X40556434Y-103926819D02*
X40746910Y-103212533D01*
X40746910Y-103212533D02*
X40937386Y-103926819D01*
X40937386Y-103926819D02*
X41175482Y-102926819D01*
X41985005Y-103260152D02*
X41985005Y-103926819D01*
X41746910Y-102879200D02*
X41508815Y-103593485D01*
X41508815Y-103593485D02*
X42127862Y-103593485D01*
X68049693Y-83593517D02*
X67342587Y-82886410D01*
X67342587Y-82886410D02*
X67510945Y-82718051D01*
X67510945Y-82718051D02*
X67645632Y-82650708D01*
X67645632Y-82650708D02*
X67780319Y-82650708D01*
X67780319Y-82650708D02*
X67881335Y-82684380D01*
X67881335Y-82684380D02*
X68049693Y-82785395D01*
X68049693Y-82785395D02*
X68150709Y-82886410D01*
X68150709Y-82886410D02*
X68251724Y-83054769D01*
X68251724Y-83054769D02*
X68285396Y-83155784D01*
X68285396Y-83155784D02*
X68285396Y-83290471D01*
X68285396Y-83290471D02*
X68218052Y-83425158D01*
X68218052Y-83425158D02*
X68049693Y-83593517D01*
X68386411Y-81842586D02*
X68049693Y-82179303D01*
X68049693Y-82179303D02*
X68352739Y-82549693D01*
X68352739Y-82549693D02*
X68352739Y-82482349D01*
X68352739Y-82482349D02*
X68386411Y-82381334D01*
X68386411Y-82381334D02*
X68554770Y-82212975D01*
X68554770Y-82212975D02*
X68655785Y-82179303D01*
X68655785Y-82179303D02*
X68723128Y-82179303D01*
X68723128Y-82179303D02*
X68824144Y-82212975D01*
X68824144Y-82212975D02*
X68992502Y-82381334D01*
X68992502Y-82381334D02*
X69026174Y-82482349D01*
X69026174Y-82482349D02*
X69026174Y-82549693D01*
X69026174Y-82549693D02*
X68992502Y-82650708D01*
X68992502Y-82650708D02*
X68824144Y-82819067D01*
X68824144Y-82819067D02*
X68723128Y-82852738D01*
X68723128Y-82852738D02*
X68655785Y-82852738D01*
X64380667Y-44843200D02*
X64523524Y-44890819D01*
X64523524Y-44890819D02*
X64761619Y-44890819D01*
X64761619Y-44890819D02*
X64856857Y-44843200D01*
X64856857Y-44843200D02*
X64904476Y-44795580D01*
X64904476Y-44795580D02*
X64952095Y-44700342D01*
X64952095Y-44700342D02*
X64952095Y-44605104D01*
X64952095Y-44605104D02*
X64904476Y-44509866D01*
X64904476Y-44509866D02*
X64856857Y-44462247D01*
X64856857Y-44462247D02*
X64761619Y-44414628D01*
X64761619Y-44414628D02*
X64571143Y-44367009D01*
X64571143Y-44367009D02*
X64475905Y-44319390D01*
X64475905Y-44319390D02*
X64428286Y-44271771D01*
X64428286Y-44271771D02*
X64380667Y-44176533D01*
X64380667Y-44176533D02*
X64380667Y-44081295D01*
X64380667Y-44081295D02*
X64428286Y-43986057D01*
X64428286Y-43986057D02*
X64475905Y-43938438D01*
X64475905Y-43938438D02*
X64571143Y-43890819D01*
X64571143Y-43890819D02*
X64809238Y-43890819D01*
X64809238Y-43890819D02*
X64952095Y-43938438D01*
X65285429Y-43890819D02*
X65523524Y-44890819D01*
X65523524Y-44890819D02*
X65714000Y-44176533D01*
X65714000Y-44176533D02*
X65904476Y-44890819D01*
X65904476Y-44890819D02*
X66142572Y-43890819D01*
X67047333Y-44890819D02*
X66475905Y-44890819D01*
X66761619Y-44890819D02*
X66761619Y-43890819D01*
X66761619Y-43890819D02*
X66666381Y-44033676D01*
X66666381Y-44033676D02*
X66571143Y-44128914D01*
X66571143Y-44128914D02*
X66475905Y-44176533D01*
X36524819Y-144642857D02*
X36048628Y-144976190D01*
X36524819Y-145214285D02*
X35524819Y-145214285D01*
X35524819Y-145214285D02*
X35524819Y-144833333D01*
X35524819Y-144833333D02*
X35572438Y-144738095D01*
X35572438Y-144738095D02*
X35620057Y-144690476D01*
X35620057Y-144690476D02*
X35715295Y-144642857D01*
X35715295Y-144642857D02*
X35858152Y-144642857D01*
X35858152Y-144642857D02*
X35953390Y-144690476D01*
X35953390Y-144690476D02*
X36001009Y-144738095D01*
X36001009Y-144738095D02*
X36048628Y-144833333D01*
X36048628Y-144833333D02*
X36048628Y-145214285D01*
X36524819Y-143690476D02*
X36524819Y-144261904D01*
X36524819Y-143976190D02*
X35524819Y-143976190D01*
X35524819Y-143976190D02*
X35667676Y-144071428D01*
X35667676Y-144071428D02*
X35762914Y-144166666D01*
X35762914Y-144166666D02*
X35810533Y-144261904D01*
X36524819Y-142738095D02*
X36524819Y-143309523D01*
X36524819Y-143023809D02*
X35524819Y-143023809D01*
X35524819Y-143023809D02*
X35667676Y-143119047D01*
X35667676Y-143119047D02*
X35762914Y-143214285D01*
X35762914Y-143214285D02*
X35810533Y-143309523D01*
X63886476Y-91407200D02*
X64029333Y-91454819D01*
X64029333Y-91454819D02*
X64267428Y-91454819D01*
X64267428Y-91454819D02*
X64362666Y-91407200D01*
X64362666Y-91407200D02*
X64410285Y-91359580D01*
X64410285Y-91359580D02*
X64457904Y-91264342D01*
X64457904Y-91264342D02*
X64457904Y-91169104D01*
X64457904Y-91169104D02*
X64410285Y-91073866D01*
X64410285Y-91073866D02*
X64362666Y-91026247D01*
X64362666Y-91026247D02*
X64267428Y-90978628D01*
X64267428Y-90978628D02*
X64076952Y-90931009D01*
X64076952Y-90931009D02*
X63981714Y-90883390D01*
X63981714Y-90883390D02*
X63934095Y-90835771D01*
X63934095Y-90835771D02*
X63886476Y-90740533D01*
X63886476Y-90740533D02*
X63886476Y-90645295D01*
X63886476Y-90645295D02*
X63934095Y-90550057D01*
X63934095Y-90550057D02*
X63981714Y-90502438D01*
X63981714Y-90502438D02*
X64076952Y-90454819D01*
X64076952Y-90454819D02*
X64315047Y-90454819D01*
X64315047Y-90454819D02*
X64457904Y-90502438D01*
X64791238Y-90454819D02*
X65029333Y-91454819D01*
X65029333Y-91454819D02*
X65219809Y-90740533D01*
X65219809Y-90740533D02*
X65410285Y-91454819D01*
X65410285Y-91454819D02*
X65648381Y-90454819D01*
X66553142Y-91454819D02*
X65981714Y-91454819D01*
X66267428Y-91454819D02*
X66267428Y-90454819D01*
X66267428Y-90454819D02*
X66172190Y-90597676D01*
X66172190Y-90597676D02*
X66076952Y-90692914D01*
X66076952Y-90692914D02*
X65981714Y-90740533D01*
X67505523Y-91454819D02*
X66934095Y-91454819D01*
X67219809Y-91454819D02*
X67219809Y-90454819D01*
X67219809Y-90454819D02*
X67124571Y-90597676D01*
X67124571Y-90597676D02*
X67029333Y-90692914D01*
X67029333Y-90692914D02*
X66934095Y-90740533D01*
X52522095Y-125068819D02*
X52522095Y-125878342D01*
X52522095Y-125878342D02*
X52569714Y-125973580D01*
X52569714Y-125973580D02*
X52617333Y-126021200D01*
X52617333Y-126021200D02*
X52712571Y-126068819D01*
X52712571Y-126068819D02*
X52903047Y-126068819D01*
X52903047Y-126068819D02*
X52998285Y-126021200D01*
X52998285Y-126021200D02*
X53045904Y-125973580D01*
X53045904Y-125973580D02*
X53093523Y-125878342D01*
X53093523Y-125878342D02*
X53093523Y-125068819D01*
X53474476Y-125068819D02*
X54093523Y-125068819D01*
X54093523Y-125068819D02*
X53760190Y-125449771D01*
X53760190Y-125449771D02*
X53903047Y-125449771D01*
X53903047Y-125449771D02*
X53998285Y-125497390D01*
X53998285Y-125497390D02*
X54045904Y-125545009D01*
X54045904Y-125545009D02*
X54093523Y-125640247D01*
X54093523Y-125640247D02*
X54093523Y-125878342D01*
X54093523Y-125878342D02*
X54045904Y-125973580D01*
X54045904Y-125973580D02*
X53998285Y-126021200D01*
X53998285Y-126021200D02*
X53903047Y-126068819D01*
X53903047Y-126068819D02*
X53617333Y-126068819D01*
X53617333Y-126068819D02*
X53522095Y-126021200D01*
X53522095Y-126021200D02*
X53474476Y-125973580D01*
X37406482Y-82799693D02*
X38113589Y-82092587D01*
X38113589Y-82092587D02*
X38281948Y-82260945D01*
X38281948Y-82260945D02*
X38349291Y-82395632D01*
X38349291Y-82395632D02*
X38349291Y-82530319D01*
X38349291Y-82530319D02*
X38315619Y-82631335D01*
X38315619Y-82631335D02*
X38214604Y-82799693D01*
X38214604Y-82799693D02*
X38113589Y-82900709D01*
X38113589Y-82900709D02*
X37945230Y-83001724D01*
X37945230Y-83001724D02*
X37844215Y-83035396D01*
X37844215Y-83035396D02*
X37709528Y-83035396D01*
X37709528Y-83035396D02*
X37574841Y-82968052D01*
X37574841Y-82968052D02*
X37406482Y-82799693D01*
X38719680Y-82833365D02*
X38787024Y-82833365D01*
X38787024Y-82833365D02*
X38888039Y-82867037D01*
X38888039Y-82867037D02*
X39056398Y-83035396D01*
X39056398Y-83035396D02*
X39090070Y-83136411D01*
X39090070Y-83136411D02*
X39090070Y-83203754D01*
X39090070Y-83203754D02*
X39056398Y-83304770D01*
X39056398Y-83304770D02*
X38989054Y-83372113D01*
X38989054Y-83372113D02*
X38854367Y-83439457D01*
X38854367Y-83439457D02*
X38046245Y-83439457D01*
X38046245Y-83439457D02*
X38483978Y-83877189D01*
X67083333Y-36204819D02*
X66750000Y-35728628D01*
X66511905Y-36204819D02*
X66511905Y-35204819D01*
X66511905Y-35204819D02*
X66892857Y-35204819D01*
X66892857Y-35204819D02*
X66988095Y-35252438D01*
X66988095Y-35252438D02*
X67035714Y-35300057D01*
X67035714Y-35300057D02*
X67083333Y-35395295D01*
X67083333Y-35395295D02*
X67083333Y-35538152D01*
X67083333Y-35538152D02*
X67035714Y-35633390D01*
X67035714Y-35633390D02*
X66988095Y-35681009D01*
X66988095Y-35681009D02*
X66892857Y-35728628D01*
X66892857Y-35728628D02*
X66511905Y-35728628D01*
X68035714Y-36204819D02*
X67464286Y-36204819D01*
X67750000Y-36204819D02*
X67750000Y-35204819D01*
X67750000Y-35204819D02*
X67654762Y-35347676D01*
X67654762Y-35347676D02*
X67559524Y-35442914D01*
X67559524Y-35442914D02*
X67464286Y-35490533D01*
X51916667Y-116299200D02*
X52059524Y-116346819D01*
X52059524Y-116346819D02*
X52297619Y-116346819D01*
X52297619Y-116346819D02*
X52392857Y-116299200D01*
X52392857Y-116299200D02*
X52440476Y-116251580D01*
X52440476Y-116251580D02*
X52488095Y-116156342D01*
X52488095Y-116156342D02*
X52488095Y-116061104D01*
X52488095Y-116061104D02*
X52440476Y-115965866D01*
X52440476Y-115965866D02*
X52392857Y-115918247D01*
X52392857Y-115918247D02*
X52297619Y-115870628D01*
X52297619Y-115870628D02*
X52107143Y-115823009D01*
X52107143Y-115823009D02*
X52011905Y-115775390D01*
X52011905Y-115775390D02*
X51964286Y-115727771D01*
X51964286Y-115727771D02*
X51916667Y-115632533D01*
X51916667Y-115632533D02*
X51916667Y-115537295D01*
X51916667Y-115537295D02*
X51964286Y-115442057D01*
X51964286Y-115442057D02*
X52011905Y-115394438D01*
X52011905Y-115394438D02*
X52107143Y-115346819D01*
X52107143Y-115346819D02*
X52345238Y-115346819D01*
X52345238Y-115346819D02*
X52488095Y-115394438D01*
X52821429Y-115346819D02*
X53059524Y-116346819D01*
X53059524Y-116346819D02*
X53250000Y-115632533D01*
X53250000Y-115632533D02*
X53440476Y-116346819D01*
X53440476Y-116346819D02*
X53678572Y-115346819D01*
X54202381Y-115775390D02*
X54107143Y-115727771D01*
X54107143Y-115727771D02*
X54059524Y-115680152D01*
X54059524Y-115680152D02*
X54011905Y-115584914D01*
X54011905Y-115584914D02*
X54011905Y-115537295D01*
X54011905Y-115537295D02*
X54059524Y-115442057D01*
X54059524Y-115442057D02*
X54107143Y-115394438D01*
X54107143Y-115394438D02*
X54202381Y-115346819D01*
X54202381Y-115346819D02*
X54392857Y-115346819D01*
X54392857Y-115346819D02*
X54488095Y-115394438D01*
X54488095Y-115394438D02*
X54535714Y-115442057D01*
X54535714Y-115442057D02*
X54583333Y-115537295D01*
X54583333Y-115537295D02*
X54583333Y-115584914D01*
X54583333Y-115584914D02*
X54535714Y-115680152D01*
X54535714Y-115680152D02*
X54488095Y-115727771D01*
X54488095Y-115727771D02*
X54392857Y-115775390D01*
X54392857Y-115775390D02*
X54202381Y-115775390D01*
X54202381Y-115775390D02*
X54107143Y-115823009D01*
X54107143Y-115823009D02*
X54059524Y-115870628D01*
X54059524Y-115870628D02*
X54011905Y-115965866D01*
X54011905Y-115965866D02*
X54011905Y-116156342D01*
X54011905Y-116156342D02*
X54059524Y-116251580D01*
X54059524Y-116251580D02*
X54107143Y-116299200D01*
X54107143Y-116299200D02*
X54202381Y-116346819D01*
X54202381Y-116346819D02*
X54392857Y-116346819D01*
X54392857Y-116346819D02*
X54488095Y-116299200D01*
X54488095Y-116299200D02*
X54535714Y-116251580D01*
X54535714Y-116251580D02*
X54583333Y-116156342D01*
X54583333Y-116156342D02*
X54583333Y-115965866D01*
X54583333Y-115965866D02*
X54535714Y-115870628D01*
X54535714Y-115870628D02*
X54488095Y-115823009D01*
X54488095Y-115823009D02*
X54392857Y-115775390D01*
X61884819Y-123241666D02*
X61408628Y-123574999D01*
X61884819Y-123813094D02*
X60884819Y-123813094D01*
X60884819Y-123813094D02*
X60884819Y-123432142D01*
X60884819Y-123432142D02*
X60932438Y-123336904D01*
X60932438Y-123336904D02*
X60980057Y-123289285D01*
X60980057Y-123289285D02*
X61075295Y-123241666D01*
X61075295Y-123241666D02*
X61218152Y-123241666D01*
X61218152Y-123241666D02*
X61313390Y-123289285D01*
X61313390Y-123289285D02*
X61361009Y-123336904D01*
X61361009Y-123336904D02*
X61408628Y-123432142D01*
X61408628Y-123432142D02*
X61408628Y-123813094D01*
X60884819Y-122336904D02*
X60884819Y-122813094D01*
X60884819Y-122813094D02*
X61361009Y-122860713D01*
X61361009Y-122860713D02*
X61313390Y-122813094D01*
X61313390Y-122813094D02*
X61265771Y-122717856D01*
X61265771Y-122717856D02*
X61265771Y-122479761D01*
X61265771Y-122479761D02*
X61313390Y-122384523D01*
X61313390Y-122384523D02*
X61361009Y-122336904D01*
X61361009Y-122336904D02*
X61456247Y-122289285D01*
X61456247Y-122289285D02*
X61694342Y-122289285D01*
X61694342Y-122289285D02*
X61789580Y-122336904D01*
X61789580Y-122336904D02*
X61837200Y-122384523D01*
X61837200Y-122384523D02*
X61884819Y-122479761D01*
X61884819Y-122479761D02*
X61884819Y-122717856D01*
X61884819Y-122717856D02*
X61837200Y-122813094D01*
X61837200Y-122813094D02*
X61789580Y-122860713D01*
D14*
X49571428Y-87367219D02*
X50238095Y-87367219D01*
X50523809Y-88414838D02*
X49571428Y-88414838D01*
X49571428Y-88414838D02*
X49571428Y-86414838D01*
X49571428Y-86414838D02*
X50523809Y-86414838D01*
X51380952Y-88414838D02*
X51380952Y-86414838D01*
X51380952Y-86414838D02*
X52523809Y-88414838D01*
X52523809Y-88414838D02*
X52523809Y-86414838D01*
X54619047Y-88224361D02*
X54523809Y-88319600D01*
X54523809Y-88319600D02*
X54238095Y-88414838D01*
X54238095Y-88414838D02*
X54047619Y-88414838D01*
X54047619Y-88414838D02*
X53761904Y-88319600D01*
X53761904Y-88319600D02*
X53571428Y-88129123D01*
X53571428Y-88129123D02*
X53476190Y-87938647D01*
X53476190Y-87938647D02*
X53380952Y-87557695D01*
X53380952Y-87557695D02*
X53380952Y-87271980D01*
X53380952Y-87271980D02*
X53476190Y-86891028D01*
X53476190Y-86891028D02*
X53571428Y-86700552D01*
X53571428Y-86700552D02*
X53761904Y-86510076D01*
X53761904Y-86510076D02*
X54047619Y-86414838D01*
X54047619Y-86414838D02*
X54238095Y-86414838D01*
X54238095Y-86414838D02*
X54523809Y-86510076D01*
X54523809Y-86510076D02*
X54619047Y-86605314D01*
X56523809Y-88414838D02*
X55380952Y-88414838D01*
X55952380Y-88414838D02*
X55952380Y-86414838D01*
X55952380Y-86414838D02*
X55761904Y-86700552D01*
X55761904Y-86700552D02*
X55571428Y-86891028D01*
X55571428Y-86891028D02*
X55380952Y-86986266D01*
D11*
X51916667Y-91407200D02*
X52059524Y-91454819D01*
X52059524Y-91454819D02*
X52297619Y-91454819D01*
X52297619Y-91454819D02*
X52392857Y-91407200D01*
X52392857Y-91407200D02*
X52440476Y-91359580D01*
X52440476Y-91359580D02*
X52488095Y-91264342D01*
X52488095Y-91264342D02*
X52488095Y-91169104D01*
X52488095Y-91169104D02*
X52440476Y-91073866D01*
X52440476Y-91073866D02*
X52392857Y-91026247D01*
X52392857Y-91026247D02*
X52297619Y-90978628D01*
X52297619Y-90978628D02*
X52107143Y-90931009D01*
X52107143Y-90931009D02*
X52011905Y-90883390D01*
X52011905Y-90883390D02*
X51964286Y-90835771D01*
X51964286Y-90835771D02*
X51916667Y-90740533D01*
X51916667Y-90740533D02*
X51916667Y-90645295D01*
X51916667Y-90645295D02*
X51964286Y-90550057D01*
X51964286Y-90550057D02*
X52011905Y-90502438D01*
X52011905Y-90502438D02*
X52107143Y-90454819D01*
X52107143Y-90454819D02*
X52345238Y-90454819D01*
X52345238Y-90454819D02*
X52488095Y-90502438D01*
X52821429Y-90454819D02*
X53059524Y-91454819D01*
X53059524Y-91454819D02*
X53250000Y-90740533D01*
X53250000Y-90740533D02*
X53440476Y-91454819D01*
X53440476Y-91454819D02*
X53678572Y-90454819D01*
X54488095Y-90454819D02*
X54297619Y-90454819D01*
X54297619Y-90454819D02*
X54202381Y-90502438D01*
X54202381Y-90502438D02*
X54154762Y-90550057D01*
X54154762Y-90550057D02*
X54059524Y-90692914D01*
X54059524Y-90692914D02*
X54011905Y-90883390D01*
X54011905Y-90883390D02*
X54011905Y-91264342D01*
X54011905Y-91264342D02*
X54059524Y-91359580D01*
X54059524Y-91359580D02*
X54107143Y-91407200D01*
X54107143Y-91407200D02*
X54202381Y-91454819D01*
X54202381Y-91454819D02*
X54392857Y-91454819D01*
X54392857Y-91454819D02*
X54488095Y-91407200D01*
X54488095Y-91407200D02*
X54535714Y-91359580D01*
X54535714Y-91359580D02*
X54583333Y-91264342D01*
X54583333Y-91264342D02*
X54583333Y-91026247D01*
X54583333Y-91026247D02*
X54535714Y-90931009D01*
X54535714Y-90931009D02*
X54488095Y-90883390D01*
X54488095Y-90883390D02*
X54392857Y-90835771D01*
X54392857Y-90835771D02*
X54202381Y-90835771D01*
X54202381Y-90835771D02*
X54107143Y-90883390D01*
X54107143Y-90883390D02*
X54059524Y-90931009D01*
X54059524Y-90931009D02*
X54011905Y-91026247D01*
X40150057Y-84532738D02*
X40102438Y-84627976D01*
X40102438Y-84627976D02*
X40007200Y-84723214D01*
X40007200Y-84723214D02*
X39864342Y-84866071D01*
X39864342Y-84866071D02*
X39816723Y-84961309D01*
X39816723Y-84961309D02*
X39816723Y-85056547D01*
X40054819Y-85008928D02*
X40007200Y-85104166D01*
X40007200Y-85104166D02*
X39911961Y-85199404D01*
X39911961Y-85199404D02*
X39721485Y-85247023D01*
X39721485Y-85247023D02*
X39388152Y-85247023D01*
X39388152Y-85247023D02*
X39197676Y-85199404D01*
X39197676Y-85199404D02*
X39102438Y-85104166D01*
X39102438Y-85104166D02*
X39054819Y-85008928D01*
X39054819Y-85008928D02*
X39054819Y-84818452D01*
X39054819Y-84818452D02*
X39102438Y-84723214D01*
X39102438Y-84723214D02*
X39197676Y-84627976D01*
X39197676Y-84627976D02*
X39388152Y-84580357D01*
X39388152Y-84580357D02*
X39721485Y-84580357D01*
X39721485Y-84580357D02*
X39911961Y-84627976D01*
X39911961Y-84627976D02*
X40007200Y-84723214D01*
X40007200Y-84723214D02*
X40054819Y-84818452D01*
X40054819Y-84818452D02*
X40054819Y-85008928D01*
X39150057Y-84199404D02*
X39102438Y-84151785D01*
X39102438Y-84151785D02*
X39054819Y-84056547D01*
X39054819Y-84056547D02*
X39054819Y-83818452D01*
X39054819Y-83818452D02*
X39102438Y-83723214D01*
X39102438Y-83723214D02*
X39150057Y-83675595D01*
X39150057Y-83675595D02*
X39245295Y-83627976D01*
X39245295Y-83627976D02*
X39340533Y-83627976D01*
X39340533Y-83627976D02*
X39483390Y-83675595D01*
X39483390Y-83675595D02*
X40054819Y-84247023D01*
X40054819Y-84247023D02*
X40054819Y-83627976D01*
X39470667Y-91407200D02*
X39613524Y-91454819D01*
X39613524Y-91454819D02*
X39851619Y-91454819D01*
X39851619Y-91454819D02*
X39946857Y-91407200D01*
X39946857Y-91407200D02*
X39994476Y-91359580D01*
X39994476Y-91359580D02*
X40042095Y-91264342D01*
X40042095Y-91264342D02*
X40042095Y-91169104D01*
X40042095Y-91169104D02*
X39994476Y-91073866D01*
X39994476Y-91073866D02*
X39946857Y-91026247D01*
X39946857Y-91026247D02*
X39851619Y-90978628D01*
X39851619Y-90978628D02*
X39661143Y-90931009D01*
X39661143Y-90931009D02*
X39565905Y-90883390D01*
X39565905Y-90883390D02*
X39518286Y-90835771D01*
X39518286Y-90835771D02*
X39470667Y-90740533D01*
X39470667Y-90740533D02*
X39470667Y-90645295D01*
X39470667Y-90645295D02*
X39518286Y-90550057D01*
X39518286Y-90550057D02*
X39565905Y-90502438D01*
X39565905Y-90502438D02*
X39661143Y-90454819D01*
X39661143Y-90454819D02*
X39899238Y-90454819D01*
X39899238Y-90454819D02*
X40042095Y-90502438D01*
X40375429Y-90454819D02*
X40613524Y-91454819D01*
X40613524Y-91454819D02*
X40804000Y-90740533D01*
X40804000Y-90740533D02*
X40994476Y-91454819D01*
X40994476Y-91454819D02*
X41232572Y-90454819D01*
X41518286Y-90454819D02*
X42137333Y-90454819D01*
X42137333Y-90454819D02*
X41804000Y-90835771D01*
X41804000Y-90835771D02*
X41946857Y-90835771D01*
X41946857Y-90835771D02*
X42042095Y-90883390D01*
X42042095Y-90883390D02*
X42089714Y-90931009D01*
X42089714Y-90931009D02*
X42137333Y-91026247D01*
X42137333Y-91026247D02*
X42137333Y-91264342D01*
X42137333Y-91264342D02*
X42089714Y-91359580D01*
X42089714Y-91359580D02*
X42042095Y-91407200D01*
X42042095Y-91407200D02*
X41946857Y-91454819D01*
X41946857Y-91454819D02*
X41661143Y-91454819D01*
X41661143Y-91454819D02*
X41565905Y-91407200D01*
X41565905Y-91407200D02*
X41518286Y-91359580D01*
X38134038Y-53509056D02*
X37426932Y-52801949D01*
X37426932Y-52801949D02*
X37595290Y-52633590D01*
X37595290Y-52633590D02*
X37729977Y-52566247D01*
X37729977Y-52566247D02*
X37864664Y-52566247D01*
X37864664Y-52566247D02*
X37965680Y-52599919D01*
X37965680Y-52599919D02*
X38134038Y-52700934D01*
X38134038Y-52700934D02*
X38235054Y-52801949D01*
X38235054Y-52801949D02*
X38336069Y-52970308D01*
X38336069Y-52970308D02*
X38369741Y-53071323D01*
X38369741Y-53071323D02*
X38369741Y-53206010D01*
X38369741Y-53206010D02*
X38302397Y-53340697D01*
X38302397Y-53340697D02*
X38134038Y-53509056D01*
X38066695Y-52162186D02*
X38504428Y-51724453D01*
X38504428Y-51724453D02*
X38538099Y-52229529D01*
X38538099Y-52229529D02*
X38639115Y-52128514D01*
X38639115Y-52128514D02*
X38740130Y-52094842D01*
X38740130Y-52094842D02*
X38807473Y-52094842D01*
X38807473Y-52094842D02*
X38908489Y-52128514D01*
X38908489Y-52128514D02*
X39076847Y-52296873D01*
X39076847Y-52296873D02*
X39110519Y-52397888D01*
X39110519Y-52397888D02*
X39110519Y-52465232D01*
X39110519Y-52465232D02*
X39076847Y-52566247D01*
X39076847Y-52566247D02*
X38874817Y-52768277D01*
X38874817Y-52768277D02*
X38773802Y-52801949D01*
X38773802Y-52801949D02*
X38706458Y-52801949D01*
X57532142Y-33024819D02*
X57198809Y-32548628D01*
X56960714Y-33024819D02*
X56960714Y-32024819D01*
X56960714Y-32024819D02*
X57341666Y-32024819D01*
X57341666Y-32024819D02*
X57436904Y-32072438D01*
X57436904Y-32072438D02*
X57484523Y-32120057D01*
X57484523Y-32120057D02*
X57532142Y-32215295D01*
X57532142Y-32215295D02*
X57532142Y-32358152D01*
X57532142Y-32358152D02*
X57484523Y-32453390D01*
X57484523Y-32453390D02*
X57436904Y-32501009D01*
X57436904Y-32501009D02*
X57341666Y-32548628D01*
X57341666Y-32548628D02*
X56960714Y-32548628D01*
X58484523Y-33024819D02*
X57913095Y-33024819D01*
X58198809Y-33024819D02*
X58198809Y-32024819D01*
X58198809Y-32024819D02*
X58103571Y-32167676D01*
X58103571Y-32167676D02*
X58008333Y-32262914D01*
X58008333Y-32262914D02*
X57913095Y-32310533D01*
X58865476Y-32120057D02*
X58913095Y-32072438D01*
X58913095Y-32072438D02*
X59008333Y-32024819D01*
X59008333Y-32024819D02*
X59246428Y-32024819D01*
X59246428Y-32024819D02*
X59341666Y-32072438D01*
X59341666Y-32072438D02*
X59389285Y-32120057D01*
X59389285Y-32120057D02*
X59436904Y-32215295D01*
X59436904Y-32215295D02*
X59436904Y-32310533D01*
X59436904Y-32310533D02*
X59389285Y-32453390D01*
X59389285Y-32453390D02*
X58817857Y-33024819D01*
X58817857Y-33024819D02*
X59436904Y-33024819D01*
%TO.C,R4*%
X58477500Y-119512742D02*
X58477500Y-119987258D01*
X59522500Y-119512742D02*
X59522500Y-119987258D01*
%TO.C,C1*%
X56261252Y-124265000D02*
X55738748Y-124265000D01*
X56261252Y-125735000D02*
X55738748Y-125735000D01*
%TO.C,D4*%
X65037433Y-54175589D02*
X66734489Y-52478533D01*
X66663779Y-55801935D02*
X65037433Y-54175589D01*
X66663779Y-55801935D02*
X67088043Y-55801935D01*
X68572967Y-54317011D02*
X66734489Y-52478533D01*
X68572967Y-54317011D02*
X67088043Y-55801935D01*
%TO.C,U1*%
X47220000Y-139107000D02*
X47220000Y-156252000D01*
X49125000Y-158157000D02*
X63095000Y-158157000D01*
X51606000Y-159167000D02*
X51606000Y-158157000D01*
X60101272Y-159667000D02*
X52106000Y-159667000D01*
X60605000Y-158157000D02*
X60601272Y-159167272D01*
X63095000Y-137202000D02*
X49125000Y-137202000D01*
X65000000Y-139107000D02*
X65000000Y-156252000D01*
X47220000Y-139107000D02*
G75*
G02*
X49125000Y-137202000I1905000J0D01*
G01*
X49125000Y-158157000D02*
G75*
G02*
X47220000Y-156252000I0J1905000D01*
G01*
X52106000Y-159667000D02*
G75*
G02*
X51606000Y-159167000I0J500000D01*
G01*
X60601272Y-159167272D02*
G75*
G02*
X60101272Y-159667002I-500022J292D01*
G01*
X63095000Y-137202000D02*
G75*
G02*
X65000000Y-139107000I0J-1905000D01*
G01*
X65000000Y-156256000D02*
G75*
G02*
X63095000Y-158161000I-1905001J1D01*
G01*
D15*
X64188000Y-157024000D02*
G75*
G02*
X63684000Y-157024000I-252000J0D01*
G01*
X63684000Y-157024000D02*
G75*
G02*
X64188000Y-157024000I252000J0D01*
G01*
X65462000Y-157741000D02*
G75*
G02*
X64958000Y-157741000I-252000J0D01*
G01*
X64958000Y-157741000D02*
G75*
G02*
X65462000Y-157741000I252000J0D01*
G01*
%TO.C,Q1*%
D11*
X67552500Y-30740000D02*
X69072500Y-30740000D01*
X67552500Y-31740000D02*
X67552500Y-30740000D01*
X67552500Y-33860000D02*
X67552500Y-32860000D01*
X69072500Y-30740000D02*
X69072500Y-30790000D01*
X69072500Y-31910000D02*
X69072500Y-32690000D01*
X69072500Y-33810000D02*
X69072500Y-33860000D01*
X69072500Y-33860000D02*
X67552500Y-33860000D01*
X69612500Y-32680000D02*
X69372500Y-32350000D01*
X69852500Y-32350000D01*
X69612500Y-32680000D01*
G36*
X69612500Y-32680000D02*
G01*
X69372500Y-32350000D01*
X69852500Y-32350000D01*
X69612500Y-32680000D01*
G37*
%TO.C,Q3*%
X36890000Y-139552500D02*
X37890000Y-139552500D01*
X36890000Y-141072500D02*
X36890000Y-139552500D01*
X36940000Y-141072500D02*
X36890000Y-141072500D01*
X38840000Y-141072500D02*
X38060000Y-141072500D01*
X39010000Y-139552500D02*
X40010000Y-139552500D01*
X40010000Y-139552500D02*
X40010000Y-141072500D01*
X40010000Y-141072500D02*
X39960000Y-141072500D01*
X38070000Y-141612500D02*
X38400000Y-141372500D01*
X38400000Y-141852500D01*
X38070000Y-141612500D01*
G36*
X38400000Y-141852500D02*
G01*
X38070000Y-141612500D01*
X38400000Y-141372500D01*
X38400000Y-141852500D01*
G37*
%TO.C,SW10*%
X63536000Y-108743000D02*
X63536000Y-105633000D01*
X64906000Y-104938000D02*
X66666000Y-104938000D01*
X64906000Y-109438000D02*
X66666000Y-109438000D01*
X68036000Y-108743000D02*
X68036000Y-105633000D01*
D14*
X64136000Y-110414000D02*
G75*
G02*
X63936000Y-110414000I-100000J0D01*
G01*
X63936000Y-110414000D02*
G75*
G02*
X64136000Y-110414000I100000J0D01*
G01*
%TO.C,SW9*%
D11*
X63536000Y-121189000D02*
X63536000Y-118079000D01*
X64906000Y-117384000D02*
X66666000Y-117384000D01*
X64906000Y-121884000D02*
X66666000Y-121884000D01*
X68036000Y-121189000D02*
X68036000Y-118079000D01*
D14*
X64136000Y-122860000D02*
G75*
G02*
X63936000Y-122860000I-100000J0D01*
G01*
X63936000Y-122860000D02*
G75*
G02*
X64136000Y-122860000I100000J0D01*
G01*
%TO.C,C3*%
D11*
X45740000Y-35359420D02*
X45740000Y-35640580D01*
X46760000Y-35359420D02*
X46760000Y-35640580D01*
%TO.C,SW5*%
X38644000Y-121189000D02*
X38644000Y-118079000D01*
X40014000Y-117384000D02*
X41774000Y-117384000D01*
X40014000Y-121884000D02*
X41774000Y-121884000D01*
X43144000Y-121189000D02*
X43144000Y-118079000D01*
D14*
X39244000Y-122860000D02*
G75*
G02*
X39044000Y-122860000I-100000J0D01*
G01*
X39044000Y-122860000D02*
G75*
G02*
X39244000Y-122860000I100000J0D01*
G01*
%TO.C,SW2*%
D11*
X38644000Y-39131000D02*
X38644000Y-42241000D01*
X41774000Y-38436000D02*
X40014000Y-38436000D01*
X41774000Y-42936000D02*
X40014000Y-42936000D01*
X43144000Y-39131000D02*
X43144000Y-42241000D01*
D14*
X42744000Y-37460000D02*
G75*
G02*
X42544000Y-37460000I-100000J0D01*
G01*
X42544000Y-37460000D02*
G75*
G02*
X42744000Y-37460000I100000J0D01*
G01*
%TO.C,SW7*%
D11*
X51090000Y-108743000D02*
X51090000Y-105633000D01*
X52460000Y-104938000D02*
X54220000Y-104938000D01*
X52460000Y-109438000D02*
X54220000Y-109438000D01*
X55590000Y-108743000D02*
X55590000Y-105633000D01*
D14*
X51690000Y-110414000D02*
G75*
G02*
X51490000Y-110414000I-100000J0D01*
G01*
X51490000Y-110414000D02*
G75*
G02*
X51690000Y-110414000I100000J0D01*
G01*
%TO.C,R9*%
D11*
X69662258Y-154477500D02*
X69187742Y-154477500D01*
X69662258Y-155522500D02*
X69187742Y-155522500D01*
%TO.C,SW4*%
X38586910Y-108769000D02*
X38586910Y-105659000D01*
X39956910Y-104964000D02*
X41716910Y-104964000D01*
X39956910Y-109464000D02*
X41716910Y-109464000D01*
X43086910Y-108769000D02*
X43086910Y-105659000D01*
D14*
X39186910Y-110440000D02*
G75*
G02*
X38986910Y-110440000I-100000J0D01*
G01*
X38986910Y-110440000D02*
G75*
G02*
X39186910Y-110440000I100000J0D01*
G01*
%TO.C,D5*%
D11*
X65249565Y-81040379D02*
X65249565Y-81464643D01*
X65249565Y-81040379D02*
X66875911Y-79414033D01*
X66734489Y-82949567D02*
X65249565Y-81464643D01*
X66734489Y-82949567D02*
X68572967Y-81111089D01*
X66875911Y-79414033D02*
X68572967Y-81111089D01*
%TO.C,SW1*%
X63500000Y-39131000D02*
X63500000Y-42241000D01*
X66630000Y-38436000D02*
X64870000Y-38436000D01*
X66630000Y-42936000D02*
X64870000Y-42936000D01*
X68000000Y-39131000D02*
X68000000Y-42241000D01*
D14*
X67600000Y-37460000D02*
G75*
G02*
X67400000Y-37460000I-100000J0D01*
G01*
X67400000Y-37460000D02*
G75*
G02*
X67600000Y-37460000I100000J0D01*
G01*
%TO.C,R11*%
D11*
X36977500Y-144237258D02*
X36977500Y-143762742D01*
X38022500Y-144237258D02*
X38022500Y-143762742D01*
%TO.C,SW11*%
X63536000Y-96297000D02*
X63536000Y-93187000D01*
X64906000Y-92492000D02*
X66666000Y-92492000D01*
X64906000Y-96992000D02*
X66666000Y-96992000D01*
X68036000Y-96297000D02*
X68036000Y-93187000D01*
D14*
X64136000Y-97968000D02*
G75*
G02*
X63936000Y-97968000I-100000J0D01*
G01*
X63936000Y-97968000D02*
G75*
G02*
X64136000Y-97968000I100000J0D01*
G01*
%TO.C,U3*%
D11*
X50524000Y-126454000D02*
X56044000Y-126454000D01*
X50524000Y-126629000D02*
X50524000Y-126454000D01*
X50524000Y-134874000D02*
X50524000Y-134699000D01*
X56044000Y-126454000D02*
X56044000Y-126629000D01*
X56044000Y-134699000D02*
X56044000Y-134874000D01*
X56044000Y-134874000D02*
X50524000Y-134874000D01*
X49784000Y-126624000D02*
X49444000Y-126154000D01*
X50124000Y-126154000D01*
X49784000Y-126624000D01*
G36*
X49784000Y-126624000D02*
G01*
X49444000Y-126154000D01*
X50124000Y-126154000D01*
X49784000Y-126624000D01*
G37*
%TO.C,D2*%
X38101933Y-81111089D02*
X39586857Y-79626165D01*
X38101933Y-81111089D02*
X39940411Y-82949567D01*
X40011121Y-79626165D02*
X39586857Y-79626165D01*
X40011121Y-79626165D02*
X41637467Y-81252511D01*
X41637467Y-81252511D02*
X39940411Y-82949567D01*
%TO.C,R1*%
X68477500Y-35987258D02*
X68477500Y-35512742D01*
X69522500Y-35987258D02*
X69522500Y-35512742D01*
%TO.C,SW8*%
X51090000Y-121189000D02*
X51090000Y-118079000D01*
X52460000Y-117384000D02*
X54220000Y-117384000D01*
X52460000Y-121884000D02*
X54220000Y-121884000D01*
X55590000Y-121189000D02*
X55590000Y-118079000D01*
D14*
X51690000Y-122860000D02*
G75*
G02*
X51490000Y-122860000I-100000J0D01*
G01*
X51490000Y-122860000D02*
G75*
G02*
X51690000Y-122860000I100000J0D01*
G01*
%TO.C,R5*%
D11*
X59477500Y-122837742D02*
X59477500Y-123312258D01*
X60522500Y-122837742D02*
X60522500Y-123312258D01*
%TO.C,ENC1*%
D16*
X70537455Y-67714045D02*
G75*
G02*
X36137455Y-67714045I-17200000J0D01*
G01*
X36137455Y-67714045D02*
G75*
G02*
X70537455Y-67714045I17200000J0D01*
G01*
%TO.C,SW6*%
D11*
X51090000Y-96297000D02*
X51090000Y-93187000D01*
X52460000Y-92492000D02*
X54220000Y-92492000D01*
X52460000Y-96992000D02*
X54220000Y-96992000D01*
X55590000Y-96297000D02*
X55590000Y-93187000D01*
D14*
X51690000Y-97968000D02*
G75*
G02*
X51490000Y-97968000I-100000J0D01*
G01*
X51490000Y-97968000D02*
G75*
G02*
X51690000Y-97968000I100000J0D01*
G01*
%TO.C,Q2*%
D11*
X40440000Y-83677500D02*
X41440000Y-83677500D01*
X40440000Y-85197500D02*
X40440000Y-83677500D01*
X40490000Y-85197500D02*
X40440000Y-85197500D01*
X42390000Y-85197500D02*
X41610000Y-85197500D01*
X42560000Y-83677500D02*
X43560000Y-83677500D01*
X43560000Y-83677500D02*
X43560000Y-85197500D01*
X43560000Y-85197500D02*
X43510000Y-85197500D01*
X41620000Y-85737500D02*
X41950000Y-85497500D01*
X41950000Y-85977500D01*
X41620000Y-85737500D01*
G36*
X41950000Y-85977500D02*
G01*
X41620000Y-85737500D01*
X41950000Y-85497500D01*
X41950000Y-85977500D01*
G37*
%TO.C,SW3*%
X38644000Y-96297000D02*
X38644000Y-93187000D01*
X40014000Y-92492000D02*
X41774000Y-92492000D01*
X40014000Y-96992000D02*
X41774000Y-96992000D01*
X43144000Y-96297000D02*
X43144000Y-93187000D01*
D14*
X39244000Y-97968000D02*
G75*
G02*
X39044000Y-97968000I-100000J0D01*
G01*
X39044000Y-97968000D02*
G75*
G02*
X39244000Y-97968000I100000J0D01*
G01*
%TO.C,D3*%
D11*
X39798989Y-56014067D02*
X38101933Y-54317011D01*
X39940411Y-52478533D02*
X38101933Y-54317011D01*
X39940411Y-52478533D02*
X41425335Y-53963457D01*
X41425335Y-54387721D02*
X39798989Y-56014067D01*
X41425335Y-54387721D02*
X41425335Y-53963457D01*
%TO.C,R12*%
D17*
X57937742Y-33477500D02*
X58412258Y-33477500D01*
X57937742Y-34522500D02*
X58412258Y-34522500D01*
%TD*%
M02*
