%TF.GenerationSoftware,KiCad,Pcbnew,10.0.3*%
%TF.CreationDate,2026-08-31T10:36:25-07:00*%
%TF.ProjectId,c6remote,63367265-6d6f-4746-952e-6b696361645f,rev?*%
%TF.SameCoordinates,Original*%
%TF.FileFunction,Legend,Top*%
%TF.FilePolarity,Positive*%
%FSLAX46Y46*%
G04 Gerber Fmt 4.6, Leading zero omitted, Abs format (unit mm)*
G04 Created by KiCad (PCBNEW 10.0.3) date 2026-08-31 10:36:25*
%MOMM*%
%LPD*%
G01*
G04 APERTURE LIST*
%ADD10C,0.000000*%
%ADD11C,0.150000*%
%ADD12C,0.800000*%
%ADD13C,0.187500*%
%ADD14C,0.175000*%
%ADD15C,0.200000*%
%ADD16C,0.504000*%
%ADD17C,0.250000*%
G04 APERTURE END LIST*
D10*
G36*
X53825998Y-45736572D02*
G01*
X53836031Y-45736960D01*
X53846035Y-45737602D01*
X53856004Y-45738497D01*
X53865936Y-45739641D01*
X53875825Y-45741033D01*
X53885669Y-45742668D01*
X53895462Y-45744545D01*
X53905201Y-45746661D01*
X53914882Y-45749013D01*
X53924500Y-45751598D01*
X53934052Y-45754413D01*
X53943533Y-45757457D01*
X53952940Y-45760726D01*
X53962268Y-45764217D01*
X53971513Y-45767928D01*
X53980661Y-45771856D01*
X53989696Y-45775999D01*
X53998614Y-45780352D01*
X54007412Y-45784915D01*
X54016085Y-45789684D01*
X54024629Y-45794657D01*
X54033040Y-45799830D01*
X54041314Y-45805202D01*
X54049447Y-45810768D01*
X54057435Y-45816527D01*
X54065273Y-45822477D01*
X54072959Y-45828613D01*
X54080487Y-45834934D01*
X54087853Y-45841437D01*
X54095054Y-45848118D01*
X54102086Y-45854976D01*
X54109107Y-45862171D01*
X54115931Y-45869514D01*
X54122557Y-45877005D01*
X54128984Y-45884639D01*
X54135210Y-45892414D01*
X54141234Y-45900327D01*
X54147055Y-45908376D01*
X54152671Y-45916558D01*
X54158080Y-45924870D01*
X54163282Y-45933310D01*
X54168275Y-45941875D01*
X54173058Y-45950561D01*
X54177629Y-45959367D01*
X54181987Y-45968290D01*
X54186131Y-45977326D01*
X54190059Y-45986474D01*
X54193760Y-45995719D01*
X54197222Y-46005047D01*
X54200445Y-46014454D01*
X54203429Y-46023935D01*
X54206175Y-46033487D01*
X54208681Y-46043106D01*
X54210949Y-46052786D01*
X54212979Y-46062525D01*
X54214769Y-46072319D01*
X54216321Y-46082162D01*
X54217634Y-46092052D01*
X54218709Y-46101983D01*
X54219544Y-46111953D01*
X54220141Y-46121957D01*
X54220499Y-46131990D01*
X54220619Y-46142049D01*
X54220499Y-46151945D01*
X54220141Y-46161836D01*
X54219544Y-46171716D01*
X54218709Y-46181580D01*
X54217634Y-46191422D01*
X54216321Y-46201236D01*
X54214770Y-46211019D01*
X54212979Y-46220763D01*
X54210950Y-46230464D01*
X54208682Y-46240116D01*
X54206175Y-46249713D01*
X54203429Y-46259251D01*
X54200445Y-46268724D01*
X54197222Y-46278127D01*
X54193760Y-46287453D01*
X54190059Y-46296698D01*
X54186131Y-46305846D01*
X54181987Y-46314883D01*
X54177629Y-46323805D01*
X54173058Y-46332611D01*
X54168275Y-46341298D01*
X54163282Y-46349862D01*
X54158080Y-46358302D01*
X54152670Y-46366614D01*
X54147055Y-46374796D01*
X54141234Y-46382846D01*
X54135210Y-46390759D01*
X54128984Y-46398534D01*
X54122557Y-46406168D01*
X54115931Y-46413658D01*
X54109107Y-46421002D01*
X54102086Y-46428196D01*
X54095054Y-46435054D01*
X54087853Y-46441736D01*
X54080487Y-46448239D01*
X54072959Y-46454560D01*
X54065273Y-46460696D01*
X54057435Y-46466645D01*
X54049447Y-46472404D01*
X54041314Y-46477971D01*
X54033040Y-46483342D01*
X54024629Y-46488516D01*
X54016085Y-46493488D01*
X54007412Y-46498257D01*
X53998614Y-46502820D01*
X53989696Y-46507174D01*
X53980661Y-46511317D01*
X53971513Y-46515245D01*
X53962268Y-46518955D01*
X53952940Y-46522447D01*
X53943533Y-46525715D01*
X53934052Y-46528759D01*
X53924500Y-46531575D01*
X53914882Y-46534160D01*
X53905201Y-46536511D01*
X53895462Y-46538627D01*
X53885669Y-46540504D01*
X53875826Y-46542139D01*
X53865936Y-46543531D01*
X53856004Y-46544675D01*
X53846035Y-46545570D01*
X53836031Y-46546213D01*
X53825998Y-46546600D01*
X53815939Y-46546730D01*
X53806042Y-46546600D01*
X53796152Y-46546213D01*
X53786272Y-46545570D01*
X53776408Y-46544675D01*
X53766566Y-46543531D01*
X53756752Y-46542139D01*
X53746969Y-46540504D01*
X53737225Y-46538627D01*
X53727524Y-46536511D01*
X53717872Y-46534160D01*
X53708274Y-46531575D01*
X53698736Y-46528759D01*
X53689263Y-46525715D01*
X53679861Y-46522447D01*
X53670534Y-46518955D01*
X53661289Y-46515245D01*
X53652142Y-46511317D01*
X53643105Y-46507174D01*
X53634182Y-46502820D01*
X53625376Y-46498257D01*
X53616690Y-46493488D01*
X53608125Y-46488516D01*
X53599686Y-46483342D01*
X53591373Y-46477971D01*
X53583191Y-46472404D01*
X53575142Y-46466645D01*
X53567229Y-46460696D01*
X53559454Y-46454560D01*
X53551820Y-46448239D01*
X53544330Y-46441736D01*
X53536986Y-46435054D01*
X53529792Y-46428196D01*
X53522923Y-46421002D01*
X53516212Y-46413658D01*
X53509664Y-46406168D01*
X53503284Y-46398534D01*
X53497077Y-46390759D01*
X53491050Y-46382845D01*
X53485207Y-46374796D01*
X53479554Y-46366614D01*
X53474096Y-46358302D01*
X53468839Y-46349862D01*
X53463788Y-46341298D01*
X53458949Y-46332611D01*
X53454327Y-46323805D01*
X53449928Y-46314883D01*
X53445756Y-46305846D01*
X53441818Y-46296698D01*
X53438117Y-46287453D01*
X53434655Y-46278127D01*
X53431432Y-46268724D01*
X53428448Y-46259251D01*
X53425702Y-46249713D01*
X53423196Y-46240116D01*
X53420927Y-46230464D01*
X53418898Y-46220763D01*
X53417108Y-46211019D01*
X53415556Y-46201236D01*
X53414243Y-46191422D01*
X53413168Y-46181580D01*
X53412333Y-46171716D01*
X53411736Y-46161836D01*
X53411378Y-46151945D01*
X53411258Y-46142049D01*
X53411378Y-46131990D01*
X53411736Y-46121957D01*
X53412333Y-46111953D01*
X53413168Y-46101983D01*
X53414243Y-46092052D01*
X53415556Y-46082162D01*
X53417107Y-46072319D01*
X53418898Y-46062525D01*
X53420927Y-46052786D01*
X53423195Y-46043106D01*
X53425702Y-46033487D01*
X53428448Y-46023935D01*
X53431432Y-46014454D01*
X53434655Y-46005047D01*
X53438117Y-45995719D01*
X53441818Y-45986474D01*
X53445756Y-45977326D01*
X53449928Y-45968290D01*
X53454327Y-45959367D01*
X53458949Y-45950561D01*
X53463789Y-45941875D01*
X53468839Y-45933310D01*
X53474096Y-45924870D01*
X53479554Y-45916558D01*
X53485207Y-45908376D01*
X53491050Y-45900327D01*
X53497077Y-45892413D01*
X53503284Y-45884638D01*
X53509664Y-45877004D01*
X53516212Y-45869514D01*
X53522923Y-45862171D01*
X53529792Y-45854976D01*
X53536986Y-45848118D01*
X53544330Y-45841437D01*
X53551820Y-45834934D01*
X53559454Y-45828613D01*
X53567229Y-45822477D01*
X53575142Y-45816527D01*
X53583191Y-45810768D01*
X53591373Y-45805202D01*
X53599686Y-45799830D01*
X53608125Y-45794657D01*
X53616690Y-45789684D01*
X53625376Y-45784915D01*
X53634182Y-45780352D01*
X53643105Y-45775999D01*
X53652142Y-45771856D01*
X53661289Y-45767928D01*
X53670534Y-45764217D01*
X53679861Y-45760726D01*
X53689263Y-45757457D01*
X53698736Y-45754413D01*
X53708274Y-45751598D01*
X53717872Y-45749013D01*
X53727524Y-45746661D01*
X53737225Y-45744545D01*
X53746969Y-45742668D01*
X53756752Y-45741033D01*
X53766566Y-45739641D01*
X53776408Y-45738497D01*
X53786272Y-45737602D01*
X53796152Y-45736960D01*
X53806042Y-45736572D01*
X53815939Y-45736442D01*
X53825998Y-45736572D01*
G37*
G36*
X53247781Y-39992268D02*
G01*
X53253765Y-39992663D01*
X53259730Y-39993326D01*
X53265666Y-39994258D01*
X53271564Y-39995458D01*
X53277414Y-39996927D01*
X53283206Y-39998663D01*
X53288931Y-40000668D01*
X53294579Y-40002941D01*
X53300140Y-40005483D01*
X53305605Y-40008293D01*
X53310964Y-40011371D01*
X53316207Y-40014718D01*
X53321325Y-40018333D01*
X53326308Y-40022217D01*
X53331146Y-40026368D01*
X56934828Y-43269431D01*
X56934827Y-43269440D01*
X56942911Y-43277301D01*
X56950139Y-43285525D01*
X56956526Y-43294073D01*
X56962089Y-43302904D01*
X56966843Y-43311978D01*
X56970802Y-43321255D01*
X56973983Y-43330695D01*
X56976401Y-43340257D01*
X56978071Y-43349902D01*
X56979009Y-43359588D01*
X56979230Y-43369276D01*
X56978750Y-43378926D01*
X56977583Y-43388498D01*
X56975747Y-43397950D01*
X56973255Y-43407243D01*
X56970123Y-43416337D01*
X56966368Y-43425192D01*
X56962003Y-43433767D01*
X56957045Y-43442021D01*
X56951509Y-43449916D01*
X56945411Y-43457410D01*
X56938766Y-43464464D01*
X56931589Y-43471036D01*
X56923896Y-43477088D01*
X56915702Y-43482578D01*
X56907023Y-43487467D01*
X56897874Y-43491714D01*
X56888271Y-43495279D01*
X56878229Y-43498121D01*
X56867763Y-43500202D01*
X56856889Y-43501479D01*
X56845622Y-43501914D01*
X55834643Y-43501914D01*
X55834584Y-43501665D01*
X55834515Y-43501379D01*
X55834421Y-43501007D01*
X55618144Y-43501007D01*
X55613246Y-43500917D01*
X55608382Y-43500649D01*
X55603556Y-43500206D01*
X55598771Y-43499590D01*
X55594031Y-43498805D01*
X55589339Y-43497851D01*
X55584700Y-43496732D01*
X55580118Y-43495451D01*
X55575595Y-43494010D01*
X55571136Y-43492411D01*
X55566744Y-43490658D01*
X55562423Y-43488752D01*
X55558177Y-43486696D01*
X55554010Y-43484493D01*
X55549925Y-43482145D01*
X55545925Y-43479656D01*
X55542015Y-43477026D01*
X55538198Y-43474260D01*
X55534479Y-43471359D01*
X55530860Y-43468326D01*
X55527345Y-43465164D01*
X55523939Y-43461875D01*
X55520644Y-43458462D01*
X55517465Y-43454927D01*
X55514406Y-43451272D01*
X55511469Y-43447502D01*
X55508659Y-43443617D01*
X55505979Y-43439620D01*
X55503434Y-43435515D01*
X55501026Y-43431303D01*
X55498760Y-43426988D01*
X55496639Y-43422571D01*
X55480963Y-43389872D01*
X55463035Y-43355713D01*
X55442768Y-43320586D01*
X55420073Y-43284984D01*
X55394861Y-43249400D01*
X55367045Y-43214325D01*
X55336536Y-43180253D01*
X55303246Y-43147677D01*
X55267086Y-43117088D01*
X55247902Y-43102692D01*
X55227968Y-43088979D01*
X55207272Y-43076009D01*
X55185804Y-43063843D01*
X55163552Y-43052544D01*
X55140505Y-43042173D01*
X55116652Y-43032792D01*
X55091983Y-43024461D01*
X55066486Y-43017243D01*
X55040150Y-43011200D01*
X55012964Y-43006392D01*
X54984918Y-43002882D01*
X54955999Y-43000730D01*
X54926197Y-43000000D01*
X52750000Y-43000000D01*
X52706696Y-43001061D01*
X52664892Y-43004205D01*
X52624579Y-43009374D01*
X52585750Y-43016510D01*
X52548397Y-43025554D01*
X52512510Y-43036448D01*
X52478082Y-43049133D01*
X52445105Y-43063551D01*
X52413570Y-43079644D01*
X52383470Y-43097353D01*
X52354796Y-43116620D01*
X52327539Y-43137386D01*
X52301692Y-43159593D01*
X52277246Y-43183184D01*
X52254194Y-43208098D01*
X52232527Y-43234279D01*
X52212236Y-43261667D01*
X52193314Y-43290205D01*
X52175752Y-43319833D01*
X52159543Y-43350494D01*
X52144677Y-43382129D01*
X52131147Y-43414679D01*
X52108062Y-43482294D01*
X52090220Y-43552872D01*
X52077558Y-43625944D01*
X52070009Y-43701046D01*
X52067507Y-43777708D01*
X52083315Y-46526366D01*
X52083185Y-46533228D01*
X52082714Y-46540003D01*
X52081909Y-46546681D01*
X52080778Y-46553254D01*
X52079331Y-46559715D01*
X52077574Y-46566053D01*
X52075518Y-46572262D01*
X52073169Y-46578332D01*
X52070537Y-46584255D01*
X52067629Y-46590023D01*
X52064454Y-46595627D01*
X52061021Y-46601058D01*
X52057337Y-46606309D01*
X52053411Y-46611372D01*
X52049251Y-46616236D01*
X52044865Y-46620895D01*
X52040263Y-46625339D01*
X52035451Y-46629561D01*
X52030440Y-46633551D01*
X52025235Y-46637302D01*
X52019848Y-46640804D01*
X52014284Y-46644050D01*
X52008553Y-46647031D01*
X52002664Y-46649739D01*
X51996624Y-46652165D01*
X51990441Y-46654301D01*
X51984125Y-46656138D01*
X51977683Y-46657668D01*
X51971124Y-46658883D01*
X51964456Y-46659774D01*
X51957687Y-46660332D01*
X51950826Y-46660549D01*
X51500779Y-46663448D01*
X51500774Y-46663067D01*
X51500771Y-46662648D01*
X51500770Y-46661771D01*
X50627614Y-46662392D01*
X50620749Y-46662223D01*
X50613973Y-46661713D01*
X50607295Y-46660869D01*
X50600725Y-46659700D01*
X50594269Y-46658214D01*
X50587937Y-46656421D01*
X50581738Y-46654327D01*
X50575678Y-46651941D01*
X50569767Y-46649273D01*
X50564014Y-46646329D01*
X50558425Y-46643120D01*
X50553011Y-46639652D01*
X50547779Y-46635935D01*
X50542738Y-46631976D01*
X50537896Y-46627785D01*
X50533261Y-46623369D01*
X50528842Y-46618738D01*
X50524648Y-46613898D01*
X50520686Y-46608860D01*
X50516965Y-46603630D01*
X50513494Y-46598218D01*
X50510280Y-46592632D01*
X50507333Y-46586880D01*
X50504660Y-46580971D01*
X50502270Y-46574913D01*
X50500172Y-46568715D01*
X50498374Y-46562384D01*
X50496883Y-46555930D01*
X50495710Y-46549360D01*
X50494861Y-46542683D01*
X50494345Y-46535908D01*
X50494172Y-46529042D01*
X50494172Y-43635254D01*
X50493998Y-43628392D01*
X50493483Y-43621620D01*
X50492635Y-43614946D01*
X50491463Y-43608380D01*
X50489974Y-43601928D01*
X50488177Y-43595600D01*
X50486080Y-43589404D01*
X50483693Y-43583348D01*
X50481022Y-43577441D01*
X50478077Y-43571692D01*
X50474866Y-43566107D01*
X50471398Y-43560697D01*
X50467680Y-43555469D01*
X50463721Y-43550431D01*
X50459530Y-43545593D01*
X50455115Y-43540961D01*
X50450484Y-43536546D01*
X50445645Y-43532355D01*
X50440608Y-43528396D01*
X50435379Y-43524678D01*
X50429969Y-43521210D01*
X50424385Y-43517999D01*
X50418635Y-43515054D01*
X50412728Y-43512384D01*
X50406672Y-43509996D01*
X50400476Y-43507900D01*
X50394148Y-43506103D01*
X50387697Y-43504614D01*
X50381130Y-43503441D01*
X50374456Y-43502593D01*
X50367684Y-43502078D01*
X50360822Y-43501905D01*
X49655150Y-43501905D01*
X49643897Y-43501471D01*
X49633036Y-43500196D01*
X49622581Y-43498119D01*
X49612549Y-43495282D01*
X49602954Y-43491724D01*
X49593812Y-43487485D01*
X49585138Y-43482606D01*
X49576949Y-43477126D01*
X49569259Y-43471085D01*
X49562083Y-43464524D01*
X49555438Y-43457482D01*
X49549339Y-43450001D01*
X49543800Y-43442119D01*
X49538839Y-43433877D01*
X49534469Y-43425314D01*
X49530706Y-43416472D01*
X49527567Y-43407391D01*
X49525066Y-43398109D01*
X49523218Y-43388668D01*
X49522040Y-43379107D01*
X49521546Y-43369467D01*
X49521752Y-43359787D01*
X49522674Y-43350108D01*
X49524327Y-43340470D01*
X49526726Y-43330913D01*
X49529886Y-43321477D01*
X49533824Y-43312201D01*
X49538555Y-43303127D01*
X49544094Y-43294294D01*
X49550456Y-43285743D01*
X49557657Y-43277513D01*
X49565713Y-43269644D01*
X53152513Y-40026581D01*
X53157341Y-40022418D01*
X53162315Y-40018523D01*
X53167424Y-40014895D01*
X53172659Y-40011536D01*
X53178010Y-40008445D01*
X53183468Y-40005622D01*
X53189023Y-40003067D01*
X53194666Y-40000781D01*
X53200386Y-39998762D01*
X53206174Y-39997012D01*
X53212020Y-39995529D01*
X53217915Y-39994315D01*
X53223849Y-39993369D01*
X53229812Y-39992692D01*
X53235795Y-39992282D01*
X53241788Y-39992141D01*
X53247781Y-39992268D01*
G37*
G36*
X54837998Y-43307555D02*
G01*
X54847889Y-43307913D01*
X54857769Y-43308510D01*
X54867632Y-43309346D01*
X54877474Y-43310420D01*
X54887289Y-43311733D01*
X54897071Y-43313285D01*
X54906815Y-43315076D01*
X54916516Y-43317105D01*
X54926168Y-43319373D01*
X54935766Y-43321880D01*
X54945304Y-43324625D01*
X54954777Y-43327610D01*
X54964179Y-43330833D01*
X54973506Y-43334295D01*
X54982751Y-43337995D01*
X54991899Y-43341924D01*
X55000935Y-43346067D01*
X55009858Y-43350426D01*
X55018664Y-43354997D01*
X55027351Y-43359780D01*
X55035915Y-43364773D01*
X55044355Y-43369975D01*
X55052667Y-43375384D01*
X55060849Y-43381000D01*
X55068898Y-43386821D01*
X55076812Y-43392845D01*
X55084587Y-43399071D01*
X55092221Y-43405498D01*
X55099711Y-43412124D01*
X55107054Y-43418948D01*
X55114249Y-43425969D01*
X55121270Y-43433163D01*
X55128094Y-43440507D01*
X55134720Y-43447997D01*
X55141147Y-43455631D01*
X55147373Y-43463406D01*
X55153398Y-43471320D01*
X55159218Y-43479369D01*
X55164834Y-43487551D01*
X55170243Y-43495863D01*
X55175445Y-43504303D01*
X55180438Y-43512867D01*
X55185221Y-43521554D01*
X55189792Y-43530360D01*
X55194151Y-43539283D01*
X55198295Y-43548319D01*
X55202223Y-43557467D01*
X55205923Y-43566712D01*
X55209385Y-43576038D01*
X55212608Y-43585441D01*
X55215592Y-43594914D01*
X55218338Y-43604452D01*
X55220845Y-43614050D01*
X55223113Y-43623702D01*
X55225142Y-43633402D01*
X55226933Y-43643147D01*
X55228484Y-43652929D01*
X55229798Y-43662744D01*
X55230872Y-43672586D01*
X55231707Y-43682449D01*
X55232304Y-43692329D01*
X55232662Y-43702220D01*
X55232782Y-43712116D01*
X55232782Y-46950484D01*
X55232662Y-46960543D01*
X55232304Y-46970576D01*
X55231707Y-46980580D01*
X55230872Y-46990550D01*
X55229798Y-47000481D01*
X55228484Y-47010371D01*
X55226933Y-47020214D01*
X55225142Y-47030008D01*
X55223113Y-47039747D01*
X55220845Y-47049427D01*
X55218338Y-47059046D01*
X55215592Y-47068597D01*
X55212608Y-47078079D01*
X55209385Y-47087485D01*
X55205923Y-47096813D01*
X55202223Y-47106059D01*
X55198295Y-47115206D01*
X55194151Y-47124241D01*
X55189792Y-47133160D01*
X55185221Y-47141957D01*
X55180438Y-47150630D01*
X55175445Y-47159174D01*
X55170243Y-47167585D01*
X55164834Y-47175859D01*
X55159218Y-47183992D01*
X55153398Y-47191980D01*
X55147373Y-47199818D01*
X55141147Y-47207503D01*
X55134720Y-47215031D01*
X55128094Y-47222398D01*
X55121270Y-47229599D01*
X55114249Y-47236630D01*
X55107054Y-47243651D01*
X55099711Y-47250476D01*
X55092220Y-47257102D01*
X55084586Y-47263529D01*
X55076811Y-47269755D01*
X55068898Y-47275779D01*
X55060849Y-47281600D01*
X55052667Y-47287215D01*
X55044355Y-47292625D01*
X55035915Y-47297827D01*
X55027350Y-47302820D01*
X55018664Y-47307603D01*
X55009858Y-47312174D01*
X55000935Y-47316532D01*
X54991899Y-47320676D01*
X54982751Y-47324605D01*
X54973506Y-47328305D01*
X54964179Y-47331767D01*
X54954777Y-47334990D01*
X54945304Y-47337974D01*
X54935766Y-47340720D01*
X54926168Y-47343227D01*
X54916516Y-47345495D01*
X54906815Y-47347524D01*
X54897071Y-47349315D01*
X54887289Y-47350866D01*
X54877474Y-47352180D01*
X54867632Y-47353254D01*
X54857769Y-47354090D01*
X54847889Y-47354686D01*
X54837998Y-47355045D01*
X54828102Y-47355164D01*
X52803775Y-47355164D01*
X52793879Y-47355045D01*
X52783988Y-47354686D01*
X52774108Y-47354090D01*
X52764244Y-47353254D01*
X52754402Y-47352180D01*
X52744588Y-47350866D01*
X52734805Y-47349315D01*
X52725061Y-47347524D01*
X52715360Y-47345495D01*
X52705708Y-47343227D01*
X52696110Y-47340720D01*
X52686572Y-47337974D01*
X52677099Y-47334990D01*
X52667697Y-47331767D01*
X52658371Y-47328305D01*
X52649126Y-47324605D01*
X52639978Y-47320676D01*
X52630941Y-47316532D01*
X52622018Y-47312174D01*
X52613212Y-47307603D01*
X52604526Y-47302820D01*
X52595961Y-47297827D01*
X52587521Y-47292625D01*
X52579209Y-47287215D01*
X52571027Y-47281600D01*
X52562978Y-47275779D01*
X52555065Y-47269755D01*
X52547290Y-47263529D01*
X52539656Y-47257102D01*
X52532166Y-47250476D01*
X52524822Y-47243651D01*
X52517627Y-47236630D01*
X52510606Y-47229599D01*
X52503782Y-47222398D01*
X52497156Y-47215031D01*
X52490729Y-47207503D01*
X52484503Y-47199818D01*
X52478479Y-47191980D01*
X52472658Y-47183992D01*
X52467042Y-47175859D01*
X52461633Y-47167585D01*
X52456431Y-47159174D01*
X52451438Y-47150630D01*
X52446655Y-47141957D01*
X52442084Y-47133160D01*
X52437726Y-47124241D01*
X52433582Y-47115206D01*
X52429653Y-47106059D01*
X52425953Y-47096813D01*
X52422491Y-47087485D01*
X52419268Y-47078079D01*
X52416284Y-47068597D01*
X52413538Y-47059046D01*
X52411032Y-47049427D01*
X52408764Y-47039747D01*
X52406734Y-47030008D01*
X52404944Y-47020214D01*
X52403392Y-47010371D01*
X52402079Y-47000481D01*
X52401004Y-46990550D01*
X52400169Y-46980580D01*
X52399572Y-46970576D01*
X52399214Y-46960543D01*
X52399094Y-46950484D01*
X52399094Y-46142049D01*
X53006578Y-46142049D01*
X53006827Y-46161842D01*
X53007573Y-46181623D01*
X53008812Y-46201383D01*
X53010543Y-46221110D01*
X53012761Y-46240794D01*
X53015466Y-46260424D01*
X53018653Y-46279988D01*
X53022321Y-46299476D01*
X53026466Y-46318878D01*
X53031086Y-46338182D01*
X53036178Y-46357378D01*
X53041739Y-46376454D01*
X53047767Y-46395400D01*
X53054258Y-46414204D01*
X53061211Y-46432857D01*
X53068623Y-46451347D01*
X53076327Y-46469653D01*
X53084499Y-46487754D01*
X53093134Y-46505641D01*
X53102221Y-46523304D01*
X53111753Y-46540733D01*
X53121722Y-46557920D01*
X53132119Y-46574854D01*
X53142938Y-46591527D01*
X53154168Y-46607928D01*
X53165803Y-46624049D01*
X53177834Y-46639879D01*
X53190252Y-46655409D01*
X53203051Y-46670630D01*
X53216221Y-46685533D01*
X53229755Y-46700107D01*
X53243645Y-46714343D01*
X53257881Y-46728222D01*
X53272455Y-46741729D01*
X53287357Y-46754857D01*
X53302578Y-46767605D01*
X53318109Y-46779968D01*
X53333939Y-46791941D01*
X53350060Y-46803521D01*
X53366461Y-46814703D01*
X53383133Y-46825484D01*
X53400068Y-46835859D01*
X53417255Y-46845825D01*
X53434684Y-46855377D01*
X53452347Y-46864511D01*
X53470234Y-46873223D01*
X53488335Y-46881509D01*
X53506640Y-46889365D01*
X53525120Y-46896777D01*
X53543745Y-46903730D01*
X53562509Y-46910222D01*
X53581404Y-46916250D01*
X53600424Y-46921811D01*
X53619561Y-46926903D01*
X53638810Y-46931523D01*
X53658164Y-46935668D01*
X53677615Y-46939335D01*
X53697157Y-46942523D01*
X53716783Y-46945227D01*
X53736487Y-46947446D01*
X53756261Y-46949176D01*
X53776099Y-46950416D01*
X53795993Y-46951161D01*
X53815938Y-46951410D01*
X53835894Y-46951161D01*
X53855818Y-46950416D01*
X53875701Y-46949176D01*
X53895535Y-46947446D01*
X53915308Y-46945227D01*
X53935013Y-46942523D01*
X53954638Y-46939335D01*
X53974176Y-46935668D01*
X53993616Y-46931523D01*
X54012948Y-46926903D01*
X54032164Y-46921811D01*
X54051254Y-46916250D01*
X54070208Y-46910222D01*
X54089017Y-46903730D01*
X54107672Y-46896777D01*
X54126162Y-46889365D01*
X54144457Y-46881509D01*
X54162529Y-46873223D01*
X54180370Y-46864511D01*
X54197974Y-46855377D01*
X54215333Y-46845825D01*
X54232442Y-46835859D01*
X54249292Y-46825484D01*
X54265879Y-46814703D01*
X54282194Y-46803521D01*
X54298230Y-46791941D01*
X54313982Y-46779968D01*
X54329443Y-46767605D01*
X54344605Y-46754857D01*
X54359461Y-46741728D01*
X54374006Y-46728222D01*
X54388232Y-46714343D01*
X54402274Y-46700107D01*
X54415923Y-46685533D01*
X54429176Y-46670630D01*
X54442029Y-46655409D01*
X54454482Y-46639879D01*
X54466530Y-46624048D01*
X54478171Y-46607928D01*
X54489402Y-46591527D01*
X54500221Y-46574854D01*
X54510625Y-46557920D01*
X54520611Y-46540733D01*
X54530177Y-46523303D01*
X54539319Y-46505641D01*
X54548036Y-46487754D01*
X54556324Y-46469653D01*
X54564180Y-46451347D01*
X54571592Y-46432857D01*
X54578545Y-46414204D01*
X54585036Y-46395399D01*
X54591064Y-46376453D01*
X54596625Y-46357377D01*
X54601717Y-46338182D01*
X54606337Y-46318878D01*
X54610482Y-46299476D01*
X54614150Y-46279988D01*
X54617337Y-46260423D01*
X54620041Y-46240794D01*
X54622260Y-46221110D01*
X54623991Y-46201383D01*
X54625230Y-46181623D01*
X54625976Y-46161842D01*
X54626225Y-46142049D01*
X54625976Y-46122094D01*
X54625230Y-46102170D01*
X54623991Y-46082286D01*
X54622260Y-46062453D01*
X54620041Y-46042680D01*
X54617337Y-46022975D01*
X54614150Y-46003349D01*
X54610482Y-45983812D01*
X54606337Y-45964372D01*
X54601717Y-45945039D01*
X54596625Y-45925823D01*
X54591064Y-45906733D01*
X54585036Y-45887779D01*
X54578545Y-45868970D01*
X54571592Y-45850316D01*
X54564180Y-45831825D01*
X54556324Y-45813530D01*
X54548036Y-45795456D01*
X54539319Y-45777611D01*
X54530177Y-45759999D01*
X54520611Y-45742626D01*
X54510625Y-45725497D01*
X54500221Y-45708617D01*
X54489402Y-45691993D01*
X54478171Y-45675629D01*
X54466530Y-45659531D01*
X54454482Y-45643704D01*
X54442029Y-45628154D01*
X54429176Y-45612886D01*
X54415923Y-45597906D01*
X54402274Y-45583218D01*
X54388232Y-45568829D01*
X54374006Y-45554950D01*
X54359461Y-45541444D01*
X54344605Y-45528315D01*
X54329443Y-45515567D01*
X54313983Y-45503205D01*
X54298231Y-45491231D01*
X54282194Y-45479652D01*
X54265879Y-45468469D01*
X54249293Y-45457688D01*
X54232442Y-45447313D01*
X54215333Y-45437348D01*
X54197974Y-45427796D01*
X54180370Y-45418662D01*
X54162529Y-45409949D01*
X54144458Y-45401663D01*
X54126162Y-45393807D01*
X54107672Y-45386395D01*
X54089017Y-45379442D01*
X54070208Y-45372951D01*
X54051254Y-45366923D01*
X54032164Y-45361361D01*
X54012948Y-45356270D01*
X53993615Y-45351650D01*
X53974176Y-45347505D01*
X53954638Y-45343837D01*
X53935012Y-45340650D01*
X53915308Y-45337946D01*
X53895535Y-45335727D01*
X53875701Y-45333996D01*
X53855818Y-45332757D01*
X53835894Y-45332011D01*
X53815938Y-45331762D01*
X53795993Y-45332011D01*
X53776099Y-45332757D01*
X53756261Y-45333996D01*
X53736487Y-45335727D01*
X53716783Y-45337946D01*
X53697157Y-45340650D01*
X53677615Y-45343837D01*
X53658164Y-45347505D01*
X53638810Y-45351650D01*
X53619561Y-45356270D01*
X53600424Y-45361361D01*
X53581404Y-45366923D01*
X53562509Y-45372951D01*
X53543745Y-45379442D01*
X53525120Y-45386395D01*
X53506640Y-45393807D01*
X53488335Y-45401663D01*
X53470234Y-45409949D01*
X53452347Y-45418662D01*
X53434684Y-45427796D01*
X53417255Y-45437348D01*
X53400068Y-45447313D01*
X53383133Y-45457689D01*
X53366461Y-45468469D01*
X53350060Y-45479652D01*
X53333939Y-45491232D01*
X53318109Y-45503205D01*
X53302578Y-45515567D01*
X53287357Y-45528315D01*
X53272455Y-45541444D01*
X53257881Y-45554950D01*
X53243645Y-45568829D01*
X53229755Y-45583218D01*
X53216221Y-45597906D01*
X53203051Y-45612886D01*
X53190252Y-45628154D01*
X53177834Y-45643704D01*
X53165803Y-45659531D01*
X53154168Y-45675629D01*
X53142938Y-45691993D01*
X53132119Y-45708618D01*
X53121722Y-45725497D01*
X53111753Y-45742626D01*
X53102221Y-45759999D01*
X53093134Y-45777611D01*
X53084499Y-45795457D01*
X53076327Y-45813530D01*
X53068623Y-45831825D01*
X53061211Y-45850316D01*
X53054258Y-45868970D01*
X53047767Y-45887779D01*
X53041739Y-45906733D01*
X53036177Y-45925823D01*
X53031086Y-45945039D01*
X53026466Y-45964372D01*
X53022321Y-45983812D01*
X53018653Y-46003349D01*
X53015466Y-46022975D01*
X53012761Y-46042679D01*
X53010543Y-46062453D01*
X53008812Y-46082286D01*
X53007573Y-46102170D01*
X53006827Y-46122094D01*
X53006578Y-46142049D01*
X52399094Y-46142049D01*
X52399094Y-44793732D01*
X52399094Y-43845466D01*
X52803775Y-43845466D01*
X52803775Y-44793732D01*
X52803948Y-44800595D01*
X52804463Y-44807367D01*
X52805311Y-44814040D01*
X52806484Y-44820607D01*
X52807973Y-44827059D01*
X52809770Y-44833387D01*
X52811866Y-44839583D01*
X52814254Y-44845638D01*
X52816924Y-44851545D01*
X52819869Y-44857295D01*
X52823080Y-44862879D01*
X52826549Y-44868290D01*
X52830266Y-44873518D01*
X52834225Y-44878556D01*
X52838416Y-44883394D01*
X52842832Y-44888025D01*
X52847463Y-44892441D01*
X52852301Y-44896632D01*
X52857339Y-44900591D01*
X52862567Y-44904308D01*
X52867977Y-44907777D01*
X52873562Y-44910988D01*
X52879311Y-44913933D01*
X52885218Y-44916603D01*
X52891274Y-44918991D01*
X52897470Y-44921087D01*
X52903798Y-44922884D01*
X52910250Y-44924373D01*
X52916817Y-44925546D01*
X52923490Y-44926394D01*
X52930262Y-44926909D01*
X52937125Y-44927082D01*
X54694751Y-44927082D01*
X54701614Y-44926909D01*
X54708386Y-44926394D01*
X54715059Y-44925546D01*
X54721626Y-44924373D01*
X54728078Y-44922884D01*
X54734406Y-44921087D01*
X54740602Y-44918991D01*
X54746658Y-44916603D01*
X54752565Y-44913933D01*
X54758314Y-44910988D01*
X54763899Y-44907777D01*
X54769309Y-44904308D01*
X54774537Y-44900591D01*
X54779575Y-44896632D01*
X54784413Y-44892441D01*
X54789045Y-44888025D01*
X54793460Y-44883394D01*
X54797651Y-44878556D01*
X54801610Y-44873518D01*
X54805328Y-44868290D01*
X54808796Y-44862879D01*
X54812007Y-44857295D01*
X54814952Y-44851545D01*
X54817622Y-44845638D01*
X54820010Y-44839583D01*
X54822107Y-44833387D01*
X54823904Y-44827059D01*
X54825393Y-44820607D01*
X54826565Y-44814040D01*
X54827413Y-44807367D01*
X54827928Y-44800595D01*
X54828102Y-44793732D01*
X54828102Y-43845466D01*
X54827928Y-43838603D01*
X54827413Y-43831831D01*
X54826565Y-43825158D01*
X54825393Y-43818591D01*
X54823904Y-43812139D01*
X54822107Y-43805811D01*
X54820010Y-43799615D01*
X54817622Y-43793559D01*
X54814952Y-43787653D01*
X54812007Y-43781903D01*
X54808796Y-43776318D01*
X54805328Y-43770908D01*
X54801610Y-43765680D01*
X54797651Y-43760642D01*
X54793460Y-43755804D01*
X54789045Y-43751173D01*
X54784413Y-43746757D01*
X54779575Y-43742566D01*
X54774537Y-43738607D01*
X54769309Y-43734890D01*
X54763899Y-43731421D01*
X54758314Y-43728210D01*
X54752565Y-43725265D01*
X54746658Y-43722595D01*
X54740602Y-43720207D01*
X54734406Y-43718111D01*
X54728078Y-43716314D01*
X54721626Y-43714825D01*
X54715059Y-43713652D01*
X54708386Y-43712804D01*
X54701614Y-43712289D01*
X54694751Y-43712116D01*
X52937125Y-43712116D01*
X52930262Y-43712289D01*
X52923490Y-43712804D01*
X52916817Y-43713652D01*
X52910250Y-43714825D01*
X52903798Y-43716314D01*
X52897470Y-43718111D01*
X52891274Y-43720207D01*
X52885218Y-43722595D01*
X52879311Y-43725265D01*
X52873562Y-43728210D01*
X52867977Y-43731421D01*
X52862567Y-43734890D01*
X52857339Y-43738607D01*
X52852301Y-43742566D01*
X52847463Y-43746757D01*
X52842832Y-43751173D01*
X52838416Y-43755804D01*
X52834225Y-43760642D01*
X52830266Y-43765680D01*
X52826549Y-43770908D01*
X52823080Y-43776318D01*
X52819869Y-43781903D01*
X52816924Y-43787653D01*
X52814254Y-43793559D01*
X52811866Y-43799615D01*
X52809770Y-43805811D01*
X52807973Y-43812139D01*
X52806484Y-43818591D01*
X52805311Y-43825158D01*
X52804463Y-43831831D01*
X52803948Y-43838603D01*
X52803775Y-43845466D01*
X52399094Y-43845466D01*
X52399094Y-43712116D01*
X52399214Y-43702220D01*
X52399572Y-43692329D01*
X52400169Y-43682449D01*
X52401004Y-43672586D01*
X52402079Y-43662744D01*
X52403392Y-43652929D01*
X52404944Y-43643147D01*
X52406734Y-43633403D01*
X52408763Y-43623702D01*
X52411031Y-43614050D01*
X52413538Y-43604452D01*
X52416284Y-43594914D01*
X52419268Y-43585441D01*
X52422491Y-43576039D01*
X52425953Y-43566712D01*
X52429653Y-43557467D01*
X52433582Y-43548319D01*
X52437726Y-43539283D01*
X52442084Y-43530360D01*
X52446655Y-43521554D01*
X52451438Y-43512867D01*
X52456431Y-43504303D01*
X52461633Y-43495863D01*
X52467043Y-43487551D01*
X52472658Y-43479369D01*
X52478479Y-43471320D01*
X52484503Y-43463407D01*
X52490729Y-43455632D01*
X52497156Y-43447998D01*
X52503782Y-43440507D01*
X52510606Y-43433164D01*
X52517627Y-43425969D01*
X52524822Y-43418948D01*
X52532166Y-43412124D01*
X52539656Y-43405498D01*
X52547290Y-43399071D01*
X52555065Y-43392844D01*
X52562978Y-43386820D01*
X52571027Y-43381000D01*
X52579209Y-43375384D01*
X52587521Y-43369975D01*
X52595961Y-43364773D01*
X52604526Y-43359780D01*
X52613212Y-43354997D01*
X52622018Y-43350426D01*
X52630941Y-43346067D01*
X52639978Y-43341924D01*
X52649126Y-43337995D01*
X52658371Y-43334295D01*
X52667697Y-43330833D01*
X52677099Y-43327610D01*
X52686572Y-43324626D01*
X52696110Y-43321880D01*
X52705708Y-43319373D01*
X52715360Y-43317105D01*
X52725061Y-43315076D01*
X52734805Y-43313285D01*
X52744588Y-43311733D01*
X52754402Y-43310420D01*
X52764244Y-43309346D01*
X52774108Y-43308510D01*
X52783988Y-43307914D01*
X52793879Y-43307555D01*
X52803775Y-43307436D01*
X54828102Y-43307436D01*
X54837998Y-43307555D01*
G37*
D11*
X52750000Y-34800000D02*
X53950000Y-34800000D01*
X54500000Y-31575000D02*
G75*
G02*
X52200000Y-31575000I-1150000J0D01*
G01*
X52200000Y-31575000D02*
G75*
G02*
X54500000Y-31575000I1150000J0D01*
G01*
D12*
X53350000Y-33500000D02*
X53350000Y-33800000D01*
D11*
X53350000Y-34550000D02*
X53350000Y-34800000D01*
X54200000Y-33700000D02*
G75*
G02*
X52500000Y-33700000I-850000J0D01*
G01*
D13*
X45343571Y-139775472D02*
X45272142Y-139737377D01*
X45272142Y-139737377D02*
X45236428Y-139699281D01*
X45236428Y-139699281D02*
X45200714Y-139623091D01*
X45200714Y-139623091D02*
X45200714Y-139584996D01*
X45200714Y-139584996D02*
X45236428Y-139508805D01*
X45236428Y-139508805D02*
X45272142Y-139470710D01*
X45272142Y-139470710D02*
X45343571Y-139432615D01*
X45343571Y-139432615D02*
X45486428Y-139432615D01*
X45486428Y-139432615D02*
X45557857Y-139470710D01*
X45557857Y-139470710D02*
X45593571Y-139508805D01*
X45593571Y-139508805D02*
X45629285Y-139584996D01*
X45629285Y-139584996D02*
X45629285Y-139623091D01*
X45629285Y-139623091D02*
X45593571Y-139699281D01*
X45593571Y-139699281D02*
X45557857Y-139737377D01*
X45557857Y-139737377D02*
X45486428Y-139775472D01*
X45486428Y-139775472D02*
X45343571Y-139775472D01*
X45343571Y-139775472D02*
X45272142Y-139813567D01*
X45272142Y-139813567D02*
X45236428Y-139851662D01*
X45236428Y-139851662D02*
X45200714Y-139927853D01*
X45200714Y-139927853D02*
X45200714Y-140080234D01*
X45200714Y-140080234D02*
X45236428Y-140156424D01*
X45236428Y-140156424D02*
X45272142Y-140194520D01*
X45272142Y-140194520D02*
X45343571Y-140232615D01*
X45343571Y-140232615D02*
X45486428Y-140232615D01*
X45486428Y-140232615D02*
X45557857Y-140194520D01*
X45557857Y-140194520D02*
X45593571Y-140156424D01*
X45593571Y-140156424D02*
X45629285Y-140080234D01*
X45629285Y-140080234D02*
X45629285Y-139927853D01*
X45629285Y-139927853D02*
X45593571Y-139851662D01*
X45593571Y-139851662D02*
X45557857Y-139813567D01*
X45557857Y-139813567D02*
X45486428Y-139775472D01*
X45272142Y-142808525D02*
X45414999Y-142808525D01*
X45414999Y-142808525D02*
X45486428Y-142770430D01*
X45486428Y-142770430D02*
X45522142Y-142732334D01*
X45522142Y-142732334D02*
X45593571Y-142618049D01*
X45593571Y-142618049D02*
X45629285Y-142465668D01*
X45629285Y-142465668D02*
X45629285Y-142160906D01*
X45629285Y-142160906D02*
X45593571Y-142084715D01*
X45593571Y-142084715D02*
X45557857Y-142046620D01*
X45557857Y-142046620D02*
X45486428Y-142008525D01*
X45486428Y-142008525D02*
X45343571Y-142008525D01*
X45343571Y-142008525D02*
X45272142Y-142046620D01*
X45272142Y-142046620D02*
X45236428Y-142084715D01*
X45236428Y-142084715D02*
X45200714Y-142160906D01*
X45200714Y-142160906D02*
X45200714Y-142351382D01*
X45200714Y-142351382D02*
X45236428Y-142427572D01*
X45236428Y-142427572D02*
X45272142Y-142465668D01*
X45272142Y-142465668D02*
X45343571Y-142503763D01*
X45343571Y-142503763D02*
X45486428Y-142503763D01*
X45486428Y-142503763D02*
X45557857Y-142465668D01*
X45557857Y-142465668D02*
X45593571Y-142427572D01*
X45593571Y-142427572D02*
X45629285Y-142351382D01*
X45272142Y-145384435D02*
X44843571Y-145384435D01*
X45057856Y-145384435D02*
X45057856Y-144584435D01*
X45057856Y-144584435D02*
X44986428Y-144698720D01*
X44986428Y-144698720D02*
X44914999Y-144774911D01*
X44914999Y-144774911D02*
X44843571Y-144813006D01*
X45736428Y-144584435D02*
X45807857Y-144584435D01*
X45807857Y-144584435D02*
X45879285Y-144622530D01*
X45879285Y-144622530D02*
X45915000Y-144660625D01*
X45915000Y-144660625D02*
X45950714Y-144736816D01*
X45950714Y-144736816D02*
X45986428Y-144889197D01*
X45986428Y-144889197D02*
X45986428Y-145079673D01*
X45986428Y-145079673D02*
X45950714Y-145232054D01*
X45950714Y-145232054D02*
X45915000Y-145308244D01*
X45915000Y-145308244D02*
X45879285Y-145346340D01*
X45879285Y-145346340D02*
X45807857Y-145384435D01*
X45807857Y-145384435D02*
X45736428Y-145384435D01*
X45736428Y-145384435D02*
X45665000Y-145346340D01*
X45665000Y-145346340D02*
X45629285Y-145308244D01*
X45629285Y-145308244D02*
X45593571Y-145232054D01*
X45593571Y-145232054D02*
X45557857Y-145079673D01*
X45557857Y-145079673D02*
X45557857Y-144889197D01*
X45557857Y-144889197D02*
X45593571Y-144736816D01*
X45593571Y-144736816D02*
X45629285Y-144660625D01*
X45629285Y-144660625D02*
X45665000Y-144622530D01*
X45665000Y-144622530D02*
X45736428Y-144584435D01*
X45272142Y-147960345D02*
X44843571Y-147960345D01*
X45057856Y-147960345D02*
X45057856Y-147160345D01*
X45057856Y-147160345D02*
X44986428Y-147274630D01*
X44986428Y-147274630D02*
X44914999Y-147350821D01*
X44914999Y-147350821D02*
X44843571Y-147388916D01*
X45986428Y-147960345D02*
X45557857Y-147960345D01*
X45772142Y-147960345D02*
X45772142Y-147160345D01*
X45772142Y-147160345D02*
X45700714Y-147274630D01*
X45700714Y-147274630D02*
X45629285Y-147350821D01*
X45629285Y-147350821D02*
X45557857Y-147388916D01*
X45272142Y-150536255D02*
X44843571Y-150536255D01*
X45057856Y-150536255D02*
X45057856Y-149736255D01*
X45057856Y-149736255D02*
X44986428Y-149850540D01*
X44986428Y-149850540D02*
X44914999Y-149926731D01*
X44914999Y-149926731D02*
X44843571Y-149964826D01*
X45557857Y-149812445D02*
X45593571Y-149774350D01*
X45593571Y-149774350D02*
X45665000Y-149736255D01*
X45665000Y-149736255D02*
X45843571Y-149736255D01*
X45843571Y-149736255D02*
X45915000Y-149774350D01*
X45915000Y-149774350D02*
X45950714Y-149812445D01*
X45950714Y-149812445D02*
X45986428Y-149888636D01*
X45986428Y-149888636D02*
X45986428Y-149964826D01*
X45986428Y-149964826D02*
X45950714Y-150079112D01*
X45950714Y-150079112D02*
X45522142Y-150536255D01*
X45522142Y-150536255D02*
X45986428Y-150536255D01*
X44897144Y-152578831D02*
X44897144Y-153226450D01*
X44897144Y-153226450D02*
X44861429Y-153302641D01*
X44861429Y-153302641D02*
X44825715Y-153340736D01*
X44825715Y-153340736D02*
X44754286Y-153378831D01*
X44754286Y-153378831D02*
X44647144Y-153378831D01*
X44647144Y-153378831D02*
X44575715Y-153340736D01*
X44897144Y-153074070D02*
X44825715Y-153112165D01*
X44825715Y-153112165D02*
X44682858Y-153112165D01*
X44682858Y-153112165D02*
X44611429Y-153074070D01*
X44611429Y-153074070D02*
X44575715Y-153035974D01*
X44575715Y-153035974D02*
X44540001Y-152959784D01*
X44540001Y-152959784D02*
X44540001Y-152731212D01*
X44540001Y-152731212D02*
X44575715Y-152655022D01*
X44575715Y-152655022D02*
X44611429Y-152616927D01*
X44611429Y-152616927D02*
X44682858Y-152578831D01*
X44682858Y-152578831D02*
X44825715Y-152578831D01*
X44825715Y-152578831D02*
X44897144Y-152616927D01*
X45254286Y-152578831D02*
X45254286Y-153112165D01*
X45254286Y-152655022D02*
X45290000Y-152616927D01*
X45290000Y-152616927D02*
X45361429Y-152578831D01*
X45361429Y-152578831D02*
X45468572Y-152578831D01*
X45468572Y-152578831D02*
X45540000Y-152616927D01*
X45540000Y-152616927D02*
X45575715Y-152693117D01*
X45575715Y-152693117D02*
X45575715Y-153112165D01*
X46254286Y-153112165D02*
X46254286Y-152312165D01*
X46254286Y-153074070D02*
X46182857Y-153112165D01*
X46182857Y-153112165D02*
X46040000Y-153112165D01*
X46040000Y-153112165D02*
X45968571Y-153074070D01*
X45968571Y-153074070D02*
X45932857Y-153035974D01*
X45932857Y-153035974D02*
X45897143Y-152959784D01*
X45897143Y-152959784D02*
X45897143Y-152731212D01*
X45897143Y-152731212D02*
X45932857Y-152655022D01*
X45932857Y-152655022D02*
X45968571Y-152616927D01*
X45968571Y-152616927D02*
X46040000Y-152578831D01*
X46040000Y-152578831D02*
X46182857Y-152578831D01*
X46182857Y-152578831D02*
X46254286Y-152616927D01*
X44593571Y-155154741D02*
X44772143Y-155688075D01*
X44772143Y-155688075D02*
X44950714Y-155154741D01*
X45557858Y-155649980D02*
X45486429Y-155688075D01*
X45486429Y-155688075D02*
X45343572Y-155688075D01*
X45343572Y-155688075D02*
X45272143Y-155649980D01*
X45272143Y-155649980D02*
X45236429Y-155611884D01*
X45236429Y-155611884D02*
X45200715Y-155535694D01*
X45200715Y-155535694D02*
X45200715Y-155307122D01*
X45200715Y-155307122D02*
X45236429Y-155230932D01*
X45236429Y-155230932D02*
X45272143Y-155192837D01*
X45272143Y-155192837D02*
X45343572Y-155154741D01*
X45343572Y-155154741D02*
X45486429Y-155154741D01*
X45486429Y-155154741D02*
X45557858Y-155192837D01*
X46200715Y-155649980D02*
X46129286Y-155688075D01*
X46129286Y-155688075D02*
X45986429Y-155688075D01*
X45986429Y-155688075D02*
X45915000Y-155649980D01*
X45915000Y-155649980D02*
X45879286Y-155611884D01*
X45879286Y-155611884D02*
X45843572Y-155535694D01*
X45843572Y-155535694D02*
X45843572Y-155307122D01*
X45843572Y-155307122D02*
X45879286Y-155230932D01*
X45879286Y-155230932D02*
X45915000Y-155192837D01*
X45915000Y-155192837D02*
X45986429Y-155154741D01*
X45986429Y-155154741D02*
X46129286Y-155154741D01*
X46129286Y-155154741D02*
X46200715Y-155192837D01*
X66499999Y-139582615D02*
X66999999Y-139582615D01*
X66999999Y-139582615D02*
X66678571Y-140382615D01*
X66892857Y-142158525D02*
X66749999Y-142158525D01*
X66749999Y-142158525D02*
X66678571Y-142196620D01*
X66678571Y-142196620D02*
X66642857Y-142234715D01*
X66642857Y-142234715D02*
X66571428Y-142349001D01*
X66571428Y-142349001D02*
X66535714Y-142501382D01*
X66535714Y-142501382D02*
X66535714Y-142806144D01*
X66535714Y-142806144D02*
X66571428Y-142882334D01*
X66571428Y-142882334D02*
X66607142Y-142920430D01*
X66607142Y-142920430D02*
X66678571Y-142958525D01*
X66678571Y-142958525D02*
X66821428Y-142958525D01*
X66821428Y-142958525D02*
X66892857Y-142920430D01*
X66892857Y-142920430D02*
X66928571Y-142882334D01*
X66928571Y-142882334D02*
X66964285Y-142806144D01*
X66964285Y-142806144D02*
X66964285Y-142615668D01*
X66964285Y-142615668D02*
X66928571Y-142539477D01*
X66928571Y-142539477D02*
X66892857Y-142501382D01*
X66892857Y-142501382D02*
X66821428Y-142463287D01*
X66821428Y-142463287D02*
X66678571Y-142463287D01*
X66678571Y-142463287D02*
X66607142Y-142501382D01*
X66607142Y-142501382D02*
X66571428Y-142539477D01*
X66571428Y-142539477D02*
X66535714Y-142615668D01*
X66928571Y-144734435D02*
X66571428Y-144734435D01*
X66571428Y-144734435D02*
X66535714Y-145115387D01*
X66535714Y-145115387D02*
X66571428Y-145077292D01*
X66571428Y-145077292D02*
X66642857Y-145039197D01*
X66642857Y-145039197D02*
X66821428Y-145039197D01*
X66821428Y-145039197D02*
X66892857Y-145077292D01*
X66892857Y-145077292D02*
X66928571Y-145115387D01*
X66928571Y-145115387D02*
X66964285Y-145191578D01*
X66964285Y-145191578D02*
X66964285Y-145382054D01*
X66964285Y-145382054D02*
X66928571Y-145458244D01*
X66928571Y-145458244D02*
X66892857Y-145496340D01*
X66892857Y-145496340D02*
X66821428Y-145534435D01*
X66821428Y-145534435D02*
X66642857Y-145534435D01*
X66642857Y-145534435D02*
X66571428Y-145496340D01*
X66571428Y-145496340D02*
X66535714Y-145458244D01*
X66892857Y-147577011D02*
X66892857Y-148110345D01*
X66714285Y-147272250D02*
X66535714Y-147843678D01*
X66535714Y-147843678D02*
X66999999Y-147843678D01*
X66499999Y-149886255D02*
X66964285Y-149886255D01*
X66964285Y-149886255D02*
X66714285Y-150191017D01*
X66714285Y-150191017D02*
X66821428Y-150191017D01*
X66821428Y-150191017D02*
X66892857Y-150229112D01*
X66892857Y-150229112D02*
X66928571Y-150267207D01*
X66928571Y-150267207D02*
X66964285Y-150343398D01*
X66964285Y-150343398D02*
X66964285Y-150533874D01*
X66964285Y-150533874D02*
X66928571Y-150610064D01*
X66928571Y-150610064D02*
X66892857Y-150648160D01*
X66892857Y-150648160D02*
X66821428Y-150686255D01*
X66821428Y-150686255D02*
X66607142Y-150686255D01*
X66607142Y-150686255D02*
X66535714Y-150648160D01*
X66535714Y-150648160D02*
X66499999Y-150610064D01*
X66535714Y-152538355D02*
X66571428Y-152500260D01*
X66571428Y-152500260D02*
X66642857Y-152462165D01*
X66642857Y-152462165D02*
X66821428Y-152462165D01*
X66821428Y-152462165D02*
X66892857Y-152500260D01*
X66892857Y-152500260D02*
X66928571Y-152538355D01*
X66928571Y-152538355D02*
X66964285Y-152614546D01*
X66964285Y-152614546D02*
X66964285Y-152690736D01*
X66964285Y-152690736D02*
X66928571Y-152805022D01*
X66928571Y-152805022D02*
X66499999Y-153262165D01*
X66499999Y-153262165D02*
X66964285Y-153262165D01*
X66964285Y-155838075D02*
X66535714Y-155838075D01*
X66749999Y-155838075D02*
X66749999Y-155038075D01*
X66749999Y-155038075D02*
X66678571Y-155152360D01*
X66678571Y-155152360D02*
X66607142Y-155228551D01*
X66607142Y-155228551D02*
X66535714Y-155266646D01*
D11*
X48865953Y-138254819D02*
X49532619Y-139254819D01*
X49532619Y-138254819D02*
X48865953Y-139254819D01*
X49913572Y-139254819D02*
X49913572Y-138254819D01*
X50342143Y-138969104D02*
X50818333Y-138969104D01*
X50246905Y-139254819D02*
X50580238Y-138254819D01*
X50580238Y-138254819D02*
X50913571Y-139254819D01*
X51437381Y-138254819D02*
X51627857Y-138254819D01*
X51627857Y-138254819D02*
X51723095Y-138302438D01*
X51723095Y-138302438D02*
X51818333Y-138397676D01*
X51818333Y-138397676D02*
X51865952Y-138588152D01*
X51865952Y-138588152D02*
X51865952Y-138921485D01*
X51865952Y-138921485D02*
X51818333Y-139111961D01*
X51818333Y-139111961D02*
X51723095Y-139207200D01*
X51723095Y-139207200D02*
X51627857Y-139254819D01*
X51627857Y-139254819D02*
X51437381Y-139254819D01*
X51437381Y-139254819D02*
X51342143Y-139207200D01*
X51342143Y-139207200D02*
X51246905Y-139111961D01*
X51246905Y-139111961D02*
X51199286Y-138921485D01*
X51199286Y-138921485D02*
X51199286Y-138588152D01*
X51199286Y-138588152D02*
X51246905Y-138397676D01*
X51246905Y-138397676D02*
X51342143Y-138302438D01*
X51342143Y-138302438D02*
X51437381Y-138254819D01*
X52294524Y-138873866D02*
X53056429Y-138873866D01*
X53532619Y-138731009D02*
X53865952Y-138731009D01*
X54008809Y-139254819D02*
X53532619Y-139254819D01*
X53532619Y-139254819D02*
X53532619Y-138254819D01*
X53532619Y-138254819D02*
X54008809Y-138254819D01*
X54389762Y-139207200D02*
X54532619Y-139254819D01*
X54532619Y-139254819D02*
X54770714Y-139254819D01*
X54770714Y-139254819D02*
X54865952Y-139207200D01*
X54865952Y-139207200D02*
X54913571Y-139159580D01*
X54913571Y-139159580D02*
X54961190Y-139064342D01*
X54961190Y-139064342D02*
X54961190Y-138969104D01*
X54961190Y-138969104D02*
X54913571Y-138873866D01*
X54913571Y-138873866D02*
X54865952Y-138826247D01*
X54865952Y-138826247D02*
X54770714Y-138778628D01*
X54770714Y-138778628D02*
X54580238Y-138731009D01*
X54580238Y-138731009D02*
X54485000Y-138683390D01*
X54485000Y-138683390D02*
X54437381Y-138635771D01*
X54437381Y-138635771D02*
X54389762Y-138540533D01*
X54389762Y-138540533D02*
X54389762Y-138445295D01*
X54389762Y-138445295D02*
X54437381Y-138350057D01*
X54437381Y-138350057D02*
X54485000Y-138302438D01*
X54485000Y-138302438D02*
X54580238Y-138254819D01*
X54580238Y-138254819D02*
X54818333Y-138254819D01*
X54818333Y-138254819D02*
X54961190Y-138302438D01*
X55389762Y-139254819D02*
X55389762Y-138254819D01*
X55389762Y-138254819D02*
X55770714Y-138254819D01*
X55770714Y-138254819D02*
X55865952Y-138302438D01*
X55865952Y-138302438D02*
X55913571Y-138350057D01*
X55913571Y-138350057D02*
X55961190Y-138445295D01*
X55961190Y-138445295D02*
X55961190Y-138588152D01*
X55961190Y-138588152D02*
X55913571Y-138683390D01*
X55913571Y-138683390D02*
X55865952Y-138731009D01*
X55865952Y-138731009D02*
X55770714Y-138778628D01*
X55770714Y-138778628D02*
X55389762Y-138778628D01*
X56294524Y-138254819D02*
X56913571Y-138254819D01*
X56913571Y-138254819D02*
X56580238Y-138635771D01*
X56580238Y-138635771D02*
X56723095Y-138635771D01*
X56723095Y-138635771D02*
X56818333Y-138683390D01*
X56818333Y-138683390D02*
X56865952Y-138731009D01*
X56865952Y-138731009D02*
X56913571Y-138826247D01*
X56913571Y-138826247D02*
X56913571Y-139064342D01*
X56913571Y-139064342D02*
X56865952Y-139159580D01*
X56865952Y-139159580D02*
X56818333Y-139207200D01*
X56818333Y-139207200D02*
X56723095Y-139254819D01*
X56723095Y-139254819D02*
X56437381Y-139254819D01*
X56437381Y-139254819D02*
X56342143Y-139207200D01*
X56342143Y-139207200D02*
X56294524Y-139159580D01*
X57294524Y-138350057D02*
X57342143Y-138302438D01*
X57342143Y-138302438D02*
X57437381Y-138254819D01*
X57437381Y-138254819D02*
X57675476Y-138254819D01*
X57675476Y-138254819D02*
X57770714Y-138302438D01*
X57770714Y-138302438D02*
X57818333Y-138350057D01*
X57818333Y-138350057D02*
X57865952Y-138445295D01*
X57865952Y-138445295D02*
X57865952Y-138540533D01*
X57865952Y-138540533D02*
X57818333Y-138683390D01*
X57818333Y-138683390D02*
X57246905Y-139254819D01*
X57246905Y-139254819D02*
X57865952Y-139254819D01*
X58294524Y-138873866D02*
X59056429Y-138873866D01*
X60104047Y-139159580D02*
X60056428Y-139207200D01*
X60056428Y-139207200D02*
X59913571Y-139254819D01*
X59913571Y-139254819D02*
X59818333Y-139254819D01*
X59818333Y-139254819D02*
X59675476Y-139207200D01*
X59675476Y-139207200D02*
X59580238Y-139111961D01*
X59580238Y-139111961D02*
X59532619Y-139016723D01*
X59532619Y-139016723D02*
X59485000Y-138826247D01*
X59485000Y-138826247D02*
X59485000Y-138683390D01*
X59485000Y-138683390D02*
X59532619Y-138492914D01*
X59532619Y-138492914D02*
X59580238Y-138397676D01*
X59580238Y-138397676D02*
X59675476Y-138302438D01*
X59675476Y-138302438D02*
X59818333Y-138254819D01*
X59818333Y-138254819D02*
X59913571Y-138254819D01*
X59913571Y-138254819D02*
X60056428Y-138302438D01*
X60056428Y-138302438D02*
X60104047Y-138350057D01*
X60961190Y-138254819D02*
X60770714Y-138254819D01*
X60770714Y-138254819D02*
X60675476Y-138302438D01*
X60675476Y-138302438D02*
X60627857Y-138350057D01*
X60627857Y-138350057D02*
X60532619Y-138492914D01*
X60532619Y-138492914D02*
X60485000Y-138683390D01*
X60485000Y-138683390D02*
X60485000Y-139064342D01*
X60485000Y-139064342D02*
X60532619Y-139159580D01*
X60532619Y-139159580D02*
X60580238Y-139207200D01*
X60580238Y-139207200D02*
X60675476Y-139254819D01*
X60675476Y-139254819D02*
X60865952Y-139254819D01*
X60865952Y-139254819D02*
X60961190Y-139207200D01*
X60961190Y-139207200D02*
X61008809Y-139159580D01*
X61008809Y-139159580D02*
X61056428Y-139064342D01*
X61056428Y-139064342D02*
X61056428Y-138826247D01*
X61056428Y-138826247D02*
X61008809Y-138731009D01*
X61008809Y-138731009D02*
X60961190Y-138683390D01*
X60961190Y-138683390D02*
X60865952Y-138635771D01*
X60865952Y-138635771D02*
X60675476Y-138635771D01*
X60675476Y-138635771D02*
X60580238Y-138683390D01*
X60580238Y-138683390D02*
X60532619Y-138731009D01*
X60532619Y-138731009D02*
X60485000Y-138826247D01*
D14*
G36*
X37400000Y-120526376D02*
G01*
X37400000Y-120872505D01*
X36866830Y-120872505D01*
X36737063Y-120879258D01*
X36677045Y-120889288D01*
X36641833Y-120902168D01*
X36611232Y-120925738D01*
X36590200Y-120958161D01*
X36578509Y-120998879D01*
X36573872Y-121060914D01*
X36577627Y-121107743D01*
X36589174Y-121156144D01*
X36608201Y-121204690D01*
X36637986Y-121260863D01*
X37400000Y-121260863D01*
X37400000Y-121605111D01*
X35911877Y-121605111D01*
X35911877Y-121260863D01*
X36443251Y-121260863D01*
X36378196Y-121168232D01*
X36333147Y-121084422D01*
X36304675Y-120996356D01*
X36294849Y-120896526D01*
X36301865Y-120810253D01*
X36321656Y-120737704D01*
X36353148Y-120676381D01*
X36396406Y-120624427D01*
X36449583Y-120583800D01*
X36515872Y-120553275D01*
X36598129Y-120533530D01*
X36699963Y-120526376D01*
X37400000Y-120526376D01*
G37*
G36*
X36970702Y-119118971D02*
G01*
X37063714Y-119138542D01*
X37145358Y-119169791D01*
X37217267Y-119212361D01*
X37280662Y-119266583D01*
X37333480Y-119330466D01*
X37375339Y-119404114D01*
X37406347Y-119488977D01*
X37425922Y-119586943D01*
X37432826Y-119700249D01*
X37425923Y-119813552D01*
X37406349Y-119911526D01*
X37375342Y-119996409D01*
X37333482Y-120070084D01*
X37280662Y-120134000D01*
X37217272Y-120188189D01*
X37145365Y-120230735D01*
X37063721Y-120261969D01*
X36970707Y-120281530D01*
X36864351Y-120288386D01*
X36757100Y-120281465D01*
X36663541Y-120261740D01*
X36581639Y-120230280D01*
X36509710Y-120187467D01*
X36446500Y-120132974D01*
X36393776Y-120068685D01*
X36352038Y-119994871D01*
X36321164Y-119910130D01*
X36301703Y-119812644D01*
X36294849Y-119700249D01*
X36535575Y-119700249D01*
X36539074Y-119748345D01*
X36548911Y-119788811D01*
X36567938Y-119825429D01*
X36602083Y-119862841D01*
X36643875Y-119890160D01*
X36703724Y-119913107D01*
X36772644Y-119926608D01*
X36866231Y-119931742D01*
X36950567Y-119927380D01*
X37017796Y-119915500D01*
X37077434Y-119894553D01*
X37120806Y-119867628D01*
X37153068Y-119833834D01*
X37175003Y-119794539D01*
X37187638Y-119750026D01*
X37192100Y-119697428D01*
X37188158Y-119651476D01*
X37176456Y-119608011D01*
X37155549Y-119568863D01*
X37123712Y-119535776D01*
X37079464Y-119506908D01*
X37025404Y-119485596D01*
X36962315Y-119473631D01*
X36866231Y-119468841D01*
X36776035Y-119473575D01*
X36708511Y-119486109D01*
X36649276Y-119507588D01*
X36606870Y-119533895D01*
X36573341Y-119567958D01*
X36551732Y-119607583D01*
X36539692Y-119651808D01*
X36535575Y-119700249D01*
X36294849Y-119700249D01*
X36301801Y-119586072D01*
X36321488Y-119487647D01*
X36352628Y-119402657D01*
X36394609Y-119329155D01*
X36447526Y-119265643D01*
X36511037Y-119211778D01*
X36583059Y-119169465D01*
X36664812Y-119138394D01*
X36757923Y-119118933D01*
X36864351Y-119112112D01*
X36970702Y-119118971D01*
G37*
G36*
X36637986Y-117815390D02*
G01*
X37400000Y-117815390D01*
X37400000Y-118161604D01*
X36862983Y-118161604D01*
X36729455Y-118165451D01*
X36677447Y-118173137D01*
X36639952Y-118186481D01*
X36610151Y-118208119D01*
X36589687Y-118238626D01*
X36578370Y-118277348D01*
X36573872Y-118336678D01*
X36578990Y-118386487D01*
X36594474Y-118435156D01*
X36637986Y-118521240D01*
X37400000Y-118521240D01*
X37400000Y-118865488D01*
X36327676Y-118865488D01*
X36327676Y-118521240D01*
X36443251Y-118521240D01*
X36379382Y-118431646D01*
X36334087Y-118350954D01*
X36304870Y-118266322D01*
X36294849Y-118171179D01*
X36300361Y-118101693D01*
X36316304Y-118039634D01*
X36342294Y-117983710D01*
X36378342Y-117933984D01*
X36424358Y-117891730D01*
X36481634Y-117856508D01*
X36401928Y-117751920D01*
X36344687Y-117655704D01*
X36316386Y-117589308D01*
X36300127Y-117525822D01*
X36294849Y-117464389D01*
X36302145Y-117378210D01*
X36322570Y-117307226D01*
X36354892Y-117248518D01*
X36399227Y-117199984D01*
X36453321Y-117162529D01*
X36519687Y-117134356D01*
X36600859Y-117116181D01*
X36699963Y-117109626D01*
X37400000Y-117109626D01*
X37400000Y-117455840D01*
X36862983Y-117455840D01*
X36728942Y-117459174D01*
X36677399Y-117466470D01*
X36639952Y-117479776D01*
X36610217Y-117500748D01*
X36589687Y-117531409D01*
X36578371Y-117570675D01*
X36573872Y-117630828D01*
X36577576Y-117673272D01*
X36588747Y-117714945D01*
X36637986Y-117815390D01*
G37*
G36*
X36929490Y-116522259D02*
G01*
X37010022Y-116507480D01*
X37073826Y-116475476D01*
X37124567Y-116426173D01*
X37159869Y-116363468D01*
X37183332Y-116278735D01*
X37192100Y-116165530D01*
X37182118Y-116058305D01*
X37152093Y-115954211D01*
X37108454Y-115858566D01*
X37066266Y-115792559D01*
X37066266Y-115754347D01*
X37343579Y-115754347D01*
X37384905Y-115870220D01*
X37411711Y-115974300D01*
X37427308Y-116080518D01*
X37432826Y-116202887D01*
X37425965Y-116336103D01*
X37406686Y-116449684D01*
X37376565Y-116546375D01*
X37336615Y-116628577D01*
X37287245Y-116698272D01*
X37225540Y-116759026D01*
X37154774Y-116806385D01*
X37073657Y-116841029D01*
X36980331Y-116862728D01*
X36872472Y-116870354D01*
X36765731Y-116863195D01*
X36671932Y-116842713D01*
X36589124Y-116809874D01*
X36515708Y-116764915D01*
X36450518Y-116707334D01*
X36396265Y-116639927D01*
X36353386Y-116563077D01*
X36321737Y-116475415D01*
X36301839Y-116375172D01*
X36296534Y-116287944D01*
X36508220Y-116287944D01*
X36514430Y-116352454D01*
X36531995Y-116406269D01*
X36560280Y-116451563D01*
X36599438Y-116486394D01*
X36653499Y-116510685D01*
X36727062Y-116523199D01*
X36727062Y-116076625D01*
X36656173Y-116084792D01*
X36602882Y-116103172D01*
X36563187Y-116130224D01*
X36534067Y-116167614D01*
X36515219Y-116218697D01*
X36508220Y-116287944D01*
X36296534Y-116287944D01*
X36294849Y-116260247D01*
X36304453Y-116128636D01*
X36331017Y-116022024D01*
X36372252Y-115935768D01*
X36427437Y-115866247D01*
X36497299Y-115810792D01*
X36581976Y-115769777D01*
X36684516Y-115743628D01*
X36808871Y-115734258D01*
X36929490Y-115734258D01*
X36929490Y-116522259D01*
G37*
G36*
X36251081Y-114357949D02*
G01*
X36251081Y-114802642D01*
X37400000Y-114802642D01*
X37400000Y-115169886D01*
X36251081Y-115169886D01*
X36251081Y-115614579D01*
X35977529Y-115614579D01*
X35977529Y-114357949D01*
X36251081Y-114357949D01*
G37*
G36*
X37400000Y-113077555D02*
G01*
X37400000Y-113423684D01*
X36866830Y-113423684D01*
X36737063Y-113430437D01*
X36677045Y-113440467D01*
X36641833Y-113453347D01*
X36611232Y-113476917D01*
X36590200Y-113509340D01*
X36578509Y-113550059D01*
X36573872Y-113612093D01*
X36577627Y-113658923D01*
X36589174Y-113707323D01*
X36608201Y-113755869D01*
X36637986Y-113812042D01*
X37400000Y-113812042D01*
X37400000Y-114156290D01*
X35911877Y-114156290D01*
X35911877Y-113812042D01*
X36443251Y-113812042D01*
X36378196Y-113719411D01*
X36333147Y-113635601D01*
X36304675Y-113547535D01*
X36294849Y-113447705D01*
X36301865Y-113361432D01*
X36321656Y-113288883D01*
X36353148Y-113227561D01*
X36396406Y-113175607D01*
X36449583Y-113134979D01*
X36515872Y-113104454D01*
X36598129Y-113084710D01*
X36699963Y-113077555D01*
X37400000Y-113077555D01*
G37*
G36*
X37400000Y-112416927D02*
G01*
X37400000Y-112761175D01*
X36327676Y-112761175D01*
X36327676Y-112416927D01*
X37400000Y-112416927D01*
G37*
G36*
X36174487Y-112407353D02*
G01*
X36174487Y-112770750D01*
X35911877Y-112770750D01*
X35911877Y-112407353D01*
X36174487Y-112407353D01*
G37*
G36*
X37400000Y-111013605D02*
G01*
X37400000Y-111359734D01*
X36866830Y-111359734D01*
X36737063Y-111366488D01*
X36677045Y-111376517D01*
X36641833Y-111389397D01*
X36611232Y-111412968D01*
X36590200Y-111445390D01*
X36578509Y-111486109D01*
X36573872Y-111548143D01*
X36577627Y-111594973D01*
X36589174Y-111643373D01*
X36608201Y-111691919D01*
X36637986Y-111748093D01*
X37400000Y-111748093D01*
X37400000Y-112092341D01*
X36327676Y-112092341D01*
X36327676Y-111748093D01*
X36443251Y-111748093D01*
X36378196Y-111655461D01*
X36333147Y-111571652D01*
X36304675Y-111483585D01*
X36294849Y-111383755D01*
X36301865Y-111297483D01*
X36321656Y-111224934D01*
X36353148Y-111163611D01*
X36396406Y-111111657D01*
X36449583Y-111071030D01*
X36515872Y-111040504D01*
X36598129Y-111020760D01*
X36699963Y-111013605D01*
X37400000Y-111013605D01*
G37*
G36*
X37377551Y-109658168D02*
G01*
X37461449Y-109672980D01*
X37531561Y-109695940D01*
X37596904Y-109729391D01*
X37650216Y-109769512D01*
X37693042Y-109816388D01*
X37728150Y-109870283D01*
X37756728Y-109932257D01*
X37778527Y-110003429D01*
X37797926Y-110116768D01*
X37804856Y-110250652D01*
X37801462Y-110362016D01*
X37791350Y-110471118D01*
X37775772Y-110575844D01*
X37758524Y-110659014D01*
X37487536Y-110659014D01*
X37487536Y-110616955D01*
X37510239Y-110550047D01*
X37532672Y-110462997D01*
X37548408Y-110374112D01*
X37553189Y-110300404D01*
X37548272Y-110209337D01*
X37535579Y-110144992D01*
X37513241Y-110090326D01*
X37485655Y-110053609D01*
X37451663Y-110028435D01*
X37407608Y-110010610D01*
X37357563Y-110000813D01*
X37293571Y-109997189D01*
X37273567Y-109997189D01*
X37318944Y-110062591D01*
X37353923Y-110134905D01*
X37375924Y-110213383D01*
X37383586Y-110303225D01*
X37374182Y-110414840D01*
X37347719Y-110507894D01*
X37305643Y-110585876D01*
X37247751Y-110651320D01*
X37177232Y-110701457D01*
X37087836Y-110739648D01*
X36975310Y-110764621D01*
X36834431Y-110773735D01*
X36746242Y-110769219D01*
X36670257Y-110756474D01*
X36604818Y-110736463D01*
X36513937Y-110691176D01*
X36436413Y-110631231D01*
X36377400Y-110561587D01*
X36332206Y-110475819D01*
X36304120Y-110382077D01*
X36294849Y-110286897D01*
X36300210Y-110202229D01*
X36311572Y-110147386D01*
X36546517Y-110147386D01*
X36556185Y-110234459D01*
X36582708Y-110300698D01*
X36624736Y-110351097D01*
X36680587Y-110387354D01*
X36751874Y-110410539D01*
X36842894Y-110418972D01*
X36945402Y-110410973D01*
X37014555Y-110390505D01*
X37059598Y-110361098D01*
X37092422Y-110318648D01*
X37113328Y-110262807D01*
X37120976Y-110189445D01*
X37116929Y-110138364D01*
X37104734Y-110088059D01*
X37085591Y-110040117D01*
X37061479Y-109997189D01*
X36573360Y-109997189D01*
X36553698Y-110069937D01*
X36546517Y-110147386D01*
X36311572Y-110147386D01*
X36315451Y-110128665D01*
X36340207Y-110060018D01*
X36372384Y-109999070D01*
X36327676Y-109986674D01*
X36327676Y-109652855D01*
X37277414Y-109652855D01*
X37377551Y-109658168D01*
G37*
G36*
X36902135Y-108654391D02*
G01*
X36902135Y-109384090D01*
X36628583Y-109384090D01*
X36628583Y-108654391D01*
X36902135Y-108654391D01*
G37*
G36*
X37432826Y-107827580D02*
G01*
X37424106Y-107964521D01*
X37399230Y-108084377D01*
X37372250Y-108159569D01*
X37337617Y-108226698D01*
X37295366Y-108286634D01*
X37244901Y-108338807D01*
X37186249Y-108382705D01*
X37118497Y-108418623D01*
X37045933Y-108443954D01*
X36963197Y-108459878D01*
X36868625Y-108465469D01*
X36768997Y-108459440D01*
X36682861Y-108442350D01*
X36608237Y-108415289D01*
X36538733Y-108376986D01*
X36478449Y-108330399D01*
X36426496Y-108275179D01*
X36385423Y-108214786D01*
X36352118Y-108148101D01*
X36326564Y-108074375D01*
X36302845Y-107958869D01*
X36294849Y-107838094D01*
X36300999Y-107730699D01*
X36318614Y-107635409D01*
X36346229Y-107544970D01*
X36380420Y-107462302D01*
X36672351Y-107462302D01*
X36672351Y-107511114D01*
X36634652Y-107559413D01*
X36592337Y-107628742D01*
X36559596Y-107714825D01*
X36550000Y-107763758D01*
X36546517Y-107823818D01*
X36552479Y-107891679D01*
X36569282Y-107948265D01*
X36596096Y-107995745D01*
X36633199Y-108035650D01*
X36694954Y-108075462D01*
X36772026Y-108100677D01*
X36868539Y-108109766D01*
X36968083Y-108100208D01*
X37043941Y-108074189D01*
X37101571Y-108033769D01*
X37144530Y-107978264D01*
X37171452Y-107907845D01*
X37181158Y-107818091D01*
X37177438Y-107754885D01*
X37166967Y-107700976D01*
X37150730Y-107651462D01*
X37133372Y-107614380D01*
X37094818Y-107557020D01*
X37055324Y-107511114D01*
X37055324Y-107462302D01*
X37349478Y-107462302D01*
X37383764Y-107545234D01*
X37410258Y-107632075D01*
X37426951Y-107723156D01*
X37432826Y-107827580D01*
G37*
G36*
X37022004Y-106113769D02*
G01*
X37120891Y-106143782D01*
X37182240Y-106174577D01*
X37235897Y-106212131D01*
X37282629Y-106256622D01*
X37344523Y-106339798D01*
X37390254Y-106435969D01*
X37410224Y-106504818D01*
X37422888Y-106583846D01*
X37427355Y-106674558D01*
X37418349Y-106799147D01*
X37392562Y-106908445D01*
X37364838Y-106976347D01*
X37329397Y-107036473D01*
X37286133Y-107089673D01*
X37227503Y-107142084D01*
X37157432Y-107186420D01*
X37074302Y-107222602D01*
X36986611Y-107247165D01*
X36883999Y-107262907D01*
X36764162Y-107268508D01*
X36639848Y-107263368D01*
X36529669Y-107248712D01*
X36432053Y-107225509D01*
X36338610Y-107190532D01*
X36253346Y-107143772D01*
X36175341Y-107084886D01*
X36110526Y-107017585D01*
X36055201Y-106937050D01*
X36009330Y-106841510D01*
X35977563Y-106740031D01*
X35957340Y-106622137D01*
X35950174Y-106485209D01*
X35959834Y-106332276D01*
X35974281Y-106224138D01*
X36256552Y-106224138D01*
X36256552Y-106260469D01*
X36228513Y-106348005D01*
X36216933Y-106411946D01*
X36212784Y-106488115D01*
X36219151Y-106580286D01*
X36236951Y-106656994D01*
X36264826Y-106720881D01*
X36302287Y-106774063D01*
X36350087Y-106819135D01*
X36406582Y-106854698D01*
X36473125Y-106880965D01*
X36551561Y-106897417D01*
X36511987Y-106821822D01*
X36480694Y-106742006D01*
X36477132Y-106727217D01*
X36699706Y-106727217D01*
X36709195Y-106815181D01*
X36732789Y-106899384D01*
X36763906Y-106900324D01*
X36818616Y-106901264D01*
X36929431Y-106894787D01*
X37009846Y-106877841D01*
X37078585Y-106849052D01*
X37124481Y-106815181D01*
X37149950Y-106785945D01*
X37167480Y-106752093D01*
X37177670Y-106714702D01*
X37181158Y-106673618D01*
X37177860Y-106641555D01*
X37167053Y-106603862D01*
X37149195Y-106568267D01*
X37124481Y-106538808D01*
X37089843Y-106512366D01*
X37048571Y-106491449D01*
X37000399Y-106478743D01*
X36929063Y-106473754D01*
X36863805Y-106479256D01*
X36816308Y-106493843D01*
X36776360Y-106518065D01*
X36745954Y-106549322D01*
X36723883Y-106586382D01*
X36709623Y-106630619D01*
X36699706Y-106727217D01*
X36477132Y-106727217D01*
X36460462Y-106657996D01*
X36453510Y-106565565D01*
X36458421Y-106484147D01*
X36472573Y-106411093D01*
X36497259Y-106342363D01*
X36533438Y-106278591D01*
X36573983Y-106229724D01*
X36623179Y-106187443D01*
X36682011Y-106151475D01*
X36745951Y-106125899D01*
X36822829Y-106109488D01*
X36915214Y-106103604D01*
X37022004Y-106113769D01*
G37*
G36*
X36327676Y-104091201D02*
G01*
X37400000Y-104505291D01*
X37400000Y-104895444D01*
X36327676Y-105306713D01*
X36327676Y-104942376D01*
X37064813Y-104693700D01*
X36327676Y-104447930D01*
X36327676Y-104091201D01*
G37*
G36*
X37400000Y-102857055D02*
G01*
X37400000Y-103807648D01*
X37153803Y-103807648D01*
X37153803Y-103507339D01*
X36398799Y-103507339D01*
X36398799Y-103807648D01*
X36169016Y-103807648D01*
X36160980Y-103675659D01*
X36149441Y-103615655D01*
X36133197Y-103570427D01*
X36105313Y-103526035D01*
X36071905Y-103495884D01*
X36030770Y-103476682D01*
X35977529Y-103467161D01*
X35977529Y-103150610D01*
X37153803Y-103150610D01*
X37153803Y-102857055D01*
X37400000Y-102857055D01*
G37*
G36*
X37400000Y-102137014D02*
G01*
X37400000Y-102494684D01*
X37022498Y-102494684D01*
X37022498Y-102137014D01*
X37400000Y-102137014D01*
G37*
G36*
X36730823Y-100807210D02*
G01*
X36774401Y-100765047D01*
X36824429Y-100732667D01*
X36883183Y-100712556D01*
X36966847Y-100704884D01*
X37064332Y-100714938D01*
X37154059Y-100744635D01*
X37208728Y-100775443D01*
X37258270Y-100815778D01*
X37303145Y-100866536D01*
X37355611Y-100952548D01*
X37395383Y-101055458D01*
X37418683Y-101170108D01*
X37427355Y-101318923D01*
X37419803Y-101489533D01*
X37399487Y-101622566D01*
X37368278Y-101742837D01*
X37336997Y-101828670D01*
X37022498Y-101828670D01*
X37022498Y-101791399D01*
X37068926Y-101703913D01*
X37110975Y-101594869D01*
X37139559Y-101482254D01*
X37148332Y-101385858D01*
X37139185Y-101265409D01*
X37124033Y-101204106D01*
X37098921Y-101155390D01*
X37071964Y-101123376D01*
X37040364Y-101098970D01*
X37001401Y-101083881D01*
X36941031Y-101077941D01*
X36883025Y-101085778D01*
X36843663Y-101106664D01*
X36814470Y-101139427D01*
X36794680Y-101182147D01*
X36783041Y-101231631D01*
X36777754Y-101294987D01*
X36776301Y-101417402D01*
X36776301Y-101495791D01*
X36530104Y-101495791D01*
X36530104Y-101414495D01*
X36525403Y-101282592D01*
X36517137Y-101227700D01*
X36503518Y-101184968D01*
X36481841Y-101147264D01*
X36455647Y-101121880D01*
X36421372Y-101106769D01*
X36367768Y-101100851D01*
X36328275Y-101106685D01*
X36299038Y-101122906D01*
X36275799Y-101147494D01*
X36257663Y-101178300D01*
X36243748Y-101217774D01*
X36234924Y-101266350D01*
X36229197Y-101353373D01*
X36236563Y-101444572D01*
X36260228Y-101548450D01*
X36297850Y-101651477D01*
X36349560Y-101752161D01*
X36349560Y-101787552D01*
X36040190Y-101787552D01*
X36011078Y-101701653D01*
X35979410Y-101574352D01*
X35957491Y-101438591D01*
X35950174Y-101300800D01*
X35956393Y-101170240D01*
X35973426Y-101064520D01*
X36001865Y-100968638D01*
X36035659Y-100897140D01*
X36088389Y-100827537D01*
X36148670Y-100780538D01*
X36219322Y-100752183D01*
X36304338Y-100742241D01*
X36380259Y-100750482D01*
X36449781Y-100774827D01*
X36514631Y-100815929D01*
X36568800Y-100870058D01*
X36607965Y-100934106D01*
X36632857Y-101009980D01*
X36645765Y-101009980D01*
X36655508Y-100960844D01*
X36672522Y-100906714D01*
X36697089Y-100854659D01*
X36730823Y-100807210D01*
G37*
G36*
X37400000Y-98606399D02*
G01*
X37400000Y-99724371D01*
X37163719Y-99724371D01*
X36967873Y-99467660D01*
X36866698Y-99346418D01*
X36789124Y-99261556D01*
X36678532Y-99157087D01*
X36595244Y-99097082D01*
X36538564Y-99069283D01*
X36484355Y-99053412D01*
X36431711Y-99048270D01*
X36369926Y-99055757D01*
X36321013Y-99076751D01*
X36281941Y-99110931D01*
X36254030Y-99155675D01*
X36235882Y-99214432D01*
X36229197Y-99291219D01*
X36237711Y-99379601D01*
X36264673Y-99476294D01*
X36305149Y-99570239D01*
X36355031Y-99656496D01*
X36355031Y-99687100D01*
X36038993Y-99687100D01*
X36011677Y-99610653D01*
X35979837Y-99486809D01*
X35957552Y-99353863D01*
X35950174Y-99221378D01*
X35958439Y-99085346D01*
X35981236Y-98974739D01*
X36016275Y-98885178D01*
X36062330Y-98813016D01*
X36123299Y-98752181D01*
X36194893Y-98708786D01*
X36279229Y-98681878D01*
X36379480Y-98672393D01*
X36467412Y-98679846D01*
X36552260Y-98702148D01*
X36635165Y-98739841D01*
X36712366Y-98789489D01*
X36795422Y-98857189D01*
X36885123Y-98945945D01*
X36962629Y-99033952D01*
X37032500Y-99121018D01*
X37126448Y-99246254D01*
X37126448Y-98606399D01*
X37400000Y-98606399D01*
G37*
G36*
X36861980Y-97232188D02*
G01*
X37008564Y-97256163D01*
X37100803Y-97283150D01*
X37177397Y-97317132D01*
X37240570Y-97357463D01*
X37296977Y-97408925D01*
X37343345Y-97469164D01*
X37380167Y-97539204D01*
X37405322Y-97614652D01*
X37421539Y-97704922D01*
X37427355Y-97812670D01*
X37421553Y-97918490D01*
X37405251Y-98008598D01*
X37379740Y-98085282D01*
X37342419Y-98156431D01*
X37295558Y-98216940D01*
X37238689Y-98267963D01*
X37173589Y-98309607D01*
X37096815Y-98343880D01*
X37006598Y-98370289D01*
X36862624Y-98393461D01*
X36688764Y-98401833D01*
X36510147Y-98393105D01*
X36367597Y-98369349D01*
X36278947Y-98342472D01*
X36202577Y-98307888D01*
X36136959Y-98265997D01*
X36080134Y-98214378D01*
X36033625Y-98153545D01*
X35996934Y-98082376D01*
X35971821Y-98005751D01*
X35955840Y-97916541D01*
X35950174Y-97812670D01*
X36212784Y-97812670D01*
X36219829Y-97868156D01*
X36239866Y-97913306D01*
X36273034Y-97950581D01*
X36321777Y-97980990D01*
X36397333Y-98006065D01*
X36515083Y-98024412D01*
X36689705Y-98031683D01*
X36859545Y-98024378D01*
X36976381Y-98005781D01*
X37053358Y-97980050D01*
X37103495Y-97949077D01*
X37137360Y-97911691D01*
X37157653Y-97866998D01*
X37164745Y-97812670D01*
X37157656Y-97758388D01*
X37137365Y-97713722D01*
X37103502Y-97676349D01*
X37053358Y-97645376D01*
X36976347Y-97619676D01*
X36858976Y-97601064D01*
X36687824Y-97593743D01*
X36514516Y-97600999D01*
X36397297Y-97619333D01*
X36321777Y-97644436D01*
X36273028Y-97674845D01*
X36239860Y-97712107D01*
X36219827Y-97757230D01*
X36212784Y-97812670D01*
X35950174Y-97812670D01*
X35956114Y-97704268D01*
X35972659Y-97613717D01*
X35998302Y-97538264D01*
X36035865Y-97468397D01*
X36083476Y-97408142D01*
X36141746Y-97356522D01*
X36206693Y-97315340D01*
X36282851Y-97281393D01*
X36371871Y-97255137D01*
X36514184Y-97231994D01*
X36687824Y-97223593D01*
X36861980Y-97232188D01*
G37*
G36*
X37400000Y-95821639D02*
G01*
X37400000Y-96939612D01*
X37163719Y-96939612D01*
X36967873Y-96682901D01*
X36866698Y-96561659D01*
X36789124Y-96476796D01*
X36678532Y-96372328D01*
X36595244Y-96312323D01*
X36538564Y-96284524D01*
X36484355Y-96268653D01*
X36431711Y-96263511D01*
X36369926Y-96270998D01*
X36321013Y-96291991D01*
X36281941Y-96326172D01*
X36254030Y-96370916D01*
X36235882Y-96429673D01*
X36229197Y-96506460D01*
X36237711Y-96594841D01*
X36264673Y-96691535D01*
X36305149Y-96785479D01*
X36355031Y-96871737D01*
X36355031Y-96902341D01*
X36038993Y-96902341D01*
X36011677Y-96825893D01*
X35979837Y-96702049D01*
X35957552Y-96569104D01*
X35950174Y-96436618D01*
X35958439Y-96300587D01*
X35981236Y-96189980D01*
X36016275Y-96100419D01*
X36062330Y-96028257D01*
X36123299Y-95967422D01*
X36194893Y-95924027D01*
X36279229Y-95897119D01*
X36379480Y-95887634D01*
X36467412Y-95895086D01*
X36552260Y-95917389D01*
X36635165Y-95955081D01*
X36712366Y-96004730D01*
X36795422Y-96072430D01*
X36885123Y-96161186D01*
X36962629Y-96249193D01*
X37032500Y-96336259D01*
X37126448Y-96461494D01*
X37126448Y-95821639D01*
X37400000Y-95821639D01*
G37*
G36*
X37022004Y-94441306D02*
G01*
X37120891Y-94471318D01*
X37182240Y-94502114D01*
X37235897Y-94539668D01*
X37282629Y-94584158D01*
X37344523Y-94667334D01*
X37390254Y-94763506D01*
X37410224Y-94832355D01*
X37422888Y-94911383D01*
X37427355Y-95002095D01*
X37418349Y-95126684D01*
X37392562Y-95235982D01*
X37364838Y-95303883D01*
X37329397Y-95364010D01*
X37286133Y-95417210D01*
X37227503Y-95469620D01*
X37157432Y-95513957D01*
X37074302Y-95550139D01*
X36986611Y-95574702D01*
X36883999Y-95590443D01*
X36764162Y-95596044D01*
X36639848Y-95590905D01*
X36529669Y-95576249D01*
X36432053Y-95553045D01*
X36338610Y-95518068D01*
X36253346Y-95471309D01*
X36175341Y-95412423D01*
X36110526Y-95345121D01*
X36055201Y-95264587D01*
X36009330Y-95169047D01*
X35977563Y-95067567D01*
X35957340Y-94949674D01*
X35950174Y-94812745D01*
X35959834Y-94659813D01*
X35974281Y-94551674D01*
X36256552Y-94551674D01*
X36256552Y-94588005D01*
X36228513Y-94675542D01*
X36216933Y-94739482D01*
X36212784Y-94815652D01*
X36219151Y-94907822D01*
X36236951Y-94984531D01*
X36264826Y-95048418D01*
X36302287Y-95101599D01*
X36350087Y-95146671D01*
X36406582Y-95182235D01*
X36473125Y-95208502D01*
X36551561Y-95224954D01*
X36511987Y-95149359D01*
X36480694Y-95069542D01*
X36477132Y-95054753D01*
X36699706Y-95054753D01*
X36709195Y-95142717D01*
X36732789Y-95226920D01*
X36763906Y-95227861D01*
X36818616Y-95228801D01*
X36929431Y-95222323D01*
X37009846Y-95205378D01*
X37078585Y-95176589D01*
X37124481Y-95142717D01*
X37149950Y-95113481D01*
X37167480Y-95079630D01*
X37177670Y-95042238D01*
X37181158Y-95001154D01*
X37177860Y-94969092D01*
X37167053Y-94931399D01*
X37149195Y-94895803D01*
X37124481Y-94866344D01*
X37089843Y-94839903D01*
X37048571Y-94818986D01*
X37000399Y-94806280D01*
X36929063Y-94801290D01*
X36863805Y-94806793D01*
X36816308Y-94821379D01*
X36776360Y-94845602D01*
X36745954Y-94876859D01*
X36723883Y-94913919D01*
X36709623Y-94958155D01*
X36699706Y-95054753D01*
X36477132Y-95054753D01*
X36460462Y-94985533D01*
X36453510Y-94893101D01*
X36458421Y-94811684D01*
X36472573Y-94738630D01*
X36497259Y-94669899D01*
X36533438Y-94606128D01*
X36573983Y-94557261D01*
X36623179Y-94514980D01*
X36682011Y-94479012D01*
X36745951Y-94453436D01*
X36822829Y-94437024D01*
X36915214Y-94431140D01*
X37022004Y-94441306D01*
G37*
G36*
X37400000Y-93799150D02*
G01*
X37400000Y-94156819D01*
X37022498Y-94156819D01*
X37022498Y-93799150D01*
X37400000Y-93799150D01*
G37*
G36*
X36727837Y-92365642D02*
G01*
X36838269Y-92381099D01*
X36941629Y-92406257D01*
X37040768Y-92443134D01*
X37126427Y-92489729D01*
X37200221Y-92545854D01*
X37269229Y-92618352D01*
X37325891Y-92701769D01*
X37370593Y-92797437D01*
X37401209Y-92899048D01*
X37420551Y-93015023D01*
X37427355Y-93147498D01*
X37418635Y-93300516D01*
X37403248Y-93408569D01*
X37120976Y-93408569D01*
X37120976Y-93370272D01*
X37149528Y-93288548D01*
X37160415Y-93230580D01*
X37164745Y-93143651D01*
X37160099Y-93069685D01*
X37146195Y-92997300D01*
X37121823Y-92929643D01*
X37087637Y-92873946D01*
X37039730Y-92822777D01*
X36980610Y-92781194D01*
X36911931Y-92751446D01*
X36825968Y-92732382D01*
X36869120Y-92815007D01*
X36898801Y-92886854D01*
X36917137Y-92962847D01*
X36924019Y-93064235D01*
X36919076Y-93143347D01*
X36904528Y-93217766D01*
X36879491Y-93287960D01*
X36844091Y-93351123D01*
X36803041Y-93400090D01*
X36753972Y-93442216D01*
X36696031Y-93477812D01*
X36633001Y-93503060D01*
X36556623Y-93519321D01*
X36464195Y-93525170D01*
X36374330Y-93518460D01*
X36293672Y-93499036D01*
X36220706Y-93467418D01*
X36154234Y-93423387D01*
X36093447Y-93365997D01*
X36032246Y-93282701D01*
X35987740Y-93187010D01*
X35959943Y-93076606D01*
X35950396Y-92951395D01*
X36196371Y-92951395D01*
X36199575Y-92987965D01*
X36209108Y-93022690D01*
X36225904Y-93055193D01*
X36253047Y-93088171D01*
X36286868Y-93114416D01*
X36332292Y-93136470D01*
X36384149Y-93150130D01*
X36449406Y-93155106D01*
X36512301Y-93149692D01*
X36560366Y-93135017D01*
X36601031Y-93110738D01*
X36631575Y-93079537D01*
X36653061Y-93043618D01*
X36667479Y-93000720D01*
X36675145Y-92954083D01*
X36677822Y-92901643D01*
X36666966Y-92807951D01*
X36644740Y-92729561D01*
X36615076Y-92728108D01*
X36556946Y-92726655D01*
X36447109Y-92732882D01*
X36367683Y-92749138D01*
X36299616Y-92777066D01*
X36253047Y-92810772D01*
X36226897Y-92840933D01*
X36209621Y-92874886D01*
X36199714Y-92912002D01*
X36196371Y-92951395D01*
X35950396Y-92951395D01*
X35950174Y-92948489D01*
X35959350Y-92820063D01*
X35985052Y-92712806D01*
X36012635Y-92646780D01*
X36048025Y-92587878D01*
X36091395Y-92535340D01*
X36149994Y-92482936D01*
X36219178Y-92439285D01*
X36300406Y-92404377D01*
X36386098Y-92380952D01*
X36488245Y-92365791D01*
X36609520Y-92360352D01*
X36727837Y-92365642D01*
G37*
D15*
G36*
X46097886Y-49250000D02*
G01*
X45702310Y-49250000D01*
X45702310Y-48678746D01*
X45694592Y-48539711D01*
X45683129Y-48475406D01*
X45668409Y-48437678D01*
X45641472Y-48404891D01*
X45604417Y-48382357D01*
X45557882Y-48369831D01*
X45486985Y-48364863D01*
X45433466Y-48368886D01*
X45378151Y-48381258D01*
X45322670Y-48401644D01*
X45258472Y-48433557D01*
X45258472Y-49250000D01*
X44865045Y-49250000D01*
X44865045Y-47655582D01*
X45258472Y-47655582D01*
X45258472Y-48224912D01*
X45364336Y-48155210D01*
X45460119Y-48106943D01*
X45560766Y-48076437D01*
X45674857Y-48065910D01*
X45773455Y-48073427D01*
X45856368Y-48094631D01*
X45926451Y-48128373D01*
X45985827Y-48174720D01*
X46032258Y-48231696D01*
X46067144Y-48302720D01*
X46089709Y-48390852D01*
X46097886Y-48499960D01*
X46097886Y-49250000D01*
G37*
G36*
X47172518Y-48073359D02*
G01*
X47285005Y-48094452D01*
X47382136Y-48127816D01*
X47466138Y-48172795D01*
X47538723Y-48229492D01*
X47600284Y-48297539D01*
X47648641Y-48374706D01*
X47684151Y-48462299D01*
X47706392Y-48562061D01*
X47714187Y-48676090D01*
X47706348Y-48790038D01*
X47683982Y-48889694D01*
X47648268Y-48977169D01*
X47599617Y-49054215D01*
X47537648Y-49122138D01*
X47464640Y-49178728D01*
X47380471Y-49223577D01*
X47283484Y-49256800D01*
X47171524Y-49277774D01*
X47042031Y-49285170D01*
X46912542Y-49277775D01*
X46800571Y-49256803D01*
X46703562Y-49223581D01*
X46619362Y-49178731D01*
X46546316Y-49122138D01*
X46484385Y-49054220D01*
X46435761Y-48977177D01*
X46400065Y-48889701D01*
X46377710Y-48790043D01*
X46370013Y-48678105D01*
X46777467Y-48678105D01*
X46782453Y-48768465D01*
X46796029Y-48840496D01*
X46819969Y-48904394D01*
X46850740Y-48950863D01*
X46889362Y-48985430D01*
X46934271Y-49008932D01*
X46985142Y-49022470D01*
X47045255Y-49027250D01*
X47097771Y-49023027D01*
X47147446Y-49010489D01*
X47192186Y-48988089D01*
X47230000Y-48953977D01*
X47262992Y-48906569D01*
X47287348Y-48848647D01*
X47301022Y-48781052D01*
X47306497Y-48678105D01*
X47301086Y-48581466D01*
X47286762Y-48509119D01*
X47262214Y-48445653D01*
X47232149Y-48400218D01*
X47193220Y-48364294D01*
X47147935Y-48341141D01*
X47097392Y-48328241D01*
X47042031Y-48323831D01*
X46987064Y-48327579D01*
X46940817Y-48338119D01*
X46898967Y-48358505D01*
X46856211Y-48395088D01*
X46824990Y-48439866D01*
X46798765Y-48503990D01*
X46783334Y-48577833D01*
X46777467Y-48678105D01*
X46370013Y-48678105D01*
X46369874Y-48676090D01*
X46377784Y-48561179D01*
X46400327Y-48460936D01*
X46436280Y-48373184D01*
X46485210Y-48296118D01*
X46547488Y-48228393D01*
X46620961Y-48171903D01*
X46705320Y-48127184D01*
X46802166Y-48094104D01*
X46913580Y-48073253D01*
X47042031Y-48065910D01*
X47172518Y-48073359D01*
G37*
G36*
X49196155Y-48433557D02*
G01*
X49196155Y-49250000D01*
X48800482Y-49250000D01*
X48800482Y-48674624D01*
X48796085Y-48531559D01*
X48787301Y-48475836D01*
X48772052Y-48435663D01*
X48747322Y-48403733D01*
X48712456Y-48381808D01*
X48668203Y-48369682D01*
X48600398Y-48364863D01*
X48543473Y-48370347D01*
X48487851Y-48386937D01*
X48389470Y-48433557D01*
X48389470Y-49250000D01*
X47996043Y-49250000D01*
X47996043Y-48101081D01*
X48389470Y-48101081D01*
X48389470Y-48224912D01*
X48491863Y-48156481D01*
X48584082Y-48107950D01*
X48680804Y-48076646D01*
X48789540Y-48065910D01*
X48868951Y-48071815D01*
X48939876Y-48088897D01*
X49003789Y-48116743D01*
X49060619Y-48155367D01*
X49108910Y-48204670D01*
X49149163Y-48266037D01*
X49268693Y-48180637D01*
X49378653Y-48119308D01*
X49454535Y-48088985D01*
X49527090Y-48071565D01*
X49597299Y-48065910D01*
X49695789Y-48073727D01*
X49776915Y-48095611D01*
X49844009Y-48130242D01*
X49899477Y-48177743D01*
X49942282Y-48235702D01*
X49974480Y-48306807D01*
X49995251Y-48393778D01*
X50002743Y-48499960D01*
X50002743Y-49250000D01*
X49607069Y-49250000D01*
X49607069Y-48674624D01*
X49603259Y-48531010D01*
X49594921Y-48475785D01*
X49579714Y-48435663D01*
X49555746Y-48403804D01*
X49520705Y-48381808D01*
X49475829Y-48369683D01*
X49407083Y-48364863D01*
X49358576Y-48368832D01*
X49310949Y-48380800D01*
X49196155Y-48433557D01*
G37*
G36*
X51123874Y-48076199D02*
G01*
X51245716Y-48104661D01*
X51344295Y-48148842D01*
X51423747Y-48207968D01*
X51487124Y-48282821D01*
X51533999Y-48373546D01*
X51563883Y-48483410D01*
X51574592Y-48616647D01*
X51574592Y-48745882D01*
X50674020Y-48745882D01*
X50690909Y-48832167D01*
X50727486Y-48900527D01*
X50783831Y-48954893D01*
X50855494Y-48992716D01*
X50952332Y-49017856D01*
X51081710Y-49027250D01*
X51204252Y-49016555D01*
X51323217Y-48984385D01*
X51432525Y-48937630D01*
X51507962Y-48892428D01*
X51551633Y-48892428D01*
X51551633Y-49189549D01*
X51419207Y-49233827D01*
X51300258Y-49262547D01*
X51178866Y-49279258D01*
X51039016Y-49285170D01*
X50886769Y-49277819D01*
X50756962Y-49257164D01*
X50646458Y-49224891D01*
X50552513Y-49182087D01*
X50472861Y-49129191D01*
X50403428Y-49063079D01*
X50349304Y-48987258D01*
X50309711Y-48900347D01*
X50284912Y-48800354D01*
X50276197Y-48684791D01*
X50284378Y-48570426D01*
X50294028Y-48528995D01*
X50672945Y-48528995D01*
X51183315Y-48528995D01*
X51173982Y-48453042D01*
X51152976Y-48395945D01*
X51122059Y-48353415D01*
X51079328Y-48322215D01*
X51020948Y-48302020D01*
X50941807Y-48294521D01*
X50868083Y-48301175D01*
X50806579Y-48319995D01*
X50754815Y-48350300D01*
X50715008Y-48392256D01*
X50687247Y-48450178D01*
X50672945Y-48528995D01*
X50294028Y-48528995D01*
X50307786Y-48469928D01*
X50345316Y-48381205D01*
X50396698Y-48302544D01*
X50462505Y-48232698D01*
X50539541Y-48174570D01*
X50627370Y-48128628D01*
X50727555Y-48094719D01*
X50842119Y-48073399D01*
X50973461Y-48065910D01*
X51123874Y-48076199D01*
G37*
G36*
X53147516Y-48019016D02*
G01*
X52639295Y-48019016D01*
X52639295Y-49250000D01*
X52219588Y-49250000D01*
X52219588Y-48019016D01*
X51711368Y-48019016D01*
X51711368Y-47725924D01*
X53147516Y-47725924D01*
X53147516Y-48019016D01*
G37*
G36*
X54610824Y-49250000D02*
G01*
X54215248Y-49250000D01*
X54215248Y-48678746D01*
X54207530Y-48539711D01*
X54196067Y-48475406D01*
X54181347Y-48437678D01*
X54154410Y-48404891D01*
X54117355Y-48382357D01*
X54070820Y-48369831D01*
X53999923Y-48364863D01*
X53946404Y-48368886D01*
X53891089Y-48381258D01*
X53835608Y-48401644D01*
X53771410Y-48433557D01*
X53771410Y-49250000D01*
X53377983Y-49250000D01*
X53377983Y-47655582D01*
X53771410Y-47655582D01*
X53771410Y-48224912D01*
X53877274Y-48155210D01*
X53973057Y-48106943D01*
X54073704Y-48076437D01*
X54187795Y-48065910D01*
X54286393Y-48073427D01*
X54369306Y-48094631D01*
X54439389Y-48128373D01*
X54498765Y-48174720D01*
X54545196Y-48231696D01*
X54580082Y-48302720D01*
X54602647Y-48390852D01*
X54610824Y-48499960D01*
X54610824Y-49250000D01*
G37*
G36*
X55365827Y-49250000D02*
G01*
X54972401Y-49250000D01*
X54972401Y-48101081D01*
X55365827Y-48101081D01*
X55365827Y-49250000D01*
G37*
G36*
X55376769Y-47936950D02*
G01*
X54961459Y-47936950D01*
X54961459Y-47655582D01*
X55376769Y-47655582D01*
X55376769Y-47936950D01*
G37*
G36*
X56969623Y-49250000D02*
G01*
X56574048Y-49250000D01*
X56574048Y-48678746D01*
X56566329Y-48539711D01*
X56554867Y-48475406D01*
X56540147Y-48437678D01*
X56513209Y-48404891D01*
X56476155Y-48382357D01*
X56429619Y-48369831D01*
X56358723Y-48364863D01*
X56305203Y-48368886D01*
X56249888Y-48381258D01*
X56194408Y-48401644D01*
X56130209Y-48433557D01*
X56130209Y-49250000D01*
X55736783Y-49250000D01*
X55736783Y-48101081D01*
X56130209Y-48101081D01*
X56130209Y-48224912D01*
X56236074Y-48155210D01*
X56331856Y-48106943D01*
X56432503Y-48076437D01*
X56546595Y-48065910D01*
X56645192Y-48073427D01*
X56728105Y-48094631D01*
X56798188Y-48128373D01*
X56857565Y-48174720D01*
X56903996Y-48231696D01*
X56938882Y-48302720D01*
X56961447Y-48390852D01*
X56969623Y-48499960D01*
X56969623Y-49250000D01*
G37*
G36*
X57896911Y-48071654D02*
G01*
X57980984Y-48087984D01*
X58059438Y-48114508D01*
X58129093Y-48148983D01*
X58143259Y-48101081D01*
X58524766Y-48101081D01*
X58524766Y-49118658D01*
X58518694Y-49225947D01*
X58501766Y-49315838D01*
X58475527Y-49390958D01*
X58437297Y-49460969D01*
X58391444Y-49518089D01*
X58337872Y-49563974D01*
X58276278Y-49601590D01*
X58205451Y-49632208D01*
X58124110Y-49655565D01*
X57994580Y-49676349D01*
X57841570Y-49683775D01*
X57714297Y-49680137D01*
X57589609Y-49669303D01*
X57469922Y-49652613D01*
X57374871Y-49634132D01*
X57374871Y-49343789D01*
X57422938Y-49343789D01*
X57499404Y-49368113D01*
X57598891Y-49392149D01*
X57700473Y-49409008D01*
X57784710Y-49414131D01*
X57888788Y-49408863D01*
X57962324Y-49395263D01*
X58024800Y-49371330D01*
X58066762Y-49341774D01*
X58095532Y-49305354D01*
X58115904Y-49258151D01*
X58127101Y-49204532D01*
X58131242Y-49135969D01*
X58131242Y-49114536D01*
X58056497Y-49163154D01*
X57973852Y-49200632D01*
X57884163Y-49224204D01*
X57781486Y-49232414D01*
X57653927Y-49222338D01*
X57547579Y-49193984D01*
X57458457Y-49148904D01*
X57383664Y-49086876D01*
X57326364Y-49011320D01*
X57282717Y-48915538D01*
X57254177Y-48794975D01*
X57244387Y-48653101D01*
X57649205Y-48653101D01*
X57658347Y-48762931D01*
X57681738Y-48837024D01*
X57715346Y-48885284D01*
X57763861Y-48920453D01*
X57827678Y-48942852D01*
X57911521Y-48951046D01*
X57969899Y-48946710D01*
X58027390Y-48933644D01*
X58082181Y-48913133D01*
X58131242Y-48887299D01*
X58131242Y-48364314D01*
X58048102Y-48343248D01*
X57959588Y-48335554D01*
X57860076Y-48345913D01*
X57784374Y-48374330D01*
X57726776Y-48419360D01*
X57685340Y-48479200D01*
X57658842Y-48555580D01*
X57649205Y-48653101D01*
X57244387Y-48653101D01*
X57243761Y-48644033D01*
X57248923Y-48549545D01*
X57263488Y-48468133D01*
X57286357Y-48398019D01*
X57338114Y-48300647D01*
X57406623Y-48217585D01*
X57486215Y-48154357D01*
X57584236Y-48105935D01*
X57691370Y-48075843D01*
X57800147Y-48065910D01*
X57896911Y-48071654D01*
G37*
G36*
X59320412Y-49250000D02*
G01*
X58911647Y-49250000D01*
X58911647Y-48845533D01*
X59320412Y-48845533D01*
X59320412Y-49250000D01*
G37*
G36*
X60099058Y-49250000D02*
G01*
X59705632Y-49250000D01*
X59705632Y-48101081D01*
X60099058Y-48101081D01*
X60099058Y-49250000D01*
G37*
G36*
X60110000Y-47936950D02*
G01*
X59694690Y-47936950D01*
X59694690Y-47655582D01*
X60110000Y-47655582D01*
X60110000Y-47936950D01*
G37*
G36*
X61183070Y-48073359D02*
G01*
X61295556Y-48094452D01*
X61392687Y-48127816D01*
X61476689Y-48172795D01*
X61549274Y-48229492D01*
X61610835Y-48297539D01*
X61659192Y-48374706D01*
X61694702Y-48462299D01*
X61716943Y-48562061D01*
X61724738Y-48676090D01*
X61716899Y-48790038D01*
X61694533Y-48889694D01*
X61658820Y-48977169D01*
X61610168Y-49054215D01*
X61548200Y-49122138D01*
X61475191Y-49178728D01*
X61391022Y-49223577D01*
X61294035Y-49256800D01*
X61182075Y-49277774D01*
X61052582Y-49285170D01*
X60923093Y-49277775D01*
X60811122Y-49256803D01*
X60714113Y-49223581D01*
X60629913Y-49178731D01*
X60556867Y-49122138D01*
X60494936Y-49054220D01*
X60446312Y-48977177D01*
X60410617Y-48889701D01*
X60388261Y-48790043D01*
X60380565Y-48678105D01*
X60788018Y-48678105D01*
X60793004Y-48768465D01*
X60806581Y-48840496D01*
X60830521Y-48904394D01*
X60861291Y-48950863D01*
X60899913Y-48985430D01*
X60944822Y-49008932D01*
X60995694Y-49022470D01*
X61055806Y-49027250D01*
X61108323Y-49023027D01*
X61157997Y-49010489D01*
X61202737Y-48988089D01*
X61240551Y-48953977D01*
X61273543Y-48906569D01*
X61297900Y-48848647D01*
X61311574Y-48781052D01*
X61317048Y-48678105D01*
X61311638Y-48581466D01*
X61297313Y-48509119D01*
X61272765Y-48445653D01*
X61242701Y-48400218D01*
X61203771Y-48364294D01*
X61158486Y-48341141D01*
X61107943Y-48328241D01*
X61052582Y-48323831D01*
X60997615Y-48327579D01*
X60951368Y-48338119D01*
X60909519Y-48358505D01*
X60866762Y-48395088D01*
X60835541Y-48439866D01*
X60809316Y-48503990D01*
X60793885Y-48577833D01*
X60788018Y-48678105D01*
X60380565Y-48678105D01*
X60380426Y-48676090D01*
X60388335Y-48561179D01*
X60410878Y-48460936D01*
X60446832Y-48373184D01*
X60495761Y-48296118D01*
X60558039Y-48228393D01*
X60631513Y-48171903D01*
X60715871Y-48127184D01*
X60812718Y-48094104D01*
X60924131Y-48073253D01*
X61052582Y-48065910D01*
X61183070Y-48073359D01*
G37*
D11*
X60884819Y-119916666D02*
X60408628Y-120249999D01*
X60884819Y-120488094D02*
X59884819Y-120488094D01*
X59884819Y-120488094D02*
X59884819Y-120107142D01*
X59884819Y-120107142D02*
X59932438Y-120011904D01*
X59932438Y-120011904D02*
X59980057Y-119964285D01*
X59980057Y-119964285D02*
X60075295Y-119916666D01*
X60075295Y-119916666D02*
X60218152Y-119916666D01*
X60218152Y-119916666D02*
X60313390Y-119964285D01*
X60313390Y-119964285D02*
X60361009Y-120011904D01*
X60361009Y-120011904D02*
X60408628Y-120107142D01*
X60408628Y-120107142D02*
X60408628Y-120488094D01*
X60218152Y-119059523D02*
X60884819Y-119059523D01*
X59837200Y-119297618D02*
X60551485Y-119535713D01*
X60551485Y-119535713D02*
X60551485Y-118916666D01*
X55833333Y-123859580D02*
X55785714Y-123907200D01*
X55785714Y-123907200D02*
X55642857Y-123954819D01*
X55642857Y-123954819D02*
X55547619Y-123954819D01*
X55547619Y-123954819D02*
X55404762Y-123907200D01*
X55404762Y-123907200D02*
X55309524Y-123811961D01*
X55309524Y-123811961D02*
X55261905Y-123716723D01*
X55261905Y-123716723D02*
X55214286Y-123526247D01*
X55214286Y-123526247D02*
X55214286Y-123383390D01*
X55214286Y-123383390D02*
X55261905Y-123192914D01*
X55261905Y-123192914D02*
X55309524Y-123097676D01*
X55309524Y-123097676D02*
X55404762Y-123002438D01*
X55404762Y-123002438D02*
X55547619Y-122954819D01*
X55547619Y-122954819D02*
X55642857Y-122954819D01*
X55642857Y-122954819D02*
X55785714Y-123002438D01*
X55785714Y-123002438D02*
X55833333Y-123050057D01*
X56785714Y-123954819D02*
X56214286Y-123954819D01*
X56500000Y-123954819D02*
X56500000Y-122954819D01*
X56500000Y-122954819D02*
X56404762Y-123097676D01*
X56404762Y-123097676D02*
X56309524Y-123192914D01*
X56309524Y-123192914D02*
X56214286Y-123240533D01*
X67315791Y-52571675D02*
X68022898Y-51864569D01*
X68022898Y-51864569D02*
X68191257Y-52032927D01*
X68191257Y-52032927D02*
X68258600Y-52167614D01*
X68258600Y-52167614D02*
X68258600Y-52302301D01*
X68258600Y-52302301D02*
X68224928Y-52403317D01*
X68224928Y-52403317D02*
X68123913Y-52571675D01*
X68123913Y-52571675D02*
X68022898Y-52672691D01*
X68022898Y-52672691D02*
X67854539Y-52773706D01*
X67854539Y-52773706D02*
X67753524Y-52807378D01*
X67753524Y-52807378D02*
X67618837Y-52807378D01*
X67618837Y-52807378D02*
X67484150Y-52740034D01*
X67484150Y-52740034D02*
X67315791Y-52571675D01*
X68797348Y-53110423D02*
X68325944Y-53581828D01*
X68898363Y-52672691D02*
X68224928Y-53009408D01*
X68224928Y-53009408D02*
X68662661Y-53447141D01*
X68404761Y-30300057D02*
X68309523Y-30252438D01*
X68309523Y-30252438D02*
X68214285Y-30157200D01*
X68214285Y-30157200D02*
X68071428Y-30014342D01*
X68071428Y-30014342D02*
X67976190Y-29966723D01*
X67976190Y-29966723D02*
X67880952Y-29966723D01*
X67928571Y-30204819D02*
X67833333Y-30157200D01*
X67833333Y-30157200D02*
X67738095Y-30061961D01*
X67738095Y-30061961D02*
X67690476Y-29871485D01*
X67690476Y-29871485D02*
X67690476Y-29538152D01*
X67690476Y-29538152D02*
X67738095Y-29347676D01*
X67738095Y-29347676D02*
X67833333Y-29252438D01*
X67833333Y-29252438D02*
X67928571Y-29204819D01*
X67928571Y-29204819D02*
X68119047Y-29204819D01*
X68119047Y-29204819D02*
X68214285Y-29252438D01*
X68214285Y-29252438D02*
X68309523Y-29347676D01*
X68309523Y-29347676D02*
X68357142Y-29538152D01*
X68357142Y-29538152D02*
X68357142Y-29871485D01*
X68357142Y-29871485D02*
X68309523Y-30061961D01*
X68309523Y-30061961D02*
X68214285Y-30157200D01*
X68214285Y-30157200D02*
X68119047Y-30204819D01*
X68119047Y-30204819D02*
X67928571Y-30204819D01*
X69309523Y-30204819D02*
X68738095Y-30204819D01*
X69023809Y-30204819D02*
X69023809Y-29204819D01*
X69023809Y-29204819D02*
X68928571Y-29347676D01*
X68928571Y-29347676D02*
X68833333Y-29442914D01*
X68833333Y-29442914D02*
X68738095Y-29490533D01*
X36600057Y-140407738D02*
X36552438Y-140502976D01*
X36552438Y-140502976D02*
X36457200Y-140598214D01*
X36457200Y-140598214D02*
X36314342Y-140741071D01*
X36314342Y-140741071D02*
X36266723Y-140836309D01*
X36266723Y-140836309D02*
X36266723Y-140931547D01*
X36504819Y-140883928D02*
X36457200Y-140979166D01*
X36457200Y-140979166D02*
X36361961Y-141074404D01*
X36361961Y-141074404D02*
X36171485Y-141122023D01*
X36171485Y-141122023D02*
X35838152Y-141122023D01*
X35838152Y-141122023D02*
X35647676Y-141074404D01*
X35647676Y-141074404D02*
X35552438Y-140979166D01*
X35552438Y-140979166D02*
X35504819Y-140883928D01*
X35504819Y-140883928D02*
X35504819Y-140693452D01*
X35504819Y-140693452D02*
X35552438Y-140598214D01*
X35552438Y-140598214D02*
X35647676Y-140502976D01*
X35647676Y-140502976D02*
X35838152Y-140455357D01*
X35838152Y-140455357D02*
X36171485Y-140455357D01*
X36171485Y-140455357D02*
X36361961Y-140502976D01*
X36361961Y-140502976D02*
X36457200Y-140598214D01*
X36457200Y-140598214D02*
X36504819Y-140693452D01*
X36504819Y-140693452D02*
X36504819Y-140883928D01*
X35504819Y-140122023D02*
X35504819Y-139502976D01*
X35504819Y-139502976D02*
X35885771Y-139836309D01*
X35885771Y-139836309D02*
X35885771Y-139693452D01*
X35885771Y-139693452D02*
X35933390Y-139598214D01*
X35933390Y-139598214D02*
X35981009Y-139550595D01*
X35981009Y-139550595D02*
X36076247Y-139502976D01*
X36076247Y-139502976D02*
X36314342Y-139502976D01*
X36314342Y-139502976D02*
X36409580Y-139550595D01*
X36409580Y-139550595D02*
X36457200Y-139598214D01*
X36457200Y-139598214D02*
X36504819Y-139693452D01*
X36504819Y-139693452D02*
X36504819Y-139979166D01*
X36504819Y-139979166D02*
X36457200Y-140074404D01*
X36457200Y-140074404D02*
X36409580Y-140122023D01*
X63886476Y-103853200D02*
X64029333Y-103900819D01*
X64029333Y-103900819D02*
X64267428Y-103900819D01*
X64267428Y-103900819D02*
X64362666Y-103853200D01*
X64362666Y-103853200D02*
X64410285Y-103805580D01*
X64410285Y-103805580D02*
X64457904Y-103710342D01*
X64457904Y-103710342D02*
X64457904Y-103615104D01*
X64457904Y-103615104D02*
X64410285Y-103519866D01*
X64410285Y-103519866D02*
X64362666Y-103472247D01*
X64362666Y-103472247D02*
X64267428Y-103424628D01*
X64267428Y-103424628D02*
X64076952Y-103377009D01*
X64076952Y-103377009D02*
X63981714Y-103329390D01*
X63981714Y-103329390D02*
X63934095Y-103281771D01*
X63934095Y-103281771D02*
X63886476Y-103186533D01*
X63886476Y-103186533D02*
X63886476Y-103091295D01*
X63886476Y-103091295D02*
X63934095Y-102996057D01*
X63934095Y-102996057D02*
X63981714Y-102948438D01*
X63981714Y-102948438D02*
X64076952Y-102900819D01*
X64076952Y-102900819D02*
X64315047Y-102900819D01*
X64315047Y-102900819D02*
X64457904Y-102948438D01*
X64791238Y-102900819D02*
X65029333Y-103900819D01*
X65029333Y-103900819D02*
X65219809Y-103186533D01*
X65219809Y-103186533D02*
X65410285Y-103900819D01*
X65410285Y-103900819D02*
X65648381Y-102900819D01*
X66553142Y-103900819D02*
X65981714Y-103900819D01*
X66267428Y-103900819D02*
X66267428Y-102900819D01*
X66267428Y-102900819D02*
X66172190Y-103043676D01*
X66172190Y-103043676D02*
X66076952Y-103138914D01*
X66076952Y-103138914D02*
X65981714Y-103186533D01*
X67172190Y-102900819D02*
X67267428Y-102900819D01*
X67267428Y-102900819D02*
X67362666Y-102948438D01*
X67362666Y-102948438D02*
X67410285Y-102996057D01*
X67410285Y-102996057D02*
X67457904Y-103091295D01*
X67457904Y-103091295D02*
X67505523Y-103281771D01*
X67505523Y-103281771D02*
X67505523Y-103519866D01*
X67505523Y-103519866D02*
X67457904Y-103710342D01*
X67457904Y-103710342D02*
X67410285Y-103805580D01*
X67410285Y-103805580D02*
X67362666Y-103853200D01*
X67362666Y-103853200D02*
X67267428Y-103900819D01*
X67267428Y-103900819D02*
X67172190Y-103900819D01*
X67172190Y-103900819D02*
X67076952Y-103853200D01*
X67076952Y-103853200D02*
X67029333Y-103805580D01*
X67029333Y-103805580D02*
X66981714Y-103710342D01*
X66981714Y-103710342D02*
X66934095Y-103519866D01*
X66934095Y-103519866D02*
X66934095Y-103281771D01*
X66934095Y-103281771D02*
X66981714Y-103091295D01*
X66981714Y-103091295D02*
X67029333Y-102996057D01*
X67029333Y-102996057D02*
X67076952Y-102948438D01*
X67076952Y-102948438D02*
X67172190Y-102900819D01*
X64362667Y-116299200D02*
X64505524Y-116346819D01*
X64505524Y-116346819D02*
X64743619Y-116346819D01*
X64743619Y-116346819D02*
X64838857Y-116299200D01*
X64838857Y-116299200D02*
X64886476Y-116251580D01*
X64886476Y-116251580D02*
X64934095Y-116156342D01*
X64934095Y-116156342D02*
X64934095Y-116061104D01*
X64934095Y-116061104D02*
X64886476Y-115965866D01*
X64886476Y-115965866D02*
X64838857Y-115918247D01*
X64838857Y-115918247D02*
X64743619Y-115870628D01*
X64743619Y-115870628D02*
X64553143Y-115823009D01*
X64553143Y-115823009D02*
X64457905Y-115775390D01*
X64457905Y-115775390D02*
X64410286Y-115727771D01*
X64410286Y-115727771D02*
X64362667Y-115632533D01*
X64362667Y-115632533D02*
X64362667Y-115537295D01*
X64362667Y-115537295D02*
X64410286Y-115442057D01*
X64410286Y-115442057D02*
X64457905Y-115394438D01*
X64457905Y-115394438D02*
X64553143Y-115346819D01*
X64553143Y-115346819D02*
X64791238Y-115346819D01*
X64791238Y-115346819D02*
X64934095Y-115394438D01*
X65267429Y-115346819D02*
X65505524Y-116346819D01*
X65505524Y-116346819D02*
X65696000Y-115632533D01*
X65696000Y-115632533D02*
X65886476Y-116346819D01*
X65886476Y-116346819D02*
X66124572Y-115346819D01*
X66553143Y-116346819D02*
X66743619Y-116346819D01*
X66743619Y-116346819D02*
X66838857Y-116299200D01*
X66838857Y-116299200D02*
X66886476Y-116251580D01*
X66886476Y-116251580D02*
X66981714Y-116108723D01*
X66981714Y-116108723D02*
X67029333Y-115918247D01*
X67029333Y-115918247D02*
X67029333Y-115537295D01*
X67029333Y-115537295D02*
X66981714Y-115442057D01*
X66981714Y-115442057D02*
X66934095Y-115394438D01*
X66934095Y-115394438D02*
X66838857Y-115346819D01*
X66838857Y-115346819D02*
X66648381Y-115346819D01*
X66648381Y-115346819D02*
X66553143Y-115394438D01*
X66553143Y-115394438D02*
X66505524Y-115442057D01*
X66505524Y-115442057D02*
X66457905Y-115537295D01*
X66457905Y-115537295D02*
X66457905Y-115775390D01*
X66457905Y-115775390D02*
X66505524Y-115870628D01*
X66505524Y-115870628D02*
X66553143Y-115918247D01*
X66553143Y-115918247D02*
X66648381Y-115965866D01*
X66648381Y-115965866D02*
X66838857Y-115965866D01*
X66838857Y-115965866D02*
X66934095Y-115918247D01*
X66934095Y-115918247D02*
X66981714Y-115870628D01*
X66981714Y-115870628D02*
X67029333Y-115775390D01*
X48083333Y-35859580D02*
X48035714Y-35907200D01*
X48035714Y-35907200D02*
X47892857Y-35954819D01*
X47892857Y-35954819D02*
X47797619Y-35954819D01*
X47797619Y-35954819D02*
X47654762Y-35907200D01*
X47654762Y-35907200D02*
X47559524Y-35811961D01*
X47559524Y-35811961D02*
X47511905Y-35716723D01*
X47511905Y-35716723D02*
X47464286Y-35526247D01*
X47464286Y-35526247D02*
X47464286Y-35383390D01*
X47464286Y-35383390D02*
X47511905Y-35192914D01*
X47511905Y-35192914D02*
X47559524Y-35097676D01*
X47559524Y-35097676D02*
X47654762Y-35002438D01*
X47654762Y-35002438D02*
X47797619Y-34954819D01*
X47797619Y-34954819D02*
X47892857Y-34954819D01*
X47892857Y-34954819D02*
X48035714Y-35002438D01*
X48035714Y-35002438D02*
X48083333Y-35050057D01*
X48416667Y-34954819D02*
X49035714Y-34954819D01*
X49035714Y-34954819D02*
X48702381Y-35335771D01*
X48702381Y-35335771D02*
X48845238Y-35335771D01*
X48845238Y-35335771D02*
X48940476Y-35383390D01*
X48940476Y-35383390D02*
X48988095Y-35431009D01*
X48988095Y-35431009D02*
X49035714Y-35526247D01*
X49035714Y-35526247D02*
X49035714Y-35764342D01*
X49035714Y-35764342D02*
X48988095Y-35859580D01*
X48988095Y-35859580D02*
X48940476Y-35907200D01*
X48940476Y-35907200D02*
X48845238Y-35954819D01*
X48845238Y-35954819D02*
X48559524Y-35954819D01*
X48559524Y-35954819D02*
X48464286Y-35907200D01*
X48464286Y-35907200D02*
X48416667Y-35859580D01*
X39470667Y-116299200D02*
X39613524Y-116346819D01*
X39613524Y-116346819D02*
X39851619Y-116346819D01*
X39851619Y-116346819D02*
X39946857Y-116299200D01*
X39946857Y-116299200D02*
X39994476Y-116251580D01*
X39994476Y-116251580D02*
X40042095Y-116156342D01*
X40042095Y-116156342D02*
X40042095Y-116061104D01*
X40042095Y-116061104D02*
X39994476Y-115965866D01*
X39994476Y-115965866D02*
X39946857Y-115918247D01*
X39946857Y-115918247D02*
X39851619Y-115870628D01*
X39851619Y-115870628D02*
X39661143Y-115823009D01*
X39661143Y-115823009D02*
X39565905Y-115775390D01*
X39565905Y-115775390D02*
X39518286Y-115727771D01*
X39518286Y-115727771D02*
X39470667Y-115632533D01*
X39470667Y-115632533D02*
X39470667Y-115537295D01*
X39470667Y-115537295D02*
X39518286Y-115442057D01*
X39518286Y-115442057D02*
X39565905Y-115394438D01*
X39565905Y-115394438D02*
X39661143Y-115346819D01*
X39661143Y-115346819D02*
X39899238Y-115346819D01*
X39899238Y-115346819D02*
X40042095Y-115394438D01*
X40375429Y-115346819D02*
X40613524Y-116346819D01*
X40613524Y-116346819D02*
X40804000Y-115632533D01*
X40804000Y-115632533D02*
X40994476Y-116346819D01*
X40994476Y-116346819D02*
X41232572Y-115346819D01*
X42089714Y-115346819D02*
X41613524Y-115346819D01*
X41613524Y-115346819D02*
X41565905Y-115823009D01*
X41565905Y-115823009D02*
X41613524Y-115775390D01*
X41613524Y-115775390D02*
X41708762Y-115727771D01*
X41708762Y-115727771D02*
X41946857Y-115727771D01*
X41946857Y-115727771D02*
X42042095Y-115775390D01*
X42042095Y-115775390D02*
X42089714Y-115823009D01*
X42089714Y-115823009D02*
X42137333Y-115918247D01*
X42137333Y-115918247D02*
X42137333Y-116156342D01*
X42137333Y-116156342D02*
X42089714Y-116251580D01*
X42089714Y-116251580D02*
X42042095Y-116299200D01*
X42042095Y-116299200D02*
X41946857Y-116346819D01*
X41946857Y-116346819D02*
X41708762Y-116346819D01*
X41708762Y-116346819D02*
X41613524Y-116299200D01*
X41613524Y-116299200D02*
X41565905Y-116251580D01*
X39416667Y-44843200D02*
X39559524Y-44890819D01*
X39559524Y-44890819D02*
X39797619Y-44890819D01*
X39797619Y-44890819D02*
X39892857Y-44843200D01*
X39892857Y-44843200D02*
X39940476Y-44795580D01*
X39940476Y-44795580D02*
X39988095Y-44700342D01*
X39988095Y-44700342D02*
X39988095Y-44605104D01*
X39988095Y-44605104D02*
X39940476Y-44509866D01*
X39940476Y-44509866D02*
X39892857Y-44462247D01*
X39892857Y-44462247D02*
X39797619Y-44414628D01*
X39797619Y-44414628D02*
X39607143Y-44367009D01*
X39607143Y-44367009D02*
X39511905Y-44319390D01*
X39511905Y-44319390D02*
X39464286Y-44271771D01*
X39464286Y-44271771D02*
X39416667Y-44176533D01*
X39416667Y-44176533D02*
X39416667Y-44081295D01*
X39416667Y-44081295D02*
X39464286Y-43986057D01*
X39464286Y-43986057D02*
X39511905Y-43938438D01*
X39511905Y-43938438D02*
X39607143Y-43890819D01*
X39607143Y-43890819D02*
X39845238Y-43890819D01*
X39845238Y-43890819D02*
X39988095Y-43938438D01*
X40321429Y-43890819D02*
X40559524Y-44890819D01*
X40559524Y-44890819D02*
X40750000Y-44176533D01*
X40750000Y-44176533D02*
X40940476Y-44890819D01*
X40940476Y-44890819D02*
X41178572Y-43890819D01*
X41511905Y-43986057D02*
X41559524Y-43938438D01*
X41559524Y-43938438D02*
X41654762Y-43890819D01*
X41654762Y-43890819D02*
X41892857Y-43890819D01*
X41892857Y-43890819D02*
X41988095Y-43938438D01*
X41988095Y-43938438D02*
X42035714Y-43986057D01*
X42035714Y-43986057D02*
X42083333Y-44081295D01*
X42083333Y-44081295D02*
X42083333Y-44176533D01*
X42083333Y-44176533D02*
X42035714Y-44319390D01*
X42035714Y-44319390D02*
X41464286Y-44890819D01*
X41464286Y-44890819D02*
X42083333Y-44890819D01*
X51916667Y-103853200D02*
X52059524Y-103900819D01*
X52059524Y-103900819D02*
X52297619Y-103900819D01*
X52297619Y-103900819D02*
X52392857Y-103853200D01*
X52392857Y-103853200D02*
X52440476Y-103805580D01*
X52440476Y-103805580D02*
X52488095Y-103710342D01*
X52488095Y-103710342D02*
X52488095Y-103615104D01*
X52488095Y-103615104D02*
X52440476Y-103519866D01*
X52440476Y-103519866D02*
X52392857Y-103472247D01*
X52392857Y-103472247D02*
X52297619Y-103424628D01*
X52297619Y-103424628D02*
X52107143Y-103377009D01*
X52107143Y-103377009D02*
X52011905Y-103329390D01*
X52011905Y-103329390D02*
X51964286Y-103281771D01*
X51964286Y-103281771D02*
X51916667Y-103186533D01*
X51916667Y-103186533D02*
X51916667Y-103091295D01*
X51916667Y-103091295D02*
X51964286Y-102996057D01*
X51964286Y-102996057D02*
X52011905Y-102948438D01*
X52011905Y-102948438D02*
X52107143Y-102900819D01*
X52107143Y-102900819D02*
X52345238Y-102900819D01*
X52345238Y-102900819D02*
X52488095Y-102948438D01*
X52821429Y-102900819D02*
X53059524Y-103900819D01*
X53059524Y-103900819D02*
X53250000Y-103186533D01*
X53250000Y-103186533D02*
X53440476Y-103900819D01*
X53440476Y-103900819D02*
X53678572Y-102900819D01*
X53964286Y-102900819D02*
X54630952Y-102900819D01*
X54630952Y-102900819D02*
X54202381Y-103900819D01*
X69258333Y-156954819D02*
X68925000Y-156478628D01*
X68686905Y-156954819D02*
X68686905Y-155954819D01*
X68686905Y-155954819D02*
X69067857Y-155954819D01*
X69067857Y-155954819D02*
X69163095Y-156002438D01*
X69163095Y-156002438D02*
X69210714Y-156050057D01*
X69210714Y-156050057D02*
X69258333Y-156145295D01*
X69258333Y-156145295D02*
X69258333Y-156288152D01*
X69258333Y-156288152D02*
X69210714Y-156383390D01*
X69210714Y-156383390D02*
X69163095Y-156431009D01*
X69163095Y-156431009D02*
X69067857Y-156478628D01*
X69067857Y-156478628D02*
X68686905Y-156478628D01*
X69734524Y-156954819D02*
X69925000Y-156954819D01*
X69925000Y-156954819D02*
X70020238Y-156907200D01*
X70020238Y-156907200D02*
X70067857Y-156859580D01*
X70067857Y-156859580D02*
X70163095Y-156716723D01*
X70163095Y-156716723D02*
X70210714Y-156526247D01*
X70210714Y-156526247D02*
X70210714Y-156145295D01*
X70210714Y-156145295D02*
X70163095Y-156050057D01*
X70163095Y-156050057D02*
X70115476Y-156002438D01*
X70115476Y-156002438D02*
X70020238Y-155954819D01*
X70020238Y-155954819D02*
X69829762Y-155954819D01*
X69829762Y-155954819D02*
X69734524Y-156002438D01*
X69734524Y-156002438D02*
X69686905Y-156050057D01*
X69686905Y-156050057D02*
X69639286Y-156145295D01*
X69639286Y-156145295D02*
X69639286Y-156383390D01*
X69639286Y-156383390D02*
X69686905Y-156478628D01*
X69686905Y-156478628D02*
X69734524Y-156526247D01*
X69734524Y-156526247D02*
X69829762Y-156573866D01*
X69829762Y-156573866D02*
X70020238Y-156573866D01*
X70020238Y-156573866D02*
X70115476Y-156526247D01*
X70115476Y-156526247D02*
X70163095Y-156478628D01*
X70163095Y-156478628D02*
X70210714Y-156383390D01*
X39413577Y-103879200D02*
X39556434Y-103926819D01*
X39556434Y-103926819D02*
X39794529Y-103926819D01*
X39794529Y-103926819D02*
X39889767Y-103879200D01*
X39889767Y-103879200D02*
X39937386Y-103831580D01*
X39937386Y-103831580D02*
X39985005Y-103736342D01*
X39985005Y-103736342D02*
X39985005Y-103641104D01*
X39985005Y-103641104D02*
X39937386Y-103545866D01*
X39937386Y-103545866D02*
X39889767Y-103498247D01*
X39889767Y-103498247D02*
X39794529Y-103450628D01*
X39794529Y-103450628D02*
X39604053Y-103403009D01*
X39604053Y-103403009D02*
X39508815Y-103355390D01*
X39508815Y-103355390D02*
X39461196Y-103307771D01*
X39461196Y-103307771D02*
X39413577Y-103212533D01*
X39413577Y-103212533D02*
X39413577Y-103117295D01*
X39413577Y-103117295D02*
X39461196Y-103022057D01*
X39461196Y-103022057D02*
X39508815Y-102974438D01*
X39508815Y-102974438D02*
X39604053Y-102926819D01*
X39604053Y-102926819D02*
X39842148Y-102926819D01*
X39842148Y-102926819D02*
X39985005Y-102974438D01*
X40318339Y-102926819D02*
X40556434Y-103926819D01*
X40556434Y-103926819D02*
X40746910Y-103212533D01*
X40746910Y-103212533D02*
X40937386Y-103926819D01*
X40937386Y-103926819D02*
X41175482Y-102926819D01*
X41985005Y-103260152D02*
X41985005Y-103926819D01*
X41746910Y-102879200D02*
X41508815Y-103593485D01*
X41508815Y-103593485D02*
X42127862Y-103593485D01*
X68049693Y-83593517D02*
X67342587Y-82886410D01*
X67342587Y-82886410D02*
X67510945Y-82718051D01*
X67510945Y-82718051D02*
X67645632Y-82650708D01*
X67645632Y-82650708D02*
X67780319Y-82650708D01*
X67780319Y-82650708D02*
X67881335Y-82684380D01*
X67881335Y-82684380D02*
X68049693Y-82785395D01*
X68049693Y-82785395D02*
X68150709Y-82886410D01*
X68150709Y-82886410D02*
X68251724Y-83054769D01*
X68251724Y-83054769D02*
X68285396Y-83155784D01*
X68285396Y-83155784D02*
X68285396Y-83290471D01*
X68285396Y-83290471D02*
X68218052Y-83425158D01*
X68218052Y-83425158D02*
X68049693Y-83593517D01*
X68386411Y-81842586D02*
X68049693Y-82179303D01*
X68049693Y-82179303D02*
X68352739Y-82549693D01*
X68352739Y-82549693D02*
X68352739Y-82482349D01*
X68352739Y-82482349D02*
X68386411Y-82381334D01*
X68386411Y-82381334D02*
X68554770Y-82212975D01*
X68554770Y-82212975D02*
X68655785Y-82179303D01*
X68655785Y-82179303D02*
X68723128Y-82179303D01*
X68723128Y-82179303D02*
X68824144Y-82212975D01*
X68824144Y-82212975D02*
X68992502Y-82381334D01*
X68992502Y-82381334D02*
X69026174Y-82482349D01*
X69026174Y-82482349D02*
X69026174Y-82549693D01*
X69026174Y-82549693D02*
X68992502Y-82650708D01*
X68992502Y-82650708D02*
X68824144Y-82819067D01*
X68824144Y-82819067D02*
X68723128Y-82852738D01*
X68723128Y-82852738D02*
X68655785Y-82852738D01*
X64380667Y-44843200D02*
X64523524Y-44890819D01*
X64523524Y-44890819D02*
X64761619Y-44890819D01*
X64761619Y-44890819D02*
X64856857Y-44843200D01*
X64856857Y-44843200D02*
X64904476Y-44795580D01*
X64904476Y-44795580D02*
X64952095Y-44700342D01*
X64952095Y-44700342D02*
X64952095Y-44605104D01*
X64952095Y-44605104D02*
X64904476Y-44509866D01*
X64904476Y-44509866D02*
X64856857Y-44462247D01*
X64856857Y-44462247D02*
X64761619Y-44414628D01*
X64761619Y-44414628D02*
X64571143Y-44367009D01*
X64571143Y-44367009D02*
X64475905Y-44319390D01*
X64475905Y-44319390D02*
X64428286Y-44271771D01*
X64428286Y-44271771D02*
X64380667Y-44176533D01*
X64380667Y-44176533D02*
X64380667Y-44081295D01*
X64380667Y-44081295D02*
X64428286Y-43986057D01*
X64428286Y-43986057D02*
X64475905Y-43938438D01*
X64475905Y-43938438D02*
X64571143Y-43890819D01*
X64571143Y-43890819D02*
X64809238Y-43890819D01*
X64809238Y-43890819D02*
X64952095Y-43938438D01*
X65285429Y-43890819D02*
X65523524Y-44890819D01*
X65523524Y-44890819D02*
X65714000Y-44176533D01*
X65714000Y-44176533D02*
X65904476Y-44890819D01*
X65904476Y-44890819D02*
X66142572Y-43890819D01*
X67047333Y-44890819D02*
X66475905Y-44890819D01*
X66761619Y-44890819D02*
X66761619Y-43890819D01*
X66761619Y-43890819D02*
X66666381Y-44033676D01*
X66666381Y-44033676D02*
X66571143Y-44128914D01*
X66571143Y-44128914D02*
X66475905Y-44176533D01*
X36524819Y-144642857D02*
X36048628Y-144976190D01*
X36524819Y-145214285D02*
X35524819Y-145214285D01*
X35524819Y-145214285D02*
X35524819Y-144833333D01*
X35524819Y-144833333D02*
X35572438Y-144738095D01*
X35572438Y-144738095D02*
X35620057Y-144690476D01*
X35620057Y-144690476D02*
X35715295Y-144642857D01*
X35715295Y-144642857D02*
X35858152Y-144642857D01*
X35858152Y-144642857D02*
X35953390Y-144690476D01*
X35953390Y-144690476D02*
X36001009Y-144738095D01*
X36001009Y-144738095D02*
X36048628Y-144833333D01*
X36048628Y-144833333D02*
X36048628Y-145214285D01*
X36524819Y-143690476D02*
X36524819Y-144261904D01*
X36524819Y-143976190D02*
X35524819Y-143976190D01*
X35524819Y-143976190D02*
X35667676Y-144071428D01*
X35667676Y-144071428D02*
X35762914Y-144166666D01*
X35762914Y-144166666D02*
X35810533Y-144261904D01*
X36524819Y-142738095D02*
X36524819Y-143309523D01*
X36524819Y-143023809D02*
X35524819Y-143023809D01*
X35524819Y-143023809D02*
X35667676Y-143119047D01*
X35667676Y-143119047D02*
X35762914Y-143214285D01*
X35762914Y-143214285D02*
X35810533Y-143309523D01*
X63886476Y-91407200D02*
X64029333Y-91454819D01*
X64029333Y-91454819D02*
X64267428Y-91454819D01*
X64267428Y-91454819D02*
X64362666Y-91407200D01*
X64362666Y-91407200D02*
X64410285Y-91359580D01*
X64410285Y-91359580D02*
X64457904Y-91264342D01*
X64457904Y-91264342D02*
X64457904Y-91169104D01*
X64457904Y-91169104D02*
X64410285Y-91073866D01*
X64410285Y-91073866D02*
X64362666Y-91026247D01*
X64362666Y-91026247D02*
X64267428Y-90978628D01*
X64267428Y-90978628D02*
X64076952Y-90931009D01*
X64076952Y-90931009D02*
X63981714Y-90883390D01*
X63981714Y-90883390D02*
X63934095Y-90835771D01*
X63934095Y-90835771D02*
X63886476Y-90740533D01*
X63886476Y-90740533D02*
X63886476Y-90645295D01*
X63886476Y-90645295D02*
X63934095Y-90550057D01*
X63934095Y-90550057D02*
X63981714Y-90502438D01*
X63981714Y-90502438D02*
X64076952Y-90454819D01*
X64076952Y-90454819D02*
X64315047Y-90454819D01*
X64315047Y-90454819D02*
X64457904Y-90502438D01*
X64791238Y-90454819D02*
X65029333Y-91454819D01*
X65029333Y-91454819D02*
X65219809Y-90740533D01*
X65219809Y-90740533D02*
X65410285Y-91454819D01*
X65410285Y-91454819D02*
X65648381Y-90454819D01*
X66553142Y-91454819D02*
X65981714Y-91454819D01*
X66267428Y-91454819D02*
X66267428Y-90454819D01*
X66267428Y-90454819D02*
X66172190Y-90597676D01*
X66172190Y-90597676D02*
X66076952Y-90692914D01*
X66076952Y-90692914D02*
X65981714Y-90740533D01*
X67505523Y-91454819D02*
X66934095Y-91454819D01*
X67219809Y-91454819D02*
X67219809Y-90454819D01*
X67219809Y-90454819D02*
X67124571Y-90597676D01*
X67124571Y-90597676D02*
X67029333Y-90692914D01*
X67029333Y-90692914D02*
X66934095Y-90740533D01*
X52522095Y-125068819D02*
X52522095Y-125878342D01*
X52522095Y-125878342D02*
X52569714Y-125973580D01*
X52569714Y-125973580D02*
X52617333Y-126021200D01*
X52617333Y-126021200D02*
X52712571Y-126068819D01*
X52712571Y-126068819D02*
X52903047Y-126068819D01*
X52903047Y-126068819D02*
X52998285Y-126021200D01*
X52998285Y-126021200D02*
X53045904Y-125973580D01*
X53045904Y-125973580D02*
X53093523Y-125878342D01*
X53093523Y-125878342D02*
X53093523Y-125068819D01*
X53474476Y-125068819D02*
X54093523Y-125068819D01*
X54093523Y-125068819D02*
X53760190Y-125449771D01*
X53760190Y-125449771D02*
X53903047Y-125449771D01*
X53903047Y-125449771D02*
X53998285Y-125497390D01*
X53998285Y-125497390D02*
X54045904Y-125545009D01*
X54045904Y-125545009D02*
X54093523Y-125640247D01*
X54093523Y-125640247D02*
X54093523Y-125878342D01*
X54093523Y-125878342D02*
X54045904Y-125973580D01*
X54045904Y-125973580D02*
X53998285Y-126021200D01*
X53998285Y-126021200D02*
X53903047Y-126068819D01*
X53903047Y-126068819D02*
X53617333Y-126068819D01*
X53617333Y-126068819D02*
X53522095Y-126021200D01*
X53522095Y-126021200D02*
X53474476Y-125973580D01*
X37406482Y-82799693D02*
X38113589Y-82092587D01*
X38113589Y-82092587D02*
X38281948Y-82260945D01*
X38281948Y-82260945D02*
X38349291Y-82395632D01*
X38349291Y-82395632D02*
X38349291Y-82530319D01*
X38349291Y-82530319D02*
X38315619Y-82631335D01*
X38315619Y-82631335D02*
X38214604Y-82799693D01*
X38214604Y-82799693D02*
X38113589Y-82900709D01*
X38113589Y-82900709D02*
X37945230Y-83001724D01*
X37945230Y-83001724D02*
X37844215Y-83035396D01*
X37844215Y-83035396D02*
X37709528Y-83035396D01*
X37709528Y-83035396D02*
X37574841Y-82968052D01*
X37574841Y-82968052D02*
X37406482Y-82799693D01*
X38719680Y-82833365D02*
X38787024Y-82833365D01*
X38787024Y-82833365D02*
X38888039Y-82867037D01*
X38888039Y-82867037D02*
X39056398Y-83035396D01*
X39056398Y-83035396D02*
X39090070Y-83136411D01*
X39090070Y-83136411D02*
X39090070Y-83203754D01*
X39090070Y-83203754D02*
X39056398Y-83304770D01*
X39056398Y-83304770D02*
X38989054Y-83372113D01*
X38989054Y-83372113D02*
X38854367Y-83439457D01*
X38854367Y-83439457D02*
X38046245Y-83439457D01*
X38046245Y-83439457D02*
X38483978Y-83877189D01*
X67083333Y-36204819D02*
X66750000Y-35728628D01*
X66511905Y-36204819D02*
X66511905Y-35204819D01*
X66511905Y-35204819D02*
X66892857Y-35204819D01*
X66892857Y-35204819D02*
X66988095Y-35252438D01*
X66988095Y-35252438D02*
X67035714Y-35300057D01*
X67035714Y-35300057D02*
X67083333Y-35395295D01*
X67083333Y-35395295D02*
X67083333Y-35538152D01*
X67083333Y-35538152D02*
X67035714Y-35633390D01*
X67035714Y-35633390D02*
X66988095Y-35681009D01*
X66988095Y-35681009D02*
X66892857Y-35728628D01*
X66892857Y-35728628D02*
X66511905Y-35728628D01*
X68035714Y-36204819D02*
X67464286Y-36204819D01*
X67750000Y-36204819D02*
X67750000Y-35204819D01*
X67750000Y-35204819D02*
X67654762Y-35347676D01*
X67654762Y-35347676D02*
X67559524Y-35442914D01*
X67559524Y-35442914D02*
X67464286Y-35490533D01*
X51916667Y-116299200D02*
X52059524Y-116346819D01*
X52059524Y-116346819D02*
X52297619Y-116346819D01*
X52297619Y-116346819D02*
X52392857Y-116299200D01*
X52392857Y-116299200D02*
X52440476Y-116251580D01*
X52440476Y-116251580D02*
X52488095Y-116156342D01*
X52488095Y-116156342D02*
X52488095Y-116061104D01*
X52488095Y-116061104D02*
X52440476Y-115965866D01*
X52440476Y-115965866D02*
X52392857Y-115918247D01*
X52392857Y-115918247D02*
X52297619Y-115870628D01*
X52297619Y-115870628D02*
X52107143Y-115823009D01*
X52107143Y-115823009D02*
X52011905Y-115775390D01*
X52011905Y-115775390D02*
X51964286Y-115727771D01*
X51964286Y-115727771D02*
X51916667Y-115632533D01*
X51916667Y-115632533D02*
X51916667Y-115537295D01*
X51916667Y-115537295D02*
X51964286Y-115442057D01*
X51964286Y-115442057D02*
X52011905Y-115394438D01*
X52011905Y-115394438D02*
X52107143Y-115346819D01*
X52107143Y-115346819D02*
X52345238Y-115346819D01*
X52345238Y-115346819D02*
X52488095Y-115394438D01*
X52821429Y-115346819D02*
X53059524Y-116346819D01*
X53059524Y-116346819D02*
X53250000Y-115632533D01*
X53250000Y-115632533D02*
X53440476Y-116346819D01*
X53440476Y-116346819D02*
X53678572Y-115346819D01*
X54202381Y-115775390D02*
X54107143Y-115727771D01*
X54107143Y-115727771D02*
X54059524Y-115680152D01*
X54059524Y-115680152D02*
X54011905Y-115584914D01*
X54011905Y-115584914D02*
X54011905Y-115537295D01*
X54011905Y-115537295D02*
X54059524Y-115442057D01*
X54059524Y-115442057D02*
X54107143Y-115394438D01*
X54107143Y-115394438D02*
X54202381Y-115346819D01*
X54202381Y-115346819D02*
X54392857Y-115346819D01*
X54392857Y-115346819D02*
X54488095Y-115394438D01*
X54488095Y-115394438D02*
X54535714Y-115442057D01*
X54535714Y-115442057D02*
X54583333Y-115537295D01*
X54583333Y-115537295D02*
X54583333Y-115584914D01*
X54583333Y-115584914D02*
X54535714Y-115680152D01*
X54535714Y-115680152D02*
X54488095Y-115727771D01*
X54488095Y-115727771D02*
X54392857Y-115775390D01*
X54392857Y-115775390D02*
X54202381Y-115775390D01*
X54202381Y-115775390D02*
X54107143Y-115823009D01*
X54107143Y-115823009D02*
X54059524Y-115870628D01*
X54059524Y-115870628D02*
X54011905Y-115965866D01*
X54011905Y-115965866D02*
X54011905Y-116156342D01*
X54011905Y-116156342D02*
X54059524Y-116251580D01*
X54059524Y-116251580D02*
X54107143Y-116299200D01*
X54107143Y-116299200D02*
X54202381Y-116346819D01*
X54202381Y-116346819D02*
X54392857Y-116346819D01*
X54392857Y-116346819D02*
X54488095Y-116299200D01*
X54488095Y-116299200D02*
X54535714Y-116251580D01*
X54535714Y-116251580D02*
X54583333Y-116156342D01*
X54583333Y-116156342D02*
X54583333Y-115965866D01*
X54583333Y-115965866D02*
X54535714Y-115870628D01*
X54535714Y-115870628D02*
X54488095Y-115823009D01*
X54488095Y-115823009D02*
X54392857Y-115775390D01*
X61884819Y-123241666D02*
X61408628Y-123574999D01*
X61884819Y-123813094D02*
X60884819Y-123813094D01*
X60884819Y-123813094D02*
X60884819Y-123432142D01*
X60884819Y-123432142D02*
X60932438Y-123336904D01*
X60932438Y-123336904D02*
X60980057Y-123289285D01*
X60980057Y-123289285D02*
X61075295Y-123241666D01*
X61075295Y-123241666D02*
X61218152Y-123241666D01*
X61218152Y-123241666D02*
X61313390Y-123289285D01*
X61313390Y-123289285D02*
X61361009Y-123336904D01*
X61361009Y-123336904D02*
X61408628Y-123432142D01*
X61408628Y-123432142D02*
X61408628Y-123813094D01*
X60884819Y-122336904D02*
X60884819Y-122813094D01*
X60884819Y-122813094D02*
X61361009Y-122860713D01*
X61361009Y-122860713D02*
X61313390Y-122813094D01*
X61313390Y-122813094D02*
X61265771Y-122717856D01*
X61265771Y-122717856D02*
X61265771Y-122479761D01*
X61265771Y-122479761D02*
X61313390Y-122384523D01*
X61313390Y-122384523D02*
X61361009Y-122336904D01*
X61361009Y-122336904D02*
X61456247Y-122289285D01*
X61456247Y-122289285D02*
X61694342Y-122289285D01*
X61694342Y-122289285D02*
X61789580Y-122336904D01*
X61789580Y-122336904D02*
X61837200Y-122384523D01*
X61837200Y-122384523D02*
X61884819Y-122479761D01*
X61884819Y-122479761D02*
X61884819Y-122717856D01*
X61884819Y-122717856D02*
X61837200Y-122813094D01*
X61837200Y-122813094D02*
X61789580Y-122860713D01*
D15*
X49571428Y-87367219D02*
X50238095Y-87367219D01*
X50523809Y-88414838D02*
X49571428Y-88414838D01*
X49571428Y-88414838D02*
X49571428Y-86414838D01*
X49571428Y-86414838D02*
X50523809Y-86414838D01*
X51380952Y-88414838D02*
X51380952Y-86414838D01*
X51380952Y-86414838D02*
X52523809Y-88414838D01*
X52523809Y-88414838D02*
X52523809Y-86414838D01*
X54619047Y-88224361D02*
X54523809Y-88319600D01*
X54523809Y-88319600D02*
X54238095Y-88414838D01*
X54238095Y-88414838D02*
X54047619Y-88414838D01*
X54047619Y-88414838D02*
X53761904Y-88319600D01*
X53761904Y-88319600D02*
X53571428Y-88129123D01*
X53571428Y-88129123D02*
X53476190Y-87938647D01*
X53476190Y-87938647D02*
X53380952Y-87557695D01*
X53380952Y-87557695D02*
X53380952Y-87271980D01*
X53380952Y-87271980D02*
X53476190Y-86891028D01*
X53476190Y-86891028D02*
X53571428Y-86700552D01*
X53571428Y-86700552D02*
X53761904Y-86510076D01*
X53761904Y-86510076D02*
X54047619Y-86414838D01*
X54047619Y-86414838D02*
X54238095Y-86414838D01*
X54238095Y-86414838D02*
X54523809Y-86510076D01*
X54523809Y-86510076D02*
X54619047Y-86605314D01*
X56523809Y-88414838D02*
X55380952Y-88414838D01*
X55952380Y-88414838D02*
X55952380Y-86414838D01*
X55952380Y-86414838D02*
X55761904Y-86700552D01*
X55761904Y-86700552D02*
X55571428Y-86891028D01*
X55571428Y-86891028D02*
X55380952Y-86986266D01*
D11*
X51916667Y-91407200D02*
X52059524Y-91454819D01*
X52059524Y-91454819D02*
X52297619Y-91454819D01*
X52297619Y-91454819D02*
X52392857Y-91407200D01*
X52392857Y-91407200D02*
X52440476Y-91359580D01*
X52440476Y-91359580D02*
X52488095Y-91264342D01*
X52488095Y-91264342D02*
X52488095Y-91169104D01*
X52488095Y-91169104D02*
X52440476Y-91073866D01*
X52440476Y-91073866D02*
X52392857Y-91026247D01*
X52392857Y-91026247D02*
X52297619Y-90978628D01*
X52297619Y-90978628D02*
X52107143Y-90931009D01*
X52107143Y-90931009D02*
X52011905Y-90883390D01*
X52011905Y-90883390D02*
X51964286Y-90835771D01*
X51964286Y-90835771D02*
X51916667Y-90740533D01*
X51916667Y-90740533D02*
X51916667Y-90645295D01*
X51916667Y-90645295D02*
X51964286Y-90550057D01*
X51964286Y-90550057D02*
X52011905Y-90502438D01*
X52011905Y-90502438D02*
X52107143Y-90454819D01*
X52107143Y-90454819D02*
X52345238Y-90454819D01*
X52345238Y-90454819D02*
X52488095Y-90502438D01*
X52821429Y-90454819D02*
X53059524Y-91454819D01*
X53059524Y-91454819D02*
X53250000Y-90740533D01*
X53250000Y-90740533D02*
X53440476Y-91454819D01*
X53440476Y-91454819D02*
X53678572Y-90454819D01*
X54488095Y-90454819D02*
X54297619Y-90454819D01*
X54297619Y-90454819D02*
X54202381Y-90502438D01*
X54202381Y-90502438D02*
X54154762Y-90550057D01*
X54154762Y-90550057D02*
X54059524Y-90692914D01*
X54059524Y-90692914D02*
X54011905Y-90883390D01*
X54011905Y-90883390D02*
X54011905Y-91264342D01*
X54011905Y-91264342D02*
X54059524Y-91359580D01*
X54059524Y-91359580D02*
X54107143Y-91407200D01*
X54107143Y-91407200D02*
X54202381Y-91454819D01*
X54202381Y-91454819D02*
X54392857Y-91454819D01*
X54392857Y-91454819D02*
X54488095Y-91407200D01*
X54488095Y-91407200D02*
X54535714Y-91359580D01*
X54535714Y-91359580D02*
X54583333Y-91264342D01*
X54583333Y-91264342D02*
X54583333Y-91026247D01*
X54583333Y-91026247D02*
X54535714Y-90931009D01*
X54535714Y-90931009D02*
X54488095Y-90883390D01*
X54488095Y-90883390D02*
X54392857Y-90835771D01*
X54392857Y-90835771D02*
X54202381Y-90835771D01*
X54202381Y-90835771D02*
X54107143Y-90883390D01*
X54107143Y-90883390D02*
X54059524Y-90931009D01*
X54059524Y-90931009D02*
X54011905Y-91026247D01*
X40150057Y-84532738D02*
X40102438Y-84627976D01*
X40102438Y-84627976D02*
X40007200Y-84723214D01*
X40007200Y-84723214D02*
X39864342Y-84866071D01*
X39864342Y-84866071D02*
X39816723Y-84961309D01*
X39816723Y-84961309D02*
X39816723Y-85056547D01*
X40054819Y-85008928D02*
X40007200Y-85104166D01*
X40007200Y-85104166D02*
X39911961Y-85199404D01*
X39911961Y-85199404D02*
X39721485Y-85247023D01*
X39721485Y-85247023D02*
X39388152Y-85247023D01*
X39388152Y-85247023D02*
X39197676Y-85199404D01*
X39197676Y-85199404D02*
X39102438Y-85104166D01*
X39102438Y-85104166D02*
X39054819Y-85008928D01*
X39054819Y-85008928D02*
X39054819Y-84818452D01*
X39054819Y-84818452D02*
X39102438Y-84723214D01*
X39102438Y-84723214D02*
X39197676Y-84627976D01*
X39197676Y-84627976D02*
X39388152Y-84580357D01*
X39388152Y-84580357D02*
X39721485Y-84580357D01*
X39721485Y-84580357D02*
X39911961Y-84627976D01*
X39911961Y-84627976D02*
X40007200Y-84723214D01*
X40007200Y-84723214D02*
X40054819Y-84818452D01*
X40054819Y-84818452D02*
X40054819Y-85008928D01*
X39150057Y-84199404D02*
X39102438Y-84151785D01*
X39102438Y-84151785D02*
X39054819Y-84056547D01*
X39054819Y-84056547D02*
X39054819Y-83818452D01*
X39054819Y-83818452D02*
X39102438Y-83723214D01*
X39102438Y-83723214D02*
X39150057Y-83675595D01*
X39150057Y-83675595D02*
X39245295Y-83627976D01*
X39245295Y-83627976D02*
X39340533Y-83627976D01*
X39340533Y-83627976D02*
X39483390Y-83675595D01*
X39483390Y-83675595D02*
X40054819Y-84247023D01*
X40054819Y-84247023D02*
X40054819Y-83627976D01*
X39470667Y-91407200D02*
X39613524Y-91454819D01*
X39613524Y-91454819D02*
X39851619Y-91454819D01*
X39851619Y-91454819D02*
X39946857Y-91407200D01*
X39946857Y-91407200D02*
X39994476Y-91359580D01*
X39994476Y-91359580D02*
X40042095Y-91264342D01*
X40042095Y-91264342D02*
X40042095Y-91169104D01*
X40042095Y-91169104D02*
X39994476Y-91073866D01*
X39994476Y-91073866D02*
X39946857Y-91026247D01*
X39946857Y-91026247D02*
X39851619Y-90978628D01*
X39851619Y-90978628D02*
X39661143Y-90931009D01*
X39661143Y-90931009D02*
X39565905Y-90883390D01*
X39565905Y-90883390D02*
X39518286Y-90835771D01*
X39518286Y-90835771D02*
X39470667Y-90740533D01*
X39470667Y-90740533D02*
X39470667Y-90645295D01*
X39470667Y-90645295D02*
X39518286Y-90550057D01*
X39518286Y-90550057D02*
X39565905Y-90502438D01*
X39565905Y-90502438D02*
X39661143Y-90454819D01*
X39661143Y-90454819D02*
X39899238Y-90454819D01*
X39899238Y-90454819D02*
X40042095Y-90502438D01*
X40375429Y-90454819D02*
X40613524Y-91454819D01*
X40613524Y-91454819D02*
X40804000Y-90740533D01*
X40804000Y-90740533D02*
X40994476Y-91454819D01*
X40994476Y-91454819D02*
X41232572Y-90454819D01*
X41518286Y-90454819D02*
X42137333Y-90454819D01*
X42137333Y-90454819D02*
X41804000Y-90835771D01*
X41804000Y-90835771D02*
X41946857Y-90835771D01*
X41946857Y-90835771D02*
X42042095Y-90883390D01*
X42042095Y-90883390D02*
X42089714Y-90931009D01*
X42089714Y-90931009D02*
X42137333Y-91026247D01*
X42137333Y-91026247D02*
X42137333Y-91264342D01*
X42137333Y-91264342D02*
X42089714Y-91359580D01*
X42089714Y-91359580D02*
X42042095Y-91407200D01*
X42042095Y-91407200D02*
X41946857Y-91454819D01*
X41946857Y-91454819D02*
X41661143Y-91454819D01*
X41661143Y-91454819D02*
X41565905Y-91407200D01*
X41565905Y-91407200D02*
X41518286Y-91359580D01*
X38134038Y-53509056D02*
X37426932Y-52801949D01*
X37426932Y-52801949D02*
X37595290Y-52633590D01*
X37595290Y-52633590D02*
X37729977Y-52566247D01*
X37729977Y-52566247D02*
X37864664Y-52566247D01*
X37864664Y-52566247D02*
X37965680Y-52599919D01*
X37965680Y-52599919D02*
X38134038Y-52700934D01*
X38134038Y-52700934D02*
X38235054Y-52801949D01*
X38235054Y-52801949D02*
X38336069Y-52970308D01*
X38336069Y-52970308D02*
X38369741Y-53071323D01*
X38369741Y-53071323D02*
X38369741Y-53206010D01*
X38369741Y-53206010D02*
X38302397Y-53340697D01*
X38302397Y-53340697D02*
X38134038Y-53509056D01*
X38066695Y-52162186D02*
X38504428Y-51724453D01*
X38504428Y-51724453D02*
X38538099Y-52229529D01*
X38538099Y-52229529D02*
X38639115Y-52128514D01*
X38639115Y-52128514D02*
X38740130Y-52094842D01*
X38740130Y-52094842D02*
X38807473Y-52094842D01*
X38807473Y-52094842D02*
X38908489Y-52128514D01*
X38908489Y-52128514D02*
X39076847Y-52296873D01*
X39076847Y-52296873D02*
X39110519Y-52397888D01*
X39110519Y-52397888D02*
X39110519Y-52465232D01*
X39110519Y-52465232D02*
X39076847Y-52566247D01*
X39076847Y-52566247D02*
X38874817Y-52768277D01*
X38874817Y-52768277D02*
X38773802Y-52801949D01*
X38773802Y-52801949D02*
X38706458Y-52801949D01*
%TO.C,R4*%
X58477500Y-119512742D02*
X58477500Y-119987258D01*
X59522500Y-119512742D02*
X59522500Y-119987258D01*
%TO.C,C1*%
X56261252Y-124265000D02*
X55738748Y-124265000D01*
X56261252Y-125735000D02*
X55738748Y-125735000D01*
%TO.C,D4*%
X65037433Y-54175589D02*
X66734489Y-52478533D01*
X66663779Y-55801935D02*
X65037433Y-54175589D01*
X66663779Y-55801935D02*
X67088043Y-55801935D01*
X68572967Y-54317011D02*
X66734489Y-52478533D01*
X68572967Y-54317011D02*
X67088043Y-55801935D01*
%TO.C,U1*%
X47220000Y-139107000D02*
X47220000Y-156252000D01*
X49125000Y-158157000D02*
X63095000Y-158157000D01*
X51606000Y-159167000D02*
X51606000Y-158157000D01*
X60101272Y-159667000D02*
X52106000Y-159667000D01*
X60605000Y-158157000D02*
X60601272Y-159167272D01*
X63095000Y-137202000D02*
X49125000Y-137202000D01*
X65000000Y-139107000D02*
X65000000Y-156252000D01*
X47220000Y-139107000D02*
G75*
G02*
X49125000Y-137202000I1905000J0D01*
G01*
X49125000Y-158157000D02*
G75*
G02*
X47220000Y-156252000I0J1905000D01*
G01*
X52106000Y-159667000D02*
G75*
G02*
X51606000Y-159167000I0J500000D01*
G01*
X60601272Y-159167272D02*
G75*
G02*
X60101272Y-159667002I-500022J292D01*
G01*
X63095000Y-137202000D02*
G75*
G02*
X65000000Y-139107000I0J-1905000D01*
G01*
X65000000Y-156256000D02*
G75*
G02*
X63095000Y-158161000I-1905001J1D01*
G01*
D16*
X64188000Y-157024000D02*
G75*
G02*
X63684000Y-157024000I-252000J0D01*
G01*
X63684000Y-157024000D02*
G75*
G02*
X64188000Y-157024000I252000J0D01*
G01*
X65462000Y-157741000D02*
G75*
G02*
X64958000Y-157741000I-252000J0D01*
G01*
X64958000Y-157741000D02*
G75*
G02*
X65462000Y-157741000I252000J0D01*
G01*
%TO.C,Q1*%
D11*
X67552500Y-30740000D02*
X69072500Y-30740000D01*
X67552500Y-31740000D02*
X67552500Y-30740000D01*
X67552500Y-33860000D02*
X67552500Y-32860000D01*
X69072500Y-30740000D02*
X69072500Y-30790000D01*
X69072500Y-31910000D02*
X69072500Y-32690000D01*
X69072500Y-33810000D02*
X69072500Y-33860000D01*
X69072500Y-33860000D02*
X67552500Y-33860000D01*
X69612500Y-32680000D02*
X69372500Y-32350000D01*
X69852500Y-32350000D01*
X69612500Y-32680000D01*
G36*
X69612500Y-32680000D02*
G01*
X69372500Y-32350000D01*
X69852500Y-32350000D01*
X69612500Y-32680000D01*
G37*
%TO.C,Q3*%
X36890000Y-139552500D02*
X37890000Y-139552500D01*
X36890000Y-141072500D02*
X36890000Y-139552500D01*
X36940000Y-141072500D02*
X36890000Y-141072500D01*
X38840000Y-141072500D02*
X38060000Y-141072500D01*
X39010000Y-139552500D02*
X40010000Y-139552500D01*
X40010000Y-139552500D02*
X40010000Y-141072500D01*
X40010000Y-141072500D02*
X39960000Y-141072500D01*
X38070000Y-141612500D02*
X38400000Y-141372500D01*
X38400000Y-141852500D01*
X38070000Y-141612500D01*
G36*
X38400000Y-141852500D02*
G01*
X38070000Y-141612500D01*
X38400000Y-141372500D01*
X38400000Y-141852500D01*
G37*
%TO.C,SW10*%
X63536000Y-108743000D02*
X63536000Y-105633000D01*
X64906000Y-104938000D02*
X66666000Y-104938000D01*
X64906000Y-109438000D02*
X66666000Y-109438000D01*
X68036000Y-108743000D02*
X68036000Y-105633000D01*
D15*
X64136000Y-110414000D02*
G75*
G02*
X63936000Y-110414000I-100000J0D01*
G01*
X63936000Y-110414000D02*
G75*
G02*
X64136000Y-110414000I100000J0D01*
G01*
%TO.C,SW9*%
D11*
X63536000Y-121189000D02*
X63536000Y-118079000D01*
X64906000Y-117384000D02*
X66666000Y-117384000D01*
X64906000Y-121884000D02*
X66666000Y-121884000D01*
X68036000Y-121189000D02*
X68036000Y-118079000D01*
D15*
X64136000Y-122860000D02*
G75*
G02*
X63936000Y-122860000I-100000J0D01*
G01*
X63936000Y-122860000D02*
G75*
G02*
X64136000Y-122860000I100000J0D01*
G01*
%TO.C,C3*%
D11*
X45740000Y-35359420D02*
X45740000Y-35640580D01*
X46760000Y-35359420D02*
X46760000Y-35640580D01*
%TO.C,SW5*%
X38644000Y-121189000D02*
X38644000Y-118079000D01*
X40014000Y-117384000D02*
X41774000Y-117384000D01*
X40014000Y-121884000D02*
X41774000Y-121884000D01*
X43144000Y-121189000D02*
X43144000Y-118079000D01*
D15*
X39244000Y-122860000D02*
G75*
G02*
X39044000Y-122860000I-100000J0D01*
G01*
X39044000Y-122860000D02*
G75*
G02*
X39244000Y-122860000I100000J0D01*
G01*
%TO.C,SW2*%
D11*
X38644000Y-39131000D02*
X38644000Y-42241000D01*
X41774000Y-38436000D02*
X40014000Y-38436000D01*
X41774000Y-42936000D02*
X40014000Y-42936000D01*
X43144000Y-39131000D02*
X43144000Y-42241000D01*
D15*
X42744000Y-37460000D02*
G75*
G02*
X42544000Y-37460000I-100000J0D01*
G01*
X42544000Y-37460000D02*
G75*
G02*
X42744000Y-37460000I100000J0D01*
G01*
%TO.C,SW7*%
D11*
X51090000Y-108743000D02*
X51090000Y-105633000D01*
X52460000Y-104938000D02*
X54220000Y-104938000D01*
X52460000Y-109438000D02*
X54220000Y-109438000D01*
X55590000Y-108743000D02*
X55590000Y-105633000D01*
D15*
X51690000Y-110414000D02*
G75*
G02*
X51490000Y-110414000I-100000J0D01*
G01*
X51490000Y-110414000D02*
G75*
G02*
X51690000Y-110414000I100000J0D01*
G01*
%TO.C,R9*%
D11*
X69662258Y-154477500D02*
X69187742Y-154477500D01*
X69662258Y-155522500D02*
X69187742Y-155522500D01*
%TO.C,SW4*%
X38586910Y-108769000D02*
X38586910Y-105659000D01*
X39956910Y-104964000D02*
X41716910Y-104964000D01*
X39956910Y-109464000D02*
X41716910Y-109464000D01*
X43086910Y-108769000D02*
X43086910Y-105659000D01*
D15*
X39186910Y-110440000D02*
G75*
G02*
X38986910Y-110440000I-100000J0D01*
G01*
X38986910Y-110440000D02*
G75*
G02*
X39186910Y-110440000I100000J0D01*
G01*
%TO.C,D5*%
D11*
X65249565Y-81040379D02*
X65249565Y-81464643D01*
X65249565Y-81040379D02*
X66875911Y-79414033D01*
X66734489Y-82949567D02*
X65249565Y-81464643D01*
X66734489Y-82949567D02*
X68572967Y-81111089D01*
X66875911Y-79414033D02*
X68572967Y-81111089D01*
%TO.C,SW1*%
X63500000Y-39131000D02*
X63500000Y-42241000D01*
X66630000Y-38436000D02*
X64870000Y-38436000D01*
X66630000Y-42936000D02*
X64870000Y-42936000D01*
X68000000Y-39131000D02*
X68000000Y-42241000D01*
D15*
X67600000Y-37460000D02*
G75*
G02*
X67400000Y-37460000I-100000J0D01*
G01*
X67400000Y-37460000D02*
G75*
G02*
X67600000Y-37460000I100000J0D01*
G01*
%TO.C,R11*%
D11*
X36977500Y-144237258D02*
X36977500Y-143762742D01*
X38022500Y-144237258D02*
X38022500Y-143762742D01*
%TO.C,SW11*%
X63536000Y-96297000D02*
X63536000Y-93187000D01*
X64906000Y-92492000D02*
X66666000Y-92492000D01*
X64906000Y-96992000D02*
X66666000Y-96992000D01*
X68036000Y-96297000D02*
X68036000Y-93187000D01*
D15*
X64136000Y-97968000D02*
G75*
G02*
X63936000Y-97968000I-100000J0D01*
G01*
X63936000Y-97968000D02*
G75*
G02*
X64136000Y-97968000I100000J0D01*
G01*
%TO.C,U3*%
D11*
X50524000Y-126454000D02*
X56044000Y-126454000D01*
X50524000Y-126629000D02*
X50524000Y-126454000D01*
X50524000Y-134874000D02*
X50524000Y-134699000D01*
X56044000Y-126454000D02*
X56044000Y-126629000D01*
X56044000Y-134699000D02*
X56044000Y-134874000D01*
X56044000Y-134874000D02*
X50524000Y-134874000D01*
X49784000Y-126624000D02*
X49444000Y-126154000D01*
X50124000Y-126154000D01*
X49784000Y-126624000D01*
G36*
X49784000Y-126624000D02*
G01*
X49444000Y-126154000D01*
X50124000Y-126154000D01*
X49784000Y-126624000D01*
G37*
%TO.C,D2*%
X38101933Y-81111089D02*
X39586857Y-79626165D01*
X38101933Y-81111089D02*
X39940411Y-82949567D01*
X40011121Y-79626165D02*
X39586857Y-79626165D01*
X40011121Y-79626165D02*
X41637467Y-81252511D01*
X41637467Y-81252511D02*
X39940411Y-82949567D01*
%TO.C,R1*%
X68477500Y-35987258D02*
X68477500Y-35512742D01*
X69522500Y-35987258D02*
X69522500Y-35512742D01*
%TO.C,SW8*%
X51090000Y-121189000D02*
X51090000Y-118079000D01*
X52460000Y-117384000D02*
X54220000Y-117384000D01*
X52460000Y-121884000D02*
X54220000Y-121884000D01*
X55590000Y-121189000D02*
X55590000Y-118079000D01*
D15*
X51690000Y-122860000D02*
G75*
G02*
X51490000Y-122860000I-100000J0D01*
G01*
X51490000Y-122860000D02*
G75*
G02*
X51690000Y-122860000I100000J0D01*
G01*
%TO.C,R5*%
D11*
X59477500Y-122837742D02*
X59477500Y-123312258D01*
X60522500Y-122837742D02*
X60522500Y-123312258D01*
%TO.C,ENC1*%
D17*
X70537455Y-67714045D02*
G75*
G02*
X36137455Y-67714045I-17200000J0D01*
G01*
X36137455Y-67714045D02*
G75*
G02*
X70537455Y-67714045I17200000J0D01*
G01*
%TO.C,SW6*%
D11*
X51090000Y-96297000D02*
X51090000Y-93187000D01*
X52460000Y-92492000D02*
X54220000Y-92492000D01*
X52460000Y-96992000D02*
X54220000Y-96992000D01*
X55590000Y-96297000D02*
X55590000Y-93187000D01*
D15*
X51690000Y-97968000D02*
G75*
G02*
X51490000Y-97968000I-100000J0D01*
G01*
X51490000Y-97968000D02*
G75*
G02*
X51690000Y-97968000I100000J0D01*
G01*
%TO.C,Q2*%
D11*
X40440000Y-83677500D02*
X41440000Y-83677500D01*
X40440000Y-85197500D02*
X40440000Y-83677500D01*
X40490000Y-85197500D02*
X40440000Y-85197500D01*
X42390000Y-85197500D02*
X41610000Y-85197500D01*
X42560000Y-83677500D02*
X43560000Y-83677500D01*
X43560000Y-83677500D02*
X43560000Y-85197500D01*
X43560000Y-85197500D02*
X43510000Y-85197500D01*
X41620000Y-85737500D02*
X41950000Y-85497500D01*
X41950000Y-85977500D01*
X41620000Y-85737500D01*
G36*
X41950000Y-85977500D02*
G01*
X41620000Y-85737500D01*
X41950000Y-85497500D01*
X41950000Y-85977500D01*
G37*
%TO.C,SW3*%
X38644000Y-96297000D02*
X38644000Y-93187000D01*
X40014000Y-92492000D02*
X41774000Y-92492000D01*
X40014000Y-96992000D02*
X41774000Y-96992000D01*
X43144000Y-96297000D02*
X43144000Y-93187000D01*
D15*
X39244000Y-97968000D02*
G75*
G02*
X39044000Y-97968000I-100000J0D01*
G01*
X39044000Y-97968000D02*
G75*
G02*
X39244000Y-97968000I100000J0D01*
G01*
%TO.C,D3*%
D11*
X39798989Y-56014067D02*
X38101933Y-54317011D01*
X39940411Y-52478533D02*
X38101933Y-54317011D01*
X39940411Y-52478533D02*
X41425335Y-53963457D01*
X41425335Y-54387721D02*
X39798989Y-56014067D01*
X41425335Y-54387721D02*
X41425335Y-53963457D01*
%TD*%
M02*
