%TF.GenerationSoftware,KiCad,Pcbnew,10.0.3*%
%TF.CreationDate,2026-07-27T11:41:55-07:00*%
%TF.ProjectId,c6remote,63367265-6d6f-4746-952e-6b696361645f,rev?*%
%TF.SameCoordinates,Original*%
%TF.FileFunction,Paste,Bot*%
%TF.FilePolarity,Positive*%
%FSLAX46Y46*%
G04 Gerber Fmt 4.6, Leading zero omitted, Abs format (unit mm)*
G04 Created by KiCad (PCBNEW 10.0.3) date 2026-07-27 11:41:55*
%MOMM*%
%LPD*%
G01*
G04 APERTURE LIST*
G04 Aperture macros list*
%AMRoundRect*
0 Rectangle with rounded corners*
0 $1 Rounding radius*
0 $2 $3 $4 $5 $6 $7 $8 $9 X,Y pos of 4 corners*
0 Add a 4 corners polygon primitive as box body*
4,1,4,$2,$3,$4,$5,$6,$7,$8,$9,$2,$3,0*
0 Add four circle primitives for the rounded corners*
1,1,$1+$1,$2,$3*
1,1,$1+$1,$4,$5*
1,1,$1+$1,$6,$7*
1,1,$1+$1,$8,$9*
0 Add four rect primitives between the rounded corners*
20,1,$1+$1,$2,$3,$4,$5,0*
20,1,$1+$1,$4,$5,$6,$7,0*
20,1,$1+$1,$6,$7,$8,$9,0*
20,1,$1+$1,$8,$9,$2,$3,0*%
G04 Aperture macros list end*
%ADD10C,0.000000*%
%ADD11RoundRect,0.250000X-0.250000X-1.500000X0.250000X-1.500000X0.250000X1.500000X-0.250000X1.500000X0*%
%ADD12RoundRect,0.250001X-0.499999X-1.449999X0.499999X-1.449999X0.499999X1.449999X-0.499999X1.449999X0*%
%ADD13RoundRect,0.200000X-0.275000X0.200000X-0.275000X-0.200000X0.275000X-0.200000X0.275000X0.200000X0*%
%ADD14RoundRect,0.200000X-0.200000X-0.275000X0.200000X-0.275000X0.200000X0.275000X-0.200000X0.275000X0*%
%ADD15RoundRect,0.200000X0.200000X0.275000X-0.200000X0.275000X-0.200000X-0.275000X0.200000X-0.275000X0*%
G04 APERTURE END LIST*
%TO.C,MK1*%
G36*
X52200000Y-30717000D02*
G01*
X52700000Y-30717000D01*
X52700000Y-31139000D01*
X52200000Y-31139000D01*
X52200000Y-30717000D01*
G37*
G36*
X52200000Y-31539000D02*
G01*
X52700000Y-31539000D01*
X52700000Y-31961000D01*
X52200000Y-31961000D01*
X52200000Y-31539000D01*
G37*
G36*
X53100000Y-30717000D02*
G01*
X53600000Y-30717000D01*
X53600000Y-31139000D01*
X53100000Y-31139000D01*
X53100000Y-30717000D01*
G37*
G36*
X54000000Y-31539000D02*
G01*
X54500000Y-31539000D01*
X54500000Y-31961000D01*
X54000000Y-31961000D01*
X54000000Y-31539000D01*
G37*
G36*
X54000000Y-30717000D02*
G01*
X54500000Y-30717000D01*
X54500000Y-31139000D01*
X54000000Y-31139000D01*
X54000000Y-30717000D01*
G37*
D10*
G36*
X52810700Y-33161800D02*
G01*
X52852900Y-33265200D01*
X52914700Y-33358300D01*
X52993700Y-33437300D01*
X53086800Y-33499100D01*
X53190200Y-33541300D01*
X53300000Y-33562300D01*
X53300000Y-33813000D01*
X53134500Y-33785400D01*
X52978300Y-33724500D01*
X52837800Y-33632800D01*
X52719200Y-33514200D01*
X52627500Y-33373700D01*
X52566600Y-33217500D01*
X52539000Y-33052000D01*
X52789700Y-33052000D01*
X52810700Y-33161800D01*
G37*
G36*
X53300000Y-32441700D02*
G01*
X53190200Y-32462700D01*
X53086800Y-32504900D01*
X52993700Y-32566700D01*
X52914700Y-32645700D01*
X52852900Y-32738800D01*
X52810700Y-32842200D01*
X52789700Y-32952000D01*
X52539000Y-32952000D01*
X52566600Y-32786500D01*
X52627500Y-32630300D01*
X52719200Y-32489800D01*
X52837800Y-32371200D01*
X52978300Y-32279500D01*
X53134500Y-32218600D01*
X53300000Y-32191000D01*
X53300000Y-32441700D01*
G37*
G36*
X54133400Y-33217500D02*
G01*
X54072500Y-33373700D01*
X53980800Y-33514200D01*
X53862200Y-33632800D01*
X53721700Y-33724500D01*
X53565500Y-33785400D01*
X53400000Y-33813000D01*
X53400000Y-33562300D01*
X53509800Y-33541300D01*
X53613200Y-33499100D01*
X53706300Y-33437300D01*
X53785300Y-33358300D01*
X53847100Y-33265200D01*
X53889300Y-33161800D01*
X53910300Y-33052000D01*
X54161000Y-33052000D01*
X54133400Y-33217500D01*
G37*
G36*
X53565500Y-32218600D02*
G01*
X53721700Y-32279500D01*
X53862200Y-32371200D01*
X53980800Y-32489800D01*
X54072500Y-32630300D01*
X54133400Y-32786500D01*
X54161000Y-32952000D01*
X53910300Y-32952000D01*
X53889300Y-32842200D01*
X53847100Y-32738800D01*
X53785300Y-32645700D01*
X53706300Y-32566700D01*
X53613200Y-32504900D01*
X53509800Y-32462700D01*
X53400000Y-32441700D01*
X53400000Y-32191000D01*
X53565500Y-32218600D01*
G37*
%TD*%
D11*
%TO.C,J1*%
X39250000Y-155250000D03*
X41250000Y-155250000D03*
D12*
X36900000Y-149500000D03*
X43600000Y-149500000D03*
%TD*%
D13*
%TO.C,R7*%
X60000000Y-142175000D03*
X60000000Y-143825000D03*
%TD*%
D14*
%TO.C,R3*%
X57600000Y-31250000D03*
X59250000Y-31250000D03*
%TD*%
D15*
%TO.C,R6*%
X50075000Y-31250000D03*
X48425000Y-31250000D03*
%TD*%
%TO.C,R8*%
X52240000Y-152750000D03*
X50590000Y-152750000D03*
%TD*%
M02*
