%TF.GenerationSoftware,KiCad,Pcbnew,10.0.3*%
%TF.CreationDate,2026-07-30T23:01:51-07:00*%
%TF.ProjectId,c6remote,63367265-6d6f-4746-952e-6b696361645f,rev?*%
%TF.SameCoordinates,Original*%
%TF.FileFunction,Legend,Top*%
%TF.FilePolarity,Positive*%
%FSLAX46Y46*%
G04 Gerber Fmt 4.6, Leading zero omitted, Abs format (unit mm)*
G04 Created by KiCad (PCBNEW 10.0.3) date 2026-07-30 23:01:51*
%MOMM*%
%LPD*%
G01*
G04 APERTURE LIST*
%ADD10C,0.000000*%
%ADD11C,0.150000*%
%ADD12C,0.800000*%
%ADD13C,0.200000*%
%ADD14C,0.187500*%
%ADD15C,0.080000*%
%ADD16C,0.120000*%
%ADD17C,0.250000*%
%ADD18C,0.300000*%
%ADD19C,0.100000*%
%ADD20C,0.127000*%
%ADD21C,0.504000*%
G04 APERTURE END LIST*
D10*
G36*
X53894852Y-42236572D02*
G01*
X53904885Y-42236960D01*
X53914889Y-42237602D01*
X53924858Y-42238497D01*
X53934790Y-42239641D01*
X53944679Y-42241033D01*
X53954523Y-42242668D01*
X53964316Y-42244545D01*
X53974055Y-42246661D01*
X53983736Y-42249013D01*
X53993354Y-42251598D01*
X54002906Y-42254413D01*
X54012387Y-42257457D01*
X54021794Y-42260726D01*
X54031122Y-42264217D01*
X54040367Y-42267928D01*
X54049515Y-42271856D01*
X54058550Y-42275999D01*
X54067468Y-42280352D01*
X54076266Y-42284915D01*
X54084939Y-42289684D01*
X54093483Y-42294657D01*
X54101894Y-42299830D01*
X54110168Y-42305202D01*
X54118301Y-42310768D01*
X54126289Y-42316527D01*
X54134127Y-42322477D01*
X54141813Y-42328613D01*
X54149341Y-42334934D01*
X54156707Y-42341437D01*
X54163908Y-42348118D01*
X54170940Y-42354976D01*
X54177961Y-42362171D01*
X54184785Y-42369514D01*
X54191411Y-42377005D01*
X54197838Y-42384639D01*
X54204064Y-42392414D01*
X54210088Y-42400327D01*
X54215909Y-42408376D01*
X54221525Y-42416558D01*
X54226934Y-42424870D01*
X54232136Y-42433310D01*
X54237129Y-42441875D01*
X54241912Y-42450561D01*
X54246483Y-42459367D01*
X54250841Y-42468290D01*
X54254985Y-42477326D01*
X54258913Y-42486474D01*
X54262614Y-42495719D01*
X54266076Y-42505047D01*
X54269299Y-42514454D01*
X54272283Y-42523935D01*
X54275029Y-42533487D01*
X54277535Y-42543106D01*
X54279803Y-42552786D01*
X54281833Y-42562525D01*
X54283623Y-42572319D01*
X54285175Y-42582162D01*
X54286488Y-42592052D01*
X54287563Y-42601983D01*
X54288398Y-42611953D01*
X54288995Y-42621957D01*
X54289353Y-42631990D01*
X54289473Y-42642049D01*
X54289353Y-42651945D01*
X54288995Y-42661836D01*
X54288398Y-42671716D01*
X54287563Y-42681580D01*
X54286488Y-42691422D01*
X54285175Y-42701236D01*
X54283624Y-42711019D01*
X54281833Y-42720763D01*
X54279804Y-42730464D01*
X54277536Y-42740116D01*
X54275029Y-42749713D01*
X54272283Y-42759251D01*
X54269299Y-42768724D01*
X54266076Y-42778127D01*
X54262614Y-42787453D01*
X54258913Y-42796698D01*
X54254985Y-42805846D01*
X54250841Y-42814883D01*
X54246483Y-42823805D01*
X54241912Y-42832611D01*
X54237129Y-42841298D01*
X54232136Y-42849862D01*
X54226934Y-42858302D01*
X54221524Y-42866614D01*
X54215909Y-42874796D01*
X54210088Y-42882846D01*
X54204064Y-42890759D01*
X54197838Y-42898534D01*
X54191411Y-42906168D01*
X54184785Y-42913658D01*
X54177961Y-42921002D01*
X54170940Y-42928196D01*
X54163908Y-42935054D01*
X54156707Y-42941736D01*
X54149341Y-42948239D01*
X54141813Y-42954560D01*
X54134127Y-42960696D01*
X54126289Y-42966645D01*
X54118301Y-42972404D01*
X54110168Y-42977971D01*
X54101894Y-42983342D01*
X54093483Y-42988516D01*
X54084939Y-42993488D01*
X54076266Y-42998257D01*
X54067468Y-43002820D01*
X54058550Y-43007174D01*
X54049515Y-43011317D01*
X54040367Y-43015245D01*
X54031122Y-43018955D01*
X54021794Y-43022447D01*
X54012387Y-43025715D01*
X54002906Y-43028759D01*
X53993354Y-43031575D01*
X53983736Y-43034160D01*
X53974055Y-43036511D01*
X53964316Y-43038627D01*
X53954523Y-43040504D01*
X53944680Y-43042139D01*
X53934790Y-43043531D01*
X53924858Y-43044675D01*
X53914889Y-43045570D01*
X53904885Y-43046213D01*
X53894852Y-43046600D01*
X53884793Y-43046730D01*
X53874896Y-43046600D01*
X53865006Y-43046213D01*
X53855126Y-43045570D01*
X53845262Y-43044675D01*
X53835420Y-43043531D01*
X53825606Y-43042139D01*
X53815823Y-43040504D01*
X53806079Y-43038627D01*
X53796378Y-43036511D01*
X53786726Y-43034160D01*
X53777128Y-43031575D01*
X53767590Y-43028759D01*
X53758117Y-43025715D01*
X53748715Y-43022447D01*
X53739388Y-43018955D01*
X53730143Y-43015245D01*
X53720996Y-43011317D01*
X53711959Y-43007174D01*
X53703036Y-43002820D01*
X53694230Y-42998257D01*
X53685544Y-42993488D01*
X53676979Y-42988516D01*
X53668540Y-42983342D01*
X53660227Y-42977971D01*
X53652045Y-42972404D01*
X53643996Y-42966645D01*
X53636083Y-42960696D01*
X53628308Y-42954560D01*
X53620674Y-42948239D01*
X53613184Y-42941736D01*
X53605840Y-42935054D01*
X53598646Y-42928196D01*
X53591777Y-42921002D01*
X53585066Y-42913658D01*
X53578518Y-42906168D01*
X53572138Y-42898534D01*
X53565931Y-42890759D01*
X53559904Y-42882845D01*
X53554061Y-42874796D01*
X53548408Y-42866614D01*
X53542950Y-42858302D01*
X53537693Y-42849862D01*
X53532642Y-42841298D01*
X53527803Y-42832611D01*
X53523181Y-42823805D01*
X53518782Y-42814883D01*
X53514610Y-42805846D01*
X53510672Y-42796698D01*
X53506971Y-42787453D01*
X53503509Y-42778127D01*
X53500286Y-42768724D01*
X53497302Y-42759251D01*
X53494556Y-42749713D01*
X53492050Y-42740116D01*
X53489781Y-42730464D01*
X53487752Y-42720763D01*
X53485962Y-42711019D01*
X53484410Y-42701236D01*
X53483097Y-42691422D01*
X53482022Y-42681580D01*
X53481187Y-42671716D01*
X53480590Y-42661836D01*
X53480232Y-42651945D01*
X53480112Y-42642049D01*
X53480232Y-42631990D01*
X53480590Y-42621957D01*
X53481187Y-42611953D01*
X53482022Y-42601983D01*
X53483097Y-42592052D01*
X53484410Y-42582162D01*
X53485961Y-42572319D01*
X53487752Y-42562525D01*
X53489781Y-42552786D01*
X53492049Y-42543106D01*
X53494556Y-42533487D01*
X53497302Y-42523935D01*
X53500286Y-42514454D01*
X53503509Y-42505047D01*
X53506971Y-42495719D01*
X53510672Y-42486474D01*
X53514610Y-42477326D01*
X53518782Y-42468290D01*
X53523181Y-42459367D01*
X53527803Y-42450561D01*
X53532643Y-42441875D01*
X53537693Y-42433310D01*
X53542950Y-42424870D01*
X53548408Y-42416558D01*
X53554061Y-42408376D01*
X53559904Y-42400327D01*
X53565931Y-42392413D01*
X53572138Y-42384638D01*
X53578518Y-42377004D01*
X53585066Y-42369514D01*
X53591777Y-42362171D01*
X53598646Y-42354976D01*
X53605840Y-42348118D01*
X53613184Y-42341437D01*
X53620674Y-42334934D01*
X53628308Y-42328613D01*
X53636083Y-42322477D01*
X53643996Y-42316527D01*
X53652045Y-42310768D01*
X53660227Y-42305202D01*
X53668540Y-42299830D01*
X53676979Y-42294657D01*
X53685544Y-42289684D01*
X53694230Y-42284915D01*
X53703036Y-42280352D01*
X53711959Y-42275999D01*
X53720996Y-42271856D01*
X53730143Y-42267928D01*
X53739388Y-42264217D01*
X53748715Y-42260726D01*
X53758117Y-42257457D01*
X53767590Y-42254413D01*
X53777128Y-42251598D01*
X53786726Y-42249013D01*
X53796378Y-42246661D01*
X53806079Y-42244545D01*
X53815823Y-42242668D01*
X53825606Y-42241033D01*
X53835420Y-42239641D01*
X53845262Y-42238497D01*
X53855126Y-42237602D01*
X53865006Y-42236960D01*
X53874896Y-42236572D01*
X53884793Y-42236442D01*
X53894852Y-42236572D01*
G37*
G36*
X53316635Y-36492268D02*
G01*
X53322619Y-36492663D01*
X53328584Y-36493326D01*
X53334520Y-36494258D01*
X53340418Y-36495458D01*
X53346268Y-36496927D01*
X53352060Y-36498663D01*
X53357785Y-36500668D01*
X53363433Y-36502941D01*
X53368994Y-36505483D01*
X53374459Y-36508293D01*
X53379818Y-36511371D01*
X53385061Y-36514718D01*
X53390179Y-36518333D01*
X53395162Y-36522217D01*
X53400000Y-36526368D01*
X57003682Y-39769431D01*
X57003681Y-39769440D01*
X57011765Y-39777301D01*
X57018993Y-39785525D01*
X57025380Y-39794073D01*
X57030943Y-39802904D01*
X57035697Y-39811978D01*
X57039656Y-39821255D01*
X57042837Y-39830695D01*
X57045255Y-39840257D01*
X57046925Y-39849902D01*
X57047863Y-39859588D01*
X57048084Y-39869276D01*
X57047604Y-39878926D01*
X57046437Y-39888498D01*
X57044601Y-39897950D01*
X57042109Y-39907243D01*
X57038977Y-39916337D01*
X57035222Y-39925192D01*
X57030857Y-39933767D01*
X57025899Y-39942021D01*
X57020363Y-39949916D01*
X57014265Y-39957410D01*
X57007620Y-39964464D01*
X57000443Y-39971036D01*
X56992750Y-39977088D01*
X56984556Y-39982578D01*
X56975877Y-39987467D01*
X56966728Y-39991714D01*
X56957125Y-39995279D01*
X56947083Y-39998121D01*
X56936617Y-40000202D01*
X56925743Y-40001479D01*
X56914476Y-40001914D01*
X55903497Y-40001914D01*
X55903438Y-40001665D01*
X55903369Y-40001379D01*
X55903275Y-40001007D01*
X55686998Y-40001007D01*
X55682100Y-40000917D01*
X55677236Y-40000649D01*
X55672410Y-40000206D01*
X55667625Y-39999590D01*
X55662885Y-39998805D01*
X55658193Y-39997851D01*
X55653554Y-39996732D01*
X55648972Y-39995451D01*
X55644449Y-39994010D01*
X55639990Y-39992411D01*
X55635598Y-39990658D01*
X55631277Y-39988752D01*
X55627031Y-39986696D01*
X55622864Y-39984493D01*
X55618779Y-39982145D01*
X55614779Y-39979656D01*
X55610869Y-39977026D01*
X55607052Y-39974260D01*
X55603333Y-39971359D01*
X55599714Y-39968326D01*
X55596199Y-39965164D01*
X55592793Y-39961875D01*
X55589498Y-39958462D01*
X55586319Y-39954927D01*
X55583260Y-39951272D01*
X55580323Y-39947502D01*
X55577513Y-39943617D01*
X55574833Y-39939620D01*
X55572288Y-39935515D01*
X55569880Y-39931303D01*
X55567614Y-39926988D01*
X55565493Y-39922571D01*
X55549817Y-39889872D01*
X55531889Y-39855713D01*
X55511622Y-39820586D01*
X55488927Y-39784984D01*
X55463715Y-39749400D01*
X55435899Y-39714325D01*
X55405390Y-39680253D01*
X55372100Y-39647677D01*
X55335940Y-39617088D01*
X55316756Y-39602692D01*
X55296822Y-39588979D01*
X55276126Y-39576009D01*
X55254658Y-39563843D01*
X55232406Y-39552544D01*
X55209359Y-39542173D01*
X55185506Y-39532792D01*
X55160837Y-39524461D01*
X55135340Y-39517243D01*
X55109004Y-39511200D01*
X55081818Y-39506392D01*
X55053772Y-39502882D01*
X55024853Y-39500730D01*
X54995051Y-39500000D01*
X52818854Y-39500000D01*
X52775550Y-39501061D01*
X52733746Y-39504205D01*
X52693433Y-39509374D01*
X52654604Y-39516510D01*
X52617251Y-39525554D01*
X52581364Y-39536448D01*
X52546936Y-39549133D01*
X52513959Y-39563551D01*
X52482424Y-39579644D01*
X52452324Y-39597353D01*
X52423650Y-39616620D01*
X52396393Y-39637386D01*
X52370546Y-39659593D01*
X52346100Y-39683184D01*
X52323048Y-39708098D01*
X52301381Y-39734279D01*
X52281090Y-39761667D01*
X52262168Y-39790205D01*
X52244606Y-39819833D01*
X52228397Y-39850494D01*
X52213531Y-39882129D01*
X52200001Y-39914679D01*
X52176916Y-39982294D01*
X52159074Y-40052872D01*
X52146412Y-40125944D01*
X52138863Y-40201046D01*
X52136361Y-40277708D01*
X52152169Y-43026366D01*
X52152039Y-43033228D01*
X52151568Y-43040003D01*
X52150763Y-43046681D01*
X52149632Y-43053254D01*
X52148185Y-43059715D01*
X52146428Y-43066053D01*
X52144372Y-43072262D01*
X52142023Y-43078332D01*
X52139391Y-43084255D01*
X52136483Y-43090023D01*
X52133308Y-43095627D01*
X52129875Y-43101058D01*
X52126191Y-43106309D01*
X52122265Y-43111372D01*
X52118105Y-43116236D01*
X52113719Y-43120895D01*
X52109117Y-43125339D01*
X52104305Y-43129561D01*
X52099294Y-43133551D01*
X52094089Y-43137302D01*
X52088702Y-43140804D01*
X52083138Y-43144050D01*
X52077407Y-43147031D01*
X52071518Y-43149739D01*
X52065478Y-43152165D01*
X52059295Y-43154301D01*
X52052979Y-43156138D01*
X52046537Y-43157668D01*
X52039978Y-43158883D01*
X52033310Y-43159774D01*
X52026541Y-43160332D01*
X52019680Y-43160549D01*
X51569633Y-43163448D01*
X51569628Y-43163067D01*
X51569625Y-43162648D01*
X51569624Y-43161771D01*
X50696468Y-43162392D01*
X50689603Y-43162223D01*
X50682827Y-43161713D01*
X50676149Y-43160869D01*
X50669579Y-43159700D01*
X50663123Y-43158214D01*
X50656791Y-43156421D01*
X50650592Y-43154327D01*
X50644532Y-43151941D01*
X50638621Y-43149273D01*
X50632868Y-43146329D01*
X50627279Y-43143120D01*
X50621865Y-43139652D01*
X50616633Y-43135935D01*
X50611592Y-43131976D01*
X50606750Y-43127785D01*
X50602115Y-43123369D01*
X50597696Y-43118738D01*
X50593502Y-43113898D01*
X50589540Y-43108860D01*
X50585819Y-43103630D01*
X50582348Y-43098218D01*
X50579134Y-43092632D01*
X50576187Y-43086880D01*
X50573514Y-43080971D01*
X50571124Y-43074913D01*
X50569026Y-43068715D01*
X50567228Y-43062384D01*
X50565737Y-43055930D01*
X50564564Y-43049360D01*
X50563715Y-43042683D01*
X50563199Y-43035908D01*
X50563026Y-43029042D01*
X50563026Y-40135254D01*
X50562852Y-40128392D01*
X50562337Y-40121620D01*
X50561489Y-40114946D01*
X50560317Y-40108380D01*
X50558828Y-40101928D01*
X50557031Y-40095600D01*
X50554934Y-40089404D01*
X50552547Y-40083348D01*
X50549876Y-40077441D01*
X50546931Y-40071692D01*
X50543720Y-40066107D01*
X50540252Y-40060697D01*
X50536534Y-40055469D01*
X50532575Y-40050431D01*
X50528384Y-40045593D01*
X50523969Y-40040961D01*
X50519338Y-40036546D01*
X50514499Y-40032355D01*
X50509462Y-40028396D01*
X50504233Y-40024678D01*
X50498823Y-40021210D01*
X50493239Y-40017999D01*
X50487489Y-40015054D01*
X50481582Y-40012384D01*
X50475526Y-40009996D01*
X50469330Y-40007900D01*
X50463002Y-40006103D01*
X50456551Y-40004614D01*
X50449984Y-40003441D01*
X50443310Y-40002593D01*
X50436538Y-40002078D01*
X50429676Y-40001905D01*
X49724004Y-40001905D01*
X49712751Y-40001471D01*
X49701890Y-40000196D01*
X49691435Y-39998119D01*
X49681403Y-39995282D01*
X49671808Y-39991724D01*
X49662666Y-39987485D01*
X49653992Y-39982606D01*
X49645803Y-39977126D01*
X49638113Y-39971085D01*
X49630937Y-39964524D01*
X49624292Y-39957482D01*
X49618193Y-39950001D01*
X49612654Y-39942119D01*
X49607693Y-39933877D01*
X49603323Y-39925314D01*
X49599560Y-39916472D01*
X49596421Y-39907391D01*
X49593920Y-39898109D01*
X49592072Y-39888668D01*
X49590894Y-39879107D01*
X49590400Y-39869467D01*
X49590606Y-39859787D01*
X49591528Y-39850108D01*
X49593181Y-39840470D01*
X49595580Y-39830913D01*
X49598740Y-39821477D01*
X49602678Y-39812201D01*
X49607409Y-39803127D01*
X49612948Y-39794294D01*
X49619310Y-39785743D01*
X49626511Y-39777513D01*
X49634567Y-39769644D01*
X53221367Y-36526581D01*
X53226195Y-36522418D01*
X53231169Y-36518523D01*
X53236278Y-36514895D01*
X53241513Y-36511536D01*
X53246864Y-36508445D01*
X53252322Y-36505622D01*
X53257877Y-36503067D01*
X53263520Y-36500781D01*
X53269240Y-36498762D01*
X53275028Y-36497012D01*
X53280874Y-36495529D01*
X53286769Y-36494315D01*
X53292703Y-36493369D01*
X53298666Y-36492692D01*
X53304649Y-36492282D01*
X53310642Y-36492141D01*
X53316635Y-36492268D01*
G37*
G36*
X54906852Y-39807555D02*
G01*
X54916743Y-39807913D01*
X54926623Y-39808510D01*
X54936486Y-39809346D01*
X54946328Y-39810420D01*
X54956143Y-39811733D01*
X54965925Y-39813285D01*
X54975669Y-39815076D01*
X54985370Y-39817105D01*
X54995022Y-39819373D01*
X55004620Y-39821880D01*
X55014158Y-39824625D01*
X55023631Y-39827610D01*
X55033033Y-39830833D01*
X55042360Y-39834295D01*
X55051605Y-39837995D01*
X55060753Y-39841924D01*
X55069789Y-39846067D01*
X55078712Y-39850426D01*
X55087518Y-39854997D01*
X55096205Y-39859780D01*
X55104769Y-39864773D01*
X55113209Y-39869975D01*
X55121521Y-39875384D01*
X55129703Y-39881000D01*
X55137752Y-39886821D01*
X55145666Y-39892845D01*
X55153441Y-39899071D01*
X55161075Y-39905498D01*
X55168565Y-39912124D01*
X55175908Y-39918948D01*
X55183103Y-39925969D01*
X55190124Y-39933163D01*
X55196948Y-39940507D01*
X55203574Y-39947997D01*
X55210001Y-39955631D01*
X55216227Y-39963406D01*
X55222252Y-39971320D01*
X55228072Y-39979369D01*
X55233688Y-39987551D01*
X55239097Y-39995863D01*
X55244299Y-40004303D01*
X55249292Y-40012867D01*
X55254075Y-40021554D01*
X55258646Y-40030360D01*
X55263005Y-40039283D01*
X55267149Y-40048319D01*
X55271077Y-40057467D01*
X55274777Y-40066712D01*
X55278239Y-40076038D01*
X55281462Y-40085441D01*
X55284446Y-40094914D01*
X55287192Y-40104452D01*
X55289699Y-40114050D01*
X55291967Y-40123702D01*
X55293996Y-40133402D01*
X55295787Y-40143147D01*
X55297338Y-40152929D01*
X55298652Y-40162744D01*
X55299726Y-40172586D01*
X55300561Y-40182449D01*
X55301158Y-40192329D01*
X55301516Y-40202220D01*
X55301636Y-40212116D01*
X55301636Y-43450484D01*
X55301516Y-43460543D01*
X55301158Y-43470576D01*
X55300561Y-43480580D01*
X55299726Y-43490550D01*
X55298652Y-43500481D01*
X55297338Y-43510371D01*
X55295787Y-43520214D01*
X55293996Y-43530008D01*
X55291967Y-43539747D01*
X55289699Y-43549427D01*
X55287192Y-43559046D01*
X55284446Y-43568597D01*
X55281462Y-43578079D01*
X55278239Y-43587485D01*
X55274777Y-43596813D01*
X55271077Y-43606059D01*
X55267149Y-43615206D01*
X55263005Y-43624241D01*
X55258646Y-43633160D01*
X55254075Y-43641957D01*
X55249292Y-43650630D01*
X55244299Y-43659174D01*
X55239097Y-43667585D01*
X55233688Y-43675859D01*
X55228072Y-43683992D01*
X55222252Y-43691980D01*
X55216227Y-43699818D01*
X55210001Y-43707503D01*
X55203574Y-43715031D01*
X55196948Y-43722398D01*
X55190124Y-43729599D01*
X55183103Y-43736630D01*
X55175908Y-43743651D01*
X55168565Y-43750476D01*
X55161074Y-43757102D01*
X55153440Y-43763529D01*
X55145665Y-43769755D01*
X55137752Y-43775779D01*
X55129703Y-43781600D01*
X55121521Y-43787215D01*
X55113209Y-43792625D01*
X55104769Y-43797827D01*
X55096204Y-43802820D01*
X55087518Y-43807603D01*
X55078712Y-43812174D01*
X55069789Y-43816532D01*
X55060753Y-43820676D01*
X55051605Y-43824605D01*
X55042360Y-43828305D01*
X55033033Y-43831767D01*
X55023631Y-43834990D01*
X55014158Y-43837974D01*
X55004620Y-43840720D01*
X54995022Y-43843227D01*
X54985370Y-43845495D01*
X54975669Y-43847524D01*
X54965925Y-43849315D01*
X54956143Y-43850866D01*
X54946328Y-43852180D01*
X54936486Y-43853254D01*
X54926623Y-43854090D01*
X54916743Y-43854686D01*
X54906852Y-43855045D01*
X54896956Y-43855164D01*
X52872629Y-43855164D01*
X52862733Y-43855045D01*
X52852842Y-43854686D01*
X52842962Y-43854090D01*
X52833098Y-43853254D01*
X52823256Y-43852180D01*
X52813442Y-43850866D01*
X52803659Y-43849315D01*
X52793915Y-43847524D01*
X52784214Y-43845495D01*
X52774562Y-43843227D01*
X52764964Y-43840720D01*
X52755426Y-43837974D01*
X52745953Y-43834990D01*
X52736551Y-43831767D01*
X52727225Y-43828305D01*
X52717980Y-43824605D01*
X52708832Y-43820676D01*
X52699795Y-43816532D01*
X52690872Y-43812174D01*
X52682066Y-43807603D01*
X52673380Y-43802820D01*
X52664815Y-43797827D01*
X52656375Y-43792625D01*
X52648063Y-43787215D01*
X52639881Y-43781600D01*
X52631832Y-43775779D01*
X52623919Y-43769755D01*
X52616144Y-43763529D01*
X52608510Y-43757102D01*
X52601020Y-43750476D01*
X52593676Y-43743651D01*
X52586481Y-43736630D01*
X52579460Y-43729599D01*
X52572636Y-43722398D01*
X52566010Y-43715031D01*
X52559583Y-43707503D01*
X52553357Y-43699818D01*
X52547333Y-43691980D01*
X52541512Y-43683992D01*
X52535896Y-43675859D01*
X52530487Y-43667585D01*
X52525285Y-43659174D01*
X52520292Y-43650630D01*
X52515509Y-43641957D01*
X52510938Y-43633160D01*
X52506580Y-43624241D01*
X52502436Y-43615206D01*
X52498507Y-43606059D01*
X52494807Y-43596813D01*
X52491345Y-43587485D01*
X52488122Y-43578079D01*
X52485138Y-43568597D01*
X52482392Y-43559046D01*
X52479886Y-43549427D01*
X52477618Y-43539747D01*
X52475588Y-43530008D01*
X52473798Y-43520214D01*
X52472246Y-43510371D01*
X52470933Y-43500481D01*
X52469858Y-43490550D01*
X52469023Y-43480580D01*
X52468426Y-43470576D01*
X52468068Y-43460543D01*
X52467948Y-43450484D01*
X52467948Y-42642049D01*
X53075432Y-42642049D01*
X53075681Y-42661842D01*
X53076427Y-42681623D01*
X53077666Y-42701383D01*
X53079397Y-42721110D01*
X53081615Y-42740794D01*
X53084320Y-42760424D01*
X53087507Y-42779988D01*
X53091175Y-42799476D01*
X53095320Y-42818878D01*
X53099940Y-42838182D01*
X53105032Y-42857378D01*
X53110593Y-42876454D01*
X53116621Y-42895400D01*
X53123112Y-42914204D01*
X53130065Y-42932857D01*
X53137477Y-42951347D01*
X53145181Y-42969653D01*
X53153353Y-42987754D01*
X53161988Y-43005641D01*
X53171075Y-43023304D01*
X53180607Y-43040733D01*
X53190576Y-43057920D01*
X53200973Y-43074854D01*
X53211792Y-43091527D01*
X53223022Y-43107928D01*
X53234657Y-43124049D01*
X53246688Y-43139879D01*
X53259106Y-43155409D01*
X53271905Y-43170630D01*
X53285075Y-43185533D01*
X53298609Y-43200107D01*
X53312499Y-43214343D01*
X53326735Y-43228222D01*
X53341309Y-43241729D01*
X53356211Y-43254857D01*
X53371432Y-43267605D01*
X53386963Y-43279968D01*
X53402793Y-43291941D01*
X53418914Y-43303521D01*
X53435315Y-43314703D01*
X53451987Y-43325484D01*
X53468922Y-43335859D01*
X53486109Y-43345825D01*
X53503538Y-43355377D01*
X53521201Y-43364511D01*
X53539088Y-43373223D01*
X53557189Y-43381509D01*
X53575494Y-43389365D01*
X53593974Y-43396777D01*
X53612599Y-43403730D01*
X53631363Y-43410222D01*
X53650258Y-43416250D01*
X53669278Y-43421811D01*
X53688415Y-43426903D01*
X53707664Y-43431523D01*
X53727018Y-43435668D01*
X53746469Y-43439335D01*
X53766011Y-43442523D01*
X53785637Y-43445227D01*
X53805341Y-43447446D01*
X53825115Y-43449176D01*
X53844953Y-43450416D01*
X53864847Y-43451161D01*
X53884792Y-43451410D01*
X53904748Y-43451161D01*
X53924672Y-43450416D01*
X53944555Y-43449176D01*
X53964389Y-43447446D01*
X53984162Y-43445227D01*
X54003867Y-43442523D01*
X54023492Y-43439335D01*
X54043030Y-43435668D01*
X54062470Y-43431523D01*
X54081802Y-43426903D01*
X54101018Y-43421811D01*
X54120108Y-43416250D01*
X54139062Y-43410222D01*
X54157871Y-43403730D01*
X54176526Y-43396777D01*
X54195016Y-43389365D01*
X54213311Y-43381509D01*
X54231383Y-43373223D01*
X54249224Y-43364511D01*
X54266828Y-43355377D01*
X54284187Y-43345825D01*
X54301296Y-43335859D01*
X54318146Y-43325484D01*
X54334733Y-43314703D01*
X54351048Y-43303521D01*
X54367084Y-43291941D01*
X54382836Y-43279968D01*
X54398297Y-43267605D01*
X54413459Y-43254857D01*
X54428315Y-43241728D01*
X54442860Y-43228222D01*
X54457086Y-43214343D01*
X54471128Y-43200107D01*
X54484777Y-43185533D01*
X54498030Y-43170630D01*
X54510883Y-43155409D01*
X54523336Y-43139879D01*
X54535384Y-43124048D01*
X54547025Y-43107928D01*
X54558256Y-43091527D01*
X54569075Y-43074854D01*
X54579479Y-43057920D01*
X54589465Y-43040733D01*
X54599031Y-43023303D01*
X54608173Y-43005641D01*
X54616890Y-42987754D01*
X54625178Y-42969653D01*
X54633034Y-42951347D01*
X54640446Y-42932857D01*
X54647399Y-42914204D01*
X54653890Y-42895399D01*
X54659918Y-42876453D01*
X54665479Y-42857377D01*
X54670571Y-42838182D01*
X54675191Y-42818878D01*
X54679336Y-42799476D01*
X54683004Y-42779988D01*
X54686191Y-42760423D01*
X54688895Y-42740794D01*
X54691114Y-42721110D01*
X54692845Y-42701383D01*
X54694084Y-42681623D01*
X54694830Y-42661842D01*
X54695079Y-42642049D01*
X54694830Y-42622094D01*
X54694084Y-42602170D01*
X54692845Y-42582286D01*
X54691114Y-42562453D01*
X54688895Y-42542680D01*
X54686191Y-42522975D01*
X54683004Y-42503349D01*
X54679336Y-42483812D01*
X54675191Y-42464372D01*
X54670571Y-42445039D01*
X54665479Y-42425823D01*
X54659918Y-42406733D01*
X54653890Y-42387779D01*
X54647399Y-42368970D01*
X54640446Y-42350316D01*
X54633034Y-42331825D01*
X54625178Y-42313530D01*
X54616890Y-42295456D01*
X54608173Y-42277611D01*
X54599031Y-42259999D01*
X54589465Y-42242626D01*
X54579479Y-42225497D01*
X54569075Y-42208617D01*
X54558256Y-42191993D01*
X54547025Y-42175629D01*
X54535384Y-42159531D01*
X54523336Y-42143704D01*
X54510883Y-42128154D01*
X54498030Y-42112886D01*
X54484777Y-42097906D01*
X54471128Y-42083218D01*
X54457086Y-42068829D01*
X54442860Y-42054950D01*
X54428315Y-42041444D01*
X54413459Y-42028315D01*
X54398297Y-42015567D01*
X54382837Y-42003205D01*
X54367085Y-41991231D01*
X54351048Y-41979652D01*
X54334733Y-41968469D01*
X54318147Y-41957688D01*
X54301296Y-41947313D01*
X54284187Y-41937348D01*
X54266828Y-41927796D01*
X54249224Y-41918662D01*
X54231383Y-41909949D01*
X54213312Y-41901663D01*
X54195016Y-41893807D01*
X54176526Y-41886395D01*
X54157871Y-41879442D01*
X54139062Y-41872951D01*
X54120108Y-41866923D01*
X54101018Y-41861361D01*
X54081802Y-41856270D01*
X54062469Y-41851650D01*
X54043030Y-41847505D01*
X54023492Y-41843837D01*
X54003866Y-41840650D01*
X53984162Y-41837946D01*
X53964389Y-41835727D01*
X53944555Y-41833996D01*
X53924672Y-41832757D01*
X53904748Y-41832011D01*
X53884792Y-41831762D01*
X53864847Y-41832011D01*
X53844953Y-41832757D01*
X53825115Y-41833996D01*
X53805341Y-41835727D01*
X53785637Y-41837946D01*
X53766011Y-41840650D01*
X53746469Y-41843837D01*
X53727018Y-41847505D01*
X53707664Y-41851650D01*
X53688415Y-41856270D01*
X53669278Y-41861361D01*
X53650258Y-41866923D01*
X53631363Y-41872951D01*
X53612599Y-41879442D01*
X53593974Y-41886395D01*
X53575494Y-41893807D01*
X53557189Y-41901663D01*
X53539088Y-41909949D01*
X53521201Y-41918662D01*
X53503538Y-41927796D01*
X53486109Y-41937348D01*
X53468922Y-41947313D01*
X53451987Y-41957689D01*
X53435315Y-41968469D01*
X53418914Y-41979652D01*
X53402793Y-41991232D01*
X53386963Y-42003205D01*
X53371432Y-42015567D01*
X53356211Y-42028315D01*
X53341309Y-42041444D01*
X53326735Y-42054950D01*
X53312499Y-42068829D01*
X53298609Y-42083218D01*
X53285075Y-42097906D01*
X53271905Y-42112886D01*
X53259106Y-42128154D01*
X53246688Y-42143704D01*
X53234657Y-42159531D01*
X53223022Y-42175629D01*
X53211792Y-42191993D01*
X53200973Y-42208618D01*
X53190576Y-42225497D01*
X53180607Y-42242626D01*
X53171075Y-42259999D01*
X53161988Y-42277611D01*
X53153353Y-42295457D01*
X53145181Y-42313530D01*
X53137477Y-42331825D01*
X53130065Y-42350316D01*
X53123112Y-42368970D01*
X53116621Y-42387779D01*
X53110593Y-42406733D01*
X53105031Y-42425823D01*
X53099940Y-42445039D01*
X53095320Y-42464372D01*
X53091175Y-42483812D01*
X53087507Y-42503349D01*
X53084320Y-42522975D01*
X53081615Y-42542679D01*
X53079397Y-42562453D01*
X53077666Y-42582286D01*
X53076427Y-42602170D01*
X53075681Y-42622094D01*
X53075432Y-42642049D01*
X52467948Y-42642049D01*
X52467948Y-41293732D01*
X52467948Y-40345466D01*
X52872629Y-40345466D01*
X52872629Y-41293732D01*
X52872802Y-41300595D01*
X52873317Y-41307367D01*
X52874165Y-41314040D01*
X52875338Y-41320607D01*
X52876827Y-41327059D01*
X52878624Y-41333387D01*
X52880720Y-41339583D01*
X52883108Y-41345638D01*
X52885778Y-41351545D01*
X52888723Y-41357295D01*
X52891934Y-41362879D01*
X52895403Y-41368290D01*
X52899120Y-41373518D01*
X52903079Y-41378556D01*
X52907270Y-41383394D01*
X52911686Y-41388025D01*
X52916317Y-41392441D01*
X52921155Y-41396632D01*
X52926193Y-41400591D01*
X52931421Y-41404308D01*
X52936831Y-41407777D01*
X52942416Y-41410988D01*
X52948165Y-41413933D01*
X52954072Y-41416603D01*
X52960128Y-41418991D01*
X52966324Y-41421087D01*
X52972652Y-41422884D01*
X52979104Y-41424373D01*
X52985671Y-41425546D01*
X52992344Y-41426394D01*
X52999116Y-41426909D01*
X53005979Y-41427082D01*
X54763605Y-41427082D01*
X54770468Y-41426909D01*
X54777240Y-41426394D01*
X54783913Y-41425546D01*
X54790480Y-41424373D01*
X54796932Y-41422884D01*
X54803260Y-41421087D01*
X54809456Y-41418991D01*
X54815512Y-41416603D01*
X54821419Y-41413933D01*
X54827168Y-41410988D01*
X54832753Y-41407777D01*
X54838163Y-41404308D01*
X54843391Y-41400591D01*
X54848429Y-41396632D01*
X54853267Y-41392441D01*
X54857899Y-41388025D01*
X54862314Y-41383394D01*
X54866505Y-41378556D01*
X54870464Y-41373518D01*
X54874182Y-41368290D01*
X54877650Y-41362879D01*
X54880861Y-41357295D01*
X54883806Y-41351545D01*
X54886476Y-41345638D01*
X54888864Y-41339583D01*
X54890961Y-41333387D01*
X54892758Y-41327059D01*
X54894247Y-41320607D01*
X54895419Y-41314040D01*
X54896267Y-41307367D01*
X54896782Y-41300595D01*
X54896956Y-41293732D01*
X54896956Y-40345466D01*
X54896782Y-40338603D01*
X54896267Y-40331831D01*
X54895419Y-40325158D01*
X54894247Y-40318591D01*
X54892758Y-40312139D01*
X54890961Y-40305811D01*
X54888864Y-40299615D01*
X54886476Y-40293559D01*
X54883806Y-40287653D01*
X54880861Y-40281903D01*
X54877650Y-40276318D01*
X54874182Y-40270908D01*
X54870464Y-40265680D01*
X54866505Y-40260642D01*
X54862314Y-40255804D01*
X54857899Y-40251173D01*
X54853267Y-40246757D01*
X54848429Y-40242566D01*
X54843391Y-40238607D01*
X54838163Y-40234890D01*
X54832753Y-40231421D01*
X54827168Y-40228210D01*
X54821419Y-40225265D01*
X54815512Y-40222595D01*
X54809456Y-40220207D01*
X54803260Y-40218111D01*
X54796932Y-40216314D01*
X54790480Y-40214825D01*
X54783913Y-40213652D01*
X54777240Y-40212804D01*
X54770468Y-40212289D01*
X54763605Y-40212116D01*
X53005979Y-40212116D01*
X52999116Y-40212289D01*
X52992344Y-40212804D01*
X52985671Y-40213652D01*
X52979104Y-40214825D01*
X52972652Y-40216314D01*
X52966324Y-40218111D01*
X52960128Y-40220207D01*
X52954072Y-40222595D01*
X52948165Y-40225265D01*
X52942416Y-40228210D01*
X52936831Y-40231421D01*
X52931421Y-40234890D01*
X52926193Y-40238607D01*
X52921155Y-40242566D01*
X52916317Y-40246757D01*
X52911686Y-40251173D01*
X52907270Y-40255804D01*
X52903079Y-40260642D01*
X52899120Y-40265680D01*
X52895403Y-40270908D01*
X52891934Y-40276318D01*
X52888723Y-40281903D01*
X52885778Y-40287653D01*
X52883108Y-40293559D01*
X52880720Y-40299615D01*
X52878624Y-40305811D01*
X52876827Y-40312139D01*
X52875338Y-40318591D01*
X52874165Y-40325158D01*
X52873317Y-40331831D01*
X52872802Y-40338603D01*
X52872629Y-40345466D01*
X52467948Y-40345466D01*
X52467948Y-40212116D01*
X52468068Y-40202220D01*
X52468426Y-40192329D01*
X52469023Y-40182449D01*
X52469858Y-40172586D01*
X52470933Y-40162744D01*
X52472246Y-40152929D01*
X52473798Y-40143147D01*
X52475588Y-40133403D01*
X52477617Y-40123702D01*
X52479885Y-40114050D01*
X52482392Y-40104452D01*
X52485138Y-40094914D01*
X52488122Y-40085441D01*
X52491345Y-40076039D01*
X52494807Y-40066712D01*
X52498507Y-40057467D01*
X52502436Y-40048319D01*
X52506580Y-40039283D01*
X52510938Y-40030360D01*
X52515509Y-40021554D01*
X52520292Y-40012867D01*
X52525285Y-40004303D01*
X52530487Y-39995863D01*
X52535897Y-39987551D01*
X52541512Y-39979369D01*
X52547333Y-39971320D01*
X52553357Y-39963407D01*
X52559583Y-39955632D01*
X52566010Y-39947998D01*
X52572636Y-39940507D01*
X52579460Y-39933164D01*
X52586481Y-39925969D01*
X52593676Y-39918948D01*
X52601020Y-39912124D01*
X52608510Y-39905498D01*
X52616144Y-39899071D01*
X52623919Y-39892844D01*
X52631832Y-39886820D01*
X52639881Y-39881000D01*
X52648063Y-39875384D01*
X52656375Y-39869975D01*
X52664815Y-39864773D01*
X52673380Y-39859780D01*
X52682066Y-39854997D01*
X52690872Y-39850426D01*
X52699795Y-39846067D01*
X52708832Y-39841924D01*
X52717980Y-39837995D01*
X52727225Y-39834295D01*
X52736551Y-39830833D01*
X52745953Y-39827610D01*
X52755426Y-39824626D01*
X52764964Y-39821880D01*
X52774562Y-39819373D01*
X52784214Y-39817105D01*
X52793915Y-39815076D01*
X52803659Y-39813285D01*
X52813442Y-39811733D01*
X52823256Y-39810420D01*
X52833098Y-39809346D01*
X52842962Y-39808510D01*
X52852842Y-39807914D01*
X52862733Y-39807555D01*
X52872629Y-39807436D01*
X54896956Y-39807436D01*
X54906852Y-39807555D01*
G37*
D11*
X52750000Y-34800000D02*
X53950000Y-34800000D01*
X54500000Y-31575000D02*
G75*
G02*
X52200000Y-31575000I-1150000J0D01*
G01*
X52200000Y-31575000D02*
G75*
G02*
X54500000Y-31575000I1150000J0D01*
G01*
D12*
X53350000Y-33500000D02*
X53350000Y-33800000D01*
D11*
X53350000Y-34550000D02*
X53350000Y-34800000D01*
X54200000Y-33700000D02*
G75*
G02*
X52500000Y-33700000I-850000J0D01*
G01*
D13*
X59750000Y-31525000D02*
X59250000Y-31975000D01*
X59750000Y-31525000D02*
X60250000Y-31975000D01*
X59750000Y-33225000D02*
X59750000Y-31525000D01*
D14*
X45343571Y-139775472D02*
X45272142Y-139737377D01*
X45272142Y-139737377D02*
X45236428Y-139699281D01*
X45236428Y-139699281D02*
X45200714Y-139623091D01*
X45200714Y-139623091D02*
X45200714Y-139584996D01*
X45200714Y-139584996D02*
X45236428Y-139508805D01*
X45236428Y-139508805D02*
X45272142Y-139470710D01*
X45272142Y-139470710D02*
X45343571Y-139432615D01*
X45343571Y-139432615D02*
X45486428Y-139432615D01*
X45486428Y-139432615D02*
X45557857Y-139470710D01*
X45557857Y-139470710D02*
X45593571Y-139508805D01*
X45593571Y-139508805D02*
X45629285Y-139584996D01*
X45629285Y-139584996D02*
X45629285Y-139623091D01*
X45629285Y-139623091D02*
X45593571Y-139699281D01*
X45593571Y-139699281D02*
X45557857Y-139737377D01*
X45557857Y-139737377D02*
X45486428Y-139775472D01*
X45486428Y-139775472D02*
X45343571Y-139775472D01*
X45343571Y-139775472D02*
X45272142Y-139813567D01*
X45272142Y-139813567D02*
X45236428Y-139851662D01*
X45236428Y-139851662D02*
X45200714Y-139927853D01*
X45200714Y-139927853D02*
X45200714Y-140080234D01*
X45200714Y-140080234D02*
X45236428Y-140156424D01*
X45236428Y-140156424D02*
X45272142Y-140194520D01*
X45272142Y-140194520D02*
X45343571Y-140232615D01*
X45343571Y-140232615D02*
X45486428Y-140232615D01*
X45486428Y-140232615D02*
X45557857Y-140194520D01*
X45557857Y-140194520D02*
X45593571Y-140156424D01*
X45593571Y-140156424D02*
X45629285Y-140080234D01*
X45629285Y-140080234D02*
X45629285Y-139927853D01*
X45629285Y-139927853D02*
X45593571Y-139851662D01*
X45593571Y-139851662D02*
X45557857Y-139813567D01*
X45557857Y-139813567D02*
X45486428Y-139775472D01*
X45272142Y-142808525D02*
X45414999Y-142808525D01*
X45414999Y-142808525D02*
X45486428Y-142770430D01*
X45486428Y-142770430D02*
X45522142Y-142732334D01*
X45522142Y-142732334D02*
X45593571Y-142618049D01*
X45593571Y-142618049D02*
X45629285Y-142465668D01*
X45629285Y-142465668D02*
X45629285Y-142160906D01*
X45629285Y-142160906D02*
X45593571Y-142084715D01*
X45593571Y-142084715D02*
X45557857Y-142046620D01*
X45557857Y-142046620D02*
X45486428Y-142008525D01*
X45486428Y-142008525D02*
X45343571Y-142008525D01*
X45343571Y-142008525D02*
X45272142Y-142046620D01*
X45272142Y-142046620D02*
X45236428Y-142084715D01*
X45236428Y-142084715D02*
X45200714Y-142160906D01*
X45200714Y-142160906D02*
X45200714Y-142351382D01*
X45200714Y-142351382D02*
X45236428Y-142427572D01*
X45236428Y-142427572D02*
X45272142Y-142465668D01*
X45272142Y-142465668D02*
X45343571Y-142503763D01*
X45343571Y-142503763D02*
X45486428Y-142503763D01*
X45486428Y-142503763D02*
X45557857Y-142465668D01*
X45557857Y-142465668D02*
X45593571Y-142427572D01*
X45593571Y-142427572D02*
X45629285Y-142351382D01*
X45272142Y-145384435D02*
X44843571Y-145384435D01*
X45057856Y-145384435D02*
X45057856Y-144584435D01*
X45057856Y-144584435D02*
X44986428Y-144698720D01*
X44986428Y-144698720D02*
X44914999Y-144774911D01*
X44914999Y-144774911D02*
X44843571Y-144813006D01*
X45736428Y-144584435D02*
X45807857Y-144584435D01*
X45807857Y-144584435D02*
X45879285Y-144622530D01*
X45879285Y-144622530D02*
X45915000Y-144660625D01*
X45915000Y-144660625D02*
X45950714Y-144736816D01*
X45950714Y-144736816D02*
X45986428Y-144889197D01*
X45986428Y-144889197D02*
X45986428Y-145079673D01*
X45986428Y-145079673D02*
X45950714Y-145232054D01*
X45950714Y-145232054D02*
X45915000Y-145308244D01*
X45915000Y-145308244D02*
X45879285Y-145346340D01*
X45879285Y-145346340D02*
X45807857Y-145384435D01*
X45807857Y-145384435D02*
X45736428Y-145384435D01*
X45736428Y-145384435D02*
X45665000Y-145346340D01*
X45665000Y-145346340D02*
X45629285Y-145308244D01*
X45629285Y-145308244D02*
X45593571Y-145232054D01*
X45593571Y-145232054D02*
X45557857Y-145079673D01*
X45557857Y-145079673D02*
X45557857Y-144889197D01*
X45557857Y-144889197D02*
X45593571Y-144736816D01*
X45593571Y-144736816D02*
X45629285Y-144660625D01*
X45629285Y-144660625D02*
X45665000Y-144622530D01*
X45665000Y-144622530D02*
X45736428Y-144584435D01*
X45272142Y-147960345D02*
X44843571Y-147960345D01*
X45057856Y-147960345D02*
X45057856Y-147160345D01*
X45057856Y-147160345D02*
X44986428Y-147274630D01*
X44986428Y-147274630D02*
X44914999Y-147350821D01*
X44914999Y-147350821D02*
X44843571Y-147388916D01*
X45986428Y-147960345D02*
X45557857Y-147960345D01*
X45772142Y-147960345D02*
X45772142Y-147160345D01*
X45772142Y-147160345D02*
X45700714Y-147274630D01*
X45700714Y-147274630D02*
X45629285Y-147350821D01*
X45629285Y-147350821D02*
X45557857Y-147388916D01*
X45272142Y-150536255D02*
X44843571Y-150536255D01*
X45057856Y-150536255D02*
X45057856Y-149736255D01*
X45057856Y-149736255D02*
X44986428Y-149850540D01*
X44986428Y-149850540D02*
X44914999Y-149926731D01*
X44914999Y-149926731D02*
X44843571Y-149964826D01*
X45557857Y-149812445D02*
X45593571Y-149774350D01*
X45593571Y-149774350D02*
X45665000Y-149736255D01*
X45665000Y-149736255D02*
X45843571Y-149736255D01*
X45843571Y-149736255D02*
X45915000Y-149774350D01*
X45915000Y-149774350D02*
X45950714Y-149812445D01*
X45950714Y-149812445D02*
X45986428Y-149888636D01*
X45986428Y-149888636D02*
X45986428Y-149964826D01*
X45986428Y-149964826D02*
X45950714Y-150079112D01*
X45950714Y-150079112D02*
X45522142Y-150536255D01*
X45522142Y-150536255D02*
X45986428Y-150536255D01*
X44897144Y-152578831D02*
X44897144Y-153226450D01*
X44897144Y-153226450D02*
X44861429Y-153302641D01*
X44861429Y-153302641D02*
X44825715Y-153340736D01*
X44825715Y-153340736D02*
X44754286Y-153378831D01*
X44754286Y-153378831D02*
X44647144Y-153378831D01*
X44647144Y-153378831D02*
X44575715Y-153340736D01*
X44897144Y-153074070D02*
X44825715Y-153112165D01*
X44825715Y-153112165D02*
X44682858Y-153112165D01*
X44682858Y-153112165D02*
X44611429Y-153074070D01*
X44611429Y-153074070D02*
X44575715Y-153035974D01*
X44575715Y-153035974D02*
X44540001Y-152959784D01*
X44540001Y-152959784D02*
X44540001Y-152731212D01*
X44540001Y-152731212D02*
X44575715Y-152655022D01*
X44575715Y-152655022D02*
X44611429Y-152616927D01*
X44611429Y-152616927D02*
X44682858Y-152578831D01*
X44682858Y-152578831D02*
X44825715Y-152578831D01*
X44825715Y-152578831D02*
X44897144Y-152616927D01*
X45254286Y-152578831D02*
X45254286Y-153112165D01*
X45254286Y-152655022D02*
X45290000Y-152616927D01*
X45290000Y-152616927D02*
X45361429Y-152578831D01*
X45361429Y-152578831D02*
X45468572Y-152578831D01*
X45468572Y-152578831D02*
X45540000Y-152616927D01*
X45540000Y-152616927D02*
X45575715Y-152693117D01*
X45575715Y-152693117D02*
X45575715Y-153112165D01*
X46254286Y-153112165D02*
X46254286Y-152312165D01*
X46254286Y-153074070D02*
X46182857Y-153112165D01*
X46182857Y-153112165D02*
X46040000Y-153112165D01*
X46040000Y-153112165D02*
X45968571Y-153074070D01*
X45968571Y-153074070D02*
X45932857Y-153035974D01*
X45932857Y-153035974D02*
X45897143Y-152959784D01*
X45897143Y-152959784D02*
X45897143Y-152731212D01*
X45897143Y-152731212D02*
X45932857Y-152655022D01*
X45932857Y-152655022D02*
X45968571Y-152616927D01*
X45968571Y-152616927D02*
X46040000Y-152578831D01*
X46040000Y-152578831D02*
X46182857Y-152578831D01*
X46182857Y-152578831D02*
X46254286Y-152616927D01*
X44593571Y-155154741D02*
X44772143Y-155688075D01*
X44772143Y-155688075D02*
X44950714Y-155154741D01*
X45557858Y-155649980D02*
X45486429Y-155688075D01*
X45486429Y-155688075D02*
X45343572Y-155688075D01*
X45343572Y-155688075D02*
X45272143Y-155649980D01*
X45272143Y-155649980D02*
X45236429Y-155611884D01*
X45236429Y-155611884D02*
X45200715Y-155535694D01*
X45200715Y-155535694D02*
X45200715Y-155307122D01*
X45200715Y-155307122D02*
X45236429Y-155230932D01*
X45236429Y-155230932D02*
X45272143Y-155192837D01*
X45272143Y-155192837D02*
X45343572Y-155154741D01*
X45343572Y-155154741D02*
X45486429Y-155154741D01*
X45486429Y-155154741D02*
X45557858Y-155192837D01*
X46200715Y-155649980D02*
X46129286Y-155688075D01*
X46129286Y-155688075D02*
X45986429Y-155688075D01*
X45986429Y-155688075D02*
X45915000Y-155649980D01*
X45915000Y-155649980D02*
X45879286Y-155611884D01*
X45879286Y-155611884D02*
X45843572Y-155535694D01*
X45843572Y-155535694D02*
X45843572Y-155307122D01*
X45843572Y-155307122D02*
X45879286Y-155230932D01*
X45879286Y-155230932D02*
X45915000Y-155192837D01*
X45915000Y-155192837D02*
X45986429Y-155154741D01*
X45986429Y-155154741D02*
X46129286Y-155154741D01*
X46129286Y-155154741D02*
X46200715Y-155192837D01*
X66499999Y-139582615D02*
X66999999Y-139582615D01*
X66999999Y-139582615D02*
X66678571Y-140382615D01*
X66892857Y-142158525D02*
X66749999Y-142158525D01*
X66749999Y-142158525D02*
X66678571Y-142196620D01*
X66678571Y-142196620D02*
X66642857Y-142234715D01*
X66642857Y-142234715D02*
X66571428Y-142349001D01*
X66571428Y-142349001D02*
X66535714Y-142501382D01*
X66535714Y-142501382D02*
X66535714Y-142806144D01*
X66535714Y-142806144D02*
X66571428Y-142882334D01*
X66571428Y-142882334D02*
X66607142Y-142920430D01*
X66607142Y-142920430D02*
X66678571Y-142958525D01*
X66678571Y-142958525D02*
X66821428Y-142958525D01*
X66821428Y-142958525D02*
X66892857Y-142920430D01*
X66892857Y-142920430D02*
X66928571Y-142882334D01*
X66928571Y-142882334D02*
X66964285Y-142806144D01*
X66964285Y-142806144D02*
X66964285Y-142615668D01*
X66964285Y-142615668D02*
X66928571Y-142539477D01*
X66928571Y-142539477D02*
X66892857Y-142501382D01*
X66892857Y-142501382D02*
X66821428Y-142463287D01*
X66821428Y-142463287D02*
X66678571Y-142463287D01*
X66678571Y-142463287D02*
X66607142Y-142501382D01*
X66607142Y-142501382D02*
X66571428Y-142539477D01*
X66571428Y-142539477D02*
X66535714Y-142615668D01*
X66928571Y-144734435D02*
X66571428Y-144734435D01*
X66571428Y-144734435D02*
X66535714Y-145115387D01*
X66535714Y-145115387D02*
X66571428Y-145077292D01*
X66571428Y-145077292D02*
X66642857Y-145039197D01*
X66642857Y-145039197D02*
X66821428Y-145039197D01*
X66821428Y-145039197D02*
X66892857Y-145077292D01*
X66892857Y-145077292D02*
X66928571Y-145115387D01*
X66928571Y-145115387D02*
X66964285Y-145191578D01*
X66964285Y-145191578D02*
X66964285Y-145382054D01*
X66964285Y-145382054D02*
X66928571Y-145458244D01*
X66928571Y-145458244D02*
X66892857Y-145496340D01*
X66892857Y-145496340D02*
X66821428Y-145534435D01*
X66821428Y-145534435D02*
X66642857Y-145534435D01*
X66642857Y-145534435D02*
X66571428Y-145496340D01*
X66571428Y-145496340D02*
X66535714Y-145458244D01*
X66892857Y-147577011D02*
X66892857Y-148110345D01*
X66714285Y-147272250D02*
X66535714Y-147843678D01*
X66535714Y-147843678D02*
X66999999Y-147843678D01*
X66499999Y-149886255D02*
X66964285Y-149886255D01*
X66964285Y-149886255D02*
X66714285Y-150191017D01*
X66714285Y-150191017D02*
X66821428Y-150191017D01*
X66821428Y-150191017D02*
X66892857Y-150229112D01*
X66892857Y-150229112D02*
X66928571Y-150267207D01*
X66928571Y-150267207D02*
X66964285Y-150343398D01*
X66964285Y-150343398D02*
X66964285Y-150533874D01*
X66964285Y-150533874D02*
X66928571Y-150610064D01*
X66928571Y-150610064D02*
X66892857Y-150648160D01*
X66892857Y-150648160D02*
X66821428Y-150686255D01*
X66821428Y-150686255D02*
X66607142Y-150686255D01*
X66607142Y-150686255D02*
X66535714Y-150648160D01*
X66535714Y-150648160D02*
X66499999Y-150610064D01*
X66535714Y-152538355D02*
X66571428Y-152500260D01*
X66571428Y-152500260D02*
X66642857Y-152462165D01*
X66642857Y-152462165D02*
X66821428Y-152462165D01*
X66821428Y-152462165D02*
X66892857Y-152500260D01*
X66892857Y-152500260D02*
X66928571Y-152538355D01*
X66928571Y-152538355D02*
X66964285Y-152614546D01*
X66964285Y-152614546D02*
X66964285Y-152690736D01*
X66964285Y-152690736D02*
X66928571Y-152805022D01*
X66928571Y-152805022D02*
X66499999Y-153262165D01*
X66499999Y-153262165D02*
X66964285Y-153262165D01*
X66964285Y-155838075D02*
X66535714Y-155838075D01*
X66749999Y-155838075D02*
X66749999Y-155038075D01*
X66749999Y-155038075D02*
X66678571Y-155152360D01*
X66678571Y-155152360D02*
X66607142Y-155228551D01*
X66607142Y-155228551D02*
X66535714Y-155266646D01*
D15*
X50089761Y-138365935D02*
X50623095Y-139165935D01*
X50623095Y-138365935D02*
X50089761Y-139165935D01*
X50927857Y-139165935D02*
X50927857Y-138365935D01*
X51270713Y-138937363D02*
X51651666Y-138937363D01*
X51194523Y-139165935D02*
X51461190Y-138365935D01*
X51461190Y-138365935D02*
X51727856Y-139165935D01*
X52146904Y-138365935D02*
X52299285Y-138365935D01*
X52299285Y-138365935D02*
X52375475Y-138404030D01*
X52375475Y-138404030D02*
X52451666Y-138480220D01*
X52451666Y-138480220D02*
X52489761Y-138632601D01*
X52489761Y-138632601D02*
X52489761Y-138899268D01*
X52489761Y-138899268D02*
X52451666Y-139051649D01*
X52451666Y-139051649D02*
X52375475Y-139127840D01*
X52375475Y-139127840D02*
X52299285Y-139165935D01*
X52299285Y-139165935D02*
X52146904Y-139165935D01*
X52146904Y-139165935D02*
X52070713Y-139127840D01*
X52070713Y-139127840D02*
X51994523Y-139051649D01*
X51994523Y-139051649D02*
X51956427Y-138899268D01*
X51956427Y-138899268D02*
X51956427Y-138632601D01*
X51956427Y-138632601D02*
X51994523Y-138480220D01*
X51994523Y-138480220D02*
X52070713Y-138404030D01*
X52070713Y-138404030D02*
X52146904Y-138365935D01*
X52832618Y-138861173D02*
X53442142Y-138861173D01*
X53823094Y-138746887D02*
X54089760Y-138746887D01*
X54204046Y-139165935D02*
X53823094Y-139165935D01*
X53823094Y-139165935D02*
X53823094Y-138365935D01*
X53823094Y-138365935D02*
X54204046Y-138365935D01*
X54508808Y-139127840D02*
X54623094Y-139165935D01*
X54623094Y-139165935D02*
X54813570Y-139165935D01*
X54813570Y-139165935D02*
X54889761Y-139127840D01*
X54889761Y-139127840D02*
X54927856Y-139089744D01*
X54927856Y-139089744D02*
X54965951Y-139013554D01*
X54965951Y-139013554D02*
X54965951Y-138937363D01*
X54965951Y-138937363D02*
X54927856Y-138861173D01*
X54927856Y-138861173D02*
X54889761Y-138823078D01*
X54889761Y-138823078D02*
X54813570Y-138784982D01*
X54813570Y-138784982D02*
X54661189Y-138746887D01*
X54661189Y-138746887D02*
X54584999Y-138708792D01*
X54584999Y-138708792D02*
X54546904Y-138670697D01*
X54546904Y-138670697D02*
X54508808Y-138594506D01*
X54508808Y-138594506D02*
X54508808Y-138518316D01*
X54508808Y-138518316D02*
X54546904Y-138442125D01*
X54546904Y-138442125D02*
X54584999Y-138404030D01*
X54584999Y-138404030D02*
X54661189Y-138365935D01*
X54661189Y-138365935D02*
X54851666Y-138365935D01*
X54851666Y-138365935D02*
X54965951Y-138404030D01*
X55308809Y-139165935D02*
X55308809Y-138365935D01*
X55308809Y-138365935D02*
X55613571Y-138365935D01*
X55613571Y-138365935D02*
X55689761Y-138404030D01*
X55689761Y-138404030D02*
X55727856Y-138442125D01*
X55727856Y-138442125D02*
X55765952Y-138518316D01*
X55765952Y-138518316D02*
X55765952Y-138632601D01*
X55765952Y-138632601D02*
X55727856Y-138708792D01*
X55727856Y-138708792D02*
X55689761Y-138746887D01*
X55689761Y-138746887D02*
X55613571Y-138784982D01*
X55613571Y-138784982D02*
X55308809Y-138784982D01*
X56032618Y-138365935D02*
X56527856Y-138365935D01*
X56527856Y-138365935D02*
X56261190Y-138670697D01*
X56261190Y-138670697D02*
X56375475Y-138670697D01*
X56375475Y-138670697D02*
X56451666Y-138708792D01*
X56451666Y-138708792D02*
X56489761Y-138746887D01*
X56489761Y-138746887D02*
X56527856Y-138823078D01*
X56527856Y-138823078D02*
X56527856Y-139013554D01*
X56527856Y-139013554D02*
X56489761Y-139089744D01*
X56489761Y-139089744D02*
X56451666Y-139127840D01*
X56451666Y-139127840D02*
X56375475Y-139165935D01*
X56375475Y-139165935D02*
X56146904Y-139165935D01*
X56146904Y-139165935D02*
X56070713Y-139127840D01*
X56070713Y-139127840D02*
X56032618Y-139089744D01*
X56832618Y-138442125D02*
X56870714Y-138404030D01*
X56870714Y-138404030D02*
X56946904Y-138365935D01*
X56946904Y-138365935D02*
X57137380Y-138365935D01*
X57137380Y-138365935D02*
X57213571Y-138404030D01*
X57213571Y-138404030D02*
X57251666Y-138442125D01*
X57251666Y-138442125D02*
X57289761Y-138518316D01*
X57289761Y-138518316D02*
X57289761Y-138594506D01*
X57289761Y-138594506D02*
X57251666Y-138708792D01*
X57251666Y-138708792D02*
X56794523Y-139165935D01*
X56794523Y-139165935D02*
X57289761Y-139165935D01*
X57632619Y-138861173D02*
X58242143Y-138861173D01*
X59080238Y-139089744D02*
X59042142Y-139127840D01*
X59042142Y-139127840D02*
X58927857Y-139165935D01*
X58927857Y-139165935D02*
X58851666Y-139165935D01*
X58851666Y-139165935D02*
X58737380Y-139127840D01*
X58737380Y-139127840D02*
X58661190Y-139051649D01*
X58661190Y-139051649D02*
X58623095Y-138975459D01*
X58623095Y-138975459D02*
X58584999Y-138823078D01*
X58584999Y-138823078D02*
X58584999Y-138708792D01*
X58584999Y-138708792D02*
X58623095Y-138556411D01*
X58623095Y-138556411D02*
X58661190Y-138480220D01*
X58661190Y-138480220D02*
X58737380Y-138404030D01*
X58737380Y-138404030D02*
X58851666Y-138365935D01*
X58851666Y-138365935D02*
X58927857Y-138365935D01*
X58927857Y-138365935D02*
X59042142Y-138404030D01*
X59042142Y-138404030D02*
X59080238Y-138442125D01*
X59765952Y-138365935D02*
X59613571Y-138365935D01*
X59613571Y-138365935D02*
X59537380Y-138404030D01*
X59537380Y-138404030D02*
X59499285Y-138442125D01*
X59499285Y-138442125D02*
X59423095Y-138556411D01*
X59423095Y-138556411D02*
X59384999Y-138708792D01*
X59384999Y-138708792D02*
X59384999Y-139013554D01*
X59384999Y-139013554D02*
X59423095Y-139089744D01*
X59423095Y-139089744D02*
X59461190Y-139127840D01*
X59461190Y-139127840D02*
X59537380Y-139165935D01*
X59537380Y-139165935D02*
X59689761Y-139165935D01*
X59689761Y-139165935D02*
X59765952Y-139127840D01*
X59765952Y-139127840D02*
X59804047Y-139089744D01*
X59804047Y-139089744D02*
X59842142Y-139013554D01*
X59842142Y-139013554D02*
X59842142Y-138823078D01*
X59842142Y-138823078D02*
X59804047Y-138746887D01*
X59804047Y-138746887D02*
X59765952Y-138708792D01*
X59765952Y-138708792D02*
X59689761Y-138670697D01*
X59689761Y-138670697D02*
X59537380Y-138670697D01*
X59537380Y-138670697D02*
X59461190Y-138708792D01*
X59461190Y-138708792D02*
X59423095Y-138746887D01*
X59423095Y-138746887D02*
X59384999Y-138823078D01*
D16*
X58444807Y-34470238D02*
X58482902Y-34355952D01*
X58482902Y-34355952D02*
X58520998Y-34317857D01*
X58520998Y-34317857D02*
X58597188Y-34279761D01*
X58597188Y-34279761D02*
X58711474Y-34279761D01*
X58711474Y-34279761D02*
X58787664Y-34317857D01*
X58787664Y-34317857D02*
X58825760Y-34355952D01*
X58825760Y-34355952D02*
X58863855Y-34432142D01*
X58863855Y-34432142D02*
X58863855Y-34736904D01*
X58863855Y-34736904D02*
X58063855Y-34736904D01*
X58063855Y-34736904D02*
X58063855Y-34470238D01*
X58063855Y-34470238D02*
X58101950Y-34394047D01*
X58101950Y-34394047D02*
X58140045Y-34355952D01*
X58140045Y-34355952D02*
X58216236Y-34317857D01*
X58216236Y-34317857D02*
X58292426Y-34317857D01*
X58292426Y-34317857D02*
X58368617Y-34355952D01*
X58368617Y-34355952D02*
X58406712Y-34394047D01*
X58406712Y-34394047D02*
X58444807Y-34470238D01*
X58444807Y-34470238D02*
X58444807Y-34736904D01*
X58444807Y-33936904D02*
X58444807Y-33670238D01*
X58863855Y-33555952D02*
X58863855Y-33936904D01*
X58863855Y-33936904D02*
X58063855Y-33936904D01*
X58063855Y-33936904D02*
X58063855Y-33555952D01*
X58863855Y-33213094D02*
X58063855Y-33213094D01*
X58063855Y-33213094D02*
X58863855Y-32755951D01*
X58863855Y-32755951D02*
X58063855Y-32755951D01*
X58863855Y-32374999D02*
X58063855Y-32374999D01*
X58063855Y-32374999D02*
X58063855Y-32184523D01*
X58063855Y-32184523D02*
X58101950Y-32070237D01*
X58101950Y-32070237D02*
X58178140Y-31994047D01*
X58178140Y-31994047D02*
X58254331Y-31955952D01*
X58254331Y-31955952D02*
X58406712Y-31917856D01*
X58406712Y-31917856D02*
X58520998Y-31917856D01*
X58520998Y-31917856D02*
X58673379Y-31955952D01*
X58673379Y-31955952D02*
X58749569Y-31994047D01*
X58749569Y-31994047D02*
X58825760Y-32070237D01*
X58825760Y-32070237D02*
X58863855Y-32184523D01*
X58863855Y-32184523D02*
X58863855Y-32374999D01*
X58863855Y-30927380D02*
X58863855Y-30774999D01*
X58863855Y-30774999D02*
X58825760Y-30698809D01*
X58825760Y-30698809D02*
X58787664Y-30660713D01*
X58787664Y-30660713D02*
X58673379Y-30584523D01*
X58673379Y-30584523D02*
X58520998Y-30546428D01*
X58520998Y-30546428D02*
X58216236Y-30546428D01*
X58216236Y-30546428D02*
X58140045Y-30584523D01*
X58140045Y-30584523D02*
X58101950Y-30622618D01*
X58101950Y-30622618D02*
X58063855Y-30698809D01*
X58063855Y-30698809D02*
X58063855Y-30851190D01*
X58063855Y-30851190D02*
X58101950Y-30927380D01*
X58101950Y-30927380D02*
X58140045Y-30965475D01*
X58140045Y-30965475D02*
X58216236Y-31003571D01*
X58216236Y-31003571D02*
X58406712Y-31003571D01*
X58406712Y-31003571D02*
X58482902Y-30965475D01*
X58482902Y-30965475D02*
X58520998Y-30927380D01*
X58520998Y-30927380D02*
X58559093Y-30851190D01*
X58559093Y-30851190D02*
X58559093Y-30698809D01*
X58559093Y-30698809D02*
X58520998Y-30622618D01*
X58520998Y-30622618D02*
X58482902Y-30584523D01*
X58482902Y-30584523D02*
X58406712Y-30546428D01*
X58063855Y-30051189D02*
X58063855Y-29974999D01*
X58063855Y-29974999D02*
X58101950Y-29898808D01*
X58101950Y-29898808D02*
X58140045Y-29860713D01*
X58140045Y-29860713D02*
X58216236Y-29822618D01*
X58216236Y-29822618D02*
X58368617Y-29784523D01*
X58368617Y-29784523D02*
X58559093Y-29784523D01*
X58559093Y-29784523D02*
X58711474Y-29822618D01*
X58711474Y-29822618D02*
X58787664Y-29860713D01*
X58787664Y-29860713D02*
X58825760Y-29898808D01*
X58825760Y-29898808D02*
X58863855Y-29974999D01*
X58863855Y-29974999D02*
X58863855Y-30051189D01*
X58863855Y-30051189D02*
X58825760Y-30127380D01*
X58825760Y-30127380D02*
X58787664Y-30165475D01*
X58787664Y-30165475D02*
X58711474Y-30203570D01*
X58711474Y-30203570D02*
X58559093Y-30241666D01*
X58559093Y-30241666D02*
X58368617Y-30241666D01*
X58368617Y-30241666D02*
X58216236Y-30203570D01*
X58216236Y-30203570D02*
X58140045Y-30165475D01*
X58140045Y-30165475D02*
X58101950Y-30127380D01*
X58101950Y-30127380D02*
X58063855Y-30051189D01*
X58063855Y-29327380D02*
X58101950Y-29403570D01*
X58101950Y-29403570D02*
X58178140Y-29441665D01*
X58178140Y-29441665D02*
X58254331Y-29403570D01*
X58254331Y-29403570D02*
X58292426Y-29327380D01*
X58292426Y-29327380D02*
X58254331Y-29251189D01*
X58254331Y-29251189D02*
X58178140Y-29213094D01*
X58178140Y-29213094D02*
X58101950Y-29251189D01*
X58101950Y-29251189D02*
X58063855Y-29327380D01*
D17*
G36*
X50740754Y-48500000D02*
G01*
X49993432Y-48500000D01*
X49993432Y-48337761D01*
X50163852Y-48195307D01*
X50236471Y-48128312D01*
X50296721Y-48067934D01*
X50364194Y-47989795D01*
X50404676Y-47929631D01*
X50423499Y-47888884D01*
X50434500Y-47848198D01*
X50438137Y-47807021D01*
X50432985Y-47761411D01*
X50418686Y-47725795D01*
X50395761Y-47697845D01*
X50365414Y-47677476D01*
X50326803Y-47664509D01*
X50277609Y-47659804D01*
X50239384Y-47662220D01*
X50204153Y-47669269D01*
X50134177Y-47693571D01*
X50074704Y-47725383D01*
X50037823Y-47749685D01*
X50018040Y-47749685D01*
X50018040Y-47527852D01*
X50067536Y-47508931D01*
X50152617Y-47485903D01*
X50243578Y-47469645D01*
X50328839Y-47464410D01*
X50420498Y-47470349D01*
X50494806Y-47486732D01*
X50554844Y-47511971D01*
X50603123Y-47545315D01*
X50643141Y-47588806D01*
X50671982Y-47640084D01*
X50689993Y-47700708D01*
X50696363Y-47772889D01*
X50691736Y-47832283D01*
X50677763Y-47891158D01*
X50653987Y-47950148D01*
X50622139Y-48005468D01*
X50576161Y-48067185D01*
X50513303Y-48136261D01*
X50451542Y-48194941D01*
X50393746Y-48244888D01*
X50309727Y-48312421D01*
X50740754Y-48312421D01*
X50740754Y-48500000D01*
G37*
G36*
X51299524Y-47468672D02*
G01*
X51359984Y-47480529D01*
X51410102Y-47498909D01*
X51456097Y-47525631D01*
X51496114Y-47559706D01*
X51530697Y-47601735D01*
X51557966Y-47648134D01*
X51580528Y-47702837D01*
X51597985Y-47767088D01*
X51613267Y-47869245D01*
X51618807Y-47993257D01*
X51613135Y-48120911D01*
X51597619Y-48224188D01*
X51579907Y-48288897D01*
X51557234Y-48343567D01*
X51530025Y-48389541D01*
X51495904Y-48430133D01*
X51455802Y-48463335D01*
X51409064Y-48489619D01*
X51358328Y-48507716D01*
X51298124Y-48519308D01*
X51226736Y-48523447D01*
X51155768Y-48519317D01*
X51095731Y-48507734D01*
X51044959Y-48489619D01*
X50998317Y-48463273D01*
X50957995Y-48429631D01*
X50923387Y-48388136D01*
X50896108Y-48341793D01*
X50873448Y-48287206D01*
X50855792Y-48223150D01*
X50840284Y-48120865D01*
X50834634Y-47994600D01*
X51090754Y-47994600D01*
X51095283Y-48120301D01*
X51106679Y-48204635D01*
X51122139Y-48258260D01*
X51141572Y-48293723D01*
X51165030Y-48317211D01*
X51192920Y-48331065D01*
X51226736Y-48335868D01*
X51260519Y-48331066D01*
X51288379Y-48317215D01*
X51311808Y-48293728D01*
X51331211Y-48258260D01*
X51346685Y-48204605D01*
X51358111Y-48119892D01*
X51362657Y-47993257D01*
X51358134Y-47865619D01*
X51346814Y-47781083D01*
X51331578Y-47728253D01*
X51312385Y-47693556D01*
X51288997Y-47670457D01*
X51260960Y-47656758D01*
X51226736Y-47651988D01*
X51192828Y-47656736D01*
X51164915Y-47670404D01*
X51141497Y-47693502D01*
X51122139Y-47728253D01*
X51106767Y-47781123D01*
X51095330Y-47866034D01*
X51090754Y-47994600D01*
X50834634Y-47994600D01*
X50834604Y-47993928D01*
X50840266Y-47863606D01*
X50855426Y-47762997D01*
X50872914Y-47700661D01*
X50896118Y-47646077D01*
X50924791Y-47598316D01*
X50959856Y-47556896D01*
X51000621Y-47523502D01*
X51047706Y-47497566D01*
X51098857Y-47479713D01*
X51158080Y-47468406D01*
X51226736Y-47464410D01*
X51299524Y-47468672D01*
G37*
G36*
X52522750Y-48500000D02*
G01*
X51775428Y-48500000D01*
X51775428Y-48337761D01*
X51945848Y-48195307D01*
X52018466Y-48128312D01*
X52078716Y-48067934D01*
X52146190Y-47989795D01*
X52186672Y-47929631D01*
X52205494Y-47888884D01*
X52216496Y-47848198D01*
X52220133Y-47807021D01*
X52214981Y-47761411D01*
X52200681Y-47725795D01*
X52177757Y-47697845D01*
X52147410Y-47677476D01*
X52108799Y-47664509D01*
X52059604Y-47659804D01*
X52021380Y-47662220D01*
X51986148Y-47669269D01*
X51916173Y-47693571D01*
X51856700Y-47725383D01*
X51819819Y-47749685D01*
X51800035Y-47749685D01*
X51800035Y-47527852D01*
X51849532Y-47508931D01*
X51934613Y-47485903D01*
X52025574Y-47469645D01*
X52110834Y-47464410D01*
X52202493Y-47470349D01*
X52276802Y-47486732D01*
X52336840Y-47511971D01*
X52385119Y-47545315D01*
X52425137Y-47588806D01*
X52453977Y-47640084D01*
X52471988Y-47700708D01*
X52478359Y-47772889D01*
X52473732Y-47832283D01*
X52459759Y-47891158D01*
X52435983Y-47950148D01*
X52404135Y-48005468D01*
X52358157Y-48067185D01*
X52295299Y-48136261D01*
X52233538Y-48194941D01*
X52175742Y-48244888D01*
X52091722Y-48312421D01*
X52522750Y-48312421D01*
X52522750Y-48500000D01*
G37*
G36*
X53252853Y-47470943D02*
G01*
X53321546Y-47481629D01*
X53321546Y-47683251D01*
X53303106Y-47683251D01*
X53244365Y-47663224D01*
X53201772Y-47654955D01*
X53150759Y-47651988D01*
X53091027Y-47656425D01*
X53041530Y-47668826D01*
X53000446Y-47688302D01*
X52966356Y-47714637D01*
X52929990Y-47760167D01*
X52903070Y-47818987D01*
X52886428Y-47894338D01*
X52937200Y-47865233D01*
X52987849Y-47843108D01*
X53041573Y-47828928D01*
X53104353Y-47823935D01*
X53157886Y-47827689D01*
X53207118Y-47838651D01*
X53253026Y-47856880D01*
X53292909Y-47881393D01*
X53325174Y-47910652D01*
X53353016Y-47945736D01*
X53376562Y-47987334D01*
X53393015Y-48032194D01*
X53403747Y-48087555D01*
X53407642Y-48155556D01*
X53400906Y-48234460D01*
X53381526Y-48303718D01*
X53350005Y-48365097D01*
X53305854Y-48419888D01*
X53251973Y-48464059D01*
X53188769Y-48496177D01*
X53114408Y-48516321D01*
X53026440Y-48523447D01*
X52940647Y-48516745D01*
X52867926Y-48497801D01*
X52823320Y-48477727D01*
X52784128Y-48452564D01*
X52749774Y-48422208D01*
X52714953Y-48380401D01*
X52685285Y-48330195D01*
X52660930Y-48270350D01*
X52644519Y-48207580D01*
X52633974Y-48133995D01*
X52631908Y-48086680D01*
X52883680Y-48086680D01*
X52887987Y-48170602D01*
X52899006Y-48228768D01*
X52917494Y-48278344D01*
X52937657Y-48310101D01*
X52957033Y-48329355D01*
X52978263Y-48341852D01*
X53001706Y-48349078D01*
X53026440Y-48351500D01*
X53047125Y-48349074D01*
X53070831Y-48341181D01*
X53092857Y-48328245D01*
X53111192Y-48310101D01*
X53128703Y-48284122D01*
X53141539Y-48256001D01*
X53149040Y-48222874D01*
X53152164Y-48167341D01*
X53148781Y-48120083D01*
X53139829Y-48085336D01*
X53124655Y-48055681D01*
X53105025Y-48033557D01*
X53080944Y-48017280D01*
X53053795Y-48007056D01*
X52992978Y-47999790D01*
X52937963Y-48006690D01*
X52885023Y-48023909D01*
X52884351Y-48046685D01*
X52883680Y-48086680D01*
X52631908Y-48086680D01*
X52630217Y-48047967D01*
X52633654Y-47958760D01*
X52643445Y-47879769D01*
X52658915Y-47809891D01*
X52682314Y-47742656D01*
X52713480Y-47681536D01*
X52752521Y-47625854D01*
X52797442Y-47579605D01*
X52851245Y-47540097D01*
X52915065Y-47507213D01*
X52983327Y-47484150D01*
X53062015Y-47469559D01*
X53152835Y-47464410D01*
X53252853Y-47470943D01*
G37*
G36*
X53793790Y-48500000D02*
G01*
X53551989Y-48500000D01*
X53551989Y-48230355D01*
X53793790Y-48230355D01*
X53793790Y-48500000D01*
G37*
G36*
X54718921Y-47681786D02*
G01*
X54285817Y-48500000D01*
X54001640Y-48500000D01*
X54455932Y-47671528D01*
X53970927Y-47671528D01*
X53970927Y-47483949D01*
X54718921Y-47483949D01*
X54718921Y-47681786D01*
G37*
G36*
X55121494Y-48500000D02*
G01*
X54879693Y-48500000D01*
X54879693Y-48230355D01*
X55121494Y-48230355D01*
X55121494Y-48500000D01*
G37*
G36*
X56024093Y-48500000D02*
G01*
X55351937Y-48500000D01*
X55351937Y-48324145D01*
X55566382Y-48324145D01*
X55566382Y-47784856D01*
X55351937Y-47784856D01*
X55351937Y-47620725D01*
X55445482Y-47614680D01*
X55489354Y-47606205D01*
X55519976Y-47595141D01*
X55549384Y-47575886D01*
X55570779Y-47551666D01*
X55584784Y-47521996D01*
X55591661Y-47483949D01*
X55814411Y-47483949D01*
X55814411Y-48324145D01*
X56024093Y-48324145D01*
X56024093Y-48500000D01*
G37*
D18*
G36*
X46210830Y-46750000D02*
G01*
X45826099Y-46750000D01*
X45826099Y-46178746D01*
X45820042Y-46039711D01*
X45810492Y-45975283D01*
X45797669Y-45937678D01*
X45773258Y-45903879D01*
X45740809Y-45881808D01*
X45700076Y-45869570D01*
X45641451Y-45864863D01*
X45594668Y-45868876D01*
X45546294Y-45881258D01*
X45498379Y-45901625D01*
X45443615Y-45933557D01*
X45443615Y-46750000D01*
X45061033Y-46750000D01*
X45061033Y-45155582D01*
X45443615Y-45155582D01*
X45443615Y-45724912D01*
X45538895Y-45656592D01*
X45626601Y-45607950D01*
X45719497Y-45576633D01*
X45823949Y-45565910D01*
X45916564Y-45573590D01*
X45993457Y-45595199D01*
X46057680Y-45629641D01*
X46111374Y-45677285D01*
X46152408Y-45734731D01*
X46183446Y-45805676D01*
X46203556Y-45892942D01*
X46210830Y-45999960D01*
X46210830Y-46750000D01*
G37*
G36*
X47160646Y-45573244D02*
G01*
X47266088Y-45594069D01*
X47357602Y-45627153D01*
X47437228Y-45672013D01*
X47506490Y-45728942D01*
X47564404Y-45796325D01*
X47610178Y-45873165D01*
X47643965Y-45960835D01*
X47665209Y-46061108D01*
X47672672Y-46176090D01*
X47661182Y-46316867D01*
X47628770Y-46435728D01*
X47577330Y-46536504D01*
X47507076Y-46622138D01*
X47438022Y-46679015D01*
X47358470Y-46723865D01*
X47266873Y-46756967D01*
X47161154Y-46777822D01*
X47038813Y-46785170D01*
X46917448Y-46777853D01*
X46812242Y-46757056D01*
X46720773Y-46723991D01*
X46641034Y-46679120D01*
X46571528Y-46622138D01*
X46513382Y-46554712D01*
X46467465Y-46477938D01*
X46433602Y-46390467D01*
X46412327Y-46290545D01*
X46404989Y-46178105D01*
X46797208Y-46178105D01*
X46802415Y-46277906D01*
X46815771Y-46347640D01*
X46838153Y-46408035D01*
X46863838Y-46450863D01*
X46898534Y-46485433D01*
X46940335Y-46508932D01*
X46988022Y-46522544D01*
X47042037Y-46527250D01*
X47087704Y-46522795D01*
X47135436Y-46508932D01*
X47178521Y-46485821D01*
X47211444Y-46453977D01*
X47240716Y-46406828D01*
X47262833Y-46348647D01*
X47275317Y-46281088D01*
X47280321Y-46178105D01*
X47275339Y-46080574D01*
X47262247Y-46008570D01*
X47239765Y-45945350D01*
X47212519Y-45900218D01*
X47175503Y-45863182D01*
X47136022Y-45840683D01*
X47091432Y-45828221D01*
X47038813Y-45823831D01*
X46989035Y-45827650D01*
X46945806Y-45838577D01*
X46907110Y-45859207D01*
X46869309Y-45895088D01*
X46841066Y-45939606D01*
X46816845Y-46003990D01*
X46802626Y-46077769D01*
X46797208Y-46178105D01*
X46404989Y-46178105D01*
X46404857Y-46176090D01*
X46412373Y-46060128D01*
X46433737Y-45959338D01*
X46467658Y-45871534D01*
X46513544Y-45794874D01*
X46571528Y-45727935D01*
X46640975Y-45671345D01*
X46720681Y-45626753D01*
X46812149Y-45593876D01*
X46917386Y-45573191D01*
X47038813Y-45565910D01*
X47160646Y-45573244D01*
G37*
G36*
X49343098Y-46750000D02*
G01*
X49343098Y-46174624D01*
X49339776Y-46031010D01*
X49332752Y-45975569D01*
X49320139Y-45935663D01*
X49298912Y-45903432D01*
X49269239Y-45881808D01*
X49230880Y-45869645D01*
X49172617Y-45864863D01*
X49129483Y-45869281D01*
X49086252Y-45882815D01*
X48993342Y-45933557D01*
X48993342Y-46750000D01*
X48608611Y-46750000D01*
X48608611Y-46174624D01*
X48604801Y-46031559D01*
X48597309Y-45975628D01*
X48584578Y-45935663D01*
X48563350Y-45903432D01*
X48533677Y-45881808D01*
X48495441Y-45869624D01*
X48438130Y-45864863D01*
X48392012Y-45869917D01*
X48346294Y-45885380D01*
X48258855Y-45933557D01*
X48258855Y-46750000D01*
X47876273Y-46750000D01*
X47876273Y-45601081D01*
X48258855Y-45601081D01*
X48258855Y-45724912D01*
X48353238Y-45656149D01*
X48435882Y-45607950D01*
X48523024Y-45576670D01*
X48622777Y-45565910D01*
X48696245Y-45571739D01*
X48761664Y-45588609D01*
X48820516Y-45616194D01*
X48871965Y-45654343D01*
X48915245Y-45703701D01*
X48950649Y-45766037D01*
X49061955Y-45677865D01*
X49158841Y-45617751D01*
X49225773Y-45588471D01*
X49291604Y-45571487D01*
X49357264Y-45565910D01*
X49439636Y-45572572D01*
X49510258Y-45591556D01*
X49572953Y-45623677D01*
X49625052Y-45668492D01*
X49669601Y-45728461D01*
X49702135Y-45800383D01*
X49720652Y-45882813D01*
X49727829Y-45999960D01*
X49727829Y-46750000D01*
X49343098Y-46750000D01*
G37*
G36*
X50718627Y-45576130D02*
G01*
X50833146Y-45604488D01*
X50926244Y-45648765D01*
X51001702Y-45708517D01*
X51061144Y-45783058D01*
X51105379Y-45873596D01*
X51133689Y-45983409D01*
X51143852Y-46116647D01*
X51143852Y-46245882D01*
X50305610Y-46245882D01*
X50317992Y-46320758D01*
X50341661Y-46378140D01*
X50377487Y-46426163D01*
X50422554Y-46462678D01*
X50474933Y-46489264D01*
X50537250Y-46507741D01*
X50604584Y-46517852D01*
X50680474Y-46521388D01*
X50746700Y-46517855D01*
X50811681Y-46507283D01*
X50874296Y-46490683D01*
X50929700Y-46470189D01*
X51016552Y-46427324D01*
X51081619Y-46386566D01*
X51122065Y-46386566D01*
X51122065Y-46683688D01*
X51036287Y-46716111D01*
X50929700Y-46746427D01*
X50801228Y-46770516D01*
X50640028Y-46779309D01*
X50497355Y-46772053D01*
X50375485Y-46751632D01*
X50271459Y-46719632D01*
X50182717Y-46677014D01*
X50107187Y-46624062D01*
X50042230Y-46558795D01*
X49991273Y-46483642D01*
X49953803Y-46397160D01*
X49930248Y-46297352D01*
X49921954Y-46181769D01*
X49929573Y-46068776D01*
X49938285Y-46028995D01*
X50304438Y-46028995D01*
X50766839Y-46028995D01*
X50758113Y-45954025D01*
X50738743Y-45897159D01*
X50710467Y-45854422D01*
X50670874Y-45822258D01*
X50618191Y-45801948D01*
X50548192Y-45794521D01*
X50476762Y-45802089D01*
X50419726Y-45823288D01*
X50373803Y-45857536D01*
X50339211Y-45902778D01*
X50315811Y-45959011D01*
X50304438Y-46028995D01*
X49938285Y-46028995D01*
X49951376Y-45969213D01*
X49986280Y-45881146D01*
X50033904Y-45802960D01*
X50094585Y-45733430D01*
X50166552Y-45674895D01*
X50249057Y-45628784D01*
X50343641Y-45594801D01*
X50452360Y-45573429D01*
X50577697Y-45565910D01*
X50718627Y-45576130D01*
G37*
G36*
X51674738Y-46750000D02*
G01*
X51674738Y-45513154D01*
X51193775Y-45513154D01*
X51193775Y-45225924D01*
X52564368Y-45225924D01*
X52564368Y-45513154D01*
X52083503Y-45513154D01*
X52083503Y-46750000D01*
X51674738Y-46750000D01*
G37*
G36*
X53860907Y-46750000D02*
G01*
X53476176Y-46750000D01*
X53476176Y-46178746D01*
X53470118Y-46039711D01*
X53460569Y-45975283D01*
X53447746Y-45937678D01*
X53423335Y-45903879D01*
X53390886Y-45881808D01*
X53350153Y-45869570D01*
X53291528Y-45864863D01*
X53244745Y-45868876D01*
X53196371Y-45881258D01*
X53148455Y-45901625D01*
X53093691Y-45933557D01*
X53093691Y-46750000D01*
X52711109Y-46750000D01*
X52711109Y-45155582D01*
X53093691Y-45155582D01*
X53093691Y-45724912D01*
X53188972Y-45656592D01*
X53276678Y-45607950D01*
X53369574Y-45576633D01*
X53474026Y-45565910D01*
X53566641Y-45573590D01*
X53643534Y-45595199D01*
X53707757Y-45629641D01*
X53761451Y-45677285D01*
X53802485Y-45734731D01*
X53833522Y-45805676D01*
X53853633Y-45892942D01*
X53860907Y-45999960D01*
X53860907Y-46750000D01*
G37*
G36*
X54527104Y-46750000D02*
G01*
X54144522Y-46750000D01*
X54144522Y-45601081D01*
X54527104Y-45601081D01*
X54527104Y-46750000D01*
G37*
G36*
X54538046Y-45436950D02*
G01*
X54133580Y-45436950D01*
X54133580Y-45155582D01*
X54538046Y-45155582D01*
X54538046Y-45436950D01*
G37*
G36*
X55969602Y-46750000D02*
G01*
X55584871Y-46750000D01*
X55584871Y-46178746D01*
X55578813Y-46039711D01*
X55569264Y-45975283D01*
X55556441Y-45937678D01*
X55532030Y-45903879D01*
X55499581Y-45881808D01*
X55458848Y-45869570D01*
X55400223Y-45864863D01*
X55353440Y-45868876D01*
X55305066Y-45881258D01*
X55257150Y-45901625D01*
X55202386Y-45933557D01*
X55202386Y-46750000D01*
X54819804Y-46750000D01*
X54819804Y-45601081D01*
X55202386Y-45601081D01*
X55202386Y-45724912D01*
X55297667Y-45656592D01*
X55385373Y-45607950D01*
X55478269Y-45576633D01*
X55582721Y-45565910D01*
X55675336Y-45573590D01*
X55752229Y-45595199D01*
X55816452Y-45629641D01*
X55870146Y-45677285D01*
X55911180Y-45734731D01*
X55942218Y-45805676D01*
X55962328Y-45892942D01*
X55969602Y-45999960D01*
X55969602Y-46750000D01*
G37*
G36*
X56771581Y-45572254D02*
G01*
X56848876Y-45590182D01*
X56920527Y-45618130D01*
X56984480Y-45652372D01*
X56998646Y-45601081D01*
X57369211Y-45601081D01*
X57369211Y-46618658D01*
X57363182Y-46724547D01*
X57346294Y-46814184D01*
X57319972Y-46889951D01*
X57281905Y-46960861D01*
X57237086Y-47018265D01*
X57185541Y-47063974D01*
X57093383Y-47117917D01*
X56981158Y-47155565D01*
X56858334Y-47176416D01*
X56716692Y-47183775D01*
X56595963Y-47179996D01*
X56484368Y-47169029D01*
X56293663Y-47135048D01*
X56293663Y-46849651D01*
X56338506Y-46849651D01*
X56405722Y-46870167D01*
X56483880Y-46890775D01*
X56575617Y-46907536D01*
X56667453Y-46914131D01*
X56760508Y-46908980D01*
X56829728Y-46895355D01*
X56888762Y-46871521D01*
X56927620Y-46842049D01*
X56955268Y-46803618D01*
X56973440Y-46758151D01*
X56982980Y-46706652D01*
X56986629Y-46636060D01*
X56986629Y-46614536D01*
X56917652Y-46662277D01*
X56837446Y-46700174D01*
X56751295Y-46724391D01*
X56663056Y-46732414D01*
X56546017Y-46722488D01*
X56447973Y-46694431D01*
X56365229Y-46649452D01*
X56295227Y-46586876D01*
X56242584Y-46512002D01*
X56202128Y-46416508D01*
X56175519Y-46295725D01*
X56166360Y-46153101D01*
X56557055Y-46153101D01*
X56559888Y-46225254D01*
X56567411Y-46280046D01*
X56582557Y-46329460D01*
X56606197Y-46371912D01*
X56637835Y-46406237D01*
X56677809Y-46430988D01*
X56725746Y-46445581D01*
X56790942Y-46451046D01*
X56841760Y-46446973D01*
X56892058Y-46434651D01*
X56940261Y-46414722D01*
X56986629Y-46387299D01*
X56986629Y-45864314D01*
X56916678Y-45843797D01*
X56833635Y-45835554D01*
X56746124Y-45845679D01*
X56678670Y-45873808D01*
X56626420Y-45919360D01*
X56589639Y-45978600D01*
X56565791Y-46054968D01*
X56557055Y-46153101D01*
X56166360Y-46153101D01*
X56165778Y-46144033D01*
X56176178Y-46013047D01*
X56205638Y-45901133D01*
X56254191Y-45800072D01*
X56316622Y-45717585D01*
X56391322Y-45653300D01*
X56480558Y-45605386D01*
X56578833Y-45575752D01*
X56680642Y-45565910D01*
X56771581Y-45572254D01*
G37*
G36*
X58360056Y-46216573D02*
G01*
X57635436Y-46216573D01*
X57635436Y-45935205D01*
X58360056Y-45935205D01*
X58360056Y-46216573D01*
G37*
G36*
X59228388Y-46779309D02*
G01*
X59080426Y-46770038D01*
X58950146Y-46743497D01*
X58868654Y-46714791D01*
X58795925Y-46677891D01*
X58731012Y-46632763D01*
X58674890Y-46579231D01*
X58627247Y-46516890D01*
X58587885Y-46444726D01*
X58560165Y-46367741D01*
X58542662Y-46279361D01*
X58536497Y-46177739D01*
X58543274Y-46068581D01*
X58562323Y-45975795D01*
X58592184Y-45896920D01*
X58634482Y-45823189D01*
X58684704Y-45760017D01*
X58743028Y-45706319D01*
X58807055Y-45663111D01*
X58878717Y-45627757D01*
X58958939Y-45600257D01*
X59085006Y-45574576D01*
X59217446Y-45565910D01*
X59318735Y-45571372D01*
X59420656Y-45587892D01*
X59521425Y-45615966D01*
X59625136Y-45657868D01*
X59625136Y-45964515D01*
X59575994Y-45964515D01*
X59519623Y-45919635D01*
X59446936Y-45874847D01*
X59352952Y-45838668D01*
X59298681Y-45827694D01*
X59236008Y-45823831D01*
X59164547Y-45830269D01*
X59104292Y-45848564D01*
X59052990Y-45878141D01*
X59009155Y-45919726D01*
X58966159Y-45987502D01*
X58938749Y-46072057D01*
X58928848Y-46177739D01*
X58935182Y-46265453D01*
X58952582Y-46335736D01*
X58979312Y-46391820D01*
X59014626Y-46436300D01*
X59077005Y-46482964D01*
X59151762Y-46511389D01*
X59242554Y-46521388D01*
X59312193Y-46517257D01*
X59369267Y-46505818D01*
X59421508Y-46488051D01*
X59463349Y-46468265D01*
X59528904Y-46422928D01*
X59575994Y-46380704D01*
X59625136Y-46380704D01*
X59625136Y-46689733D01*
X59549127Y-46720599D01*
X59461200Y-46749450D01*
X59356762Y-46771523D01*
X59228388Y-46779309D01*
G37*
G36*
X60763112Y-45206415D02*
G01*
X60873021Y-45222444D01*
X60873021Y-45524877D01*
X60843517Y-45524877D01*
X60749532Y-45494836D01*
X60681383Y-45482433D01*
X60599762Y-45477983D01*
X60504190Y-45484637D01*
X60424996Y-45503240D01*
X60359261Y-45532454D01*
X60304717Y-45571955D01*
X60246531Y-45640251D01*
X60203460Y-45728480D01*
X60176832Y-45841508D01*
X60258068Y-45797849D01*
X60339106Y-45764663D01*
X60425064Y-45743393D01*
X60525513Y-45735903D01*
X60611166Y-45741533D01*
X60689937Y-45757977D01*
X60763389Y-45785320D01*
X60827201Y-45822090D01*
X60878826Y-45865978D01*
X60923373Y-45918604D01*
X60961046Y-45981001D01*
X60987371Y-46048291D01*
X61004542Y-46131333D01*
X61010774Y-46233334D01*
X60999998Y-46351690D01*
X60968989Y-46455578D01*
X60918555Y-46547646D01*
X60847913Y-46629832D01*
X60761705Y-46696088D01*
X60660577Y-46744265D01*
X60541601Y-46774482D01*
X60400851Y-46785170D01*
X60263582Y-46775118D01*
X60147229Y-46746702D01*
X60075860Y-46716590D01*
X60013152Y-46678846D01*
X59958185Y-46633312D01*
X59902472Y-46570601D01*
X59855004Y-46495293D01*
X59816036Y-46405525D01*
X59789778Y-46311371D01*
X59772906Y-46200993D01*
X59769599Y-46130020D01*
X60172435Y-46130020D01*
X60179327Y-46255903D01*
X60196957Y-46343152D01*
X60226538Y-46417516D01*
X60258799Y-46465151D01*
X60289800Y-46494033D01*
X60323768Y-46512779D01*
X60361276Y-46523617D01*
X60400851Y-46527250D01*
X60433947Y-46523611D01*
X60471877Y-46511771D01*
X60507119Y-46492367D01*
X60536455Y-46465151D01*
X60564473Y-46426183D01*
X60585010Y-46384002D01*
X60597011Y-46334311D01*
X60602009Y-46251011D01*
X60596597Y-46180125D01*
X60582275Y-46128005D01*
X60557995Y-46083522D01*
X60526587Y-46050335D01*
X60488058Y-46025920D01*
X60444619Y-46010585D01*
X60347313Y-45999685D01*
X60259288Y-46010035D01*
X60174585Y-46035864D01*
X60173510Y-46070027D01*
X60172435Y-46130020D01*
X59769599Y-46130020D01*
X59766894Y-46071951D01*
X59772394Y-45938140D01*
X59788060Y-45819654D01*
X59812812Y-45714837D01*
X59850250Y-45613984D01*
X59900116Y-45522304D01*
X59962582Y-45438782D01*
X60034455Y-45369407D01*
X60120540Y-45310146D01*
X60222651Y-45260820D01*
X60331871Y-45226225D01*
X60457772Y-45204338D01*
X60603084Y-45196615D01*
X60763112Y-45206415D01*
G37*
D11*
X60884819Y-119916666D02*
X60408628Y-120249999D01*
X60884819Y-120488094D02*
X59884819Y-120488094D01*
X59884819Y-120488094D02*
X59884819Y-120107142D01*
X59884819Y-120107142D02*
X59932438Y-120011904D01*
X59932438Y-120011904D02*
X59980057Y-119964285D01*
X59980057Y-119964285D02*
X60075295Y-119916666D01*
X60075295Y-119916666D02*
X60218152Y-119916666D01*
X60218152Y-119916666D02*
X60313390Y-119964285D01*
X60313390Y-119964285D02*
X60361009Y-120011904D01*
X60361009Y-120011904D02*
X60408628Y-120107142D01*
X60408628Y-120107142D02*
X60408628Y-120488094D01*
X60218152Y-119059523D02*
X60884819Y-119059523D01*
X59837200Y-119297618D02*
X60551485Y-119535713D01*
X60551485Y-119535713D02*
X60551485Y-118916666D01*
X55833333Y-123859580D02*
X55785714Y-123907200D01*
X55785714Y-123907200D02*
X55642857Y-123954819D01*
X55642857Y-123954819D02*
X55547619Y-123954819D01*
X55547619Y-123954819D02*
X55404762Y-123907200D01*
X55404762Y-123907200D02*
X55309524Y-123811961D01*
X55309524Y-123811961D02*
X55261905Y-123716723D01*
X55261905Y-123716723D02*
X55214286Y-123526247D01*
X55214286Y-123526247D02*
X55214286Y-123383390D01*
X55214286Y-123383390D02*
X55261905Y-123192914D01*
X55261905Y-123192914D02*
X55309524Y-123097676D01*
X55309524Y-123097676D02*
X55404762Y-123002438D01*
X55404762Y-123002438D02*
X55547619Y-122954819D01*
X55547619Y-122954819D02*
X55642857Y-122954819D01*
X55642857Y-122954819D02*
X55785714Y-123002438D01*
X55785714Y-123002438D02*
X55833333Y-123050057D01*
X56785714Y-123954819D02*
X56214286Y-123954819D01*
X56500000Y-123954819D02*
X56500000Y-122954819D01*
X56500000Y-122954819D02*
X56404762Y-123097676D01*
X56404762Y-123097676D02*
X56309524Y-123192914D01*
X56309524Y-123192914D02*
X56214286Y-123240533D01*
X67315791Y-52571675D02*
X68022898Y-51864569D01*
X68022898Y-51864569D02*
X68191257Y-52032927D01*
X68191257Y-52032927D02*
X68258600Y-52167614D01*
X68258600Y-52167614D02*
X68258600Y-52302301D01*
X68258600Y-52302301D02*
X68224928Y-52403317D01*
X68224928Y-52403317D02*
X68123913Y-52571675D01*
X68123913Y-52571675D02*
X68022898Y-52672691D01*
X68022898Y-52672691D02*
X67854539Y-52773706D01*
X67854539Y-52773706D02*
X67753524Y-52807378D01*
X67753524Y-52807378D02*
X67618837Y-52807378D01*
X67618837Y-52807378D02*
X67484150Y-52740034D01*
X67484150Y-52740034D02*
X67315791Y-52571675D01*
X68797348Y-53110423D02*
X68325944Y-53581828D01*
X68898363Y-52672691D02*
X68224928Y-53009408D01*
X68224928Y-53009408D02*
X68662661Y-53447141D01*
X67200057Y-34657738D02*
X67152438Y-34752976D01*
X67152438Y-34752976D02*
X67057200Y-34848214D01*
X67057200Y-34848214D02*
X66914342Y-34991071D01*
X66914342Y-34991071D02*
X66866723Y-35086309D01*
X66866723Y-35086309D02*
X66866723Y-35181547D01*
X67104819Y-35133928D02*
X67057200Y-35229166D01*
X67057200Y-35229166D02*
X66961961Y-35324404D01*
X66961961Y-35324404D02*
X66771485Y-35372023D01*
X66771485Y-35372023D02*
X66438152Y-35372023D01*
X66438152Y-35372023D02*
X66247676Y-35324404D01*
X66247676Y-35324404D02*
X66152438Y-35229166D01*
X66152438Y-35229166D02*
X66104819Y-35133928D01*
X66104819Y-35133928D02*
X66104819Y-34943452D01*
X66104819Y-34943452D02*
X66152438Y-34848214D01*
X66152438Y-34848214D02*
X66247676Y-34752976D01*
X66247676Y-34752976D02*
X66438152Y-34705357D01*
X66438152Y-34705357D02*
X66771485Y-34705357D01*
X66771485Y-34705357D02*
X66961961Y-34752976D01*
X66961961Y-34752976D02*
X67057200Y-34848214D01*
X67057200Y-34848214D02*
X67104819Y-34943452D01*
X67104819Y-34943452D02*
X67104819Y-35133928D01*
X67104819Y-33752976D02*
X67104819Y-34324404D01*
X67104819Y-34038690D02*
X66104819Y-34038690D01*
X66104819Y-34038690D02*
X66247676Y-34133928D01*
X66247676Y-34133928D02*
X66342914Y-34229166D01*
X66342914Y-34229166D02*
X66390533Y-34324404D01*
X63886476Y-103853200D02*
X64029333Y-103900819D01*
X64029333Y-103900819D02*
X64267428Y-103900819D01*
X64267428Y-103900819D02*
X64362666Y-103853200D01*
X64362666Y-103853200D02*
X64410285Y-103805580D01*
X64410285Y-103805580D02*
X64457904Y-103710342D01*
X64457904Y-103710342D02*
X64457904Y-103615104D01*
X64457904Y-103615104D02*
X64410285Y-103519866D01*
X64410285Y-103519866D02*
X64362666Y-103472247D01*
X64362666Y-103472247D02*
X64267428Y-103424628D01*
X64267428Y-103424628D02*
X64076952Y-103377009D01*
X64076952Y-103377009D02*
X63981714Y-103329390D01*
X63981714Y-103329390D02*
X63934095Y-103281771D01*
X63934095Y-103281771D02*
X63886476Y-103186533D01*
X63886476Y-103186533D02*
X63886476Y-103091295D01*
X63886476Y-103091295D02*
X63934095Y-102996057D01*
X63934095Y-102996057D02*
X63981714Y-102948438D01*
X63981714Y-102948438D02*
X64076952Y-102900819D01*
X64076952Y-102900819D02*
X64315047Y-102900819D01*
X64315047Y-102900819D02*
X64457904Y-102948438D01*
X64791238Y-102900819D02*
X65029333Y-103900819D01*
X65029333Y-103900819D02*
X65219809Y-103186533D01*
X65219809Y-103186533D02*
X65410285Y-103900819D01*
X65410285Y-103900819D02*
X65648381Y-102900819D01*
X66553142Y-103900819D02*
X65981714Y-103900819D01*
X66267428Y-103900819D02*
X66267428Y-102900819D01*
X66267428Y-102900819D02*
X66172190Y-103043676D01*
X66172190Y-103043676D02*
X66076952Y-103138914D01*
X66076952Y-103138914D02*
X65981714Y-103186533D01*
X67172190Y-102900819D02*
X67267428Y-102900819D01*
X67267428Y-102900819D02*
X67362666Y-102948438D01*
X67362666Y-102948438D02*
X67410285Y-102996057D01*
X67410285Y-102996057D02*
X67457904Y-103091295D01*
X67457904Y-103091295D02*
X67505523Y-103281771D01*
X67505523Y-103281771D02*
X67505523Y-103519866D01*
X67505523Y-103519866D02*
X67457904Y-103710342D01*
X67457904Y-103710342D02*
X67410285Y-103805580D01*
X67410285Y-103805580D02*
X67362666Y-103853200D01*
X67362666Y-103853200D02*
X67267428Y-103900819D01*
X67267428Y-103900819D02*
X67172190Y-103900819D01*
X67172190Y-103900819D02*
X67076952Y-103853200D01*
X67076952Y-103853200D02*
X67029333Y-103805580D01*
X67029333Y-103805580D02*
X66981714Y-103710342D01*
X66981714Y-103710342D02*
X66934095Y-103519866D01*
X66934095Y-103519866D02*
X66934095Y-103281771D01*
X66934095Y-103281771D02*
X66981714Y-103091295D01*
X66981714Y-103091295D02*
X67029333Y-102996057D01*
X67029333Y-102996057D02*
X67076952Y-102948438D01*
X67076952Y-102948438D02*
X67172190Y-102900819D01*
X64362667Y-116299200D02*
X64505524Y-116346819D01*
X64505524Y-116346819D02*
X64743619Y-116346819D01*
X64743619Y-116346819D02*
X64838857Y-116299200D01*
X64838857Y-116299200D02*
X64886476Y-116251580D01*
X64886476Y-116251580D02*
X64934095Y-116156342D01*
X64934095Y-116156342D02*
X64934095Y-116061104D01*
X64934095Y-116061104D02*
X64886476Y-115965866D01*
X64886476Y-115965866D02*
X64838857Y-115918247D01*
X64838857Y-115918247D02*
X64743619Y-115870628D01*
X64743619Y-115870628D02*
X64553143Y-115823009D01*
X64553143Y-115823009D02*
X64457905Y-115775390D01*
X64457905Y-115775390D02*
X64410286Y-115727771D01*
X64410286Y-115727771D02*
X64362667Y-115632533D01*
X64362667Y-115632533D02*
X64362667Y-115537295D01*
X64362667Y-115537295D02*
X64410286Y-115442057D01*
X64410286Y-115442057D02*
X64457905Y-115394438D01*
X64457905Y-115394438D02*
X64553143Y-115346819D01*
X64553143Y-115346819D02*
X64791238Y-115346819D01*
X64791238Y-115346819D02*
X64934095Y-115394438D01*
X65267429Y-115346819D02*
X65505524Y-116346819D01*
X65505524Y-116346819D02*
X65696000Y-115632533D01*
X65696000Y-115632533D02*
X65886476Y-116346819D01*
X65886476Y-116346819D02*
X66124572Y-115346819D01*
X66553143Y-116346819D02*
X66743619Y-116346819D01*
X66743619Y-116346819D02*
X66838857Y-116299200D01*
X66838857Y-116299200D02*
X66886476Y-116251580D01*
X66886476Y-116251580D02*
X66981714Y-116108723D01*
X66981714Y-116108723D02*
X67029333Y-115918247D01*
X67029333Y-115918247D02*
X67029333Y-115537295D01*
X67029333Y-115537295D02*
X66981714Y-115442057D01*
X66981714Y-115442057D02*
X66934095Y-115394438D01*
X66934095Y-115394438D02*
X66838857Y-115346819D01*
X66838857Y-115346819D02*
X66648381Y-115346819D01*
X66648381Y-115346819D02*
X66553143Y-115394438D01*
X66553143Y-115394438D02*
X66505524Y-115442057D01*
X66505524Y-115442057D02*
X66457905Y-115537295D01*
X66457905Y-115537295D02*
X66457905Y-115775390D01*
X66457905Y-115775390D02*
X66505524Y-115870628D01*
X66505524Y-115870628D02*
X66553143Y-115918247D01*
X66553143Y-115918247D02*
X66648381Y-115965866D01*
X66648381Y-115965866D02*
X66838857Y-115965866D01*
X66838857Y-115965866D02*
X66934095Y-115918247D01*
X66934095Y-115918247D02*
X66981714Y-115870628D01*
X66981714Y-115870628D02*
X67029333Y-115775390D01*
X48359580Y-35416666D02*
X48407200Y-35464285D01*
X48407200Y-35464285D02*
X48454819Y-35607142D01*
X48454819Y-35607142D02*
X48454819Y-35702380D01*
X48454819Y-35702380D02*
X48407200Y-35845237D01*
X48407200Y-35845237D02*
X48311961Y-35940475D01*
X48311961Y-35940475D02*
X48216723Y-35988094D01*
X48216723Y-35988094D02*
X48026247Y-36035713D01*
X48026247Y-36035713D02*
X47883390Y-36035713D01*
X47883390Y-36035713D02*
X47692914Y-35988094D01*
X47692914Y-35988094D02*
X47597676Y-35940475D01*
X47597676Y-35940475D02*
X47502438Y-35845237D01*
X47502438Y-35845237D02*
X47454819Y-35702380D01*
X47454819Y-35702380D02*
X47454819Y-35607142D01*
X47454819Y-35607142D02*
X47502438Y-35464285D01*
X47502438Y-35464285D02*
X47550057Y-35416666D01*
X47454819Y-35083332D02*
X47454819Y-34464285D01*
X47454819Y-34464285D02*
X47835771Y-34797618D01*
X47835771Y-34797618D02*
X47835771Y-34654761D01*
X47835771Y-34654761D02*
X47883390Y-34559523D01*
X47883390Y-34559523D02*
X47931009Y-34511904D01*
X47931009Y-34511904D02*
X48026247Y-34464285D01*
X48026247Y-34464285D02*
X48264342Y-34464285D01*
X48264342Y-34464285D02*
X48359580Y-34511904D01*
X48359580Y-34511904D02*
X48407200Y-34559523D01*
X48407200Y-34559523D02*
X48454819Y-34654761D01*
X48454819Y-34654761D02*
X48454819Y-34940475D01*
X48454819Y-34940475D02*
X48407200Y-35035713D01*
X48407200Y-35035713D02*
X48359580Y-35083332D01*
X39470667Y-116299200D02*
X39613524Y-116346819D01*
X39613524Y-116346819D02*
X39851619Y-116346819D01*
X39851619Y-116346819D02*
X39946857Y-116299200D01*
X39946857Y-116299200D02*
X39994476Y-116251580D01*
X39994476Y-116251580D02*
X40042095Y-116156342D01*
X40042095Y-116156342D02*
X40042095Y-116061104D01*
X40042095Y-116061104D02*
X39994476Y-115965866D01*
X39994476Y-115965866D02*
X39946857Y-115918247D01*
X39946857Y-115918247D02*
X39851619Y-115870628D01*
X39851619Y-115870628D02*
X39661143Y-115823009D01*
X39661143Y-115823009D02*
X39565905Y-115775390D01*
X39565905Y-115775390D02*
X39518286Y-115727771D01*
X39518286Y-115727771D02*
X39470667Y-115632533D01*
X39470667Y-115632533D02*
X39470667Y-115537295D01*
X39470667Y-115537295D02*
X39518286Y-115442057D01*
X39518286Y-115442057D02*
X39565905Y-115394438D01*
X39565905Y-115394438D02*
X39661143Y-115346819D01*
X39661143Y-115346819D02*
X39899238Y-115346819D01*
X39899238Y-115346819D02*
X40042095Y-115394438D01*
X40375429Y-115346819D02*
X40613524Y-116346819D01*
X40613524Y-116346819D02*
X40804000Y-115632533D01*
X40804000Y-115632533D02*
X40994476Y-116346819D01*
X40994476Y-116346819D02*
X41232572Y-115346819D01*
X42089714Y-115346819D02*
X41613524Y-115346819D01*
X41613524Y-115346819D02*
X41565905Y-115823009D01*
X41565905Y-115823009D02*
X41613524Y-115775390D01*
X41613524Y-115775390D02*
X41708762Y-115727771D01*
X41708762Y-115727771D02*
X41946857Y-115727771D01*
X41946857Y-115727771D02*
X42042095Y-115775390D01*
X42042095Y-115775390D02*
X42089714Y-115823009D01*
X42089714Y-115823009D02*
X42137333Y-115918247D01*
X42137333Y-115918247D02*
X42137333Y-116156342D01*
X42137333Y-116156342D02*
X42089714Y-116251580D01*
X42089714Y-116251580D02*
X42042095Y-116299200D01*
X42042095Y-116299200D02*
X41946857Y-116346819D01*
X41946857Y-116346819D02*
X41708762Y-116346819D01*
X41708762Y-116346819D02*
X41613524Y-116299200D01*
X41613524Y-116299200D02*
X41565905Y-116251580D01*
X39666667Y-40657200D02*
X39809524Y-40704819D01*
X39809524Y-40704819D02*
X40047619Y-40704819D01*
X40047619Y-40704819D02*
X40142857Y-40657200D01*
X40142857Y-40657200D02*
X40190476Y-40609580D01*
X40190476Y-40609580D02*
X40238095Y-40514342D01*
X40238095Y-40514342D02*
X40238095Y-40419104D01*
X40238095Y-40419104D02*
X40190476Y-40323866D01*
X40190476Y-40323866D02*
X40142857Y-40276247D01*
X40142857Y-40276247D02*
X40047619Y-40228628D01*
X40047619Y-40228628D02*
X39857143Y-40181009D01*
X39857143Y-40181009D02*
X39761905Y-40133390D01*
X39761905Y-40133390D02*
X39714286Y-40085771D01*
X39714286Y-40085771D02*
X39666667Y-39990533D01*
X39666667Y-39990533D02*
X39666667Y-39895295D01*
X39666667Y-39895295D02*
X39714286Y-39800057D01*
X39714286Y-39800057D02*
X39761905Y-39752438D01*
X39761905Y-39752438D02*
X39857143Y-39704819D01*
X39857143Y-39704819D02*
X40095238Y-39704819D01*
X40095238Y-39704819D02*
X40238095Y-39752438D01*
X40571429Y-39704819D02*
X40809524Y-40704819D01*
X40809524Y-40704819D02*
X41000000Y-39990533D01*
X41000000Y-39990533D02*
X41190476Y-40704819D01*
X41190476Y-40704819D02*
X41428572Y-39704819D01*
X41761905Y-39800057D02*
X41809524Y-39752438D01*
X41809524Y-39752438D02*
X41904762Y-39704819D01*
X41904762Y-39704819D02*
X42142857Y-39704819D01*
X42142857Y-39704819D02*
X42238095Y-39752438D01*
X42238095Y-39752438D02*
X42285714Y-39800057D01*
X42285714Y-39800057D02*
X42333333Y-39895295D01*
X42333333Y-39895295D02*
X42333333Y-39990533D01*
X42333333Y-39990533D02*
X42285714Y-40133390D01*
X42285714Y-40133390D02*
X41714286Y-40704819D01*
X41714286Y-40704819D02*
X42333333Y-40704819D01*
X51916667Y-103853200D02*
X52059524Y-103900819D01*
X52059524Y-103900819D02*
X52297619Y-103900819D01*
X52297619Y-103900819D02*
X52392857Y-103853200D01*
X52392857Y-103853200D02*
X52440476Y-103805580D01*
X52440476Y-103805580D02*
X52488095Y-103710342D01*
X52488095Y-103710342D02*
X52488095Y-103615104D01*
X52488095Y-103615104D02*
X52440476Y-103519866D01*
X52440476Y-103519866D02*
X52392857Y-103472247D01*
X52392857Y-103472247D02*
X52297619Y-103424628D01*
X52297619Y-103424628D02*
X52107143Y-103377009D01*
X52107143Y-103377009D02*
X52011905Y-103329390D01*
X52011905Y-103329390D02*
X51964286Y-103281771D01*
X51964286Y-103281771D02*
X51916667Y-103186533D01*
X51916667Y-103186533D02*
X51916667Y-103091295D01*
X51916667Y-103091295D02*
X51964286Y-102996057D01*
X51964286Y-102996057D02*
X52011905Y-102948438D01*
X52011905Y-102948438D02*
X52107143Y-102900819D01*
X52107143Y-102900819D02*
X52345238Y-102900819D01*
X52345238Y-102900819D02*
X52488095Y-102948438D01*
X52821429Y-102900819D02*
X53059524Y-103900819D01*
X53059524Y-103900819D02*
X53250000Y-103186533D01*
X53250000Y-103186533D02*
X53440476Y-103900819D01*
X53440476Y-103900819D02*
X53678572Y-102900819D01*
X53964286Y-102900819D02*
X54630952Y-102900819D01*
X54630952Y-102900819D02*
X54202381Y-103900819D01*
X69258333Y-156954819D02*
X68925000Y-156478628D01*
X68686905Y-156954819D02*
X68686905Y-155954819D01*
X68686905Y-155954819D02*
X69067857Y-155954819D01*
X69067857Y-155954819D02*
X69163095Y-156002438D01*
X69163095Y-156002438D02*
X69210714Y-156050057D01*
X69210714Y-156050057D02*
X69258333Y-156145295D01*
X69258333Y-156145295D02*
X69258333Y-156288152D01*
X69258333Y-156288152D02*
X69210714Y-156383390D01*
X69210714Y-156383390D02*
X69163095Y-156431009D01*
X69163095Y-156431009D02*
X69067857Y-156478628D01*
X69067857Y-156478628D02*
X68686905Y-156478628D01*
X69734524Y-156954819D02*
X69925000Y-156954819D01*
X69925000Y-156954819D02*
X70020238Y-156907200D01*
X70020238Y-156907200D02*
X70067857Y-156859580D01*
X70067857Y-156859580D02*
X70163095Y-156716723D01*
X70163095Y-156716723D02*
X70210714Y-156526247D01*
X70210714Y-156526247D02*
X70210714Y-156145295D01*
X70210714Y-156145295D02*
X70163095Y-156050057D01*
X70163095Y-156050057D02*
X70115476Y-156002438D01*
X70115476Y-156002438D02*
X70020238Y-155954819D01*
X70020238Y-155954819D02*
X69829762Y-155954819D01*
X69829762Y-155954819D02*
X69734524Y-156002438D01*
X69734524Y-156002438D02*
X69686905Y-156050057D01*
X69686905Y-156050057D02*
X69639286Y-156145295D01*
X69639286Y-156145295D02*
X69639286Y-156383390D01*
X69639286Y-156383390D02*
X69686905Y-156478628D01*
X69686905Y-156478628D02*
X69734524Y-156526247D01*
X69734524Y-156526247D02*
X69829762Y-156573866D01*
X69829762Y-156573866D02*
X70020238Y-156573866D01*
X70020238Y-156573866D02*
X70115476Y-156526247D01*
X70115476Y-156526247D02*
X70163095Y-156478628D01*
X70163095Y-156478628D02*
X70210714Y-156383390D01*
X65261905Y-30704819D02*
X65261905Y-29704819D01*
X65261905Y-29704819D02*
X65500000Y-29704819D01*
X65500000Y-29704819D02*
X65642857Y-29752438D01*
X65642857Y-29752438D02*
X65738095Y-29847676D01*
X65738095Y-29847676D02*
X65785714Y-29942914D01*
X65785714Y-29942914D02*
X65833333Y-30133390D01*
X65833333Y-30133390D02*
X65833333Y-30276247D01*
X65833333Y-30276247D02*
X65785714Y-30466723D01*
X65785714Y-30466723D02*
X65738095Y-30561961D01*
X65738095Y-30561961D02*
X65642857Y-30657200D01*
X65642857Y-30657200D02*
X65500000Y-30704819D01*
X65500000Y-30704819D02*
X65261905Y-30704819D01*
X66785714Y-30704819D02*
X66214286Y-30704819D01*
X66500000Y-30704819D02*
X66500000Y-29704819D01*
X66500000Y-29704819D02*
X66404762Y-29847676D01*
X66404762Y-29847676D02*
X66309524Y-29942914D01*
X66309524Y-29942914D02*
X66214286Y-29990533D01*
X61607142Y-34565700D02*
X62292857Y-34565700D01*
X61949999Y-34908557D02*
X61949999Y-34222842D01*
X64157142Y-34565700D02*
X64842857Y-34565700D01*
X39413577Y-103879200D02*
X39556434Y-103926819D01*
X39556434Y-103926819D02*
X39794529Y-103926819D01*
X39794529Y-103926819D02*
X39889767Y-103879200D01*
X39889767Y-103879200D02*
X39937386Y-103831580D01*
X39937386Y-103831580D02*
X39985005Y-103736342D01*
X39985005Y-103736342D02*
X39985005Y-103641104D01*
X39985005Y-103641104D02*
X39937386Y-103545866D01*
X39937386Y-103545866D02*
X39889767Y-103498247D01*
X39889767Y-103498247D02*
X39794529Y-103450628D01*
X39794529Y-103450628D02*
X39604053Y-103403009D01*
X39604053Y-103403009D02*
X39508815Y-103355390D01*
X39508815Y-103355390D02*
X39461196Y-103307771D01*
X39461196Y-103307771D02*
X39413577Y-103212533D01*
X39413577Y-103212533D02*
X39413577Y-103117295D01*
X39413577Y-103117295D02*
X39461196Y-103022057D01*
X39461196Y-103022057D02*
X39508815Y-102974438D01*
X39508815Y-102974438D02*
X39604053Y-102926819D01*
X39604053Y-102926819D02*
X39842148Y-102926819D01*
X39842148Y-102926819D02*
X39985005Y-102974438D01*
X40318339Y-102926819D02*
X40556434Y-103926819D01*
X40556434Y-103926819D02*
X40746910Y-103212533D01*
X40746910Y-103212533D02*
X40937386Y-103926819D01*
X40937386Y-103926819D02*
X41175482Y-102926819D01*
X41985005Y-103260152D02*
X41985005Y-103926819D01*
X41746910Y-102879200D02*
X41508815Y-103593485D01*
X41508815Y-103593485D02*
X42127862Y-103593485D01*
X68049693Y-83593517D02*
X67342587Y-82886410D01*
X67342587Y-82886410D02*
X67510945Y-82718051D01*
X67510945Y-82718051D02*
X67645632Y-82650708D01*
X67645632Y-82650708D02*
X67780319Y-82650708D01*
X67780319Y-82650708D02*
X67881335Y-82684380D01*
X67881335Y-82684380D02*
X68049693Y-82785395D01*
X68049693Y-82785395D02*
X68150709Y-82886410D01*
X68150709Y-82886410D02*
X68251724Y-83054769D01*
X68251724Y-83054769D02*
X68285396Y-83155784D01*
X68285396Y-83155784D02*
X68285396Y-83290471D01*
X68285396Y-83290471D02*
X68218052Y-83425158D01*
X68218052Y-83425158D02*
X68049693Y-83593517D01*
X68386411Y-81842586D02*
X68049693Y-82179303D01*
X68049693Y-82179303D02*
X68352739Y-82549693D01*
X68352739Y-82549693D02*
X68352739Y-82482349D01*
X68352739Y-82482349D02*
X68386411Y-82381334D01*
X68386411Y-82381334D02*
X68554770Y-82212975D01*
X68554770Y-82212975D02*
X68655785Y-82179303D01*
X68655785Y-82179303D02*
X68723128Y-82179303D01*
X68723128Y-82179303D02*
X68824144Y-82212975D01*
X68824144Y-82212975D02*
X68992502Y-82381334D01*
X68992502Y-82381334D02*
X69026174Y-82482349D01*
X69026174Y-82482349D02*
X69026174Y-82549693D01*
X69026174Y-82549693D02*
X68992502Y-82650708D01*
X68992502Y-82650708D02*
X68824144Y-82819067D01*
X68824144Y-82819067D02*
X68723128Y-82852738D01*
X68723128Y-82852738D02*
X68655785Y-82852738D01*
X64416667Y-40657200D02*
X64559524Y-40704819D01*
X64559524Y-40704819D02*
X64797619Y-40704819D01*
X64797619Y-40704819D02*
X64892857Y-40657200D01*
X64892857Y-40657200D02*
X64940476Y-40609580D01*
X64940476Y-40609580D02*
X64988095Y-40514342D01*
X64988095Y-40514342D02*
X64988095Y-40419104D01*
X64988095Y-40419104D02*
X64940476Y-40323866D01*
X64940476Y-40323866D02*
X64892857Y-40276247D01*
X64892857Y-40276247D02*
X64797619Y-40228628D01*
X64797619Y-40228628D02*
X64607143Y-40181009D01*
X64607143Y-40181009D02*
X64511905Y-40133390D01*
X64511905Y-40133390D02*
X64464286Y-40085771D01*
X64464286Y-40085771D02*
X64416667Y-39990533D01*
X64416667Y-39990533D02*
X64416667Y-39895295D01*
X64416667Y-39895295D02*
X64464286Y-39800057D01*
X64464286Y-39800057D02*
X64511905Y-39752438D01*
X64511905Y-39752438D02*
X64607143Y-39704819D01*
X64607143Y-39704819D02*
X64845238Y-39704819D01*
X64845238Y-39704819D02*
X64988095Y-39752438D01*
X65321429Y-39704819D02*
X65559524Y-40704819D01*
X65559524Y-40704819D02*
X65750000Y-39990533D01*
X65750000Y-39990533D02*
X65940476Y-40704819D01*
X65940476Y-40704819D02*
X66178572Y-39704819D01*
X67083333Y-40704819D02*
X66511905Y-40704819D01*
X66797619Y-40704819D02*
X66797619Y-39704819D01*
X66797619Y-39704819D02*
X66702381Y-39847676D01*
X66702381Y-39847676D02*
X66607143Y-39942914D01*
X66607143Y-39942914D02*
X66511905Y-39990533D01*
X63886476Y-91407200D02*
X64029333Y-91454819D01*
X64029333Y-91454819D02*
X64267428Y-91454819D01*
X64267428Y-91454819D02*
X64362666Y-91407200D01*
X64362666Y-91407200D02*
X64410285Y-91359580D01*
X64410285Y-91359580D02*
X64457904Y-91264342D01*
X64457904Y-91264342D02*
X64457904Y-91169104D01*
X64457904Y-91169104D02*
X64410285Y-91073866D01*
X64410285Y-91073866D02*
X64362666Y-91026247D01*
X64362666Y-91026247D02*
X64267428Y-90978628D01*
X64267428Y-90978628D02*
X64076952Y-90931009D01*
X64076952Y-90931009D02*
X63981714Y-90883390D01*
X63981714Y-90883390D02*
X63934095Y-90835771D01*
X63934095Y-90835771D02*
X63886476Y-90740533D01*
X63886476Y-90740533D02*
X63886476Y-90645295D01*
X63886476Y-90645295D02*
X63934095Y-90550057D01*
X63934095Y-90550057D02*
X63981714Y-90502438D01*
X63981714Y-90502438D02*
X64076952Y-90454819D01*
X64076952Y-90454819D02*
X64315047Y-90454819D01*
X64315047Y-90454819D02*
X64457904Y-90502438D01*
X64791238Y-90454819D02*
X65029333Y-91454819D01*
X65029333Y-91454819D02*
X65219809Y-90740533D01*
X65219809Y-90740533D02*
X65410285Y-91454819D01*
X65410285Y-91454819D02*
X65648381Y-90454819D01*
X66553142Y-91454819D02*
X65981714Y-91454819D01*
X66267428Y-91454819D02*
X66267428Y-90454819D01*
X66267428Y-90454819D02*
X66172190Y-90597676D01*
X66172190Y-90597676D02*
X66076952Y-90692914D01*
X66076952Y-90692914D02*
X65981714Y-90740533D01*
X67505523Y-91454819D02*
X66934095Y-91454819D01*
X67219809Y-91454819D02*
X67219809Y-90454819D01*
X67219809Y-90454819D02*
X67124571Y-90597676D01*
X67124571Y-90597676D02*
X67029333Y-90692914D01*
X67029333Y-90692914D02*
X66934095Y-90740533D01*
X52522095Y-125068819D02*
X52522095Y-125878342D01*
X52522095Y-125878342D02*
X52569714Y-125973580D01*
X52569714Y-125973580D02*
X52617333Y-126021200D01*
X52617333Y-126021200D02*
X52712571Y-126068819D01*
X52712571Y-126068819D02*
X52903047Y-126068819D01*
X52903047Y-126068819D02*
X52998285Y-126021200D01*
X52998285Y-126021200D02*
X53045904Y-125973580D01*
X53045904Y-125973580D02*
X53093523Y-125878342D01*
X53093523Y-125878342D02*
X53093523Y-125068819D01*
X53474476Y-125068819D02*
X54093523Y-125068819D01*
X54093523Y-125068819D02*
X53760190Y-125449771D01*
X53760190Y-125449771D02*
X53903047Y-125449771D01*
X53903047Y-125449771D02*
X53998285Y-125497390D01*
X53998285Y-125497390D02*
X54045904Y-125545009D01*
X54045904Y-125545009D02*
X54093523Y-125640247D01*
X54093523Y-125640247D02*
X54093523Y-125878342D01*
X54093523Y-125878342D02*
X54045904Y-125973580D01*
X54045904Y-125973580D02*
X53998285Y-126021200D01*
X53998285Y-126021200D02*
X53903047Y-126068819D01*
X53903047Y-126068819D02*
X53617333Y-126068819D01*
X53617333Y-126068819D02*
X53522095Y-126021200D01*
X53522095Y-126021200D02*
X53474476Y-125973580D01*
X37406482Y-82799693D02*
X38113589Y-82092587D01*
X38113589Y-82092587D02*
X38281948Y-82260945D01*
X38281948Y-82260945D02*
X38349291Y-82395632D01*
X38349291Y-82395632D02*
X38349291Y-82530319D01*
X38349291Y-82530319D02*
X38315619Y-82631335D01*
X38315619Y-82631335D02*
X38214604Y-82799693D01*
X38214604Y-82799693D02*
X38113589Y-82900709D01*
X38113589Y-82900709D02*
X37945230Y-83001724D01*
X37945230Y-83001724D02*
X37844215Y-83035396D01*
X37844215Y-83035396D02*
X37709528Y-83035396D01*
X37709528Y-83035396D02*
X37574841Y-82968052D01*
X37574841Y-82968052D02*
X37406482Y-82799693D01*
X38719680Y-82833365D02*
X38787024Y-82833365D01*
X38787024Y-82833365D02*
X38888039Y-82867037D01*
X38888039Y-82867037D02*
X39056398Y-83035396D01*
X39056398Y-83035396D02*
X39090070Y-83136411D01*
X39090070Y-83136411D02*
X39090070Y-83203754D01*
X39090070Y-83203754D02*
X39056398Y-83304770D01*
X39056398Y-83304770D02*
X38989054Y-83372113D01*
X38989054Y-83372113D02*
X38854367Y-83439457D01*
X38854367Y-83439457D02*
X38046245Y-83439457D01*
X38046245Y-83439457D02*
X38483978Y-83877189D01*
X68112819Y-38591666D02*
X67636628Y-38924999D01*
X68112819Y-39163094D02*
X67112819Y-39163094D01*
X67112819Y-39163094D02*
X67112819Y-38782142D01*
X67112819Y-38782142D02*
X67160438Y-38686904D01*
X67160438Y-38686904D02*
X67208057Y-38639285D01*
X67208057Y-38639285D02*
X67303295Y-38591666D01*
X67303295Y-38591666D02*
X67446152Y-38591666D01*
X67446152Y-38591666D02*
X67541390Y-38639285D01*
X67541390Y-38639285D02*
X67589009Y-38686904D01*
X67589009Y-38686904D02*
X67636628Y-38782142D01*
X67636628Y-38782142D02*
X67636628Y-39163094D01*
X68112819Y-37639285D02*
X68112819Y-38210713D01*
X68112819Y-37924999D02*
X67112819Y-37924999D01*
X67112819Y-37924999D02*
X67255676Y-38020237D01*
X67255676Y-38020237D02*
X67350914Y-38115475D01*
X67350914Y-38115475D02*
X67398533Y-38210713D01*
X51916667Y-116299200D02*
X52059524Y-116346819D01*
X52059524Y-116346819D02*
X52297619Y-116346819D01*
X52297619Y-116346819D02*
X52392857Y-116299200D01*
X52392857Y-116299200D02*
X52440476Y-116251580D01*
X52440476Y-116251580D02*
X52488095Y-116156342D01*
X52488095Y-116156342D02*
X52488095Y-116061104D01*
X52488095Y-116061104D02*
X52440476Y-115965866D01*
X52440476Y-115965866D02*
X52392857Y-115918247D01*
X52392857Y-115918247D02*
X52297619Y-115870628D01*
X52297619Y-115870628D02*
X52107143Y-115823009D01*
X52107143Y-115823009D02*
X52011905Y-115775390D01*
X52011905Y-115775390D02*
X51964286Y-115727771D01*
X51964286Y-115727771D02*
X51916667Y-115632533D01*
X51916667Y-115632533D02*
X51916667Y-115537295D01*
X51916667Y-115537295D02*
X51964286Y-115442057D01*
X51964286Y-115442057D02*
X52011905Y-115394438D01*
X52011905Y-115394438D02*
X52107143Y-115346819D01*
X52107143Y-115346819D02*
X52345238Y-115346819D01*
X52345238Y-115346819D02*
X52488095Y-115394438D01*
X52821429Y-115346819D02*
X53059524Y-116346819D01*
X53059524Y-116346819D02*
X53250000Y-115632533D01*
X53250000Y-115632533D02*
X53440476Y-116346819D01*
X53440476Y-116346819D02*
X53678572Y-115346819D01*
X54202381Y-115775390D02*
X54107143Y-115727771D01*
X54107143Y-115727771D02*
X54059524Y-115680152D01*
X54059524Y-115680152D02*
X54011905Y-115584914D01*
X54011905Y-115584914D02*
X54011905Y-115537295D01*
X54011905Y-115537295D02*
X54059524Y-115442057D01*
X54059524Y-115442057D02*
X54107143Y-115394438D01*
X54107143Y-115394438D02*
X54202381Y-115346819D01*
X54202381Y-115346819D02*
X54392857Y-115346819D01*
X54392857Y-115346819D02*
X54488095Y-115394438D01*
X54488095Y-115394438D02*
X54535714Y-115442057D01*
X54535714Y-115442057D02*
X54583333Y-115537295D01*
X54583333Y-115537295D02*
X54583333Y-115584914D01*
X54583333Y-115584914D02*
X54535714Y-115680152D01*
X54535714Y-115680152D02*
X54488095Y-115727771D01*
X54488095Y-115727771D02*
X54392857Y-115775390D01*
X54392857Y-115775390D02*
X54202381Y-115775390D01*
X54202381Y-115775390D02*
X54107143Y-115823009D01*
X54107143Y-115823009D02*
X54059524Y-115870628D01*
X54059524Y-115870628D02*
X54011905Y-115965866D01*
X54011905Y-115965866D02*
X54011905Y-116156342D01*
X54011905Y-116156342D02*
X54059524Y-116251580D01*
X54059524Y-116251580D02*
X54107143Y-116299200D01*
X54107143Y-116299200D02*
X54202381Y-116346819D01*
X54202381Y-116346819D02*
X54392857Y-116346819D01*
X54392857Y-116346819D02*
X54488095Y-116299200D01*
X54488095Y-116299200D02*
X54535714Y-116251580D01*
X54535714Y-116251580D02*
X54583333Y-116156342D01*
X54583333Y-116156342D02*
X54583333Y-115965866D01*
X54583333Y-115965866D02*
X54535714Y-115870628D01*
X54535714Y-115870628D02*
X54488095Y-115823009D01*
X54488095Y-115823009D02*
X54392857Y-115775390D01*
X61884819Y-123241666D02*
X61408628Y-123574999D01*
X61884819Y-123813094D02*
X60884819Y-123813094D01*
X60884819Y-123813094D02*
X60884819Y-123432142D01*
X60884819Y-123432142D02*
X60932438Y-123336904D01*
X60932438Y-123336904D02*
X60980057Y-123289285D01*
X60980057Y-123289285D02*
X61075295Y-123241666D01*
X61075295Y-123241666D02*
X61218152Y-123241666D01*
X61218152Y-123241666D02*
X61313390Y-123289285D01*
X61313390Y-123289285D02*
X61361009Y-123336904D01*
X61361009Y-123336904D02*
X61408628Y-123432142D01*
X61408628Y-123432142D02*
X61408628Y-123813094D01*
X60884819Y-122336904D02*
X60884819Y-122813094D01*
X60884819Y-122813094D02*
X61361009Y-122860713D01*
X61361009Y-122860713D02*
X61313390Y-122813094D01*
X61313390Y-122813094D02*
X61265771Y-122717856D01*
X61265771Y-122717856D02*
X61265771Y-122479761D01*
X61265771Y-122479761D02*
X61313390Y-122384523D01*
X61313390Y-122384523D02*
X61361009Y-122336904D01*
X61361009Y-122336904D02*
X61456247Y-122289285D01*
X61456247Y-122289285D02*
X61694342Y-122289285D01*
X61694342Y-122289285D02*
X61789580Y-122336904D01*
X61789580Y-122336904D02*
X61837200Y-122384523D01*
X61837200Y-122384523D02*
X61884819Y-122479761D01*
X61884819Y-122479761D02*
X61884819Y-122717856D01*
X61884819Y-122717856D02*
X61837200Y-122813094D01*
X61837200Y-122813094D02*
X61789580Y-122860713D01*
D13*
X49571428Y-88367219D02*
X50238095Y-88367219D01*
X50523809Y-89414838D02*
X49571428Y-89414838D01*
X49571428Y-89414838D02*
X49571428Y-87414838D01*
X49571428Y-87414838D02*
X50523809Y-87414838D01*
X51380952Y-89414838D02*
X51380952Y-87414838D01*
X51380952Y-87414838D02*
X52523809Y-89414838D01*
X52523809Y-89414838D02*
X52523809Y-87414838D01*
X54619047Y-89224361D02*
X54523809Y-89319600D01*
X54523809Y-89319600D02*
X54238095Y-89414838D01*
X54238095Y-89414838D02*
X54047619Y-89414838D01*
X54047619Y-89414838D02*
X53761904Y-89319600D01*
X53761904Y-89319600D02*
X53571428Y-89129123D01*
X53571428Y-89129123D02*
X53476190Y-88938647D01*
X53476190Y-88938647D02*
X53380952Y-88557695D01*
X53380952Y-88557695D02*
X53380952Y-88271980D01*
X53380952Y-88271980D02*
X53476190Y-87891028D01*
X53476190Y-87891028D02*
X53571428Y-87700552D01*
X53571428Y-87700552D02*
X53761904Y-87510076D01*
X53761904Y-87510076D02*
X54047619Y-87414838D01*
X54047619Y-87414838D02*
X54238095Y-87414838D01*
X54238095Y-87414838D02*
X54523809Y-87510076D01*
X54523809Y-87510076D02*
X54619047Y-87605314D01*
X56523809Y-89414838D02*
X55380952Y-89414838D01*
X55952380Y-89414838D02*
X55952380Y-87414838D01*
X55952380Y-87414838D02*
X55761904Y-87700552D01*
X55761904Y-87700552D02*
X55571428Y-87891028D01*
X55571428Y-87891028D02*
X55380952Y-87986266D01*
D11*
X51916667Y-91407200D02*
X52059524Y-91454819D01*
X52059524Y-91454819D02*
X52297619Y-91454819D01*
X52297619Y-91454819D02*
X52392857Y-91407200D01*
X52392857Y-91407200D02*
X52440476Y-91359580D01*
X52440476Y-91359580D02*
X52488095Y-91264342D01*
X52488095Y-91264342D02*
X52488095Y-91169104D01*
X52488095Y-91169104D02*
X52440476Y-91073866D01*
X52440476Y-91073866D02*
X52392857Y-91026247D01*
X52392857Y-91026247D02*
X52297619Y-90978628D01*
X52297619Y-90978628D02*
X52107143Y-90931009D01*
X52107143Y-90931009D02*
X52011905Y-90883390D01*
X52011905Y-90883390D02*
X51964286Y-90835771D01*
X51964286Y-90835771D02*
X51916667Y-90740533D01*
X51916667Y-90740533D02*
X51916667Y-90645295D01*
X51916667Y-90645295D02*
X51964286Y-90550057D01*
X51964286Y-90550057D02*
X52011905Y-90502438D01*
X52011905Y-90502438D02*
X52107143Y-90454819D01*
X52107143Y-90454819D02*
X52345238Y-90454819D01*
X52345238Y-90454819D02*
X52488095Y-90502438D01*
X52821429Y-90454819D02*
X53059524Y-91454819D01*
X53059524Y-91454819D02*
X53250000Y-90740533D01*
X53250000Y-90740533D02*
X53440476Y-91454819D01*
X53440476Y-91454819D02*
X53678572Y-90454819D01*
X54488095Y-90454819D02*
X54297619Y-90454819D01*
X54297619Y-90454819D02*
X54202381Y-90502438D01*
X54202381Y-90502438D02*
X54154762Y-90550057D01*
X54154762Y-90550057D02*
X54059524Y-90692914D01*
X54059524Y-90692914D02*
X54011905Y-90883390D01*
X54011905Y-90883390D02*
X54011905Y-91264342D01*
X54011905Y-91264342D02*
X54059524Y-91359580D01*
X54059524Y-91359580D02*
X54107143Y-91407200D01*
X54107143Y-91407200D02*
X54202381Y-91454819D01*
X54202381Y-91454819D02*
X54392857Y-91454819D01*
X54392857Y-91454819D02*
X54488095Y-91407200D01*
X54488095Y-91407200D02*
X54535714Y-91359580D01*
X54535714Y-91359580D02*
X54583333Y-91264342D01*
X54583333Y-91264342D02*
X54583333Y-91026247D01*
X54583333Y-91026247D02*
X54535714Y-90931009D01*
X54535714Y-90931009D02*
X54488095Y-90883390D01*
X54488095Y-90883390D02*
X54392857Y-90835771D01*
X54392857Y-90835771D02*
X54202381Y-90835771D01*
X54202381Y-90835771D02*
X54107143Y-90883390D01*
X54107143Y-90883390D02*
X54059524Y-90931009D01*
X54059524Y-90931009D02*
X54011905Y-91026247D01*
X40150057Y-84532738D02*
X40102438Y-84627976D01*
X40102438Y-84627976D02*
X40007200Y-84723214D01*
X40007200Y-84723214D02*
X39864342Y-84866071D01*
X39864342Y-84866071D02*
X39816723Y-84961309D01*
X39816723Y-84961309D02*
X39816723Y-85056547D01*
X40054819Y-85008928D02*
X40007200Y-85104166D01*
X40007200Y-85104166D02*
X39911961Y-85199404D01*
X39911961Y-85199404D02*
X39721485Y-85247023D01*
X39721485Y-85247023D02*
X39388152Y-85247023D01*
X39388152Y-85247023D02*
X39197676Y-85199404D01*
X39197676Y-85199404D02*
X39102438Y-85104166D01*
X39102438Y-85104166D02*
X39054819Y-85008928D01*
X39054819Y-85008928D02*
X39054819Y-84818452D01*
X39054819Y-84818452D02*
X39102438Y-84723214D01*
X39102438Y-84723214D02*
X39197676Y-84627976D01*
X39197676Y-84627976D02*
X39388152Y-84580357D01*
X39388152Y-84580357D02*
X39721485Y-84580357D01*
X39721485Y-84580357D02*
X39911961Y-84627976D01*
X39911961Y-84627976D02*
X40007200Y-84723214D01*
X40007200Y-84723214D02*
X40054819Y-84818452D01*
X40054819Y-84818452D02*
X40054819Y-85008928D01*
X39150057Y-84199404D02*
X39102438Y-84151785D01*
X39102438Y-84151785D02*
X39054819Y-84056547D01*
X39054819Y-84056547D02*
X39054819Y-83818452D01*
X39054819Y-83818452D02*
X39102438Y-83723214D01*
X39102438Y-83723214D02*
X39150057Y-83675595D01*
X39150057Y-83675595D02*
X39245295Y-83627976D01*
X39245295Y-83627976D02*
X39340533Y-83627976D01*
X39340533Y-83627976D02*
X39483390Y-83675595D01*
X39483390Y-83675595D02*
X40054819Y-84247023D01*
X40054819Y-84247023D02*
X40054819Y-83627976D01*
X39470667Y-91407200D02*
X39613524Y-91454819D01*
X39613524Y-91454819D02*
X39851619Y-91454819D01*
X39851619Y-91454819D02*
X39946857Y-91407200D01*
X39946857Y-91407200D02*
X39994476Y-91359580D01*
X39994476Y-91359580D02*
X40042095Y-91264342D01*
X40042095Y-91264342D02*
X40042095Y-91169104D01*
X40042095Y-91169104D02*
X39994476Y-91073866D01*
X39994476Y-91073866D02*
X39946857Y-91026247D01*
X39946857Y-91026247D02*
X39851619Y-90978628D01*
X39851619Y-90978628D02*
X39661143Y-90931009D01*
X39661143Y-90931009D02*
X39565905Y-90883390D01*
X39565905Y-90883390D02*
X39518286Y-90835771D01*
X39518286Y-90835771D02*
X39470667Y-90740533D01*
X39470667Y-90740533D02*
X39470667Y-90645295D01*
X39470667Y-90645295D02*
X39518286Y-90550057D01*
X39518286Y-90550057D02*
X39565905Y-90502438D01*
X39565905Y-90502438D02*
X39661143Y-90454819D01*
X39661143Y-90454819D02*
X39899238Y-90454819D01*
X39899238Y-90454819D02*
X40042095Y-90502438D01*
X40375429Y-90454819D02*
X40613524Y-91454819D01*
X40613524Y-91454819D02*
X40804000Y-90740533D01*
X40804000Y-90740533D02*
X40994476Y-91454819D01*
X40994476Y-91454819D02*
X41232572Y-90454819D01*
X41518286Y-90454819D02*
X42137333Y-90454819D01*
X42137333Y-90454819D02*
X41804000Y-90835771D01*
X41804000Y-90835771D02*
X41946857Y-90835771D01*
X41946857Y-90835771D02*
X42042095Y-90883390D01*
X42042095Y-90883390D02*
X42089714Y-90931009D01*
X42089714Y-90931009D02*
X42137333Y-91026247D01*
X42137333Y-91026247D02*
X42137333Y-91264342D01*
X42137333Y-91264342D02*
X42089714Y-91359580D01*
X42089714Y-91359580D02*
X42042095Y-91407200D01*
X42042095Y-91407200D02*
X41946857Y-91454819D01*
X41946857Y-91454819D02*
X41661143Y-91454819D01*
X41661143Y-91454819D02*
X41565905Y-91407200D01*
X41565905Y-91407200D02*
X41518286Y-91359580D01*
X38134038Y-53509056D02*
X37426932Y-52801949D01*
X37426932Y-52801949D02*
X37595290Y-52633590D01*
X37595290Y-52633590D02*
X37729977Y-52566247D01*
X37729977Y-52566247D02*
X37864664Y-52566247D01*
X37864664Y-52566247D02*
X37965680Y-52599919D01*
X37965680Y-52599919D02*
X38134038Y-52700934D01*
X38134038Y-52700934D02*
X38235054Y-52801949D01*
X38235054Y-52801949D02*
X38336069Y-52970308D01*
X38336069Y-52970308D02*
X38369741Y-53071323D01*
X38369741Y-53071323D02*
X38369741Y-53206010D01*
X38369741Y-53206010D02*
X38302397Y-53340697D01*
X38302397Y-53340697D02*
X38134038Y-53509056D01*
X38066695Y-52162186D02*
X38504428Y-51724453D01*
X38504428Y-51724453D02*
X38538099Y-52229529D01*
X38538099Y-52229529D02*
X38639115Y-52128514D01*
X38639115Y-52128514D02*
X38740130Y-52094842D01*
X38740130Y-52094842D02*
X38807473Y-52094842D01*
X38807473Y-52094842D02*
X38908489Y-52128514D01*
X38908489Y-52128514D02*
X39076847Y-52296873D01*
X39076847Y-52296873D02*
X39110519Y-52397888D01*
X39110519Y-52397888D02*
X39110519Y-52465232D01*
X39110519Y-52465232D02*
X39076847Y-52566247D01*
X39076847Y-52566247D02*
X38874817Y-52768277D01*
X38874817Y-52768277D02*
X38773802Y-52801949D01*
X38773802Y-52801949D02*
X38706458Y-52801949D01*
%TO.C,R4*%
D16*
X58477500Y-119512742D02*
X58477500Y-119987258D01*
X59522500Y-119512742D02*
X59522500Y-119987258D01*
%TO.C,C1*%
X56261252Y-124265000D02*
X55738748Y-124265000D01*
X56261252Y-125735000D02*
X55738748Y-125735000D01*
%TO.C,D4*%
X65037433Y-54175589D02*
X66734489Y-52478533D01*
X66663779Y-55801935D02*
X65037433Y-54175589D01*
X66663779Y-55801935D02*
X67088043Y-55801935D01*
X68572967Y-54317011D02*
X66734489Y-52478533D01*
X68572967Y-54317011D02*
X67088043Y-55801935D01*
%TO.C,U1*%
D19*
X47220000Y-139107000D02*
X47220000Y-156252000D01*
X49125000Y-158157000D02*
X63095000Y-158157000D01*
D20*
X51606000Y-159167000D02*
X51606000Y-158157000D01*
X60101272Y-159667000D02*
X52106000Y-159667000D01*
X60605000Y-158157000D02*
X60601272Y-159167272D01*
D19*
X63095000Y-137202000D02*
X49125000Y-137202000D01*
X65000000Y-139107000D02*
X65000000Y-156252000D01*
X47220000Y-139107000D02*
G75*
G02*
X49125000Y-137202000I1905000J0D01*
G01*
X49125000Y-158157000D02*
G75*
G02*
X47220000Y-156252000I0J1905000D01*
G01*
D20*
X52106000Y-159667000D02*
G75*
G02*
X51606000Y-159167000I0J500000D01*
G01*
X60601272Y-159167272D02*
G75*
G02*
X60101272Y-159667002I-500022J292D01*
G01*
D19*
X63095000Y-137202000D02*
G75*
G02*
X65000000Y-139107000I0J-1905000D01*
G01*
X65000000Y-156256000D02*
G75*
G02*
X63095000Y-158161000I-1905001J1D01*
G01*
D21*
X64188000Y-157024000D02*
G75*
G02*
X63684000Y-157024000I-252000J0D01*
G01*
X63684000Y-157024000D02*
G75*
G02*
X64188000Y-157024000I252000J0D01*
G01*
X65462000Y-157741000D02*
G75*
G02*
X64958000Y-157741000I-252000J0D01*
G01*
X64958000Y-157741000D02*
G75*
G02*
X65462000Y-157741000I252000J0D01*
G01*
%TO.C,Q1*%
D16*
X67490000Y-33802500D02*
X68490000Y-33802500D01*
X67490000Y-35322500D02*
X67490000Y-33802500D01*
X67540000Y-35322500D02*
X67490000Y-35322500D01*
X69440000Y-35322500D02*
X68660000Y-35322500D01*
X69610000Y-33802500D02*
X70610000Y-33802500D01*
X70610000Y-33802500D02*
X70610000Y-35322500D01*
X70610000Y-35322500D02*
X70560000Y-35322500D01*
X68670000Y-35862500D02*
X69000000Y-35622500D01*
X69000000Y-36102500D01*
X68670000Y-35862500D01*
G36*
X69000000Y-36102500D02*
G01*
X68670000Y-35862500D01*
X69000000Y-35622500D01*
X69000000Y-36102500D01*
G37*
%TO.C,SW10*%
D20*
X63536000Y-108743000D02*
X63536000Y-105633000D01*
X64906000Y-104938000D02*
X66666000Y-104938000D01*
X64906000Y-109438000D02*
X66666000Y-109438000D01*
X68036000Y-108743000D02*
X68036000Y-105633000D01*
D13*
X64136000Y-110414000D02*
G75*
G02*
X63936000Y-110414000I-100000J0D01*
G01*
X63936000Y-110414000D02*
G75*
G02*
X64136000Y-110414000I100000J0D01*
G01*
%TO.C,SW9*%
D20*
X63536000Y-121189000D02*
X63536000Y-118079000D01*
X64906000Y-117384000D02*
X66666000Y-117384000D01*
X64906000Y-121884000D02*
X66666000Y-121884000D01*
X68036000Y-121189000D02*
X68036000Y-118079000D01*
D13*
X64136000Y-122860000D02*
G75*
G02*
X63936000Y-122860000I-100000J0D01*
G01*
X63936000Y-122860000D02*
G75*
G02*
X64136000Y-122860000I100000J0D01*
G01*
%TO.C,TP_VCC1*%
D16*
X47250000Y-154550000D02*
X48650000Y-154550000D01*
X48650000Y-155950000D01*
X47250000Y-155950000D01*
X47250000Y-154550000D01*
%TO.C,C3*%
X45740000Y-34384420D02*
X45740000Y-34665580D01*
X46760000Y-34384420D02*
X46760000Y-34665580D01*
%TO.C,SW5*%
D20*
X38644000Y-121189000D02*
X38644000Y-118079000D01*
X40014000Y-117384000D02*
X41774000Y-117384000D01*
X40014000Y-121884000D02*
X41774000Y-121884000D01*
X43144000Y-121189000D02*
X43144000Y-118079000D01*
D13*
X39244000Y-122860000D02*
G75*
G02*
X39044000Y-122860000I-100000J0D01*
G01*
X39044000Y-122860000D02*
G75*
G02*
X39244000Y-122860000I100000J0D01*
G01*
%TO.C,SW2*%
D20*
X38644000Y-42870000D02*
X38644000Y-44630000D01*
X39339000Y-41500000D02*
X42449000Y-41500000D01*
X39339000Y-46000000D02*
X42449000Y-46000000D01*
X43144000Y-42870000D02*
X43144000Y-44630000D01*
D13*
X37768000Y-42000000D02*
G75*
G02*
X37568000Y-42000000I-100000J0D01*
G01*
X37568000Y-42000000D02*
G75*
G02*
X37768000Y-42000000I100000J0D01*
G01*
%TO.C,SW7*%
D20*
X51090000Y-108743000D02*
X51090000Y-105633000D01*
X52460000Y-104938000D02*
X54220000Y-104938000D01*
X52460000Y-109438000D02*
X54220000Y-109438000D01*
X55590000Y-108743000D02*
X55590000Y-105633000D01*
D13*
X51690000Y-110414000D02*
G75*
G02*
X51490000Y-110414000I-100000J0D01*
G01*
X51490000Y-110414000D02*
G75*
G02*
X51690000Y-110414000I100000J0D01*
G01*
%TO.C,R9*%
D16*
X69662258Y-154477500D02*
X69187742Y-154477500D01*
X69662258Y-155522500D02*
X69187742Y-155522500D01*
%TO.C,D1*%
X61670000Y-31540000D02*
X61670000Y-29350000D01*
X64790000Y-31540000D02*
X61670000Y-31540000D01*
X64790000Y-31540000D02*
X64790000Y-29350000D01*
X61960000Y-31540000D02*
X61960000Y-31670000D01*
X61960000Y-31540000D01*
X64500000Y-31540000D02*
X64500000Y-31670000D01*
X64500000Y-31540000D01*
%TO.C,SW4*%
D20*
X38586910Y-108769000D02*
X38586910Y-105659000D01*
X39956910Y-104964000D02*
X41716910Y-104964000D01*
X39956910Y-109464000D02*
X41716910Y-109464000D01*
X43086910Y-108769000D02*
X43086910Y-105659000D01*
D13*
X39186910Y-110440000D02*
G75*
G02*
X38986910Y-110440000I-100000J0D01*
G01*
X38986910Y-110440000D02*
G75*
G02*
X39186910Y-110440000I100000J0D01*
G01*
%TO.C,D5*%
D16*
X65249565Y-81040379D02*
X65249565Y-81464643D01*
X65249565Y-81040379D02*
X66875911Y-79414033D01*
X66734489Y-82949567D02*
X65249565Y-81464643D01*
X66734489Y-82949567D02*
X68572967Y-81111089D01*
X66875911Y-79414033D02*
X68572967Y-81111089D01*
%TO.C,SW1*%
D20*
X63536000Y-42870000D02*
X63536000Y-44630000D01*
X64231000Y-41500000D02*
X67341000Y-41500000D01*
X64231000Y-46000000D02*
X67341000Y-46000000D01*
X68036000Y-42870000D02*
X68036000Y-44630000D01*
D13*
X62660000Y-42000000D02*
G75*
G02*
X62460000Y-42000000I-100000J0D01*
G01*
X62460000Y-42000000D02*
G75*
G02*
X62660000Y-42000000I100000J0D01*
G01*
%TO.C,SW11*%
D20*
X63536000Y-96297000D02*
X63536000Y-93187000D01*
X64906000Y-92492000D02*
X66666000Y-92492000D01*
X64906000Y-96992000D02*
X66666000Y-96992000D01*
X68036000Y-96297000D02*
X68036000Y-93187000D01*
D13*
X64136000Y-97968000D02*
G75*
G02*
X63936000Y-97968000I-100000J0D01*
G01*
X63936000Y-97968000D02*
G75*
G02*
X64136000Y-97968000I100000J0D01*
G01*
%TO.C,U3*%
D16*
X50524000Y-126454000D02*
X56044000Y-126454000D01*
X50524000Y-126629000D02*
X50524000Y-126454000D01*
X50524000Y-134874000D02*
X50524000Y-134699000D01*
X56044000Y-126454000D02*
X56044000Y-126629000D01*
X56044000Y-134699000D02*
X56044000Y-134874000D01*
X56044000Y-134874000D02*
X50524000Y-134874000D01*
X49784000Y-126624000D02*
X49444000Y-126154000D01*
X50124000Y-126154000D01*
X49784000Y-126624000D01*
G36*
X49784000Y-126624000D02*
G01*
X49444000Y-126154000D01*
X50124000Y-126154000D01*
X49784000Y-126624000D01*
G37*
%TO.C,D2*%
X38101933Y-81111089D02*
X39586857Y-79626165D01*
X38101933Y-81111089D02*
X39940411Y-82949567D01*
X40011121Y-79626165D02*
X39586857Y-79626165D01*
X40011121Y-79626165D02*
X41637467Y-81252511D01*
X41637467Y-81252511D02*
X39940411Y-82949567D01*
%TO.C,R1*%
X68565500Y-38662258D02*
X68565500Y-38187742D01*
X69610500Y-38662258D02*
X69610500Y-38187742D01*
%TO.C,SW8*%
D20*
X51090000Y-121189000D02*
X51090000Y-118079000D01*
X52460000Y-117384000D02*
X54220000Y-117384000D01*
X52460000Y-121884000D02*
X54220000Y-121884000D01*
X55590000Y-121189000D02*
X55590000Y-118079000D01*
D13*
X51690000Y-122860000D02*
G75*
G02*
X51490000Y-122860000I-100000J0D01*
G01*
X51490000Y-122860000D02*
G75*
G02*
X51690000Y-122860000I100000J0D01*
G01*
%TO.C,R5*%
D16*
X59477500Y-122837742D02*
X59477500Y-123312258D01*
X60522500Y-122837742D02*
X60522500Y-123312258D01*
%TO.C,ENC1*%
D17*
X70537455Y-67714045D02*
G75*
G02*
X36137455Y-67714045I-17200000J0D01*
G01*
X36137455Y-67714045D02*
G75*
G02*
X70537455Y-67714045I17200000J0D01*
G01*
%TO.C,SW6*%
D20*
X51090000Y-96297000D02*
X51090000Y-93187000D01*
X52460000Y-92492000D02*
X54220000Y-92492000D01*
X52460000Y-96992000D02*
X54220000Y-96992000D01*
X55590000Y-96297000D02*
X55590000Y-93187000D01*
D13*
X51690000Y-97968000D02*
G75*
G02*
X51490000Y-97968000I-100000J0D01*
G01*
X51490000Y-97968000D02*
G75*
G02*
X51690000Y-97968000I100000J0D01*
G01*
%TO.C,Q2*%
D16*
X40440000Y-83677500D02*
X41440000Y-83677500D01*
X40440000Y-85197500D02*
X40440000Y-83677500D01*
X40490000Y-85197500D02*
X40440000Y-85197500D01*
X42390000Y-85197500D02*
X41610000Y-85197500D01*
X42560000Y-83677500D02*
X43560000Y-83677500D01*
X43560000Y-83677500D02*
X43560000Y-85197500D01*
X43560000Y-85197500D02*
X43510000Y-85197500D01*
X41620000Y-85737500D02*
X41950000Y-85497500D01*
X41950000Y-85977500D01*
X41620000Y-85737500D01*
G36*
X41950000Y-85977500D02*
G01*
X41620000Y-85737500D01*
X41950000Y-85497500D01*
X41950000Y-85977500D01*
G37*
%TO.C,SW3*%
D20*
X38644000Y-96297000D02*
X38644000Y-93187000D01*
X40014000Y-92492000D02*
X41774000Y-92492000D01*
X40014000Y-96992000D02*
X41774000Y-96992000D01*
X43144000Y-96297000D02*
X43144000Y-93187000D01*
D13*
X39244000Y-97968000D02*
G75*
G02*
X39044000Y-97968000I-100000J0D01*
G01*
X39044000Y-97968000D02*
G75*
G02*
X39244000Y-97968000I100000J0D01*
G01*
%TO.C,D3*%
D16*
X39798989Y-56014067D02*
X38101933Y-54317011D01*
X39940411Y-52478533D02*
X38101933Y-54317011D01*
X39940411Y-52478533D02*
X41425335Y-53963457D01*
X41425335Y-54387721D02*
X39798989Y-56014067D01*
X41425335Y-54387721D02*
X41425335Y-53963457D01*
%TD*%
M02*
