M48
; DRILL file KiCad 10.0.2 date 2026-05-23T13:51:34
; FORMAT={-:-/ absolute / metric / decimal}
; #@! TF.CreationDate,2026-05-23T13:51:34-07:00
; #@! TF.GenerationSoftware,Kicad,Pcbnew,10.0.2
; #@! TF.FileFunction,MixedPlating,1,2
FMAT,2
METRIC
; #@! TA.AperFunction,Plated,PTH,ViaDrill
T1C0.300
; #@! TA.AperFunction,Plated,PTH,ComponentDrill
T2C0.500
; #@! TA.AperFunction,Plated,PTH,ComponentDrill
T3C0.900
; #@! TA.AperFunction,Plated,PTH,ComponentDrill
T4C1.700
; #@! TA.AperFunction,NonPlated,NPTH,ComponentDrill
T5C0.500
%
G90
G05
T1
X47.879Y-74.676
X51.7Y-37.3
X54.05Y-33.4
X54.9Y-145.35
X59.2Y-125.0
X66.0Y-138.0
X67.564Y-37.846
T2
X45.2Y-150.2
X45.2Y-152.8
X45.2Y-155.2
X45.25Y-140.0
X45.25Y-142.5
X45.25Y-145.0
X45.25Y-147.75
X52.601Y-142.088
X55.141Y-142.088
X61.5Y-140.0
X61.5Y-142.5
X61.5Y-145.0
X61.5Y-147.5
X61.5Y-150.25
X61.5Y-152.75
X61.5Y-155.25
T3
X41.402Y-33.02
X43.942Y-33.02
X46.482Y-33.02
X61.497Y-33.258
X64.037Y-33.258
T4
X37.187Y-71.32
X45.588Y-52.61
X46.79Y-61.166
X50.085Y-83.794
X52.227Y-68.824
X59.885Y-61.166
X59.885Y-74.262
X61.087Y-82.818
X69.488Y-64.108
T5
X54.05Y-36.714
M30
