M48
; DRILL file {KiCad 9.0.5} date 2025-11-11T17:28:09-0800
; FORMAT={-:-/ absolute / metric / decimal}
; #@! TF.CreationDate,2025-11-11T17:28:09-08:00
; #@! TF.GenerationSoftware,Kicad,Pcbnew,9.0.5
; #@! TF.FileFunction,Plated,1,2,PTH
FMAT,2
METRIC
; #@! TA.AperFunction,Plated,PTH,ViaDrill
T1C0.300
; #@! TA.AperFunction,Plated,PTH,ComponentDrill
T2C0.889
; #@! TA.AperFunction,Plated,PTH,ComponentDrill
T3C1.700
%
G90
G05
T1
X47.879Y-74.676
X55.372Y-125.476
T2
X45.72Y-140.081
X45.72Y-142.621
X45.72Y-145.161
X45.72Y-147.701
X45.72Y-150.241
X45.72Y-152.781
X45.72Y-155.321
X60.96Y-140.081
X60.96Y-142.621
X60.96Y-145.161
X60.96Y-147.701
X60.96Y-150.241
X60.96Y-152.781
X60.96Y-155.321
T3
X37.187Y-71.32
X45.588Y-52.61
X46.79Y-61.166
X50.085Y-83.794
X52.227Y-68.824
X59.885Y-61.166
X59.885Y-74.262
X61.087Y-82.818
X69.488Y-64.108
M30
