%TF.GenerationSoftware,KiCad,Pcbnew,9.0.5*%
%TF.CreationDate,2025-11-11T17:28:59-08:00*%
%TF.ProjectId,c6remote,63367265-6d6f-4746-952e-6b696361645f,rev?*%
%TF.SameCoordinates,Original*%
%TF.FileFunction,Soldermask,Top*%
%TF.FilePolarity,Negative*%
%FSLAX46Y46*%
G04 Gerber Fmt 4.6, Leading zero omitted, Abs format (unit mm)*
G04 Created by KiCad (PCBNEW 9.0.5) date 2025-11-11 17:28:59*
%MOMM*%
%LPD*%
G01*
G04 APERTURE LIST*
G04 Aperture macros list*
%AMRoundRect*
0 Rectangle with rounded corners*
0 $1 Rounding radius*
0 $2 $3 $4 $5 $6 $7 $8 $9 X,Y pos of 4 corners*
0 Add a 4 corners polygon primitive as box body*
4,1,4,$2,$3,$4,$5,$6,$7,$8,$9,$2,$3,0*
0 Add four circle primitives for the rounded corners*
1,1,$1+$1,$2,$3*
1,1,$1+$1,$4,$5*
1,1,$1+$1,$6,$7*
1,1,$1+$1,$8,$9*
0 Add four rect primitives between the rounded corners*
20,1,$1+$1,$2,$3,$4,$5,0*
20,1,$1+$1,$4,$5,$6,$7,0*
20,1,$1+$1,$6,$7,$8,$9,0*
20,1,$1+$1,$8,$9,$2,$3,0*%
G04 Aperture macros list end*
%ADD10C,0.010000*%
%ADD11RoundRect,0.100000X-0.850000X-0.100000X0.850000X-0.100000X0.850000X0.100000X-0.850000X0.100000X0*%
%ADD12RoundRect,0.152400X-1.063600X-0.609600X1.063600X-0.609600X1.063600X0.609600X-1.063600X0.609600X0*%
%ADD13C,1.524000*%
%ADD14RoundRect,0.152400X1.063600X0.609600X-1.063600X0.609600X-1.063600X-0.609600X1.063600X-0.609600X0*%
%ADD15RoundRect,0.250000X0.475000X-0.250000X0.475000X0.250000X-0.475000X0.250000X-0.475000X-0.250000X0*%
%ADD16C,2.500000*%
%ADD17RoundRect,0.250000X1.000000X-1.000000X1.000000X1.000000X-1.000000X1.000000X-1.000000X-1.000000X0*%
%ADD18C,2.750000*%
G04 APERTURE END LIST*
D10*
%TO.C,SW1*%
X63511000Y-39456000D02*
X64011000Y-39456000D01*
X64011000Y-40356000D01*
X63511000Y-40356000D01*
X63511000Y-40556000D01*
X63111000Y-40556000D01*
X63111000Y-39256000D01*
X63511000Y-39256000D01*
X63511000Y-39456000D01*
G36*
X63511000Y-39456000D02*
G01*
X64011000Y-39456000D01*
X64011000Y-40356000D01*
X63511000Y-40356000D01*
X63511000Y-40556000D01*
X63111000Y-40556000D01*
X63111000Y-39256000D01*
X63511000Y-39256000D01*
X63511000Y-39456000D01*
G37*
X63511000Y-42956000D02*
X64011000Y-42956000D01*
X64011000Y-43856000D01*
X63511000Y-43856000D01*
X63511000Y-44056000D01*
X63111000Y-44056000D01*
X63111000Y-42756000D01*
X63511000Y-42756000D01*
X63511000Y-42956000D01*
G36*
X63511000Y-42956000D02*
G01*
X64011000Y-42956000D01*
X64011000Y-43856000D01*
X63511000Y-43856000D01*
X63511000Y-44056000D01*
X63111000Y-44056000D01*
X63111000Y-42756000D01*
X63511000Y-42756000D01*
X63511000Y-42956000D01*
G37*
X68461000Y-40556000D02*
X68061000Y-40556000D01*
X68061000Y-40356000D01*
X67561000Y-40356000D01*
X67561000Y-39456000D01*
X68061000Y-39456000D01*
X68061000Y-39256000D01*
X68461000Y-39256000D01*
X68461000Y-40556000D01*
G36*
X68461000Y-40556000D02*
G01*
X68061000Y-40556000D01*
X68061000Y-40356000D01*
X67561000Y-40356000D01*
X67561000Y-39456000D01*
X68061000Y-39456000D01*
X68061000Y-39256000D01*
X68461000Y-39256000D01*
X68461000Y-40556000D01*
G37*
X68461000Y-44056000D02*
X68061000Y-44056000D01*
X68061000Y-43856000D01*
X67561000Y-43856000D01*
X67561000Y-42956000D01*
X68061000Y-42956000D01*
X68061000Y-42756000D01*
X68461000Y-42756000D01*
X68461000Y-44056000D01*
G36*
X68461000Y-44056000D02*
G01*
X68061000Y-44056000D01*
X68061000Y-43856000D01*
X67561000Y-43856000D01*
X67561000Y-42956000D01*
X68061000Y-42956000D01*
X68061000Y-42756000D01*
X68461000Y-42756000D01*
X68461000Y-44056000D01*
G37*
%TO.C,SW2*%
X38619000Y-39456000D02*
X39119000Y-39456000D01*
X39119000Y-40356000D01*
X38619000Y-40356000D01*
X38619000Y-40556000D01*
X38219000Y-40556000D01*
X38219000Y-39256000D01*
X38619000Y-39256000D01*
X38619000Y-39456000D01*
G36*
X38619000Y-39456000D02*
G01*
X39119000Y-39456000D01*
X39119000Y-40356000D01*
X38619000Y-40356000D01*
X38619000Y-40556000D01*
X38219000Y-40556000D01*
X38219000Y-39256000D01*
X38619000Y-39256000D01*
X38619000Y-39456000D01*
G37*
X38619000Y-42956000D02*
X39119000Y-42956000D01*
X39119000Y-43856000D01*
X38619000Y-43856000D01*
X38619000Y-44056000D01*
X38219000Y-44056000D01*
X38219000Y-42756000D01*
X38619000Y-42756000D01*
X38619000Y-42956000D01*
G36*
X38619000Y-42956000D02*
G01*
X39119000Y-42956000D01*
X39119000Y-43856000D01*
X38619000Y-43856000D01*
X38619000Y-44056000D01*
X38219000Y-44056000D01*
X38219000Y-42756000D01*
X38619000Y-42756000D01*
X38619000Y-42956000D01*
G37*
X43569000Y-40556000D02*
X43169000Y-40556000D01*
X43169000Y-40356000D01*
X42669000Y-40356000D01*
X42669000Y-39456000D01*
X43169000Y-39456000D01*
X43169000Y-39256000D01*
X43569000Y-39256000D01*
X43569000Y-40556000D01*
G36*
X43569000Y-40556000D02*
G01*
X43169000Y-40556000D01*
X43169000Y-40356000D01*
X42669000Y-40356000D01*
X42669000Y-39456000D01*
X43169000Y-39456000D01*
X43169000Y-39256000D01*
X43569000Y-39256000D01*
X43569000Y-40556000D01*
G37*
X43569000Y-44056000D02*
X43169000Y-44056000D01*
X43169000Y-43856000D01*
X42669000Y-43856000D01*
X42669000Y-42956000D01*
X43169000Y-42956000D01*
X43169000Y-42756000D01*
X43569000Y-42756000D01*
X43569000Y-44056000D01*
G36*
X43569000Y-44056000D02*
G01*
X43169000Y-44056000D01*
X43169000Y-43856000D01*
X42669000Y-43856000D01*
X42669000Y-42956000D01*
X43169000Y-42956000D01*
X43169000Y-42756000D01*
X43569000Y-42756000D01*
X43569000Y-44056000D01*
G37*
%TO.C,SW3*%
X38619000Y-92542000D02*
X39119000Y-92542000D01*
X39119000Y-93442000D01*
X38619000Y-93442000D01*
X38619000Y-93642000D01*
X38219000Y-93642000D01*
X38219000Y-92342000D01*
X38619000Y-92342000D01*
X38619000Y-92542000D01*
G36*
X38619000Y-92542000D02*
G01*
X39119000Y-92542000D01*
X39119000Y-93442000D01*
X38619000Y-93442000D01*
X38619000Y-93642000D01*
X38219000Y-93642000D01*
X38219000Y-92342000D01*
X38619000Y-92342000D01*
X38619000Y-92542000D01*
G37*
X38619000Y-96042000D02*
X39119000Y-96042000D01*
X39119000Y-96942000D01*
X38619000Y-96942000D01*
X38619000Y-97142000D01*
X38219000Y-97142000D01*
X38219000Y-95842000D01*
X38619000Y-95842000D01*
X38619000Y-96042000D01*
G36*
X38619000Y-96042000D02*
G01*
X39119000Y-96042000D01*
X39119000Y-96942000D01*
X38619000Y-96942000D01*
X38619000Y-97142000D01*
X38219000Y-97142000D01*
X38219000Y-95842000D01*
X38619000Y-95842000D01*
X38619000Y-96042000D01*
G37*
X43569000Y-93642000D02*
X43169000Y-93642000D01*
X43169000Y-93442000D01*
X42669000Y-93442000D01*
X42669000Y-92542000D01*
X43169000Y-92542000D01*
X43169000Y-92342000D01*
X43569000Y-92342000D01*
X43569000Y-93642000D01*
G36*
X43569000Y-93642000D02*
G01*
X43169000Y-93642000D01*
X43169000Y-93442000D01*
X42669000Y-93442000D01*
X42669000Y-92542000D01*
X43169000Y-92542000D01*
X43169000Y-92342000D01*
X43569000Y-92342000D01*
X43569000Y-93642000D01*
G37*
X43569000Y-97142000D02*
X43169000Y-97142000D01*
X43169000Y-96942000D01*
X42669000Y-96942000D01*
X42669000Y-96042000D01*
X43169000Y-96042000D01*
X43169000Y-95842000D01*
X43569000Y-95842000D01*
X43569000Y-97142000D01*
G36*
X43569000Y-97142000D02*
G01*
X43169000Y-97142000D01*
X43169000Y-96942000D01*
X42669000Y-96942000D01*
X42669000Y-96042000D01*
X43169000Y-96042000D01*
X43169000Y-95842000D01*
X43569000Y-95842000D01*
X43569000Y-97142000D01*
G37*
%TO.C,SW4*%
X38561910Y-105014000D02*
X39061910Y-105014000D01*
X39061910Y-105914000D01*
X38561910Y-105914000D01*
X38561910Y-106114000D01*
X38161910Y-106114000D01*
X38161910Y-104814000D01*
X38561910Y-104814000D01*
X38561910Y-105014000D01*
G36*
X38561910Y-105014000D02*
G01*
X39061910Y-105014000D01*
X39061910Y-105914000D01*
X38561910Y-105914000D01*
X38561910Y-106114000D01*
X38161910Y-106114000D01*
X38161910Y-104814000D01*
X38561910Y-104814000D01*
X38561910Y-105014000D01*
G37*
X38561910Y-108514000D02*
X39061910Y-108514000D01*
X39061910Y-109414000D01*
X38561910Y-109414000D01*
X38561910Y-109614000D01*
X38161910Y-109614000D01*
X38161910Y-108314000D01*
X38561910Y-108314000D01*
X38561910Y-108514000D01*
G36*
X38561910Y-108514000D02*
G01*
X39061910Y-108514000D01*
X39061910Y-109414000D01*
X38561910Y-109414000D01*
X38561910Y-109614000D01*
X38161910Y-109614000D01*
X38161910Y-108314000D01*
X38561910Y-108314000D01*
X38561910Y-108514000D01*
G37*
X43511910Y-106114000D02*
X43111910Y-106114000D01*
X43111910Y-105914000D01*
X42611910Y-105914000D01*
X42611910Y-105014000D01*
X43111910Y-105014000D01*
X43111910Y-104814000D01*
X43511910Y-104814000D01*
X43511910Y-106114000D01*
G36*
X43511910Y-106114000D02*
G01*
X43111910Y-106114000D01*
X43111910Y-105914000D01*
X42611910Y-105914000D01*
X42611910Y-105014000D01*
X43111910Y-105014000D01*
X43111910Y-104814000D01*
X43511910Y-104814000D01*
X43511910Y-106114000D01*
G37*
X43511910Y-109614000D02*
X43111910Y-109614000D01*
X43111910Y-109414000D01*
X42611910Y-109414000D01*
X42611910Y-108514000D01*
X43111910Y-108514000D01*
X43111910Y-108314000D01*
X43511910Y-108314000D01*
X43511910Y-109614000D01*
G36*
X43511910Y-109614000D02*
G01*
X43111910Y-109614000D01*
X43111910Y-109414000D01*
X42611910Y-109414000D01*
X42611910Y-108514000D01*
X43111910Y-108514000D01*
X43111910Y-108314000D01*
X43511910Y-108314000D01*
X43511910Y-109614000D01*
G37*
%TO.C,SW5*%
X38619000Y-117434000D02*
X39119000Y-117434000D01*
X39119000Y-118334000D01*
X38619000Y-118334000D01*
X38619000Y-118534000D01*
X38219000Y-118534000D01*
X38219000Y-117234000D01*
X38619000Y-117234000D01*
X38619000Y-117434000D01*
G36*
X38619000Y-117434000D02*
G01*
X39119000Y-117434000D01*
X39119000Y-118334000D01*
X38619000Y-118334000D01*
X38619000Y-118534000D01*
X38219000Y-118534000D01*
X38219000Y-117234000D01*
X38619000Y-117234000D01*
X38619000Y-117434000D01*
G37*
X38619000Y-120934000D02*
X39119000Y-120934000D01*
X39119000Y-121834000D01*
X38619000Y-121834000D01*
X38619000Y-122034000D01*
X38219000Y-122034000D01*
X38219000Y-120734000D01*
X38619000Y-120734000D01*
X38619000Y-120934000D01*
G36*
X38619000Y-120934000D02*
G01*
X39119000Y-120934000D01*
X39119000Y-121834000D01*
X38619000Y-121834000D01*
X38619000Y-122034000D01*
X38219000Y-122034000D01*
X38219000Y-120734000D01*
X38619000Y-120734000D01*
X38619000Y-120934000D01*
G37*
X43569000Y-118534000D02*
X43169000Y-118534000D01*
X43169000Y-118334000D01*
X42669000Y-118334000D01*
X42669000Y-117434000D01*
X43169000Y-117434000D01*
X43169000Y-117234000D01*
X43569000Y-117234000D01*
X43569000Y-118534000D01*
G36*
X43569000Y-118534000D02*
G01*
X43169000Y-118534000D01*
X43169000Y-118334000D01*
X42669000Y-118334000D01*
X42669000Y-117434000D01*
X43169000Y-117434000D01*
X43169000Y-117234000D01*
X43569000Y-117234000D01*
X43569000Y-118534000D01*
G37*
X43569000Y-122034000D02*
X43169000Y-122034000D01*
X43169000Y-121834000D01*
X42669000Y-121834000D01*
X42669000Y-120934000D01*
X43169000Y-120934000D01*
X43169000Y-120734000D01*
X43569000Y-120734000D01*
X43569000Y-122034000D01*
G36*
X43569000Y-122034000D02*
G01*
X43169000Y-122034000D01*
X43169000Y-121834000D01*
X42669000Y-121834000D01*
X42669000Y-120934000D01*
X43169000Y-120934000D01*
X43169000Y-120734000D01*
X43569000Y-120734000D01*
X43569000Y-122034000D01*
G37*
%TO.C,SW6*%
X51065000Y-92542000D02*
X51565000Y-92542000D01*
X51565000Y-93442000D01*
X51065000Y-93442000D01*
X51065000Y-93642000D01*
X50665000Y-93642000D01*
X50665000Y-92342000D01*
X51065000Y-92342000D01*
X51065000Y-92542000D01*
G36*
X51065000Y-92542000D02*
G01*
X51565000Y-92542000D01*
X51565000Y-93442000D01*
X51065000Y-93442000D01*
X51065000Y-93642000D01*
X50665000Y-93642000D01*
X50665000Y-92342000D01*
X51065000Y-92342000D01*
X51065000Y-92542000D01*
G37*
X51065000Y-96042000D02*
X51565000Y-96042000D01*
X51565000Y-96942000D01*
X51065000Y-96942000D01*
X51065000Y-97142000D01*
X50665000Y-97142000D01*
X50665000Y-95842000D01*
X51065000Y-95842000D01*
X51065000Y-96042000D01*
G36*
X51065000Y-96042000D02*
G01*
X51565000Y-96042000D01*
X51565000Y-96942000D01*
X51065000Y-96942000D01*
X51065000Y-97142000D01*
X50665000Y-97142000D01*
X50665000Y-95842000D01*
X51065000Y-95842000D01*
X51065000Y-96042000D01*
G37*
X56015000Y-93642000D02*
X55615000Y-93642000D01*
X55615000Y-93442000D01*
X55115000Y-93442000D01*
X55115000Y-92542000D01*
X55615000Y-92542000D01*
X55615000Y-92342000D01*
X56015000Y-92342000D01*
X56015000Y-93642000D01*
G36*
X56015000Y-93642000D02*
G01*
X55615000Y-93642000D01*
X55615000Y-93442000D01*
X55115000Y-93442000D01*
X55115000Y-92542000D01*
X55615000Y-92542000D01*
X55615000Y-92342000D01*
X56015000Y-92342000D01*
X56015000Y-93642000D01*
G37*
X56015000Y-97142000D02*
X55615000Y-97142000D01*
X55615000Y-96942000D01*
X55115000Y-96942000D01*
X55115000Y-96042000D01*
X55615000Y-96042000D01*
X55615000Y-95842000D01*
X56015000Y-95842000D01*
X56015000Y-97142000D01*
G36*
X56015000Y-97142000D02*
G01*
X55615000Y-97142000D01*
X55615000Y-96942000D01*
X55115000Y-96942000D01*
X55115000Y-96042000D01*
X55615000Y-96042000D01*
X55615000Y-95842000D01*
X56015000Y-95842000D01*
X56015000Y-97142000D01*
G37*
%TO.C,SW7*%
X51065000Y-104988000D02*
X51565000Y-104988000D01*
X51565000Y-105888000D01*
X51065000Y-105888000D01*
X51065000Y-106088000D01*
X50665000Y-106088000D01*
X50665000Y-104788000D01*
X51065000Y-104788000D01*
X51065000Y-104988000D01*
G36*
X51065000Y-104988000D02*
G01*
X51565000Y-104988000D01*
X51565000Y-105888000D01*
X51065000Y-105888000D01*
X51065000Y-106088000D01*
X50665000Y-106088000D01*
X50665000Y-104788000D01*
X51065000Y-104788000D01*
X51065000Y-104988000D01*
G37*
X51065000Y-108488000D02*
X51565000Y-108488000D01*
X51565000Y-109388000D01*
X51065000Y-109388000D01*
X51065000Y-109588000D01*
X50665000Y-109588000D01*
X50665000Y-108288000D01*
X51065000Y-108288000D01*
X51065000Y-108488000D01*
G36*
X51065000Y-108488000D02*
G01*
X51565000Y-108488000D01*
X51565000Y-109388000D01*
X51065000Y-109388000D01*
X51065000Y-109588000D01*
X50665000Y-109588000D01*
X50665000Y-108288000D01*
X51065000Y-108288000D01*
X51065000Y-108488000D01*
G37*
X56015000Y-106088000D02*
X55615000Y-106088000D01*
X55615000Y-105888000D01*
X55115000Y-105888000D01*
X55115000Y-104988000D01*
X55615000Y-104988000D01*
X55615000Y-104788000D01*
X56015000Y-104788000D01*
X56015000Y-106088000D01*
G36*
X56015000Y-106088000D02*
G01*
X55615000Y-106088000D01*
X55615000Y-105888000D01*
X55115000Y-105888000D01*
X55115000Y-104988000D01*
X55615000Y-104988000D01*
X55615000Y-104788000D01*
X56015000Y-104788000D01*
X56015000Y-106088000D01*
G37*
X56015000Y-109588000D02*
X55615000Y-109588000D01*
X55615000Y-109388000D01*
X55115000Y-109388000D01*
X55115000Y-108488000D01*
X55615000Y-108488000D01*
X55615000Y-108288000D01*
X56015000Y-108288000D01*
X56015000Y-109588000D01*
G36*
X56015000Y-109588000D02*
G01*
X55615000Y-109588000D01*
X55615000Y-109388000D01*
X55115000Y-109388000D01*
X55115000Y-108488000D01*
X55615000Y-108488000D01*
X55615000Y-108288000D01*
X56015000Y-108288000D01*
X56015000Y-109588000D01*
G37*
%TO.C,SW8*%
X51065000Y-117434000D02*
X51565000Y-117434000D01*
X51565000Y-118334000D01*
X51065000Y-118334000D01*
X51065000Y-118534000D01*
X50665000Y-118534000D01*
X50665000Y-117234000D01*
X51065000Y-117234000D01*
X51065000Y-117434000D01*
G36*
X51065000Y-117434000D02*
G01*
X51565000Y-117434000D01*
X51565000Y-118334000D01*
X51065000Y-118334000D01*
X51065000Y-118534000D01*
X50665000Y-118534000D01*
X50665000Y-117234000D01*
X51065000Y-117234000D01*
X51065000Y-117434000D01*
G37*
X51065000Y-120934000D02*
X51565000Y-120934000D01*
X51565000Y-121834000D01*
X51065000Y-121834000D01*
X51065000Y-122034000D01*
X50665000Y-122034000D01*
X50665000Y-120734000D01*
X51065000Y-120734000D01*
X51065000Y-120934000D01*
G36*
X51065000Y-120934000D02*
G01*
X51565000Y-120934000D01*
X51565000Y-121834000D01*
X51065000Y-121834000D01*
X51065000Y-122034000D01*
X50665000Y-122034000D01*
X50665000Y-120734000D01*
X51065000Y-120734000D01*
X51065000Y-120934000D01*
G37*
X56015000Y-118534000D02*
X55615000Y-118534000D01*
X55615000Y-118334000D01*
X55115000Y-118334000D01*
X55115000Y-117434000D01*
X55615000Y-117434000D01*
X55615000Y-117234000D01*
X56015000Y-117234000D01*
X56015000Y-118534000D01*
G36*
X56015000Y-118534000D02*
G01*
X55615000Y-118534000D01*
X55615000Y-118334000D01*
X55115000Y-118334000D01*
X55115000Y-117434000D01*
X55615000Y-117434000D01*
X55615000Y-117234000D01*
X56015000Y-117234000D01*
X56015000Y-118534000D01*
G37*
X56015000Y-122034000D02*
X55615000Y-122034000D01*
X55615000Y-121834000D01*
X55115000Y-121834000D01*
X55115000Y-120934000D01*
X55615000Y-120934000D01*
X55615000Y-120734000D01*
X56015000Y-120734000D01*
X56015000Y-122034000D01*
G36*
X56015000Y-122034000D02*
G01*
X55615000Y-122034000D01*
X55615000Y-121834000D01*
X55115000Y-121834000D01*
X55115000Y-120934000D01*
X55615000Y-120934000D01*
X55615000Y-120734000D01*
X56015000Y-120734000D01*
X56015000Y-122034000D01*
G37*
%TO.C,SW9*%
X63511000Y-117434000D02*
X64011000Y-117434000D01*
X64011000Y-118334000D01*
X63511000Y-118334000D01*
X63511000Y-118534000D01*
X63111000Y-118534000D01*
X63111000Y-117234000D01*
X63511000Y-117234000D01*
X63511000Y-117434000D01*
G36*
X63511000Y-117434000D02*
G01*
X64011000Y-117434000D01*
X64011000Y-118334000D01*
X63511000Y-118334000D01*
X63511000Y-118534000D01*
X63111000Y-118534000D01*
X63111000Y-117234000D01*
X63511000Y-117234000D01*
X63511000Y-117434000D01*
G37*
X63511000Y-120934000D02*
X64011000Y-120934000D01*
X64011000Y-121834000D01*
X63511000Y-121834000D01*
X63511000Y-122034000D01*
X63111000Y-122034000D01*
X63111000Y-120734000D01*
X63511000Y-120734000D01*
X63511000Y-120934000D01*
G36*
X63511000Y-120934000D02*
G01*
X64011000Y-120934000D01*
X64011000Y-121834000D01*
X63511000Y-121834000D01*
X63511000Y-122034000D01*
X63111000Y-122034000D01*
X63111000Y-120734000D01*
X63511000Y-120734000D01*
X63511000Y-120934000D01*
G37*
X68461000Y-118534000D02*
X68061000Y-118534000D01*
X68061000Y-118334000D01*
X67561000Y-118334000D01*
X67561000Y-117434000D01*
X68061000Y-117434000D01*
X68061000Y-117234000D01*
X68461000Y-117234000D01*
X68461000Y-118534000D01*
G36*
X68461000Y-118534000D02*
G01*
X68061000Y-118534000D01*
X68061000Y-118334000D01*
X67561000Y-118334000D01*
X67561000Y-117434000D01*
X68061000Y-117434000D01*
X68061000Y-117234000D01*
X68461000Y-117234000D01*
X68461000Y-118534000D01*
G37*
X68461000Y-122034000D02*
X68061000Y-122034000D01*
X68061000Y-121834000D01*
X67561000Y-121834000D01*
X67561000Y-120934000D01*
X68061000Y-120934000D01*
X68061000Y-120734000D01*
X68461000Y-120734000D01*
X68461000Y-122034000D01*
G36*
X68461000Y-122034000D02*
G01*
X68061000Y-122034000D01*
X68061000Y-121834000D01*
X67561000Y-121834000D01*
X67561000Y-120934000D01*
X68061000Y-120934000D01*
X68061000Y-120734000D01*
X68461000Y-120734000D01*
X68461000Y-122034000D01*
G37*
%TO.C,SW10*%
X63511000Y-104988000D02*
X64011000Y-104988000D01*
X64011000Y-105888000D01*
X63511000Y-105888000D01*
X63511000Y-106088000D01*
X63111000Y-106088000D01*
X63111000Y-104788000D01*
X63511000Y-104788000D01*
X63511000Y-104988000D01*
G36*
X63511000Y-104988000D02*
G01*
X64011000Y-104988000D01*
X64011000Y-105888000D01*
X63511000Y-105888000D01*
X63511000Y-106088000D01*
X63111000Y-106088000D01*
X63111000Y-104788000D01*
X63511000Y-104788000D01*
X63511000Y-104988000D01*
G37*
X63511000Y-108488000D02*
X64011000Y-108488000D01*
X64011000Y-109388000D01*
X63511000Y-109388000D01*
X63511000Y-109588000D01*
X63111000Y-109588000D01*
X63111000Y-108288000D01*
X63511000Y-108288000D01*
X63511000Y-108488000D01*
G36*
X63511000Y-108488000D02*
G01*
X64011000Y-108488000D01*
X64011000Y-109388000D01*
X63511000Y-109388000D01*
X63511000Y-109588000D01*
X63111000Y-109588000D01*
X63111000Y-108288000D01*
X63511000Y-108288000D01*
X63511000Y-108488000D01*
G37*
X68461000Y-106088000D02*
X68061000Y-106088000D01*
X68061000Y-105888000D01*
X67561000Y-105888000D01*
X67561000Y-104988000D01*
X68061000Y-104988000D01*
X68061000Y-104788000D01*
X68461000Y-104788000D01*
X68461000Y-106088000D01*
G36*
X68461000Y-106088000D02*
G01*
X68061000Y-106088000D01*
X68061000Y-105888000D01*
X67561000Y-105888000D01*
X67561000Y-104988000D01*
X68061000Y-104988000D01*
X68061000Y-104788000D01*
X68461000Y-104788000D01*
X68461000Y-106088000D01*
G37*
X68461000Y-109588000D02*
X68061000Y-109588000D01*
X68061000Y-109388000D01*
X67561000Y-109388000D01*
X67561000Y-108488000D01*
X68061000Y-108488000D01*
X68061000Y-108288000D01*
X68461000Y-108288000D01*
X68461000Y-109588000D01*
G36*
X68461000Y-109588000D02*
G01*
X68061000Y-109588000D01*
X68061000Y-109388000D01*
X67561000Y-109388000D01*
X67561000Y-108488000D01*
X68061000Y-108488000D01*
X68061000Y-108288000D01*
X68461000Y-108288000D01*
X68461000Y-109588000D01*
G37*
%TO.C,SW11*%
X63511000Y-92542000D02*
X64011000Y-92542000D01*
X64011000Y-93442000D01*
X63511000Y-93442000D01*
X63511000Y-93642000D01*
X63111000Y-93642000D01*
X63111000Y-92342000D01*
X63511000Y-92342000D01*
X63511000Y-92542000D01*
G36*
X63511000Y-92542000D02*
G01*
X64011000Y-92542000D01*
X64011000Y-93442000D01*
X63511000Y-93442000D01*
X63511000Y-93642000D01*
X63111000Y-93642000D01*
X63111000Y-92342000D01*
X63511000Y-92342000D01*
X63511000Y-92542000D01*
G37*
X63511000Y-96042000D02*
X64011000Y-96042000D01*
X64011000Y-96942000D01*
X63511000Y-96942000D01*
X63511000Y-97142000D01*
X63111000Y-97142000D01*
X63111000Y-95842000D01*
X63511000Y-95842000D01*
X63511000Y-96042000D01*
G36*
X63511000Y-96042000D02*
G01*
X64011000Y-96042000D01*
X64011000Y-96942000D01*
X63511000Y-96942000D01*
X63511000Y-97142000D01*
X63111000Y-97142000D01*
X63111000Y-95842000D01*
X63511000Y-95842000D01*
X63511000Y-96042000D01*
G37*
X68461000Y-93642000D02*
X68061000Y-93642000D01*
X68061000Y-93442000D01*
X67561000Y-93442000D01*
X67561000Y-92542000D01*
X68061000Y-92542000D01*
X68061000Y-92342000D01*
X68461000Y-92342000D01*
X68461000Y-93642000D01*
G36*
X68461000Y-93642000D02*
G01*
X68061000Y-93642000D01*
X68061000Y-93442000D01*
X67561000Y-93442000D01*
X67561000Y-92542000D01*
X68061000Y-92542000D01*
X68061000Y-92342000D01*
X68461000Y-92342000D01*
X68461000Y-93642000D01*
G37*
X68461000Y-97142000D02*
X68061000Y-97142000D01*
X68061000Y-96942000D01*
X67561000Y-96942000D01*
X67561000Y-96042000D01*
X68061000Y-96042000D01*
X68061000Y-95842000D01*
X68461000Y-95842000D01*
X68461000Y-97142000D01*
G36*
X68461000Y-97142000D02*
G01*
X68061000Y-97142000D01*
X68061000Y-96942000D01*
X67561000Y-96942000D01*
X67561000Y-96042000D01*
X68061000Y-96042000D01*
X68061000Y-95842000D01*
X68461000Y-95842000D01*
X68461000Y-97142000D01*
G37*
%TD*%
D11*
%TO.C,U3*%
X56784000Y-127089000D03*
X56784000Y-127739000D03*
X56784000Y-128389000D03*
X56784000Y-129039000D03*
X56784000Y-129689000D03*
X56784000Y-130339000D03*
X56784000Y-130989000D03*
X56784000Y-131639000D03*
X56784000Y-132289000D03*
X56784000Y-132939000D03*
X56784000Y-133589000D03*
X56784000Y-134239000D03*
X49784000Y-134239000D03*
X49784000Y-133589000D03*
X49784000Y-132939000D03*
X49784000Y-132289000D03*
X49784000Y-131639000D03*
X49784000Y-130989000D03*
X49784000Y-130339000D03*
X49784000Y-129689000D03*
X49784000Y-129039000D03*
X49784000Y-128389000D03*
X49784000Y-127739000D03*
X49784000Y-127089000D03*
%TD*%
D12*
%TO.C,U1*%
X61795000Y-155321000D03*
D13*
X60960000Y-155321000D03*
D12*
X61795000Y-152781000D03*
D13*
X60960000Y-152781000D03*
D12*
X61795000Y-150241000D03*
D13*
X60960000Y-150241000D03*
D12*
X61795000Y-147701000D03*
D13*
X60960000Y-147701000D03*
D12*
X61795000Y-145161000D03*
D13*
X60960000Y-145161000D03*
D12*
X61795000Y-142621000D03*
D13*
X60960000Y-142621000D03*
D12*
X61795000Y-140081000D03*
D13*
X60960000Y-140081000D03*
X45720000Y-140081000D03*
D14*
X44885000Y-140081000D03*
D13*
X45720000Y-142621000D03*
D14*
X44885000Y-142621000D03*
D13*
X45720000Y-145161000D03*
D14*
X44885000Y-145161000D03*
D13*
X45720000Y-147701000D03*
D14*
X44885000Y-147701000D03*
D13*
X45720000Y-150241000D03*
D14*
X44885000Y-150241000D03*
D13*
X45720000Y-152781000D03*
D14*
X44885000Y-152781000D03*
D13*
X45720000Y-155321000D03*
D14*
X44885000Y-155321000D03*
%TD*%
D15*
%TO.C,C1*%
X56896000Y-125410000D03*
X56896000Y-123510000D03*
%TD*%
D16*
%TO.C,U4*%
X69487774Y-64107590D03*
D17*
X45587565Y-52610131D03*
D18*
X59885264Y-61166020D03*
D16*
X46789646Y-61166136D03*
X37187136Y-71320254D03*
X52227297Y-68824158D03*
D18*
X59885264Y-74261954D03*
D16*
X61087345Y-82817923D03*
D17*
X50084764Y-83793690D03*
%TD*%
M02*
