%TF.GenerationSoftware,KiCad,Pcbnew,10.0.3*%
%TF.CreationDate,2026-07-15T13:59:44-07:00*%
%TF.ProjectId,c6remote,63367265-6d6f-4746-952e-6b696361645f,rev?*%
%TF.SameCoordinates,Original*%
%TF.FileFunction,Copper,L2,Bot*%
%TF.FilePolarity,Positive*%
%FSLAX46Y46*%
G04 Gerber Fmt 4.6, Leading zero omitted, Abs format (unit mm)*
G04 Created by KiCad (PCBNEW 10.0.3) date 2026-07-15 13:59:44*
%MOMM*%
%LPD*%
G01*
G04 APERTURE LIST*
G04 Aperture macros list*
%AMRoundRect*
0 Rectangle with rounded corners*
0 $1 Rounding radius*
0 $2 $3 $4 $5 $6 $7 $8 $9 X,Y pos of 4 corners*
0 Add a 4 corners polygon primitive as box body*
4,1,4,$2,$3,$4,$5,$6,$7,$8,$9,$2,$3,0*
0 Add four circle primitives for the rounded corners*
1,1,$1+$1,$2,$3*
1,1,$1+$1,$4,$5*
1,1,$1+$1,$6,$7*
1,1,$1+$1,$8,$9*
0 Add four rect primitives between the rounded corners*
20,1,$1+$1,$2,$3,$4,$5,0*
20,1,$1+$1,$4,$5,$6,$7,0*
20,1,$1+$1,$6,$7,$8,$9,0*
20,1,$1+$1,$8,$9,$2,$3,0*%
%AMFreePoly0*
4,1,64,0.031751,0.146088,0.079639,0.146088,0.235856,0.115014,0.383010,0.054061,0.515445,-0.034429,0.628071,-0.147055,0.716561,-0.279490,0.777514,-0.426644,0.808588,-0.582861,0.808588,-0.742139,0.777514,-0.898356,0.716561,-1.045510,0.628071,-1.177945,0.515445,-1.290571,0.383010,-1.379061,0.235856,-1.440014,0.079639,-1.471088,-0.079639,-1.471088,-0.235856,-1.440014,-0.383010,-1.379061,
-0.515445,-1.290571,-0.628071,-1.177945,-0.716561,-1.045510,-0.777514,-0.898356,-0.808588,-0.742139,-0.808588,-0.595028,-0.512500,-0.595028,-0.512500,-0.729972,-0.477574,-0.860317,-0.410102,-0.977182,-0.314682,-1.072602,-0.197817,-1.140074,-0.067472,-1.175000,0.067472,-1.175000,0.197817,-1.140074,0.314682,-1.072602,0.410102,-0.977182,0.477574,-0.860317,0.512500,-0.729972,0.512500,-0.595028,
0.477574,-0.464683,0.410102,-0.347818,0.314682,-0.252398,0.197817,-0.184926,0.067472,-0.150000,-0.067472,-0.150000,-0.197817,-0.184926,-0.314682,-0.252398,-0.410102,-0.347818,-0.477574,-0.464683,-0.512500,-0.595028,-0.808588,-0.595028,-0.808588,-0.582861,-0.777514,-0.426644,-0.716561,-0.279490,-0.628071,-0.147055,-0.515445,-0.034429,-0.383010,0.054061,-0.235856,0.115014,-0.079639,0.146088,
-0.031751,0.146088,-0.029264,0.147118,0.029264,0.147118,0.031751,0.146088,0.031751,0.146088,$1*%
G04 Aperture macros list end*
%TA.AperFunction,ComponentPad*%
%ADD10RoundRect,0.275000X0.275000X-0.975000X0.275000X0.975000X-0.275000X0.975000X-0.275000X-0.975000X0*%
%TD*%
%TA.AperFunction,ComponentPad*%
%ADD11R,1.800000X1.800000*%
%TD*%
%TA.AperFunction,ComponentPad*%
%ADD12C,1.800000*%
%TD*%
%TA.AperFunction,ComponentPad*%
%ADD13RoundRect,0.248400X0.651600X0.651600X-0.651600X0.651600X-0.651600X-0.651600X0.651600X-0.651600X0*%
%TD*%
%TA.AperFunction,ComponentPad*%
%ADD14RoundRect,0.250000X1.000000X-1.000000X1.000000X1.000000X-1.000000X1.000000X-1.000000X-1.000000X0*%
%TD*%
%TA.AperFunction,ComponentPad*%
%ADD15C,2.500000*%
%TD*%
%TA.AperFunction,ComponentPad*%
%ADD16C,2.750000*%
%TD*%
%TA.AperFunction,SMDPad,CuDef*%
%ADD17RoundRect,0.250000X-0.250000X-1.500000X0.250000X-1.500000X0.250000X1.500000X-0.250000X1.500000X0*%
%TD*%
%TA.AperFunction,SMDPad,CuDef*%
%ADD18RoundRect,0.250001X-0.499999X-1.449999X0.499999X-1.449999X0.499999X1.449999X-0.499999X1.449999X0*%
%TD*%
%TA.AperFunction,SMDPad,CuDef*%
%ADD19RoundRect,0.200000X-0.200000X-0.275000X0.200000X-0.275000X0.200000X0.275000X-0.200000X0.275000X0*%
%TD*%
%TA.AperFunction,ComponentPad*%
%ADD20C,1.000000*%
%TD*%
%TA.AperFunction,SMDPad,CuDef*%
%ADD21R,0.600000X0.522000*%
%TD*%
%TA.AperFunction,SMDPad,CuDef*%
%ADD22FreePoly0,90.000000*%
%TD*%
%TA.AperFunction,SMDPad,CuDef*%
%ADD23RoundRect,0.200000X0.200000X0.275000X-0.200000X0.275000X-0.200000X-0.275000X0.200000X-0.275000X0*%
%TD*%
%TA.AperFunction,SMDPad,CuDef*%
%ADD24RoundRect,0.200000X0.275000X-0.200000X0.275000X0.200000X-0.275000X0.200000X-0.275000X-0.200000X0*%
%TD*%
%TA.AperFunction,ViaPad*%
%ADD25C,0.600000*%
%TD*%
%TA.AperFunction,Conductor*%
%ADD26C,0.200000*%
%TD*%
G04 APERTURE END LIST*
D10*
%TO.P,U1,32,BAT_32*%
%TO.N,BAT*%
X55141400Y-142088300D03*
%TO.P,U1,33,GND_33*%
%TO.N,GND*%
X52601400Y-142088300D03*
%TD*%
D11*
%TO.P,D1,1,K_1*%
%TO.N,Net-(D1-K)*%
X64037455Y-33258000D03*
D12*
%TO.P,D1,2,A_2*%
%TO.N,Net-(D1-A)*%
X61497455Y-33258000D03*
%TD*%
D13*
%TO.P,U2,1,OUT_1*%
%TO.N,IR REC*%
X46482000Y-33020000D03*
D12*
%TO.P,U2,2,GND_2*%
%TO.N,GND*%
X43942000Y-33020000D03*
%TO.P,U2,3,Vs_3*%
%TO.N,Net-(U2-Vs)*%
X41402000Y-33020000D03*
%TD*%
D14*
%TO.P,ENC1,1,COM2_1*%
%TO.N,GND*%
X50084764Y-83793690D03*
D15*
%TO.P,ENC1,2,ano_sw4_2*%
%TO.N,ano_sw4*%
X61087345Y-82817923D03*
D16*
%TO.P,ENC1,3,ano_enc1_3*%
%TO.N,ano_enc2*%
X59885264Y-74261954D03*
D15*
%TO.P,ENC1,4,ano_sw3_4*%
%TO.N,ano_sw3*%
X52227297Y-68824158D03*
%TO.P,ENC1,5,ano_sw1_5*%
%TO.N,ano_sw5*%
X37187136Y-71320254D03*
%TO.P,ENC1,6,ano_sw2_6*%
%TO.N,ano_sw2*%
X46789646Y-61166136D03*
D16*
%TO.P,ENC1,7,ano_enc2_7*%
%TO.N,ano_enc1*%
X59885264Y-61166020D03*
D14*
%TO.P,ENC1,8,COM1_8*%
%TO.N,GND*%
X45587565Y-52610131D03*
D15*
%TO.P,ENC1,9,ano_sw5_9*%
%TO.N,ano_sw1*%
X69487774Y-64107590D03*
%TD*%
D17*
%TO.P,J1,1,Pin_1_1*%
%TO.N,BAT*%
X52900000Y-155700000D03*
%TO.P,J1,2,Pin_2_2*%
%TO.N,GND*%
X54900000Y-155700000D03*
D18*
%TO.P,J1,MP*%
%TO.N,N/C*%
X50550000Y-149950000D03*
X57250000Y-149950000D03*
%TD*%
D19*
%TO.P,R7,1*%
%TO.N,BAT*%
X57175000Y-142250000D03*
%TO.P,R7,2*%
%TO.N,bat_sense*%
X58825000Y-142250000D03*
%TD*%
D20*
%TO.P,TP_SD,1*%
%TO.N,sd*%
X61500000Y-155250000D03*
%TD*%
%TO.P,TP_ANO_ENC2,1*%
%TO.N,ano_enc2*%
X45250000Y-142500000D03*
%TD*%
D19*
%TO.P,R3,1*%
%TO.N,+3.3V*%
X57350000Y-33258000D03*
%TO.P,R3,2*%
%TO.N,Net-(D1-A)*%
X59000000Y-33258000D03*
%TD*%
D20*
%TO.P,TP_GPIO18_D10_MOSI,1*%
%TO.N,unconnected-(U1-GPIO18_D10_MOSI-Pad11)*%
X45250000Y-147750000D03*
%TD*%
D21*
%TO.P,MK1,1,SCK_1*%
%TO.N,sck*%
X54250000Y-34626000D03*
%TO.P,MK1,2,WS_2*%
%TO.N,ws*%
X54250000Y-35448000D03*
D22*
%TO.P,MK1,3,L/R_3*%
%TO.N,GND*%
X52687500Y-36700000D03*
D21*
%TO.P,MK1,4,SD_4*%
%TO.N,sd*%
X52450000Y-35448000D03*
%TO.P,MK1,5,VDD_5*%
%TO.N,+3.3V*%
X52450000Y-34626000D03*
%TO.P,MK1,6,GND_6*%
%TO.N,GND*%
X53350000Y-34626000D03*
%TD*%
D23*
%TO.P,R9,1*%
%TO.N,+3.3V*%
X69575000Y-155500000D03*
%TO.P,R9,2*%
%TO.N,exp_int*%
X67925000Y-155500000D03*
%TD*%
D20*
%TO.P,TP_SCK,1*%
%TO.N,sck*%
X61500000Y-150250000D03*
%TD*%
%TO.P,TP_GND,1*%
%TO.N,GND*%
X45200000Y-152800000D03*
%TD*%
%TO.P,TP_VCC,1*%
%TO.N,VCC*%
X45200000Y-155200000D03*
%TD*%
%TO.P,TP_IR_REC,1*%
%TO.N,IR REC*%
X61500000Y-140000000D03*
%TD*%
%TO.P,TP_SDA,1*%
%TO.N,sda*%
X61500000Y-145000000D03*
%TD*%
%TO.P,TP_SCL,1*%
%TO.N,scl*%
X61500000Y-142500000D03*
%TD*%
%TO.P,TP_3V3,1*%
%TO.N,+3.3V*%
X45200000Y-150200000D03*
%TD*%
D24*
%TO.P,R8,1*%
%TO.N,bat_sense*%
X50250000Y-144075000D03*
%TO.P,R8,2*%
%TO.N,GND*%
X50250000Y-142425000D03*
%TD*%
D20*
%TO.P,TP_WS,1*%
%TO.N,ws*%
X61500000Y-147500000D03*
%TD*%
%TO.P,TP_ANO_ENC1,1*%
%TO.N,ano_enc1*%
X45250000Y-145000000D03*
%TD*%
%TO.P,TP_LED1,1*%
%TO.N,led_1*%
X45250000Y-140000000D03*
%TD*%
%TO.P,TP_IR_EMIT,1*%
%TO.N,IR EMIT*%
X61500000Y-152750000D03*
%TD*%
D25*
%TO.N,+3.3V*%
X37000000Y-149650000D03*
X36500000Y-33000000D03*
X57250000Y-123250000D03*
%TO.N,GND*%
X53350000Y-33350000D03*
X50750000Y-36750000D03*
X54900000Y-145350000D03*
%TO.N,sd*%
X66000000Y-138000000D03*
%TO.N,IR EMIT*%
X69500000Y-39000000D03*
%TO.N,exp_int*%
X48250000Y-126600000D03*
X58500000Y-156750000D03*
X48250000Y-138000000D03*
%TO.N,bat_sense*%
X58750000Y-146500000D03*
X51000000Y-146500000D03*
%TO.N,ano_sw5*%
X47879000Y-74676000D03*
%TD*%
%TO.N,GND*%
D26*
X52161700Y-142088300D02*
X51825000Y-142425000D01*
X50750000Y-36750000D02*
X52637500Y-36750000D01*
X51825000Y-142425000D02*
X50250000Y-142425000D01*
X53350000Y-33350000D02*
X53350000Y-34626000D01*
X52601400Y-142088300D02*
X52161700Y-142088300D01*
X52439700Y-142250000D02*
X52601400Y-142088300D01*
X52637500Y-36750000D02*
X52687500Y-36700000D01*
X54900000Y-145350000D02*
X54900000Y-155700000D01*
%TO.N,sd*%
X66000000Y-80000000D02*
X68000000Y-78000000D01*
X50500000Y-38500000D02*
X49750000Y-37750000D01*
X49750000Y-37750000D02*
X49750000Y-36250000D01*
X49750000Y-36250000D02*
X50538000Y-35462000D01*
X68000000Y-61004608D02*
X68000000Y-46352315D01*
X66737774Y-66340754D02*
X66737774Y-62266834D01*
X65443685Y-43796000D02*
X63664628Y-43796000D01*
X58368628Y-38500000D02*
X50500000Y-38500000D01*
X50538000Y-35462000D02*
X52437455Y-35462000D01*
X68000000Y-46352315D02*
X65443685Y-43796000D01*
X68000000Y-78000000D02*
X68000000Y-67602982D01*
X66000000Y-138000000D02*
X66000000Y-80000000D01*
X68000000Y-67602982D02*
X66737774Y-66340754D01*
X66737774Y-62266834D02*
X68000000Y-61004608D01*
X63664628Y-43796000D02*
X58368628Y-38500000D01*
%TO.N,IR EMIT*%
X70000000Y-148000000D02*
X65250000Y-152750000D01*
X65250000Y-152750000D02*
X61500000Y-152750000D01*
X69500000Y-61201666D02*
X67937774Y-62763892D01*
X67937774Y-65843698D02*
X70000000Y-67905924D01*
X69500000Y-39000000D02*
X69500000Y-61201666D01*
X70000000Y-67905924D02*
X70000000Y-148000000D01*
X67937774Y-62763892D02*
X67937774Y-65843698D01*
%TO.N,sck*%
X68800000Y-46020944D02*
X65775057Y-42996000D01*
X54000000Y-34590000D02*
X54050000Y-34640000D01*
X67537774Y-62598206D02*
X69000000Y-61135980D01*
X54264000Y-34640000D02*
X54250000Y-34626000D01*
X69000000Y-48000000D02*
X68800000Y-47800000D01*
X69000000Y-61135980D02*
X69000000Y-48000000D01*
X61500000Y-150250000D02*
X65250000Y-150250000D01*
X68800000Y-47800000D02*
X68800000Y-46020944D01*
X67537774Y-66009383D02*
X67537774Y-62598206D01*
X63996000Y-42996000D02*
X55640000Y-34640000D01*
X65775057Y-42996000D02*
X63996000Y-42996000D01*
X65250000Y-150250000D02*
X69000000Y-146500000D01*
X69000000Y-67471610D02*
X67537774Y-66009383D01*
X69000000Y-146500000D02*
X69000000Y-67471610D01*
X55640000Y-34640000D02*
X54264000Y-34640000D01*
%TO.N,ws*%
X55896314Y-35462000D02*
X63830314Y-43396000D01*
X68500000Y-67537296D02*
X68500000Y-144250000D01*
X67137774Y-66175069D02*
X68500000Y-67537296D01*
X68400000Y-46186630D02*
X68400000Y-49400000D01*
X67137774Y-62432520D02*
X67137774Y-66175069D01*
X54264000Y-35462000D02*
X55896314Y-35462000D01*
X65609371Y-43396000D02*
X68400000Y-46186630D01*
X65250000Y-147500000D02*
X61500000Y-147500000D01*
X68500000Y-144250000D02*
X65250000Y-147500000D01*
X63830314Y-43396000D02*
X65609371Y-43396000D01*
X68500000Y-49500000D02*
X68500000Y-61070294D01*
X54250000Y-35448000D02*
X54264000Y-35462000D01*
X68500000Y-61070294D02*
X67137774Y-62432520D01*
X68400000Y-49400000D02*
X68500000Y-49500000D01*
%TO.N,IR REC*%
X66337774Y-62101148D02*
X66337774Y-66506439D01*
X65277999Y-44196000D02*
X67500000Y-46418001D01*
X67500000Y-46418001D02*
X67500000Y-60938922D01*
X67500000Y-67668667D02*
X67500000Y-77500000D01*
X65000000Y-80000000D02*
X65000000Y-136415000D01*
X65000000Y-136415000D02*
X61415000Y-140000000D01*
X67500000Y-77500000D02*
X65000000Y-80000000D01*
X46482000Y-33020000D02*
X46482000Y-44196000D01*
X66337774Y-66506439D02*
X67500000Y-67668667D01*
X46482000Y-44196000D02*
X65277999Y-44196000D01*
X67500000Y-60938922D02*
X66337774Y-62101148D01*
%TO.N,ano_enc2*%
X45250000Y-142500000D02*
X45250000Y-142540000D01*
X56388000Y-131362000D02*
X45250000Y-142500000D01*
X59885264Y-74261954D02*
X56388000Y-77759218D01*
X56388000Y-77759218D02*
X56388000Y-131362000D01*
%TO.N,ano_enc1*%
X63246000Y-70739000D02*
X63246000Y-75692000D01*
X63246000Y-75692000D02*
X58166000Y-80772000D01*
X58166000Y-132084000D02*
X45330000Y-144920000D01*
X59885264Y-67378264D02*
X63246000Y-70739000D01*
X45330000Y-144920000D02*
X45330000Y-145000000D01*
X59885264Y-61166020D02*
X59885264Y-67378264D01*
X58166000Y-80772000D02*
X58166000Y-132084000D01*
%TO.N,exp_int*%
X67925000Y-155500000D02*
X66675000Y-156750000D01*
X48250000Y-126600000D02*
X48250000Y-138000000D01*
X66675000Y-156750000D02*
X58500000Y-156750000D01*
%TO.N,bat_sense*%
X50250000Y-144075000D02*
X50250000Y-145750000D01*
X50250000Y-145750000D02*
X51000000Y-146500000D01*
X58825000Y-146425000D02*
X58750000Y-146500000D01*
X58825000Y-142250000D02*
X58825000Y-146425000D01*
%TO.N,BAT*%
X52900000Y-145350000D02*
X52900000Y-155700000D01*
X57175000Y-142250000D02*
X55303100Y-142250000D01*
X55303100Y-142250000D02*
X55141400Y-142088300D01*
X55141400Y-143108600D02*
X52900000Y-145350000D01*
X55141400Y-142088300D02*
X55141400Y-143108600D01*
%TO.N,Net-(D1-A)*%
X59000000Y-33258000D02*
X61497455Y-33258000D01*
%TO.N,ano_sw5*%
X47879000Y-74676000D02*
X46101000Y-72898000D01*
X38764882Y-72898000D02*
X37187136Y-71320254D01*
X46101000Y-72898000D02*
X38764882Y-72898000D01*
%TD*%
%TA.AperFunction,Conductor*%
%TO.N,+3.3V*%
G36*
X40279994Y-28734185D02*
G01*
X40325749Y-28786989D01*
X40336955Y-28838500D01*
X40336955Y-30779891D01*
X40371063Y-30907187D01*
X40404009Y-30964250D01*
X40436955Y-31021314D01*
X40530141Y-31114500D01*
X40644269Y-31180392D01*
X40771563Y-31214500D01*
X40771565Y-31214500D01*
X47003345Y-31214500D01*
X47003347Y-31214500D01*
X47130641Y-31180392D01*
X47244769Y-31114500D01*
X47337955Y-31021314D01*
X47403847Y-30907186D01*
X47437955Y-30779892D01*
X47437955Y-28838500D01*
X47457640Y-28771461D01*
X47510444Y-28725706D01*
X47561955Y-28714500D01*
X59112955Y-28714500D01*
X59179994Y-28734185D01*
X59225749Y-28786989D01*
X59236955Y-28838500D01*
X59236955Y-30779891D01*
X59271063Y-30907187D01*
X59304009Y-30964250D01*
X59336955Y-31021314D01*
X59430141Y-31114500D01*
X59544269Y-31180392D01*
X59671563Y-31214500D01*
X59671565Y-31214500D01*
X65903345Y-31214500D01*
X65903347Y-31214500D01*
X66030641Y-31180392D01*
X66144769Y-31114500D01*
X66237955Y-31021314D01*
X66303847Y-30907186D01*
X66337955Y-30779892D01*
X66337955Y-28838500D01*
X66357640Y-28771461D01*
X66410444Y-28725706D01*
X66461955Y-28714500D01*
X71212955Y-28714500D01*
X71279994Y-28734185D01*
X71325749Y-28786989D01*
X71336955Y-28838500D01*
X71336955Y-63674744D01*
X71317270Y-63741783D01*
X71264466Y-63787538D01*
X71195308Y-63797482D01*
X71131752Y-63768457D01*
X71095024Y-63713063D01*
X71017351Y-63474013D01*
X70974561Y-63390035D01*
X70899408Y-63242539D01*
X70746705Y-63032361D01*
X70563003Y-62848659D01*
X70462991Y-62775996D01*
X70352828Y-62695958D01*
X70352827Y-62695957D01*
X70352825Y-62695956D01*
X70280538Y-62659124D01*
X70121350Y-62578012D01*
X69874267Y-62497730D01*
X69617676Y-62457090D01*
X69617671Y-62457090D01*
X69357877Y-62457090D01*
X69253012Y-62473698D01*
X69183718Y-62464742D01*
X69130267Y-62419745D01*
X69109628Y-62352994D01*
X69128353Y-62285680D01*
X69145927Y-62263551D01*
X69797104Y-61612373D01*
X69797109Y-61612370D01*
X69807312Y-61602166D01*
X69807314Y-61602166D01*
X69900500Y-61508980D01*
X69966392Y-61394852D01*
X69971012Y-61377609D01*
X70000500Y-61267559D01*
X70000500Y-61135774D01*
X70000500Y-39541518D01*
X70020185Y-39474479D01*
X70036823Y-39453833D01*
X70044114Y-39446542D01*
X70120775Y-39331811D01*
X70173580Y-39204328D01*
X70200500Y-39068993D01*
X70200500Y-38931007D01*
X70200500Y-38931004D01*
X70173581Y-38795677D01*
X70173580Y-38795676D01*
X70173580Y-38795672D01*
X70173578Y-38795667D01*
X70120778Y-38668195D01*
X70120771Y-38668182D01*
X70044114Y-38553458D01*
X70044111Y-38553454D01*
X69946545Y-38455888D01*
X69946541Y-38455885D01*
X69831817Y-38379228D01*
X69831804Y-38379221D01*
X69704332Y-38326421D01*
X69704322Y-38326418D01*
X69568995Y-38299500D01*
X69568993Y-38299500D01*
X69431007Y-38299500D01*
X69431005Y-38299500D01*
X69295677Y-38326418D01*
X69295667Y-38326421D01*
X69168195Y-38379221D01*
X69168182Y-38379228D01*
X69053458Y-38455885D01*
X69053454Y-38455888D01*
X68955888Y-38553454D01*
X68955885Y-38553458D01*
X68879228Y-38668182D01*
X68879221Y-38668195D01*
X68826421Y-38795667D01*
X68826418Y-38795677D01*
X68799500Y-38931004D01*
X68799500Y-38931007D01*
X68799500Y-39068993D01*
X68799500Y-39068995D01*
X68799499Y-39068995D01*
X68826418Y-39204322D01*
X68826421Y-39204332D01*
X68879221Y-39331804D01*
X68879228Y-39331817D01*
X68955885Y-39446541D01*
X68963177Y-39453833D01*
X68996665Y-39515155D01*
X68999500Y-39541518D01*
X68999500Y-45213267D01*
X68979815Y-45280306D01*
X68927011Y-45326061D01*
X68857853Y-45336005D01*
X68794297Y-45306980D01*
X68787819Y-45300948D01*
X66082373Y-42595502D01*
X66082371Y-42595500D01*
X66025307Y-42562554D01*
X65968244Y-42529608D01*
X65904596Y-42512554D01*
X65840950Y-42495500D01*
X65840949Y-42495500D01*
X64254676Y-42495500D01*
X64187637Y-42475815D01*
X64166995Y-42459181D01*
X55947316Y-34239502D01*
X55947314Y-34239500D01*
X55890250Y-34206554D01*
X55833187Y-34173608D01*
X55730695Y-34146146D01*
X55705892Y-34139500D01*
X55705891Y-34139500D01*
X54942254Y-34139500D01*
X54875215Y-34119815D01*
X54854577Y-34103185D01*
X54788342Y-34036950D01*
X54730702Y-34007580D01*
X54675301Y-33979352D01*
X54581524Y-33964500D01*
X54013875Y-33964500D01*
X53946836Y-33944815D01*
X53901081Y-33892011D01*
X53891137Y-33822853D01*
X53910774Y-33771608D01*
X53970770Y-33681819D01*
X53970771Y-33681816D01*
X53970775Y-33681811D01*
X54008977Y-33589582D01*
X56450001Y-33589582D01*
X56456408Y-33660102D01*
X56456409Y-33660107D01*
X56506981Y-33822396D01*
X56594927Y-33967877D01*
X56715122Y-34088072D01*
X56860604Y-34176019D01*
X56860603Y-34176019D01*
X57022894Y-34226590D01*
X57022893Y-34226590D01*
X57093408Y-34232998D01*
X57093426Y-34232999D01*
X57099999Y-34232998D01*
X57100000Y-34232998D01*
X57100000Y-33508000D01*
X56450001Y-33508000D01*
X56450001Y-33589582D01*
X54008977Y-33589582D01*
X54023580Y-33554328D01*
X54050500Y-33418993D01*
X54050500Y-33281007D01*
X54050500Y-33281004D01*
X54023581Y-33145677D01*
X54023580Y-33145676D01*
X54023580Y-33145672D01*
X54013920Y-33122351D01*
X53970778Y-33018195D01*
X53970768Y-33018177D01*
X53953616Y-32992507D01*
X53953615Y-32992506D01*
X53909462Y-32926427D01*
X56450000Y-32926427D01*
X56450000Y-33008000D01*
X57100000Y-33008000D01*
X57100000Y-32283000D01*
X57600000Y-32283000D01*
X57600000Y-34232999D01*
X57606581Y-34232999D01*
X57677102Y-34226591D01*
X57677107Y-34226590D01*
X57839396Y-34176018D01*
X57984877Y-34088072D01*
X58105070Y-33967879D01*
X58130856Y-33925224D01*
X58182383Y-33878036D01*
X58251243Y-33866197D01*
X58315572Y-33893465D01*
X58335349Y-33913886D01*
X58371715Y-33961279D01*
X58371716Y-33961280D01*
X58371718Y-33961282D01*
X58497159Y-34057536D01*
X58643238Y-34118044D01*
X58760639Y-34133500D01*
X59239360Y-34133499D01*
X59239363Y-34133499D01*
X59356753Y-34118046D01*
X59356757Y-34118044D01*
X59356762Y-34118044D01*
X59502841Y-34057536D01*
X59628282Y-33961282D01*
X59724536Y-33835841D01*
X59724864Y-33835050D01*
X59725318Y-33834486D01*
X59728602Y-33828799D01*
X59729488Y-33829310D01*
X59768704Y-33780645D01*
X59834997Y-33758579D01*
X59839426Y-33758500D01*
X60216900Y-33758500D01*
X60283939Y-33778185D01*
X60327385Y-33826205D01*
X60347152Y-33864999D01*
X60380963Y-33931358D01*
X60385170Y-33939613D01*
X60505483Y-34105213D01*
X60650241Y-34249971D01*
X60805204Y-34362556D01*
X60815845Y-34370287D01*
X60932062Y-34429503D01*
X60998231Y-34463218D01*
X60998233Y-34463218D01*
X60998236Y-34463220D01*
X61068500Y-34486050D01*
X61192920Y-34526477D01*
X61294012Y-34542488D01*
X61395103Y-34558500D01*
X61395104Y-34558500D01*
X61599806Y-34558500D01*
X61599807Y-34558500D01*
X61801989Y-34526477D01*
X61996674Y-34463220D01*
X62179065Y-34370287D01*
X62314534Y-34271864D01*
X62344668Y-34249971D01*
X62344670Y-34249968D01*
X62344674Y-34249966D01*
X62489421Y-34105219D01*
X62512635Y-34073266D01*
X62567963Y-34030599D01*
X62637576Y-34024618D01*
X62699373Y-34057222D01*
X62733732Y-34118060D01*
X62736955Y-34146146D01*
X62736955Y-34189516D01*
X62744903Y-34239696D01*
X62751809Y-34283304D01*
X62809405Y-34396342D01*
X62809407Y-34396344D01*
X62809409Y-34396347D01*
X62899107Y-34486045D01*
X62899109Y-34486046D01*
X62899113Y-34486050D01*
X63012149Y-34543645D01*
X63012153Y-34543647D01*
X63105930Y-34558499D01*
X63105936Y-34558500D01*
X64968973Y-34558499D01*
X65062759Y-34543646D01*
X65175797Y-34486050D01*
X65265505Y-34396342D01*
X65323101Y-34283304D01*
X65323101Y-34283302D01*
X65323102Y-34283301D01*
X65337954Y-34189524D01*
X65337955Y-34189519D01*
X65337954Y-32326482D01*
X65323101Y-32232696D01*
X65265505Y-32119658D01*
X65265501Y-32119654D01*
X65265500Y-32119652D01*
X65175802Y-32029954D01*
X65175799Y-32029952D01*
X65175797Y-32029950D01*
X65096453Y-31989522D01*
X65062756Y-31972352D01*
X64968979Y-31957500D01*
X63105937Y-31957500D01*
X63024974Y-31970323D01*
X63012151Y-31972354D01*
X62899113Y-32029950D01*
X62899112Y-32029951D01*
X62899107Y-32029954D01*
X62809409Y-32119652D01*
X62809406Y-32119657D01*
X62751807Y-32232698D01*
X62736955Y-32326475D01*
X62736955Y-32369849D01*
X62717270Y-32436888D01*
X62664466Y-32482643D01*
X62595308Y-32492587D01*
X62531752Y-32463562D01*
X62512637Y-32442734D01*
X62489426Y-32410786D01*
X62344668Y-32266028D01*
X62179068Y-32145715D01*
X62179067Y-32145714D01*
X62179065Y-32145713D01*
X62106307Y-32108641D01*
X61996678Y-32052781D01*
X61801989Y-31989522D01*
X61627450Y-31961878D01*
X61599807Y-31957500D01*
X61395103Y-31957500D01*
X61370784Y-31961351D01*
X61192920Y-31989522D01*
X60998231Y-32052781D01*
X60815841Y-32145715D01*
X60650241Y-32266028D01*
X60505483Y-32410786D01*
X60385170Y-32576386D01*
X60327385Y-32689795D01*
X60279410Y-32740591D01*
X60216900Y-32757500D01*
X59839426Y-32757500D01*
X59772387Y-32737815D01*
X59726632Y-32685011D01*
X59724864Y-32680950D01*
X59724537Y-32680161D01*
X59724535Y-32680158D01*
X59701010Y-32649500D01*
X59655950Y-32590776D01*
X59628283Y-32554719D01*
X59584054Y-32520781D01*
X59502841Y-32458464D01*
X59464865Y-32442734D01*
X59356762Y-32397956D01*
X59356760Y-32397955D01*
X59239361Y-32382500D01*
X58760636Y-32382500D01*
X58643246Y-32397953D01*
X58643237Y-32397956D01*
X58497160Y-32458463D01*
X58497159Y-32458464D01*
X58371718Y-32554718D01*
X58371716Y-32554719D01*
X58371715Y-32554721D01*
X58335348Y-32602114D01*
X58278920Y-32643316D01*
X58209174Y-32647469D01*
X58148254Y-32613256D01*
X58130857Y-32590776D01*
X58105072Y-32548122D01*
X57984877Y-32427927D01*
X57839395Y-32339980D01*
X57839396Y-32339980D01*
X57677105Y-32289409D01*
X57677106Y-32289409D01*
X57606572Y-32283000D01*
X57600000Y-32283000D01*
X57100000Y-32283000D01*
X57099999Y-32282999D01*
X57093436Y-32283000D01*
X57093417Y-32283001D01*
X57022897Y-32289408D01*
X57022892Y-32289409D01*
X56860603Y-32339981D01*
X56715122Y-32427927D01*
X56594927Y-32548122D01*
X56506980Y-32693604D01*
X56456409Y-32855893D01*
X56450000Y-32926427D01*
X53909462Y-32926427D01*
X53894114Y-32903458D01*
X53894111Y-32903454D01*
X53796545Y-32805888D01*
X53796541Y-32805885D01*
X53681817Y-32729228D01*
X53681804Y-32729221D01*
X53554332Y-32676421D01*
X53554322Y-32676418D01*
X53418995Y-32649500D01*
X53418993Y-32649500D01*
X53281007Y-32649500D01*
X53281005Y-32649500D01*
X53145677Y-32676418D01*
X53145667Y-32676421D01*
X53018195Y-32729221D01*
X53018182Y-32729228D01*
X52903458Y-32805885D01*
X52903454Y-32805888D01*
X52805888Y-32903454D01*
X52805885Y-32903458D01*
X52729228Y-33018182D01*
X52729221Y-33018195D01*
X52676421Y-33145667D01*
X52676418Y-33145677D01*
X52649500Y-33281004D01*
X52649500Y-33281007D01*
X52649500Y-33418993D01*
X52649500Y-33418995D01*
X52649499Y-33418995D01*
X52676418Y-33554322D01*
X52676421Y-33554332D01*
X52729221Y-33681804D01*
X52729232Y-33681824D01*
X52734358Y-33689496D01*
X52755234Y-33756174D01*
X52736747Y-33823553D01*
X52718936Y-33846063D01*
X52700000Y-33864999D01*
X52700000Y-34139966D01*
X52686485Y-34196260D01*
X52664353Y-34239695D01*
X52664352Y-34239698D01*
X52649500Y-34333475D01*
X52649500Y-34502000D01*
X52629815Y-34569039D01*
X52577011Y-34614794D01*
X52525500Y-34626000D01*
X52450000Y-34626000D01*
X52450000Y-34662500D01*
X52430315Y-34729539D01*
X52377511Y-34775294D01*
X52326001Y-34786500D01*
X52118482Y-34786500D01*
X52037519Y-34799323D01*
X52024696Y-34801354D01*
X51911658Y-34858950D01*
X51911657Y-34858950D01*
X51904721Y-34862485D01*
X51848426Y-34876000D01*
X51650000Y-34876000D01*
X51633995Y-34892004D01*
X51630315Y-34904539D01*
X51577511Y-34950294D01*
X51526000Y-34961500D01*
X50472107Y-34961500D01*
X50397063Y-34981607D01*
X50397063Y-34981608D01*
X50344814Y-34995608D01*
X50344813Y-34995608D01*
X50344811Y-34995609D01*
X50230686Y-35061500D01*
X50230683Y-35061502D01*
X50137498Y-35154688D01*
X49425245Y-35866940D01*
X49425244Y-35866940D01*
X49425245Y-35866941D01*
X49349500Y-35942686D01*
X49283608Y-36056812D01*
X49262393Y-36135990D01*
X49249500Y-36184108D01*
X49249500Y-37684108D01*
X49249500Y-37815892D01*
X49260743Y-37857853D01*
X49283608Y-37943187D01*
X49286919Y-37948921D01*
X49349500Y-38057314D01*
X50192686Y-38900500D01*
X50306814Y-38966392D01*
X50434107Y-39000500D01*
X50434108Y-39000500D01*
X58109952Y-39000500D01*
X58176991Y-39020185D01*
X58197633Y-39036819D01*
X62644633Y-43483819D01*
X62678118Y-43545142D01*
X62673134Y-43614834D01*
X62631262Y-43670767D01*
X62565798Y-43695184D01*
X62556952Y-43695500D01*
X47106500Y-43695500D01*
X47039461Y-43675815D01*
X46993706Y-43623011D01*
X46982500Y-43571500D01*
X46982500Y-34444500D01*
X47002185Y-34377461D01*
X47054989Y-34331706D01*
X47106500Y-34320500D01*
X47199116Y-34320500D01*
X47199122Y-34320500D01*
X47235917Y-34317604D01*
X47237462Y-34317155D01*
X51650000Y-34317155D01*
X51650000Y-34376000D01*
X52200000Y-34376000D01*
X52200000Y-33865000D01*
X52102155Y-33865000D01*
X52042627Y-33871401D01*
X52042620Y-33871403D01*
X51907913Y-33921645D01*
X51907906Y-33921649D01*
X51792812Y-34007809D01*
X51792809Y-34007812D01*
X51706649Y-34122906D01*
X51706645Y-34122913D01*
X51656403Y-34257620D01*
X51656401Y-34257627D01*
X51650000Y-34317155D01*
X47237462Y-34317155D01*
X47393357Y-34271864D01*
X47534476Y-34188406D01*
X47650406Y-34072476D01*
X47733864Y-33931357D01*
X47779604Y-33773917D01*
X47782500Y-33737122D01*
X47782500Y-32302878D01*
X47779604Y-32266083D01*
X47733864Y-32108643D01*
X47663416Y-31989522D01*
X47650408Y-31967527D01*
X47650401Y-31967518D01*
X47534481Y-31851598D01*
X47534472Y-31851591D01*
X47448640Y-31800830D01*
X47393357Y-31768136D01*
X47235917Y-31722396D01*
X47235916Y-31722395D01*
X47235913Y-31722395D01*
X47199127Y-31719500D01*
X47199122Y-31719500D01*
X45764878Y-31719500D01*
X45764872Y-31719500D01*
X45728087Y-31722395D01*
X45728085Y-31722395D01*
X45649363Y-31745266D01*
X45570643Y-31768136D01*
X45570641Y-31768136D01*
X45570641Y-31768137D01*
X45429527Y-31851591D01*
X45429518Y-31851598D01*
X45313598Y-31967518D01*
X45313591Y-31967527D01*
X45230136Y-32108642D01*
X45230134Y-32108648D01*
X45202840Y-32202594D01*
X45165234Y-32261480D01*
X45101761Y-32290686D01*
X45032575Y-32280940D01*
X44983445Y-32240884D01*
X44933969Y-32172786D01*
X44933966Y-32172781D01*
X44789219Y-32028034D01*
X44789213Y-32028028D01*
X44623613Y-31907715D01*
X44623612Y-31907714D01*
X44623610Y-31907713D01*
X44566653Y-31878691D01*
X44441223Y-31814781D01*
X44246534Y-31751522D01*
X44062630Y-31722395D01*
X44044352Y-31719500D01*
X43839648Y-31719500D01*
X43821370Y-31722395D01*
X43637465Y-31751522D01*
X43442776Y-31814781D01*
X43260386Y-31907715D01*
X43094786Y-32028028D01*
X42950028Y-32172786D01*
X42829715Y-32338386D01*
X42782485Y-32431080D01*
X42734510Y-32481876D01*
X42666689Y-32498671D01*
X42600554Y-32476134D01*
X42561515Y-32431080D01*
X42559908Y-32427927D01*
X42514287Y-32338390D01*
X42488482Y-32302872D01*
X42393971Y-32172786D01*
X42249213Y-32028028D01*
X42083613Y-31907715D01*
X42083612Y-31907714D01*
X42083610Y-31907713D01*
X42026653Y-31878691D01*
X41901223Y-31814781D01*
X41706534Y-31751522D01*
X41522630Y-31722395D01*
X41504352Y-31719500D01*
X41299648Y-31719500D01*
X41281370Y-31722395D01*
X41097465Y-31751522D01*
X40902776Y-31814781D01*
X40720386Y-31907715D01*
X40554786Y-32028028D01*
X40410028Y-32172786D01*
X40289715Y-32338386D01*
X40196781Y-32520776D01*
X40133522Y-32715465D01*
X40101500Y-32917648D01*
X40101500Y-33122351D01*
X40133522Y-33324534D01*
X40196781Y-33519223D01*
X40260691Y-33644653D01*
X40283676Y-33689762D01*
X40289715Y-33701613D01*
X40410028Y-33867213D01*
X40554786Y-34011971D01*
X40700785Y-34118043D01*
X40720390Y-34132287D01*
X40832708Y-34189516D01*
X40902776Y-34225218D01*
X40902778Y-34225218D01*
X40902781Y-34225220D01*
X41007137Y-34259127D01*
X41097465Y-34288477D01*
X41198557Y-34304488D01*
X41299648Y-34320500D01*
X41299649Y-34320500D01*
X41504351Y-34320500D01*
X41504352Y-34320500D01*
X41706534Y-34288477D01*
X41901219Y-34225220D01*
X42083610Y-34132287D01*
X42214830Y-34036951D01*
X42249213Y-34011971D01*
X42249215Y-34011968D01*
X42249219Y-34011966D01*
X42393966Y-33867219D01*
X42393968Y-33867215D01*
X42393971Y-33867213D01*
X42514284Y-33701614D01*
X42514285Y-33701613D01*
X42514287Y-33701610D01*
X42561516Y-33608917D01*
X42609489Y-33558123D01*
X42677310Y-33541328D01*
X42743445Y-33563865D01*
X42782485Y-33608919D01*
X42829715Y-33701614D01*
X42950028Y-33867213D01*
X43094786Y-34011971D01*
X43240785Y-34118043D01*
X43260390Y-34132287D01*
X43372708Y-34189516D01*
X43442776Y-34225218D01*
X43442778Y-34225218D01*
X43442781Y-34225220D01*
X43547137Y-34259127D01*
X43637465Y-34288477D01*
X43738557Y-34304488D01*
X43839648Y-34320500D01*
X43839649Y-34320500D01*
X44044351Y-34320500D01*
X44044352Y-34320500D01*
X44246534Y-34288477D01*
X44441219Y-34225220D01*
X44623610Y-34132287D01*
X44754830Y-34036951D01*
X44789213Y-34011971D01*
X44789215Y-34011968D01*
X44789219Y-34011966D01*
X44933966Y-33867219D01*
X44983445Y-33799115D01*
X45038774Y-33756449D01*
X45108388Y-33750469D01*
X45170183Y-33783074D01*
X45202840Y-33837405D01*
X45230134Y-33931352D01*
X45230136Y-33931357D01*
X45313591Y-34072472D01*
X45313598Y-34072481D01*
X45429518Y-34188401D01*
X45429522Y-34188404D01*
X45429524Y-34188406D01*
X45570643Y-34271864D01*
X45728083Y-34317604D01*
X45764878Y-34320500D01*
X45857500Y-34320500D01*
X45924539Y-34340185D01*
X45970294Y-34392989D01*
X45981500Y-34444500D01*
X45981500Y-44261891D01*
X46015608Y-44389187D01*
X46048554Y-44446250D01*
X46081500Y-44503314D01*
X46174686Y-44596500D01*
X46288814Y-44662392D01*
X46416108Y-44696500D01*
X65019323Y-44696500D01*
X65086362Y-44716185D01*
X65107004Y-44732819D01*
X66963181Y-46588996D01*
X66996666Y-46650319D01*
X66999500Y-46676677D01*
X66999500Y-60680246D01*
X66979815Y-60747285D01*
X66963181Y-60767927D01*
X65937276Y-61793831D01*
X65937274Y-61793834D01*
X65871382Y-61907960D01*
X65859317Y-61952989D01*
X65837274Y-62035256D01*
X65837274Y-66572331D01*
X65871382Y-66699625D01*
X65895417Y-66741254D01*
X65937274Y-66813753D01*
X66963182Y-67839662D01*
X66996666Y-67900983D01*
X66999500Y-67927341D01*
X66999500Y-77241324D01*
X66979815Y-77308363D01*
X66963181Y-77329005D01*
X65862642Y-78429543D01*
X65801319Y-78463028D01*
X65731627Y-78458044D01*
X65675694Y-78416172D01*
X65651277Y-78350708D01*
X65655186Y-78309770D01*
X65657811Y-78299969D01*
X65681994Y-78209717D01*
X65681994Y-78077932D01*
X65647886Y-77950639D01*
X65618938Y-77900500D01*
X65581994Y-77836510D01*
X65488809Y-77743325D01*
X65488806Y-77743323D01*
X64958477Y-77212995D01*
X64428147Y-76682665D01*
X64371083Y-76649719D01*
X64314020Y-76616773D01*
X64250372Y-76599719D01*
X64186725Y-76582665D01*
X64054940Y-76582665D01*
X63927645Y-76616773D01*
X63813519Y-76682665D01*
X63813516Y-76682667D01*
X63720331Y-76775853D01*
X62381865Y-78114318D01*
X62381864Y-78114318D01*
X62381865Y-78114319D01*
X62306120Y-78190064D01*
X62240228Y-78304190D01*
X62206120Y-78431486D01*
X62206120Y-78563269D01*
X62240228Y-78690565D01*
X62250476Y-78708314D01*
X62306120Y-78804692D01*
X62836450Y-79335022D01*
X63459966Y-79958539D01*
X63558801Y-80015602D01*
X63574090Y-80024429D01*
X63574094Y-80024431D01*
X63701387Y-80058539D01*
X63701388Y-80058539D01*
X63701389Y-80058539D01*
X63833169Y-80058539D01*
X63833172Y-80058539D01*
X63926360Y-80033570D01*
X63960467Y-80024432D01*
X64001166Y-80000932D01*
X64074594Y-79958539D01*
X64167780Y-79865354D01*
X64167780Y-79865353D01*
X64177981Y-79855153D01*
X64177989Y-79855143D01*
X64318856Y-79714275D01*
X64380177Y-79680792D01*
X64449869Y-79685776D01*
X64505802Y-79727648D01*
X64530219Y-79793112D01*
X64526310Y-79834050D01*
X64520657Y-79855149D01*
X64499500Y-79934108D01*
X64499500Y-136156323D01*
X64479815Y-136223362D01*
X64463181Y-136244004D01*
X61644004Y-139063181D01*
X61582681Y-139096666D01*
X61556323Y-139099500D01*
X61411306Y-139099500D01*
X61237341Y-139134103D01*
X61237332Y-139134106D01*
X61073459Y-139201983D01*
X61073446Y-139201990D01*
X60925965Y-139300535D01*
X60925961Y-139300538D01*
X60800538Y-139425961D01*
X60800535Y-139425965D01*
X60701990Y-139573446D01*
X60701983Y-139573459D01*
X60634106Y-139737332D01*
X60634103Y-139737341D01*
X60599500Y-139911304D01*
X60599500Y-140088695D01*
X60634103Y-140262658D01*
X60634106Y-140262667D01*
X60701983Y-140426540D01*
X60701990Y-140426553D01*
X60800535Y-140574034D01*
X60800538Y-140574038D01*
X60925961Y-140699461D01*
X60925965Y-140699464D01*
X61073446Y-140798009D01*
X61073459Y-140798016D01*
X61160421Y-140834036D01*
X61237334Y-140865894D01*
X61237336Y-140865894D01*
X61237341Y-140865896D01*
X61411304Y-140900499D01*
X61411307Y-140900500D01*
X61411309Y-140900500D01*
X61588693Y-140900500D01*
X61588694Y-140900499D01*
X61646682Y-140888964D01*
X61762658Y-140865896D01*
X61762661Y-140865894D01*
X61762666Y-140865894D01*
X61926547Y-140798013D01*
X62074035Y-140699464D01*
X62199464Y-140574035D01*
X62298013Y-140426547D01*
X62365894Y-140262666D01*
X62400500Y-140088691D01*
X62400500Y-139911309D01*
X62400499Y-139911306D01*
X62395123Y-139884280D01*
X62382073Y-139818673D01*
X62388299Y-139749085D01*
X62416007Y-139706805D01*
X65287821Y-136834992D01*
X65349142Y-136801509D01*
X65418834Y-136806493D01*
X65474767Y-136848365D01*
X65499184Y-136913829D01*
X65499500Y-136922675D01*
X65499500Y-137458481D01*
X65479815Y-137525520D01*
X65463181Y-137546162D01*
X65455888Y-137553454D01*
X65455885Y-137553458D01*
X65379228Y-137668182D01*
X65379221Y-137668195D01*
X65326421Y-137795667D01*
X65326418Y-137795677D01*
X65299500Y-137931004D01*
X65299500Y-137931007D01*
X65299500Y-138068993D01*
X65299500Y-138068995D01*
X65299499Y-138068995D01*
X65326418Y-138204322D01*
X65326421Y-138204332D01*
X65379221Y-138331804D01*
X65379228Y-138331817D01*
X65455885Y-138446541D01*
X65455888Y-138446545D01*
X65553454Y-138544111D01*
X65553458Y-138544114D01*
X65668182Y-138620771D01*
X65668195Y-138620778D01*
X65795667Y-138673578D01*
X65795672Y-138673580D01*
X65795676Y-138673580D01*
X65795677Y-138673581D01*
X65931004Y-138700500D01*
X65931007Y-138700500D01*
X66068995Y-138700500D01*
X66162501Y-138681900D01*
X66204328Y-138673580D01*
X66331811Y-138620775D01*
X66446542Y-138544114D01*
X66544114Y-138446542D01*
X66620775Y-138331811D01*
X66673580Y-138204328D01*
X66682389Y-138160041D01*
X66700500Y-138068995D01*
X66700500Y-137931004D01*
X66673581Y-137795677D01*
X66673580Y-137795676D01*
X66673580Y-137795672D01*
X66673578Y-137795667D01*
X66620778Y-137668195D01*
X66620771Y-137668182D01*
X66544114Y-137553458D01*
X66544111Y-137553454D01*
X66536819Y-137546162D01*
X66503334Y-137484839D01*
X66500500Y-137458481D01*
X66500500Y-80258676D01*
X66520185Y-80191637D01*
X66536819Y-80170995D01*
X67787819Y-78919995D01*
X67849142Y-78886510D01*
X67918834Y-78891494D01*
X67974767Y-78933366D01*
X67999184Y-78998830D01*
X67999500Y-79007676D01*
X67999500Y-143991324D01*
X67979815Y-144058363D01*
X67963181Y-144079005D01*
X65079005Y-146963181D01*
X65017682Y-146996666D01*
X64991324Y-146999500D01*
X62314878Y-146999500D01*
X62247839Y-146979815D01*
X62211775Y-146944390D01*
X62199462Y-146925962D01*
X62074038Y-146800538D01*
X62074034Y-146800535D01*
X61926553Y-146701990D01*
X61926540Y-146701983D01*
X61762667Y-146634106D01*
X61762658Y-146634103D01*
X61588694Y-146599500D01*
X61588691Y-146599500D01*
X61411309Y-146599500D01*
X61411306Y-146599500D01*
X61237341Y-146634103D01*
X61237332Y-146634106D01*
X61073459Y-146701983D01*
X61073446Y-146701990D01*
X60925965Y-146800535D01*
X60925961Y-146800538D01*
X60800538Y-146925961D01*
X60800535Y-146925965D01*
X60701990Y-147073446D01*
X60701983Y-147073459D01*
X60634106Y-147237332D01*
X60634103Y-147237341D01*
X60599500Y-147411304D01*
X60599500Y-147588695D01*
X60634103Y-147762658D01*
X60634106Y-147762667D01*
X60701983Y-147926540D01*
X60701990Y-147926553D01*
X60800535Y-148074034D01*
X60800538Y-148074038D01*
X60925961Y-148199461D01*
X60925965Y-148199464D01*
X61073446Y-148298009D01*
X61073459Y-148298016D01*
X61184935Y-148344190D01*
X61237334Y-148365894D01*
X61237336Y-148365894D01*
X61237341Y-148365896D01*
X61411304Y-148400499D01*
X61411307Y-148400500D01*
X61411309Y-148400500D01*
X61588693Y-148400500D01*
X61588694Y-148400499D01*
X61646682Y-148388964D01*
X61762658Y-148365896D01*
X61762661Y-148365894D01*
X61762666Y-148365894D01*
X61926547Y-148298013D01*
X62074035Y-148199464D01*
X62199464Y-148074035D01*
X62211775Y-148055609D01*
X62265387Y-148010804D01*
X62314878Y-148000500D01*
X65315890Y-148000500D01*
X65315892Y-148000500D01*
X65443186Y-147966392D01*
X65557314Y-147900500D01*
X68287819Y-145169995D01*
X68349142Y-145136510D01*
X68418834Y-145141494D01*
X68474767Y-145183366D01*
X68499184Y-145248830D01*
X68499500Y-145257676D01*
X68499500Y-146241324D01*
X68479815Y-146308363D01*
X68463181Y-146329005D01*
X65079005Y-149713181D01*
X65017682Y-149746666D01*
X64991324Y-149749500D01*
X62314878Y-149749500D01*
X62247839Y-149729815D01*
X62211775Y-149694390D01*
X62199462Y-149675962D01*
X62074038Y-149550538D01*
X62074034Y-149550535D01*
X61926553Y-149451990D01*
X61926540Y-149451983D01*
X61762667Y-149384106D01*
X61762658Y-149384103D01*
X61588694Y-149349500D01*
X61588691Y-149349500D01*
X61411309Y-149349500D01*
X61411306Y-149349500D01*
X61237341Y-149384103D01*
X61237332Y-149384106D01*
X61073459Y-149451983D01*
X61073446Y-149451990D01*
X60925965Y-149550535D01*
X60925961Y-149550538D01*
X60800538Y-149675961D01*
X60800535Y-149675965D01*
X60701990Y-149823446D01*
X60701983Y-149823459D01*
X60634106Y-149987332D01*
X60634103Y-149987341D01*
X60599500Y-150161304D01*
X60599500Y-150338695D01*
X60634103Y-150512658D01*
X60634106Y-150512667D01*
X60701983Y-150676540D01*
X60701990Y-150676553D01*
X60800535Y-150824034D01*
X60800538Y-150824038D01*
X60925961Y-150949461D01*
X60925965Y-150949464D01*
X61073446Y-151048009D01*
X61073459Y-151048016D01*
X61165614Y-151086187D01*
X61237334Y-151115894D01*
X61237336Y-151115894D01*
X61237341Y-151115896D01*
X61411304Y-151150499D01*
X61411307Y-151150500D01*
X61411309Y-151150500D01*
X61588693Y-151150500D01*
X61588694Y-151150499D01*
X61646682Y-151138964D01*
X61762658Y-151115896D01*
X61762661Y-151115894D01*
X61762666Y-151115894D01*
X61926547Y-151048013D01*
X62074035Y-150949464D01*
X62199464Y-150824035D01*
X62211775Y-150805609D01*
X62265387Y-150760804D01*
X62314878Y-150750500D01*
X65315890Y-150750500D01*
X65315892Y-150750500D01*
X65443186Y-150716392D01*
X65557314Y-150650500D01*
X69287819Y-146919995D01*
X69349142Y-146886510D01*
X69418834Y-146891494D01*
X69474767Y-146933366D01*
X69499184Y-146998830D01*
X69499500Y-147007676D01*
X69499500Y-147741324D01*
X69479815Y-147808363D01*
X69463181Y-147829005D01*
X65079005Y-152213181D01*
X65017682Y-152246666D01*
X64991324Y-152249500D01*
X62314878Y-152249500D01*
X62247839Y-152229815D01*
X62211775Y-152194390D01*
X62199462Y-152175962D01*
X62074038Y-152050538D01*
X62074034Y-152050535D01*
X61926553Y-151951990D01*
X61926540Y-151951983D01*
X61762667Y-151884106D01*
X61762658Y-151884103D01*
X61588694Y-151849500D01*
X61588691Y-151849500D01*
X61411309Y-151849500D01*
X61411306Y-151849500D01*
X61237341Y-151884103D01*
X61237332Y-151884106D01*
X61073459Y-151951983D01*
X61073446Y-151951990D01*
X60925965Y-152050535D01*
X60925961Y-152050538D01*
X60800538Y-152175961D01*
X60800535Y-152175965D01*
X60701990Y-152323446D01*
X60701983Y-152323459D01*
X60634106Y-152487332D01*
X60634103Y-152487341D01*
X60599500Y-152661304D01*
X60599500Y-152838695D01*
X60634103Y-153012658D01*
X60634106Y-153012667D01*
X60701983Y-153176540D01*
X60701990Y-153176553D01*
X60800535Y-153324034D01*
X60800538Y-153324038D01*
X60925961Y-153449461D01*
X60925965Y-153449464D01*
X61073446Y-153548009D01*
X61073459Y-153548016D01*
X61144243Y-153577335D01*
X61237334Y-153615894D01*
X61237336Y-153615894D01*
X61237341Y-153615896D01*
X61411304Y-153650499D01*
X61411307Y-153650500D01*
X61411309Y-153650500D01*
X61588693Y-153650500D01*
X61588694Y-153650499D01*
X61646682Y-153638964D01*
X61762658Y-153615896D01*
X61762661Y-153615894D01*
X61762666Y-153615894D01*
X61926547Y-153548013D01*
X62074035Y-153449464D01*
X62199464Y-153324035D01*
X62211775Y-153305609D01*
X62265387Y-153260804D01*
X62314878Y-153250500D01*
X65315890Y-153250500D01*
X65315892Y-153250500D01*
X65443186Y-153216392D01*
X65557314Y-153150500D01*
X70400499Y-148307315D01*
X70466392Y-148193186D01*
X70500500Y-148065893D01*
X70500500Y-147934108D01*
X70500500Y-67840032D01*
X70466392Y-67712738D01*
X70400500Y-67598610D01*
X70307314Y-67505424D01*
X68561387Y-65759497D01*
X68527902Y-65698174D01*
X68532886Y-65628482D01*
X68574758Y-65572549D01*
X68640222Y-65548132D01*
X68705361Y-65561330D01*
X68727379Y-65572549D01*
X68854197Y-65637167D01*
X68854199Y-65637167D01*
X68854202Y-65637169D01*
X69101281Y-65717450D01*
X69233480Y-65738387D01*
X69357872Y-65758090D01*
X69357877Y-65758090D01*
X69617676Y-65758090D01*
X69731072Y-65740129D01*
X69874267Y-65717450D01*
X70121346Y-65637169D01*
X70352825Y-65519224D01*
X70563003Y-65366521D01*
X70746705Y-65182819D01*
X70899408Y-64972641D01*
X71017353Y-64741162D01*
X71095024Y-64502117D01*
X71134462Y-64444441D01*
X71198820Y-64417243D01*
X71267667Y-64429158D01*
X71319142Y-64476402D01*
X71336955Y-64540435D01*
X71336955Y-157589500D01*
X71317270Y-157656539D01*
X71264466Y-157702294D01*
X71212955Y-157713500D01*
X55819455Y-157713500D01*
X55752416Y-157693815D01*
X55706661Y-157641011D01*
X55696717Y-157571853D01*
X55712723Y-157526379D01*
X55751744Y-157460398D01*
X55797598Y-157302569D01*
X55800500Y-157265694D01*
X55800500Y-156818995D01*
X57799499Y-156818995D01*
X57826418Y-156954322D01*
X57826421Y-156954332D01*
X57879221Y-157081804D01*
X57879228Y-157081817D01*
X57955885Y-157196541D01*
X57955888Y-157196545D01*
X58053454Y-157294111D01*
X58053458Y-157294114D01*
X58168182Y-157370771D01*
X58168195Y-157370778D01*
X58295667Y-157423578D01*
X58295672Y-157423580D01*
X58295676Y-157423580D01*
X58295677Y-157423581D01*
X58431004Y-157450500D01*
X58431007Y-157450500D01*
X58568995Y-157450500D01*
X58660041Y-157432389D01*
X58704328Y-157423580D01*
X58831811Y-157370775D01*
X58946542Y-157294114D01*
X58946545Y-157294111D01*
X58953838Y-157286819D01*
X59015161Y-157253334D01*
X59041519Y-157250500D01*
X66740890Y-157250500D01*
X66740892Y-157250500D01*
X66868186Y-157216392D01*
X66982314Y-157150500D01*
X67720995Y-156411817D01*
X67782318Y-156378333D01*
X67808676Y-156375499D01*
X68164363Y-156375499D01*
X68281753Y-156360046D01*
X68281757Y-156360044D01*
X68281762Y-156360044D01*
X68427841Y-156299536D01*
X68553282Y-156203282D01*
X68589649Y-156155886D01*
X68646077Y-156114684D01*
X68715823Y-156110529D01*
X68776743Y-156144741D01*
X68794142Y-156167223D01*
X68819927Y-156209877D01*
X68940122Y-156330072D01*
X69085604Y-156418019D01*
X69085603Y-156418019D01*
X69247894Y-156468590D01*
X69247893Y-156468590D01*
X69318408Y-156474998D01*
X69318426Y-156474999D01*
X69825000Y-156474999D01*
X69831581Y-156474999D01*
X69902102Y-156468591D01*
X69902107Y-156468590D01*
X70064396Y-156418018D01*
X70209877Y-156330072D01*
X70330072Y-156209877D01*
X70418019Y-156064395D01*
X70468590Y-155902106D01*
X70475000Y-155831572D01*
X70475000Y-155750000D01*
X69825000Y-155750000D01*
X69825000Y-156474999D01*
X69318426Y-156474999D01*
X69324999Y-156474998D01*
X69325000Y-156474998D01*
X69325000Y-155250000D01*
X69825000Y-155250000D01*
X70474999Y-155250000D01*
X70474999Y-155168417D01*
X70468591Y-155097897D01*
X70468590Y-155097892D01*
X70418018Y-154935603D01*
X70330072Y-154790122D01*
X70209877Y-154669927D01*
X70064395Y-154581980D01*
X70064396Y-154581980D01*
X69902105Y-154531409D01*
X69902106Y-154531409D01*
X69831572Y-154525000D01*
X69825000Y-154525000D01*
X69825000Y-155250000D01*
X69325000Y-155250000D01*
X69325000Y-154525000D01*
X69324999Y-154524999D01*
X69318436Y-154525000D01*
X69318417Y-154525001D01*
X69247897Y-154531408D01*
X69247892Y-154531409D01*
X69085603Y-154581981D01*
X68940122Y-154669927D01*
X68819928Y-154790121D01*
X68819925Y-154790125D01*
X68794141Y-154832777D01*
X68742613Y-154879964D01*
X68673753Y-154891802D01*
X68609425Y-154864532D01*
X68589650Y-154844113D01*
X68569872Y-154818338D01*
X68553282Y-154796718D01*
X68427841Y-154700464D01*
X68368695Y-154675965D01*
X68281762Y-154639956D01*
X68281760Y-154639955D01*
X68164361Y-154624500D01*
X67685636Y-154624500D01*
X67568246Y-154639953D01*
X67568237Y-154639956D01*
X67422160Y-154700463D01*
X67296718Y-154796718D01*
X67200463Y-154922160D01*
X67139956Y-155068237D01*
X67139955Y-155068239D01*
X67124501Y-155185629D01*
X67124500Y-155185645D01*
X67124500Y-155541323D01*
X67104815Y-155608362D01*
X67088181Y-155629004D01*
X66504005Y-156213181D01*
X66442682Y-156246666D01*
X66416324Y-156249500D01*
X62033774Y-156249500D01*
X61966735Y-156229815D01*
X61920980Y-156177011D01*
X61911036Y-156107853D01*
X61940061Y-156044297D01*
X61964883Y-156022398D01*
X62009965Y-155992274D01*
X62074035Y-155949464D01*
X62199464Y-155824035D01*
X62298013Y-155676547D01*
X62365894Y-155512666D01*
X62375840Y-155462667D01*
X62400499Y-155338695D01*
X62400500Y-155338693D01*
X62400500Y-155161306D01*
X62400499Y-155161304D01*
X62365896Y-154987341D01*
X62365893Y-154987332D01*
X62298016Y-154823459D01*
X62298009Y-154823446D01*
X62199464Y-154675965D01*
X62199461Y-154675961D01*
X62074038Y-154550538D01*
X62074034Y-154550535D01*
X61926553Y-154451990D01*
X61926540Y-154451983D01*
X61762667Y-154384106D01*
X61762658Y-154384103D01*
X61588694Y-154349500D01*
X61588691Y-154349500D01*
X61411309Y-154349500D01*
X61411306Y-154349500D01*
X61237341Y-154384103D01*
X61237332Y-154384106D01*
X61073459Y-154451983D01*
X61073446Y-154451990D01*
X60925965Y-154550535D01*
X60925961Y-154550538D01*
X60800538Y-154675961D01*
X60800535Y-154675965D01*
X60701990Y-154823446D01*
X60701983Y-154823459D01*
X60634106Y-154987332D01*
X60634103Y-154987341D01*
X60599500Y-155161304D01*
X60599500Y-155338695D01*
X60634103Y-155512658D01*
X60634106Y-155512667D01*
X60701983Y-155676540D01*
X60701990Y-155676553D01*
X60800535Y-155824034D01*
X60800538Y-155824038D01*
X60925961Y-155949461D01*
X60925965Y-155949464D01*
X61035117Y-156022398D01*
X61079922Y-156076010D01*
X61088629Y-156145335D01*
X61058474Y-156208363D01*
X60999031Y-156245082D01*
X60966226Y-156249500D01*
X59041519Y-156249500D01*
X58974480Y-156229815D01*
X58953838Y-156213181D01*
X58946545Y-156205888D01*
X58946541Y-156205885D01*
X58831817Y-156129228D01*
X58831804Y-156129221D01*
X58704332Y-156076421D01*
X58704322Y-156076418D01*
X58568995Y-156049500D01*
X58568993Y-156049500D01*
X58431007Y-156049500D01*
X58431005Y-156049500D01*
X58295677Y-156076418D01*
X58295667Y-156076421D01*
X58168195Y-156129221D01*
X58168182Y-156129228D01*
X58053458Y-156205885D01*
X58053454Y-156205888D01*
X57955888Y-156303454D01*
X57955885Y-156303458D01*
X57879228Y-156418182D01*
X57879221Y-156418195D01*
X57826421Y-156545667D01*
X57826418Y-156545677D01*
X57799500Y-156681004D01*
X57799500Y-156681007D01*
X57799500Y-156818993D01*
X57799500Y-156818995D01*
X57799499Y-156818995D01*
X55800500Y-156818995D01*
X55800500Y-154134306D01*
X55797598Y-154097431D01*
X55780923Y-154040037D01*
X55751745Y-153939606D01*
X55751744Y-153939603D01*
X55751744Y-153939602D01*
X55668081Y-153798135D01*
X55668079Y-153798133D01*
X55668076Y-153798129D01*
X55551870Y-153681923D01*
X55551867Y-153681921D01*
X55551865Y-153681919D01*
X55495712Y-153648710D01*
X55461378Y-153628405D01*
X55413695Y-153577335D01*
X55400500Y-153521673D01*
X55400500Y-148434298D01*
X56099500Y-148434298D01*
X56099500Y-151465701D01*
X56102401Y-151502567D01*
X56102402Y-151502573D01*
X56148253Y-151660392D01*
X56148255Y-151660395D01*
X56231917Y-151801861D01*
X56231923Y-151801869D01*
X56348130Y-151918076D01*
X56348134Y-151918079D01*
X56348136Y-151918081D01*
X56489603Y-152001744D01*
X56489604Y-152001744D01*
X56489607Y-152001746D01*
X56647426Y-152047597D01*
X56647429Y-152047597D01*
X56647431Y-152047598D01*
X56684306Y-152050500D01*
X56684314Y-152050500D01*
X57815686Y-152050500D01*
X57815694Y-152050500D01*
X57852569Y-152047598D01*
X57852571Y-152047597D01*
X57852573Y-152047597D01*
X58010392Y-152001746D01*
X58010393Y-152001745D01*
X58010397Y-152001744D01*
X58151864Y-151918081D01*
X58268081Y-151801864D01*
X58351744Y-151660397D01*
X58351745Y-151660393D01*
X58351746Y-151660392D01*
X58397597Y-151502573D01*
X58397598Y-151502567D01*
X58400499Y-151465701D01*
X58400500Y-151465694D01*
X58400500Y-148434306D01*
X58397598Y-148397431D01*
X58397597Y-148397426D01*
X58351746Y-148239607D01*
X58351744Y-148239604D01*
X58351744Y-148239603D01*
X58268081Y-148098136D01*
X58268079Y-148098134D01*
X58268076Y-148098130D01*
X58151869Y-147981923D01*
X58151861Y-147981917D01*
X58014191Y-147900500D01*
X58010397Y-147898256D01*
X58010396Y-147898255D01*
X58010395Y-147898255D01*
X58010392Y-147898253D01*
X57852573Y-147852402D01*
X57852567Y-147852401D01*
X57815701Y-147849500D01*
X57815694Y-147849500D01*
X56684306Y-147849500D01*
X56684298Y-147849500D01*
X56647432Y-147852401D01*
X56647426Y-147852402D01*
X56489607Y-147898253D01*
X56489604Y-147898255D01*
X56348138Y-147981917D01*
X56348130Y-147981923D01*
X56231923Y-148098130D01*
X56231917Y-148098138D01*
X56148255Y-148239604D01*
X56148253Y-148239607D01*
X56102402Y-148397426D01*
X56102401Y-148397432D01*
X56099500Y-148434298D01*
X55400500Y-148434298D01*
X55400500Y-145891518D01*
X55420185Y-145824479D01*
X55436823Y-145803833D01*
X55444114Y-145796542D01*
X55520775Y-145681811D01*
X55573580Y-145554328D01*
X55586112Y-145491324D01*
X55600500Y-145418995D01*
X55600500Y-145281004D01*
X55573581Y-145145677D01*
X55573580Y-145145676D01*
X55573580Y-145145672D01*
X55573578Y-145145667D01*
X55520778Y-145018195D01*
X55520771Y-145018182D01*
X55444114Y-144903458D01*
X55444111Y-144903454D01*
X55346545Y-144805888D01*
X55346541Y-144805885D01*
X55231817Y-144729228D01*
X55231804Y-144729221D01*
X55104332Y-144676421D01*
X55104322Y-144676418D01*
X54968995Y-144649500D01*
X54968993Y-144649500D01*
X54831007Y-144649500D01*
X54831005Y-144649500D01*
X54695677Y-144676418D01*
X54695676Y-144676419D01*
X54695675Y-144676419D01*
X54695672Y-144676420D01*
X54630824Y-144703281D01*
X54564390Y-144730798D01*
X54494920Y-144738266D01*
X54432441Y-144706990D01*
X54396789Y-144646901D01*
X54399284Y-144577076D01*
X54429255Y-144528557D01*
X55182694Y-143775119D01*
X55244017Y-143741634D01*
X55270375Y-143738800D01*
X55470991Y-143738800D01*
X55470994Y-143738800D01*
X55539057Y-143732615D01*
X55695670Y-143683812D01*
X55836053Y-143598948D01*
X55952048Y-143482953D01*
X56036912Y-143342570D01*
X56085715Y-143185957D01*
X56091900Y-143117894D01*
X56091900Y-142874500D01*
X56094450Y-142865814D01*
X56093162Y-142856853D01*
X56104140Y-142832812D01*
X56111585Y-142807461D01*
X56118425Y-142801533D01*
X56122187Y-142793297D01*
X56144421Y-142779007D01*
X56164389Y-142761706D01*
X56174903Y-142759418D01*
X56180965Y-142755523D01*
X56215900Y-142750500D01*
X56335574Y-142750500D01*
X56402613Y-142770185D01*
X56448368Y-142822989D01*
X56450136Y-142827050D01*
X56450462Y-142827838D01*
X56450464Y-142827841D01*
X56526203Y-142926547D01*
X56546718Y-142953282D01*
X56672159Y-143049536D01*
X56818238Y-143110044D01*
X56935639Y-143125500D01*
X57414360Y-143125499D01*
X57414363Y-143125499D01*
X57531753Y-143110046D01*
X57531757Y-143110044D01*
X57531762Y-143110044D01*
X57677841Y-143049536D01*
X57803282Y-142953282D01*
X57899536Y-142827841D01*
X57899535Y-142827841D01*
X57901624Y-142825120D01*
X57958052Y-142783917D01*
X58027798Y-142779762D01*
X58088718Y-142813974D01*
X58098376Y-142825120D01*
X58100464Y-142827841D01*
X58196718Y-142953282D01*
X58275986Y-143014106D01*
X58317189Y-143070534D01*
X58324500Y-143112482D01*
X58324500Y-145883481D01*
X58304815Y-145950520D01*
X58288181Y-145971162D01*
X58205888Y-146053454D01*
X58205885Y-146053458D01*
X58129228Y-146168182D01*
X58129221Y-146168195D01*
X58076421Y-146295667D01*
X58076418Y-146295677D01*
X58049500Y-146431004D01*
X58049500Y-146431007D01*
X58049500Y-146568993D01*
X58049500Y-146568995D01*
X58049499Y-146568995D01*
X58076418Y-146704322D01*
X58076421Y-146704332D01*
X58129221Y-146831804D01*
X58129228Y-146831817D01*
X58205885Y-146946541D01*
X58205888Y-146946545D01*
X58303454Y-147044111D01*
X58303458Y-147044114D01*
X58418182Y-147120771D01*
X58418195Y-147120778D01*
X58545667Y-147173578D01*
X58545672Y-147173580D01*
X58545676Y-147173580D01*
X58545677Y-147173581D01*
X58681004Y-147200500D01*
X58681007Y-147200500D01*
X58818995Y-147200500D01*
X58910041Y-147182389D01*
X58954328Y-147173580D01*
X59081811Y-147120775D01*
X59196542Y-147044114D01*
X59294114Y-146946542D01*
X59370775Y-146831811D01*
X59423580Y-146704328D01*
X59444432Y-146599500D01*
X59450500Y-146568995D01*
X59450500Y-146431004D01*
X59423581Y-146295677D01*
X59423580Y-146295676D01*
X59423580Y-146295672D01*
X59422343Y-146292686D01*
X59370776Y-146168190D01*
X59370774Y-146168187D01*
X59346398Y-146131705D01*
X59325520Y-146065028D01*
X59325500Y-146062815D01*
X59325500Y-144911304D01*
X60599500Y-144911304D01*
X60599500Y-145088695D01*
X60634103Y-145262658D01*
X60634106Y-145262667D01*
X60701983Y-145426540D01*
X60701990Y-145426553D01*
X60800535Y-145574034D01*
X60800538Y-145574038D01*
X60925961Y-145699461D01*
X60925965Y-145699464D01*
X61073446Y-145798009D01*
X61073459Y-145798016D01*
X61175196Y-145840156D01*
X61237334Y-145865894D01*
X61237336Y-145865894D01*
X61237341Y-145865896D01*
X61411304Y-145900499D01*
X61411307Y-145900500D01*
X61411309Y-145900500D01*
X61588693Y-145900500D01*
X61588694Y-145900499D01*
X61674251Y-145883481D01*
X61762658Y-145865896D01*
X61762661Y-145865894D01*
X61762666Y-145865894D01*
X61926547Y-145798013D01*
X62074035Y-145699464D01*
X62199464Y-145574035D01*
X62298013Y-145426547D01*
X62365894Y-145262666D01*
X62368647Y-145248830D01*
X62400499Y-145088695D01*
X62400500Y-145088693D01*
X62400500Y-144911306D01*
X62400499Y-144911304D01*
X62365896Y-144737341D01*
X62365893Y-144737332D01*
X62362533Y-144729221D01*
X62340663Y-144676420D01*
X62298016Y-144573459D01*
X62298009Y-144573446D01*
X62199464Y-144425965D01*
X62199461Y-144425961D01*
X62074038Y-144300538D01*
X62074034Y-144300535D01*
X61926553Y-144201990D01*
X61926540Y-144201983D01*
X61762667Y-144134106D01*
X61762658Y-144134103D01*
X61588694Y-144099500D01*
X61588691Y-144099500D01*
X61411309Y-144099500D01*
X61411306Y-144099500D01*
X61237341Y-144134103D01*
X61237332Y-144134106D01*
X61073459Y-144201983D01*
X61073446Y-144201990D01*
X60925965Y-144300535D01*
X60925961Y-144300538D01*
X60800538Y-144425961D01*
X60800535Y-144425965D01*
X60701990Y-144573446D01*
X60701983Y-144573459D01*
X60634106Y-144737332D01*
X60634103Y-144737341D01*
X60599500Y-144911304D01*
X59325500Y-144911304D01*
X59325500Y-143112482D01*
X59345185Y-143045443D01*
X59374014Y-143014106D01*
X59453282Y-142953282D01*
X59549536Y-142827841D01*
X59610044Y-142681762D01*
X59625500Y-142564361D01*
X59625500Y-142411304D01*
X60599500Y-142411304D01*
X60599500Y-142588695D01*
X60634103Y-142762658D01*
X60634106Y-142762667D01*
X60701983Y-142926540D01*
X60701990Y-142926553D01*
X60800535Y-143074034D01*
X60800538Y-143074038D01*
X60925961Y-143199461D01*
X60925965Y-143199464D01*
X61073446Y-143298009D01*
X61073459Y-143298016D01*
X61171727Y-143338719D01*
X61237334Y-143365894D01*
X61237336Y-143365894D01*
X61237341Y-143365896D01*
X61411304Y-143400499D01*
X61411307Y-143400500D01*
X61411309Y-143400500D01*
X61588693Y-143400500D01*
X61588694Y-143400499D01*
X61646682Y-143388964D01*
X61762658Y-143365896D01*
X61762661Y-143365894D01*
X61762666Y-143365894D01*
X61926547Y-143298013D01*
X62074035Y-143199464D01*
X62199464Y-143074035D01*
X62298013Y-142926547D01*
X62365894Y-142762666D01*
X62400500Y-142588691D01*
X62400500Y-142411309D01*
X62400500Y-142411306D01*
X62400499Y-142411304D01*
X62365896Y-142237341D01*
X62365893Y-142237332D01*
X62298016Y-142073459D01*
X62298009Y-142073446D01*
X62199464Y-141925965D01*
X62199461Y-141925961D01*
X62074038Y-141800538D01*
X62074034Y-141800535D01*
X61926553Y-141701990D01*
X61926540Y-141701983D01*
X61762667Y-141634106D01*
X61762658Y-141634103D01*
X61588694Y-141599500D01*
X61588691Y-141599500D01*
X61411309Y-141599500D01*
X61411306Y-141599500D01*
X61237341Y-141634103D01*
X61237332Y-141634106D01*
X61073459Y-141701983D01*
X61073446Y-141701990D01*
X60925965Y-141800535D01*
X60925961Y-141800538D01*
X60800538Y-141925961D01*
X60800535Y-141925965D01*
X60701990Y-142073446D01*
X60701983Y-142073459D01*
X60634106Y-142237332D01*
X60634103Y-142237341D01*
X60599500Y-142411304D01*
X59625500Y-142411304D01*
X59625499Y-142237341D01*
X59625499Y-141935636D01*
X59610046Y-141818246D01*
X59610044Y-141818241D01*
X59610044Y-141818238D01*
X59549536Y-141672159D01*
X59453282Y-141546718D01*
X59327841Y-141450464D01*
X59181762Y-141389956D01*
X59181760Y-141389955D01*
X59064361Y-141374500D01*
X58585636Y-141374500D01*
X58468246Y-141389953D01*
X58468237Y-141389956D01*
X58322160Y-141450463D01*
X58196718Y-141546718D01*
X58098376Y-141674880D01*
X58041947Y-141716082D01*
X57972201Y-141720237D01*
X57911281Y-141686024D01*
X57901624Y-141674880D01*
X57874825Y-141639955D01*
X57803282Y-141546718D01*
X57677841Y-141450464D01*
X57531762Y-141389956D01*
X57531760Y-141389955D01*
X57414361Y-141374500D01*
X56935636Y-141374500D01*
X56818246Y-141389953D01*
X56818237Y-141389956D01*
X56672160Y-141450463D01*
X56546716Y-141546719D01*
X56450464Y-141672158D01*
X56450462Y-141672161D01*
X56450136Y-141672950D01*
X56449681Y-141673513D01*
X56446398Y-141679201D01*
X56445511Y-141678689D01*
X56437592Y-141688516D01*
X56429287Y-141706703D01*
X56416117Y-141715166D01*
X56406296Y-141727355D01*
X56387326Y-141733669D01*
X56370509Y-141744477D01*
X56342953Y-141748439D01*
X56340003Y-141749421D01*
X56335574Y-141749500D01*
X56215900Y-141749500D01*
X56148861Y-141729815D01*
X56103106Y-141677011D01*
X56091900Y-141625500D01*
X56091900Y-141058708D01*
X56091900Y-141058706D01*
X56085715Y-140990643D01*
X56036912Y-140834030D01*
X56036911Y-140834027D01*
X55952051Y-140693651D01*
X55952048Y-140693647D01*
X55836052Y-140577651D01*
X55836048Y-140577648D01*
X55695672Y-140492788D01*
X55695663Y-140492785D01*
X55539064Y-140443987D01*
X55539062Y-140443986D01*
X55539057Y-140443985D01*
X55470994Y-140437800D01*
X54811806Y-140437800D01*
X54743743Y-140443985D01*
X54743739Y-140443986D01*
X54743735Y-140443987D01*
X54587136Y-140492785D01*
X54587127Y-140492788D01*
X54446751Y-140577648D01*
X54446747Y-140577651D01*
X54330751Y-140693647D01*
X54330748Y-140693651D01*
X54245888Y-140834027D01*
X54245885Y-140834036D01*
X54197087Y-140990635D01*
X54197085Y-140990645D01*
X54190900Y-141058708D01*
X54190900Y-143117891D01*
X54197085Y-143185958D01*
X54212593Y-143235724D01*
X54213745Y-143305584D01*
X54181889Y-143360295D01*
X52575245Y-144966940D01*
X52575244Y-144966940D01*
X52575245Y-144966941D01*
X52499500Y-145042686D01*
X52433608Y-145156812D01*
X52399500Y-145284108D01*
X52399500Y-153521673D01*
X52379815Y-153588712D01*
X52338622Y-153628405D01*
X52248135Y-153681919D01*
X52248129Y-153681923D01*
X52131923Y-153798129D01*
X52131917Y-153798137D01*
X52048255Y-153939603D01*
X52048254Y-153939606D01*
X52002402Y-154097426D01*
X52002401Y-154097432D01*
X51999500Y-154134298D01*
X51999500Y-157265701D01*
X52002401Y-157302567D01*
X52002402Y-157302573D01*
X52048254Y-157460393D01*
X52048255Y-157460396D01*
X52087277Y-157526379D01*
X52104460Y-157594103D01*
X52082300Y-157660366D01*
X52027834Y-157704129D01*
X51980545Y-157713500D01*
X35461955Y-157713500D01*
X35394916Y-157693815D01*
X35349161Y-157641011D01*
X35337955Y-157589500D01*
X35337955Y-155111304D01*
X44299500Y-155111304D01*
X44299500Y-155288695D01*
X44334103Y-155462658D01*
X44334106Y-155462667D01*
X44401983Y-155626540D01*
X44401990Y-155626553D01*
X44500535Y-155774034D01*
X44500538Y-155774038D01*
X44625961Y-155899461D01*
X44625965Y-155899464D01*
X44773446Y-155998009D01*
X44773459Y-155998016D01*
X44832324Y-156022398D01*
X44937334Y-156065894D01*
X44937336Y-156065894D01*
X44937341Y-156065896D01*
X45111304Y-156100499D01*
X45111307Y-156100500D01*
X45111309Y-156100500D01*
X45288693Y-156100500D01*
X45288694Y-156100499D01*
X45346682Y-156088964D01*
X45462658Y-156065896D01*
X45462661Y-156065894D01*
X45462666Y-156065894D01*
X45626547Y-155998013D01*
X45774035Y-155899464D01*
X45899464Y-155774035D01*
X45998013Y-155626547D01*
X46065894Y-155462666D01*
X46100500Y-155288691D01*
X46100500Y-155111309D01*
X46100500Y-155111306D01*
X46100499Y-155111304D01*
X46065896Y-154937341D01*
X46065893Y-154937332D01*
X45998016Y-154773459D01*
X45998009Y-154773446D01*
X45899464Y-154625965D01*
X45899461Y-154625961D01*
X45774038Y-154500538D01*
X45774034Y-154500535D01*
X45626553Y-154401990D01*
X45626540Y-154401983D01*
X45462667Y-154334106D01*
X45462658Y-154334103D01*
X45288694Y-154299500D01*
X45288691Y-154299500D01*
X45111309Y-154299500D01*
X45111306Y-154299500D01*
X44937341Y-154334103D01*
X44937332Y-154334106D01*
X44773459Y-154401983D01*
X44773446Y-154401990D01*
X44625965Y-154500535D01*
X44625961Y-154500538D01*
X44500538Y-154625961D01*
X44500535Y-154625965D01*
X44401990Y-154773446D01*
X44401983Y-154773459D01*
X44334106Y-154937332D01*
X44334103Y-154937341D01*
X44299500Y-155111304D01*
X35337955Y-155111304D01*
X35337955Y-152711304D01*
X44299500Y-152711304D01*
X44299500Y-152888695D01*
X44334103Y-153062658D01*
X44334106Y-153062667D01*
X44401983Y-153226540D01*
X44401990Y-153226553D01*
X44500535Y-153374034D01*
X44500538Y-153374038D01*
X44625961Y-153499461D01*
X44625965Y-153499464D01*
X44773446Y-153598009D01*
X44773459Y-153598016D01*
X44896363Y-153648923D01*
X44937334Y-153665894D01*
X44937336Y-153665894D01*
X44937341Y-153665896D01*
X45111304Y-153700499D01*
X45111307Y-153700500D01*
X45111309Y-153700500D01*
X45288693Y-153700500D01*
X45288694Y-153700499D01*
X45346682Y-153688964D01*
X45462658Y-153665896D01*
X45462661Y-153665894D01*
X45462666Y-153665894D01*
X45602535Y-153607958D01*
X45626540Y-153598016D01*
X45626540Y-153598015D01*
X45626547Y-153598013D01*
X45774035Y-153499464D01*
X45899464Y-153374035D01*
X45998013Y-153226547D01*
X46065894Y-153062666D01*
X46075840Y-153012667D01*
X46100499Y-152888695D01*
X46100500Y-152888693D01*
X46100500Y-152711306D01*
X46100499Y-152711304D01*
X46065896Y-152537341D01*
X46065893Y-152537332D01*
X45998016Y-152373459D01*
X45998009Y-152373446D01*
X45899464Y-152225965D01*
X45899461Y-152225961D01*
X45774038Y-152100538D01*
X45774034Y-152100535D01*
X45626553Y-152001990D01*
X45626540Y-152001983D01*
X45462667Y-151934106D01*
X45462658Y-151934103D01*
X45288694Y-151899500D01*
X45288691Y-151899500D01*
X45111309Y-151899500D01*
X45111306Y-151899500D01*
X44937341Y-151934103D01*
X44937332Y-151934106D01*
X44773459Y-152001983D01*
X44773446Y-152001990D01*
X44625965Y-152100535D01*
X44625961Y-152100538D01*
X44500538Y-152225961D01*
X44500535Y-152225965D01*
X44401990Y-152373446D01*
X44401983Y-152373459D01*
X44334106Y-152537332D01*
X44334103Y-152537341D01*
X44299500Y-152711304D01*
X35337955Y-152711304D01*
X35337955Y-151062572D01*
X44690979Y-151062572D01*
X44726328Y-151086192D01*
X44908306Y-151161569D01*
X44908318Y-151161572D01*
X45101504Y-151199999D01*
X45101508Y-151200000D01*
X45298492Y-151200000D01*
X45298495Y-151199999D01*
X45491681Y-151161572D01*
X45491693Y-151161569D01*
X45673676Y-151086190D01*
X45673680Y-151086187D01*
X45709019Y-151062573D01*
X45709020Y-151062572D01*
X45200001Y-150553553D01*
X45200000Y-150553553D01*
X44690979Y-151062572D01*
X35337955Y-151062572D01*
X35337955Y-150101504D01*
X44200000Y-150101504D01*
X44200000Y-150298495D01*
X44238427Y-150491681D01*
X44238430Y-150491693D01*
X44313808Y-150673673D01*
X44313809Y-150673675D01*
X44337425Y-150709019D01*
X44846446Y-150200000D01*
X44846446Y-150199999D01*
X44796719Y-150150272D01*
X44950000Y-150150272D01*
X44950000Y-150249728D01*
X44988060Y-150341614D01*
X45058386Y-150411940D01*
X45150272Y-150450000D01*
X45249728Y-150450000D01*
X45341614Y-150411940D01*
X45411940Y-150341614D01*
X45450000Y-150249728D01*
X45450000Y-150199999D01*
X45553553Y-150199999D01*
X45553553Y-150200000D01*
X46062572Y-150709020D01*
X46062573Y-150709019D01*
X46086187Y-150673680D01*
X46086190Y-150673676D01*
X46161569Y-150491693D01*
X46161572Y-150491681D01*
X46199999Y-150298495D01*
X46200000Y-150298492D01*
X46200000Y-150101508D01*
X46199999Y-150101504D01*
X46161572Y-149908318D01*
X46161569Y-149908306D01*
X46086192Y-149726328D01*
X46062572Y-149690979D01*
X45553553Y-150199999D01*
X45450000Y-150199999D01*
X45450000Y-150150272D01*
X45411940Y-150058386D01*
X45341614Y-149988060D01*
X45249728Y-149950000D01*
X45150272Y-149950000D01*
X45058386Y-149988060D01*
X44988060Y-150058386D01*
X44950000Y-150150272D01*
X44796719Y-150150272D01*
X44337426Y-149690978D01*
X44337426Y-149690979D01*
X44313813Y-149726318D01*
X44313809Y-149726325D01*
X44238429Y-149908310D01*
X44238427Y-149908318D01*
X44200000Y-150101504D01*
X35337955Y-150101504D01*
X35337955Y-149337426D01*
X44690978Y-149337426D01*
X45200000Y-149846446D01*
X45200001Y-149846446D01*
X45709020Y-149337426D01*
X45673675Y-149313809D01*
X45673673Y-149313808D01*
X45491693Y-149238430D01*
X45491681Y-149238427D01*
X45298495Y-149200000D01*
X45101504Y-149200000D01*
X44908318Y-149238427D01*
X44908310Y-149238429D01*
X44726325Y-149313809D01*
X44726318Y-149313813D01*
X44690979Y-149337426D01*
X44690978Y-149337426D01*
X35337955Y-149337426D01*
X35337955Y-147661304D01*
X44349500Y-147661304D01*
X44349500Y-147838695D01*
X44384103Y-148012658D01*
X44384106Y-148012667D01*
X44451983Y-148176540D01*
X44451990Y-148176553D01*
X44550535Y-148324034D01*
X44550538Y-148324038D01*
X44675961Y-148449461D01*
X44675965Y-148449464D01*
X44823446Y-148548009D01*
X44823459Y-148548016D01*
X44946363Y-148598923D01*
X44987334Y-148615894D01*
X44987336Y-148615894D01*
X44987341Y-148615896D01*
X45161304Y-148650499D01*
X45161307Y-148650500D01*
X45161309Y-148650500D01*
X45338693Y-148650500D01*
X45338694Y-148650499D01*
X45396682Y-148638964D01*
X45512658Y-148615896D01*
X45512661Y-148615894D01*
X45512666Y-148615894D01*
X45676547Y-148548013D01*
X45824035Y-148449464D01*
X45839201Y-148434298D01*
X49399500Y-148434298D01*
X49399500Y-151465701D01*
X49402401Y-151502567D01*
X49402402Y-151502573D01*
X49448253Y-151660392D01*
X49448255Y-151660395D01*
X49531917Y-151801861D01*
X49531923Y-151801869D01*
X49648130Y-151918076D01*
X49648134Y-151918079D01*
X49648136Y-151918081D01*
X49789603Y-152001744D01*
X49789604Y-152001744D01*
X49789607Y-152001746D01*
X49947426Y-152047597D01*
X49947429Y-152047597D01*
X49947431Y-152047598D01*
X49984306Y-152050500D01*
X49984314Y-152050500D01*
X51115686Y-152050500D01*
X51115694Y-152050500D01*
X51152569Y-152047598D01*
X51152571Y-152047597D01*
X51152573Y-152047597D01*
X51310392Y-152001746D01*
X51310393Y-152001745D01*
X51310397Y-152001744D01*
X51451864Y-151918081D01*
X51568081Y-151801864D01*
X51651744Y-151660397D01*
X51651745Y-151660393D01*
X51651746Y-151660392D01*
X51697597Y-151502573D01*
X51697598Y-151502567D01*
X51700499Y-151465701D01*
X51700500Y-151465694D01*
X51700500Y-148434306D01*
X51697598Y-148397431D01*
X51697597Y-148397426D01*
X51651746Y-148239607D01*
X51651744Y-148239604D01*
X51651744Y-148239603D01*
X51568081Y-148098136D01*
X51568079Y-148098134D01*
X51568076Y-148098130D01*
X51451869Y-147981923D01*
X51451861Y-147981917D01*
X51314191Y-147900500D01*
X51310397Y-147898256D01*
X51310396Y-147898255D01*
X51310395Y-147898255D01*
X51310392Y-147898253D01*
X51152573Y-147852402D01*
X51152567Y-147852401D01*
X51115701Y-147849500D01*
X51115694Y-147849500D01*
X49984306Y-147849500D01*
X49984298Y-147849500D01*
X49947432Y-147852401D01*
X49947426Y-147852402D01*
X49789607Y-147898253D01*
X49789604Y-147898255D01*
X49648138Y-147981917D01*
X49648130Y-147981923D01*
X49531923Y-148098130D01*
X49531917Y-148098138D01*
X49448255Y-148239604D01*
X49448253Y-148239607D01*
X49402402Y-148397426D01*
X49402401Y-148397432D01*
X49399500Y-148434298D01*
X45839201Y-148434298D01*
X45876073Y-148397426D01*
X45929310Y-148344190D01*
X45949461Y-148324038D01*
X45949464Y-148324035D01*
X46048013Y-148176547D01*
X46115894Y-148012666D01*
X46116265Y-148010804D01*
X46150499Y-147838695D01*
X46150500Y-147838693D01*
X46150500Y-147661306D01*
X46150499Y-147661304D01*
X46115896Y-147487341D01*
X46115893Y-147487332D01*
X46048016Y-147323459D01*
X46048009Y-147323446D01*
X45949464Y-147175965D01*
X45949461Y-147175961D01*
X45824038Y-147050538D01*
X45824034Y-147050535D01*
X45676553Y-146951990D01*
X45676540Y-146951983D01*
X45512667Y-146884106D01*
X45512658Y-146884103D01*
X45338694Y-146849500D01*
X45338691Y-146849500D01*
X45161309Y-146849500D01*
X45161306Y-146849500D01*
X44987341Y-146884103D01*
X44987332Y-146884106D01*
X44823459Y-146951983D01*
X44823446Y-146951990D01*
X44675965Y-147050535D01*
X44675961Y-147050538D01*
X44550538Y-147175961D01*
X44550535Y-147175965D01*
X44451990Y-147323446D01*
X44451983Y-147323459D01*
X44384106Y-147487332D01*
X44384103Y-147487341D01*
X44349500Y-147661304D01*
X35337955Y-147661304D01*
X35337955Y-144911304D01*
X44349500Y-144911304D01*
X44349500Y-145088695D01*
X44384103Y-145262658D01*
X44384106Y-145262667D01*
X44451983Y-145426540D01*
X44451990Y-145426553D01*
X44550535Y-145574034D01*
X44550538Y-145574038D01*
X44675961Y-145699461D01*
X44675965Y-145699464D01*
X44823446Y-145798009D01*
X44823459Y-145798016D01*
X44925196Y-145840156D01*
X44987334Y-145865894D01*
X44987336Y-145865894D01*
X44987341Y-145865896D01*
X45161304Y-145900499D01*
X45161307Y-145900500D01*
X45161309Y-145900500D01*
X45338693Y-145900500D01*
X45338694Y-145900499D01*
X45424251Y-145883481D01*
X45512658Y-145865896D01*
X45512661Y-145865894D01*
X45512666Y-145865894D01*
X45676547Y-145798013D01*
X45824035Y-145699464D01*
X45949464Y-145574035D01*
X46048013Y-145426547D01*
X46115894Y-145262666D01*
X46118647Y-145248830D01*
X46150499Y-145088695D01*
X46150500Y-145088693D01*
X46150500Y-144911310D01*
X46148938Y-144903458D01*
X46146176Y-144889572D01*
X46152402Y-144819984D01*
X46180110Y-144777702D01*
X48772174Y-142185638D01*
X49374500Y-142185638D01*
X49374500Y-142664363D01*
X49389953Y-142781753D01*
X49389956Y-142781762D01*
X49424771Y-142865814D01*
X49450464Y-142927841D01*
X49546718Y-143053282D01*
X49640835Y-143125500D01*
X49674880Y-143151624D01*
X49716082Y-143208053D01*
X49720237Y-143277799D01*
X49686024Y-143338719D01*
X49674880Y-143348376D01*
X49546718Y-143446718D01*
X49450463Y-143572160D01*
X49389956Y-143718237D01*
X49389955Y-143718239D01*
X49374500Y-143835638D01*
X49374500Y-144314363D01*
X49389953Y-144431753D01*
X49389956Y-144431762D01*
X49448643Y-144573446D01*
X49450464Y-144577841D01*
X49546718Y-144703282D01*
X49672159Y-144799536D01*
X49672944Y-144799861D01*
X49673507Y-144800315D01*
X49679196Y-144803599D01*
X49678684Y-144804485D01*
X49727350Y-144843697D01*
X49749421Y-144909989D01*
X49749500Y-144914425D01*
X49749500Y-145684108D01*
X49749500Y-145815892D01*
X49762700Y-145865155D01*
X49783608Y-145943187D01*
X49799760Y-145971162D01*
X49849500Y-146057314D01*
X49849502Y-146057316D01*
X50263181Y-146470995D01*
X50296666Y-146532318D01*
X50299500Y-146558676D01*
X50299500Y-146568993D01*
X50299500Y-146568995D01*
X50299499Y-146568995D01*
X50326418Y-146704322D01*
X50326421Y-146704332D01*
X50379221Y-146831804D01*
X50379228Y-146831817D01*
X50455885Y-146946541D01*
X50455888Y-146946545D01*
X50553454Y-147044111D01*
X50553458Y-147044114D01*
X50668182Y-147120771D01*
X50668195Y-147120778D01*
X50795667Y-147173578D01*
X50795672Y-147173580D01*
X50795676Y-147173580D01*
X50795677Y-147173581D01*
X50931004Y-147200500D01*
X50931007Y-147200500D01*
X51068995Y-147200500D01*
X51160041Y-147182389D01*
X51204328Y-147173580D01*
X51331811Y-147120775D01*
X51446542Y-147044114D01*
X51544114Y-146946542D01*
X51620775Y-146831811D01*
X51673580Y-146704328D01*
X51694432Y-146599500D01*
X51700500Y-146568995D01*
X51700500Y-146431004D01*
X51673581Y-146295677D01*
X51673580Y-146295676D01*
X51673580Y-146295672D01*
X51672343Y-146292686D01*
X51620778Y-146168195D01*
X51620771Y-146168182D01*
X51544114Y-146053458D01*
X51544111Y-146053454D01*
X51446545Y-145955888D01*
X51446541Y-145955885D01*
X51331817Y-145879228D01*
X51331804Y-145879221D01*
X51204332Y-145826421D01*
X51204322Y-145826418D01*
X51068995Y-145799500D01*
X51068993Y-145799500D01*
X51058676Y-145799500D01*
X50991637Y-145779815D01*
X50970995Y-145763181D01*
X50786819Y-145579005D01*
X50753334Y-145517682D01*
X50750500Y-145491324D01*
X50750500Y-144914425D01*
X50770185Y-144847386D01*
X50822989Y-144801631D01*
X50827022Y-144799875D01*
X50827841Y-144799536D01*
X50953282Y-144703282D01*
X51049536Y-144577841D01*
X51110044Y-144431762D01*
X51125500Y-144314361D01*
X51125499Y-143835640D01*
X51125499Y-143835638D01*
X51125499Y-143835636D01*
X51110046Y-143718246D01*
X51110044Y-143718239D01*
X51110044Y-143718238D01*
X51049536Y-143572159D01*
X50953282Y-143446718D01*
X50953280Y-143446717D01*
X50953280Y-143446716D01*
X50825120Y-143348376D01*
X50783917Y-143291948D01*
X50779762Y-143222202D01*
X50813974Y-143161282D01*
X50825120Y-143151624D01*
X50859165Y-143125500D01*
X50953282Y-143053282D01*
X51014106Y-142974013D01*
X51070534Y-142932811D01*
X51112482Y-142925500D01*
X51526900Y-142925500D01*
X51593939Y-142945185D01*
X51639694Y-142997989D01*
X51650900Y-143049500D01*
X51650900Y-143117894D01*
X51657085Y-143185957D01*
X51657086Y-143185962D01*
X51657087Y-143185964D01*
X51705885Y-143342563D01*
X51705888Y-143342572D01*
X51790748Y-143482948D01*
X51790751Y-143482952D01*
X51906747Y-143598948D01*
X51906751Y-143598951D01*
X52047127Y-143683811D01*
X52047130Y-143683812D01*
X52203743Y-143732615D01*
X52271806Y-143738800D01*
X52271809Y-143738800D01*
X52930991Y-143738800D01*
X52930994Y-143738800D01*
X52999057Y-143732615D01*
X53155670Y-143683812D01*
X53296053Y-143598948D01*
X53412048Y-143482953D01*
X53496912Y-143342570D01*
X53545715Y-143185957D01*
X53551900Y-143117894D01*
X53551900Y-141058706D01*
X53545715Y-140990643D01*
X53496912Y-140834030D01*
X53496911Y-140834027D01*
X53412051Y-140693651D01*
X53412048Y-140693647D01*
X53296052Y-140577651D01*
X53296048Y-140577648D01*
X53155672Y-140492788D01*
X53155663Y-140492785D01*
X52999064Y-140443987D01*
X52999062Y-140443986D01*
X52999057Y-140443985D01*
X52930994Y-140437800D01*
X52271806Y-140437800D01*
X52203743Y-140443985D01*
X52203739Y-140443986D01*
X52203735Y-140443987D01*
X52047136Y-140492785D01*
X52047127Y-140492788D01*
X51906751Y-140577648D01*
X51906747Y-140577651D01*
X51790751Y-140693647D01*
X51790748Y-140693651D01*
X51705888Y-140834027D01*
X51705885Y-140834036D01*
X51657087Y-140990635D01*
X51657085Y-140990645D01*
X51650900Y-141058708D01*
X51650900Y-141800500D01*
X51631215Y-141867539D01*
X51578411Y-141913294D01*
X51526900Y-141924500D01*
X51112482Y-141924500D01*
X51045443Y-141904815D01*
X51014106Y-141875986D01*
X51007624Y-141867539D01*
X50953282Y-141796718D01*
X50827841Y-141700464D01*
X50761416Y-141672950D01*
X50681762Y-141639956D01*
X50681760Y-141639955D01*
X50564361Y-141624500D01*
X49935636Y-141624500D01*
X49818246Y-141639953D01*
X49818237Y-141639956D01*
X49672160Y-141700463D01*
X49546718Y-141796718D01*
X49450463Y-141922160D01*
X49389956Y-142068237D01*
X49389955Y-142068239D01*
X49374500Y-142185638D01*
X48772174Y-142185638D01*
X58463104Y-132494707D01*
X58463109Y-132494704D01*
X58473312Y-132484500D01*
X58473314Y-132484500D01*
X58566500Y-132391314D01*
X58632392Y-132277186D01*
X58666500Y-132149892D01*
X58666500Y-82688020D01*
X59436845Y-82688020D01*
X59436845Y-82947825D01*
X59477485Y-83204416D01*
X59557767Y-83451499D01*
X59638879Y-83610687D01*
X59675711Y-83682974D01*
X59828414Y-83893152D01*
X60012116Y-84076854D01*
X60222294Y-84229557D01*
X60369790Y-84304710D01*
X60453768Y-84347500D01*
X60453770Y-84347500D01*
X60453773Y-84347502D01*
X60700852Y-84427783D01*
X60833051Y-84448720D01*
X60957443Y-84468423D01*
X60957448Y-84468423D01*
X61217247Y-84468423D01*
X61330643Y-84450462D01*
X61473838Y-84427783D01*
X61720917Y-84347502D01*
X61952396Y-84229557D01*
X62162574Y-84076854D01*
X62346276Y-83893152D01*
X62498979Y-83682974D01*
X62616924Y-83451495D01*
X62697205Y-83204416D01*
X62719884Y-83061221D01*
X62737845Y-82947825D01*
X62737845Y-82688020D01*
X62713338Y-82533292D01*
X62697205Y-82431430D01*
X62616924Y-82184351D01*
X62616922Y-82184348D01*
X62616922Y-82184346D01*
X62574132Y-82100368D01*
X62498979Y-81952872D01*
X62346276Y-81742694D01*
X62162574Y-81558992D01*
X61952396Y-81406289D01*
X61880109Y-81369457D01*
X61720921Y-81288345D01*
X61473838Y-81208063D01*
X61217247Y-81167423D01*
X61217242Y-81167423D01*
X60957448Y-81167423D01*
X60957443Y-81167423D01*
X60700851Y-81208063D01*
X60453768Y-81288345D01*
X60222290Y-81406291D01*
X60012119Y-81558989D01*
X60012113Y-81558994D01*
X59828416Y-81742691D01*
X59828411Y-81742697D01*
X59675713Y-81952868D01*
X59557767Y-82184346D01*
X59477485Y-82431429D01*
X59436845Y-82688020D01*
X58666500Y-82688020D01*
X58666500Y-81030676D01*
X58686185Y-80963637D01*
X58702819Y-80942995D01*
X61148437Y-78497377D01*
X63646500Y-75999314D01*
X63712392Y-75885186D01*
X63746500Y-75757892D01*
X63746500Y-75626107D01*
X63746500Y-70673108D01*
X63712392Y-70545814D01*
X63646500Y-70431686D01*
X63553314Y-70338500D01*
X60422083Y-67207269D01*
X60388598Y-67145946D01*
X60385764Y-67119588D01*
X60385764Y-62963347D01*
X60405449Y-62896308D01*
X60458253Y-62850553D01*
X60462301Y-62848790D01*
X60638045Y-62775996D01*
X60672224Y-62761839D01*
X60672227Y-62761837D01*
X60672233Y-62761835D01*
X60873796Y-62645462D01*
X61058445Y-62503776D01*
X61223020Y-62339201D01*
X61364706Y-62154552D01*
X61481079Y-61952989D01*
X61499731Y-61907960D01*
X61570143Y-61737967D01*
X61570142Y-61737967D01*
X61570146Y-61737960D01*
X61630385Y-61513146D01*
X61660764Y-61282392D01*
X61660764Y-61049648D01*
X61630385Y-60818894D01*
X61570146Y-60594080D01*
X61544666Y-60532564D01*
X61481083Y-60379059D01*
X61481075Y-60379043D01*
X61364710Y-60177495D01*
X61364706Y-60177488D01*
X61223020Y-59992839D01*
X61223015Y-59992833D01*
X61058450Y-59828268D01*
X61058443Y-59828262D01*
X60873804Y-59686584D01*
X60873802Y-59686582D01*
X60873796Y-59686578D01*
X60873791Y-59686575D01*
X60873788Y-59686573D01*
X60672240Y-59570208D01*
X60672224Y-59570200D01*
X60457211Y-59481140D01*
X60232386Y-59420898D01*
X60001646Y-59390521D01*
X60001641Y-59390520D01*
X60001636Y-59390520D01*
X59768892Y-59390520D01*
X59768886Y-59390520D01*
X59768881Y-59390521D01*
X59538141Y-59420898D01*
X59313316Y-59481140D01*
X59098303Y-59570200D01*
X59098287Y-59570208D01*
X58896739Y-59686573D01*
X58896723Y-59686584D01*
X58712084Y-59828262D01*
X58712077Y-59828268D01*
X58547512Y-59992833D01*
X58547506Y-59992840D01*
X58405828Y-60177479D01*
X58405817Y-60177495D01*
X58289452Y-60379043D01*
X58289444Y-60379059D01*
X58200384Y-60594072D01*
X58140142Y-60818897D01*
X58109765Y-61049637D01*
X58109764Y-61049654D01*
X58109764Y-61282385D01*
X58109765Y-61282402D01*
X58139594Y-61508982D01*
X58140143Y-61513146D01*
X58150722Y-61552629D01*
X58200384Y-61737967D01*
X58289444Y-61952980D01*
X58289452Y-61952996D01*
X58405817Y-62154544D01*
X58405828Y-62154560D01*
X58547506Y-62339199D01*
X58547512Y-62339206D01*
X58712077Y-62503771D01*
X58712083Y-62503776D01*
X58896732Y-62645462D01*
X58896739Y-62645466D01*
X59098287Y-62761831D01*
X59098303Y-62761839D01*
X59257407Y-62827740D01*
X59308216Y-62848786D01*
X59362620Y-62892626D01*
X59384685Y-62958920D01*
X59384764Y-62963347D01*
X59384764Y-67444155D01*
X59418872Y-67571451D01*
X59434551Y-67598607D01*
X59484764Y-67685578D01*
X59484766Y-67685580D01*
X62709181Y-70909995D01*
X62742666Y-70971318D01*
X62745500Y-70997676D01*
X62745500Y-75433324D01*
X62725815Y-75500363D01*
X62709181Y-75521005D01*
X57765502Y-80464683D01*
X57765500Y-80464686D01*
X57699608Y-80578812D01*
X57665500Y-80706108D01*
X57665500Y-131825323D01*
X57645815Y-131892362D01*
X57629181Y-131913004D01*
X45472298Y-144069886D01*
X45410975Y-144103371D01*
X45360429Y-144103823D01*
X45338692Y-144099500D01*
X45338691Y-144099500D01*
X45161309Y-144099500D01*
X45161306Y-144099500D01*
X44987341Y-144134103D01*
X44987332Y-144134106D01*
X44823459Y-144201983D01*
X44823446Y-144201990D01*
X44675965Y-144300535D01*
X44675961Y-144300538D01*
X44550538Y-144425961D01*
X44550535Y-144425965D01*
X44451990Y-144573446D01*
X44451983Y-144573459D01*
X44384106Y-144737332D01*
X44384103Y-144737341D01*
X44349500Y-144911304D01*
X35337955Y-144911304D01*
X35337955Y-142411304D01*
X44349500Y-142411304D01*
X44349500Y-142588695D01*
X44384103Y-142762658D01*
X44384106Y-142762667D01*
X44451983Y-142926540D01*
X44451990Y-142926553D01*
X44550535Y-143074034D01*
X44550538Y-143074038D01*
X44675961Y-143199461D01*
X44675965Y-143199464D01*
X44823446Y-143298009D01*
X44823459Y-143298016D01*
X44921727Y-143338719D01*
X44987334Y-143365894D01*
X44987336Y-143365894D01*
X44987341Y-143365896D01*
X45161304Y-143400499D01*
X45161307Y-143400500D01*
X45161309Y-143400500D01*
X45338693Y-143400500D01*
X45338694Y-143400499D01*
X45396682Y-143388964D01*
X45512658Y-143365896D01*
X45512661Y-143365894D01*
X45512666Y-143365894D01*
X45676547Y-143298013D01*
X45824035Y-143199464D01*
X45949464Y-143074035D01*
X46048013Y-142926547D01*
X46115894Y-142762666D01*
X46150500Y-142588691D01*
X46150500Y-142411309D01*
X46146176Y-142389572D01*
X46152402Y-142319984D01*
X46180110Y-142277702D01*
X56788500Y-131669314D01*
X56854392Y-131555186D01*
X56888500Y-131427892D01*
X56888500Y-131296107D01*
X56888500Y-78017892D01*
X56908185Y-77950853D01*
X56924814Y-77930216D01*
X58968268Y-75886761D01*
X59029589Y-75853278D01*
X59099281Y-75858262D01*
X59103373Y-75859872D01*
X59313324Y-75946836D01*
X59538138Y-76007075D01*
X59768892Y-76037454D01*
X59768899Y-76037454D01*
X60001629Y-76037454D01*
X60001636Y-76037454D01*
X60232390Y-76007075D01*
X60457204Y-75946836D01*
X60602235Y-75886763D01*
X60672224Y-75857773D01*
X60672227Y-75857771D01*
X60672233Y-75857769D01*
X60873796Y-75741396D01*
X61058445Y-75599710D01*
X61223020Y-75435135D01*
X61364706Y-75250486D01*
X61481079Y-75048923D01*
X61498106Y-75007817D01*
X61570143Y-74833901D01*
X61570142Y-74833901D01*
X61570146Y-74833894D01*
X61630385Y-74609080D01*
X61660764Y-74378326D01*
X61660764Y-74145582D01*
X61630385Y-73914828D01*
X61570146Y-73690014D01*
X61570143Y-73690006D01*
X61481083Y-73474993D01*
X61481075Y-73474977D01*
X61364710Y-73273429D01*
X61364706Y-73273422D01*
X61223020Y-73088773D01*
X61223015Y-73088767D01*
X61058450Y-72924202D01*
X61058443Y-72924196D01*
X60873804Y-72782518D01*
X60873802Y-72782516D01*
X60873796Y-72782512D01*
X60873791Y-72782509D01*
X60873788Y-72782507D01*
X60672240Y-72666142D01*
X60672224Y-72666134D01*
X60457211Y-72577074D01*
X60232386Y-72516832D01*
X60001646Y-72486455D01*
X60001641Y-72486454D01*
X60001636Y-72486454D01*
X59768892Y-72486454D01*
X59768886Y-72486454D01*
X59768881Y-72486455D01*
X59538141Y-72516832D01*
X59313316Y-72577074D01*
X59098303Y-72666134D01*
X59098287Y-72666142D01*
X58896739Y-72782507D01*
X58896723Y-72782518D01*
X58712084Y-72924196D01*
X58712077Y-72924202D01*
X58547512Y-73088767D01*
X58547506Y-73088774D01*
X58405828Y-73273413D01*
X58405817Y-73273429D01*
X58289452Y-73474977D01*
X58289444Y-73474993D01*
X58200384Y-73690006D01*
X58140142Y-73914831D01*
X58109765Y-74145571D01*
X58109764Y-74145588D01*
X58109764Y-74378319D01*
X58109765Y-74378336D01*
X58139869Y-74607004D01*
X58140143Y-74609080D01*
X58176561Y-74744995D01*
X58200384Y-74833901D01*
X58287333Y-75043817D01*
X58294802Y-75113286D01*
X58263526Y-75175765D01*
X58260453Y-75178950D01*
X56063244Y-77376158D01*
X56063245Y-77376159D01*
X55987500Y-77451904D01*
X55921608Y-77566030D01*
X55887500Y-77693326D01*
X55887500Y-131103323D01*
X55867815Y-131170362D01*
X55851181Y-131191004D01*
X49141198Y-137900986D01*
X49079875Y-137934471D01*
X49010183Y-137929487D01*
X48954250Y-137887615D01*
X48931900Y-137837497D01*
X48923581Y-137795677D01*
X48923580Y-137795676D01*
X48923580Y-137795672D01*
X48923578Y-137795667D01*
X48870778Y-137668195D01*
X48870771Y-137668182D01*
X48794114Y-137553458D01*
X48794111Y-137553454D01*
X48786819Y-137546162D01*
X48753334Y-137484839D01*
X48750500Y-137458481D01*
X48750500Y-127141518D01*
X48770185Y-127074479D01*
X48786823Y-127053833D01*
X48794114Y-127046542D01*
X48870775Y-126931811D01*
X48923580Y-126804328D01*
X48950500Y-126668993D01*
X48950500Y-126531007D01*
X48950500Y-126531004D01*
X48923581Y-126395677D01*
X48923580Y-126395676D01*
X48923580Y-126395672D01*
X48923578Y-126395667D01*
X48870778Y-126268195D01*
X48870771Y-126268182D01*
X48794114Y-126153458D01*
X48794111Y-126153454D01*
X48696545Y-126055888D01*
X48696541Y-126055885D01*
X48581817Y-125979228D01*
X48581804Y-125979221D01*
X48454332Y-125926421D01*
X48454322Y-125926418D01*
X48318995Y-125899500D01*
X48318993Y-125899500D01*
X48181007Y-125899500D01*
X48181005Y-125899500D01*
X48045677Y-125926418D01*
X48045667Y-125926421D01*
X47918195Y-125979221D01*
X47918182Y-125979228D01*
X47803458Y-126055885D01*
X47803454Y-126055888D01*
X47705888Y-126153454D01*
X47705885Y-126153458D01*
X47629228Y-126268182D01*
X47629221Y-126268195D01*
X47576421Y-126395667D01*
X47576418Y-126395677D01*
X47549500Y-126531004D01*
X47549500Y-126531007D01*
X47549500Y-126668993D01*
X47549500Y-126668995D01*
X47549499Y-126668995D01*
X47576418Y-126804322D01*
X47576421Y-126804332D01*
X47629221Y-126931804D01*
X47629228Y-126931817D01*
X47705885Y-127046541D01*
X47713177Y-127053833D01*
X47746665Y-127115155D01*
X47749500Y-127141518D01*
X47749500Y-137458481D01*
X47729815Y-137525520D01*
X47713181Y-137546162D01*
X47705888Y-137553454D01*
X47705885Y-137553458D01*
X47629228Y-137668182D01*
X47629221Y-137668195D01*
X47576421Y-137795667D01*
X47576418Y-137795677D01*
X47549500Y-137931004D01*
X47549500Y-137931007D01*
X47549500Y-138068993D01*
X47549500Y-138068995D01*
X47549499Y-138068995D01*
X47576418Y-138204322D01*
X47576421Y-138204332D01*
X47629221Y-138331804D01*
X47629228Y-138331817D01*
X47705885Y-138446541D01*
X47705888Y-138446545D01*
X47803454Y-138544111D01*
X47803458Y-138544114D01*
X47918182Y-138620771D01*
X47918195Y-138620778D01*
X48045667Y-138673578D01*
X48045672Y-138673580D01*
X48045676Y-138673580D01*
X48045677Y-138673581D01*
X48087497Y-138681900D01*
X48149408Y-138714285D01*
X48183982Y-138775001D01*
X48180242Y-138844770D01*
X48150986Y-138891198D01*
X45472298Y-141569886D01*
X45410975Y-141603371D01*
X45360429Y-141603823D01*
X45338692Y-141599500D01*
X45338691Y-141599500D01*
X45161309Y-141599500D01*
X45161306Y-141599500D01*
X44987341Y-141634103D01*
X44987332Y-141634106D01*
X44823459Y-141701983D01*
X44823446Y-141701990D01*
X44675965Y-141800535D01*
X44675961Y-141800538D01*
X44550538Y-141925961D01*
X44550535Y-141925965D01*
X44451990Y-142073446D01*
X44451983Y-142073459D01*
X44384106Y-142237332D01*
X44384103Y-142237341D01*
X44349500Y-142411304D01*
X35337955Y-142411304D01*
X35337955Y-139911304D01*
X44349500Y-139911304D01*
X44349500Y-140088695D01*
X44384103Y-140262658D01*
X44384106Y-140262667D01*
X44451983Y-140426540D01*
X44451990Y-140426553D01*
X44550535Y-140574034D01*
X44550538Y-140574038D01*
X44675961Y-140699461D01*
X44675965Y-140699464D01*
X44823446Y-140798009D01*
X44823459Y-140798016D01*
X44910421Y-140834036D01*
X44987334Y-140865894D01*
X44987336Y-140865894D01*
X44987341Y-140865896D01*
X45161304Y-140900499D01*
X45161307Y-140900500D01*
X45161309Y-140900500D01*
X45338693Y-140900500D01*
X45338694Y-140900499D01*
X45396682Y-140888964D01*
X45512658Y-140865896D01*
X45512661Y-140865894D01*
X45512666Y-140865894D01*
X45676547Y-140798013D01*
X45824035Y-140699464D01*
X45949464Y-140574035D01*
X46048013Y-140426547D01*
X46115894Y-140262666D01*
X46150500Y-140088691D01*
X46150500Y-139911309D01*
X46150500Y-139911307D01*
X46150500Y-139911306D01*
X46150499Y-139911304D01*
X46115896Y-139737341D01*
X46115893Y-139737332D01*
X46048016Y-139573459D01*
X46048009Y-139573446D01*
X45949464Y-139425965D01*
X45949461Y-139425961D01*
X45824038Y-139300538D01*
X45824034Y-139300535D01*
X45676553Y-139201990D01*
X45676540Y-139201983D01*
X45512667Y-139134106D01*
X45512658Y-139134103D01*
X45338694Y-139099500D01*
X45338691Y-139099500D01*
X45161309Y-139099500D01*
X45161306Y-139099500D01*
X44987341Y-139134103D01*
X44987332Y-139134106D01*
X44823459Y-139201983D01*
X44823446Y-139201990D01*
X44675965Y-139300535D01*
X44675961Y-139300538D01*
X44550538Y-139425961D01*
X44550535Y-139425965D01*
X44451990Y-139573446D01*
X44451983Y-139573459D01*
X44384106Y-139737332D01*
X44384103Y-139737341D01*
X44349500Y-139911304D01*
X35337955Y-139911304D01*
X35337955Y-82727988D01*
X48434264Y-82727988D01*
X48434264Y-84859391D01*
X48437165Y-84896257D01*
X48437166Y-84896263D01*
X48483018Y-85054083D01*
X48483019Y-85054086D01*
X48566681Y-85195552D01*
X48566687Y-85195560D01*
X48682893Y-85311766D01*
X48682897Y-85311769D01*
X48682899Y-85311771D01*
X48824366Y-85395434D01*
X48865988Y-85407526D01*
X48982190Y-85441287D01*
X48982193Y-85441287D01*
X48982195Y-85441288D01*
X49019070Y-85444190D01*
X49019078Y-85444190D01*
X51150450Y-85444190D01*
X51150458Y-85444190D01*
X51187333Y-85441288D01*
X51187335Y-85441287D01*
X51187337Y-85441287D01*
X51228955Y-85429195D01*
X51345162Y-85395434D01*
X51486629Y-85311771D01*
X51602845Y-85195555D01*
X51686508Y-85054088D01*
X51732362Y-84896259D01*
X51735264Y-84859384D01*
X51735264Y-82727996D01*
X51732362Y-82691121D01*
X51731461Y-82688020D01*
X51686509Y-82533296D01*
X51686508Y-82533293D01*
X51686508Y-82533292D01*
X51602845Y-82391825D01*
X51602843Y-82391823D01*
X51602840Y-82391819D01*
X51486634Y-82275613D01*
X51486626Y-82275607D01*
X51345160Y-82191945D01*
X51345157Y-82191944D01*
X51187337Y-82146092D01*
X51187331Y-82146091D01*
X51150465Y-82143190D01*
X51150458Y-82143190D01*
X49019070Y-82143190D01*
X49019062Y-82143190D01*
X48982196Y-82146091D01*
X48982190Y-82146092D01*
X48824370Y-82191944D01*
X48824367Y-82191945D01*
X48682901Y-82275607D01*
X48682893Y-82275613D01*
X48566687Y-82391819D01*
X48566681Y-82391827D01*
X48483019Y-82533293D01*
X48483018Y-82533296D01*
X48437166Y-82691116D01*
X48437165Y-82691122D01*
X48434264Y-82727988D01*
X35337955Y-82727988D01*
X35337955Y-78077933D01*
X40992916Y-78077933D01*
X40992916Y-78209717D01*
X41009970Y-78273364D01*
X41027024Y-78337012D01*
X41034932Y-78350708D01*
X41092916Y-78451139D01*
X42600316Y-79958539D01*
X42699151Y-80015602D01*
X42714440Y-80024429D01*
X42714444Y-80024431D01*
X42841738Y-80058539D01*
X42841740Y-80058539D01*
X42973521Y-80058539D01*
X42973523Y-80058539D01*
X43100816Y-80024431D01*
X43214945Y-79958539D01*
X43308130Y-79865354D01*
X43308130Y-79865352D01*
X43318334Y-79855149D01*
X43318338Y-79855144D01*
X43838460Y-79335022D01*
X44368790Y-78804692D01*
X44434682Y-78690564D01*
X44468790Y-78563270D01*
X44468790Y-78431485D01*
X44434682Y-78304192D01*
X44368790Y-78190064D01*
X44275604Y-78096878D01*
X44275603Y-78096877D01*
X44271273Y-78092547D01*
X44271262Y-78092537D01*
X42861393Y-76682667D01*
X42861392Y-76682666D01*
X42861391Y-76682665D01*
X42804327Y-76649719D01*
X42747264Y-76616773D01*
X42683616Y-76599719D01*
X42619970Y-76582665D01*
X42488185Y-76582665D01*
X42360889Y-76616773D01*
X42246763Y-76682665D01*
X42246760Y-76682667D01*
X41716433Y-77212995D01*
X41168669Y-77760755D01*
X41168660Y-77760767D01*
X41092916Y-77836511D01*
X41027024Y-77950637D01*
X41009004Y-78017892D01*
X40992916Y-78077933D01*
X35337955Y-78077933D01*
X35337955Y-71753099D01*
X35357640Y-71686060D01*
X35410444Y-71640305D01*
X35479602Y-71630361D01*
X35543158Y-71659386D01*
X35579886Y-71714781D01*
X35621790Y-71843749D01*
X35657557Y-71953826D01*
X35775502Y-72185305D01*
X35928205Y-72395483D01*
X36111907Y-72579185D01*
X36322085Y-72731888D01*
X36428894Y-72786310D01*
X36553559Y-72849831D01*
X36553561Y-72849831D01*
X36553564Y-72849833D01*
X36800643Y-72930114D01*
X36932842Y-72951051D01*
X37057234Y-72970754D01*
X37057239Y-72970754D01*
X37317038Y-72970754D01*
X37430434Y-72952793D01*
X37573629Y-72930114D01*
X37820708Y-72849833D01*
X37865106Y-72827210D01*
X37933773Y-72814314D01*
X37998514Y-72840589D01*
X38009082Y-72850014D01*
X38364382Y-73205314D01*
X38457568Y-73298500D01*
X38571696Y-73364392D01*
X38698990Y-73398500D01*
X45842324Y-73398500D01*
X45909363Y-73418185D01*
X45930005Y-73434819D01*
X47142181Y-74646995D01*
X47175666Y-74708318D01*
X47178500Y-74734676D01*
X47178500Y-74744993D01*
X47178500Y-74744995D01*
X47178499Y-74744995D01*
X47205418Y-74880322D01*
X47205421Y-74880332D01*
X47258221Y-75007804D01*
X47258228Y-75007817D01*
X47334885Y-75122541D01*
X47334888Y-75122545D01*
X47432454Y-75220111D01*
X47432458Y-75220114D01*
X47547182Y-75296771D01*
X47547195Y-75296778D01*
X47674667Y-75349578D01*
X47674672Y-75349580D01*
X47674676Y-75349580D01*
X47674677Y-75349581D01*
X47810004Y-75376500D01*
X47810007Y-75376500D01*
X47947995Y-75376500D01*
X48039041Y-75358389D01*
X48083328Y-75349580D01*
X48210811Y-75296775D01*
X48325542Y-75220114D01*
X48423114Y-75122542D01*
X48499775Y-75007811D01*
X48552580Y-74880328D01*
X48579500Y-74744993D01*
X48579500Y-74607007D01*
X48579500Y-74607004D01*
X48552581Y-74471677D01*
X48552580Y-74471676D01*
X48552580Y-74471672D01*
X48513912Y-74378319D01*
X48499778Y-74344195D01*
X48499771Y-74344182D01*
X48423114Y-74229458D01*
X48423111Y-74229454D01*
X48325545Y-74131888D01*
X48325541Y-74131885D01*
X48210817Y-74055228D01*
X48210804Y-74055221D01*
X48083332Y-74002421D01*
X48083322Y-74002418D01*
X47947995Y-73975500D01*
X47947993Y-73975500D01*
X47937676Y-73975500D01*
X47870637Y-73955815D01*
X47849995Y-73939181D01*
X46408316Y-72497502D01*
X46408314Y-72497500D01*
X46351250Y-72464554D01*
X46294187Y-72431608D01*
X46230539Y-72414554D01*
X46166892Y-72397500D01*
X46166891Y-72397500D01*
X39023558Y-72397500D01*
X38956519Y-72377815D01*
X38935877Y-72361181D01*
X38716896Y-72142200D01*
X38683411Y-72080877D01*
X38688395Y-72011185D01*
X38694087Y-71998235D01*
X38716715Y-71953826D01*
X38796996Y-71706747D01*
X38819675Y-71563552D01*
X38837636Y-71450156D01*
X38837636Y-71190351D01*
X38809166Y-71010600D01*
X38796996Y-70933761D01*
X38716715Y-70686682D01*
X38716713Y-70686679D01*
X38716713Y-70686677D01*
X38673923Y-70602699D01*
X38598770Y-70455203D01*
X38446067Y-70245025D01*
X38262365Y-70061323D01*
X38052187Y-69908620D01*
X37979900Y-69871788D01*
X37820712Y-69790676D01*
X37573629Y-69710394D01*
X37317038Y-69669754D01*
X37317033Y-69669754D01*
X37057239Y-69669754D01*
X37057234Y-69669754D01*
X36800642Y-69710394D01*
X36553559Y-69790676D01*
X36322081Y-69908622D01*
X36111910Y-70061320D01*
X36111904Y-70061325D01*
X35928207Y-70245022D01*
X35928202Y-70245028D01*
X35775504Y-70455199D01*
X35657558Y-70686677D01*
X35579886Y-70925727D01*
X35540448Y-70983402D01*
X35476089Y-71010600D01*
X35407243Y-70998685D01*
X35355767Y-70951441D01*
X35337955Y-70887408D01*
X35337955Y-68694255D01*
X50576797Y-68694255D01*
X50576797Y-68954060D01*
X50617437Y-69210651D01*
X50697719Y-69457734D01*
X50778831Y-69616922D01*
X50815663Y-69689209D01*
X50968366Y-69899387D01*
X51152068Y-70083089D01*
X51362246Y-70235792D01*
X51509742Y-70310945D01*
X51593720Y-70353735D01*
X51593722Y-70353735D01*
X51593725Y-70353737D01*
X51840804Y-70434018D01*
X51973003Y-70454955D01*
X52097395Y-70474658D01*
X52097400Y-70474658D01*
X52357199Y-70474658D01*
X52480030Y-70455203D01*
X52613790Y-70434018D01*
X52860869Y-70353737D01*
X53092348Y-70235792D01*
X53302526Y-70083089D01*
X53486228Y-69899387D01*
X53638931Y-69689209D01*
X53756876Y-69457730D01*
X53837157Y-69210651D01*
X53859836Y-69067456D01*
X53877797Y-68954060D01*
X53877797Y-68694255D01*
X53856244Y-68558179D01*
X53837157Y-68437665D01*
X53756876Y-68190586D01*
X53756874Y-68190583D01*
X53756874Y-68190581D01*
X53714084Y-68106603D01*
X53638931Y-67959107D01*
X53486228Y-67748929D01*
X53302526Y-67565227D01*
X53135886Y-67444156D01*
X53092351Y-67412526D01*
X53092350Y-67412525D01*
X53092348Y-67412524D01*
X53020061Y-67375692D01*
X52860873Y-67294580D01*
X52613790Y-67214298D01*
X52357199Y-67173658D01*
X52357194Y-67173658D01*
X52097400Y-67173658D01*
X52097395Y-67173658D01*
X51840803Y-67214298D01*
X51593720Y-67294580D01*
X51362242Y-67412526D01*
X51152071Y-67565224D01*
X51152065Y-67565229D01*
X50968368Y-67748926D01*
X50968363Y-67748932D01*
X50815665Y-67959103D01*
X50697719Y-68190581D01*
X50617437Y-68437664D01*
X50576797Y-68694255D01*
X35337955Y-68694255D01*
X35337955Y-61036233D01*
X45139146Y-61036233D01*
X45139146Y-61296038D01*
X45179786Y-61552629D01*
X45260068Y-61799712D01*
X45378014Y-62031190D01*
X45530712Y-62241361D01*
X45530715Y-62241365D01*
X45714417Y-62425067D01*
X45924595Y-62577770D01*
X46057455Y-62645466D01*
X46156069Y-62695713D01*
X46156071Y-62695713D01*
X46156074Y-62695715D01*
X46403153Y-62775996D01*
X46535352Y-62796933D01*
X46659744Y-62816636D01*
X46659749Y-62816636D01*
X46919548Y-62816636D01*
X47032944Y-62798675D01*
X47176139Y-62775996D01*
X47423218Y-62695715D01*
X47654697Y-62577770D01*
X47864875Y-62425067D01*
X48048577Y-62241365D01*
X48201280Y-62031187D01*
X48319225Y-61799708D01*
X48399506Y-61552629D01*
X48427226Y-61377609D01*
X48440146Y-61296038D01*
X48440146Y-61036233D01*
X48405723Y-60818897D01*
X48399506Y-60779643D01*
X48319225Y-60532564D01*
X48319223Y-60532561D01*
X48319223Y-60532559D01*
X48276433Y-60448581D01*
X48201280Y-60301085D01*
X48048577Y-60090907D01*
X47864875Y-59907205D01*
X47864871Y-59907202D01*
X47654700Y-59754504D01*
X47654699Y-59754503D01*
X47654697Y-59754502D01*
X47582410Y-59717670D01*
X47423222Y-59636558D01*
X47176139Y-59556276D01*
X46919548Y-59515636D01*
X46919543Y-59515636D01*
X46659749Y-59515636D01*
X46659744Y-59515636D01*
X46403152Y-59556276D01*
X46156069Y-59636558D01*
X45924591Y-59754504D01*
X45714420Y-59907202D01*
X45714414Y-59907207D01*
X45530717Y-60090904D01*
X45530712Y-60090910D01*
X45378014Y-60301081D01*
X45260068Y-60532559D01*
X45179786Y-60779642D01*
X45139146Y-61036233D01*
X35337955Y-61036233D01*
X35337955Y-57218283D01*
X40992916Y-57218283D01*
X40992916Y-57350067D01*
X41027024Y-57477361D01*
X41044246Y-57507191D01*
X41092915Y-57591486D01*
X41092919Y-57591493D01*
X41564659Y-58063231D01*
X41623247Y-58121819D01*
X42153577Y-58652149D01*
X42246763Y-58745335D01*
X42360891Y-58811227D01*
X42488185Y-58845335D01*
X42488187Y-58845335D01*
X42619968Y-58845335D01*
X42619969Y-58845335D01*
X42619970Y-58845335D01*
X42747263Y-58811227D01*
X42861391Y-58745335D01*
X42954577Y-58652149D01*
X42954577Y-58652148D01*
X44265394Y-57341329D01*
X44265399Y-57341326D01*
X44275602Y-57331122D01*
X44275604Y-57331122D01*
X44368790Y-57237936D01*
X44434682Y-57123808D01*
X44468790Y-56996515D01*
X44468790Y-56864730D01*
X62206120Y-56864730D01*
X62206120Y-56996514D01*
X62240228Y-57123808D01*
X62306120Y-57237936D01*
X62306121Y-57237937D01*
X62306122Y-57237938D01*
X63715992Y-58647807D01*
X63716002Y-58647818D01*
X63720332Y-58652148D01*
X63720333Y-58652149D01*
X63813519Y-58745335D01*
X63927647Y-58811227D01*
X64054940Y-58845335D01*
X64054941Y-58845335D01*
X64054942Y-58845335D01*
X64186723Y-58845335D01*
X64186725Y-58845335D01*
X64314019Y-58811227D01*
X64428147Y-58745335D01*
X65051663Y-58121819D01*
X65110222Y-58063260D01*
X65110233Y-58063247D01*
X65478598Y-57694883D01*
X65478604Y-57694879D01*
X65488807Y-57684675D01*
X65488809Y-57684675D01*
X65581994Y-57591490D01*
X65647886Y-57477361D01*
X65681994Y-57350068D01*
X65681994Y-57218283D01*
X65656680Y-57123808D01*
X65647887Y-57090989D01*
X65581994Y-56976861D01*
X65488809Y-56883675D01*
X65488806Y-56883673D01*
X65484478Y-56879345D01*
X65484478Y-56879344D01*
X65484473Y-56879340D01*
X64174853Y-55569720D01*
X64174841Y-55569706D01*
X64074597Y-55469464D01*
X64074596Y-55469463D01*
X64074594Y-55469461D01*
X64071659Y-55467766D01*
X63960467Y-55403567D01*
X63833173Y-55369461D01*
X63833172Y-55369461D01*
X63701387Y-55369461D01*
X63574092Y-55403569D01*
X63459966Y-55469461D01*
X63459963Y-55469463D01*
X62929636Y-55999792D01*
X62306122Y-56623305D01*
X62306120Y-56623308D01*
X62240228Y-56737434D01*
X62206120Y-56864730D01*
X44468790Y-56864730D01*
X44434682Y-56737436D01*
X44368790Y-56623308D01*
X43745274Y-55999792D01*
X43315200Y-55569717D01*
X43315198Y-55569714D01*
X43214946Y-55469462D01*
X43214941Y-55469458D01*
X43100818Y-55403570D01*
X43100817Y-55403569D01*
X43100816Y-55403569D01*
X42973523Y-55369461D01*
X42841738Y-55369461D01*
X42714442Y-55403569D01*
X42600316Y-55469461D01*
X42600313Y-55469463D01*
X41092918Y-56976858D01*
X41092916Y-56976861D01*
X41027024Y-57090987D01*
X41018230Y-57123808D01*
X40992916Y-57218283D01*
X35337955Y-57218283D01*
X35337955Y-51544429D01*
X43937065Y-51544429D01*
X43937065Y-53675832D01*
X43939966Y-53712698D01*
X43939967Y-53712704D01*
X43985819Y-53870524D01*
X43985820Y-53870527D01*
X44069482Y-54011993D01*
X44069488Y-54012001D01*
X44185694Y-54128207D01*
X44185698Y-54128210D01*
X44185700Y-54128212D01*
X44327167Y-54211875D01*
X44368789Y-54223967D01*
X44484991Y-54257728D01*
X44484994Y-54257728D01*
X44484996Y-54257729D01*
X44521871Y-54260631D01*
X44521879Y-54260631D01*
X46653251Y-54260631D01*
X46653259Y-54260631D01*
X46690134Y-54257729D01*
X46690136Y-54257728D01*
X46690138Y-54257728D01*
X46731756Y-54245636D01*
X46847963Y-54211875D01*
X46989430Y-54128212D01*
X47105646Y-54011996D01*
X47189309Y-53870529D01*
X47235163Y-53712700D01*
X47238065Y-53675825D01*
X47238065Y-51544437D01*
X47235163Y-51507562D01*
X47189309Y-51349733D01*
X47105646Y-51208266D01*
X47105644Y-51208264D01*
X47105641Y-51208260D01*
X46989435Y-51092054D01*
X46989427Y-51092048D01*
X46847961Y-51008386D01*
X46847958Y-51008385D01*
X46690138Y-50962533D01*
X46690132Y-50962532D01*
X46653266Y-50959631D01*
X46653259Y-50959631D01*
X44521871Y-50959631D01*
X44521863Y-50959631D01*
X44484997Y-50962532D01*
X44484991Y-50962533D01*
X44327171Y-51008385D01*
X44327168Y-51008386D01*
X44185702Y-51092048D01*
X44185694Y-51092054D01*
X44069488Y-51208260D01*
X44069482Y-51208268D01*
X43985820Y-51349734D01*
X43985819Y-51349737D01*
X43939967Y-51507557D01*
X43939966Y-51507563D01*
X43937065Y-51544429D01*
X35337955Y-51544429D01*
X35337955Y-28838500D01*
X35357640Y-28771461D01*
X35410444Y-28725706D01*
X35461955Y-28714500D01*
X40212955Y-28714500D01*
X40279994Y-28734185D01*
G37*
%TD.AperFunction*%
%TD*%
M02*
