%TF.GenerationSoftware,KiCad,Pcbnew,10.0.2*%
%TF.CreationDate,2026-05-23T13:51:48-07:00*%
%TF.ProjectId,c6remote,63367265-6d6f-4746-952e-6b696361645f,rev?*%
%TF.SameCoordinates,Original*%
%TF.FileFunction,Copper,L2,Bot*%
%TF.FilePolarity,Positive*%
%FSLAX46Y46*%
G04 Gerber Fmt 4.6, Leading zero omitted, Abs format (unit mm)*
G04 Created by KiCad (PCBNEW 10.0.2) date 2026-05-23 13:51:48*
%MOMM*%
%LPD*%
G01*
G04 APERTURE LIST*
G04 Aperture macros list*
%AMRoundRect*
0 Rectangle with rounded corners*
0 $1 Rounding radius*
0 $2 $3 $4 $5 $6 $7 $8 $9 X,Y pos of 4 corners*
0 Add a 4 corners polygon primitive as box body*
4,1,4,$2,$3,$4,$5,$6,$7,$8,$9,$2,$3,0*
0 Add four circle primitives for the rounded corners*
1,1,$1+$1,$2,$3*
1,1,$1+$1,$4,$5*
1,1,$1+$1,$6,$7*
1,1,$1+$1,$8,$9*
0 Add four rect primitives between the rounded corners*
20,1,$1+$1,$2,$3,$4,$5,0*
20,1,$1+$1,$4,$5,$6,$7,0*
20,1,$1+$1,$6,$7,$8,$9,0*
20,1,$1+$1,$8,$9,$2,$3,0*%
%AMFreePoly0*
4,1,64,0.031751,0.146088,0.079639,0.146088,0.235856,0.115014,0.383010,0.054061,0.515445,-0.034429,0.628071,-0.147055,0.716561,-0.279490,0.777514,-0.426644,0.808588,-0.582861,0.808588,-0.742139,0.777514,-0.898356,0.716561,-1.045510,0.628071,-1.177945,0.515445,-1.290571,0.383010,-1.379061,0.235856,-1.440014,0.079639,-1.471088,-0.079639,-1.471088,-0.235856,-1.440014,-0.383010,-1.379061,
-0.515445,-1.290571,-0.628071,-1.177945,-0.716561,-1.045510,-0.777514,-0.898356,-0.808588,-0.742139,-0.808588,-0.595028,-0.512500,-0.595028,-0.512500,-0.729972,-0.477574,-0.860317,-0.410102,-0.977182,-0.314682,-1.072602,-0.197817,-1.140074,-0.067472,-1.175000,0.067472,-1.175000,0.197817,-1.140074,0.314682,-1.072602,0.410102,-0.977182,0.477574,-0.860317,0.512500,-0.729972,0.512500,-0.595028,
0.477574,-0.464683,0.410102,-0.347818,0.314682,-0.252398,0.197817,-0.184926,0.067472,-0.150000,-0.067472,-0.150000,-0.197817,-0.184926,-0.314682,-0.252398,-0.410102,-0.347818,-0.477574,-0.464683,-0.512500,-0.595028,-0.808588,-0.595028,-0.808588,-0.582861,-0.777514,-0.426644,-0.716561,-0.279490,-0.628071,-0.147055,-0.515445,-0.034429,-0.383010,0.054061,-0.235856,0.115014,-0.079639,0.146088,
-0.031751,0.146088,-0.029264,0.147118,0.029264,0.147118,0.031751,0.146088,0.031751,0.146088,$1*%
G04 Aperture macros list end*
%TA.AperFunction,ComponentPad*%
%ADD10RoundRect,0.275000X0.275000X-0.975000X0.275000X0.975000X-0.275000X0.975000X-0.275000X-0.975000X0*%
%TD*%
%TA.AperFunction,ComponentPad*%
%ADD11R,1.800000X1.800000*%
%TD*%
%TA.AperFunction,ComponentPad*%
%ADD12C,1.800000*%
%TD*%
%TA.AperFunction,ComponentPad*%
%ADD13RoundRect,0.248400X0.651600X0.651600X-0.651600X0.651600X-0.651600X-0.651600X0.651600X-0.651600X0*%
%TD*%
%TA.AperFunction,ComponentPad*%
%ADD14RoundRect,0.250000X1.000000X-1.000000X1.000000X1.000000X-1.000000X1.000000X-1.000000X-1.000000X0*%
%TD*%
%TA.AperFunction,ComponentPad*%
%ADD15C,2.500000*%
%TD*%
%TA.AperFunction,ComponentPad*%
%ADD16C,2.750000*%
%TD*%
%TA.AperFunction,SMDPad,CuDef*%
%ADD17RoundRect,0.250000X-0.350000X-0.625000X0.350000X-0.625000X0.350000X0.625000X-0.350000X0.625000X0*%
%TD*%
%TA.AperFunction,SMDPad,CuDef*%
%ADD18O,1.200000X1.750000*%
%TD*%
%TA.AperFunction,ComponentPad*%
%ADD19C,1.000000*%
%TD*%
%TA.AperFunction,SMDPad,CuDef*%
%ADD20R,0.600000X0.522000*%
%TD*%
%TA.AperFunction,SMDPad,CuDef*%
%ADD21FreePoly0,90.000000*%
%TD*%
%TA.AperFunction,ViaPad*%
%ADD22C,0.600000*%
%TD*%
%TA.AperFunction,Conductor*%
%ADD23C,0.200000*%
%TD*%
G04 APERTURE END LIST*
D10*
%TO.P,U1,32,BAT_32*%
%TO.N,/BAT*%
X55141400Y-142088300D03*
%TO.P,U1,33,GND_33*%
%TO.N,GND*%
X52601400Y-142088300D03*
%TD*%
D11*
%TO.P,D1,1,K_1*%
%TO.N,Net-(D1-K)*%
X64037455Y-33258000D03*
D12*
%TO.P,D1,2,A_2*%
%TO.N,+3.3V*%
X61497455Y-33258000D03*
%TD*%
D13*
%TO.P,U2,1,OUT_1*%
%TO.N,IR REC*%
X46482000Y-33020000D03*
D12*
%TO.P,U2,2,GND_2*%
%TO.N,GND*%
X43942000Y-33020000D03*
%TO.P,U2,3,Vs_3*%
%TO.N,+3.3V*%
X41402000Y-33020000D03*
%TD*%
D14*
%TO.P,ENC1,1,COM2_1*%
%TO.N,GND*%
X50084764Y-83793690D03*
D15*
%TO.P,ENC1,2,ano_sw4_2*%
%TO.N,ano_sw4*%
X61087345Y-82817923D03*
D16*
%TO.P,ENC1,3,ano_enc1_3*%
%TO.N,ano_enc2*%
X59885264Y-74261954D03*
D15*
%TO.P,ENC1,4,ano_sw3_4*%
%TO.N,ano_sw3*%
X52227297Y-68824158D03*
%TO.P,ENC1,5,ano_sw1_5*%
%TO.N,ano_sw5*%
X37187136Y-71320254D03*
%TO.P,ENC1,6,ano_sw2_6*%
%TO.N,ano_sw2*%
X46789646Y-61166136D03*
D16*
%TO.P,ENC1,7,ano_enc2_7*%
%TO.N,ano_enc1*%
X59885264Y-61166020D03*
D14*
%TO.P,ENC1,8,COM1_8*%
%TO.N,GND*%
X45587565Y-52610131D03*
D15*
%TO.P,ENC1,9,ano_sw5_9*%
%TO.N,ano_sw1*%
X69487774Y-64107590D03*
%TD*%
D17*
%TO.P,J1,1,Pin_1_1*%
%TO.N,/BAT*%
X52900000Y-155700000D03*
D18*
%TO.P,J1,2,Pin_2_2*%
%TO.N,GND*%
X54900000Y-155700000D03*
%TD*%
D19*
%TO.P,TP_SD,1*%
%TO.N,sd*%
X61500000Y-155250000D03*
%TD*%
%TO.P,TP_ANO_ENC2,1*%
%TO.N,ano_enc2*%
X45250000Y-142500000D03*
%TD*%
%TO.P,TP_GPIO18_D10_MOSI,1*%
%TO.N,unconnected-(U1-GPIO18_D10_MOSI-Pad11)*%
X45250000Y-147750000D03*
%TD*%
D20*
%TO.P,MK1,1,SCK_1*%
%TO.N,sck*%
X54950000Y-34640000D03*
%TO.P,MK1,2,WS_2*%
%TO.N,ws*%
X54950000Y-35462000D03*
D21*
%TO.P,MK1,3,L/R_3*%
%TO.N,GND*%
X53387500Y-36714000D03*
D20*
%TO.P,MK1,4,SD_4*%
%TO.N,sd*%
X53150000Y-35462000D03*
%TO.P,MK1,5,VDD_5*%
%TO.N,+3.3V*%
X53150000Y-34640000D03*
%TO.P,MK1,6,GND_6*%
%TO.N,GND*%
X54050000Y-34640000D03*
%TD*%
D19*
%TO.P,TP_SCK,1*%
%TO.N,sck*%
X61500000Y-150250000D03*
%TD*%
%TO.P,TP_GND,1*%
%TO.N,GND*%
X45200000Y-152800000D03*
%TD*%
%TO.P,TP_VCC,1*%
%TO.N,VCC*%
X45200000Y-155200000D03*
%TD*%
%TO.P,TP_IR_REC,1*%
%TO.N,IR REC*%
X61500000Y-140000000D03*
%TD*%
%TO.P,TP_SDA,1*%
%TO.N,sda*%
X61500000Y-145000000D03*
%TD*%
%TO.P,TP_SCL,1*%
%TO.N,scl*%
X61500000Y-142500000D03*
%TD*%
%TO.P,TP_3V3,1*%
%TO.N,+3.3V*%
X45200000Y-150200000D03*
%TD*%
%TO.P,TP_WS,1*%
%TO.N,ws*%
X61500000Y-147500000D03*
%TD*%
%TO.P,TP_ANO_ENC1,1*%
%TO.N,ano_enc1*%
X45250000Y-145000000D03*
%TD*%
%TO.P,TP_LED1,1*%
%TO.N,led_1*%
X45250000Y-140000000D03*
%TD*%
%TO.P,TP_IR_EMIT,1*%
%TO.N,IR EMIT*%
X61500000Y-152750000D03*
%TD*%
D22*
%TO.N,+3.3V*%
X59200000Y-125000000D03*
%TO.N,GND*%
X54050000Y-33400000D03*
X51700000Y-37300000D03*
X54900000Y-145350000D03*
%TO.N,sd*%
X66000000Y-138000000D03*
%TO.N,IR EMIT*%
X67564000Y-37846000D03*
%TO.N,ano_sw5*%
X47879000Y-74676000D03*
%TD*%
%TO.N,GND*%
D23*
X51700000Y-37300000D02*
X52300000Y-36700000D01*
X53373500Y-36700000D02*
X53387500Y-36714000D01*
X52300000Y-36700000D02*
X53373500Y-36700000D01*
X54900000Y-145350000D02*
X54900000Y-155700000D01*
X54050000Y-33400000D02*
X54050000Y-34640000D01*
%TO.N,sd*%
X50800000Y-38354000D02*
X50800000Y-37099455D01*
X66500000Y-79500000D02*
X66500000Y-44852315D01*
X66000000Y-80000000D02*
X66500000Y-79500000D01*
X66500000Y-44852315D02*
X65443685Y-43796000D01*
X66000000Y-138000000D02*
X66000000Y-80000000D01*
X50800000Y-37099455D02*
X52437455Y-35462000D01*
X52437455Y-35462000D02*
X53150000Y-35462000D01*
X65443685Y-43796000D02*
X56242000Y-43796000D01*
X56242000Y-43796000D02*
X50800000Y-38354000D01*
%TO.N,IR EMIT*%
X65250000Y-152750000D02*
X61500000Y-152750000D01*
X67937774Y-65843698D02*
X67937774Y-62763892D01*
X68500000Y-62201666D02*
X68500000Y-38782000D01*
X70000000Y-67905924D02*
X67937774Y-65843698D01*
X65250000Y-152750000D02*
X70000000Y-148000000D01*
X70000000Y-148000000D02*
X70000000Y-67905924D01*
X68500000Y-38782000D02*
X67564000Y-37846000D01*
X67937774Y-62763892D02*
X68500000Y-62201666D01*
%TO.N,sck*%
X59024000Y-34640000D02*
X54950000Y-34640000D01*
X65250000Y-150250000D02*
X69000000Y-146500000D01*
X69000000Y-67471610D02*
X67537774Y-66009383D01*
X65250000Y-150250000D02*
X61500000Y-150250000D01*
X69000000Y-146500000D02*
X69000000Y-67471610D01*
X67537774Y-62598206D02*
X68100000Y-62035980D01*
X68100000Y-43716000D02*
X59024000Y-34640000D01*
X68100000Y-62035980D02*
X68100000Y-43716000D01*
X67537774Y-66009383D02*
X67537774Y-62598206D01*
%TO.N,ws*%
X65250000Y-147500000D02*
X61500000Y-147500000D01*
X67000000Y-43378000D02*
X67000000Y-145750000D01*
X54950000Y-35462000D02*
X59084000Y-35462000D01*
X67000000Y-145750000D02*
X65250000Y-147500000D01*
X59084000Y-35462000D02*
X67000000Y-43378000D01*
%TO.N,IR REC*%
X46482000Y-33020000D02*
X46482000Y-44196000D01*
X65000000Y-136415000D02*
X61415000Y-140000000D01*
X65277999Y-44196000D02*
X66000000Y-44918001D01*
X65000000Y-80000000D02*
X65000000Y-136415000D01*
X46482000Y-44196000D02*
X65277999Y-44196000D01*
X66000000Y-44918001D02*
X66000000Y-79000000D01*
X66000000Y-79000000D02*
X65000000Y-80000000D01*
%TO.N,ano_enc2*%
X45250000Y-142500000D02*
X45250000Y-142540000D01*
X56388000Y-131362000D02*
X45250000Y-142500000D01*
X59885264Y-74261954D02*
X56388000Y-77759218D01*
X56388000Y-77759218D02*
X56388000Y-131362000D01*
%TO.N,ano_enc1*%
X63246000Y-70739000D02*
X63246000Y-75692000D01*
X63246000Y-75692000D02*
X58166000Y-80772000D01*
X58166000Y-132084000D02*
X45330000Y-144920000D01*
X59885264Y-67378264D02*
X63246000Y-70739000D01*
X45330000Y-144920000D02*
X45330000Y-145000000D01*
X59885264Y-61166020D02*
X59885264Y-67378264D01*
X58166000Y-80772000D02*
X58166000Y-132084000D01*
%TO.N,ano_sw5*%
X47879000Y-74676000D02*
X46101000Y-72898000D01*
X38764882Y-72898000D02*
X37187136Y-71320254D01*
X46101000Y-72898000D02*
X38764882Y-72898000D01*
%TO.N,/BAT*%
X52900000Y-145350000D02*
X52900000Y-155700000D01*
X55141400Y-143108600D02*
X52900000Y-145350000D01*
X55141400Y-142088300D02*
X55141400Y-143108600D01*
%TD*%
%TA.AperFunction,Conductor*%
%TO.N,+3.3V*%
G36*
X40279994Y-28734185D02*
G01*
X40325749Y-28786989D01*
X40336955Y-28838500D01*
X40336955Y-30779891D01*
X40371063Y-30907187D01*
X40404009Y-30964250D01*
X40436955Y-31021314D01*
X40530141Y-31114500D01*
X40644269Y-31180392D01*
X40771563Y-31214500D01*
X40771565Y-31214500D01*
X47003345Y-31214500D01*
X47003347Y-31214500D01*
X47130641Y-31180392D01*
X47244769Y-31114500D01*
X47337955Y-31021314D01*
X47403847Y-30907186D01*
X47437955Y-30779892D01*
X47437955Y-28838500D01*
X47457640Y-28771461D01*
X47510444Y-28725706D01*
X47561955Y-28714500D01*
X59112955Y-28714500D01*
X59179994Y-28734185D01*
X59225749Y-28786989D01*
X59236955Y-28838500D01*
X59236955Y-30779891D01*
X59271063Y-30907187D01*
X59304009Y-30964250D01*
X59336955Y-31021314D01*
X59430141Y-31114500D01*
X59544269Y-31180392D01*
X59671563Y-31214500D01*
X59671565Y-31214500D01*
X65903345Y-31214500D01*
X65903347Y-31214500D01*
X66030641Y-31180392D01*
X66144769Y-31114500D01*
X66237955Y-31021314D01*
X66303847Y-30907186D01*
X66337955Y-30779892D01*
X66337955Y-28838500D01*
X66357640Y-28771461D01*
X66410444Y-28725706D01*
X66461955Y-28714500D01*
X71212955Y-28714500D01*
X71279994Y-28734185D01*
X71325749Y-28786989D01*
X71336955Y-28838500D01*
X71336955Y-63674744D01*
X71317270Y-63741783D01*
X71264466Y-63787538D01*
X71195308Y-63797482D01*
X71131752Y-63768457D01*
X71095024Y-63713063D01*
X71017351Y-63474013D01*
X70974561Y-63390035D01*
X70899408Y-63242539D01*
X70746705Y-63032361D01*
X70563003Y-62848659D01*
X70462991Y-62775996D01*
X70352828Y-62695958D01*
X70352827Y-62695957D01*
X70352825Y-62695956D01*
X70280538Y-62659124D01*
X70121350Y-62578012D01*
X69874267Y-62497730D01*
X69617676Y-62457090D01*
X69617671Y-62457090D01*
X69357877Y-62457090D01*
X69357871Y-62457090D01*
X69120216Y-62494730D01*
X69050923Y-62485775D01*
X68997471Y-62440779D01*
X68976832Y-62374027D01*
X68981044Y-62340168D01*
X69000500Y-62267558D01*
X69000500Y-62135773D01*
X69000500Y-38716108D01*
X68966392Y-38588814D01*
X68900500Y-38474686D01*
X68807314Y-38381500D01*
X68300819Y-37875005D01*
X68267334Y-37813682D01*
X68264500Y-37787324D01*
X68264500Y-37777004D01*
X68237581Y-37641677D01*
X68237580Y-37641676D01*
X68237580Y-37641672D01*
X68233506Y-37631837D01*
X68184778Y-37514195D01*
X68184771Y-37514182D01*
X68108114Y-37399458D01*
X68108111Y-37399454D01*
X68010545Y-37301888D01*
X68010541Y-37301885D01*
X67895817Y-37225228D01*
X67895804Y-37225221D01*
X67768332Y-37172421D01*
X67768322Y-37172418D01*
X67632995Y-37145500D01*
X67632993Y-37145500D01*
X67495007Y-37145500D01*
X67495005Y-37145500D01*
X67359677Y-37172418D01*
X67359667Y-37172421D01*
X67232195Y-37225221D01*
X67232182Y-37225228D01*
X67117458Y-37301885D01*
X67117454Y-37301888D01*
X67019888Y-37399454D01*
X67019885Y-37399458D01*
X66943228Y-37514182D01*
X66943221Y-37514195D01*
X66890421Y-37641667D01*
X66890418Y-37641677D01*
X66863500Y-37777004D01*
X66863500Y-37777007D01*
X66863500Y-37914993D01*
X66863500Y-37914995D01*
X66863499Y-37914995D01*
X66890418Y-38050322D01*
X66890421Y-38050332D01*
X66943221Y-38177804D01*
X66943228Y-38177817D01*
X67019885Y-38292541D01*
X67019888Y-38292545D01*
X67117454Y-38390111D01*
X67117458Y-38390114D01*
X67232182Y-38466771D01*
X67232195Y-38466778D01*
X67359667Y-38519578D01*
X67359672Y-38519580D01*
X67359676Y-38519580D01*
X67359677Y-38519581D01*
X67495004Y-38546500D01*
X67495007Y-38546500D01*
X67505324Y-38546500D01*
X67572363Y-38566185D01*
X67593005Y-38582819D01*
X67963181Y-38952995D01*
X67996666Y-39014318D01*
X67999500Y-39040676D01*
X67999500Y-42608324D01*
X67979815Y-42675363D01*
X67927011Y-42721118D01*
X67857853Y-42731062D01*
X67794297Y-42702037D01*
X67787819Y-42696005D01*
X59331316Y-34239502D01*
X59331314Y-34239500D01*
X59274250Y-34206554D01*
X59217187Y-34173608D01*
X59143880Y-34153966D01*
X59089892Y-34139500D01*
X59089891Y-34139500D01*
X55628254Y-34139500D01*
X55561215Y-34119815D01*
X55540572Y-34103180D01*
X55488346Y-34050954D01*
X55488342Y-34050950D01*
X55411517Y-34011805D01*
X55375301Y-33993352D01*
X55281524Y-33978500D01*
X54674500Y-33978500D01*
X54607461Y-33958815D01*
X54561706Y-33906011D01*
X54550500Y-33854500D01*
X54550500Y-33541518D01*
X54570185Y-33474479D01*
X54586823Y-33453833D01*
X54594114Y-33446542D01*
X54670775Y-33331811D01*
X54723580Y-33204328D01*
X54734821Y-33147818D01*
X60097455Y-33147818D01*
X60097455Y-33368181D01*
X60131928Y-33585835D01*
X60200022Y-33795410D01*
X60300066Y-33991756D01*
X60346387Y-34055513D01*
X61055316Y-33346584D01*
X61078122Y-33431694D01*
X61137365Y-33534306D01*
X61221149Y-33618090D01*
X61323761Y-33677333D01*
X61408869Y-33700137D01*
X60699940Y-34409065D01*
X60699940Y-34409066D01*
X60763698Y-34455388D01*
X60960044Y-34555432D01*
X61169619Y-34623526D01*
X61387274Y-34658000D01*
X61607636Y-34658000D01*
X61825290Y-34623526D01*
X62034865Y-34555432D01*
X62231215Y-34455386D01*
X62294968Y-34409066D01*
X62294969Y-34409066D01*
X61586040Y-33700138D01*
X61671149Y-33677333D01*
X61773761Y-33618090D01*
X61857545Y-33534306D01*
X61916788Y-33431694D01*
X61939592Y-33346585D01*
X62665076Y-34072069D01*
X62671596Y-34073439D01*
X62721356Y-34122487D01*
X62736955Y-34182685D01*
X62736955Y-34189514D01*
X62736956Y-34189518D01*
X62751809Y-34283304D01*
X62809405Y-34396342D01*
X62809407Y-34396344D01*
X62809409Y-34396347D01*
X62899107Y-34486045D01*
X62899109Y-34486046D01*
X62899113Y-34486050D01*
X63012149Y-34543645D01*
X63012153Y-34543647D01*
X63105930Y-34558499D01*
X63105936Y-34558500D01*
X64968973Y-34558499D01*
X65062759Y-34543646D01*
X65175797Y-34486050D01*
X65265505Y-34396342D01*
X65323101Y-34283304D01*
X65323101Y-34283302D01*
X65323102Y-34283301D01*
X65337954Y-34189524D01*
X65337955Y-34189519D01*
X65337954Y-32326482D01*
X65323101Y-32232696D01*
X65265505Y-32119658D01*
X65265501Y-32119654D01*
X65265500Y-32119652D01*
X65175802Y-32029954D01*
X65175799Y-32029952D01*
X65175797Y-32029950D01*
X65098972Y-31990805D01*
X65062756Y-31972352D01*
X64968979Y-31957500D01*
X63105937Y-31957500D01*
X63024974Y-31970323D01*
X63012151Y-31972354D01*
X62899113Y-32029950D01*
X62899112Y-32029951D01*
X62899107Y-32029954D01*
X62809409Y-32119652D01*
X62809406Y-32119657D01*
X62751807Y-32232698D01*
X62736955Y-32326475D01*
X62736955Y-32333302D01*
X62717270Y-32400341D01*
X62664466Y-32446096D01*
X62662575Y-32446430D01*
X61939592Y-33169414D01*
X61916788Y-33084306D01*
X61857545Y-32981694D01*
X61773761Y-32897910D01*
X61671149Y-32838667D01*
X61586038Y-32815861D01*
X62294968Y-32106932D01*
X62231211Y-32060611D01*
X62034865Y-31960567D01*
X61825290Y-31892473D01*
X61607636Y-31858000D01*
X61387274Y-31858000D01*
X61169619Y-31892473D01*
X60960044Y-31960567D01*
X60763688Y-32060616D01*
X60699940Y-32106931D01*
X60699940Y-32106932D01*
X61408869Y-32815861D01*
X61323761Y-32838667D01*
X61221149Y-32897910D01*
X61137365Y-32981694D01*
X61078122Y-33084306D01*
X61055316Y-33169414D01*
X60346387Y-32460485D01*
X60346386Y-32460485D01*
X60300071Y-32524233D01*
X60200022Y-32720589D01*
X60131928Y-32930164D01*
X60097455Y-33147818D01*
X54734821Y-33147818D01*
X54750500Y-33068993D01*
X54750500Y-32931007D01*
X54750500Y-32931004D01*
X54723581Y-32795677D01*
X54723580Y-32795676D01*
X54723580Y-32795672D01*
X54680706Y-32692164D01*
X54670778Y-32668195D01*
X54670771Y-32668182D01*
X54594114Y-32553458D01*
X54594111Y-32553454D01*
X54496545Y-32455888D01*
X54496541Y-32455885D01*
X54381817Y-32379228D01*
X54381804Y-32379221D01*
X54254332Y-32326421D01*
X54254322Y-32326418D01*
X54118995Y-32299500D01*
X54118993Y-32299500D01*
X53981007Y-32299500D01*
X53981005Y-32299500D01*
X53845677Y-32326418D01*
X53845667Y-32326421D01*
X53718195Y-32379221D01*
X53718182Y-32379228D01*
X53603458Y-32455885D01*
X53603454Y-32455888D01*
X53505888Y-32553454D01*
X53505885Y-32553458D01*
X53429228Y-32668182D01*
X53429221Y-32668195D01*
X53376421Y-32795667D01*
X53376418Y-32795677D01*
X53349500Y-32931004D01*
X53349500Y-32931007D01*
X53349500Y-33068993D01*
X53349500Y-33068995D01*
X53349499Y-33068995D01*
X53376418Y-33204322D01*
X53376421Y-33204332D01*
X53429221Y-33331804D01*
X53429228Y-33331817D01*
X53505885Y-33446541D01*
X53513177Y-33453833D01*
X53527882Y-33480761D01*
X53544477Y-33506583D01*
X53545368Y-33512780D01*
X53546665Y-33515155D01*
X53549500Y-33541518D01*
X53549500Y-33755000D01*
X53529815Y-33822039D01*
X53477011Y-33867794D01*
X53425500Y-33879000D01*
X53400000Y-33879000D01*
X53400000Y-34153966D01*
X53386485Y-34210260D01*
X53364353Y-34253695D01*
X53364352Y-34253698D01*
X53349500Y-34347475D01*
X53349500Y-34516000D01*
X53329815Y-34583039D01*
X53277011Y-34628794D01*
X53225500Y-34640000D01*
X53150000Y-34640000D01*
X53150000Y-34676500D01*
X53130315Y-34743539D01*
X53077511Y-34789294D01*
X53026001Y-34800500D01*
X52818482Y-34800500D01*
X52737519Y-34813323D01*
X52724696Y-34815354D01*
X52611658Y-34872950D01*
X52611657Y-34872950D01*
X52604721Y-34876485D01*
X52548426Y-34890000D01*
X52350000Y-34890000D01*
X52342570Y-34897429D01*
X52330315Y-34939167D01*
X52277511Y-34984922D01*
X52258098Y-34991902D01*
X52244268Y-34995608D01*
X52130141Y-35061500D01*
X52130138Y-35061502D01*
X50399502Y-36792138D01*
X50399500Y-36792141D01*
X50333608Y-36906267D01*
X50299500Y-37033563D01*
X50299500Y-38419891D01*
X50333608Y-38547187D01*
X50344577Y-38566185D01*
X50399500Y-38661314D01*
X50399501Y-38661315D01*
X50399502Y-38661316D01*
X55222006Y-43483819D01*
X55255491Y-43545142D01*
X55250507Y-43614834D01*
X55208635Y-43670767D01*
X55143171Y-43695184D01*
X55134325Y-43695500D01*
X47106500Y-43695500D01*
X47039461Y-43675815D01*
X46993706Y-43623011D01*
X46982500Y-43571500D01*
X46982500Y-34444500D01*
X47002185Y-34377461D01*
X47054989Y-34331706D01*
X47057522Y-34331155D01*
X52350000Y-34331155D01*
X52350000Y-34390000D01*
X52900000Y-34390000D01*
X52900000Y-33879000D01*
X52802155Y-33879000D01*
X52742627Y-33885401D01*
X52742620Y-33885403D01*
X52607913Y-33935645D01*
X52607906Y-33935649D01*
X52492812Y-34021809D01*
X52492809Y-34021812D01*
X52406649Y-34136906D01*
X52406645Y-34136913D01*
X52356403Y-34271620D01*
X52356401Y-34271627D01*
X52350000Y-34331155D01*
X47057522Y-34331155D01*
X47106500Y-34320500D01*
X47199116Y-34320500D01*
X47199122Y-34320500D01*
X47235917Y-34317604D01*
X47393357Y-34271864D01*
X47485471Y-34217388D01*
X47499513Y-34209083D01*
X47534476Y-34188406D01*
X47650406Y-34072476D01*
X47733864Y-33931357D01*
X47779604Y-33773917D01*
X47782500Y-33737122D01*
X47782500Y-32302878D01*
X47779604Y-32266083D01*
X47757147Y-32188784D01*
X47757147Y-32188782D01*
X47733865Y-32108647D01*
X47733864Y-32108643D01*
X47680111Y-32017753D01*
X47650408Y-31967527D01*
X47650401Y-31967518D01*
X47534481Y-31851598D01*
X47534472Y-31851591D01*
X47448640Y-31800830D01*
X47393357Y-31768136D01*
X47235917Y-31722396D01*
X47235916Y-31722395D01*
X47235913Y-31722395D01*
X47199127Y-31719500D01*
X47199122Y-31719500D01*
X45764878Y-31719500D01*
X45764872Y-31719500D01*
X45728087Y-31722395D01*
X45728085Y-31722395D01*
X45649363Y-31745266D01*
X45570643Y-31768136D01*
X45570641Y-31768136D01*
X45570641Y-31768137D01*
X45429527Y-31851591D01*
X45429518Y-31851598D01*
X45313598Y-31967518D01*
X45313591Y-31967527D01*
X45230136Y-32108642D01*
X45230134Y-32108648D01*
X45202840Y-32202594D01*
X45165234Y-32261480D01*
X45101761Y-32290686D01*
X45032575Y-32280940D01*
X44983445Y-32240884D01*
X44970077Y-32222485D01*
X44933966Y-32172781D01*
X44789219Y-32028034D01*
X44789213Y-32028028D01*
X44623613Y-31907715D01*
X44623612Y-31907714D01*
X44623610Y-31907713D01*
X44547496Y-31868931D01*
X44441223Y-31814781D01*
X44246534Y-31751522D01*
X44062630Y-31722395D01*
X44044352Y-31719500D01*
X43839648Y-31719500D01*
X43821370Y-31722395D01*
X43637465Y-31751522D01*
X43442776Y-31814781D01*
X43260386Y-31907715D01*
X43094786Y-32028028D01*
X42950032Y-32172782D01*
X42950028Y-32172787D01*
X42828887Y-32339525D01*
X42773557Y-32382191D01*
X42703944Y-32388170D01*
X42642149Y-32355565D01*
X42618084Y-32322935D01*
X42599388Y-32286243D01*
X42553066Y-32222485D01*
X42553065Y-32222485D01*
X41844137Y-32931413D01*
X41821333Y-32846306D01*
X41762090Y-32743694D01*
X41678306Y-32659910D01*
X41575694Y-32600667D01*
X41490583Y-32577861D01*
X42199513Y-31868932D01*
X42135756Y-31822611D01*
X41939410Y-31722567D01*
X41729835Y-31654473D01*
X41512181Y-31620000D01*
X41291819Y-31620000D01*
X41074164Y-31654473D01*
X40864589Y-31722567D01*
X40668233Y-31822616D01*
X40604485Y-31868931D01*
X40604485Y-31868932D01*
X41313414Y-32577861D01*
X41228306Y-32600667D01*
X41125694Y-32659910D01*
X41041910Y-32743694D01*
X40982667Y-32846306D01*
X40959861Y-32931414D01*
X40250932Y-32222485D01*
X40250931Y-32222485D01*
X40204616Y-32286233D01*
X40104567Y-32482589D01*
X40036473Y-32692164D01*
X40002000Y-32909818D01*
X40002000Y-33130181D01*
X40036473Y-33347835D01*
X40104567Y-33557410D01*
X40204611Y-33753756D01*
X40250932Y-33817513D01*
X40959861Y-33108584D01*
X40982667Y-33193694D01*
X41041910Y-33296306D01*
X41125694Y-33380090D01*
X41228306Y-33439333D01*
X41313414Y-33462137D01*
X40604485Y-34171065D01*
X40604485Y-34171066D01*
X40668243Y-34217388D01*
X40864589Y-34317432D01*
X41074164Y-34385526D01*
X41291819Y-34420000D01*
X41512181Y-34420000D01*
X41729835Y-34385526D01*
X41939410Y-34317432D01*
X42135760Y-34217386D01*
X42199513Y-34171066D01*
X42199514Y-34171066D01*
X41490585Y-33462138D01*
X41575694Y-33439333D01*
X41678306Y-33380090D01*
X41762090Y-33296306D01*
X41821333Y-33193694D01*
X41844137Y-33108585D01*
X42553066Y-33817514D01*
X42553066Y-33817513D01*
X42599388Y-33753758D01*
X42618084Y-33717065D01*
X42666058Y-33666269D01*
X42733879Y-33649473D01*
X42800014Y-33672010D01*
X42828887Y-33700474D01*
X42950028Y-33867213D01*
X43094786Y-34011971D01*
X43220327Y-34103180D01*
X43260390Y-34132287D01*
X43372704Y-34189514D01*
X43442776Y-34225218D01*
X43442778Y-34225218D01*
X43442781Y-34225220D01*
X43530418Y-34253695D01*
X43637465Y-34288477D01*
X43738557Y-34304488D01*
X43839648Y-34320500D01*
X43839649Y-34320500D01*
X44044351Y-34320500D01*
X44044352Y-34320500D01*
X44246534Y-34288477D01*
X44441219Y-34225220D01*
X44623610Y-34132287D01*
X44735556Y-34050954D01*
X44789213Y-34011971D01*
X44789215Y-34011968D01*
X44789219Y-34011966D01*
X44933966Y-33867219D01*
X44983445Y-33799115D01*
X45038774Y-33756449D01*
X45108388Y-33750469D01*
X45170183Y-33783074D01*
X45202840Y-33837405D01*
X45230134Y-33931352D01*
X45230136Y-33931357D01*
X45313591Y-34072472D01*
X45313598Y-34072481D01*
X45429518Y-34188401D01*
X45429527Y-34188408D01*
X45431404Y-34189518D01*
X45570643Y-34271864D01*
X45728083Y-34317604D01*
X45764878Y-34320500D01*
X45857500Y-34320500D01*
X45924539Y-34340185D01*
X45970294Y-34392989D01*
X45981500Y-34444500D01*
X45981500Y-44261891D01*
X46015608Y-44389187D01*
X46048554Y-44446250D01*
X46081500Y-44503314D01*
X46174686Y-44596500D01*
X46288814Y-44662392D01*
X46416108Y-44696500D01*
X65019323Y-44696500D01*
X65086362Y-44716185D01*
X65107004Y-44732819D01*
X65463181Y-45088996D01*
X65496666Y-45150319D01*
X65499500Y-45176677D01*
X65499500Y-56595005D01*
X65479815Y-56662044D01*
X65427011Y-56707799D01*
X65357853Y-56717743D01*
X65294297Y-56688718D01*
X65287819Y-56682686D01*
X64174853Y-55569720D01*
X64174841Y-55569706D01*
X64074597Y-55469464D01*
X64074596Y-55469463D01*
X64074594Y-55469461D01*
X64071659Y-55467766D01*
X63960467Y-55403567D01*
X63833173Y-55369461D01*
X63833172Y-55369461D01*
X63701387Y-55369461D01*
X63574092Y-55403569D01*
X63459966Y-55469461D01*
X63459963Y-55469463D01*
X62929636Y-55999792D01*
X62306122Y-56623305D01*
X62306120Y-56623308D01*
X62240228Y-56737434D01*
X62206120Y-56864730D01*
X62206120Y-56996514D01*
X62223174Y-57060161D01*
X62240228Y-57123809D01*
X62273174Y-57180872D01*
X62306120Y-57237936D01*
X62306121Y-57237937D01*
X62306122Y-57237938D01*
X63715992Y-58647807D01*
X63716002Y-58647818D01*
X63720332Y-58652148D01*
X63720333Y-58652149D01*
X63813519Y-58745335D01*
X63927647Y-58811227D01*
X64054940Y-58845335D01*
X64054941Y-58845335D01*
X64054942Y-58845335D01*
X64186723Y-58845335D01*
X64186725Y-58845335D01*
X64314019Y-58811227D01*
X64428147Y-58745335D01*
X65051663Y-58121819D01*
X65110222Y-58063260D01*
X65110233Y-58063247D01*
X65287820Y-57885661D01*
X65349142Y-57852177D01*
X65418834Y-57857161D01*
X65474767Y-57899033D01*
X65499184Y-57964497D01*
X65499500Y-57973343D01*
X65499500Y-77454655D01*
X65479815Y-77521694D01*
X65427011Y-77567449D01*
X65357853Y-77577393D01*
X65294297Y-77548368D01*
X65287819Y-77542336D01*
X64958477Y-77212995D01*
X64428149Y-76682667D01*
X64428147Y-76682665D01*
X64371083Y-76649719D01*
X64314020Y-76616773D01*
X64250372Y-76599719D01*
X64186725Y-76582665D01*
X64054940Y-76582665D01*
X63927645Y-76616773D01*
X63813519Y-76682665D01*
X63813516Y-76682667D01*
X63720331Y-76775853D01*
X62381865Y-78114318D01*
X62381864Y-78114318D01*
X62381865Y-78114319D01*
X62306120Y-78190064D01*
X62240228Y-78304190D01*
X62206120Y-78431486D01*
X62206120Y-78563269D01*
X62240228Y-78690565D01*
X62273174Y-78747628D01*
X62306120Y-78804692D01*
X62836450Y-79335022D01*
X63459966Y-79958539D01*
X63558801Y-80015602D01*
X63574090Y-80024429D01*
X63574094Y-80024431D01*
X63701387Y-80058539D01*
X63701388Y-80058539D01*
X63701389Y-80058539D01*
X63833169Y-80058539D01*
X63833172Y-80058539D01*
X63926360Y-80033570D01*
X63960467Y-80024432D01*
X64001166Y-80000932D01*
X64074594Y-79958539D01*
X64167780Y-79865354D01*
X64167780Y-79865353D01*
X64177981Y-79855153D01*
X64177989Y-79855143D01*
X64318856Y-79714275D01*
X64380177Y-79680792D01*
X64449869Y-79685776D01*
X64505802Y-79727648D01*
X64530219Y-79793112D01*
X64526310Y-79834050D01*
X64520657Y-79855149D01*
X64499500Y-79934108D01*
X64499500Y-136156323D01*
X64479815Y-136223362D01*
X64463181Y-136244004D01*
X61644004Y-139063181D01*
X61582681Y-139096666D01*
X61556323Y-139099500D01*
X61411306Y-139099500D01*
X61237341Y-139134103D01*
X61237332Y-139134106D01*
X61073459Y-139201983D01*
X61073446Y-139201990D01*
X60925965Y-139300535D01*
X60925961Y-139300538D01*
X60800538Y-139425961D01*
X60800535Y-139425965D01*
X60701990Y-139573446D01*
X60701983Y-139573459D01*
X60634106Y-139737332D01*
X60634103Y-139737341D01*
X60599500Y-139911304D01*
X60599500Y-140088695D01*
X60634103Y-140262658D01*
X60634106Y-140262667D01*
X60701983Y-140426540D01*
X60701990Y-140426553D01*
X60800535Y-140574034D01*
X60800538Y-140574038D01*
X60925961Y-140699461D01*
X60925965Y-140699464D01*
X61073446Y-140798009D01*
X61073459Y-140798016D01*
X61160421Y-140834036D01*
X61237334Y-140865894D01*
X61237336Y-140865894D01*
X61237341Y-140865896D01*
X61411304Y-140900499D01*
X61411307Y-140900500D01*
X61411309Y-140900500D01*
X61588693Y-140900500D01*
X61588694Y-140900499D01*
X61646682Y-140888964D01*
X61762658Y-140865896D01*
X61762661Y-140865894D01*
X61762666Y-140865894D01*
X61926547Y-140798013D01*
X62074035Y-140699464D01*
X62199464Y-140574035D01*
X62298013Y-140426547D01*
X62365894Y-140262666D01*
X62400500Y-140088691D01*
X62400500Y-139911309D01*
X62400499Y-139911306D01*
X62395123Y-139884280D01*
X62382073Y-139818673D01*
X62388299Y-139749085D01*
X62416007Y-139706805D01*
X65287821Y-136834992D01*
X65349142Y-136801509D01*
X65418834Y-136806493D01*
X65474767Y-136848365D01*
X65499184Y-136913829D01*
X65499500Y-136922675D01*
X65499500Y-137458481D01*
X65479815Y-137525520D01*
X65463181Y-137546162D01*
X65455888Y-137553454D01*
X65455885Y-137553458D01*
X65379228Y-137668182D01*
X65379221Y-137668195D01*
X65326421Y-137795667D01*
X65326418Y-137795677D01*
X65299500Y-137931004D01*
X65299500Y-137931007D01*
X65299500Y-138068993D01*
X65299500Y-138068995D01*
X65299499Y-138068995D01*
X65326418Y-138204322D01*
X65326421Y-138204332D01*
X65379221Y-138331804D01*
X65379228Y-138331817D01*
X65455885Y-138446541D01*
X65455888Y-138446545D01*
X65553454Y-138544111D01*
X65553458Y-138544114D01*
X65668182Y-138620771D01*
X65668195Y-138620778D01*
X65795667Y-138673578D01*
X65795672Y-138673580D01*
X65795676Y-138673580D01*
X65795677Y-138673581D01*
X65931004Y-138700500D01*
X65931007Y-138700500D01*
X66068995Y-138700500D01*
X66160041Y-138682389D01*
X66204328Y-138673580D01*
X66328047Y-138622333D01*
X66397517Y-138614865D01*
X66459996Y-138646140D01*
X66495648Y-138706229D01*
X66499500Y-138736895D01*
X66499500Y-145491324D01*
X66479815Y-145558363D01*
X66463181Y-145579005D01*
X65079005Y-146963181D01*
X65017682Y-146996666D01*
X64991324Y-146999500D01*
X62314878Y-146999500D01*
X62247839Y-146979815D01*
X62211775Y-146944390D01*
X62199462Y-146925962D01*
X62074038Y-146800538D01*
X62074034Y-146800535D01*
X61926553Y-146701990D01*
X61926540Y-146701983D01*
X61762667Y-146634106D01*
X61762658Y-146634103D01*
X61588694Y-146599500D01*
X61588691Y-146599500D01*
X61411309Y-146599500D01*
X61411306Y-146599500D01*
X61237341Y-146634103D01*
X61237332Y-146634106D01*
X61073459Y-146701983D01*
X61073446Y-146701990D01*
X60925965Y-146800535D01*
X60925961Y-146800538D01*
X60800538Y-146925961D01*
X60800535Y-146925965D01*
X60701990Y-147073446D01*
X60701983Y-147073459D01*
X60634106Y-147237332D01*
X60634103Y-147237341D01*
X60599500Y-147411304D01*
X60599500Y-147588695D01*
X60634103Y-147762658D01*
X60634106Y-147762667D01*
X60701983Y-147926540D01*
X60701990Y-147926553D01*
X60800535Y-148074034D01*
X60800538Y-148074038D01*
X60925961Y-148199461D01*
X60925965Y-148199464D01*
X61073446Y-148298009D01*
X61073459Y-148298016D01*
X61196363Y-148348923D01*
X61237334Y-148365894D01*
X61237336Y-148365894D01*
X61237341Y-148365896D01*
X61411304Y-148400499D01*
X61411307Y-148400500D01*
X61411309Y-148400500D01*
X61588693Y-148400500D01*
X61588694Y-148400499D01*
X61646682Y-148388964D01*
X61762658Y-148365896D01*
X61762661Y-148365894D01*
X61762666Y-148365894D01*
X61926547Y-148298013D01*
X62074035Y-148199464D01*
X62199464Y-148074035D01*
X62211775Y-148055609D01*
X62265387Y-148010804D01*
X62314878Y-148000500D01*
X65315890Y-148000500D01*
X65315892Y-148000500D01*
X65443186Y-147966392D01*
X65557314Y-147900500D01*
X67400500Y-146057314D01*
X67466392Y-145943186D01*
X67500500Y-145815892D01*
X67500500Y-145684107D01*
X67500500Y-66979285D01*
X67520185Y-66912246D01*
X67572989Y-66866491D01*
X67642147Y-66856547D01*
X67705703Y-66885572D01*
X67712181Y-66891604D01*
X68463181Y-67642604D01*
X68496666Y-67703927D01*
X68499500Y-67730285D01*
X68499500Y-146241324D01*
X68479815Y-146308363D01*
X68463181Y-146329005D01*
X65079005Y-149713181D01*
X65017682Y-149746666D01*
X64991324Y-149749500D01*
X62314878Y-149749500D01*
X62247839Y-149729815D01*
X62211775Y-149694390D01*
X62199462Y-149675962D01*
X62074038Y-149550538D01*
X62074034Y-149550535D01*
X61926553Y-149451990D01*
X61926540Y-149451983D01*
X61762667Y-149384106D01*
X61762658Y-149384103D01*
X61588694Y-149349500D01*
X61588691Y-149349500D01*
X61411309Y-149349500D01*
X61411306Y-149349500D01*
X61237341Y-149384103D01*
X61237332Y-149384106D01*
X61073459Y-149451983D01*
X61073446Y-149451990D01*
X60925965Y-149550535D01*
X60925961Y-149550538D01*
X60800538Y-149675961D01*
X60800535Y-149675965D01*
X60701990Y-149823446D01*
X60701983Y-149823459D01*
X60634106Y-149987332D01*
X60634103Y-149987341D01*
X60599500Y-150161304D01*
X60599500Y-150338695D01*
X60634103Y-150512658D01*
X60634106Y-150512667D01*
X60701983Y-150676540D01*
X60701990Y-150676553D01*
X60800535Y-150824034D01*
X60800538Y-150824038D01*
X60925961Y-150949461D01*
X60925965Y-150949464D01*
X61073446Y-151048009D01*
X61073459Y-151048016D01*
X61165614Y-151086187D01*
X61237334Y-151115894D01*
X61237336Y-151115894D01*
X61237341Y-151115896D01*
X61411304Y-151150499D01*
X61411307Y-151150500D01*
X61411309Y-151150500D01*
X61588693Y-151150500D01*
X61588694Y-151150499D01*
X61646682Y-151138964D01*
X61762658Y-151115896D01*
X61762661Y-151115894D01*
X61762666Y-151115894D01*
X61926547Y-151048013D01*
X62074035Y-150949464D01*
X62199464Y-150824035D01*
X62211775Y-150805609D01*
X62265387Y-150760804D01*
X62314878Y-150750500D01*
X65315890Y-150750500D01*
X65315892Y-150750500D01*
X65443186Y-150716392D01*
X65557314Y-150650500D01*
X69287819Y-146919995D01*
X69349142Y-146886510D01*
X69418834Y-146891494D01*
X69474767Y-146933366D01*
X69499184Y-146998830D01*
X69499500Y-147007676D01*
X69499500Y-147741324D01*
X69479815Y-147808363D01*
X69463181Y-147829005D01*
X65079005Y-152213181D01*
X65017682Y-152246666D01*
X64991324Y-152249500D01*
X62314878Y-152249500D01*
X62247839Y-152229815D01*
X62211775Y-152194390D01*
X62199462Y-152175962D01*
X62074038Y-152050538D01*
X62074034Y-152050535D01*
X61926553Y-151951990D01*
X61926540Y-151951983D01*
X61762667Y-151884106D01*
X61762658Y-151884103D01*
X61588694Y-151849500D01*
X61588691Y-151849500D01*
X61411309Y-151849500D01*
X61411306Y-151849500D01*
X61237341Y-151884103D01*
X61237332Y-151884106D01*
X61073459Y-151951983D01*
X61073446Y-151951990D01*
X60925965Y-152050535D01*
X60925961Y-152050538D01*
X60800538Y-152175961D01*
X60800535Y-152175965D01*
X60701990Y-152323446D01*
X60701983Y-152323459D01*
X60634106Y-152487332D01*
X60634103Y-152487341D01*
X60599500Y-152661304D01*
X60599500Y-152838695D01*
X60634103Y-153012658D01*
X60634106Y-153012667D01*
X60701983Y-153176540D01*
X60701990Y-153176553D01*
X60800535Y-153324034D01*
X60800538Y-153324038D01*
X60925961Y-153449461D01*
X60925965Y-153449464D01*
X61073446Y-153548009D01*
X61073459Y-153548016D01*
X61194155Y-153598009D01*
X61237334Y-153615894D01*
X61237336Y-153615894D01*
X61237341Y-153615896D01*
X61411304Y-153650499D01*
X61411307Y-153650500D01*
X61411309Y-153650500D01*
X61588693Y-153650500D01*
X61588694Y-153650499D01*
X61646682Y-153638964D01*
X61762658Y-153615896D01*
X61762661Y-153615894D01*
X61762666Y-153615894D01*
X61926547Y-153548013D01*
X62074035Y-153449464D01*
X62199464Y-153324035D01*
X62211775Y-153305609D01*
X62265387Y-153260804D01*
X62314878Y-153250500D01*
X65315890Y-153250500D01*
X65315892Y-153250500D01*
X65443186Y-153216392D01*
X65557314Y-153150500D01*
X70400499Y-148307315D01*
X70466392Y-148193186D01*
X70500500Y-148065893D01*
X70500500Y-147934108D01*
X70500500Y-67840032D01*
X70466392Y-67712738D01*
X70400500Y-67598610D01*
X70307314Y-67505424D01*
X68561387Y-65759497D01*
X68527902Y-65698174D01*
X68532886Y-65628482D01*
X68574758Y-65572549D01*
X68640222Y-65548132D01*
X68705361Y-65561330D01*
X68727379Y-65572549D01*
X68854197Y-65637167D01*
X68854199Y-65637167D01*
X68854202Y-65637169D01*
X69101281Y-65717450D01*
X69233480Y-65738387D01*
X69357872Y-65758090D01*
X69357877Y-65758090D01*
X69617676Y-65758090D01*
X69731072Y-65740129D01*
X69874267Y-65717450D01*
X70121346Y-65637169D01*
X70352825Y-65519224D01*
X70563003Y-65366521D01*
X70746705Y-65182819D01*
X70899408Y-64972641D01*
X71017353Y-64741162D01*
X71095024Y-64502117D01*
X71134462Y-64444441D01*
X71198820Y-64417243D01*
X71267667Y-64429158D01*
X71319142Y-64476402D01*
X71336955Y-64540435D01*
X71336955Y-157589500D01*
X71317270Y-157656539D01*
X71264466Y-157702294D01*
X71212955Y-157713500D01*
X35461955Y-157713500D01*
X35394916Y-157693815D01*
X35349161Y-157641011D01*
X35337955Y-157589500D01*
X35337955Y-155111304D01*
X44299500Y-155111304D01*
X44299500Y-155288695D01*
X44334103Y-155462658D01*
X44334106Y-155462667D01*
X44401983Y-155626540D01*
X44401990Y-155626553D01*
X44500535Y-155774034D01*
X44500538Y-155774038D01*
X44625961Y-155899461D01*
X44625965Y-155899464D01*
X44773446Y-155998009D01*
X44773459Y-155998016D01*
X44894155Y-156048009D01*
X44937334Y-156065894D01*
X44937336Y-156065894D01*
X44937341Y-156065896D01*
X45111304Y-156100499D01*
X45111307Y-156100500D01*
X45111309Y-156100500D01*
X45288693Y-156100500D01*
X45288694Y-156100499D01*
X45346682Y-156088964D01*
X45462658Y-156065896D01*
X45462661Y-156065894D01*
X45462666Y-156065894D01*
X45626547Y-155998013D01*
X45774035Y-155899464D01*
X45899464Y-155774035D01*
X45998013Y-155626547D01*
X46065894Y-155462666D01*
X46100500Y-155288691D01*
X46100500Y-155111309D01*
X46100500Y-155111306D01*
X46084538Y-155031063D01*
X46084538Y-155031062D01*
X46080209Y-155009298D01*
X51899500Y-155009298D01*
X51899500Y-156390701D01*
X51902401Y-156427567D01*
X51902402Y-156427573D01*
X51948254Y-156585393D01*
X51948255Y-156585396D01*
X52031917Y-156726862D01*
X52031923Y-156726870D01*
X52148129Y-156843076D01*
X52148133Y-156843079D01*
X52148135Y-156843081D01*
X52289602Y-156926744D01*
X52325072Y-156937049D01*
X52447426Y-156972597D01*
X52447429Y-156972597D01*
X52447431Y-156972598D01*
X52484306Y-156975500D01*
X52484314Y-156975500D01*
X53315686Y-156975500D01*
X53315694Y-156975500D01*
X53352569Y-156972598D01*
X53352571Y-156972597D01*
X53352573Y-156972597D01*
X53394191Y-156960505D01*
X53510398Y-156926744D01*
X53651865Y-156843081D01*
X53768081Y-156726865D01*
X53851744Y-156585398D01*
X53854084Y-156577343D01*
X53891687Y-156518458D01*
X53955158Y-156489249D01*
X54024345Y-156498992D01*
X54076263Y-156543044D01*
X54122860Y-156612781D01*
X54122863Y-156612785D01*
X54262214Y-156752136D01*
X54262218Y-156752139D01*
X54426079Y-156861628D01*
X54426092Y-156861635D01*
X54583284Y-156926745D01*
X54608165Y-156937051D01*
X54608169Y-156937051D01*
X54608170Y-156937052D01*
X54801456Y-156975500D01*
X54801459Y-156975500D01*
X54998543Y-156975500D01*
X55128582Y-156949632D01*
X55191835Y-156937051D01*
X55373914Y-156861632D01*
X55537782Y-156752139D01*
X55677139Y-156612782D01*
X55786632Y-156448914D01*
X55862051Y-156266835D01*
X55892075Y-156115896D01*
X55900500Y-156073543D01*
X55900500Y-155326456D01*
X55871250Y-155179409D01*
X55867648Y-155161304D01*
X60599500Y-155161304D01*
X60599500Y-155338695D01*
X60634103Y-155512658D01*
X60634106Y-155512667D01*
X60701983Y-155676540D01*
X60701990Y-155676553D01*
X60800535Y-155824034D01*
X60800538Y-155824038D01*
X60925961Y-155949461D01*
X60925965Y-155949464D01*
X61073446Y-156048009D01*
X61073459Y-156048016D01*
X61147220Y-156078568D01*
X61237334Y-156115894D01*
X61237336Y-156115894D01*
X61237341Y-156115896D01*
X61411304Y-156150499D01*
X61411307Y-156150500D01*
X61411309Y-156150500D01*
X61588693Y-156150500D01*
X61588694Y-156150499D01*
X61646682Y-156138964D01*
X61762658Y-156115896D01*
X61762661Y-156115894D01*
X61762666Y-156115894D01*
X61926547Y-156048013D01*
X62074035Y-155949464D01*
X62199464Y-155824035D01*
X62298013Y-155676547D01*
X62365894Y-155512666D01*
X62375840Y-155462667D01*
X62400499Y-155338695D01*
X62400500Y-155338693D01*
X62400500Y-155161306D01*
X62400499Y-155161304D01*
X62365896Y-154987341D01*
X62365893Y-154987332D01*
X62298016Y-154823459D01*
X62298009Y-154823446D01*
X62199464Y-154675965D01*
X62199461Y-154675961D01*
X62074038Y-154550538D01*
X62074034Y-154550535D01*
X61926553Y-154451990D01*
X61926540Y-154451983D01*
X61762667Y-154384106D01*
X61762658Y-154384103D01*
X61588694Y-154349500D01*
X61588691Y-154349500D01*
X61411309Y-154349500D01*
X61411306Y-154349500D01*
X61237341Y-154384103D01*
X61237332Y-154384106D01*
X61073459Y-154451983D01*
X61073446Y-154451990D01*
X60925965Y-154550535D01*
X60925961Y-154550538D01*
X60800538Y-154675961D01*
X60800535Y-154675965D01*
X60701990Y-154823446D01*
X60701983Y-154823459D01*
X60634106Y-154987332D01*
X60634103Y-154987341D01*
X60599500Y-155161304D01*
X55867648Y-155161304D01*
X55862052Y-155133170D01*
X55862051Y-155133169D01*
X55862051Y-155133165D01*
X55852996Y-155111304D01*
X55786635Y-154951092D01*
X55786628Y-154951079D01*
X55677139Y-154787218D01*
X55677136Y-154787214D01*
X55537785Y-154647863D01*
X55537781Y-154647860D01*
X55455609Y-154592954D01*
X55410804Y-154539342D01*
X55400500Y-154489852D01*
X55400500Y-145891518D01*
X55420185Y-145824479D01*
X55436823Y-145803833D01*
X55444114Y-145796542D01*
X55520775Y-145681811D01*
X55573580Y-145554328D01*
X55586112Y-145491324D01*
X55600500Y-145418995D01*
X55600500Y-145281004D01*
X55573581Y-145145677D01*
X55573580Y-145145676D01*
X55573580Y-145145672D01*
X55573578Y-145145667D01*
X55520778Y-145018195D01*
X55520774Y-145018188D01*
X55449357Y-144911304D01*
X60599500Y-144911304D01*
X60599500Y-145088695D01*
X60634103Y-145262658D01*
X60634106Y-145262667D01*
X60701983Y-145426540D01*
X60701990Y-145426553D01*
X60800535Y-145574034D01*
X60800538Y-145574038D01*
X60925961Y-145699461D01*
X60925965Y-145699464D01*
X61073446Y-145798009D01*
X61073459Y-145798016D01*
X61137348Y-145824479D01*
X61237334Y-145865894D01*
X61237336Y-145865894D01*
X61237341Y-145865896D01*
X61411304Y-145900499D01*
X61411307Y-145900500D01*
X61411309Y-145900500D01*
X61588693Y-145900500D01*
X61588694Y-145900499D01*
X61646682Y-145888964D01*
X61762658Y-145865896D01*
X61762661Y-145865894D01*
X61762666Y-145865894D01*
X61926547Y-145798013D01*
X62074035Y-145699464D01*
X62199464Y-145574035D01*
X62298013Y-145426547D01*
X62365894Y-145262666D01*
X62400500Y-145088691D01*
X62400500Y-144911309D01*
X62400500Y-144911306D01*
X62400499Y-144911304D01*
X62365896Y-144737341D01*
X62365893Y-144737332D01*
X62362533Y-144729221D01*
X62340663Y-144676420D01*
X62298016Y-144573459D01*
X62298009Y-144573446D01*
X62199464Y-144425965D01*
X62199461Y-144425961D01*
X62074038Y-144300538D01*
X62074034Y-144300535D01*
X61926553Y-144201990D01*
X61926540Y-144201983D01*
X61762667Y-144134106D01*
X61762658Y-144134103D01*
X61588694Y-144099500D01*
X61588691Y-144099500D01*
X61411309Y-144099500D01*
X61411306Y-144099500D01*
X61237341Y-144134103D01*
X61237332Y-144134106D01*
X61073459Y-144201983D01*
X61073446Y-144201990D01*
X60925965Y-144300535D01*
X60925961Y-144300538D01*
X60800538Y-144425961D01*
X60800535Y-144425965D01*
X60701990Y-144573446D01*
X60701983Y-144573459D01*
X60634106Y-144737332D01*
X60634103Y-144737341D01*
X60599500Y-144911304D01*
X55449357Y-144911304D01*
X55444114Y-144903457D01*
X55346545Y-144805888D01*
X55346541Y-144805885D01*
X55231817Y-144729228D01*
X55231804Y-144729221D01*
X55104332Y-144676421D01*
X55104322Y-144676418D01*
X54968995Y-144649500D01*
X54968993Y-144649500D01*
X54831007Y-144649500D01*
X54831005Y-144649500D01*
X54695677Y-144676418D01*
X54695676Y-144676419D01*
X54695675Y-144676419D01*
X54695672Y-144676420D01*
X54626609Y-144705026D01*
X54564390Y-144730798D01*
X54494920Y-144738266D01*
X54432441Y-144706990D01*
X54396789Y-144646901D01*
X54399284Y-144577076D01*
X54429255Y-144528557D01*
X55182694Y-143775119D01*
X55244017Y-143741634D01*
X55270375Y-143738800D01*
X55470991Y-143738800D01*
X55470994Y-143738800D01*
X55539057Y-143732615D01*
X55695670Y-143683812D01*
X55836053Y-143598948D01*
X55952048Y-143482953D01*
X56036912Y-143342570D01*
X56085715Y-143185957D01*
X56091900Y-143117894D01*
X56091900Y-142411304D01*
X60599500Y-142411304D01*
X60599500Y-142588695D01*
X60634103Y-142762658D01*
X60634106Y-142762667D01*
X60701983Y-142926540D01*
X60701990Y-142926553D01*
X60800535Y-143074034D01*
X60800538Y-143074038D01*
X60925961Y-143199461D01*
X60925965Y-143199464D01*
X61073446Y-143298009D01*
X61073459Y-143298016D01*
X61181007Y-143342563D01*
X61237334Y-143365894D01*
X61237336Y-143365894D01*
X61237341Y-143365896D01*
X61411304Y-143400499D01*
X61411307Y-143400500D01*
X61411309Y-143400500D01*
X61588693Y-143400500D01*
X61588694Y-143400499D01*
X61646682Y-143388964D01*
X61762658Y-143365896D01*
X61762661Y-143365894D01*
X61762666Y-143365894D01*
X61926547Y-143298013D01*
X62074035Y-143199464D01*
X62199464Y-143074035D01*
X62298013Y-142926547D01*
X62365894Y-142762666D01*
X62400500Y-142588691D01*
X62400500Y-142411309D01*
X62400500Y-142411306D01*
X62400499Y-142411304D01*
X62365896Y-142237341D01*
X62365893Y-142237332D01*
X62298016Y-142073459D01*
X62298009Y-142073446D01*
X62199464Y-141925965D01*
X62199461Y-141925961D01*
X62074038Y-141800538D01*
X62074034Y-141800535D01*
X61926553Y-141701990D01*
X61926540Y-141701983D01*
X61762667Y-141634106D01*
X61762658Y-141634103D01*
X61588694Y-141599500D01*
X61588691Y-141599500D01*
X61411309Y-141599500D01*
X61411306Y-141599500D01*
X61237341Y-141634103D01*
X61237332Y-141634106D01*
X61073459Y-141701983D01*
X61073446Y-141701990D01*
X60925965Y-141800535D01*
X60925961Y-141800538D01*
X60800538Y-141925961D01*
X60800535Y-141925965D01*
X60701990Y-142073446D01*
X60701983Y-142073459D01*
X60634106Y-142237332D01*
X60634103Y-142237341D01*
X60599500Y-142411304D01*
X56091900Y-142411304D01*
X56091900Y-141058706D01*
X56085715Y-140990643D01*
X56036912Y-140834030D01*
X56036911Y-140834027D01*
X55952051Y-140693651D01*
X55952048Y-140693647D01*
X55836052Y-140577651D01*
X55836048Y-140577648D01*
X55695672Y-140492788D01*
X55695663Y-140492785D01*
X55539064Y-140443987D01*
X55539062Y-140443986D01*
X55539057Y-140443985D01*
X55470994Y-140437800D01*
X54811806Y-140437800D01*
X54743743Y-140443985D01*
X54743739Y-140443986D01*
X54743735Y-140443987D01*
X54587136Y-140492785D01*
X54587127Y-140492788D01*
X54446751Y-140577648D01*
X54446747Y-140577651D01*
X54330751Y-140693647D01*
X54330748Y-140693651D01*
X54245888Y-140834027D01*
X54245885Y-140834036D01*
X54197087Y-140990635D01*
X54197085Y-140990645D01*
X54190900Y-141058708D01*
X54190900Y-143117891D01*
X54197085Y-143185958D01*
X54212593Y-143235724D01*
X54213745Y-143305584D01*
X54181889Y-143360295D01*
X52575245Y-144966940D01*
X52575244Y-144966940D01*
X52575245Y-144966941D01*
X52499500Y-145042686D01*
X52433608Y-145156812D01*
X52399500Y-145284108D01*
X52399500Y-154348225D01*
X52379815Y-154415264D01*
X52327011Y-154461019D01*
X52310097Y-154467301D01*
X52289603Y-154473255D01*
X52148137Y-154556917D01*
X52148129Y-154556923D01*
X52031923Y-154673129D01*
X52031917Y-154673137D01*
X51948255Y-154814603D01*
X51948254Y-154814606D01*
X51902402Y-154972426D01*
X51902401Y-154972432D01*
X51899500Y-155009298D01*
X46080209Y-155009298D01*
X46065896Y-154937341D01*
X46065893Y-154937332D01*
X45998016Y-154773459D01*
X45998009Y-154773446D01*
X45899464Y-154625965D01*
X45899461Y-154625961D01*
X45774038Y-154500538D01*
X45774034Y-154500535D01*
X45626553Y-154401990D01*
X45626540Y-154401983D01*
X45462667Y-154334106D01*
X45462658Y-154334103D01*
X45288694Y-154299500D01*
X45288691Y-154299500D01*
X45111309Y-154299500D01*
X45111306Y-154299500D01*
X44937341Y-154334103D01*
X44937332Y-154334106D01*
X44773459Y-154401983D01*
X44773446Y-154401990D01*
X44625965Y-154500535D01*
X44625961Y-154500538D01*
X44500538Y-154625961D01*
X44500535Y-154625965D01*
X44401990Y-154773446D01*
X44401983Y-154773459D01*
X44334106Y-154937332D01*
X44334103Y-154937341D01*
X44299500Y-155111304D01*
X35337955Y-155111304D01*
X35337955Y-152711304D01*
X44299500Y-152711304D01*
X44299500Y-152888695D01*
X44334103Y-153062658D01*
X44334106Y-153062667D01*
X44401983Y-153226540D01*
X44401990Y-153226553D01*
X44500535Y-153374034D01*
X44500538Y-153374038D01*
X44625961Y-153499461D01*
X44625965Y-153499464D01*
X44773446Y-153598009D01*
X44773459Y-153598016D01*
X44896363Y-153648923D01*
X44937334Y-153665894D01*
X44937336Y-153665894D01*
X44937341Y-153665896D01*
X45111304Y-153700499D01*
X45111307Y-153700500D01*
X45111309Y-153700500D01*
X45288693Y-153700500D01*
X45288694Y-153700499D01*
X45346682Y-153688964D01*
X45462658Y-153665896D01*
X45462661Y-153665894D01*
X45462666Y-153665894D01*
X45626547Y-153598013D01*
X45774035Y-153499464D01*
X45899464Y-153374035D01*
X45998013Y-153226547D01*
X46065894Y-153062666D01*
X46075840Y-153012667D01*
X46100499Y-152888695D01*
X46100500Y-152888693D01*
X46100500Y-152711306D01*
X46100499Y-152711304D01*
X46065896Y-152537341D01*
X46065893Y-152537332D01*
X45998016Y-152373459D01*
X45998009Y-152373446D01*
X45899464Y-152225965D01*
X45899461Y-152225961D01*
X45774038Y-152100538D01*
X45774034Y-152100535D01*
X45626553Y-152001990D01*
X45626540Y-152001983D01*
X45462667Y-151934106D01*
X45462658Y-151934103D01*
X45288694Y-151899500D01*
X45288691Y-151899500D01*
X45111309Y-151899500D01*
X45111306Y-151899500D01*
X44937341Y-151934103D01*
X44937332Y-151934106D01*
X44773459Y-152001983D01*
X44773446Y-152001990D01*
X44625965Y-152100535D01*
X44625961Y-152100538D01*
X44500538Y-152225961D01*
X44500535Y-152225965D01*
X44401990Y-152373446D01*
X44401983Y-152373459D01*
X44334106Y-152537332D01*
X44334103Y-152537341D01*
X44299500Y-152711304D01*
X35337955Y-152711304D01*
X35337955Y-151062572D01*
X44690979Y-151062572D01*
X44726328Y-151086192D01*
X44908306Y-151161569D01*
X44908318Y-151161572D01*
X45101504Y-151199999D01*
X45101508Y-151200000D01*
X45298492Y-151200000D01*
X45298495Y-151199999D01*
X45491681Y-151161572D01*
X45491693Y-151161569D01*
X45673676Y-151086190D01*
X45673680Y-151086187D01*
X45709019Y-151062573D01*
X45709020Y-151062572D01*
X45200001Y-150553553D01*
X45200000Y-150553553D01*
X44690979Y-151062572D01*
X35337955Y-151062572D01*
X35337955Y-150101504D01*
X44200000Y-150101504D01*
X44200000Y-150298495D01*
X44238427Y-150491681D01*
X44238430Y-150491693D01*
X44313808Y-150673673D01*
X44313809Y-150673675D01*
X44337425Y-150709019D01*
X44846446Y-150200000D01*
X44846446Y-150199999D01*
X44796719Y-150150272D01*
X44950000Y-150150272D01*
X44950000Y-150249728D01*
X44988060Y-150341614D01*
X45058386Y-150411940D01*
X45150272Y-150450000D01*
X45249728Y-150450000D01*
X45341614Y-150411940D01*
X45411940Y-150341614D01*
X45450000Y-150249728D01*
X45450000Y-150199999D01*
X45553553Y-150199999D01*
X45553553Y-150200000D01*
X46062572Y-150709020D01*
X46062573Y-150709019D01*
X46086187Y-150673680D01*
X46086190Y-150673676D01*
X46161569Y-150491693D01*
X46161572Y-150491681D01*
X46199999Y-150298495D01*
X46200000Y-150298492D01*
X46200000Y-150101508D01*
X46199999Y-150101504D01*
X46161572Y-149908318D01*
X46161569Y-149908306D01*
X46086192Y-149726328D01*
X46062572Y-149690979D01*
X45553553Y-150199999D01*
X45450000Y-150199999D01*
X45450000Y-150150272D01*
X45411940Y-150058386D01*
X45341614Y-149988060D01*
X45249728Y-149950000D01*
X45150272Y-149950000D01*
X45058386Y-149988060D01*
X44988060Y-150058386D01*
X44950000Y-150150272D01*
X44796719Y-150150272D01*
X44337426Y-149690978D01*
X44337426Y-149690979D01*
X44313813Y-149726318D01*
X44313809Y-149726325D01*
X44238429Y-149908310D01*
X44238427Y-149908318D01*
X44200000Y-150101504D01*
X35337955Y-150101504D01*
X35337955Y-149337426D01*
X44690978Y-149337426D01*
X45200000Y-149846446D01*
X45200001Y-149846446D01*
X45709020Y-149337426D01*
X45673675Y-149313809D01*
X45673673Y-149313808D01*
X45491693Y-149238430D01*
X45491681Y-149238427D01*
X45298495Y-149200000D01*
X45101504Y-149200000D01*
X44908318Y-149238427D01*
X44908310Y-149238429D01*
X44726325Y-149313809D01*
X44726318Y-149313813D01*
X44690979Y-149337426D01*
X44690978Y-149337426D01*
X35337955Y-149337426D01*
X35337955Y-147661304D01*
X44349500Y-147661304D01*
X44349500Y-147838695D01*
X44384103Y-148012658D01*
X44384106Y-148012667D01*
X44451983Y-148176540D01*
X44451990Y-148176553D01*
X44550535Y-148324034D01*
X44550538Y-148324038D01*
X44675961Y-148449461D01*
X44675965Y-148449464D01*
X44823446Y-148548009D01*
X44823459Y-148548016D01*
X44946363Y-148598923D01*
X44987334Y-148615894D01*
X44987336Y-148615894D01*
X44987341Y-148615896D01*
X45161304Y-148650499D01*
X45161307Y-148650500D01*
X45161309Y-148650500D01*
X45338693Y-148650500D01*
X45338694Y-148650499D01*
X45396682Y-148638964D01*
X45512658Y-148615896D01*
X45512661Y-148615894D01*
X45512666Y-148615894D01*
X45676547Y-148548013D01*
X45824035Y-148449464D01*
X45949464Y-148324035D01*
X46048013Y-148176547D01*
X46115894Y-148012666D01*
X46116265Y-148010804D01*
X46150499Y-147838695D01*
X46150500Y-147838693D01*
X46150500Y-147661306D01*
X46150499Y-147661304D01*
X46115896Y-147487341D01*
X46115893Y-147487332D01*
X46048016Y-147323459D01*
X46048009Y-147323446D01*
X45949464Y-147175965D01*
X45949461Y-147175961D01*
X45824038Y-147050538D01*
X45824034Y-147050535D01*
X45676553Y-146951990D01*
X45676540Y-146951983D01*
X45512667Y-146884106D01*
X45512658Y-146884103D01*
X45338694Y-146849500D01*
X45338691Y-146849500D01*
X45161309Y-146849500D01*
X45161306Y-146849500D01*
X44987341Y-146884103D01*
X44987332Y-146884106D01*
X44823459Y-146951983D01*
X44823446Y-146951990D01*
X44675965Y-147050535D01*
X44675961Y-147050538D01*
X44550538Y-147175961D01*
X44550535Y-147175965D01*
X44451990Y-147323446D01*
X44451983Y-147323459D01*
X44384106Y-147487332D01*
X44384103Y-147487341D01*
X44349500Y-147661304D01*
X35337955Y-147661304D01*
X35337955Y-144911304D01*
X44349500Y-144911304D01*
X44349500Y-145088695D01*
X44384103Y-145262658D01*
X44384106Y-145262667D01*
X44451983Y-145426540D01*
X44451990Y-145426553D01*
X44550535Y-145574034D01*
X44550538Y-145574038D01*
X44675961Y-145699461D01*
X44675965Y-145699464D01*
X44823446Y-145798009D01*
X44823459Y-145798016D01*
X44887348Y-145824479D01*
X44987334Y-145865894D01*
X44987336Y-145865894D01*
X44987341Y-145865896D01*
X45161304Y-145900499D01*
X45161307Y-145900500D01*
X45161309Y-145900500D01*
X45338693Y-145900500D01*
X45338694Y-145900499D01*
X45396682Y-145888964D01*
X45512658Y-145865896D01*
X45512661Y-145865894D01*
X45512666Y-145865894D01*
X45676547Y-145798013D01*
X45824035Y-145699464D01*
X45949464Y-145574035D01*
X46048013Y-145426547D01*
X46115894Y-145262666D01*
X46150500Y-145088691D01*
X46150500Y-144911309D01*
X46146176Y-144889572D01*
X46152402Y-144819984D01*
X46180110Y-144777702D01*
X49899106Y-141058706D01*
X51650900Y-141058706D01*
X51650900Y-143117894D01*
X51657085Y-143185957D01*
X51657086Y-143185962D01*
X51657087Y-143185964D01*
X51705885Y-143342563D01*
X51705888Y-143342572D01*
X51790748Y-143482948D01*
X51790751Y-143482952D01*
X51906747Y-143598948D01*
X51906751Y-143598951D01*
X52047127Y-143683811D01*
X52047130Y-143683812D01*
X52203743Y-143732615D01*
X52271806Y-143738800D01*
X52271809Y-143738800D01*
X52930991Y-143738800D01*
X52930994Y-143738800D01*
X52999057Y-143732615D01*
X53155670Y-143683812D01*
X53296053Y-143598948D01*
X53412048Y-143482953D01*
X53496912Y-143342570D01*
X53545715Y-143185957D01*
X53551900Y-143117894D01*
X53551900Y-141058706D01*
X53545715Y-140990643D01*
X53496912Y-140834030D01*
X53496911Y-140834027D01*
X53412051Y-140693651D01*
X53412048Y-140693647D01*
X53296052Y-140577651D01*
X53296048Y-140577648D01*
X53155672Y-140492788D01*
X53155663Y-140492785D01*
X52999064Y-140443987D01*
X52999062Y-140443986D01*
X52999057Y-140443985D01*
X52930994Y-140437800D01*
X52271806Y-140437800D01*
X52203743Y-140443985D01*
X52203739Y-140443986D01*
X52203735Y-140443987D01*
X52047136Y-140492785D01*
X52047127Y-140492788D01*
X51906751Y-140577648D01*
X51906747Y-140577651D01*
X51790751Y-140693647D01*
X51790748Y-140693651D01*
X51705888Y-140834027D01*
X51705885Y-140834036D01*
X51657087Y-140990635D01*
X51657085Y-140990643D01*
X51650900Y-141058706D01*
X49899106Y-141058706D01*
X58463104Y-132494707D01*
X58463109Y-132494704D01*
X58473312Y-132484500D01*
X58473314Y-132484500D01*
X58566500Y-132391314D01*
X58632392Y-132277186D01*
X58666500Y-132149892D01*
X58666500Y-82688020D01*
X59436845Y-82688020D01*
X59436845Y-82947825D01*
X59477485Y-83204416D01*
X59557767Y-83451499D01*
X59638879Y-83610687D01*
X59675711Y-83682974D01*
X59828414Y-83893152D01*
X60012116Y-84076854D01*
X60222294Y-84229557D01*
X60369790Y-84304710D01*
X60453768Y-84347500D01*
X60453770Y-84347500D01*
X60453773Y-84347502D01*
X60700852Y-84427783D01*
X60833051Y-84448720D01*
X60957443Y-84468423D01*
X60957448Y-84468423D01*
X61217247Y-84468423D01*
X61330643Y-84450462D01*
X61473838Y-84427783D01*
X61720917Y-84347502D01*
X61952396Y-84229557D01*
X62162574Y-84076854D01*
X62346276Y-83893152D01*
X62498979Y-83682974D01*
X62616924Y-83451495D01*
X62697205Y-83204416D01*
X62719884Y-83061221D01*
X62737845Y-82947825D01*
X62737845Y-82688020D01*
X62713338Y-82533292D01*
X62697205Y-82431430D01*
X62616924Y-82184351D01*
X62616922Y-82184348D01*
X62616922Y-82184346D01*
X62574132Y-82100368D01*
X62498979Y-81952872D01*
X62346276Y-81742694D01*
X62162574Y-81558992D01*
X61952396Y-81406289D01*
X61880109Y-81369457D01*
X61720921Y-81288345D01*
X61473838Y-81208063D01*
X61217247Y-81167423D01*
X61217242Y-81167423D01*
X60957448Y-81167423D01*
X60957443Y-81167423D01*
X60700851Y-81208063D01*
X60453768Y-81288345D01*
X60222290Y-81406291D01*
X60012119Y-81558989D01*
X60012113Y-81558994D01*
X59828416Y-81742691D01*
X59828411Y-81742697D01*
X59675713Y-81952868D01*
X59557767Y-82184346D01*
X59477485Y-82431429D01*
X59436845Y-82688020D01*
X58666500Y-82688020D01*
X58666500Y-81030676D01*
X58686185Y-80963637D01*
X58702819Y-80942995D01*
X61148437Y-78497377D01*
X63646500Y-75999314D01*
X63712392Y-75885186D01*
X63746500Y-75757892D01*
X63746500Y-75626107D01*
X63746500Y-70673108D01*
X63712392Y-70545814D01*
X63646500Y-70431686D01*
X63553314Y-70338500D01*
X60422083Y-67207269D01*
X60388598Y-67145946D01*
X60385764Y-67119588D01*
X60385764Y-62963347D01*
X60405449Y-62896308D01*
X60458253Y-62850553D01*
X60462301Y-62848790D01*
X60638045Y-62775996D01*
X60672224Y-62761839D01*
X60672227Y-62761837D01*
X60672233Y-62761835D01*
X60873796Y-62645462D01*
X61058445Y-62503776D01*
X61223020Y-62339201D01*
X61364706Y-62154552D01*
X61481079Y-61952989D01*
X61570146Y-61737960D01*
X61630385Y-61513146D01*
X61660764Y-61282392D01*
X61660764Y-61049648D01*
X61630385Y-60818894D01*
X61570146Y-60594080D01*
X61544666Y-60532564D01*
X61481083Y-60379059D01*
X61481075Y-60379043D01*
X61364710Y-60177495D01*
X61364706Y-60177488D01*
X61223020Y-59992839D01*
X61223015Y-59992833D01*
X61058450Y-59828268D01*
X61058443Y-59828262D01*
X60873804Y-59686584D01*
X60873802Y-59686582D01*
X60873796Y-59686578D01*
X60873791Y-59686575D01*
X60873788Y-59686573D01*
X60672240Y-59570208D01*
X60672224Y-59570200D01*
X60457211Y-59481140D01*
X60232386Y-59420898D01*
X60001646Y-59390521D01*
X60001641Y-59390520D01*
X60001636Y-59390520D01*
X59768892Y-59390520D01*
X59768886Y-59390520D01*
X59768881Y-59390521D01*
X59538141Y-59420898D01*
X59313316Y-59481140D01*
X59098303Y-59570200D01*
X59098287Y-59570208D01*
X58896739Y-59686573D01*
X58896723Y-59686584D01*
X58712084Y-59828262D01*
X58712077Y-59828268D01*
X58547512Y-59992833D01*
X58547506Y-59992840D01*
X58405828Y-60177479D01*
X58405817Y-60177495D01*
X58289452Y-60379043D01*
X58289444Y-60379059D01*
X58200384Y-60594072D01*
X58140142Y-60818897D01*
X58109765Y-61049637D01*
X58109764Y-61049654D01*
X58109764Y-61282385D01*
X58109765Y-61282402D01*
X58111560Y-61296038D01*
X58140143Y-61513146D01*
X58150722Y-61552629D01*
X58200384Y-61737967D01*
X58289444Y-61952980D01*
X58289452Y-61952996D01*
X58405817Y-62154544D01*
X58405828Y-62154560D01*
X58547506Y-62339199D01*
X58547512Y-62339206D01*
X58712077Y-62503771D01*
X58712083Y-62503776D01*
X58896732Y-62645462D01*
X58896739Y-62645466D01*
X59098287Y-62761831D01*
X59098303Y-62761839D01*
X59257407Y-62827740D01*
X59308216Y-62848786D01*
X59362620Y-62892626D01*
X59384685Y-62958920D01*
X59384764Y-62963347D01*
X59384764Y-67444155D01*
X59418872Y-67571451D01*
X59434551Y-67598607D01*
X59484764Y-67685578D01*
X59484766Y-67685580D01*
X62709181Y-70909995D01*
X62742666Y-70971318D01*
X62745500Y-70997676D01*
X62745500Y-75433324D01*
X62725815Y-75500363D01*
X62709181Y-75521005D01*
X57765502Y-80464683D01*
X57765500Y-80464686D01*
X57699608Y-80578812D01*
X57665500Y-80706108D01*
X57665500Y-131825323D01*
X57645815Y-131892362D01*
X57629181Y-131913004D01*
X45472298Y-144069886D01*
X45410975Y-144103371D01*
X45360429Y-144103823D01*
X45338692Y-144099500D01*
X45338691Y-144099500D01*
X45161309Y-144099500D01*
X45161306Y-144099500D01*
X44987341Y-144134103D01*
X44987332Y-144134106D01*
X44823459Y-144201983D01*
X44823446Y-144201990D01*
X44675965Y-144300535D01*
X44675961Y-144300538D01*
X44550538Y-144425961D01*
X44550535Y-144425965D01*
X44451990Y-144573446D01*
X44451983Y-144573459D01*
X44384106Y-144737332D01*
X44384103Y-144737341D01*
X44349500Y-144911304D01*
X35337955Y-144911304D01*
X35337955Y-142411304D01*
X44349500Y-142411304D01*
X44349500Y-142588695D01*
X44384103Y-142762658D01*
X44384106Y-142762667D01*
X44451983Y-142926540D01*
X44451990Y-142926553D01*
X44550535Y-143074034D01*
X44550538Y-143074038D01*
X44675961Y-143199461D01*
X44675965Y-143199464D01*
X44823446Y-143298009D01*
X44823459Y-143298016D01*
X44931007Y-143342563D01*
X44987334Y-143365894D01*
X44987336Y-143365894D01*
X44987341Y-143365896D01*
X45161304Y-143400499D01*
X45161307Y-143400500D01*
X45161309Y-143400500D01*
X45338693Y-143400500D01*
X45338694Y-143400499D01*
X45396682Y-143388964D01*
X45512658Y-143365896D01*
X45512661Y-143365894D01*
X45512666Y-143365894D01*
X45676547Y-143298013D01*
X45824035Y-143199464D01*
X45949464Y-143074035D01*
X46048013Y-142926547D01*
X46115894Y-142762666D01*
X46150500Y-142588691D01*
X46150500Y-142411309D01*
X46146176Y-142389572D01*
X46152402Y-142319984D01*
X46180110Y-142277702D01*
X56788500Y-131669314D01*
X56854392Y-131555186D01*
X56888500Y-131427892D01*
X56888500Y-131296107D01*
X56888500Y-78017892D01*
X56908185Y-77950853D01*
X56924814Y-77930216D01*
X58968268Y-75886761D01*
X59029589Y-75853278D01*
X59099281Y-75858262D01*
X59103373Y-75859872D01*
X59313324Y-75946836D01*
X59538138Y-76007075D01*
X59768892Y-76037454D01*
X59768899Y-76037454D01*
X60001629Y-76037454D01*
X60001636Y-76037454D01*
X60232390Y-76007075D01*
X60457204Y-75946836D01*
X60602235Y-75886763D01*
X60672224Y-75857773D01*
X60672227Y-75857771D01*
X60672233Y-75857769D01*
X60873796Y-75741396D01*
X61058445Y-75599710D01*
X61223020Y-75435135D01*
X61364706Y-75250486D01*
X61481079Y-75048923D01*
X61498106Y-75007817D01*
X61570143Y-74833901D01*
X61570142Y-74833901D01*
X61570146Y-74833894D01*
X61630385Y-74609080D01*
X61660764Y-74378326D01*
X61660764Y-74145582D01*
X61630385Y-73914828D01*
X61570146Y-73690014D01*
X61570143Y-73690006D01*
X61481083Y-73474993D01*
X61481075Y-73474977D01*
X61364710Y-73273429D01*
X61364706Y-73273422D01*
X61223020Y-73088773D01*
X61223015Y-73088767D01*
X61058450Y-72924202D01*
X61058443Y-72924196D01*
X60873804Y-72782518D01*
X60873802Y-72782516D01*
X60873796Y-72782512D01*
X60873791Y-72782509D01*
X60873788Y-72782507D01*
X60672240Y-72666142D01*
X60672224Y-72666134D01*
X60457211Y-72577074D01*
X60232386Y-72516832D01*
X60001646Y-72486455D01*
X60001641Y-72486454D01*
X60001636Y-72486454D01*
X59768892Y-72486454D01*
X59768886Y-72486454D01*
X59768881Y-72486455D01*
X59538141Y-72516832D01*
X59313316Y-72577074D01*
X59098303Y-72666134D01*
X59098287Y-72666142D01*
X58896739Y-72782507D01*
X58896723Y-72782518D01*
X58712084Y-72924196D01*
X58712077Y-72924202D01*
X58547512Y-73088767D01*
X58547506Y-73088774D01*
X58405828Y-73273413D01*
X58405817Y-73273429D01*
X58289452Y-73474977D01*
X58289444Y-73474993D01*
X58200384Y-73690006D01*
X58140142Y-73914831D01*
X58109765Y-74145571D01*
X58109764Y-74145588D01*
X58109764Y-74378319D01*
X58109765Y-74378336D01*
X58139869Y-74607004D01*
X58140143Y-74609080D01*
X58176561Y-74744995D01*
X58200384Y-74833901D01*
X58287333Y-75043817D01*
X58294802Y-75113286D01*
X58263526Y-75175765D01*
X58260453Y-75178950D01*
X56063244Y-77376158D01*
X56063245Y-77376159D01*
X55987500Y-77451904D01*
X55921608Y-77566030D01*
X55887500Y-77693326D01*
X55887500Y-131103323D01*
X55867815Y-131170362D01*
X55851181Y-131191004D01*
X45472298Y-141569886D01*
X45410975Y-141603371D01*
X45360429Y-141603823D01*
X45338692Y-141599500D01*
X45338691Y-141599500D01*
X45161309Y-141599500D01*
X45161306Y-141599500D01*
X44987341Y-141634103D01*
X44987332Y-141634106D01*
X44823459Y-141701983D01*
X44823446Y-141701990D01*
X44675965Y-141800535D01*
X44675961Y-141800538D01*
X44550538Y-141925961D01*
X44550535Y-141925965D01*
X44451990Y-142073446D01*
X44451983Y-142073459D01*
X44384106Y-142237332D01*
X44384103Y-142237341D01*
X44349500Y-142411304D01*
X35337955Y-142411304D01*
X35337955Y-139911304D01*
X44349500Y-139911304D01*
X44349500Y-140088695D01*
X44384103Y-140262658D01*
X44384106Y-140262667D01*
X44451983Y-140426540D01*
X44451990Y-140426553D01*
X44550535Y-140574034D01*
X44550538Y-140574038D01*
X44675961Y-140699461D01*
X44675965Y-140699464D01*
X44823446Y-140798009D01*
X44823459Y-140798016D01*
X44910421Y-140834036D01*
X44987334Y-140865894D01*
X44987336Y-140865894D01*
X44987341Y-140865896D01*
X45161304Y-140900499D01*
X45161307Y-140900500D01*
X45161309Y-140900500D01*
X45338693Y-140900500D01*
X45338694Y-140900499D01*
X45396682Y-140888964D01*
X45512658Y-140865896D01*
X45512661Y-140865894D01*
X45512666Y-140865894D01*
X45676547Y-140798013D01*
X45824035Y-140699464D01*
X45949464Y-140574035D01*
X46048013Y-140426547D01*
X46115894Y-140262666D01*
X46150500Y-140088691D01*
X46150500Y-139911309D01*
X46150500Y-139911307D01*
X46150500Y-139911306D01*
X46150499Y-139911304D01*
X46115896Y-139737341D01*
X46115893Y-139737332D01*
X46048016Y-139573459D01*
X46048009Y-139573446D01*
X45949464Y-139425965D01*
X45949461Y-139425961D01*
X45824038Y-139300538D01*
X45824034Y-139300535D01*
X45676553Y-139201990D01*
X45676540Y-139201983D01*
X45512667Y-139134106D01*
X45512658Y-139134103D01*
X45338694Y-139099500D01*
X45338691Y-139099500D01*
X45161309Y-139099500D01*
X45161306Y-139099500D01*
X44987341Y-139134103D01*
X44987332Y-139134106D01*
X44823459Y-139201983D01*
X44823446Y-139201990D01*
X44675965Y-139300535D01*
X44675961Y-139300538D01*
X44550538Y-139425961D01*
X44550535Y-139425965D01*
X44451990Y-139573446D01*
X44451983Y-139573459D01*
X44384106Y-139737332D01*
X44384103Y-139737341D01*
X44349500Y-139911304D01*
X35337955Y-139911304D01*
X35337955Y-82727988D01*
X48434264Y-82727988D01*
X48434264Y-84859391D01*
X48437165Y-84896257D01*
X48437166Y-84896263D01*
X48483018Y-85054083D01*
X48483019Y-85054086D01*
X48566681Y-85195552D01*
X48566687Y-85195560D01*
X48682893Y-85311766D01*
X48682897Y-85311769D01*
X48682899Y-85311771D01*
X48824366Y-85395434D01*
X48865988Y-85407526D01*
X48982190Y-85441287D01*
X48982193Y-85441287D01*
X48982195Y-85441288D01*
X49019070Y-85444190D01*
X49019078Y-85444190D01*
X51150450Y-85444190D01*
X51150458Y-85444190D01*
X51187333Y-85441288D01*
X51187335Y-85441287D01*
X51187337Y-85441287D01*
X51228955Y-85429195D01*
X51345162Y-85395434D01*
X51486629Y-85311771D01*
X51602845Y-85195555D01*
X51686508Y-85054088D01*
X51732362Y-84896259D01*
X51735264Y-84859384D01*
X51735264Y-82727996D01*
X51732362Y-82691121D01*
X51731461Y-82688020D01*
X51686509Y-82533296D01*
X51686508Y-82533293D01*
X51686508Y-82533292D01*
X51602845Y-82391825D01*
X51602843Y-82391823D01*
X51602840Y-82391819D01*
X51486634Y-82275613D01*
X51486626Y-82275607D01*
X51345160Y-82191945D01*
X51345157Y-82191944D01*
X51187337Y-82146092D01*
X51187331Y-82146091D01*
X51150465Y-82143190D01*
X51150458Y-82143190D01*
X49019070Y-82143190D01*
X49019062Y-82143190D01*
X48982196Y-82146091D01*
X48982190Y-82146092D01*
X48824370Y-82191944D01*
X48824367Y-82191945D01*
X48682901Y-82275607D01*
X48682893Y-82275613D01*
X48566687Y-82391819D01*
X48566681Y-82391827D01*
X48483019Y-82533293D01*
X48483018Y-82533296D01*
X48437166Y-82691116D01*
X48437165Y-82691122D01*
X48434264Y-82727988D01*
X35337955Y-82727988D01*
X35337955Y-78077933D01*
X40992916Y-78077933D01*
X40992916Y-78209716D01*
X41027024Y-78337012D01*
X41059970Y-78394075D01*
X41092916Y-78451139D01*
X42600316Y-79958539D01*
X42699151Y-80015602D01*
X42714440Y-80024429D01*
X42714444Y-80024431D01*
X42841738Y-80058539D01*
X42841740Y-80058539D01*
X42973521Y-80058539D01*
X42973523Y-80058539D01*
X43100816Y-80024431D01*
X43214945Y-79958539D01*
X43308130Y-79865354D01*
X43308130Y-79865352D01*
X43318334Y-79855149D01*
X43318338Y-79855144D01*
X43838460Y-79335022D01*
X44368790Y-78804692D01*
X44434682Y-78690564D01*
X44468790Y-78563270D01*
X44468790Y-78431485D01*
X44434682Y-78304192D01*
X44368790Y-78190064D01*
X44275604Y-78096878D01*
X44275603Y-78096877D01*
X44271273Y-78092547D01*
X44271262Y-78092537D01*
X42861393Y-76682667D01*
X42861392Y-76682666D01*
X42861391Y-76682665D01*
X42804327Y-76649719D01*
X42747264Y-76616773D01*
X42683616Y-76599719D01*
X42619970Y-76582665D01*
X42488185Y-76582665D01*
X42360889Y-76616773D01*
X42246763Y-76682665D01*
X42246760Y-76682667D01*
X41716433Y-77212995D01*
X41168669Y-77760755D01*
X41168660Y-77760767D01*
X41092916Y-77836511D01*
X41027024Y-77950637D01*
X40992916Y-78077933D01*
X35337955Y-78077933D01*
X35337955Y-71753099D01*
X35357640Y-71686060D01*
X35410444Y-71640305D01*
X35479602Y-71630361D01*
X35543158Y-71659386D01*
X35579886Y-71714781D01*
X35621790Y-71843749D01*
X35657557Y-71953826D01*
X35775502Y-72185305D01*
X35928205Y-72395483D01*
X36111907Y-72579185D01*
X36322085Y-72731888D01*
X36428894Y-72786310D01*
X36553559Y-72849831D01*
X36553561Y-72849831D01*
X36553564Y-72849833D01*
X36800643Y-72930114D01*
X36932842Y-72951051D01*
X37057234Y-72970754D01*
X37057239Y-72970754D01*
X37317038Y-72970754D01*
X37430434Y-72952793D01*
X37573629Y-72930114D01*
X37820708Y-72849833D01*
X37865106Y-72827210D01*
X37933773Y-72814314D01*
X37998514Y-72840589D01*
X38009082Y-72850014D01*
X38364382Y-73205314D01*
X38457568Y-73298500D01*
X38571696Y-73364392D01*
X38698990Y-73398500D01*
X45842324Y-73398500D01*
X45909363Y-73418185D01*
X45930005Y-73434819D01*
X47142181Y-74646995D01*
X47175666Y-74708318D01*
X47178500Y-74734676D01*
X47178500Y-74744993D01*
X47178500Y-74744995D01*
X47178499Y-74744995D01*
X47205418Y-74880322D01*
X47205421Y-74880332D01*
X47258221Y-75007804D01*
X47258228Y-75007817D01*
X47334885Y-75122541D01*
X47334888Y-75122545D01*
X47432454Y-75220111D01*
X47432458Y-75220114D01*
X47547182Y-75296771D01*
X47547195Y-75296778D01*
X47674667Y-75349578D01*
X47674672Y-75349580D01*
X47674676Y-75349580D01*
X47674677Y-75349581D01*
X47810004Y-75376500D01*
X47810007Y-75376500D01*
X47947995Y-75376500D01*
X48039041Y-75358389D01*
X48083328Y-75349580D01*
X48210811Y-75296775D01*
X48325542Y-75220114D01*
X48423114Y-75122542D01*
X48499775Y-75007811D01*
X48552580Y-74880328D01*
X48579500Y-74744993D01*
X48579500Y-74607007D01*
X48579500Y-74607004D01*
X48552581Y-74471677D01*
X48552580Y-74471676D01*
X48552580Y-74471672D01*
X48513912Y-74378319D01*
X48499778Y-74344195D01*
X48499771Y-74344182D01*
X48423114Y-74229458D01*
X48423111Y-74229454D01*
X48325545Y-74131888D01*
X48325541Y-74131885D01*
X48210817Y-74055228D01*
X48210804Y-74055221D01*
X48083332Y-74002421D01*
X48083322Y-74002418D01*
X47947995Y-73975500D01*
X47947993Y-73975500D01*
X47937676Y-73975500D01*
X47870637Y-73955815D01*
X47849995Y-73939181D01*
X46408316Y-72497502D01*
X46408314Y-72497500D01*
X46351250Y-72464554D01*
X46294187Y-72431608D01*
X46230539Y-72414554D01*
X46166892Y-72397500D01*
X46166891Y-72397500D01*
X39023558Y-72397500D01*
X38956519Y-72377815D01*
X38935877Y-72361181D01*
X38716896Y-72142200D01*
X38683411Y-72080877D01*
X38688395Y-72011185D01*
X38694087Y-71998235D01*
X38716715Y-71953826D01*
X38796996Y-71706747D01*
X38819675Y-71563552D01*
X38837636Y-71450156D01*
X38837636Y-71190351D01*
X38809166Y-71010600D01*
X38796996Y-70933761D01*
X38716715Y-70686682D01*
X38716713Y-70686679D01*
X38716713Y-70686677D01*
X38673923Y-70602699D01*
X38598770Y-70455203D01*
X38446067Y-70245025D01*
X38262365Y-70061323D01*
X38052187Y-69908620D01*
X37979900Y-69871788D01*
X37820712Y-69790676D01*
X37573629Y-69710394D01*
X37317038Y-69669754D01*
X37317033Y-69669754D01*
X37057239Y-69669754D01*
X37057234Y-69669754D01*
X36800642Y-69710394D01*
X36553559Y-69790676D01*
X36322081Y-69908622D01*
X36111910Y-70061320D01*
X36111904Y-70061325D01*
X35928207Y-70245022D01*
X35928202Y-70245028D01*
X35775504Y-70455199D01*
X35657558Y-70686677D01*
X35579886Y-70925727D01*
X35540448Y-70983402D01*
X35476089Y-71010600D01*
X35407243Y-70998685D01*
X35355767Y-70951441D01*
X35337955Y-70887408D01*
X35337955Y-68694255D01*
X50576797Y-68694255D01*
X50576797Y-68954060D01*
X50617437Y-69210651D01*
X50697719Y-69457734D01*
X50778831Y-69616922D01*
X50815663Y-69689209D01*
X50968366Y-69899387D01*
X51152068Y-70083089D01*
X51362246Y-70235792D01*
X51509742Y-70310945D01*
X51593720Y-70353735D01*
X51593722Y-70353735D01*
X51593725Y-70353737D01*
X51840804Y-70434018D01*
X51973003Y-70454955D01*
X52097395Y-70474658D01*
X52097400Y-70474658D01*
X52357199Y-70474658D01*
X52480030Y-70455203D01*
X52613790Y-70434018D01*
X52860869Y-70353737D01*
X53092348Y-70235792D01*
X53302526Y-70083089D01*
X53486228Y-69899387D01*
X53638931Y-69689209D01*
X53756876Y-69457730D01*
X53837157Y-69210651D01*
X53859836Y-69067456D01*
X53877797Y-68954060D01*
X53877797Y-68694255D01*
X53856244Y-68558179D01*
X53837157Y-68437665D01*
X53756876Y-68190586D01*
X53756874Y-68190583D01*
X53756874Y-68190581D01*
X53714084Y-68106603D01*
X53638931Y-67959107D01*
X53486228Y-67748929D01*
X53302526Y-67565227D01*
X53135886Y-67444156D01*
X53092351Y-67412526D01*
X53092350Y-67412525D01*
X53092348Y-67412524D01*
X53020061Y-67375692D01*
X52860873Y-67294580D01*
X52613790Y-67214298D01*
X52357199Y-67173658D01*
X52357194Y-67173658D01*
X52097400Y-67173658D01*
X52097395Y-67173658D01*
X51840803Y-67214298D01*
X51593720Y-67294580D01*
X51362242Y-67412526D01*
X51152071Y-67565224D01*
X51152065Y-67565229D01*
X50968368Y-67748926D01*
X50968363Y-67748932D01*
X50815665Y-67959103D01*
X50697719Y-68190581D01*
X50617437Y-68437664D01*
X50576797Y-68694255D01*
X35337955Y-68694255D01*
X35337955Y-61036233D01*
X45139146Y-61036233D01*
X45139146Y-61296038D01*
X45179786Y-61552629D01*
X45260068Y-61799712D01*
X45378014Y-62031190D01*
X45530712Y-62241361D01*
X45530715Y-62241365D01*
X45714417Y-62425067D01*
X45924595Y-62577770D01*
X46057455Y-62645466D01*
X46156069Y-62695713D01*
X46156071Y-62695713D01*
X46156074Y-62695715D01*
X46403153Y-62775996D01*
X46535352Y-62796933D01*
X46659744Y-62816636D01*
X46659749Y-62816636D01*
X46919548Y-62816636D01*
X47032944Y-62798675D01*
X47176139Y-62775996D01*
X47423218Y-62695715D01*
X47654697Y-62577770D01*
X47864875Y-62425067D01*
X48048577Y-62241365D01*
X48201280Y-62031187D01*
X48319225Y-61799708D01*
X48399506Y-61552629D01*
X48422185Y-61409434D01*
X48440146Y-61296038D01*
X48440146Y-61036233D01*
X48405723Y-60818897D01*
X48399506Y-60779643D01*
X48319225Y-60532564D01*
X48319223Y-60532561D01*
X48319223Y-60532559D01*
X48276433Y-60448581D01*
X48201280Y-60301085D01*
X48048577Y-60090907D01*
X47864875Y-59907205D01*
X47864871Y-59907202D01*
X47654700Y-59754504D01*
X47654699Y-59754503D01*
X47654697Y-59754502D01*
X47582410Y-59717670D01*
X47423222Y-59636558D01*
X47176139Y-59556276D01*
X46919548Y-59515636D01*
X46919543Y-59515636D01*
X46659749Y-59515636D01*
X46659744Y-59515636D01*
X46403152Y-59556276D01*
X46156069Y-59636558D01*
X45924591Y-59754504D01*
X45714420Y-59907202D01*
X45714414Y-59907207D01*
X45530717Y-60090904D01*
X45530712Y-60090910D01*
X45378014Y-60301081D01*
X45260068Y-60532559D01*
X45179786Y-60779642D01*
X45139146Y-61036233D01*
X35337955Y-61036233D01*
X35337955Y-57218283D01*
X40992916Y-57218283D01*
X40992916Y-57350067D01*
X41027024Y-57477361D01*
X41044246Y-57507191D01*
X41092917Y-57591490D01*
X41092919Y-57591493D01*
X41564659Y-58063231D01*
X41623247Y-58121819D01*
X42153577Y-58652149D01*
X42246763Y-58745335D01*
X42360891Y-58811227D01*
X42488185Y-58845335D01*
X42488187Y-58845335D01*
X42619968Y-58845335D01*
X42619969Y-58845335D01*
X42619970Y-58845335D01*
X42747263Y-58811227D01*
X42861391Y-58745335D01*
X42954577Y-58652149D01*
X42954577Y-58652148D01*
X44265394Y-57341329D01*
X44265399Y-57341326D01*
X44275602Y-57331122D01*
X44275604Y-57331122D01*
X44368790Y-57237936D01*
X44434682Y-57123808D01*
X44468790Y-56996515D01*
X44468790Y-56864730D01*
X44434682Y-56737436D01*
X44368790Y-56623308D01*
X43745274Y-55999792D01*
X43315200Y-55569717D01*
X43315198Y-55569714D01*
X43214946Y-55469462D01*
X43214941Y-55469458D01*
X43100818Y-55403570D01*
X43100817Y-55403569D01*
X43100816Y-55403569D01*
X42973523Y-55369461D01*
X42841738Y-55369461D01*
X42714442Y-55403569D01*
X42600316Y-55469461D01*
X42600313Y-55469463D01*
X41092918Y-56976858D01*
X41092916Y-56976861D01*
X41027024Y-57090987D01*
X41018230Y-57123808D01*
X40992916Y-57218283D01*
X35337955Y-57218283D01*
X35337955Y-51544429D01*
X43937065Y-51544429D01*
X43937065Y-53675832D01*
X43939966Y-53712698D01*
X43939967Y-53712704D01*
X43985819Y-53870524D01*
X43985820Y-53870527D01*
X44069482Y-54011993D01*
X44069488Y-54012001D01*
X44185694Y-54128207D01*
X44185698Y-54128210D01*
X44185700Y-54128212D01*
X44327167Y-54211875D01*
X44368789Y-54223967D01*
X44484991Y-54257728D01*
X44484994Y-54257728D01*
X44484996Y-54257729D01*
X44521871Y-54260631D01*
X44521879Y-54260631D01*
X46653251Y-54260631D01*
X46653259Y-54260631D01*
X46690134Y-54257729D01*
X46690136Y-54257728D01*
X46690138Y-54257728D01*
X46731756Y-54245636D01*
X46847963Y-54211875D01*
X46989430Y-54128212D01*
X47105646Y-54011996D01*
X47189309Y-53870529D01*
X47235163Y-53712700D01*
X47238065Y-53675825D01*
X47238065Y-51544437D01*
X47235163Y-51507562D01*
X47189309Y-51349733D01*
X47105646Y-51208266D01*
X47105644Y-51208264D01*
X47105641Y-51208260D01*
X46989435Y-51092054D01*
X46989427Y-51092048D01*
X46847961Y-51008386D01*
X46847958Y-51008385D01*
X46690138Y-50962533D01*
X46690132Y-50962532D01*
X46653266Y-50959631D01*
X46653259Y-50959631D01*
X44521871Y-50959631D01*
X44521863Y-50959631D01*
X44484997Y-50962532D01*
X44484991Y-50962533D01*
X44327171Y-51008385D01*
X44327168Y-51008386D01*
X44185702Y-51092048D01*
X44185694Y-51092054D01*
X44069488Y-51208260D01*
X44069482Y-51208268D01*
X43985820Y-51349734D01*
X43985819Y-51349737D01*
X43939967Y-51507557D01*
X43939966Y-51507563D01*
X43937065Y-51544429D01*
X35337955Y-51544429D01*
X35337955Y-28838500D01*
X35357640Y-28771461D01*
X35410444Y-28725706D01*
X35461955Y-28714500D01*
X40212955Y-28714500D01*
X40279994Y-28734185D01*
G37*
%TD.AperFunction*%
%TD*%
M02*
