%TF.GenerationSoftware,KiCad,Pcbnew,10.0.3*%
%TF.CreationDate,2026-07-22T11:16:38-07:00*%
%TF.ProjectId,c6remote,63367265-6d6f-4746-952e-6b696361645f,rev?*%
%TF.SameCoordinates,Original*%
%TF.FileFunction,Soldermask,Top*%
%TF.FilePolarity,Negative*%
%FSLAX46Y46*%
G04 Gerber Fmt 4.6, Leading zero omitted, Abs format (unit mm)*
G04 Created by KiCad (PCBNEW 10.0.3) date 2026-07-22 11:16:38*
%MOMM*%
%LPD*%
G01*
G04 APERTURE LIST*
G04 Aperture macros list*
%AMRoundRect*
0 Rectangle with rounded corners*
0 $1 Rounding radius*
0 $2 $3 $4 $5 $6 $7 $8 $9 X,Y pos of 4 corners*
0 Add a 4 corners polygon primitive as box body*
4,1,4,$2,$3,$4,$5,$6,$7,$8,$9,$2,$3,0*
0 Add four circle primitives for the rounded corners*
1,1,$1+$1,$2,$3*
1,1,$1+$1,$4,$5*
1,1,$1+$1,$6,$7*
1,1,$1+$1,$8,$9*
0 Add four rect primitives between the rounded corners*
20,1,$1+$1,$2,$3,$4,$5,0*
20,1,$1+$1,$4,$5,$6,$7,0*
20,1,$1+$1,$6,$7,$8,$9,0*
20,1,$1+$1,$8,$9,$2,$3,0*%
G04 Aperture macros list end*
%ADD10C,0.010000*%
%ADD11RoundRect,0.200000X-0.275000X0.200000X-0.275000X-0.200000X0.275000X-0.200000X0.275000X0.200000X0*%
%ADD12RoundRect,0.250000X0.250000X0.475000X-0.250000X0.475000X-0.250000X-0.475000X0.250000X-0.475000X0*%
%ADD13RoundRect,0.525400X0.900400X0.525400X-0.900400X0.525400X-0.900400X-0.525400X0.900400X-0.525400X0*%
%ADD14C,1.700000*%
%ADD15RoundRect,0.275000X0.275000X-0.975000X0.275000X0.975000X-0.275000X0.975000X-0.275000X-0.975000X0*%
%ADD16RoundRect,0.150000X0.587500X0.150000X-0.587500X0.150000X-0.587500X-0.150000X0.587500X-0.150000X0*%
%ADD17RoundRect,0.250000X-0.250000X-0.475000X0.250000X-0.475000X0.250000X0.475000X-0.250000X0.475000X0*%
%ADD18C,1.000000*%
%ADD19RoundRect,0.225000X-0.250000X0.225000X-0.250000X-0.225000X0.250000X-0.225000X0.250000X0.225000X0*%
%ADD20R,1.800000X1.800000*%
%ADD21C,1.800000*%
%ADD22RoundRect,0.200000X0.275000X-0.200000X0.275000X0.200000X-0.275000X0.200000X-0.275000X-0.200000X0*%
%ADD23RoundRect,0.100000X-0.850000X-0.100000X0.850000X-0.100000X0.850000X0.100000X-0.850000X0.100000X0*%
%ADD24R,1.600000X0.850000*%
%ADD25RoundRect,0.250000X1.000000X-1.000000X1.000000X1.000000X-1.000000X1.000000X-1.000000X-1.000000X0*%
%ADD26C,2.500000*%
%ADD27C,2.750000*%
%ADD28C,0.500000*%
%ADD29RoundRect,0.248400X-0.651600X-0.651600X0.651600X-0.651600X0.651600X0.651600X-0.651600X0.651600X0*%
G04 APERTURE END LIST*
D10*
%TO.C,SW10*%
X63386000Y-109863000D02*
X64686000Y-109863000D01*
X64686000Y-109463000D01*
X64486000Y-109463000D01*
X64486000Y-108963000D01*
X63586000Y-108963000D01*
X63586000Y-109463000D01*
X63386000Y-109463000D01*
X63386000Y-109863000D01*
G36*
X64486000Y-109463000D02*
G01*
X64686000Y-109463000D01*
X64686000Y-109863000D01*
X63386000Y-109863000D01*
X63386000Y-109463000D01*
X63586000Y-109463000D01*
X63586000Y-108963000D01*
X64486000Y-108963000D01*
X64486000Y-109463000D01*
G37*
X64486000Y-104913000D02*
X64486000Y-105413000D01*
X63586000Y-105413000D01*
X63586000Y-104913000D01*
X63386000Y-104913000D01*
X63386000Y-104513000D01*
X64686000Y-104513000D01*
X64686000Y-104913000D01*
X64486000Y-104913000D01*
G36*
X64686000Y-104913000D02*
G01*
X64486000Y-104913000D01*
X64486000Y-105413000D01*
X63586000Y-105413000D01*
X63586000Y-104913000D01*
X63386000Y-104913000D01*
X63386000Y-104513000D01*
X64686000Y-104513000D01*
X64686000Y-104913000D01*
G37*
X67986000Y-104913000D02*
X67986000Y-105413000D01*
X67086000Y-105413000D01*
X67086000Y-104913000D01*
X66886000Y-104913000D01*
X66886000Y-104513000D01*
X68186000Y-104513000D01*
X68186000Y-104913000D01*
X67986000Y-104913000D01*
G36*
X68186000Y-104913000D02*
G01*
X67986000Y-104913000D01*
X67986000Y-105413000D01*
X67086000Y-105413000D01*
X67086000Y-104913000D01*
X66886000Y-104913000D01*
X66886000Y-104513000D01*
X68186000Y-104513000D01*
X68186000Y-104913000D01*
G37*
X68186000Y-109463000D02*
X68186000Y-109863000D01*
X66886000Y-109863000D01*
X66886000Y-109463000D01*
X67086000Y-109463000D01*
X67086000Y-108963000D01*
X67986000Y-108963000D01*
X67986000Y-109463000D01*
X68186000Y-109463000D01*
G36*
X67986000Y-109463000D02*
G01*
X68186000Y-109463000D01*
X68186000Y-109863000D01*
X66886000Y-109863000D01*
X66886000Y-109463000D01*
X67086000Y-109463000D01*
X67086000Y-108963000D01*
X67986000Y-108963000D01*
X67986000Y-109463000D01*
G37*
%TO.C,SW9*%
X63386000Y-122309000D02*
X64686000Y-122309000D01*
X64686000Y-121909000D01*
X64486000Y-121909000D01*
X64486000Y-121409000D01*
X63586000Y-121409000D01*
X63586000Y-121909000D01*
X63386000Y-121909000D01*
X63386000Y-122309000D01*
G36*
X64486000Y-121909000D02*
G01*
X64686000Y-121909000D01*
X64686000Y-122309000D01*
X63386000Y-122309000D01*
X63386000Y-121909000D01*
X63586000Y-121909000D01*
X63586000Y-121409000D01*
X64486000Y-121409000D01*
X64486000Y-121909000D01*
G37*
X64486000Y-117359000D02*
X64486000Y-117859000D01*
X63586000Y-117859000D01*
X63586000Y-117359000D01*
X63386000Y-117359000D01*
X63386000Y-116959000D01*
X64686000Y-116959000D01*
X64686000Y-117359000D01*
X64486000Y-117359000D01*
G36*
X64686000Y-117359000D02*
G01*
X64486000Y-117359000D01*
X64486000Y-117859000D01*
X63586000Y-117859000D01*
X63586000Y-117359000D01*
X63386000Y-117359000D01*
X63386000Y-116959000D01*
X64686000Y-116959000D01*
X64686000Y-117359000D01*
G37*
X67986000Y-117359000D02*
X67986000Y-117859000D01*
X67086000Y-117859000D01*
X67086000Y-117359000D01*
X66886000Y-117359000D01*
X66886000Y-116959000D01*
X68186000Y-116959000D01*
X68186000Y-117359000D01*
X67986000Y-117359000D01*
G36*
X68186000Y-117359000D02*
G01*
X67986000Y-117359000D01*
X67986000Y-117859000D01*
X67086000Y-117859000D01*
X67086000Y-117359000D01*
X66886000Y-117359000D01*
X66886000Y-116959000D01*
X68186000Y-116959000D01*
X68186000Y-117359000D01*
G37*
X68186000Y-121909000D02*
X68186000Y-122309000D01*
X66886000Y-122309000D01*
X66886000Y-121909000D01*
X67086000Y-121909000D01*
X67086000Y-121409000D01*
X67986000Y-121409000D01*
X67986000Y-121909000D01*
X68186000Y-121909000D01*
G36*
X67986000Y-121909000D02*
G01*
X68186000Y-121909000D01*
X68186000Y-122309000D01*
X66886000Y-122309000D01*
X66886000Y-121909000D01*
X67086000Y-121909000D01*
X67086000Y-121409000D01*
X67986000Y-121409000D01*
X67986000Y-121909000D01*
G37*
%TO.C,SW5*%
X38494000Y-122309000D02*
X39794000Y-122309000D01*
X39794000Y-121909000D01*
X39594000Y-121909000D01*
X39594000Y-121409000D01*
X38694000Y-121409000D01*
X38694000Y-121909000D01*
X38494000Y-121909000D01*
X38494000Y-122309000D01*
G36*
X39594000Y-121909000D02*
G01*
X39794000Y-121909000D01*
X39794000Y-122309000D01*
X38494000Y-122309000D01*
X38494000Y-121909000D01*
X38694000Y-121909000D01*
X38694000Y-121409000D01*
X39594000Y-121409000D01*
X39594000Y-121909000D01*
G37*
X39594000Y-117359000D02*
X39594000Y-117859000D01*
X38694000Y-117859000D01*
X38694000Y-117359000D01*
X38494000Y-117359000D01*
X38494000Y-116959000D01*
X39794000Y-116959000D01*
X39794000Y-117359000D01*
X39594000Y-117359000D01*
G36*
X39794000Y-117359000D02*
G01*
X39594000Y-117359000D01*
X39594000Y-117859000D01*
X38694000Y-117859000D01*
X38694000Y-117359000D01*
X38494000Y-117359000D01*
X38494000Y-116959000D01*
X39794000Y-116959000D01*
X39794000Y-117359000D01*
G37*
X43094000Y-117359000D02*
X43094000Y-117859000D01*
X42194000Y-117859000D01*
X42194000Y-117359000D01*
X41994000Y-117359000D01*
X41994000Y-116959000D01*
X43294000Y-116959000D01*
X43294000Y-117359000D01*
X43094000Y-117359000D01*
G36*
X43294000Y-117359000D02*
G01*
X43094000Y-117359000D01*
X43094000Y-117859000D01*
X42194000Y-117859000D01*
X42194000Y-117359000D01*
X41994000Y-117359000D01*
X41994000Y-116959000D01*
X43294000Y-116959000D01*
X43294000Y-117359000D01*
G37*
X43294000Y-121909000D02*
X43294000Y-122309000D01*
X41994000Y-122309000D01*
X41994000Y-121909000D01*
X42194000Y-121909000D01*
X42194000Y-121409000D01*
X43094000Y-121409000D01*
X43094000Y-121909000D01*
X43294000Y-121909000D01*
G36*
X43094000Y-121909000D02*
G01*
X43294000Y-121909000D01*
X43294000Y-122309000D01*
X41994000Y-122309000D01*
X41994000Y-121909000D01*
X42194000Y-121909000D01*
X42194000Y-121409000D01*
X43094000Y-121409000D01*
X43094000Y-121909000D01*
G37*
%TO.C,SW2*%
X38219000Y-41350000D02*
X38219000Y-42650000D01*
X38619000Y-42650000D01*
X38619000Y-42450000D01*
X39119000Y-42450000D01*
X39119000Y-41550000D01*
X38619000Y-41550000D01*
X38619000Y-41350000D01*
X38219000Y-41350000D01*
G36*
X38619000Y-41550000D02*
G01*
X39119000Y-41550000D01*
X39119000Y-42450000D01*
X38619000Y-42450000D01*
X38619000Y-42650000D01*
X38219000Y-42650000D01*
X38219000Y-41350000D01*
X38619000Y-41350000D01*
X38619000Y-41550000D01*
G37*
X38619000Y-46150000D02*
X38219000Y-46150000D01*
X38219000Y-44850000D01*
X38619000Y-44850000D01*
X38619000Y-45050000D01*
X39119000Y-45050000D01*
X39119000Y-45950000D01*
X38619000Y-45950000D01*
X38619000Y-46150000D01*
G36*
X38619000Y-45050000D02*
G01*
X39119000Y-45050000D01*
X39119000Y-45950000D01*
X38619000Y-45950000D01*
X38619000Y-46150000D01*
X38219000Y-46150000D01*
X38219000Y-44850000D01*
X38619000Y-44850000D01*
X38619000Y-45050000D01*
G37*
X43169000Y-42450000D02*
X42669000Y-42450000D01*
X42669000Y-41550000D01*
X43169000Y-41550000D01*
X43169000Y-41350000D01*
X43569000Y-41350000D01*
X43569000Y-42650000D01*
X43169000Y-42650000D01*
X43169000Y-42450000D01*
G36*
X43569000Y-42650000D02*
G01*
X43169000Y-42650000D01*
X43169000Y-42450000D01*
X42669000Y-42450000D01*
X42669000Y-41550000D01*
X43169000Y-41550000D01*
X43169000Y-41350000D01*
X43569000Y-41350000D01*
X43569000Y-42650000D01*
G37*
X43169000Y-45950000D02*
X42669000Y-45950000D01*
X42669000Y-45050000D01*
X43169000Y-45050000D01*
X43169000Y-44850000D01*
X43569000Y-44850000D01*
X43569000Y-46150000D01*
X43169000Y-46150000D01*
X43169000Y-45950000D01*
G36*
X43569000Y-46150000D02*
G01*
X43169000Y-46150000D01*
X43169000Y-45950000D01*
X42669000Y-45950000D01*
X42669000Y-45050000D01*
X43169000Y-45050000D01*
X43169000Y-44850000D01*
X43569000Y-44850000D01*
X43569000Y-46150000D01*
G37*
%TO.C,SW7*%
X50940000Y-109863000D02*
X52240000Y-109863000D01*
X52240000Y-109463000D01*
X52040000Y-109463000D01*
X52040000Y-108963000D01*
X51140000Y-108963000D01*
X51140000Y-109463000D01*
X50940000Y-109463000D01*
X50940000Y-109863000D01*
G36*
X52040000Y-109463000D02*
G01*
X52240000Y-109463000D01*
X52240000Y-109863000D01*
X50940000Y-109863000D01*
X50940000Y-109463000D01*
X51140000Y-109463000D01*
X51140000Y-108963000D01*
X52040000Y-108963000D01*
X52040000Y-109463000D01*
G37*
X52040000Y-104913000D02*
X52040000Y-105413000D01*
X51140000Y-105413000D01*
X51140000Y-104913000D01*
X50940000Y-104913000D01*
X50940000Y-104513000D01*
X52240000Y-104513000D01*
X52240000Y-104913000D01*
X52040000Y-104913000D01*
G36*
X52240000Y-104913000D02*
G01*
X52040000Y-104913000D01*
X52040000Y-105413000D01*
X51140000Y-105413000D01*
X51140000Y-104913000D01*
X50940000Y-104913000D01*
X50940000Y-104513000D01*
X52240000Y-104513000D01*
X52240000Y-104913000D01*
G37*
X55540000Y-104913000D02*
X55540000Y-105413000D01*
X54640000Y-105413000D01*
X54640000Y-104913000D01*
X54440000Y-104913000D01*
X54440000Y-104513000D01*
X55740000Y-104513000D01*
X55740000Y-104913000D01*
X55540000Y-104913000D01*
G36*
X55740000Y-104913000D02*
G01*
X55540000Y-104913000D01*
X55540000Y-105413000D01*
X54640000Y-105413000D01*
X54640000Y-104913000D01*
X54440000Y-104913000D01*
X54440000Y-104513000D01*
X55740000Y-104513000D01*
X55740000Y-104913000D01*
G37*
X55740000Y-109463000D02*
X55740000Y-109863000D01*
X54440000Y-109863000D01*
X54440000Y-109463000D01*
X54640000Y-109463000D01*
X54640000Y-108963000D01*
X55540000Y-108963000D01*
X55540000Y-109463000D01*
X55740000Y-109463000D01*
G36*
X55540000Y-109463000D02*
G01*
X55740000Y-109463000D01*
X55740000Y-109863000D01*
X54440000Y-109863000D01*
X54440000Y-109463000D01*
X54640000Y-109463000D01*
X54640000Y-108963000D01*
X55540000Y-108963000D01*
X55540000Y-109463000D01*
G37*
%TO.C,SW4*%
X38436910Y-109889000D02*
X39736910Y-109889000D01*
X39736910Y-109489000D01*
X39536910Y-109489000D01*
X39536910Y-108989000D01*
X38636910Y-108989000D01*
X38636910Y-109489000D01*
X38436910Y-109489000D01*
X38436910Y-109889000D01*
G36*
X39536910Y-109489000D02*
G01*
X39736910Y-109489000D01*
X39736910Y-109889000D01*
X38436910Y-109889000D01*
X38436910Y-109489000D01*
X38636910Y-109489000D01*
X38636910Y-108989000D01*
X39536910Y-108989000D01*
X39536910Y-109489000D01*
G37*
X39536910Y-104939000D02*
X39536910Y-105439000D01*
X38636910Y-105439000D01*
X38636910Y-104939000D01*
X38436910Y-104939000D01*
X38436910Y-104539000D01*
X39736910Y-104539000D01*
X39736910Y-104939000D01*
X39536910Y-104939000D01*
G36*
X39736910Y-104939000D02*
G01*
X39536910Y-104939000D01*
X39536910Y-105439000D01*
X38636910Y-105439000D01*
X38636910Y-104939000D01*
X38436910Y-104939000D01*
X38436910Y-104539000D01*
X39736910Y-104539000D01*
X39736910Y-104939000D01*
G37*
X43036910Y-104939000D02*
X43036910Y-105439000D01*
X42136910Y-105439000D01*
X42136910Y-104939000D01*
X41936910Y-104939000D01*
X41936910Y-104539000D01*
X43236910Y-104539000D01*
X43236910Y-104939000D01*
X43036910Y-104939000D01*
G36*
X43236910Y-104939000D02*
G01*
X43036910Y-104939000D01*
X43036910Y-105439000D01*
X42136910Y-105439000D01*
X42136910Y-104939000D01*
X41936910Y-104939000D01*
X41936910Y-104539000D01*
X43236910Y-104539000D01*
X43236910Y-104939000D01*
G37*
X43236910Y-109489000D02*
X43236910Y-109889000D01*
X41936910Y-109889000D01*
X41936910Y-109489000D01*
X42136910Y-109489000D01*
X42136910Y-108989000D01*
X43036910Y-108989000D01*
X43036910Y-109489000D01*
X43236910Y-109489000D01*
G36*
X43036910Y-109489000D02*
G01*
X43236910Y-109489000D01*
X43236910Y-109889000D01*
X41936910Y-109889000D01*
X41936910Y-109489000D01*
X42136910Y-109489000D01*
X42136910Y-108989000D01*
X43036910Y-108989000D01*
X43036910Y-109489000D01*
G37*
%TO.C,SW1*%
X63111000Y-41350000D02*
X63111000Y-42650000D01*
X63511000Y-42650000D01*
X63511000Y-42450000D01*
X64011000Y-42450000D01*
X64011000Y-41550000D01*
X63511000Y-41550000D01*
X63511000Y-41350000D01*
X63111000Y-41350000D01*
G36*
X63511000Y-41550000D02*
G01*
X64011000Y-41550000D01*
X64011000Y-42450000D01*
X63511000Y-42450000D01*
X63511000Y-42650000D01*
X63111000Y-42650000D01*
X63111000Y-41350000D01*
X63511000Y-41350000D01*
X63511000Y-41550000D01*
G37*
X63511000Y-46150000D02*
X63111000Y-46150000D01*
X63111000Y-44850000D01*
X63511000Y-44850000D01*
X63511000Y-45050000D01*
X64011000Y-45050000D01*
X64011000Y-45950000D01*
X63511000Y-45950000D01*
X63511000Y-46150000D01*
G36*
X63511000Y-45050000D02*
G01*
X64011000Y-45050000D01*
X64011000Y-45950000D01*
X63511000Y-45950000D01*
X63511000Y-46150000D01*
X63111000Y-46150000D01*
X63111000Y-44850000D01*
X63511000Y-44850000D01*
X63511000Y-45050000D01*
G37*
X68061000Y-42450000D02*
X67561000Y-42450000D01*
X67561000Y-41550000D01*
X68061000Y-41550000D01*
X68061000Y-41350000D01*
X68461000Y-41350000D01*
X68461000Y-42650000D01*
X68061000Y-42650000D01*
X68061000Y-42450000D01*
G36*
X68461000Y-42650000D02*
G01*
X68061000Y-42650000D01*
X68061000Y-42450000D01*
X67561000Y-42450000D01*
X67561000Y-41550000D01*
X68061000Y-41550000D01*
X68061000Y-41350000D01*
X68461000Y-41350000D01*
X68461000Y-42650000D01*
G37*
X68061000Y-45950000D02*
X67561000Y-45950000D01*
X67561000Y-45050000D01*
X68061000Y-45050000D01*
X68061000Y-44850000D01*
X68461000Y-44850000D01*
X68461000Y-46150000D01*
X68061000Y-46150000D01*
X68061000Y-45950000D01*
G36*
X68461000Y-46150000D02*
G01*
X68061000Y-46150000D01*
X68061000Y-45950000D01*
X67561000Y-45950000D01*
X67561000Y-45050000D01*
X68061000Y-45050000D01*
X68061000Y-44850000D01*
X68461000Y-44850000D01*
X68461000Y-46150000D01*
G37*
%TO.C,SW11*%
X63386000Y-97417000D02*
X64686000Y-97417000D01*
X64686000Y-97017000D01*
X64486000Y-97017000D01*
X64486000Y-96517000D01*
X63586000Y-96517000D01*
X63586000Y-97017000D01*
X63386000Y-97017000D01*
X63386000Y-97417000D01*
G36*
X64486000Y-97017000D02*
G01*
X64686000Y-97017000D01*
X64686000Y-97417000D01*
X63386000Y-97417000D01*
X63386000Y-97017000D01*
X63586000Y-97017000D01*
X63586000Y-96517000D01*
X64486000Y-96517000D01*
X64486000Y-97017000D01*
G37*
X64486000Y-92467000D02*
X64486000Y-92967000D01*
X63586000Y-92967000D01*
X63586000Y-92467000D01*
X63386000Y-92467000D01*
X63386000Y-92067000D01*
X64686000Y-92067000D01*
X64686000Y-92467000D01*
X64486000Y-92467000D01*
G36*
X64686000Y-92467000D02*
G01*
X64486000Y-92467000D01*
X64486000Y-92967000D01*
X63586000Y-92967000D01*
X63586000Y-92467000D01*
X63386000Y-92467000D01*
X63386000Y-92067000D01*
X64686000Y-92067000D01*
X64686000Y-92467000D01*
G37*
X67986000Y-92467000D02*
X67986000Y-92967000D01*
X67086000Y-92967000D01*
X67086000Y-92467000D01*
X66886000Y-92467000D01*
X66886000Y-92067000D01*
X68186000Y-92067000D01*
X68186000Y-92467000D01*
X67986000Y-92467000D01*
G36*
X68186000Y-92467000D02*
G01*
X67986000Y-92467000D01*
X67986000Y-92967000D01*
X67086000Y-92967000D01*
X67086000Y-92467000D01*
X66886000Y-92467000D01*
X66886000Y-92067000D01*
X68186000Y-92067000D01*
X68186000Y-92467000D01*
G37*
X68186000Y-97017000D02*
X68186000Y-97417000D01*
X66886000Y-97417000D01*
X66886000Y-97017000D01*
X67086000Y-97017000D01*
X67086000Y-96517000D01*
X67986000Y-96517000D01*
X67986000Y-97017000D01*
X68186000Y-97017000D01*
G36*
X67986000Y-97017000D02*
G01*
X68186000Y-97017000D01*
X68186000Y-97417000D01*
X66886000Y-97417000D01*
X66886000Y-97017000D01*
X67086000Y-97017000D01*
X67086000Y-96517000D01*
X67986000Y-96517000D01*
X67986000Y-97017000D01*
G37*
%TO.C,SW8*%
X50940000Y-122309000D02*
X52240000Y-122309000D01*
X52240000Y-121909000D01*
X52040000Y-121909000D01*
X52040000Y-121409000D01*
X51140000Y-121409000D01*
X51140000Y-121909000D01*
X50940000Y-121909000D01*
X50940000Y-122309000D01*
G36*
X52040000Y-121909000D02*
G01*
X52240000Y-121909000D01*
X52240000Y-122309000D01*
X50940000Y-122309000D01*
X50940000Y-121909000D01*
X51140000Y-121909000D01*
X51140000Y-121409000D01*
X52040000Y-121409000D01*
X52040000Y-121909000D01*
G37*
X52040000Y-117359000D02*
X52040000Y-117859000D01*
X51140000Y-117859000D01*
X51140000Y-117359000D01*
X50940000Y-117359000D01*
X50940000Y-116959000D01*
X52240000Y-116959000D01*
X52240000Y-117359000D01*
X52040000Y-117359000D01*
G36*
X52240000Y-117359000D02*
G01*
X52040000Y-117359000D01*
X52040000Y-117859000D01*
X51140000Y-117859000D01*
X51140000Y-117359000D01*
X50940000Y-117359000D01*
X50940000Y-116959000D01*
X52240000Y-116959000D01*
X52240000Y-117359000D01*
G37*
X55540000Y-117359000D02*
X55540000Y-117859000D01*
X54640000Y-117859000D01*
X54640000Y-117359000D01*
X54440000Y-117359000D01*
X54440000Y-116959000D01*
X55740000Y-116959000D01*
X55740000Y-117359000D01*
X55540000Y-117359000D01*
G36*
X55740000Y-117359000D02*
G01*
X55540000Y-117359000D01*
X55540000Y-117859000D01*
X54640000Y-117859000D01*
X54640000Y-117359000D01*
X54440000Y-117359000D01*
X54440000Y-116959000D01*
X55740000Y-116959000D01*
X55740000Y-117359000D01*
G37*
X55740000Y-121909000D02*
X55740000Y-122309000D01*
X54440000Y-122309000D01*
X54440000Y-121909000D01*
X54640000Y-121909000D01*
X54640000Y-121409000D01*
X55540000Y-121409000D01*
X55540000Y-121909000D01*
X55740000Y-121909000D01*
G36*
X55540000Y-121909000D02*
G01*
X55740000Y-121909000D01*
X55740000Y-122309000D01*
X54440000Y-122309000D01*
X54440000Y-121909000D01*
X54640000Y-121909000D01*
X54640000Y-121409000D01*
X55540000Y-121409000D01*
X55540000Y-121909000D01*
G37*
%TO.C,SW6*%
X50940000Y-97417000D02*
X52240000Y-97417000D01*
X52240000Y-97017000D01*
X52040000Y-97017000D01*
X52040000Y-96517000D01*
X51140000Y-96517000D01*
X51140000Y-97017000D01*
X50940000Y-97017000D01*
X50940000Y-97417000D01*
G36*
X52040000Y-97017000D02*
G01*
X52240000Y-97017000D01*
X52240000Y-97417000D01*
X50940000Y-97417000D01*
X50940000Y-97017000D01*
X51140000Y-97017000D01*
X51140000Y-96517000D01*
X52040000Y-96517000D01*
X52040000Y-97017000D01*
G37*
X52040000Y-92467000D02*
X52040000Y-92967000D01*
X51140000Y-92967000D01*
X51140000Y-92467000D01*
X50940000Y-92467000D01*
X50940000Y-92067000D01*
X52240000Y-92067000D01*
X52240000Y-92467000D01*
X52040000Y-92467000D01*
G36*
X52240000Y-92467000D02*
G01*
X52040000Y-92467000D01*
X52040000Y-92967000D01*
X51140000Y-92967000D01*
X51140000Y-92467000D01*
X50940000Y-92467000D01*
X50940000Y-92067000D01*
X52240000Y-92067000D01*
X52240000Y-92467000D01*
G37*
X55540000Y-92467000D02*
X55540000Y-92967000D01*
X54640000Y-92967000D01*
X54640000Y-92467000D01*
X54440000Y-92467000D01*
X54440000Y-92067000D01*
X55740000Y-92067000D01*
X55740000Y-92467000D01*
X55540000Y-92467000D01*
G36*
X55740000Y-92467000D02*
G01*
X55540000Y-92467000D01*
X55540000Y-92967000D01*
X54640000Y-92967000D01*
X54640000Y-92467000D01*
X54440000Y-92467000D01*
X54440000Y-92067000D01*
X55740000Y-92067000D01*
X55740000Y-92467000D01*
G37*
X55740000Y-97017000D02*
X55740000Y-97417000D01*
X54440000Y-97417000D01*
X54440000Y-97017000D01*
X54640000Y-97017000D01*
X54640000Y-96517000D01*
X55540000Y-96517000D01*
X55540000Y-97017000D01*
X55740000Y-97017000D01*
G36*
X55540000Y-97017000D02*
G01*
X55740000Y-97017000D01*
X55740000Y-97417000D01*
X54440000Y-97417000D01*
X54440000Y-97017000D01*
X54640000Y-97017000D01*
X54640000Y-96517000D01*
X55540000Y-96517000D01*
X55540000Y-97017000D01*
G37*
%TO.C,SW3*%
X38494000Y-97417000D02*
X39794000Y-97417000D01*
X39794000Y-97017000D01*
X39594000Y-97017000D01*
X39594000Y-96517000D01*
X38694000Y-96517000D01*
X38694000Y-97017000D01*
X38494000Y-97017000D01*
X38494000Y-97417000D01*
G36*
X39594000Y-97017000D02*
G01*
X39794000Y-97017000D01*
X39794000Y-97417000D01*
X38494000Y-97417000D01*
X38494000Y-97017000D01*
X38694000Y-97017000D01*
X38694000Y-96517000D01*
X39594000Y-96517000D01*
X39594000Y-97017000D01*
G37*
X39594000Y-92467000D02*
X39594000Y-92967000D01*
X38694000Y-92967000D01*
X38694000Y-92467000D01*
X38494000Y-92467000D01*
X38494000Y-92067000D01*
X39794000Y-92067000D01*
X39794000Y-92467000D01*
X39594000Y-92467000D01*
G36*
X39794000Y-92467000D02*
G01*
X39594000Y-92467000D01*
X39594000Y-92967000D01*
X38694000Y-92967000D01*
X38694000Y-92467000D01*
X38494000Y-92467000D01*
X38494000Y-92067000D01*
X39794000Y-92067000D01*
X39794000Y-92467000D01*
G37*
X43094000Y-92467000D02*
X43094000Y-92967000D01*
X42194000Y-92967000D01*
X42194000Y-92467000D01*
X41994000Y-92467000D01*
X41994000Y-92067000D01*
X43294000Y-92067000D01*
X43294000Y-92467000D01*
X43094000Y-92467000D01*
G36*
X43294000Y-92467000D02*
G01*
X43094000Y-92467000D01*
X43094000Y-92967000D01*
X42194000Y-92967000D01*
X42194000Y-92467000D01*
X41994000Y-92467000D01*
X41994000Y-92067000D01*
X43294000Y-92067000D01*
X43294000Y-92467000D01*
G37*
X43294000Y-97017000D02*
X43294000Y-97417000D01*
X41994000Y-97417000D01*
X41994000Y-97017000D01*
X42194000Y-97017000D01*
X42194000Y-96517000D01*
X43094000Y-96517000D01*
X43094000Y-97017000D01*
X43294000Y-97017000D01*
G36*
X43094000Y-97017000D02*
G01*
X43294000Y-97017000D01*
X43294000Y-97417000D01*
X41994000Y-97417000D01*
X41994000Y-97017000D01*
X42194000Y-97017000D01*
X42194000Y-96517000D01*
X43094000Y-96517000D01*
X43094000Y-97017000D01*
G37*
%TD*%
D11*
%TO.C,R4*%
X59000000Y-118925000D03*
X59000000Y-120575000D03*
%TD*%
D12*
%TO.C,C1*%
X56950000Y-125000000D03*
X55050000Y-125000000D03*
%TD*%
D13*
%TO.C,U1*%
X63000000Y-155240000D03*
X63000000Y-152700000D03*
X63000000Y-150160000D03*
X63000000Y-147620000D03*
X63000000Y-145080000D03*
X63000000Y-142540000D03*
X63000000Y-140000000D03*
X46835000Y-140000000D03*
X46835000Y-142540000D03*
X46835000Y-145080000D03*
X46835000Y-147620000D03*
X46835000Y-150160000D03*
X46835000Y-152700000D03*
X46835000Y-155240000D03*
D14*
X56218400Y-156261500D03*
X53678400Y-156261500D03*
X56218400Y-153721500D03*
X53678400Y-153721500D03*
X56218400Y-151181500D03*
X53678400Y-151181500D03*
X56218400Y-148641500D03*
X53771000Y-148698300D03*
D15*
X56726400Y-142088300D03*
X54186400Y-142088300D03*
%TD*%
D16*
%TO.C,Q1*%
X69263500Y-32954000D03*
X69263500Y-31054000D03*
X67388500Y-32004000D03*
%TD*%
D17*
%TO.C,C2*%
X43800000Y-133750000D03*
X45700000Y-133750000D03*
%TD*%
D18*
%TO.C,TP_VCC1*%
X46785000Y-155250000D03*
%TD*%
D19*
%TO.C,C3*%
X46250000Y-35475000D03*
X46250000Y-37025000D03*
%TD*%
D11*
%TO.C,R9*%
X67750000Y-154175000D03*
X67750000Y-155825000D03*
%TD*%
D20*
%TO.C,D1*%
X64037455Y-33258000D03*
D21*
X61497455Y-33258000D03*
%TD*%
D22*
%TO.C,R2*%
X41250000Y-140575000D03*
X41250000Y-138925000D03*
%TD*%
D23*
%TO.C,U3*%
X49784000Y-127089000D03*
X49784000Y-127739000D03*
X49784000Y-128389000D03*
X49784000Y-129039000D03*
X49784000Y-129689000D03*
X49784000Y-130339000D03*
X49784000Y-130989000D03*
X49784000Y-131639000D03*
X49784000Y-132289000D03*
X49784000Y-132939000D03*
X49784000Y-133589000D03*
X49784000Y-134239000D03*
X56784000Y-134239000D03*
X56784000Y-133589000D03*
X56784000Y-132939000D03*
X56784000Y-132289000D03*
X56784000Y-131639000D03*
X56784000Y-130989000D03*
X56784000Y-130339000D03*
X56784000Y-129689000D03*
X56784000Y-129039000D03*
X56784000Y-128389000D03*
X56784000Y-127739000D03*
X56784000Y-127089000D03*
%TD*%
D22*
%TO.C,R1*%
X69088000Y-37401000D03*
X69088000Y-35751000D03*
%TD*%
D24*
%TO.C,D2*%
X38250000Y-133750000D03*
X38250000Y-135500000D03*
X41750000Y-135500000D03*
X41750000Y-133750000D03*
%TD*%
D11*
%TO.C,R5*%
X60000000Y-122250000D03*
X60000000Y-123900000D03*
%TD*%
D25*
%TO.C,ENC1*%
X50084764Y-83793690D03*
D26*
X61087345Y-82817923D03*
D27*
X59885264Y-74261954D03*
D26*
X52227297Y-68824158D03*
X37187136Y-71320254D03*
X46789646Y-61166136D03*
D27*
X59885264Y-61166020D03*
D25*
X45587565Y-52610131D03*
D26*
X69487774Y-64107590D03*
%TD*%
D18*
%TO.C,TP_SD*%
X63085000Y-155250000D03*
%TD*%
%TO.C,TP_ANO_ENC2*%
X46835000Y-142500000D03*
%TD*%
%TO.C,TP_GPIO18_D10_MOSI*%
X46835000Y-147750000D03*
%TD*%
D28*
%TO.C,MK1*%
X53350000Y-36700000D03*
%TD*%
D18*
%TO.C,TP_SCK*%
X63085000Y-150250000D03*
%TD*%
D29*
%TO.C,U2*%
X41000000Y-33020000D03*
D21*
X43540000Y-33020000D03*
X46080000Y-33020000D03*
%TD*%
D18*
%TO.C,TP_GND*%
X46785000Y-152800000D03*
%TD*%
%TO.C,TP_IR_REC*%
X63085000Y-140000000D03*
%TD*%
%TO.C,TP_SDA*%
X63085000Y-145000000D03*
%TD*%
%TO.C,TP_SCL*%
X63085000Y-142500000D03*
%TD*%
%TO.C,TP_3V3*%
X46785000Y-150200000D03*
%TD*%
%TO.C,TP_WS*%
X63085000Y-147500000D03*
%TD*%
%TO.C,TP_ANO_ENC1*%
X46835000Y-145000000D03*
%TD*%
%TO.C,TP_LED1*%
X46835000Y-140000000D03*
%TD*%
%TO.C,TP_IR_EMIT*%
X63085000Y-152750000D03*
%TD*%
M02*
