%TF.GenerationSoftware,KiCad,Pcbnew,10.0.3*%
%TF.CreationDate,2026-08-31T10:36:25-07:00*%
%TF.ProjectId,c6remote,63367265-6d6f-4746-952e-6b696361645f,rev?*%
%TF.SameCoordinates,Original*%
%TF.FileFunction,Paste,Bot*%
%TF.FilePolarity,Positive*%
%FSLAX46Y46*%
G04 Gerber Fmt 4.6, Leading zero omitted, Abs format (unit mm)*
G04 Created by KiCad (PCBNEW 10.0.3) date 2026-08-31 10:36:25*
%MOMM*%
%LPD*%
G01*
G04 APERTURE LIST*
G04 Aperture macros list*
%AMRoundRect*
0 Rectangle with rounded corners*
0 $1 Rounding radius*
0 $2 $3 $4 $5 $6 $7 $8 $9 X,Y pos of 4 corners*
0 Add a 4 corners polygon primitive as box body*
4,1,4,$2,$3,$4,$5,$6,$7,$8,$9,$2,$3,0*
0 Add four circle primitives for the rounded corners*
1,1,$1+$1,$2,$3*
1,1,$1+$1,$4,$5*
1,1,$1+$1,$6,$7*
1,1,$1+$1,$8,$9*
0 Add four rect primitives between the rounded corners*
20,1,$1+$1,$2,$3,$4,$5,0*
20,1,$1+$1,$4,$5,$6,$7,0*
20,1,$1+$1,$6,$7,$8,$9,0*
20,1,$1+$1,$8,$9,$2,$3,0*%
G04 Aperture macros list end*
%ADD10C,0.000000*%
%ADD11RoundRect,0.250000X-0.250000X-1.500000X0.250000X-1.500000X0.250000X1.500000X-0.250000X1.500000X0*%
%ADD12RoundRect,0.250001X-0.499999X-1.449999X0.499999X-1.449999X0.499999X1.449999X-0.499999X1.449999X0*%
%ADD13RoundRect,0.200000X-0.275000X0.200000X-0.275000X-0.200000X0.275000X-0.200000X0.275000X0.200000X0*%
%ADD14RoundRect,0.200000X-0.200000X-0.275000X0.200000X-0.275000X0.200000X0.275000X-0.200000X0.275000X0*%
%ADD15RoundRect,0.250000X0.475000X-0.250000X0.475000X0.250000X-0.475000X0.250000X-0.475000X-0.250000X0*%
%ADD16RoundRect,0.200000X0.275000X-0.200000X0.275000X0.200000X-0.275000X0.200000X-0.275000X-0.200000X0*%
%ADD17RoundRect,0.225000X-0.225000X-0.875000X0.225000X-0.875000X0.225000X0.875000X-0.225000X0.875000X0*%
G04 APERTURE END LIST*
%TO.C,MK1*%
G36*
X52200000Y-33445000D02*
G01*
X52700000Y-33445000D01*
X52700000Y-33867000D01*
X52200000Y-33867000D01*
X52200000Y-33445000D01*
G37*
G36*
X52200000Y-32623000D02*
G01*
X52700000Y-32623000D01*
X52700000Y-33045000D01*
X52200000Y-33045000D01*
X52200000Y-32623000D01*
G37*
G36*
X53100000Y-33445000D02*
G01*
X53600000Y-33445000D01*
X53600000Y-33867000D01*
X53100000Y-33867000D01*
X53100000Y-33445000D01*
G37*
G36*
X54000000Y-32623000D02*
G01*
X54500000Y-32623000D01*
X54500000Y-33045000D01*
X54000000Y-33045000D01*
X54000000Y-32623000D01*
G37*
G36*
X54000000Y-33445000D02*
G01*
X54500000Y-33445000D01*
X54500000Y-33867000D01*
X54000000Y-33867000D01*
X54000000Y-33445000D01*
G37*
D10*
G36*
X52810700Y-31741800D02*
G01*
X52852900Y-31845200D01*
X52914700Y-31938300D01*
X52993700Y-32017300D01*
X53086800Y-32079100D01*
X53190200Y-32121300D01*
X53300000Y-32142300D01*
X53300000Y-32393000D01*
X53134500Y-32365400D01*
X52978300Y-32304500D01*
X52837800Y-32212800D01*
X52719200Y-32094200D01*
X52627500Y-31953700D01*
X52566600Y-31797500D01*
X52539000Y-31632000D01*
X52789700Y-31632000D01*
X52810700Y-31741800D01*
G37*
G36*
X53300000Y-31021700D02*
G01*
X53190200Y-31042700D01*
X53086800Y-31084900D01*
X52993700Y-31146700D01*
X52914700Y-31225700D01*
X52852900Y-31318800D01*
X52810700Y-31422200D01*
X52789700Y-31532000D01*
X52539000Y-31532000D01*
X52566600Y-31366500D01*
X52627500Y-31210300D01*
X52719200Y-31069800D01*
X52837800Y-30951200D01*
X52978300Y-30859500D01*
X53134500Y-30798600D01*
X53300000Y-30771000D01*
X53300000Y-31021700D01*
G37*
G36*
X54133400Y-31797500D02*
G01*
X54072500Y-31953700D01*
X53980800Y-32094200D01*
X53862200Y-32212800D01*
X53721700Y-32304500D01*
X53565500Y-32365400D01*
X53400000Y-32393000D01*
X53400000Y-32142300D01*
X53509800Y-32121300D01*
X53613200Y-32079100D01*
X53706300Y-32017300D01*
X53785300Y-31938300D01*
X53847100Y-31845200D01*
X53889300Y-31741800D01*
X53910300Y-31632000D01*
X54161000Y-31632000D01*
X54133400Y-31797500D01*
G37*
G36*
X53565500Y-30798600D02*
G01*
X53721700Y-30859500D01*
X53862200Y-30951200D01*
X53980800Y-31069800D01*
X54072500Y-31210300D01*
X54133400Y-31366500D01*
X54161000Y-31532000D01*
X53910300Y-31532000D01*
X53889300Y-31422200D01*
X53847100Y-31318800D01*
X53785300Y-31225700D01*
X53706300Y-31146700D01*
X53613200Y-31084900D01*
X53509800Y-31042700D01*
X53400000Y-31021700D01*
X53400000Y-30771000D01*
X53565500Y-30798600D01*
G37*
%TD*%
D11*
%TO.C,J1*%
X39250000Y-155250000D03*
X41250000Y-155250000D03*
D12*
X36900000Y-149500000D03*
X43600000Y-149500000D03*
%TD*%
D13*
%TO.C,R7*%
X60000000Y-142175000D03*
X60000000Y-143825000D03*
%TD*%
D14*
%TO.C,R3*%
X57600000Y-31250000D03*
X59250000Y-31250000D03*
%TD*%
D15*
%TO.C,C4*%
X46750000Y-68250000D03*
X46750000Y-66350000D03*
%TD*%
D16*
%TO.C,R6*%
X42750000Y-41250000D03*
X42750000Y-39600000D03*
%TD*%
D17*
%TO.C,U2*%
X40940000Y-31857500D03*
X42210000Y-31857500D03*
X43480000Y-31857500D03*
X44750000Y-31857500D03*
%TD*%
D13*
%TO.C,R8*%
X52750000Y-152425000D03*
X52750000Y-154075000D03*
%TD*%
D16*
%TO.C,R10*%
X41000000Y-90400000D03*
X41000000Y-88750000D03*
%TD*%
M02*
