%TF.GenerationSoftware,KiCad,Pcbnew,10.0.3*%
%TF.CreationDate,2026-07-27T07:47:03-07:00*%
%TF.ProjectId,c6remote,63367265-6d6f-4746-952e-6b696361645f,rev?*%
%TF.SameCoordinates,Original*%
%TF.FileFunction,Legend,Bot*%
%TF.FilePolarity,Positive*%
%FSLAX46Y46*%
G04 Gerber Fmt 4.6, Leading zero omitted, Abs format (unit mm)*
G04 Created by KiCad (PCBNEW 10.0.3) date 2026-07-27 07:47:03*
%MOMM*%
%LPD*%
G01*
G04 APERTURE LIST*
%ADD10C,0.000000*%
%ADD11C,0.187500*%
%ADD12C,0.300000*%
%ADD13C,0.500000*%
%ADD14C,0.150000*%
%ADD15C,0.120000*%
G04 APERTURE END LIST*
D10*
G36*
X50046743Y-118701588D02*
G01*
X46756028Y-118701588D01*
X46756028Y-112120164D01*
X50046743Y-112120164D01*
X50046743Y-118701588D01*
G37*
G36*
X59918882Y-118701588D02*
G01*
X56628167Y-118701588D01*
X56628167Y-112120164D01*
X59918882Y-112120164D01*
X59918882Y-118701588D01*
G37*
G36*
X50993825Y-130796010D02*
G01*
X51036179Y-130809226D01*
X51088327Y-130831207D01*
X51113577Y-130843010D01*
X51131799Y-130845148D01*
X51135835Y-130828779D01*
X51135840Y-130828313D01*
X51144374Y-130812684D01*
X51173797Y-130804681D01*
X51230843Y-130802425D01*
X51325848Y-130802425D01*
X51325848Y-131631599D01*
X51135835Y-131631599D01*
X51135835Y-131059886D01*
X51088590Y-131016109D01*
X51073833Y-131003674D01*
X51029875Y-130982414D01*
X50975739Y-130981562D01*
X50902035Y-131000319D01*
X50877187Y-131001506D01*
X50848036Y-130983311D01*
X50809242Y-130940059D01*
X50790422Y-130916131D01*
X50768166Y-130882357D01*
X50764734Y-130860848D01*
X50777195Y-130842715D01*
X50815452Y-130819777D01*
X50874874Y-130801624D01*
X50939335Y-130792621D01*
X50993825Y-130796010D01*
G37*
G36*
X51245419Y-132109390D02*
G01*
X51297610Y-132133814D01*
X51343126Y-132169618D01*
X51343126Y-132133814D01*
X51344261Y-132120222D01*
X51354816Y-132105809D01*
X51383355Y-132099440D01*
X51438134Y-132098011D01*
X51533144Y-132098011D01*
X51533144Y-132944467D01*
X51343126Y-132944467D01*
X51343126Y-132668883D01*
X51343104Y-132653065D01*
X51341482Y-132541849D01*
X51337504Y-132451262D01*
X51331450Y-132385927D01*
X51323610Y-132350477D01*
X51316409Y-132337090D01*
X51272089Y-132295114D01*
X51211715Y-132276534D01*
X51145792Y-132285200D01*
X51129618Y-132291077D01*
X51095176Y-132301462D01*
X51071629Y-132298236D01*
X51047939Y-132277129D01*
X51013051Y-132233865D01*
X50956472Y-132162419D01*
X50996242Y-132130217D01*
X51034045Y-132110833D01*
X51100454Y-132097739D01*
X51175307Y-132097306D01*
X51245419Y-132109390D01*
G37*
G36*
X54849854Y-132944467D02*
G01*
X54677108Y-132944467D01*
X54677108Y-132677832D01*
X54676918Y-132615806D01*
X54674956Y-132513092D01*
X54669981Y-132437043D01*
X54660920Y-132382416D01*
X54646695Y-132343948D01*
X54626221Y-132316381D01*
X54598428Y-132294459D01*
X54568089Y-132278124D01*
X54532155Y-132273498D01*
X54481052Y-132283795D01*
X54464634Y-132288084D01*
X54423642Y-132294534D01*
X54394335Y-132285293D01*
X54360363Y-132256679D01*
X54353918Y-132250452D01*
X54318278Y-132211959D01*
X54295295Y-132180660D01*
X54292139Y-132173119D01*
X54298389Y-132145279D01*
X54330067Y-132123016D01*
X54380062Y-132107390D01*
X54441262Y-132099461D01*
X54506560Y-132100280D01*
X54568828Y-132110900D01*
X54620965Y-132132376D01*
X54637493Y-132142400D01*
X54665314Y-132157075D01*
X54675613Y-132153713D01*
X54677108Y-132132308D01*
X54677459Y-132124620D01*
X54685794Y-132107592D01*
X54711645Y-132099845D01*
X54763481Y-132098011D01*
X54849854Y-132098011D01*
X54849854Y-132944467D01*
G37*
G36*
X51671338Y-131071308D02*
G01*
X51672801Y-131192279D01*
X51678505Y-131289979D01*
X51690058Y-131360991D01*
X51709063Y-131409294D01*
X51737127Y-131438869D01*
X51775842Y-131453699D01*
X51826813Y-131457756D01*
X51875480Y-131454133D01*
X51914782Y-131439955D01*
X51943354Y-131411230D01*
X51962789Y-131363989D01*
X51974685Y-131294239D01*
X51980653Y-131198012D01*
X51982278Y-131071308D01*
X51982278Y-130802425D01*
X52155030Y-130802425D01*
X52155030Y-131126586D01*
X52154727Y-131213114D01*
X52152429Y-131325007D01*
X52146648Y-131410339D01*
X52135995Y-131473991D01*
X52119062Y-131520861D01*
X52094453Y-131555824D01*
X52060770Y-131583766D01*
X52016616Y-131609574D01*
X51923887Y-131642245D01*
X51827112Y-131644378D01*
X51735861Y-131614294D01*
X51696055Y-131594786D01*
X51676304Y-131591872D01*
X51671338Y-131605651D01*
X51663099Y-131621130D01*
X51633607Y-131629278D01*
X51576332Y-131631599D01*
X51481321Y-131631599D01*
X51481321Y-130802425D01*
X51671338Y-130802425D01*
X51671338Y-131071308D01*
G37*
G36*
X54559496Y-130800788D02*
G01*
X54638240Y-130825528D01*
X54672958Y-130842343D01*
X54690425Y-130844084D01*
X54694383Y-130828779D01*
X54694388Y-130828313D01*
X54702922Y-130812684D01*
X54732350Y-130804681D01*
X54789393Y-130802425D01*
X54884404Y-130802425D01*
X54884404Y-131631599D01*
X54694383Y-131631599D01*
X54694383Y-131345782D01*
X54694252Y-131249271D01*
X54693365Y-131169991D01*
X54690987Y-131114514D01*
X54686387Y-131077182D01*
X54678847Y-131052351D01*
X54667618Y-131034361D01*
X54651984Y-131017571D01*
X54630680Y-130999699D01*
X54569439Y-130975698D01*
X54505149Y-130982742D01*
X54446261Y-131020706D01*
X54429425Y-131038374D01*
X54417342Y-131056262D01*
X54409239Y-131080058D01*
X54404317Y-131115493D01*
X54401791Y-131168304D01*
X54400854Y-131244201D01*
X54400719Y-131348923D01*
X54400719Y-131631599D01*
X54210697Y-131631599D01*
X54211079Y-131324979D01*
X54211104Y-131311324D01*
X54212753Y-131180891D01*
X54217810Y-131079576D01*
X54227585Y-131002450D01*
X54243377Y-130944573D01*
X54266477Y-130901026D01*
X54298200Y-130866895D01*
X54339837Y-130837232D01*
X54382832Y-130816690D01*
X54469418Y-130798033D01*
X54559496Y-130800788D01*
G37*
G36*
X50507884Y-130806376D02*
G01*
X50602142Y-130843097D01*
X50681867Y-130903720D01*
X50740741Y-130986989D01*
X50744721Y-130995473D01*
X50769966Y-131078276D01*
X50782573Y-131177184D01*
X50782477Y-131280168D01*
X50769586Y-131375190D01*
X50743826Y-131450215D01*
X50712014Y-131502512D01*
X50641999Y-131576587D01*
X50554452Y-131623676D01*
X50479552Y-131642719D01*
X50365502Y-131644799D01*
X50256368Y-131616081D01*
X50159589Y-131557806D01*
X50096949Y-131506179D01*
X50153364Y-131447963D01*
X50189013Y-131413482D01*
X50221251Y-131394285D01*
X50251147Y-131398509D01*
X50289383Y-131424304D01*
X50304627Y-131434399D01*
X50369033Y-131455072D01*
X50443061Y-131455062D01*
X50512374Y-131433761D01*
X50538475Y-131416651D01*
X50576749Y-131366135D01*
X50595947Y-131291940D01*
X50597180Y-131190820D01*
X50597175Y-131190762D01*
X50582894Y-131100289D01*
X50551444Y-131037559D01*
X50499683Y-130998755D01*
X50424495Y-130980063D01*
X50377149Y-130977551D01*
X50335775Y-130987841D01*
X50293344Y-131017672D01*
X50238432Y-131063871D01*
X50168896Y-131007991D01*
X50143493Y-130986584D01*
X50111759Y-130955912D01*
X50099361Y-130937834D01*
X50103752Y-130929687D01*
X50129046Y-130904682D01*
X50169332Y-130872873D01*
X50200857Y-130852173D01*
X50300943Y-130809656D01*
X50405390Y-130794809D01*
X50507884Y-130806376D01*
G37*
G36*
X52979970Y-131276604D02*
G01*
X52975153Y-131331267D01*
X52953848Y-131435642D01*
X52915748Y-131515284D01*
X52857757Y-131575439D01*
X52776788Y-131621358D01*
X52745353Y-131632282D01*
X52663936Y-131645921D01*
X52578254Y-131645548D01*
X52505962Y-131630570D01*
X52504544Y-131630025D01*
X52446282Y-131595751D01*
X52387424Y-131542698D01*
X52338581Y-131482027D01*
X52310386Y-131424908D01*
X52302024Y-131383154D01*
X52294868Y-131304979D01*
X52293665Y-131235297D01*
X52467705Y-131235297D01*
X52478107Y-131318882D01*
X52502551Y-131387557D01*
X52539583Y-131432433D01*
X52553619Y-131440141D01*
X52607142Y-131454143D01*
X52669053Y-131457026D01*
X52721132Y-131447295D01*
X52741461Y-131433336D01*
X52769997Y-131384530D01*
X52787946Y-131308146D01*
X52794187Y-131207903D01*
X52794085Y-131179049D01*
X52791917Y-131120580D01*
X52784714Y-131082435D01*
X52769594Y-131054254D01*
X52743690Y-131025660D01*
X52694402Y-130991009D01*
X52630230Y-130976840D01*
X52568230Y-130990335D01*
X52516752Y-131029362D01*
X52484142Y-131091796D01*
X52472783Y-131145709D01*
X52467705Y-131235297D01*
X52293665Y-131235297D01*
X52293331Y-131215944D01*
X52297173Y-131127333D01*
X52306135Y-131050402D01*
X52319961Y-130996445D01*
X52352171Y-130935348D01*
X52420531Y-130860230D01*
X52507905Y-130812646D01*
X52611698Y-130793811D01*
X52729308Y-130804947D01*
X52748875Y-130809685D01*
X52840011Y-130850571D01*
X52908690Y-130917708D01*
X52954903Y-131011084D01*
X52978663Y-131130715D01*
X52979354Y-131207903D01*
X52979970Y-131276604D01*
G37*
G36*
X53117543Y-132369269D02*
G01*
X53140896Y-132438944D01*
X53168526Y-132516074D01*
X53191591Y-132574513D01*
X53208198Y-132609487D01*
X53216432Y-132616234D01*
X53218415Y-132610369D01*
X53229170Y-132574360D01*
X53246301Y-132514223D01*
X53267906Y-132436695D01*
X53292078Y-132348492D01*
X53357843Y-132106651D01*
X53458259Y-132101402D01*
X53466734Y-132100980D01*
X53520885Y-132100430D01*
X53546906Y-132105984D01*
X53550221Y-132118680D01*
X53546032Y-132131075D01*
X53532260Y-132173499D01*
X53510699Y-132240695D01*
X53482888Y-132327851D01*
X53450358Y-132430165D01*
X53414652Y-132542831D01*
X53287533Y-132944467D01*
X53128528Y-132944467D01*
X53053601Y-132689662D01*
X53039769Y-132642876D01*
X53014201Y-132557817D01*
X52992356Y-132486941D01*
X52976193Y-132436580D01*
X52967691Y-132413073D01*
X52965266Y-132411321D01*
X52953474Y-132426480D01*
X52936636Y-132466584D01*
X52917556Y-132525356D01*
X52916544Y-132528806D01*
X52890997Y-132615546D01*
X52861770Y-132713756D01*
X52834987Y-132802843D01*
X52791552Y-132946244D01*
X52631356Y-132935825D01*
X52557168Y-132702621D01*
X52524598Y-132600149D01*
X52488113Y-132485229D01*
X52453179Y-132375049D01*
X52424262Y-132283715D01*
X52365542Y-132098011D01*
X52562000Y-132098011D01*
X52609613Y-132275076D01*
X52622274Y-132321863D01*
X52646216Y-132409080D01*
X52668389Y-132488434D01*
X52685241Y-132547152D01*
X52713251Y-132642158D01*
X52802573Y-132374406D01*
X52891893Y-132106651D01*
X52960210Y-132101520D01*
X53028535Y-132096392D01*
X53117543Y-132369269D01*
G37*
G36*
X54295939Y-132585887D02*
G01*
X54293751Y-132659742D01*
X54289346Y-132711186D01*
X54288593Y-132715901D01*
X54258949Y-132800233D01*
X54204826Y-132871730D01*
X54133821Y-132920170D01*
X54057567Y-132940210D01*
X53963777Y-132938658D01*
X53877495Y-132911773D01*
X53855025Y-132900430D01*
X53826127Y-132888279D01*
X53815127Y-132892054D01*
X53813382Y-132911773D01*
X53812581Y-132921607D01*
X53802240Y-132936156D01*
X53773523Y-132942849D01*
X53718375Y-132944467D01*
X53623365Y-132944467D01*
X53623365Y-132529725D01*
X53813382Y-132529725D01*
X53814740Y-132601574D01*
X53820269Y-132649408D01*
X53832073Y-132682182D01*
X53852249Y-132709641D01*
X53905536Y-132750478D01*
X53967893Y-132764162D01*
X54028364Y-132747241D01*
X54079289Y-132700017D01*
X54092750Y-132665460D01*
X54102697Y-132604274D01*
X54107065Y-132530036D01*
X54105694Y-132453890D01*
X54098385Y-132386975D01*
X54084984Y-132340439D01*
X54080699Y-132332805D01*
X54039419Y-132294449D01*
X53983472Y-132277458D01*
X53923393Y-132281413D01*
X53869688Y-132305888D01*
X53832896Y-132350477D01*
X53831382Y-132354222D01*
X53822255Y-132396059D01*
X53815820Y-132458572D01*
X53813382Y-132529725D01*
X53623365Y-132529725D01*
X53623365Y-131769800D01*
X53813382Y-131769800D01*
X53813382Y-132172464D01*
X53848578Y-132140612D01*
X53882470Y-132120814D01*
X53946605Y-132104267D01*
X54021585Y-132098934D01*
X54094804Y-132105478D01*
X54153677Y-132124570D01*
X54195814Y-132151721D01*
X54239216Y-132197978D01*
X54268421Y-132260188D01*
X54285984Y-132344332D01*
X54294435Y-132456407D01*
X54295671Y-132501710D01*
X54295764Y-132530036D01*
X54295939Y-132585887D01*
G37*
G36*
X57282909Y-131264454D02*
G01*
X57280679Y-131318555D01*
X57275610Y-131384523D01*
X57266986Y-131431286D01*
X57252747Y-131468336D01*
X57230833Y-131505182D01*
X57229898Y-131506584D01*
X57175935Y-131566274D01*
X57109909Y-131611809D01*
X57033132Y-131638830D01*
X56932138Y-131647599D01*
X56833142Y-131630348D01*
X56744658Y-131588779D01*
X56675181Y-131524599D01*
X56655232Y-131494279D01*
X56617981Y-131400010D01*
X56599503Y-131283698D01*
X56599819Y-131254277D01*
X56785483Y-131254277D01*
X56785833Y-131309297D01*
X56791668Y-131346034D01*
X56804959Y-131374265D01*
X56827686Y-131403760D01*
X56859221Y-131433033D01*
X56922298Y-131459157D01*
X56990016Y-131454299D01*
X57054747Y-131417991D01*
X57073006Y-131400656D01*
X57092498Y-131370972D01*
X57103308Y-131329251D01*
X57109434Y-131264237D01*
X57111123Y-131215392D01*
X57101874Y-131115659D01*
X57073501Y-131044250D01*
X57025868Y-131000775D01*
X56970028Y-130979962D01*
X56903433Y-130981715D01*
X56841708Y-131016859D01*
X56826951Y-131030235D01*
X56808329Y-131053642D01*
X56797276Y-131084269D01*
X56791151Y-131131218D01*
X56787284Y-131203606D01*
X56785483Y-131254277D01*
X56599819Y-131254277D01*
X56600930Y-131151004D01*
X56602751Y-131132189D01*
X56628120Y-131011646D01*
X56675060Y-130918067D01*
X56743664Y-130851357D01*
X56834029Y-130811398D01*
X56946276Y-130798103D01*
X56988682Y-130799346D01*
X57075642Y-130814621D01*
X57146755Y-130851065D01*
X57213049Y-130913455D01*
X57223649Y-130925978D01*
X57252246Y-130968147D01*
X57271038Y-131015901D01*
X57281464Y-131076418D01*
X57284945Y-131156875D01*
X57283830Y-131215392D01*
X57282909Y-131264454D01*
G37*
G36*
X50076561Y-131161346D02*
G01*
X50074337Y-131293569D01*
X50074045Y-131296166D01*
X50049208Y-131417490D01*
X50004337Y-131511817D01*
X49938022Y-131581220D01*
X49848880Y-131627772D01*
X49832517Y-131633100D01*
X49731086Y-131648784D01*
X49626185Y-131640042D01*
X49528668Y-131608771D01*
X49449367Y-131556916D01*
X49389965Y-131502043D01*
X49453104Y-131452118D01*
X49516246Y-131402197D01*
X49592329Y-131439160D01*
X49680368Y-131469110D01*
X49758101Y-131470012D01*
X49821690Y-131442489D01*
X49867454Y-131387252D01*
X49883852Y-131354155D01*
X49893012Y-131325860D01*
X49887710Y-131306757D01*
X49863940Y-131295024D01*
X49817671Y-131288870D01*
X49744896Y-131286500D01*
X49641584Y-131286112D01*
X49391102Y-131286112D01*
X49391102Y-131166317D01*
X49392977Y-131113721D01*
X49569336Y-131113721D01*
X49577806Y-131123394D01*
X49602890Y-131128426D01*
X49650562Y-131130337D01*
X49726794Y-131130639D01*
X49767674Y-131130160D01*
X49832187Y-131126988D01*
X49875945Y-131121434D01*
X49892071Y-131114175D01*
X49887941Y-131087419D01*
X49858877Y-131036205D01*
X49810438Y-130994133D01*
X49752692Y-130968729D01*
X49695711Y-130967498D01*
X49652817Y-130987873D01*
X49604211Y-131034235D01*
X49573310Y-131091773D01*
X49571496Y-131097896D01*
X49569336Y-131113721D01*
X49392977Y-131113721D01*
X49393361Y-131102954D01*
X49399982Y-131040260D01*
X49409443Y-130997886D01*
X49416334Y-130981706D01*
X49466521Y-130909651D01*
X49539036Y-130849552D01*
X49623843Y-130810205D01*
X49668074Y-130799454D01*
X49773466Y-130794567D01*
X49867380Y-130819454D01*
X49947223Y-130871337D01*
X50010424Y-130947466D01*
X50054398Y-131045059D01*
X50067575Y-131114175D01*
X50076561Y-131161346D01*
G37*
G36*
X53482802Y-130801865D02*
G01*
X53582568Y-130826868D01*
X53655452Y-130873215D01*
X53701866Y-130941215D01*
X53722224Y-131031177D01*
X53718099Y-131117305D01*
X53688349Y-131189950D01*
X53631305Y-131243663D01*
X53545807Y-131279488D01*
X53430734Y-131298480D01*
X53355954Y-131308430D01*
X53287702Y-131329963D01*
X53252468Y-131361145D01*
X53250341Y-131401931D01*
X53264520Y-131427355D01*
X53308437Y-131457493D01*
X53370869Y-131471742D01*
X53444029Y-131469794D01*
X53520138Y-131451323D01*
X53591404Y-131416000D01*
X53662466Y-131368979D01*
X53724974Y-131432225D01*
X53787470Y-131495465D01*
X53735650Y-131537767D01*
X53715498Y-131552463D01*
X53658798Y-131585854D01*
X53597454Y-131614627D01*
X53548899Y-131631140D01*
X53477805Y-131643101D01*
X53390161Y-131643257D01*
X53282679Y-131630089D01*
X53185855Y-131596709D01*
X53117323Y-131543684D01*
X53076914Y-131470893D01*
X53064470Y-131378194D01*
X53073476Y-131296633D01*
X53102392Y-131229864D01*
X53154453Y-131182047D01*
X53232952Y-131150246D01*
X53341181Y-131131524D01*
X53353614Y-131130169D01*
X53420999Y-131121529D01*
X53475661Y-131112484D01*
X53506760Y-131104789D01*
X53517140Y-131098590D01*
X53534684Y-131066641D01*
X53531832Y-131025743D01*
X53508386Y-130990239D01*
X53496073Y-130982494D01*
X53444771Y-130970091D01*
X53378502Y-130970923D01*
X53309398Y-130984126D01*
X53249588Y-131008827D01*
X53186749Y-131045904D01*
X53138001Y-130988945D01*
X53126172Y-130974472D01*
X53099527Y-130935706D01*
X53088554Y-130909435D01*
X53100074Y-130893321D01*
X53135717Y-130868177D01*
X53187179Y-130841114D01*
X53194430Y-130837805D01*
X53262297Y-130811856D01*
X53327714Y-130799451D01*
X53408893Y-130796963D01*
X53482802Y-130801865D01*
G37*
G36*
X50962542Y-132521239D02*
G01*
X50960295Y-132585721D01*
X50939831Y-132709046D01*
X50897740Y-132806018D01*
X50833631Y-132877330D01*
X50747155Y-132923672D01*
X50719210Y-132931860D01*
X50619445Y-132943293D01*
X50514096Y-132933641D01*
X50418936Y-132903858D01*
X50385416Y-132886951D01*
X50337350Y-132857995D01*
X50308225Y-132834162D01*
X50303922Y-132828716D01*
X50295874Y-132808807D01*
X50307470Y-132787162D01*
X50342774Y-132754383D01*
X50359810Y-132740117D01*
X50393372Y-132713995D01*
X50410972Y-132703326D01*
X50416009Y-132704420D01*
X50444905Y-132716307D01*
X50488036Y-132737170D01*
X50502098Y-132744031D01*
X50585065Y-132769514D01*
X50657153Y-132762944D01*
X50720352Y-132724213D01*
X50727711Y-132717060D01*
X50762869Y-132672230D01*
X50782962Y-132629203D01*
X50794083Y-132581700D01*
X50272103Y-132581700D01*
X50272203Y-132491014D01*
X50272258Y-132481993D01*
X50279305Y-132409223D01*
X50462127Y-132409223D01*
X50464281Y-132424317D01*
X50475367Y-132434717D01*
X50501782Y-132440492D01*
X50549938Y-132442972D01*
X50626229Y-132443505D01*
X50668649Y-132442953D01*
X50731259Y-132439743D01*
X50774320Y-132434293D01*
X50790341Y-132427351D01*
X50776675Y-132370222D01*
X50736676Y-132316900D01*
X50678989Y-132279907D01*
X50612336Y-132267109D01*
X50563270Y-132281537D01*
X50514226Y-132316797D01*
X50476935Y-132362743D01*
X50462127Y-132409223D01*
X50279305Y-132409223D01*
X50283064Y-132370414D01*
X50314518Y-132279644D01*
X50369403Y-132201400D01*
X50402887Y-132168301D01*
X50472039Y-132123996D01*
X50554608Y-132102523D01*
X50658906Y-132101016D01*
X50709287Y-132106936D01*
X50802285Y-132137668D01*
X50873482Y-132193600D01*
X50923508Y-132275598D01*
X50952988Y-132384521D01*
X50955980Y-132427351D01*
X50962542Y-132521239D01*
G37*
G36*
X55692080Y-131113239D02*
G01*
X55698123Y-131234239D01*
X55696611Y-131287042D01*
X55679584Y-131402433D01*
X55642055Y-131493418D01*
X55582064Y-131563743D01*
X55497649Y-131617155D01*
X55415763Y-131642088D01*
X55313033Y-131646855D01*
X55209384Y-131628510D01*
X55116930Y-131587977D01*
X55082671Y-131565422D01*
X55044921Y-131536527D01*
X55027698Y-131517505D01*
X55028678Y-131509659D01*
X55047955Y-131482919D01*
X55084189Y-131450527D01*
X55146981Y-131402630D01*
X55220558Y-131439384D01*
X55240458Y-131448479D01*
X55299026Y-131468247D01*
X55348121Y-131476131D01*
X55384315Y-131469636D01*
X55441123Y-131438357D01*
X55488867Y-131389802D01*
X55516175Y-131333617D01*
X55527308Y-131286112D01*
X55005328Y-131286112D01*
X55005424Y-131195421D01*
X55006213Y-131166671D01*
X55011982Y-131105002D01*
X55195343Y-131105002D01*
X55195678Y-131108531D01*
X55205177Y-131119537D01*
X55232021Y-131126297D01*
X55281923Y-131129700D01*
X55360617Y-131130639D01*
X55386479Y-131130627D01*
X55453652Y-131130010D01*
X55494034Y-131127329D01*
X55513610Y-131121065D01*
X55518376Y-131109720D01*
X55514312Y-131091773D01*
X55513694Y-131089736D01*
X55478698Y-131027272D01*
X55423525Y-130984267D01*
X55357736Y-130968256D01*
X55333417Y-130969536D01*
X55288285Y-130984860D01*
X55244978Y-131023809D01*
X55233315Y-131037581D01*
X55206184Y-131076919D01*
X55195343Y-131105002D01*
X55011982Y-131105002D01*
X55012724Y-131097072D01*
X55023636Y-131039479D01*
X55035601Y-131007232D01*
X55077673Y-130937102D01*
X55134011Y-130873404D01*
X55193590Y-130829763D01*
X55210807Y-130821658D01*
X55311039Y-130794773D01*
X55413400Y-130797606D01*
X55509630Y-130828961D01*
X55591494Y-130887634D01*
X55635772Y-130941741D01*
X55671980Y-131017968D01*
X55691340Y-131109720D01*
X55692080Y-131113239D01*
G37*
G36*
X52370765Y-132717113D02*
G01*
X52349926Y-132795536D01*
X52304638Y-132862625D01*
X52235942Y-132910895D01*
X52229197Y-132913823D01*
X52154024Y-132934961D01*
X52069328Y-132943197D01*
X51988799Y-132938156D01*
X51926140Y-132919472D01*
X51901114Y-132907274D01*
X51882742Y-132904367D01*
X51878634Y-132919575D01*
X51870857Y-132933637D01*
X51840742Y-132942014D01*
X51782308Y-132944467D01*
X51685976Y-132944467D01*
X51691616Y-132611929D01*
X51692218Y-132581700D01*
X51878634Y-132581700D01*
X51878634Y-132642158D01*
X51885143Y-132687347D01*
X51913186Y-132737170D01*
X51923539Y-132746327D01*
X51965963Y-132765594D01*
X52029788Y-132770552D01*
X52068091Y-132768616D01*
X52139752Y-132754031D01*
X52184168Y-132726865D01*
X52199150Y-132688938D01*
X52182503Y-132642119D01*
X52172791Y-132629864D01*
X52129405Y-132602381D01*
X52060741Y-132586684D01*
X51962855Y-132581700D01*
X51878634Y-132581700D01*
X51692218Y-132581700D01*
X51693147Y-132535033D01*
X51697182Y-132419910D01*
X51703988Y-132331881D01*
X51714900Y-132266147D01*
X51731271Y-132217911D01*
X51754438Y-132182372D01*
X51785743Y-132154739D01*
X51826543Y-132130196D01*
X51847591Y-132120825D01*
X51920406Y-132103142D01*
X52008223Y-132095829D01*
X52099015Y-132098757D01*
X52180751Y-132111797D01*
X52241403Y-132134798D01*
X52262496Y-132148154D01*
X52311069Y-132187751D01*
X52327512Y-132220901D01*
X52323517Y-132227305D01*
X52298636Y-132249681D01*
X52258474Y-132279533D01*
X52237934Y-132293506D01*
X52202966Y-132313305D01*
X52180243Y-132315195D01*
X52159142Y-132301529D01*
X52106559Y-132273859D01*
X52035800Y-132262480D01*
X51963497Y-132271192D01*
X51962125Y-132271586D01*
X51911129Y-132293741D01*
X51885884Y-132328428D01*
X51878900Y-132385789D01*
X51878634Y-132440362D01*
X52058925Y-132446249D01*
X52087649Y-132447216D01*
X52160065Y-132450591D01*
X52208610Y-132455882D01*
X52241427Y-132465079D01*
X52266645Y-132480173D01*
X52292411Y-132503140D01*
X52334943Y-132556260D01*
X52366116Y-132634856D01*
X52369173Y-132688938D01*
X52370765Y-132717113D01*
G37*
G36*
X55692461Y-132714213D02*
G01*
X55692266Y-132716495D01*
X55671213Y-132805240D01*
X55624396Y-132871984D01*
X55549473Y-132920083D01*
X55510755Y-132931781D01*
X55444442Y-132940897D01*
X55371925Y-132943077D01*
X55306493Y-132938056D01*
X55261452Y-132925588D01*
X55234092Y-132915600D01*
X55207308Y-132925588D01*
X55197514Y-132931373D01*
X55158406Y-132940763D01*
X55105520Y-132944467D01*
X55022596Y-132944467D01*
X55022596Y-132610167D01*
X55022606Y-132581700D01*
X55212619Y-132581700D01*
X55212619Y-132648122D01*
X55219002Y-132698664D01*
X55244211Y-132743130D01*
X55258638Y-132752750D01*
X55310116Y-132767752D01*
X55374388Y-132771498D01*
X55437420Y-132763890D01*
X55485167Y-132744827D01*
X55508956Y-132719623D01*
X55523565Y-132674854D01*
X55510607Y-132639348D01*
X55467796Y-132608489D01*
X55398971Y-132588690D01*
X55308181Y-132581700D01*
X55212619Y-132581700D01*
X55022606Y-132581700D01*
X55022606Y-132581253D01*
X55022920Y-132472288D01*
X55024106Y-132391275D01*
X55026690Y-132332846D01*
X55031215Y-132291590D01*
X55038222Y-132262153D01*
X55048242Y-132239143D01*
X55061810Y-132217172D01*
X55105465Y-132165694D01*
X55167335Y-132126390D01*
X55248601Y-132104704D01*
X55355691Y-132098035D01*
X55359167Y-132098040D01*
X55433610Y-132101404D01*
X55500242Y-132109791D01*
X55545709Y-132121544D01*
X55558172Y-132127429D01*
X55597848Y-132152364D01*
X55633757Y-132182007D01*
X55657378Y-132208676D01*
X55660211Y-132224710D01*
X55654688Y-132229045D01*
X55594475Y-132275308D01*
X55554219Y-132302591D01*
X55527594Y-132313600D01*
X55508304Y-132311037D01*
X55490043Y-132297599D01*
X55456330Y-132280827D01*
X55399518Y-132269640D01*
X55335309Y-132266741D01*
X55277204Y-132272648D01*
X55238720Y-132287877D01*
X55236696Y-132289722D01*
X55219399Y-132324550D01*
X55212619Y-132376521D01*
X55212619Y-132443505D01*
X55372412Y-132443569D01*
X55445809Y-132444730D01*
X55507594Y-132449787D01*
X55551792Y-132460182D01*
X55587505Y-132477350D01*
X55595812Y-132482621D01*
X55655932Y-132540598D01*
X55687911Y-132617260D01*
X55690613Y-132674854D01*
X55692461Y-132714213D01*
G37*
G36*
X56473661Y-132946268D02*
G01*
X56382967Y-132941048D01*
X56292274Y-132935825D01*
X56287962Y-132659438D01*
X56286686Y-132592223D01*
X56283066Y-132491257D01*
X56276855Y-132417152D01*
X56266902Y-132364956D01*
X56252068Y-132329675D01*
X56231212Y-132306330D01*
X56203191Y-132289938D01*
X56150620Y-132273206D01*
X56098335Y-132279709D01*
X56043122Y-132315480D01*
X55989972Y-132360196D01*
X55989972Y-132944467D01*
X55799951Y-132944467D01*
X55799951Y-132627600D01*
X55800133Y-132528284D01*
X55801145Y-132440030D01*
X55803576Y-132375429D01*
X55808016Y-132328626D01*
X55815047Y-132293758D01*
X55825265Y-132264982D01*
X55839252Y-132236430D01*
X55842569Y-132230366D01*
X55886687Y-132171321D01*
X55938308Y-132130061D01*
X56000556Y-132108393D01*
X56082979Y-132098749D01*
X56165527Y-132103977D01*
X56232672Y-132124368D01*
X56283641Y-132150726D01*
X56283641Y-131580331D01*
X56213804Y-131616729D01*
X56184636Y-131629954D01*
X56092557Y-131648654D01*
X56001059Y-131635730D01*
X55916237Y-131592757D01*
X55844211Y-131521319D01*
X55832926Y-131504525D01*
X55822079Y-131479908D01*
X55815006Y-131446444D01*
X55810922Y-131397709D01*
X55809043Y-131327274D01*
X55808705Y-131253886D01*
X55991194Y-131253886D01*
X55991351Y-131315171D01*
X55996033Y-131356043D01*
X56006564Y-131385220D01*
X56024256Y-131411407D01*
X56046727Y-131435749D01*
X56082661Y-131454171D01*
X56136807Y-131458856D01*
X56184636Y-131454779D01*
X56231977Y-131434387D01*
X56262475Y-131393095D01*
X56278793Y-131326722D01*
X56283641Y-131231101D01*
X56282388Y-131180225D01*
X56269882Y-131084205D01*
X56244085Y-131019278D01*
X56205134Y-130985898D01*
X56165792Y-130976508D01*
X56097275Y-130980909D01*
X56039385Y-131008173D01*
X56025537Y-131020671D01*
X56010856Y-131042300D01*
X56001780Y-131074494D01*
X55996391Y-131125253D01*
X55992767Y-131202560D01*
X55991194Y-131253886D01*
X55808705Y-131253886D01*
X55808589Y-131228714D01*
X55808740Y-131183744D01*
X55811394Y-131079147D01*
X55818767Y-131001011D01*
X55832740Y-130943422D01*
X55855156Y-130900486D01*
X55887894Y-130866297D01*
X55932802Y-130834935D01*
X55969226Y-130816945D01*
X56055575Y-130797099D01*
X56146597Y-130799805D01*
X56227491Y-130825527D01*
X56262220Y-130842342D01*
X56279684Y-130844084D01*
X56283641Y-130828779D01*
X56283642Y-130828313D01*
X56292175Y-130812684D01*
X56321608Y-130804681D01*
X56378649Y-130802425D01*
X56473661Y-130802425D01*
X56473661Y-131231101D01*
X56473661Y-132946268D01*
G37*
G36*
X53792671Y-113562594D02*
G01*
X53796199Y-113568975D01*
X53800232Y-113575048D01*
X53804757Y-113580772D01*
X53809727Y-113586107D01*
X53815123Y-113591016D01*
X53820898Y-113595472D01*
X53827018Y-113599436D01*
X53833440Y-113602889D01*
X53840125Y-113605805D01*
X53847030Y-113608162D01*
X53854099Y-113609946D01*
X53861294Y-113611150D01*
X53868560Y-113611761D01*
X53875852Y-113611777D01*
X53883122Y-113611192D01*
X53890322Y-113610022D01*
X53897399Y-113608259D01*
X53904308Y-113605930D01*
X53911005Y-113603041D01*
X53917443Y-113599610D01*
X54365804Y-113340468D01*
X54086093Y-114782897D01*
X54084654Y-114794263D01*
X54084689Y-114805720D01*
X54086192Y-114817080D01*
X54089140Y-114828155D01*
X54093483Y-114838752D01*
X54099154Y-114848712D01*
X54106047Y-114857862D01*
X54114067Y-114866048D01*
X54123064Y-114873138D01*
X54132897Y-114879018D01*
X54143406Y-114883583D01*
X54154417Y-114886765D01*
X54165736Y-114888510D01*
X54177191Y-114888785D01*
X54188585Y-114887588D01*
X54199735Y-114884946D01*
X54210449Y-114880886D01*
X54220556Y-114875490D01*
X54229888Y-114868844D01*
X54238288Y-114861052D01*
X54818279Y-114238560D01*
X54962245Y-114577230D01*
X54964847Y-114582755D01*
X54967818Y-114588092D01*
X54971148Y-114593212D01*
X54974822Y-114598091D01*
X54978817Y-114602709D01*
X54983127Y-114607042D01*
X54987720Y-114611070D01*
X54992577Y-114614772D01*
X54997679Y-114618133D01*
X55002997Y-114621142D01*
X55008508Y-114623773D01*
X55014187Y-114626018D01*
X55020005Y-114627877D01*
X55025937Y-114629329D01*
X55031958Y-114630370D01*
X55038035Y-114630994D01*
X55044136Y-114631208D01*
X55050241Y-114630997D01*
X55056319Y-114630372D01*
X55062336Y-114629332D01*
X55805490Y-114471652D01*
X55550464Y-115255939D01*
X55548677Y-115262129D01*
X55547345Y-115268431D01*
X55546474Y-115274809D01*
X55546066Y-115281241D01*
X55546122Y-115287684D01*
X55546643Y-115294105D01*
X55547627Y-115300470D01*
X55549070Y-115306748D01*
X55550964Y-115312904D01*
X55553293Y-115318910D01*
X55556053Y-115324731D01*
X55559222Y-115330340D01*
X55562793Y-115335704D01*
X55566737Y-115340792D01*
X55571042Y-115345585D01*
X55575682Y-115350054D01*
X55580632Y-115354177D01*
X55585865Y-115357931D01*
X55591355Y-115361296D01*
X55597076Y-115364256D01*
X55887757Y-115500000D01*
X54597522Y-116544804D01*
X54593336Y-116548426D01*
X54589383Y-116552301D01*
X54585671Y-116556411D01*
X54582227Y-116560749D01*
X54579060Y-116565289D01*
X54576175Y-116570019D01*
X54573600Y-116574918D01*
X54571323Y-116579971D01*
X54569372Y-116585151D01*
X54567740Y-116590443D01*
X54566444Y-116595825D01*
X54565480Y-116601283D01*
X54564864Y-116606783D01*
X54564590Y-116612318D01*
X54564657Y-116617857D01*
X54565068Y-116623376D01*
X54565821Y-116628863D01*
X54566919Y-116634294D01*
X54568342Y-116639642D01*
X54570101Y-116644895D01*
X54729151Y-117083655D01*
X53551351Y-116876617D01*
X53539809Y-116875158D01*
X53528179Y-116874734D01*
X53516561Y-116875356D01*
X53505042Y-116877004D01*
X53493718Y-116879678D01*
X53482675Y-116883350D01*
X53472009Y-116887995D01*
X53461795Y-116893571D01*
X53452122Y-116900038D01*
X53443066Y-116907340D01*
X53434695Y-116915426D01*
X53427080Y-116924223D01*
X53420280Y-116933666D01*
X53414350Y-116943678D01*
X53409337Y-116954177D01*
X53405283Y-116965084D01*
X53402216Y-116976306D01*
X53400163Y-116987764D01*
X53399137Y-116999348D01*
X53399154Y-117010983D01*
X53460856Y-118194271D01*
X53214054Y-118194271D01*
X53275756Y-117010983D01*
X53275773Y-116999348D01*
X53274747Y-116987764D01*
X53272694Y-116976306D01*
X53269627Y-116965084D01*
X53265573Y-116954177D01*
X53260560Y-116943678D01*
X53254630Y-116933666D01*
X53247830Y-116924223D01*
X53240215Y-116915426D01*
X53231844Y-116907340D01*
X53222788Y-116900038D01*
X53213115Y-116893571D01*
X53202901Y-116887995D01*
X53192235Y-116883350D01*
X53181192Y-116879678D01*
X53169868Y-116877004D01*
X53158349Y-116875356D01*
X53146731Y-116874734D01*
X53135101Y-116875158D01*
X53123559Y-116876617D01*
X51945759Y-117083655D01*
X52104809Y-116644895D01*
X52106568Y-116639642D01*
X52107991Y-116634294D01*
X52109089Y-116628863D01*
X52109842Y-116623376D01*
X52110253Y-116617857D01*
X52110320Y-116612318D01*
X52110046Y-116606783D01*
X52109430Y-116601283D01*
X52108466Y-116595825D01*
X52107170Y-116590443D01*
X52105538Y-116585151D01*
X52103587Y-116579971D01*
X52101310Y-116574918D01*
X52098735Y-116570019D01*
X52095850Y-116565289D01*
X52092683Y-116560749D01*
X52089239Y-116556411D01*
X52085527Y-116552301D01*
X52081574Y-116548426D01*
X52077388Y-116544804D01*
X50787153Y-115500000D01*
X51077834Y-115364256D01*
X51083555Y-115361296D01*
X51089045Y-115357931D01*
X51094278Y-115354177D01*
X51099228Y-115350054D01*
X51103868Y-115345585D01*
X51108173Y-115340792D01*
X51112117Y-115335704D01*
X51115688Y-115330340D01*
X51118857Y-115324731D01*
X51121617Y-115318910D01*
X51123946Y-115312904D01*
X51125840Y-115306748D01*
X51127283Y-115300470D01*
X51128267Y-115294105D01*
X51128788Y-115287684D01*
X51128844Y-115281241D01*
X51128436Y-115274809D01*
X51127565Y-115268431D01*
X51126233Y-115262129D01*
X51124446Y-115255939D01*
X50869420Y-114471652D01*
X51612574Y-114629332D01*
X51618591Y-114630372D01*
X51624669Y-114630997D01*
X51630774Y-114631208D01*
X51636875Y-114630994D01*
X51642952Y-114630370D01*
X51648973Y-114629329D01*
X51654905Y-114627877D01*
X51660723Y-114626018D01*
X51666402Y-114623773D01*
X51671913Y-114621142D01*
X51677231Y-114618133D01*
X51682333Y-114614772D01*
X51687190Y-114611070D01*
X51691783Y-114607042D01*
X51696093Y-114602709D01*
X51700088Y-114598091D01*
X51703762Y-114593212D01*
X51707092Y-114588092D01*
X51710063Y-114582755D01*
X51712665Y-114577230D01*
X51856631Y-114238560D01*
X52436622Y-114861052D01*
X52445022Y-114868844D01*
X52454354Y-114875490D01*
X52464461Y-114880886D01*
X52475175Y-114884946D01*
X52486325Y-114887588D01*
X52497719Y-114888785D01*
X52509174Y-114888510D01*
X52520493Y-114886765D01*
X52531504Y-114883583D01*
X52542013Y-114879018D01*
X52551846Y-114873138D01*
X52560843Y-114866048D01*
X52568863Y-114857862D01*
X52575756Y-114848712D01*
X52581427Y-114838752D01*
X52585770Y-114828155D01*
X52588718Y-114817080D01*
X52590221Y-114805720D01*
X52590256Y-114794263D01*
X52588817Y-114782897D01*
X52309106Y-113340468D01*
X52757467Y-113599610D01*
X52763905Y-113603041D01*
X52770602Y-113605930D01*
X52777511Y-113608259D01*
X52784588Y-113610022D01*
X52791788Y-113611192D01*
X52799058Y-113611777D01*
X52806350Y-113611761D01*
X52813616Y-113611150D01*
X52820811Y-113609946D01*
X52827880Y-113608162D01*
X52834785Y-113605805D01*
X52841470Y-113602889D01*
X52847892Y-113599436D01*
X52854012Y-113595472D01*
X52859787Y-113591016D01*
X52865183Y-113586107D01*
X52870153Y-113580772D01*
X52874678Y-113575048D01*
X52878711Y-113568975D01*
X52882239Y-113562594D01*
X53337455Y-112668612D01*
X53792671Y-113562594D01*
G37*
G36*
X53847570Y-125075599D02*
G01*
X53925664Y-125489873D01*
X54213838Y-125608669D01*
X54502017Y-125727460D01*
X54847723Y-125492379D01*
X54916149Y-125446038D01*
X55006857Y-125385205D01*
X55085390Y-125333250D01*
X55147670Y-125292831D01*
X55189620Y-125266629D01*
X55207163Y-125257302D01*
X55217929Y-125263931D01*
X55250131Y-125291727D01*
X55298857Y-125337345D01*
X55359985Y-125396593D01*
X55429389Y-125465282D01*
X55502922Y-125539231D01*
X55576481Y-125614237D01*
X55645920Y-125686125D01*
X55707120Y-125750699D01*
X55755940Y-125803779D01*
X55788261Y-125841164D01*
X55799951Y-125858674D01*
X55797235Y-125866200D01*
X55778398Y-125899760D01*
X55744011Y-125954985D01*
X55696853Y-126027552D01*
X55639717Y-126113135D01*
X55575386Y-126207400D01*
X55540076Y-126258804D01*
X55479349Y-126348307D01*
X55427279Y-126426419D01*
X55386652Y-126488902D01*
X55360234Y-126531519D01*
X55350816Y-126550048D01*
X55350967Y-126551069D01*
X55359280Y-126574545D01*
X55378352Y-126622485D01*
X55405510Y-126688626D01*
X55438115Y-126766708D01*
X55473502Y-126850460D01*
X55509012Y-126933628D01*
X55541992Y-127009952D01*
X55569778Y-127073161D01*
X55589715Y-127116997D01*
X55599148Y-127135199D01*
X55604729Y-127136809D01*
X55638637Y-127144092D01*
X55699070Y-127156154D01*
X55781191Y-127172052D01*
X55880169Y-127190849D01*
X55991150Y-127211592D01*
X56049642Y-127222598D01*
X56157005Y-127243584D01*
X56250879Y-127262964D01*
X56326128Y-127279628D01*
X56377627Y-127292461D01*
X56400243Y-127300352D01*
X56404309Y-127308169D01*
X56411043Y-127346373D01*
X56416339Y-127410005D01*
X56420194Y-127493081D01*
X56422607Y-127589610D01*
X56423590Y-127693600D01*
X56423152Y-127799072D01*
X56421287Y-127900035D01*
X56418001Y-127990502D01*
X56413298Y-128064480D01*
X56407189Y-128115990D01*
X56399671Y-128139036D01*
X56395104Y-128141638D01*
X56361070Y-128152791D01*
X56302032Y-128167542D01*
X56224814Y-128184287D01*
X56136229Y-128201401D01*
X56106346Y-128206853D01*
X55968310Y-128232197D01*
X55859828Y-128252572D01*
X55777132Y-128268816D01*
X55716470Y-128281765D01*
X55674078Y-128292277D01*
X55646195Y-128301189D01*
X55629070Y-128309351D01*
X55618922Y-128317604D01*
X55617744Y-128318984D01*
X55601156Y-128347860D01*
X55576610Y-128400692D01*
X55546483Y-128471284D01*
X55513156Y-128553440D01*
X55479008Y-128640960D01*
X55446419Y-128727646D01*
X55417765Y-128807307D01*
X55395429Y-128873737D01*
X55381783Y-128920740D01*
X55379214Y-128942116D01*
X55380932Y-128944888D01*
X55398723Y-128971713D01*
X55432184Y-129021193D01*
X55478206Y-129088759D01*
X55533688Y-129169868D01*
X55595533Y-129259953D01*
X55612504Y-129284743D01*
X55672188Y-129373648D01*
X55723772Y-129453160D01*
X55764309Y-129518561D01*
X55790847Y-129565133D01*
X55800452Y-129588172D01*
X55798378Y-129594228D01*
X55776805Y-129624069D01*
X55734241Y-129672796D01*
X55673739Y-129737141D01*
X55598344Y-129813810D01*
X55511104Y-129899530D01*
X55461229Y-129947513D01*
X55382388Y-130022235D01*
X55313377Y-130086245D01*
X55257908Y-130136159D01*
X55219684Y-130168618D01*
X55202414Y-130180240D01*
X55190543Y-130175932D01*
X55154016Y-130155547D01*
X55100962Y-130122205D01*
X55038305Y-130080131D01*
X54993756Y-130049427D01*
X54904816Y-129988457D01*
X54809908Y-129923703D01*
X54723227Y-129864859D01*
X54553412Y-129750000D01*
X54410864Y-129827075D01*
X54377298Y-129844865D01*
X54316258Y-129875293D01*
X54269053Y-129896301D01*
X54243827Y-129904136D01*
X54235570Y-129894075D01*
X54215067Y-129855774D01*
X54184791Y-129792623D01*
X54146412Y-129708641D01*
X54101623Y-129607815D01*
X54052113Y-129494180D01*
X53999557Y-129371727D01*
X53945653Y-129244453D01*
X53892072Y-129116389D01*
X53840510Y-128991526D01*
X53792645Y-128873877D01*
X53750163Y-128767455D01*
X53714754Y-128676259D01*
X53688102Y-128604295D01*
X53671887Y-128555581D01*
X53667794Y-128534112D01*
X53668076Y-128533487D01*
X53687126Y-128513645D01*
X53726976Y-128482566D01*
X53779405Y-128446698D01*
X53795950Y-128435743D01*
X53921866Y-128331837D01*
X54026069Y-128208076D01*
X54106107Y-128069613D01*
X54159503Y-127921599D01*
X54183786Y-127769187D01*
X54176505Y-127617524D01*
X54146999Y-127482635D01*
X54094015Y-127346429D01*
X54016782Y-127224907D01*
X53910794Y-127109471D01*
X53869146Y-127072595D01*
X53734512Y-126981741D01*
X53589072Y-126920550D01*
X53437041Y-126888477D01*
X53282626Y-126884981D01*
X53130056Y-126909503D01*
X52983530Y-126961502D01*
X52847277Y-127040432D01*
X52725507Y-127145735D01*
X52622430Y-127276882D01*
X52602610Y-127309356D01*
X52535259Y-127457795D01*
X52499477Y-127612369D01*
X52494350Y-127769074D01*
X52518937Y-127923903D01*
X52572299Y-128072860D01*
X52653494Y-128211939D01*
X52761594Y-128337139D01*
X52895655Y-128444450D01*
X52900012Y-128447340D01*
X52951881Y-128483887D01*
X52990756Y-128514972D01*
X53008512Y-128534112D01*
X53006272Y-128549121D01*
X52992345Y-128592827D01*
X52967645Y-128660560D01*
X52933861Y-128748315D01*
X52892669Y-128852085D01*
X52845767Y-128967863D01*
X52794830Y-129091635D01*
X52741547Y-129219405D01*
X52687596Y-129347150D01*
X52634670Y-129470867D01*
X52584442Y-129586549D01*
X52538605Y-129690190D01*
X52498843Y-129777773D01*
X52466838Y-129845299D01*
X52444277Y-129888757D01*
X52432844Y-129904136D01*
X52423327Y-129902051D01*
X52385967Y-129887082D01*
X52330747Y-129860836D01*
X52265799Y-129827075D01*
X52123258Y-129750000D01*
X51953443Y-129864859D01*
X51903267Y-129898870D01*
X51809956Y-129962421D01*
X51716927Y-130026074D01*
X51638363Y-130080131D01*
X51595006Y-130109590D01*
X51538659Y-130146191D01*
X51496875Y-130171248D01*
X51476469Y-130180539D01*
X51467703Y-130176594D01*
X51436007Y-130152436D01*
X51387153Y-130109904D01*
X51325382Y-130053173D01*
X51254953Y-129986439D01*
X51180119Y-129913877D01*
X51105132Y-129839674D01*
X51034243Y-129768014D01*
X50971700Y-129703079D01*
X50921769Y-129649060D01*
X50888685Y-129610130D01*
X50876716Y-129590480D01*
X50877405Y-129586739D01*
X50891652Y-129556307D01*
X50922093Y-129503660D01*
X50965777Y-129433546D01*
X51019770Y-129350728D01*
X51081136Y-129259953D01*
X51098339Y-129234919D01*
X51158774Y-129146816D01*
X51211998Y-129068923D01*
X51254921Y-129005808D01*
X51284443Y-128962018D01*
X51297453Y-128942116D01*
X51297772Y-128941262D01*
X51293932Y-128916917D01*
X51279271Y-128867590D01*
X51256156Y-128799489D01*
X51226979Y-128718799D01*
X51194115Y-128631740D01*
X51159940Y-128544488D01*
X51126844Y-128463252D01*
X51097188Y-128394226D01*
X51073364Y-128343608D01*
X51057745Y-128317604D01*
X51056178Y-128315988D01*
X51044997Y-128307816D01*
X51026113Y-128299579D01*
X50995761Y-128290427D01*
X50950187Y-128279516D01*
X50885623Y-128266008D01*
X50798322Y-128249043D01*
X50684511Y-128227794D01*
X50540435Y-128201401D01*
X50510551Y-128195845D01*
X50424943Y-128178675D01*
X50352937Y-128162406D01*
X50301342Y-128148653D01*
X50276998Y-128139036D01*
X50272926Y-128131012D01*
X50266134Y-128092466D01*
X50260753Y-128028560D01*
X50256786Y-127945290D01*
X50254239Y-127848638D01*
X50253109Y-127744592D01*
X50253404Y-127639140D01*
X50255130Y-127538270D01*
X50258295Y-127447968D01*
X50262892Y-127374223D01*
X50268932Y-127323019D01*
X50276424Y-127300352D01*
X50284073Y-127296997D01*
X50322104Y-127286440D01*
X50386402Y-127271504D01*
X50471822Y-127253321D01*
X50573234Y-127232974D01*
X50685520Y-127211592D01*
X50746831Y-127200173D01*
X50851907Y-127180366D01*
X50942352Y-127163024D01*
X51013329Y-127149083D01*
X51059996Y-127139494D01*
X51077523Y-127135199D01*
X51078176Y-127134308D01*
X51089339Y-127111797D01*
X51110610Y-127064635D01*
X51139339Y-126999084D01*
X51172870Y-126921396D01*
X51208532Y-126837828D01*
X51243680Y-126754647D01*
X51275640Y-126678098D01*
X51301766Y-126614438D01*
X51319385Y-126569936D01*
X51325848Y-126550839D01*
X51323001Y-126544119D01*
X51304017Y-126512151D01*
X51269590Y-126458336D01*
X51222478Y-126386897D01*
X51165455Y-126302065D01*
X51101281Y-126208049D01*
X51066076Y-126156568D01*
X51005313Y-126066303D01*
X50953221Y-125987081D01*
X50912568Y-125923230D01*
X50886141Y-125879065D01*
X50876716Y-125858906D01*
X50883266Y-125847973D01*
X50910661Y-125815297D01*
X50955616Y-125765846D01*
X51013989Y-125703806D01*
X51081666Y-125633375D01*
X51154509Y-125558750D01*
X51228399Y-125484095D01*
X51299212Y-125413619D01*
X51362816Y-125351515D01*
X51415088Y-125301973D01*
X51451904Y-125269161D01*
X51469130Y-125257302D01*
X51478690Y-125261915D01*
X51513806Y-125283305D01*
X51570479Y-125319720D01*
X51644609Y-125368484D01*
X51732126Y-125426927D01*
X51828941Y-125492379D01*
X52174652Y-125727460D01*
X52462825Y-125608669D01*
X52751000Y-125489873D01*
X52829099Y-125075599D01*
X52907196Y-124661328D01*
X53769471Y-124661328D01*
X53847570Y-125075599D01*
G37*
D11*
X46755930Y-139775472D02*
X46827359Y-139737377D01*
X46827359Y-139737377D02*
X46863073Y-139699281D01*
X46863073Y-139699281D02*
X46898787Y-139623091D01*
X46898787Y-139623091D02*
X46898787Y-139584996D01*
X46898787Y-139584996D02*
X46863073Y-139508805D01*
X46863073Y-139508805D02*
X46827359Y-139470710D01*
X46827359Y-139470710D02*
X46755930Y-139432615D01*
X46755930Y-139432615D02*
X46613073Y-139432615D01*
X46613073Y-139432615D02*
X46541645Y-139470710D01*
X46541645Y-139470710D02*
X46505930Y-139508805D01*
X46505930Y-139508805D02*
X46470216Y-139584996D01*
X46470216Y-139584996D02*
X46470216Y-139623091D01*
X46470216Y-139623091D02*
X46505930Y-139699281D01*
X46505930Y-139699281D02*
X46541645Y-139737377D01*
X46541645Y-139737377D02*
X46613073Y-139775472D01*
X46613073Y-139775472D02*
X46755930Y-139775472D01*
X46755930Y-139775472D02*
X46827359Y-139813567D01*
X46827359Y-139813567D02*
X46863073Y-139851662D01*
X46863073Y-139851662D02*
X46898787Y-139927853D01*
X46898787Y-139927853D02*
X46898787Y-140080234D01*
X46898787Y-140080234D02*
X46863073Y-140156424D01*
X46863073Y-140156424D02*
X46827359Y-140194520D01*
X46827359Y-140194520D02*
X46755930Y-140232615D01*
X46755930Y-140232615D02*
X46613073Y-140232615D01*
X46613073Y-140232615D02*
X46541645Y-140194520D01*
X46541645Y-140194520D02*
X46505930Y-140156424D01*
X46505930Y-140156424D02*
X46470216Y-140080234D01*
X46470216Y-140080234D02*
X46470216Y-139927853D01*
X46470216Y-139927853D02*
X46505930Y-139851662D01*
X46505930Y-139851662D02*
X46541645Y-139813567D01*
X46541645Y-139813567D02*
X46613073Y-139775472D01*
X46827359Y-142808525D02*
X46684502Y-142808525D01*
X46684502Y-142808525D02*
X46613073Y-142770430D01*
X46613073Y-142770430D02*
X46577359Y-142732334D01*
X46577359Y-142732334D02*
X46505930Y-142618049D01*
X46505930Y-142618049D02*
X46470216Y-142465668D01*
X46470216Y-142465668D02*
X46470216Y-142160906D01*
X46470216Y-142160906D02*
X46505930Y-142084715D01*
X46505930Y-142084715D02*
X46541645Y-142046620D01*
X46541645Y-142046620D02*
X46613073Y-142008525D01*
X46613073Y-142008525D02*
X46755930Y-142008525D01*
X46755930Y-142008525D02*
X46827359Y-142046620D01*
X46827359Y-142046620D02*
X46863073Y-142084715D01*
X46863073Y-142084715D02*
X46898787Y-142160906D01*
X46898787Y-142160906D02*
X46898787Y-142351382D01*
X46898787Y-142351382D02*
X46863073Y-142427572D01*
X46863073Y-142427572D02*
X46827359Y-142465668D01*
X46827359Y-142465668D02*
X46755930Y-142503763D01*
X46755930Y-142503763D02*
X46613073Y-142503763D01*
X46613073Y-142503763D02*
X46541645Y-142465668D01*
X46541645Y-142465668D02*
X46505930Y-142427572D01*
X46505930Y-142427572D02*
X46470216Y-142351382D01*
X46470216Y-145384435D02*
X46898787Y-145384435D01*
X46684502Y-145384435D02*
X46684502Y-144584435D01*
X46684502Y-144584435D02*
X46755930Y-144698720D01*
X46755930Y-144698720D02*
X46827359Y-144774911D01*
X46827359Y-144774911D02*
X46898787Y-144813006D01*
X46005930Y-144584435D02*
X45934501Y-144584435D01*
X45934501Y-144584435D02*
X45863073Y-144622530D01*
X45863073Y-144622530D02*
X45827359Y-144660625D01*
X45827359Y-144660625D02*
X45791644Y-144736816D01*
X45791644Y-144736816D02*
X45755930Y-144889197D01*
X45755930Y-144889197D02*
X45755930Y-145079673D01*
X45755930Y-145079673D02*
X45791644Y-145232054D01*
X45791644Y-145232054D02*
X45827359Y-145308244D01*
X45827359Y-145308244D02*
X45863073Y-145346340D01*
X45863073Y-145346340D02*
X45934501Y-145384435D01*
X45934501Y-145384435D02*
X46005930Y-145384435D01*
X46005930Y-145384435D02*
X46077359Y-145346340D01*
X46077359Y-145346340D02*
X46113073Y-145308244D01*
X46113073Y-145308244D02*
X46148787Y-145232054D01*
X46148787Y-145232054D02*
X46184501Y-145079673D01*
X46184501Y-145079673D02*
X46184501Y-144889197D01*
X46184501Y-144889197D02*
X46148787Y-144736816D01*
X46148787Y-144736816D02*
X46113073Y-144660625D01*
X46113073Y-144660625D02*
X46077359Y-144622530D01*
X46077359Y-144622530D02*
X46005930Y-144584435D01*
X46470216Y-147960345D02*
X46898787Y-147960345D01*
X46684502Y-147960345D02*
X46684502Y-147160345D01*
X46684502Y-147160345D02*
X46755930Y-147274630D01*
X46755930Y-147274630D02*
X46827359Y-147350821D01*
X46827359Y-147350821D02*
X46898787Y-147388916D01*
X45755930Y-147960345D02*
X46184501Y-147960345D01*
X45970216Y-147960345D02*
X45970216Y-147160345D01*
X45970216Y-147160345D02*
X46041644Y-147274630D01*
X46041644Y-147274630D02*
X46113073Y-147350821D01*
X46113073Y-147350821D02*
X46184501Y-147388916D01*
X46470216Y-150536255D02*
X46898787Y-150536255D01*
X46684502Y-150536255D02*
X46684502Y-149736255D01*
X46684502Y-149736255D02*
X46755930Y-149850540D01*
X46755930Y-149850540D02*
X46827359Y-149926731D01*
X46827359Y-149926731D02*
X46898787Y-149964826D01*
X46184501Y-149812445D02*
X46148787Y-149774350D01*
X46148787Y-149774350D02*
X46077359Y-149736255D01*
X46077359Y-149736255D02*
X45898787Y-149736255D01*
X45898787Y-149736255D02*
X45827359Y-149774350D01*
X45827359Y-149774350D02*
X45791644Y-149812445D01*
X45791644Y-149812445D02*
X45755930Y-149888636D01*
X45755930Y-149888636D02*
X45755930Y-149964826D01*
X45755930Y-149964826D02*
X45791644Y-150079112D01*
X45791644Y-150079112D02*
X46220216Y-150536255D01*
X46220216Y-150536255D02*
X45755930Y-150536255D01*
X46541645Y-152578831D02*
X46541645Y-153226450D01*
X46541645Y-153226450D02*
X46577359Y-153302641D01*
X46577359Y-153302641D02*
X46613073Y-153340736D01*
X46613073Y-153340736D02*
X46684502Y-153378831D01*
X46684502Y-153378831D02*
X46791645Y-153378831D01*
X46791645Y-153378831D02*
X46863073Y-153340736D01*
X46541645Y-153074070D02*
X46613073Y-153112165D01*
X46613073Y-153112165D02*
X46755930Y-153112165D01*
X46755930Y-153112165D02*
X46827359Y-153074070D01*
X46827359Y-153074070D02*
X46863073Y-153035974D01*
X46863073Y-153035974D02*
X46898787Y-152959784D01*
X46898787Y-152959784D02*
X46898787Y-152731212D01*
X46898787Y-152731212D02*
X46863073Y-152655022D01*
X46863073Y-152655022D02*
X46827359Y-152616927D01*
X46827359Y-152616927D02*
X46755930Y-152578831D01*
X46755930Y-152578831D02*
X46613073Y-152578831D01*
X46613073Y-152578831D02*
X46541645Y-152616927D01*
X46184502Y-152578831D02*
X46184502Y-153112165D01*
X46184502Y-152655022D02*
X46148788Y-152616927D01*
X46148788Y-152616927D02*
X46077359Y-152578831D01*
X46077359Y-152578831D02*
X45970216Y-152578831D01*
X45970216Y-152578831D02*
X45898788Y-152616927D01*
X45898788Y-152616927D02*
X45863074Y-152693117D01*
X45863074Y-152693117D02*
X45863074Y-153112165D01*
X45184503Y-153112165D02*
X45184503Y-152312165D01*
X45184503Y-153074070D02*
X45255931Y-153112165D01*
X45255931Y-153112165D02*
X45398788Y-153112165D01*
X45398788Y-153112165D02*
X45470217Y-153074070D01*
X45470217Y-153074070D02*
X45505931Y-153035974D01*
X45505931Y-153035974D02*
X45541645Y-152959784D01*
X45541645Y-152959784D02*
X45541645Y-152731212D01*
X45541645Y-152731212D02*
X45505931Y-152655022D01*
X45505931Y-152655022D02*
X45470217Y-152616927D01*
X45470217Y-152616927D02*
X45398788Y-152578831D01*
X45398788Y-152578831D02*
X45255931Y-152578831D01*
X45255931Y-152578831D02*
X45184503Y-152616927D01*
X46934502Y-155154741D02*
X46755930Y-155688075D01*
X46755930Y-155688075D02*
X46577359Y-155154741D01*
X45970216Y-155649980D02*
X46041644Y-155688075D01*
X46041644Y-155688075D02*
X46184501Y-155688075D01*
X46184501Y-155688075D02*
X46255930Y-155649980D01*
X46255930Y-155649980D02*
X46291644Y-155611884D01*
X46291644Y-155611884D02*
X46327358Y-155535694D01*
X46327358Y-155535694D02*
X46327358Y-155307122D01*
X46327358Y-155307122D02*
X46291644Y-155230932D01*
X46291644Y-155230932D02*
X46255930Y-155192837D01*
X46255930Y-155192837D02*
X46184501Y-155154741D01*
X46184501Y-155154741D02*
X46041644Y-155154741D01*
X46041644Y-155154741D02*
X45970216Y-155192837D01*
X45327359Y-155649980D02*
X45398787Y-155688075D01*
X45398787Y-155688075D02*
X45541644Y-155688075D01*
X45541644Y-155688075D02*
X45613073Y-155649980D01*
X45613073Y-155649980D02*
X45648787Y-155611884D01*
X45648787Y-155611884D02*
X45684501Y-155535694D01*
X45684501Y-155535694D02*
X45684501Y-155307122D01*
X45684501Y-155307122D02*
X45648787Y-155230932D01*
X45648787Y-155230932D02*
X45613073Y-155192837D01*
X45613073Y-155192837D02*
X45541644Y-155154741D01*
X45541644Y-155154741D02*
X45398787Y-155154741D01*
X45398787Y-155154741D02*
X45327359Y-155192837D01*
X57352855Y-144860345D02*
X57352855Y-144060345D01*
X57352855Y-144365107D02*
X57281427Y-144327011D01*
X57281427Y-144327011D02*
X57138569Y-144327011D01*
X57138569Y-144327011D02*
X57067141Y-144365107D01*
X57067141Y-144365107D02*
X57031427Y-144403202D01*
X57031427Y-144403202D02*
X56995712Y-144479392D01*
X56995712Y-144479392D02*
X56995712Y-144707964D01*
X56995712Y-144707964D02*
X57031427Y-144784154D01*
X57031427Y-144784154D02*
X57067141Y-144822250D01*
X57067141Y-144822250D02*
X57138569Y-144860345D01*
X57138569Y-144860345D02*
X57281427Y-144860345D01*
X57281427Y-144860345D02*
X57352855Y-144822250D01*
X56352856Y-144860345D02*
X56352856Y-144441297D01*
X56352856Y-144441297D02*
X56388570Y-144365107D01*
X56388570Y-144365107D02*
X56459998Y-144327011D01*
X56459998Y-144327011D02*
X56602856Y-144327011D01*
X56602856Y-144327011D02*
X56674284Y-144365107D01*
X56352856Y-144822250D02*
X56424284Y-144860345D01*
X56424284Y-144860345D02*
X56602856Y-144860345D01*
X56602856Y-144860345D02*
X56674284Y-144822250D01*
X56674284Y-144822250D02*
X56709998Y-144746059D01*
X56709998Y-144746059D02*
X56709998Y-144669869D01*
X56709998Y-144669869D02*
X56674284Y-144593678D01*
X56674284Y-144593678D02*
X56602856Y-144555583D01*
X56602856Y-144555583D02*
X56424284Y-144555583D01*
X56424284Y-144555583D02*
X56352856Y-144517488D01*
X56102856Y-144327011D02*
X55817142Y-144327011D01*
X55995713Y-144060345D02*
X55995713Y-144746059D01*
X55995713Y-144746059D02*
X55959999Y-144822250D01*
X55959999Y-144822250D02*
X55888570Y-144860345D01*
X55888570Y-144860345D02*
X55817142Y-144860345D01*
X54674285Y-144327011D02*
X54674285Y-144974630D01*
X54674285Y-144974630D02*
X54709999Y-145050821D01*
X54709999Y-145050821D02*
X54745713Y-145088916D01*
X54745713Y-145088916D02*
X54817142Y-145127011D01*
X54817142Y-145127011D02*
X54924285Y-145127011D01*
X54924285Y-145127011D02*
X54995713Y-145088916D01*
X54674285Y-144822250D02*
X54745713Y-144860345D01*
X54745713Y-144860345D02*
X54888570Y-144860345D01*
X54888570Y-144860345D02*
X54959999Y-144822250D01*
X54959999Y-144822250D02*
X54995713Y-144784154D01*
X54995713Y-144784154D02*
X55031427Y-144707964D01*
X55031427Y-144707964D02*
X55031427Y-144479392D01*
X55031427Y-144479392D02*
X54995713Y-144403202D01*
X54995713Y-144403202D02*
X54959999Y-144365107D01*
X54959999Y-144365107D02*
X54888570Y-144327011D01*
X54888570Y-144327011D02*
X54745713Y-144327011D01*
X54745713Y-144327011D02*
X54674285Y-144365107D01*
X54317142Y-144327011D02*
X54317142Y-144860345D01*
X54317142Y-144403202D02*
X54281428Y-144365107D01*
X54281428Y-144365107D02*
X54209999Y-144327011D01*
X54209999Y-144327011D02*
X54102856Y-144327011D01*
X54102856Y-144327011D02*
X54031428Y-144365107D01*
X54031428Y-144365107D02*
X53995714Y-144441297D01*
X53995714Y-144441297D02*
X53995714Y-144860345D01*
X53317143Y-144860345D02*
X53317143Y-144060345D01*
X53317143Y-144822250D02*
X53388571Y-144860345D01*
X53388571Y-144860345D02*
X53531428Y-144860345D01*
X53531428Y-144860345D02*
X53602857Y-144822250D01*
X53602857Y-144822250D02*
X53638571Y-144784154D01*
X53638571Y-144784154D02*
X53674285Y-144707964D01*
X53674285Y-144707964D02*
X53674285Y-144479392D01*
X53674285Y-144479392D02*
X53638571Y-144403202D01*
X53638571Y-144403202D02*
X53602857Y-144365107D01*
X53602857Y-144365107D02*
X53531428Y-144327011D01*
X53531428Y-144327011D02*
X53388571Y-144327011D01*
X53388571Y-144327011D02*
X53317143Y-144365107D01*
X66500000Y-139582615D02*
X66000000Y-139582615D01*
X66000000Y-139582615D02*
X66321428Y-140382615D01*
X66107143Y-142158525D02*
X66250000Y-142158525D01*
X66250000Y-142158525D02*
X66321428Y-142196620D01*
X66321428Y-142196620D02*
X66357143Y-142234715D01*
X66357143Y-142234715D02*
X66428571Y-142349001D01*
X66428571Y-142349001D02*
X66464285Y-142501382D01*
X66464285Y-142501382D02*
X66464285Y-142806144D01*
X66464285Y-142806144D02*
X66428571Y-142882334D01*
X66428571Y-142882334D02*
X66392857Y-142920430D01*
X66392857Y-142920430D02*
X66321428Y-142958525D01*
X66321428Y-142958525D02*
X66178571Y-142958525D01*
X66178571Y-142958525D02*
X66107143Y-142920430D01*
X66107143Y-142920430D02*
X66071428Y-142882334D01*
X66071428Y-142882334D02*
X66035714Y-142806144D01*
X66035714Y-142806144D02*
X66035714Y-142615668D01*
X66035714Y-142615668D02*
X66071428Y-142539477D01*
X66071428Y-142539477D02*
X66107143Y-142501382D01*
X66107143Y-142501382D02*
X66178571Y-142463287D01*
X66178571Y-142463287D02*
X66321428Y-142463287D01*
X66321428Y-142463287D02*
X66392857Y-142501382D01*
X66392857Y-142501382D02*
X66428571Y-142539477D01*
X66428571Y-142539477D02*
X66464285Y-142615668D01*
X66071428Y-144734435D02*
X66428571Y-144734435D01*
X66428571Y-144734435D02*
X66464285Y-145115387D01*
X66464285Y-145115387D02*
X66428571Y-145077292D01*
X66428571Y-145077292D02*
X66357143Y-145039197D01*
X66357143Y-145039197D02*
X66178571Y-145039197D01*
X66178571Y-145039197D02*
X66107143Y-145077292D01*
X66107143Y-145077292D02*
X66071428Y-145115387D01*
X66071428Y-145115387D02*
X66035714Y-145191578D01*
X66035714Y-145191578D02*
X66035714Y-145382054D01*
X66035714Y-145382054D02*
X66071428Y-145458244D01*
X66071428Y-145458244D02*
X66107143Y-145496340D01*
X66107143Y-145496340D02*
X66178571Y-145534435D01*
X66178571Y-145534435D02*
X66357143Y-145534435D01*
X66357143Y-145534435D02*
X66428571Y-145496340D01*
X66428571Y-145496340D02*
X66464285Y-145458244D01*
X66107143Y-147577011D02*
X66107143Y-148110345D01*
X66285714Y-147272250D02*
X66464285Y-147843678D01*
X66464285Y-147843678D02*
X66000000Y-147843678D01*
X66500000Y-149886255D02*
X66035714Y-149886255D01*
X66035714Y-149886255D02*
X66285714Y-150191017D01*
X66285714Y-150191017D02*
X66178571Y-150191017D01*
X66178571Y-150191017D02*
X66107143Y-150229112D01*
X66107143Y-150229112D02*
X66071428Y-150267207D01*
X66071428Y-150267207D02*
X66035714Y-150343398D01*
X66035714Y-150343398D02*
X66035714Y-150533874D01*
X66035714Y-150533874D02*
X66071428Y-150610064D01*
X66071428Y-150610064D02*
X66107143Y-150648160D01*
X66107143Y-150648160D02*
X66178571Y-150686255D01*
X66178571Y-150686255D02*
X66392857Y-150686255D01*
X66392857Y-150686255D02*
X66464285Y-150648160D01*
X66464285Y-150648160D02*
X66500000Y-150610064D01*
X66464285Y-152538355D02*
X66428571Y-152500260D01*
X66428571Y-152500260D02*
X66357143Y-152462165D01*
X66357143Y-152462165D02*
X66178571Y-152462165D01*
X66178571Y-152462165D02*
X66107143Y-152500260D01*
X66107143Y-152500260D02*
X66071428Y-152538355D01*
X66071428Y-152538355D02*
X66035714Y-152614546D01*
X66035714Y-152614546D02*
X66035714Y-152690736D01*
X66035714Y-152690736D02*
X66071428Y-152805022D01*
X66071428Y-152805022D02*
X66500000Y-153262165D01*
X66500000Y-153262165D02*
X66035714Y-153262165D01*
X66035714Y-155838075D02*
X66464285Y-155838075D01*
X66250000Y-155838075D02*
X66250000Y-155038075D01*
X66250000Y-155038075D02*
X66321428Y-155152360D01*
X66321428Y-155152360D02*
X66392857Y-155228551D01*
X66392857Y-155228551D02*
X66464285Y-155266646D01*
D12*
X63766026Y-102885912D02*
X63766026Y-101885912D01*
X63766026Y-102028769D02*
X63694597Y-101957341D01*
X63694597Y-101957341D02*
X63551740Y-101885912D01*
X63551740Y-101885912D02*
X63337454Y-101885912D01*
X63337454Y-101885912D02*
X63194597Y-101957341D01*
X63194597Y-101957341D02*
X63123169Y-102100198D01*
X63123169Y-102100198D02*
X63123169Y-102885912D01*
X63123169Y-102100198D02*
X63051740Y-101957341D01*
X63051740Y-101957341D02*
X62908883Y-101885912D01*
X62908883Y-101885912D02*
X62694597Y-101885912D01*
X62694597Y-101885912D02*
X62551740Y-101957341D01*
X62551740Y-101957341D02*
X62480311Y-102100198D01*
X62480311Y-102100198D02*
X62480311Y-102885912D01*
X61123169Y-102885912D02*
X61123169Y-102100198D01*
X61123169Y-102100198D02*
X61194597Y-101957341D01*
X61194597Y-101957341D02*
X61337454Y-101885912D01*
X61337454Y-101885912D02*
X61623169Y-101885912D01*
X61623169Y-101885912D02*
X61766026Y-101957341D01*
X61123169Y-102814484D02*
X61266026Y-102885912D01*
X61266026Y-102885912D02*
X61623169Y-102885912D01*
X61623169Y-102885912D02*
X61766026Y-102814484D01*
X61766026Y-102814484D02*
X61837454Y-102671626D01*
X61837454Y-102671626D02*
X61837454Y-102528769D01*
X61837454Y-102528769D02*
X61766026Y-102385912D01*
X61766026Y-102385912D02*
X61623169Y-102314484D01*
X61623169Y-102314484D02*
X61266026Y-102314484D01*
X61266026Y-102314484D02*
X61123169Y-102243055D01*
X59766026Y-102885912D02*
X59766026Y-101385912D01*
X59766026Y-102814484D02*
X59908883Y-102885912D01*
X59908883Y-102885912D02*
X60194597Y-102885912D01*
X60194597Y-102885912D02*
X60337454Y-102814484D01*
X60337454Y-102814484D02*
X60408883Y-102743055D01*
X60408883Y-102743055D02*
X60480311Y-102600198D01*
X60480311Y-102600198D02*
X60480311Y-102171626D01*
X60480311Y-102171626D02*
X60408883Y-102028769D01*
X60408883Y-102028769D02*
X60337454Y-101957341D01*
X60337454Y-101957341D02*
X60194597Y-101885912D01*
X60194597Y-101885912D02*
X59908883Y-101885912D01*
X59908883Y-101885912D02*
X59766026Y-101957341D01*
X58480311Y-102814484D02*
X58623168Y-102885912D01*
X58623168Y-102885912D02*
X58908883Y-102885912D01*
X58908883Y-102885912D02*
X59051740Y-102814484D01*
X59051740Y-102814484D02*
X59123168Y-102671626D01*
X59123168Y-102671626D02*
X59123168Y-102100198D01*
X59123168Y-102100198D02*
X59051740Y-101957341D01*
X59051740Y-101957341D02*
X58908883Y-101885912D01*
X58908883Y-101885912D02*
X58623168Y-101885912D01*
X58623168Y-101885912D02*
X58480311Y-101957341D01*
X58480311Y-101957341D02*
X58408883Y-102100198D01*
X58408883Y-102100198D02*
X58408883Y-102243055D01*
X58408883Y-102243055D02*
X59123168Y-102385912D01*
X56623169Y-102885912D02*
X56623169Y-101885912D01*
X56623169Y-101385912D02*
X56694597Y-101457341D01*
X56694597Y-101457341D02*
X56623169Y-101528769D01*
X56623169Y-101528769D02*
X56551740Y-101457341D01*
X56551740Y-101457341D02*
X56623169Y-101385912D01*
X56623169Y-101385912D02*
X56623169Y-101528769D01*
X55908883Y-101885912D02*
X55908883Y-102885912D01*
X55908883Y-102028769D02*
X55837454Y-101957341D01*
X55837454Y-101957341D02*
X55694597Y-101885912D01*
X55694597Y-101885912D02*
X55480311Y-101885912D01*
X55480311Y-101885912D02*
X55337454Y-101957341D01*
X55337454Y-101957341D02*
X55266026Y-102100198D01*
X55266026Y-102100198D02*
X55266026Y-102885912D01*
X53551740Y-101885912D02*
X53194597Y-102885912D01*
X53194597Y-102885912D02*
X52837454Y-101885912D01*
X51623169Y-102885912D02*
X51623169Y-102100198D01*
X51623169Y-102100198D02*
X51694597Y-101957341D01*
X51694597Y-101957341D02*
X51837454Y-101885912D01*
X51837454Y-101885912D02*
X52123169Y-101885912D01*
X52123169Y-101885912D02*
X52266026Y-101957341D01*
X51623169Y-102814484D02*
X51766026Y-102885912D01*
X51766026Y-102885912D02*
X52123169Y-102885912D01*
X52123169Y-102885912D02*
X52266026Y-102814484D01*
X52266026Y-102814484D02*
X52337454Y-102671626D01*
X52337454Y-102671626D02*
X52337454Y-102528769D01*
X52337454Y-102528769D02*
X52266026Y-102385912D01*
X52266026Y-102385912D02*
X52123169Y-102314484D01*
X52123169Y-102314484D02*
X51766026Y-102314484D01*
X51766026Y-102314484D02*
X51623169Y-102243055D01*
X50908883Y-101885912D02*
X50908883Y-102885912D01*
X50908883Y-102028769D02*
X50837454Y-101957341D01*
X50837454Y-101957341D02*
X50694597Y-101885912D01*
X50694597Y-101885912D02*
X50480311Y-101885912D01*
X50480311Y-101885912D02*
X50337454Y-101957341D01*
X50337454Y-101957341D02*
X50266026Y-102100198D01*
X50266026Y-102100198D02*
X50266026Y-102885912D01*
X48908883Y-102814484D02*
X49051740Y-102885912D01*
X49051740Y-102885912D02*
X49337454Y-102885912D01*
X49337454Y-102885912D02*
X49480311Y-102814484D01*
X49480311Y-102814484D02*
X49551740Y-102743055D01*
X49551740Y-102743055D02*
X49623168Y-102600198D01*
X49623168Y-102600198D02*
X49623168Y-102171626D01*
X49623168Y-102171626D02*
X49551740Y-102028769D01*
X49551740Y-102028769D02*
X49480311Y-101957341D01*
X49480311Y-101957341D02*
X49337454Y-101885912D01*
X49337454Y-101885912D02*
X49051740Y-101885912D01*
X49051740Y-101885912D02*
X48908883Y-101957341D01*
X48051740Y-102885912D02*
X48194597Y-102814484D01*
X48194597Y-102814484D02*
X48266026Y-102743055D01*
X48266026Y-102743055D02*
X48337454Y-102600198D01*
X48337454Y-102600198D02*
X48337454Y-102171626D01*
X48337454Y-102171626D02*
X48266026Y-102028769D01*
X48266026Y-102028769D02*
X48194597Y-101957341D01*
X48194597Y-101957341D02*
X48051740Y-101885912D01*
X48051740Y-101885912D02*
X47837454Y-101885912D01*
X47837454Y-101885912D02*
X47694597Y-101957341D01*
X47694597Y-101957341D02*
X47623169Y-102028769D01*
X47623169Y-102028769D02*
X47551740Y-102171626D01*
X47551740Y-102171626D02*
X47551740Y-102600198D01*
X47551740Y-102600198D02*
X47623169Y-102743055D01*
X47623169Y-102743055D02*
X47694597Y-102814484D01*
X47694597Y-102814484D02*
X47837454Y-102885912D01*
X47837454Y-102885912D02*
X48051740Y-102885912D01*
X46266026Y-101885912D02*
X46266026Y-102885912D01*
X46908883Y-101885912D02*
X46908883Y-102671626D01*
X46908883Y-102671626D02*
X46837454Y-102814484D01*
X46837454Y-102814484D02*
X46694597Y-102885912D01*
X46694597Y-102885912D02*
X46480311Y-102885912D01*
X46480311Y-102885912D02*
X46337454Y-102814484D01*
X46337454Y-102814484D02*
X46266026Y-102743055D01*
X45694597Y-101885912D02*
X45337454Y-102885912D01*
X45337454Y-102885912D02*
X44980311Y-101885912D01*
X43837454Y-102814484D02*
X43980311Y-102885912D01*
X43980311Y-102885912D02*
X44266026Y-102885912D01*
X44266026Y-102885912D02*
X44408883Y-102814484D01*
X44408883Y-102814484D02*
X44480311Y-102671626D01*
X44480311Y-102671626D02*
X44480311Y-102100198D01*
X44480311Y-102100198D02*
X44408883Y-101957341D01*
X44408883Y-101957341D02*
X44266026Y-101885912D01*
X44266026Y-101885912D02*
X43980311Y-101885912D01*
X43980311Y-101885912D02*
X43837454Y-101957341D01*
X43837454Y-101957341D02*
X43766026Y-102100198D01*
X43766026Y-102100198D02*
X43766026Y-102243055D01*
X43766026Y-102243055D02*
X44480311Y-102385912D01*
X43123169Y-102885912D02*
X43123169Y-101885912D01*
X43123169Y-102171626D02*
X43051740Y-102028769D01*
X43051740Y-102028769D02*
X42980312Y-101957341D01*
X42980312Y-101957341D02*
X42837454Y-101885912D01*
X42837454Y-101885912D02*
X42694597Y-101885912D01*
X56373169Y-105229400D02*
X56516026Y-105300828D01*
X56516026Y-105300828D02*
X56801740Y-105300828D01*
X56801740Y-105300828D02*
X56944597Y-105229400D01*
X56944597Y-105229400D02*
X57016026Y-105157971D01*
X57016026Y-105157971D02*
X57087454Y-105015114D01*
X57087454Y-105015114D02*
X57087454Y-104586542D01*
X57087454Y-104586542D02*
X57016026Y-104443685D01*
X57016026Y-104443685D02*
X56944597Y-104372257D01*
X56944597Y-104372257D02*
X56801740Y-104300828D01*
X56801740Y-104300828D02*
X56516026Y-104300828D01*
X56516026Y-104300828D02*
X56373169Y-104372257D01*
X55087455Y-105300828D02*
X55087455Y-104515114D01*
X55087455Y-104515114D02*
X55158883Y-104372257D01*
X55158883Y-104372257D02*
X55301740Y-104300828D01*
X55301740Y-104300828D02*
X55587455Y-104300828D01*
X55587455Y-104300828D02*
X55730312Y-104372257D01*
X55087455Y-105229400D02*
X55230312Y-105300828D01*
X55230312Y-105300828D02*
X55587455Y-105300828D01*
X55587455Y-105300828D02*
X55730312Y-105229400D01*
X55730312Y-105229400D02*
X55801740Y-105086542D01*
X55801740Y-105086542D02*
X55801740Y-104943685D01*
X55801740Y-104943685D02*
X55730312Y-104800828D01*
X55730312Y-104800828D02*
X55587455Y-104729400D01*
X55587455Y-104729400D02*
X55230312Y-104729400D01*
X55230312Y-104729400D02*
X55087455Y-104657971D01*
X54373169Y-104300828D02*
X54373169Y-105300828D01*
X54373169Y-104443685D02*
X54301740Y-104372257D01*
X54301740Y-104372257D02*
X54158883Y-104300828D01*
X54158883Y-104300828D02*
X53944597Y-104300828D01*
X53944597Y-104300828D02*
X53801740Y-104372257D01*
X53801740Y-104372257D02*
X53730312Y-104515114D01*
X53730312Y-104515114D02*
X53730312Y-105300828D01*
X52373169Y-105300828D02*
X52373169Y-104515114D01*
X52373169Y-104515114D02*
X52444597Y-104372257D01*
X52444597Y-104372257D02*
X52587454Y-104300828D01*
X52587454Y-104300828D02*
X52873169Y-104300828D01*
X52873169Y-104300828D02*
X53016026Y-104372257D01*
X52373169Y-105229400D02*
X52516026Y-105300828D01*
X52516026Y-105300828D02*
X52873169Y-105300828D01*
X52873169Y-105300828D02*
X53016026Y-105229400D01*
X53016026Y-105229400D02*
X53087454Y-105086542D01*
X53087454Y-105086542D02*
X53087454Y-104943685D01*
X53087454Y-104943685D02*
X53016026Y-104800828D01*
X53016026Y-104800828D02*
X52873169Y-104729400D01*
X52873169Y-104729400D02*
X52516026Y-104729400D01*
X52516026Y-104729400D02*
X52373169Y-104657971D01*
X51016026Y-105300828D02*
X51016026Y-103800828D01*
X51016026Y-105229400D02*
X51158883Y-105300828D01*
X51158883Y-105300828D02*
X51444597Y-105300828D01*
X51444597Y-105300828D02*
X51587454Y-105229400D01*
X51587454Y-105229400D02*
X51658883Y-105157971D01*
X51658883Y-105157971D02*
X51730311Y-105015114D01*
X51730311Y-105015114D02*
X51730311Y-104586542D01*
X51730311Y-104586542D02*
X51658883Y-104443685D01*
X51658883Y-104443685D02*
X51587454Y-104372257D01*
X51587454Y-104372257D02*
X51444597Y-104300828D01*
X51444597Y-104300828D02*
X51158883Y-104300828D01*
X51158883Y-104300828D02*
X51016026Y-104372257D01*
X49658883Y-105300828D02*
X49658883Y-104515114D01*
X49658883Y-104515114D02*
X49730311Y-104372257D01*
X49730311Y-104372257D02*
X49873168Y-104300828D01*
X49873168Y-104300828D02*
X50158883Y-104300828D01*
X50158883Y-104300828D02*
X50301740Y-104372257D01*
X49658883Y-105229400D02*
X49801740Y-105300828D01*
X49801740Y-105300828D02*
X50158883Y-105300828D01*
X50158883Y-105300828D02*
X50301740Y-105229400D01*
X50301740Y-105229400D02*
X50373168Y-105086542D01*
X50373168Y-105086542D02*
X50373168Y-104943685D01*
X50373168Y-104943685D02*
X50301740Y-104800828D01*
X50301740Y-104800828D02*
X50158883Y-104729400D01*
X50158883Y-104729400D02*
X49801740Y-104729400D01*
X49801740Y-104729400D02*
X49658883Y-104657971D01*
D13*
X63394596Y-99454761D02*
X63394596Y-97254761D01*
X62451739Y-99454761D02*
X62451739Y-98302380D01*
X62451739Y-98302380D02*
X62556501Y-98092857D01*
X62556501Y-98092857D02*
X62766025Y-97988095D01*
X62766025Y-97988095D02*
X63080310Y-97988095D01*
X63080310Y-97988095D02*
X63289834Y-98092857D01*
X63289834Y-98092857D02*
X63394596Y-98197619D01*
X61089834Y-99454761D02*
X61299358Y-99350000D01*
X61299358Y-99350000D02*
X61404120Y-99245238D01*
X61404120Y-99245238D02*
X61508882Y-99035714D01*
X61508882Y-99035714D02*
X61508882Y-98407142D01*
X61508882Y-98407142D02*
X61404120Y-98197619D01*
X61404120Y-98197619D02*
X61299358Y-98092857D01*
X61299358Y-98092857D02*
X61089834Y-97988095D01*
X61089834Y-97988095D02*
X60775549Y-97988095D01*
X60775549Y-97988095D02*
X60566025Y-98092857D01*
X60566025Y-98092857D02*
X60461263Y-98197619D01*
X60461263Y-98197619D02*
X60356501Y-98407142D01*
X60356501Y-98407142D02*
X60356501Y-99035714D01*
X60356501Y-99035714D02*
X60461263Y-99245238D01*
X60461263Y-99245238D02*
X60566025Y-99350000D01*
X60566025Y-99350000D02*
X60775549Y-99454761D01*
X60775549Y-99454761D02*
X61089834Y-99454761D01*
X59413644Y-99454761D02*
X59413644Y-97988095D01*
X59413644Y-98197619D02*
X59308882Y-98092857D01*
X59308882Y-98092857D02*
X59099358Y-97988095D01*
X59099358Y-97988095D02*
X58785073Y-97988095D01*
X58785073Y-97988095D02*
X58575549Y-98092857D01*
X58575549Y-98092857D02*
X58470787Y-98302380D01*
X58470787Y-98302380D02*
X58470787Y-99454761D01*
X58470787Y-98302380D02*
X58366025Y-98092857D01*
X58366025Y-98092857D02*
X58156501Y-97988095D01*
X58156501Y-97988095D02*
X57842215Y-97988095D01*
X57842215Y-97988095D02*
X57632692Y-98092857D01*
X57632692Y-98092857D02*
X57527930Y-98302380D01*
X57527930Y-98302380D02*
X57527930Y-99454761D01*
X55642216Y-99350000D02*
X55851740Y-99454761D01*
X55851740Y-99454761D02*
X56270787Y-99454761D01*
X56270787Y-99454761D02*
X56480311Y-99350000D01*
X56480311Y-99350000D02*
X56585073Y-99140476D01*
X56585073Y-99140476D02*
X56585073Y-98302380D01*
X56585073Y-98302380D02*
X56480311Y-98092857D01*
X56480311Y-98092857D02*
X56270787Y-97988095D01*
X56270787Y-97988095D02*
X55851740Y-97988095D01*
X55851740Y-97988095D02*
X55642216Y-98092857D01*
X55642216Y-98092857D02*
X55537454Y-98302380D01*
X55537454Y-98302380D02*
X55537454Y-98511904D01*
X55537454Y-98511904D02*
X56585073Y-98721428D01*
X54908883Y-97988095D02*
X54070787Y-97988095D01*
X54594597Y-97254761D02*
X54594597Y-99140476D01*
X54594597Y-99140476D02*
X54489835Y-99350000D01*
X54489835Y-99350000D02*
X54280311Y-99454761D01*
X54280311Y-99454761D02*
X54070787Y-99454761D01*
X53337454Y-99454761D02*
X53337454Y-97254761D01*
X52394597Y-99454761D02*
X52394597Y-98302380D01*
X52394597Y-98302380D02*
X52499359Y-98092857D01*
X52499359Y-98092857D02*
X52708883Y-97988095D01*
X52708883Y-97988095D02*
X53023168Y-97988095D01*
X53023168Y-97988095D02*
X53232692Y-98092857D01*
X53232692Y-98092857D02*
X53337454Y-98197619D01*
X51346978Y-99454761D02*
X51346978Y-97988095D01*
X51346978Y-97254761D02*
X51451740Y-97359523D01*
X51451740Y-97359523D02*
X51346978Y-97464285D01*
X51346978Y-97464285D02*
X51242216Y-97359523D01*
X51242216Y-97359523D02*
X51346978Y-97254761D01*
X51346978Y-97254761D02*
X51346978Y-97464285D01*
X50299359Y-97988095D02*
X50299359Y-99454761D01*
X50299359Y-98197619D02*
X50194597Y-98092857D01*
X50194597Y-98092857D02*
X49985073Y-97988095D01*
X49985073Y-97988095D02*
X49670788Y-97988095D01*
X49670788Y-97988095D02*
X49461264Y-98092857D01*
X49461264Y-98092857D02*
X49356502Y-98302380D01*
X49356502Y-98302380D02*
X49356502Y-99454761D01*
X47366026Y-97988095D02*
X47366026Y-99769047D01*
X47366026Y-99769047D02*
X47470788Y-99978571D01*
X47470788Y-99978571D02*
X47575550Y-100083333D01*
X47575550Y-100083333D02*
X47785073Y-100188095D01*
X47785073Y-100188095D02*
X48099359Y-100188095D01*
X48099359Y-100188095D02*
X48308883Y-100083333D01*
X47366026Y-99350000D02*
X47575550Y-99454761D01*
X47575550Y-99454761D02*
X47994597Y-99454761D01*
X47994597Y-99454761D02*
X48204121Y-99350000D01*
X48204121Y-99350000D02*
X48308883Y-99245238D01*
X48308883Y-99245238D02*
X48413645Y-99035714D01*
X48413645Y-99035714D02*
X48413645Y-98407142D01*
X48413645Y-98407142D02*
X48308883Y-98197619D01*
X48308883Y-98197619D02*
X48204121Y-98092857D01*
X48204121Y-98092857D02*
X47994597Y-97988095D01*
X47994597Y-97988095D02*
X47575550Y-97988095D01*
X47575550Y-97988095D02*
X47366026Y-98092857D01*
X46318407Y-99245238D02*
X46213645Y-99350000D01*
X46213645Y-99350000D02*
X46318407Y-99454761D01*
X46318407Y-99454761D02*
X46423169Y-99350000D01*
X46423169Y-99350000D02*
X46318407Y-99245238D01*
X46318407Y-99245238D02*
X46318407Y-99454761D01*
X45270788Y-99454761D02*
X45270788Y-97988095D01*
X45270788Y-97254761D02*
X45375550Y-97359523D01*
X45375550Y-97359523D02*
X45270788Y-97464285D01*
X45270788Y-97464285D02*
X45166026Y-97359523D01*
X45166026Y-97359523D02*
X45270788Y-97254761D01*
X45270788Y-97254761D02*
X45270788Y-97464285D01*
X43908883Y-99454761D02*
X44118407Y-99350000D01*
X44118407Y-99350000D02*
X44223169Y-99245238D01*
X44223169Y-99245238D02*
X44327931Y-99035714D01*
X44327931Y-99035714D02*
X44327931Y-98407142D01*
X44327931Y-98407142D02*
X44223169Y-98197619D01*
X44223169Y-98197619D02*
X44118407Y-98092857D01*
X44118407Y-98092857D02*
X43908883Y-97988095D01*
X43908883Y-97988095D02*
X43594598Y-97988095D01*
X43594598Y-97988095D02*
X43385074Y-98092857D01*
X43385074Y-98092857D02*
X43280312Y-98197619D01*
X43280312Y-98197619D02*
X43175550Y-98407142D01*
X43175550Y-98407142D02*
X43175550Y-99035714D01*
X43175550Y-99035714D02*
X43280312Y-99245238D01*
X43280312Y-99245238D02*
X43385074Y-99350000D01*
X43385074Y-99350000D02*
X43594598Y-99454761D01*
X43594598Y-99454761D02*
X43908883Y-99454761D01*
D14*
X40583333Y-146054819D02*
X40583333Y-146769104D01*
X40583333Y-146769104D02*
X40630952Y-146911961D01*
X40630952Y-146911961D02*
X40726190Y-147007200D01*
X40726190Y-147007200D02*
X40869047Y-147054819D01*
X40869047Y-147054819D02*
X40964285Y-147054819D01*
X39583333Y-147054819D02*
X40154761Y-147054819D01*
X39869047Y-147054819D02*
X39869047Y-146054819D01*
X39869047Y-146054819D02*
X39964285Y-146197676D01*
X39964285Y-146197676D02*
X40059523Y-146292914D01*
X40059523Y-146292914D02*
X40154761Y-146340533D01*
X62119819Y-142833333D02*
X61643628Y-142500000D01*
X62119819Y-142261905D02*
X61119819Y-142261905D01*
X61119819Y-142261905D02*
X61119819Y-142642857D01*
X61119819Y-142642857D02*
X61167438Y-142738095D01*
X61167438Y-142738095D02*
X61215057Y-142785714D01*
X61215057Y-142785714D02*
X61310295Y-142833333D01*
X61310295Y-142833333D02*
X61453152Y-142833333D01*
X61453152Y-142833333D02*
X61548390Y-142785714D01*
X61548390Y-142785714D02*
X61596009Y-142738095D01*
X61596009Y-142738095D02*
X61643628Y-142642857D01*
X61643628Y-142642857D02*
X61643628Y-142261905D01*
X61119819Y-143166667D02*
X61119819Y-143833333D01*
X61119819Y-143833333D02*
X62119819Y-143404762D01*
X58341666Y-35142819D02*
X58674999Y-34666628D01*
X58913094Y-35142819D02*
X58913094Y-34142819D01*
X58913094Y-34142819D02*
X58532142Y-34142819D01*
X58532142Y-34142819D02*
X58436904Y-34190438D01*
X58436904Y-34190438D02*
X58389285Y-34238057D01*
X58389285Y-34238057D02*
X58341666Y-34333295D01*
X58341666Y-34333295D02*
X58341666Y-34476152D01*
X58341666Y-34476152D02*
X58389285Y-34571390D01*
X58389285Y-34571390D02*
X58436904Y-34619009D01*
X58436904Y-34619009D02*
X58532142Y-34666628D01*
X58532142Y-34666628D02*
X58913094Y-34666628D01*
X58008332Y-34142819D02*
X57389285Y-34142819D01*
X57389285Y-34142819D02*
X57722618Y-34523771D01*
X57722618Y-34523771D02*
X57579761Y-34523771D01*
X57579761Y-34523771D02*
X57484523Y-34571390D01*
X57484523Y-34571390D02*
X57436904Y-34619009D01*
X57436904Y-34619009D02*
X57389285Y-34714247D01*
X57389285Y-34714247D02*
X57389285Y-34952342D01*
X57389285Y-34952342D02*
X57436904Y-35047580D01*
X57436904Y-35047580D02*
X57484523Y-35095200D01*
X57484523Y-35095200D02*
X57579761Y-35142819D01*
X57579761Y-35142819D02*
X57865475Y-35142819D01*
X57865475Y-35142819D02*
X57960713Y-35095200D01*
X57960713Y-35095200D02*
X58008332Y-35047580D01*
X54659523Y-32734819D02*
X54659523Y-31734819D01*
X54659523Y-31734819D02*
X54326190Y-32449104D01*
X54326190Y-32449104D02*
X53992857Y-31734819D01*
X53992857Y-31734819D02*
X53992857Y-32734819D01*
X53516666Y-32734819D02*
X53516666Y-31734819D01*
X52945238Y-32734819D02*
X53373809Y-32163390D01*
X52945238Y-31734819D02*
X53516666Y-32306247D01*
X51992857Y-32734819D02*
X52564285Y-32734819D01*
X52278571Y-32734819D02*
X52278571Y-31734819D01*
X52278571Y-31734819D02*
X52373809Y-31877676D01*
X52373809Y-31877676D02*
X52469047Y-31972914D01*
X52469047Y-31972914D02*
X52564285Y-32020533D01*
X49416666Y-32024819D02*
X49749999Y-31548628D01*
X49988094Y-32024819D02*
X49988094Y-31024819D01*
X49988094Y-31024819D02*
X49607142Y-31024819D01*
X49607142Y-31024819D02*
X49511904Y-31072438D01*
X49511904Y-31072438D02*
X49464285Y-31120057D01*
X49464285Y-31120057D02*
X49416666Y-31215295D01*
X49416666Y-31215295D02*
X49416666Y-31358152D01*
X49416666Y-31358152D02*
X49464285Y-31453390D01*
X49464285Y-31453390D02*
X49511904Y-31501009D01*
X49511904Y-31501009D02*
X49607142Y-31548628D01*
X49607142Y-31548628D02*
X49988094Y-31548628D01*
X48559523Y-31024819D02*
X48749999Y-31024819D01*
X48749999Y-31024819D02*
X48845237Y-31072438D01*
X48845237Y-31072438D02*
X48892856Y-31120057D01*
X48892856Y-31120057D02*
X48988094Y-31262914D01*
X48988094Y-31262914D02*
X49035713Y-31453390D01*
X49035713Y-31453390D02*
X49035713Y-31834342D01*
X49035713Y-31834342D02*
X48988094Y-31929580D01*
X48988094Y-31929580D02*
X48940475Y-31977200D01*
X48940475Y-31977200D02*
X48845237Y-32024819D01*
X48845237Y-32024819D02*
X48654761Y-32024819D01*
X48654761Y-32024819D02*
X48559523Y-31977200D01*
X48559523Y-31977200D02*
X48511904Y-31929580D01*
X48511904Y-31929580D02*
X48464285Y-31834342D01*
X48464285Y-31834342D02*
X48464285Y-31596247D01*
X48464285Y-31596247D02*
X48511904Y-31501009D01*
X48511904Y-31501009D02*
X48559523Y-31453390D01*
X48559523Y-31453390D02*
X48654761Y-31405771D01*
X48654761Y-31405771D02*
X48845237Y-31405771D01*
X48845237Y-31405771D02*
X48940475Y-31453390D01*
X48940475Y-31453390D02*
X48988094Y-31501009D01*
X48988094Y-31501009D02*
X49035713Y-31596247D01*
X44261904Y-34724819D02*
X44261904Y-35534342D01*
X44261904Y-35534342D02*
X44214285Y-35629580D01*
X44214285Y-35629580D02*
X44166666Y-35677200D01*
X44166666Y-35677200D02*
X44071428Y-35724819D01*
X44071428Y-35724819D02*
X43880952Y-35724819D01*
X43880952Y-35724819D02*
X43785714Y-35677200D01*
X43785714Y-35677200D02*
X43738095Y-35629580D01*
X43738095Y-35629580D02*
X43690476Y-35534342D01*
X43690476Y-35534342D02*
X43690476Y-34724819D01*
X43261904Y-34820057D02*
X43214285Y-34772438D01*
X43214285Y-34772438D02*
X43119047Y-34724819D01*
X43119047Y-34724819D02*
X42880952Y-34724819D01*
X42880952Y-34724819D02*
X42785714Y-34772438D01*
X42785714Y-34772438D02*
X42738095Y-34820057D01*
X42738095Y-34820057D02*
X42690476Y-34915295D01*
X42690476Y-34915295D02*
X42690476Y-35010533D01*
X42690476Y-35010533D02*
X42738095Y-35153390D01*
X42738095Y-35153390D02*
X43309523Y-35724819D01*
X43309523Y-35724819D02*
X42690476Y-35724819D01*
X51581666Y-154704819D02*
X51914999Y-154228628D01*
X52153094Y-154704819D02*
X52153094Y-153704819D01*
X52153094Y-153704819D02*
X51772142Y-153704819D01*
X51772142Y-153704819D02*
X51676904Y-153752438D01*
X51676904Y-153752438D02*
X51629285Y-153800057D01*
X51629285Y-153800057D02*
X51581666Y-153895295D01*
X51581666Y-153895295D02*
X51581666Y-154038152D01*
X51581666Y-154038152D02*
X51629285Y-154133390D01*
X51629285Y-154133390D02*
X51676904Y-154181009D01*
X51676904Y-154181009D02*
X51772142Y-154228628D01*
X51772142Y-154228628D02*
X52153094Y-154228628D01*
X51010237Y-154133390D02*
X51105475Y-154085771D01*
X51105475Y-154085771D02*
X51153094Y-154038152D01*
X51153094Y-154038152D02*
X51200713Y-153942914D01*
X51200713Y-153942914D02*
X51200713Y-153895295D01*
X51200713Y-153895295D02*
X51153094Y-153800057D01*
X51153094Y-153800057D02*
X51105475Y-153752438D01*
X51105475Y-153752438D02*
X51010237Y-153704819D01*
X51010237Y-153704819D02*
X50819761Y-153704819D01*
X50819761Y-153704819D02*
X50724523Y-153752438D01*
X50724523Y-153752438D02*
X50676904Y-153800057D01*
X50676904Y-153800057D02*
X50629285Y-153895295D01*
X50629285Y-153895295D02*
X50629285Y-153942914D01*
X50629285Y-153942914D02*
X50676904Y-154038152D01*
X50676904Y-154038152D02*
X50724523Y-154085771D01*
X50724523Y-154085771D02*
X50819761Y-154133390D01*
X50819761Y-154133390D02*
X51010237Y-154133390D01*
X51010237Y-154133390D02*
X51105475Y-154181009D01*
X51105475Y-154181009D02*
X51153094Y-154228628D01*
X51153094Y-154228628D02*
X51200713Y-154323866D01*
X51200713Y-154323866D02*
X51200713Y-154514342D01*
X51200713Y-154514342D02*
X51153094Y-154609580D01*
X51153094Y-154609580D02*
X51105475Y-154657200D01*
X51105475Y-154657200D02*
X51010237Y-154704819D01*
X51010237Y-154704819D02*
X50819761Y-154704819D01*
X50819761Y-154704819D02*
X50724523Y-154657200D01*
X50724523Y-154657200D02*
X50676904Y-154609580D01*
X50676904Y-154609580D02*
X50629285Y-154514342D01*
X50629285Y-154514342D02*
X50629285Y-154323866D01*
X50629285Y-154323866D02*
X50676904Y-154228628D01*
X50676904Y-154228628D02*
X50724523Y-154181009D01*
X50724523Y-154181009D02*
X50819761Y-154133390D01*
%TO.C,J1*%
D15*
X36190000Y-151460000D02*
X36190000Y-155710000D01*
X36190000Y-155710000D02*
X37210000Y-155710000D01*
X37210000Y-154110000D02*
X38490000Y-154110000D01*
X37210000Y-155710000D02*
X37210000Y-154110000D01*
X37910000Y-147890000D02*
X42590000Y-147890000D01*
X38490000Y-154110000D02*
X38490000Y-157000000D01*
X43290000Y-154110000D02*
X42010000Y-154110000D01*
X43290000Y-155710000D02*
X43290000Y-154110000D01*
X44310000Y-151460000D02*
X44310000Y-155710000D01*
X44310000Y-155710000D02*
X43290000Y-155710000D01*
%TO.C,R7*%
X59477500Y-142762742D02*
X59477500Y-143237258D01*
X60522500Y-142762742D02*
X60522500Y-143237258D01*
%TO.C,TP_SD*%
X63550000Y-154550000D02*
X64950000Y-154550000D01*
X63550000Y-155950000D02*
X63550000Y-154550000D01*
X64950000Y-154550000D02*
X64950000Y-155950000D01*
X64950000Y-155950000D02*
X63550000Y-155950000D01*
%TO.C,TP_ANO_ENC2*%
X47300000Y-141800000D02*
X48700000Y-141800000D01*
X47300000Y-143200000D02*
X47300000Y-141800000D01*
X48700000Y-141800000D02*
X48700000Y-143200000D01*
X48700000Y-143200000D02*
X47300000Y-143200000D01*
%TO.C,R3*%
X57937742Y-32735500D02*
X58412258Y-32735500D01*
X57937742Y-33780500D02*
X58412258Y-33780500D01*
%TO.C,TP_GPIO18_D10_MOSI*%
X47300000Y-147050000D02*
X48700000Y-147050000D01*
X47300000Y-148450000D02*
X47300000Y-147050000D01*
X48700000Y-147050000D02*
X48700000Y-148450000D01*
X48700000Y-148450000D02*
X47300000Y-148450000D01*
%TO.C,MK1*%
X51925000Y-34140000D02*
X51925000Y-37840000D01*
X51925000Y-37840000D02*
X54775000Y-37840000D01*
X54475000Y-34140000D02*
X51925000Y-34140000D01*
X54775000Y-37840000D02*
X54775000Y-34440000D01*
X54775000Y-34140000D02*
X55055000Y-34140000D01*
X54775000Y-33860000D01*
X54775000Y-34140000D01*
G36*
X55055000Y-34140000D02*
G01*
X54775000Y-34140000D01*
X54775000Y-33860000D01*
X55055000Y-34140000D01*
G37*
%TO.C,TP_SCK*%
X63550000Y-149550000D02*
X64950000Y-149550000D01*
X63550000Y-150950000D02*
X63550000Y-149550000D01*
X64950000Y-149550000D02*
X64950000Y-150950000D01*
X64950000Y-150950000D02*
X63550000Y-150950000D01*
%TO.C,R6*%
X49487258Y-32477500D02*
X49012742Y-32477500D01*
X49487258Y-33522500D02*
X49012742Y-33522500D01*
%TO.C,U2*%
X41040000Y-30720000D02*
X40820000Y-30720000D01*
X46620000Y-34380000D02*
X43540000Y-34380000D01*
X46700000Y-30720000D02*
X46240000Y-30720000D01*
X46700000Y-30720000D02*
X46700000Y-31920000D01*
X41040000Y-30720000D02*
G75*
G02*
X46240000Y-30720000I2600000J-1100000D01*
G01*
%TO.C,TP_GND*%
X47250000Y-152100000D02*
X48650000Y-152100000D01*
X47250000Y-153500000D02*
X47250000Y-152100000D01*
X48650000Y-152100000D02*
X48650000Y-153500000D01*
X48650000Y-153500000D02*
X47250000Y-153500000D01*
%TO.C,TP_IR_REC*%
X63550000Y-139300000D02*
X64950000Y-139300000D01*
X63550000Y-140700000D02*
X63550000Y-139300000D01*
X64950000Y-139300000D02*
X64950000Y-140700000D01*
X64950000Y-140700000D02*
X63550000Y-140700000D01*
%TO.C,TP_SDA*%
X63550000Y-144300000D02*
X64950000Y-144300000D01*
X63550000Y-145700000D02*
X63550000Y-144300000D01*
X64950000Y-144300000D02*
X64950000Y-145700000D01*
X64950000Y-145700000D02*
X63550000Y-145700000D01*
%TO.C,TP_SCL*%
X63550000Y-141800000D02*
X64950000Y-141800000D01*
X63550000Y-143200000D02*
X63550000Y-141800000D01*
X64950000Y-141800000D02*
X64950000Y-143200000D01*
X64950000Y-143200000D02*
X63550000Y-143200000D01*
%TO.C,TP_3V3*%
X47250000Y-149500000D02*
X48650000Y-149500000D01*
X47250000Y-150900000D02*
X47250000Y-149500000D01*
X48650000Y-149500000D02*
X48650000Y-150900000D01*
X48650000Y-150900000D02*
X47250000Y-150900000D01*
%TO.C,R8*%
X51652258Y-152227500D02*
X51177742Y-152227500D01*
X51652258Y-153272500D02*
X51177742Y-153272500D01*
%TO.C,TP_WS*%
X63550000Y-146800000D02*
X64950000Y-146800000D01*
X63550000Y-148200000D02*
X63550000Y-146800000D01*
X64950000Y-146800000D02*
X64950000Y-148200000D01*
X64950000Y-148200000D02*
X63550000Y-148200000D01*
%TO.C,TP_ANO_ENC1*%
X47300000Y-144300000D02*
X48700000Y-144300000D01*
X47300000Y-145700000D02*
X47300000Y-144300000D01*
X48700000Y-144300000D02*
X48700000Y-145700000D01*
X48700000Y-145700000D02*
X47300000Y-145700000D01*
%TO.C,TP_LED1*%
X47300000Y-139300000D02*
X48700000Y-139300000D01*
X47300000Y-140700000D02*
X47300000Y-139300000D01*
X48700000Y-139300000D02*
X48700000Y-140700000D01*
X48700000Y-140700000D02*
X47300000Y-140700000D01*
%TO.C,TP_IR_EMIT*%
X63550000Y-152050000D02*
X64950000Y-152050000D01*
X63550000Y-153450000D02*
X63550000Y-152050000D01*
X64950000Y-152050000D02*
X64950000Y-153450000D01*
X64950000Y-153450000D02*
X63550000Y-153450000D01*
%TD*%
M02*
