%TF.GenerationSoftware,KiCad,Pcbnew,10.0.3*%
%TF.CreationDate,2026-08-17T19:42:24-07:00*%
%TF.ProjectId,c6remote,63367265-6d6f-4746-952e-6b696361645f,rev?*%
%TF.SameCoordinates,Original*%
%TF.FileFunction,Legend,Top*%
%TF.FilePolarity,Positive*%
%FSLAX46Y46*%
G04 Gerber Fmt 4.6, Leading zero omitted, Abs format (unit mm)*
G04 Created by KiCad (PCBNEW 10.0.3) date 2026-08-17 19:42:24*
%MOMM*%
%LPD*%
G01*
G04 APERTURE LIST*
%ADD10C,0.000000*%
%ADD11C,0.150000*%
%ADD12C,0.800000*%
%ADD13C,0.200000*%
%ADD14C,0.187500*%
%ADD15C,0.080000*%
%ADD16C,0.120000*%
%ADD17C,0.250000*%
%ADD18C,0.300000*%
%ADD19C,0.100000*%
%ADD20C,0.127000*%
%ADD21C,0.504000*%
G04 APERTURE END LIST*
D10*
G36*
X53825998Y-45736572D02*
G01*
X53836031Y-45736960D01*
X53846035Y-45737602D01*
X53856004Y-45738497D01*
X53865936Y-45739641D01*
X53875825Y-45741033D01*
X53885669Y-45742668D01*
X53895462Y-45744545D01*
X53905201Y-45746661D01*
X53914882Y-45749013D01*
X53924500Y-45751598D01*
X53934052Y-45754413D01*
X53943533Y-45757457D01*
X53952940Y-45760726D01*
X53962268Y-45764217D01*
X53971513Y-45767928D01*
X53980661Y-45771856D01*
X53989696Y-45775999D01*
X53998614Y-45780352D01*
X54007412Y-45784915D01*
X54016085Y-45789684D01*
X54024629Y-45794657D01*
X54033040Y-45799830D01*
X54041314Y-45805202D01*
X54049447Y-45810768D01*
X54057435Y-45816527D01*
X54065273Y-45822477D01*
X54072959Y-45828613D01*
X54080487Y-45834934D01*
X54087853Y-45841437D01*
X54095054Y-45848118D01*
X54102086Y-45854976D01*
X54109107Y-45862171D01*
X54115931Y-45869514D01*
X54122557Y-45877005D01*
X54128984Y-45884639D01*
X54135210Y-45892414D01*
X54141234Y-45900327D01*
X54147055Y-45908376D01*
X54152671Y-45916558D01*
X54158080Y-45924870D01*
X54163282Y-45933310D01*
X54168275Y-45941875D01*
X54173058Y-45950561D01*
X54177629Y-45959367D01*
X54181987Y-45968290D01*
X54186131Y-45977326D01*
X54190059Y-45986474D01*
X54193760Y-45995719D01*
X54197222Y-46005047D01*
X54200445Y-46014454D01*
X54203429Y-46023935D01*
X54206175Y-46033487D01*
X54208681Y-46043106D01*
X54210949Y-46052786D01*
X54212979Y-46062525D01*
X54214769Y-46072319D01*
X54216321Y-46082162D01*
X54217634Y-46092052D01*
X54218709Y-46101983D01*
X54219544Y-46111953D01*
X54220141Y-46121957D01*
X54220499Y-46131990D01*
X54220619Y-46142049D01*
X54220499Y-46151945D01*
X54220141Y-46161836D01*
X54219544Y-46171716D01*
X54218709Y-46181580D01*
X54217634Y-46191422D01*
X54216321Y-46201236D01*
X54214770Y-46211019D01*
X54212979Y-46220763D01*
X54210950Y-46230464D01*
X54208682Y-46240116D01*
X54206175Y-46249713D01*
X54203429Y-46259251D01*
X54200445Y-46268724D01*
X54197222Y-46278127D01*
X54193760Y-46287453D01*
X54190059Y-46296698D01*
X54186131Y-46305846D01*
X54181987Y-46314883D01*
X54177629Y-46323805D01*
X54173058Y-46332611D01*
X54168275Y-46341298D01*
X54163282Y-46349862D01*
X54158080Y-46358302D01*
X54152670Y-46366614D01*
X54147055Y-46374796D01*
X54141234Y-46382846D01*
X54135210Y-46390759D01*
X54128984Y-46398534D01*
X54122557Y-46406168D01*
X54115931Y-46413658D01*
X54109107Y-46421002D01*
X54102086Y-46428196D01*
X54095054Y-46435054D01*
X54087853Y-46441736D01*
X54080487Y-46448239D01*
X54072959Y-46454560D01*
X54065273Y-46460696D01*
X54057435Y-46466645D01*
X54049447Y-46472404D01*
X54041314Y-46477971D01*
X54033040Y-46483342D01*
X54024629Y-46488516D01*
X54016085Y-46493488D01*
X54007412Y-46498257D01*
X53998614Y-46502820D01*
X53989696Y-46507174D01*
X53980661Y-46511317D01*
X53971513Y-46515245D01*
X53962268Y-46518955D01*
X53952940Y-46522447D01*
X53943533Y-46525715D01*
X53934052Y-46528759D01*
X53924500Y-46531575D01*
X53914882Y-46534160D01*
X53905201Y-46536511D01*
X53895462Y-46538627D01*
X53885669Y-46540504D01*
X53875826Y-46542139D01*
X53865936Y-46543531D01*
X53856004Y-46544675D01*
X53846035Y-46545570D01*
X53836031Y-46546213D01*
X53825998Y-46546600D01*
X53815939Y-46546730D01*
X53806042Y-46546600D01*
X53796152Y-46546213D01*
X53786272Y-46545570D01*
X53776408Y-46544675D01*
X53766566Y-46543531D01*
X53756752Y-46542139D01*
X53746969Y-46540504D01*
X53737225Y-46538627D01*
X53727524Y-46536511D01*
X53717872Y-46534160D01*
X53708274Y-46531575D01*
X53698736Y-46528759D01*
X53689263Y-46525715D01*
X53679861Y-46522447D01*
X53670534Y-46518955D01*
X53661289Y-46515245D01*
X53652142Y-46511317D01*
X53643105Y-46507174D01*
X53634182Y-46502820D01*
X53625376Y-46498257D01*
X53616690Y-46493488D01*
X53608125Y-46488516D01*
X53599686Y-46483342D01*
X53591373Y-46477971D01*
X53583191Y-46472404D01*
X53575142Y-46466645D01*
X53567229Y-46460696D01*
X53559454Y-46454560D01*
X53551820Y-46448239D01*
X53544330Y-46441736D01*
X53536986Y-46435054D01*
X53529792Y-46428196D01*
X53522923Y-46421002D01*
X53516212Y-46413658D01*
X53509664Y-46406168D01*
X53503284Y-46398534D01*
X53497077Y-46390759D01*
X53491050Y-46382845D01*
X53485207Y-46374796D01*
X53479554Y-46366614D01*
X53474096Y-46358302D01*
X53468839Y-46349862D01*
X53463788Y-46341298D01*
X53458949Y-46332611D01*
X53454327Y-46323805D01*
X53449928Y-46314883D01*
X53445756Y-46305846D01*
X53441818Y-46296698D01*
X53438117Y-46287453D01*
X53434655Y-46278127D01*
X53431432Y-46268724D01*
X53428448Y-46259251D01*
X53425702Y-46249713D01*
X53423196Y-46240116D01*
X53420927Y-46230464D01*
X53418898Y-46220763D01*
X53417108Y-46211019D01*
X53415556Y-46201236D01*
X53414243Y-46191422D01*
X53413168Y-46181580D01*
X53412333Y-46171716D01*
X53411736Y-46161836D01*
X53411378Y-46151945D01*
X53411258Y-46142049D01*
X53411378Y-46131990D01*
X53411736Y-46121957D01*
X53412333Y-46111953D01*
X53413168Y-46101983D01*
X53414243Y-46092052D01*
X53415556Y-46082162D01*
X53417107Y-46072319D01*
X53418898Y-46062525D01*
X53420927Y-46052786D01*
X53423195Y-46043106D01*
X53425702Y-46033487D01*
X53428448Y-46023935D01*
X53431432Y-46014454D01*
X53434655Y-46005047D01*
X53438117Y-45995719D01*
X53441818Y-45986474D01*
X53445756Y-45977326D01*
X53449928Y-45968290D01*
X53454327Y-45959367D01*
X53458949Y-45950561D01*
X53463789Y-45941875D01*
X53468839Y-45933310D01*
X53474096Y-45924870D01*
X53479554Y-45916558D01*
X53485207Y-45908376D01*
X53491050Y-45900327D01*
X53497077Y-45892413D01*
X53503284Y-45884638D01*
X53509664Y-45877004D01*
X53516212Y-45869514D01*
X53522923Y-45862171D01*
X53529792Y-45854976D01*
X53536986Y-45848118D01*
X53544330Y-45841437D01*
X53551820Y-45834934D01*
X53559454Y-45828613D01*
X53567229Y-45822477D01*
X53575142Y-45816527D01*
X53583191Y-45810768D01*
X53591373Y-45805202D01*
X53599686Y-45799830D01*
X53608125Y-45794657D01*
X53616690Y-45789684D01*
X53625376Y-45784915D01*
X53634182Y-45780352D01*
X53643105Y-45775999D01*
X53652142Y-45771856D01*
X53661289Y-45767928D01*
X53670534Y-45764217D01*
X53679861Y-45760726D01*
X53689263Y-45757457D01*
X53698736Y-45754413D01*
X53708274Y-45751598D01*
X53717872Y-45749013D01*
X53727524Y-45746661D01*
X53737225Y-45744545D01*
X53746969Y-45742668D01*
X53756752Y-45741033D01*
X53766566Y-45739641D01*
X53776408Y-45738497D01*
X53786272Y-45737602D01*
X53796152Y-45736960D01*
X53806042Y-45736572D01*
X53815939Y-45736442D01*
X53825998Y-45736572D01*
G37*
G36*
X53247781Y-39992268D02*
G01*
X53253765Y-39992663D01*
X53259730Y-39993326D01*
X53265666Y-39994258D01*
X53271564Y-39995458D01*
X53277414Y-39996927D01*
X53283206Y-39998663D01*
X53288931Y-40000668D01*
X53294579Y-40002941D01*
X53300140Y-40005483D01*
X53305605Y-40008293D01*
X53310964Y-40011371D01*
X53316207Y-40014718D01*
X53321325Y-40018333D01*
X53326308Y-40022217D01*
X53331146Y-40026368D01*
X56934828Y-43269431D01*
X56934827Y-43269440D01*
X56942911Y-43277301D01*
X56950139Y-43285525D01*
X56956526Y-43294073D01*
X56962089Y-43302904D01*
X56966843Y-43311978D01*
X56970802Y-43321255D01*
X56973983Y-43330695D01*
X56976401Y-43340257D01*
X56978071Y-43349902D01*
X56979009Y-43359588D01*
X56979230Y-43369276D01*
X56978750Y-43378926D01*
X56977583Y-43388498D01*
X56975747Y-43397950D01*
X56973255Y-43407243D01*
X56970123Y-43416337D01*
X56966368Y-43425192D01*
X56962003Y-43433767D01*
X56957045Y-43442021D01*
X56951509Y-43449916D01*
X56945411Y-43457410D01*
X56938766Y-43464464D01*
X56931589Y-43471036D01*
X56923896Y-43477088D01*
X56915702Y-43482578D01*
X56907023Y-43487467D01*
X56897874Y-43491714D01*
X56888271Y-43495279D01*
X56878229Y-43498121D01*
X56867763Y-43500202D01*
X56856889Y-43501479D01*
X56845622Y-43501914D01*
X55834643Y-43501914D01*
X55834584Y-43501665D01*
X55834515Y-43501379D01*
X55834421Y-43501007D01*
X55618144Y-43501007D01*
X55613246Y-43500917D01*
X55608382Y-43500649D01*
X55603556Y-43500206D01*
X55598771Y-43499590D01*
X55594031Y-43498805D01*
X55589339Y-43497851D01*
X55584700Y-43496732D01*
X55580118Y-43495451D01*
X55575595Y-43494010D01*
X55571136Y-43492411D01*
X55566744Y-43490658D01*
X55562423Y-43488752D01*
X55558177Y-43486696D01*
X55554010Y-43484493D01*
X55549925Y-43482145D01*
X55545925Y-43479656D01*
X55542015Y-43477026D01*
X55538198Y-43474260D01*
X55534479Y-43471359D01*
X55530860Y-43468326D01*
X55527345Y-43465164D01*
X55523939Y-43461875D01*
X55520644Y-43458462D01*
X55517465Y-43454927D01*
X55514406Y-43451272D01*
X55511469Y-43447502D01*
X55508659Y-43443617D01*
X55505979Y-43439620D01*
X55503434Y-43435515D01*
X55501026Y-43431303D01*
X55498760Y-43426988D01*
X55496639Y-43422571D01*
X55480963Y-43389872D01*
X55463035Y-43355713D01*
X55442768Y-43320586D01*
X55420073Y-43284984D01*
X55394861Y-43249400D01*
X55367045Y-43214325D01*
X55336536Y-43180253D01*
X55303246Y-43147677D01*
X55267086Y-43117088D01*
X55247902Y-43102692D01*
X55227968Y-43088979D01*
X55207272Y-43076009D01*
X55185804Y-43063843D01*
X55163552Y-43052544D01*
X55140505Y-43042173D01*
X55116652Y-43032792D01*
X55091983Y-43024461D01*
X55066486Y-43017243D01*
X55040150Y-43011200D01*
X55012964Y-43006392D01*
X54984918Y-43002882D01*
X54955999Y-43000730D01*
X54926197Y-43000000D01*
X52750000Y-43000000D01*
X52706696Y-43001061D01*
X52664892Y-43004205D01*
X52624579Y-43009374D01*
X52585750Y-43016510D01*
X52548397Y-43025554D01*
X52512510Y-43036448D01*
X52478082Y-43049133D01*
X52445105Y-43063551D01*
X52413570Y-43079644D01*
X52383470Y-43097353D01*
X52354796Y-43116620D01*
X52327539Y-43137386D01*
X52301692Y-43159593D01*
X52277246Y-43183184D01*
X52254194Y-43208098D01*
X52232527Y-43234279D01*
X52212236Y-43261667D01*
X52193314Y-43290205D01*
X52175752Y-43319833D01*
X52159543Y-43350494D01*
X52144677Y-43382129D01*
X52131147Y-43414679D01*
X52108062Y-43482294D01*
X52090220Y-43552872D01*
X52077558Y-43625944D01*
X52070009Y-43701046D01*
X52067507Y-43777708D01*
X52083315Y-46526366D01*
X52083185Y-46533228D01*
X52082714Y-46540003D01*
X52081909Y-46546681D01*
X52080778Y-46553254D01*
X52079331Y-46559715D01*
X52077574Y-46566053D01*
X52075518Y-46572262D01*
X52073169Y-46578332D01*
X52070537Y-46584255D01*
X52067629Y-46590023D01*
X52064454Y-46595627D01*
X52061021Y-46601058D01*
X52057337Y-46606309D01*
X52053411Y-46611372D01*
X52049251Y-46616236D01*
X52044865Y-46620895D01*
X52040263Y-46625339D01*
X52035451Y-46629561D01*
X52030440Y-46633551D01*
X52025235Y-46637302D01*
X52019848Y-46640804D01*
X52014284Y-46644050D01*
X52008553Y-46647031D01*
X52002664Y-46649739D01*
X51996624Y-46652165D01*
X51990441Y-46654301D01*
X51984125Y-46656138D01*
X51977683Y-46657668D01*
X51971124Y-46658883D01*
X51964456Y-46659774D01*
X51957687Y-46660332D01*
X51950826Y-46660549D01*
X51500779Y-46663448D01*
X51500774Y-46663067D01*
X51500771Y-46662648D01*
X51500770Y-46661771D01*
X50627614Y-46662392D01*
X50620749Y-46662223D01*
X50613973Y-46661713D01*
X50607295Y-46660869D01*
X50600725Y-46659700D01*
X50594269Y-46658214D01*
X50587937Y-46656421D01*
X50581738Y-46654327D01*
X50575678Y-46651941D01*
X50569767Y-46649273D01*
X50564014Y-46646329D01*
X50558425Y-46643120D01*
X50553011Y-46639652D01*
X50547779Y-46635935D01*
X50542738Y-46631976D01*
X50537896Y-46627785D01*
X50533261Y-46623369D01*
X50528842Y-46618738D01*
X50524648Y-46613898D01*
X50520686Y-46608860D01*
X50516965Y-46603630D01*
X50513494Y-46598218D01*
X50510280Y-46592632D01*
X50507333Y-46586880D01*
X50504660Y-46580971D01*
X50502270Y-46574913D01*
X50500172Y-46568715D01*
X50498374Y-46562384D01*
X50496883Y-46555930D01*
X50495710Y-46549360D01*
X50494861Y-46542683D01*
X50494345Y-46535908D01*
X50494172Y-46529042D01*
X50494172Y-43635254D01*
X50493998Y-43628392D01*
X50493483Y-43621620D01*
X50492635Y-43614946D01*
X50491463Y-43608380D01*
X50489974Y-43601928D01*
X50488177Y-43595600D01*
X50486080Y-43589404D01*
X50483693Y-43583348D01*
X50481022Y-43577441D01*
X50478077Y-43571692D01*
X50474866Y-43566107D01*
X50471398Y-43560697D01*
X50467680Y-43555469D01*
X50463721Y-43550431D01*
X50459530Y-43545593D01*
X50455115Y-43540961D01*
X50450484Y-43536546D01*
X50445645Y-43532355D01*
X50440608Y-43528396D01*
X50435379Y-43524678D01*
X50429969Y-43521210D01*
X50424385Y-43517999D01*
X50418635Y-43515054D01*
X50412728Y-43512384D01*
X50406672Y-43509996D01*
X50400476Y-43507900D01*
X50394148Y-43506103D01*
X50387697Y-43504614D01*
X50381130Y-43503441D01*
X50374456Y-43502593D01*
X50367684Y-43502078D01*
X50360822Y-43501905D01*
X49655150Y-43501905D01*
X49643897Y-43501471D01*
X49633036Y-43500196D01*
X49622581Y-43498119D01*
X49612549Y-43495282D01*
X49602954Y-43491724D01*
X49593812Y-43487485D01*
X49585138Y-43482606D01*
X49576949Y-43477126D01*
X49569259Y-43471085D01*
X49562083Y-43464524D01*
X49555438Y-43457482D01*
X49549339Y-43450001D01*
X49543800Y-43442119D01*
X49538839Y-43433877D01*
X49534469Y-43425314D01*
X49530706Y-43416472D01*
X49527567Y-43407391D01*
X49525066Y-43398109D01*
X49523218Y-43388668D01*
X49522040Y-43379107D01*
X49521546Y-43369467D01*
X49521752Y-43359787D01*
X49522674Y-43350108D01*
X49524327Y-43340470D01*
X49526726Y-43330913D01*
X49529886Y-43321477D01*
X49533824Y-43312201D01*
X49538555Y-43303127D01*
X49544094Y-43294294D01*
X49550456Y-43285743D01*
X49557657Y-43277513D01*
X49565713Y-43269644D01*
X53152513Y-40026581D01*
X53157341Y-40022418D01*
X53162315Y-40018523D01*
X53167424Y-40014895D01*
X53172659Y-40011536D01*
X53178010Y-40008445D01*
X53183468Y-40005622D01*
X53189023Y-40003067D01*
X53194666Y-40000781D01*
X53200386Y-39998762D01*
X53206174Y-39997012D01*
X53212020Y-39995529D01*
X53217915Y-39994315D01*
X53223849Y-39993369D01*
X53229812Y-39992692D01*
X53235795Y-39992282D01*
X53241788Y-39992141D01*
X53247781Y-39992268D01*
G37*
G36*
X54837998Y-43307555D02*
G01*
X54847889Y-43307913D01*
X54857769Y-43308510D01*
X54867632Y-43309346D01*
X54877474Y-43310420D01*
X54887289Y-43311733D01*
X54897071Y-43313285D01*
X54906815Y-43315076D01*
X54916516Y-43317105D01*
X54926168Y-43319373D01*
X54935766Y-43321880D01*
X54945304Y-43324625D01*
X54954777Y-43327610D01*
X54964179Y-43330833D01*
X54973506Y-43334295D01*
X54982751Y-43337995D01*
X54991899Y-43341924D01*
X55000935Y-43346067D01*
X55009858Y-43350426D01*
X55018664Y-43354997D01*
X55027351Y-43359780D01*
X55035915Y-43364773D01*
X55044355Y-43369975D01*
X55052667Y-43375384D01*
X55060849Y-43381000D01*
X55068898Y-43386821D01*
X55076812Y-43392845D01*
X55084587Y-43399071D01*
X55092221Y-43405498D01*
X55099711Y-43412124D01*
X55107054Y-43418948D01*
X55114249Y-43425969D01*
X55121270Y-43433163D01*
X55128094Y-43440507D01*
X55134720Y-43447997D01*
X55141147Y-43455631D01*
X55147373Y-43463406D01*
X55153398Y-43471320D01*
X55159218Y-43479369D01*
X55164834Y-43487551D01*
X55170243Y-43495863D01*
X55175445Y-43504303D01*
X55180438Y-43512867D01*
X55185221Y-43521554D01*
X55189792Y-43530360D01*
X55194151Y-43539283D01*
X55198295Y-43548319D01*
X55202223Y-43557467D01*
X55205923Y-43566712D01*
X55209385Y-43576038D01*
X55212608Y-43585441D01*
X55215592Y-43594914D01*
X55218338Y-43604452D01*
X55220845Y-43614050D01*
X55223113Y-43623702D01*
X55225142Y-43633402D01*
X55226933Y-43643147D01*
X55228484Y-43652929D01*
X55229798Y-43662744D01*
X55230872Y-43672586D01*
X55231707Y-43682449D01*
X55232304Y-43692329D01*
X55232662Y-43702220D01*
X55232782Y-43712116D01*
X55232782Y-46950484D01*
X55232662Y-46960543D01*
X55232304Y-46970576D01*
X55231707Y-46980580D01*
X55230872Y-46990550D01*
X55229798Y-47000481D01*
X55228484Y-47010371D01*
X55226933Y-47020214D01*
X55225142Y-47030008D01*
X55223113Y-47039747D01*
X55220845Y-47049427D01*
X55218338Y-47059046D01*
X55215592Y-47068597D01*
X55212608Y-47078079D01*
X55209385Y-47087485D01*
X55205923Y-47096813D01*
X55202223Y-47106059D01*
X55198295Y-47115206D01*
X55194151Y-47124241D01*
X55189792Y-47133160D01*
X55185221Y-47141957D01*
X55180438Y-47150630D01*
X55175445Y-47159174D01*
X55170243Y-47167585D01*
X55164834Y-47175859D01*
X55159218Y-47183992D01*
X55153398Y-47191980D01*
X55147373Y-47199818D01*
X55141147Y-47207503D01*
X55134720Y-47215031D01*
X55128094Y-47222398D01*
X55121270Y-47229599D01*
X55114249Y-47236630D01*
X55107054Y-47243651D01*
X55099711Y-47250476D01*
X55092220Y-47257102D01*
X55084586Y-47263529D01*
X55076811Y-47269755D01*
X55068898Y-47275779D01*
X55060849Y-47281600D01*
X55052667Y-47287215D01*
X55044355Y-47292625D01*
X55035915Y-47297827D01*
X55027350Y-47302820D01*
X55018664Y-47307603D01*
X55009858Y-47312174D01*
X55000935Y-47316532D01*
X54991899Y-47320676D01*
X54982751Y-47324605D01*
X54973506Y-47328305D01*
X54964179Y-47331767D01*
X54954777Y-47334990D01*
X54945304Y-47337974D01*
X54935766Y-47340720D01*
X54926168Y-47343227D01*
X54916516Y-47345495D01*
X54906815Y-47347524D01*
X54897071Y-47349315D01*
X54887289Y-47350866D01*
X54877474Y-47352180D01*
X54867632Y-47353254D01*
X54857769Y-47354090D01*
X54847889Y-47354686D01*
X54837998Y-47355045D01*
X54828102Y-47355164D01*
X52803775Y-47355164D01*
X52793879Y-47355045D01*
X52783988Y-47354686D01*
X52774108Y-47354090D01*
X52764244Y-47353254D01*
X52754402Y-47352180D01*
X52744588Y-47350866D01*
X52734805Y-47349315D01*
X52725061Y-47347524D01*
X52715360Y-47345495D01*
X52705708Y-47343227D01*
X52696110Y-47340720D01*
X52686572Y-47337974D01*
X52677099Y-47334990D01*
X52667697Y-47331767D01*
X52658371Y-47328305D01*
X52649126Y-47324605D01*
X52639978Y-47320676D01*
X52630941Y-47316532D01*
X52622018Y-47312174D01*
X52613212Y-47307603D01*
X52604526Y-47302820D01*
X52595961Y-47297827D01*
X52587521Y-47292625D01*
X52579209Y-47287215D01*
X52571027Y-47281600D01*
X52562978Y-47275779D01*
X52555065Y-47269755D01*
X52547290Y-47263529D01*
X52539656Y-47257102D01*
X52532166Y-47250476D01*
X52524822Y-47243651D01*
X52517627Y-47236630D01*
X52510606Y-47229599D01*
X52503782Y-47222398D01*
X52497156Y-47215031D01*
X52490729Y-47207503D01*
X52484503Y-47199818D01*
X52478479Y-47191980D01*
X52472658Y-47183992D01*
X52467042Y-47175859D01*
X52461633Y-47167585D01*
X52456431Y-47159174D01*
X52451438Y-47150630D01*
X52446655Y-47141957D01*
X52442084Y-47133160D01*
X52437726Y-47124241D01*
X52433582Y-47115206D01*
X52429653Y-47106059D01*
X52425953Y-47096813D01*
X52422491Y-47087485D01*
X52419268Y-47078079D01*
X52416284Y-47068597D01*
X52413538Y-47059046D01*
X52411032Y-47049427D01*
X52408764Y-47039747D01*
X52406734Y-47030008D01*
X52404944Y-47020214D01*
X52403392Y-47010371D01*
X52402079Y-47000481D01*
X52401004Y-46990550D01*
X52400169Y-46980580D01*
X52399572Y-46970576D01*
X52399214Y-46960543D01*
X52399094Y-46950484D01*
X52399094Y-46142049D01*
X53006578Y-46142049D01*
X53006827Y-46161842D01*
X53007573Y-46181623D01*
X53008812Y-46201383D01*
X53010543Y-46221110D01*
X53012761Y-46240794D01*
X53015466Y-46260424D01*
X53018653Y-46279988D01*
X53022321Y-46299476D01*
X53026466Y-46318878D01*
X53031086Y-46338182D01*
X53036178Y-46357378D01*
X53041739Y-46376454D01*
X53047767Y-46395400D01*
X53054258Y-46414204D01*
X53061211Y-46432857D01*
X53068623Y-46451347D01*
X53076327Y-46469653D01*
X53084499Y-46487754D01*
X53093134Y-46505641D01*
X53102221Y-46523304D01*
X53111753Y-46540733D01*
X53121722Y-46557920D01*
X53132119Y-46574854D01*
X53142938Y-46591527D01*
X53154168Y-46607928D01*
X53165803Y-46624049D01*
X53177834Y-46639879D01*
X53190252Y-46655409D01*
X53203051Y-46670630D01*
X53216221Y-46685533D01*
X53229755Y-46700107D01*
X53243645Y-46714343D01*
X53257881Y-46728222D01*
X53272455Y-46741729D01*
X53287357Y-46754857D01*
X53302578Y-46767605D01*
X53318109Y-46779968D01*
X53333939Y-46791941D01*
X53350060Y-46803521D01*
X53366461Y-46814703D01*
X53383133Y-46825484D01*
X53400068Y-46835859D01*
X53417255Y-46845825D01*
X53434684Y-46855377D01*
X53452347Y-46864511D01*
X53470234Y-46873223D01*
X53488335Y-46881509D01*
X53506640Y-46889365D01*
X53525120Y-46896777D01*
X53543745Y-46903730D01*
X53562509Y-46910222D01*
X53581404Y-46916250D01*
X53600424Y-46921811D01*
X53619561Y-46926903D01*
X53638810Y-46931523D01*
X53658164Y-46935668D01*
X53677615Y-46939335D01*
X53697157Y-46942523D01*
X53716783Y-46945227D01*
X53736487Y-46947446D01*
X53756261Y-46949176D01*
X53776099Y-46950416D01*
X53795993Y-46951161D01*
X53815938Y-46951410D01*
X53835894Y-46951161D01*
X53855818Y-46950416D01*
X53875701Y-46949176D01*
X53895535Y-46947446D01*
X53915308Y-46945227D01*
X53935013Y-46942523D01*
X53954638Y-46939335D01*
X53974176Y-46935668D01*
X53993616Y-46931523D01*
X54012948Y-46926903D01*
X54032164Y-46921811D01*
X54051254Y-46916250D01*
X54070208Y-46910222D01*
X54089017Y-46903730D01*
X54107672Y-46896777D01*
X54126162Y-46889365D01*
X54144457Y-46881509D01*
X54162529Y-46873223D01*
X54180370Y-46864511D01*
X54197974Y-46855377D01*
X54215333Y-46845825D01*
X54232442Y-46835859D01*
X54249292Y-46825484D01*
X54265879Y-46814703D01*
X54282194Y-46803521D01*
X54298230Y-46791941D01*
X54313982Y-46779968D01*
X54329443Y-46767605D01*
X54344605Y-46754857D01*
X54359461Y-46741728D01*
X54374006Y-46728222D01*
X54388232Y-46714343D01*
X54402274Y-46700107D01*
X54415923Y-46685533D01*
X54429176Y-46670630D01*
X54442029Y-46655409D01*
X54454482Y-46639879D01*
X54466530Y-46624048D01*
X54478171Y-46607928D01*
X54489402Y-46591527D01*
X54500221Y-46574854D01*
X54510625Y-46557920D01*
X54520611Y-46540733D01*
X54530177Y-46523303D01*
X54539319Y-46505641D01*
X54548036Y-46487754D01*
X54556324Y-46469653D01*
X54564180Y-46451347D01*
X54571592Y-46432857D01*
X54578545Y-46414204D01*
X54585036Y-46395399D01*
X54591064Y-46376453D01*
X54596625Y-46357377D01*
X54601717Y-46338182D01*
X54606337Y-46318878D01*
X54610482Y-46299476D01*
X54614150Y-46279988D01*
X54617337Y-46260423D01*
X54620041Y-46240794D01*
X54622260Y-46221110D01*
X54623991Y-46201383D01*
X54625230Y-46181623D01*
X54625976Y-46161842D01*
X54626225Y-46142049D01*
X54625976Y-46122094D01*
X54625230Y-46102170D01*
X54623991Y-46082286D01*
X54622260Y-46062453D01*
X54620041Y-46042680D01*
X54617337Y-46022975D01*
X54614150Y-46003349D01*
X54610482Y-45983812D01*
X54606337Y-45964372D01*
X54601717Y-45945039D01*
X54596625Y-45925823D01*
X54591064Y-45906733D01*
X54585036Y-45887779D01*
X54578545Y-45868970D01*
X54571592Y-45850316D01*
X54564180Y-45831825D01*
X54556324Y-45813530D01*
X54548036Y-45795456D01*
X54539319Y-45777611D01*
X54530177Y-45759999D01*
X54520611Y-45742626D01*
X54510625Y-45725497D01*
X54500221Y-45708617D01*
X54489402Y-45691993D01*
X54478171Y-45675629D01*
X54466530Y-45659531D01*
X54454482Y-45643704D01*
X54442029Y-45628154D01*
X54429176Y-45612886D01*
X54415923Y-45597906D01*
X54402274Y-45583218D01*
X54388232Y-45568829D01*
X54374006Y-45554950D01*
X54359461Y-45541444D01*
X54344605Y-45528315D01*
X54329443Y-45515567D01*
X54313983Y-45503205D01*
X54298231Y-45491231D01*
X54282194Y-45479652D01*
X54265879Y-45468469D01*
X54249293Y-45457688D01*
X54232442Y-45447313D01*
X54215333Y-45437348D01*
X54197974Y-45427796D01*
X54180370Y-45418662D01*
X54162529Y-45409949D01*
X54144458Y-45401663D01*
X54126162Y-45393807D01*
X54107672Y-45386395D01*
X54089017Y-45379442D01*
X54070208Y-45372951D01*
X54051254Y-45366923D01*
X54032164Y-45361361D01*
X54012948Y-45356270D01*
X53993615Y-45351650D01*
X53974176Y-45347505D01*
X53954638Y-45343837D01*
X53935012Y-45340650D01*
X53915308Y-45337946D01*
X53895535Y-45335727D01*
X53875701Y-45333996D01*
X53855818Y-45332757D01*
X53835894Y-45332011D01*
X53815938Y-45331762D01*
X53795993Y-45332011D01*
X53776099Y-45332757D01*
X53756261Y-45333996D01*
X53736487Y-45335727D01*
X53716783Y-45337946D01*
X53697157Y-45340650D01*
X53677615Y-45343837D01*
X53658164Y-45347505D01*
X53638810Y-45351650D01*
X53619561Y-45356270D01*
X53600424Y-45361361D01*
X53581404Y-45366923D01*
X53562509Y-45372951D01*
X53543745Y-45379442D01*
X53525120Y-45386395D01*
X53506640Y-45393807D01*
X53488335Y-45401663D01*
X53470234Y-45409949D01*
X53452347Y-45418662D01*
X53434684Y-45427796D01*
X53417255Y-45437348D01*
X53400068Y-45447313D01*
X53383133Y-45457689D01*
X53366461Y-45468469D01*
X53350060Y-45479652D01*
X53333939Y-45491232D01*
X53318109Y-45503205D01*
X53302578Y-45515567D01*
X53287357Y-45528315D01*
X53272455Y-45541444D01*
X53257881Y-45554950D01*
X53243645Y-45568829D01*
X53229755Y-45583218D01*
X53216221Y-45597906D01*
X53203051Y-45612886D01*
X53190252Y-45628154D01*
X53177834Y-45643704D01*
X53165803Y-45659531D01*
X53154168Y-45675629D01*
X53142938Y-45691993D01*
X53132119Y-45708618D01*
X53121722Y-45725497D01*
X53111753Y-45742626D01*
X53102221Y-45759999D01*
X53093134Y-45777611D01*
X53084499Y-45795457D01*
X53076327Y-45813530D01*
X53068623Y-45831825D01*
X53061211Y-45850316D01*
X53054258Y-45868970D01*
X53047767Y-45887779D01*
X53041739Y-45906733D01*
X53036177Y-45925823D01*
X53031086Y-45945039D01*
X53026466Y-45964372D01*
X53022321Y-45983812D01*
X53018653Y-46003349D01*
X53015466Y-46022975D01*
X53012761Y-46042679D01*
X53010543Y-46062453D01*
X53008812Y-46082286D01*
X53007573Y-46102170D01*
X53006827Y-46122094D01*
X53006578Y-46142049D01*
X52399094Y-46142049D01*
X52399094Y-44793732D01*
X52399094Y-43845466D01*
X52803775Y-43845466D01*
X52803775Y-44793732D01*
X52803948Y-44800595D01*
X52804463Y-44807367D01*
X52805311Y-44814040D01*
X52806484Y-44820607D01*
X52807973Y-44827059D01*
X52809770Y-44833387D01*
X52811866Y-44839583D01*
X52814254Y-44845638D01*
X52816924Y-44851545D01*
X52819869Y-44857295D01*
X52823080Y-44862879D01*
X52826549Y-44868290D01*
X52830266Y-44873518D01*
X52834225Y-44878556D01*
X52838416Y-44883394D01*
X52842832Y-44888025D01*
X52847463Y-44892441D01*
X52852301Y-44896632D01*
X52857339Y-44900591D01*
X52862567Y-44904308D01*
X52867977Y-44907777D01*
X52873562Y-44910988D01*
X52879311Y-44913933D01*
X52885218Y-44916603D01*
X52891274Y-44918991D01*
X52897470Y-44921087D01*
X52903798Y-44922884D01*
X52910250Y-44924373D01*
X52916817Y-44925546D01*
X52923490Y-44926394D01*
X52930262Y-44926909D01*
X52937125Y-44927082D01*
X54694751Y-44927082D01*
X54701614Y-44926909D01*
X54708386Y-44926394D01*
X54715059Y-44925546D01*
X54721626Y-44924373D01*
X54728078Y-44922884D01*
X54734406Y-44921087D01*
X54740602Y-44918991D01*
X54746658Y-44916603D01*
X54752565Y-44913933D01*
X54758314Y-44910988D01*
X54763899Y-44907777D01*
X54769309Y-44904308D01*
X54774537Y-44900591D01*
X54779575Y-44896632D01*
X54784413Y-44892441D01*
X54789045Y-44888025D01*
X54793460Y-44883394D01*
X54797651Y-44878556D01*
X54801610Y-44873518D01*
X54805328Y-44868290D01*
X54808796Y-44862879D01*
X54812007Y-44857295D01*
X54814952Y-44851545D01*
X54817622Y-44845638D01*
X54820010Y-44839583D01*
X54822107Y-44833387D01*
X54823904Y-44827059D01*
X54825393Y-44820607D01*
X54826565Y-44814040D01*
X54827413Y-44807367D01*
X54827928Y-44800595D01*
X54828102Y-44793732D01*
X54828102Y-43845466D01*
X54827928Y-43838603D01*
X54827413Y-43831831D01*
X54826565Y-43825158D01*
X54825393Y-43818591D01*
X54823904Y-43812139D01*
X54822107Y-43805811D01*
X54820010Y-43799615D01*
X54817622Y-43793559D01*
X54814952Y-43787653D01*
X54812007Y-43781903D01*
X54808796Y-43776318D01*
X54805328Y-43770908D01*
X54801610Y-43765680D01*
X54797651Y-43760642D01*
X54793460Y-43755804D01*
X54789045Y-43751173D01*
X54784413Y-43746757D01*
X54779575Y-43742566D01*
X54774537Y-43738607D01*
X54769309Y-43734890D01*
X54763899Y-43731421D01*
X54758314Y-43728210D01*
X54752565Y-43725265D01*
X54746658Y-43722595D01*
X54740602Y-43720207D01*
X54734406Y-43718111D01*
X54728078Y-43716314D01*
X54721626Y-43714825D01*
X54715059Y-43713652D01*
X54708386Y-43712804D01*
X54701614Y-43712289D01*
X54694751Y-43712116D01*
X52937125Y-43712116D01*
X52930262Y-43712289D01*
X52923490Y-43712804D01*
X52916817Y-43713652D01*
X52910250Y-43714825D01*
X52903798Y-43716314D01*
X52897470Y-43718111D01*
X52891274Y-43720207D01*
X52885218Y-43722595D01*
X52879311Y-43725265D01*
X52873562Y-43728210D01*
X52867977Y-43731421D01*
X52862567Y-43734890D01*
X52857339Y-43738607D01*
X52852301Y-43742566D01*
X52847463Y-43746757D01*
X52842832Y-43751173D01*
X52838416Y-43755804D01*
X52834225Y-43760642D01*
X52830266Y-43765680D01*
X52826549Y-43770908D01*
X52823080Y-43776318D01*
X52819869Y-43781903D01*
X52816924Y-43787653D01*
X52814254Y-43793559D01*
X52811866Y-43799615D01*
X52809770Y-43805811D01*
X52807973Y-43812139D01*
X52806484Y-43818591D01*
X52805311Y-43825158D01*
X52804463Y-43831831D01*
X52803948Y-43838603D01*
X52803775Y-43845466D01*
X52399094Y-43845466D01*
X52399094Y-43712116D01*
X52399214Y-43702220D01*
X52399572Y-43692329D01*
X52400169Y-43682449D01*
X52401004Y-43672586D01*
X52402079Y-43662744D01*
X52403392Y-43652929D01*
X52404944Y-43643147D01*
X52406734Y-43633403D01*
X52408763Y-43623702D01*
X52411031Y-43614050D01*
X52413538Y-43604452D01*
X52416284Y-43594914D01*
X52419268Y-43585441D01*
X52422491Y-43576039D01*
X52425953Y-43566712D01*
X52429653Y-43557467D01*
X52433582Y-43548319D01*
X52437726Y-43539283D01*
X52442084Y-43530360D01*
X52446655Y-43521554D01*
X52451438Y-43512867D01*
X52456431Y-43504303D01*
X52461633Y-43495863D01*
X52467043Y-43487551D01*
X52472658Y-43479369D01*
X52478479Y-43471320D01*
X52484503Y-43463407D01*
X52490729Y-43455632D01*
X52497156Y-43447998D01*
X52503782Y-43440507D01*
X52510606Y-43433164D01*
X52517627Y-43425969D01*
X52524822Y-43418948D01*
X52532166Y-43412124D01*
X52539656Y-43405498D01*
X52547290Y-43399071D01*
X52555065Y-43392844D01*
X52562978Y-43386820D01*
X52571027Y-43381000D01*
X52579209Y-43375384D01*
X52587521Y-43369975D01*
X52595961Y-43364773D01*
X52604526Y-43359780D01*
X52613212Y-43354997D01*
X52622018Y-43350426D01*
X52630941Y-43346067D01*
X52639978Y-43341924D01*
X52649126Y-43337995D01*
X52658371Y-43334295D01*
X52667697Y-43330833D01*
X52677099Y-43327610D01*
X52686572Y-43324626D01*
X52696110Y-43321880D01*
X52705708Y-43319373D01*
X52715360Y-43317105D01*
X52725061Y-43315076D01*
X52734805Y-43313285D01*
X52744588Y-43311733D01*
X52754402Y-43310420D01*
X52764244Y-43309346D01*
X52774108Y-43308510D01*
X52783988Y-43307914D01*
X52793879Y-43307555D01*
X52803775Y-43307436D01*
X54828102Y-43307436D01*
X54837998Y-43307555D01*
G37*
D11*
X52750000Y-34800000D02*
X53950000Y-34800000D01*
X54500000Y-31575000D02*
G75*
G02*
X52200000Y-31575000I-1150000J0D01*
G01*
X52200000Y-31575000D02*
G75*
G02*
X54500000Y-31575000I1150000J0D01*
G01*
D12*
X53350000Y-33500000D02*
X53350000Y-33800000D01*
D11*
X53350000Y-34550000D02*
X53350000Y-34800000D01*
X54200000Y-33700000D02*
G75*
G02*
X52500000Y-33700000I-850000J0D01*
G01*
D13*
X59750000Y-31525000D02*
X59250000Y-31975000D01*
X59750000Y-31525000D02*
X60250000Y-31975000D01*
X59750000Y-33225000D02*
X59750000Y-31525000D01*
D14*
X45343571Y-139775472D02*
X45272142Y-139737377D01*
X45272142Y-139737377D02*
X45236428Y-139699281D01*
X45236428Y-139699281D02*
X45200714Y-139623091D01*
X45200714Y-139623091D02*
X45200714Y-139584996D01*
X45200714Y-139584996D02*
X45236428Y-139508805D01*
X45236428Y-139508805D02*
X45272142Y-139470710D01*
X45272142Y-139470710D02*
X45343571Y-139432615D01*
X45343571Y-139432615D02*
X45486428Y-139432615D01*
X45486428Y-139432615D02*
X45557857Y-139470710D01*
X45557857Y-139470710D02*
X45593571Y-139508805D01*
X45593571Y-139508805D02*
X45629285Y-139584996D01*
X45629285Y-139584996D02*
X45629285Y-139623091D01*
X45629285Y-139623091D02*
X45593571Y-139699281D01*
X45593571Y-139699281D02*
X45557857Y-139737377D01*
X45557857Y-139737377D02*
X45486428Y-139775472D01*
X45486428Y-139775472D02*
X45343571Y-139775472D01*
X45343571Y-139775472D02*
X45272142Y-139813567D01*
X45272142Y-139813567D02*
X45236428Y-139851662D01*
X45236428Y-139851662D02*
X45200714Y-139927853D01*
X45200714Y-139927853D02*
X45200714Y-140080234D01*
X45200714Y-140080234D02*
X45236428Y-140156424D01*
X45236428Y-140156424D02*
X45272142Y-140194520D01*
X45272142Y-140194520D02*
X45343571Y-140232615D01*
X45343571Y-140232615D02*
X45486428Y-140232615D01*
X45486428Y-140232615D02*
X45557857Y-140194520D01*
X45557857Y-140194520D02*
X45593571Y-140156424D01*
X45593571Y-140156424D02*
X45629285Y-140080234D01*
X45629285Y-140080234D02*
X45629285Y-139927853D01*
X45629285Y-139927853D02*
X45593571Y-139851662D01*
X45593571Y-139851662D02*
X45557857Y-139813567D01*
X45557857Y-139813567D02*
X45486428Y-139775472D01*
X45272142Y-142808525D02*
X45414999Y-142808525D01*
X45414999Y-142808525D02*
X45486428Y-142770430D01*
X45486428Y-142770430D02*
X45522142Y-142732334D01*
X45522142Y-142732334D02*
X45593571Y-142618049D01*
X45593571Y-142618049D02*
X45629285Y-142465668D01*
X45629285Y-142465668D02*
X45629285Y-142160906D01*
X45629285Y-142160906D02*
X45593571Y-142084715D01*
X45593571Y-142084715D02*
X45557857Y-142046620D01*
X45557857Y-142046620D02*
X45486428Y-142008525D01*
X45486428Y-142008525D02*
X45343571Y-142008525D01*
X45343571Y-142008525D02*
X45272142Y-142046620D01*
X45272142Y-142046620D02*
X45236428Y-142084715D01*
X45236428Y-142084715D02*
X45200714Y-142160906D01*
X45200714Y-142160906D02*
X45200714Y-142351382D01*
X45200714Y-142351382D02*
X45236428Y-142427572D01*
X45236428Y-142427572D02*
X45272142Y-142465668D01*
X45272142Y-142465668D02*
X45343571Y-142503763D01*
X45343571Y-142503763D02*
X45486428Y-142503763D01*
X45486428Y-142503763D02*
X45557857Y-142465668D01*
X45557857Y-142465668D02*
X45593571Y-142427572D01*
X45593571Y-142427572D02*
X45629285Y-142351382D01*
X45272142Y-145384435D02*
X44843571Y-145384435D01*
X45057856Y-145384435D02*
X45057856Y-144584435D01*
X45057856Y-144584435D02*
X44986428Y-144698720D01*
X44986428Y-144698720D02*
X44914999Y-144774911D01*
X44914999Y-144774911D02*
X44843571Y-144813006D01*
X45736428Y-144584435D02*
X45807857Y-144584435D01*
X45807857Y-144584435D02*
X45879285Y-144622530D01*
X45879285Y-144622530D02*
X45915000Y-144660625D01*
X45915000Y-144660625D02*
X45950714Y-144736816D01*
X45950714Y-144736816D02*
X45986428Y-144889197D01*
X45986428Y-144889197D02*
X45986428Y-145079673D01*
X45986428Y-145079673D02*
X45950714Y-145232054D01*
X45950714Y-145232054D02*
X45915000Y-145308244D01*
X45915000Y-145308244D02*
X45879285Y-145346340D01*
X45879285Y-145346340D02*
X45807857Y-145384435D01*
X45807857Y-145384435D02*
X45736428Y-145384435D01*
X45736428Y-145384435D02*
X45665000Y-145346340D01*
X45665000Y-145346340D02*
X45629285Y-145308244D01*
X45629285Y-145308244D02*
X45593571Y-145232054D01*
X45593571Y-145232054D02*
X45557857Y-145079673D01*
X45557857Y-145079673D02*
X45557857Y-144889197D01*
X45557857Y-144889197D02*
X45593571Y-144736816D01*
X45593571Y-144736816D02*
X45629285Y-144660625D01*
X45629285Y-144660625D02*
X45665000Y-144622530D01*
X45665000Y-144622530D02*
X45736428Y-144584435D01*
X45272142Y-147960345D02*
X44843571Y-147960345D01*
X45057856Y-147960345D02*
X45057856Y-147160345D01*
X45057856Y-147160345D02*
X44986428Y-147274630D01*
X44986428Y-147274630D02*
X44914999Y-147350821D01*
X44914999Y-147350821D02*
X44843571Y-147388916D01*
X45986428Y-147960345D02*
X45557857Y-147960345D01*
X45772142Y-147960345D02*
X45772142Y-147160345D01*
X45772142Y-147160345D02*
X45700714Y-147274630D01*
X45700714Y-147274630D02*
X45629285Y-147350821D01*
X45629285Y-147350821D02*
X45557857Y-147388916D01*
X45272142Y-150536255D02*
X44843571Y-150536255D01*
X45057856Y-150536255D02*
X45057856Y-149736255D01*
X45057856Y-149736255D02*
X44986428Y-149850540D01*
X44986428Y-149850540D02*
X44914999Y-149926731D01*
X44914999Y-149926731D02*
X44843571Y-149964826D01*
X45557857Y-149812445D02*
X45593571Y-149774350D01*
X45593571Y-149774350D02*
X45665000Y-149736255D01*
X45665000Y-149736255D02*
X45843571Y-149736255D01*
X45843571Y-149736255D02*
X45915000Y-149774350D01*
X45915000Y-149774350D02*
X45950714Y-149812445D01*
X45950714Y-149812445D02*
X45986428Y-149888636D01*
X45986428Y-149888636D02*
X45986428Y-149964826D01*
X45986428Y-149964826D02*
X45950714Y-150079112D01*
X45950714Y-150079112D02*
X45522142Y-150536255D01*
X45522142Y-150536255D02*
X45986428Y-150536255D01*
X44897144Y-152578831D02*
X44897144Y-153226450D01*
X44897144Y-153226450D02*
X44861429Y-153302641D01*
X44861429Y-153302641D02*
X44825715Y-153340736D01*
X44825715Y-153340736D02*
X44754286Y-153378831D01*
X44754286Y-153378831D02*
X44647144Y-153378831D01*
X44647144Y-153378831D02*
X44575715Y-153340736D01*
X44897144Y-153074070D02*
X44825715Y-153112165D01*
X44825715Y-153112165D02*
X44682858Y-153112165D01*
X44682858Y-153112165D02*
X44611429Y-153074070D01*
X44611429Y-153074070D02*
X44575715Y-153035974D01*
X44575715Y-153035974D02*
X44540001Y-152959784D01*
X44540001Y-152959784D02*
X44540001Y-152731212D01*
X44540001Y-152731212D02*
X44575715Y-152655022D01*
X44575715Y-152655022D02*
X44611429Y-152616927D01*
X44611429Y-152616927D02*
X44682858Y-152578831D01*
X44682858Y-152578831D02*
X44825715Y-152578831D01*
X44825715Y-152578831D02*
X44897144Y-152616927D01*
X45254286Y-152578831D02*
X45254286Y-153112165D01*
X45254286Y-152655022D02*
X45290000Y-152616927D01*
X45290000Y-152616927D02*
X45361429Y-152578831D01*
X45361429Y-152578831D02*
X45468572Y-152578831D01*
X45468572Y-152578831D02*
X45540000Y-152616927D01*
X45540000Y-152616927D02*
X45575715Y-152693117D01*
X45575715Y-152693117D02*
X45575715Y-153112165D01*
X46254286Y-153112165D02*
X46254286Y-152312165D01*
X46254286Y-153074070D02*
X46182857Y-153112165D01*
X46182857Y-153112165D02*
X46040000Y-153112165D01*
X46040000Y-153112165D02*
X45968571Y-153074070D01*
X45968571Y-153074070D02*
X45932857Y-153035974D01*
X45932857Y-153035974D02*
X45897143Y-152959784D01*
X45897143Y-152959784D02*
X45897143Y-152731212D01*
X45897143Y-152731212D02*
X45932857Y-152655022D01*
X45932857Y-152655022D02*
X45968571Y-152616927D01*
X45968571Y-152616927D02*
X46040000Y-152578831D01*
X46040000Y-152578831D02*
X46182857Y-152578831D01*
X46182857Y-152578831D02*
X46254286Y-152616927D01*
X44593571Y-155154741D02*
X44772143Y-155688075D01*
X44772143Y-155688075D02*
X44950714Y-155154741D01*
X45557858Y-155649980D02*
X45486429Y-155688075D01*
X45486429Y-155688075D02*
X45343572Y-155688075D01*
X45343572Y-155688075D02*
X45272143Y-155649980D01*
X45272143Y-155649980D02*
X45236429Y-155611884D01*
X45236429Y-155611884D02*
X45200715Y-155535694D01*
X45200715Y-155535694D02*
X45200715Y-155307122D01*
X45200715Y-155307122D02*
X45236429Y-155230932D01*
X45236429Y-155230932D02*
X45272143Y-155192837D01*
X45272143Y-155192837D02*
X45343572Y-155154741D01*
X45343572Y-155154741D02*
X45486429Y-155154741D01*
X45486429Y-155154741D02*
X45557858Y-155192837D01*
X46200715Y-155649980D02*
X46129286Y-155688075D01*
X46129286Y-155688075D02*
X45986429Y-155688075D01*
X45986429Y-155688075D02*
X45915000Y-155649980D01*
X45915000Y-155649980D02*
X45879286Y-155611884D01*
X45879286Y-155611884D02*
X45843572Y-155535694D01*
X45843572Y-155535694D02*
X45843572Y-155307122D01*
X45843572Y-155307122D02*
X45879286Y-155230932D01*
X45879286Y-155230932D02*
X45915000Y-155192837D01*
X45915000Y-155192837D02*
X45986429Y-155154741D01*
X45986429Y-155154741D02*
X46129286Y-155154741D01*
X46129286Y-155154741D02*
X46200715Y-155192837D01*
X66499999Y-139582615D02*
X66999999Y-139582615D01*
X66999999Y-139582615D02*
X66678571Y-140382615D01*
X66892857Y-142158525D02*
X66749999Y-142158525D01*
X66749999Y-142158525D02*
X66678571Y-142196620D01*
X66678571Y-142196620D02*
X66642857Y-142234715D01*
X66642857Y-142234715D02*
X66571428Y-142349001D01*
X66571428Y-142349001D02*
X66535714Y-142501382D01*
X66535714Y-142501382D02*
X66535714Y-142806144D01*
X66535714Y-142806144D02*
X66571428Y-142882334D01*
X66571428Y-142882334D02*
X66607142Y-142920430D01*
X66607142Y-142920430D02*
X66678571Y-142958525D01*
X66678571Y-142958525D02*
X66821428Y-142958525D01*
X66821428Y-142958525D02*
X66892857Y-142920430D01*
X66892857Y-142920430D02*
X66928571Y-142882334D01*
X66928571Y-142882334D02*
X66964285Y-142806144D01*
X66964285Y-142806144D02*
X66964285Y-142615668D01*
X66964285Y-142615668D02*
X66928571Y-142539477D01*
X66928571Y-142539477D02*
X66892857Y-142501382D01*
X66892857Y-142501382D02*
X66821428Y-142463287D01*
X66821428Y-142463287D02*
X66678571Y-142463287D01*
X66678571Y-142463287D02*
X66607142Y-142501382D01*
X66607142Y-142501382D02*
X66571428Y-142539477D01*
X66571428Y-142539477D02*
X66535714Y-142615668D01*
X66928571Y-144734435D02*
X66571428Y-144734435D01*
X66571428Y-144734435D02*
X66535714Y-145115387D01*
X66535714Y-145115387D02*
X66571428Y-145077292D01*
X66571428Y-145077292D02*
X66642857Y-145039197D01*
X66642857Y-145039197D02*
X66821428Y-145039197D01*
X66821428Y-145039197D02*
X66892857Y-145077292D01*
X66892857Y-145077292D02*
X66928571Y-145115387D01*
X66928571Y-145115387D02*
X66964285Y-145191578D01*
X66964285Y-145191578D02*
X66964285Y-145382054D01*
X66964285Y-145382054D02*
X66928571Y-145458244D01*
X66928571Y-145458244D02*
X66892857Y-145496340D01*
X66892857Y-145496340D02*
X66821428Y-145534435D01*
X66821428Y-145534435D02*
X66642857Y-145534435D01*
X66642857Y-145534435D02*
X66571428Y-145496340D01*
X66571428Y-145496340D02*
X66535714Y-145458244D01*
X66892857Y-147577011D02*
X66892857Y-148110345D01*
X66714285Y-147272250D02*
X66535714Y-147843678D01*
X66535714Y-147843678D02*
X66999999Y-147843678D01*
X66499999Y-149886255D02*
X66964285Y-149886255D01*
X66964285Y-149886255D02*
X66714285Y-150191017D01*
X66714285Y-150191017D02*
X66821428Y-150191017D01*
X66821428Y-150191017D02*
X66892857Y-150229112D01*
X66892857Y-150229112D02*
X66928571Y-150267207D01*
X66928571Y-150267207D02*
X66964285Y-150343398D01*
X66964285Y-150343398D02*
X66964285Y-150533874D01*
X66964285Y-150533874D02*
X66928571Y-150610064D01*
X66928571Y-150610064D02*
X66892857Y-150648160D01*
X66892857Y-150648160D02*
X66821428Y-150686255D01*
X66821428Y-150686255D02*
X66607142Y-150686255D01*
X66607142Y-150686255D02*
X66535714Y-150648160D01*
X66535714Y-150648160D02*
X66499999Y-150610064D01*
X66535714Y-152538355D02*
X66571428Y-152500260D01*
X66571428Y-152500260D02*
X66642857Y-152462165D01*
X66642857Y-152462165D02*
X66821428Y-152462165D01*
X66821428Y-152462165D02*
X66892857Y-152500260D01*
X66892857Y-152500260D02*
X66928571Y-152538355D01*
X66928571Y-152538355D02*
X66964285Y-152614546D01*
X66964285Y-152614546D02*
X66964285Y-152690736D01*
X66964285Y-152690736D02*
X66928571Y-152805022D01*
X66928571Y-152805022D02*
X66499999Y-153262165D01*
X66499999Y-153262165D02*
X66964285Y-153262165D01*
X66964285Y-155838075D02*
X66535714Y-155838075D01*
X66749999Y-155838075D02*
X66749999Y-155038075D01*
X66749999Y-155038075D02*
X66678571Y-155152360D01*
X66678571Y-155152360D02*
X66607142Y-155228551D01*
X66607142Y-155228551D02*
X66535714Y-155266646D01*
D15*
X50089761Y-138365935D02*
X50623095Y-139165935D01*
X50623095Y-138365935D02*
X50089761Y-139165935D01*
X50927857Y-139165935D02*
X50927857Y-138365935D01*
X51270713Y-138937363D02*
X51651666Y-138937363D01*
X51194523Y-139165935D02*
X51461190Y-138365935D01*
X51461190Y-138365935D02*
X51727856Y-139165935D01*
X52146904Y-138365935D02*
X52299285Y-138365935D01*
X52299285Y-138365935D02*
X52375475Y-138404030D01*
X52375475Y-138404030D02*
X52451666Y-138480220D01*
X52451666Y-138480220D02*
X52489761Y-138632601D01*
X52489761Y-138632601D02*
X52489761Y-138899268D01*
X52489761Y-138899268D02*
X52451666Y-139051649D01*
X52451666Y-139051649D02*
X52375475Y-139127840D01*
X52375475Y-139127840D02*
X52299285Y-139165935D01*
X52299285Y-139165935D02*
X52146904Y-139165935D01*
X52146904Y-139165935D02*
X52070713Y-139127840D01*
X52070713Y-139127840D02*
X51994523Y-139051649D01*
X51994523Y-139051649D02*
X51956427Y-138899268D01*
X51956427Y-138899268D02*
X51956427Y-138632601D01*
X51956427Y-138632601D02*
X51994523Y-138480220D01*
X51994523Y-138480220D02*
X52070713Y-138404030D01*
X52070713Y-138404030D02*
X52146904Y-138365935D01*
X52832618Y-138861173D02*
X53442142Y-138861173D01*
X53823094Y-138746887D02*
X54089760Y-138746887D01*
X54204046Y-139165935D02*
X53823094Y-139165935D01*
X53823094Y-139165935D02*
X53823094Y-138365935D01*
X53823094Y-138365935D02*
X54204046Y-138365935D01*
X54508808Y-139127840D02*
X54623094Y-139165935D01*
X54623094Y-139165935D02*
X54813570Y-139165935D01*
X54813570Y-139165935D02*
X54889761Y-139127840D01*
X54889761Y-139127840D02*
X54927856Y-139089744D01*
X54927856Y-139089744D02*
X54965951Y-139013554D01*
X54965951Y-139013554D02*
X54965951Y-138937363D01*
X54965951Y-138937363D02*
X54927856Y-138861173D01*
X54927856Y-138861173D02*
X54889761Y-138823078D01*
X54889761Y-138823078D02*
X54813570Y-138784982D01*
X54813570Y-138784982D02*
X54661189Y-138746887D01*
X54661189Y-138746887D02*
X54584999Y-138708792D01*
X54584999Y-138708792D02*
X54546904Y-138670697D01*
X54546904Y-138670697D02*
X54508808Y-138594506D01*
X54508808Y-138594506D02*
X54508808Y-138518316D01*
X54508808Y-138518316D02*
X54546904Y-138442125D01*
X54546904Y-138442125D02*
X54584999Y-138404030D01*
X54584999Y-138404030D02*
X54661189Y-138365935D01*
X54661189Y-138365935D02*
X54851666Y-138365935D01*
X54851666Y-138365935D02*
X54965951Y-138404030D01*
X55308809Y-139165935D02*
X55308809Y-138365935D01*
X55308809Y-138365935D02*
X55613571Y-138365935D01*
X55613571Y-138365935D02*
X55689761Y-138404030D01*
X55689761Y-138404030D02*
X55727856Y-138442125D01*
X55727856Y-138442125D02*
X55765952Y-138518316D01*
X55765952Y-138518316D02*
X55765952Y-138632601D01*
X55765952Y-138632601D02*
X55727856Y-138708792D01*
X55727856Y-138708792D02*
X55689761Y-138746887D01*
X55689761Y-138746887D02*
X55613571Y-138784982D01*
X55613571Y-138784982D02*
X55308809Y-138784982D01*
X56032618Y-138365935D02*
X56527856Y-138365935D01*
X56527856Y-138365935D02*
X56261190Y-138670697D01*
X56261190Y-138670697D02*
X56375475Y-138670697D01*
X56375475Y-138670697D02*
X56451666Y-138708792D01*
X56451666Y-138708792D02*
X56489761Y-138746887D01*
X56489761Y-138746887D02*
X56527856Y-138823078D01*
X56527856Y-138823078D02*
X56527856Y-139013554D01*
X56527856Y-139013554D02*
X56489761Y-139089744D01*
X56489761Y-139089744D02*
X56451666Y-139127840D01*
X56451666Y-139127840D02*
X56375475Y-139165935D01*
X56375475Y-139165935D02*
X56146904Y-139165935D01*
X56146904Y-139165935D02*
X56070713Y-139127840D01*
X56070713Y-139127840D02*
X56032618Y-139089744D01*
X56832618Y-138442125D02*
X56870714Y-138404030D01*
X56870714Y-138404030D02*
X56946904Y-138365935D01*
X56946904Y-138365935D02*
X57137380Y-138365935D01*
X57137380Y-138365935D02*
X57213571Y-138404030D01*
X57213571Y-138404030D02*
X57251666Y-138442125D01*
X57251666Y-138442125D02*
X57289761Y-138518316D01*
X57289761Y-138518316D02*
X57289761Y-138594506D01*
X57289761Y-138594506D02*
X57251666Y-138708792D01*
X57251666Y-138708792D02*
X56794523Y-139165935D01*
X56794523Y-139165935D02*
X57289761Y-139165935D01*
X57632619Y-138861173D02*
X58242143Y-138861173D01*
X59080238Y-139089744D02*
X59042142Y-139127840D01*
X59042142Y-139127840D02*
X58927857Y-139165935D01*
X58927857Y-139165935D02*
X58851666Y-139165935D01*
X58851666Y-139165935D02*
X58737380Y-139127840D01*
X58737380Y-139127840D02*
X58661190Y-139051649D01*
X58661190Y-139051649D02*
X58623095Y-138975459D01*
X58623095Y-138975459D02*
X58584999Y-138823078D01*
X58584999Y-138823078D02*
X58584999Y-138708792D01*
X58584999Y-138708792D02*
X58623095Y-138556411D01*
X58623095Y-138556411D02*
X58661190Y-138480220D01*
X58661190Y-138480220D02*
X58737380Y-138404030D01*
X58737380Y-138404030D02*
X58851666Y-138365935D01*
X58851666Y-138365935D02*
X58927857Y-138365935D01*
X58927857Y-138365935D02*
X59042142Y-138404030D01*
X59042142Y-138404030D02*
X59080238Y-138442125D01*
X59765952Y-138365935D02*
X59613571Y-138365935D01*
X59613571Y-138365935D02*
X59537380Y-138404030D01*
X59537380Y-138404030D02*
X59499285Y-138442125D01*
X59499285Y-138442125D02*
X59423095Y-138556411D01*
X59423095Y-138556411D02*
X59384999Y-138708792D01*
X59384999Y-138708792D02*
X59384999Y-139013554D01*
X59384999Y-139013554D02*
X59423095Y-139089744D01*
X59423095Y-139089744D02*
X59461190Y-139127840D01*
X59461190Y-139127840D02*
X59537380Y-139165935D01*
X59537380Y-139165935D02*
X59689761Y-139165935D01*
X59689761Y-139165935D02*
X59765952Y-139127840D01*
X59765952Y-139127840D02*
X59804047Y-139089744D01*
X59804047Y-139089744D02*
X59842142Y-139013554D01*
X59842142Y-139013554D02*
X59842142Y-138823078D01*
X59842142Y-138823078D02*
X59804047Y-138746887D01*
X59804047Y-138746887D02*
X59765952Y-138708792D01*
X59765952Y-138708792D02*
X59689761Y-138670697D01*
X59689761Y-138670697D02*
X59537380Y-138670697D01*
X59537380Y-138670697D02*
X59461190Y-138708792D01*
X59461190Y-138708792D02*
X59423095Y-138746887D01*
X59423095Y-138746887D02*
X59384999Y-138823078D01*
D16*
X58444807Y-34470238D02*
X58482902Y-34355952D01*
X58482902Y-34355952D02*
X58520998Y-34317857D01*
X58520998Y-34317857D02*
X58597188Y-34279761D01*
X58597188Y-34279761D02*
X58711474Y-34279761D01*
X58711474Y-34279761D02*
X58787664Y-34317857D01*
X58787664Y-34317857D02*
X58825760Y-34355952D01*
X58825760Y-34355952D02*
X58863855Y-34432142D01*
X58863855Y-34432142D02*
X58863855Y-34736904D01*
X58863855Y-34736904D02*
X58063855Y-34736904D01*
X58063855Y-34736904D02*
X58063855Y-34470238D01*
X58063855Y-34470238D02*
X58101950Y-34394047D01*
X58101950Y-34394047D02*
X58140045Y-34355952D01*
X58140045Y-34355952D02*
X58216236Y-34317857D01*
X58216236Y-34317857D02*
X58292426Y-34317857D01*
X58292426Y-34317857D02*
X58368617Y-34355952D01*
X58368617Y-34355952D02*
X58406712Y-34394047D01*
X58406712Y-34394047D02*
X58444807Y-34470238D01*
X58444807Y-34470238D02*
X58444807Y-34736904D01*
X58444807Y-33936904D02*
X58444807Y-33670238D01*
X58863855Y-33555952D02*
X58863855Y-33936904D01*
X58863855Y-33936904D02*
X58063855Y-33936904D01*
X58063855Y-33936904D02*
X58063855Y-33555952D01*
X58863855Y-33213094D02*
X58063855Y-33213094D01*
X58063855Y-33213094D02*
X58863855Y-32755951D01*
X58863855Y-32755951D02*
X58063855Y-32755951D01*
X58863855Y-32374999D02*
X58063855Y-32374999D01*
X58063855Y-32374999D02*
X58063855Y-32184523D01*
X58063855Y-32184523D02*
X58101950Y-32070237D01*
X58101950Y-32070237D02*
X58178140Y-31994047D01*
X58178140Y-31994047D02*
X58254331Y-31955952D01*
X58254331Y-31955952D02*
X58406712Y-31917856D01*
X58406712Y-31917856D02*
X58520998Y-31917856D01*
X58520998Y-31917856D02*
X58673379Y-31955952D01*
X58673379Y-31955952D02*
X58749569Y-31994047D01*
X58749569Y-31994047D02*
X58825760Y-32070237D01*
X58825760Y-32070237D02*
X58863855Y-32184523D01*
X58863855Y-32184523D02*
X58863855Y-32374999D01*
X58863855Y-30927380D02*
X58863855Y-30774999D01*
X58863855Y-30774999D02*
X58825760Y-30698809D01*
X58825760Y-30698809D02*
X58787664Y-30660713D01*
X58787664Y-30660713D02*
X58673379Y-30584523D01*
X58673379Y-30584523D02*
X58520998Y-30546428D01*
X58520998Y-30546428D02*
X58216236Y-30546428D01*
X58216236Y-30546428D02*
X58140045Y-30584523D01*
X58140045Y-30584523D02*
X58101950Y-30622618D01*
X58101950Y-30622618D02*
X58063855Y-30698809D01*
X58063855Y-30698809D02*
X58063855Y-30851190D01*
X58063855Y-30851190D02*
X58101950Y-30927380D01*
X58101950Y-30927380D02*
X58140045Y-30965475D01*
X58140045Y-30965475D02*
X58216236Y-31003571D01*
X58216236Y-31003571D02*
X58406712Y-31003571D01*
X58406712Y-31003571D02*
X58482902Y-30965475D01*
X58482902Y-30965475D02*
X58520998Y-30927380D01*
X58520998Y-30927380D02*
X58559093Y-30851190D01*
X58559093Y-30851190D02*
X58559093Y-30698809D01*
X58559093Y-30698809D02*
X58520998Y-30622618D01*
X58520998Y-30622618D02*
X58482902Y-30584523D01*
X58482902Y-30584523D02*
X58406712Y-30546428D01*
X58063855Y-30051189D02*
X58063855Y-29974999D01*
X58063855Y-29974999D02*
X58101950Y-29898808D01*
X58101950Y-29898808D02*
X58140045Y-29860713D01*
X58140045Y-29860713D02*
X58216236Y-29822618D01*
X58216236Y-29822618D02*
X58368617Y-29784523D01*
X58368617Y-29784523D02*
X58559093Y-29784523D01*
X58559093Y-29784523D02*
X58711474Y-29822618D01*
X58711474Y-29822618D02*
X58787664Y-29860713D01*
X58787664Y-29860713D02*
X58825760Y-29898808D01*
X58825760Y-29898808D02*
X58863855Y-29974999D01*
X58863855Y-29974999D02*
X58863855Y-30051189D01*
X58863855Y-30051189D02*
X58825760Y-30127380D01*
X58825760Y-30127380D02*
X58787664Y-30165475D01*
X58787664Y-30165475D02*
X58711474Y-30203570D01*
X58711474Y-30203570D02*
X58559093Y-30241666D01*
X58559093Y-30241666D02*
X58368617Y-30241666D01*
X58368617Y-30241666D02*
X58216236Y-30203570D01*
X58216236Y-30203570D02*
X58140045Y-30165475D01*
X58140045Y-30165475D02*
X58101950Y-30127380D01*
X58101950Y-30127380D02*
X58063855Y-30051189D01*
X58063855Y-29327380D02*
X58101950Y-29403570D01*
X58101950Y-29403570D02*
X58178140Y-29441665D01*
X58178140Y-29441665D02*
X58254331Y-29403570D01*
X58254331Y-29403570D02*
X58292426Y-29327380D01*
X58292426Y-29327380D02*
X58254331Y-29251189D01*
X58254331Y-29251189D02*
X58178140Y-29213094D01*
X58178140Y-29213094D02*
X58101950Y-29251189D01*
X58101950Y-29251189D02*
X58063855Y-29327380D01*
D17*
G36*
X70500000Y-102509245D02*
G01*
X70500000Y-103256567D01*
X70337761Y-103256567D01*
X70195307Y-103086147D01*
X70128312Y-103013528D01*
X70067934Y-102953278D01*
X69989795Y-102885805D01*
X69929631Y-102845323D01*
X69888884Y-102826500D01*
X69848198Y-102815499D01*
X69807021Y-102811862D01*
X69761411Y-102817014D01*
X69725795Y-102831313D01*
X69697845Y-102854238D01*
X69677476Y-102884585D01*
X69664509Y-102923196D01*
X69659804Y-102972390D01*
X69662220Y-103010615D01*
X69669269Y-103045846D01*
X69693571Y-103115822D01*
X69725383Y-103175295D01*
X69749685Y-103212176D01*
X69749685Y-103231959D01*
X69527852Y-103231959D01*
X69508931Y-103182463D01*
X69485903Y-103097382D01*
X69469645Y-103006421D01*
X69464410Y-102921160D01*
X69470349Y-102829501D01*
X69486732Y-102755193D01*
X69511971Y-102695155D01*
X69545315Y-102646876D01*
X69588806Y-102606858D01*
X69640084Y-102578017D01*
X69700708Y-102560006D01*
X69772889Y-102553636D01*
X69832283Y-102558263D01*
X69891158Y-102572236D01*
X69950148Y-102596012D01*
X70005468Y-102627860D01*
X70067185Y-102673838D01*
X70136261Y-102736696D01*
X70194941Y-102798457D01*
X70244888Y-102856253D01*
X70312421Y-102940272D01*
X70312421Y-102509245D01*
X70500000Y-102509245D01*
G37*
G36*
X70120911Y-101636864D02*
G01*
X70224188Y-101652380D01*
X70288897Y-101670092D01*
X70343567Y-101692765D01*
X70389541Y-101719974D01*
X70430133Y-101754095D01*
X70463335Y-101794197D01*
X70489619Y-101840935D01*
X70507716Y-101891671D01*
X70519308Y-101951875D01*
X70523447Y-102023263D01*
X70519317Y-102094231D01*
X70507734Y-102154268D01*
X70489619Y-102205040D01*
X70463273Y-102251682D01*
X70429631Y-102292004D01*
X70388136Y-102326612D01*
X70341793Y-102353891D01*
X70287206Y-102376551D01*
X70223150Y-102394207D01*
X70120865Y-102409715D01*
X69993928Y-102415395D01*
X69863606Y-102409733D01*
X69762997Y-102394573D01*
X69700661Y-102377085D01*
X69646077Y-102353881D01*
X69598316Y-102325208D01*
X69556896Y-102290143D01*
X69523502Y-102249378D01*
X69497566Y-102202293D01*
X69479713Y-102151142D01*
X69468406Y-102091919D01*
X69464410Y-102023263D01*
X69651988Y-102023263D01*
X69656736Y-102057171D01*
X69670404Y-102085084D01*
X69693502Y-102108502D01*
X69728253Y-102127860D01*
X69781123Y-102143232D01*
X69866034Y-102154669D01*
X69994600Y-102159245D01*
X70120301Y-102154716D01*
X70204635Y-102143320D01*
X70258260Y-102127860D01*
X70293723Y-102108427D01*
X70317211Y-102084969D01*
X70331065Y-102057079D01*
X70335868Y-102023263D01*
X70331066Y-101989480D01*
X70317215Y-101961620D01*
X70293728Y-101938191D01*
X70258260Y-101918788D01*
X70204605Y-101903314D01*
X70119892Y-101891888D01*
X69993257Y-101887342D01*
X69865619Y-101891865D01*
X69781083Y-101903185D01*
X69728253Y-101918421D01*
X69693556Y-101937614D01*
X69670457Y-101961002D01*
X69656758Y-101989039D01*
X69651988Y-102023263D01*
X69464410Y-102023263D01*
X69468672Y-101950475D01*
X69480529Y-101890015D01*
X69498909Y-101839897D01*
X69525631Y-101793902D01*
X69559706Y-101753885D01*
X69601735Y-101719302D01*
X69648134Y-101692033D01*
X69702837Y-101669471D01*
X69767088Y-101652014D01*
X69869245Y-101636732D01*
X69993257Y-101631192D01*
X70120911Y-101636864D01*
G37*
G36*
X70500000Y-100727249D02*
G01*
X70500000Y-101474571D01*
X70337761Y-101474571D01*
X70195307Y-101304151D01*
X70128312Y-101231533D01*
X70067934Y-101171283D01*
X69989795Y-101103809D01*
X69929631Y-101063327D01*
X69888884Y-101044505D01*
X69848198Y-101033503D01*
X69807021Y-101029866D01*
X69761411Y-101035018D01*
X69725795Y-101049318D01*
X69697845Y-101072242D01*
X69677476Y-101102589D01*
X69664509Y-101141200D01*
X69659804Y-101190395D01*
X69662220Y-101228619D01*
X69669269Y-101263851D01*
X69693571Y-101333826D01*
X69725383Y-101393299D01*
X69749685Y-101430180D01*
X69749685Y-101449964D01*
X69527852Y-101449964D01*
X69508931Y-101400467D01*
X69485903Y-101315386D01*
X69469645Y-101224425D01*
X69464410Y-101139165D01*
X69470349Y-101047506D01*
X69486732Y-100973197D01*
X69511971Y-100913159D01*
X69545315Y-100864880D01*
X69588806Y-100824862D01*
X69640084Y-100796022D01*
X69700708Y-100778011D01*
X69772889Y-100771640D01*
X69832283Y-100776267D01*
X69891158Y-100790240D01*
X69950148Y-100814016D01*
X70005468Y-100845864D01*
X70067185Y-100891842D01*
X70136261Y-100954700D01*
X70194941Y-101016461D01*
X70244888Y-101074257D01*
X70312421Y-101158277D01*
X70312421Y-100727249D01*
X70500000Y-100727249D01*
G37*
G36*
X70234460Y-99849093D02*
G01*
X70303718Y-99868473D01*
X70365097Y-99899994D01*
X70419888Y-99944145D01*
X70464059Y-99998026D01*
X70496177Y-100061230D01*
X70516321Y-100135591D01*
X70523447Y-100223559D01*
X70516745Y-100309352D01*
X70497801Y-100382073D01*
X70477727Y-100426679D01*
X70452564Y-100465871D01*
X70422208Y-100500225D01*
X70380401Y-100535046D01*
X70330195Y-100564714D01*
X70270350Y-100589069D01*
X70207580Y-100605480D01*
X70133995Y-100616025D01*
X70047967Y-100619782D01*
X69958760Y-100616345D01*
X69879769Y-100606554D01*
X69809891Y-100591084D01*
X69742656Y-100567685D01*
X69681536Y-100536519D01*
X69625854Y-100497478D01*
X69579605Y-100452557D01*
X69540097Y-100398754D01*
X69507213Y-100334934D01*
X69484150Y-100266672D01*
X69469559Y-100187984D01*
X69464410Y-100097164D01*
X69470943Y-99997146D01*
X69481629Y-99928453D01*
X69683251Y-99928453D01*
X69683251Y-99946893D01*
X69663224Y-100005634D01*
X69654955Y-100048227D01*
X69651988Y-100099240D01*
X69656425Y-100158972D01*
X69668826Y-100208469D01*
X69688302Y-100249553D01*
X69714637Y-100283643D01*
X69760167Y-100320009D01*
X69818987Y-100346929D01*
X69894338Y-100363571D01*
X69865233Y-100312799D01*
X69843108Y-100262150D01*
X69841754Y-100257021D01*
X69999790Y-100257021D01*
X70006690Y-100312036D01*
X70023909Y-100364976D01*
X70046685Y-100365648D01*
X70086680Y-100366319D01*
X70170602Y-100362012D01*
X70228768Y-100350993D01*
X70278344Y-100332505D01*
X70310101Y-100312342D01*
X70329355Y-100292966D01*
X70341852Y-100271736D01*
X70349078Y-100248293D01*
X70351500Y-100223559D01*
X70349074Y-100202874D01*
X70341181Y-100179168D01*
X70328245Y-100157142D01*
X70310101Y-100138807D01*
X70284122Y-100121296D01*
X70256001Y-100108460D01*
X70222874Y-100100959D01*
X70167341Y-100097835D01*
X70120083Y-100101218D01*
X70085336Y-100110170D01*
X70055681Y-100125344D01*
X70033557Y-100144974D01*
X70017280Y-100169055D01*
X70007056Y-100196204D01*
X69999790Y-100257021D01*
X69841754Y-100257021D01*
X69828928Y-100208426D01*
X69823935Y-100145646D01*
X69827689Y-100092113D01*
X69838651Y-100042881D01*
X69856880Y-99996973D01*
X69881393Y-99957090D01*
X69910652Y-99924825D01*
X69945736Y-99896983D01*
X69987334Y-99873437D01*
X70032194Y-99856984D01*
X70087555Y-99846252D01*
X70155556Y-99842357D01*
X70234460Y-99849093D01*
G37*
G36*
X70500000Y-99456209D02*
G01*
X70500000Y-99698010D01*
X70230355Y-99698010D01*
X70230355Y-99456209D01*
X70500000Y-99456209D01*
G37*
G36*
X70281408Y-98518060D02*
G01*
X70339471Y-98538223D01*
X70391408Y-98571158D01*
X70436374Y-98617113D01*
X70472099Y-98673393D01*
X70500305Y-98743814D01*
X70517350Y-98821731D01*
X70523447Y-98914967D01*
X70517216Y-99013886D01*
X70500000Y-99094608D01*
X70471360Y-99166727D01*
X70436374Y-99221003D01*
X70392328Y-99263452D01*
X70341852Y-99292750D01*
X70286027Y-99310121D01*
X70226875Y-99315953D01*
X70170568Y-99310289D01*
X70122862Y-99294131D01*
X70081978Y-99267837D01*
X70047107Y-99232787D01*
X70014849Y-99186881D01*
X69985380Y-99128130D01*
X69981350Y-99128130D01*
X69948257Y-99184695D01*
X69913118Y-99225403D01*
X69875898Y-99253182D01*
X69833405Y-99272762D01*
X69787645Y-99284613D01*
X69737840Y-99288659D01*
X69683624Y-99282480D01*
X69633060Y-99264051D01*
X69587373Y-99233911D01*
X69545376Y-99190290D01*
X69513158Y-99139337D01*
X69486514Y-99072443D01*
X69470180Y-98998447D01*
X69464410Y-98912219D01*
X69464450Y-98911548D01*
X69636357Y-98911548D01*
X69639738Y-98947923D01*
X69649202Y-98977634D01*
X69664262Y-99002040D01*
X69684777Y-99021542D01*
X69707392Y-99032759D01*
X69733016Y-99036539D01*
X69770842Y-99031019D01*
X69798717Y-99015717D01*
X69814603Y-98998315D01*
X70042533Y-98998315D01*
X70071743Y-99023003D01*
X70108661Y-99045820D01*
X70149700Y-99061361D01*
X70195307Y-99066642D01*
X70240869Y-99061324D01*
X70278160Y-99046251D01*
X70309063Y-99021579D01*
X70332171Y-98989211D01*
X70346445Y-98950197D01*
X70351500Y-98902694D01*
X70344966Y-98857265D01*
X70336517Y-98832814D01*
X70324694Y-98811775D01*
X70307393Y-98791902D01*
X70287630Y-98776604D01*
X70263938Y-98766950D01*
X70229928Y-98763292D01*
X70183714Y-98769139D01*
X70153053Y-98784480D01*
X70127816Y-98813062D01*
X70092908Y-98875339D01*
X70069094Y-98932431D01*
X70042533Y-98998315D01*
X69814603Y-98998315D01*
X69821398Y-98990872D01*
X69844635Y-98951176D01*
X69864357Y-98905747D01*
X69890858Y-98835710D01*
X69855750Y-98812086D01*
X69823874Y-98796815D01*
X69790064Y-98787706D01*
X69749991Y-98784480D01*
X69717030Y-98788483D01*
X69689924Y-98799881D01*
X69667315Y-98818674D01*
X69650626Y-98843130D01*
X69640128Y-98873541D01*
X69636357Y-98911548D01*
X69464450Y-98911548D01*
X69469777Y-98821250D01*
X69484499Y-98747966D01*
X69508606Y-98682164D01*
X69537194Y-98632806D01*
X69574360Y-98591545D01*
X69617794Y-98561792D01*
X69666802Y-98543386D01*
X69720132Y-98537185D01*
X69766856Y-98541893D01*
X69809979Y-98555804D01*
X69850436Y-98579194D01*
X69885515Y-98610436D01*
X69918070Y-98652655D01*
X69948011Y-98707971D01*
X69952102Y-98707971D01*
X69983861Y-98643586D01*
X70019620Y-98594830D01*
X70059202Y-98559044D01*
X70105465Y-98532848D01*
X70157903Y-98516808D01*
X70218021Y-98511234D01*
X70281408Y-98518060D01*
G37*
G36*
X70500000Y-98128505D02*
G01*
X70500000Y-98370306D01*
X70230355Y-98370306D01*
X70230355Y-98128505D01*
X70500000Y-98128505D01*
G37*
G36*
X70500000Y-97225906D02*
G01*
X70500000Y-97898062D01*
X70324145Y-97898062D01*
X70324145Y-97683617D01*
X69784856Y-97683617D01*
X69784856Y-97898062D01*
X69620725Y-97898062D01*
X69614680Y-97804517D01*
X69606205Y-97760645D01*
X69595141Y-97730023D01*
X69575886Y-97700615D01*
X69551666Y-97679220D01*
X69521996Y-97665215D01*
X69483949Y-97658338D01*
X69483949Y-97435588D01*
X70324145Y-97435588D01*
X70324145Y-97225906D01*
X70500000Y-97225906D01*
G37*
D18*
G36*
X46460830Y-49250000D02*
G01*
X46076099Y-49250000D01*
X46076099Y-48678746D01*
X46070042Y-48539711D01*
X46060492Y-48475283D01*
X46047669Y-48437678D01*
X46023258Y-48403879D01*
X45990809Y-48381808D01*
X45950076Y-48369570D01*
X45891451Y-48364863D01*
X45844668Y-48368876D01*
X45796294Y-48381258D01*
X45748379Y-48401625D01*
X45693615Y-48433557D01*
X45693615Y-49250000D01*
X45311033Y-49250000D01*
X45311033Y-47655582D01*
X45693615Y-47655582D01*
X45693615Y-48224912D01*
X45788895Y-48156592D01*
X45876601Y-48107950D01*
X45969497Y-48076633D01*
X46073949Y-48065910D01*
X46166564Y-48073590D01*
X46243457Y-48095199D01*
X46307680Y-48129641D01*
X46361374Y-48177285D01*
X46402408Y-48234731D01*
X46433446Y-48305676D01*
X46453556Y-48392942D01*
X46460830Y-48499960D01*
X46460830Y-49250000D01*
G37*
G36*
X47410646Y-48073244D02*
G01*
X47516088Y-48094069D01*
X47607602Y-48127153D01*
X47687228Y-48172013D01*
X47756490Y-48228942D01*
X47814404Y-48296325D01*
X47860178Y-48373165D01*
X47893965Y-48460835D01*
X47915209Y-48561108D01*
X47922672Y-48676090D01*
X47911182Y-48816867D01*
X47878770Y-48935728D01*
X47827330Y-49036504D01*
X47757076Y-49122138D01*
X47688022Y-49179015D01*
X47608470Y-49223865D01*
X47516873Y-49256967D01*
X47411154Y-49277822D01*
X47288813Y-49285170D01*
X47167448Y-49277853D01*
X47062242Y-49257056D01*
X46970773Y-49223991D01*
X46891034Y-49179120D01*
X46821528Y-49122138D01*
X46763382Y-49054712D01*
X46717465Y-48977938D01*
X46683602Y-48890467D01*
X46662327Y-48790545D01*
X46654989Y-48678105D01*
X47047208Y-48678105D01*
X47052415Y-48777906D01*
X47065771Y-48847640D01*
X47088153Y-48908035D01*
X47113838Y-48950863D01*
X47148534Y-48985433D01*
X47190335Y-49008932D01*
X47238022Y-49022544D01*
X47292037Y-49027250D01*
X47337704Y-49022795D01*
X47385436Y-49008932D01*
X47428521Y-48985821D01*
X47461444Y-48953977D01*
X47490716Y-48906828D01*
X47512833Y-48848647D01*
X47525317Y-48781088D01*
X47530321Y-48678105D01*
X47525339Y-48580574D01*
X47512247Y-48508570D01*
X47489765Y-48445350D01*
X47462519Y-48400218D01*
X47425503Y-48363182D01*
X47386022Y-48340683D01*
X47341432Y-48328221D01*
X47288813Y-48323831D01*
X47239035Y-48327650D01*
X47195806Y-48338577D01*
X47157110Y-48359207D01*
X47119309Y-48395088D01*
X47091066Y-48439606D01*
X47066845Y-48503990D01*
X47052626Y-48577769D01*
X47047208Y-48678105D01*
X46654989Y-48678105D01*
X46654857Y-48676090D01*
X46662373Y-48560128D01*
X46683737Y-48459338D01*
X46717658Y-48371534D01*
X46763544Y-48294874D01*
X46821528Y-48227935D01*
X46890975Y-48171345D01*
X46970681Y-48126753D01*
X47062149Y-48093876D01*
X47167386Y-48073191D01*
X47288813Y-48065910D01*
X47410646Y-48073244D01*
G37*
G36*
X49593098Y-49250000D02*
G01*
X49593098Y-48674624D01*
X49589776Y-48531010D01*
X49582752Y-48475569D01*
X49570139Y-48435663D01*
X49548912Y-48403432D01*
X49519239Y-48381808D01*
X49480880Y-48369645D01*
X49422617Y-48364863D01*
X49379483Y-48369281D01*
X49336252Y-48382815D01*
X49243342Y-48433557D01*
X49243342Y-49250000D01*
X48858611Y-49250000D01*
X48858611Y-48674624D01*
X48854801Y-48531559D01*
X48847309Y-48475628D01*
X48834578Y-48435663D01*
X48813350Y-48403432D01*
X48783677Y-48381808D01*
X48745441Y-48369624D01*
X48688130Y-48364863D01*
X48642012Y-48369917D01*
X48596294Y-48385380D01*
X48508855Y-48433557D01*
X48508855Y-49250000D01*
X48126273Y-49250000D01*
X48126273Y-48101081D01*
X48508855Y-48101081D01*
X48508855Y-48224912D01*
X48603238Y-48156149D01*
X48685882Y-48107950D01*
X48773024Y-48076670D01*
X48872777Y-48065910D01*
X48946245Y-48071739D01*
X49011664Y-48088609D01*
X49070516Y-48116194D01*
X49121965Y-48154343D01*
X49165245Y-48203701D01*
X49200649Y-48266037D01*
X49311955Y-48177865D01*
X49408841Y-48117751D01*
X49475773Y-48088471D01*
X49541604Y-48071487D01*
X49607264Y-48065910D01*
X49689636Y-48072572D01*
X49760258Y-48091556D01*
X49822953Y-48123677D01*
X49875052Y-48168492D01*
X49919601Y-48228461D01*
X49952135Y-48300383D01*
X49970652Y-48382813D01*
X49977829Y-48499960D01*
X49977829Y-49250000D01*
X49593098Y-49250000D01*
G37*
G36*
X50968627Y-48076130D02*
G01*
X51083146Y-48104488D01*
X51176244Y-48148765D01*
X51251702Y-48208517D01*
X51311144Y-48283058D01*
X51355379Y-48373596D01*
X51383689Y-48483409D01*
X51393852Y-48616647D01*
X51393852Y-48745882D01*
X50555610Y-48745882D01*
X50567992Y-48820758D01*
X50591661Y-48878140D01*
X50627487Y-48926163D01*
X50672554Y-48962678D01*
X50724933Y-48989264D01*
X50787250Y-49007741D01*
X50854584Y-49017852D01*
X50930474Y-49021388D01*
X50996700Y-49017855D01*
X51061681Y-49007283D01*
X51124296Y-48990683D01*
X51179700Y-48970189D01*
X51266552Y-48927324D01*
X51331619Y-48886566D01*
X51372065Y-48886566D01*
X51372065Y-49183688D01*
X51286287Y-49216111D01*
X51179700Y-49246427D01*
X51051228Y-49270516D01*
X50890028Y-49279309D01*
X50747355Y-49272053D01*
X50625485Y-49251632D01*
X50521459Y-49219632D01*
X50432717Y-49177014D01*
X50357187Y-49124062D01*
X50292230Y-49058795D01*
X50241273Y-48983642D01*
X50203803Y-48897160D01*
X50180248Y-48797352D01*
X50171954Y-48681769D01*
X50179573Y-48568776D01*
X50188285Y-48528995D01*
X50554438Y-48528995D01*
X51016839Y-48528995D01*
X51008113Y-48454025D01*
X50988743Y-48397159D01*
X50960467Y-48354422D01*
X50920874Y-48322258D01*
X50868191Y-48301948D01*
X50798192Y-48294521D01*
X50726762Y-48302089D01*
X50669726Y-48323288D01*
X50623803Y-48357536D01*
X50589211Y-48402778D01*
X50565811Y-48459011D01*
X50554438Y-48528995D01*
X50188285Y-48528995D01*
X50201376Y-48469213D01*
X50236280Y-48381146D01*
X50283904Y-48302960D01*
X50344585Y-48233430D01*
X50416552Y-48174895D01*
X50499057Y-48128784D01*
X50593641Y-48094801D01*
X50702360Y-48073429D01*
X50827697Y-48065910D01*
X50968627Y-48076130D01*
G37*
G36*
X51924738Y-49250000D02*
G01*
X51924738Y-48013154D01*
X51443775Y-48013154D01*
X51443775Y-47725924D01*
X52814368Y-47725924D01*
X52814368Y-48013154D01*
X52333503Y-48013154D01*
X52333503Y-49250000D01*
X51924738Y-49250000D01*
G37*
G36*
X54110907Y-49250000D02*
G01*
X53726176Y-49250000D01*
X53726176Y-48678746D01*
X53720118Y-48539711D01*
X53710569Y-48475283D01*
X53697746Y-48437678D01*
X53673335Y-48403879D01*
X53640886Y-48381808D01*
X53600153Y-48369570D01*
X53541528Y-48364863D01*
X53494745Y-48368876D01*
X53446371Y-48381258D01*
X53398455Y-48401625D01*
X53343691Y-48433557D01*
X53343691Y-49250000D01*
X52961109Y-49250000D01*
X52961109Y-47655582D01*
X53343691Y-47655582D01*
X53343691Y-48224912D01*
X53438972Y-48156592D01*
X53526678Y-48107950D01*
X53619574Y-48076633D01*
X53724026Y-48065910D01*
X53816641Y-48073590D01*
X53893534Y-48095199D01*
X53957757Y-48129641D01*
X54011451Y-48177285D01*
X54052485Y-48234731D01*
X54083522Y-48305676D01*
X54103633Y-48392942D01*
X54110907Y-48499960D01*
X54110907Y-49250000D01*
G37*
G36*
X54777104Y-49250000D02*
G01*
X54394522Y-49250000D01*
X54394522Y-48101081D01*
X54777104Y-48101081D01*
X54777104Y-49250000D01*
G37*
G36*
X54788046Y-47936950D02*
G01*
X54383580Y-47936950D01*
X54383580Y-47655582D01*
X54788046Y-47655582D01*
X54788046Y-47936950D01*
G37*
G36*
X56219602Y-49250000D02*
G01*
X55834871Y-49250000D01*
X55834871Y-48678746D01*
X55828813Y-48539711D01*
X55819264Y-48475283D01*
X55806441Y-48437678D01*
X55782030Y-48403879D01*
X55749581Y-48381808D01*
X55708848Y-48369570D01*
X55650223Y-48364863D01*
X55603440Y-48368876D01*
X55555066Y-48381258D01*
X55507150Y-48401625D01*
X55452386Y-48433557D01*
X55452386Y-49250000D01*
X55069804Y-49250000D01*
X55069804Y-48101081D01*
X55452386Y-48101081D01*
X55452386Y-48224912D01*
X55547667Y-48156592D01*
X55635373Y-48107950D01*
X55728269Y-48076633D01*
X55832721Y-48065910D01*
X55925336Y-48073590D01*
X56002229Y-48095199D01*
X56066452Y-48129641D01*
X56120146Y-48177285D01*
X56161180Y-48234731D01*
X56192218Y-48305676D01*
X56212328Y-48392942D01*
X56219602Y-48499960D01*
X56219602Y-49250000D01*
G37*
G36*
X57021581Y-48072254D02*
G01*
X57098876Y-48090182D01*
X57170527Y-48118130D01*
X57234480Y-48152372D01*
X57248646Y-48101081D01*
X57619211Y-48101081D01*
X57619211Y-49118658D01*
X57613182Y-49224547D01*
X57596294Y-49314184D01*
X57569972Y-49389951D01*
X57531905Y-49460861D01*
X57487086Y-49518265D01*
X57435541Y-49563974D01*
X57343383Y-49617917D01*
X57231158Y-49655565D01*
X57108334Y-49676416D01*
X56966692Y-49683775D01*
X56845963Y-49679996D01*
X56734368Y-49669029D01*
X56543663Y-49635048D01*
X56543663Y-49349651D01*
X56588506Y-49349651D01*
X56655722Y-49370167D01*
X56733880Y-49390775D01*
X56825617Y-49407536D01*
X56917453Y-49414131D01*
X57010508Y-49408980D01*
X57079728Y-49395355D01*
X57138762Y-49371521D01*
X57177620Y-49342049D01*
X57205268Y-49303618D01*
X57223440Y-49258151D01*
X57232980Y-49206652D01*
X57236629Y-49136060D01*
X57236629Y-49114536D01*
X57167652Y-49162277D01*
X57087446Y-49200174D01*
X57001295Y-49224391D01*
X56913056Y-49232414D01*
X56796017Y-49222488D01*
X56697973Y-49194431D01*
X56615229Y-49149452D01*
X56545227Y-49086876D01*
X56492584Y-49012002D01*
X56452128Y-48916508D01*
X56425519Y-48795725D01*
X56416360Y-48653101D01*
X56807055Y-48653101D01*
X56809888Y-48725254D01*
X56817411Y-48780046D01*
X56832557Y-48829460D01*
X56856197Y-48871912D01*
X56887835Y-48906237D01*
X56927809Y-48930988D01*
X56975746Y-48945581D01*
X57040942Y-48951046D01*
X57091760Y-48946973D01*
X57142058Y-48934651D01*
X57190261Y-48914722D01*
X57236629Y-48887299D01*
X57236629Y-48364314D01*
X57166678Y-48343797D01*
X57083635Y-48335554D01*
X56996124Y-48345679D01*
X56928670Y-48373808D01*
X56876420Y-48419360D01*
X56839639Y-48478600D01*
X56815791Y-48554968D01*
X56807055Y-48653101D01*
X56416360Y-48653101D01*
X56415778Y-48644033D01*
X56426178Y-48513047D01*
X56455638Y-48401133D01*
X56504191Y-48300072D01*
X56566622Y-48217585D01*
X56641322Y-48153300D01*
X56730558Y-48105386D01*
X56828833Y-48075752D01*
X56930642Y-48065910D01*
X57021581Y-48072254D01*
G37*
G36*
X58610056Y-48716573D02*
G01*
X57885436Y-48716573D01*
X57885436Y-48435205D01*
X58610056Y-48435205D01*
X58610056Y-48716573D01*
G37*
G36*
X59478388Y-49279309D02*
G01*
X59330426Y-49270038D01*
X59200146Y-49243497D01*
X59118654Y-49214791D01*
X59045925Y-49177891D01*
X58981012Y-49132763D01*
X58924890Y-49079231D01*
X58877247Y-49016890D01*
X58837885Y-48944726D01*
X58810165Y-48867741D01*
X58792662Y-48779361D01*
X58786497Y-48677739D01*
X58793274Y-48568581D01*
X58812323Y-48475795D01*
X58842184Y-48396920D01*
X58884482Y-48323189D01*
X58934704Y-48260017D01*
X58993028Y-48206319D01*
X59057055Y-48163111D01*
X59128717Y-48127757D01*
X59208939Y-48100257D01*
X59335006Y-48074576D01*
X59467446Y-48065910D01*
X59568735Y-48071372D01*
X59670656Y-48087892D01*
X59771425Y-48115966D01*
X59875136Y-48157868D01*
X59875136Y-48464515D01*
X59825994Y-48464515D01*
X59769623Y-48419635D01*
X59696936Y-48374847D01*
X59602952Y-48338668D01*
X59548681Y-48327694D01*
X59486008Y-48323831D01*
X59414547Y-48330269D01*
X59354292Y-48348564D01*
X59302990Y-48378141D01*
X59259155Y-48419726D01*
X59216159Y-48487502D01*
X59188749Y-48572057D01*
X59178848Y-48677739D01*
X59185182Y-48765453D01*
X59202582Y-48835736D01*
X59229312Y-48891820D01*
X59264626Y-48936300D01*
X59327005Y-48982964D01*
X59401762Y-49011389D01*
X59492554Y-49021388D01*
X59562193Y-49017257D01*
X59619267Y-49005818D01*
X59671508Y-48988051D01*
X59713349Y-48968265D01*
X59778904Y-48922928D01*
X59825994Y-48880704D01*
X59875136Y-48880704D01*
X59875136Y-49189733D01*
X59799127Y-49220599D01*
X59711200Y-49249450D01*
X59606762Y-49271523D01*
X59478388Y-49279309D01*
G37*
G36*
X61013112Y-47706415D02*
G01*
X61123021Y-47722444D01*
X61123021Y-48024877D01*
X61093517Y-48024877D01*
X60999532Y-47994836D01*
X60931383Y-47982433D01*
X60849762Y-47977983D01*
X60754190Y-47984637D01*
X60674996Y-48003240D01*
X60609261Y-48032454D01*
X60554717Y-48071955D01*
X60496531Y-48140251D01*
X60453460Y-48228480D01*
X60426832Y-48341508D01*
X60508068Y-48297849D01*
X60589106Y-48264663D01*
X60675064Y-48243393D01*
X60775513Y-48235903D01*
X60861166Y-48241533D01*
X60939937Y-48257977D01*
X61013389Y-48285320D01*
X61077201Y-48322090D01*
X61128826Y-48365978D01*
X61173373Y-48418604D01*
X61211046Y-48481001D01*
X61237371Y-48548291D01*
X61254542Y-48631333D01*
X61260774Y-48733334D01*
X61249998Y-48851690D01*
X61218989Y-48955578D01*
X61168555Y-49047646D01*
X61097913Y-49129832D01*
X61011705Y-49196088D01*
X60910577Y-49244265D01*
X60791601Y-49274482D01*
X60650851Y-49285170D01*
X60513582Y-49275118D01*
X60397229Y-49246702D01*
X60325860Y-49216590D01*
X60263152Y-49178846D01*
X60208185Y-49133312D01*
X60152472Y-49070601D01*
X60105004Y-48995293D01*
X60066036Y-48905525D01*
X60039778Y-48811371D01*
X60022906Y-48700993D01*
X60019599Y-48630020D01*
X60422435Y-48630020D01*
X60429327Y-48755903D01*
X60446957Y-48843152D01*
X60476538Y-48917516D01*
X60508799Y-48965151D01*
X60539800Y-48994033D01*
X60573768Y-49012779D01*
X60611276Y-49023617D01*
X60650851Y-49027250D01*
X60683947Y-49023611D01*
X60721877Y-49011771D01*
X60757119Y-48992367D01*
X60786455Y-48965151D01*
X60814473Y-48926183D01*
X60835010Y-48884002D01*
X60847011Y-48834311D01*
X60852009Y-48751011D01*
X60846597Y-48680125D01*
X60832275Y-48628005D01*
X60807995Y-48583522D01*
X60776587Y-48550335D01*
X60738058Y-48525920D01*
X60694619Y-48510585D01*
X60597313Y-48499685D01*
X60509288Y-48510035D01*
X60424585Y-48535864D01*
X60423510Y-48570027D01*
X60422435Y-48630020D01*
X60019599Y-48630020D01*
X60016894Y-48571951D01*
X60022394Y-48438140D01*
X60038060Y-48319654D01*
X60062812Y-48214837D01*
X60100250Y-48113984D01*
X60150116Y-48022304D01*
X60212582Y-47938782D01*
X60284455Y-47869407D01*
X60370540Y-47810146D01*
X60472651Y-47760820D01*
X60581871Y-47726225D01*
X60707772Y-47704338D01*
X60853084Y-47696615D01*
X61013112Y-47706415D01*
G37*
D11*
X60884819Y-119916666D02*
X60408628Y-120249999D01*
X60884819Y-120488094D02*
X59884819Y-120488094D01*
X59884819Y-120488094D02*
X59884819Y-120107142D01*
X59884819Y-120107142D02*
X59932438Y-120011904D01*
X59932438Y-120011904D02*
X59980057Y-119964285D01*
X59980057Y-119964285D02*
X60075295Y-119916666D01*
X60075295Y-119916666D02*
X60218152Y-119916666D01*
X60218152Y-119916666D02*
X60313390Y-119964285D01*
X60313390Y-119964285D02*
X60361009Y-120011904D01*
X60361009Y-120011904D02*
X60408628Y-120107142D01*
X60408628Y-120107142D02*
X60408628Y-120488094D01*
X60218152Y-119059523D02*
X60884819Y-119059523D01*
X59837200Y-119297618D02*
X60551485Y-119535713D01*
X60551485Y-119535713D02*
X60551485Y-118916666D01*
X55833333Y-123859580D02*
X55785714Y-123907200D01*
X55785714Y-123907200D02*
X55642857Y-123954819D01*
X55642857Y-123954819D02*
X55547619Y-123954819D01*
X55547619Y-123954819D02*
X55404762Y-123907200D01*
X55404762Y-123907200D02*
X55309524Y-123811961D01*
X55309524Y-123811961D02*
X55261905Y-123716723D01*
X55261905Y-123716723D02*
X55214286Y-123526247D01*
X55214286Y-123526247D02*
X55214286Y-123383390D01*
X55214286Y-123383390D02*
X55261905Y-123192914D01*
X55261905Y-123192914D02*
X55309524Y-123097676D01*
X55309524Y-123097676D02*
X55404762Y-123002438D01*
X55404762Y-123002438D02*
X55547619Y-122954819D01*
X55547619Y-122954819D02*
X55642857Y-122954819D01*
X55642857Y-122954819D02*
X55785714Y-123002438D01*
X55785714Y-123002438D02*
X55833333Y-123050057D01*
X56785714Y-123954819D02*
X56214286Y-123954819D01*
X56500000Y-123954819D02*
X56500000Y-122954819D01*
X56500000Y-122954819D02*
X56404762Y-123097676D01*
X56404762Y-123097676D02*
X56309524Y-123192914D01*
X56309524Y-123192914D02*
X56214286Y-123240533D01*
X67315791Y-52571675D02*
X68022898Y-51864569D01*
X68022898Y-51864569D02*
X68191257Y-52032927D01*
X68191257Y-52032927D02*
X68258600Y-52167614D01*
X68258600Y-52167614D02*
X68258600Y-52302301D01*
X68258600Y-52302301D02*
X68224928Y-52403317D01*
X68224928Y-52403317D02*
X68123913Y-52571675D01*
X68123913Y-52571675D02*
X68022898Y-52672691D01*
X68022898Y-52672691D02*
X67854539Y-52773706D01*
X67854539Y-52773706D02*
X67753524Y-52807378D01*
X67753524Y-52807378D02*
X67618837Y-52807378D01*
X67618837Y-52807378D02*
X67484150Y-52740034D01*
X67484150Y-52740034D02*
X67315791Y-52571675D01*
X68797348Y-53110423D02*
X68325944Y-53581828D01*
X68898363Y-52672691D02*
X68224928Y-53009408D01*
X68224928Y-53009408D02*
X68662661Y-53447141D01*
X68404761Y-30300057D02*
X68309523Y-30252438D01*
X68309523Y-30252438D02*
X68214285Y-30157200D01*
X68214285Y-30157200D02*
X68071428Y-30014342D01*
X68071428Y-30014342D02*
X67976190Y-29966723D01*
X67976190Y-29966723D02*
X67880952Y-29966723D01*
X67928571Y-30204819D02*
X67833333Y-30157200D01*
X67833333Y-30157200D02*
X67738095Y-30061961D01*
X67738095Y-30061961D02*
X67690476Y-29871485D01*
X67690476Y-29871485D02*
X67690476Y-29538152D01*
X67690476Y-29538152D02*
X67738095Y-29347676D01*
X67738095Y-29347676D02*
X67833333Y-29252438D01*
X67833333Y-29252438D02*
X67928571Y-29204819D01*
X67928571Y-29204819D02*
X68119047Y-29204819D01*
X68119047Y-29204819D02*
X68214285Y-29252438D01*
X68214285Y-29252438D02*
X68309523Y-29347676D01*
X68309523Y-29347676D02*
X68357142Y-29538152D01*
X68357142Y-29538152D02*
X68357142Y-29871485D01*
X68357142Y-29871485D02*
X68309523Y-30061961D01*
X68309523Y-30061961D02*
X68214285Y-30157200D01*
X68214285Y-30157200D02*
X68119047Y-30204819D01*
X68119047Y-30204819D02*
X67928571Y-30204819D01*
X69309523Y-30204819D02*
X68738095Y-30204819D01*
X69023809Y-30204819D02*
X69023809Y-29204819D01*
X69023809Y-29204819D02*
X68928571Y-29347676D01*
X68928571Y-29347676D02*
X68833333Y-29442914D01*
X68833333Y-29442914D02*
X68738095Y-29490533D01*
X36600057Y-140407738D02*
X36552438Y-140502976D01*
X36552438Y-140502976D02*
X36457200Y-140598214D01*
X36457200Y-140598214D02*
X36314342Y-140741071D01*
X36314342Y-140741071D02*
X36266723Y-140836309D01*
X36266723Y-140836309D02*
X36266723Y-140931547D01*
X36504819Y-140883928D02*
X36457200Y-140979166D01*
X36457200Y-140979166D02*
X36361961Y-141074404D01*
X36361961Y-141074404D02*
X36171485Y-141122023D01*
X36171485Y-141122023D02*
X35838152Y-141122023D01*
X35838152Y-141122023D02*
X35647676Y-141074404D01*
X35647676Y-141074404D02*
X35552438Y-140979166D01*
X35552438Y-140979166D02*
X35504819Y-140883928D01*
X35504819Y-140883928D02*
X35504819Y-140693452D01*
X35504819Y-140693452D02*
X35552438Y-140598214D01*
X35552438Y-140598214D02*
X35647676Y-140502976D01*
X35647676Y-140502976D02*
X35838152Y-140455357D01*
X35838152Y-140455357D02*
X36171485Y-140455357D01*
X36171485Y-140455357D02*
X36361961Y-140502976D01*
X36361961Y-140502976D02*
X36457200Y-140598214D01*
X36457200Y-140598214D02*
X36504819Y-140693452D01*
X36504819Y-140693452D02*
X36504819Y-140883928D01*
X35504819Y-140122023D02*
X35504819Y-139502976D01*
X35504819Y-139502976D02*
X35885771Y-139836309D01*
X35885771Y-139836309D02*
X35885771Y-139693452D01*
X35885771Y-139693452D02*
X35933390Y-139598214D01*
X35933390Y-139598214D02*
X35981009Y-139550595D01*
X35981009Y-139550595D02*
X36076247Y-139502976D01*
X36076247Y-139502976D02*
X36314342Y-139502976D01*
X36314342Y-139502976D02*
X36409580Y-139550595D01*
X36409580Y-139550595D02*
X36457200Y-139598214D01*
X36457200Y-139598214D02*
X36504819Y-139693452D01*
X36504819Y-139693452D02*
X36504819Y-139979166D01*
X36504819Y-139979166D02*
X36457200Y-140074404D01*
X36457200Y-140074404D02*
X36409580Y-140122023D01*
X63886476Y-103853200D02*
X64029333Y-103900819D01*
X64029333Y-103900819D02*
X64267428Y-103900819D01*
X64267428Y-103900819D02*
X64362666Y-103853200D01*
X64362666Y-103853200D02*
X64410285Y-103805580D01*
X64410285Y-103805580D02*
X64457904Y-103710342D01*
X64457904Y-103710342D02*
X64457904Y-103615104D01*
X64457904Y-103615104D02*
X64410285Y-103519866D01*
X64410285Y-103519866D02*
X64362666Y-103472247D01*
X64362666Y-103472247D02*
X64267428Y-103424628D01*
X64267428Y-103424628D02*
X64076952Y-103377009D01*
X64076952Y-103377009D02*
X63981714Y-103329390D01*
X63981714Y-103329390D02*
X63934095Y-103281771D01*
X63934095Y-103281771D02*
X63886476Y-103186533D01*
X63886476Y-103186533D02*
X63886476Y-103091295D01*
X63886476Y-103091295D02*
X63934095Y-102996057D01*
X63934095Y-102996057D02*
X63981714Y-102948438D01*
X63981714Y-102948438D02*
X64076952Y-102900819D01*
X64076952Y-102900819D02*
X64315047Y-102900819D01*
X64315047Y-102900819D02*
X64457904Y-102948438D01*
X64791238Y-102900819D02*
X65029333Y-103900819D01*
X65029333Y-103900819D02*
X65219809Y-103186533D01*
X65219809Y-103186533D02*
X65410285Y-103900819D01*
X65410285Y-103900819D02*
X65648381Y-102900819D01*
X66553142Y-103900819D02*
X65981714Y-103900819D01*
X66267428Y-103900819D02*
X66267428Y-102900819D01*
X66267428Y-102900819D02*
X66172190Y-103043676D01*
X66172190Y-103043676D02*
X66076952Y-103138914D01*
X66076952Y-103138914D02*
X65981714Y-103186533D01*
X67172190Y-102900819D02*
X67267428Y-102900819D01*
X67267428Y-102900819D02*
X67362666Y-102948438D01*
X67362666Y-102948438D02*
X67410285Y-102996057D01*
X67410285Y-102996057D02*
X67457904Y-103091295D01*
X67457904Y-103091295D02*
X67505523Y-103281771D01*
X67505523Y-103281771D02*
X67505523Y-103519866D01*
X67505523Y-103519866D02*
X67457904Y-103710342D01*
X67457904Y-103710342D02*
X67410285Y-103805580D01*
X67410285Y-103805580D02*
X67362666Y-103853200D01*
X67362666Y-103853200D02*
X67267428Y-103900819D01*
X67267428Y-103900819D02*
X67172190Y-103900819D01*
X67172190Y-103900819D02*
X67076952Y-103853200D01*
X67076952Y-103853200D02*
X67029333Y-103805580D01*
X67029333Y-103805580D02*
X66981714Y-103710342D01*
X66981714Y-103710342D02*
X66934095Y-103519866D01*
X66934095Y-103519866D02*
X66934095Y-103281771D01*
X66934095Y-103281771D02*
X66981714Y-103091295D01*
X66981714Y-103091295D02*
X67029333Y-102996057D01*
X67029333Y-102996057D02*
X67076952Y-102948438D01*
X67076952Y-102948438D02*
X67172190Y-102900819D01*
X64362667Y-116299200D02*
X64505524Y-116346819D01*
X64505524Y-116346819D02*
X64743619Y-116346819D01*
X64743619Y-116346819D02*
X64838857Y-116299200D01*
X64838857Y-116299200D02*
X64886476Y-116251580D01*
X64886476Y-116251580D02*
X64934095Y-116156342D01*
X64934095Y-116156342D02*
X64934095Y-116061104D01*
X64934095Y-116061104D02*
X64886476Y-115965866D01*
X64886476Y-115965866D02*
X64838857Y-115918247D01*
X64838857Y-115918247D02*
X64743619Y-115870628D01*
X64743619Y-115870628D02*
X64553143Y-115823009D01*
X64553143Y-115823009D02*
X64457905Y-115775390D01*
X64457905Y-115775390D02*
X64410286Y-115727771D01*
X64410286Y-115727771D02*
X64362667Y-115632533D01*
X64362667Y-115632533D02*
X64362667Y-115537295D01*
X64362667Y-115537295D02*
X64410286Y-115442057D01*
X64410286Y-115442057D02*
X64457905Y-115394438D01*
X64457905Y-115394438D02*
X64553143Y-115346819D01*
X64553143Y-115346819D02*
X64791238Y-115346819D01*
X64791238Y-115346819D02*
X64934095Y-115394438D01*
X65267429Y-115346819D02*
X65505524Y-116346819D01*
X65505524Y-116346819D02*
X65696000Y-115632533D01*
X65696000Y-115632533D02*
X65886476Y-116346819D01*
X65886476Y-116346819D02*
X66124572Y-115346819D01*
X66553143Y-116346819D02*
X66743619Y-116346819D01*
X66743619Y-116346819D02*
X66838857Y-116299200D01*
X66838857Y-116299200D02*
X66886476Y-116251580D01*
X66886476Y-116251580D02*
X66981714Y-116108723D01*
X66981714Y-116108723D02*
X67029333Y-115918247D01*
X67029333Y-115918247D02*
X67029333Y-115537295D01*
X67029333Y-115537295D02*
X66981714Y-115442057D01*
X66981714Y-115442057D02*
X66934095Y-115394438D01*
X66934095Y-115394438D02*
X66838857Y-115346819D01*
X66838857Y-115346819D02*
X66648381Y-115346819D01*
X66648381Y-115346819D02*
X66553143Y-115394438D01*
X66553143Y-115394438D02*
X66505524Y-115442057D01*
X66505524Y-115442057D02*
X66457905Y-115537295D01*
X66457905Y-115537295D02*
X66457905Y-115775390D01*
X66457905Y-115775390D02*
X66505524Y-115870628D01*
X66505524Y-115870628D02*
X66553143Y-115918247D01*
X66553143Y-115918247D02*
X66648381Y-115965866D01*
X66648381Y-115965866D02*
X66838857Y-115965866D01*
X66838857Y-115965866D02*
X66934095Y-115918247D01*
X66934095Y-115918247D02*
X66981714Y-115870628D01*
X66981714Y-115870628D02*
X67029333Y-115775390D01*
X48359580Y-35416666D02*
X48407200Y-35464285D01*
X48407200Y-35464285D02*
X48454819Y-35607142D01*
X48454819Y-35607142D02*
X48454819Y-35702380D01*
X48454819Y-35702380D02*
X48407200Y-35845237D01*
X48407200Y-35845237D02*
X48311961Y-35940475D01*
X48311961Y-35940475D02*
X48216723Y-35988094D01*
X48216723Y-35988094D02*
X48026247Y-36035713D01*
X48026247Y-36035713D02*
X47883390Y-36035713D01*
X47883390Y-36035713D02*
X47692914Y-35988094D01*
X47692914Y-35988094D02*
X47597676Y-35940475D01*
X47597676Y-35940475D02*
X47502438Y-35845237D01*
X47502438Y-35845237D02*
X47454819Y-35702380D01*
X47454819Y-35702380D02*
X47454819Y-35607142D01*
X47454819Y-35607142D02*
X47502438Y-35464285D01*
X47502438Y-35464285D02*
X47550057Y-35416666D01*
X47454819Y-35083332D02*
X47454819Y-34464285D01*
X47454819Y-34464285D02*
X47835771Y-34797618D01*
X47835771Y-34797618D02*
X47835771Y-34654761D01*
X47835771Y-34654761D02*
X47883390Y-34559523D01*
X47883390Y-34559523D02*
X47931009Y-34511904D01*
X47931009Y-34511904D02*
X48026247Y-34464285D01*
X48026247Y-34464285D02*
X48264342Y-34464285D01*
X48264342Y-34464285D02*
X48359580Y-34511904D01*
X48359580Y-34511904D02*
X48407200Y-34559523D01*
X48407200Y-34559523D02*
X48454819Y-34654761D01*
X48454819Y-34654761D02*
X48454819Y-34940475D01*
X48454819Y-34940475D02*
X48407200Y-35035713D01*
X48407200Y-35035713D02*
X48359580Y-35083332D01*
X39470667Y-116299200D02*
X39613524Y-116346819D01*
X39613524Y-116346819D02*
X39851619Y-116346819D01*
X39851619Y-116346819D02*
X39946857Y-116299200D01*
X39946857Y-116299200D02*
X39994476Y-116251580D01*
X39994476Y-116251580D02*
X40042095Y-116156342D01*
X40042095Y-116156342D02*
X40042095Y-116061104D01*
X40042095Y-116061104D02*
X39994476Y-115965866D01*
X39994476Y-115965866D02*
X39946857Y-115918247D01*
X39946857Y-115918247D02*
X39851619Y-115870628D01*
X39851619Y-115870628D02*
X39661143Y-115823009D01*
X39661143Y-115823009D02*
X39565905Y-115775390D01*
X39565905Y-115775390D02*
X39518286Y-115727771D01*
X39518286Y-115727771D02*
X39470667Y-115632533D01*
X39470667Y-115632533D02*
X39470667Y-115537295D01*
X39470667Y-115537295D02*
X39518286Y-115442057D01*
X39518286Y-115442057D02*
X39565905Y-115394438D01*
X39565905Y-115394438D02*
X39661143Y-115346819D01*
X39661143Y-115346819D02*
X39899238Y-115346819D01*
X39899238Y-115346819D02*
X40042095Y-115394438D01*
X40375429Y-115346819D02*
X40613524Y-116346819D01*
X40613524Y-116346819D02*
X40804000Y-115632533D01*
X40804000Y-115632533D02*
X40994476Y-116346819D01*
X40994476Y-116346819D02*
X41232572Y-115346819D01*
X42089714Y-115346819D02*
X41613524Y-115346819D01*
X41613524Y-115346819D02*
X41565905Y-115823009D01*
X41565905Y-115823009D02*
X41613524Y-115775390D01*
X41613524Y-115775390D02*
X41708762Y-115727771D01*
X41708762Y-115727771D02*
X41946857Y-115727771D01*
X41946857Y-115727771D02*
X42042095Y-115775390D01*
X42042095Y-115775390D02*
X42089714Y-115823009D01*
X42089714Y-115823009D02*
X42137333Y-115918247D01*
X42137333Y-115918247D02*
X42137333Y-116156342D01*
X42137333Y-116156342D02*
X42089714Y-116251580D01*
X42089714Y-116251580D02*
X42042095Y-116299200D01*
X42042095Y-116299200D02*
X41946857Y-116346819D01*
X41946857Y-116346819D02*
X41708762Y-116346819D01*
X41708762Y-116346819D02*
X41613524Y-116299200D01*
X41613524Y-116299200D02*
X41565905Y-116251580D01*
X39416667Y-44843200D02*
X39559524Y-44890819D01*
X39559524Y-44890819D02*
X39797619Y-44890819D01*
X39797619Y-44890819D02*
X39892857Y-44843200D01*
X39892857Y-44843200D02*
X39940476Y-44795580D01*
X39940476Y-44795580D02*
X39988095Y-44700342D01*
X39988095Y-44700342D02*
X39988095Y-44605104D01*
X39988095Y-44605104D02*
X39940476Y-44509866D01*
X39940476Y-44509866D02*
X39892857Y-44462247D01*
X39892857Y-44462247D02*
X39797619Y-44414628D01*
X39797619Y-44414628D02*
X39607143Y-44367009D01*
X39607143Y-44367009D02*
X39511905Y-44319390D01*
X39511905Y-44319390D02*
X39464286Y-44271771D01*
X39464286Y-44271771D02*
X39416667Y-44176533D01*
X39416667Y-44176533D02*
X39416667Y-44081295D01*
X39416667Y-44081295D02*
X39464286Y-43986057D01*
X39464286Y-43986057D02*
X39511905Y-43938438D01*
X39511905Y-43938438D02*
X39607143Y-43890819D01*
X39607143Y-43890819D02*
X39845238Y-43890819D01*
X39845238Y-43890819D02*
X39988095Y-43938438D01*
X40321429Y-43890819D02*
X40559524Y-44890819D01*
X40559524Y-44890819D02*
X40750000Y-44176533D01*
X40750000Y-44176533D02*
X40940476Y-44890819D01*
X40940476Y-44890819D02*
X41178572Y-43890819D01*
X41511905Y-43986057D02*
X41559524Y-43938438D01*
X41559524Y-43938438D02*
X41654762Y-43890819D01*
X41654762Y-43890819D02*
X41892857Y-43890819D01*
X41892857Y-43890819D02*
X41988095Y-43938438D01*
X41988095Y-43938438D02*
X42035714Y-43986057D01*
X42035714Y-43986057D02*
X42083333Y-44081295D01*
X42083333Y-44081295D02*
X42083333Y-44176533D01*
X42083333Y-44176533D02*
X42035714Y-44319390D01*
X42035714Y-44319390D02*
X41464286Y-44890819D01*
X41464286Y-44890819D02*
X42083333Y-44890819D01*
X51916667Y-103853200D02*
X52059524Y-103900819D01*
X52059524Y-103900819D02*
X52297619Y-103900819D01*
X52297619Y-103900819D02*
X52392857Y-103853200D01*
X52392857Y-103853200D02*
X52440476Y-103805580D01*
X52440476Y-103805580D02*
X52488095Y-103710342D01*
X52488095Y-103710342D02*
X52488095Y-103615104D01*
X52488095Y-103615104D02*
X52440476Y-103519866D01*
X52440476Y-103519866D02*
X52392857Y-103472247D01*
X52392857Y-103472247D02*
X52297619Y-103424628D01*
X52297619Y-103424628D02*
X52107143Y-103377009D01*
X52107143Y-103377009D02*
X52011905Y-103329390D01*
X52011905Y-103329390D02*
X51964286Y-103281771D01*
X51964286Y-103281771D02*
X51916667Y-103186533D01*
X51916667Y-103186533D02*
X51916667Y-103091295D01*
X51916667Y-103091295D02*
X51964286Y-102996057D01*
X51964286Y-102996057D02*
X52011905Y-102948438D01*
X52011905Y-102948438D02*
X52107143Y-102900819D01*
X52107143Y-102900819D02*
X52345238Y-102900819D01*
X52345238Y-102900819D02*
X52488095Y-102948438D01*
X52821429Y-102900819D02*
X53059524Y-103900819D01*
X53059524Y-103900819D02*
X53250000Y-103186533D01*
X53250000Y-103186533D02*
X53440476Y-103900819D01*
X53440476Y-103900819D02*
X53678572Y-102900819D01*
X53964286Y-102900819D02*
X54630952Y-102900819D01*
X54630952Y-102900819D02*
X54202381Y-103900819D01*
X69258333Y-156954819D02*
X68925000Y-156478628D01*
X68686905Y-156954819D02*
X68686905Y-155954819D01*
X68686905Y-155954819D02*
X69067857Y-155954819D01*
X69067857Y-155954819D02*
X69163095Y-156002438D01*
X69163095Y-156002438D02*
X69210714Y-156050057D01*
X69210714Y-156050057D02*
X69258333Y-156145295D01*
X69258333Y-156145295D02*
X69258333Y-156288152D01*
X69258333Y-156288152D02*
X69210714Y-156383390D01*
X69210714Y-156383390D02*
X69163095Y-156431009D01*
X69163095Y-156431009D02*
X69067857Y-156478628D01*
X69067857Y-156478628D02*
X68686905Y-156478628D01*
X69734524Y-156954819D02*
X69925000Y-156954819D01*
X69925000Y-156954819D02*
X70020238Y-156907200D01*
X70020238Y-156907200D02*
X70067857Y-156859580D01*
X70067857Y-156859580D02*
X70163095Y-156716723D01*
X70163095Y-156716723D02*
X70210714Y-156526247D01*
X70210714Y-156526247D02*
X70210714Y-156145295D01*
X70210714Y-156145295D02*
X70163095Y-156050057D01*
X70163095Y-156050057D02*
X70115476Y-156002438D01*
X70115476Y-156002438D02*
X70020238Y-155954819D01*
X70020238Y-155954819D02*
X69829762Y-155954819D01*
X69829762Y-155954819D02*
X69734524Y-156002438D01*
X69734524Y-156002438D02*
X69686905Y-156050057D01*
X69686905Y-156050057D02*
X69639286Y-156145295D01*
X69639286Y-156145295D02*
X69639286Y-156383390D01*
X69639286Y-156383390D02*
X69686905Y-156478628D01*
X69686905Y-156478628D02*
X69734524Y-156526247D01*
X69734524Y-156526247D02*
X69829762Y-156573866D01*
X69829762Y-156573866D02*
X70020238Y-156573866D01*
X70020238Y-156573866D02*
X70115476Y-156526247D01*
X70115476Y-156526247D02*
X70163095Y-156478628D01*
X70163095Y-156478628D02*
X70210714Y-156383390D01*
X65261905Y-30704819D02*
X65261905Y-29704819D01*
X65261905Y-29704819D02*
X65500000Y-29704819D01*
X65500000Y-29704819D02*
X65642857Y-29752438D01*
X65642857Y-29752438D02*
X65738095Y-29847676D01*
X65738095Y-29847676D02*
X65785714Y-29942914D01*
X65785714Y-29942914D02*
X65833333Y-30133390D01*
X65833333Y-30133390D02*
X65833333Y-30276247D01*
X65833333Y-30276247D02*
X65785714Y-30466723D01*
X65785714Y-30466723D02*
X65738095Y-30561961D01*
X65738095Y-30561961D02*
X65642857Y-30657200D01*
X65642857Y-30657200D02*
X65500000Y-30704819D01*
X65500000Y-30704819D02*
X65261905Y-30704819D01*
X66785714Y-30704819D02*
X66214286Y-30704819D01*
X66500000Y-30704819D02*
X66500000Y-29704819D01*
X66500000Y-29704819D02*
X66404762Y-29847676D01*
X66404762Y-29847676D02*
X66309524Y-29942914D01*
X66309524Y-29942914D02*
X66214286Y-29990533D01*
X61607142Y-34565700D02*
X62292857Y-34565700D01*
X61949999Y-34908557D02*
X61949999Y-34222842D01*
X64157142Y-34565700D02*
X64842857Y-34565700D01*
X39413577Y-103879200D02*
X39556434Y-103926819D01*
X39556434Y-103926819D02*
X39794529Y-103926819D01*
X39794529Y-103926819D02*
X39889767Y-103879200D01*
X39889767Y-103879200D02*
X39937386Y-103831580D01*
X39937386Y-103831580D02*
X39985005Y-103736342D01*
X39985005Y-103736342D02*
X39985005Y-103641104D01*
X39985005Y-103641104D02*
X39937386Y-103545866D01*
X39937386Y-103545866D02*
X39889767Y-103498247D01*
X39889767Y-103498247D02*
X39794529Y-103450628D01*
X39794529Y-103450628D02*
X39604053Y-103403009D01*
X39604053Y-103403009D02*
X39508815Y-103355390D01*
X39508815Y-103355390D02*
X39461196Y-103307771D01*
X39461196Y-103307771D02*
X39413577Y-103212533D01*
X39413577Y-103212533D02*
X39413577Y-103117295D01*
X39413577Y-103117295D02*
X39461196Y-103022057D01*
X39461196Y-103022057D02*
X39508815Y-102974438D01*
X39508815Y-102974438D02*
X39604053Y-102926819D01*
X39604053Y-102926819D02*
X39842148Y-102926819D01*
X39842148Y-102926819D02*
X39985005Y-102974438D01*
X40318339Y-102926819D02*
X40556434Y-103926819D01*
X40556434Y-103926819D02*
X40746910Y-103212533D01*
X40746910Y-103212533D02*
X40937386Y-103926819D01*
X40937386Y-103926819D02*
X41175482Y-102926819D01*
X41985005Y-103260152D02*
X41985005Y-103926819D01*
X41746910Y-102879200D02*
X41508815Y-103593485D01*
X41508815Y-103593485D02*
X42127862Y-103593485D01*
X68049693Y-83593517D02*
X67342587Y-82886410D01*
X67342587Y-82886410D02*
X67510945Y-82718051D01*
X67510945Y-82718051D02*
X67645632Y-82650708D01*
X67645632Y-82650708D02*
X67780319Y-82650708D01*
X67780319Y-82650708D02*
X67881335Y-82684380D01*
X67881335Y-82684380D02*
X68049693Y-82785395D01*
X68049693Y-82785395D02*
X68150709Y-82886410D01*
X68150709Y-82886410D02*
X68251724Y-83054769D01*
X68251724Y-83054769D02*
X68285396Y-83155784D01*
X68285396Y-83155784D02*
X68285396Y-83290471D01*
X68285396Y-83290471D02*
X68218052Y-83425158D01*
X68218052Y-83425158D02*
X68049693Y-83593517D01*
X68386411Y-81842586D02*
X68049693Y-82179303D01*
X68049693Y-82179303D02*
X68352739Y-82549693D01*
X68352739Y-82549693D02*
X68352739Y-82482349D01*
X68352739Y-82482349D02*
X68386411Y-82381334D01*
X68386411Y-82381334D02*
X68554770Y-82212975D01*
X68554770Y-82212975D02*
X68655785Y-82179303D01*
X68655785Y-82179303D02*
X68723128Y-82179303D01*
X68723128Y-82179303D02*
X68824144Y-82212975D01*
X68824144Y-82212975D02*
X68992502Y-82381334D01*
X68992502Y-82381334D02*
X69026174Y-82482349D01*
X69026174Y-82482349D02*
X69026174Y-82549693D01*
X69026174Y-82549693D02*
X68992502Y-82650708D01*
X68992502Y-82650708D02*
X68824144Y-82819067D01*
X68824144Y-82819067D02*
X68723128Y-82852738D01*
X68723128Y-82852738D02*
X68655785Y-82852738D01*
X64380667Y-44843200D02*
X64523524Y-44890819D01*
X64523524Y-44890819D02*
X64761619Y-44890819D01*
X64761619Y-44890819D02*
X64856857Y-44843200D01*
X64856857Y-44843200D02*
X64904476Y-44795580D01*
X64904476Y-44795580D02*
X64952095Y-44700342D01*
X64952095Y-44700342D02*
X64952095Y-44605104D01*
X64952095Y-44605104D02*
X64904476Y-44509866D01*
X64904476Y-44509866D02*
X64856857Y-44462247D01*
X64856857Y-44462247D02*
X64761619Y-44414628D01*
X64761619Y-44414628D02*
X64571143Y-44367009D01*
X64571143Y-44367009D02*
X64475905Y-44319390D01*
X64475905Y-44319390D02*
X64428286Y-44271771D01*
X64428286Y-44271771D02*
X64380667Y-44176533D01*
X64380667Y-44176533D02*
X64380667Y-44081295D01*
X64380667Y-44081295D02*
X64428286Y-43986057D01*
X64428286Y-43986057D02*
X64475905Y-43938438D01*
X64475905Y-43938438D02*
X64571143Y-43890819D01*
X64571143Y-43890819D02*
X64809238Y-43890819D01*
X64809238Y-43890819D02*
X64952095Y-43938438D01*
X65285429Y-43890819D02*
X65523524Y-44890819D01*
X65523524Y-44890819D02*
X65714000Y-44176533D01*
X65714000Y-44176533D02*
X65904476Y-44890819D01*
X65904476Y-44890819D02*
X66142572Y-43890819D01*
X67047333Y-44890819D02*
X66475905Y-44890819D01*
X66761619Y-44890819D02*
X66761619Y-43890819D01*
X66761619Y-43890819D02*
X66666381Y-44033676D01*
X66666381Y-44033676D02*
X66571143Y-44128914D01*
X66571143Y-44128914D02*
X66475905Y-44176533D01*
X36524819Y-144642857D02*
X36048628Y-144976190D01*
X36524819Y-145214285D02*
X35524819Y-145214285D01*
X35524819Y-145214285D02*
X35524819Y-144833333D01*
X35524819Y-144833333D02*
X35572438Y-144738095D01*
X35572438Y-144738095D02*
X35620057Y-144690476D01*
X35620057Y-144690476D02*
X35715295Y-144642857D01*
X35715295Y-144642857D02*
X35858152Y-144642857D01*
X35858152Y-144642857D02*
X35953390Y-144690476D01*
X35953390Y-144690476D02*
X36001009Y-144738095D01*
X36001009Y-144738095D02*
X36048628Y-144833333D01*
X36048628Y-144833333D02*
X36048628Y-145214285D01*
X36524819Y-143690476D02*
X36524819Y-144261904D01*
X36524819Y-143976190D02*
X35524819Y-143976190D01*
X35524819Y-143976190D02*
X35667676Y-144071428D01*
X35667676Y-144071428D02*
X35762914Y-144166666D01*
X35762914Y-144166666D02*
X35810533Y-144261904D01*
X36524819Y-142738095D02*
X36524819Y-143309523D01*
X36524819Y-143023809D02*
X35524819Y-143023809D01*
X35524819Y-143023809D02*
X35667676Y-143119047D01*
X35667676Y-143119047D02*
X35762914Y-143214285D01*
X35762914Y-143214285D02*
X35810533Y-143309523D01*
X63886476Y-91407200D02*
X64029333Y-91454819D01*
X64029333Y-91454819D02*
X64267428Y-91454819D01*
X64267428Y-91454819D02*
X64362666Y-91407200D01*
X64362666Y-91407200D02*
X64410285Y-91359580D01*
X64410285Y-91359580D02*
X64457904Y-91264342D01*
X64457904Y-91264342D02*
X64457904Y-91169104D01*
X64457904Y-91169104D02*
X64410285Y-91073866D01*
X64410285Y-91073866D02*
X64362666Y-91026247D01*
X64362666Y-91026247D02*
X64267428Y-90978628D01*
X64267428Y-90978628D02*
X64076952Y-90931009D01*
X64076952Y-90931009D02*
X63981714Y-90883390D01*
X63981714Y-90883390D02*
X63934095Y-90835771D01*
X63934095Y-90835771D02*
X63886476Y-90740533D01*
X63886476Y-90740533D02*
X63886476Y-90645295D01*
X63886476Y-90645295D02*
X63934095Y-90550057D01*
X63934095Y-90550057D02*
X63981714Y-90502438D01*
X63981714Y-90502438D02*
X64076952Y-90454819D01*
X64076952Y-90454819D02*
X64315047Y-90454819D01*
X64315047Y-90454819D02*
X64457904Y-90502438D01*
X64791238Y-90454819D02*
X65029333Y-91454819D01*
X65029333Y-91454819D02*
X65219809Y-90740533D01*
X65219809Y-90740533D02*
X65410285Y-91454819D01*
X65410285Y-91454819D02*
X65648381Y-90454819D01*
X66553142Y-91454819D02*
X65981714Y-91454819D01*
X66267428Y-91454819D02*
X66267428Y-90454819D01*
X66267428Y-90454819D02*
X66172190Y-90597676D01*
X66172190Y-90597676D02*
X66076952Y-90692914D01*
X66076952Y-90692914D02*
X65981714Y-90740533D01*
X67505523Y-91454819D02*
X66934095Y-91454819D01*
X67219809Y-91454819D02*
X67219809Y-90454819D01*
X67219809Y-90454819D02*
X67124571Y-90597676D01*
X67124571Y-90597676D02*
X67029333Y-90692914D01*
X67029333Y-90692914D02*
X66934095Y-90740533D01*
X52522095Y-125068819D02*
X52522095Y-125878342D01*
X52522095Y-125878342D02*
X52569714Y-125973580D01*
X52569714Y-125973580D02*
X52617333Y-126021200D01*
X52617333Y-126021200D02*
X52712571Y-126068819D01*
X52712571Y-126068819D02*
X52903047Y-126068819D01*
X52903047Y-126068819D02*
X52998285Y-126021200D01*
X52998285Y-126021200D02*
X53045904Y-125973580D01*
X53045904Y-125973580D02*
X53093523Y-125878342D01*
X53093523Y-125878342D02*
X53093523Y-125068819D01*
X53474476Y-125068819D02*
X54093523Y-125068819D01*
X54093523Y-125068819D02*
X53760190Y-125449771D01*
X53760190Y-125449771D02*
X53903047Y-125449771D01*
X53903047Y-125449771D02*
X53998285Y-125497390D01*
X53998285Y-125497390D02*
X54045904Y-125545009D01*
X54045904Y-125545009D02*
X54093523Y-125640247D01*
X54093523Y-125640247D02*
X54093523Y-125878342D01*
X54093523Y-125878342D02*
X54045904Y-125973580D01*
X54045904Y-125973580D02*
X53998285Y-126021200D01*
X53998285Y-126021200D02*
X53903047Y-126068819D01*
X53903047Y-126068819D02*
X53617333Y-126068819D01*
X53617333Y-126068819D02*
X53522095Y-126021200D01*
X53522095Y-126021200D02*
X53474476Y-125973580D01*
X37406482Y-82799693D02*
X38113589Y-82092587D01*
X38113589Y-82092587D02*
X38281948Y-82260945D01*
X38281948Y-82260945D02*
X38349291Y-82395632D01*
X38349291Y-82395632D02*
X38349291Y-82530319D01*
X38349291Y-82530319D02*
X38315619Y-82631335D01*
X38315619Y-82631335D02*
X38214604Y-82799693D01*
X38214604Y-82799693D02*
X38113589Y-82900709D01*
X38113589Y-82900709D02*
X37945230Y-83001724D01*
X37945230Y-83001724D02*
X37844215Y-83035396D01*
X37844215Y-83035396D02*
X37709528Y-83035396D01*
X37709528Y-83035396D02*
X37574841Y-82968052D01*
X37574841Y-82968052D02*
X37406482Y-82799693D01*
X38719680Y-82833365D02*
X38787024Y-82833365D01*
X38787024Y-82833365D02*
X38888039Y-82867037D01*
X38888039Y-82867037D02*
X39056398Y-83035396D01*
X39056398Y-83035396D02*
X39090070Y-83136411D01*
X39090070Y-83136411D02*
X39090070Y-83203754D01*
X39090070Y-83203754D02*
X39056398Y-83304770D01*
X39056398Y-83304770D02*
X38989054Y-83372113D01*
X38989054Y-83372113D02*
X38854367Y-83439457D01*
X38854367Y-83439457D02*
X38046245Y-83439457D01*
X38046245Y-83439457D02*
X38483978Y-83877189D01*
X68024819Y-35916666D02*
X67548628Y-36249999D01*
X68024819Y-36488094D02*
X67024819Y-36488094D01*
X67024819Y-36488094D02*
X67024819Y-36107142D01*
X67024819Y-36107142D02*
X67072438Y-36011904D01*
X67072438Y-36011904D02*
X67120057Y-35964285D01*
X67120057Y-35964285D02*
X67215295Y-35916666D01*
X67215295Y-35916666D02*
X67358152Y-35916666D01*
X67358152Y-35916666D02*
X67453390Y-35964285D01*
X67453390Y-35964285D02*
X67501009Y-36011904D01*
X67501009Y-36011904D02*
X67548628Y-36107142D01*
X67548628Y-36107142D02*
X67548628Y-36488094D01*
X68024819Y-34964285D02*
X68024819Y-35535713D01*
X68024819Y-35249999D02*
X67024819Y-35249999D01*
X67024819Y-35249999D02*
X67167676Y-35345237D01*
X67167676Y-35345237D02*
X67262914Y-35440475D01*
X67262914Y-35440475D02*
X67310533Y-35535713D01*
X51916667Y-116299200D02*
X52059524Y-116346819D01*
X52059524Y-116346819D02*
X52297619Y-116346819D01*
X52297619Y-116346819D02*
X52392857Y-116299200D01*
X52392857Y-116299200D02*
X52440476Y-116251580D01*
X52440476Y-116251580D02*
X52488095Y-116156342D01*
X52488095Y-116156342D02*
X52488095Y-116061104D01*
X52488095Y-116061104D02*
X52440476Y-115965866D01*
X52440476Y-115965866D02*
X52392857Y-115918247D01*
X52392857Y-115918247D02*
X52297619Y-115870628D01*
X52297619Y-115870628D02*
X52107143Y-115823009D01*
X52107143Y-115823009D02*
X52011905Y-115775390D01*
X52011905Y-115775390D02*
X51964286Y-115727771D01*
X51964286Y-115727771D02*
X51916667Y-115632533D01*
X51916667Y-115632533D02*
X51916667Y-115537295D01*
X51916667Y-115537295D02*
X51964286Y-115442057D01*
X51964286Y-115442057D02*
X52011905Y-115394438D01*
X52011905Y-115394438D02*
X52107143Y-115346819D01*
X52107143Y-115346819D02*
X52345238Y-115346819D01*
X52345238Y-115346819D02*
X52488095Y-115394438D01*
X52821429Y-115346819D02*
X53059524Y-116346819D01*
X53059524Y-116346819D02*
X53250000Y-115632533D01*
X53250000Y-115632533D02*
X53440476Y-116346819D01*
X53440476Y-116346819D02*
X53678572Y-115346819D01*
X54202381Y-115775390D02*
X54107143Y-115727771D01*
X54107143Y-115727771D02*
X54059524Y-115680152D01*
X54059524Y-115680152D02*
X54011905Y-115584914D01*
X54011905Y-115584914D02*
X54011905Y-115537295D01*
X54011905Y-115537295D02*
X54059524Y-115442057D01*
X54059524Y-115442057D02*
X54107143Y-115394438D01*
X54107143Y-115394438D02*
X54202381Y-115346819D01*
X54202381Y-115346819D02*
X54392857Y-115346819D01*
X54392857Y-115346819D02*
X54488095Y-115394438D01*
X54488095Y-115394438D02*
X54535714Y-115442057D01*
X54535714Y-115442057D02*
X54583333Y-115537295D01*
X54583333Y-115537295D02*
X54583333Y-115584914D01*
X54583333Y-115584914D02*
X54535714Y-115680152D01*
X54535714Y-115680152D02*
X54488095Y-115727771D01*
X54488095Y-115727771D02*
X54392857Y-115775390D01*
X54392857Y-115775390D02*
X54202381Y-115775390D01*
X54202381Y-115775390D02*
X54107143Y-115823009D01*
X54107143Y-115823009D02*
X54059524Y-115870628D01*
X54059524Y-115870628D02*
X54011905Y-115965866D01*
X54011905Y-115965866D02*
X54011905Y-116156342D01*
X54011905Y-116156342D02*
X54059524Y-116251580D01*
X54059524Y-116251580D02*
X54107143Y-116299200D01*
X54107143Y-116299200D02*
X54202381Y-116346819D01*
X54202381Y-116346819D02*
X54392857Y-116346819D01*
X54392857Y-116346819D02*
X54488095Y-116299200D01*
X54488095Y-116299200D02*
X54535714Y-116251580D01*
X54535714Y-116251580D02*
X54583333Y-116156342D01*
X54583333Y-116156342D02*
X54583333Y-115965866D01*
X54583333Y-115965866D02*
X54535714Y-115870628D01*
X54535714Y-115870628D02*
X54488095Y-115823009D01*
X54488095Y-115823009D02*
X54392857Y-115775390D01*
X61884819Y-123241666D02*
X61408628Y-123574999D01*
X61884819Y-123813094D02*
X60884819Y-123813094D01*
X60884819Y-123813094D02*
X60884819Y-123432142D01*
X60884819Y-123432142D02*
X60932438Y-123336904D01*
X60932438Y-123336904D02*
X60980057Y-123289285D01*
X60980057Y-123289285D02*
X61075295Y-123241666D01*
X61075295Y-123241666D02*
X61218152Y-123241666D01*
X61218152Y-123241666D02*
X61313390Y-123289285D01*
X61313390Y-123289285D02*
X61361009Y-123336904D01*
X61361009Y-123336904D02*
X61408628Y-123432142D01*
X61408628Y-123432142D02*
X61408628Y-123813094D01*
X60884819Y-122336904D02*
X60884819Y-122813094D01*
X60884819Y-122813094D02*
X61361009Y-122860713D01*
X61361009Y-122860713D02*
X61313390Y-122813094D01*
X61313390Y-122813094D02*
X61265771Y-122717856D01*
X61265771Y-122717856D02*
X61265771Y-122479761D01*
X61265771Y-122479761D02*
X61313390Y-122384523D01*
X61313390Y-122384523D02*
X61361009Y-122336904D01*
X61361009Y-122336904D02*
X61456247Y-122289285D01*
X61456247Y-122289285D02*
X61694342Y-122289285D01*
X61694342Y-122289285D02*
X61789580Y-122336904D01*
X61789580Y-122336904D02*
X61837200Y-122384523D01*
X61837200Y-122384523D02*
X61884819Y-122479761D01*
X61884819Y-122479761D02*
X61884819Y-122717856D01*
X61884819Y-122717856D02*
X61837200Y-122813094D01*
X61837200Y-122813094D02*
X61789580Y-122860713D01*
D13*
X49571428Y-87367219D02*
X50238095Y-87367219D01*
X50523809Y-88414838D02*
X49571428Y-88414838D01*
X49571428Y-88414838D02*
X49571428Y-86414838D01*
X49571428Y-86414838D02*
X50523809Y-86414838D01*
X51380952Y-88414838D02*
X51380952Y-86414838D01*
X51380952Y-86414838D02*
X52523809Y-88414838D01*
X52523809Y-88414838D02*
X52523809Y-86414838D01*
X54619047Y-88224361D02*
X54523809Y-88319600D01*
X54523809Y-88319600D02*
X54238095Y-88414838D01*
X54238095Y-88414838D02*
X54047619Y-88414838D01*
X54047619Y-88414838D02*
X53761904Y-88319600D01*
X53761904Y-88319600D02*
X53571428Y-88129123D01*
X53571428Y-88129123D02*
X53476190Y-87938647D01*
X53476190Y-87938647D02*
X53380952Y-87557695D01*
X53380952Y-87557695D02*
X53380952Y-87271980D01*
X53380952Y-87271980D02*
X53476190Y-86891028D01*
X53476190Y-86891028D02*
X53571428Y-86700552D01*
X53571428Y-86700552D02*
X53761904Y-86510076D01*
X53761904Y-86510076D02*
X54047619Y-86414838D01*
X54047619Y-86414838D02*
X54238095Y-86414838D01*
X54238095Y-86414838D02*
X54523809Y-86510076D01*
X54523809Y-86510076D02*
X54619047Y-86605314D01*
X56523809Y-88414838D02*
X55380952Y-88414838D01*
X55952380Y-88414838D02*
X55952380Y-86414838D01*
X55952380Y-86414838D02*
X55761904Y-86700552D01*
X55761904Y-86700552D02*
X55571428Y-86891028D01*
X55571428Y-86891028D02*
X55380952Y-86986266D01*
D11*
X51916667Y-91407200D02*
X52059524Y-91454819D01*
X52059524Y-91454819D02*
X52297619Y-91454819D01*
X52297619Y-91454819D02*
X52392857Y-91407200D01*
X52392857Y-91407200D02*
X52440476Y-91359580D01*
X52440476Y-91359580D02*
X52488095Y-91264342D01*
X52488095Y-91264342D02*
X52488095Y-91169104D01*
X52488095Y-91169104D02*
X52440476Y-91073866D01*
X52440476Y-91073866D02*
X52392857Y-91026247D01*
X52392857Y-91026247D02*
X52297619Y-90978628D01*
X52297619Y-90978628D02*
X52107143Y-90931009D01*
X52107143Y-90931009D02*
X52011905Y-90883390D01*
X52011905Y-90883390D02*
X51964286Y-90835771D01*
X51964286Y-90835771D02*
X51916667Y-90740533D01*
X51916667Y-90740533D02*
X51916667Y-90645295D01*
X51916667Y-90645295D02*
X51964286Y-90550057D01*
X51964286Y-90550057D02*
X52011905Y-90502438D01*
X52011905Y-90502438D02*
X52107143Y-90454819D01*
X52107143Y-90454819D02*
X52345238Y-90454819D01*
X52345238Y-90454819D02*
X52488095Y-90502438D01*
X52821429Y-90454819D02*
X53059524Y-91454819D01*
X53059524Y-91454819D02*
X53250000Y-90740533D01*
X53250000Y-90740533D02*
X53440476Y-91454819D01*
X53440476Y-91454819D02*
X53678572Y-90454819D01*
X54488095Y-90454819D02*
X54297619Y-90454819D01*
X54297619Y-90454819D02*
X54202381Y-90502438D01*
X54202381Y-90502438D02*
X54154762Y-90550057D01*
X54154762Y-90550057D02*
X54059524Y-90692914D01*
X54059524Y-90692914D02*
X54011905Y-90883390D01*
X54011905Y-90883390D02*
X54011905Y-91264342D01*
X54011905Y-91264342D02*
X54059524Y-91359580D01*
X54059524Y-91359580D02*
X54107143Y-91407200D01*
X54107143Y-91407200D02*
X54202381Y-91454819D01*
X54202381Y-91454819D02*
X54392857Y-91454819D01*
X54392857Y-91454819D02*
X54488095Y-91407200D01*
X54488095Y-91407200D02*
X54535714Y-91359580D01*
X54535714Y-91359580D02*
X54583333Y-91264342D01*
X54583333Y-91264342D02*
X54583333Y-91026247D01*
X54583333Y-91026247D02*
X54535714Y-90931009D01*
X54535714Y-90931009D02*
X54488095Y-90883390D01*
X54488095Y-90883390D02*
X54392857Y-90835771D01*
X54392857Y-90835771D02*
X54202381Y-90835771D01*
X54202381Y-90835771D02*
X54107143Y-90883390D01*
X54107143Y-90883390D02*
X54059524Y-90931009D01*
X54059524Y-90931009D02*
X54011905Y-91026247D01*
X40150057Y-84532738D02*
X40102438Y-84627976D01*
X40102438Y-84627976D02*
X40007200Y-84723214D01*
X40007200Y-84723214D02*
X39864342Y-84866071D01*
X39864342Y-84866071D02*
X39816723Y-84961309D01*
X39816723Y-84961309D02*
X39816723Y-85056547D01*
X40054819Y-85008928D02*
X40007200Y-85104166D01*
X40007200Y-85104166D02*
X39911961Y-85199404D01*
X39911961Y-85199404D02*
X39721485Y-85247023D01*
X39721485Y-85247023D02*
X39388152Y-85247023D01*
X39388152Y-85247023D02*
X39197676Y-85199404D01*
X39197676Y-85199404D02*
X39102438Y-85104166D01*
X39102438Y-85104166D02*
X39054819Y-85008928D01*
X39054819Y-85008928D02*
X39054819Y-84818452D01*
X39054819Y-84818452D02*
X39102438Y-84723214D01*
X39102438Y-84723214D02*
X39197676Y-84627976D01*
X39197676Y-84627976D02*
X39388152Y-84580357D01*
X39388152Y-84580357D02*
X39721485Y-84580357D01*
X39721485Y-84580357D02*
X39911961Y-84627976D01*
X39911961Y-84627976D02*
X40007200Y-84723214D01*
X40007200Y-84723214D02*
X40054819Y-84818452D01*
X40054819Y-84818452D02*
X40054819Y-85008928D01*
X39150057Y-84199404D02*
X39102438Y-84151785D01*
X39102438Y-84151785D02*
X39054819Y-84056547D01*
X39054819Y-84056547D02*
X39054819Y-83818452D01*
X39054819Y-83818452D02*
X39102438Y-83723214D01*
X39102438Y-83723214D02*
X39150057Y-83675595D01*
X39150057Y-83675595D02*
X39245295Y-83627976D01*
X39245295Y-83627976D02*
X39340533Y-83627976D01*
X39340533Y-83627976D02*
X39483390Y-83675595D01*
X39483390Y-83675595D02*
X40054819Y-84247023D01*
X40054819Y-84247023D02*
X40054819Y-83627976D01*
X39470667Y-91407200D02*
X39613524Y-91454819D01*
X39613524Y-91454819D02*
X39851619Y-91454819D01*
X39851619Y-91454819D02*
X39946857Y-91407200D01*
X39946857Y-91407200D02*
X39994476Y-91359580D01*
X39994476Y-91359580D02*
X40042095Y-91264342D01*
X40042095Y-91264342D02*
X40042095Y-91169104D01*
X40042095Y-91169104D02*
X39994476Y-91073866D01*
X39994476Y-91073866D02*
X39946857Y-91026247D01*
X39946857Y-91026247D02*
X39851619Y-90978628D01*
X39851619Y-90978628D02*
X39661143Y-90931009D01*
X39661143Y-90931009D02*
X39565905Y-90883390D01*
X39565905Y-90883390D02*
X39518286Y-90835771D01*
X39518286Y-90835771D02*
X39470667Y-90740533D01*
X39470667Y-90740533D02*
X39470667Y-90645295D01*
X39470667Y-90645295D02*
X39518286Y-90550057D01*
X39518286Y-90550057D02*
X39565905Y-90502438D01*
X39565905Y-90502438D02*
X39661143Y-90454819D01*
X39661143Y-90454819D02*
X39899238Y-90454819D01*
X39899238Y-90454819D02*
X40042095Y-90502438D01*
X40375429Y-90454819D02*
X40613524Y-91454819D01*
X40613524Y-91454819D02*
X40804000Y-90740533D01*
X40804000Y-90740533D02*
X40994476Y-91454819D01*
X40994476Y-91454819D02*
X41232572Y-90454819D01*
X41518286Y-90454819D02*
X42137333Y-90454819D01*
X42137333Y-90454819D02*
X41804000Y-90835771D01*
X41804000Y-90835771D02*
X41946857Y-90835771D01*
X41946857Y-90835771D02*
X42042095Y-90883390D01*
X42042095Y-90883390D02*
X42089714Y-90931009D01*
X42089714Y-90931009D02*
X42137333Y-91026247D01*
X42137333Y-91026247D02*
X42137333Y-91264342D01*
X42137333Y-91264342D02*
X42089714Y-91359580D01*
X42089714Y-91359580D02*
X42042095Y-91407200D01*
X42042095Y-91407200D02*
X41946857Y-91454819D01*
X41946857Y-91454819D02*
X41661143Y-91454819D01*
X41661143Y-91454819D02*
X41565905Y-91407200D01*
X41565905Y-91407200D02*
X41518286Y-91359580D01*
X38134038Y-53509056D02*
X37426932Y-52801949D01*
X37426932Y-52801949D02*
X37595290Y-52633590D01*
X37595290Y-52633590D02*
X37729977Y-52566247D01*
X37729977Y-52566247D02*
X37864664Y-52566247D01*
X37864664Y-52566247D02*
X37965680Y-52599919D01*
X37965680Y-52599919D02*
X38134038Y-52700934D01*
X38134038Y-52700934D02*
X38235054Y-52801949D01*
X38235054Y-52801949D02*
X38336069Y-52970308D01*
X38336069Y-52970308D02*
X38369741Y-53071323D01*
X38369741Y-53071323D02*
X38369741Y-53206010D01*
X38369741Y-53206010D02*
X38302397Y-53340697D01*
X38302397Y-53340697D02*
X38134038Y-53509056D01*
X38066695Y-52162186D02*
X38504428Y-51724453D01*
X38504428Y-51724453D02*
X38538099Y-52229529D01*
X38538099Y-52229529D02*
X38639115Y-52128514D01*
X38639115Y-52128514D02*
X38740130Y-52094842D01*
X38740130Y-52094842D02*
X38807473Y-52094842D01*
X38807473Y-52094842D02*
X38908489Y-52128514D01*
X38908489Y-52128514D02*
X39076847Y-52296873D01*
X39076847Y-52296873D02*
X39110519Y-52397888D01*
X39110519Y-52397888D02*
X39110519Y-52465232D01*
X39110519Y-52465232D02*
X39076847Y-52566247D01*
X39076847Y-52566247D02*
X38874817Y-52768277D01*
X38874817Y-52768277D02*
X38773802Y-52801949D01*
X38773802Y-52801949D02*
X38706458Y-52801949D01*
%TO.C,R4*%
D16*
X58477500Y-119512742D02*
X58477500Y-119987258D01*
X59522500Y-119512742D02*
X59522500Y-119987258D01*
%TO.C,C1*%
X56261252Y-124265000D02*
X55738748Y-124265000D01*
X56261252Y-125735000D02*
X55738748Y-125735000D01*
%TO.C,D4*%
X65037433Y-54175589D02*
X66734489Y-52478533D01*
X66663779Y-55801935D02*
X65037433Y-54175589D01*
X66663779Y-55801935D02*
X67088043Y-55801935D01*
X68572967Y-54317011D02*
X66734489Y-52478533D01*
X68572967Y-54317011D02*
X67088043Y-55801935D01*
%TO.C,U1*%
D19*
X47220000Y-139107000D02*
X47220000Y-156252000D01*
X49125000Y-158157000D02*
X63095000Y-158157000D01*
D20*
X51606000Y-159167000D02*
X51606000Y-158157000D01*
X60101272Y-159667000D02*
X52106000Y-159667000D01*
X60605000Y-158157000D02*
X60601272Y-159167272D01*
D19*
X63095000Y-137202000D02*
X49125000Y-137202000D01*
X65000000Y-139107000D02*
X65000000Y-156252000D01*
X47220000Y-139107000D02*
G75*
G02*
X49125000Y-137202000I1905000J0D01*
G01*
X49125000Y-158157000D02*
G75*
G02*
X47220000Y-156252000I0J1905000D01*
G01*
D20*
X52106000Y-159667000D02*
G75*
G02*
X51606000Y-159167000I0J500000D01*
G01*
X60601272Y-159167272D02*
G75*
G02*
X60101272Y-159667002I-500022J292D01*
G01*
D19*
X63095000Y-137202000D02*
G75*
G02*
X65000000Y-139107000I0J-1905000D01*
G01*
X65000000Y-156256000D02*
G75*
G02*
X63095000Y-158161000I-1905001J1D01*
G01*
D21*
X64188000Y-157024000D02*
G75*
G02*
X63684000Y-157024000I-252000J0D01*
G01*
X63684000Y-157024000D02*
G75*
G02*
X64188000Y-157024000I252000J0D01*
G01*
X65462000Y-157741000D02*
G75*
G02*
X64958000Y-157741000I-252000J0D01*
G01*
X64958000Y-157741000D02*
G75*
G02*
X65462000Y-157741000I252000J0D01*
G01*
%TO.C,Q1*%
D16*
X67552500Y-30740000D02*
X69072500Y-30740000D01*
X67552500Y-31740000D02*
X67552500Y-30740000D01*
X67552500Y-33860000D02*
X67552500Y-32860000D01*
X69072500Y-30740000D02*
X69072500Y-30790000D01*
X69072500Y-31910000D02*
X69072500Y-32690000D01*
X69072500Y-33810000D02*
X69072500Y-33860000D01*
X69072500Y-33860000D02*
X67552500Y-33860000D01*
X69612500Y-32680000D02*
X69372500Y-32350000D01*
X69852500Y-32350000D01*
X69612500Y-32680000D01*
G36*
X69612500Y-32680000D02*
G01*
X69372500Y-32350000D01*
X69852500Y-32350000D01*
X69612500Y-32680000D01*
G37*
%TO.C,Q3*%
X36890000Y-139552500D02*
X37890000Y-139552500D01*
X36890000Y-141072500D02*
X36890000Y-139552500D01*
X36940000Y-141072500D02*
X36890000Y-141072500D01*
X38840000Y-141072500D02*
X38060000Y-141072500D01*
X39010000Y-139552500D02*
X40010000Y-139552500D01*
X40010000Y-139552500D02*
X40010000Y-141072500D01*
X40010000Y-141072500D02*
X39960000Y-141072500D01*
X38070000Y-141612500D02*
X38400000Y-141372500D01*
X38400000Y-141852500D01*
X38070000Y-141612500D01*
G36*
X38400000Y-141852500D02*
G01*
X38070000Y-141612500D01*
X38400000Y-141372500D01*
X38400000Y-141852500D01*
G37*
%TO.C,SW10*%
D20*
X63536000Y-108743000D02*
X63536000Y-105633000D01*
X64906000Y-104938000D02*
X66666000Y-104938000D01*
X64906000Y-109438000D02*
X66666000Y-109438000D01*
X68036000Y-108743000D02*
X68036000Y-105633000D01*
D13*
X64136000Y-110414000D02*
G75*
G02*
X63936000Y-110414000I-100000J0D01*
G01*
X63936000Y-110414000D02*
G75*
G02*
X64136000Y-110414000I100000J0D01*
G01*
%TO.C,SW9*%
D20*
X63536000Y-121189000D02*
X63536000Y-118079000D01*
X64906000Y-117384000D02*
X66666000Y-117384000D01*
X64906000Y-121884000D02*
X66666000Y-121884000D01*
X68036000Y-121189000D02*
X68036000Y-118079000D01*
D13*
X64136000Y-122860000D02*
G75*
G02*
X63936000Y-122860000I-100000J0D01*
G01*
X63936000Y-122860000D02*
G75*
G02*
X64136000Y-122860000I100000J0D01*
G01*
%TO.C,C3*%
D16*
X45740000Y-34384420D02*
X45740000Y-34665580D01*
X46760000Y-34384420D02*
X46760000Y-34665580D01*
%TO.C,SW5*%
D20*
X38644000Y-121189000D02*
X38644000Y-118079000D01*
X40014000Y-117384000D02*
X41774000Y-117384000D01*
X40014000Y-121884000D02*
X41774000Y-121884000D01*
X43144000Y-121189000D02*
X43144000Y-118079000D01*
D13*
X39244000Y-122860000D02*
G75*
G02*
X39044000Y-122860000I-100000J0D01*
G01*
X39044000Y-122860000D02*
G75*
G02*
X39244000Y-122860000I100000J0D01*
G01*
%TO.C,SW2*%
D20*
X38644000Y-39131000D02*
X38644000Y-42241000D01*
X41774000Y-38436000D02*
X40014000Y-38436000D01*
X41774000Y-42936000D02*
X40014000Y-42936000D01*
X43144000Y-39131000D02*
X43144000Y-42241000D01*
D13*
X42744000Y-37460000D02*
G75*
G02*
X42544000Y-37460000I-100000J0D01*
G01*
X42544000Y-37460000D02*
G75*
G02*
X42744000Y-37460000I100000J0D01*
G01*
%TO.C,SW7*%
D20*
X51090000Y-108743000D02*
X51090000Y-105633000D01*
X52460000Y-104938000D02*
X54220000Y-104938000D01*
X52460000Y-109438000D02*
X54220000Y-109438000D01*
X55590000Y-108743000D02*
X55590000Y-105633000D01*
D13*
X51690000Y-110414000D02*
G75*
G02*
X51490000Y-110414000I-100000J0D01*
G01*
X51490000Y-110414000D02*
G75*
G02*
X51690000Y-110414000I100000J0D01*
G01*
%TO.C,R9*%
D16*
X69662258Y-154477500D02*
X69187742Y-154477500D01*
X69662258Y-155522500D02*
X69187742Y-155522500D01*
%TO.C,D1*%
X61670000Y-31540000D02*
X61670000Y-29350000D01*
X64790000Y-31540000D02*
X61670000Y-31540000D01*
X64790000Y-31540000D02*
X64790000Y-29350000D01*
X61960000Y-31540000D02*
X61960000Y-31670000D01*
X61960000Y-31540000D01*
X64500000Y-31540000D02*
X64500000Y-31670000D01*
X64500000Y-31540000D01*
%TO.C,SW4*%
D20*
X38586910Y-108769000D02*
X38586910Y-105659000D01*
X39956910Y-104964000D02*
X41716910Y-104964000D01*
X39956910Y-109464000D02*
X41716910Y-109464000D01*
X43086910Y-108769000D02*
X43086910Y-105659000D01*
D13*
X39186910Y-110440000D02*
G75*
G02*
X38986910Y-110440000I-100000J0D01*
G01*
X38986910Y-110440000D02*
G75*
G02*
X39186910Y-110440000I100000J0D01*
G01*
%TO.C,D5*%
D16*
X65249565Y-81040379D02*
X65249565Y-81464643D01*
X65249565Y-81040379D02*
X66875911Y-79414033D01*
X66734489Y-82949567D02*
X65249565Y-81464643D01*
X66734489Y-82949567D02*
X68572967Y-81111089D01*
X66875911Y-79414033D02*
X68572967Y-81111089D01*
%TO.C,SW1*%
D20*
X63500000Y-39131000D02*
X63500000Y-42241000D01*
X66630000Y-38436000D02*
X64870000Y-38436000D01*
X66630000Y-42936000D02*
X64870000Y-42936000D01*
X68000000Y-39131000D02*
X68000000Y-42241000D01*
D13*
X67600000Y-37460000D02*
G75*
G02*
X67400000Y-37460000I-100000J0D01*
G01*
X67400000Y-37460000D02*
G75*
G02*
X67600000Y-37460000I100000J0D01*
G01*
%TO.C,R11*%
D16*
X36977500Y-144237258D02*
X36977500Y-143762742D01*
X38022500Y-144237258D02*
X38022500Y-143762742D01*
%TO.C,SW11*%
D20*
X63536000Y-96297000D02*
X63536000Y-93187000D01*
X64906000Y-92492000D02*
X66666000Y-92492000D01*
X64906000Y-96992000D02*
X66666000Y-96992000D01*
X68036000Y-96297000D02*
X68036000Y-93187000D01*
D13*
X64136000Y-97968000D02*
G75*
G02*
X63936000Y-97968000I-100000J0D01*
G01*
X63936000Y-97968000D02*
G75*
G02*
X64136000Y-97968000I100000J0D01*
G01*
%TO.C,U3*%
D16*
X50524000Y-126454000D02*
X56044000Y-126454000D01*
X50524000Y-126629000D02*
X50524000Y-126454000D01*
X50524000Y-134874000D02*
X50524000Y-134699000D01*
X56044000Y-126454000D02*
X56044000Y-126629000D01*
X56044000Y-134699000D02*
X56044000Y-134874000D01*
X56044000Y-134874000D02*
X50524000Y-134874000D01*
X49784000Y-126624000D02*
X49444000Y-126154000D01*
X50124000Y-126154000D01*
X49784000Y-126624000D01*
G36*
X49784000Y-126624000D02*
G01*
X49444000Y-126154000D01*
X50124000Y-126154000D01*
X49784000Y-126624000D01*
G37*
%TO.C,D2*%
X38101933Y-81111089D02*
X39586857Y-79626165D01*
X38101933Y-81111089D02*
X39940411Y-82949567D01*
X40011121Y-79626165D02*
X39586857Y-79626165D01*
X40011121Y-79626165D02*
X41637467Y-81252511D01*
X41637467Y-81252511D02*
X39940411Y-82949567D01*
%TO.C,R1*%
X68477500Y-35987258D02*
X68477500Y-35512742D01*
X69522500Y-35987258D02*
X69522500Y-35512742D01*
%TO.C,SW8*%
D20*
X51090000Y-121189000D02*
X51090000Y-118079000D01*
X52460000Y-117384000D02*
X54220000Y-117384000D01*
X52460000Y-121884000D02*
X54220000Y-121884000D01*
X55590000Y-121189000D02*
X55590000Y-118079000D01*
D13*
X51690000Y-122860000D02*
G75*
G02*
X51490000Y-122860000I-100000J0D01*
G01*
X51490000Y-122860000D02*
G75*
G02*
X51690000Y-122860000I100000J0D01*
G01*
%TO.C,R5*%
D16*
X59477500Y-122837742D02*
X59477500Y-123312258D01*
X60522500Y-122837742D02*
X60522500Y-123312258D01*
%TO.C,ENC1*%
D17*
X70537455Y-67714045D02*
G75*
G02*
X36137455Y-67714045I-17200000J0D01*
G01*
X36137455Y-67714045D02*
G75*
G02*
X70537455Y-67714045I17200000J0D01*
G01*
%TO.C,SW6*%
D20*
X51090000Y-96297000D02*
X51090000Y-93187000D01*
X52460000Y-92492000D02*
X54220000Y-92492000D01*
X52460000Y-96992000D02*
X54220000Y-96992000D01*
X55590000Y-96297000D02*
X55590000Y-93187000D01*
D13*
X51690000Y-97968000D02*
G75*
G02*
X51490000Y-97968000I-100000J0D01*
G01*
X51490000Y-97968000D02*
G75*
G02*
X51690000Y-97968000I100000J0D01*
G01*
%TO.C,Q2*%
D16*
X40440000Y-83677500D02*
X41440000Y-83677500D01*
X40440000Y-85197500D02*
X40440000Y-83677500D01*
X40490000Y-85197500D02*
X40440000Y-85197500D01*
X42390000Y-85197500D02*
X41610000Y-85197500D01*
X42560000Y-83677500D02*
X43560000Y-83677500D01*
X43560000Y-83677500D02*
X43560000Y-85197500D01*
X43560000Y-85197500D02*
X43510000Y-85197500D01*
X41620000Y-85737500D02*
X41950000Y-85497500D01*
X41950000Y-85977500D01*
X41620000Y-85737500D01*
G36*
X41950000Y-85977500D02*
G01*
X41620000Y-85737500D01*
X41950000Y-85497500D01*
X41950000Y-85977500D01*
G37*
%TO.C,SW3*%
D20*
X38644000Y-96297000D02*
X38644000Y-93187000D01*
X40014000Y-92492000D02*
X41774000Y-92492000D01*
X40014000Y-96992000D02*
X41774000Y-96992000D01*
X43144000Y-96297000D02*
X43144000Y-93187000D01*
D13*
X39244000Y-97968000D02*
G75*
G02*
X39044000Y-97968000I-100000J0D01*
G01*
X39044000Y-97968000D02*
G75*
G02*
X39244000Y-97968000I100000J0D01*
G01*
%TO.C,D3*%
D16*
X39798989Y-56014067D02*
X38101933Y-54317011D01*
X39940411Y-52478533D02*
X38101933Y-54317011D01*
X39940411Y-52478533D02*
X41425335Y-53963457D01*
X41425335Y-54387721D02*
X39798989Y-56014067D01*
X41425335Y-54387721D02*
X41425335Y-53963457D01*
%TD*%
M02*
