%TF.GenerationSoftware,KiCad,Pcbnew,10.0.3*%
%TF.CreationDate,2026-07-22T15:08:54-07:00*%
%TF.ProjectId,c6remote,63367265-6d6f-4746-952e-6b696361645f,rev?*%
%TF.SameCoordinates,Original*%
%TF.FileFunction,Profile,NP*%
%FSLAX46Y46*%
G04 Gerber Fmt 4.6, Leading zero omitted, Abs format (unit mm)*
G04 Created by KiCad (PCBNEW 10.0.3) date 2026-07-22 15:08:54*
%MOMM*%
%LPD*%
G01*
G04 APERTURE LIST*
%TA.AperFunction,Profile*%
%ADD10C,0.400000*%
%TD*%
G04 APERTURE END LIST*
D10*
X34837455Y-31214000D02*
X34837455Y-155214000D01*
X34837455Y-31214000D02*
G75*
G02*
X37837455Y-28214005I3000065J-70D01*
G01*
X37837455Y-28214000D02*
X40837455Y-28214000D01*
X37837455Y-158214000D02*
G75*
G02*
X34837500Y-155214000I145J3000100D01*
G01*
X37837455Y-158214000D02*
X68837455Y-158214000D01*
X40837455Y-30714000D02*
X40837455Y-28214000D01*
X40837455Y-30714000D02*
X46937455Y-30714000D01*
X46937455Y-30714000D02*
X46937455Y-28214000D01*
X59737455Y-28214000D02*
X46937455Y-28214000D01*
X59737455Y-30714000D02*
X59737455Y-28214000D01*
X65837455Y-28214000D02*
X68837455Y-28214000D01*
X65837455Y-30714000D02*
X59737455Y-30714000D01*
X65837455Y-30714000D02*
X65837455Y-28214000D01*
X68837455Y-28214000D02*
G75*
G02*
X71837500Y-31214000I-455J-3000500D01*
G01*
X44730853Y-57107398D02*
G75*
G02*
X40730853Y-57107398I-2000000J0D01*
G01*
X40730853Y-57107398D02*
G75*
G02*
X44730853Y-57107398I2000000J0D01*
G01*
X44730853Y-78320602D02*
G75*
G02*
X40730853Y-78320602I-2000000J0D01*
G01*
X40730853Y-78320602D02*
G75*
G02*
X44730853Y-78320602I2000000J0D01*
G01*
X65944057Y-57107398D02*
G75*
G02*
X61944057Y-57107398I-2000000J0D01*
G01*
X61944057Y-57107398D02*
G75*
G02*
X65944057Y-57107398I2000000J0D01*
G01*
X65944057Y-78320602D02*
G75*
G02*
X61944057Y-78320602I-2000000J0D01*
G01*
X61944057Y-78320602D02*
G75*
G02*
X65944057Y-78320602I2000000J0D01*
G01*
X50955474Y-64532019D02*
G75*
G02*
X49355474Y-64532019I-800000J0D01*
G01*
X49355474Y-64532019D02*
G75*
G02*
X50955474Y-64532019I800000J0D01*
G01*
X57319436Y-70895981D02*
G75*
G02*
X55719436Y-70895981I-800000J0D01*
G01*
X55719436Y-70895981D02*
G75*
G02*
X57319436Y-70895981I800000J0D01*
G01*
X71837455Y-31214000D02*
X71837455Y-155214000D01*
X71837455Y-155214000D02*
G75*
G02*
X68837455Y-158214005I-3000535J530D01*
G01*
M02*
