%TF.GenerationSoftware,KiCad,Pcbnew,9.0.5*%
%TF.CreationDate,2025-11-11T17:28:59-08:00*%
%TF.ProjectId,c6remote,63367265-6d6f-4746-952e-6b696361645f,rev?*%
%TF.SameCoordinates,Original*%
%TF.FileFunction,Copper,L1,Top*%
%TF.FilePolarity,Positive*%
%FSLAX46Y46*%
G04 Gerber Fmt 4.6, Leading zero omitted, Abs format (unit mm)*
G04 Created by KiCad (PCBNEW 9.0.5) date 2025-11-11 17:28:59*
%MOMM*%
%LPD*%
G01*
G04 APERTURE LIST*
G04 Aperture macros list*
%AMRoundRect*
0 Rectangle with rounded corners*
0 $1 Rounding radius*
0 $2 $3 $4 $5 $6 $7 $8 $9 X,Y pos of 4 corners*
0 Add a 4 corners polygon primitive as box body*
4,1,4,$2,$3,$4,$5,$6,$7,$8,$9,$2,$3,0*
0 Add four circle primitives for the rounded corners*
1,1,$1+$1,$2,$3*
1,1,$1+$1,$4,$5*
1,1,$1+$1,$6,$7*
1,1,$1+$1,$8,$9*
0 Add four rect primitives between the rounded corners*
20,1,$1+$1,$2,$3,$4,$5,0*
20,1,$1+$1,$4,$5,$6,$7,0*
20,1,$1+$1,$6,$7,$8,$9,0*
20,1,$1+$1,$8,$9,$2,$3,0*%
%AMFreePoly0*
4,1,21,-0.141464,0.553536,-0.140000,0.550000,-0.140000,0.355000,0.355000,0.355000,0.358536,0.353536,0.360000,0.350000,0.360000,-0.350000,0.358536,-0.353536,0.355000,-0.355000,-0.140000,-0.355000,-0.140000,-0.550000,-0.141464,-0.553536,-0.145000,-0.555000,-0.345000,-0.555000,-0.348536,-0.553536,-0.350000,-0.550000,-0.350000,0.550000,-0.348536,0.553536,-0.345000,0.555000,-0.145000,0.555000,
-0.141464,0.553536,-0.141464,0.553536,$1*%
%AMFreePoly1*
4,1,21,0.348536,0.553536,0.350000,0.550000,0.350000,-0.550000,0.348536,-0.553536,0.345000,-0.555000,0.145000,-0.555000,0.141464,-0.553536,0.140000,-0.550000,0.140000,-0.355000,-0.355000,-0.355000,-0.358536,-0.353536,-0.360000,-0.350000,-0.360000,0.350000,-0.358536,0.353536,-0.355000,0.355000,0.140000,0.355000,0.140000,0.550000,0.141464,0.553536,0.145000,0.555000,0.345000,0.555000,
0.348536,0.553536,0.348536,0.553536,$1*%
G04 Aperture macros list end*
%TA.AperFunction,SMDPad,CuDef*%
%ADD10RoundRect,0.100000X-0.850000X-0.100000X0.850000X-0.100000X0.850000X0.100000X-0.850000X0.100000X0*%
%TD*%
%TA.AperFunction,SMDPad,CuDef*%
%ADD11RoundRect,0.152400X-1.063600X-0.609600X1.063600X-0.609600X1.063600X0.609600X-1.063600X0.609600X0*%
%TD*%
%TA.AperFunction,ComponentPad*%
%ADD12C,1.524000*%
%TD*%
%TA.AperFunction,SMDPad,CuDef*%
%ADD13RoundRect,0.152400X1.063600X0.609600X-1.063600X0.609600X-1.063600X-0.609600X1.063600X-0.609600X0*%
%TD*%
%TA.AperFunction,SMDPad,CuDef*%
%ADD14RoundRect,0.250000X0.475000X-0.250000X0.475000X0.250000X-0.475000X0.250000X-0.475000X-0.250000X0*%
%TD*%
%TA.AperFunction,SMDPad,CuDef*%
%ADD15FreePoly0,0.000000*%
%TD*%
%TA.AperFunction,SMDPad,CuDef*%
%ADD16FreePoly1,0.000000*%
%TD*%
%TA.AperFunction,ComponentPad*%
%ADD17C,2.500000*%
%TD*%
%TA.AperFunction,ComponentPad*%
%ADD18RoundRect,0.250000X1.000000X-1.000000X1.000000X1.000000X-1.000000X1.000000X-1.000000X-1.000000X0*%
%TD*%
%TA.AperFunction,ComponentPad*%
%ADD19C,2.750000*%
%TD*%
%TA.AperFunction,ViaPad*%
%ADD20C,0.600000*%
%TD*%
%TA.AperFunction,Conductor*%
%ADD21C,0.200000*%
%TD*%
G04 APERTURE END LIST*
D10*
%TO.P,U3,24,VCC*%
%TO.N,+3.3V*%
X56784000Y-127089000D03*
%TO.P,U3,23,SDA*%
%TO.N,sda*%
X56784000Y-127739000D03*
%TO.P,U3,22,SCL*%
%TO.N,scl*%
X56784000Y-128389000D03*
%TO.P,U3,21,A0*%
%TO.N,GND*%
X56784000Y-129039000D03*
%TO.P,U3,20,P17*%
%TO.N,ano_sw5*%
X56784000Y-129689000D03*
%TO.P,U3,19,P16*%
%TO.N,ano_sw4*%
X56784000Y-130339000D03*
%TO.P,U3,18,P15*%
%TO.N,ano_sw3*%
X56784000Y-130989000D03*
%TO.P,U3,17,P14*%
%TO.N,ano_sw2*%
X56784000Y-131639000D03*
%TO.P,U3,16,P13*%
%TO.N,ano_sw1*%
X56784000Y-132289000D03*
%TO.P,U3,15,P12*%
%TO.N,sw11*%
X56784000Y-132939000D03*
%TO.P,U3,14,P11*%
%TO.N,sw10*%
X56784000Y-133589000D03*
%TO.P,U3,13,P10*%
%TO.N,sw9*%
X56784000Y-134239000D03*
%TO.P,U3,12,GND*%
%TO.N,GND*%
X49784000Y-134239000D03*
%TO.P,U3,11,P7*%
%TO.N,sw8*%
X49784000Y-133589000D03*
%TO.P,U3,10,P6*%
%TO.N,sw7*%
X49784000Y-132939000D03*
%TO.P,U3,9,P5*%
%TO.N,sw6*%
X49784000Y-132289000D03*
%TO.P,U3,8,P4*%
%TO.N,sw5*%
X49784000Y-131639000D03*
%TO.P,U3,7,P3*%
%TO.N,sw4*%
X49784000Y-130989000D03*
%TO.P,U3,6,P2*%
%TO.N,sw3*%
X49784000Y-130339000D03*
%TO.P,U3,5,P1*%
%TO.N,sw2*%
X49784000Y-129689000D03*
%TO.P,U3,4,P0*%
%TO.N,sw1*%
X49784000Y-129039000D03*
%TO.P,U3,3,A2*%
%TO.N,GND*%
X49784000Y-128389000D03*
%TO.P,U3,2,A1*%
X49784000Y-127739000D03*
%TO.P,U3,1,~{INT}*%
%TO.N,unconnected-(U3-~{INT}-Pad1)*%
X49784000Y-127089000D03*
%TD*%
D11*
%TO.P,U1,1,GPIO0/A0/D0*%
%TO.N,sd*%
X61795000Y-155321000D03*
D12*
X60960000Y-155321000D03*
D11*
%TO.P,U1,2,GPIO1/A1/D1*%
%TO.N,IR EMIT*%
X61795000Y-152781000D03*
D12*
X60960000Y-152781000D03*
D11*
%TO.P,U1,3,GPIO2/A2/D2*%
%TO.N,sck*%
X61795000Y-150241000D03*
D12*
X60960000Y-150241000D03*
D11*
%TO.P,U1,4,GPIO21/D3*%
%TO.N,ws*%
X61795000Y-147701000D03*
D12*
X60960000Y-147701000D03*
D11*
%TO.P,U1,5,GPIO22/D4/SDA*%
%TO.N,sda*%
X61795000Y-145161000D03*
D12*
X60960000Y-145161000D03*
D11*
%TO.P,U1,6,GPIO23/D5/SCL*%
%TO.N,scl*%
X61795000Y-142621000D03*
D12*
X60960000Y-142621000D03*
D11*
%TO.P,U1,7,GPIO16/D6/TX*%
%TO.N,IR REC*%
X61795000Y-140081000D03*
D12*
X60960000Y-140081000D03*
%TO.P,U1,8,GPIO17/D7/RX*%
%TO.N,led_1*%
X45720000Y-140081000D03*
D13*
X44885000Y-140081000D03*
D12*
%TO.P,U1,9,GPIO19/D8/SCK*%
%TO.N,ano_enc2*%
X45720000Y-142621000D03*
D13*
X44885000Y-142621000D03*
D12*
%TO.P,U1,10,GPIO20/D9/MISO*%
%TO.N,ano_enc1*%
X45720000Y-145161000D03*
D13*
X44885000Y-145161000D03*
D12*
%TO.P,U1,11,GPIO18/D10/MOSI*%
%TO.N,unconnected-(U1-GPIO18{slash}D10{slash}MOSI-Pad11)*%
X45720000Y-147701000D03*
D13*
X44885000Y-147701000D03*
D12*
%TO.P,U1,12,3V3*%
%TO.N,+3.3V*%
X45720000Y-150241000D03*
D13*
X44885000Y-150241000D03*
D12*
%TO.P,U1,13,GND*%
%TO.N,GND*%
X45720000Y-152781000D03*
D13*
X44885000Y-152781000D03*
D12*
%TO.P,U1,14,VBUS*%
%TO.N,VCC*%
X45720000Y-155321000D03*
D13*
X44885000Y-155321000D03*
%TD*%
D14*
%TO.P,C1,1*%
%TO.N,+3.3V*%
X56896000Y-125410000D03*
%TO.P,C1,2*%
%TO.N,GND*%
X56896000Y-123510000D03*
%TD*%
D15*
%TO.P,SW1,1,1*%
%TO.N,GND*%
X63556000Y-39906000D03*
D16*
%TO.P,SW1,2,2*%
%TO.N,sw1*%
X68016000Y-39906000D03*
D15*
%TO.P,SW1,3*%
%TO.N,N/C*%
X63556000Y-43406000D03*
D16*
%TO.P,SW1,4*%
X68016000Y-43406000D03*
%TD*%
D15*
%TO.P,SW2,1,1*%
%TO.N,GND*%
X38664000Y-39906000D03*
D16*
%TO.P,SW2,2,2*%
%TO.N,sw2*%
X43124000Y-39906000D03*
D15*
%TO.P,SW2,3*%
%TO.N,N/C*%
X38664000Y-43406000D03*
D16*
%TO.P,SW2,4*%
X43124000Y-43406000D03*
%TD*%
D15*
%TO.P,SW3,1,1*%
%TO.N,GND*%
X38664000Y-92992000D03*
D16*
%TO.P,SW3,2,2*%
%TO.N,sw3*%
X43124000Y-92992000D03*
D15*
%TO.P,SW3,3*%
%TO.N,N/C*%
X38664000Y-96492000D03*
D16*
%TO.P,SW3,4*%
X43124000Y-96492000D03*
%TD*%
D15*
%TO.P,SW4,1,1*%
%TO.N,GND*%
X38606910Y-105464000D03*
D16*
%TO.P,SW4,2,2*%
%TO.N,sw4*%
X43066910Y-105464000D03*
D15*
%TO.P,SW4,3*%
%TO.N,N/C*%
X38606910Y-108964000D03*
D16*
%TO.P,SW4,4*%
X43066910Y-108964000D03*
%TD*%
D15*
%TO.P,SW5,1,1*%
%TO.N,GND*%
X38664000Y-117884000D03*
D16*
%TO.P,SW5,2,2*%
%TO.N,sw5*%
X43124000Y-117884000D03*
D15*
%TO.P,SW5,3*%
%TO.N,N/C*%
X38664000Y-121384000D03*
D16*
%TO.P,SW5,4*%
X43124000Y-121384000D03*
%TD*%
D15*
%TO.P,SW6,1,1*%
%TO.N,GND*%
X51110000Y-92992000D03*
D16*
%TO.P,SW6,2,2*%
%TO.N,sw6*%
X55570000Y-92992000D03*
D15*
%TO.P,SW6,3*%
%TO.N,N/C*%
X51110000Y-96492000D03*
D16*
%TO.P,SW6,4*%
X55570000Y-96492000D03*
%TD*%
D15*
%TO.P,SW7,1,1*%
%TO.N,GND*%
X51110000Y-105438000D03*
D16*
%TO.P,SW7,2,2*%
%TO.N,sw7*%
X55570000Y-105438000D03*
D15*
%TO.P,SW7,3*%
%TO.N,N/C*%
X51110000Y-108938000D03*
D16*
%TO.P,SW7,4*%
X55570000Y-108938000D03*
%TD*%
D15*
%TO.P,SW8,1,1*%
%TO.N,GND*%
X51110000Y-117884000D03*
D16*
%TO.P,SW8,2,2*%
%TO.N,sw8*%
X55570000Y-117884000D03*
D15*
%TO.P,SW8,3*%
%TO.N,N/C*%
X51110000Y-121384000D03*
D16*
%TO.P,SW8,4*%
X55570000Y-121384000D03*
%TD*%
D15*
%TO.P,SW9,1,1*%
%TO.N,GND*%
X63556000Y-117884000D03*
D16*
%TO.P,SW9,2,2*%
%TO.N,sw9*%
X68016000Y-117884000D03*
D15*
%TO.P,SW9,3*%
%TO.N,N/C*%
X63556000Y-121384000D03*
D16*
%TO.P,SW9,4*%
X68016000Y-121384000D03*
%TD*%
D15*
%TO.P,SW10,1,1*%
%TO.N,GND*%
X63556000Y-105438000D03*
D16*
%TO.P,SW10,2,2*%
%TO.N,sw10*%
X68016000Y-105438000D03*
D15*
%TO.P,SW10,3*%
%TO.N,N/C*%
X63556000Y-108938000D03*
D16*
%TO.P,SW10,4*%
X68016000Y-108938000D03*
%TD*%
D15*
%TO.P,SW11,1,1*%
%TO.N,GND*%
X63556000Y-92992000D03*
D16*
%TO.P,SW11,2,2*%
%TO.N,sw11*%
X68016000Y-92992000D03*
D15*
%TO.P,SW11,3*%
%TO.N,N/C*%
X63556000Y-96492000D03*
D16*
%TO.P,SW11,4*%
X68016000Y-96492000D03*
%TD*%
D17*
%TO.P,U4,9,ano_sw5*%
%TO.N,ano_sw1*%
X69487774Y-64107590D03*
D18*
%TO.P,U4,8,COM1*%
%TO.N,GND*%
X45587565Y-52610131D03*
D19*
%TO.P,U4,7,ano_enc2*%
%TO.N,ano_enc1*%
X59885264Y-61166020D03*
D17*
%TO.P,U4,6,ano_sw2*%
%TO.N,ano_sw2*%
X46789646Y-61166136D03*
%TO.P,U4,5,ano_sw1*%
%TO.N,ano_sw5*%
X37187136Y-71320254D03*
%TO.P,U4,4,ano_sw3*%
%TO.N,ano_sw3*%
X52227297Y-68824158D03*
D19*
%TO.P,U4,3,ano_enc1*%
%TO.N,ano_enc2*%
X59885264Y-74261954D03*
D17*
%TO.P,U4,2,ano_sw4*%
%TO.N,ano_sw4*%
X61087345Y-82817923D03*
D18*
%TO.P,U4,1,COM2*%
%TO.N,GND*%
X50084764Y-83793690D03*
%TD*%
D20*
%TO.N,+3.3V*%
X55372000Y-125476000D03*
%TO.N,ano_sw5*%
X47879000Y-74676000D03*
%TD*%
D21*
%TO.N,scl*%
X60071000Y-142621000D02*
X60960000Y-142621000D01*
X55533000Y-128690001D02*
X55533000Y-138083000D01*
X55533000Y-138083000D02*
X60071000Y-142621000D01*
X56784000Y-128389000D02*
X55834001Y-128389000D01*
X55834001Y-128389000D02*
X55533000Y-128690001D01*
%TO.N,sda*%
X54991000Y-128270000D02*
X55522000Y-127739000D01*
X54991000Y-138811000D02*
X54991000Y-128270000D01*
X60960000Y-144780000D02*
X54991000Y-138811000D01*
X60960000Y-145161000D02*
X60960000Y-144780000D01*
X55522000Y-127739000D02*
X56784000Y-127739000D01*
%TO.N,+3.3V*%
X56896000Y-126977000D02*
X56784000Y-127089000D01*
X56896000Y-125410000D02*
X56896000Y-126977000D01*
X56830000Y-125476000D02*
X56896000Y-125410000D01*
X55372000Y-125476000D02*
X56830000Y-125476000D01*
%TO.N,ano_sw3*%
X58664158Y-68824158D02*
X52227297Y-68824158D01*
X68072000Y-88900000D02*
X68072000Y-78232000D01*
X64770000Y-105664000D02*
X65746000Y-104688000D01*
X64770000Y-126492000D02*
X64770000Y-105664000D01*
X65746000Y-91226000D02*
X68072000Y-88900000D01*
X60273000Y-130989000D02*
X64770000Y-126492000D01*
X65746000Y-104688000D02*
X65746000Y-91226000D01*
X68072000Y-78232000D02*
X58664158Y-68824158D01*
X56784000Y-130989000D02*
X60273000Y-130989000D01*
%TO.N,ano_sw2*%
X52022136Y-61166136D02*
X46789646Y-61166136D01*
X66147000Y-105049000D02*
X66147000Y-91841000D01*
X68834000Y-89154000D02*
X68834000Y-77978000D01*
X66147000Y-91841000D02*
X68834000Y-89154000D01*
X68834000Y-77978000D02*
X52022136Y-61166136D01*
X65278000Y-126746000D02*
X65278000Y-105918000D01*
X60385000Y-131639000D02*
X65278000Y-126746000D01*
X65278000Y-105918000D02*
X66147000Y-105049000D01*
X56784000Y-131639000D02*
X60385000Y-131639000D01*
%TO.N,ano_sw1*%
X60497000Y-132289000D02*
X56784000Y-132289000D01*
X66548000Y-105410000D02*
X65786000Y-106172000D01*
X66548000Y-92456000D02*
X66548000Y-105410000D01*
X69487774Y-89516226D02*
X66548000Y-92456000D01*
X65786000Y-127000000D02*
X60497000Y-132289000D01*
X69487774Y-64107590D02*
X69487774Y-89516226D01*
X65786000Y-106172000D02*
X65786000Y-127000000D01*
%TO.N,sw11*%
X67508000Y-92992000D02*
X68016000Y-92992000D01*
X67056000Y-93444000D02*
X67508000Y-92992000D01*
X67056000Y-105664000D02*
X67056000Y-93444000D01*
X66294000Y-106426000D02*
X67056000Y-105664000D01*
X56784000Y-132939000D02*
X60609000Y-132939000D01*
X60609000Y-132939000D02*
X66294000Y-127254000D01*
X66294000Y-127254000D02*
X66294000Y-106426000D01*
%TO.N,sw2*%
X43124000Y-40668000D02*
X43124000Y-39906000D01*
X39878000Y-85598000D02*
X39878000Y-43914000D01*
X46482000Y-128270000D02*
X46482000Y-92202000D01*
X47901000Y-129689000D02*
X46482000Y-128270000D01*
X49784000Y-129689000D02*
X47901000Y-129689000D01*
X46482000Y-92202000D02*
X39878000Y-85598000D01*
X39878000Y-43914000D02*
X43124000Y-40668000D01*
%TO.N,sw1*%
X68016000Y-40823000D02*
X68016000Y-39906000D01*
X40640000Y-85411900D02*
X40640000Y-51562000D01*
X47117000Y-91888900D02*
X40640000Y-85411900D01*
X47117000Y-128143000D02*
X47117000Y-91888900D01*
X48013000Y-129039000D02*
X47117000Y-128143000D01*
X63881000Y-44958000D02*
X68016000Y-40823000D01*
X49784000Y-129039000D02*
X48013000Y-129039000D01*
X40640000Y-51562000D02*
X47244000Y-44958000D01*
X47244000Y-44958000D02*
X63881000Y-44958000D01*
%TO.N,sw5*%
X44577000Y-128778000D02*
X47438000Y-131639000D01*
X47438000Y-131639000D02*
X49784000Y-131639000D01*
X44577000Y-118618000D02*
X44577000Y-128778000D01*
X43124000Y-117884000D02*
X43843000Y-117884000D01*
X43843000Y-117884000D02*
X44577000Y-118618000D01*
%TO.N,sw3*%
X45847000Y-95207000D02*
X43632000Y-92992000D01*
X45847000Y-128397000D02*
X45847000Y-95207000D01*
X43632000Y-92992000D02*
X43124000Y-92992000D01*
X47789000Y-130339000D02*
X45847000Y-128397000D01*
X49784000Y-130339000D02*
X47789000Y-130339000D01*
%TO.N,sw4*%
X47645250Y-130989000D02*
X49784000Y-130989000D01*
X45212000Y-128555750D02*
X47645250Y-130989000D01*
X43066910Y-105464000D02*
X45212000Y-107609090D01*
X45212000Y-107609090D02*
X45212000Y-128555750D01*
%TO.N,sw6*%
X52623000Y-132289000D02*
X49784000Y-132289000D01*
X53340000Y-131572000D02*
X52623000Y-132289000D01*
X53340000Y-94968000D02*
X53340000Y-131572000D01*
X55316000Y-92992000D02*
X53340000Y-94968000D01*
X55570000Y-92992000D02*
X55316000Y-92992000D01*
%TO.N,sw7*%
X52989000Y-132939000D02*
X49784000Y-132939000D01*
X53848000Y-107160000D02*
X53848000Y-132080000D01*
X55570000Y-105438000D02*
X53848000Y-107160000D01*
X53848000Y-132080000D02*
X52989000Y-132939000D01*
%TO.N,sw8*%
X53228000Y-133589000D02*
X49784000Y-133589000D01*
X54356000Y-119098000D02*
X54356000Y-132461000D01*
X54356000Y-132461000D02*
X53228000Y-133589000D01*
X55570000Y-117884000D02*
X54356000Y-119098000D01*
%TO.N,GND*%
X58159000Y-129039000D02*
X58166000Y-129032000D01*
X56784000Y-129039000D02*
X58159000Y-129039000D01*
%TO.N,ano_sw5*%
X59795000Y-129689000D02*
X56784000Y-129689000D01*
X60706000Y-128778000D02*
X59795000Y-129689000D01*
X60706000Y-87503000D02*
X60706000Y-128778000D01*
X47879000Y-74676000D02*
X60706000Y-87503000D01*
%TO.N,ano_sw4*%
X61468000Y-83198578D02*
X61087345Y-82817923D01*
X60034000Y-130339000D02*
X61468000Y-128905000D01*
X56784000Y-130339000D02*
X60034000Y-130339000D01*
X61468000Y-128905000D02*
X61468000Y-83198578D01*
%TO.N,sw10*%
X66802000Y-106652000D02*
X68016000Y-105438000D01*
X66802000Y-127635000D02*
X66802000Y-106652000D01*
X60848000Y-133589000D02*
X66802000Y-127635000D01*
X56784000Y-133589000D02*
X60848000Y-133589000D01*
%TO.N,sw9*%
X67310000Y-118590000D02*
X68270000Y-117630000D01*
X61277500Y-134239000D02*
X67310000Y-128206500D01*
X67310000Y-128206500D02*
X67310000Y-118590000D01*
X56784000Y-134239000D02*
X61277500Y-134239000D01*
%TD*%
%TA.AperFunction,Conductor*%
%TO.N,GND*%
G36*
X40279994Y-28734185D02*
G01*
X40325749Y-28786989D01*
X40336955Y-28838500D01*
X40336955Y-30779891D01*
X40371063Y-30907187D01*
X40404009Y-30964250D01*
X40436955Y-31021314D01*
X40530141Y-31114500D01*
X40644269Y-31180392D01*
X40771563Y-31214500D01*
X40771565Y-31214500D01*
X47003345Y-31214500D01*
X47003347Y-31214500D01*
X47130641Y-31180392D01*
X47244769Y-31114500D01*
X47337955Y-31021314D01*
X47403847Y-30907186D01*
X47437955Y-30779892D01*
X47437955Y-28838500D01*
X47457640Y-28771461D01*
X47510444Y-28725706D01*
X47561955Y-28714500D01*
X59112955Y-28714500D01*
X59179994Y-28734185D01*
X59225749Y-28786989D01*
X59236955Y-28838500D01*
X59236955Y-30779891D01*
X59271063Y-30907187D01*
X59304009Y-30964250D01*
X59336955Y-31021314D01*
X59430141Y-31114500D01*
X59544269Y-31180392D01*
X59671563Y-31214500D01*
X59671565Y-31214500D01*
X65903345Y-31214500D01*
X65903347Y-31214500D01*
X66030641Y-31180392D01*
X66144769Y-31114500D01*
X66237955Y-31021314D01*
X66303847Y-30907186D01*
X66337955Y-30779892D01*
X66337955Y-28838500D01*
X66357640Y-28771461D01*
X66410444Y-28725706D01*
X66461955Y-28714500D01*
X71212955Y-28714500D01*
X71279994Y-28734185D01*
X71325749Y-28786989D01*
X71336955Y-28838500D01*
X71336955Y-63674744D01*
X71317270Y-63741783D01*
X71264466Y-63787538D01*
X71195308Y-63797482D01*
X71131752Y-63768457D01*
X71095024Y-63713063D01*
X71017351Y-63474013D01*
X70974561Y-63390035D01*
X70899408Y-63242539D01*
X70746705Y-63032361D01*
X70563003Y-62848659D01*
X70462991Y-62775996D01*
X70352828Y-62695958D01*
X70352827Y-62695957D01*
X70352825Y-62695956D01*
X70280538Y-62659124D01*
X70121350Y-62578012D01*
X69874267Y-62497730D01*
X69617676Y-62457090D01*
X69617671Y-62457090D01*
X69357877Y-62457090D01*
X69357872Y-62457090D01*
X69101280Y-62497730D01*
X68854197Y-62578012D01*
X68622719Y-62695958D01*
X68412548Y-62848656D01*
X68412542Y-62848661D01*
X68228845Y-63032358D01*
X68228840Y-63032364D01*
X68076142Y-63242535D01*
X67958196Y-63474013D01*
X67877914Y-63721096D01*
X67837274Y-63977687D01*
X67837274Y-64237492D01*
X67877914Y-64494083D01*
X67958196Y-64741166D01*
X68039308Y-64900354D01*
X68076140Y-64972641D01*
X68228843Y-65182819D01*
X68412545Y-65366521D01*
X68622723Y-65519224D01*
X68854202Y-65637169D01*
X68901590Y-65652566D01*
X68959266Y-65692001D01*
X68986465Y-65756359D01*
X68987274Y-65770497D01*
X68987274Y-77124098D01*
X68967589Y-77191137D01*
X68914785Y-77236892D01*
X68845627Y-77246836D01*
X68782071Y-77217811D01*
X68775593Y-77211779D01*
X52613468Y-61049654D01*
X58109764Y-61049654D01*
X58109764Y-61282385D01*
X58109765Y-61282402D01*
X58111560Y-61296038D01*
X58140143Y-61513146D01*
X58191002Y-61702955D01*
X58200384Y-61737967D01*
X58289444Y-61952980D01*
X58289452Y-61952996D01*
X58405817Y-62154544D01*
X58405828Y-62154560D01*
X58547506Y-62339199D01*
X58547512Y-62339206D01*
X58712077Y-62503771D01*
X58712083Y-62503776D01*
X58896732Y-62645462D01*
X58896739Y-62645466D01*
X59098287Y-62761831D01*
X59098303Y-62761839D01*
X59313316Y-62850899D01*
X59313318Y-62850899D01*
X59313324Y-62850902D01*
X59538138Y-62911141D01*
X59768892Y-62941520D01*
X59768899Y-62941520D01*
X60001629Y-62941520D01*
X60001636Y-62941520D01*
X60232390Y-62911141D01*
X60457204Y-62850902D01*
X60638045Y-62775996D01*
X60672224Y-62761839D01*
X60672227Y-62761837D01*
X60672233Y-62761835D01*
X60873796Y-62645462D01*
X61058445Y-62503776D01*
X61223020Y-62339201D01*
X61364706Y-62154552D01*
X61481079Y-61952989D01*
X61570146Y-61737960D01*
X61630385Y-61513146D01*
X61660764Y-61282392D01*
X61660764Y-61049648D01*
X61630385Y-60818894D01*
X61570146Y-60594080D01*
X61569760Y-60593147D01*
X61481083Y-60379059D01*
X61481075Y-60379043D01*
X61364710Y-60177495D01*
X61364706Y-60177488D01*
X61223020Y-59992839D01*
X61223015Y-59992833D01*
X61058450Y-59828268D01*
X61058443Y-59828262D01*
X60873804Y-59686584D01*
X60873802Y-59686582D01*
X60873796Y-59686578D01*
X60873791Y-59686575D01*
X60873788Y-59686573D01*
X60672240Y-59570208D01*
X60672224Y-59570200D01*
X60457211Y-59481140D01*
X60232386Y-59420898D01*
X60001646Y-59390521D01*
X60001641Y-59390520D01*
X60001636Y-59390520D01*
X59768892Y-59390520D01*
X59768886Y-59390520D01*
X59768881Y-59390521D01*
X59538141Y-59420898D01*
X59313316Y-59481140D01*
X59098303Y-59570200D01*
X59098287Y-59570208D01*
X58896739Y-59686573D01*
X58896723Y-59686584D01*
X58712084Y-59828262D01*
X58712077Y-59828268D01*
X58547512Y-59992833D01*
X58547506Y-59992840D01*
X58405828Y-60177479D01*
X58405817Y-60177495D01*
X58289452Y-60379043D01*
X58289444Y-60379059D01*
X58200384Y-60594072D01*
X58140142Y-60818897D01*
X58109765Y-61049637D01*
X58109764Y-61049654D01*
X52613468Y-61049654D01*
X52329452Y-60765638D01*
X52329450Y-60765636D01*
X52272386Y-60732690D01*
X52215323Y-60699744D01*
X52151675Y-60682690D01*
X52088028Y-60665636D01*
X52088027Y-60665636D01*
X48452554Y-60665636D01*
X48385515Y-60645951D01*
X48339760Y-60593147D01*
X48334623Y-60579955D01*
X48319223Y-60532559D01*
X48276433Y-60448581D01*
X48201280Y-60301085D01*
X48048577Y-60090907D01*
X47864875Y-59907205D01*
X47864871Y-59907202D01*
X47654700Y-59754504D01*
X47654699Y-59754503D01*
X47654697Y-59754502D01*
X47582410Y-59717670D01*
X47423222Y-59636558D01*
X47176139Y-59556276D01*
X46919548Y-59515636D01*
X46919543Y-59515636D01*
X46659749Y-59515636D01*
X46659744Y-59515636D01*
X46403152Y-59556276D01*
X46156069Y-59636558D01*
X45924591Y-59754504D01*
X45714420Y-59907202D01*
X45714414Y-59907207D01*
X45530717Y-60090904D01*
X45530712Y-60090910D01*
X45378014Y-60301081D01*
X45260068Y-60532559D01*
X45179786Y-60779642D01*
X45139146Y-61036233D01*
X45139146Y-61296038D01*
X45179786Y-61552629D01*
X45260068Y-61799712D01*
X45378014Y-62031190D01*
X45530712Y-62241361D01*
X45530715Y-62241365D01*
X45714417Y-62425067D01*
X45924595Y-62577770D01*
X46057455Y-62645466D01*
X46156069Y-62695713D01*
X46156071Y-62695713D01*
X46156074Y-62695715D01*
X46403153Y-62775996D01*
X46535352Y-62796933D01*
X46659744Y-62816636D01*
X46659749Y-62816636D01*
X46919548Y-62816636D01*
X47032944Y-62798675D01*
X47176139Y-62775996D01*
X47423218Y-62695715D01*
X47654697Y-62577770D01*
X47864875Y-62425067D01*
X48048577Y-62241365D01*
X48201280Y-62031187D01*
X48319225Y-61799708D01*
X48334623Y-61752315D01*
X48374061Y-61694642D01*
X48438420Y-61667444D01*
X48452554Y-61666636D01*
X51763460Y-61666636D01*
X51830499Y-61686321D01*
X51851141Y-61702955D01*
X58260163Y-68111977D01*
X58293648Y-68173300D01*
X58288664Y-68242992D01*
X58246792Y-68298925D01*
X58181328Y-68323342D01*
X58172482Y-68323658D01*
X53890205Y-68323658D01*
X53823166Y-68303973D01*
X53777411Y-68251169D01*
X53772274Y-68237977D01*
X53756874Y-68190581D01*
X53714084Y-68106603D01*
X53638931Y-67959107D01*
X53486228Y-67748929D01*
X53302526Y-67565227D01*
X53092348Y-67412524D01*
X53020061Y-67375692D01*
X52860873Y-67294580D01*
X52613790Y-67214298D01*
X52357199Y-67173658D01*
X52357194Y-67173658D01*
X52097400Y-67173658D01*
X52097395Y-67173658D01*
X51840803Y-67214298D01*
X51593720Y-67294580D01*
X51362242Y-67412526D01*
X51152071Y-67565224D01*
X51152065Y-67565229D01*
X50968368Y-67748926D01*
X50968363Y-67748932D01*
X50815665Y-67959103D01*
X50697719Y-68190581D01*
X50617437Y-68437664D01*
X50576797Y-68694255D01*
X50576797Y-68954060D01*
X50617437Y-69210651D01*
X50697719Y-69457734D01*
X50778831Y-69616922D01*
X50815663Y-69689209D01*
X50968366Y-69899387D01*
X51152068Y-70083089D01*
X51362246Y-70235792D01*
X51509742Y-70310945D01*
X51593720Y-70353735D01*
X51593722Y-70353735D01*
X51593725Y-70353737D01*
X51840804Y-70434018D01*
X51973003Y-70454955D01*
X52097395Y-70474658D01*
X52097400Y-70474658D01*
X52357199Y-70474658D01*
X52480030Y-70455203D01*
X52613790Y-70434018D01*
X52860869Y-70353737D01*
X53092348Y-70235792D01*
X53302526Y-70083089D01*
X53486228Y-69899387D01*
X53638931Y-69689209D01*
X53756876Y-69457730D01*
X53772274Y-69410337D01*
X53811712Y-69352664D01*
X53876071Y-69325466D01*
X53890205Y-69324658D01*
X58405482Y-69324658D01*
X58472521Y-69344343D01*
X58493163Y-69360977D01*
X67535181Y-78402995D01*
X67568666Y-78464318D01*
X67571500Y-78490676D01*
X67571500Y-88641324D01*
X67551815Y-88708363D01*
X67535181Y-88729005D01*
X65345502Y-90918683D01*
X65345500Y-90918686D01*
X65279608Y-91032812D01*
X65245500Y-91160108D01*
X65245500Y-104429324D01*
X65225815Y-104496363D01*
X65209181Y-104517005D01*
X64631794Y-105094391D01*
X64570471Y-105127876D01*
X64500779Y-105122892D01*
X64444846Y-105081020D01*
X64423965Y-105037377D01*
X64387558Y-104894742D01*
X64384628Y-104887669D01*
X64332893Y-104792923D01*
X64234950Y-104687722D01*
X64234948Y-104687721D01*
X64111327Y-104614370D01*
X64104267Y-104611445D01*
X64053271Y-104593455D01*
X63910998Y-104573000D01*
X63868322Y-104573000D01*
X63830269Y-104561826D01*
X63811000Y-104569407D01*
X63811000Y-106312208D01*
X63822843Y-106317372D01*
X63847745Y-106304944D01*
X63869617Y-106303000D01*
X63911002Y-106303000D01*
X63964988Y-106300106D01*
X64104258Y-106264557D01*
X64106333Y-106263867D01*
X64107067Y-106263840D01*
X64108551Y-106263462D01*
X64108633Y-106263784D01*
X64176158Y-106261369D01*
X64236249Y-106297017D01*
X64267528Y-106359494D01*
X64269500Y-106381519D01*
X64269500Y-108105140D01*
X64249815Y-108172179D01*
X64197011Y-108217934D01*
X64127853Y-108227878D01*
X64080712Y-108210868D01*
X64073262Y-108206302D01*
X64073251Y-108206297D01*
X64066179Y-108203367D01*
X64036307Y-108192347D01*
X64036305Y-108192346D01*
X63930846Y-108175643D01*
X63911000Y-108172500D01*
X63910999Y-108172500D01*
X63823923Y-108172500D01*
X63756884Y-108152815D01*
X63729631Y-108129030D01*
X63681426Y-108072587D01*
X63681424Y-108072585D01*
X63573259Y-108006301D01*
X63573251Y-108006297D01*
X63566179Y-108003367D01*
X63536307Y-107992347D01*
X63536305Y-107992346D01*
X63430846Y-107975643D01*
X63411000Y-107972500D01*
X63211000Y-107972500D01*
X63210990Y-107972500D01*
X63179179Y-107973749D01*
X63179177Y-107973750D01*
X63055822Y-108003367D01*
X63049966Y-108005793D01*
X63048747Y-108006298D01*
X62992060Y-108035181D01*
X62992058Y-108035182D01*
X62992055Y-108035184D01*
X62992050Y-108035187D01*
X62895590Y-108117569D01*
X62895585Y-108117575D01*
X62829301Y-108225740D01*
X62829297Y-108225748D01*
X62826367Y-108232820D01*
X62815347Y-108262692D01*
X62815346Y-108262694D01*
X62795500Y-108388000D01*
X62795500Y-109488010D01*
X62796749Y-109519820D01*
X62796750Y-109519822D01*
X62826367Y-109643177D01*
X62826368Y-109643179D01*
X62826369Y-109643182D01*
X62829298Y-109650253D01*
X62858181Y-109706940D01*
X62858183Y-109706942D01*
X62858184Y-109706944D01*
X62858187Y-109706949D01*
X62940569Y-109803409D01*
X62940575Y-109803414D01*
X63044042Y-109866819D01*
X63048747Y-109869702D01*
X63053748Y-109871773D01*
X63055820Y-109872632D01*
X63070756Y-109878142D01*
X63085694Y-109883653D01*
X63211000Y-109903500D01*
X63211001Y-109903500D01*
X63411010Y-109903500D01*
X63442820Y-109902250D01*
X63566182Y-109872631D01*
X63573253Y-109869702D01*
X63629940Y-109840819D01*
X63629946Y-109840813D01*
X63629949Y-109840812D01*
X63726409Y-109758430D01*
X63726410Y-109758427D01*
X63726413Y-109758426D01*
X63726414Y-109758423D01*
X63732750Y-109751006D01*
X63734794Y-109752751D01*
X63775602Y-109715834D01*
X63829515Y-109703500D01*
X63911010Y-109703500D01*
X63942820Y-109702250D01*
X64066182Y-109672631D01*
X64073253Y-109669702D01*
X64089206Y-109661573D01*
X64157872Y-109648677D01*
X64222613Y-109674952D01*
X64262871Y-109732058D01*
X64269500Y-109772058D01*
X64269500Y-116940501D01*
X64249815Y-117007540D01*
X64197011Y-117053295D01*
X64127853Y-117063239D01*
X64104248Y-117057438D01*
X64053275Y-117039456D01*
X64053271Y-117039455D01*
X63910998Y-117019000D01*
X63868322Y-117019000D01*
X63830269Y-117007826D01*
X63811000Y-117015407D01*
X63811000Y-118758208D01*
X63822843Y-118763372D01*
X63847745Y-118750944D01*
X63869617Y-118749000D01*
X63911002Y-118749000D01*
X63964988Y-118746106D01*
X64104258Y-118710557D01*
X64106333Y-118709867D01*
X64107067Y-118709840D01*
X64108551Y-118709462D01*
X64108633Y-118709784D01*
X64176158Y-118707369D01*
X64236249Y-118743017D01*
X64267528Y-118805494D01*
X64269500Y-118827519D01*
X64269500Y-120551140D01*
X64249815Y-120618179D01*
X64197011Y-120663934D01*
X64127853Y-120673878D01*
X64080712Y-120656868D01*
X64073262Y-120652302D01*
X64073251Y-120652297D01*
X64066179Y-120649367D01*
X64036307Y-120638347D01*
X64036305Y-120638346D01*
X63930846Y-120621643D01*
X63911000Y-120618500D01*
X63910999Y-120618500D01*
X63823923Y-120618500D01*
X63756884Y-120598815D01*
X63729631Y-120575030D01*
X63681426Y-120518587D01*
X63681424Y-120518585D01*
X63573259Y-120452301D01*
X63573251Y-120452297D01*
X63566179Y-120449367D01*
X63536307Y-120438347D01*
X63536305Y-120438346D01*
X63430846Y-120421643D01*
X63411000Y-120418500D01*
X63211000Y-120418500D01*
X63210990Y-120418500D01*
X63179179Y-120419749D01*
X63179177Y-120419750D01*
X63055822Y-120449367D01*
X63049966Y-120451793D01*
X63048747Y-120452298D01*
X62992060Y-120481181D01*
X62992058Y-120481182D01*
X62992055Y-120481184D01*
X62992050Y-120481187D01*
X62895590Y-120563569D01*
X62895585Y-120563575D01*
X62829301Y-120671740D01*
X62829297Y-120671748D01*
X62826367Y-120678820D01*
X62815347Y-120708692D01*
X62815346Y-120708694D01*
X62795500Y-120834000D01*
X62795500Y-121934010D01*
X62796749Y-121965820D01*
X62796750Y-121965822D01*
X62826367Y-122089177D01*
X62826368Y-122089179D01*
X62826369Y-122089182D01*
X62829298Y-122096253D01*
X62858181Y-122152940D01*
X62858183Y-122152942D01*
X62858184Y-122152944D01*
X62858187Y-122152949D01*
X62940569Y-122249409D01*
X62940575Y-122249414D01*
X63046214Y-122314150D01*
X63048747Y-122315702D01*
X63053748Y-122317773D01*
X63055820Y-122318632D01*
X63070756Y-122324142D01*
X63085694Y-122329653D01*
X63211000Y-122349500D01*
X63211001Y-122349500D01*
X63411010Y-122349500D01*
X63442820Y-122348250D01*
X63566182Y-122318631D01*
X63573253Y-122315702D01*
X63629940Y-122286819D01*
X63629946Y-122286813D01*
X63629949Y-122286812D01*
X63726409Y-122204430D01*
X63726410Y-122204427D01*
X63726413Y-122204426D01*
X63726414Y-122204423D01*
X63732750Y-122197006D01*
X63734794Y-122198751D01*
X63775602Y-122161834D01*
X63829515Y-122149500D01*
X63911010Y-122149500D01*
X63942820Y-122148250D01*
X64066182Y-122118631D01*
X64073253Y-122115702D01*
X64089206Y-122107573D01*
X64157872Y-122094677D01*
X64222613Y-122120952D01*
X64262871Y-122178058D01*
X64269500Y-122218058D01*
X64269500Y-126233324D01*
X64249815Y-126300363D01*
X64233181Y-126321005D01*
X62180181Y-128374005D01*
X62118858Y-128407490D01*
X62049166Y-128402506D01*
X61993233Y-128360634D01*
X61968816Y-128295170D01*
X61968500Y-128286324D01*
X61968500Y-118434002D01*
X62696000Y-118434002D01*
X62698893Y-118487988D01*
X62734442Y-118627259D01*
X62737371Y-118634330D01*
X62789106Y-118729076D01*
X62887049Y-118834277D01*
X62887051Y-118834278D01*
X63010672Y-118907629D01*
X63017732Y-118910554D01*
X63068728Y-118928544D01*
X63211001Y-118948999D01*
X63211003Y-118949000D01*
X63311000Y-118949000D01*
X63311000Y-118134000D01*
X62696000Y-118134000D01*
X62696000Y-118434002D01*
X61968500Y-118434002D01*
X61968500Y-117334001D01*
X62696000Y-117334001D01*
X62696000Y-117634000D01*
X63311000Y-117634000D01*
X63311000Y-116819000D01*
X63210998Y-116819000D01*
X63157011Y-116821893D01*
X63017740Y-116857442D01*
X63010669Y-116860371D01*
X62915923Y-116912106D01*
X62810722Y-117010049D01*
X62810721Y-117010051D01*
X62737370Y-117133672D01*
X62734445Y-117140732D01*
X62716455Y-117191728D01*
X62696000Y-117334001D01*
X61968500Y-117334001D01*
X61968500Y-105988002D01*
X62696000Y-105988002D01*
X62698893Y-106041988D01*
X62734442Y-106181259D01*
X62737371Y-106188330D01*
X62789106Y-106283076D01*
X62887049Y-106388277D01*
X62887051Y-106388278D01*
X63010672Y-106461629D01*
X63017732Y-106464554D01*
X63068728Y-106482544D01*
X63211001Y-106502999D01*
X63211003Y-106503000D01*
X63311000Y-106503000D01*
X63311000Y-105688000D01*
X62696000Y-105688000D01*
X62696000Y-105988002D01*
X61968500Y-105988002D01*
X61968500Y-104888001D01*
X62696000Y-104888001D01*
X62696000Y-105188000D01*
X63311000Y-105188000D01*
X63311000Y-104373000D01*
X63210998Y-104373000D01*
X63157011Y-104375893D01*
X63017740Y-104411442D01*
X63010669Y-104414371D01*
X62915923Y-104466106D01*
X62810722Y-104564049D01*
X62810721Y-104564051D01*
X62737370Y-104687672D01*
X62734445Y-104694732D01*
X62716455Y-104745728D01*
X62696000Y-104888001D01*
X61968500Y-104888001D01*
X61968500Y-95942000D01*
X62795500Y-95942000D01*
X62795500Y-97042010D01*
X62796749Y-97073820D01*
X62796750Y-97073822D01*
X62826367Y-97197177D01*
X62826368Y-97197179D01*
X62826369Y-97197182D01*
X62829298Y-97204253D01*
X62858181Y-97260940D01*
X62858183Y-97260942D01*
X62858184Y-97260944D01*
X62858187Y-97260949D01*
X62940569Y-97357409D01*
X62940575Y-97357414D01*
X63048740Y-97423698D01*
X63048747Y-97423702D01*
X63053748Y-97425773D01*
X63055820Y-97426632D01*
X63070756Y-97432142D01*
X63085694Y-97437653D01*
X63211000Y-97457500D01*
X63211001Y-97457500D01*
X63411010Y-97457500D01*
X63442820Y-97456250D01*
X63566182Y-97426631D01*
X63573253Y-97423702D01*
X63629940Y-97394819D01*
X63629946Y-97394813D01*
X63629949Y-97394812D01*
X63726409Y-97312430D01*
X63726410Y-97312427D01*
X63726413Y-97312426D01*
X63726414Y-97312423D01*
X63732750Y-97305006D01*
X63734794Y-97306751D01*
X63775602Y-97269834D01*
X63829515Y-97257500D01*
X63911010Y-97257500D01*
X63942820Y-97256250D01*
X64066182Y-97226631D01*
X64073253Y-97223702D01*
X64129940Y-97194819D01*
X64129946Y-97194813D01*
X64129949Y-97194812D01*
X64226409Y-97112430D01*
X64226410Y-97112427D01*
X64226413Y-97112426D01*
X64292702Y-97004253D01*
X64295631Y-96997182D01*
X64306653Y-96967306D01*
X64326500Y-96842000D01*
X64326500Y-96142000D01*
X64325250Y-96110180D01*
X64295631Y-95986818D01*
X64292702Y-95979747D01*
X64263819Y-95923060D01*
X64263815Y-95923055D01*
X64263812Y-95923050D01*
X64181430Y-95826590D01*
X64181424Y-95826585D01*
X64073259Y-95760301D01*
X64073251Y-95760297D01*
X64066179Y-95757367D01*
X64036307Y-95746347D01*
X64036305Y-95746346D01*
X63930846Y-95729643D01*
X63911000Y-95726500D01*
X63910999Y-95726500D01*
X63823923Y-95726500D01*
X63756884Y-95706815D01*
X63729631Y-95683030D01*
X63704847Y-95654011D01*
X63681426Y-95626587D01*
X63681424Y-95626585D01*
X63573259Y-95560301D01*
X63573251Y-95560297D01*
X63566179Y-95557367D01*
X63536307Y-95546347D01*
X63536305Y-95546346D01*
X63430846Y-95529643D01*
X63411000Y-95526500D01*
X63211000Y-95526500D01*
X63210990Y-95526500D01*
X63179179Y-95527749D01*
X63179177Y-95527750D01*
X63055822Y-95557367D01*
X63049966Y-95559793D01*
X63048747Y-95560298D01*
X62992060Y-95589181D01*
X62992058Y-95589182D01*
X62992055Y-95589184D01*
X62992050Y-95589187D01*
X62895590Y-95671569D01*
X62895585Y-95671575D01*
X62829301Y-95779740D01*
X62829297Y-95779748D01*
X62826367Y-95786820D01*
X62815347Y-95816692D01*
X62815346Y-95816694D01*
X62795500Y-95942000D01*
X61968500Y-95942000D01*
X61968500Y-93542002D01*
X62696000Y-93542002D01*
X62698893Y-93595988D01*
X62734442Y-93735259D01*
X62737371Y-93742330D01*
X62789106Y-93837076D01*
X62887049Y-93942277D01*
X62887051Y-93942278D01*
X63010672Y-94015629D01*
X63017732Y-94018554D01*
X63068728Y-94036544D01*
X63211001Y-94056999D01*
X63211003Y-94057000D01*
X63311000Y-94057000D01*
X63311000Y-93866208D01*
X63811000Y-93866208D01*
X63822843Y-93871372D01*
X63847745Y-93858944D01*
X63869617Y-93857000D01*
X63911002Y-93857000D01*
X63964988Y-93854106D01*
X64104259Y-93818557D01*
X64111330Y-93815628D01*
X64206076Y-93763893D01*
X64311277Y-93665950D01*
X64311278Y-93665948D01*
X64384629Y-93542327D01*
X64387554Y-93535267D01*
X64405544Y-93484271D01*
X64425999Y-93341998D01*
X64426000Y-93341997D01*
X64426000Y-93242000D01*
X63811000Y-93242000D01*
X63811000Y-93866208D01*
X63311000Y-93866208D01*
X63311000Y-93242000D01*
X62696000Y-93242000D01*
X62696000Y-93542002D01*
X61968500Y-93542002D01*
X61968500Y-92442001D01*
X62696000Y-92442001D01*
X62696000Y-92742000D01*
X63311000Y-92742000D01*
X63311000Y-92140775D01*
X63811000Y-92140775D01*
X63811000Y-92742000D01*
X64426000Y-92742000D01*
X64426000Y-92641997D01*
X64423106Y-92588011D01*
X64387557Y-92448740D01*
X64384628Y-92441669D01*
X64332893Y-92346923D01*
X64234950Y-92241722D01*
X64234948Y-92241721D01*
X64111327Y-92168370D01*
X64104267Y-92165445D01*
X64053271Y-92147455D01*
X63910998Y-92127000D01*
X63880496Y-92127000D01*
X63811000Y-92140775D01*
X63311000Y-92140775D01*
X63311000Y-91927000D01*
X63210998Y-91927000D01*
X63157011Y-91929893D01*
X63017740Y-91965442D01*
X63010669Y-91968371D01*
X62915923Y-92020106D01*
X62810722Y-92118049D01*
X62810721Y-92118051D01*
X62737370Y-92241672D01*
X62734445Y-92248732D01*
X62716455Y-92299728D01*
X62696000Y-92442001D01*
X61968500Y-92442001D01*
X61968500Y-84281037D01*
X61988185Y-84213998D01*
X62019611Y-84180721D01*
X62162574Y-84076854D01*
X62346276Y-83893152D01*
X62498979Y-83682974D01*
X62616924Y-83451495D01*
X62697205Y-83204416D01*
X62733326Y-82976355D01*
X62737845Y-82947825D01*
X62737845Y-82688020D01*
X62716292Y-82551944D01*
X62697205Y-82431430D01*
X62616924Y-82184351D01*
X62616922Y-82184348D01*
X62616922Y-82184346D01*
X62550600Y-82054184D01*
X62498979Y-81952872D01*
X62346276Y-81742694D01*
X62162574Y-81558992D01*
X61952396Y-81406289D01*
X61880109Y-81369457D01*
X61720921Y-81288345D01*
X61473838Y-81208063D01*
X61217247Y-81167423D01*
X61217242Y-81167423D01*
X60957448Y-81167423D01*
X60957443Y-81167423D01*
X60700851Y-81208063D01*
X60453768Y-81288345D01*
X60222290Y-81406291D01*
X60012119Y-81558989D01*
X60012113Y-81558994D01*
X59828416Y-81742691D01*
X59828411Y-81742697D01*
X59675713Y-81952868D01*
X59557767Y-82184346D01*
X59477485Y-82431429D01*
X59436845Y-82688020D01*
X59436845Y-82947825D01*
X59477485Y-83204416D01*
X59557767Y-83451499D01*
X59638879Y-83610687D01*
X59675711Y-83682974D01*
X59828414Y-83893152D01*
X60012116Y-84076854D01*
X60222294Y-84229557D01*
X60323329Y-84281037D01*
X60453768Y-84347500D01*
X60453770Y-84347500D01*
X60453773Y-84347502D01*
X60586214Y-84390534D01*
X60700851Y-84427783D01*
X60862897Y-84453448D01*
X60926032Y-84483377D01*
X60962964Y-84542688D01*
X60967500Y-84575921D01*
X60967500Y-86757324D01*
X60947815Y-86824363D01*
X60895011Y-86870118D01*
X60825853Y-86880062D01*
X60762297Y-86851037D01*
X60755819Y-86845005D01*
X52342300Y-78431486D01*
X62206120Y-78431486D01*
X62206120Y-78563269D01*
X62240228Y-78690565D01*
X62263600Y-78731046D01*
X62306120Y-78804692D01*
X62836450Y-79335022D01*
X63459966Y-79958539D01*
X63558801Y-80015602D01*
X63574090Y-80024429D01*
X63574094Y-80024431D01*
X63701387Y-80058539D01*
X63701388Y-80058539D01*
X63701389Y-80058539D01*
X63833169Y-80058539D01*
X63833172Y-80058539D01*
X63926360Y-80033570D01*
X63960467Y-80024432D01*
X64001166Y-80000932D01*
X64074594Y-79958539D01*
X64167780Y-79865354D01*
X64167780Y-79865353D01*
X64177982Y-79855152D01*
X64177989Y-79855142D01*
X65478597Y-78554534D01*
X65478607Y-78554527D01*
X65488809Y-78544325D01*
X65581994Y-78451139D01*
X65624387Y-78377711D01*
X65647887Y-78337012D01*
X65657025Y-78302905D01*
X65681994Y-78209717D01*
X65681994Y-78077932D01*
X65647886Y-77950639D01*
X65630664Y-77920810D01*
X65625641Y-77912109D01*
X65625640Y-77912108D01*
X65581994Y-77836510D01*
X65488809Y-77743325D01*
X65488808Y-77743324D01*
X65484478Y-77738994D01*
X65484467Y-77738984D01*
X64958477Y-77212995D01*
X64428149Y-76682667D01*
X64428147Y-76682665D01*
X64371083Y-76649719D01*
X64314020Y-76616773D01*
X64250372Y-76599719D01*
X64186725Y-76582665D01*
X64054940Y-76582665D01*
X63927645Y-76616773D01*
X63813519Y-76682665D01*
X63813516Y-76682667D01*
X63720331Y-76775853D01*
X62381865Y-78114318D01*
X62381864Y-78114318D01*
X62381865Y-78114319D01*
X62306120Y-78190064D01*
X62240228Y-78304190D01*
X62206120Y-78431486D01*
X52342300Y-78431486D01*
X48615819Y-74705005D01*
X48582334Y-74643682D01*
X48579500Y-74617324D01*
X48579500Y-74607004D01*
X48552581Y-74471677D01*
X48552580Y-74471676D01*
X48552580Y-74471672D01*
X48513912Y-74378319D01*
X48499778Y-74344195D01*
X48499771Y-74344182D01*
X48423114Y-74229458D01*
X48423111Y-74229454D01*
X48339245Y-74145588D01*
X58109764Y-74145588D01*
X58109764Y-74378319D01*
X58109765Y-74378336D01*
X58139869Y-74607004D01*
X58140143Y-74609080D01*
X58176561Y-74744995D01*
X58200384Y-74833901D01*
X58289444Y-75048914D01*
X58289452Y-75048930D01*
X58405817Y-75250478D01*
X58405828Y-75250494D01*
X58547506Y-75435133D01*
X58547512Y-75435140D01*
X58712077Y-75599705D01*
X58712083Y-75599710D01*
X58896732Y-75741396D01*
X58896739Y-75741400D01*
X59098287Y-75857765D01*
X59098303Y-75857773D01*
X59313316Y-75946833D01*
X59313318Y-75946833D01*
X59313324Y-75946836D01*
X59538138Y-76007075D01*
X59768892Y-76037454D01*
X59768899Y-76037454D01*
X60001629Y-76037454D01*
X60001636Y-76037454D01*
X60232390Y-76007075D01*
X60457204Y-75946836D01*
X60515217Y-75922806D01*
X60672224Y-75857773D01*
X60672227Y-75857771D01*
X60672233Y-75857769D01*
X60873796Y-75741396D01*
X61058445Y-75599710D01*
X61223020Y-75435135D01*
X61364706Y-75250486D01*
X61481079Y-75048923D01*
X61498106Y-75007817D01*
X61570143Y-74833901D01*
X61570142Y-74833901D01*
X61570146Y-74833894D01*
X61630385Y-74609080D01*
X61660764Y-74378326D01*
X61660764Y-74145582D01*
X61630385Y-73914828D01*
X61570146Y-73690014D01*
X61570143Y-73690006D01*
X61481083Y-73474993D01*
X61481075Y-73474977D01*
X61364710Y-73273429D01*
X61364706Y-73273422D01*
X61223020Y-73088773D01*
X61223015Y-73088767D01*
X61058450Y-72924202D01*
X61058443Y-72924196D01*
X60873804Y-72782518D01*
X60873802Y-72782516D01*
X60873796Y-72782512D01*
X60873791Y-72782509D01*
X60873788Y-72782507D01*
X60672240Y-72666142D01*
X60672224Y-72666134D01*
X60457211Y-72577074D01*
X60232386Y-72516832D01*
X60001646Y-72486455D01*
X60001641Y-72486454D01*
X60001636Y-72486454D01*
X59768892Y-72486454D01*
X59768886Y-72486454D01*
X59768881Y-72486455D01*
X59538141Y-72516832D01*
X59313316Y-72577074D01*
X59098303Y-72666134D01*
X59098287Y-72666142D01*
X58896739Y-72782507D01*
X58896723Y-72782518D01*
X58712084Y-72924196D01*
X58712077Y-72924202D01*
X58547512Y-73088767D01*
X58547506Y-73088774D01*
X58405828Y-73273413D01*
X58405817Y-73273429D01*
X58289452Y-73474977D01*
X58289444Y-73474993D01*
X58200384Y-73690006D01*
X58140142Y-73914831D01*
X58109765Y-74145571D01*
X58109764Y-74145588D01*
X48339245Y-74145588D01*
X48325545Y-74131888D01*
X48325541Y-74131885D01*
X48210817Y-74055228D01*
X48210804Y-74055221D01*
X48083332Y-74002421D01*
X48083322Y-74002418D01*
X47947995Y-73975500D01*
X47947993Y-73975500D01*
X47810007Y-73975500D01*
X47810005Y-73975500D01*
X47674677Y-74002418D01*
X47674667Y-74002421D01*
X47547195Y-74055221D01*
X47547182Y-74055228D01*
X47432458Y-74131885D01*
X47432454Y-74131888D01*
X47334888Y-74229454D01*
X47334885Y-74229458D01*
X47258228Y-74344182D01*
X47258221Y-74344195D01*
X47205421Y-74471667D01*
X47205418Y-74471677D01*
X47178500Y-74607004D01*
X47178500Y-74607007D01*
X47178500Y-74744993D01*
X47178500Y-74744995D01*
X47178499Y-74744995D01*
X47205418Y-74880322D01*
X47205421Y-74880332D01*
X47258221Y-75007804D01*
X47258228Y-75007817D01*
X47334885Y-75122541D01*
X47334888Y-75122545D01*
X47432454Y-75220111D01*
X47432458Y-75220114D01*
X47547182Y-75296771D01*
X47547195Y-75296778D01*
X47674667Y-75349578D01*
X47674672Y-75349580D01*
X47674676Y-75349580D01*
X47674677Y-75349581D01*
X47810004Y-75376500D01*
X47810007Y-75376500D01*
X47820324Y-75376500D01*
X47887363Y-75396185D01*
X47908005Y-75412819D01*
X60169181Y-87673995D01*
X60202666Y-87735318D01*
X60205500Y-87761676D01*
X60205500Y-128519324D01*
X60185815Y-128586363D01*
X60169181Y-128607005D01*
X59624005Y-129152181D01*
X59562682Y-129185666D01*
X59536324Y-129188500D01*
X57975439Y-129188500D01*
X57954838Y-129182450D01*
X57933404Y-129181158D01*
X57913007Y-129170167D01*
X57908400Y-129168815D01*
X57902240Y-129164590D01*
X57901691Y-129164189D01*
X57876331Y-129145204D01*
X57875108Y-129144748D01*
X57867372Y-129139090D01*
X57850898Y-129117587D01*
X57831743Y-129098435D01*
X57829964Y-129090264D01*
X57824880Y-129083627D01*
X57822646Y-129056633D01*
X57816886Y-129030163D01*
X57819807Y-129022328D01*
X57819118Y-129013995D01*
X57831833Y-128990077D01*
X57841298Y-128964697D01*
X57848768Y-128958223D01*
X57851917Y-128952302D01*
X57862356Y-128946449D01*
X57870311Y-128939556D01*
X57869230Y-128938112D01*
X57892522Y-128920675D01*
X57968586Y-128863733D01*
X58034050Y-128839316D01*
X58042897Y-128839000D01*
X58226010Y-128839000D01*
X58226011Y-128838998D01*
X58218557Y-128782372D01*
X58218555Y-128782366D01*
X58158100Y-128636412D01*
X58154035Y-128629372D01*
X58155187Y-128628706D01*
X58133039Y-128571421D01*
X58133319Y-128547848D01*
X58134500Y-128536873D01*
X58134499Y-128241128D01*
X58128091Y-128181517D01*
X58100421Y-128107332D01*
X58095438Y-128037642D01*
X58100420Y-128020672D01*
X58128091Y-127946483D01*
X58134500Y-127886873D01*
X58134499Y-127591128D01*
X58128091Y-127531517D01*
X58100421Y-127457332D01*
X58095438Y-127387642D01*
X58100420Y-127370672D01*
X58128091Y-127296483D01*
X58134500Y-127236873D01*
X58134499Y-126941128D01*
X58128091Y-126881517D01*
X58077796Y-126746669D01*
X58077795Y-126746668D01*
X58077793Y-126746664D01*
X57991547Y-126631455D01*
X57991544Y-126631452D01*
X57876335Y-126545206D01*
X57876328Y-126545202D01*
X57741483Y-126494908D01*
X57686027Y-126488946D01*
X57621477Y-126462208D01*
X57581629Y-126404815D01*
X57579136Y-126334989D01*
X57614789Y-126274901D01*
X57636154Y-126258930D01*
X57772865Y-126178081D01*
X57889081Y-126061865D01*
X57972744Y-125920398D01*
X58018598Y-125762569D01*
X58021500Y-125725694D01*
X58021500Y-125094306D01*
X58018598Y-125057431D01*
X57972744Y-124899602D01*
X57889081Y-124758135D01*
X57889079Y-124758133D01*
X57889076Y-124758129D01*
X57772870Y-124641923D01*
X57772867Y-124641921D01*
X57772865Y-124641919D01*
X57743805Y-124624733D01*
X57696123Y-124573666D01*
X57683618Y-124504925D01*
X57710263Y-124440335D01*
X57741831Y-124412463D01*
X57839343Y-124352317D01*
X57963315Y-124228345D01*
X58055356Y-124079124D01*
X58055358Y-124079119D01*
X58110505Y-123912697D01*
X58110506Y-123912690D01*
X58120999Y-123809986D01*
X58121000Y-123809973D01*
X58121000Y-123760000D01*
X55671001Y-123760000D01*
X55671001Y-123809986D01*
X55681494Y-123912697D01*
X55736641Y-124079119D01*
X55736643Y-124079124D01*
X55828684Y-124228345D01*
X55952654Y-124352315D01*
X56050169Y-124412463D01*
X56096893Y-124464411D01*
X56108116Y-124533374D01*
X56080272Y-124597456D01*
X56048193Y-124624734D01*
X56019138Y-124641916D01*
X56019129Y-124641923D01*
X55902923Y-124758129D01*
X55902919Y-124758135D01*
X55871920Y-124810551D01*
X55820850Y-124858234D01*
X55752108Y-124870737D01*
X55706738Y-124856789D01*
X55703809Y-124855223D01*
X55576332Y-124802421D01*
X55576322Y-124802418D01*
X55440995Y-124775500D01*
X55440993Y-124775500D01*
X55303007Y-124775500D01*
X55303005Y-124775500D01*
X55167677Y-124802418D01*
X55167667Y-124802421D01*
X55040182Y-124855227D01*
X55038940Y-124855891D01*
X55038215Y-124856041D01*
X55034560Y-124857556D01*
X55034272Y-124856862D01*
X54970535Y-124870125D01*
X54905294Y-124845117D01*
X54863931Y-124788807D01*
X54856500Y-124746526D01*
X54856500Y-123210013D01*
X55671000Y-123210013D01*
X55671000Y-123260000D01*
X56646000Y-123260000D01*
X57146000Y-123260000D01*
X58120999Y-123260000D01*
X58120999Y-123210028D01*
X58120998Y-123210013D01*
X58110505Y-123107302D01*
X58055358Y-122940880D01*
X58055356Y-122940875D01*
X57963315Y-122791654D01*
X57839345Y-122667684D01*
X57690124Y-122575643D01*
X57690119Y-122575641D01*
X57523697Y-122520494D01*
X57523690Y-122520493D01*
X57420986Y-122510000D01*
X57146000Y-122510000D01*
X57146000Y-123260000D01*
X56646000Y-123260000D01*
X56646000Y-122510000D01*
X56371029Y-122510000D01*
X56371012Y-122510001D01*
X56268302Y-122520494D01*
X56101880Y-122575641D01*
X56101875Y-122575643D01*
X55952654Y-122667684D01*
X55828684Y-122791654D01*
X55736643Y-122940875D01*
X55736641Y-122940880D01*
X55681494Y-123107302D01*
X55681493Y-123107309D01*
X55671000Y-123210013D01*
X54856500Y-123210013D01*
X54856500Y-122216859D01*
X54876185Y-122149820D01*
X54928989Y-122104065D01*
X54998147Y-122094121D01*
X55045293Y-122111134D01*
X55048670Y-122113204D01*
X55052743Y-122115700D01*
X55052745Y-122115700D01*
X55052747Y-122115702D01*
X55057748Y-122117773D01*
X55059820Y-122118632D01*
X55066109Y-122120952D01*
X55089694Y-122129653D01*
X55215000Y-122149500D01*
X55302077Y-122149500D01*
X55369116Y-122169185D01*
X55396369Y-122192970D01*
X55444573Y-122249412D01*
X55444575Y-122249414D01*
X55550214Y-122314150D01*
X55552747Y-122315702D01*
X55557748Y-122317773D01*
X55559820Y-122318632D01*
X55574756Y-122324142D01*
X55589694Y-122329653D01*
X55715000Y-122349500D01*
X55715001Y-122349500D01*
X55915010Y-122349500D01*
X55946820Y-122348250D01*
X56070182Y-122318631D01*
X56077253Y-122315702D01*
X56133940Y-122286819D01*
X56133946Y-122286813D01*
X56133949Y-122286812D01*
X56230409Y-122204430D01*
X56230410Y-122204427D01*
X56230413Y-122204426D01*
X56296702Y-122096253D01*
X56299631Y-122089182D01*
X56310653Y-122059306D01*
X56330500Y-121934000D01*
X56330500Y-120834000D01*
X56330495Y-120833885D01*
X56329250Y-120802179D01*
X56329249Y-120802177D01*
X56319979Y-120763569D01*
X56299631Y-120678818D01*
X56296702Y-120671747D01*
X56267819Y-120615060D01*
X56267815Y-120615055D01*
X56267812Y-120615050D01*
X56185430Y-120518590D01*
X56185424Y-120518585D01*
X56077259Y-120452301D01*
X56077251Y-120452297D01*
X56070179Y-120449367D01*
X56040307Y-120438347D01*
X56040305Y-120438346D01*
X55934846Y-120421643D01*
X55915000Y-120418500D01*
X55715000Y-120418500D01*
X55714990Y-120418500D01*
X55683179Y-120419749D01*
X55683177Y-120419750D01*
X55559822Y-120449367D01*
X55553966Y-120451793D01*
X55552747Y-120452298D01*
X55496060Y-120481181D01*
X55496058Y-120481182D01*
X55496055Y-120481184D01*
X55496050Y-120481187D01*
X55399590Y-120563569D01*
X55393250Y-120570994D01*
X55391205Y-120569248D01*
X55350398Y-120606166D01*
X55296485Y-120618500D01*
X55214990Y-120618500D01*
X55183179Y-120619749D01*
X55183177Y-120619750D01*
X55059822Y-120649367D01*
X55053966Y-120651793D01*
X55052747Y-120652298D01*
X55052743Y-120652299D01*
X55052734Y-120652304D01*
X55036792Y-120660427D01*
X54968122Y-120673322D01*
X54903383Y-120647044D01*
X54863127Y-120589936D01*
X54856500Y-120549941D01*
X54856500Y-119356674D01*
X54876185Y-119289635D01*
X54892815Y-119268997D01*
X55355503Y-118806308D01*
X55416824Y-118772825D01*
X55486515Y-118777809D01*
X55507972Y-118788264D01*
X55550214Y-118814150D01*
X55552747Y-118815702D01*
X55557748Y-118817773D01*
X55559820Y-118818632D01*
X55574756Y-118824142D01*
X55589694Y-118829653D01*
X55715000Y-118849500D01*
X55715001Y-118849500D01*
X55915010Y-118849500D01*
X55946820Y-118848250D01*
X56070182Y-118818631D01*
X56077253Y-118815702D01*
X56133940Y-118786819D01*
X56133946Y-118786813D01*
X56133949Y-118786812D01*
X56230409Y-118704430D01*
X56230410Y-118704427D01*
X56230413Y-118704426D01*
X56296702Y-118596253D01*
X56299631Y-118589182D01*
X56310653Y-118559306D01*
X56330500Y-118434000D01*
X56330500Y-117334000D01*
X56330495Y-117333885D01*
X56329250Y-117302179D01*
X56329249Y-117302177D01*
X56319979Y-117263569D01*
X56299631Y-117178818D01*
X56296702Y-117171747D01*
X56267819Y-117115060D01*
X56267815Y-117115055D01*
X56267812Y-117115050D01*
X56185430Y-117018590D01*
X56185424Y-117018585D01*
X56077259Y-116952301D01*
X56077251Y-116952297D01*
X56070179Y-116949367D01*
X56040307Y-116938347D01*
X56040305Y-116938346D01*
X55934846Y-116921643D01*
X55915000Y-116918500D01*
X55715000Y-116918500D01*
X55714990Y-116918500D01*
X55683179Y-116919749D01*
X55683177Y-116919750D01*
X55559822Y-116949367D01*
X55553966Y-116951793D01*
X55552747Y-116952298D01*
X55496060Y-116981181D01*
X55496058Y-116981182D01*
X55496055Y-116981184D01*
X55496050Y-116981187D01*
X55399590Y-117063569D01*
X55393250Y-117070994D01*
X55391205Y-117069248D01*
X55350398Y-117106166D01*
X55296485Y-117118500D01*
X55214990Y-117118500D01*
X55183179Y-117119749D01*
X55183177Y-117119750D01*
X55059822Y-117149367D01*
X55053966Y-117151793D01*
X55052747Y-117152298D01*
X54996060Y-117181181D01*
X54996058Y-117181182D01*
X54996055Y-117181184D01*
X54996050Y-117181187D01*
X54899590Y-117263569D01*
X54899585Y-117263575D01*
X54833301Y-117371740D01*
X54833297Y-117371748D01*
X54830367Y-117378820D01*
X54819347Y-117408692D01*
X54819346Y-117408694D01*
X54799500Y-117534000D01*
X54799500Y-117895324D01*
X54779815Y-117962363D01*
X54763181Y-117983005D01*
X54560181Y-118186005D01*
X54498858Y-118219490D01*
X54429166Y-118214506D01*
X54373233Y-118172634D01*
X54348816Y-118107170D01*
X54348500Y-118098324D01*
X54348500Y-108588000D01*
X54799500Y-108588000D01*
X54799500Y-109288010D01*
X54800749Y-109319820D01*
X54800750Y-109319822D01*
X54830367Y-109443177D01*
X54830368Y-109443179D01*
X54830369Y-109443182D01*
X54833298Y-109450253D01*
X54862181Y-109506940D01*
X54862183Y-109506942D01*
X54862184Y-109506944D01*
X54862187Y-109506949D01*
X54944569Y-109603409D01*
X54944575Y-109603414D01*
X55051898Y-109669182D01*
X55052747Y-109669702D01*
X55057748Y-109671773D01*
X55059820Y-109672632D01*
X55069652Y-109676259D01*
X55089694Y-109683653D01*
X55215000Y-109703500D01*
X55302077Y-109703500D01*
X55369116Y-109723185D01*
X55396367Y-109746969D01*
X55399816Y-109751006D01*
X55444573Y-109803412D01*
X55444575Y-109803414D01*
X55548042Y-109866819D01*
X55552747Y-109869702D01*
X55557748Y-109871773D01*
X55559820Y-109872632D01*
X55574756Y-109878142D01*
X55589694Y-109883653D01*
X55715000Y-109903500D01*
X55715001Y-109903500D01*
X55915010Y-109903500D01*
X55946820Y-109902250D01*
X56070182Y-109872631D01*
X56077253Y-109869702D01*
X56133940Y-109840819D01*
X56133946Y-109840813D01*
X56133949Y-109840812D01*
X56230409Y-109758430D01*
X56230410Y-109758427D01*
X56230413Y-109758426D01*
X56296702Y-109650253D01*
X56299631Y-109643182D01*
X56310653Y-109613306D01*
X56330500Y-109488000D01*
X56330500Y-108388000D01*
X56330495Y-108387885D01*
X56329250Y-108356179D01*
X56329249Y-108356177D01*
X56326223Y-108343575D01*
X56299631Y-108232818D01*
X56296702Y-108225747D01*
X56267819Y-108169060D01*
X56267815Y-108169055D01*
X56267812Y-108169050D01*
X56185430Y-108072590D01*
X56185424Y-108072585D01*
X56077259Y-108006301D01*
X56077251Y-108006297D01*
X56070179Y-108003367D01*
X56040307Y-107992347D01*
X56040305Y-107992346D01*
X55934846Y-107975643D01*
X55915000Y-107972500D01*
X55715000Y-107972500D01*
X55714990Y-107972500D01*
X55683179Y-107973749D01*
X55683177Y-107973750D01*
X55559822Y-108003367D01*
X55553966Y-108005793D01*
X55552747Y-108006298D01*
X55496060Y-108035181D01*
X55496058Y-108035182D01*
X55496055Y-108035184D01*
X55496050Y-108035187D01*
X55399590Y-108117569D01*
X55393250Y-108124994D01*
X55391205Y-108123248D01*
X55350398Y-108160166D01*
X55296485Y-108172500D01*
X55214990Y-108172500D01*
X55183179Y-108173749D01*
X55183177Y-108173750D01*
X55059822Y-108203367D01*
X55053966Y-108205793D01*
X55052747Y-108206298D01*
X54996060Y-108235181D01*
X54996058Y-108235182D01*
X54996055Y-108235184D01*
X54996050Y-108235187D01*
X54899590Y-108317569D01*
X54899585Y-108317575D01*
X54833301Y-108425740D01*
X54833297Y-108425748D01*
X54830367Y-108432820D01*
X54819347Y-108462692D01*
X54819346Y-108462694D01*
X54799500Y-108588000D01*
X54348500Y-108588000D01*
X54348500Y-107418675D01*
X54368185Y-107351636D01*
X54384814Y-107330998D01*
X55355504Y-106360308D01*
X55416825Y-106326825D01*
X55486516Y-106331809D01*
X55507967Y-106342260D01*
X55552747Y-106369702D01*
X55557748Y-106371773D01*
X55559820Y-106372632D01*
X55574756Y-106378142D01*
X55589694Y-106383653D01*
X55715000Y-106403500D01*
X55715001Y-106403500D01*
X55915010Y-106403500D01*
X55946820Y-106402250D01*
X56070182Y-106372631D01*
X56077253Y-106369702D01*
X56133940Y-106340819D01*
X56133946Y-106340813D01*
X56133949Y-106340812D01*
X56230409Y-106258430D01*
X56230410Y-106258427D01*
X56230413Y-106258426D01*
X56296702Y-106150253D01*
X56299631Y-106143182D01*
X56310653Y-106113306D01*
X56330500Y-105988000D01*
X56330500Y-104888000D01*
X56330271Y-104882180D01*
X56329250Y-104856179D01*
X56329249Y-104856177D01*
X56326223Y-104843575D01*
X56299631Y-104732818D01*
X56296702Y-104725747D01*
X56267819Y-104669060D01*
X56267815Y-104669055D01*
X56267812Y-104669050D01*
X56185430Y-104572590D01*
X56185424Y-104572585D01*
X56077259Y-104506301D01*
X56077251Y-104506297D01*
X56070179Y-104503367D01*
X56040307Y-104492347D01*
X56040305Y-104492346D01*
X55934846Y-104475643D01*
X55915000Y-104472500D01*
X55715000Y-104472500D01*
X55714990Y-104472500D01*
X55683179Y-104473749D01*
X55683177Y-104473750D01*
X55559822Y-104503367D01*
X55553966Y-104505793D01*
X55552747Y-104506298D01*
X55496060Y-104535181D01*
X55496058Y-104535182D01*
X55496055Y-104535184D01*
X55496050Y-104535187D01*
X55399590Y-104617569D01*
X55393250Y-104624994D01*
X55391205Y-104623248D01*
X55350398Y-104660166D01*
X55296485Y-104672500D01*
X55214990Y-104672500D01*
X55183179Y-104673749D01*
X55183177Y-104673750D01*
X55059822Y-104703367D01*
X55053966Y-104705793D01*
X55052747Y-104706298D01*
X54996060Y-104735181D01*
X54996058Y-104735182D01*
X54996055Y-104735184D01*
X54996050Y-104735187D01*
X54899590Y-104817569D01*
X54899585Y-104817575D01*
X54833301Y-104925740D01*
X54833297Y-104925748D01*
X54830367Y-104932820D01*
X54819347Y-104962692D01*
X54819346Y-104962694D01*
X54799500Y-105088000D01*
X54799500Y-105449324D01*
X54779815Y-105516363D01*
X54763181Y-105537005D01*
X54052181Y-106248005D01*
X53990858Y-106281490D01*
X53921166Y-106276506D01*
X53865233Y-106234634D01*
X53840816Y-106169170D01*
X53840500Y-106160324D01*
X53840500Y-96142000D01*
X54799500Y-96142000D01*
X54799500Y-96842010D01*
X54800749Y-96873820D01*
X54800750Y-96873822D01*
X54830367Y-96997177D01*
X54830368Y-96997179D01*
X54830369Y-96997182D01*
X54833298Y-97004253D01*
X54862181Y-97060940D01*
X54862183Y-97060942D01*
X54862184Y-97060944D01*
X54862187Y-97060949D01*
X54944569Y-97157409D01*
X54944575Y-97157414D01*
X55021009Y-97204253D01*
X55052747Y-97223702D01*
X55057748Y-97225773D01*
X55059820Y-97226632D01*
X55074756Y-97232142D01*
X55089694Y-97237653D01*
X55215000Y-97257500D01*
X55302077Y-97257500D01*
X55369116Y-97277185D01*
X55396369Y-97300970D01*
X55444573Y-97357412D01*
X55444575Y-97357414D01*
X55552740Y-97423698D01*
X55552747Y-97423702D01*
X55557748Y-97425773D01*
X55559820Y-97426632D01*
X55574756Y-97432142D01*
X55589694Y-97437653D01*
X55715000Y-97457500D01*
X55715001Y-97457500D01*
X55915010Y-97457500D01*
X55946820Y-97456250D01*
X56070182Y-97426631D01*
X56077253Y-97423702D01*
X56133940Y-97394819D01*
X56133946Y-97394813D01*
X56133949Y-97394812D01*
X56230409Y-97312430D01*
X56230410Y-97312427D01*
X56230413Y-97312426D01*
X56296702Y-97204253D01*
X56299631Y-97197182D01*
X56310653Y-97167306D01*
X56330500Y-97042000D01*
X56330500Y-95942000D01*
X56329250Y-95910180D01*
X56299631Y-95786818D01*
X56296702Y-95779747D01*
X56267819Y-95723060D01*
X56267815Y-95723055D01*
X56267812Y-95723050D01*
X56185430Y-95626590D01*
X56185424Y-95626585D01*
X56077259Y-95560301D01*
X56077251Y-95560297D01*
X56070179Y-95557367D01*
X56040307Y-95546347D01*
X56040305Y-95546346D01*
X55934846Y-95529643D01*
X55915000Y-95526500D01*
X55715000Y-95526500D01*
X55714990Y-95526500D01*
X55683179Y-95527749D01*
X55683177Y-95527750D01*
X55559822Y-95557367D01*
X55553966Y-95559793D01*
X55552747Y-95560298D01*
X55496060Y-95589181D01*
X55496058Y-95589182D01*
X55496055Y-95589184D01*
X55496050Y-95589187D01*
X55399590Y-95671569D01*
X55393250Y-95678994D01*
X55391205Y-95677248D01*
X55350398Y-95714166D01*
X55296485Y-95726500D01*
X55214990Y-95726500D01*
X55183179Y-95727749D01*
X55183177Y-95727750D01*
X55059822Y-95757367D01*
X55053966Y-95759793D01*
X55052747Y-95760298D01*
X54996060Y-95789181D01*
X54996058Y-95789182D01*
X54996055Y-95789184D01*
X54996050Y-95789187D01*
X54899590Y-95871569D01*
X54899585Y-95871575D01*
X54833301Y-95979740D01*
X54833297Y-95979748D01*
X54830367Y-95986820D01*
X54819347Y-96016692D01*
X54819346Y-96016694D01*
X54799500Y-96142000D01*
X53840500Y-96142000D01*
X53840500Y-95226676D01*
X53860185Y-95159637D01*
X53876819Y-95138995D01*
X54448314Y-94567500D01*
X55217898Y-93797915D01*
X55279219Y-93764432D01*
X55348911Y-93769416D01*
X55399868Y-93805067D01*
X55411389Y-93818557D01*
X55444573Y-93857412D01*
X55444575Y-93857414D01*
X55552737Y-93923696D01*
X55552747Y-93923702D01*
X55557748Y-93925773D01*
X55559820Y-93926632D01*
X55574756Y-93932142D01*
X55589694Y-93937653D01*
X55715000Y-93957500D01*
X55715001Y-93957500D01*
X55915010Y-93957500D01*
X55946820Y-93956250D01*
X56070182Y-93926631D01*
X56077253Y-93923702D01*
X56133940Y-93894819D01*
X56133946Y-93894813D01*
X56133949Y-93894812D01*
X56230409Y-93812430D01*
X56230410Y-93812427D01*
X56230413Y-93812426D01*
X56296702Y-93704253D01*
X56299631Y-93697182D01*
X56310653Y-93667306D01*
X56330500Y-93542000D01*
X56330500Y-92442000D01*
X56330198Y-92434318D01*
X56329250Y-92410179D01*
X56329249Y-92410177D01*
X56319979Y-92371569D01*
X56299631Y-92286818D01*
X56296702Y-92279747D01*
X56267819Y-92223060D01*
X56267815Y-92223055D01*
X56267812Y-92223050D01*
X56185430Y-92126590D01*
X56185424Y-92126585D01*
X56077259Y-92060301D01*
X56077251Y-92060297D01*
X56070179Y-92057367D01*
X56040307Y-92046347D01*
X56040305Y-92046346D01*
X55934846Y-92029643D01*
X55915000Y-92026500D01*
X55715000Y-92026500D01*
X55714990Y-92026500D01*
X55683179Y-92027749D01*
X55683177Y-92027750D01*
X55559822Y-92057367D01*
X55553966Y-92059793D01*
X55552747Y-92060298D01*
X55496060Y-92089181D01*
X55496058Y-92089182D01*
X55496055Y-92089184D01*
X55496050Y-92089187D01*
X55399590Y-92171569D01*
X55393250Y-92178994D01*
X55391205Y-92177248D01*
X55350398Y-92214166D01*
X55296485Y-92226500D01*
X55214990Y-92226500D01*
X55183179Y-92227749D01*
X55183177Y-92227750D01*
X55059822Y-92257367D01*
X55053966Y-92259793D01*
X55052747Y-92260298D01*
X54996060Y-92289181D01*
X54996058Y-92289182D01*
X54996055Y-92289184D01*
X54996050Y-92289187D01*
X54899590Y-92371569D01*
X54899585Y-92371575D01*
X54833301Y-92479740D01*
X54833297Y-92479748D01*
X54830367Y-92486820D01*
X54819347Y-92516692D01*
X54819346Y-92516694D01*
X54799500Y-92642000D01*
X54799500Y-92749324D01*
X54779815Y-92816363D01*
X54763181Y-92837005D01*
X52939502Y-94660683D01*
X52939500Y-94660686D01*
X52873608Y-94774812D01*
X52839500Y-94902108D01*
X52839500Y-131313324D01*
X52819815Y-131380363D01*
X52803181Y-131401005D01*
X52452005Y-131752181D01*
X52390682Y-131785666D01*
X52364324Y-131788500D01*
X51258500Y-131788500D01*
X51191461Y-131768815D01*
X51145706Y-131716011D01*
X51134500Y-131664501D01*
X51134499Y-131491130D01*
X51134498Y-131491123D01*
X51128091Y-131431518D01*
X51128091Y-131431517D01*
X51100421Y-131357332D01*
X51095438Y-131287642D01*
X51100420Y-131270672D01*
X51128091Y-131196483D01*
X51134500Y-131136873D01*
X51134499Y-130841128D01*
X51128091Y-130781517D01*
X51100421Y-130707332D01*
X51095438Y-130637642D01*
X51100420Y-130620672D01*
X51128091Y-130546483D01*
X51134500Y-130486873D01*
X51134499Y-130191128D01*
X51128091Y-130131517D01*
X51100421Y-130057332D01*
X51095438Y-129987642D01*
X51100420Y-129970672D01*
X51128091Y-129896483D01*
X51134500Y-129836873D01*
X51134499Y-129541128D01*
X51128091Y-129481517D01*
X51100421Y-129407332D01*
X51095438Y-129337642D01*
X51100420Y-129320672D01*
X51128091Y-129246483D01*
X51134500Y-129186873D01*
X51134499Y-128891128D01*
X51134498Y-128891126D01*
X51134498Y-128891111D01*
X51133320Y-128880155D01*
X51145725Y-128811395D01*
X51157794Y-128792115D01*
X51158102Y-128791582D01*
X51218555Y-128645631D01*
X51226012Y-128589000D01*
X51042897Y-128589000D01*
X50975858Y-128569315D01*
X50968596Y-128564273D01*
X50876331Y-128495204D01*
X50876328Y-128495202D01*
X50741482Y-128444908D01*
X50741483Y-128444908D01*
X50681883Y-128438501D01*
X50681881Y-128438500D01*
X50681873Y-128438500D01*
X50681865Y-128438500D01*
X48886129Y-128438500D01*
X48886123Y-128438501D01*
X48826516Y-128444908D01*
X48691671Y-128495202D01*
X48691668Y-128495204D01*
X48666872Y-128513767D01*
X48601408Y-128538184D01*
X48592561Y-128538500D01*
X48271676Y-128538500D01*
X48204637Y-128518815D01*
X48183995Y-128502181D01*
X47870814Y-128189000D01*
X48341987Y-128189000D01*
X51226010Y-128189000D01*
X51226011Y-128188998D01*
X51218558Y-128132377D01*
X51218555Y-128132368D01*
X51209892Y-128111453D01*
X51202423Y-128041983D01*
X51209892Y-128016546D01*
X51218556Y-127995629D01*
X51226012Y-127939000D01*
X48341990Y-127939000D01*
X48341988Y-127939001D01*
X48349442Y-127995627D01*
X48349443Y-127995629D01*
X48358108Y-128016549D01*
X48365576Y-128086018D01*
X48358109Y-128111449D01*
X48349443Y-128132370D01*
X48341987Y-128189000D01*
X47870814Y-128189000D01*
X47653819Y-127972005D01*
X47620334Y-127910682D01*
X47617500Y-127884324D01*
X47617500Y-127539000D01*
X48341987Y-127539000D01*
X48525103Y-127539000D01*
X48592142Y-127558685D01*
X48599403Y-127563726D01*
X48691668Y-127632795D01*
X48691671Y-127632797D01*
X48826517Y-127683091D01*
X48826516Y-127683091D01*
X48833444Y-127683835D01*
X48886127Y-127689500D01*
X50681872Y-127689499D01*
X50741483Y-127683091D01*
X50876331Y-127632796D01*
X50968586Y-127563733D01*
X51034050Y-127539316D01*
X51042897Y-127539000D01*
X51226010Y-127539000D01*
X51226011Y-127538998D01*
X51218557Y-127482372D01*
X51218555Y-127482366D01*
X51158100Y-127336412D01*
X51154035Y-127329372D01*
X51155187Y-127328706D01*
X51133039Y-127271421D01*
X51133319Y-127247848D01*
X51134500Y-127236873D01*
X51134499Y-126941128D01*
X51128091Y-126881517D01*
X51077796Y-126746669D01*
X51077795Y-126746668D01*
X51077793Y-126746664D01*
X50991547Y-126631455D01*
X50991544Y-126631452D01*
X50876335Y-126545206D01*
X50876328Y-126545202D01*
X50741482Y-126494908D01*
X50741483Y-126494908D01*
X50681883Y-126488501D01*
X50681881Y-126488500D01*
X50681873Y-126488500D01*
X50681864Y-126488500D01*
X48886129Y-126488500D01*
X48886123Y-126488501D01*
X48826516Y-126494908D01*
X48691671Y-126545202D01*
X48691664Y-126545206D01*
X48576455Y-126631452D01*
X48576452Y-126631455D01*
X48490206Y-126746664D01*
X48490202Y-126746671D01*
X48439910Y-126881513D01*
X48439909Y-126881517D01*
X48433500Y-126941127D01*
X48433500Y-126941134D01*
X48433500Y-126941135D01*
X48433500Y-127236869D01*
X48433501Y-127236886D01*
X48434680Y-127247850D01*
X48422271Y-127316609D01*
X48410188Y-127335912D01*
X48409900Y-127336410D01*
X48349444Y-127482368D01*
X48341987Y-127539000D01*
X47617500Y-127539000D01*
X47617500Y-120834000D01*
X50349500Y-120834000D01*
X50349500Y-121934010D01*
X50350749Y-121965820D01*
X50350750Y-121965822D01*
X50380367Y-122089177D01*
X50380368Y-122089179D01*
X50380369Y-122089182D01*
X50383298Y-122096253D01*
X50412181Y-122152940D01*
X50412183Y-122152942D01*
X50412184Y-122152944D01*
X50412187Y-122152949D01*
X50494569Y-122249409D01*
X50494575Y-122249414D01*
X50600214Y-122314150D01*
X50602747Y-122315702D01*
X50607748Y-122317773D01*
X50609820Y-122318632D01*
X50624756Y-122324142D01*
X50639694Y-122329653D01*
X50765000Y-122349500D01*
X50765001Y-122349500D01*
X50965010Y-122349500D01*
X50996820Y-122348250D01*
X51120182Y-122318631D01*
X51127253Y-122315702D01*
X51183940Y-122286819D01*
X51183946Y-122286813D01*
X51183949Y-122286812D01*
X51280409Y-122204430D01*
X51280410Y-122204427D01*
X51280413Y-122204426D01*
X51280414Y-122204423D01*
X51286750Y-122197006D01*
X51288794Y-122198751D01*
X51329602Y-122161834D01*
X51383515Y-122149500D01*
X51465010Y-122149500D01*
X51496820Y-122148250D01*
X51620182Y-122118631D01*
X51627253Y-122115702D01*
X51683940Y-122086819D01*
X51683946Y-122086813D01*
X51683949Y-122086812D01*
X51780409Y-122004430D01*
X51780410Y-122004427D01*
X51780413Y-122004426D01*
X51846702Y-121896253D01*
X51849631Y-121889182D01*
X51860653Y-121859306D01*
X51880500Y-121734000D01*
X51880500Y-121034000D01*
X51879250Y-121002180D01*
X51849631Y-120878818D01*
X51846702Y-120871747D01*
X51817819Y-120815060D01*
X51817815Y-120815055D01*
X51817812Y-120815050D01*
X51735430Y-120718590D01*
X51735424Y-120718585D01*
X51627259Y-120652301D01*
X51627251Y-120652297D01*
X51620179Y-120649367D01*
X51590307Y-120638347D01*
X51590305Y-120638346D01*
X51484846Y-120621643D01*
X51465000Y-120618500D01*
X51464999Y-120618500D01*
X51377923Y-120618500D01*
X51310884Y-120598815D01*
X51283631Y-120575030D01*
X51235426Y-120518587D01*
X51235424Y-120518585D01*
X51127259Y-120452301D01*
X51127251Y-120452297D01*
X51120179Y-120449367D01*
X51090307Y-120438347D01*
X51090305Y-120438346D01*
X50984846Y-120421643D01*
X50965000Y-120418500D01*
X50765000Y-120418500D01*
X50764990Y-120418500D01*
X50733179Y-120419749D01*
X50733177Y-120419750D01*
X50609822Y-120449367D01*
X50603966Y-120451793D01*
X50602747Y-120452298D01*
X50546060Y-120481181D01*
X50546058Y-120481182D01*
X50546055Y-120481184D01*
X50546050Y-120481187D01*
X50449590Y-120563569D01*
X50449585Y-120563575D01*
X50383301Y-120671740D01*
X50383297Y-120671748D01*
X50380367Y-120678820D01*
X50369347Y-120708692D01*
X50369346Y-120708694D01*
X50349500Y-120834000D01*
X47617500Y-120834000D01*
X47617500Y-118434002D01*
X50250000Y-118434002D01*
X50252893Y-118487988D01*
X50288442Y-118627259D01*
X50291371Y-118634330D01*
X50343106Y-118729076D01*
X50441049Y-118834277D01*
X50441051Y-118834278D01*
X50564672Y-118907629D01*
X50571732Y-118910554D01*
X50622728Y-118928544D01*
X50765001Y-118948999D01*
X50765003Y-118949000D01*
X50865000Y-118949000D01*
X50865000Y-118758208D01*
X51365000Y-118758208D01*
X51376843Y-118763372D01*
X51401745Y-118750944D01*
X51423617Y-118749000D01*
X51465002Y-118749000D01*
X51518988Y-118746106D01*
X51658259Y-118710557D01*
X51665330Y-118707628D01*
X51760076Y-118655893D01*
X51865277Y-118557950D01*
X51865278Y-118557948D01*
X51938629Y-118434327D01*
X51941554Y-118427267D01*
X51959544Y-118376271D01*
X51979999Y-118233998D01*
X51980000Y-118233997D01*
X51980000Y-118134000D01*
X51365000Y-118134000D01*
X51365000Y-118758208D01*
X50865000Y-118758208D01*
X50865000Y-118134000D01*
X50250000Y-118134000D01*
X50250000Y-118434002D01*
X47617500Y-118434002D01*
X47617500Y-117334001D01*
X50250000Y-117334001D01*
X50250000Y-117634000D01*
X50865000Y-117634000D01*
X50865000Y-117032775D01*
X51365000Y-117032775D01*
X51365000Y-117634000D01*
X51980000Y-117634000D01*
X51980000Y-117533997D01*
X51977106Y-117480011D01*
X51941557Y-117340740D01*
X51938628Y-117333669D01*
X51886893Y-117238923D01*
X51788950Y-117133722D01*
X51788948Y-117133721D01*
X51665327Y-117060370D01*
X51658267Y-117057445D01*
X51607271Y-117039455D01*
X51464998Y-117019000D01*
X51434496Y-117019000D01*
X51365000Y-117032775D01*
X50865000Y-117032775D01*
X50865000Y-116819000D01*
X50764998Y-116819000D01*
X50711011Y-116821893D01*
X50571740Y-116857442D01*
X50564669Y-116860371D01*
X50469923Y-116912106D01*
X50364722Y-117010049D01*
X50364721Y-117010051D01*
X50291370Y-117133672D01*
X50288445Y-117140732D01*
X50270455Y-117191728D01*
X50250000Y-117334001D01*
X47617500Y-117334001D01*
X47617500Y-108388000D01*
X50349500Y-108388000D01*
X50349500Y-109488010D01*
X50350749Y-109519820D01*
X50350750Y-109519822D01*
X50380367Y-109643177D01*
X50380368Y-109643179D01*
X50380369Y-109643182D01*
X50383298Y-109650253D01*
X50412181Y-109706940D01*
X50412183Y-109706942D01*
X50412184Y-109706944D01*
X50412187Y-109706949D01*
X50494569Y-109803409D01*
X50494575Y-109803414D01*
X50598042Y-109866819D01*
X50602747Y-109869702D01*
X50607748Y-109871773D01*
X50609820Y-109872632D01*
X50624756Y-109878142D01*
X50639694Y-109883653D01*
X50765000Y-109903500D01*
X50765001Y-109903500D01*
X50965010Y-109903500D01*
X50996820Y-109902250D01*
X51120182Y-109872631D01*
X51127253Y-109869702D01*
X51183940Y-109840819D01*
X51183946Y-109840813D01*
X51183949Y-109840812D01*
X51280409Y-109758430D01*
X51280410Y-109758427D01*
X51280413Y-109758426D01*
X51280414Y-109758423D01*
X51286750Y-109751006D01*
X51288794Y-109752751D01*
X51329602Y-109715834D01*
X51383515Y-109703500D01*
X51465010Y-109703500D01*
X51496820Y-109702250D01*
X51620182Y-109672631D01*
X51627253Y-109669702D01*
X51683940Y-109640819D01*
X51683946Y-109640813D01*
X51683949Y-109640812D01*
X51780409Y-109558430D01*
X51780410Y-109558427D01*
X51780413Y-109558426D01*
X51846702Y-109450253D01*
X51849631Y-109443182D01*
X51860653Y-109413306D01*
X51880500Y-109288000D01*
X51880500Y-108588000D01*
X51880271Y-108582180D01*
X51879250Y-108556179D01*
X51879249Y-108556177D01*
X51855874Y-108458822D01*
X51849631Y-108432818D01*
X51846702Y-108425747D01*
X51817819Y-108369060D01*
X51817815Y-108369055D01*
X51817812Y-108369050D01*
X51735430Y-108272590D01*
X51735424Y-108272585D01*
X51627259Y-108206301D01*
X51627251Y-108206297D01*
X51620179Y-108203367D01*
X51590307Y-108192347D01*
X51590305Y-108192346D01*
X51484846Y-108175643D01*
X51465000Y-108172500D01*
X51464999Y-108172500D01*
X51377923Y-108172500D01*
X51310884Y-108152815D01*
X51283631Y-108129030D01*
X51235426Y-108072587D01*
X51235424Y-108072585D01*
X51127259Y-108006301D01*
X51127251Y-108006297D01*
X51120179Y-108003367D01*
X51090307Y-107992347D01*
X51090305Y-107992346D01*
X50984846Y-107975643D01*
X50965000Y-107972500D01*
X50765000Y-107972500D01*
X50764990Y-107972500D01*
X50733179Y-107973749D01*
X50733177Y-107973750D01*
X50609822Y-108003367D01*
X50603966Y-108005793D01*
X50602747Y-108006298D01*
X50546060Y-108035181D01*
X50546058Y-108035182D01*
X50546055Y-108035184D01*
X50546050Y-108035187D01*
X50449590Y-108117569D01*
X50449585Y-108117575D01*
X50383301Y-108225740D01*
X50383297Y-108225748D01*
X50380367Y-108232820D01*
X50369347Y-108262692D01*
X50369346Y-108262694D01*
X50349500Y-108388000D01*
X47617500Y-108388000D01*
X47617500Y-105988002D01*
X50250000Y-105988002D01*
X50252893Y-106041988D01*
X50288442Y-106181259D01*
X50291371Y-106188330D01*
X50343106Y-106283076D01*
X50441049Y-106388277D01*
X50441051Y-106388278D01*
X50564672Y-106461629D01*
X50571732Y-106464554D01*
X50622728Y-106482544D01*
X50765001Y-106502999D01*
X50765003Y-106503000D01*
X50865000Y-106503000D01*
X50865000Y-106312208D01*
X51365000Y-106312208D01*
X51376843Y-106317372D01*
X51401745Y-106304944D01*
X51423617Y-106303000D01*
X51465002Y-106303000D01*
X51518988Y-106300106D01*
X51658259Y-106264557D01*
X51665330Y-106261628D01*
X51760076Y-106209893D01*
X51865277Y-106111950D01*
X51865278Y-106111948D01*
X51938629Y-105988327D01*
X51941554Y-105981267D01*
X51959544Y-105930271D01*
X51979999Y-105787998D01*
X51980000Y-105787997D01*
X51980000Y-105688000D01*
X51365000Y-105688000D01*
X51365000Y-106312208D01*
X50865000Y-106312208D01*
X50865000Y-105688000D01*
X50250000Y-105688000D01*
X50250000Y-105988002D01*
X47617500Y-105988002D01*
X47617500Y-104888001D01*
X50250000Y-104888001D01*
X50250000Y-105188000D01*
X50865000Y-105188000D01*
X50865000Y-104586775D01*
X51365000Y-104586775D01*
X51365000Y-105188000D01*
X51980000Y-105188000D01*
X51980000Y-105087997D01*
X51977106Y-105034011D01*
X51941557Y-104894740D01*
X51938628Y-104887669D01*
X51886893Y-104792923D01*
X51788950Y-104687722D01*
X51788948Y-104687721D01*
X51665327Y-104614370D01*
X51658267Y-104611445D01*
X51607271Y-104593455D01*
X51464998Y-104573000D01*
X51434496Y-104573000D01*
X51365000Y-104586775D01*
X50865000Y-104586775D01*
X50865000Y-104373000D01*
X50764998Y-104373000D01*
X50711011Y-104375893D01*
X50571740Y-104411442D01*
X50564669Y-104414371D01*
X50469923Y-104466106D01*
X50364722Y-104564049D01*
X50364721Y-104564051D01*
X50291370Y-104687672D01*
X50288445Y-104694732D01*
X50270455Y-104745728D01*
X50250000Y-104888001D01*
X47617500Y-104888001D01*
X47617500Y-95942000D01*
X50349500Y-95942000D01*
X50349500Y-97042010D01*
X50350749Y-97073820D01*
X50350750Y-97073822D01*
X50380367Y-97197177D01*
X50380368Y-97197179D01*
X50380369Y-97197182D01*
X50383298Y-97204253D01*
X50412181Y-97260940D01*
X50412183Y-97260942D01*
X50412184Y-97260944D01*
X50412187Y-97260949D01*
X50494569Y-97357409D01*
X50494575Y-97357414D01*
X50602740Y-97423698D01*
X50602747Y-97423702D01*
X50607748Y-97425773D01*
X50609820Y-97426632D01*
X50624756Y-97432142D01*
X50639694Y-97437653D01*
X50765000Y-97457500D01*
X50765001Y-97457500D01*
X50965010Y-97457500D01*
X50996820Y-97456250D01*
X51120182Y-97426631D01*
X51127253Y-97423702D01*
X51183940Y-97394819D01*
X51183946Y-97394813D01*
X51183949Y-97394812D01*
X51280409Y-97312430D01*
X51280410Y-97312427D01*
X51280413Y-97312426D01*
X51280414Y-97312423D01*
X51286750Y-97305006D01*
X51288794Y-97306751D01*
X51329602Y-97269834D01*
X51383515Y-97257500D01*
X51465010Y-97257500D01*
X51496820Y-97256250D01*
X51620182Y-97226631D01*
X51627253Y-97223702D01*
X51683940Y-97194819D01*
X51683946Y-97194813D01*
X51683949Y-97194812D01*
X51780409Y-97112430D01*
X51780410Y-97112427D01*
X51780413Y-97112426D01*
X51846702Y-97004253D01*
X51849631Y-96997182D01*
X51860653Y-96967306D01*
X51880500Y-96842000D01*
X51880500Y-96142000D01*
X51879250Y-96110180D01*
X51849631Y-95986818D01*
X51846702Y-95979747D01*
X51817819Y-95923060D01*
X51817815Y-95923055D01*
X51817812Y-95923050D01*
X51735430Y-95826590D01*
X51735424Y-95826585D01*
X51627259Y-95760301D01*
X51627251Y-95760297D01*
X51620179Y-95757367D01*
X51590307Y-95746347D01*
X51590305Y-95746346D01*
X51484846Y-95729643D01*
X51465000Y-95726500D01*
X51464999Y-95726500D01*
X51377923Y-95726500D01*
X51310884Y-95706815D01*
X51283631Y-95683030D01*
X51258847Y-95654011D01*
X51235426Y-95626587D01*
X51235424Y-95626585D01*
X51127259Y-95560301D01*
X51127251Y-95560297D01*
X51120179Y-95557367D01*
X51090307Y-95546347D01*
X51090305Y-95546346D01*
X50984846Y-95529643D01*
X50965000Y-95526500D01*
X50765000Y-95526500D01*
X50764990Y-95526500D01*
X50733179Y-95527749D01*
X50733177Y-95527750D01*
X50609822Y-95557367D01*
X50603966Y-95559793D01*
X50602747Y-95560298D01*
X50546060Y-95589181D01*
X50546058Y-95589182D01*
X50546055Y-95589184D01*
X50546050Y-95589187D01*
X50449590Y-95671569D01*
X50449585Y-95671575D01*
X50383301Y-95779740D01*
X50383297Y-95779748D01*
X50380367Y-95786820D01*
X50369347Y-95816692D01*
X50369346Y-95816694D01*
X50349500Y-95942000D01*
X47617500Y-95942000D01*
X47617500Y-93542002D01*
X50250000Y-93542002D01*
X50252893Y-93595988D01*
X50288442Y-93735259D01*
X50291371Y-93742330D01*
X50343106Y-93837076D01*
X50441049Y-93942277D01*
X50441051Y-93942278D01*
X50564672Y-94015629D01*
X50571732Y-94018554D01*
X50622728Y-94036544D01*
X50765001Y-94056999D01*
X50765003Y-94057000D01*
X50865000Y-94057000D01*
X50865000Y-93866208D01*
X51365000Y-93866208D01*
X51376843Y-93871372D01*
X51401745Y-93858944D01*
X51423617Y-93857000D01*
X51465002Y-93857000D01*
X51518988Y-93854106D01*
X51658259Y-93818557D01*
X51665330Y-93815628D01*
X51760076Y-93763893D01*
X51865277Y-93665950D01*
X51865278Y-93665948D01*
X51938629Y-93542327D01*
X51941554Y-93535267D01*
X51959544Y-93484271D01*
X51979999Y-93341998D01*
X51980000Y-93341997D01*
X51980000Y-93242000D01*
X51365000Y-93242000D01*
X51365000Y-93866208D01*
X50865000Y-93866208D01*
X50865000Y-93242000D01*
X50250000Y-93242000D01*
X50250000Y-93542002D01*
X47617500Y-93542002D01*
X47617500Y-92442001D01*
X50250000Y-92442001D01*
X50250000Y-92742000D01*
X50865000Y-92742000D01*
X50865000Y-92140775D01*
X51365000Y-92140775D01*
X51365000Y-92742000D01*
X51980000Y-92742000D01*
X51980000Y-92641997D01*
X51977106Y-92588011D01*
X51941557Y-92448740D01*
X51938628Y-92441669D01*
X51886893Y-92346923D01*
X51788950Y-92241722D01*
X51788948Y-92241721D01*
X51665327Y-92168370D01*
X51658267Y-92165445D01*
X51607271Y-92147455D01*
X51464998Y-92127000D01*
X51434496Y-92127000D01*
X51365000Y-92140775D01*
X50865000Y-92140775D01*
X50865000Y-91927000D01*
X50764998Y-91927000D01*
X50711011Y-91929893D01*
X50571740Y-91965442D01*
X50564669Y-91968371D01*
X50469923Y-92020106D01*
X50364722Y-92118049D01*
X50364721Y-92118051D01*
X50291370Y-92241672D01*
X50288445Y-92248732D01*
X50270455Y-92299728D01*
X50250000Y-92442001D01*
X47617500Y-92442001D01*
X47617500Y-91823009D01*
X47617500Y-91823008D01*
X47604665Y-91775108D01*
X47583392Y-91695714D01*
X47581474Y-91692392D01*
X47517500Y-91581586D01*
X47424314Y-91488400D01*
X47424313Y-91488399D01*
X47419983Y-91484069D01*
X47419972Y-91484059D01*
X41176819Y-85240905D01*
X41143334Y-85179582D01*
X41140500Y-85153224D01*
X41140500Y-82743703D01*
X48334764Y-82743703D01*
X48334764Y-83543690D01*
X49268284Y-83543690D01*
X49267429Y-83545754D01*
X49234764Y-83709972D01*
X49234764Y-83877408D01*
X49267429Y-84041626D01*
X49268284Y-84043690D01*
X48334765Y-84043690D01*
X48334765Y-84843676D01*
X48345258Y-84946387D01*
X48400405Y-85112809D01*
X48400407Y-85112814D01*
X48492448Y-85262035D01*
X48616418Y-85386005D01*
X48765639Y-85478046D01*
X48765644Y-85478048D01*
X48932066Y-85533195D01*
X48932073Y-85533196D01*
X49034783Y-85543689D01*
X49834763Y-85543689D01*
X49834764Y-85543688D01*
X49834764Y-84610170D01*
X49836828Y-84611025D01*
X50001046Y-84643690D01*
X50168482Y-84643690D01*
X50332700Y-84611025D01*
X50334764Y-84610170D01*
X50334764Y-85543689D01*
X51134736Y-85543689D01*
X51134750Y-85543688D01*
X51237461Y-85533195D01*
X51403883Y-85478048D01*
X51403888Y-85478046D01*
X51553109Y-85386005D01*
X51677079Y-85262035D01*
X51769120Y-85112814D01*
X51769122Y-85112809D01*
X51824269Y-84946387D01*
X51824270Y-84946380D01*
X51834763Y-84843676D01*
X51834764Y-84843663D01*
X51834764Y-84043690D01*
X50901244Y-84043690D01*
X50902099Y-84041626D01*
X50934764Y-83877408D01*
X50934764Y-83709972D01*
X50902099Y-83545754D01*
X50901244Y-83543690D01*
X51834763Y-83543690D01*
X51834763Y-82743718D01*
X51834762Y-82743703D01*
X51824269Y-82640992D01*
X51769122Y-82474570D01*
X51769120Y-82474565D01*
X51677079Y-82325344D01*
X51553109Y-82201374D01*
X51403888Y-82109333D01*
X51403883Y-82109331D01*
X51237461Y-82054184D01*
X51237454Y-82054183D01*
X51134750Y-82043690D01*
X50334764Y-82043690D01*
X50334764Y-82977209D01*
X50332700Y-82976355D01*
X50168482Y-82943690D01*
X50001046Y-82943690D01*
X49836828Y-82976355D01*
X49834764Y-82977209D01*
X49834764Y-82043690D01*
X49034792Y-82043690D01*
X49034776Y-82043691D01*
X48932066Y-82054184D01*
X48765644Y-82109331D01*
X48765639Y-82109333D01*
X48616418Y-82201374D01*
X48492448Y-82325344D01*
X48400407Y-82474565D01*
X48400405Y-82474570D01*
X48345258Y-82640992D01*
X48345257Y-82640999D01*
X48334764Y-82743703D01*
X41140500Y-82743703D01*
X41140500Y-78798085D01*
X41160185Y-78731046D01*
X41212989Y-78685291D01*
X41282147Y-78675347D01*
X41345703Y-78704372D01*
X41352181Y-78710404D01*
X42600316Y-79958539D01*
X42699151Y-80015602D01*
X42714440Y-80024429D01*
X42714444Y-80024431D01*
X42841738Y-80058539D01*
X42841740Y-80058539D01*
X42973521Y-80058539D01*
X42973523Y-80058539D01*
X43100816Y-80024431D01*
X43214945Y-79958539D01*
X43308130Y-79865354D01*
X43308130Y-79865352D01*
X43318334Y-79855149D01*
X43318338Y-79855144D01*
X43838460Y-79335022D01*
X44368790Y-78804692D01*
X44434682Y-78690564D01*
X44468790Y-78563270D01*
X44468790Y-78431485D01*
X44434682Y-78304192D01*
X44368790Y-78190064D01*
X44275604Y-78096878D01*
X44275603Y-78096877D01*
X44271273Y-78092547D01*
X44271262Y-78092537D01*
X42861393Y-76682667D01*
X42861392Y-76682666D01*
X42861391Y-76682665D01*
X42804327Y-76649719D01*
X42747264Y-76616773D01*
X42683616Y-76599719D01*
X42619970Y-76582665D01*
X42488185Y-76582665D01*
X42360889Y-76616773D01*
X42246763Y-76682665D01*
X42246760Y-76682667D01*
X41716433Y-77212995D01*
X41352181Y-77577245D01*
X41290858Y-77610730D01*
X41221166Y-77605746D01*
X41165233Y-77563874D01*
X41140816Y-77498410D01*
X41140500Y-77489564D01*
X41140500Y-57938434D01*
X41160185Y-57871395D01*
X41212989Y-57825640D01*
X41282147Y-57815696D01*
X41345703Y-57844721D01*
X41352181Y-57850753D01*
X41623247Y-58121819D01*
X42153577Y-58652149D01*
X42246763Y-58745335D01*
X42360891Y-58811227D01*
X42488185Y-58845335D01*
X42488187Y-58845335D01*
X42619968Y-58845335D01*
X42619969Y-58845335D01*
X42619970Y-58845335D01*
X42747263Y-58811227D01*
X42861391Y-58745335D01*
X42954577Y-58652149D01*
X42954577Y-58652148D01*
X44265394Y-57341329D01*
X44265399Y-57341326D01*
X44275602Y-57331122D01*
X44275604Y-57331122D01*
X44368790Y-57237936D01*
X44434682Y-57123808D01*
X44468790Y-56996515D01*
X44468790Y-56864730D01*
X62206120Y-56864730D01*
X62206120Y-56996514D01*
X62240228Y-57123808D01*
X62306120Y-57237936D01*
X62306121Y-57237937D01*
X62306122Y-57237938D01*
X63715992Y-58647807D01*
X63716002Y-58647818D01*
X63720332Y-58652148D01*
X63720333Y-58652149D01*
X63813519Y-58745335D01*
X63927647Y-58811227D01*
X64054940Y-58845335D01*
X64054941Y-58845335D01*
X64054942Y-58845335D01*
X64186723Y-58845335D01*
X64186725Y-58845335D01*
X64314019Y-58811227D01*
X64428147Y-58745335D01*
X65051663Y-58121819D01*
X65110222Y-58063260D01*
X65110233Y-58063247D01*
X65478598Y-57694883D01*
X65478604Y-57694879D01*
X65488807Y-57684675D01*
X65488809Y-57684675D01*
X65581994Y-57591490D01*
X65647886Y-57477361D01*
X65681994Y-57350068D01*
X65681994Y-57218283D01*
X65656680Y-57123808D01*
X65647887Y-57090989D01*
X65581994Y-56976861D01*
X65488809Y-56883675D01*
X65488806Y-56883673D01*
X65484478Y-56879345D01*
X65484478Y-56879344D01*
X65484473Y-56879340D01*
X64174853Y-55569720D01*
X64174841Y-55569706D01*
X64074597Y-55469464D01*
X64074596Y-55469463D01*
X64074594Y-55469461D01*
X64071659Y-55467766D01*
X63960467Y-55403567D01*
X63833173Y-55369461D01*
X63833172Y-55369461D01*
X63701387Y-55369461D01*
X63574092Y-55403569D01*
X63459966Y-55469461D01*
X63459963Y-55469463D01*
X62929636Y-55999792D01*
X62306122Y-56623305D01*
X62306120Y-56623308D01*
X62240228Y-56737434D01*
X62206120Y-56864730D01*
X44468790Y-56864730D01*
X44434682Y-56737436D01*
X44368790Y-56623308D01*
X43745274Y-55999792D01*
X43315200Y-55569717D01*
X43315198Y-55569714D01*
X43214946Y-55469462D01*
X43214941Y-55469458D01*
X43100818Y-55403570D01*
X43100817Y-55403569D01*
X43100816Y-55403569D01*
X42973523Y-55369461D01*
X42841738Y-55369461D01*
X42714442Y-55403569D01*
X42600316Y-55469461D01*
X42600313Y-55469463D01*
X41352181Y-56717596D01*
X41290858Y-56751081D01*
X41221166Y-56746097D01*
X41165233Y-56704225D01*
X41140816Y-56638761D01*
X41140500Y-56629915D01*
X41140500Y-51820676D01*
X41160185Y-51753637D01*
X41176819Y-51732995D01*
X41349670Y-51560144D01*
X43837565Y-51560144D01*
X43837565Y-52360131D01*
X44771085Y-52360131D01*
X44770230Y-52362195D01*
X44737565Y-52526413D01*
X44737565Y-52693849D01*
X44770230Y-52858067D01*
X44771085Y-52860131D01*
X43837566Y-52860131D01*
X43837566Y-53660117D01*
X43848059Y-53762828D01*
X43903206Y-53929250D01*
X43903208Y-53929255D01*
X43995249Y-54078476D01*
X44119219Y-54202446D01*
X44268440Y-54294487D01*
X44268445Y-54294489D01*
X44434867Y-54349636D01*
X44434874Y-54349637D01*
X44537584Y-54360130D01*
X45337564Y-54360130D01*
X45337565Y-54360129D01*
X45337565Y-53426611D01*
X45339629Y-53427466D01*
X45503847Y-53460131D01*
X45671283Y-53460131D01*
X45835501Y-53427466D01*
X45837565Y-53426611D01*
X45837565Y-54360130D01*
X46637537Y-54360130D01*
X46637551Y-54360129D01*
X46740262Y-54349636D01*
X46906684Y-54294489D01*
X46906689Y-54294487D01*
X47055910Y-54202446D01*
X47179880Y-54078476D01*
X47271921Y-53929255D01*
X47271923Y-53929250D01*
X47327070Y-53762828D01*
X47327071Y-53762821D01*
X47337564Y-53660117D01*
X47337565Y-53660104D01*
X47337565Y-52860131D01*
X46404045Y-52860131D01*
X46404900Y-52858067D01*
X46437565Y-52693849D01*
X46437565Y-52526413D01*
X46404900Y-52362195D01*
X46404045Y-52360131D01*
X47337564Y-52360131D01*
X47337564Y-51560159D01*
X47337563Y-51560144D01*
X47327070Y-51457433D01*
X47271923Y-51291011D01*
X47271921Y-51291006D01*
X47179880Y-51141785D01*
X47055910Y-51017815D01*
X46906689Y-50925774D01*
X46906684Y-50925772D01*
X46740262Y-50870625D01*
X46740255Y-50870624D01*
X46637551Y-50860131D01*
X45837565Y-50860131D01*
X45837565Y-51793650D01*
X45835501Y-51792796D01*
X45671283Y-51760131D01*
X45503847Y-51760131D01*
X45339629Y-51792796D01*
X45337565Y-51793650D01*
X45337565Y-50860131D01*
X44537593Y-50860131D01*
X44537577Y-50860132D01*
X44434867Y-50870625D01*
X44268445Y-50925772D01*
X44268440Y-50925774D01*
X44119219Y-51017815D01*
X43995249Y-51141785D01*
X43903208Y-51291006D01*
X43903206Y-51291011D01*
X43848059Y-51457433D01*
X43848058Y-51457440D01*
X43837565Y-51560144D01*
X41349670Y-51560144D01*
X47414995Y-45494819D01*
X47476318Y-45461334D01*
X47502676Y-45458500D01*
X63946890Y-45458500D01*
X63946892Y-45458500D01*
X64074186Y-45424392D01*
X64188314Y-45358500D01*
X66490814Y-43056000D01*
X67245500Y-43056000D01*
X67245500Y-43756010D01*
X67246749Y-43787820D01*
X67246750Y-43787822D01*
X67276367Y-43911177D01*
X67276368Y-43911181D01*
X67276369Y-43911182D01*
X67279298Y-43918253D01*
X67308181Y-43974940D01*
X67308183Y-43974942D01*
X67308184Y-43974944D01*
X67308187Y-43974949D01*
X67390569Y-44071409D01*
X67390575Y-44071414D01*
X67485483Y-44129574D01*
X67498747Y-44137702D01*
X67503748Y-44139773D01*
X67505820Y-44140632D01*
X67512109Y-44142952D01*
X67535694Y-44151653D01*
X67661000Y-44171500D01*
X67748077Y-44171500D01*
X67815116Y-44191185D01*
X67842369Y-44214970D01*
X67890573Y-44271412D01*
X67890575Y-44271414D01*
X67998740Y-44337698D01*
X67998747Y-44337702D01*
X68003748Y-44339773D01*
X68005820Y-44340632D01*
X68020756Y-44346142D01*
X68035694Y-44351653D01*
X68161000Y-44371500D01*
X68161001Y-44371500D01*
X68361010Y-44371500D01*
X68392820Y-44370250D01*
X68516182Y-44340631D01*
X68523253Y-44337702D01*
X68579940Y-44308819D01*
X68579946Y-44308813D01*
X68579949Y-44308812D01*
X68676409Y-44226430D01*
X68676410Y-44226427D01*
X68676413Y-44226426D01*
X68742702Y-44118253D01*
X68745631Y-44111182D01*
X68756653Y-44081306D01*
X68776500Y-43956000D01*
X68776500Y-42856000D01*
X68775250Y-42824180D01*
X68745631Y-42700818D01*
X68742702Y-42693747D01*
X68713819Y-42637060D01*
X68713815Y-42637055D01*
X68713812Y-42637050D01*
X68631430Y-42540590D01*
X68631424Y-42540585D01*
X68523259Y-42474301D01*
X68523251Y-42474297D01*
X68516179Y-42471367D01*
X68486307Y-42460347D01*
X68486305Y-42460346D01*
X68380846Y-42443643D01*
X68361000Y-42440500D01*
X68161000Y-42440500D01*
X68160990Y-42440500D01*
X68129179Y-42441749D01*
X68129177Y-42441750D01*
X68005822Y-42471367D01*
X67999966Y-42473793D01*
X67998747Y-42474298D01*
X67942060Y-42503181D01*
X67942058Y-42503182D01*
X67942055Y-42503184D01*
X67942050Y-42503187D01*
X67845590Y-42585569D01*
X67839250Y-42592994D01*
X67837205Y-42591248D01*
X67796398Y-42628166D01*
X67742485Y-42640500D01*
X67660990Y-42640500D01*
X67629179Y-42641749D01*
X67629177Y-42641750D01*
X67505822Y-42671367D01*
X67499966Y-42673793D01*
X67498747Y-42674298D01*
X67442060Y-42703181D01*
X67442058Y-42703182D01*
X67442055Y-42703184D01*
X67442050Y-42703187D01*
X67345590Y-42785569D01*
X67345585Y-42785575D01*
X67279301Y-42893740D01*
X67279297Y-42893748D01*
X67276367Y-42900820D01*
X67265347Y-42930692D01*
X67265346Y-42930694D01*
X67245500Y-43056000D01*
X66490814Y-43056000D01*
X68416500Y-41130314D01*
X68482392Y-41016186D01*
X68516500Y-40888893D01*
X68516500Y-40888890D01*
X68517028Y-40886920D01*
X68553393Y-40827259D01*
X68573978Y-40813040D01*
X68573868Y-40812875D01*
X68579933Y-40808822D01*
X68579940Y-40808819D01*
X68579945Y-40808814D01*
X68579949Y-40808812D01*
X68676409Y-40726430D01*
X68676410Y-40726427D01*
X68676413Y-40726426D01*
X68742702Y-40618253D01*
X68745631Y-40611182D01*
X68756653Y-40581306D01*
X68776500Y-40456000D01*
X68776500Y-39356000D01*
X68776499Y-39355981D01*
X68775250Y-39324179D01*
X68775249Y-39324177D01*
X68765979Y-39285569D01*
X68745631Y-39200818D01*
X68742702Y-39193747D01*
X68713819Y-39137060D01*
X68713815Y-39137055D01*
X68713812Y-39137050D01*
X68631430Y-39040590D01*
X68631424Y-39040585D01*
X68523259Y-38974301D01*
X68523251Y-38974297D01*
X68516179Y-38971367D01*
X68486307Y-38960347D01*
X68486305Y-38960346D01*
X68380846Y-38943643D01*
X68361000Y-38940500D01*
X68161000Y-38940500D01*
X68160990Y-38940500D01*
X68129179Y-38941749D01*
X68129177Y-38941750D01*
X68005822Y-38971367D01*
X67999966Y-38973793D01*
X67998747Y-38974298D01*
X67942060Y-39003181D01*
X67942058Y-39003182D01*
X67942055Y-39003184D01*
X67942050Y-39003187D01*
X67845590Y-39085569D01*
X67839250Y-39092994D01*
X67837205Y-39091248D01*
X67796398Y-39128166D01*
X67742485Y-39140500D01*
X67660990Y-39140500D01*
X67629179Y-39141749D01*
X67629177Y-39141750D01*
X67505822Y-39171367D01*
X67499966Y-39173793D01*
X67498747Y-39174298D01*
X67442060Y-39203181D01*
X67442058Y-39203182D01*
X67442055Y-39203184D01*
X67442050Y-39203187D01*
X67345590Y-39285569D01*
X67345585Y-39285575D01*
X67279301Y-39393740D01*
X67279297Y-39393748D01*
X67276367Y-39400820D01*
X67265347Y-39430692D01*
X67265346Y-39430694D01*
X67245500Y-39556000D01*
X67245500Y-40256010D01*
X67246749Y-40287820D01*
X67246750Y-40287822D01*
X67276367Y-40411177D01*
X67276368Y-40411181D01*
X67276369Y-40411182D01*
X67279298Y-40418253D01*
X67308181Y-40474940D01*
X67308183Y-40474942D01*
X67308184Y-40474944D01*
X67394073Y-40575511D01*
X67422642Y-40639273D01*
X67412204Y-40708359D01*
X67387462Y-40743722D01*
X64538181Y-43593004D01*
X64476858Y-43626489D01*
X64407166Y-43621505D01*
X64351233Y-43579633D01*
X64326816Y-43514169D01*
X64326500Y-43505323D01*
X64326500Y-43055989D01*
X64325250Y-43024179D01*
X64325249Y-43024177D01*
X64295632Y-42900822D01*
X64295631Y-42900820D01*
X64295631Y-42900818D01*
X64292702Y-42893747D01*
X64263819Y-42837060D01*
X64263815Y-42837055D01*
X64263812Y-42837050D01*
X64181430Y-42740590D01*
X64181424Y-42740585D01*
X64073259Y-42674301D01*
X64073251Y-42674297D01*
X64066179Y-42671367D01*
X64036307Y-42660347D01*
X64036305Y-42660346D01*
X63930846Y-42643643D01*
X63911000Y-42640500D01*
X63910999Y-42640500D01*
X63823923Y-42640500D01*
X63756884Y-42620815D01*
X63729631Y-42597030D01*
X63681426Y-42540587D01*
X63681424Y-42540585D01*
X63573259Y-42474301D01*
X63573251Y-42474297D01*
X63566179Y-42471367D01*
X63536307Y-42460347D01*
X63536305Y-42460346D01*
X63430846Y-42443643D01*
X63411000Y-42440500D01*
X63211000Y-42440500D01*
X63210990Y-42440500D01*
X63179179Y-42441749D01*
X63179177Y-42441750D01*
X63055822Y-42471367D01*
X63049966Y-42473793D01*
X63048747Y-42474298D01*
X62992060Y-42503181D01*
X62992058Y-42503182D01*
X62992055Y-42503184D01*
X62992050Y-42503187D01*
X62895590Y-42585569D01*
X62895585Y-42585575D01*
X62829301Y-42693740D01*
X62829297Y-42693748D01*
X62826367Y-42700820D01*
X62815347Y-42730692D01*
X62815346Y-42730694D01*
X62795500Y-42856000D01*
X62795500Y-43956010D01*
X62796749Y-43987820D01*
X62796750Y-43987822D01*
X62826367Y-44111177D01*
X62826368Y-44111179D01*
X62826369Y-44111182D01*
X62829298Y-44118253D01*
X62858181Y-44174940D01*
X62858183Y-44174942D01*
X62858184Y-44174944D01*
X62924822Y-44252969D01*
X62953392Y-44316731D01*
X62942954Y-44385817D01*
X62896823Y-44438292D01*
X62830531Y-44457500D01*
X47178107Y-44457500D01*
X47050812Y-44491608D01*
X46936686Y-44557500D01*
X46936683Y-44557502D01*
X40590181Y-50904005D01*
X40528858Y-50937490D01*
X40459166Y-50932506D01*
X40403233Y-50890634D01*
X40378816Y-50825170D01*
X40378500Y-50816324D01*
X40378500Y-44172674D01*
X40398185Y-44105635D01*
X40414814Y-44084998D01*
X41443812Y-43056000D01*
X42353500Y-43056000D01*
X42353500Y-43756010D01*
X42354749Y-43787820D01*
X42354750Y-43787822D01*
X42384367Y-43911177D01*
X42384368Y-43911181D01*
X42384369Y-43911182D01*
X42387298Y-43918253D01*
X42416181Y-43974940D01*
X42416183Y-43974942D01*
X42416184Y-43974944D01*
X42416187Y-43974949D01*
X42498569Y-44071409D01*
X42498575Y-44071414D01*
X42593483Y-44129574D01*
X42606747Y-44137702D01*
X42611748Y-44139773D01*
X42613820Y-44140632D01*
X42620109Y-44142952D01*
X42643694Y-44151653D01*
X42769000Y-44171500D01*
X42856077Y-44171500D01*
X42923116Y-44191185D01*
X42950369Y-44214970D01*
X42998573Y-44271412D01*
X42998575Y-44271414D01*
X43106740Y-44337698D01*
X43106747Y-44337702D01*
X43111748Y-44339773D01*
X43113820Y-44340632D01*
X43128756Y-44346142D01*
X43143694Y-44351653D01*
X43269000Y-44371500D01*
X43269001Y-44371500D01*
X43469010Y-44371500D01*
X43500820Y-44370250D01*
X43624182Y-44340631D01*
X43631253Y-44337702D01*
X43687940Y-44308819D01*
X43687946Y-44308813D01*
X43687949Y-44308812D01*
X43784409Y-44226430D01*
X43784410Y-44226427D01*
X43784413Y-44226426D01*
X43850702Y-44118253D01*
X43853631Y-44111182D01*
X43864653Y-44081306D01*
X43884500Y-43956000D01*
X43884500Y-42856000D01*
X43883250Y-42824180D01*
X43853631Y-42700818D01*
X43850702Y-42693747D01*
X43821819Y-42637060D01*
X43821815Y-42637055D01*
X43821812Y-42637050D01*
X43739430Y-42540590D01*
X43739424Y-42540585D01*
X43631259Y-42474301D01*
X43631251Y-42474297D01*
X43624179Y-42471367D01*
X43594307Y-42460347D01*
X43594305Y-42460346D01*
X43488846Y-42443643D01*
X43469000Y-42440500D01*
X43269000Y-42440500D01*
X43268990Y-42440500D01*
X43237179Y-42441749D01*
X43237177Y-42441750D01*
X43113822Y-42471367D01*
X43107966Y-42473793D01*
X43106747Y-42474298D01*
X43050060Y-42503181D01*
X43050058Y-42503182D01*
X43050055Y-42503184D01*
X43050050Y-42503187D01*
X42953590Y-42585569D01*
X42947250Y-42592994D01*
X42945205Y-42591248D01*
X42904398Y-42628166D01*
X42850485Y-42640500D01*
X42768990Y-42640500D01*
X42737179Y-42641749D01*
X42737177Y-42641750D01*
X42613822Y-42671367D01*
X42607966Y-42673793D01*
X42606747Y-42674298D01*
X42550060Y-42703181D01*
X42550058Y-42703182D01*
X42550055Y-42703184D01*
X42550050Y-42703187D01*
X42453590Y-42785569D01*
X42453585Y-42785575D01*
X42387301Y-42893740D01*
X42387297Y-42893748D01*
X42384367Y-42900820D01*
X42373347Y-42930692D01*
X42373346Y-42930694D01*
X42353500Y-43056000D01*
X41443812Y-43056000D01*
X43421104Y-41078707D01*
X43421109Y-41078704D01*
X43431312Y-41068500D01*
X43431314Y-41068500D01*
X43524500Y-40975314D01*
X43574350Y-40888970D01*
X43624916Y-40840755D01*
X43629837Y-40838354D01*
X43631233Y-40837710D01*
X43631253Y-40837702D01*
X43687940Y-40808819D01*
X43687946Y-40808813D01*
X43687949Y-40808812D01*
X43784409Y-40726430D01*
X43784410Y-40726427D01*
X43784413Y-40726426D01*
X43850702Y-40618253D01*
X43853631Y-40611182D01*
X43864653Y-40581306D01*
X43884500Y-40456002D01*
X62696000Y-40456002D01*
X62698893Y-40509988D01*
X62734442Y-40649259D01*
X62737371Y-40656330D01*
X62789106Y-40751076D01*
X62887049Y-40856277D01*
X62887051Y-40856278D01*
X63010672Y-40929629D01*
X63017732Y-40932554D01*
X63068728Y-40950544D01*
X63211001Y-40970999D01*
X63211003Y-40971000D01*
X63311000Y-40971000D01*
X63311000Y-40780208D01*
X63811000Y-40780208D01*
X63822843Y-40785372D01*
X63847745Y-40772944D01*
X63869617Y-40771000D01*
X63911002Y-40771000D01*
X63964988Y-40768106D01*
X64104259Y-40732557D01*
X64111330Y-40729628D01*
X64206076Y-40677893D01*
X64311277Y-40579950D01*
X64311278Y-40579948D01*
X64384629Y-40456327D01*
X64387554Y-40449267D01*
X64405544Y-40398271D01*
X64425999Y-40255998D01*
X64426000Y-40255997D01*
X64426000Y-40156000D01*
X63811000Y-40156000D01*
X63811000Y-40780208D01*
X63311000Y-40780208D01*
X63311000Y-40156000D01*
X62696000Y-40156000D01*
X62696000Y-40456002D01*
X43884500Y-40456002D01*
X43884500Y-40456000D01*
X43884500Y-39356001D01*
X62696000Y-39356001D01*
X62696000Y-39656000D01*
X63311000Y-39656000D01*
X63311000Y-39054775D01*
X63811000Y-39054775D01*
X63811000Y-39656000D01*
X64426000Y-39656000D01*
X64426000Y-39555997D01*
X64423106Y-39502011D01*
X64387557Y-39362740D01*
X64384628Y-39355669D01*
X64332893Y-39260923D01*
X64234950Y-39155722D01*
X64234948Y-39155721D01*
X64111327Y-39082370D01*
X64104267Y-39079445D01*
X64053271Y-39061455D01*
X63910998Y-39041000D01*
X63880496Y-39041000D01*
X63811000Y-39054775D01*
X63311000Y-39054775D01*
X63311000Y-38841000D01*
X63210998Y-38841000D01*
X63157011Y-38843893D01*
X63017740Y-38879442D01*
X63010669Y-38882371D01*
X62915923Y-38934106D01*
X62810722Y-39032049D01*
X62810721Y-39032051D01*
X62737370Y-39155672D01*
X62734445Y-39162732D01*
X62716455Y-39213728D01*
X62696000Y-39356001D01*
X43884500Y-39356001D01*
X43884500Y-39356000D01*
X43884500Y-39355989D01*
X43884500Y-39355981D01*
X43883250Y-39324179D01*
X43883249Y-39324177D01*
X43873979Y-39285569D01*
X43853631Y-39200818D01*
X43850702Y-39193747D01*
X43821819Y-39137060D01*
X43821815Y-39137055D01*
X43821812Y-39137050D01*
X43739430Y-39040590D01*
X43739424Y-39040585D01*
X43631259Y-38974301D01*
X43631251Y-38974297D01*
X43624179Y-38971367D01*
X43594307Y-38960347D01*
X43594305Y-38960346D01*
X43488846Y-38943643D01*
X43469000Y-38940500D01*
X43269000Y-38940500D01*
X43268990Y-38940500D01*
X43237179Y-38941749D01*
X43237177Y-38941750D01*
X43113822Y-38971367D01*
X43107966Y-38973793D01*
X43106747Y-38974298D01*
X43050060Y-39003181D01*
X43050058Y-39003182D01*
X43050055Y-39003184D01*
X43050050Y-39003187D01*
X42953590Y-39085569D01*
X42947250Y-39092994D01*
X42945205Y-39091248D01*
X42904398Y-39128166D01*
X42850485Y-39140500D01*
X42768990Y-39140500D01*
X42737179Y-39141749D01*
X42737177Y-39141750D01*
X42613822Y-39171367D01*
X42607966Y-39173793D01*
X42606747Y-39174298D01*
X42550060Y-39203181D01*
X42550058Y-39203182D01*
X42550055Y-39203184D01*
X42550050Y-39203187D01*
X42453590Y-39285569D01*
X42453585Y-39285575D01*
X42387301Y-39393740D01*
X42387297Y-39393748D01*
X42384367Y-39400820D01*
X42373347Y-39430692D01*
X42373346Y-39430694D01*
X42353500Y-39556000D01*
X42353500Y-40256010D01*
X42354749Y-40287820D01*
X42354750Y-40287822D01*
X42384367Y-40411177D01*
X42384368Y-40411181D01*
X42384369Y-40411182D01*
X42387298Y-40418253D01*
X42416181Y-40474940D01*
X42416183Y-40474942D01*
X42416184Y-40474944D01*
X42416187Y-40474948D01*
X42430675Y-40491913D01*
X42459243Y-40555675D01*
X42448804Y-40624760D01*
X42424063Y-40660122D01*
X39646181Y-43438004D01*
X39584858Y-43471489D01*
X39515166Y-43466505D01*
X39459233Y-43424633D01*
X39434816Y-43359169D01*
X39434500Y-43350323D01*
X39434500Y-43055989D01*
X39433250Y-43024179D01*
X39433249Y-43024177D01*
X39403632Y-42900822D01*
X39403631Y-42900820D01*
X39403631Y-42900818D01*
X39400702Y-42893747D01*
X39371819Y-42837060D01*
X39371815Y-42837055D01*
X39371812Y-42837050D01*
X39289430Y-42740590D01*
X39289424Y-42740585D01*
X39181259Y-42674301D01*
X39181251Y-42674297D01*
X39174179Y-42671367D01*
X39144307Y-42660347D01*
X39144305Y-42660346D01*
X39038846Y-42643643D01*
X39019000Y-42640500D01*
X39018999Y-42640500D01*
X38931923Y-42640500D01*
X38864884Y-42620815D01*
X38837631Y-42597030D01*
X38789426Y-42540587D01*
X38789424Y-42540585D01*
X38681259Y-42474301D01*
X38681251Y-42474297D01*
X38674179Y-42471367D01*
X38644307Y-42460347D01*
X38644305Y-42460346D01*
X38538846Y-42443643D01*
X38519000Y-42440500D01*
X38319000Y-42440500D01*
X38318990Y-42440500D01*
X38287179Y-42441749D01*
X38287177Y-42441750D01*
X38163822Y-42471367D01*
X38157966Y-42473793D01*
X38156747Y-42474298D01*
X38100060Y-42503181D01*
X38100058Y-42503182D01*
X38100055Y-42503184D01*
X38100050Y-42503187D01*
X38003590Y-42585569D01*
X38003585Y-42585575D01*
X37937301Y-42693740D01*
X37937297Y-42693748D01*
X37934367Y-42700820D01*
X37923347Y-42730692D01*
X37923346Y-42730694D01*
X37903500Y-42856000D01*
X37903500Y-43956010D01*
X37904749Y-43987820D01*
X37904750Y-43987822D01*
X37934367Y-44111177D01*
X37934368Y-44111179D01*
X37934369Y-44111182D01*
X37937298Y-44118253D01*
X37966181Y-44174940D01*
X37966183Y-44174942D01*
X37966184Y-44174944D01*
X37966187Y-44174949D01*
X38048569Y-44271409D01*
X38048575Y-44271414D01*
X38156740Y-44337698D01*
X38156747Y-44337702D01*
X38161748Y-44339773D01*
X38163820Y-44340632D01*
X38178756Y-44346142D01*
X38193694Y-44351653D01*
X38319000Y-44371500D01*
X38319001Y-44371500D01*
X38519010Y-44371500D01*
X38550820Y-44370250D01*
X38674182Y-44340631D01*
X38681253Y-44337702D01*
X38737940Y-44308819D01*
X38737946Y-44308813D01*
X38737949Y-44308812D01*
X38834409Y-44226430D01*
X38834410Y-44226427D01*
X38834413Y-44226426D01*
X38834414Y-44226423D01*
X38840750Y-44219006D01*
X38842794Y-44220751D01*
X38883602Y-44183834D01*
X38937515Y-44171500D01*
X39019010Y-44171500D01*
X39050820Y-44170250D01*
X39174182Y-44140631D01*
X39181253Y-44137702D01*
X39197206Y-44129573D01*
X39265872Y-44116677D01*
X39330613Y-44142952D01*
X39370871Y-44200058D01*
X39377500Y-44240058D01*
X39377500Y-85663891D01*
X39411608Y-85791187D01*
X39444554Y-85848250D01*
X39477500Y-85905314D01*
X39477502Y-85905316D01*
X45945181Y-92372995D01*
X45978666Y-92434318D01*
X45981500Y-92460676D01*
X45981500Y-94334324D01*
X45961815Y-94401363D01*
X45909011Y-94447118D01*
X45839853Y-94457062D01*
X45776297Y-94428037D01*
X45769819Y-94422005D01*
X43939315Y-92591501D01*
X43933008Y-92586661D01*
X43891808Y-92530231D01*
X43884500Y-92488289D01*
X43884500Y-92441989D01*
X43883250Y-92410179D01*
X43883249Y-92410177D01*
X43873979Y-92371569D01*
X43853631Y-92286818D01*
X43850702Y-92279747D01*
X43821819Y-92223060D01*
X43821815Y-92223055D01*
X43821812Y-92223050D01*
X43739430Y-92126590D01*
X43739424Y-92126585D01*
X43631259Y-92060301D01*
X43631251Y-92060297D01*
X43624179Y-92057367D01*
X43594307Y-92046347D01*
X43594305Y-92046346D01*
X43488846Y-92029643D01*
X43469000Y-92026500D01*
X43269000Y-92026500D01*
X43268990Y-92026500D01*
X43237179Y-92027749D01*
X43237177Y-92027750D01*
X43113822Y-92057367D01*
X43107966Y-92059793D01*
X43106747Y-92060298D01*
X43050060Y-92089181D01*
X43050058Y-92089182D01*
X43050055Y-92089184D01*
X43050050Y-92089187D01*
X42953590Y-92171569D01*
X42947250Y-92178994D01*
X42945205Y-92177248D01*
X42904398Y-92214166D01*
X42850485Y-92226500D01*
X42768990Y-92226500D01*
X42737179Y-92227749D01*
X42737177Y-92227750D01*
X42613822Y-92257367D01*
X42607966Y-92259793D01*
X42606747Y-92260298D01*
X42550060Y-92289181D01*
X42550058Y-92289182D01*
X42550055Y-92289184D01*
X42550050Y-92289187D01*
X42453590Y-92371569D01*
X42453585Y-92371575D01*
X42387301Y-92479740D01*
X42387297Y-92479748D01*
X42384367Y-92486820D01*
X42373347Y-92516692D01*
X42373346Y-92516694D01*
X42353500Y-92642000D01*
X42353500Y-93342010D01*
X42354749Y-93373820D01*
X42354750Y-93373822D01*
X42384367Y-93497177D01*
X42384368Y-93497181D01*
X42384369Y-93497182D01*
X42387298Y-93504253D01*
X42416181Y-93560940D01*
X42416183Y-93560942D01*
X42416184Y-93560944D01*
X42416187Y-93560949D01*
X42498569Y-93657409D01*
X42498575Y-93657414D01*
X42575006Y-93704251D01*
X42606747Y-93723702D01*
X42611748Y-93725773D01*
X42613820Y-93726632D01*
X42628756Y-93732142D01*
X42643694Y-93737653D01*
X42769000Y-93757500D01*
X42856077Y-93757500D01*
X42923116Y-93777185D01*
X42950367Y-93800969D01*
X42965389Y-93818557D01*
X42998573Y-93857412D01*
X42998575Y-93857414D01*
X43106737Y-93923696D01*
X43106747Y-93923702D01*
X43111748Y-93925773D01*
X43113820Y-93926632D01*
X43128756Y-93932142D01*
X43143694Y-93937653D01*
X43269000Y-93957500D01*
X43269001Y-93957500D01*
X43469010Y-93957500D01*
X43500820Y-93956250D01*
X43624182Y-93926631D01*
X43631253Y-93923702D01*
X43687940Y-93894819D01*
X43687940Y-93894818D01*
X43694456Y-93891499D01*
X43695214Y-93892987D01*
X43753354Y-93874776D01*
X43820736Y-93893254D01*
X43843261Y-93911075D01*
X45310181Y-95377995D01*
X45343666Y-95439318D01*
X45346500Y-95465676D01*
X45346500Y-106736414D01*
X45326815Y-106803453D01*
X45274011Y-106849208D01*
X45204853Y-106859152D01*
X45141297Y-106830127D01*
X45134819Y-106824095D01*
X43863729Y-105553005D01*
X43830244Y-105491682D01*
X43827410Y-105465324D01*
X43827410Y-104913989D01*
X43826160Y-104882179D01*
X43826159Y-104882177D01*
X43816889Y-104843569D01*
X43796541Y-104758818D01*
X43793612Y-104751747D01*
X43764729Y-104695060D01*
X43764725Y-104695055D01*
X43764722Y-104695050D01*
X43682340Y-104598590D01*
X43682334Y-104598585D01*
X43574169Y-104532301D01*
X43574161Y-104532297D01*
X43567089Y-104529367D01*
X43537217Y-104518347D01*
X43537215Y-104518346D01*
X43431756Y-104501643D01*
X43411910Y-104498500D01*
X43211910Y-104498500D01*
X43211900Y-104498500D01*
X43180089Y-104499749D01*
X43180087Y-104499750D01*
X43056732Y-104529367D01*
X43050876Y-104531793D01*
X43049657Y-104532298D01*
X42992970Y-104561181D01*
X42992968Y-104561182D01*
X42992965Y-104561184D01*
X42992960Y-104561187D01*
X42896500Y-104643569D01*
X42890160Y-104650994D01*
X42888115Y-104649248D01*
X42847308Y-104686166D01*
X42793395Y-104698500D01*
X42711900Y-104698500D01*
X42680089Y-104699749D01*
X42680087Y-104699750D01*
X42556732Y-104729367D01*
X42550876Y-104731793D01*
X42549657Y-104732298D01*
X42492970Y-104761181D01*
X42492968Y-104761182D01*
X42492965Y-104761184D01*
X42492960Y-104761187D01*
X42396500Y-104843569D01*
X42396495Y-104843575D01*
X42330211Y-104951740D01*
X42330207Y-104951748D01*
X42327277Y-104958820D01*
X42316257Y-104988692D01*
X42316256Y-104988694D01*
X42296410Y-105114000D01*
X42296410Y-105814010D01*
X42297659Y-105845820D01*
X42297660Y-105845822D01*
X42327277Y-105969177D01*
X42327278Y-105969181D01*
X42327279Y-105969182D01*
X42330208Y-105976253D01*
X42359091Y-106032940D01*
X42359093Y-106032942D01*
X42359094Y-106032944D01*
X42359097Y-106032949D01*
X42441479Y-106129409D01*
X42441485Y-106129414D01*
X42506361Y-106169170D01*
X42549657Y-106195702D01*
X42554658Y-106197773D01*
X42556730Y-106198632D01*
X42571666Y-106204142D01*
X42586604Y-106209653D01*
X42711910Y-106229500D01*
X42798987Y-106229500D01*
X42866026Y-106249185D01*
X42893277Y-106272969D01*
X42908299Y-106290557D01*
X42941483Y-106329412D01*
X42941485Y-106329414D01*
X43037542Y-106388278D01*
X43049657Y-106395702D01*
X43054658Y-106397773D01*
X43056730Y-106398632D01*
X43069926Y-106403500D01*
X43086604Y-106409653D01*
X43211910Y-106429500D01*
X43273234Y-106429500D01*
X43340273Y-106449185D01*
X43360915Y-106465819D01*
X44675181Y-107780085D01*
X44708666Y-107841408D01*
X44711500Y-107867766D01*
X44711500Y-117745324D01*
X44691815Y-117812363D01*
X44639011Y-117858118D01*
X44569853Y-117868062D01*
X44506297Y-117839037D01*
X44499819Y-117833005D01*
X44150316Y-117483502D01*
X44150314Y-117483500D01*
X44036186Y-117417608D01*
X43973407Y-117400786D01*
X43913748Y-117364422D01*
X43886211Y-117307735D01*
X43884673Y-117308105D01*
X43853632Y-117178822D01*
X43853631Y-117178821D01*
X43853631Y-117178818D01*
X43850702Y-117171747D01*
X43821819Y-117115060D01*
X43821815Y-117115055D01*
X43821812Y-117115050D01*
X43739430Y-117018590D01*
X43739424Y-117018585D01*
X43631259Y-116952301D01*
X43631251Y-116952297D01*
X43624179Y-116949367D01*
X43594307Y-116938347D01*
X43594305Y-116938346D01*
X43488846Y-116921643D01*
X43469000Y-116918500D01*
X43269000Y-116918500D01*
X43268990Y-116918500D01*
X43237179Y-116919749D01*
X43237177Y-116919750D01*
X43113822Y-116949367D01*
X43107966Y-116951793D01*
X43106747Y-116952298D01*
X43050060Y-116981181D01*
X43050058Y-116981182D01*
X43050055Y-116981184D01*
X43050050Y-116981187D01*
X42953590Y-117063569D01*
X42947250Y-117070994D01*
X42945205Y-117069248D01*
X42904398Y-117106166D01*
X42850485Y-117118500D01*
X42768990Y-117118500D01*
X42737179Y-117119749D01*
X42737177Y-117119750D01*
X42613822Y-117149367D01*
X42607966Y-117151793D01*
X42606747Y-117152298D01*
X42550060Y-117181181D01*
X42550058Y-117181182D01*
X42550055Y-117181184D01*
X42550050Y-117181187D01*
X42453590Y-117263569D01*
X42453585Y-117263575D01*
X42387301Y-117371740D01*
X42387297Y-117371748D01*
X42384367Y-117378820D01*
X42373347Y-117408692D01*
X42373346Y-117408694D01*
X42353500Y-117534000D01*
X42353500Y-118234010D01*
X42354749Y-118265820D01*
X42354750Y-118265822D01*
X42384367Y-118389177D01*
X42384368Y-118389181D01*
X42384369Y-118389182D01*
X42387298Y-118396253D01*
X42416181Y-118452940D01*
X42416183Y-118452942D01*
X42416184Y-118452944D01*
X42416187Y-118452949D01*
X42498569Y-118549409D01*
X42498575Y-118549414D01*
X42606740Y-118615698D01*
X42606747Y-118615702D01*
X42611748Y-118617773D01*
X42613820Y-118618632D01*
X42628756Y-118624142D01*
X42643694Y-118629653D01*
X42769000Y-118649500D01*
X42856077Y-118649500D01*
X42923116Y-118669185D01*
X42950367Y-118692969D01*
X42964454Y-118709462D01*
X42998573Y-118749412D01*
X42998575Y-118749414D01*
X43104214Y-118814150D01*
X43106747Y-118815702D01*
X43111748Y-118817773D01*
X43113820Y-118818632D01*
X43128756Y-118824142D01*
X43143694Y-118829653D01*
X43269000Y-118849500D01*
X43269001Y-118849500D01*
X43469010Y-118849500D01*
X43500820Y-118848250D01*
X43624182Y-118818631D01*
X43631253Y-118815702D01*
X43687940Y-118786819D01*
X43784413Y-118704426D01*
X43784413Y-118704425D01*
X43789589Y-118700005D01*
X43793344Y-118698322D01*
X43795810Y-118695029D01*
X43824955Y-118684158D01*
X43853351Y-118671435D01*
X43857419Y-118672049D01*
X43861274Y-118670612D01*
X43891673Y-118677224D01*
X43922437Y-118681873D01*
X43926677Y-118684839D01*
X43929547Y-118685464D01*
X43957801Y-118706615D01*
X44040181Y-118788995D01*
X44073666Y-118850318D01*
X44076500Y-118876676D01*
X44076500Y-120598404D01*
X44056815Y-120665443D01*
X44004011Y-120711198D01*
X43934853Y-120721142D01*
X43871297Y-120692117D01*
X43842017Y-120654701D01*
X43821819Y-120615060D01*
X43821815Y-120615055D01*
X43821812Y-120615050D01*
X43739430Y-120518590D01*
X43739424Y-120518585D01*
X43631259Y-120452301D01*
X43631251Y-120452297D01*
X43624179Y-120449367D01*
X43594307Y-120438347D01*
X43594305Y-120438346D01*
X43488846Y-120421643D01*
X43469000Y-120418500D01*
X43269000Y-120418500D01*
X43268990Y-120418500D01*
X43237179Y-120419749D01*
X43237177Y-120419750D01*
X43113822Y-120449367D01*
X43107966Y-120451793D01*
X43106747Y-120452298D01*
X43050060Y-120481181D01*
X43050058Y-120481182D01*
X43050055Y-120481184D01*
X43050050Y-120481187D01*
X42953590Y-120563569D01*
X42947250Y-120570994D01*
X42945205Y-120569248D01*
X42904398Y-120606166D01*
X42850485Y-120618500D01*
X42768990Y-120618500D01*
X42737179Y-120619749D01*
X42737177Y-120619750D01*
X42613822Y-120649367D01*
X42607966Y-120651793D01*
X42606747Y-120652298D01*
X42550060Y-120681181D01*
X42550058Y-120681182D01*
X42550055Y-120681184D01*
X42550050Y-120681187D01*
X42453590Y-120763569D01*
X42453585Y-120763575D01*
X42387301Y-120871740D01*
X42387297Y-120871748D01*
X42384367Y-120878820D01*
X42373347Y-120908692D01*
X42373346Y-120908694D01*
X42353500Y-121034000D01*
X42353500Y-121734010D01*
X42354749Y-121765820D01*
X42354750Y-121765822D01*
X42384367Y-121889177D01*
X42384368Y-121889179D01*
X42384369Y-121889182D01*
X42387298Y-121896253D01*
X42416181Y-121952940D01*
X42416183Y-121952942D01*
X42416184Y-121952944D01*
X42416187Y-121952949D01*
X42498569Y-122049409D01*
X42498575Y-122049414D01*
X42587757Y-122104065D01*
X42606747Y-122115702D01*
X42611748Y-122117773D01*
X42613820Y-122118632D01*
X42620109Y-122120952D01*
X42643694Y-122129653D01*
X42769000Y-122149500D01*
X42856077Y-122149500D01*
X42923116Y-122169185D01*
X42950369Y-122192970D01*
X42998573Y-122249412D01*
X42998575Y-122249414D01*
X43104214Y-122314150D01*
X43106747Y-122315702D01*
X43111748Y-122317773D01*
X43113820Y-122318632D01*
X43128756Y-122324142D01*
X43143694Y-122329653D01*
X43269000Y-122349500D01*
X43269001Y-122349500D01*
X43469010Y-122349500D01*
X43500820Y-122348250D01*
X43624182Y-122318631D01*
X43631253Y-122315702D01*
X43687940Y-122286819D01*
X43687946Y-122286813D01*
X43687949Y-122286812D01*
X43784409Y-122204430D01*
X43784410Y-122204427D01*
X43784413Y-122204426D01*
X43830235Y-122129652D01*
X43846773Y-122102665D01*
X43898585Y-122055790D01*
X43967515Y-122044367D01*
X44031677Y-122072025D01*
X44070702Y-122129980D01*
X44076500Y-122167455D01*
X44076500Y-128843891D01*
X44110608Y-128971187D01*
X44135324Y-129013995D01*
X44176500Y-129085314D01*
X47037500Y-131946314D01*
X47130686Y-132039500D01*
X47244814Y-132105392D01*
X47372108Y-132139500D01*
X48309500Y-132139500D01*
X48376539Y-132159185D01*
X48422294Y-132211989D01*
X48433500Y-132263499D01*
X48433500Y-132436869D01*
X48433501Y-132436876D01*
X48439908Y-132496483D01*
X48467577Y-132570667D01*
X48472561Y-132640358D01*
X48467577Y-132657331D01*
X48439910Y-132731511D01*
X48439909Y-132731515D01*
X48439909Y-132731517D01*
X48433500Y-132791127D01*
X48433500Y-132791134D01*
X48433500Y-132791135D01*
X48433500Y-133086869D01*
X48433501Y-133086876D01*
X48439908Y-133146483D01*
X48467577Y-133220667D01*
X48472561Y-133290358D01*
X48467577Y-133307331D01*
X48439910Y-133381511D01*
X48439909Y-133381515D01*
X48439909Y-133381517D01*
X48433500Y-133441127D01*
X48433500Y-133441134D01*
X48433500Y-133441135D01*
X48433500Y-133736869D01*
X48433501Y-133736886D01*
X48434680Y-133747850D01*
X48422271Y-133816609D01*
X48410188Y-133835912D01*
X48409900Y-133836410D01*
X48349444Y-133982368D01*
X48341987Y-134039000D01*
X48525103Y-134039000D01*
X48592142Y-134058685D01*
X48599403Y-134063726D01*
X48691668Y-134132795D01*
X48691671Y-134132797D01*
X48826517Y-134183091D01*
X48826516Y-134183091D01*
X48833444Y-134183835D01*
X48886127Y-134189500D01*
X50681872Y-134189499D01*
X50741483Y-134183091D01*
X50876331Y-134132796D01*
X50901128Y-134114233D01*
X50966592Y-134089816D01*
X50975439Y-134089500D01*
X53293890Y-134089500D01*
X53293892Y-134089500D01*
X53421186Y-134055392D01*
X53535314Y-133989500D01*
X54278819Y-133245995D01*
X54340142Y-133212510D01*
X54409834Y-133217494D01*
X54465767Y-133259366D01*
X54490184Y-133324830D01*
X54490500Y-133333676D01*
X54490500Y-138876891D01*
X54524608Y-139004187D01*
X54557554Y-139061250D01*
X54590500Y-139118314D01*
X54590502Y-139118316D01*
X59921668Y-144449482D01*
X59955153Y-144510805D01*
X59950169Y-144580497D01*
X59944472Y-144593457D01*
X59882671Y-144714749D01*
X59826123Y-144888784D01*
X59797500Y-145069503D01*
X59797500Y-145252496D01*
X59826123Y-145433215D01*
X59882670Y-145607247D01*
X59965743Y-145770286D01*
X60073288Y-145918312D01*
X60202685Y-146047709D01*
X60251929Y-146083486D01*
X60287962Y-146109665D01*
X60313879Y-146135056D01*
X60336765Y-146165235D01*
X60336769Y-146165238D01*
X60457870Y-146257072D01*
X60457872Y-146257073D01*
X60606401Y-146315646D01*
X60661545Y-146358551D01*
X60684738Y-146424459D01*
X60668617Y-146492444D01*
X60618300Y-146540920D01*
X60606401Y-146546354D01*
X60457873Y-146604925D01*
X60385207Y-146660030D01*
X60336765Y-146696765D01*
X60336764Y-146696766D01*
X60336763Y-146696767D01*
X60336759Y-146696770D01*
X60313880Y-146726941D01*
X60287965Y-146752331D01*
X60202682Y-146814293D01*
X60073288Y-146943687D01*
X59965743Y-147091713D01*
X59882670Y-147254752D01*
X59826123Y-147428784D01*
X59797500Y-147609503D01*
X59797500Y-147792496D01*
X59826123Y-147973215D01*
X59882670Y-148147247D01*
X59965743Y-148310286D01*
X60073288Y-148458312D01*
X60202685Y-148587709D01*
X60251929Y-148623486D01*
X60287962Y-148649665D01*
X60313879Y-148675056D01*
X60336765Y-148705235D01*
X60336769Y-148705238D01*
X60457870Y-148797072D01*
X60457872Y-148797073D01*
X60606401Y-148855646D01*
X60661545Y-148898551D01*
X60684738Y-148964459D01*
X60668617Y-149032444D01*
X60618300Y-149080920D01*
X60606401Y-149086354D01*
X60457873Y-149144925D01*
X60385207Y-149200030D01*
X60336765Y-149236765D01*
X60336764Y-149236766D01*
X60336763Y-149236767D01*
X60336759Y-149236770D01*
X60313880Y-149266941D01*
X60287965Y-149292331D01*
X60202682Y-149354293D01*
X60073288Y-149483687D01*
X59965743Y-149631713D01*
X59882670Y-149794752D01*
X59826123Y-149968784D01*
X59797500Y-150149503D01*
X59797500Y-150332496D01*
X59826123Y-150513215D01*
X59882670Y-150687247D01*
X59965743Y-150850286D01*
X60073288Y-150998312D01*
X60202685Y-151127709D01*
X60251929Y-151163486D01*
X60287962Y-151189665D01*
X60313879Y-151215056D01*
X60336765Y-151245235D01*
X60336769Y-151245238D01*
X60457870Y-151337072D01*
X60457872Y-151337073D01*
X60606401Y-151395646D01*
X60661545Y-151438551D01*
X60684738Y-151504459D01*
X60668617Y-151572444D01*
X60618300Y-151620920D01*
X60606401Y-151626354D01*
X60457873Y-151684925D01*
X60406600Y-151723807D01*
X60336765Y-151776765D01*
X60336764Y-151776766D01*
X60336763Y-151776767D01*
X60336759Y-151776770D01*
X60313880Y-151806941D01*
X60287965Y-151832331D01*
X60202682Y-151894293D01*
X60073288Y-152023687D01*
X59965743Y-152171713D01*
X59882670Y-152334752D01*
X59826123Y-152508784D01*
X59797500Y-152689503D01*
X59797500Y-152872496D01*
X59826123Y-153053215D01*
X59826124Y-153053219D01*
X59872259Y-153195208D01*
X59882670Y-153227247D01*
X59965743Y-153390286D01*
X60073288Y-153538312D01*
X60202685Y-153667709D01*
X60251929Y-153703486D01*
X60287963Y-153729666D01*
X60313879Y-153755056D01*
X60336765Y-153785235D01*
X60336769Y-153785238D01*
X60457870Y-153877072D01*
X60457872Y-153877073D01*
X60606401Y-153935646D01*
X60661545Y-153978551D01*
X60684738Y-154044459D01*
X60668617Y-154112444D01*
X60618300Y-154160920D01*
X60606401Y-154166354D01*
X60457873Y-154224925D01*
X60385207Y-154280030D01*
X60336765Y-154316765D01*
X60336764Y-154316766D01*
X60336763Y-154316767D01*
X60336759Y-154316770D01*
X60313880Y-154346941D01*
X60287965Y-154372331D01*
X60202682Y-154434293D01*
X60073288Y-154563687D01*
X59965743Y-154711713D01*
X59882670Y-154874752D01*
X59826123Y-155048784D01*
X59797500Y-155229503D01*
X59797500Y-155412496D01*
X59826123Y-155593215D01*
X59882670Y-155767247D01*
X59965743Y-155930286D01*
X60073288Y-156078312D01*
X60202685Y-156207709D01*
X60251929Y-156243486D01*
X60287962Y-156269665D01*
X60313879Y-156295056D01*
X60336765Y-156325235D01*
X60336769Y-156325238D01*
X60457868Y-156417071D01*
X60457869Y-156417071D01*
X60457870Y-156417072D01*
X60599262Y-156472830D01*
X60688115Y-156483500D01*
X60868508Y-156483499D01*
X60868509Y-156483500D01*
X61051491Y-156483500D01*
X61051492Y-156483499D01*
X62901884Y-156483499D01*
X62990738Y-156472830D01*
X63132130Y-156417072D01*
X63253235Y-156325235D01*
X63345072Y-156204130D01*
X63400830Y-156062738D01*
X63411500Y-155973885D01*
X63411499Y-154668116D01*
X63400830Y-154579262D01*
X63345072Y-154437870D01*
X63345071Y-154437869D01*
X63345071Y-154437868D01*
X63253235Y-154316764D01*
X63132131Y-154224928D01*
X63076695Y-154203067D01*
X62990738Y-154169170D01*
X62990735Y-154169169D01*
X62983598Y-154166355D01*
X62928454Y-154123449D01*
X62905261Y-154057541D01*
X62921381Y-153989557D01*
X62971698Y-153941080D01*
X62983598Y-153935645D01*
X62990735Y-153932830D01*
X62990738Y-153932830D01*
X63132130Y-153877072D01*
X63253235Y-153785235D01*
X63345072Y-153664130D01*
X63400830Y-153522738D01*
X63411500Y-153433885D01*
X63411499Y-152128116D01*
X63400830Y-152039262D01*
X63345072Y-151897870D01*
X63345071Y-151897869D01*
X63345071Y-151897868D01*
X63253235Y-151776764D01*
X63132131Y-151684928D01*
X63068562Y-151659860D01*
X62990738Y-151629170D01*
X62990735Y-151629169D01*
X62983598Y-151626355D01*
X62928454Y-151583449D01*
X62905261Y-151517541D01*
X62921381Y-151449557D01*
X62971698Y-151401080D01*
X62983598Y-151395645D01*
X62990735Y-151392830D01*
X62990738Y-151392830D01*
X63132130Y-151337072D01*
X63253235Y-151245235D01*
X63345072Y-151124130D01*
X63400830Y-150982738D01*
X63411500Y-150893885D01*
X63411499Y-149588116D01*
X63400830Y-149499262D01*
X63345072Y-149357870D01*
X63345071Y-149357869D01*
X63345071Y-149357868D01*
X63253235Y-149236764D01*
X63132131Y-149144928D01*
X63076695Y-149123067D01*
X62990738Y-149089170D01*
X62990735Y-149089169D01*
X62983598Y-149086355D01*
X62928454Y-149043449D01*
X62905261Y-148977541D01*
X62921381Y-148909557D01*
X62971698Y-148861080D01*
X62983598Y-148855645D01*
X62990735Y-148852830D01*
X62990738Y-148852830D01*
X63132130Y-148797072D01*
X63253235Y-148705235D01*
X63345072Y-148584130D01*
X63400830Y-148442738D01*
X63411500Y-148353885D01*
X63411499Y-147048116D01*
X63400830Y-146959262D01*
X63345072Y-146817870D01*
X63345071Y-146817869D01*
X63345071Y-146817868D01*
X63253235Y-146696764D01*
X63132131Y-146604928D01*
X63076695Y-146583067D01*
X62990738Y-146549170D01*
X62990735Y-146549169D01*
X62983598Y-146546355D01*
X62928454Y-146503449D01*
X62905261Y-146437541D01*
X62921381Y-146369557D01*
X62971698Y-146321080D01*
X62983598Y-146315645D01*
X62990735Y-146312830D01*
X62990738Y-146312830D01*
X63132130Y-146257072D01*
X63253235Y-146165235D01*
X63345072Y-146044130D01*
X63400830Y-145902738D01*
X63411500Y-145813885D01*
X63411499Y-144508116D01*
X63400830Y-144419262D01*
X63345072Y-144277870D01*
X63345071Y-144277869D01*
X63345071Y-144277868D01*
X63253235Y-144156764D01*
X63132131Y-144064928D01*
X63076695Y-144043067D01*
X62990738Y-144009170D01*
X62990735Y-144009169D01*
X62983598Y-144006355D01*
X62928454Y-143963449D01*
X62905261Y-143897541D01*
X62921381Y-143829557D01*
X62971698Y-143781080D01*
X62983598Y-143775645D01*
X62990735Y-143772830D01*
X62990738Y-143772830D01*
X63132130Y-143717072D01*
X63253235Y-143625235D01*
X63345072Y-143504130D01*
X63400830Y-143362738D01*
X63411500Y-143273885D01*
X63411499Y-141968116D01*
X63400830Y-141879262D01*
X63345072Y-141737870D01*
X63345071Y-141737869D01*
X63345071Y-141737868D01*
X63253235Y-141616764D01*
X63132131Y-141524928D01*
X63076695Y-141503067D01*
X62990738Y-141469170D01*
X62990735Y-141469169D01*
X62983598Y-141466355D01*
X62928454Y-141423449D01*
X62905261Y-141357541D01*
X62921381Y-141289557D01*
X62971698Y-141241080D01*
X62983598Y-141235645D01*
X62990735Y-141232830D01*
X62990738Y-141232830D01*
X63132130Y-141177072D01*
X63253235Y-141085235D01*
X63345072Y-140964130D01*
X63400830Y-140822738D01*
X63411500Y-140733885D01*
X63411499Y-139428116D01*
X63400830Y-139339262D01*
X63345072Y-139197870D01*
X63345071Y-139197869D01*
X63345071Y-139197868D01*
X63253235Y-139076764D01*
X63132131Y-138984928D01*
X62990736Y-138929169D01*
X62945127Y-138923692D01*
X62901885Y-138918500D01*
X61051496Y-138918500D01*
X61051491Y-138918500D01*
X60868509Y-138918500D01*
X60868503Y-138918500D01*
X60688121Y-138918500D01*
X60599263Y-138929169D01*
X60457870Y-138984927D01*
X60376225Y-139046840D01*
X60336765Y-139076765D01*
X60336764Y-139076766D01*
X60336763Y-139076767D01*
X60336759Y-139076770D01*
X60313880Y-139106941D01*
X60287965Y-139132331D01*
X60202682Y-139194293D01*
X60073288Y-139323687D01*
X59965743Y-139471713D01*
X59882670Y-139634752D01*
X59826123Y-139808784D01*
X59797500Y-139989503D01*
X59797500Y-140172496D01*
X59826123Y-140353215D01*
X59882670Y-140527247D01*
X59965743Y-140690286D01*
X60073288Y-140838312D01*
X60202685Y-140967709D01*
X60251929Y-141003486D01*
X60287962Y-141029665D01*
X60313879Y-141055056D01*
X60336765Y-141085235D01*
X60336769Y-141085238D01*
X60457870Y-141177072D01*
X60457872Y-141177073D01*
X60606401Y-141235646D01*
X60661545Y-141278551D01*
X60684738Y-141344459D01*
X60668617Y-141412444D01*
X60618300Y-141460920D01*
X60606401Y-141466354D01*
X60457873Y-141524925D01*
X60385207Y-141580030D01*
X60336765Y-141616765D01*
X60336764Y-141616766D01*
X60336763Y-141616767D01*
X60336759Y-141616770D01*
X60313880Y-141646941D01*
X60295280Y-141666585D01*
X60291725Y-141669599D01*
X60202682Y-141734294D01*
X60131473Y-141805502D01*
X60127597Y-141808790D01*
X60100123Y-141820985D01*
X60073753Y-141835385D01*
X60068527Y-141835011D01*
X60063736Y-141837138D01*
X60034036Y-141832544D01*
X60004061Y-141830401D01*
X59998954Y-141827118D01*
X59994687Y-141826459D01*
X59986103Y-141818859D01*
X59959714Y-141801900D01*
X56069819Y-137912005D01*
X56036334Y-137850682D01*
X56033500Y-137824324D01*
X56033500Y-134963499D01*
X56053185Y-134896460D01*
X56105989Y-134850705D01*
X56157500Y-134839499D01*
X57681871Y-134839499D01*
X57681872Y-134839499D01*
X57741483Y-134833091D01*
X57876331Y-134782796D01*
X57901128Y-134764233D01*
X57966592Y-134739816D01*
X57975439Y-134739500D01*
X61343390Y-134739500D01*
X61343392Y-134739500D01*
X61470686Y-134705392D01*
X61584814Y-134639500D01*
X67607104Y-128617207D01*
X67607109Y-128617204D01*
X67617312Y-128607000D01*
X67617314Y-128607000D01*
X67710500Y-128513814D01*
X67776392Y-128399686D01*
X67786856Y-128360634D01*
X67793408Y-128336185D01*
X67806767Y-128286324D01*
X67810500Y-128272393D01*
X67810500Y-128140608D01*
X67810500Y-122421762D01*
X67830185Y-122354723D01*
X67882989Y-122308968D01*
X67952147Y-122299024D01*
X67994066Y-122314150D01*
X67994404Y-122313489D01*
X67998742Y-122315698D01*
X67998747Y-122315702D01*
X68003748Y-122317773D01*
X68005820Y-122318632D01*
X68020756Y-122324142D01*
X68035694Y-122329653D01*
X68161000Y-122349500D01*
X68161001Y-122349500D01*
X68361010Y-122349500D01*
X68392820Y-122348250D01*
X68516182Y-122318631D01*
X68523253Y-122315702D01*
X68579940Y-122286819D01*
X68579946Y-122286813D01*
X68579949Y-122286812D01*
X68676409Y-122204430D01*
X68676410Y-122204427D01*
X68676413Y-122204426D01*
X68742702Y-122096253D01*
X68745631Y-122089182D01*
X68756653Y-122059306D01*
X68776500Y-121934000D01*
X68776500Y-120834000D01*
X68776495Y-120833885D01*
X68775250Y-120802179D01*
X68775249Y-120802177D01*
X68765979Y-120763569D01*
X68745631Y-120678818D01*
X68742702Y-120671747D01*
X68713819Y-120615060D01*
X68713815Y-120615055D01*
X68713812Y-120615050D01*
X68631430Y-120518590D01*
X68631424Y-120518585D01*
X68523259Y-120452301D01*
X68523251Y-120452297D01*
X68516179Y-120449367D01*
X68486307Y-120438347D01*
X68486305Y-120438346D01*
X68380846Y-120421643D01*
X68361000Y-120418500D01*
X68161000Y-120418500D01*
X68160990Y-120418500D01*
X68129179Y-120419749D01*
X68129177Y-120419750D01*
X68005822Y-120449367D01*
X67998752Y-120452296D01*
X67998744Y-120452299D01*
X67993553Y-120454943D01*
X67990790Y-120456352D01*
X67922122Y-120469246D01*
X67857382Y-120442967D01*
X67817127Y-120385859D01*
X67810500Y-120345865D01*
X67810500Y-118921762D01*
X67830185Y-118854723D01*
X67882989Y-118808968D01*
X67952147Y-118799024D01*
X67994066Y-118814150D01*
X67994404Y-118813489D01*
X67998742Y-118815698D01*
X67998747Y-118815702D01*
X68003748Y-118817773D01*
X68005820Y-118818632D01*
X68020756Y-118824142D01*
X68035694Y-118829653D01*
X68161000Y-118849500D01*
X68161001Y-118849500D01*
X68361010Y-118849500D01*
X68392820Y-118848250D01*
X68516182Y-118818631D01*
X68523253Y-118815702D01*
X68579940Y-118786819D01*
X68579946Y-118786813D01*
X68579949Y-118786812D01*
X68676409Y-118704430D01*
X68676410Y-118704427D01*
X68676413Y-118704426D01*
X68742702Y-118596253D01*
X68745631Y-118589182D01*
X68756653Y-118559306D01*
X68776500Y-118434000D01*
X68776500Y-117334000D01*
X68776495Y-117333885D01*
X68775250Y-117302179D01*
X68775249Y-117302177D01*
X68765979Y-117263569D01*
X68745631Y-117178818D01*
X68742702Y-117171747D01*
X68713819Y-117115060D01*
X68713815Y-117115055D01*
X68713812Y-117115050D01*
X68631430Y-117018590D01*
X68631424Y-117018585D01*
X68523259Y-116952301D01*
X68523251Y-116952297D01*
X68516179Y-116949367D01*
X68486307Y-116938347D01*
X68486305Y-116938346D01*
X68380846Y-116921643D01*
X68361000Y-116918500D01*
X68161000Y-116918500D01*
X68160990Y-116918500D01*
X68129179Y-116919749D01*
X68129177Y-116919750D01*
X68005822Y-116949367D01*
X67999966Y-116951793D01*
X67998747Y-116952298D01*
X67942060Y-116981181D01*
X67942058Y-116981182D01*
X67942055Y-116981184D01*
X67942050Y-116981187D01*
X67845590Y-117063569D01*
X67839250Y-117070994D01*
X67837205Y-117069248D01*
X67796398Y-117106166D01*
X67742485Y-117118500D01*
X67660990Y-117118500D01*
X67629179Y-117119749D01*
X67629177Y-117119750D01*
X67505822Y-117149367D01*
X67499966Y-117151793D01*
X67498747Y-117152298D01*
X67498743Y-117152299D01*
X67498734Y-117152304D01*
X67482792Y-117160427D01*
X67414122Y-117173322D01*
X67349383Y-117147044D01*
X67309127Y-117089936D01*
X67302500Y-117049941D01*
X67302500Y-109770859D01*
X67322185Y-109703820D01*
X67374989Y-109658065D01*
X67444147Y-109648121D01*
X67491293Y-109665134D01*
X67494670Y-109667204D01*
X67498743Y-109669700D01*
X67498745Y-109669700D01*
X67498747Y-109669702D01*
X67503748Y-109671773D01*
X67505820Y-109672632D01*
X67515652Y-109676259D01*
X67535694Y-109683653D01*
X67661000Y-109703500D01*
X67748077Y-109703500D01*
X67815116Y-109723185D01*
X67842367Y-109746969D01*
X67845816Y-109751006D01*
X67890573Y-109803412D01*
X67890575Y-109803414D01*
X67994042Y-109866819D01*
X67998747Y-109869702D01*
X68003748Y-109871773D01*
X68005820Y-109872632D01*
X68020756Y-109878142D01*
X68035694Y-109883653D01*
X68161000Y-109903500D01*
X68161001Y-109903500D01*
X68361010Y-109903500D01*
X68392820Y-109902250D01*
X68516182Y-109872631D01*
X68523253Y-109869702D01*
X68579940Y-109840819D01*
X68579946Y-109840813D01*
X68579949Y-109840812D01*
X68676409Y-109758430D01*
X68676410Y-109758427D01*
X68676413Y-109758426D01*
X68742702Y-109650253D01*
X68745631Y-109643182D01*
X68756653Y-109613306D01*
X68776500Y-109488000D01*
X68776500Y-108388000D01*
X68776495Y-108387885D01*
X68775250Y-108356179D01*
X68775249Y-108356177D01*
X68772223Y-108343575D01*
X68745631Y-108232818D01*
X68742702Y-108225747D01*
X68713819Y-108169060D01*
X68713815Y-108169055D01*
X68713812Y-108169050D01*
X68631430Y-108072590D01*
X68631424Y-108072585D01*
X68523259Y-108006301D01*
X68523251Y-108006297D01*
X68516179Y-108003367D01*
X68486307Y-107992347D01*
X68486305Y-107992346D01*
X68380846Y-107975643D01*
X68361000Y-107972500D01*
X68161000Y-107972500D01*
X68160990Y-107972500D01*
X68129179Y-107973749D01*
X68129177Y-107973750D01*
X68005822Y-108003367D01*
X67999966Y-108005793D01*
X67998747Y-108006298D01*
X67942060Y-108035181D01*
X67942058Y-108035182D01*
X67942055Y-108035184D01*
X67942050Y-108035187D01*
X67845590Y-108117569D01*
X67839250Y-108124994D01*
X67837205Y-108123248D01*
X67796398Y-108160166D01*
X67742485Y-108172500D01*
X67660990Y-108172500D01*
X67629179Y-108173749D01*
X67629177Y-108173750D01*
X67505822Y-108203367D01*
X67499966Y-108205793D01*
X67498747Y-108206298D01*
X67498743Y-108206299D01*
X67498734Y-108206304D01*
X67482792Y-108214427D01*
X67414122Y-108227322D01*
X67349383Y-108201044D01*
X67309127Y-108143936D01*
X67302500Y-108103941D01*
X67302500Y-106910674D01*
X67322185Y-106843635D01*
X67338815Y-106822997D01*
X67801503Y-106360308D01*
X67862824Y-106326825D01*
X67932515Y-106331809D01*
X67953972Y-106342264D01*
X67998740Y-106369698D01*
X67998747Y-106369702D01*
X68003748Y-106371773D01*
X68005820Y-106372632D01*
X68020756Y-106378142D01*
X68035694Y-106383653D01*
X68161000Y-106403500D01*
X68161001Y-106403500D01*
X68361010Y-106403500D01*
X68392820Y-106402250D01*
X68516182Y-106372631D01*
X68523253Y-106369702D01*
X68579940Y-106340819D01*
X68579946Y-106340813D01*
X68579949Y-106340812D01*
X68676409Y-106258430D01*
X68676410Y-106258427D01*
X68676413Y-106258426D01*
X68742702Y-106150253D01*
X68745631Y-106143182D01*
X68756653Y-106113306D01*
X68776500Y-105988000D01*
X68776500Y-104888000D01*
X68776271Y-104882180D01*
X68775250Y-104856179D01*
X68775249Y-104856177D01*
X68772223Y-104843575D01*
X68745631Y-104732818D01*
X68742702Y-104725747D01*
X68713819Y-104669060D01*
X68713815Y-104669055D01*
X68713812Y-104669050D01*
X68631430Y-104572590D01*
X68631424Y-104572585D01*
X68523259Y-104506301D01*
X68523251Y-104506297D01*
X68516179Y-104503367D01*
X68486307Y-104492347D01*
X68486305Y-104492346D01*
X68380846Y-104475643D01*
X68361000Y-104472500D01*
X68161000Y-104472500D01*
X68160990Y-104472500D01*
X68129179Y-104473749D01*
X68129177Y-104473750D01*
X68005822Y-104503367D01*
X67999966Y-104505793D01*
X67998747Y-104506298D01*
X67942060Y-104535181D01*
X67942058Y-104535182D01*
X67942055Y-104535184D01*
X67942050Y-104535187D01*
X67845590Y-104617569D01*
X67839250Y-104624994D01*
X67838601Y-104624440D01*
X67836198Y-104629703D01*
X67815042Y-104643298D01*
X67796398Y-104660166D01*
X67784594Y-104662866D01*
X67777420Y-104667477D01*
X67742485Y-104672500D01*
X67680500Y-104672500D01*
X67613461Y-104652815D01*
X67567706Y-104600011D01*
X67556500Y-104548500D01*
X67556500Y-97381500D01*
X67576185Y-97314461D01*
X67628989Y-97268706D01*
X67680500Y-97257500D01*
X67748077Y-97257500D01*
X67815116Y-97277185D01*
X67842369Y-97300970D01*
X67890573Y-97357412D01*
X67890575Y-97357414D01*
X67998740Y-97423698D01*
X67998747Y-97423702D01*
X68003748Y-97425773D01*
X68005820Y-97426632D01*
X68020756Y-97432142D01*
X68035694Y-97437653D01*
X68161000Y-97457500D01*
X68161001Y-97457500D01*
X68361010Y-97457500D01*
X68392820Y-97456250D01*
X68516182Y-97426631D01*
X68523253Y-97423702D01*
X68579940Y-97394819D01*
X68579946Y-97394813D01*
X68579949Y-97394812D01*
X68676409Y-97312430D01*
X68676410Y-97312427D01*
X68676413Y-97312426D01*
X68742702Y-97204253D01*
X68745631Y-97197182D01*
X68756653Y-97167306D01*
X68776500Y-97042000D01*
X68776500Y-95942000D01*
X68775250Y-95910180D01*
X68745631Y-95786818D01*
X68742702Y-95779747D01*
X68713819Y-95723060D01*
X68713815Y-95723055D01*
X68713812Y-95723050D01*
X68631430Y-95626590D01*
X68631424Y-95626585D01*
X68523259Y-95560301D01*
X68523251Y-95560297D01*
X68516179Y-95557367D01*
X68486307Y-95546347D01*
X68486305Y-95546346D01*
X68380846Y-95529643D01*
X68361000Y-95526500D01*
X68161000Y-95526500D01*
X68160990Y-95526500D01*
X68129179Y-95527749D01*
X68129177Y-95527750D01*
X68005822Y-95557367D01*
X67999966Y-95559793D01*
X67998747Y-95560298D01*
X67942060Y-95589181D01*
X67942058Y-95589182D01*
X67942055Y-95589184D01*
X67942050Y-95589187D01*
X67845590Y-95671569D01*
X67839250Y-95678994D01*
X67838601Y-95678440D01*
X67836198Y-95683703D01*
X67815042Y-95697298D01*
X67796398Y-95714166D01*
X67784594Y-95716866D01*
X67777420Y-95721477D01*
X67742485Y-95726500D01*
X67680500Y-95726500D01*
X67613461Y-95706815D01*
X67567706Y-95654011D01*
X67556500Y-95602500D01*
X67556500Y-93881500D01*
X67576185Y-93814461D01*
X67628989Y-93768706D01*
X67680500Y-93757500D01*
X67748077Y-93757500D01*
X67815116Y-93777185D01*
X67842367Y-93800969D01*
X67857389Y-93818557D01*
X67890573Y-93857412D01*
X67890575Y-93857414D01*
X67998737Y-93923696D01*
X67998747Y-93923702D01*
X68003748Y-93925773D01*
X68005820Y-93926632D01*
X68020756Y-93932142D01*
X68035694Y-93937653D01*
X68161000Y-93957500D01*
X68161001Y-93957500D01*
X68361010Y-93957500D01*
X68392820Y-93956250D01*
X68516182Y-93926631D01*
X68523253Y-93923702D01*
X68579940Y-93894819D01*
X68579946Y-93894813D01*
X68579949Y-93894812D01*
X68676409Y-93812430D01*
X68676410Y-93812427D01*
X68676413Y-93812426D01*
X68742702Y-93704253D01*
X68745631Y-93697182D01*
X68756653Y-93667306D01*
X68776500Y-93542000D01*
X68776500Y-92442000D01*
X68776198Y-92434318D01*
X68775250Y-92410179D01*
X68775249Y-92410177D01*
X68765979Y-92371569D01*
X68745631Y-92286818D01*
X68742702Y-92279747D01*
X68713819Y-92223060D01*
X68713815Y-92223055D01*
X68713812Y-92223050D01*
X68631430Y-92126590D01*
X68631424Y-92126585D01*
X68523259Y-92060301D01*
X68523251Y-92060297D01*
X68516179Y-92057367D01*
X68486307Y-92046347D01*
X68486305Y-92046346D01*
X68380846Y-92029643D01*
X68361000Y-92026500D01*
X68161000Y-92026500D01*
X68160990Y-92026500D01*
X68129179Y-92027749D01*
X68129177Y-92027750D01*
X68005822Y-92057367D01*
X67998752Y-92060296D01*
X67998744Y-92060299D01*
X67988363Y-92065589D01*
X67919693Y-92078483D01*
X67854954Y-92052204D01*
X67814699Y-91995096D01*
X67811709Y-91925290D01*
X67844390Y-91867422D01*
X69784878Y-89926933D01*
X69784883Y-89926930D01*
X69795086Y-89916726D01*
X69795088Y-89916726D01*
X69888274Y-89823540D01*
X69954166Y-89709412D01*
X69988274Y-89582119D01*
X69988274Y-89450334D01*
X69988274Y-65770497D01*
X70007959Y-65703458D01*
X70060763Y-65657703D01*
X70073947Y-65652569D01*
X70121346Y-65637169D01*
X70352825Y-65519224D01*
X70563003Y-65366521D01*
X70746705Y-65182819D01*
X70899408Y-64972641D01*
X71017353Y-64741162D01*
X71095024Y-64502117D01*
X71134462Y-64444441D01*
X71198820Y-64417243D01*
X71267667Y-64429158D01*
X71319142Y-64476402D01*
X71336955Y-64540435D01*
X71336955Y-157589500D01*
X71317270Y-157656539D01*
X71264466Y-157702294D01*
X71212955Y-157713500D01*
X35461955Y-157713500D01*
X35394916Y-157693815D01*
X35349161Y-157641011D01*
X35337955Y-157589500D01*
X35337955Y-154668115D01*
X43268500Y-154668115D01*
X43268500Y-154668120D01*
X43268500Y-154668121D01*
X43268500Y-155973878D01*
X43279169Y-156062736D01*
X43334928Y-156204131D01*
X43426764Y-156325235D01*
X43547868Y-156417071D01*
X43547869Y-156417071D01*
X43547870Y-156417072D01*
X43689262Y-156472830D01*
X43778115Y-156483500D01*
X45628503Y-156483499D01*
X45628509Y-156483500D01*
X45811491Y-156483500D01*
X45811496Y-156483499D01*
X45991884Y-156483499D01*
X46080738Y-156472830D01*
X46222130Y-156417072D01*
X46343235Y-156325235D01*
X46366120Y-156295055D01*
X46392035Y-156269666D01*
X46477318Y-156207706D01*
X46606706Y-156078318D01*
X46606708Y-156078314D01*
X46606711Y-156078312D01*
X46653873Y-156013397D01*
X46714259Y-155930283D01*
X46797331Y-155767245D01*
X46853876Y-155593219D01*
X46866597Y-155512895D01*
X46882500Y-155412496D01*
X46882500Y-155229503D01*
X46853876Y-155048784D01*
X46853876Y-155048781D01*
X46797331Y-154874755D01*
X46714259Y-154711717D01*
X46682585Y-154668121D01*
X46606711Y-154563687D01*
X46477320Y-154434296D01*
X46477316Y-154434293D01*
X46392035Y-154372332D01*
X46366118Y-154346941D01*
X46343235Y-154316765D01*
X46343230Y-154316761D01*
X46222131Y-154224928D01*
X46080736Y-154169169D01*
X46035127Y-154163692D01*
X45991885Y-154158500D01*
X45931185Y-154158500D01*
X45864146Y-154138815D01*
X45818391Y-154086011D01*
X45815356Y-154064907D01*
X44885000Y-153134552D01*
X43958651Y-154060898D01*
X43929569Y-154118996D01*
X43869480Y-154154648D01*
X43838817Y-154158500D01*
X43778121Y-154158500D01*
X43689263Y-154169169D01*
X43547868Y-154224928D01*
X43426764Y-154316764D01*
X43334928Y-154437868D01*
X43279169Y-154579263D01*
X43273303Y-154628116D01*
X43268500Y-154668115D01*
X35337955Y-154668115D01*
X35337955Y-152105511D01*
X43169000Y-152105511D01*
X43169000Y-153456469D01*
X43169001Y-153456491D01*
X43171910Y-153493466D01*
X43217897Y-153651757D01*
X43301803Y-153793634D01*
X43301807Y-153793639D01*
X43410308Y-153902139D01*
X44531448Y-152781000D01*
X45238552Y-152781000D01*
X45275500Y-152817948D01*
X45275500Y-152839520D01*
X45305792Y-152952571D01*
X45364311Y-153053930D01*
X45447070Y-153136689D01*
X45548429Y-153195208D01*
X45661480Y-153225500D01*
X45683052Y-153225500D01*
X46359690Y-153902139D01*
X46359691Y-153902139D01*
X46423638Y-153838191D01*
X45804094Y-153218647D01*
X45891571Y-153195208D01*
X45992930Y-153136689D01*
X46075689Y-153053930D01*
X46134208Y-152952571D01*
X46157647Y-152865094D01*
X46772268Y-153479715D01*
X46799362Y-153442425D01*
X46889542Y-153265437D01*
X46950924Y-153076523D01*
X46950924Y-153076520D01*
X46982000Y-152880321D01*
X46982000Y-152681678D01*
X46950924Y-152485479D01*
X46950924Y-152485476D01*
X46889542Y-152296562D01*
X46799358Y-152119567D01*
X46772268Y-152082283D01*
X46157647Y-152696904D01*
X46134208Y-152609429D01*
X46075689Y-152508070D01*
X45992930Y-152425311D01*
X45891571Y-152366792D01*
X45804093Y-152343352D01*
X46423639Y-151723807D01*
X46359692Y-151659860D01*
X45683052Y-152336500D01*
X45661480Y-152336500D01*
X45548429Y-152366792D01*
X45447070Y-152425311D01*
X45364311Y-152508070D01*
X45305792Y-152609429D01*
X45275500Y-152722480D01*
X45275500Y-152744052D01*
X45238552Y-152781000D01*
X44531448Y-152781000D01*
X43410308Y-151659860D01*
X43301807Y-151768360D01*
X43301803Y-151768365D01*
X43217897Y-151910243D01*
X43217896Y-151910246D01*
X43171911Y-152068526D01*
X43171910Y-152068532D01*
X43169000Y-152105511D01*
X35337955Y-152105511D01*
X35337955Y-139428115D01*
X43268500Y-139428115D01*
X43268500Y-139428120D01*
X43268500Y-139428121D01*
X43268500Y-140733878D01*
X43279169Y-140822736D01*
X43334928Y-140964131D01*
X43426764Y-141085235D01*
X43547870Y-141177072D01*
X43547872Y-141177073D01*
X43696401Y-141235646D01*
X43751545Y-141278551D01*
X43774738Y-141344459D01*
X43758617Y-141412444D01*
X43708300Y-141460920D01*
X43696401Y-141466354D01*
X43547872Y-141524926D01*
X43547870Y-141524927D01*
X43426764Y-141616764D01*
X43334928Y-141737868D01*
X43279169Y-141879263D01*
X43277438Y-141893683D01*
X43268500Y-141968115D01*
X43268500Y-141968120D01*
X43268500Y-141968121D01*
X43268500Y-143273878D01*
X43279169Y-143362736D01*
X43334928Y-143504131D01*
X43426764Y-143625235D01*
X43547870Y-143717072D01*
X43547872Y-143717073D01*
X43696401Y-143775646D01*
X43751545Y-143818551D01*
X43774738Y-143884459D01*
X43758617Y-143952444D01*
X43708300Y-144000920D01*
X43696401Y-144006354D01*
X43547872Y-144064926D01*
X43547870Y-144064927D01*
X43426764Y-144156764D01*
X43334928Y-144277868D01*
X43279169Y-144419263D01*
X43275541Y-144449482D01*
X43268500Y-144508115D01*
X43268500Y-144508120D01*
X43268500Y-144508121D01*
X43268500Y-145813878D01*
X43279169Y-145902736D01*
X43334928Y-146044131D01*
X43426764Y-146165235D01*
X43547870Y-146257072D01*
X43547872Y-146257073D01*
X43696401Y-146315646D01*
X43751545Y-146358551D01*
X43774738Y-146424459D01*
X43758617Y-146492444D01*
X43708300Y-146540920D01*
X43696401Y-146546354D01*
X43547872Y-146604926D01*
X43547870Y-146604927D01*
X43426764Y-146696764D01*
X43334928Y-146817868D01*
X43279169Y-146959263D01*
X43273303Y-147008116D01*
X43268500Y-147048115D01*
X43268500Y-147048120D01*
X43268500Y-147048121D01*
X43268500Y-148353878D01*
X43279169Y-148442736D01*
X43334928Y-148584131D01*
X43426764Y-148705235D01*
X43547870Y-148797072D01*
X43547872Y-148797073D01*
X43696401Y-148855646D01*
X43751545Y-148898551D01*
X43774738Y-148964459D01*
X43758617Y-149032444D01*
X43708300Y-149080920D01*
X43696401Y-149086354D01*
X43547872Y-149144926D01*
X43547870Y-149144927D01*
X43426764Y-149236764D01*
X43334928Y-149357868D01*
X43279169Y-149499263D01*
X43273303Y-149548116D01*
X43268500Y-149588115D01*
X43268500Y-149588120D01*
X43268500Y-149588121D01*
X43268500Y-150893878D01*
X43279169Y-150982736D01*
X43334928Y-151124131D01*
X43426764Y-151245235D01*
X43547868Y-151337071D01*
X43547869Y-151337071D01*
X43547870Y-151337072D01*
X43689262Y-151392830D01*
X43778115Y-151403500D01*
X43838815Y-151403499D01*
X43905852Y-151423183D01*
X43951608Y-151475986D01*
X43954642Y-151497091D01*
X44885000Y-152427448D01*
X45811348Y-151501100D01*
X45840431Y-151443003D01*
X45900520Y-151407351D01*
X45931185Y-151403499D01*
X45991879Y-151403499D01*
X45991884Y-151403499D01*
X46080738Y-151392830D01*
X46222130Y-151337072D01*
X46343235Y-151245235D01*
X46366120Y-151215055D01*
X46392035Y-151189666D01*
X46477318Y-151127706D01*
X46606706Y-150998318D01*
X46606708Y-150998314D01*
X46606711Y-150998312D01*
X46653873Y-150933397D01*
X46714259Y-150850283D01*
X46797331Y-150687245D01*
X46853876Y-150513219D01*
X46866597Y-150432895D01*
X46882500Y-150332496D01*
X46882500Y-150149503D01*
X46853876Y-149968784D01*
X46853876Y-149968781D01*
X46797331Y-149794755D01*
X46714259Y-149631717D01*
X46682585Y-149588121D01*
X46606711Y-149483687D01*
X46477320Y-149354296D01*
X46477316Y-149354293D01*
X46392035Y-149292332D01*
X46366118Y-149266941D01*
X46343235Y-149236765D01*
X46343230Y-149236761D01*
X46222131Y-149144928D01*
X46166695Y-149123067D01*
X46080738Y-149089170D01*
X46080735Y-149089169D01*
X46073598Y-149086355D01*
X46018454Y-149043449D01*
X45995261Y-148977541D01*
X46011381Y-148909557D01*
X46061698Y-148861080D01*
X46073598Y-148855645D01*
X46080735Y-148852830D01*
X46080738Y-148852830D01*
X46222130Y-148797072D01*
X46343235Y-148705235D01*
X46366120Y-148675055D01*
X46392035Y-148649666D01*
X46477318Y-148587706D01*
X46606706Y-148458318D01*
X46606708Y-148458314D01*
X46606711Y-148458312D01*
X46653873Y-148393397D01*
X46714259Y-148310283D01*
X46797331Y-148147245D01*
X46853876Y-147973219D01*
X46866597Y-147892895D01*
X46882500Y-147792496D01*
X46882500Y-147609503D01*
X46853876Y-147428784D01*
X46853876Y-147428781D01*
X46797331Y-147254755D01*
X46714259Y-147091717D01*
X46682585Y-147048121D01*
X46606711Y-146943687D01*
X46477320Y-146814296D01*
X46477316Y-146814293D01*
X46392035Y-146752332D01*
X46366118Y-146726941D01*
X46343235Y-146696765D01*
X46343230Y-146696761D01*
X46222131Y-146604928D01*
X46166695Y-146583067D01*
X46080738Y-146549170D01*
X46080735Y-146549169D01*
X46073598Y-146546355D01*
X46018454Y-146503449D01*
X45995261Y-146437541D01*
X46011381Y-146369557D01*
X46061698Y-146321080D01*
X46073598Y-146315645D01*
X46080735Y-146312830D01*
X46080738Y-146312830D01*
X46222130Y-146257072D01*
X46343235Y-146165235D01*
X46366120Y-146135055D01*
X46392035Y-146109666D01*
X46477318Y-146047706D01*
X46606706Y-145918318D01*
X46606708Y-145918314D01*
X46606711Y-145918312D01*
X46653873Y-145853397D01*
X46714259Y-145770283D01*
X46797331Y-145607245D01*
X46853876Y-145433219D01*
X46866597Y-145352895D01*
X46882500Y-145252496D01*
X46882500Y-145069503D01*
X46853876Y-144888784D01*
X46853876Y-144888781D01*
X46797331Y-144714755D01*
X46714259Y-144551717D01*
X46707348Y-144542205D01*
X46606711Y-144403687D01*
X46477320Y-144274296D01*
X46477314Y-144274291D01*
X46392036Y-144212333D01*
X46366119Y-144186942D01*
X46343235Y-144156765D01*
X46343230Y-144156761D01*
X46222131Y-144064928D01*
X46166695Y-144043067D01*
X46080738Y-144009170D01*
X46080735Y-144009169D01*
X46073598Y-144006355D01*
X46018454Y-143963449D01*
X45995261Y-143897541D01*
X46011381Y-143829557D01*
X46061698Y-143781080D01*
X46073598Y-143775645D01*
X46080735Y-143772830D01*
X46080738Y-143772830D01*
X46222130Y-143717072D01*
X46343235Y-143625235D01*
X46366120Y-143595055D01*
X46392035Y-143569666D01*
X46477318Y-143507706D01*
X46606706Y-143378318D01*
X46606708Y-143378314D01*
X46606711Y-143378312D01*
X46653873Y-143313397D01*
X46714259Y-143230283D01*
X46797331Y-143067245D01*
X46853876Y-142893219D01*
X46866597Y-142812895D01*
X46882500Y-142712496D01*
X46882500Y-142529503D01*
X46853876Y-142348784D01*
X46853876Y-142348781D01*
X46797331Y-142174755D01*
X46714259Y-142011717D01*
X46682585Y-141968121D01*
X46606711Y-141863687D01*
X46477320Y-141734296D01*
X46477314Y-141734291D01*
X46392036Y-141672333D01*
X46366118Y-141646941D01*
X46343235Y-141616765D01*
X46343230Y-141616761D01*
X46222131Y-141524928D01*
X46166695Y-141503067D01*
X46080738Y-141469170D01*
X46080735Y-141469169D01*
X46073598Y-141466355D01*
X46018454Y-141423449D01*
X45995261Y-141357541D01*
X46011381Y-141289557D01*
X46061698Y-141241080D01*
X46073598Y-141235645D01*
X46080735Y-141232830D01*
X46080738Y-141232830D01*
X46222130Y-141177072D01*
X46343235Y-141085235D01*
X46366120Y-141055055D01*
X46392035Y-141029666D01*
X46477318Y-140967706D01*
X46606706Y-140838318D01*
X46606708Y-140838314D01*
X46606711Y-140838312D01*
X46653873Y-140773397D01*
X46714259Y-140690283D01*
X46797331Y-140527245D01*
X46853876Y-140353219D01*
X46866597Y-140272895D01*
X46882500Y-140172496D01*
X46882500Y-139989503D01*
X46853876Y-139808784D01*
X46853876Y-139808781D01*
X46797331Y-139634755D01*
X46714259Y-139471717D01*
X46682585Y-139428121D01*
X46606711Y-139323687D01*
X46477320Y-139194296D01*
X46477316Y-139194293D01*
X46392035Y-139132332D01*
X46366118Y-139106941D01*
X46343235Y-139076765D01*
X46343230Y-139076761D01*
X46222131Y-138984928D01*
X46080736Y-138929169D01*
X46035127Y-138923692D01*
X45991885Y-138918500D01*
X45811491Y-138918500D01*
X45628509Y-138918500D01*
X45628507Y-138918500D01*
X43778121Y-138918500D01*
X43689263Y-138929169D01*
X43547868Y-138984928D01*
X43426764Y-139076764D01*
X43334928Y-139197868D01*
X43279169Y-139339263D01*
X43273303Y-139388116D01*
X43268500Y-139428115D01*
X35337955Y-139428115D01*
X35337955Y-134439001D01*
X48341988Y-134439001D01*
X48349442Y-134495627D01*
X48349444Y-134495633D01*
X48409899Y-134641585D01*
X48506075Y-134766924D01*
X48631413Y-134863100D01*
X48777365Y-134923554D01*
X48777369Y-134923555D01*
X48894676Y-134938999D01*
X49583999Y-134938999D01*
X49984000Y-134938999D01*
X50673324Y-134938999D01*
X50790628Y-134923557D01*
X50790633Y-134923555D01*
X50936585Y-134863100D01*
X51061924Y-134766924D01*
X51158100Y-134641586D01*
X51218555Y-134495631D01*
X51226012Y-134439000D01*
X49984000Y-134439000D01*
X49984000Y-134938999D01*
X49583999Y-134938999D01*
X49584000Y-134938998D01*
X49584000Y-134439000D01*
X48341990Y-134439000D01*
X48341988Y-134439001D01*
X35337955Y-134439001D01*
X35337955Y-120834000D01*
X37903500Y-120834000D01*
X37903500Y-121934010D01*
X37904749Y-121965820D01*
X37904750Y-121965822D01*
X37934367Y-122089177D01*
X37934368Y-122089179D01*
X37934369Y-122089182D01*
X37937298Y-122096253D01*
X37966181Y-122152940D01*
X37966183Y-122152942D01*
X37966184Y-122152944D01*
X37966187Y-122152949D01*
X38048569Y-122249409D01*
X38048575Y-122249414D01*
X38154214Y-122314150D01*
X38156747Y-122315702D01*
X38161748Y-122317773D01*
X38163820Y-122318632D01*
X38178756Y-122324142D01*
X38193694Y-122329653D01*
X38319000Y-122349500D01*
X38319001Y-122349500D01*
X38519010Y-122349500D01*
X38550820Y-122348250D01*
X38674182Y-122318631D01*
X38681253Y-122315702D01*
X38737940Y-122286819D01*
X38737946Y-122286813D01*
X38737949Y-122286812D01*
X38834409Y-122204430D01*
X38834410Y-122204427D01*
X38834413Y-122204426D01*
X38834414Y-122204423D01*
X38840750Y-122197006D01*
X38842794Y-122198751D01*
X38883602Y-122161834D01*
X38937515Y-122149500D01*
X39019010Y-122149500D01*
X39050820Y-122148250D01*
X39174182Y-122118631D01*
X39181253Y-122115702D01*
X39237940Y-122086819D01*
X39237946Y-122086813D01*
X39237949Y-122086812D01*
X39334409Y-122004430D01*
X39334410Y-122004427D01*
X39334413Y-122004426D01*
X39400702Y-121896253D01*
X39403631Y-121889182D01*
X39414653Y-121859306D01*
X39434500Y-121734000D01*
X39434500Y-121034000D01*
X39433250Y-121002180D01*
X39403631Y-120878818D01*
X39400702Y-120871747D01*
X39371819Y-120815060D01*
X39371815Y-120815055D01*
X39371812Y-120815050D01*
X39289430Y-120718590D01*
X39289424Y-120718585D01*
X39181259Y-120652301D01*
X39181251Y-120652297D01*
X39174179Y-120649367D01*
X39144307Y-120638347D01*
X39144305Y-120638346D01*
X39038846Y-120621643D01*
X39019000Y-120618500D01*
X39018999Y-120618500D01*
X38931923Y-120618500D01*
X38864884Y-120598815D01*
X38837631Y-120575030D01*
X38789426Y-120518587D01*
X38789424Y-120518585D01*
X38681259Y-120452301D01*
X38681251Y-120452297D01*
X38674179Y-120449367D01*
X38644307Y-120438347D01*
X38644305Y-120438346D01*
X38538846Y-120421643D01*
X38519000Y-120418500D01*
X38319000Y-120418500D01*
X38318990Y-120418500D01*
X38287179Y-120419749D01*
X38287177Y-120419750D01*
X38163822Y-120449367D01*
X38157966Y-120451793D01*
X38156747Y-120452298D01*
X38100060Y-120481181D01*
X38100058Y-120481182D01*
X38100055Y-120481184D01*
X38100050Y-120481187D01*
X38003590Y-120563569D01*
X38003585Y-120563575D01*
X37937301Y-120671740D01*
X37937297Y-120671748D01*
X37934367Y-120678820D01*
X37923347Y-120708692D01*
X37923346Y-120708694D01*
X37903500Y-120834000D01*
X35337955Y-120834000D01*
X35337955Y-118434002D01*
X37804000Y-118434002D01*
X37806893Y-118487988D01*
X37842442Y-118627259D01*
X37845371Y-118634330D01*
X37897106Y-118729076D01*
X37995049Y-118834277D01*
X37995051Y-118834278D01*
X38118672Y-118907629D01*
X38125732Y-118910554D01*
X38176728Y-118928544D01*
X38319001Y-118948999D01*
X38319003Y-118949000D01*
X38419000Y-118949000D01*
X38419000Y-118758208D01*
X38919000Y-118758208D01*
X38930843Y-118763372D01*
X38955745Y-118750944D01*
X38977617Y-118749000D01*
X39019002Y-118749000D01*
X39072988Y-118746106D01*
X39212259Y-118710557D01*
X39219330Y-118707628D01*
X39314076Y-118655893D01*
X39419277Y-118557950D01*
X39419278Y-118557948D01*
X39492629Y-118434327D01*
X39495554Y-118427267D01*
X39513544Y-118376271D01*
X39533999Y-118233998D01*
X39534000Y-118233997D01*
X39534000Y-118134000D01*
X38919000Y-118134000D01*
X38919000Y-118758208D01*
X38419000Y-118758208D01*
X38419000Y-118134000D01*
X37804000Y-118134000D01*
X37804000Y-118434002D01*
X35337955Y-118434002D01*
X35337955Y-117334001D01*
X37804000Y-117334001D01*
X37804000Y-117634000D01*
X38419000Y-117634000D01*
X38419000Y-117032775D01*
X38919000Y-117032775D01*
X38919000Y-117634000D01*
X39534000Y-117634000D01*
X39534000Y-117533997D01*
X39531106Y-117480011D01*
X39495557Y-117340740D01*
X39492628Y-117333669D01*
X39440893Y-117238923D01*
X39342950Y-117133722D01*
X39342948Y-117133721D01*
X39219327Y-117060370D01*
X39212267Y-117057445D01*
X39161271Y-117039455D01*
X39018998Y-117019000D01*
X38988496Y-117019000D01*
X38919000Y-117032775D01*
X38419000Y-117032775D01*
X38419000Y-116819000D01*
X38318998Y-116819000D01*
X38265011Y-116821893D01*
X38125740Y-116857442D01*
X38118669Y-116860371D01*
X38023923Y-116912106D01*
X37918722Y-117010049D01*
X37918721Y-117010051D01*
X37845370Y-117133672D01*
X37842445Y-117140732D01*
X37824455Y-117191728D01*
X37804000Y-117334001D01*
X35337955Y-117334001D01*
X35337955Y-108414000D01*
X37846410Y-108414000D01*
X37846410Y-109514010D01*
X37847659Y-109545820D01*
X37847660Y-109545822D01*
X37877277Y-109669177D01*
X37877278Y-109669179D01*
X37877279Y-109669182D01*
X37880208Y-109676253D01*
X37909091Y-109732940D01*
X37909093Y-109732942D01*
X37909094Y-109732944D01*
X37909097Y-109732949D01*
X37991479Y-109829409D01*
X37991485Y-109829414D01*
X38099650Y-109895698D01*
X38099657Y-109895702D01*
X38104658Y-109897773D01*
X38106730Y-109898632D01*
X38119926Y-109903500D01*
X38136604Y-109909653D01*
X38261910Y-109929500D01*
X38261911Y-109929500D01*
X38461920Y-109929500D01*
X38493730Y-109928250D01*
X38617092Y-109898631D01*
X38624163Y-109895702D01*
X38680850Y-109866819D01*
X38680856Y-109866813D01*
X38680859Y-109866812D01*
X38777319Y-109784430D01*
X38777320Y-109784427D01*
X38777323Y-109784426D01*
X38777324Y-109784423D01*
X38783660Y-109777006D01*
X38785704Y-109778751D01*
X38826512Y-109741834D01*
X38880425Y-109729500D01*
X38961920Y-109729500D01*
X38993730Y-109728250D01*
X39117092Y-109698631D01*
X39124163Y-109695702D01*
X39180850Y-109666819D01*
X39180856Y-109666813D01*
X39180859Y-109666812D01*
X39277319Y-109584430D01*
X39277320Y-109584427D01*
X39277323Y-109584426D01*
X39343612Y-109476253D01*
X39346541Y-109469182D01*
X39357563Y-109439306D01*
X39377410Y-109314000D01*
X39377410Y-108614000D01*
X42296410Y-108614000D01*
X42296410Y-109314010D01*
X42297659Y-109345820D01*
X42297660Y-109345822D01*
X42327277Y-109469177D01*
X42327278Y-109469179D01*
X42327279Y-109469182D01*
X42330208Y-109476253D01*
X42359091Y-109532940D01*
X42359093Y-109532942D01*
X42359094Y-109532944D01*
X42359097Y-109532949D01*
X42441479Y-109629409D01*
X42441485Y-109629414D01*
X42549650Y-109695698D01*
X42549657Y-109695702D01*
X42554658Y-109697773D01*
X42556730Y-109698632D01*
X42569926Y-109703500D01*
X42586604Y-109709653D01*
X42711910Y-109729500D01*
X42798987Y-109729500D01*
X42866026Y-109749185D01*
X42893277Y-109772969D01*
X42925014Y-109810129D01*
X42941483Y-109829412D01*
X42941485Y-109829414D01*
X43049650Y-109895698D01*
X43049657Y-109895702D01*
X43054658Y-109897773D01*
X43056730Y-109898632D01*
X43069926Y-109903500D01*
X43086604Y-109909653D01*
X43211910Y-109929500D01*
X43211911Y-109929500D01*
X43411920Y-109929500D01*
X43443730Y-109928250D01*
X43567092Y-109898631D01*
X43574163Y-109895702D01*
X43630850Y-109866819D01*
X43630856Y-109866813D01*
X43630859Y-109866812D01*
X43727319Y-109784430D01*
X43727320Y-109784427D01*
X43727323Y-109784426D01*
X43793612Y-109676253D01*
X43796541Y-109669182D01*
X43807563Y-109639306D01*
X43827410Y-109514000D01*
X43827410Y-108414000D01*
X43826160Y-108382180D01*
X43796541Y-108258818D01*
X43793612Y-108251747D01*
X43764729Y-108195060D01*
X43764725Y-108195055D01*
X43764722Y-108195050D01*
X43682340Y-108098590D01*
X43682334Y-108098585D01*
X43574169Y-108032301D01*
X43574161Y-108032297D01*
X43567089Y-108029367D01*
X43537217Y-108018347D01*
X43537215Y-108018346D01*
X43431756Y-108001643D01*
X43411910Y-107998500D01*
X43211910Y-107998500D01*
X43211900Y-107998500D01*
X43180089Y-107999749D01*
X43180087Y-107999750D01*
X43056732Y-108029367D01*
X43050876Y-108031793D01*
X43049657Y-108032298D01*
X42992970Y-108061181D01*
X42992968Y-108061182D01*
X42992965Y-108061184D01*
X42992960Y-108061187D01*
X42896500Y-108143569D01*
X42890160Y-108150994D01*
X42888115Y-108149248D01*
X42847308Y-108186166D01*
X42793395Y-108198500D01*
X42711900Y-108198500D01*
X42680089Y-108199749D01*
X42680087Y-108199750D01*
X42556732Y-108229367D01*
X42550876Y-108231793D01*
X42549657Y-108232298D01*
X42492970Y-108261181D01*
X42492968Y-108261182D01*
X42492965Y-108261184D01*
X42492960Y-108261187D01*
X42396500Y-108343569D01*
X42396495Y-108343575D01*
X42330211Y-108451740D01*
X42330207Y-108451748D01*
X42327277Y-108458820D01*
X42316257Y-108488692D01*
X42316256Y-108488694D01*
X42296410Y-108614000D01*
X39377410Y-108614000D01*
X39376160Y-108582180D01*
X39346541Y-108458818D01*
X39343612Y-108451747D01*
X39314729Y-108395060D01*
X39314725Y-108395055D01*
X39314722Y-108395050D01*
X39232340Y-108298590D01*
X39232334Y-108298585D01*
X39124169Y-108232301D01*
X39124161Y-108232297D01*
X39117089Y-108229367D01*
X39087217Y-108218347D01*
X39087215Y-108218346D01*
X38977972Y-108201044D01*
X38961910Y-108198500D01*
X38961909Y-108198500D01*
X38874833Y-108198500D01*
X38807794Y-108178815D01*
X38780541Y-108155030D01*
X38778649Y-108152815D01*
X38732336Y-108098587D01*
X38732334Y-108098585D01*
X38624169Y-108032301D01*
X38624161Y-108032297D01*
X38617089Y-108029367D01*
X38587217Y-108018347D01*
X38587215Y-108018346D01*
X38481756Y-108001643D01*
X38461910Y-107998500D01*
X38261910Y-107998500D01*
X38261900Y-107998500D01*
X38230089Y-107999749D01*
X38230087Y-107999750D01*
X38106732Y-108029367D01*
X38100876Y-108031793D01*
X38099657Y-108032298D01*
X38042970Y-108061181D01*
X38042968Y-108061182D01*
X38042965Y-108061184D01*
X38042960Y-108061187D01*
X37946500Y-108143569D01*
X37946495Y-108143575D01*
X37880211Y-108251740D01*
X37880207Y-108251748D01*
X37877277Y-108258820D01*
X37866257Y-108288692D01*
X37866256Y-108288694D01*
X37846410Y-108414000D01*
X35337955Y-108414000D01*
X35337955Y-106014002D01*
X37746910Y-106014002D01*
X37749803Y-106067988D01*
X37785352Y-106207259D01*
X37788281Y-106214330D01*
X37840016Y-106309076D01*
X37937959Y-106414277D01*
X37937961Y-106414278D01*
X38061582Y-106487629D01*
X38068642Y-106490554D01*
X38119638Y-106508544D01*
X38261911Y-106528999D01*
X38261913Y-106529000D01*
X38361910Y-106529000D01*
X38361910Y-106338208D01*
X38861910Y-106338208D01*
X38873753Y-106343372D01*
X38898655Y-106330944D01*
X38920527Y-106329000D01*
X38961912Y-106329000D01*
X39015898Y-106326106D01*
X39155169Y-106290557D01*
X39162240Y-106287628D01*
X39256986Y-106235893D01*
X39362187Y-106137950D01*
X39362188Y-106137948D01*
X39435539Y-106014327D01*
X39438464Y-106007267D01*
X39456454Y-105956271D01*
X39476909Y-105813998D01*
X39476910Y-105813997D01*
X39476910Y-105714000D01*
X38861910Y-105714000D01*
X38861910Y-106338208D01*
X38361910Y-106338208D01*
X38361910Y-105714000D01*
X37746910Y-105714000D01*
X37746910Y-106014002D01*
X35337955Y-106014002D01*
X35337955Y-104914001D01*
X37746910Y-104914001D01*
X37746910Y-105214000D01*
X38361910Y-105214000D01*
X38361910Y-104612775D01*
X38861910Y-104612775D01*
X38861910Y-105214000D01*
X39476910Y-105214000D01*
X39476910Y-105113997D01*
X39474016Y-105060011D01*
X39438467Y-104920740D01*
X39435538Y-104913669D01*
X39383803Y-104818923D01*
X39285860Y-104713722D01*
X39285858Y-104713721D01*
X39162237Y-104640370D01*
X39155177Y-104637445D01*
X39104181Y-104619455D01*
X38961908Y-104599000D01*
X38931406Y-104599000D01*
X38861910Y-104612775D01*
X38361910Y-104612775D01*
X38361910Y-104399000D01*
X38261908Y-104399000D01*
X38207921Y-104401893D01*
X38068650Y-104437442D01*
X38061579Y-104440371D01*
X37966833Y-104492106D01*
X37861632Y-104590049D01*
X37861631Y-104590051D01*
X37788280Y-104713672D01*
X37785355Y-104720732D01*
X37767365Y-104771728D01*
X37746910Y-104914001D01*
X35337955Y-104914001D01*
X35337955Y-95942000D01*
X37903500Y-95942000D01*
X37903500Y-97042010D01*
X37904749Y-97073820D01*
X37904750Y-97073822D01*
X37934367Y-97197177D01*
X37934368Y-97197179D01*
X37934369Y-97197182D01*
X37937298Y-97204253D01*
X37966181Y-97260940D01*
X37966183Y-97260942D01*
X37966184Y-97260944D01*
X37966187Y-97260949D01*
X38048569Y-97357409D01*
X38048575Y-97357414D01*
X38156740Y-97423698D01*
X38156747Y-97423702D01*
X38161748Y-97425773D01*
X38163820Y-97426632D01*
X38178756Y-97432142D01*
X38193694Y-97437653D01*
X38319000Y-97457500D01*
X38319001Y-97457500D01*
X38519010Y-97457500D01*
X38550820Y-97456250D01*
X38674182Y-97426631D01*
X38681253Y-97423702D01*
X38737940Y-97394819D01*
X38737946Y-97394813D01*
X38737949Y-97394812D01*
X38834409Y-97312430D01*
X38834410Y-97312427D01*
X38834413Y-97312426D01*
X38834414Y-97312423D01*
X38840750Y-97305006D01*
X38842794Y-97306751D01*
X38883602Y-97269834D01*
X38937515Y-97257500D01*
X39019010Y-97257500D01*
X39050820Y-97256250D01*
X39174182Y-97226631D01*
X39181253Y-97223702D01*
X39237940Y-97194819D01*
X39237946Y-97194813D01*
X39237949Y-97194812D01*
X39334409Y-97112430D01*
X39334410Y-97112427D01*
X39334413Y-97112426D01*
X39400702Y-97004253D01*
X39403631Y-96997182D01*
X39414653Y-96967306D01*
X39434500Y-96842000D01*
X39434500Y-96142000D01*
X42353500Y-96142000D01*
X42353500Y-96842010D01*
X42354749Y-96873820D01*
X42354750Y-96873822D01*
X42384367Y-96997177D01*
X42384368Y-96997179D01*
X42384369Y-96997182D01*
X42387298Y-97004253D01*
X42416181Y-97060940D01*
X42416183Y-97060942D01*
X42416184Y-97060944D01*
X42416187Y-97060949D01*
X42498569Y-97157409D01*
X42498575Y-97157414D01*
X42575009Y-97204253D01*
X42606747Y-97223702D01*
X42611748Y-97225773D01*
X42613820Y-97226632D01*
X42628756Y-97232142D01*
X42643694Y-97237653D01*
X42769000Y-97257500D01*
X42856077Y-97257500D01*
X42923116Y-97277185D01*
X42950369Y-97300970D01*
X42998573Y-97357412D01*
X42998575Y-97357414D01*
X43106740Y-97423698D01*
X43106747Y-97423702D01*
X43111748Y-97425773D01*
X43113820Y-97426632D01*
X43128756Y-97432142D01*
X43143694Y-97437653D01*
X43269000Y-97457500D01*
X43269001Y-97457500D01*
X43469010Y-97457500D01*
X43500820Y-97456250D01*
X43624182Y-97426631D01*
X43631253Y-97423702D01*
X43687940Y-97394819D01*
X43687946Y-97394813D01*
X43687949Y-97394812D01*
X43784409Y-97312430D01*
X43784410Y-97312427D01*
X43784413Y-97312426D01*
X43850702Y-97204253D01*
X43853631Y-97197182D01*
X43864653Y-97167306D01*
X43884500Y-97042000D01*
X43884500Y-95942000D01*
X43883250Y-95910180D01*
X43853631Y-95786818D01*
X43850702Y-95779747D01*
X43821819Y-95723060D01*
X43821815Y-95723055D01*
X43821812Y-95723050D01*
X43739430Y-95626590D01*
X43739424Y-95626585D01*
X43631259Y-95560301D01*
X43631251Y-95560297D01*
X43624179Y-95557367D01*
X43594307Y-95546347D01*
X43594305Y-95546346D01*
X43488846Y-95529643D01*
X43469000Y-95526500D01*
X43269000Y-95526500D01*
X43268990Y-95526500D01*
X43237179Y-95527749D01*
X43237177Y-95527750D01*
X43113822Y-95557367D01*
X43107966Y-95559793D01*
X43106747Y-95560298D01*
X43050060Y-95589181D01*
X43050058Y-95589182D01*
X43050055Y-95589184D01*
X43050050Y-95589187D01*
X42953590Y-95671569D01*
X42947250Y-95678994D01*
X42945205Y-95677248D01*
X42904398Y-95714166D01*
X42850485Y-95726500D01*
X42768990Y-95726500D01*
X42737179Y-95727749D01*
X42737177Y-95727750D01*
X42613822Y-95757367D01*
X42607966Y-95759793D01*
X42606747Y-95760298D01*
X42550060Y-95789181D01*
X42550058Y-95789182D01*
X42550055Y-95789184D01*
X42550050Y-95789187D01*
X42453590Y-95871569D01*
X42453585Y-95871575D01*
X42387301Y-95979740D01*
X42387297Y-95979748D01*
X42384367Y-95986820D01*
X42373347Y-96016692D01*
X42373346Y-96016694D01*
X42353500Y-96142000D01*
X39434500Y-96142000D01*
X39433250Y-96110180D01*
X39403631Y-95986818D01*
X39400702Y-95979747D01*
X39371819Y-95923060D01*
X39371815Y-95923055D01*
X39371812Y-95923050D01*
X39289430Y-95826590D01*
X39289424Y-95826585D01*
X39181259Y-95760301D01*
X39181251Y-95760297D01*
X39174179Y-95757367D01*
X39144307Y-95746347D01*
X39144305Y-95746346D01*
X39038846Y-95729643D01*
X39019000Y-95726500D01*
X39018999Y-95726500D01*
X38931923Y-95726500D01*
X38864884Y-95706815D01*
X38837631Y-95683030D01*
X38812847Y-95654011D01*
X38789426Y-95626587D01*
X38789424Y-95626585D01*
X38681259Y-95560301D01*
X38681251Y-95560297D01*
X38674179Y-95557367D01*
X38644307Y-95546347D01*
X38644305Y-95546346D01*
X38538846Y-95529643D01*
X38519000Y-95526500D01*
X38319000Y-95526500D01*
X38318990Y-95526500D01*
X38287179Y-95527749D01*
X38287177Y-95527750D01*
X38163822Y-95557367D01*
X38157966Y-95559793D01*
X38156747Y-95560298D01*
X38100060Y-95589181D01*
X38100058Y-95589182D01*
X38100055Y-95589184D01*
X38100050Y-95589187D01*
X38003590Y-95671569D01*
X38003585Y-95671575D01*
X37937301Y-95779740D01*
X37937297Y-95779748D01*
X37934367Y-95786820D01*
X37923347Y-95816692D01*
X37923346Y-95816694D01*
X37903500Y-95942000D01*
X35337955Y-95942000D01*
X35337955Y-93542002D01*
X37804000Y-93542002D01*
X37806893Y-93595988D01*
X37842442Y-93735259D01*
X37845371Y-93742330D01*
X37897106Y-93837076D01*
X37995049Y-93942277D01*
X37995051Y-93942278D01*
X38118672Y-94015629D01*
X38125732Y-94018554D01*
X38176728Y-94036544D01*
X38319001Y-94056999D01*
X38319003Y-94057000D01*
X38419000Y-94057000D01*
X38419000Y-93866208D01*
X38919000Y-93866208D01*
X38930843Y-93871372D01*
X38955745Y-93858944D01*
X38977617Y-93857000D01*
X39019002Y-93857000D01*
X39072988Y-93854106D01*
X39212259Y-93818557D01*
X39219330Y-93815628D01*
X39314076Y-93763893D01*
X39419277Y-93665950D01*
X39419278Y-93665948D01*
X39492629Y-93542327D01*
X39495554Y-93535267D01*
X39513544Y-93484271D01*
X39533999Y-93341998D01*
X39534000Y-93341997D01*
X39534000Y-93242000D01*
X38919000Y-93242000D01*
X38919000Y-93866208D01*
X38419000Y-93866208D01*
X38419000Y-93242000D01*
X37804000Y-93242000D01*
X37804000Y-93542002D01*
X35337955Y-93542002D01*
X35337955Y-92442001D01*
X37804000Y-92442001D01*
X37804000Y-92742000D01*
X38419000Y-92742000D01*
X38419000Y-92140775D01*
X38919000Y-92140775D01*
X38919000Y-92742000D01*
X39534000Y-92742000D01*
X39534000Y-92641997D01*
X39531106Y-92588011D01*
X39495557Y-92448740D01*
X39492628Y-92441669D01*
X39440893Y-92346923D01*
X39342950Y-92241722D01*
X39342948Y-92241721D01*
X39219327Y-92168370D01*
X39212267Y-92165445D01*
X39161271Y-92147455D01*
X39018998Y-92127000D01*
X38988496Y-92127000D01*
X38919000Y-92140775D01*
X38419000Y-92140775D01*
X38419000Y-91927000D01*
X38318998Y-91927000D01*
X38265011Y-91929893D01*
X38125740Y-91965442D01*
X38118669Y-91968371D01*
X38023923Y-92020106D01*
X37918722Y-92118049D01*
X37918721Y-92118051D01*
X37845370Y-92241672D01*
X37842445Y-92248732D01*
X37824455Y-92299728D01*
X37804000Y-92442001D01*
X35337955Y-92442001D01*
X35337955Y-71753099D01*
X35357640Y-71686060D01*
X35410444Y-71640305D01*
X35479602Y-71630361D01*
X35543158Y-71659386D01*
X35579886Y-71714781D01*
X35621790Y-71843749D01*
X35657557Y-71953826D01*
X35775502Y-72185305D01*
X35928205Y-72395483D01*
X36111907Y-72579185D01*
X36322085Y-72731888D01*
X36469581Y-72807041D01*
X36553559Y-72849831D01*
X36553561Y-72849831D01*
X36553564Y-72849833D01*
X36800643Y-72930114D01*
X36932842Y-72951051D01*
X37057234Y-72970754D01*
X37057239Y-72970754D01*
X37317038Y-72970754D01*
X37430434Y-72952793D01*
X37573629Y-72930114D01*
X37820708Y-72849833D01*
X38052187Y-72731888D01*
X38262365Y-72579185D01*
X38446067Y-72395483D01*
X38598770Y-72185305D01*
X38716715Y-71953826D01*
X38796996Y-71706747D01*
X38819675Y-71563552D01*
X38837636Y-71450156D01*
X38837636Y-71190351D01*
X38809166Y-71010600D01*
X38796996Y-70933761D01*
X38716715Y-70686682D01*
X38716713Y-70686679D01*
X38716713Y-70686677D01*
X38673923Y-70602699D01*
X38598770Y-70455203D01*
X38446067Y-70245025D01*
X38262365Y-70061323D01*
X38052187Y-69908620D01*
X37979900Y-69871788D01*
X37820712Y-69790676D01*
X37573629Y-69710394D01*
X37317038Y-69669754D01*
X37317033Y-69669754D01*
X37057239Y-69669754D01*
X37057234Y-69669754D01*
X36800642Y-69710394D01*
X36553559Y-69790676D01*
X36322081Y-69908622D01*
X36111910Y-70061320D01*
X36111904Y-70061325D01*
X35928207Y-70245022D01*
X35928202Y-70245028D01*
X35775504Y-70455199D01*
X35657558Y-70686677D01*
X35579886Y-70925727D01*
X35540448Y-70983402D01*
X35476089Y-71010600D01*
X35407243Y-70998685D01*
X35355767Y-70951441D01*
X35337955Y-70887408D01*
X35337955Y-40456002D01*
X37804000Y-40456002D01*
X37806893Y-40509988D01*
X37842442Y-40649259D01*
X37845371Y-40656330D01*
X37897106Y-40751076D01*
X37995049Y-40856277D01*
X37995051Y-40856278D01*
X38118672Y-40929629D01*
X38125732Y-40932554D01*
X38176728Y-40950544D01*
X38319001Y-40970999D01*
X38319003Y-40971000D01*
X38419000Y-40971000D01*
X38419000Y-40780208D01*
X38919000Y-40780208D01*
X38930843Y-40785372D01*
X38955745Y-40772944D01*
X38977617Y-40771000D01*
X39019002Y-40771000D01*
X39072988Y-40768106D01*
X39212259Y-40732557D01*
X39219330Y-40729628D01*
X39314076Y-40677893D01*
X39419277Y-40579950D01*
X39419278Y-40579948D01*
X39492629Y-40456327D01*
X39495554Y-40449267D01*
X39513544Y-40398271D01*
X39533999Y-40255998D01*
X39534000Y-40255997D01*
X39534000Y-40156000D01*
X38919000Y-40156000D01*
X38919000Y-40780208D01*
X38419000Y-40780208D01*
X38419000Y-40156000D01*
X37804000Y-40156000D01*
X37804000Y-40456002D01*
X35337955Y-40456002D01*
X35337955Y-39356001D01*
X37804000Y-39356001D01*
X37804000Y-39656000D01*
X38419000Y-39656000D01*
X38419000Y-39054775D01*
X38919000Y-39054775D01*
X38919000Y-39656000D01*
X39534000Y-39656000D01*
X39534000Y-39555997D01*
X39531106Y-39502011D01*
X39495557Y-39362740D01*
X39492628Y-39355669D01*
X39440893Y-39260923D01*
X39342950Y-39155722D01*
X39342948Y-39155721D01*
X39219327Y-39082370D01*
X39212267Y-39079445D01*
X39161271Y-39061455D01*
X39018998Y-39041000D01*
X38988496Y-39041000D01*
X38919000Y-39054775D01*
X38419000Y-39054775D01*
X38419000Y-38841000D01*
X38318998Y-38841000D01*
X38265011Y-38843893D01*
X38125740Y-38879442D01*
X38118669Y-38882371D01*
X38023923Y-38934106D01*
X37918722Y-39032049D01*
X37918721Y-39032051D01*
X37845370Y-39155672D01*
X37842445Y-39162732D01*
X37824455Y-39213728D01*
X37804000Y-39356001D01*
X35337955Y-39356001D01*
X35337955Y-36614223D01*
X52324455Y-36614223D01*
X52324455Y-36813776D01*
X52363382Y-37009473D01*
X52363384Y-37009481D01*
X52439744Y-37193832D01*
X52439749Y-37193841D01*
X52550606Y-37359749D01*
X52550609Y-37359753D01*
X52691701Y-37500845D01*
X52691705Y-37500848D01*
X52857613Y-37611705D01*
X52857619Y-37611708D01*
X52857620Y-37611709D01*
X53041974Y-37688071D01*
X53237678Y-37726999D01*
X53237681Y-37727000D01*
X53237683Y-37727000D01*
X53437229Y-37727000D01*
X53437230Y-37726999D01*
X53632936Y-37688071D01*
X53817290Y-37611709D01*
X53983205Y-37500848D01*
X54124303Y-37359750D01*
X54235164Y-37193835D01*
X54311526Y-37009481D01*
X54350455Y-36813772D01*
X54350455Y-36614228D01*
X54350455Y-36614225D01*
X54350454Y-36614223D01*
X54311527Y-36418526D01*
X54311526Y-36418519D01*
X54235164Y-36234165D01*
X54235163Y-36234164D01*
X54235160Y-36234158D01*
X54124303Y-36068250D01*
X54124300Y-36068246D01*
X53983208Y-35927154D01*
X53983204Y-35927151D01*
X53817296Y-35816294D01*
X53817287Y-35816289D01*
X53632936Y-35739929D01*
X53632928Y-35739927D01*
X53437230Y-35701000D01*
X53437227Y-35701000D01*
X53237683Y-35701000D01*
X53237680Y-35701000D01*
X53041981Y-35739927D01*
X53041973Y-35739929D01*
X52857622Y-35816289D01*
X52857613Y-35816294D01*
X52691705Y-35927151D01*
X52691701Y-35927154D01*
X52550609Y-36068246D01*
X52550606Y-36068250D01*
X52439749Y-36234158D01*
X52439744Y-36234167D01*
X52363384Y-36418518D01*
X52363382Y-36418526D01*
X52324455Y-36614223D01*
X35337955Y-36614223D01*
X35337955Y-28838500D01*
X35357640Y-28771461D01*
X35410444Y-28725706D01*
X35461955Y-28714500D01*
X40212955Y-28714500D01*
X40279994Y-28734185D01*
G37*
%TD.AperFunction*%
%TD*%
M02*
