%TF.GenerationSoftware,KiCad,Pcbnew,10.0.2*%
%TF.CreationDate,2026-05-11T23:16:53-07:00*%
%TF.ProjectId,c6remote,63367265-6d6f-4746-952e-6b696361645f,rev?*%
%TF.SameCoordinates,Original*%
%TF.FileFunction,Copper,L2,Bot*%
%TF.FilePolarity,Positive*%
%FSLAX46Y46*%
G04 Gerber Fmt 4.6, Leading zero omitted, Abs format (unit mm)*
G04 Created by KiCad (PCBNEW 10.0.2) date 2026-05-11 23:16:53*
%MOMM*%
%LPD*%
G01*
G04 APERTURE LIST*
G04 Aperture macros list*
%AMRoundRect*
0 Rectangle with rounded corners*
0 $1 Rounding radius*
0 $2 $3 $4 $5 $6 $7 $8 $9 X,Y pos of 4 corners*
0 Add a 4 corners polygon primitive as box body*
4,1,4,$2,$3,$4,$5,$6,$7,$8,$9,$2,$3,0*
0 Add four circle primitives for the rounded corners*
1,1,$1+$1,$2,$3*
1,1,$1+$1,$4,$5*
1,1,$1+$1,$6,$7*
1,1,$1+$1,$8,$9*
0 Add four rect primitives between the rounded corners*
20,1,$1+$1,$2,$3,$4,$5,0*
20,1,$1+$1,$4,$5,$6,$7,0*
20,1,$1+$1,$6,$7,$8,$9,0*
20,1,$1+$1,$8,$9,$2,$3,0*%
%AMFreePoly0*
4,1,64,0.031751,0.146088,0.079639,0.146088,0.235856,0.115014,0.383010,0.054061,0.515445,-0.034429,0.628071,-0.147055,0.716561,-0.279490,0.777514,-0.426644,0.808588,-0.582861,0.808588,-0.742139,0.777514,-0.898356,0.716561,-1.045510,0.628071,-1.177945,0.515445,-1.290571,0.383010,-1.379061,0.235856,-1.440014,0.079639,-1.471088,-0.079639,-1.471088,-0.235856,-1.440014,-0.383010,-1.379061,
-0.515445,-1.290571,-0.628071,-1.177945,-0.716561,-1.045510,-0.777514,-0.898356,-0.808588,-0.742139,-0.808588,-0.595028,-0.512500,-0.595028,-0.512500,-0.729972,-0.477574,-0.860317,-0.410102,-0.977182,-0.314682,-1.072602,-0.197817,-1.140074,-0.067472,-1.175000,0.067472,-1.175000,0.197817,-1.140074,0.314682,-1.072602,0.410102,-0.977182,0.477574,-0.860317,0.512500,-0.729972,0.512500,-0.595028,
0.477574,-0.464683,0.410102,-0.347818,0.314682,-0.252398,0.197817,-0.184926,0.067472,-0.150000,-0.067472,-0.150000,-0.197817,-0.184926,-0.314682,-0.252398,-0.410102,-0.347818,-0.477574,-0.464683,-0.512500,-0.595028,-0.808588,-0.595028,-0.808588,-0.582861,-0.777514,-0.426644,-0.716561,-0.279490,-0.628071,-0.147055,-0.515445,-0.034429,-0.383010,0.054061,-0.235856,0.115014,-0.079639,0.146088,
-0.031751,0.146088,-0.029264,0.147118,0.029264,0.147118,0.031751,0.146088,0.031751,0.146088,$1*%
G04 Aperture macros list end*
%TA.AperFunction,ComponentPad*%
%ADD10C,1.524000*%
%TD*%
%TA.AperFunction,ComponentPad*%
%ADD11R,1.800000X1.800000*%
%TD*%
%TA.AperFunction,ComponentPad*%
%ADD12C,1.800000*%
%TD*%
%TA.AperFunction,ComponentPad*%
%ADD13RoundRect,0.248400X0.651600X0.651600X-0.651600X0.651600X-0.651600X-0.651600X0.651600X-0.651600X0*%
%TD*%
%TA.AperFunction,ComponentPad*%
%ADD14RoundRect,0.250000X1.000000X-1.000000X1.000000X1.000000X-1.000000X1.000000X-1.000000X-1.000000X0*%
%TD*%
%TA.AperFunction,ComponentPad*%
%ADD15C,2.500000*%
%TD*%
%TA.AperFunction,ComponentPad*%
%ADD16C,2.750000*%
%TD*%
%TA.AperFunction,SMDPad,CuDef*%
%ADD17R,0.600000X0.522000*%
%TD*%
%TA.AperFunction,SMDPad,CuDef*%
%ADD18FreePoly0,90.000000*%
%TD*%
%TA.AperFunction,ViaPad*%
%ADD19C,0.600000*%
%TD*%
%TA.AperFunction,Conductor*%
%ADD20C,0.200000*%
%TD*%
G04 APERTURE END LIST*
D10*
%TO.P,U1,1,GPIO0/A0/D0*%
%TO.N,sd*%
X60960000Y-155321000D03*
%TO.P,U1,2,GPIO1/A1/D1*%
%TO.N,IR EMIT*%
X60960000Y-152781000D03*
%TO.P,U1,3,GPIO2/A2/D2*%
%TO.N,sck*%
X60960000Y-150241000D03*
%TO.P,U1,4,GPIO21/D3*%
%TO.N,ws*%
X60960000Y-147701000D03*
%TO.P,U1,5,GPIO22/D4/SDA*%
%TO.N,sda*%
X60960000Y-145161000D03*
%TO.P,U1,6,GPIO23/D5/SCL*%
%TO.N,scl*%
X60960000Y-142621000D03*
%TO.P,U1,7,GPIO16/D6/TX*%
%TO.N,IR REC*%
X60960000Y-140081000D03*
%TO.P,U1,8,GPIO17/D7/RX*%
%TO.N,led_1*%
X45720000Y-140081000D03*
%TO.P,U1,9,GPIO19/D8/SCK*%
%TO.N,ano_enc2*%
X45720000Y-142621000D03*
%TO.P,U1,10,GPIO20/D9/MISO*%
%TO.N,ano_enc1*%
X45720000Y-145161000D03*
%TO.P,U1,11,GPIO18/D10/MOSI*%
%TO.N,unconnected-(U1-GPIO18{slash}D10{slash}MOSI-Pad11)*%
X45720000Y-147701000D03*
%TO.P,U1,12,3V3*%
%TO.N,+3.3V*%
X45720000Y-150241000D03*
%TO.P,U1,13,GND*%
%TO.N,GND*%
X45720000Y-152781000D03*
%TO.P,U1,14,VBUS*%
%TO.N,VCC*%
X45720000Y-155321000D03*
%TD*%
D11*
%TO.P,D1,1,K*%
%TO.N,Net-(D1-K)*%
X64037455Y-33258000D03*
D12*
%TO.P,D1,2,A*%
%TO.N,+3.3V*%
X61497455Y-33258000D03*
%TD*%
D13*
%TO.P,U2,1,OUT*%
%TO.N,IR REC*%
X46482000Y-33020000D03*
D12*
%TO.P,U2,2,GND*%
%TO.N,GND*%
X43942000Y-33020000D03*
%TO.P,U2,3,Vs*%
%TO.N,+3.3V*%
X41402000Y-33020000D03*
%TD*%
D14*
%TO.P,U4,1,COM2*%
%TO.N,GND*%
X50084764Y-83793690D03*
D15*
%TO.P,U4,2,ano_sw4*%
%TO.N,ano_sw4*%
X61087345Y-82817923D03*
D16*
%TO.P,U4,3,ano_enc1*%
%TO.N,ano_enc2*%
X59885264Y-74261954D03*
D15*
%TO.P,U4,4,ano_sw3*%
%TO.N,ano_sw3*%
X52227297Y-68824158D03*
%TO.P,U4,5,ano_sw1*%
%TO.N,ano_sw5*%
X37187136Y-71320254D03*
%TO.P,U4,6,ano_sw2*%
%TO.N,ano_sw2*%
X46789646Y-61166136D03*
D16*
%TO.P,U4,7,ano_enc2*%
%TO.N,ano_enc1*%
X59885264Y-61166020D03*
D14*
%TO.P,U4,8,COM1*%
%TO.N,GND*%
X45587565Y-52610131D03*
D15*
%TO.P,U4,9,ano_sw5*%
%TO.N,ano_sw1*%
X69487774Y-64107590D03*
%TD*%
D17*
%TO.P,M1,1,SCK*%
%TO.N,sck*%
X54237455Y-34640000D03*
%TO.P,M1,2,WS*%
%TO.N,ws*%
X54237455Y-35462000D03*
D18*
%TO.P,M1,3,L/R*%
%TO.N,GND*%
X52674955Y-36714000D03*
D17*
%TO.P,M1,4,SD*%
%TO.N,sd*%
X52437455Y-35462000D03*
%TO.P,M1,5,VDD*%
%TO.N,+3.3V*%
X52437455Y-34640000D03*
%TO.P,M1,6,GND*%
%TO.N,GND*%
X53337455Y-34640000D03*
%TD*%
D19*
%TO.N,+3.3V*%
X55372000Y-125476000D03*
X59690000Y-33274000D03*
%TO.N,GND*%
X53340000Y-33528000D03*
%TO.N,IR EMIT*%
X67564000Y-37846000D03*
%TO.N,ano_sw5*%
X47879000Y-74676000D03*
%TO.N,sd*%
X65782494Y-141989506D03*
%TD*%
%TO.N,GND*%
D20*
X53337455Y-33530545D02*
X53340000Y-33528000D01*
X53337455Y-34640000D02*
X53337455Y-33530545D01*
X52674955Y-36714000D02*
X53337455Y-34640000D01*
%TO.N,IR EMIT*%
X67564000Y-37846000D02*
X67310000Y-38100000D01*
X67310000Y-147828000D02*
X62357000Y-152781000D01*
X67310000Y-38100000D02*
X67310000Y-147828000D01*
X62357000Y-152781000D02*
X60960000Y-152781000D01*
%TO.N,sck*%
X62357000Y-150241000D02*
X66802000Y-145796000D01*
X66802000Y-145796000D02*
X66802000Y-42418000D01*
X59024000Y-34640000D02*
X54237455Y-34640000D01*
X66802000Y-42418000D02*
X59024000Y-34640000D01*
X60960000Y-150241000D02*
X62357000Y-150241000D01*
%TO.N,ws*%
X62357000Y-147701000D02*
X60960000Y-147701000D01*
X66294000Y-143764000D02*
X62357000Y-147701000D01*
X54237455Y-35462000D02*
X59084000Y-35462000D01*
X59084000Y-35462000D02*
X66294000Y-42672000D01*
X66294000Y-42672000D02*
X66294000Y-143764000D01*
%TO.N,ano_enc2*%
X59885264Y-74261954D02*
X56388000Y-77759218D01*
X50165000Y-142621000D02*
X45720000Y-142621000D01*
X56388000Y-136398000D02*
X50165000Y-142621000D01*
X56388000Y-77759218D02*
X56388000Y-136398000D01*
%TO.N,ano_enc1*%
X58166000Y-80772000D02*
X58166000Y-137414000D01*
X59885264Y-67378264D02*
X63246000Y-70739000D01*
X59885264Y-61166020D02*
X59885264Y-67378264D01*
X50419000Y-145161000D02*
X45720000Y-145161000D01*
X63246000Y-75692000D02*
X58166000Y-80772000D01*
X63246000Y-70739000D02*
X63246000Y-75692000D01*
X58166000Y-137414000D02*
X50419000Y-145161000D01*
%TO.N,ano_sw5*%
X47879000Y-74676000D02*
X46101000Y-72898000D01*
X38764882Y-72898000D02*
X37187136Y-71320254D01*
X46101000Y-72898000D02*
X38764882Y-72898000D01*
%TO.N,IR REC*%
X46482000Y-33020000D02*
X46482000Y-44196000D01*
X46482000Y-44196000D02*
X65278000Y-44196000D01*
X65278000Y-44196000D02*
X65278000Y-140081000D01*
X65278000Y-140081000D02*
X60960000Y-140081000D01*
%TO.N,sd*%
X52437455Y-35462000D02*
X50800000Y-37099455D01*
X65782494Y-141989506D02*
X62738000Y-145034000D01*
X50800000Y-38354000D02*
X52324000Y-39878000D01*
X52324000Y-39878000D02*
X65782494Y-53336494D01*
X65782494Y-53336494D02*
X65782494Y-141989506D01*
X50800000Y-37099455D02*
X50800000Y-38354000D01*
%TD*%
%TA.AperFunction,Conductor*%
%TO.N,+3.3V*%
G36*
X40279994Y-28734185D02*
G01*
X40325749Y-28786989D01*
X40336955Y-28838500D01*
X40336955Y-30779891D01*
X40371063Y-30907187D01*
X40404009Y-30964250D01*
X40436955Y-31021314D01*
X40530141Y-31114500D01*
X40644269Y-31180392D01*
X40771563Y-31214500D01*
X40771565Y-31214500D01*
X47003345Y-31214500D01*
X47003347Y-31214500D01*
X47130641Y-31180392D01*
X47244769Y-31114500D01*
X47337955Y-31021314D01*
X47403847Y-30907186D01*
X47437955Y-30779892D01*
X47437955Y-28838500D01*
X47457640Y-28771461D01*
X47510444Y-28725706D01*
X47561955Y-28714500D01*
X59112955Y-28714500D01*
X59179994Y-28734185D01*
X59225749Y-28786989D01*
X59236955Y-28838500D01*
X59236955Y-30779891D01*
X59271063Y-30907187D01*
X59304009Y-30964250D01*
X59336955Y-31021314D01*
X59430141Y-31114500D01*
X59544269Y-31180392D01*
X59671563Y-31214500D01*
X59671565Y-31214500D01*
X65903345Y-31214500D01*
X65903347Y-31214500D01*
X66030641Y-31180392D01*
X66144769Y-31114500D01*
X66237955Y-31021314D01*
X66303847Y-30907186D01*
X66337955Y-30779892D01*
X66337955Y-28838500D01*
X66357640Y-28771461D01*
X66410444Y-28725706D01*
X66461955Y-28714500D01*
X71212955Y-28714500D01*
X71279994Y-28734185D01*
X71325749Y-28786989D01*
X71336955Y-28838500D01*
X71336955Y-63674744D01*
X71317270Y-63741783D01*
X71264466Y-63787538D01*
X71195308Y-63797482D01*
X71131752Y-63768457D01*
X71095024Y-63713063D01*
X71017351Y-63474013D01*
X70965002Y-63371274D01*
X70899408Y-63242539D01*
X70746705Y-63032361D01*
X70563003Y-62848659D01*
X70462991Y-62775996D01*
X70352828Y-62695958D01*
X70352827Y-62695957D01*
X70352825Y-62695956D01*
X70280538Y-62659124D01*
X70121350Y-62578012D01*
X69874267Y-62497730D01*
X69617676Y-62457090D01*
X69617671Y-62457090D01*
X69357877Y-62457090D01*
X69357872Y-62457090D01*
X69101280Y-62497730D01*
X68854197Y-62578012D01*
X68622719Y-62695958D01*
X68412548Y-62848656D01*
X68412542Y-62848661D01*
X68228845Y-63032358D01*
X68228840Y-63032364D01*
X68076140Y-63242537D01*
X68044984Y-63303684D01*
X67997010Y-63354479D01*
X67929188Y-63371274D01*
X67863054Y-63348736D01*
X67819603Y-63294021D01*
X67810500Y-63247388D01*
X67810500Y-38584965D01*
X67830185Y-38517926D01*
X67882989Y-38472171D01*
X67886998Y-38470424D01*
X67895811Y-38466775D01*
X68010542Y-38390114D01*
X68108114Y-38292542D01*
X68184775Y-38177811D01*
X68237580Y-38050328D01*
X68262667Y-37924208D01*
X68264500Y-37914995D01*
X68264500Y-37777004D01*
X68237581Y-37641677D01*
X68237580Y-37641676D01*
X68237580Y-37641672D01*
X68233506Y-37631837D01*
X68184778Y-37514195D01*
X68184771Y-37514182D01*
X68108114Y-37399458D01*
X68108111Y-37399454D01*
X68010545Y-37301888D01*
X68010541Y-37301885D01*
X67895817Y-37225228D01*
X67895804Y-37225221D01*
X67768332Y-37172421D01*
X67768322Y-37172418D01*
X67632995Y-37145500D01*
X67632993Y-37145500D01*
X67495007Y-37145500D01*
X67495005Y-37145500D01*
X67359677Y-37172418D01*
X67359667Y-37172421D01*
X67232195Y-37225221D01*
X67232182Y-37225228D01*
X67117458Y-37301885D01*
X67117454Y-37301888D01*
X67019888Y-37399454D01*
X67019885Y-37399458D01*
X66943228Y-37514182D01*
X66943221Y-37514195D01*
X66890421Y-37641667D01*
X66890418Y-37641677D01*
X66863500Y-37777004D01*
X66863500Y-37839134D01*
X66846888Y-37901132D01*
X66843610Y-37906809D01*
X66843608Y-37906814D01*
X66809500Y-38034108D01*
X66809500Y-41418324D01*
X66789815Y-41485363D01*
X66737011Y-41531118D01*
X66667853Y-41541062D01*
X66604297Y-41512037D01*
X66597819Y-41506005D01*
X59331316Y-34239502D01*
X59331314Y-34239500D01*
X59274250Y-34206554D01*
X59217187Y-34173608D01*
X59143880Y-34153966D01*
X59089892Y-34139500D01*
X59089891Y-34139500D01*
X54915709Y-34139500D01*
X54848670Y-34119815D01*
X54828027Y-34103180D01*
X54775801Y-34050954D01*
X54775797Y-34050950D01*
X54698972Y-34011805D01*
X54662756Y-33993352D01*
X54568979Y-33978500D01*
X54097191Y-33978500D01*
X54030152Y-33958815D01*
X53984397Y-33906011D01*
X53974453Y-33836853D01*
X53982630Y-33807047D01*
X54013580Y-33732328D01*
X54040500Y-33596993D01*
X54040500Y-33459007D01*
X54040500Y-33459004D01*
X54013581Y-33323677D01*
X54013580Y-33323676D01*
X54013580Y-33323672D01*
X54013578Y-33323667D01*
X53960775Y-33196188D01*
X53928455Y-33147818D01*
X60097455Y-33147818D01*
X60097455Y-33368181D01*
X60131928Y-33585835D01*
X60200022Y-33795410D01*
X60300066Y-33991756D01*
X60346387Y-34055513D01*
X61055316Y-33346584D01*
X61078122Y-33431694D01*
X61137365Y-33534306D01*
X61221149Y-33618090D01*
X61323761Y-33677333D01*
X61408869Y-33700137D01*
X60699940Y-34409065D01*
X60699940Y-34409066D01*
X60763698Y-34455388D01*
X60960044Y-34555432D01*
X61169619Y-34623526D01*
X61387274Y-34658000D01*
X61607636Y-34658000D01*
X61825290Y-34623526D01*
X62034865Y-34555432D01*
X62231215Y-34455386D01*
X62294968Y-34409066D01*
X62294969Y-34409066D01*
X61586040Y-33700138D01*
X61671149Y-33677333D01*
X61773761Y-33618090D01*
X61857545Y-33534306D01*
X61916788Y-33431694D01*
X61939592Y-33346585D01*
X62665076Y-34072069D01*
X62671596Y-34073439D01*
X62721356Y-34122487D01*
X62736955Y-34182685D01*
X62736955Y-34189514D01*
X62736956Y-34189518D01*
X62751809Y-34283304D01*
X62809405Y-34396342D01*
X62809407Y-34396344D01*
X62809409Y-34396347D01*
X62899107Y-34486045D01*
X62899109Y-34486046D01*
X62899113Y-34486050D01*
X63012149Y-34543645D01*
X63012153Y-34543647D01*
X63105930Y-34558499D01*
X63105936Y-34558500D01*
X64968973Y-34558499D01*
X65062759Y-34543646D01*
X65175797Y-34486050D01*
X65265505Y-34396342D01*
X65323101Y-34283304D01*
X65323101Y-34283302D01*
X65323102Y-34283301D01*
X65337954Y-34189524D01*
X65337955Y-34189519D01*
X65337954Y-32326482D01*
X65323101Y-32232696D01*
X65265505Y-32119658D01*
X65265501Y-32119654D01*
X65265500Y-32119652D01*
X65175802Y-32029954D01*
X65175799Y-32029952D01*
X65175797Y-32029950D01*
X65098972Y-31990805D01*
X65062756Y-31972352D01*
X64968979Y-31957500D01*
X63105937Y-31957500D01*
X63024974Y-31970323D01*
X63012151Y-31972354D01*
X62899113Y-32029950D01*
X62899112Y-32029951D01*
X62899107Y-32029954D01*
X62809409Y-32119652D01*
X62809406Y-32119657D01*
X62751807Y-32232698D01*
X62736955Y-32326475D01*
X62736955Y-32333302D01*
X62717270Y-32400341D01*
X62664466Y-32446096D01*
X62662575Y-32446430D01*
X61939592Y-33169414D01*
X61916788Y-33084306D01*
X61857545Y-32981694D01*
X61773761Y-32897910D01*
X61671149Y-32838667D01*
X61586038Y-32815861D01*
X62294968Y-32106932D01*
X62231211Y-32060611D01*
X62034865Y-31960567D01*
X61825290Y-31892473D01*
X61607636Y-31858000D01*
X61387274Y-31858000D01*
X61169619Y-31892473D01*
X60960044Y-31960567D01*
X60763688Y-32060616D01*
X60699940Y-32106931D01*
X60699940Y-32106932D01*
X61408869Y-32815861D01*
X61323761Y-32838667D01*
X61221149Y-32897910D01*
X61137365Y-32981694D01*
X61078122Y-33084306D01*
X61055316Y-33169414D01*
X60346387Y-32460485D01*
X60346386Y-32460485D01*
X60300071Y-32524233D01*
X60200022Y-32720589D01*
X60131928Y-32930164D01*
X60097455Y-33147818D01*
X53928455Y-33147818D01*
X53884114Y-33081458D01*
X53884111Y-33081454D01*
X53786545Y-32983888D01*
X53786541Y-32983885D01*
X53671817Y-32907228D01*
X53671804Y-32907221D01*
X53544332Y-32854421D01*
X53544322Y-32854418D01*
X53408995Y-32827500D01*
X53408993Y-32827500D01*
X53271007Y-32827500D01*
X53271005Y-32827500D01*
X53135677Y-32854418D01*
X53135667Y-32854421D01*
X53008195Y-32907221D01*
X53008182Y-32907228D01*
X52893458Y-32983885D01*
X52893454Y-32983888D01*
X52795888Y-33081454D01*
X52795885Y-33081458D01*
X52719228Y-33196182D01*
X52719221Y-33196195D01*
X52666421Y-33323667D01*
X52666418Y-33323677D01*
X52639500Y-33459004D01*
X52639500Y-33459007D01*
X52639500Y-33596993D01*
X52639500Y-33596995D01*
X52639499Y-33596995D01*
X52666418Y-33732322D01*
X52666421Y-33732332D01*
X52683833Y-33774368D01*
X52691302Y-33843837D01*
X52687455Y-33851522D01*
X52687455Y-34153966D01*
X52673940Y-34210260D01*
X52651808Y-34253695D01*
X52651807Y-34253698D01*
X52636955Y-34347475D01*
X52636955Y-34516000D01*
X52617270Y-34583039D01*
X52564466Y-34628794D01*
X52512955Y-34640000D01*
X52437455Y-34640000D01*
X52437455Y-34676500D01*
X52417770Y-34743539D01*
X52364966Y-34789294D01*
X52313456Y-34800500D01*
X52105937Y-34800500D01*
X52024974Y-34813323D01*
X52012151Y-34815354D01*
X51899113Y-34872950D01*
X51899112Y-34872950D01*
X51892176Y-34876485D01*
X51835881Y-34890000D01*
X51637455Y-34890000D01*
X51637455Y-34948844D01*
X51643856Y-35008372D01*
X51643857Y-35008376D01*
X51694103Y-35143091D01*
X51712222Y-35167294D01*
X51736639Y-35232758D01*
X51736955Y-35241605D01*
X51736955Y-35754517D01*
X51747747Y-35822657D01*
X51751809Y-35848304D01*
X51809405Y-35961342D01*
X51809407Y-35961344D01*
X51809409Y-35961347D01*
X51899107Y-36051045D01*
X51899109Y-36051046D01*
X51899113Y-36051050D01*
X52012151Y-36108646D01*
X52012153Y-36108647D01*
X52098625Y-36122343D01*
X52161760Y-36152272D01*
X52198691Y-36211584D01*
X52197693Y-36281446D01*
X52193789Y-36292267D01*
X52181546Y-36321824D01*
X52158468Y-36397903D01*
X52158465Y-36397914D01*
X52127250Y-36554849D01*
X52127247Y-36554866D01*
X52119455Y-36633980D01*
X52119455Y-36794019D01*
X52127247Y-36873133D01*
X52127250Y-36873150D01*
X52158465Y-37030085D01*
X52158468Y-37030096D01*
X52181546Y-37106176D01*
X52242791Y-37254034D01*
X52242794Y-37254041D01*
X52280264Y-37324144D01*
X52369178Y-37457213D01*
X52369188Y-37457227D01*
X52419617Y-37518675D01*
X52532779Y-37631837D01*
X52532784Y-37631841D01*
X52532785Y-37631842D01*
X52594233Y-37682271D01*
X52727308Y-37771189D01*
X52727310Y-37771190D01*
X52727309Y-37771190D01*
X52762361Y-37789925D01*
X52797414Y-37808661D01*
X52945280Y-37869909D01*
X53021349Y-37892984D01*
X53021355Y-37892985D01*
X53021358Y-37892986D01*
X53021369Y-37892989D01*
X53131995Y-37914993D01*
X53178322Y-37924208D01*
X53257431Y-37932000D01*
X53257436Y-37932000D01*
X53417474Y-37932000D01*
X53417479Y-37932000D01*
X53496588Y-37924208D01*
X53563947Y-37910809D01*
X53653540Y-37892989D01*
X53653551Y-37892986D01*
X53653551Y-37892985D01*
X53653561Y-37892984D01*
X53729630Y-37869909D01*
X53877496Y-37808661D01*
X53947602Y-37771189D01*
X54080677Y-37682271D01*
X54142125Y-37631842D01*
X54255297Y-37518670D01*
X54305726Y-37457222D01*
X54394644Y-37324147D01*
X54432116Y-37254041D01*
X54493364Y-37106175D01*
X54516439Y-37030106D01*
X54516441Y-37030096D01*
X54516444Y-37030085D01*
X54534264Y-36940492D01*
X54547663Y-36873133D01*
X54555455Y-36794024D01*
X54555455Y-36633976D01*
X54547663Y-36554867D01*
X54538572Y-36509165D01*
X54516444Y-36397914D01*
X54516441Y-36397903D01*
X54516440Y-36397900D01*
X54516439Y-36397894D01*
X54493364Y-36321825D01*
X54481120Y-36292267D01*
X54473651Y-36222799D01*
X54504925Y-36160319D01*
X54565013Y-36124666D01*
X54576268Y-36122343D01*
X54662759Y-36108646D01*
X54775797Y-36051050D01*
X54828027Y-35998820D01*
X54889350Y-35965334D01*
X54915709Y-35962500D01*
X58825324Y-35962500D01*
X58892363Y-35982185D01*
X58913005Y-35998819D01*
X65757181Y-42842995D01*
X65790666Y-42904318D01*
X65793500Y-42930676D01*
X65793500Y-56889004D01*
X65787261Y-56910249D01*
X65785682Y-56932337D01*
X65777609Y-56943120D01*
X65773815Y-56956043D01*
X65757083Y-56970541D01*
X65743811Y-56988271D01*
X65731188Y-56992978D01*
X65721011Y-57001798D01*
X65699095Y-57004949D01*
X65678347Y-57012688D01*
X65665185Y-57009824D01*
X65651853Y-57011742D01*
X65631708Y-57002542D01*
X65610074Y-56997836D01*
X65592348Y-56984567D01*
X65588297Y-56982717D01*
X65581819Y-56976686D01*
X65535755Y-56930622D01*
X65488809Y-56883675D01*
X65488806Y-56883673D01*
X64174850Y-55569717D01*
X64174841Y-55569706D01*
X64074597Y-55469464D01*
X64074596Y-55469463D01*
X64074594Y-55469461D01*
X64071659Y-55467766D01*
X63960467Y-55403567D01*
X63833173Y-55369461D01*
X63833172Y-55369461D01*
X63701387Y-55369461D01*
X63574092Y-55403569D01*
X63459966Y-55469461D01*
X63459963Y-55469463D01*
X62929636Y-55999792D01*
X62306122Y-56623305D01*
X62306120Y-56623308D01*
X62240228Y-56737434D01*
X62206120Y-56864730D01*
X62206120Y-56996514D01*
X62210200Y-57011742D01*
X62240228Y-57123809D01*
X62273174Y-57180872D01*
X62306120Y-57237936D01*
X62306121Y-57237937D01*
X62306122Y-57237938D01*
X63715992Y-58647807D01*
X63716002Y-58647818D01*
X63720332Y-58652148D01*
X63720333Y-58652149D01*
X63813519Y-58745335D01*
X63927647Y-58811227D01*
X64054940Y-58845335D01*
X64054941Y-58845335D01*
X64054942Y-58845335D01*
X64186723Y-58845335D01*
X64186725Y-58845335D01*
X64314019Y-58811227D01*
X64428147Y-58745335D01*
X65051663Y-58121819D01*
X65110222Y-58063260D01*
X65110233Y-58063247D01*
X65488806Y-57684676D01*
X65488809Y-57684675D01*
X65581822Y-57591661D01*
X65643144Y-57558179D01*
X65681598Y-57560930D01*
X65712834Y-57563164D01*
X65760074Y-57598528D01*
X65768768Y-57605037D01*
X65779918Y-57634933D01*
X65793184Y-57670500D01*
X65793500Y-57679346D01*
X65793500Y-77748653D01*
X65773815Y-77815692D01*
X65721011Y-77861447D01*
X65651853Y-77871391D01*
X65588297Y-77842366D01*
X65581819Y-77836334D01*
X65484490Y-77739005D01*
X65484467Y-77738984D01*
X64958477Y-77212995D01*
X64428149Y-76682667D01*
X64428147Y-76682665D01*
X64371083Y-76649719D01*
X64314020Y-76616773D01*
X64250372Y-76599719D01*
X64186725Y-76582665D01*
X64054940Y-76582665D01*
X63927645Y-76616773D01*
X63813519Y-76682665D01*
X63813516Y-76682667D01*
X63720331Y-76775853D01*
X62381865Y-78114318D01*
X62381864Y-78114318D01*
X62381865Y-78114319D01*
X62306120Y-78190064D01*
X62240228Y-78304190D01*
X62206120Y-78431486D01*
X62206120Y-78563269D01*
X62240228Y-78690565D01*
X62273174Y-78747628D01*
X62306120Y-78804692D01*
X62836450Y-79335022D01*
X63459966Y-79958539D01*
X63558801Y-80015602D01*
X63574090Y-80024429D01*
X63574094Y-80024431D01*
X63701387Y-80058539D01*
X63701388Y-80058539D01*
X63701389Y-80058539D01*
X63833169Y-80058539D01*
X63833172Y-80058539D01*
X63926360Y-80033570D01*
X63960467Y-80024432D01*
X64001166Y-80000932D01*
X64074594Y-79958539D01*
X64167780Y-79865354D01*
X64167780Y-79865353D01*
X64177982Y-79855152D01*
X64177989Y-79855142D01*
X65488806Y-78544326D01*
X65488809Y-78544325D01*
X65581820Y-78451312D01*
X65609657Y-78436113D01*
X65643141Y-78417829D01*
X65643143Y-78417829D01*
X65653878Y-78418596D01*
X65712832Y-78422813D01*
X65712833Y-78422813D01*
X65712835Y-78422814D01*
X65750904Y-78451313D01*
X65768766Y-78464684D01*
X65768768Y-78464686D01*
X65784076Y-78505732D01*
X65793184Y-78530148D01*
X65793500Y-78538995D01*
X65793500Y-143505324D01*
X65773815Y-143572363D01*
X65757181Y-143593005D01*
X62186005Y-147164181D01*
X62124682Y-147197666D01*
X62098324Y-147200500D01*
X62085674Y-147200500D01*
X62018635Y-147180815D01*
X61975189Y-147132795D01*
X61954256Y-147091712D01*
X61846711Y-146943687D01*
X61717312Y-146814288D01*
X61569286Y-146706743D01*
X61569285Y-146706742D01*
X61569283Y-146706741D01*
X61406245Y-146623669D01*
X61232219Y-146567124D01*
X61232217Y-146567123D01*
X61232215Y-146567123D01*
X61146031Y-146553473D01*
X61082896Y-146523544D01*
X61045965Y-146464232D01*
X61046963Y-146394370D01*
X61085573Y-146336137D01*
X61146031Y-146308527D01*
X61179478Y-146303229D01*
X61232219Y-146294876D01*
X61406245Y-146238331D01*
X61569283Y-146155259D01*
X61652397Y-146094873D01*
X61717312Y-146047711D01*
X61717314Y-146047708D01*
X61717318Y-146047706D01*
X61846706Y-145918318D01*
X61846708Y-145918314D01*
X61846711Y-145918312D01*
X61893873Y-145853397D01*
X61954259Y-145770283D01*
X62037331Y-145607245D01*
X62093876Y-145433219D01*
X62106597Y-145352895D01*
X62122500Y-145252496D01*
X62122500Y-145069503D01*
X62093876Y-144888784D01*
X62093876Y-144888781D01*
X62037331Y-144714755D01*
X61954259Y-144551717D01*
X61947348Y-144542205D01*
X61846711Y-144403687D01*
X61717312Y-144274288D01*
X61569286Y-144166743D01*
X61569285Y-144166742D01*
X61569283Y-144166741D01*
X61406245Y-144083669D01*
X61232219Y-144027124D01*
X61232217Y-144027123D01*
X61232215Y-144027123D01*
X61146031Y-144013473D01*
X61082896Y-143983544D01*
X61045965Y-143924232D01*
X61046963Y-143854370D01*
X61085573Y-143796137D01*
X61146031Y-143768527D01*
X61179478Y-143763229D01*
X61232219Y-143754876D01*
X61406245Y-143698331D01*
X61569283Y-143615259D01*
X61652397Y-143554873D01*
X61717312Y-143507711D01*
X61717314Y-143507708D01*
X61717318Y-143507706D01*
X61846706Y-143378318D01*
X61846708Y-143378314D01*
X61846711Y-143378312D01*
X61893873Y-143313397D01*
X61954259Y-143230283D01*
X62037331Y-143067245D01*
X62093876Y-142893219D01*
X62106597Y-142812895D01*
X62122500Y-142712496D01*
X62122500Y-142529503D01*
X62093876Y-142348784D01*
X62093876Y-142348781D01*
X62037331Y-142174755D01*
X61954259Y-142011717D01*
X61947348Y-142002205D01*
X61846711Y-141863687D01*
X61717312Y-141734288D01*
X61569286Y-141626743D01*
X61569285Y-141626742D01*
X61569283Y-141626741D01*
X61406245Y-141543669D01*
X61232219Y-141487124D01*
X61232217Y-141487123D01*
X61232215Y-141487123D01*
X61146031Y-141473473D01*
X61082896Y-141443544D01*
X61045965Y-141384232D01*
X61046963Y-141314370D01*
X61085573Y-141256137D01*
X61146031Y-141228527D01*
X61179478Y-141223229D01*
X61232219Y-141214876D01*
X61406245Y-141158331D01*
X61569283Y-141075259D01*
X61652397Y-141014873D01*
X61717312Y-140967711D01*
X61717314Y-140967708D01*
X61717318Y-140967706D01*
X61846706Y-140838318D01*
X61846708Y-140838314D01*
X61846711Y-140838312D01*
X61893873Y-140773397D01*
X61954259Y-140690283D01*
X62037331Y-140527245D01*
X62093876Y-140353219D01*
X62106597Y-140272895D01*
X62122500Y-140172496D01*
X62122500Y-139989503D01*
X62093876Y-139808784D01*
X62093876Y-139808781D01*
X62037331Y-139634755D01*
X61954259Y-139471717D01*
X61947348Y-139462205D01*
X61846711Y-139323687D01*
X61717312Y-139194288D01*
X61569286Y-139086743D01*
X61569285Y-139086742D01*
X61569283Y-139086741D01*
X61406245Y-139003669D01*
X61232219Y-138947124D01*
X61232217Y-138947123D01*
X61232215Y-138947123D01*
X61051496Y-138918500D01*
X61051491Y-138918500D01*
X60868509Y-138918500D01*
X60868504Y-138918500D01*
X60687784Y-138947123D01*
X60513752Y-139003670D01*
X60350713Y-139086743D01*
X60202687Y-139194288D01*
X60073288Y-139323687D01*
X59965743Y-139471713D01*
X59882670Y-139634752D01*
X59826123Y-139808784D01*
X59797500Y-139989503D01*
X59797500Y-140172496D01*
X59826123Y-140353215D01*
X59882670Y-140527247D01*
X59965743Y-140690286D01*
X60073288Y-140838312D01*
X60202687Y-140967711D01*
X60341205Y-141068348D01*
X60350717Y-141075259D01*
X60513755Y-141158331D01*
X60687781Y-141214876D01*
X60727336Y-141221140D01*
X60773968Y-141228527D01*
X60837103Y-141258456D01*
X60874034Y-141317768D01*
X60873036Y-141387630D01*
X60834426Y-141445863D01*
X60773968Y-141473473D01*
X60687784Y-141487123D01*
X60513752Y-141543670D01*
X60350713Y-141626743D01*
X60202687Y-141734288D01*
X60073288Y-141863687D01*
X59965743Y-142011713D01*
X59882670Y-142174752D01*
X59826123Y-142348784D01*
X59797500Y-142529503D01*
X59797500Y-142712496D01*
X59826123Y-142893215D01*
X59826124Y-142893219D01*
X59867805Y-143021500D01*
X59882670Y-143067247D01*
X59965743Y-143230286D01*
X60073288Y-143378312D01*
X60202687Y-143507711D01*
X60291675Y-143572363D01*
X60350717Y-143615259D01*
X60513755Y-143698331D01*
X60687781Y-143754876D01*
X60727336Y-143761140D01*
X60773968Y-143768527D01*
X60837103Y-143798456D01*
X60874034Y-143857768D01*
X60873036Y-143927630D01*
X60834426Y-143985863D01*
X60773968Y-144013473D01*
X60687784Y-144027123D01*
X60513752Y-144083670D01*
X60350713Y-144166743D01*
X60202687Y-144274288D01*
X60073288Y-144403687D01*
X59965743Y-144551713D01*
X59882670Y-144714752D01*
X59826123Y-144888784D01*
X59797500Y-145069503D01*
X59797500Y-145252496D01*
X59826123Y-145433215D01*
X59826124Y-145433219D01*
X59867805Y-145561500D01*
X59882670Y-145607247D01*
X59965743Y-145770286D01*
X60073288Y-145918312D01*
X60202687Y-146047711D01*
X60341205Y-146148348D01*
X60350717Y-146155259D01*
X60513755Y-146238331D01*
X60687781Y-146294876D01*
X60727336Y-146301140D01*
X60773968Y-146308527D01*
X60837103Y-146338456D01*
X60874034Y-146397768D01*
X60873036Y-146467630D01*
X60834426Y-146525863D01*
X60773968Y-146553473D01*
X60687784Y-146567123D01*
X60513752Y-146623670D01*
X60350713Y-146706743D01*
X60202687Y-146814288D01*
X60073288Y-146943687D01*
X59965743Y-147091713D01*
X59882670Y-147254752D01*
X59826123Y-147428784D01*
X59797500Y-147609503D01*
X59797500Y-147792496D01*
X59813560Y-147893892D01*
X59826124Y-147973219D01*
X59878792Y-148135314D01*
X59882670Y-148147247D01*
X59965743Y-148310286D01*
X60073288Y-148458312D01*
X60202687Y-148587711D01*
X60341205Y-148688348D01*
X60350717Y-148695259D01*
X60513755Y-148778331D01*
X60687781Y-148834876D01*
X60727336Y-148841140D01*
X60773968Y-148848527D01*
X60837103Y-148878456D01*
X60874034Y-148937768D01*
X60873036Y-149007630D01*
X60834426Y-149065863D01*
X60773968Y-149093473D01*
X60687784Y-149107123D01*
X60687781Y-149107124D01*
X60519997Y-149161641D01*
X60513752Y-149163670D01*
X60350713Y-149246743D01*
X60202687Y-149354288D01*
X60073288Y-149483687D01*
X59965743Y-149631713D01*
X59882670Y-149794752D01*
X59826123Y-149968784D01*
X59797500Y-150149503D01*
X59797500Y-150332496D01*
X59810183Y-150412571D01*
X59826124Y-150513219D01*
X59872259Y-150655208D01*
X59882670Y-150687247D01*
X59965743Y-150850286D01*
X60073288Y-150998312D01*
X60202687Y-151127711D01*
X60341205Y-151228348D01*
X60350717Y-151235259D01*
X60513755Y-151318331D01*
X60687781Y-151374876D01*
X60727336Y-151381140D01*
X60773968Y-151388527D01*
X60837103Y-151418456D01*
X60874034Y-151477768D01*
X60873036Y-151547630D01*
X60834426Y-151605863D01*
X60773968Y-151633473D01*
X60687784Y-151647123D01*
X60513752Y-151703670D01*
X60350713Y-151786743D01*
X60202687Y-151894288D01*
X60073288Y-152023687D01*
X59965743Y-152171713D01*
X59882670Y-152334752D01*
X59826123Y-152508784D01*
X59797500Y-152689503D01*
X59797500Y-152872496D01*
X59826123Y-153053215D01*
X59826124Y-153053219D01*
X59867805Y-153181500D01*
X59882670Y-153227247D01*
X59965743Y-153390286D01*
X60073288Y-153538312D01*
X60202687Y-153667711D01*
X60341205Y-153768348D01*
X60350717Y-153775259D01*
X60513755Y-153858331D01*
X60687781Y-153914876D01*
X60727336Y-153921140D01*
X60773968Y-153928527D01*
X60837103Y-153958456D01*
X60874034Y-154017768D01*
X60873036Y-154087630D01*
X60834426Y-154145863D01*
X60773968Y-154173473D01*
X60687784Y-154187123D01*
X60513752Y-154243670D01*
X60350713Y-154326743D01*
X60202687Y-154434288D01*
X60073288Y-154563687D01*
X59965743Y-154711713D01*
X59882670Y-154874752D01*
X59826123Y-155048784D01*
X59797500Y-155229503D01*
X59797500Y-155412496D01*
X59826123Y-155593215D01*
X59882670Y-155767247D01*
X59965743Y-155930286D01*
X60073288Y-156078312D01*
X60202687Y-156207711D01*
X60341205Y-156308348D01*
X60350717Y-156315259D01*
X60513755Y-156398331D01*
X60687781Y-156454876D01*
X60755554Y-156465610D01*
X60868504Y-156483500D01*
X60868509Y-156483500D01*
X61051496Y-156483500D01*
X61151895Y-156467597D01*
X61232219Y-156454876D01*
X61406245Y-156398331D01*
X61569283Y-156315259D01*
X61652397Y-156254873D01*
X61717312Y-156207711D01*
X61717314Y-156207708D01*
X61717318Y-156207706D01*
X61846706Y-156078318D01*
X61846708Y-156078314D01*
X61846711Y-156078312D01*
X61893873Y-156013397D01*
X61954259Y-155930283D01*
X62037331Y-155767245D01*
X62093876Y-155593219D01*
X62106597Y-155512895D01*
X62122500Y-155412496D01*
X62122500Y-155229503D01*
X62093876Y-155048784D01*
X62093876Y-155048781D01*
X62037331Y-154874755D01*
X61954259Y-154711717D01*
X61947348Y-154702205D01*
X61846711Y-154563687D01*
X61717312Y-154434288D01*
X61569286Y-154326743D01*
X61569285Y-154326742D01*
X61569283Y-154326741D01*
X61406245Y-154243669D01*
X61232219Y-154187124D01*
X61232217Y-154187123D01*
X61232215Y-154187123D01*
X61146031Y-154173473D01*
X61082896Y-154143544D01*
X61045965Y-154084232D01*
X61046963Y-154014370D01*
X61085573Y-153956137D01*
X61146031Y-153928527D01*
X61179478Y-153923229D01*
X61232219Y-153914876D01*
X61406245Y-153858331D01*
X61569283Y-153775259D01*
X61652397Y-153714873D01*
X61717312Y-153667711D01*
X61717314Y-153667708D01*
X61717318Y-153667706D01*
X61846706Y-153538318D01*
X61846708Y-153538314D01*
X61846711Y-153538312D01*
X61954256Y-153390287D01*
X61954257Y-153390286D01*
X61954259Y-153390283D01*
X61975189Y-153349204D01*
X62023163Y-153298409D01*
X62085674Y-153281500D01*
X62422890Y-153281500D01*
X62422892Y-153281500D01*
X62550186Y-153247392D01*
X62664314Y-153181500D01*
X67710500Y-148135314D01*
X67776392Y-148021186D01*
X67810500Y-147893892D01*
X67810500Y-147762107D01*
X67810500Y-64967791D01*
X67830185Y-64900752D01*
X67882989Y-64854997D01*
X67952147Y-64845053D01*
X68015703Y-64874078D01*
X68044984Y-64911495D01*
X68076140Y-64972641D01*
X68228843Y-65182819D01*
X68412545Y-65366521D01*
X68622723Y-65519224D01*
X68770219Y-65594377D01*
X68854197Y-65637167D01*
X68854199Y-65637167D01*
X68854202Y-65637169D01*
X69101281Y-65717450D01*
X69233480Y-65738387D01*
X69357872Y-65758090D01*
X69357877Y-65758090D01*
X69617676Y-65758090D01*
X69731072Y-65740129D01*
X69874267Y-65717450D01*
X70121346Y-65637169D01*
X70352825Y-65519224D01*
X70563003Y-65366521D01*
X70746705Y-65182819D01*
X70899408Y-64972641D01*
X71017353Y-64741162D01*
X71095024Y-64502117D01*
X71134462Y-64444441D01*
X71198820Y-64417243D01*
X71267667Y-64429158D01*
X71319142Y-64476402D01*
X71336955Y-64540435D01*
X71336955Y-157589500D01*
X71317270Y-157656539D01*
X71264466Y-157702294D01*
X71212955Y-157713500D01*
X35461955Y-157713500D01*
X35394916Y-157693815D01*
X35349161Y-157641011D01*
X35337955Y-157589500D01*
X35337955Y-150141678D01*
X44458000Y-150141678D01*
X44458000Y-150340321D01*
X44489075Y-150536520D01*
X44489075Y-150536523D01*
X44550457Y-150725437D01*
X44640641Y-150902432D01*
X44667730Y-150939715D01*
X44667731Y-150939716D01*
X45282352Y-150325094D01*
X45305792Y-150412571D01*
X45364311Y-150513930D01*
X45447070Y-150596689D01*
X45548429Y-150655208D01*
X45635905Y-150678647D01*
X45021283Y-151293268D01*
X45021283Y-151293269D01*
X45058567Y-151320358D01*
X45235562Y-151410542D01*
X45342780Y-151445379D01*
X45400455Y-151484816D01*
X45427654Y-151549174D01*
X45415740Y-151618021D01*
X45368496Y-151669497D01*
X45342781Y-151681241D01*
X45273750Y-151703670D01*
X45110713Y-151786743D01*
X44962687Y-151894288D01*
X44833288Y-152023687D01*
X44725743Y-152171713D01*
X44642670Y-152334752D01*
X44586123Y-152508784D01*
X44557500Y-152689503D01*
X44557500Y-152872496D01*
X44586123Y-153053215D01*
X44586124Y-153053219D01*
X44627805Y-153181500D01*
X44642670Y-153227247D01*
X44725743Y-153390286D01*
X44833288Y-153538312D01*
X44962687Y-153667711D01*
X45101205Y-153768348D01*
X45110717Y-153775259D01*
X45273755Y-153858331D01*
X45447781Y-153914876D01*
X45487336Y-153921140D01*
X45533968Y-153928527D01*
X45597103Y-153958456D01*
X45634034Y-154017768D01*
X45633036Y-154087630D01*
X45594426Y-154145863D01*
X45533968Y-154173473D01*
X45447784Y-154187123D01*
X45273752Y-154243670D01*
X45110713Y-154326743D01*
X44962687Y-154434288D01*
X44833288Y-154563687D01*
X44725743Y-154711713D01*
X44642670Y-154874752D01*
X44586123Y-155048784D01*
X44557500Y-155229503D01*
X44557500Y-155412496D01*
X44586123Y-155593215D01*
X44642670Y-155767247D01*
X44725743Y-155930286D01*
X44833288Y-156078312D01*
X44962687Y-156207711D01*
X45101205Y-156308348D01*
X45110717Y-156315259D01*
X45273755Y-156398331D01*
X45447781Y-156454876D01*
X45515554Y-156465610D01*
X45628504Y-156483500D01*
X45628509Y-156483500D01*
X45811496Y-156483500D01*
X45911895Y-156467597D01*
X45992219Y-156454876D01*
X46166245Y-156398331D01*
X46329283Y-156315259D01*
X46412397Y-156254873D01*
X46477312Y-156207711D01*
X46477314Y-156207708D01*
X46477318Y-156207706D01*
X46606706Y-156078318D01*
X46606708Y-156078314D01*
X46606711Y-156078312D01*
X46653873Y-156013397D01*
X46714259Y-155930283D01*
X46797331Y-155767245D01*
X46853876Y-155593219D01*
X46866597Y-155512895D01*
X46882500Y-155412496D01*
X46882500Y-155229503D01*
X46853876Y-155048784D01*
X46853876Y-155048781D01*
X46797331Y-154874755D01*
X46714259Y-154711717D01*
X46707348Y-154702205D01*
X46606711Y-154563687D01*
X46477312Y-154434288D01*
X46329286Y-154326743D01*
X46329285Y-154326742D01*
X46329283Y-154326741D01*
X46166245Y-154243669D01*
X45992219Y-154187124D01*
X45992217Y-154187123D01*
X45992215Y-154187123D01*
X45906031Y-154173473D01*
X45842896Y-154143544D01*
X45805965Y-154084232D01*
X45806963Y-154014370D01*
X45845573Y-153956137D01*
X45906031Y-153928527D01*
X45939478Y-153923229D01*
X45992219Y-153914876D01*
X46166245Y-153858331D01*
X46329283Y-153775259D01*
X46412397Y-153714873D01*
X46477312Y-153667711D01*
X46477314Y-153667708D01*
X46477318Y-153667706D01*
X46606706Y-153538318D01*
X46606708Y-153538314D01*
X46606711Y-153538312D01*
X46653873Y-153473397D01*
X46714259Y-153390283D01*
X46797331Y-153227245D01*
X46853876Y-153053219D01*
X46866597Y-152972895D01*
X46882500Y-152872496D01*
X46882500Y-152689503D01*
X46853876Y-152508784D01*
X46853876Y-152508781D01*
X46797331Y-152334755D01*
X46714259Y-152171717D01*
X46707348Y-152162205D01*
X46606711Y-152023687D01*
X46477312Y-151894288D01*
X46329286Y-151786743D01*
X46329285Y-151786742D01*
X46329283Y-151786741D01*
X46278369Y-151760799D01*
X46166249Y-151703670D01*
X46138283Y-151694583D01*
X46097216Y-151681240D01*
X46039543Y-151641803D01*
X46012345Y-151577444D01*
X46024260Y-151508598D01*
X46071504Y-151457122D01*
X46097220Y-151445379D01*
X46204435Y-151410543D01*
X46381425Y-151320362D01*
X46418716Y-151293268D01*
X45804095Y-150678647D01*
X45891571Y-150655208D01*
X45992930Y-150596689D01*
X46075689Y-150513930D01*
X46134208Y-150412571D01*
X46157647Y-150325094D01*
X46772268Y-150939715D01*
X46799362Y-150902425D01*
X46889542Y-150725437D01*
X46950924Y-150536523D01*
X46950924Y-150536520D01*
X46982000Y-150340321D01*
X46982000Y-150141678D01*
X46950924Y-149945479D01*
X46950924Y-149945476D01*
X46889542Y-149756562D01*
X46799358Y-149579567D01*
X46772268Y-149542283D01*
X46157647Y-150156904D01*
X46134208Y-150069429D01*
X46075689Y-149968070D01*
X45992930Y-149885311D01*
X45891571Y-149826792D01*
X45804094Y-149803352D01*
X46418716Y-149188731D01*
X46418715Y-149188730D01*
X46381432Y-149161641D01*
X46204437Y-149071457D01*
X46097219Y-149036620D01*
X46039543Y-148997182D01*
X46012345Y-148932824D01*
X46024260Y-148863977D01*
X46071504Y-148812502D01*
X46097214Y-148800760D01*
X46166245Y-148778331D01*
X46329283Y-148695259D01*
X46412397Y-148634873D01*
X46477312Y-148587711D01*
X46477314Y-148587708D01*
X46477318Y-148587706D01*
X46606706Y-148458318D01*
X46606708Y-148458314D01*
X46606711Y-148458312D01*
X46653873Y-148393397D01*
X46714259Y-148310283D01*
X46797331Y-148147245D01*
X46853876Y-147973219D01*
X46866597Y-147892895D01*
X46882500Y-147792496D01*
X46882500Y-147609503D01*
X46853876Y-147428784D01*
X46853876Y-147428781D01*
X46797331Y-147254755D01*
X46714259Y-147091717D01*
X46707348Y-147082205D01*
X46606711Y-146943687D01*
X46477312Y-146814288D01*
X46329286Y-146706743D01*
X46329285Y-146706742D01*
X46329283Y-146706741D01*
X46166245Y-146623669D01*
X45992219Y-146567124D01*
X45992217Y-146567123D01*
X45992215Y-146567123D01*
X45906031Y-146553473D01*
X45842896Y-146523544D01*
X45805965Y-146464232D01*
X45806963Y-146394370D01*
X45845573Y-146336137D01*
X45906031Y-146308527D01*
X45939478Y-146303229D01*
X45992219Y-146294876D01*
X46166245Y-146238331D01*
X46329283Y-146155259D01*
X46412397Y-146094873D01*
X46477312Y-146047711D01*
X46477314Y-146047708D01*
X46477318Y-146047706D01*
X46606706Y-145918318D01*
X46606708Y-145918314D01*
X46606711Y-145918312D01*
X46714256Y-145770287D01*
X46714257Y-145770286D01*
X46714259Y-145770283D01*
X46735189Y-145729204D01*
X46783163Y-145678409D01*
X46845674Y-145661500D01*
X50484890Y-145661500D01*
X50484892Y-145661500D01*
X50612186Y-145627392D01*
X50726314Y-145561500D01*
X58566499Y-137721315D01*
X58632392Y-137607186D01*
X58666500Y-137479893D01*
X58666500Y-137348108D01*
X58666500Y-82688020D01*
X59436845Y-82688020D01*
X59436845Y-82947825D01*
X59477485Y-83204416D01*
X59557767Y-83451499D01*
X59638879Y-83610687D01*
X59675711Y-83682974D01*
X59828414Y-83893152D01*
X60012116Y-84076854D01*
X60222294Y-84229557D01*
X60369790Y-84304710D01*
X60453768Y-84347500D01*
X60453770Y-84347500D01*
X60453773Y-84347502D01*
X60700852Y-84427783D01*
X60833051Y-84448720D01*
X60957443Y-84468423D01*
X60957448Y-84468423D01*
X61217247Y-84468423D01*
X61330643Y-84450462D01*
X61473838Y-84427783D01*
X61720917Y-84347502D01*
X61952396Y-84229557D01*
X62162574Y-84076854D01*
X62346276Y-83893152D01*
X62498979Y-83682974D01*
X62616924Y-83451495D01*
X62697205Y-83204416D01*
X62719884Y-83061221D01*
X62737845Y-82947825D01*
X62737845Y-82688020D01*
X62713338Y-82533292D01*
X62697205Y-82431430D01*
X62616924Y-82184351D01*
X62616922Y-82184348D01*
X62616922Y-82184346D01*
X62574132Y-82100368D01*
X62498979Y-81952872D01*
X62346276Y-81742694D01*
X62162574Y-81558992D01*
X61952396Y-81406289D01*
X61880109Y-81369457D01*
X61720921Y-81288345D01*
X61473838Y-81208063D01*
X61217247Y-81167423D01*
X61217242Y-81167423D01*
X60957448Y-81167423D01*
X60957443Y-81167423D01*
X60700851Y-81208063D01*
X60453768Y-81288345D01*
X60222290Y-81406291D01*
X60012119Y-81558989D01*
X60012113Y-81558994D01*
X59828416Y-81742691D01*
X59828411Y-81742697D01*
X59675713Y-81952868D01*
X59557767Y-82184346D01*
X59477485Y-82431429D01*
X59436845Y-82688020D01*
X58666500Y-82688020D01*
X58666500Y-81030676D01*
X58686185Y-80963637D01*
X58702819Y-80942995D01*
X61148437Y-78497377D01*
X63646500Y-75999314D01*
X63712392Y-75885186D01*
X63746500Y-75757892D01*
X63746500Y-75626107D01*
X63746500Y-70673108D01*
X63712392Y-70545814D01*
X63646500Y-70431686D01*
X63553314Y-70338500D01*
X60422083Y-67207269D01*
X60388598Y-67145946D01*
X60385764Y-67119588D01*
X60385764Y-62963347D01*
X60405449Y-62896308D01*
X60458253Y-62850553D01*
X60462301Y-62848790D01*
X60638045Y-62775996D01*
X60672224Y-62761839D01*
X60672227Y-62761837D01*
X60672233Y-62761835D01*
X60873796Y-62645462D01*
X61058445Y-62503776D01*
X61223020Y-62339201D01*
X61364706Y-62154552D01*
X61481079Y-61952989D01*
X61570146Y-61737960D01*
X61630385Y-61513146D01*
X61660764Y-61282392D01*
X61660764Y-61049648D01*
X61630385Y-60818894D01*
X61570146Y-60594080D01*
X61544666Y-60532564D01*
X61481083Y-60379059D01*
X61481075Y-60379043D01*
X61364710Y-60177495D01*
X61364706Y-60177488D01*
X61223020Y-59992839D01*
X61223015Y-59992833D01*
X61058450Y-59828268D01*
X61058443Y-59828262D01*
X60873804Y-59686584D01*
X60873802Y-59686582D01*
X60873796Y-59686578D01*
X60873791Y-59686575D01*
X60873788Y-59686573D01*
X60672240Y-59570208D01*
X60672224Y-59570200D01*
X60457211Y-59481140D01*
X60232386Y-59420898D01*
X60001646Y-59390521D01*
X60001641Y-59390520D01*
X60001636Y-59390520D01*
X59768892Y-59390520D01*
X59768886Y-59390520D01*
X59768881Y-59390521D01*
X59538141Y-59420898D01*
X59313316Y-59481140D01*
X59098303Y-59570200D01*
X59098287Y-59570208D01*
X58896739Y-59686573D01*
X58896723Y-59686584D01*
X58712084Y-59828262D01*
X58712077Y-59828268D01*
X58547512Y-59992833D01*
X58547506Y-59992840D01*
X58405828Y-60177479D01*
X58405817Y-60177495D01*
X58289452Y-60379043D01*
X58289444Y-60379059D01*
X58200384Y-60594072D01*
X58140142Y-60818897D01*
X58109765Y-61049637D01*
X58109764Y-61049654D01*
X58109764Y-61282385D01*
X58109765Y-61282402D01*
X58111560Y-61296038D01*
X58140143Y-61513146D01*
X58150722Y-61552629D01*
X58200384Y-61737967D01*
X58289444Y-61952980D01*
X58289452Y-61952996D01*
X58405817Y-62154544D01*
X58405828Y-62154560D01*
X58547506Y-62339199D01*
X58547512Y-62339206D01*
X58712077Y-62503771D01*
X58712083Y-62503776D01*
X58896732Y-62645462D01*
X58896739Y-62645466D01*
X59098287Y-62761831D01*
X59098303Y-62761839D01*
X59257407Y-62827740D01*
X59308216Y-62848786D01*
X59362620Y-62892626D01*
X59384685Y-62958920D01*
X59384764Y-62963347D01*
X59384764Y-67444155D01*
X59418872Y-67571451D01*
X59451818Y-67628514D01*
X59484764Y-67685578D01*
X59484766Y-67685580D01*
X62709181Y-70909995D01*
X62742666Y-70971318D01*
X62745500Y-70997676D01*
X62745500Y-75433324D01*
X62725815Y-75500363D01*
X62709181Y-75521005D01*
X57765502Y-80464683D01*
X57765500Y-80464686D01*
X57699608Y-80578812D01*
X57665500Y-80706108D01*
X57665500Y-137155324D01*
X57645815Y-137222363D01*
X57629181Y-137243005D01*
X50248005Y-144624181D01*
X50186682Y-144657666D01*
X50160324Y-144660500D01*
X46845674Y-144660500D01*
X46778635Y-144640815D01*
X46735189Y-144592795D01*
X46714256Y-144551712D01*
X46606711Y-144403687D01*
X46477312Y-144274288D01*
X46329286Y-144166743D01*
X46329285Y-144166742D01*
X46329283Y-144166741D01*
X46166245Y-144083669D01*
X45992219Y-144027124D01*
X45992217Y-144027123D01*
X45992215Y-144027123D01*
X45906031Y-144013473D01*
X45842896Y-143983544D01*
X45805965Y-143924232D01*
X45806963Y-143854370D01*
X45845573Y-143796137D01*
X45906031Y-143768527D01*
X45939478Y-143763229D01*
X45992219Y-143754876D01*
X46166245Y-143698331D01*
X46329283Y-143615259D01*
X46412397Y-143554873D01*
X46477312Y-143507711D01*
X46477314Y-143507708D01*
X46477318Y-143507706D01*
X46606706Y-143378318D01*
X46606708Y-143378314D01*
X46606711Y-143378312D01*
X46714256Y-143230287D01*
X46714257Y-143230286D01*
X46714259Y-143230283D01*
X46735189Y-143189204D01*
X46783163Y-143138409D01*
X46845674Y-143121500D01*
X50230890Y-143121500D01*
X50230892Y-143121500D01*
X50358186Y-143087392D01*
X50472314Y-143021500D01*
X56788500Y-136705314D01*
X56854392Y-136591186D01*
X56888500Y-136463892D01*
X56888500Y-136332108D01*
X56888500Y-78017892D01*
X56908185Y-77950853D01*
X56924814Y-77930216D01*
X58968268Y-75886761D01*
X59029589Y-75853278D01*
X59099281Y-75858262D01*
X59103373Y-75859872D01*
X59313324Y-75946836D01*
X59538138Y-76007075D01*
X59768892Y-76037454D01*
X59768899Y-76037454D01*
X60001629Y-76037454D01*
X60001636Y-76037454D01*
X60232390Y-76007075D01*
X60457204Y-75946836D01*
X60602235Y-75886763D01*
X60672224Y-75857773D01*
X60672227Y-75857771D01*
X60672233Y-75857769D01*
X60873796Y-75741396D01*
X61058445Y-75599710D01*
X61223020Y-75435135D01*
X61364706Y-75250486D01*
X61481079Y-75048923D01*
X61498106Y-75007817D01*
X61570143Y-74833901D01*
X61570142Y-74833901D01*
X61570146Y-74833894D01*
X61630385Y-74609080D01*
X61660764Y-74378326D01*
X61660764Y-74145582D01*
X61630385Y-73914828D01*
X61570146Y-73690014D01*
X61570143Y-73690006D01*
X61481083Y-73474993D01*
X61481075Y-73474977D01*
X61364710Y-73273429D01*
X61364706Y-73273422D01*
X61223020Y-73088773D01*
X61223015Y-73088767D01*
X61058450Y-72924202D01*
X61058443Y-72924196D01*
X60873804Y-72782518D01*
X60873802Y-72782516D01*
X60873796Y-72782512D01*
X60873791Y-72782509D01*
X60873788Y-72782507D01*
X60672240Y-72666142D01*
X60672224Y-72666134D01*
X60457211Y-72577074D01*
X60232386Y-72516832D01*
X60001646Y-72486455D01*
X60001641Y-72486454D01*
X60001636Y-72486454D01*
X59768892Y-72486454D01*
X59768886Y-72486454D01*
X59768881Y-72486455D01*
X59538141Y-72516832D01*
X59313316Y-72577074D01*
X59098303Y-72666134D01*
X59098287Y-72666142D01*
X58896739Y-72782507D01*
X58896723Y-72782518D01*
X58712084Y-72924196D01*
X58712077Y-72924202D01*
X58547512Y-73088767D01*
X58547506Y-73088774D01*
X58405828Y-73273413D01*
X58405817Y-73273429D01*
X58289452Y-73474977D01*
X58289444Y-73474993D01*
X58200384Y-73690006D01*
X58140142Y-73914831D01*
X58109765Y-74145571D01*
X58109764Y-74145588D01*
X58109764Y-74378319D01*
X58109765Y-74378336D01*
X58139869Y-74607004D01*
X58140143Y-74609080D01*
X58176561Y-74744995D01*
X58200384Y-74833901D01*
X58287333Y-75043817D01*
X58294802Y-75113286D01*
X58263526Y-75175765D01*
X58260453Y-75178950D01*
X56063244Y-77376158D01*
X56063245Y-77376159D01*
X55987500Y-77451904D01*
X55921608Y-77566030D01*
X55887500Y-77693326D01*
X55887500Y-136139324D01*
X55867815Y-136206363D01*
X55851181Y-136227005D01*
X49994005Y-142084181D01*
X49932682Y-142117666D01*
X49906324Y-142120500D01*
X46845674Y-142120500D01*
X46778635Y-142100815D01*
X46735189Y-142052795D01*
X46714256Y-142011712D01*
X46606711Y-141863687D01*
X46477312Y-141734288D01*
X46329286Y-141626743D01*
X46329285Y-141626742D01*
X46329283Y-141626741D01*
X46166245Y-141543669D01*
X45992219Y-141487124D01*
X45992217Y-141487123D01*
X45992215Y-141487123D01*
X45906031Y-141473473D01*
X45842896Y-141443544D01*
X45805965Y-141384232D01*
X45806963Y-141314370D01*
X45845573Y-141256137D01*
X45906031Y-141228527D01*
X45939478Y-141223229D01*
X45992219Y-141214876D01*
X46166245Y-141158331D01*
X46329283Y-141075259D01*
X46412397Y-141014873D01*
X46477312Y-140967711D01*
X46477314Y-140967708D01*
X46477318Y-140967706D01*
X46606706Y-140838318D01*
X46606708Y-140838314D01*
X46606711Y-140838312D01*
X46653873Y-140773397D01*
X46714259Y-140690283D01*
X46797331Y-140527245D01*
X46853876Y-140353219D01*
X46866597Y-140272895D01*
X46882500Y-140172496D01*
X46882500Y-139989503D01*
X46853876Y-139808784D01*
X46853876Y-139808781D01*
X46797331Y-139634755D01*
X46714259Y-139471717D01*
X46707348Y-139462205D01*
X46606711Y-139323687D01*
X46477312Y-139194288D01*
X46329286Y-139086743D01*
X46329285Y-139086742D01*
X46329283Y-139086741D01*
X46166245Y-139003669D01*
X45992219Y-138947124D01*
X45992217Y-138947123D01*
X45992215Y-138947123D01*
X45811496Y-138918500D01*
X45811491Y-138918500D01*
X45628509Y-138918500D01*
X45628504Y-138918500D01*
X45447784Y-138947123D01*
X45273752Y-139003670D01*
X45110713Y-139086743D01*
X44962687Y-139194288D01*
X44833288Y-139323687D01*
X44725743Y-139471713D01*
X44642670Y-139634752D01*
X44586123Y-139808784D01*
X44557500Y-139989503D01*
X44557500Y-140172496D01*
X44586123Y-140353215D01*
X44642670Y-140527247D01*
X44725743Y-140690286D01*
X44833288Y-140838312D01*
X44962687Y-140967711D01*
X45101205Y-141068348D01*
X45110717Y-141075259D01*
X45273755Y-141158331D01*
X45447781Y-141214876D01*
X45487336Y-141221140D01*
X45533968Y-141228527D01*
X45597103Y-141258456D01*
X45634034Y-141317768D01*
X45633036Y-141387630D01*
X45594426Y-141445863D01*
X45533968Y-141473473D01*
X45447784Y-141487123D01*
X45273752Y-141543670D01*
X45110713Y-141626743D01*
X44962687Y-141734288D01*
X44833288Y-141863687D01*
X44725743Y-142011713D01*
X44642670Y-142174752D01*
X44586123Y-142348784D01*
X44557500Y-142529503D01*
X44557500Y-142712496D01*
X44586123Y-142893215D01*
X44586124Y-142893219D01*
X44627805Y-143021500D01*
X44642670Y-143067247D01*
X44725743Y-143230286D01*
X44833288Y-143378312D01*
X44962687Y-143507711D01*
X45051675Y-143572363D01*
X45110717Y-143615259D01*
X45273755Y-143698331D01*
X45447781Y-143754876D01*
X45487336Y-143761140D01*
X45533968Y-143768527D01*
X45597103Y-143798456D01*
X45634034Y-143857768D01*
X45633036Y-143927630D01*
X45594426Y-143985863D01*
X45533968Y-144013473D01*
X45447784Y-144027123D01*
X45273752Y-144083670D01*
X45110713Y-144166743D01*
X44962687Y-144274288D01*
X44833288Y-144403687D01*
X44725743Y-144551713D01*
X44642670Y-144714752D01*
X44586123Y-144888784D01*
X44557500Y-145069503D01*
X44557500Y-145252496D01*
X44586123Y-145433215D01*
X44586124Y-145433219D01*
X44627805Y-145561500D01*
X44642670Y-145607247D01*
X44725743Y-145770286D01*
X44833288Y-145918312D01*
X44962687Y-146047711D01*
X45101205Y-146148348D01*
X45110717Y-146155259D01*
X45273755Y-146238331D01*
X45447781Y-146294876D01*
X45487336Y-146301140D01*
X45533968Y-146308527D01*
X45597103Y-146338456D01*
X45634034Y-146397768D01*
X45633036Y-146467630D01*
X45594426Y-146525863D01*
X45533968Y-146553473D01*
X45447784Y-146567123D01*
X45273752Y-146623670D01*
X45110713Y-146706743D01*
X44962687Y-146814288D01*
X44833288Y-146943687D01*
X44725743Y-147091713D01*
X44642670Y-147254752D01*
X44586123Y-147428784D01*
X44557500Y-147609503D01*
X44557500Y-147792496D01*
X44573560Y-147893892D01*
X44586124Y-147973219D01*
X44638792Y-148135314D01*
X44642670Y-148147247D01*
X44725743Y-148310286D01*
X44833288Y-148458312D01*
X44962687Y-148587711D01*
X45101205Y-148688348D01*
X45110717Y-148695259D01*
X45273755Y-148778331D01*
X45342782Y-148800759D01*
X45400455Y-148840195D01*
X45427654Y-148904554D01*
X45415740Y-148973400D01*
X45368496Y-149024876D01*
X45342781Y-149036620D01*
X45235561Y-149071458D01*
X45058564Y-149161643D01*
X45021283Y-149188729D01*
X45021282Y-149188730D01*
X45635906Y-149803352D01*
X45548429Y-149826792D01*
X45447070Y-149885311D01*
X45364311Y-149968070D01*
X45305792Y-150069429D01*
X45282352Y-150156905D01*
X44667730Y-149542282D01*
X44667729Y-149542283D01*
X44640643Y-149579564D01*
X44550457Y-149756562D01*
X44489075Y-149945476D01*
X44489075Y-149945479D01*
X44458000Y-150141678D01*
X35337955Y-150141678D01*
X35337955Y-82727988D01*
X48434264Y-82727988D01*
X48434264Y-84859391D01*
X48437165Y-84896257D01*
X48437166Y-84896263D01*
X48483018Y-85054083D01*
X48483019Y-85054086D01*
X48566681Y-85195552D01*
X48566687Y-85195560D01*
X48682893Y-85311766D01*
X48682897Y-85311769D01*
X48682899Y-85311771D01*
X48824366Y-85395434D01*
X48865988Y-85407526D01*
X48982190Y-85441287D01*
X48982193Y-85441287D01*
X48982195Y-85441288D01*
X49019070Y-85444190D01*
X49019078Y-85444190D01*
X51150450Y-85444190D01*
X51150458Y-85444190D01*
X51187333Y-85441288D01*
X51187335Y-85441287D01*
X51187337Y-85441287D01*
X51228955Y-85429195D01*
X51345162Y-85395434D01*
X51486629Y-85311771D01*
X51602845Y-85195555D01*
X51686508Y-85054088D01*
X51732362Y-84896259D01*
X51735264Y-84859384D01*
X51735264Y-82727996D01*
X51732362Y-82691121D01*
X51731461Y-82688020D01*
X51686509Y-82533296D01*
X51686508Y-82533293D01*
X51686508Y-82533292D01*
X51602845Y-82391825D01*
X51602843Y-82391823D01*
X51602840Y-82391819D01*
X51486634Y-82275613D01*
X51486626Y-82275607D01*
X51345160Y-82191945D01*
X51345157Y-82191944D01*
X51187337Y-82146092D01*
X51187331Y-82146091D01*
X51150465Y-82143190D01*
X51150458Y-82143190D01*
X49019070Y-82143190D01*
X49019062Y-82143190D01*
X48982196Y-82146091D01*
X48982190Y-82146092D01*
X48824370Y-82191944D01*
X48824367Y-82191945D01*
X48682901Y-82275607D01*
X48682893Y-82275613D01*
X48566687Y-82391819D01*
X48566681Y-82391827D01*
X48483019Y-82533293D01*
X48483018Y-82533296D01*
X48437166Y-82691116D01*
X48437165Y-82691122D01*
X48434264Y-82727988D01*
X35337955Y-82727988D01*
X35337955Y-78077933D01*
X40992916Y-78077933D01*
X40992916Y-78209716D01*
X41027024Y-78337012D01*
X41059970Y-78394075D01*
X41092916Y-78451139D01*
X42600316Y-79958539D01*
X42699151Y-80015602D01*
X42714440Y-80024429D01*
X42714444Y-80024431D01*
X42841738Y-80058539D01*
X42841740Y-80058539D01*
X42973521Y-80058539D01*
X42973523Y-80058539D01*
X43100816Y-80024431D01*
X43214945Y-79958539D01*
X43308130Y-79865354D01*
X43308130Y-79865352D01*
X43318334Y-79855149D01*
X43318338Y-79855144D01*
X43838460Y-79335022D01*
X44368790Y-78804692D01*
X44434682Y-78690564D01*
X44468790Y-78563270D01*
X44468790Y-78431485D01*
X44434682Y-78304192D01*
X44368790Y-78190064D01*
X44275604Y-78096878D01*
X44275603Y-78096877D01*
X44271273Y-78092547D01*
X44271262Y-78092537D01*
X42861393Y-76682667D01*
X42861392Y-76682666D01*
X42861391Y-76682665D01*
X42804327Y-76649719D01*
X42747264Y-76616773D01*
X42683616Y-76599719D01*
X42619970Y-76582665D01*
X42488185Y-76582665D01*
X42360889Y-76616773D01*
X42246763Y-76682665D01*
X42246760Y-76682667D01*
X41716433Y-77212995D01*
X41168669Y-77760755D01*
X41168660Y-77760767D01*
X41092916Y-77836511D01*
X41027024Y-77950637D01*
X40992916Y-78077933D01*
X35337955Y-78077933D01*
X35337955Y-71753099D01*
X35357640Y-71686060D01*
X35410444Y-71640305D01*
X35479602Y-71630361D01*
X35543158Y-71659386D01*
X35579886Y-71714781D01*
X35621790Y-71843749D01*
X35657557Y-71953826D01*
X35775502Y-72185305D01*
X35928205Y-72395483D01*
X36111907Y-72579185D01*
X36322085Y-72731888D01*
X36428894Y-72786310D01*
X36553559Y-72849831D01*
X36553561Y-72849831D01*
X36553564Y-72849833D01*
X36800643Y-72930114D01*
X36932842Y-72951051D01*
X37057234Y-72970754D01*
X37057239Y-72970754D01*
X37317038Y-72970754D01*
X37430434Y-72952793D01*
X37573629Y-72930114D01*
X37820708Y-72849833D01*
X37865106Y-72827210D01*
X37933773Y-72814314D01*
X37998514Y-72840589D01*
X38009082Y-72850014D01*
X38364382Y-73205314D01*
X38457568Y-73298500D01*
X38571696Y-73364392D01*
X38698990Y-73398500D01*
X45842324Y-73398500D01*
X45909363Y-73418185D01*
X45930005Y-73434819D01*
X47142181Y-74646995D01*
X47175666Y-74708318D01*
X47178500Y-74734676D01*
X47178500Y-74744993D01*
X47178500Y-74744995D01*
X47178499Y-74744995D01*
X47205418Y-74880322D01*
X47205421Y-74880332D01*
X47258221Y-75007804D01*
X47258228Y-75007817D01*
X47334885Y-75122541D01*
X47334888Y-75122545D01*
X47432454Y-75220111D01*
X47432458Y-75220114D01*
X47547182Y-75296771D01*
X47547195Y-75296778D01*
X47674667Y-75349578D01*
X47674672Y-75349580D01*
X47674676Y-75349580D01*
X47674677Y-75349581D01*
X47810004Y-75376500D01*
X47810007Y-75376500D01*
X47947995Y-75376500D01*
X48039041Y-75358389D01*
X48083328Y-75349580D01*
X48210811Y-75296775D01*
X48325542Y-75220114D01*
X48423114Y-75122542D01*
X48499775Y-75007811D01*
X48552580Y-74880328D01*
X48579500Y-74744993D01*
X48579500Y-74607007D01*
X48579500Y-74607004D01*
X48552581Y-74471677D01*
X48552580Y-74471676D01*
X48552580Y-74471672D01*
X48513912Y-74378319D01*
X48499778Y-74344195D01*
X48499771Y-74344182D01*
X48423114Y-74229458D01*
X48423111Y-74229454D01*
X48325545Y-74131888D01*
X48325541Y-74131885D01*
X48210817Y-74055228D01*
X48210804Y-74055221D01*
X48083332Y-74002421D01*
X48083322Y-74002418D01*
X47947995Y-73975500D01*
X47947993Y-73975500D01*
X47937676Y-73975500D01*
X47870637Y-73955815D01*
X47849995Y-73939181D01*
X46408316Y-72497502D01*
X46408314Y-72497500D01*
X46351250Y-72464554D01*
X46294187Y-72431608D01*
X46230539Y-72414554D01*
X46166892Y-72397500D01*
X46166891Y-72397500D01*
X39023558Y-72397500D01*
X38956519Y-72377815D01*
X38935877Y-72361181D01*
X38716896Y-72142200D01*
X38683411Y-72080877D01*
X38688395Y-72011185D01*
X38694087Y-71998235D01*
X38716715Y-71953826D01*
X38796996Y-71706747D01*
X38819675Y-71563552D01*
X38837636Y-71450156D01*
X38837636Y-71190351D01*
X38809166Y-71010600D01*
X38796996Y-70933761D01*
X38716715Y-70686682D01*
X38716713Y-70686679D01*
X38716713Y-70686677D01*
X38673923Y-70602699D01*
X38598770Y-70455203D01*
X38446067Y-70245025D01*
X38262365Y-70061323D01*
X38052187Y-69908620D01*
X37979900Y-69871788D01*
X37820712Y-69790676D01*
X37573629Y-69710394D01*
X37317038Y-69669754D01*
X37317033Y-69669754D01*
X37057239Y-69669754D01*
X37057234Y-69669754D01*
X36800642Y-69710394D01*
X36553559Y-69790676D01*
X36322081Y-69908622D01*
X36111910Y-70061320D01*
X36111904Y-70061325D01*
X35928207Y-70245022D01*
X35928202Y-70245028D01*
X35775504Y-70455199D01*
X35657558Y-70686677D01*
X35579886Y-70925727D01*
X35540448Y-70983402D01*
X35476089Y-71010600D01*
X35407243Y-70998685D01*
X35355767Y-70951441D01*
X35337955Y-70887408D01*
X35337955Y-68694255D01*
X50576797Y-68694255D01*
X50576797Y-68954060D01*
X50617437Y-69210651D01*
X50697719Y-69457734D01*
X50778831Y-69616922D01*
X50815663Y-69689209D01*
X50968366Y-69899387D01*
X51152068Y-70083089D01*
X51362246Y-70235792D01*
X51509742Y-70310945D01*
X51593720Y-70353735D01*
X51593722Y-70353735D01*
X51593725Y-70353737D01*
X51840804Y-70434018D01*
X51973003Y-70454955D01*
X52097395Y-70474658D01*
X52097400Y-70474658D01*
X52357199Y-70474658D01*
X52480030Y-70455203D01*
X52613790Y-70434018D01*
X52860869Y-70353737D01*
X53092348Y-70235792D01*
X53302526Y-70083089D01*
X53486228Y-69899387D01*
X53638931Y-69689209D01*
X53756876Y-69457730D01*
X53837157Y-69210651D01*
X53859836Y-69067456D01*
X53877797Y-68954060D01*
X53877797Y-68694255D01*
X53856244Y-68558179D01*
X53837157Y-68437665D01*
X53756876Y-68190586D01*
X53756874Y-68190583D01*
X53756874Y-68190581D01*
X53714084Y-68106603D01*
X53638931Y-67959107D01*
X53486228Y-67748929D01*
X53302526Y-67565227D01*
X53135886Y-67444156D01*
X53092351Y-67412526D01*
X53092350Y-67412525D01*
X53092348Y-67412524D01*
X53020061Y-67375692D01*
X52860873Y-67294580D01*
X52613790Y-67214298D01*
X52357199Y-67173658D01*
X52357194Y-67173658D01*
X52097400Y-67173658D01*
X52097395Y-67173658D01*
X51840803Y-67214298D01*
X51593720Y-67294580D01*
X51362242Y-67412526D01*
X51152071Y-67565224D01*
X51152065Y-67565229D01*
X50968368Y-67748926D01*
X50968363Y-67748932D01*
X50815665Y-67959103D01*
X50697719Y-68190581D01*
X50617437Y-68437664D01*
X50576797Y-68694255D01*
X35337955Y-68694255D01*
X35337955Y-61036233D01*
X45139146Y-61036233D01*
X45139146Y-61296038D01*
X45179786Y-61552629D01*
X45260068Y-61799712D01*
X45378014Y-62031190D01*
X45530712Y-62241361D01*
X45530715Y-62241365D01*
X45714417Y-62425067D01*
X45924595Y-62577770D01*
X46057455Y-62645466D01*
X46156069Y-62695713D01*
X46156071Y-62695713D01*
X46156074Y-62695715D01*
X46403153Y-62775996D01*
X46535352Y-62796933D01*
X46659744Y-62816636D01*
X46659749Y-62816636D01*
X46919548Y-62816636D01*
X47032944Y-62798675D01*
X47176139Y-62775996D01*
X47423218Y-62695715D01*
X47654697Y-62577770D01*
X47864875Y-62425067D01*
X48048577Y-62241365D01*
X48201280Y-62031187D01*
X48319225Y-61799708D01*
X48399506Y-61552629D01*
X48422185Y-61409434D01*
X48440146Y-61296038D01*
X48440146Y-61036233D01*
X48405723Y-60818897D01*
X48399506Y-60779643D01*
X48319225Y-60532564D01*
X48319223Y-60532561D01*
X48319223Y-60532559D01*
X48276433Y-60448581D01*
X48201280Y-60301085D01*
X48048577Y-60090907D01*
X47864875Y-59907205D01*
X47864871Y-59907202D01*
X47654700Y-59754504D01*
X47654699Y-59754503D01*
X47654697Y-59754502D01*
X47582410Y-59717670D01*
X47423222Y-59636558D01*
X47176139Y-59556276D01*
X46919548Y-59515636D01*
X46919543Y-59515636D01*
X46659749Y-59515636D01*
X46659744Y-59515636D01*
X46403152Y-59556276D01*
X46156069Y-59636558D01*
X45924591Y-59754504D01*
X45714420Y-59907202D01*
X45714414Y-59907207D01*
X45530717Y-60090904D01*
X45530712Y-60090910D01*
X45378014Y-60301081D01*
X45260068Y-60532559D01*
X45179786Y-60779642D01*
X45139146Y-61036233D01*
X35337955Y-61036233D01*
X35337955Y-57218283D01*
X40992916Y-57218283D01*
X40992916Y-57350067D01*
X41027024Y-57477361D01*
X41044246Y-57507191D01*
X41073685Y-57558179D01*
X41092919Y-57591493D01*
X41564659Y-58063231D01*
X41623247Y-58121819D01*
X42246763Y-58745335D01*
X42360891Y-58811227D01*
X42488185Y-58845335D01*
X42488187Y-58845335D01*
X42619968Y-58845335D01*
X42619970Y-58845335D01*
X42747263Y-58811227D01*
X42861391Y-58745335D01*
X42954577Y-58652149D01*
X42954577Y-58652148D01*
X44265394Y-57341329D01*
X44265399Y-57341326D01*
X44275602Y-57331122D01*
X44275604Y-57331122D01*
X44368790Y-57237936D01*
X44434682Y-57123808D01*
X44468790Y-56996515D01*
X44468790Y-56864730D01*
X44434682Y-56737436D01*
X44368790Y-56623308D01*
X43745274Y-55999792D01*
X43315200Y-55569717D01*
X43315198Y-55569714D01*
X43214946Y-55469462D01*
X43214941Y-55469458D01*
X43100818Y-55403570D01*
X43100817Y-55403569D01*
X43100816Y-55403569D01*
X42973523Y-55369461D01*
X42841738Y-55369461D01*
X42714442Y-55403569D01*
X42600316Y-55469461D01*
X42600313Y-55469463D01*
X41092918Y-56976858D01*
X41092916Y-56976861D01*
X41027024Y-57090987D01*
X41018230Y-57123808D01*
X40992916Y-57218283D01*
X35337955Y-57218283D01*
X35337955Y-51544429D01*
X43937065Y-51544429D01*
X43937065Y-53675832D01*
X43939966Y-53712698D01*
X43939967Y-53712704D01*
X43985819Y-53870524D01*
X43985820Y-53870527D01*
X44069482Y-54011993D01*
X44069488Y-54012001D01*
X44185694Y-54128207D01*
X44185698Y-54128210D01*
X44185700Y-54128212D01*
X44327167Y-54211875D01*
X44368789Y-54223967D01*
X44484991Y-54257728D01*
X44484994Y-54257728D01*
X44484996Y-54257729D01*
X44521871Y-54260631D01*
X44521879Y-54260631D01*
X46653251Y-54260631D01*
X46653259Y-54260631D01*
X46690134Y-54257729D01*
X46690136Y-54257728D01*
X46690138Y-54257728D01*
X46731756Y-54245636D01*
X46847963Y-54211875D01*
X46989430Y-54128212D01*
X47105646Y-54011996D01*
X47189309Y-53870529D01*
X47235163Y-53712700D01*
X47238065Y-53675825D01*
X47238065Y-51544437D01*
X47235163Y-51507562D01*
X47189309Y-51349733D01*
X47105646Y-51208266D01*
X47105644Y-51208264D01*
X47105641Y-51208260D01*
X46989435Y-51092054D01*
X46989427Y-51092048D01*
X46847961Y-51008386D01*
X46847958Y-51008385D01*
X46690138Y-50962533D01*
X46690132Y-50962532D01*
X46653266Y-50959631D01*
X46653259Y-50959631D01*
X44521871Y-50959631D01*
X44521863Y-50959631D01*
X44484997Y-50962532D01*
X44484991Y-50962533D01*
X44327171Y-51008385D01*
X44327168Y-51008386D01*
X44185702Y-51092048D01*
X44185694Y-51092054D01*
X44069488Y-51208260D01*
X44069482Y-51208268D01*
X43985820Y-51349734D01*
X43985819Y-51349737D01*
X43939967Y-51507557D01*
X43939966Y-51507563D01*
X43937065Y-51544429D01*
X35337955Y-51544429D01*
X35337955Y-32909818D01*
X40002000Y-32909818D01*
X40002000Y-33130181D01*
X40036473Y-33347835D01*
X40104567Y-33557410D01*
X40204611Y-33753756D01*
X40250932Y-33817513D01*
X40959861Y-33108584D01*
X40982667Y-33193694D01*
X41041910Y-33296306D01*
X41125694Y-33380090D01*
X41228306Y-33439333D01*
X41313414Y-33462137D01*
X40604485Y-34171065D01*
X40604485Y-34171066D01*
X40668243Y-34217388D01*
X40864589Y-34317432D01*
X41074164Y-34385526D01*
X41291819Y-34420000D01*
X41512181Y-34420000D01*
X41729835Y-34385526D01*
X41897174Y-34331155D01*
X51637455Y-34331155D01*
X51637455Y-34390000D01*
X52187455Y-34390000D01*
X52187455Y-33879000D01*
X52089610Y-33879000D01*
X52030082Y-33885401D01*
X52030075Y-33885403D01*
X51895368Y-33935645D01*
X51895361Y-33935649D01*
X51780267Y-34021809D01*
X51780264Y-34021812D01*
X51694104Y-34136906D01*
X51694100Y-34136913D01*
X51643858Y-34271620D01*
X51643856Y-34271627D01*
X51637455Y-34331155D01*
X41897174Y-34331155D01*
X41939410Y-34317432D01*
X42135760Y-34217386D01*
X42199513Y-34171066D01*
X42199514Y-34171066D01*
X41490585Y-33462138D01*
X41575694Y-33439333D01*
X41678306Y-33380090D01*
X41762090Y-33296306D01*
X41821333Y-33193694D01*
X41844138Y-33108585D01*
X42553066Y-33817514D01*
X42553066Y-33817513D01*
X42599388Y-33753758D01*
X42618084Y-33717065D01*
X42666058Y-33666269D01*
X42733879Y-33649473D01*
X42800014Y-33672010D01*
X42828887Y-33700474D01*
X42950028Y-33867213D01*
X43094786Y-34011971D01*
X43220327Y-34103180D01*
X43260390Y-34132287D01*
X43372704Y-34189514D01*
X43442776Y-34225218D01*
X43442778Y-34225218D01*
X43442781Y-34225220D01*
X43530418Y-34253695D01*
X43637465Y-34288477D01*
X43738557Y-34304488D01*
X43839648Y-34320500D01*
X43839649Y-34320500D01*
X44044351Y-34320500D01*
X44044352Y-34320500D01*
X44246534Y-34288477D01*
X44441219Y-34225220D01*
X44623610Y-34132287D01*
X44735556Y-34050954D01*
X44789213Y-34011971D01*
X44789215Y-34011968D01*
X44789219Y-34011966D01*
X44933966Y-33867219D01*
X44983445Y-33799115D01*
X45038774Y-33756449D01*
X45108388Y-33750469D01*
X45170183Y-33783074D01*
X45202840Y-33837405D01*
X45230134Y-33931352D01*
X45230136Y-33931357D01*
X45313591Y-34072472D01*
X45313598Y-34072481D01*
X45429518Y-34188401D01*
X45429527Y-34188408D01*
X45431404Y-34189518D01*
X45570643Y-34271864D01*
X45728083Y-34317604D01*
X45764878Y-34320500D01*
X45764884Y-34320500D01*
X47199116Y-34320500D01*
X47199122Y-34320500D01*
X47235917Y-34317604D01*
X47393357Y-34271864D01*
X47485471Y-34217388D01*
X47499513Y-34209083D01*
X47534476Y-34188406D01*
X47650406Y-34072476D01*
X47733864Y-33931357D01*
X47779604Y-33773917D01*
X47782500Y-33737122D01*
X47782500Y-32302878D01*
X47779604Y-32266083D01*
X47757147Y-32188784D01*
X47757147Y-32188782D01*
X47733865Y-32108647D01*
X47733864Y-32108643D01*
X47680111Y-32017753D01*
X47650408Y-31967527D01*
X47650401Y-31967518D01*
X47534481Y-31851598D01*
X47534472Y-31851591D01*
X47448640Y-31800830D01*
X47393357Y-31768136D01*
X47235917Y-31722396D01*
X47235916Y-31722395D01*
X47235913Y-31722395D01*
X47199127Y-31719500D01*
X47199122Y-31719500D01*
X45764878Y-31719500D01*
X45764872Y-31719500D01*
X45728087Y-31722395D01*
X45728085Y-31722395D01*
X45649363Y-31745266D01*
X45570643Y-31768136D01*
X45570641Y-31768136D01*
X45570641Y-31768137D01*
X45429527Y-31851591D01*
X45429518Y-31851598D01*
X45313598Y-31967518D01*
X45313591Y-31967527D01*
X45230136Y-32108642D01*
X45230134Y-32108648D01*
X45202840Y-32202594D01*
X45165234Y-32261480D01*
X45101761Y-32290686D01*
X45032575Y-32280940D01*
X44983445Y-32240884D01*
X44970077Y-32222485D01*
X44933966Y-32172781D01*
X44789219Y-32028034D01*
X44789213Y-32028028D01*
X44623613Y-31907715D01*
X44623612Y-31907714D01*
X44623610Y-31907713D01*
X44547496Y-31868931D01*
X44441223Y-31814781D01*
X44246534Y-31751522D01*
X44062630Y-31722395D01*
X44044352Y-31719500D01*
X43839648Y-31719500D01*
X43821370Y-31722395D01*
X43637465Y-31751522D01*
X43442776Y-31814781D01*
X43260386Y-31907715D01*
X43094786Y-32028028D01*
X42950032Y-32172782D01*
X42950028Y-32172787D01*
X42828887Y-32339525D01*
X42773557Y-32382191D01*
X42703944Y-32388170D01*
X42642149Y-32355565D01*
X42618084Y-32322935D01*
X42599388Y-32286243D01*
X42553066Y-32222485D01*
X42553065Y-32222485D01*
X41844137Y-32931413D01*
X41821333Y-32846306D01*
X41762090Y-32743694D01*
X41678306Y-32659910D01*
X41575694Y-32600667D01*
X41490583Y-32577861D01*
X42199513Y-31868932D01*
X42135756Y-31822611D01*
X41939410Y-31722567D01*
X41729835Y-31654473D01*
X41512181Y-31620000D01*
X41291819Y-31620000D01*
X41074164Y-31654473D01*
X40864589Y-31722567D01*
X40668233Y-31822616D01*
X40604485Y-31868931D01*
X40604485Y-31868932D01*
X41313414Y-32577861D01*
X41228306Y-32600667D01*
X41125694Y-32659910D01*
X41041910Y-32743694D01*
X40982667Y-32846306D01*
X40959861Y-32931414D01*
X40250932Y-32222485D01*
X40250931Y-32222485D01*
X40204616Y-32286233D01*
X40104567Y-32482589D01*
X40036473Y-32692164D01*
X40002000Y-32909818D01*
X35337955Y-32909818D01*
X35337955Y-28838500D01*
X35357640Y-28771461D01*
X35410444Y-28725706D01*
X35461955Y-28714500D01*
X40212955Y-28714500D01*
X40279994Y-28734185D01*
G37*
%TD.AperFunction*%
%TD*%
M02*
