%TF.GenerationSoftware,KiCad,Pcbnew,10.0.3*%
%TF.CreationDate,2026-07-28T22:25:39-07:00*%
%TF.ProjectId,c6remote,63367265-6d6f-4746-952e-6b696361645f,rev?*%
%TF.SameCoordinates,Original*%
%TF.FileFunction,Legend,Top*%
%TF.FilePolarity,Positive*%
%FSLAX46Y46*%
G04 Gerber Fmt 4.6, Leading zero omitted, Abs format (unit mm)*
G04 Created by KiCad (PCBNEW 10.0.3) date 2026-07-28 22:25:39*
%MOMM*%
%LPD*%
G01*
G04 APERTURE LIST*
%ADD10C,0.000000*%
%ADD11C,0.150000*%
%ADD12C,0.800000*%
%ADD13C,0.200000*%
%ADD14C,0.187500*%
%ADD15C,0.080000*%
%ADD16C,0.120000*%
%ADD17C,0.300000*%
%ADD18C,0.100000*%
%ADD19C,0.127000*%
%ADD20C,0.504000*%
%ADD21C,0.250000*%
G04 APERTURE END LIST*
D10*
G36*
X53894852Y-43236572D02*
G01*
X53904885Y-43236960D01*
X53914889Y-43237602D01*
X53924858Y-43238497D01*
X53934790Y-43239641D01*
X53944679Y-43241033D01*
X53954523Y-43242668D01*
X53964316Y-43244545D01*
X53974055Y-43246661D01*
X53983736Y-43249013D01*
X53993354Y-43251598D01*
X54002906Y-43254413D01*
X54012387Y-43257457D01*
X54021794Y-43260726D01*
X54031122Y-43264217D01*
X54040367Y-43267928D01*
X54049515Y-43271856D01*
X54058550Y-43275999D01*
X54067468Y-43280352D01*
X54076266Y-43284915D01*
X54084939Y-43289684D01*
X54093483Y-43294657D01*
X54101894Y-43299830D01*
X54110168Y-43305202D01*
X54118301Y-43310768D01*
X54126289Y-43316527D01*
X54134127Y-43322477D01*
X54141813Y-43328613D01*
X54149341Y-43334934D01*
X54156707Y-43341437D01*
X54163908Y-43348118D01*
X54170940Y-43354976D01*
X54177961Y-43362171D01*
X54184785Y-43369514D01*
X54191411Y-43377005D01*
X54197838Y-43384639D01*
X54204064Y-43392414D01*
X54210088Y-43400327D01*
X54215909Y-43408376D01*
X54221525Y-43416558D01*
X54226934Y-43424870D01*
X54232136Y-43433310D01*
X54237129Y-43441875D01*
X54241912Y-43450561D01*
X54246483Y-43459367D01*
X54250841Y-43468290D01*
X54254985Y-43477326D01*
X54258913Y-43486474D01*
X54262614Y-43495719D01*
X54266076Y-43505047D01*
X54269299Y-43514454D01*
X54272283Y-43523935D01*
X54275029Y-43533487D01*
X54277535Y-43543106D01*
X54279803Y-43552786D01*
X54281833Y-43562525D01*
X54283623Y-43572319D01*
X54285175Y-43582162D01*
X54286488Y-43592052D01*
X54287563Y-43601983D01*
X54288398Y-43611953D01*
X54288995Y-43621957D01*
X54289353Y-43631990D01*
X54289473Y-43642049D01*
X54289353Y-43651945D01*
X54288995Y-43661836D01*
X54288398Y-43671716D01*
X54287563Y-43681580D01*
X54286488Y-43691422D01*
X54285175Y-43701236D01*
X54283624Y-43711019D01*
X54281833Y-43720763D01*
X54279804Y-43730464D01*
X54277536Y-43740116D01*
X54275029Y-43749713D01*
X54272283Y-43759251D01*
X54269299Y-43768724D01*
X54266076Y-43778127D01*
X54262614Y-43787453D01*
X54258913Y-43796698D01*
X54254985Y-43805846D01*
X54250841Y-43814883D01*
X54246483Y-43823805D01*
X54241912Y-43832611D01*
X54237129Y-43841298D01*
X54232136Y-43849862D01*
X54226934Y-43858302D01*
X54221524Y-43866614D01*
X54215909Y-43874796D01*
X54210088Y-43882846D01*
X54204064Y-43890759D01*
X54197838Y-43898534D01*
X54191411Y-43906168D01*
X54184785Y-43913658D01*
X54177961Y-43921002D01*
X54170940Y-43928196D01*
X54163908Y-43935054D01*
X54156707Y-43941736D01*
X54149341Y-43948239D01*
X54141813Y-43954560D01*
X54134127Y-43960696D01*
X54126289Y-43966645D01*
X54118301Y-43972404D01*
X54110168Y-43977971D01*
X54101894Y-43983342D01*
X54093483Y-43988516D01*
X54084939Y-43993488D01*
X54076266Y-43998257D01*
X54067468Y-44002820D01*
X54058550Y-44007174D01*
X54049515Y-44011317D01*
X54040367Y-44015245D01*
X54031122Y-44018955D01*
X54021794Y-44022447D01*
X54012387Y-44025715D01*
X54002906Y-44028759D01*
X53993354Y-44031575D01*
X53983736Y-44034160D01*
X53974055Y-44036511D01*
X53964316Y-44038627D01*
X53954523Y-44040504D01*
X53944680Y-44042139D01*
X53934790Y-44043531D01*
X53924858Y-44044675D01*
X53914889Y-44045570D01*
X53904885Y-44046213D01*
X53894852Y-44046600D01*
X53884793Y-44046730D01*
X53874896Y-44046600D01*
X53865006Y-44046213D01*
X53855126Y-44045570D01*
X53845262Y-44044675D01*
X53835420Y-44043531D01*
X53825606Y-44042139D01*
X53815823Y-44040504D01*
X53806079Y-44038627D01*
X53796378Y-44036511D01*
X53786726Y-44034160D01*
X53777128Y-44031575D01*
X53767590Y-44028759D01*
X53758117Y-44025715D01*
X53748715Y-44022447D01*
X53739388Y-44018955D01*
X53730143Y-44015245D01*
X53720996Y-44011317D01*
X53711959Y-44007174D01*
X53703036Y-44002820D01*
X53694230Y-43998257D01*
X53685544Y-43993488D01*
X53676979Y-43988516D01*
X53668540Y-43983342D01*
X53660227Y-43977971D01*
X53652045Y-43972404D01*
X53643996Y-43966645D01*
X53636083Y-43960696D01*
X53628308Y-43954560D01*
X53620674Y-43948239D01*
X53613184Y-43941736D01*
X53605840Y-43935054D01*
X53598646Y-43928196D01*
X53591777Y-43921002D01*
X53585066Y-43913658D01*
X53578518Y-43906168D01*
X53572138Y-43898534D01*
X53565931Y-43890759D01*
X53559904Y-43882845D01*
X53554061Y-43874796D01*
X53548408Y-43866614D01*
X53542950Y-43858302D01*
X53537693Y-43849862D01*
X53532642Y-43841298D01*
X53527803Y-43832611D01*
X53523181Y-43823805D01*
X53518782Y-43814883D01*
X53514610Y-43805846D01*
X53510672Y-43796698D01*
X53506971Y-43787453D01*
X53503509Y-43778127D01*
X53500286Y-43768724D01*
X53497302Y-43759251D01*
X53494556Y-43749713D01*
X53492050Y-43740116D01*
X53489781Y-43730464D01*
X53487752Y-43720763D01*
X53485962Y-43711019D01*
X53484410Y-43701236D01*
X53483097Y-43691422D01*
X53482022Y-43681580D01*
X53481187Y-43671716D01*
X53480590Y-43661836D01*
X53480232Y-43651945D01*
X53480112Y-43642049D01*
X53480232Y-43631990D01*
X53480590Y-43621957D01*
X53481187Y-43611953D01*
X53482022Y-43601983D01*
X53483097Y-43592052D01*
X53484410Y-43582162D01*
X53485961Y-43572319D01*
X53487752Y-43562525D01*
X53489781Y-43552786D01*
X53492049Y-43543106D01*
X53494556Y-43533487D01*
X53497302Y-43523935D01*
X53500286Y-43514454D01*
X53503509Y-43505047D01*
X53506971Y-43495719D01*
X53510672Y-43486474D01*
X53514610Y-43477326D01*
X53518782Y-43468290D01*
X53523181Y-43459367D01*
X53527803Y-43450561D01*
X53532643Y-43441875D01*
X53537693Y-43433310D01*
X53542950Y-43424870D01*
X53548408Y-43416558D01*
X53554061Y-43408376D01*
X53559904Y-43400327D01*
X53565931Y-43392413D01*
X53572138Y-43384638D01*
X53578518Y-43377004D01*
X53585066Y-43369514D01*
X53591777Y-43362171D01*
X53598646Y-43354976D01*
X53605840Y-43348118D01*
X53613184Y-43341437D01*
X53620674Y-43334934D01*
X53628308Y-43328613D01*
X53636083Y-43322477D01*
X53643996Y-43316527D01*
X53652045Y-43310768D01*
X53660227Y-43305202D01*
X53668540Y-43299830D01*
X53676979Y-43294657D01*
X53685544Y-43289684D01*
X53694230Y-43284915D01*
X53703036Y-43280352D01*
X53711959Y-43275999D01*
X53720996Y-43271856D01*
X53730143Y-43267928D01*
X53739388Y-43264217D01*
X53748715Y-43260726D01*
X53758117Y-43257457D01*
X53767590Y-43254413D01*
X53777128Y-43251598D01*
X53786726Y-43249013D01*
X53796378Y-43246661D01*
X53806079Y-43244545D01*
X53815823Y-43242668D01*
X53825606Y-43241033D01*
X53835420Y-43239641D01*
X53845262Y-43238497D01*
X53855126Y-43237602D01*
X53865006Y-43236960D01*
X53874896Y-43236572D01*
X53884793Y-43236442D01*
X53894852Y-43236572D01*
G37*
G36*
X53316635Y-37492268D02*
G01*
X53322619Y-37492663D01*
X53328584Y-37493326D01*
X53334520Y-37494258D01*
X53340418Y-37495458D01*
X53346268Y-37496927D01*
X53352060Y-37498663D01*
X53357785Y-37500668D01*
X53363433Y-37502941D01*
X53368994Y-37505483D01*
X53374459Y-37508293D01*
X53379818Y-37511371D01*
X53385061Y-37514718D01*
X53390179Y-37518333D01*
X53395162Y-37522217D01*
X53400000Y-37526368D01*
X57003682Y-40769431D01*
X57003681Y-40769440D01*
X57011765Y-40777301D01*
X57018993Y-40785525D01*
X57025380Y-40794073D01*
X57030943Y-40802904D01*
X57035697Y-40811978D01*
X57039656Y-40821255D01*
X57042837Y-40830695D01*
X57045255Y-40840257D01*
X57046925Y-40849902D01*
X57047863Y-40859588D01*
X57048084Y-40869276D01*
X57047604Y-40878926D01*
X57046437Y-40888498D01*
X57044601Y-40897950D01*
X57042109Y-40907243D01*
X57038977Y-40916337D01*
X57035222Y-40925192D01*
X57030857Y-40933767D01*
X57025899Y-40942021D01*
X57020363Y-40949916D01*
X57014265Y-40957410D01*
X57007620Y-40964464D01*
X57000443Y-40971036D01*
X56992750Y-40977088D01*
X56984556Y-40982578D01*
X56975877Y-40987467D01*
X56966728Y-40991714D01*
X56957125Y-40995279D01*
X56947083Y-40998121D01*
X56936617Y-41000202D01*
X56925743Y-41001479D01*
X56914476Y-41001914D01*
X55903497Y-41001914D01*
X55903438Y-41001665D01*
X55903369Y-41001379D01*
X55903275Y-41001007D01*
X55686998Y-41001007D01*
X55682100Y-41000917D01*
X55677236Y-41000649D01*
X55672410Y-41000206D01*
X55667625Y-40999590D01*
X55662885Y-40998805D01*
X55658193Y-40997851D01*
X55653554Y-40996732D01*
X55648972Y-40995451D01*
X55644449Y-40994010D01*
X55639990Y-40992411D01*
X55635598Y-40990658D01*
X55631277Y-40988752D01*
X55627031Y-40986696D01*
X55622864Y-40984493D01*
X55618779Y-40982145D01*
X55614779Y-40979656D01*
X55610869Y-40977026D01*
X55607052Y-40974260D01*
X55603333Y-40971359D01*
X55599714Y-40968326D01*
X55596199Y-40965164D01*
X55592793Y-40961875D01*
X55589498Y-40958462D01*
X55586319Y-40954927D01*
X55583260Y-40951272D01*
X55580323Y-40947502D01*
X55577513Y-40943617D01*
X55574833Y-40939620D01*
X55572288Y-40935515D01*
X55569880Y-40931303D01*
X55567614Y-40926988D01*
X55565493Y-40922571D01*
X55549817Y-40889872D01*
X55531889Y-40855713D01*
X55511622Y-40820586D01*
X55488927Y-40784984D01*
X55463715Y-40749400D01*
X55435899Y-40714325D01*
X55405390Y-40680253D01*
X55372100Y-40647677D01*
X55335940Y-40617088D01*
X55316756Y-40602692D01*
X55296822Y-40588979D01*
X55276126Y-40576009D01*
X55254658Y-40563843D01*
X55232406Y-40552544D01*
X55209359Y-40542173D01*
X55185506Y-40532792D01*
X55160837Y-40524461D01*
X55135340Y-40517243D01*
X55109004Y-40511200D01*
X55081818Y-40506392D01*
X55053772Y-40502882D01*
X55024853Y-40500730D01*
X54995051Y-40500000D01*
X52818854Y-40500000D01*
X52775550Y-40501061D01*
X52733746Y-40504205D01*
X52693433Y-40509374D01*
X52654604Y-40516510D01*
X52617251Y-40525554D01*
X52581364Y-40536448D01*
X52546936Y-40549133D01*
X52513959Y-40563551D01*
X52482424Y-40579644D01*
X52452324Y-40597353D01*
X52423650Y-40616620D01*
X52396393Y-40637386D01*
X52370546Y-40659593D01*
X52346100Y-40683184D01*
X52323048Y-40708098D01*
X52301381Y-40734279D01*
X52281090Y-40761667D01*
X52262168Y-40790205D01*
X52244606Y-40819833D01*
X52228397Y-40850494D01*
X52213531Y-40882129D01*
X52200001Y-40914679D01*
X52176916Y-40982294D01*
X52159074Y-41052872D01*
X52146412Y-41125944D01*
X52138863Y-41201046D01*
X52136361Y-41277708D01*
X52152169Y-44026366D01*
X52152039Y-44033228D01*
X52151568Y-44040003D01*
X52150763Y-44046681D01*
X52149632Y-44053254D01*
X52148185Y-44059715D01*
X52146428Y-44066053D01*
X52144372Y-44072262D01*
X52142023Y-44078332D01*
X52139391Y-44084255D01*
X52136483Y-44090023D01*
X52133308Y-44095627D01*
X52129875Y-44101058D01*
X52126191Y-44106309D01*
X52122265Y-44111372D01*
X52118105Y-44116236D01*
X52113719Y-44120895D01*
X52109117Y-44125339D01*
X52104305Y-44129561D01*
X52099294Y-44133551D01*
X52094089Y-44137302D01*
X52088702Y-44140804D01*
X52083138Y-44144050D01*
X52077407Y-44147031D01*
X52071518Y-44149739D01*
X52065478Y-44152165D01*
X52059295Y-44154301D01*
X52052979Y-44156138D01*
X52046537Y-44157668D01*
X52039978Y-44158883D01*
X52033310Y-44159774D01*
X52026541Y-44160332D01*
X52019680Y-44160549D01*
X51569633Y-44163448D01*
X51569628Y-44163067D01*
X51569625Y-44162648D01*
X51569624Y-44161771D01*
X50696468Y-44162392D01*
X50689603Y-44162223D01*
X50682827Y-44161713D01*
X50676149Y-44160869D01*
X50669579Y-44159700D01*
X50663123Y-44158214D01*
X50656791Y-44156421D01*
X50650592Y-44154327D01*
X50644532Y-44151941D01*
X50638621Y-44149273D01*
X50632868Y-44146329D01*
X50627279Y-44143120D01*
X50621865Y-44139652D01*
X50616633Y-44135935D01*
X50611592Y-44131976D01*
X50606750Y-44127785D01*
X50602115Y-44123369D01*
X50597696Y-44118738D01*
X50593502Y-44113898D01*
X50589540Y-44108860D01*
X50585819Y-44103630D01*
X50582348Y-44098218D01*
X50579134Y-44092632D01*
X50576187Y-44086880D01*
X50573514Y-44080971D01*
X50571124Y-44074913D01*
X50569026Y-44068715D01*
X50567228Y-44062384D01*
X50565737Y-44055930D01*
X50564564Y-44049360D01*
X50563715Y-44042683D01*
X50563199Y-44035908D01*
X50563026Y-44029042D01*
X50563026Y-41135254D01*
X50562852Y-41128392D01*
X50562337Y-41121620D01*
X50561489Y-41114946D01*
X50560317Y-41108380D01*
X50558828Y-41101928D01*
X50557031Y-41095600D01*
X50554934Y-41089404D01*
X50552547Y-41083348D01*
X50549876Y-41077441D01*
X50546931Y-41071692D01*
X50543720Y-41066107D01*
X50540252Y-41060697D01*
X50536534Y-41055469D01*
X50532575Y-41050431D01*
X50528384Y-41045593D01*
X50523969Y-41040961D01*
X50519338Y-41036546D01*
X50514499Y-41032355D01*
X50509462Y-41028396D01*
X50504233Y-41024678D01*
X50498823Y-41021210D01*
X50493239Y-41017999D01*
X50487489Y-41015054D01*
X50481582Y-41012384D01*
X50475526Y-41009996D01*
X50469330Y-41007900D01*
X50463002Y-41006103D01*
X50456551Y-41004614D01*
X50449984Y-41003441D01*
X50443310Y-41002593D01*
X50436538Y-41002078D01*
X50429676Y-41001905D01*
X49724004Y-41001905D01*
X49712751Y-41001471D01*
X49701890Y-41000196D01*
X49691435Y-40998119D01*
X49681403Y-40995282D01*
X49671808Y-40991724D01*
X49662666Y-40987485D01*
X49653992Y-40982606D01*
X49645803Y-40977126D01*
X49638113Y-40971085D01*
X49630937Y-40964524D01*
X49624292Y-40957482D01*
X49618193Y-40950001D01*
X49612654Y-40942119D01*
X49607693Y-40933877D01*
X49603323Y-40925314D01*
X49599560Y-40916472D01*
X49596421Y-40907391D01*
X49593920Y-40898109D01*
X49592072Y-40888668D01*
X49590894Y-40879107D01*
X49590400Y-40869467D01*
X49590606Y-40859787D01*
X49591528Y-40850108D01*
X49593181Y-40840470D01*
X49595580Y-40830913D01*
X49598740Y-40821477D01*
X49602678Y-40812201D01*
X49607409Y-40803127D01*
X49612948Y-40794294D01*
X49619310Y-40785743D01*
X49626511Y-40777513D01*
X49634567Y-40769644D01*
X53221367Y-37526581D01*
X53226195Y-37522418D01*
X53231169Y-37518523D01*
X53236278Y-37514895D01*
X53241513Y-37511536D01*
X53246864Y-37508445D01*
X53252322Y-37505622D01*
X53257877Y-37503067D01*
X53263520Y-37500781D01*
X53269240Y-37498762D01*
X53275028Y-37497012D01*
X53280874Y-37495529D01*
X53286769Y-37494315D01*
X53292703Y-37493369D01*
X53298666Y-37492692D01*
X53304649Y-37492282D01*
X53310642Y-37492141D01*
X53316635Y-37492268D01*
G37*
G36*
X54906852Y-40807555D02*
G01*
X54916743Y-40807913D01*
X54926623Y-40808510D01*
X54936486Y-40809346D01*
X54946328Y-40810420D01*
X54956143Y-40811733D01*
X54965925Y-40813285D01*
X54975669Y-40815076D01*
X54985370Y-40817105D01*
X54995022Y-40819373D01*
X55004620Y-40821880D01*
X55014158Y-40824625D01*
X55023631Y-40827610D01*
X55033033Y-40830833D01*
X55042360Y-40834295D01*
X55051605Y-40837995D01*
X55060753Y-40841924D01*
X55069789Y-40846067D01*
X55078712Y-40850426D01*
X55087518Y-40854997D01*
X55096205Y-40859780D01*
X55104769Y-40864773D01*
X55113209Y-40869975D01*
X55121521Y-40875384D01*
X55129703Y-40881000D01*
X55137752Y-40886821D01*
X55145666Y-40892845D01*
X55153441Y-40899071D01*
X55161075Y-40905498D01*
X55168565Y-40912124D01*
X55175908Y-40918948D01*
X55183103Y-40925969D01*
X55190124Y-40933163D01*
X55196948Y-40940507D01*
X55203574Y-40947997D01*
X55210001Y-40955631D01*
X55216227Y-40963406D01*
X55222252Y-40971320D01*
X55228072Y-40979369D01*
X55233688Y-40987551D01*
X55239097Y-40995863D01*
X55244299Y-41004303D01*
X55249292Y-41012867D01*
X55254075Y-41021554D01*
X55258646Y-41030360D01*
X55263005Y-41039283D01*
X55267149Y-41048319D01*
X55271077Y-41057467D01*
X55274777Y-41066712D01*
X55278239Y-41076038D01*
X55281462Y-41085441D01*
X55284446Y-41094914D01*
X55287192Y-41104452D01*
X55289699Y-41114050D01*
X55291967Y-41123702D01*
X55293996Y-41133402D01*
X55295787Y-41143147D01*
X55297338Y-41152929D01*
X55298652Y-41162744D01*
X55299726Y-41172586D01*
X55300561Y-41182449D01*
X55301158Y-41192329D01*
X55301516Y-41202220D01*
X55301636Y-41212116D01*
X55301636Y-44450484D01*
X55301516Y-44460543D01*
X55301158Y-44470576D01*
X55300561Y-44480580D01*
X55299726Y-44490550D01*
X55298652Y-44500481D01*
X55297338Y-44510371D01*
X55295787Y-44520214D01*
X55293996Y-44530008D01*
X55291967Y-44539747D01*
X55289699Y-44549427D01*
X55287192Y-44559046D01*
X55284446Y-44568597D01*
X55281462Y-44578079D01*
X55278239Y-44587485D01*
X55274777Y-44596813D01*
X55271077Y-44606059D01*
X55267149Y-44615206D01*
X55263005Y-44624241D01*
X55258646Y-44633160D01*
X55254075Y-44641957D01*
X55249292Y-44650630D01*
X55244299Y-44659174D01*
X55239097Y-44667585D01*
X55233688Y-44675859D01*
X55228072Y-44683992D01*
X55222252Y-44691980D01*
X55216227Y-44699818D01*
X55210001Y-44707503D01*
X55203574Y-44715031D01*
X55196948Y-44722398D01*
X55190124Y-44729599D01*
X55183103Y-44736630D01*
X55175908Y-44743651D01*
X55168565Y-44750476D01*
X55161074Y-44757102D01*
X55153440Y-44763529D01*
X55145665Y-44769755D01*
X55137752Y-44775779D01*
X55129703Y-44781600D01*
X55121521Y-44787215D01*
X55113209Y-44792625D01*
X55104769Y-44797827D01*
X55096204Y-44802820D01*
X55087518Y-44807603D01*
X55078712Y-44812174D01*
X55069789Y-44816532D01*
X55060753Y-44820676D01*
X55051605Y-44824605D01*
X55042360Y-44828305D01*
X55033033Y-44831767D01*
X55023631Y-44834990D01*
X55014158Y-44837974D01*
X55004620Y-44840720D01*
X54995022Y-44843227D01*
X54985370Y-44845495D01*
X54975669Y-44847524D01*
X54965925Y-44849315D01*
X54956143Y-44850866D01*
X54946328Y-44852180D01*
X54936486Y-44853254D01*
X54926623Y-44854090D01*
X54916743Y-44854686D01*
X54906852Y-44855045D01*
X54896956Y-44855164D01*
X52872629Y-44855164D01*
X52862733Y-44855045D01*
X52852842Y-44854686D01*
X52842962Y-44854090D01*
X52833098Y-44853254D01*
X52823256Y-44852180D01*
X52813442Y-44850866D01*
X52803659Y-44849315D01*
X52793915Y-44847524D01*
X52784214Y-44845495D01*
X52774562Y-44843227D01*
X52764964Y-44840720D01*
X52755426Y-44837974D01*
X52745953Y-44834990D01*
X52736551Y-44831767D01*
X52727225Y-44828305D01*
X52717980Y-44824605D01*
X52708832Y-44820676D01*
X52699795Y-44816532D01*
X52690872Y-44812174D01*
X52682066Y-44807603D01*
X52673380Y-44802820D01*
X52664815Y-44797827D01*
X52656375Y-44792625D01*
X52648063Y-44787215D01*
X52639881Y-44781600D01*
X52631832Y-44775779D01*
X52623919Y-44769755D01*
X52616144Y-44763529D01*
X52608510Y-44757102D01*
X52601020Y-44750476D01*
X52593676Y-44743651D01*
X52586481Y-44736630D01*
X52579460Y-44729599D01*
X52572636Y-44722398D01*
X52566010Y-44715031D01*
X52559583Y-44707503D01*
X52553357Y-44699818D01*
X52547333Y-44691980D01*
X52541512Y-44683992D01*
X52535896Y-44675859D01*
X52530487Y-44667585D01*
X52525285Y-44659174D01*
X52520292Y-44650630D01*
X52515509Y-44641957D01*
X52510938Y-44633160D01*
X52506580Y-44624241D01*
X52502436Y-44615206D01*
X52498507Y-44606059D01*
X52494807Y-44596813D01*
X52491345Y-44587485D01*
X52488122Y-44578079D01*
X52485138Y-44568597D01*
X52482392Y-44559046D01*
X52479886Y-44549427D01*
X52477618Y-44539747D01*
X52475588Y-44530008D01*
X52473798Y-44520214D01*
X52472246Y-44510371D01*
X52470933Y-44500481D01*
X52469858Y-44490550D01*
X52469023Y-44480580D01*
X52468426Y-44470576D01*
X52468068Y-44460543D01*
X52467948Y-44450484D01*
X52467948Y-43642049D01*
X53075432Y-43642049D01*
X53075681Y-43661842D01*
X53076427Y-43681623D01*
X53077666Y-43701383D01*
X53079397Y-43721110D01*
X53081615Y-43740794D01*
X53084320Y-43760424D01*
X53087507Y-43779988D01*
X53091175Y-43799476D01*
X53095320Y-43818878D01*
X53099940Y-43838182D01*
X53105032Y-43857378D01*
X53110593Y-43876454D01*
X53116621Y-43895400D01*
X53123112Y-43914204D01*
X53130065Y-43932857D01*
X53137477Y-43951347D01*
X53145181Y-43969653D01*
X53153353Y-43987754D01*
X53161988Y-44005641D01*
X53171075Y-44023304D01*
X53180607Y-44040733D01*
X53190576Y-44057920D01*
X53200973Y-44074854D01*
X53211792Y-44091527D01*
X53223022Y-44107928D01*
X53234657Y-44124049D01*
X53246688Y-44139879D01*
X53259106Y-44155409D01*
X53271905Y-44170630D01*
X53285075Y-44185533D01*
X53298609Y-44200107D01*
X53312499Y-44214343D01*
X53326735Y-44228222D01*
X53341309Y-44241729D01*
X53356211Y-44254857D01*
X53371432Y-44267605D01*
X53386963Y-44279968D01*
X53402793Y-44291941D01*
X53418914Y-44303521D01*
X53435315Y-44314703D01*
X53451987Y-44325484D01*
X53468922Y-44335859D01*
X53486109Y-44345825D01*
X53503538Y-44355377D01*
X53521201Y-44364511D01*
X53539088Y-44373223D01*
X53557189Y-44381509D01*
X53575494Y-44389365D01*
X53593974Y-44396777D01*
X53612599Y-44403730D01*
X53631363Y-44410222D01*
X53650258Y-44416250D01*
X53669278Y-44421811D01*
X53688415Y-44426903D01*
X53707664Y-44431523D01*
X53727018Y-44435668D01*
X53746469Y-44439335D01*
X53766011Y-44442523D01*
X53785637Y-44445227D01*
X53805341Y-44447446D01*
X53825115Y-44449176D01*
X53844953Y-44450416D01*
X53864847Y-44451161D01*
X53884792Y-44451410D01*
X53904748Y-44451161D01*
X53924672Y-44450416D01*
X53944555Y-44449176D01*
X53964389Y-44447446D01*
X53984162Y-44445227D01*
X54003867Y-44442523D01*
X54023492Y-44439335D01*
X54043030Y-44435668D01*
X54062470Y-44431523D01*
X54081802Y-44426903D01*
X54101018Y-44421811D01*
X54120108Y-44416250D01*
X54139062Y-44410222D01*
X54157871Y-44403730D01*
X54176526Y-44396777D01*
X54195016Y-44389365D01*
X54213311Y-44381509D01*
X54231383Y-44373223D01*
X54249224Y-44364511D01*
X54266828Y-44355377D01*
X54284187Y-44345825D01*
X54301296Y-44335859D01*
X54318146Y-44325484D01*
X54334733Y-44314703D01*
X54351048Y-44303521D01*
X54367084Y-44291941D01*
X54382836Y-44279968D01*
X54398297Y-44267605D01*
X54413459Y-44254857D01*
X54428315Y-44241728D01*
X54442860Y-44228222D01*
X54457086Y-44214343D01*
X54471128Y-44200107D01*
X54484777Y-44185533D01*
X54498030Y-44170630D01*
X54510883Y-44155409D01*
X54523336Y-44139879D01*
X54535384Y-44124048D01*
X54547025Y-44107928D01*
X54558256Y-44091527D01*
X54569075Y-44074854D01*
X54579479Y-44057920D01*
X54589465Y-44040733D01*
X54599031Y-44023303D01*
X54608173Y-44005641D01*
X54616890Y-43987754D01*
X54625178Y-43969653D01*
X54633034Y-43951347D01*
X54640446Y-43932857D01*
X54647399Y-43914204D01*
X54653890Y-43895399D01*
X54659918Y-43876453D01*
X54665479Y-43857377D01*
X54670571Y-43838182D01*
X54675191Y-43818878D01*
X54679336Y-43799476D01*
X54683004Y-43779988D01*
X54686191Y-43760423D01*
X54688895Y-43740794D01*
X54691114Y-43721110D01*
X54692845Y-43701383D01*
X54694084Y-43681623D01*
X54694830Y-43661842D01*
X54695079Y-43642049D01*
X54694830Y-43622094D01*
X54694084Y-43602170D01*
X54692845Y-43582286D01*
X54691114Y-43562453D01*
X54688895Y-43542680D01*
X54686191Y-43522975D01*
X54683004Y-43503349D01*
X54679336Y-43483812D01*
X54675191Y-43464372D01*
X54670571Y-43445039D01*
X54665479Y-43425823D01*
X54659918Y-43406733D01*
X54653890Y-43387779D01*
X54647399Y-43368970D01*
X54640446Y-43350316D01*
X54633034Y-43331825D01*
X54625178Y-43313530D01*
X54616890Y-43295456D01*
X54608173Y-43277611D01*
X54599031Y-43259999D01*
X54589465Y-43242626D01*
X54579479Y-43225497D01*
X54569075Y-43208617D01*
X54558256Y-43191993D01*
X54547025Y-43175629D01*
X54535384Y-43159531D01*
X54523336Y-43143704D01*
X54510883Y-43128154D01*
X54498030Y-43112886D01*
X54484777Y-43097906D01*
X54471128Y-43083218D01*
X54457086Y-43068829D01*
X54442860Y-43054950D01*
X54428315Y-43041444D01*
X54413459Y-43028315D01*
X54398297Y-43015567D01*
X54382837Y-43003205D01*
X54367085Y-42991231D01*
X54351048Y-42979652D01*
X54334733Y-42968469D01*
X54318147Y-42957688D01*
X54301296Y-42947313D01*
X54284187Y-42937348D01*
X54266828Y-42927796D01*
X54249224Y-42918662D01*
X54231383Y-42909949D01*
X54213312Y-42901663D01*
X54195016Y-42893807D01*
X54176526Y-42886395D01*
X54157871Y-42879442D01*
X54139062Y-42872951D01*
X54120108Y-42866923D01*
X54101018Y-42861361D01*
X54081802Y-42856270D01*
X54062469Y-42851650D01*
X54043030Y-42847505D01*
X54023492Y-42843837D01*
X54003866Y-42840650D01*
X53984162Y-42837946D01*
X53964389Y-42835727D01*
X53944555Y-42833996D01*
X53924672Y-42832757D01*
X53904748Y-42832011D01*
X53884792Y-42831762D01*
X53864847Y-42832011D01*
X53844953Y-42832757D01*
X53825115Y-42833996D01*
X53805341Y-42835727D01*
X53785637Y-42837946D01*
X53766011Y-42840650D01*
X53746469Y-42843837D01*
X53727018Y-42847505D01*
X53707664Y-42851650D01*
X53688415Y-42856270D01*
X53669278Y-42861361D01*
X53650258Y-42866923D01*
X53631363Y-42872951D01*
X53612599Y-42879442D01*
X53593974Y-42886395D01*
X53575494Y-42893807D01*
X53557189Y-42901663D01*
X53539088Y-42909949D01*
X53521201Y-42918662D01*
X53503538Y-42927796D01*
X53486109Y-42937348D01*
X53468922Y-42947313D01*
X53451987Y-42957689D01*
X53435315Y-42968469D01*
X53418914Y-42979652D01*
X53402793Y-42991232D01*
X53386963Y-43003205D01*
X53371432Y-43015567D01*
X53356211Y-43028315D01*
X53341309Y-43041444D01*
X53326735Y-43054950D01*
X53312499Y-43068829D01*
X53298609Y-43083218D01*
X53285075Y-43097906D01*
X53271905Y-43112886D01*
X53259106Y-43128154D01*
X53246688Y-43143704D01*
X53234657Y-43159531D01*
X53223022Y-43175629D01*
X53211792Y-43191993D01*
X53200973Y-43208618D01*
X53190576Y-43225497D01*
X53180607Y-43242626D01*
X53171075Y-43259999D01*
X53161988Y-43277611D01*
X53153353Y-43295457D01*
X53145181Y-43313530D01*
X53137477Y-43331825D01*
X53130065Y-43350316D01*
X53123112Y-43368970D01*
X53116621Y-43387779D01*
X53110593Y-43406733D01*
X53105031Y-43425823D01*
X53099940Y-43445039D01*
X53095320Y-43464372D01*
X53091175Y-43483812D01*
X53087507Y-43503349D01*
X53084320Y-43522975D01*
X53081615Y-43542679D01*
X53079397Y-43562453D01*
X53077666Y-43582286D01*
X53076427Y-43602170D01*
X53075681Y-43622094D01*
X53075432Y-43642049D01*
X52467948Y-43642049D01*
X52467948Y-42293732D01*
X52467948Y-41345466D01*
X52872629Y-41345466D01*
X52872629Y-42293732D01*
X52872802Y-42300595D01*
X52873317Y-42307367D01*
X52874165Y-42314040D01*
X52875338Y-42320607D01*
X52876827Y-42327059D01*
X52878624Y-42333387D01*
X52880720Y-42339583D01*
X52883108Y-42345638D01*
X52885778Y-42351545D01*
X52888723Y-42357295D01*
X52891934Y-42362879D01*
X52895403Y-42368290D01*
X52899120Y-42373518D01*
X52903079Y-42378556D01*
X52907270Y-42383394D01*
X52911686Y-42388025D01*
X52916317Y-42392441D01*
X52921155Y-42396632D01*
X52926193Y-42400591D01*
X52931421Y-42404308D01*
X52936831Y-42407777D01*
X52942416Y-42410988D01*
X52948165Y-42413933D01*
X52954072Y-42416603D01*
X52960128Y-42418991D01*
X52966324Y-42421087D01*
X52972652Y-42422884D01*
X52979104Y-42424373D01*
X52985671Y-42425546D01*
X52992344Y-42426394D01*
X52999116Y-42426909D01*
X53005979Y-42427082D01*
X54763605Y-42427082D01*
X54770468Y-42426909D01*
X54777240Y-42426394D01*
X54783913Y-42425546D01*
X54790480Y-42424373D01*
X54796932Y-42422884D01*
X54803260Y-42421087D01*
X54809456Y-42418991D01*
X54815512Y-42416603D01*
X54821419Y-42413933D01*
X54827168Y-42410988D01*
X54832753Y-42407777D01*
X54838163Y-42404308D01*
X54843391Y-42400591D01*
X54848429Y-42396632D01*
X54853267Y-42392441D01*
X54857899Y-42388025D01*
X54862314Y-42383394D01*
X54866505Y-42378556D01*
X54870464Y-42373518D01*
X54874182Y-42368290D01*
X54877650Y-42362879D01*
X54880861Y-42357295D01*
X54883806Y-42351545D01*
X54886476Y-42345638D01*
X54888864Y-42339583D01*
X54890961Y-42333387D01*
X54892758Y-42327059D01*
X54894247Y-42320607D01*
X54895419Y-42314040D01*
X54896267Y-42307367D01*
X54896782Y-42300595D01*
X54896956Y-42293732D01*
X54896956Y-41345466D01*
X54896782Y-41338603D01*
X54896267Y-41331831D01*
X54895419Y-41325158D01*
X54894247Y-41318591D01*
X54892758Y-41312139D01*
X54890961Y-41305811D01*
X54888864Y-41299615D01*
X54886476Y-41293559D01*
X54883806Y-41287653D01*
X54880861Y-41281903D01*
X54877650Y-41276318D01*
X54874182Y-41270908D01*
X54870464Y-41265680D01*
X54866505Y-41260642D01*
X54862314Y-41255804D01*
X54857899Y-41251173D01*
X54853267Y-41246757D01*
X54848429Y-41242566D01*
X54843391Y-41238607D01*
X54838163Y-41234890D01*
X54832753Y-41231421D01*
X54827168Y-41228210D01*
X54821419Y-41225265D01*
X54815512Y-41222595D01*
X54809456Y-41220207D01*
X54803260Y-41218111D01*
X54796932Y-41216314D01*
X54790480Y-41214825D01*
X54783913Y-41213652D01*
X54777240Y-41212804D01*
X54770468Y-41212289D01*
X54763605Y-41212116D01*
X53005979Y-41212116D01*
X52999116Y-41212289D01*
X52992344Y-41212804D01*
X52985671Y-41213652D01*
X52979104Y-41214825D01*
X52972652Y-41216314D01*
X52966324Y-41218111D01*
X52960128Y-41220207D01*
X52954072Y-41222595D01*
X52948165Y-41225265D01*
X52942416Y-41228210D01*
X52936831Y-41231421D01*
X52931421Y-41234890D01*
X52926193Y-41238607D01*
X52921155Y-41242566D01*
X52916317Y-41246757D01*
X52911686Y-41251173D01*
X52907270Y-41255804D01*
X52903079Y-41260642D01*
X52899120Y-41265680D01*
X52895403Y-41270908D01*
X52891934Y-41276318D01*
X52888723Y-41281903D01*
X52885778Y-41287653D01*
X52883108Y-41293559D01*
X52880720Y-41299615D01*
X52878624Y-41305811D01*
X52876827Y-41312139D01*
X52875338Y-41318591D01*
X52874165Y-41325158D01*
X52873317Y-41331831D01*
X52872802Y-41338603D01*
X52872629Y-41345466D01*
X52467948Y-41345466D01*
X52467948Y-41212116D01*
X52468068Y-41202220D01*
X52468426Y-41192329D01*
X52469023Y-41182449D01*
X52469858Y-41172586D01*
X52470933Y-41162744D01*
X52472246Y-41152929D01*
X52473798Y-41143147D01*
X52475588Y-41133403D01*
X52477617Y-41123702D01*
X52479885Y-41114050D01*
X52482392Y-41104452D01*
X52485138Y-41094914D01*
X52488122Y-41085441D01*
X52491345Y-41076039D01*
X52494807Y-41066712D01*
X52498507Y-41057467D01*
X52502436Y-41048319D01*
X52506580Y-41039283D01*
X52510938Y-41030360D01*
X52515509Y-41021554D01*
X52520292Y-41012867D01*
X52525285Y-41004303D01*
X52530487Y-40995863D01*
X52535897Y-40987551D01*
X52541512Y-40979369D01*
X52547333Y-40971320D01*
X52553357Y-40963407D01*
X52559583Y-40955632D01*
X52566010Y-40947998D01*
X52572636Y-40940507D01*
X52579460Y-40933164D01*
X52586481Y-40925969D01*
X52593676Y-40918948D01*
X52601020Y-40912124D01*
X52608510Y-40905498D01*
X52616144Y-40899071D01*
X52623919Y-40892844D01*
X52631832Y-40886820D01*
X52639881Y-40881000D01*
X52648063Y-40875384D01*
X52656375Y-40869975D01*
X52664815Y-40864773D01*
X52673380Y-40859780D01*
X52682066Y-40854997D01*
X52690872Y-40850426D01*
X52699795Y-40846067D01*
X52708832Y-40841924D01*
X52717980Y-40837995D01*
X52727225Y-40834295D01*
X52736551Y-40830833D01*
X52745953Y-40827610D01*
X52755426Y-40824626D01*
X52764964Y-40821880D01*
X52774562Y-40819373D01*
X52784214Y-40817105D01*
X52793915Y-40815076D01*
X52803659Y-40813285D01*
X52813442Y-40811733D01*
X52823256Y-40810420D01*
X52833098Y-40809346D01*
X52842962Y-40808510D01*
X52852842Y-40807914D01*
X52862733Y-40807555D01*
X52872629Y-40807436D01*
X54896956Y-40807436D01*
X54906852Y-40807555D01*
G37*
D11*
X52750000Y-34800000D02*
X53950000Y-34800000D01*
X54500000Y-31575000D02*
G75*
G02*
X52200000Y-31575000I-1150000J0D01*
G01*
X52200000Y-31575000D02*
G75*
G02*
X54500000Y-31575000I1150000J0D01*
G01*
D12*
X53350000Y-33500000D02*
X53350000Y-33800000D01*
D11*
X53350000Y-34550000D02*
X53350000Y-34800000D01*
X54200000Y-33700000D02*
G75*
G02*
X52500000Y-33700000I-850000J0D01*
G01*
D13*
X59750000Y-31525000D02*
X59250000Y-31975000D01*
X59750000Y-31525000D02*
X60250000Y-31975000D01*
X59750000Y-33225000D02*
X59750000Y-31525000D01*
D14*
X45343571Y-139775472D02*
X45272142Y-139737377D01*
X45272142Y-139737377D02*
X45236428Y-139699281D01*
X45236428Y-139699281D02*
X45200714Y-139623091D01*
X45200714Y-139623091D02*
X45200714Y-139584996D01*
X45200714Y-139584996D02*
X45236428Y-139508805D01*
X45236428Y-139508805D02*
X45272142Y-139470710D01*
X45272142Y-139470710D02*
X45343571Y-139432615D01*
X45343571Y-139432615D02*
X45486428Y-139432615D01*
X45486428Y-139432615D02*
X45557857Y-139470710D01*
X45557857Y-139470710D02*
X45593571Y-139508805D01*
X45593571Y-139508805D02*
X45629285Y-139584996D01*
X45629285Y-139584996D02*
X45629285Y-139623091D01*
X45629285Y-139623091D02*
X45593571Y-139699281D01*
X45593571Y-139699281D02*
X45557857Y-139737377D01*
X45557857Y-139737377D02*
X45486428Y-139775472D01*
X45486428Y-139775472D02*
X45343571Y-139775472D01*
X45343571Y-139775472D02*
X45272142Y-139813567D01*
X45272142Y-139813567D02*
X45236428Y-139851662D01*
X45236428Y-139851662D02*
X45200714Y-139927853D01*
X45200714Y-139927853D02*
X45200714Y-140080234D01*
X45200714Y-140080234D02*
X45236428Y-140156424D01*
X45236428Y-140156424D02*
X45272142Y-140194520D01*
X45272142Y-140194520D02*
X45343571Y-140232615D01*
X45343571Y-140232615D02*
X45486428Y-140232615D01*
X45486428Y-140232615D02*
X45557857Y-140194520D01*
X45557857Y-140194520D02*
X45593571Y-140156424D01*
X45593571Y-140156424D02*
X45629285Y-140080234D01*
X45629285Y-140080234D02*
X45629285Y-139927853D01*
X45629285Y-139927853D02*
X45593571Y-139851662D01*
X45593571Y-139851662D02*
X45557857Y-139813567D01*
X45557857Y-139813567D02*
X45486428Y-139775472D01*
X45272142Y-142808525D02*
X45414999Y-142808525D01*
X45414999Y-142808525D02*
X45486428Y-142770430D01*
X45486428Y-142770430D02*
X45522142Y-142732334D01*
X45522142Y-142732334D02*
X45593571Y-142618049D01*
X45593571Y-142618049D02*
X45629285Y-142465668D01*
X45629285Y-142465668D02*
X45629285Y-142160906D01*
X45629285Y-142160906D02*
X45593571Y-142084715D01*
X45593571Y-142084715D02*
X45557857Y-142046620D01*
X45557857Y-142046620D02*
X45486428Y-142008525D01*
X45486428Y-142008525D02*
X45343571Y-142008525D01*
X45343571Y-142008525D02*
X45272142Y-142046620D01*
X45272142Y-142046620D02*
X45236428Y-142084715D01*
X45236428Y-142084715D02*
X45200714Y-142160906D01*
X45200714Y-142160906D02*
X45200714Y-142351382D01*
X45200714Y-142351382D02*
X45236428Y-142427572D01*
X45236428Y-142427572D02*
X45272142Y-142465668D01*
X45272142Y-142465668D02*
X45343571Y-142503763D01*
X45343571Y-142503763D02*
X45486428Y-142503763D01*
X45486428Y-142503763D02*
X45557857Y-142465668D01*
X45557857Y-142465668D02*
X45593571Y-142427572D01*
X45593571Y-142427572D02*
X45629285Y-142351382D01*
X45272142Y-145384435D02*
X44843571Y-145384435D01*
X45057856Y-145384435D02*
X45057856Y-144584435D01*
X45057856Y-144584435D02*
X44986428Y-144698720D01*
X44986428Y-144698720D02*
X44914999Y-144774911D01*
X44914999Y-144774911D02*
X44843571Y-144813006D01*
X45736428Y-144584435D02*
X45807857Y-144584435D01*
X45807857Y-144584435D02*
X45879285Y-144622530D01*
X45879285Y-144622530D02*
X45915000Y-144660625D01*
X45915000Y-144660625D02*
X45950714Y-144736816D01*
X45950714Y-144736816D02*
X45986428Y-144889197D01*
X45986428Y-144889197D02*
X45986428Y-145079673D01*
X45986428Y-145079673D02*
X45950714Y-145232054D01*
X45950714Y-145232054D02*
X45915000Y-145308244D01*
X45915000Y-145308244D02*
X45879285Y-145346340D01*
X45879285Y-145346340D02*
X45807857Y-145384435D01*
X45807857Y-145384435D02*
X45736428Y-145384435D01*
X45736428Y-145384435D02*
X45665000Y-145346340D01*
X45665000Y-145346340D02*
X45629285Y-145308244D01*
X45629285Y-145308244D02*
X45593571Y-145232054D01*
X45593571Y-145232054D02*
X45557857Y-145079673D01*
X45557857Y-145079673D02*
X45557857Y-144889197D01*
X45557857Y-144889197D02*
X45593571Y-144736816D01*
X45593571Y-144736816D02*
X45629285Y-144660625D01*
X45629285Y-144660625D02*
X45665000Y-144622530D01*
X45665000Y-144622530D02*
X45736428Y-144584435D01*
X45272142Y-147960345D02*
X44843571Y-147960345D01*
X45057856Y-147960345D02*
X45057856Y-147160345D01*
X45057856Y-147160345D02*
X44986428Y-147274630D01*
X44986428Y-147274630D02*
X44914999Y-147350821D01*
X44914999Y-147350821D02*
X44843571Y-147388916D01*
X45986428Y-147960345D02*
X45557857Y-147960345D01*
X45772142Y-147960345D02*
X45772142Y-147160345D01*
X45772142Y-147160345D02*
X45700714Y-147274630D01*
X45700714Y-147274630D02*
X45629285Y-147350821D01*
X45629285Y-147350821D02*
X45557857Y-147388916D01*
X45272142Y-150536255D02*
X44843571Y-150536255D01*
X45057856Y-150536255D02*
X45057856Y-149736255D01*
X45057856Y-149736255D02*
X44986428Y-149850540D01*
X44986428Y-149850540D02*
X44914999Y-149926731D01*
X44914999Y-149926731D02*
X44843571Y-149964826D01*
X45557857Y-149812445D02*
X45593571Y-149774350D01*
X45593571Y-149774350D02*
X45665000Y-149736255D01*
X45665000Y-149736255D02*
X45843571Y-149736255D01*
X45843571Y-149736255D02*
X45915000Y-149774350D01*
X45915000Y-149774350D02*
X45950714Y-149812445D01*
X45950714Y-149812445D02*
X45986428Y-149888636D01*
X45986428Y-149888636D02*
X45986428Y-149964826D01*
X45986428Y-149964826D02*
X45950714Y-150079112D01*
X45950714Y-150079112D02*
X45522142Y-150536255D01*
X45522142Y-150536255D02*
X45986428Y-150536255D01*
X44897144Y-152578831D02*
X44897144Y-153226450D01*
X44897144Y-153226450D02*
X44861429Y-153302641D01*
X44861429Y-153302641D02*
X44825715Y-153340736D01*
X44825715Y-153340736D02*
X44754286Y-153378831D01*
X44754286Y-153378831D02*
X44647144Y-153378831D01*
X44647144Y-153378831D02*
X44575715Y-153340736D01*
X44897144Y-153074070D02*
X44825715Y-153112165D01*
X44825715Y-153112165D02*
X44682858Y-153112165D01*
X44682858Y-153112165D02*
X44611429Y-153074070D01*
X44611429Y-153074070D02*
X44575715Y-153035974D01*
X44575715Y-153035974D02*
X44540001Y-152959784D01*
X44540001Y-152959784D02*
X44540001Y-152731212D01*
X44540001Y-152731212D02*
X44575715Y-152655022D01*
X44575715Y-152655022D02*
X44611429Y-152616927D01*
X44611429Y-152616927D02*
X44682858Y-152578831D01*
X44682858Y-152578831D02*
X44825715Y-152578831D01*
X44825715Y-152578831D02*
X44897144Y-152616927D01*
X45254286Y-152578831D02*
X45254286Y-153112165D01*
X45254286Y-152655022D02*
X45290000Y-152616927D01*
X45290000Y-152616927D02*
X45361429Y-152578831D01*
X45361429Y-152578831D02*
X45468572Y-152578831D01*
X45468572Y-152578831D02*
X45540000Y-152616927D01*
X45540000Y-152616927D02*
X45575715Y-152693117D01*
X45575715Y-152693117D02*
X45575715Y-153112165D01*
X46254286Y-153112165D02*
X46254286Y-152312165D01*
X46254286Y-153074070D02*
X46182857Y-153112165D01*
X46182857Y-153112165D02*
X46040000Y-153112165D01*
X46040000Y-153112165D02*
X45968571Y-153074070D01*
X45968571Y-153074070D02*
X45932857Y-153035974D01*
X45932857Y-153035974D02*
X45897143Y-152959784D01*
X45897143Y-152959784D02*
X45897143Y-152731212D01*
X45897143Y-152731212D02*
X45932857Y-152655022D01*
X45932857Y-152655022D02*
X45968571Y-152616927D01*
X45968571Y-152616927D02*
X46040000Y-152578831D01*
X46040000Y-152578831D02*
X46182857Y-152578831D01*
X46182857Y-152578831D02*
X46254286Y-152616927D01*
X44593571Y-155154741D02*
X44772143Y-155688075D01*
X44772143Y-155688075D02*
X44950714Y-155154741D01*
X45557858Y-155649980D02*
X45486429Y-155688075D01*
X45486429Y-155688075D02*
X45343572Y-155688075D01*
X45343572Y-155688075D02*
X45272143Y-155649980D01*
X45272143Y-155649980D02*
X45236429Y-155611884D01*
X45236429Y-155611884D02*
X45200715Y-155535694D01*
X45200715Y-155535694D02*
X45200715Y-155307122D01*
X45200715Y-155307122D02*
X45236429Y-155230932D01*
X45236429Y-155230932D02*
X45272143Y-155192837D01*
X45272143Y-155192837D02*
X45343572Y-155154741D01*
X45343572Y-155154741D02*
X45486429Y-155154741D01*
X45486429Y-155154741D02*
X45557858Y-155192837D01*
X46200715Y-155649980D02*
X46129286Y-155688075D01*
X46129286Y-155688075D02*
X45986429Y-155688075D01*
X45986429Y-155688075D02*
X45915000Y-155649980D01*
X45915000Y-155649980D02*
X45879286Y-155611884D01*
X45879286Y-155611884D02*
X45843572Y-155535694D01*
X45843572Y-155535694D02*
X45843572Y-155307122D01*
X45843572Y-155307122D02*
X45879286Y-155230932D01*
X45879286Y-155230932D02*
X45915000Y-155192837D01*
X45915000Y-155192837D02*
X45986429Y-155154741D01*
X45986429Y-155154741D02*
X46129286Y-155154741D01*
X46129286Y-155154741D02*
X46200715Y-155192837D01*
X66499999Y-139582615D02*
X66999999Y-139582615D01*
X66999999Y-139582615D02*
X66678571Y-140382615D01*
X66892857Y-142158525D02*
X66749999Y-142158525D01*
X66749999Y-142158525D02*
X66678571Y-142196620D01*
X66678571Y-142196620D02*
X66642857Y-142234715D01*
X66642857Y-142234715D02*
X66571428Y-142349001D01*
X66571428Y-142349001D02*
X66535714Y-142501382D01*
X66535714Y-142501382D02*
X66535714Y-142806144D01*
X66535714Y-142806144D02*
X66571428Y-142882334D01*
X66571428Y-142882334D02*
X66607142Y-142920430D01*
X66607142Y-142920430D02*
X66678571Y-142958525D01*
X66678571Y-142958525D02*
X66821428Y-142958525D01*
X66821428Y-142958525D02*
X66892857Y-142920430D01*
X66892857Y-142920430D02*
X66928571Y-142882334D01*
X66928571Y-142882334D02*
X66964285Y-142806144D01*
X66964285Y-142806144D02*
X66964285Y-142615668D01*
X66964285Y-142615668D02*
X66928571Y-142539477D01*
X66928571Y-142539477D02*
X66892857Y-142501382D01*
X66892857Y-142501382D02*
X66821428Y-142463287D01*
X66821428Y-142463287D02*
X66678571Y-142463287D01*
X66678571Y-142463287D02*
X66607142Y-142501382D01*
X66607142Y-142501382D02*
X66571428Y-142539477D01*
X66571428Y-142539477D02*
X66535714Y-142615668D01*
X66928571Y-144734435D02*
X66571428Y-144734435D01*
X66571428Y-144734435D02*
X66535714Y-145115387D01*
X66535714Y-145115387D02*
X66571428Y-145077292D01*
X66571428Y-145077292D02*
X66642857Y-145039197D01*
X66642857Y-145039197D02*
X66821428Y-145039197D01*
X66821428Y-145039197D02*
X66892857Y-145077292D01*
X66892857Y-145077292D02*
X66928571Y-145115387D01*
X66928571Y-145115387D02*
X66964285Y-145191578D01*
X66964285Y-145191578D02*
X66964285Y-145382054D01*
X66964285Y-145382054D02*
X66928571Y-145458244D01*
X66928571Y-145458244D02*
X66892857Y-145496340D01*
X66892857Y-145496340D02*
X66821428Y-145534435D01*
X66821428Y-145534435D02*
X66642857Y-145534435D01*
X66642857Y-145534435D02*
X66571428Y-145496340D01*
X66571428Y-145496340D02*
X66535714Y-145458244D01*
X66892857Y-147577011D02*
X66892857Y-148110345D01*
X66714285Y-147272250D02*
X66535714Y-147843678D01*
X66535714Y-147843678D02*
X66999999Y-147843678D01*
X66499999Y-149886255D02*
X66964285Y-149886255D01*
X66964285Y-149886255D02*
X66714285Y-150191017D01*
X66714285Y-150191017D02*
X66821428Y-150191017D01*
X66821428Y-150191017D02*
X66892857Y-150229112D01*
X66892857Y-150229112D02*
X66928571Y-150267207D01*
X66928571Y-150267207D02*
X66964285Y-150343398D01*
X66964285Y-150343398D02*
X66964285Y-150533874D01*
X66964285Y-150533874D02*
X66928571Y-150610064D01*
X66928571Y-150610064D02*
X66892857Y-150648160D01*
X66892857Y-150648160D02*
X66821428Y-150686255D01*
X66821428Y-150686255D02*
X66607142Y-150686255D01*
X66607142Y-150686255D02*
X66535714Y-150648160D01*
X66535714Y-150648160D02*
X66499999Y-150610064D01*
X66535714Y-152538355D02*
X66571428Y-152500260D01*
X66571428Y-152500260D02*
X66642857Y-152462165D01*
X66642857Y-152462165D02*
X66821428Y-152462165D01*
X66821428Y-152462165D02*
X66892857Y-152500260D01*
X66892857Y-152500260D02*
X66928571Y-152538355D01*
X66928571Y-152538355D02*
X66964285Y-152614546D01*
X66964285Y-152614546D02*
X66964285Y-152690736D01*
X66964285Y-152690736D02*
X66928571Y-152805022D01*
X66928571Y-152805022D02*
X66499999Y-153262165D01*
X66499999Y-153262165D02*
X66964285Y-153262165D01*
X66964285Y-155838075D02*
X66535714Y-155838075D01*
X66749999Y-155838075D02*
X66749999Y-155038075D01*
X66749999Y-155038075D02*
X66678571Y-155152360D01*
X66678571Y-155152360D02*
X66607142Y-155228551D01*
X66607142Y-155228551D02*
X66535714Y-155266646D01*
D15*
X50089761Y-138365935D02*
X50623095Y-139165935D01*
X50623095Y-138365935D02*
X50089761Y-139165935D01*
X50927857Y-139165935D02*
X50927857Y-138365935D01*
X51270713Y-138937363D02*
X51651666Y-138937363D01*
X51194523Y-139165935D02*
X51461190Y-138365935D01*
X51461190Y-138365935D02*
X51727856Y-139165935D01*
X52146904Y-138365935D02*
X52299285Y-138365935D01*
X52299285Y-138365935D02*
X52375475Y-138404030D01*
X52375475Y-138404030D02*
X52451666Y-138480220D01*
X52451666Y-138480220D02*
X52489761Y-138632601D01*
X52489761Y-138632601D02*
X52489761Y-138899268D01*
X52489761Y-138899268D02*
X52451666Y-139051649D01*
X52451666Y-139051649D02*
X52375475Y-139127840D01*
X52375475Y-139127840D02*
X52299285Y-139165935D01*
X52299285Y-139165935D02*
X52146904Y-139165935D01*
X52146904Y-139165935D02*
X52070713Y-139127840D01*
X52070713Y-139127840D02*
X51994523Y-139051649D01*
X51994523Y-139051649D02*
X51956427Y-138899268D01*
X51956427Y-138899268D02*
X51956427Y-138632601D01*
X51956427Y-138632601D02*
X51994523Y-138480220D01*
X51994523Y-138480220D02*
X52070713Y-138404030D01*
X52070713Y-138404030D02*
X52146904Y-138365935D01*
X52832618Y-138861173D02*
X53442142Y-138861173D01*
X53823094Y-138746887D02*
X54089760Y-138746887D01*
X54204046Y-139165935D02*
X53823094Y-139165935D01*
X53823094Y-139165935D02*
X53823094Y-138365935D01*
X53823094Y-138365935D02*
X54204046Y-138365935D01*
X54508808Y-139127840D02*
X54623094Y-139165935D01*
X54623094Y-139165935D02*
X54813570Y-139165935D01*
X54813570Y-139165935D02*
X54889761Y-139127840D01*
X54889761Y-139127840D02*
X54927856Y-139089744D01*
X54927856Y-139089744D02*
X54965951Y-139013554D01*
X54965951Y-139013554D02*
X54965951Y-138937363D01*
X54965951Y-138937363D02*
X54927856Y-138861173D01*
X54927856Y-138861173D02*
X54889761Y-138823078D01*
X54889761Y-138823078D02*
X54813570Y-138784982D01*
X54813570Y-138784982D02*
X54661189Y-138746887D01*
X54661189Y-138746887D02*
X54584999Y-138708792D01*
X54584999Y-138708792D02*
X54546904Y-138670697D01*
X54546904Y-138670697D02*
X54508808Y-138594506D01*
X54508808Y-138594506D02*
X54508808Y-138518316D01*
X54508808Y-138518316D02*
X54546904Y-138442125D01*
X54546904Y-138442125D02*
X54584999Y-138404030D01*
X54584999Y-138404030D02*
X54661189Y-138365935D01*
X54661189Y-138365935D02*
X54851666Y-138365935D01*
X54851666Y-138365935D02*
X54965951Y-138404030D01*
X55308809Y-139165935D02*
X55308809Y-138365935D01*
X55308809Y-138365935D02*
X55613571Y-138365935D01*
X55613571Y-138365935D02*
X55689761Y-138404030D01*
X55689761Y-138404030D02*
X55727856Y-138442125D01*
X55727856Y-138442125D02*
X55765952Y-138518316D01*
X55765952Y-138518316D02*
X55765952Y-138632601D01*
X55765952Y-138632601D02*
X55727856Y-138708792D01*
X55727856Y-138708792D02*
X55689761Y-138746887D01*
X55689761Y-138746887D02*
X55613571Y-138784982D01*
X55613571Y-138784982D02*
X55308809Y-138784982D01*
X56032618Y-138365935D02*
X56527856Y-138365935D01*
X56527856Y-138365935D02*
X56261190Y-138670697D01*
X56261190Y-138670697D02*
X56375475Y-138670697D01*
X56375475Y-138670697D02*
X56451666Y-138708792D01*
X56451666Y-138708792D02*
X56489761Y-138746887D01*
X56489761Y-138746887D02*
X56527856Y-138823078D01*
X56527856Y-138823078D02*
X56527856Y-139013554D01*
X56527856Y-139013554D02*
X56489761Y-139089744D01*
X56489761Y-139089744D02*
X56451666Y-139127840D01*
X56451666Y-139127840D02*
X56375475Y-139165935D01*
X56375475Y-139165935D02*
X56146904Y-139165935D01*
X56146904Y-139165935D02*
X56070713Y-139127840D01*
X56070713Y-139127840D02*
X56032618Y-139089744D01*
X56832618Y-138442125D02*
X56870714Y-138404030D01*
X56870714Y-138404030D02*
X56946904Y-138365935D01*
X56946904Y-138365935D02*
X57137380Y-138365935D01*
X57137380Y-138365935D02*
X57213571Y-138404030D01*
X57213571Y-138404030D02*
X57251666Y-138442125D01*
X57251666Y-138442125D02*
X57289761Y-138518316D01*
X57289761Y-138518316D02*
X57289761Y-138594506D01*
X57289761Y-138594506D02*
X57251666Y-138708792D01*
X57251666Y-138708792D02*
X56794523Y-139165935D01*
X56794523Y-139165935D02*
X57289761Y-139165935D01*
X57632619Y-138861173D02*
X58242143Y-138861173D01*
X59080238Y-139089744D02*
X59042142Y-139127840D01*
X59042142Y-139127840D02*
X58927857Y-139165935D01*
X58927857Y-139165935D02*
X58851666Y-139165935D01*
X58851666Y-139165935D02*
X58737380Y-139127840D01*
X58737380Y-139127840D02*
X58661190Y-139051649D01*
X58661190Y-139051649D02*
X58623095Y-138975459D01*
X58623095Y-138975459D02*
X58584999Y-138823078D01*
X58584999Y-138823078D02*
X58584999Y-138708792D01*
X58584999Y-138708792D02*
X58623095Y-138556411D01*
X58623095Y-138556411D02*
X58661190Y-138480220D01*
X58661190Y-138480220D02*
X58737380Y-138404030D01*
X58737380Y-138404030D02*
X58851666Y-138365935D01*
X58851666Y-138365935D02*
X58927857Y-138365935D01*
X58927857Y-138365935D02*
X59042142Y-138404030D01*
X59042142Y-138404030D02*
X59080238Y-138442125D01*
X59765952Y-138365935D02*
X59613571Y-138365935D01*
X59613571Y-138365935D02*
X59537380Y-138404030D01*
X59537380Y-138404030D02*
X59499285Y-138442125D01*
X59499285Y-138442125D02*
X59423095Y-138556411D01*
X59423095Y-138556411D02*
X59384999Y-138708792D01*
X59384999Y-138708792D02*
X59384999Y-139013554D01*
X59384999Y-139013554D02*
X59423095Y-139089744D01*
X59423095Y-139089744D02*
X59461190Y-139127840D01*
X59461190Y-139127840D02*
X59537380Y-139165935D01*
X59537380Y-139165935D02*
X59689761Y-139165935D01*
X59689761Y-139165935D02*
X59765952Y-139127840D01*
X59765952Y-139127840D02*
X59804047Y-139089744D01*
X59804047Y-139089744D02*
X59842142Y-139013554D01*
X59842142Y-139013554D02*
X59842142Y-138823078D01*
X59842142Y-138823078D02*
X59804047Y-138746887D01*
X59804047Y-138746887D02*
X59765952Y-138708792D01*
X59765952Y-138708792D02*
X59689761Y-138670697D01*
X59689761Y-138670697D02*
X59537380Y-138670697D01*
X59537380Y-138670697D02*
X59461190Y-138708792D01*
X59461190Y-138708792D02*
X59423095Y-138746887D01*
X59423095Y-138746887D02*
X59384999Y-138823078D01*
D16*
X58444807Y-34470238D02*
X58482902Y-34355952D01*
X58482902Y-34355952D02*
X58520998Y-34317857D01*
X58520998Y-34317857D02*
X58597188Y-34279761D01*
X58597188Y-34279761D02*
X58711474Y-34279761D01*
X58711474Y-34279761D02*
X58787664Y-34317857D01*
X58787664Y-34317857D02*
X58825760Y-34355952D01*
X58825760Y-34355952D02*
X58863855Y-34432142D01*
X58863855Y-34432142D02*
X58863855Y-34736904D01*
X58863855Y-34736904D02*
X58063855Y-34736904D01*
X58063855Y-34736904D02*
X58063855Y-34470238D01*
X58063855Y-34470238D02*
X58101950Y-34394047D01*
X58101950Y-34394047D02*
X58140045Y-34355952D01*
X58140045Y-34355952D02*
X58216236Y-34317857D01*
X58216236Y-34317857D02*
X58292426Y-34317857D01*
X58292426Y-34317857D02*
X58368617Y-34355952D01*
X58368617Y-34355952D02*
X58406712Y-34394047D01*
X58406712Y-34394047D02*
X58444807Y-34470238D01*
X58444807Y-34470238D02*
X58444807Y-34736904D01*
X58444807Y-33936904D02*
X58444807Y-33670238D01*
X58863855Y-33555952D02*
X58863855Y-33936904D01*
X58863855Y-33936904D02*
X58063855Y-33936904D01*
X58063855Y-33936904D02*
X58063855Y-33555952D01*
X58863855Y-33213094D02*
X58063855Y-33213094D01*
X58063855Y-33213094D02*
X58863855Y-32755951D01*
X58863855Y-32755951D02*
X58063855Y-32755951D01*
X58863855Y-32374999D02*
X58063855Y-32374999D01*
X58063855Y-32374999D02*
X58063855Y-32184523D01*
X58063855Y-32184523D02*
X58101950Y-32070237D01*
X58101950Y-32070237D02*
X58178140Y-31994047D01*
X58178140Y-31994047D02*
X58254331Y-31955952D01*
X58254331Y-31955952D02*
X58406712Y-31917856D01*
X58406712Y-31917856D02*
X58520998Y-31917856D01*
X58520998Y-31917856D02*
X58673379Y-31955952D01*
X58673379Y-31955952D02*
X58749569Y-31994047D01*
X58749569Y-31994047D02*
X58825760Y-32070237D01*
X58825760Y-32070237D02*
X58863855Y-32184523D01*
X58863855Y-32184523D02*
X58863855Y-32374999D01*
X58863855Y-30927380D02*
X58863855Y-30774999D01*
X58863855Y-30774999D02*
X58825760Y-30698809D01*
X58825760Y-30698809D02*
X58787664Y-30660713D01*
X58787664Y-30660713D02*
X58673379Y-30584523D01*
X58673379Y-30584523D02*
X58520998Y-30546428D01*
X58520998Y-30546428D02*
X58216236Y-30546428D01*
X58216236Y-30546428D02*
X58140045Y-30584523D01*
X58140045Y-30584523D02*
X58101950Y-30622618D01*
X58101950Y-30622618D02*
X58063855Y-30698809D01*
X58063855Y-30698809D02*
X58063855Y-30851190D01*
X58063855Y-30851190D02*
X58101950Y-30927380D01*
X58101950Y-30927380D02*
X58140045Y-30965475D01*
X58140045Y-30965475D02*
X58216236Y-31003571D01*
X58216236Y-31003571D02*
X58406712Y-31003571D01*
X58406712Y-31003571D02*
X58482902Y-30965475D01*
X58482902Y-30965475D02*
X58520998Y-30927380D01*
X58520998Y-30927380D02*
X58559093Y-30851190D01*
X58559093Y-30851190D02*
X58559093Y-30698809D01*
X58559093Y-30698809D02*
X58520998Y-30622618D01*
X58520998Y-30622618D02*
X58482902Y-30584523D01*
X58482902Y-30584523D02*
X58406712Y-30546428D01*
X58063855Y-30051189D02*
X58063855Y-29974999D01*
X58063855Y-29974999D02*
X58101950Y-29898808D01*
X58101950Y-29898808D02*
X58140045Y-29860713D01*
X58140045Y-29860713D02*
X58216236Y-29822618D01*
X58216236Y-29822618D02*
X58368617Y-29784523D01*
X58368617Y-29784523D02*
X58559093Y-29784523D01*
X58559093Y-29784523D02*
X58711474Y-29822618D01*
X58711474Y-29822618D02*
X58787664Y-29860713D01*
X58787664Y-29860713D02*
X58825760Y-29898808D01*
X58825760Y-29898808D02*
X58863855Y-29974999D01*
X58863855Y-29974999D02*
X58863855Y-30051189D01*
X58863855Y-30051189D02*
X58825760Y-30127380D01*
X58825760Y-30127380D02*
X58787664Y-30165475D01*
X58787664Y-30165475D02*
X58711474Y-30203570D01*
X58711474Y-30203570D02*
X58559093Y-30241666D01*
X58559093Y-30241666D02*
X58368617Y-30241666D01*
X58368617Y-30241666D02*
X58216236Y-30203570D01*
X58216236Y-30203570D02*
X58140045Y-30165475D01*
X58140045Y-30165475D02*
X58101950Y-30127380D01*
X58101950Y-30127380D02*
X58063855Y-30051189D01*
X58063855Y-29327380D02*
X58101950Y-29403570D01*
X58101950Y-29403570D02*
X58178140Y-29441665D01*
X58178140Y-29441665D02*
X58254331Y-29403570D01*
X58254331Y-29403570D02*
X58292426Y-29327380D01*
X58292426Y-29327380D02*
X58254331Y-29251189D01*
X58254331Y-29251189D02*
X58178140Y-29213094D01*
X58178140Y-29213094D02*
X58101950Y-29251189D01*
X58101950Y-29251189D02*
X58063855Y-29327380D01*
D17*
G36*
X46210830Y-47250000D02*
G01*
X45826099Y-47250000D01*
X45826099Y-46678746D01*
X45820042Y-46539711D01*
X45810492Y-46475283D01*
X45797669Y-46437678D01*
X45773258Y-46403879D01*
X45740809Y-46381808D01*
X45700076Y-46369570D01*
X45641451Y-46364863D01*
X45594668Y-46368876D01*
X45546294Y-46381258D01*
X45498379Y-46401625D01*
X45443615Y-46433557D01*
X45443615Y-47250000D01*
X45061033Y-47250000D01*
X45061033Y-45655582D01*
X45443615Y-45655582D01*
X45443615Y-46224912D01*
X45538895Y-46156592D01*
X45626601Y-46107950D01*
X45719497Y-46076633D01*
X45823949Y-46065910D01*
X45916564Y-46073590D01*
X45993457Y-46095199D01*
X46057680Y-46129641D01*
X46111374Y-46177285D01*
X46152408Y-46234731D01*
X46183446Y-46305676D01*
X46203556Y-46392942D01*
X46210830Y-46499960D01*
X46210830Y-47250000D01*
G37*
G36*
X47160646Y-46073244D02*
G01*
X47266088Y-46094069D01*
X47357602Y-46127153D01*
X47437228Y-46172013D01*
X47506490Y-46228942D01*
X47564404Y-46296325D01*
X47610178Y-46373165D01*
X47643965Y-46460835D01*
X47665209Y-46561108D01*
X47672672Y-46676090D01*
X47661182Y-46816867D01*
X47628770Y-46935728D01*
X47577330Y-47036504D01*
X47507076Y-47122138D01*
X47438022Y-47179015D01*
X47358470Y-47223865D01*
X47266873Y-47256967D01*
X47161154Y-47277822D01*
X47038813Y-47285170D01*
X46917448Y-47277853D01*
X46812242Y-47257056D01*
X46720773Y-47223991D01*
X46641034Y-47179120D01*
X46571528Y-47122138D01*
X46513382Y-47054712D01*
X46467465Y-46977938D01*
X46433602Y-46890467D01*
X46412327Y-46790545D01*
X46404989Y-46678105D01*
X46797208Y-46678105D01*
X46802415Y-46777906D01*
X46815771Y-46847640D01*
X46838153Y-46908035D01*
X46863838Y-46950863D01*
X46898534Y-46985433D01*
X46940335Y-47008932D01*
X46988022Y-47022544D01*
X47042037Y-47027250D01*
X47087704Y-47022795D01*
X47135436Y-47008932D01*
X47178521Y-46985821D01*
X47211444Y-46953977D01*
X47240716Y-46906828D01*
X47262833Y-46848647D01*
X47275317Y-46781088D01*
X47280321Y-46678105D01*
X47275339Y-46580574D01*
X47262247Y-46508570D01*
X47239765Y-46445350D01*
X47212519Y-46400218D01*
X47175503Y-46363182D01*
X47136022Y-46340683D01*
X47091432Y-46328221D01*
X47038813Y-46323831D01*
X46989035Y-46327650D01*
X46945806Y-46338577D01*
X46907110Y-46359207D01*
X46869309Y-46395088D01*
X46841066Y-46439606D01*
X46816845Y-46503990D01*
X46802626Y-46577769D01*
X46797208Y-46678105D01*
X46404989Y-46678105D01*
X46404857Y-46676090D01*
X46412373Y-46560128D01*
X46433737Y-46459338D01*
X46467658Y-46371534D01*
X46513544Y-46294874D01*
X46571528Y-46227935D01*
X46640975Y-46171345D01*
X46720681Y-46126753D01*
X46812149Y-46093876D01*
X46917386Y-46073191D01*
X47038813Y-46065910D01*
X47160646Y-46073244D01*
G37*
G36*
X49343098Y-47250000D02*
G01*
X49343098Y-46674624D01*
X49339776Y-46531010D01*
X49332752Y-46475569D01*
X49320139Y-46435663D01*
X49298912Y-46403432D01*
X49269239Y-46381808D01*
X49230880Y-46369645D01*
X49172617Y-46364863D01*
X49129483Y-46369281D01*
X49086252Y-46382815D01*
X48993342Y-46433557D01*
X48993342Y-47250000D01*
X48608611Y-47250000D01*
X48608611Y-46674624D01*
X48604801Y-46531559D01*
X48597309Y-46475628D01*
X48584578Y-46435663D01*
X48563350Y-46403432D01*
X48533677Y-46381808D01*
X48495441Y-46369624D01*
X48438130Y-46364863D01*
X48392012Y-46369917D01*
X48346294Y-46385380D01*
X48258855Y-46433557D01*
X48258855Y-47250000D01*
X47876273Y-47250000D01*
X47876273Y-46101081D01*
X48258855Y-46101081D01*
X48258855Y-46224912D01*
X48353238Y-46156149D01*
X48435882Y-46107950D01*
X48523024Y-46076670D01*
X48622777Y-46065910D01*
X48696245Y-46071739D01*
X48761664Y-46088609D01*
X48820516Y-46116194D01*
X48871965Y-46154343D01*
X48915245Y-46203701D01*
X48950649Y-46266037D01*
X49061955Y-46177865D01*
X49158841Y-46117751D01*
X49225773Y-46088471D01*
X49291604Y-46071487D01*
X49357264Y-46065910D01*
X49439636Y-46072572D01*
X49510258Y-46091556D01*
X49572953Y-46123677D01*
X49625052Y-46168492D01*
X49669601Y-46228461D01*
X49702135Y-46300383D01*
X49720652Y-46382813D01*
X49727829Y-46499960D01*
X49727829Y-47250000D01*
X49343098Y-47250000D01*
G37*
G36*
X50718627Y-46076130D02*
G01*
X50833146Y-46104488D01*
X50926244Y-46148765D01*
X51001702Y-46208517D01*
X51061144Y-46283058D01*
X51105379Y-46373596D01*
X51133689Y-46483409D01*
X51143852Y-46616647D01*
X51143852Y-46745882D01*
X50305610Y-46745882D01*
X50317992Y-46820758D01*
X50341661Y-46878140D01*
X50377487Y-46926163D01*
X50422554Y-46962678D01*
X50474933Y-46989264D01*
X50537250Y-47007741D01*
X50604584Y-47017852D01*
X50680474Y-47021388D01*
X50746700Y-47017855D01*
X50811681Y-47007283D01*
X50874296Y-46990683D01*
X50929700Y-46970189D01*
X51016552Y-46927324D01*
X51081619Y-46886566D01*
X51122065Y-46886566D01*
X51122065Y-47183688D01*
X51036287Y-47216111D01*
X50929700Y-47246427D01*
X50801228Y-47270516D01*
X50640028Y-47279309D01*
X50497355Y-47272053D01*
X50375485Y-47251632D01*
X50271459Y-47219632D01*
X50182717Y-47177014D01*
X50107187Y-47124062D01*
X50042230Y-47058795D01*
X49991273Y-46983642D01*
X49953803Y-46897160D01*
X49930248Y-46797352D01*
X49921954Y-46681769D01*
X49929573Y-46568776D01*
X49938285Y-46528995D01*
X50304438Y-46528995D01*
X50766839Y-46528995D01*
X50758113Y-46454025D01*
X50738743Y-46397159D01*
X50710467Y-46354422D01*
X50670874Y-46322258D01*
X50618191Y-46301948D01*
X50548192Y-46294521D01*
X50476762Y-46302089D01*
X50419726Y-46323288D01*
X50373803Y-46357536D01*
X50339211Y-46402778D01*
X50315811Y-46459011D01*
X50304438Y-46528995D01*
X49938285Y-46528995D01*
X49951376Y-46469213D01*
X49986280Y-46381146D01*
X50033904Y-46302960D01*
X50094585Y-46233430D01*
X50166552Y-46174895D01*
X50249057Y-46128784D01*
X50343641Y-46094801D01*
X50452360Y-46073429D01*
X50577697Y-46065910D01*
X50718627Y-46076130D01*
G37*
G36*
X51674738Y-47250000D02*
G01*
X51674738Y-46013154D01*
X51193775Y-46013154D01*
X51193775Y-45725924D01*
X52564368Y-45725924D01*
X52564368Y-46013154D01*
X52083503Y-46013154D01*
X52083503Y-47250000D01*
X51674738Y-47250000D01*
G37*
G36*
X53860907Y-47250000D02*
G01*
X53476176Y-47250000D01*
X53476176Y-46678746D01*
X53470118Y-46539711D01*
X53460569Y-46475283D01*
X53447746Y-46437678D01*
X53423335Y-46403879D01*
X53390886Y-46381808D01*
X53350153Y-46369570D01*
X53291528Y-46364863D01*
X53244745Y-46368876D01*
X53196371Y-46381258D01*
X53148455Y-46401625D01*
X53093691Y-46433557D01*
X53093691Y-47250000D01*
X52711109Y-47250000D01*
X52711109Y-45655582D01*
X53093691Y-45655582D01*
X53093691Y-46224912D01*
X53188972Y-46156592D01*
X53276678Y-46107950D01*
X53369574Y-46076633D01*
X53474026Y-46065910D01*
X53566641Y-46073590D01*
X53643534Y-46095199D01*
X53707757Y-46129641D01*
X53761451Y-46177285D01*
X53802485Y-46234731D01*
X53833522Y-46305676D01*
X53853633Y-46392942D01*
X53860907Y-46499960D01*
X53860907Y-47250000D01*
G37*
G36*
X54527104Y-47250000D02*
G01*
X54144522Y-47250000D01*
X54144522Y-46101081D01*
X54527104Y-46101081D01*
X54527104Y-47250000D01*
G37*
G36*
X54538046Y-45936950D02*
G01*
X54133580Y-45936950D01*
X54133580Y-45655582D01*
X54538046Y-45655582D01*
X54538046Y-45936950D01*
G37*
G36*
X55969602Y-47250000D02*
G01*
X55584871Y-47250000D01*
X55584871Y-46678746D01*
X55578813Y-46539711D01*
X55569264Y-46475283D01*
X55556441Y-46437678D01*
X55532030Y-46403879D01*
X55499581Y-46381808D01*
X55458848Y-46369570D01*
X55400223Y-46364863D01*
X55353440Y-46368876D01*
X55305066Y-46381258D01*
X55257150Y-46401625D01*
X55202386Y-46433557D01*
X55202386Y-47250000D01*
X54819804Y-47250000D01*
X54819804Y-46101081D01*
X55202386Y-46101081D01*
X55202386Y-46224912D01*
X55297667Y-46156592D01*
X55385373Y-46107950D01*
X55478269Y-46076633D01*
X55582721Y-46065910D01*
X55675336Y-46073590D01*
X55752229Y-46095199D01*
X55816452Y-46129641D01*
X55870146Y-46177285D01*
X55911180Y-46234731D01*
X55942218Y-46305676D01*
X55962328Y-46392942D01*
X55969602Y-46499960D01*
X55969602Y-47250000D01*
G37*
G36*
X56771581Y-46072254D02*
G01*
X56848876Y-46090182D01*
X56920527Y-46118130D01*
X56984480Y-46152372D01*
X56998646Y-46101081D01*
X57369211Y-46101081D01*
X57369211Y-47118658D01*
X57363182Y-47224547D01*
X57346294Y-47314184D01*
X57319972Y-47389951D01*
X57281905Y-47460861D01*
X57237086Y-47518265D01*
X57185541Y-47563974D01*
X57093383Y-47617917D01*
X56981158Y-47655565D01*
X56858334Y-47676416D01*
X56716692Y-47683775D01*
X56595963Y-47679996D01*
X56484368Y-47669029D01*
X56293663Y-47635048D01*
X56293663Y-47349651D01*
X56338506Y-47349651D01*
X56405722Y-47370167D01*
X56483880Y-47390775D01*
X56575617Y-47407536D01*
X56667453Y-47414131D01*
X56760508Y-47408980D01*
X56829728Y-47395355D01*
X56888762Y-47371521D01*
X56927620Y-47342049D01*
X56955268Y-47303618D01*
X56973440Y-47258151D01*
X56982980Y-47206652D01*
X56986629Y-47136060D01*
X56986629Y-47114536D01*
X56917652Y-47162277D01*
X56837446Y-47200174D01*
X56751295Y-47224391D01*
X56663056Y-47232414D01*
X56546017Y-47222488D01*
X56447973Y-47194431D01*
X56365229Y-47149452D01*
X56295227Y-47086876D01*
X56242584Y-47012002D01*
X56202128Y-46916508D01*
X56175519Y-46795725D01*
X56166360Y-46653101D01*
X56557055Y-46653101D01*
X56559888Y-46725254D01*
X56567411Y-46780046D01*
X56582557Y-46829460D01*
X56606197Y-46871912D01*
X56637835Y-46906237D01*
X56677809Y-46930988D01*
X56725746Y-46945581D01*
X56790942Y-46951046D01*
X56841760Y-46946973D01*
X56892058Y-46934651D01*
X56940261Y-46914722D01*
X56986629Y-46887299D01*
X56986629Y-46364314D01*
X56916678Y-46343797D01*
X56833635Y-46335554D01*
X56746124Y-46345679D01*
X56678670Y-46373808D01*
X56626420Y-46419360D01*
X56589639Y-46478600D01*
X56565791Y-46554968D01*
X56557055Y-46653101D01*
X56166360Y-46653101D01*
X56165778Y-46644033D01*
X56176178Y-46513047D01*
X56205638Y-46401133D01*
X56254191Y-46300072D01*
X56316622Y-46217585D01*
X56391322Y-46153300D01*
X56480558Y-46105386D01*
X56578833Y-46075752D01*
X56680642Y-46065910D01*
X56771581Y-46072254D01*
G37*
G36*
X58360056Y-46716573D02*
G01*
X57635436Y-46716573D01*
X57635436Y-46435205D01*
X58360056Y-46435205D01*
X58360056Y-46716573D01*
G37*
G36*
X59228388Y-47279309D02*
G01*
X59080426Y-47270038D01*
X58950146Y-47243497D01*
X58868654Y-47214791D01*
X58795925Y-47177891D01*
X58731012Y-47132763D01*
X58674890Y-47079231D01*
X58627247Y-47016890D01*
X58587885Y-46944726D01*
X58560165Y-46867741D01*
X58542662Y-46779361D01*
X58536497Y-46677739D01*
X58543274Y-46568581D01*
X58562323Y-46475795D01*
X58592184Y-46396920D01*
X58634482Y-46323189D01*
X58684704Y-46260017D01*
X58743028Y-46206319D01*
X58807055Y-46163111D01*
X58878717Y-46127757D01*
X58958939Y-46100257D01*
X59085006Y-46074576D01*
X59217446Y-46065910D01*
X59318735Y-46071372D01*
X59420656Y-46087892D01*
X59521425Y-46115966D01*
X59625136Y-46157868D01*
X59625136Y-46464515D01*
X59575994Y-46464515D01*
X59519623Y-46419635D01*
X59446936Y-46374847D01*
X59352952Y-46338668D01*
X59298681Y-46327694D01*
X59236008Y-46323831D01*
X59164547Y-46330269D01*
X59104292Y-46348564D01*
X59052990Y-46378141D01*
X59009155Y-46419726D01*
X58966159Y-46487502D01*
X58938749Y-46572057D01*
X58928848Y-46677739D01*
X58935182Y-46765453D01*
X58952582Y-46835736D01*
X58979312Y-46891820D01*
X59014626Y-46936300D01*
X59077005Y-46982964D01*
X59151762Y-47011389D01*
X59242554Y-47021388D01*
X59312193Y-47017257D01*
X59369267Y-47005818D01*
X59421508Y-46988051D01*
X59463349Y-46968265D01*
X59528904Y-46922928D01*
X59575994Y-46880704D01*
X59625136Y-46880704D01*
X59625136Y-47189733D01*
X59549127Y-47220599D01*
X59461200Y-47249450D01*
X59356762Y-47271523D01*
X59228388Y-47279309D01*
G37*
G36*
X60763112Y-45706415D02*
G01*
X60873021Y-45722444D01*
X60873021Y-46024877D01*
X60843517Y-46024877D01*
X60749532Y-45994836D01*
X60681383Y-45982433D01*
X60599762Y-45977983D01*
X60504190Y-45984637D01*
X60424996Y-46003240D01*
X60359261Y-46032454D01*
X60304717Y-46071955D01*
X60246531Y-46140251D01*
X60203460Y-46228480D01*
X60176832Y-46341508D01*
X60258068Y-46297849D01*
X60339106Y-46264663D01*
X60425064Y-46243393D01*
X60525513Y-46235903D01*
X60611166Y-46241533D01*
X60689937Y-46257977D01*
X60763389Y-46285320D01*
X60827201Y-46322090D01*
X60878826Y-46365978D01*
X60923373Y-46418604D01*
X60961046Y-46481001D01*
X60987371Y-46548291D01*
X61004542Y-46631333D01*
X61010774Y-46733334D01*
X60999998Y-46851690D01*
X60968989Y-46955578D01*
X60918555Y-47047646D01*
X60847913Y-47129832D01*
X60761705Y-47196088D01*
X60660577Y-47244265D01*
X60541601Y-47274482D01*
X60400851Y-47285170D01*
X60263582Y-47275118D01*
X60147229Y-47246702D01*
X60075860Y-47216590D01*
X60013152Y-47178846D01*
X59958185Y-47133312D01*
X59902472Y-47070601D01*
X59855004Y-46995293D01*
X59816036Y-46905525D01*
X59789778Y-46811371D01*
X59772906Y-46700993D01*
X59769599Y-46630020D01*
X60172435Y-46630020D01*
X60179327Y-46755903D01*
X60196957Y-46843152D01*
X60226538Y-46917516D01*
X60258799Y-46965151D01*
X60289800Y-46994033D01*
X60323768Y-47012779D01*
X60361276Y-47023617D01*
X60400851Y-47027250D01*
X60433947Y-47023611D01*
X60471877Y-47011771D01*
X60507119Y-46992367D01*
X60536455Y-46965151D01*
X60564473Y-46926183D01*
X60585010Y-46884002D01*
X60597011Y-46834311D01*
X60602009Y-46751011D01*
X60596597Y-46680125D01*
X60582275Y-46628005D01*
X60557995Y-46583522D01*
X60526587Y-46550335D01*
X60488058Y-46525920D01*
X60444619Y-46510585D01*
X60347313Y-46499685D01*
X60259288Y-46510035D01*
X60174585Y-46535864D01*
X60173510Y-46570027D01*
X60172435Y-46630020D01*
X59769599Y-46630020D01*
X59766894Y-46571951D01*
X59772394Y-46438140D01*
X59788060Y-46319654D01*
X59812812Y-46214837D01*
X59850250Y-46113984D01*
X59900116Y-46022304D01*
X59962582Y-45938782D01*
X60034455Y-45869407D01*
X60120540Y-45810146D01*
X60222651Y-45760820D01*
X60331871Y-45726225D01*
X60457772Y-45704338D01*
X60603084Y-45696615D01*
X60763112Y-45706415D01*
G37*
G36*
X51997237Y-48245924D02*
G01*
X51437628Y-49770000D01*
X51011375Y-49770000D01*
X50451766Y-48245924D01*
X50875869Y-48245924D01*
X51229923Y-49278705D01*
X51584076Y-48245924D01*
X51997237Y-48245924D01*
G37*
G36*
X52809984Y-48223008D02*
G01*
X52906721Y-48240793D01*
X52986909Y-48268364D01*
X53060501Y-48308446D01*
X53124529Y-48359560D01*
X53179861Y-48422603D01*
X53223492Y-48492202D01*
X53259591Y-48574255D01*
X53287523Y-48670632D01*
X53311974Y-48823867D01*
X53320838Y-49009885D01*
X53311763Y-49201367D01*
X53286937Y-49356283D01*
X53258597Y-49453345D01*
X53222320Y-49535350D01*
X53178786Y-49604311D01*
X53124193Y-49665200D01*
X53060029Y-49715003D01*
X52985248Y-49754429D01*
X52904070Y-49781575D01*
X52807744Y-49798962D01*
X52693524Y-49805170D01*
X52579976Y-49798976D01*
X52483916Y-49781601D01*
X52402680Y-49754429D01*
X52328054Y-49714910D01*
X52263538Y-49664447D01*
X52208165Y-49602205D01*
X52164519Y-49532690D01*
X52128262Y-49450809D01*
X52100014Y-49354726D01*
X52075200Y-49201298D01*
X52066161Y-49011900D01*
X52475953Y-49011900D01*
X52483199Y-49200451D01*
X52501433Y-49326953D01*
X52526169Y-49407390D01*
X52557261Y-49460585D01*
X52594794Y-49495817D01*
X52639419Y-49516598D01*
X52693524Y-49523803D01*
X52747577Y-49516599D01*
X52792152Y-49495822D01*
X52829639Y-49460592D01*
X52860684Y-49407390D01*
X52885441Y-49326908D01*
X52903724Y-49199838D01*
X52910998Y-49009885D01*
X52903761Y-48818429D01*
X52885649Y-48691625D01*
X52861270Y-48612380D01*
X52830562Y-48560334D01*
X52793141Y-48525686D01*
X52748282Y-48505137D01*
X52693524Y-48497983D01*
X52639271Y-48505105D01*
X52594610Y-48525606D01*
X52557142Y-48560254D01*
X52526169Y-48612380D01*
X52501574Y-48691685D01*
X52483274Y-48819052D01*
X52475953Y-49011900D01*
X52066161Y-49011900D01*
X52066113Y-49010893D01*
X52075172Y-48815409D01*
X52099428Y-48664495D01*
X52127409Y-48570992D01*
X52164536Y-48489116D01*
X52210412Y-48417474D01*
X52266516Y-48355345D01*
X52331739Y-48305253D01*
X52407076Y-48266349D01*
X52488918Y-48239569D01*
X52583674Y-48222609D01*
X52693524Y-48216615D01*
X52809984Y-48223008D01*
G37*
G36*
X53949616Y-49770000D02*
G01*
X53562736Y-49770000D01*
X53562736Y-49365533D01*
X53949616Y-49365533D01*
X53949616Y-49770000D01*
G37*
G36*
X55465876Y-49770000D02*
G01*
X54270161Y-49770000D01*
X54270161Y-49526642D01*
X54542833Y-49312960D01*
X54659022Y-49212469D01*
X54755422Y-49121901D01*
X54863381Y-49004693D01*
X54928151Y-48914447D01*
X54958267Y-48853326D01*
X54975870Y-48792298D01*
X54981689Y-48730532D01*
X54973446Y-48662117D01*
X54950566Y-48608693D01*
X54913887Y-48566768D01*
X54865331Y-48536214D01*
X54803554Y-48516763D01*
X54724843Y-48509706D01*
X54663684Y-48513330D01*
X54607314Y-48523903D01*
X54495353Y-48560356D01*
X54400196Y-48608075D01*
X54341187Y-48644528D01*
X54309533Y-48644528D01*
X54309533Y-48311778D01*
X54388728Y-48283396D01*
X54524857Y-48248855D01*
X54670394Y-48224468D01*
X54806811Y-48216615D01*
X54953466Y-48225524D01*
X55072360Y-48250098D01*
X55168420Y-48287957D01*
X55245667Y-48337973D01*
X55309695Y-48403209D01*
X55355840Y-48480126D01*
X55384658Y-48571063D01*
X55394850Y-48679333D01*
X55387448Y-48768425D01*
X55365090Y-48856738D01*
X55327048Y-48945222D01*
X55276092Y-49028203D01*
X55202527Y-49120778D01*
X55101954Y-49224392D01*
X55003137Y-49312412D01*
X54910663Y-49387332D01*
X54776232Y-49488632D01*
X55465876Y-49488632D01*
X55465876Y-49770000D01*
G37*
D11*
X60884819Y-119916666D02*
X60408628Y-120249999D01*
X60884819Y-120488094D02*
X59884819Y-120488094D01*
X59884819Y-120488094D02*
X59884819Y-120107142D01*
X59884819Y-120107142D02*
X59932438Y-120011904D01*
X59932438Y-120011904D02*
X59980057Y-119964285D01*
X59980057Y-119964285D02*
X60075295Y-119916666D01*
X60075295Y-119916666D02*
X60218152Y-119916666D01*
X60218152Y-119916666D02*
X60313390Y-119964285D01*
X60313390Y-119964285D02*
X60361009Y-120011904D01*
X60361009Y-120011904D02*
X60408628Y-120107142D01*
X60408628Y-120107142D02*
X60408628Y-120488094D01*
X60218152Y-119059523D02*
X60884819Y-119059523D01*
X59837200Y-119297618D02*
X60551485Y-119535713D01*
X60551485Y-119535713D02*
X60551485Y-118916666D01*
X55833333Y-123859580D02*
X55785714Y-123907200D01*
X55785714Y-123907200D02*
X55642857Y-123954819D01*
X55642857Y-123954819D02*
X55547619Y-123954819D01*
X55547619Y-123954819D02*
X55404762Y-123907200D01*
X55404762Y-123907200D02*
X55309524Y-123811961D01*
X55309524Y-123811961D02*
X55261905Y-123716723D01*
X55261905Y-123716723D02*
X55214286Y-123526247D01*
X55214286Y-123526247D02*
X55214286Y-123383390D01*
X55214286Y-123383390D02*
X55261905Y-123192914D01*
X55261905Y-123192914D02*
X55309524Y-123097676D01*
X55309524Y-123097676D02*
X55404762Y-123002438D01*
X55404762Y-123002438D02*
X55547619Y-122954819D01*
X55547619Y-122954819D02*
X55642857Y-122954819D01*
X55642857Y-122954819D02*
X55785714Y-123002438D01*
X55785714Y-123002438D02*
X55833333Y-123050057D01*
X56785714Y-123954819D02*
X56214286Y-123954819D01*
X56500000Y-123954819D02*
X56500000Y-122954819D01*
X56500000Y-122954819D02*
X56404762Y-123097676D01*
X56404762Y-123097676D02*
X56309524Y-123192914D01*
X56309524Y-123192914D02*
X56214286Y-123240533D01*
X67315791Y-52571675D02*
X68022898Y-51864569D01*
X68022898Y-51864569D02*
X68191257Y-52032927D01*
X68191257Y-52032927D02*
X68258600Y-52167614D01*
X68258600Y-52167614D02*
X68258600Y-52302301D01*
X68258600Y-52302301D02*
X68224928Y-52403317D01*
X68224928Y-52403317D02*
X68123913Y-52571675D01*
X68123913Y-52571675D02*
X68022898Y-52672691D01*
X68022898Y-52672691D02*
X67854539Y-52773706D01*
X67854539Y-52773706D02*
X67753524Y-52807378D01*
X67753524Y-52807378D02*
X67618837Y-52807378D01*
X67618837Y-52807378D02*
X67484150Y-52740034D01*
X67484150Y-52740034D02*
X67315791Y-52571675D01*
X68797348Y-53110423D02*
X68325944Y-53581828D01*
X68898363Y-52672691D02*
X68224928Y-53009408D01*
X68224928Y-53009408D02*
X68662661Y-53447141D01*
X67200057Y-34657738D02*
X67152438Y-34752976D01*
X67152438Y-34752976D02*
X67057200Y-34848214D01*
X67057200Y-34848214D02*
X66914342Y-34991071D01*
X66914342Y-34991071D02*
X66866723Y-35086309D01*
X66866723Y-35086309D02*
X66866723Y-35181547D01*
X67104819Y-35133928D02*
X67057200Y-35229166D01*
X67057200Y-35229166D02*
X66961961Y-35324404D01*
X66961961Y-35324404D02*
X66771485Y-35372023D01*
X66771485Y-35372023D02*
X66438152Y-35372023D01*
X66438152Y-35372023D02*
X66247676Y-35324404D01*
X66247676Y-35324404D02*
X66152438Y-35229166D01*
X66152438Y-35229166D02*
X66104819Y-35133928D01*
X66104819Y-35133928D02*
X66104819Y-34943452D01*
X66104819Y-34943452D02*
X66152438Y-34848214D01*
X66152438Y-34848214D02*
X66247676Y-34752976D01*
X66247676Y-34752976D02*
X66438152Y-34705357D01*
X66438152Y-34705357D02*
X66771485Y-34705357D01*
X66771485Y-34705357D02*
X66961961Y-34752976D01*
X66961961Y-34752976D02*
X67057200Y-34848214D01*
X67057200Y-34848214D02*
X67104819Y-34943452D01*
X67104819Y-34943452D02*
X67104819Y-35133928D01*
X67104819Y-33752976D02*
X67104819Y-34324404D01*
X67104819Y-34038690D02*
X66104819Y-34038690D01*
X66104819Y-34038690D02*
X66247676Y-34133928D01*
X66247676Y-34133928D02*
X66342914Y-34229166D01*
X66342914Y-34229166D02*
X66390533Y-34324404D01*
X63886476Y-103853200D02*
X64029333Y-103900819D01*
X64029333Y-103900819D02*
X64267428Y-103900819D01*
X64267428Y-103900819D02*
X64362666Y-103853200D01*
X64362666Y-103853200D02*
X64410285Y-103805580D01*
X64410285Y-103805580D02*
X64457904Y-103710342D01*
X64457904Y-103710342D02*
X64457904Y-103615104D01*
X64457904Y-103615104D02*
X64410285Y-103519866D01*
X64410285Y-103519866D02*
X64362666Y-103472247D01*
X64362666Y-103472247D02*
X64267428Y-103424628D01*
X64267428Y-103424628D02*
X64076952Y-103377009D01*
X64076952Y-103377009D02*
X63981714Y-103329390D01*
X63981714Y-103329390D02*
X63934095Y-103281771D01*
X63934095Y-103281771D02*
X63886476Y-103186533D01*
X63886476Y-103186533D02*
X63886476Y-103091295D01*
X63886476Y-103091295D02*
X63934095Y-102996057D01*
X63934095Y-102996057D02*
X63981714Y-102948438D01*
X63981714Y-102948438D02*
X64076952Y-102900819D01*
X64076952Y-102900819D02*
X64315047Y-102900819D01*
X64315047Y-102900819D02*
X64457904Y-102948438D01*
X64791238Y-102900819D02*
X65029333Y-103900819D01*
X65029333Y-103900819D02*
X65219809Y-103186533D01*
X65219809Y-103186533D02*
X65410285Y-103900819D01*
X65410285Y-103900819D02*
X65648381Y-102900819D01*
X66553142Y-103900819D02*
X65981714Y-103900819D01*
X66267428Y-103900819D02*
X66267428Y-102900819D01*
X66267428Y-102900819D02*
X66172190Y-103043676D01*
X66172190Y-103043676D02*
X66076952Y-103138914D01*
X66076952Y-103138914D02*
X65981714Y-103186533D01*
X67172190Y-102900819D02*
X67267428Y-102900819D01*
X67267428Y-102900819D02*
X67362666Y-102948438D01*
X67362666Y-102948438D02*
X67410285Y-102996057D01*
X67410285Y-102996057D02*
X67457904Y-103091295D01*
X67457904Y-103091295D02*
X67505523Y-103281771D01*
X67505523Y-103281771D02*
X67505523Y-103519866D01*
X67505523Y-103519866D02*
X67457904Y-103710342D01*
X67457904Y-103710342D02*
X67410285Y-103805580D01*
X67410285Y-103805580D02*
X67362666Y-103853200D01*
X67362666Y-103853200D02*
X67267428Y-103900819D01*
X67267428Y-103900819D02*
X67172190Y-103900819D01*
X67172190Y-103900819D02*
X67076952Y-103853200D01*
X67076952Y-103853200D02*
X67029333Y-103805580D01*
X67029333Y-103805580D02*
X66981714Y-103710342D01*
X66981714Y-103710342D02*
X66934095Y-103519866D01*
X66934095Y-103519866D02*
X66934095Y-103281771D01*
X66934095Y-103281771D02*
X66981714Y-103091295D01*
X66981714Y-103091295D02*
X67029333Y-102996057D01*
X67029333Y-102996057D02*
X67076952Y-102948438D01*
X67076952Y-102948438D02*
X67172190Y-102900819D01*
X64362667Y-116299200D02*
X64505524Y-116346819D01*
X64505524Y-116346819D02*
X64743619Y-116346819D01*
X64743619Y-116346819D02*
X64838857Y-116299200D01*
X64838857Y-116299200D02*
X64886476Y-116251580D01*
X64886476Y-116251580D02*
X64934095Y-116156342D01*
X64934095Y-116156342D02*
X64934095Y-116061104D01*
X64934095Y-116061104D02*
X64886476Y-115965866D01*
X64886476Y-115965866D02*
X64838857Y-115918247D01*
X64838857Y-115918247D02*
X64743619Y-115870628D01*
X64743619Y-115870628D02*
X64553143Y-115823009D01*
X64553143Y-115823009D02*
X64457905Y-115775390D01*
X64457905Y-115775390D02*
X64410286Y-115727771D01*
X64410286Y-115727771D02*
X64362667Y-115632533D01*
X64362667Y-115632533D02*
X64362667Y-115537295D01*
X64362667Y-115537295D02*
X64410286Y-115442057D01*
X64410286Y-115442057D02*
X64457905Y-115394438D01*
X64457905Y-115394438D02*
X64553143Y-115346819D01*
X64553143Y-115346819D02*
X64791238Y-115346819D01*
X64791238Y-115346819D02*
X64934095Y-115394438D01*
X65267429Y-115346819D02*
X65505524Y-116346819D01*
X65505524Y-116346819D02*
X65696000Y-115632533D01*
X65696000Y-115632533D02*
X65886476Y-116346819D01*
X65886476Y-116346819D02*
X66124572Y-115346819D01*
X66553143Y-116346819D02*
X66743619Y-116346819D01*
X66743619Y-116346819D02*
X66838857Y-116299200D01*
X66838857Y-116299200D02*
X66886476Y-116251580D01*
X66886476Y-116251580D02*
X66981714Y-116108723D01*
X66981714Y-116108723D02*
X67029333Y-115918247D01*
X67029333Y-115918247D02*
X67029333Y-115537295D01*
X67029333Y-115537295D02*
X66981714Y-115442057D01*
X66981714Y-115442057D02*
X66934095Y-115394438D01*
X66934095Y-115394438D02*
X66838857Y-115346819D01*
X66838857Y-115346819D02*
X66648381Y-115346819D01*
X66648381Y-115346819D02*
X66553143Y-115394438D01*
X66553143Y-115394438D02*
X66505524Y-115442057D01*
X66505524Y-115442057D02*
X66457905Y-115537295D01*
X66457905Y-115537295D02*
X66457905Y-115775390D01*
X66457905Y-115775390D02*
X66505524Y-115870628D01*
X66505524Y-115870628D02*
X66553143Y-115918247D01*
X66553143Y-115918247D02*
X66648381Y-115965866D01*
X66648381Y-115965866D02*
X66838857Y-115965866D01*
X66838857Y-115965866D02*
X66934095Y-115918247D01*
X66934095Y-115918247D02*
X66981714Y-115870628D01*
X66981714Y-115870628D02*
X67029333Y-115775390D01*
X48359580Y-35416666D02*
X48407200Y-35464285D01*
X48407200Y-35464285D02*
X48454819Y-35607142D01*
X48454819Y-35607142D02*
X48454819Y-35702380D01*
X48454819Y-35702380D02*
X48407200Y-35845237D01*
X48407200Y-35845237D02*
X48311961Y-35940475D01*
X48311961Y-35940475D02*
X48216723Y-35988094D01*
X48216723Y-35988094D02*
X48026247Y-36035713D01*
X48026247Y-36035713D02*
X47883390Y-36035713D01*
X47883390Y-36035713D02*
X47692914Y-35988094D01*
X47692914Y-35988094D02*
X47597676Y-35940475D01*
X47597676Y-35940475D02*
X47502438Y-35845237D01*
X47502438Y-35845237D02*
X47454819Y-35702380D01*
X47454819Y-35702380D02*
X47454819Y-35607142D01*
X47454819Y-35607142D02*
X47502438Y-35464285D01*
X47502438Y-35464285D02*
X47550057Y-35416666D01*
X47454819Y-35083332D02*
X47454819Y-34464285D01*
X47454819Y-34464285D02*
X47835771Y-34797618D01*
X47835771Y-34797618D02*
X47835771Y-34654761D01*
X47835771Y-34654761D02*
X47883390Y-34559523D01*
X47883390Y-34559523D02*
X47931009Y-34511904D01*
X47931009Y-34511904D02*
X48026247Y-34464285D01*
X48026247Y-34464285D02*
X48264342Y-34464285D01*
X48264342Y-34464285D02*
X48359580Y-34511904D01*
X48359580Y-34511904D02*
X48407200Y-34559523D01*
X48407200Y-34559523D02*
X48454819Y-34654761D01*
X48454819Y-34654761D02*
X48454819Y-34940475D01*
X48454819Y-34940475D02*
X48407200Y-35035713D01*
X48407200Y-35035713D02*
X48359580Y-35083332D01*
X39470667Y-116299200D02*
X39613524Y-116346819D01*
X39613524Y-116346819D02*
X39851619Y-116346819D01*
X39851619Y-116346819D02*
X39946857Y-116299200D01*
X39946857Y-116299200D02*
X39994476Y-116251580D01*
X39994476Y-116251580D02*
X40042095Y-116156342D01*
X40042095Y-116156342D02*
X40042095Y-116061104D01*
X40042095Y-116061104D02*
X39994476Y-115965866D01*
X39994476Y-115965866D02*
X39946857Y-115918247D01*
X39946857Y-115918247D02*
X39851619Y-115870628D01*
X39851619Y-115870628D02*
X39661143Y-115823009D01*
X39661143Y-115823009D02*
X39565905Y-115775390D01*
X39565905Y-115775390D02*
X39518286Y-115727771D01*
X39518286Y-115727771D02*
X39470667Y-115632533D01*
X39470667Y-115632533D02*
X39470667Y-115537295D01*
X39470667Y-115537295D02*
X39518286Y-115442057D01*
X39518286Y-115442057D02*
X39565905Y-115394438D01*
X39565905Y-115394438D02*
X39661143Y-115346819D01*
X39661143Y-115346819D02*
X39899238Y-115346819D01*
X39899238Y-115346819D02*
X40042095Y-115394438D01*
X40375429Y-115346819D02*
X40613524Y-116346819D01*
X40613524Y-116346819D02*
X40804000Y-115632533D01*
X40804000Y-115632533D02*
X40994476Y-116346819D01*
X40994476Y-116346819D02*
X41232572Y-115346819D01*
X42089714Y-115346819D02*
X41613524Y-115346819D01*
X41613524Y-115346819D02*
X41565905Y-115823009D01*
X41565905Y-115823009D02*
X41613524Y-115775390D01*
X41613524Y-115775390D02*
X41708762Y-115727771D01*
X41708762Y-115727771D02*
X41946857Y-115727771D01*
X41946857Y-115727771D02*
X42042095Y-115775390D01*
X42042095Y-115775390D02*
X42089714Y-115823009D01*
X42089714Y-115823009D02*
X42137333Y-115918247D01*
X42137333Y-115918247D02*
X42137333Y-116156342D01*
X42137333Y-116156342D02*
X42089714Y-116251580D01*
X42089714Y-116251580D02*
X42042095Y-116299200D01*
X42042095Y-116299200D02*
X41946857Y-116346819D01*
X41946857Y-116346819D02*
X41708762Y-116346819D01*
X41708762Y-116346819D02*
X41613524Y-116299200D01*
X41613524Y-116299200D02*
X41565905Y-116251580D01*
X39666667Y-40657200D02*
X39809524Y-40704819D01*
X39809524Y-40704819D02*
X40047619Y-40704819D01*
X40047619Y-40704819D02*
X40142857Y-40657200D01*
X40142857Y-40657200D02*
X40190476Y-40609580D01*
X40190476Y-40609580D02*
X40238095Y-40514342D01*
X40238095Y-40514342D02*
X40238095Y-40419104D01*
X40238095Y-40419104D02*
X40190476Y-40323866D01*
X40190476Y-40323866D02*
X40142857Y-40276247D01*
X40142857Y-40276247D02*
X40047619Y-40228628D01*
X40047619Y-40228628D02*
X39857143Y-40181009D01*
X39857143Y-40181009D02*
X39761905Y-40133390D01*
X39761905Y-40133390D02*
X39714286Y-40085771D01*
X39714286Y-40085771D02*
X39666667Y-39990533D01*
X39666667Y-39990533D02*
X39666667Y-39895295D01*
X39666667Y-39895295D02*
X39714286Y-39800057D01*
X39714286Y-39800057D02*
X39761905Y-39752438D01*
X39761905Y-39752438D02*
X39857143Y-39704819D01*
X39857143Y-39704819D02*
X40095238Y-39704819D01*
X40095238Y-39704819D02*
X40238095Y-39752438D01*
X40571429Y-39704819D02*
X40809524Y-40704819D01*
X40809524Y-40704819D02*
X41000000Y-39990533D01*
X41000000Y-39990533D02*
X41190476Y-40704819D01*
X41190476Y-40704819D02*
X41428572Y-39704819D01*
X41761905Y-39800057D02*
X41809524Y-39752438D01*
X41809524Y-39752438D02*
X41904762Y-39704819D01*
X41904762Y-39704819D02*
X42142857Y-39704819D01*
X42142857Y-39704819D02*
X42238095Y-39752438D01*
X42238095Y-39752438D02*
X42285714Y-39800057D01*
X42285714Y-39800057D02*
X42333333Y-39895295D01*
X42333333Y-39895295D02*
X42333333Y-39990533D01*
X42333333Y-39990533D02*
X42285714Y-40133390D01*
X42285714Y-40133390D02*
X41714286Y-40704819D01*
X41714286Y-40704819D02*
X42333333Y-40704819D01*
X51916667Y-103853200D02*
X52059524Y-103900819D01*
X52059524Y-103900819D02*
X52297619Y-103900819D01*
X52297619Y-103900819D02*
X52392857Y-103853200D01*
X52392857Y-103853200D02*
X52440476Y-103805580D01*
X52440476Y-103805580D02*
X52488095Y-103710342D01*
X52488095Y-103710342D02*
X52488095Y-103615104D01*
X52488095Y-103615104D02*
X52440476Y-103519866D01*
X52440476Y-103519866D02*
X52392857Y-103472247D01*
X52392857Y-103472247D02*
X52297619Y-103424628D01*
X52297619Y-103424628D02*
X52107143Y-103377009D01*
X52107143Y-103377009D02*
X52011905Y-103329390D01*
X52011905Y-103329390D02*
X51964286Y-103281771D01*
X51964286Y-103281771D02*
X51916667Y-103186533D01*
X51916667Y-103186533D02*
X51916667Y-103091295D01*
X51916667Y-103091295D02*
X51964286Y-102996057D01*
X51964286Y-102996057D02*
X52011905Y-102948438D01*
X52011905Y-102948438D02*
X52107143Y-102900819D01*
X52107143Y-102900819D02*
X52345238Y-102900819D01*
X52345238Y-102900819D02*
X52488095Y-102948438D01*
X52821429Y-102900819D02*
X53059524Y-103900819D01*
X53059524Y-103900819D02*
X53250000Y-103186533D01*
X53250000Y-103186533D02*
X53440476Y-103900819D01*
X53440476Y-103900819D02*
X53678572Y-102900819D01*
X53964286Y-102900819D02*
X54630952Y-102900819D01*
X54630952Y-102900819D02*
X54202381Y-103900819D01*
X70884819Y-155166666D02*
X70408628Y-155499999D01*
X70884819Y-155738094D02*
X69884819Y-155738094D01*
X69884819Y-155738094D02*
X69884819Y-155357142D01*
X69884819Y-155357142D02*
X69932438Y-155261904D01*
X69932438Y-155261904D02*
X69980057Y-155214285D01*
X69980057Y-155214285D02*
X70075295Y-155166666D01*
X70075295Y-155166666D02*
X70218152Y-155166666D01*
X70218152Y-155166666D02*
X70313390Y-155214285D01*
X70313390Y-155214285D02*
X70361009Y-155261904D01*
X70361009Y-155261904D02*
X70408628Y-155357142D01*
X70408628Y-155357142D02*
X70408628Y-155738094D01*
X70884819Y-154690475D02*
X70884819Y-154499999D01*
X70884819Y-154499999D02*
X70837200Y-154404761D01*
X70837200Y-154404761D02*
X70789580Y-154357142D01*
X70789580Y-154357142D02*
X70646723Y-154261904D01*
X70646723Y-154261904D02*
X70456247Y-154214285D01*
X70456247Y-154214285D02*
X70075295Y-154214285D01*
X70075295Y-154214285D02*
X69980057Y-154261904D01*
X69980057Y-154261904D02*
X69932438Y-154309523D01*
X69932438Y-154309523D02*
X69884819Y-154404761D01*
X69884819Y-154404761D02*
X69884819Y-154595237D01*
X69884819Y-154595237D02*
X69932438Y-154690475D01*
X69932438Y-154690475D02*
X69980057Y-154738094D01*
X69980057Y-154738094D02*
X70075295Y-154785713D01*
X70075295Y-154785713D02*
X70313390Y-154785713D01*
X70313390Y-154785713D02*
X70408628Y-154738094D01*
X70408628Y-154738094D02*
X70456247Y-154690475D01*
X70456247Y-154690475D02*
X70503866Y-154595237D01*
X70503866Y-154595237D02*
X70503866Y-154404761D01*
X70503866Y-154404761D02*
X70456247Y-154309523D01*
X70456247Y-154309523D02*
X70408628Y-154261904D01*
X70408628Y-154261904D02*
X70313390Y-154214285D01*
X65261905Y-30704819D02*
X65261905Y-29704819D01*
X65261905Y-29704819D02*
X65500000Y-29704819D01*
X65500000Y-29704819D02*
X65642857Y-29752438D01*
X65642857Y-29752438D02*
X65738095Y-29847676D01*
X65738095Y-29847676D02*
X65785714Y-29942914D01*
X65785714Y-29942914D02*
X65833333Y-30133390D01*
X65833333Y-30133390D02*
X65833333Y-30276247D01*
X65833333Y-30276247D02*
X65785714Y-30466723D01*
X65785714Y-30466723D02*
X65738095Y-30561961D01*
X65738095Y-30561961D02*
X65642857Y-30657200D01*
X65642857Y-30657200D02*
X65500000Y-30704819D01*
X65500000Y-30704819D02*
X65261905Y-30704819D01*
X66785714Y-30704819D02*
X66214286Y-30704819D01*
X66500000Y-30704819D02*
X66500000Y-29704819D01*
X66500000Y-29704819D02*
X66404762Y-29847676D01*
X66404762Y-29847676D02*
X66309524Y-29942914D01*
X66309524Y-29942914D02*
X66214286Y-29990533D01*
X61607142Y-34565700D02*
X62292857Y-34565700D01*
X61949999Y-34908557D02*
X61949999Y-34222842D01*
X64157142Y-34565700D02*
X64842857Y-34565700D01*
X39413577Y-103879200D02*
X39556434Y-103926819D01*
X39556434Y-103926819D02*
X39794529Y-103926819D01*
X39794529Y-103926819D02*
X39889767Y-103879200D01*
X39889767Y-103879200D02*
X39937386Y-103831580D01*
X39937386Y-103831580D02*
X39985005Y-103736342D01*
X39985005Y-103736342D02*
X39985005Y-103641104D01*
X39985005Y-103641104D02*
X39937386Y-103545866D01*
X39937386Y-103545866D02*
X39889767Y-103498247D01*
X39889767Y-103498247D02*
X39794529Y-103450628D01*
X39794529Y-103450628D02*
X39604053Y-103403009D01*
X39604053Y-103403009D02*
X39508815Y-103355390D01*
X39508815Y-103355390D02*
X39461196Y-103307771D01*
X39461196Y-103307771D02*
X39413577Y-103212533D01*
X39413577Y-103212533D02*
X39413577Y-103117295D01*
X39413577Y-103117295D02*
X39461196Y-103022057D01*
X39461196Y-103022057D02*
X39508815Y-102974438D01*
X39508815Y-102974438D02*
X39604053Y-102926819D01*
X39604053Y-102926819D02*
X39842148Y-102926819D01*
X39842148Y-102926819D02*
X39985005Y-102974438D01*
X40318339Y-102926819D02*
X40556434Y-103926819D01*
X40556434Y-103926819D02*
X40746910Y-103212533D01*
X40746910Y-103212533D02*
X40937386Y-103926819D01*
X40937386Y-103926819D02*
X41175482Y-102926819D01*
X41985005Y-103260152D02*
X41985005Y-103926819D01*
X41746910Y-102879200D02*
X41508815Y-103593485D01*
X41508815Y-103593485D02*
X42127862Y-103593485D01*
X68049693Y-83593517D02*
X67342587Y-82886410D01*
X67342587Y-82886410D02*
X67510945Y-82718051D01*
X67510945Y-82718051D02*
X67645632Y-82650708D01*
X67645632Y-82650708D02*
X67780319Y-82650708D01*
X67780319Y-82650708D02*
X67881335Y-82684380D01*
X67881335Y-82684380D02*
X68049693Y-82785395D01*
X68049693Y-82785395D02*
X68150709Y-82886410D01*
X68150709Y-82886410D02*
X68251724Y-83054769D01*
X68251724Y-83054769D02*
X68285396Y-83155784D01*
X68285396Y-83155784D02*
X68285396Y-83290471D01*
X68285396Y-83290471D02*
X68218052Y-83425158D01*
X68218052Y-83425158D02*
X68049693Y-83593517D01*
X68386411Y-81842586D02*
X68049693Y-82179303D01*
X68049693Y-82179303D02*
X68352739Y-82549693D01*
X68352739Y-82549693D02*
X68352739Y-82482349D01*
X68352739Y-82482349D02*
X68386411Y-82381334D01*
X68386411Y-82381334D02*
X68554770Y-82212975D01*
X68554770Y-82212975D02*
X68655785Y-82179303D01*
X68655785Y-82179303D02*
X68723128Y-82179303D01*
X68723128Y-82179303D02*
X68824144Y-82212975D01*
X68824144Y-82212975D02*
X68992502Y-82381334D01*
X68992502Y-82381334D02*
X69026174Y-82482349D01*
X69026174Y-82482349D02*
X69026174Y-82549693D01*
X69026174Y-82549693D02*
X68992502Y-82650708D01*
X68992502Y-82650708D02*
X68824144Y-82819067D01*
X68824144Y-82819067D02*
X68723128Y-82852738D01*
X68723128Y-82852738D02*
X68655785Y-82852738D01*
X64416667Y-40657200D02*
X64559524Y-40704819D01*
X64559524Y-40704819D02*
X64797619Y-40704819D01*
X64797619Y-40704819D02*
X64892857Y-40657200D01*
X64892857Y-40657200D02*
X64940476Y-40609580D01*
X64940476Y-40609580D02*
X64988095Y-40514342D01*
X64988095Y-40514342D02*
X64988095Y-40419104D01*
X64988095Y-40419104D02*
X64940476Y-40323866D01*
X64940476Y-40323866D02*
X64892857Y-40276247D01*
X64892857Y-40276247D02*
X64797619Y-40228628D01*
X64797619Y-40228628D02*
X64607143Y-40181009D01*
X64607143Y-40181009D02*
X64511905Y-40133390D01*
X64511905Y-40133390D02*
X64464286Y-40085771D01*
X64464286Y-40085771D02*
X64416667Y-39990533D01*
X64416667Y-39990533D02*
X64416667Y-39895295D01*
X64416667Y-39895295D02*
X64464286Y-39800057D01*
X64464286Y-39800057D02*
X64511905Y-39752438D01*
X64511905Y-39752438D02*
X64607143Y-39704819D01*
X64607143Y-39704819D02*
X64845238Y-39704819D01*
X64845238Y-39704819D02*
X64988095Y-39752438D01*
X65321429Y-39704819D02*
X65559524Y-40704819D01*
X65559524Y-40704819D02*
X65750000Y-39990533D01*
X65750000Y-39990533D02*
X65940476Y-40704819D01*
X65940476Y-40704819D02*
X66178572Y-39704819D01*
X67083333Y-40704819D02*
X66511905Y-40704819D01*
X66797619Y-40704819D02*
X66797619Y-39704819D01*
X66797619Y-39704819D02*
X66702381Y-39847676D01*
X66702381Y-39847676D02*
X66607143Y-39942914D01*
X66607143Y-39942914D02*
X66511905Y-39990533D01*
X63886476Y-91407200D02*
X64029333Y-91454819D01*
X64029333Y-91454819D02*
X64267428Y-91454819D01*
X64267428Y-91454819D02*
X64362666Y-91407200D01*
X64362666Y-91407200D02*
X64410285Y-91359580D01*
X64410285Y-91359580D02*
X64457904Y-91264342D01*
X64457904Y-91264342D02*
X64457904Y-91169104D01*
X64457904Y-91169104D02*
X64410285Y-91073866D01*
X64410285Y-91073866D02*
X64362666Y-91026247D01*
X64362666Y-91026247D02*
X64267428Y-90978628D01*
X64267428Y-90978628D02*
X64076952Y-90931009D01*
X64076952Y-90931009D02*
X63981714Y-90883390D01*
X63981714Y-90883390D02*
X63934095Y-90835771D01*
X63934095Y-90835771D02*
X63886476Y-90740533D01*
X63886476Y-90740533D02*
X63886476Y-90645295D01*
X63886476Y-90645295D02*
X63934095Y-90550057D01*
X63934095Y-90550057D02*
X63981714Y-90502438D01*
X63981714Y-90502438D02*
X64076952Y-90454819D01*
X64076952Y-90454819D02*
X64315047Y-90454819D01*
X64315047Y-90454819D02*
X64457904Y-90502438D01*
X64791238Y-90454819D02*
X65029333Y-91454819D01*
X65029333Y-91454819D02*
X65219809Y-90740533D01*
X65219809Y-90740533D02*
X65410285Y-91454819D01*
X65410285Y-91454819D02*
X65648381Y-90454819D01*
X66553142Y-91454819D02*
X65981714Y-91454819D01*
X66267428Y-91454819D02*
X66267428Y-90454819D01*
X66267428Y-90454819D02*
X66172190Y-90597676D01*
X66172190Y-90597676D02*
X66076952Y-90692914D01*
X66076952Y-90692914D02*
X65981714Y-90740533D01*
X67505523Y-91454819D02*
X66934095Y-91454819D01*
X67219809Y-91454819D02*
X67219809Y-90454819D01*
X67219809Y-90454819D02*
X67124571Y-90597676D01*
X67124571Y-90597676D02*
X67029333Y-90692914D01*
X67029333Y-90692914D02*
X66934095Y-90740533D01*
X52522095Y-125068819D02*
X52522095Y-125878342D01*
X52522095Y-125878342D02*
X52569714Y-125973580D01*
X52569714Y-125973580D02*
X52617333Y-126021200D01*
X52617333Y-126021200D02*
X52712571Y-126068819D01*
X52712571Y-126068819D02*
X52903047Y-126068819D01*
X52903047Y-126068819D02*
X52998285Y-126021200D01*
X52998285Y-126021200D02*
X53045904Y-125973580D01*
X53045904Y-125973580D02*
X53093523Y-125878342D01*
X53093523Y-125878342D02*
X53093523Y-125068819D01*
X53474476Y-125068819D02*
X54093523Y-125068819D01*
X54093523Y-125068819D02*
X53760190Y-125449771D01*
X53760190Y-125449771D02*
X53903047Y-125449771D01*
X53903047Y-125449771D02*
X53998285Y-125497390D01*
X53998285Y-125497390D02*
X54045904Y-125545009D01*
X54045904Y-125545009D02*
X54093523Y-125640247D01*
X54093523Y-125640247D02*
X54093523Y-125878342D01*
X54093523Y-125878342D02*
X54045904Y-125973580D01*
X54045904Y-125973580D02*
X53998285Y-126021200D01*
X53998285Y-126021200D02*
X53903047Y-126068819D01*
X53903047Y-126068819D02*
X53617333Y-126068819D01*
X53617333Y-126068819D02*
X53522095Y-126021200D01*
X53522095Y-126021200D02*
X53474476Y-125973580D01*
X37406482Y-82799693D02*
X38113589Y-82092587D01*
X38113589Y-82092587D02*
X38281948Y-82260945D01*
X38281948Y-82260945D02*
X38349291Y-82395632D01*
X38349291Y-82395632D02*
X38349291Y-82530319D01*
X38349291Y-82530319D02*
X38315619Y-82631335D01*
X38315619Y-82631335D02*
X38214604Y-82799693D01*
X38214604Y-82799693D02*
X38113589Y-82900709D01*
X38113589Y-82900709D02*
X37945230Y-83001724D01*
X37945230Y-83001724D02*
X37844215Y-83035396D01*
X37844215Y-83035396D02*
X37709528Y-83035396D01*
X37709528Y-83035396D02*
X37574841Y-82968052D01*
X37574841Y-82968052D02*
X37406482Y-82799693D01*
X38719680Y-82833365D02*
X38787024Y-82833365D01*
X38787024Y-82833365D02*
X38888039Y-82867037D01*
X38888039Y-82867037D02*
X39056398Y-83035396D01*
X39056398Y-83035396D02*
X39090070Y-83136411D01*
X39090070Y-83136411D02*
X39090070Y-83203754D01*
X39090070Y-83203754D02*
X39056398Y-83304770D01*
X39056398Y-83304770D02*
X38989054Y-83372113D01*
X38989054Y-83372113D02*
X38854367Y-83439457D01*
X38854367Y-83439457D02*
X38046245Y-83439457D01*
X38046245Y-83439457D02*
X38483978Y-83877189D01*
X68112819Y-38591666D02*
X67636628Y-38924999D01*
X68112819Y-39163094D02*
X67112819Y-39163094D01*
X67112819Y-39163094D02*
X67112819Y-38782142D01*
X67112819Y-38782142D02*
X67160438Y-38686904D01*
X67160438Y-38686904D02*
X67208057Y-38639285D01*
X67208057Y-38639285D02*
X67303295Y-38591666D01*
X67303295Y-38591666D02*
X67446152Y-38591666D01*
X67446152Y-38591666D02*
X67541390Y-38639285D01*
X67541390Y-38639285D02*
X67589009Y-38686904D01*
X67589009Y-38686904D02*
X67636628Y-38782142D01*
X67636628Y-38782142D02*
X67636628Y-39163094D01*
X68112819Y-37639285D02*
X68112819Y-38210713D01*
X68112819Y-37924999D02*
X67112819Y-37924999D01*
X67112819Y-37924999D02*
X67255676Y-38020237D01*
X67255676Y-38020237D02*
X67350914Y-38115475D01*
X67350914Y-38115475D02*
X67398533Y-38210713D01*
X51916667Y-116299200D02*
X52059524Y-116346819D01*
X52059524Y-116346819D02*
X52297619Y-116346819D01*
X52297619Y-116346819D02*
X52392857Y-116299200D01*
X52392857Y-116299200D02*
X52440476Y-116251580D01*
X52440476Y-116251580D02*
X52488095Y-116156342D01*
X52488095Y-116156342D02*
X52488095Y-116061104D01*
X52488095Y-116061104D02*
X52440476Y-115965866D01*
X52440476Y-115965866D02*
X52392857Y-115918247D01*
X52392857Y-115918247D02*
X52297619Y-115870628D01*
X52297619Y-115870628D02*
X52107143Y-115823009D01*
X52107143Y-115823009D02*
X52011905Y-115775390D01*
X52011905Y-115775390D02*
X51964286Y-115727771D01*
X51964286Y-115727771D02*
X51916667Y-115632533D01*
X51916667Y-115632533D02*
X51916667Y-115537295D01*
X51916667Y-115537295D02*
X51964286Y-115442057D01*
X51964286Y-115442057D02*
X52011905Y-115394438D01*
X52011905Y-115394438D02*
X52107143Y-115346819D01*
X52107143Y-115346819D02*
X52345238Y-115346819D01*
X52345238Y-115346819D02*
X52488095Y-115394438D01*
X52821429Y-115346819D02*
X53059524Y-116346819D01*
X53059524Y-116346819D02*
X53250000Y-115632533D01*
X53250000Y-115632533D02*
X53440476Y-116346819D01*
X53440476Y-116346819D02*
X53678572Y-115346819D01*
X54202381Y-115775390D02*
X54107143Y-115727771D01*
X54107143Y-115727771D02*
X54059524Y-115680152D01*
X54059524Y-115680152D02*
X54011905Y-115584914D01*
X54011905Y-115584914D02*
X54011905Y-115537295D01*
X54011905Y-115537295D02*
X54059524Y-115442057D01*
X54059524Y-115442057D02*
X54107143Y-115394438D01*
X54107143Y-115394438D02*
X54202381Y-115346819D01*
X54202381Y-115346819D02*
X54392857Y-115346819D01*
X54392857Y-115346819D02*
X54488095Y-115394438D01*
X54488095Y-115394438D02*
X54535714Y-115442057D01*
X54535714Y-115442057D02*
X54583333Y-115537295D01*
X54583333Y-115537295D02*
X54583333Y-115584914D01*
X54583333Y-115584914D02*
X54535714Y-115680152D01*
X54535714Y-115680152D02*
X54488095Y-115727771D01*
X54488095Y-115727771D02*
X54392857Y-115775390D01*
X54392857Y-115775390D02*
X54202381Y-115775390D01*
X54202381Y-115775390D02*
X54107143Y-115823009D01*
X54107143Y-115823009D02*
X54059524Y-115870628D01*
X54059524Y-115870628D02*
X54011905Y-115965866D01*
X54011905Y-115965866D02*
X54011905Y-116156342D01*
X54011905Y-116156342D02*
X54059524Y-116251580D01*
X54059524Y-116251580D02*
X54107143Y-116299200D01*
X54107143Y-116299200D02*
X54202381Y-116346819D01*
X54202381Y-116346819D02*
X54392857Y-116346819D01*
X54392857Y-116346819D02*
X54488095Y-116299200D01*
X54488095Y-116299200D02*
X54535714Y-116251580D01*
X54535714Y-116251580D02*
X54583333Y-116156342D01*
X54583333Y-116156342D02*
X54583333Y-115965866D01*
X54583333Y-115965866D02*
X54535714Y-115870628D01*
X54535714Y-115870628D02*
X54488095Y-115823009D01*
X54488095Y-115823009D02*
X54392857Y-115775390D01*
X61884819Y-123241666D02*
X61408628Y-123574999D01*
X61884819Y-123813094D02*
X60884819Y-123813094D01*
X60884819Y-123813094D02*
X60884819Y-123432142D01*
X60884819Y-123432142D02*
X60932438Y-123336904D01*
X60932438Y-123336904D02*
X60980057Y-123289285D01*
X60980057Y-123289285D02*
X61075295Y-123241666D01*
X61075295Y-123241666D02*
X61218152Y-123241666D01*
X61218152Y-123241666D02*
X61313390Y-123289285D01*
X61313390Y-123289285D02*
X61361009Y-123336904D01*
X61361009Y-123336904D02*
X61408628Y-123432142D01*
X61408628Y-123432142D02*
X61408628Y-123813094D01*
X60884819Y-122336904D02*
X60884819Y-122813094D01*
X60884819Y-122813094D02*
X61361009Y-122860713D01*
X61361009Y-122860713D02*
X61313390Y-122813094D01*
X61313390Y-122813094D02*
X61265771Y-122717856D01*
X61265771Y-122717856D02*
X61265771Y-122479761D01*
X61265771Y-122479761D02*
X61313390Y-122384523D01*
X61313390Y-122384523D02*
X61361009Y-122336904D01*
X61361009Y-122336904D02*
X61456247Y-122289285D01*
X61456247Y-122289285D02*
X61694342Y-122289285D01*
X61694342Y-122289285D02*
X61789580Y-122336904D01*
X61789580Y-122336904D02*
X61837200Y-122384523D01*
X61837200Y-122384523D02*
X61884819Y-122479761D01*
X61884819Y-122479761D02*
X61884819Y-122717856D01*
X61884819Y-122717856D02*
X61837200Y-122813094D01*
X61837200Y-122813094D02*
X61789580Y-122860713D01*
D13*
X49571428Y-88367219D02*
X50238095Y-88367219D01*
X50523809Y-89414838D02*
X49571428Y-89414838D01*
X49571428Y-89414838D02*
X49571428Y-87414838D01*
X49571428Y-87414838D02*
X50523809Y-87414838D01*
X51380952Y-89414838D02*
X51380952Y-87414838D01*
X51380952Y-87414838D02*
X52523809Y-89414838D01*
X52523809Y-89414838D02*
X52523809Y-87414838D01*
X54619047Y-89224361D02*
X54523809Y-89319600D01*
X54523809Y-89319600D02*
X54238095Y-89414838D01*
X54238095Y-89414838D02*
X54047619Y-89414838D01*
X54047619Y-89414838D02*
X53761904Y-89319600D01*
X53761904Y-89319600D02*
X53571428Y-89129123D01*
X53571428Y-89129123D02*
X53476190Y-88938647D01*
X53476190Y-88938647D02*
X53380952Y-88557695D01*
X53380952Y-88557695D02*
X53380952Y-88271980D01*
X53380952Y-88271980D02*
X53476190Y-87891028D01*
X53476190Y-87891028D02*
X53571428Y-87700552D01*
X53571428Y-87700552D02*
X53761904Y-87510076D01*
X53761904Y-87510076D02*
X54047619Y-87414838D01*
X54047619Y-87414838D02*
X54238095Y-87414838D01*
X54238095Y-87414838D02*
X54523809Y-87510076D01*
X54523809Y-87510076D02*
X54619047Y-87605314D01*
X56523809Y-89414838D02*
X55380952Y-89414838D01*
X55952380Y-89414838D02*
X55952380Y-87414838D01*
X55952380Y-87414838D02*
X55761904Y-87700552D01*
X55761904Y-87700552D02*
X55571428Y-87891028D01*
X55571428Y-87891028D02*
X55380952Y-87986266D01*
D11*
X51916667Y-91407200D02*
X52059524Y-91454819D01*
X52059524Y-91454819D02*
X52297619Y-91454819D01*
X52297619Y-91454819D02*
X52392857Y-91407200D01*
X52392857Y-91407200D02*
X52440476Y-91359580D01*
X52440476Y-91359580D02*
X52488095Y-91264342D01*
X52488095Y-91264342D02*
X52488095Y-91169104D01*
X52488095Y-91169104D02*
X52440476Y-91073866D01*
X52440476Y-91073866D02*
X52392857Y-91026247D01*
X52392857Y-91026247D02*
X52297619Y-90978628D01*
X52297619Y-90978628D02*
X52107143Y-90931009D01*
X52107143Y-90931009D02*
X52011905Y-90883390D01*
X52011905Y-90883390D02*
X51964286Y-90835771D01*
X51964286Y-90835771D02*
X51916667Y-90740533D01*
X51916667Y-90740533D02*
X51916667Y-90645295D01*
X51916667Y-90645295D02*
X51964286Y-90550057D01*
X51964286Y-90550057D02*
X52011905Y-90502438D01*
X52011905Y-90502438D02*
X52107143Y-90454819D01*
X52107143Y-90454819D02*
X52345238Y-90454819D01*
X52345238Y-90454819D02*
X52488095Y-90502438D01*
X52821429Y-90454819D02*
X53059524Y-91454819D01*
X53059524Y-91454819D02*
X53250000Y-90740533D01*
X53250000Y-90740533D02*
X53440476Y-91454819D01*
X53440476Y-91454819D02*
X53678572Y-90454819D01*
X54488095Y-90454819D02*
X54297619Y-90454819D01*
X54297619Y-90454819D02*
X54202381Y-90502438D01*
X54202381Y-90502438D02*
X54154762Y-90550057D01*
X54154762Y-90550057D02*
X54059524Y-90692914D01*
X54059524Y-90692914D02*
X54011905Y-90883390D01*
X54011905Y-90883390D02*
X54011905Y-91264342D01*
X54011905Y-91264342D02*
X54059524Y-91359580D01*
X54059524Y-91359580D02*
X54107143Y-91407200D01*
X54107143Y-91407200D02*
X54202381Y-91454819D01*
X54202381Y-91454819D02*
X54392857Y-91454819D01*
X54392857Y-91454819D02*
X54488095Y-91407200D01*
X54488095Y-91407200D02*
X54535714Y-91359580D01*
X54535714Y-91359580D02*
X54583333Y-91264342D01*
X54583333Y-91264342D02*
X54583333Y-91026247D01*
X54583333Y-91026247D02*
X54535714Y-90931009D01*
X54535714Y-90931009D02*
X54488095Y-90883390D01*
X54488095Y-90883390D02*
X54392857Y-90835771D01*
X54392857Y-90835771D02*
X54202381Y-90835771D01*
X54202381Y-90835771D02*
X54107143Y-90883390D01*
X54107143Y-90883390D02*
X54059524Y-90931009D01*
X54059524Y-90931009D02*
X54011905Y-91026247D01*
X40150057Y-84532738D02*
X40102438Y-84627976D01*
X40102438Y-84627976D02*
X40007200Y-84723214D01*
X40007200Y-84723214D02*
X39864342Y-84866071D01*
X39864342Y-84866071D02*
X39816723Y-84961309D01*
X39816723Y-84961309D02*
X39816723Y-85056547D01*
X40054819Y-85008928D02*
X40007200Y-85104166D01*
X40007200Y-85104166D02*
X39911961Y-85199404D01*
X39911961Y-85199404D02*
X39721485Y-85247023D01*
X39721485Y-85247023D02*
X39388152Y-85247023D01*
X39388152Y-85247023D02*
X39197676Y-85199404D01*
X39197676Y-85199404D02*
X39102438Y-85104166D01*
X39102438Y-85104166D02*
X39054819Y-85008928D01*
X39054819Y-85008928D02*
X39054819Y-84818452D01*
X39054819Y-84818452D02*
X39102438Y-84723214D01*
X39102438Y-84723214D02*
X39197676Y-84627976D01*
X39197676Y-84627976D02*
X39388152Y-84580357D01*
X39388152Y-84580357D02*
X39721485Y-84580357D01*
X39721485Y-84580357D02*
X39911961Y-84627976D01*
X39911961Y-84627976D02*
X40007200Y-84723214D01*
X40007200Y-84723214D02*
X40054819Y-84818452D01*
X40054819Y-84818452D02*
X40054819Y-85008928D01*
X39150057Y-84199404D02*
X39102438Y-84151785D01*
X39102438Y-84151785D02*
X39054819Y-84056547D01*
X39054819Y-84056547D02*
X39054819Y-83818452D01*
X39054819Y-83818452D02*
X39102438Y-83723214D01*
X39102438Y-83723214D02*
X39150057Y-83675595D01*
X39150057Y-83675595D02*
X39245295Y-83627976D01*
X39245295Y-83627976D02*
X39340533Y-83627976D01*
X39340533Y-83627976D02*
X39483390Y-83675595D01*
X39483390Y-83675595D02*
X40054819Y-84247023D01*
X40054819Y-84247023D02*
X40054819Y-83627976D01*
X39470667Y-91407200D02*
X39613524Y-91454819D01*
X39613524Y-91454819D02*
X39851619Y-91454819D01*
X39851619Y-91454819D02*
X39946857Y-91407200D01*
X39946857Y-91407200D02*
X39994476Y-91359580D01*
X39994476Y-91359580D02*
X40042095Y-91264342D01*
X40042095Y-91264342D02*
X40042095Y-91169104D01*
X40042095Y-91169104D02*
X39994476Y-91073866D01*
X39994476Y-91073866D02*
X39946857Y-91026247D01*
X39946857Y-91026247D02*
X39851619Y-90978628D01*
X39851619Y-90978628D02*
X39661143Y-90931009D01*
X39661143Y-90931009D02*
X39565905Y-90883390D01*
X39565905Y-90883390D02*
X39518286Y-90835771D01*
X39518286Y-90835771D02*
X39470667Y-90740533D01*
X39470667Y-90740533D02*
X39470667Y-90645295D01*
X39470667Y-90645295D02*
X39518286Y-90550057D01*
X39518286Y-90550057D02*
X39565905Y-90502438D01*
X39565905Y-90502438D02*
X39661143Y-90454819D01*
X39661143Y-90454819D02*
X39899238Y-90454819D01*
X39899238Y-90454819D02*
X40042095Y-90502438D01*
X40375429Y-90454819D02*
X40613524Y-91454819D01*
X40613524Y-91454819D02*
X40804000Y-90740533D01*
X40804000Y-90740533D02*
X40994476Y-91454819D01*
X40994476Y-91454819D02*
X41232572Y-90454819D01*
X41518286Y-90454819D02*
X42137333Y-90454819D01*
X42137333Y-90454819D02*
X41804000Y-90835771D01*
X41804000Y-90835771D02*
X41946857Y-90835771D01*
X41946857Y-90835771D02*
X42042095Y-90883390D01*
X42042095Y-90883390D02*
X42089714Y-90931009D01*
X42089714Y-90931009D02*
X42137333Y-91026247D01*
X42137333Y-91026247D02*
X42137333Y-91264342D01*
X42137333Y-91264342D02*
X42089714Y-91359580D01*
X42089714Y-91359580D02*
X42042095Y-91407200D01*
X42042095Y-91407200D02*
X41946857Y-91454819D01*
X41946857Y-91454819D02*
X41661143Y-91454819D01*
X41661143Y-91454819D02*
X41565905Y-91407200D01*
X41565905Y-91407200D02*
X41518286Y-91359580D01*
X38134038Y-53509056D02*
X37426932Y-52801949D01*
X37426932Y-52801949D02*
X37595290Y-52633590D01*
X37595290Y-52633590D02*
X37729977Y-52566247D01*
X37729977Y-52566247D02*
X37864664Y-52566247D01*
X37864664Y-52566247D02*
X37965680Y-52599919D01*
X37965680Y-52599919D02*
X38134038Y-52700934D01*
X38134038Y-52700934D02*
X38235054Y-52801949D01*
X38235054Y-52801949D02*
X38336069Y-52970308D01*
X38336069Y-52970308D02*
X38369741Y-53071323D01*
X38369741Y-53071323D02*
X38369741Y-53206010D01*
X38369741Y-53206010D02*
X38302397Y-53340697D01*
X38302397Y-53340697D02*
X38134038Y-53509056D01*
X38066695Y-52162186D02*
X38504428Y-51724453D01*
X38504428Y-51724453D02*
X38538099Y-52229529D01*
X38538099Y-52229529D02*
X38639115Y-52128514D01*
X38639115Y-52128514D02*
X38740130Y-52094842D01*
X38740130Y-52094842D02*
X38807473Y-52094842D01*
X38807473Y-52094842D02*
X38908489Y-52128514D01*
X38908489Y-52128514D02*
X39076847Y-52296873D01*
X39076847Y-52296873D02*
X39110519Y-52397888D01*
X39110519Y-52397888D02*
X39110519Y-52465232D01*
X39110519Y-52465232D02*
X39076847Y-52566247D01*
X39076847Y-52566247D02*
X38874817Y-52768277D01*
X38874817Y-52768277D02*
X38773802Y-52801949D01*
X38773802Y-52801949D02*
X38706458Y-52801949D01*
%TO.C,R4*%
D16*
X58477500Y-119512742D02*
X58477500Y-119987258D01*
X59522500Y-119512742D02*
X59522500Y-119987258D01*
%TO.C,C1*%
X56261252Y-124265000D02*
X55738748Y-124265000D01*
X56261252Y-125735000D02*
X55738748Y-125735000D01*
%TO.C,D4*%
X65037433Y-54175589D02*
X66734489Y-52478533D01*
X66663779Y-55801935D02*
X65037433Y-54175589D01*
X66663779Y-55801935D02*
X67088043Y-55801935D01*
X68572967Y-54317011D02*
X66734489Y-52478533D01*
X68572967Y-54317011D02*
X67088043Y-55801935D01*
%TO.C,U1*%
D18*
X47220000Y-139107000D02*
X47220000Y-156252000D01*
X49125000Y-158157000D02*
X63095000Y-158157000D01*
D19*
X51606000Y-159167000D02*
X51606000Y-158157000D01*
X60101272Y-159667000D02*
X52106000Y-159667000D01*
X60605000Y-158157000D02*
X60601272Y-159167272D01*
D18*
X63095000Y-137202000D02*
X49125000Y-137202000D01*
X65000000Y-139107000D02*
X65000000Y-156252000D01*
X47220000Y-139107000D02*
G75*
G02*
X49125000Y-137202000I1905000J0D01*
G01*
X49125000Y-158157000D02*
G75*
G02*
X47220000Y-156252000I0J1905000D01*
G01*
D19*
X52106000Y-159667000D02*
G75*
G02*
X51606000Y-159167000I0J500000D01*
G01*
X60601272Y-159167272D02*
G75*
G02*
X60101272Y-159667002I-500022J292D01*
G01*
D18*
X63095000Y-137202000D02*
G75*
G02*
X65000000Y-139107000I0J-1905000D01*
G01*
X65000000Y-156256000D02*
G75*
G02*
X63095000Y-158161000I-1905001J1D01*
G01*
D20*
X64188000Y-157024000D02*
G75*
G02*
X63684000Y-157024000I-252000J0D01*
G01*
X63684000Y-157024000D02*
G75*
G02*
X64188000Y-157024000I252000J0D01*
G01*
X65462000Y-157741000D02*
G75*
G02*
X64958000Y-157741000I-252000J0D01*
G01*
X64958000Y-157741000D02*
G75*
G02*
X65462000Y-157741000I252000J0D01*
G01*
%TO.C,Q1*%
D16*
X67490000Y-33802500D02*
X68490000Y-33802500D01*
X67490000Y-35322500D02*
X67490000Y-33802500D01*
X67540000Y-35322500D02*
X67490000Y-35322500D01*
X69440000Y-35322500D02*
X68660000Y-35322500D01*
X69610000Y-33802500D02*
X70610000Y-33802500D01*
X70610000Y-33802500D02*
X70610000Y-35322500D01*
X70610000Y-35322500D02*
X70560000Y-35322500D01*
X68670000Y-35862500D02*
X69000000Y-35622500D01*
X69000000Y-36102500D01*
X68670000Y-35862500D01*
G36*
X69000000Y-36102500D02*
G01*
X68670000Y-35862500D01*
X69000000Y-35622500D01*
X69000000Y-36102500D01*
G37*
%TO.C,SW10*%
D19*
X63536000Y-108743000D02*
X63536000Y-105633000D01*
X64906000Y-104938000D02*
X66666000Y-104938000D01*
X64906000Y-109438000D02*
X66666000Y-109438000D01*
X68036000Y-108743000D02*
X68036000Y-105633000D01*
D13*
X64136000Y-110414000D02*
G75*
G02*
X63936000Y-110414000I-100000J0D01*
G01*
X63936000Y-110414000D02*
G75*
G02*
X64136000Y-110414000I100000J0D01*
G01*
%TO.C,SW9*%
D19*
X63536000Y-121189000D02*
X63536000Y-118079000D01*
X64906000Y-117384000D02*
X66666000Y-117384000D01*
X64906000Y-121884000D02*
X66666000Y-121884000D01*
X68036000Y-121189000D02*
X68036000Y-118079000D01*
D13*
X64136000Y-122860000D02*
G75*
G02*
X63936000Y-122860000I-100000J0D01*
G01*
X63936000Y-122860000D02*
G75*
G02*
X64136000Y-122860000I100000J0D01*
G01*
%TO.C,TP_VCC1*%
D16*
X47250000Y-154550000D02*
X48650000Y-154550000D01*
X48650000Y-155950000D01*
X47250000Y-155950000D01*
X47250000Y-154550000D01*
%TO.C,C3*%
X45740000Y-34384420D02*
X45740000Y-34665580D01*
X46760000Y-34384420D02*
X46760000Y-34665580D01*
%TO.C,SW5*%
D19*
X38644000Y-121189000D02*
X38644000Y-118079000D01*
X40014000Y-117384000D02*
X41774000Y-117384000D01*
X40014000Y-121884000D02*
X41774000Y-121884000D01*
X43144000Y-121189000D02*
X43144000Y-118079000D01*
D13*
X39244000Y-122860000D02*
G75*
G02*
X39044000Y-122860000I-100000J0D01*
G01*
X39044000Y-122860000D02*
G75*
G02*
X39244000Y-122860000I100000J0D01*
G01*
%TO.C,SW2*%
D19*
X38644000Y-42870000D02*
X38644000Y-44630000D01*
X39339000Y-41500000D02*
X42449000Y-41500000D01*
X39339000Y-46000000D02*
X42449000Y-46000000D01*
X43144000Y-42870000D02*
X43144000Y-44630000D01*
D13*
X37768000Y-42000000D02*
G75*
G02*
X37568000Y-42000000I-100000J0D01*
G01*
X37568000Y-42000000D02*
G75*
G02*
X37768000Y-42000000I100000J0D01*
G01*
%TO.C,SW7*%
D19*
X51090000Y-108743000D02*
X51090000Y-105633000D01*
X52460000Y-104938000D02*
X54220000Y-104938000D01*
X52460000Y-109438000D02*
X54220000Y-109438000D01*
X55590000Y-108743000D02*
X55590000Y-105633000D01*
D13*
X51690000Y-110414000D02*
G75*
G02*
X51490000Y-110414000I-100000J0D01*
G01*
X51490000Y-110414000D02*
G75*
G02*
X51690000Y-110414000I100000J0D01*
G01*
%TO.C,R9*%
D16*
X68477500Y-154762742D02*
X68477500Y-155237258D01*
X69522500Y-154762742D02*
X69522500Y-155237258D01*
%TO.C,D1*%
X61670000Y-31540000D02*
X61670000Y-29350000D01*
X64790000Y-31540000D02*
X61670000Y-31540000D01*
X64790000Y-31540000D02*
X64790000Y-29350000D01*
X61960000Y-31540000D02*
X61960000Y-31670000D01*
X61960000Y-31540000D01*
X64500000Y-31540000D02*
X64500000Y-31670000D01*
X64500000Y-31540000D01*
%TO.C,SW4*%
D19*
X38586910Y-108769000D02*
X38586910Y-105659000D01*
X39956910Y-104964000D02*
X41716910Y-104964000D01*
X39956910Y-109464000D02*
X41716910Y-109464000D01*
X43086910Y-108769000D02*
X43086910Y-105659000D01*
D13*
X39186910Y-110440000D02*
G75*
G02*
X38986910Y-110440000I-100000J0D01*
G01*
X38986910Y-110440000D02*
G75*
G02*
X39186910Y-110440000I100000J0D01*
G01*
%TO.C,D5*%
D16*
X65249565Y-81040379D02*
X65249565Y-81464643D01*
X65249565Y-81040379D02*
X66875911Y-79414033D01*
X66734489Y-82949567D02*
X65249565Y-81464643D01*
X66734489Y-82949567D02*
X68572967Y-81111089D01*
X66875911Y-79414033D02*
X68572967Y-81111089D01*
%TO.C,SW1*%
D19*
X63536000Y-42870000D02*
X63536000Y-44630000D01*
X64231000Y-41500000D02*
X67341000Y-41500000D01*
X64231000Y-46000000D02*
X67341000Y-46000000D01*
X68036000Y-42870000D02*
X68036000Y-44630000D01*
D13*
X62660000Y-42000000D02*
G75*
G02*
X62460000Y-42000000I-100000J0D01*
G01*
X62460000Y-42000000D02*
G75*
G02*
X62660000Y-42000000I100000J0D01*
G01*
%TO.C,SW11*%
D19*
X63536000Y-96297000D02*
X63536000Y-93187000D01*
X64906000Y-92492000D02*
X66666000Y-92492000D01*
X64906000Y-96992000D02*
X66666000Y-96992000D01*
X68036000Y-96297000D02*
X68036000Y-93187000D01*
D13*
X64136000Y-97968000D02*
G75*
G02*
X63936000Y-97968000I-100000J0D01*
G01*
X63936000Y-97968000D02*
G75*
G02*
X64136000Y-97968000I100000J0D01*
G01*
%TO.C,U3*%
D16*
X50524000Y-126454000D02*
X56044000Y-126454000D01*
X50524000Y-126629000D02*
X50524000Y-126454000D01*
X50524000Y-134874000D02*
X50524000Y-134699000D01*
X56044000Y-126454000D02*
X56044000Y-126629000D01*
X56044000Y-134699000D02*
X56044000Y-134874000D01*
X56044000Y-134874000D02*
X50524000Y-134874000D01*
X49784000Y-126624000D02*
X49444000Y-126154000D01*
X50124000Y-126154000D01*
X49784000Y-126624000D01*
G36*
X49784000Y-126624000D02*
G01*
X49444000Y-126154000D01*
X50124000Y-126154000D01*
X49784000Y-126624000D01*
G37*
%TO.C,D2*%
X38101933Y-81111089D02*
X39586857Y-79626165D01*
X38101933Y-81111089D02*
X39940411Y-82949567D01*
X40011121Y-79626165D02*
X39586857Y-79626165D01*
X40011121Y-79626165D02*
X41637467Y-81252511D01*
X41637467Y-81252511D02*
X39940411Y-82949567D01*
%TO.C,R1*%
X68565500Y-38662258D02*
X68565500Y-38187742D01*
X69610500Y-38662258D02*
X69610500Y-38187742D01*
%TO.C,SW8*%
D19*
X51090000Y-121189000D02*
X51090000Y-118079000D01*
X52460000Y-117384000D02*
X54220000Y-117384000D01*
X52460000Y-121884000D02*
X54220000Y-121884000D01*
X55590000Y-121189000D02*
X55590000Y-118079000D01*
D13*
X51690000Y-122860000D02*
G75*
G02*
X51490000Y-122860000I-100000J0D01*
G01*
X51490000Y-122860000D02*
G75*
G02*
X51690000Y-122860000I100000J0D01*
G01*
%TO.C,R5*%
D16*
X59477500Y-122837742D02*
X59477500Y-123312258D01*
X60522500Y-122837742D02*
X60522500Y-123312258D01*
%TO.C,ENC1*%
D21*
X70537455Y-67714045D02*
G75*
G02*
X36137455Y-67714045I-17200000J0D01*
G01*
X36137455Y-67714045D02*
G75*
G02*
X70537455Y-67714045I17200000J0D01*
G01*
%TO.C,SW6*%
D19*
X51090000Y-96297000D02*
X51090000Y-93187000D01*
X52460000Y-92492000D02*
X54220000Y-92492000D01*
X52460000Y-96992000D02*
X54220000Y-96992000D01*
X55590000Y-96297000D02*
X55590000Y-93187000D01*
D13*
X51690000Y-97968000D02*
G75*
G02*
X51490000Y-97968000I-100000J0D01*
G01*
X51490000Y-97968000D02*
G75*
G02*
X51690000Y-97968000I100000J0D01*
G01*
%TO.C,Q2*%
D16*
X40440000Y-83677500D02*
X41440000Y-83677500D01*
X40440000Y-85197500D02*
X40440000Y-83677500D01*
X40490000Y-85197500D02*
X40440000Y-85197500D01*
X42390000Y-85197500D02*
X41610000Y-85197500D01*
X42560000Y-83677500D02*
X43560000Y-83677500D01*
X43560000Y-83677500D02*
X43560000Y-85197500D01*
X43560000Y-85197500D02*
X43510000Y-85197500D01*
X41620000Y-85737500D02*
X41950000Y-85497500D01*
X41950000Y-85977500D01*
X41620000Y-85737500D01*
G36*
X41950000Y-85977500D02*
G01*
X41620000Y-85737500D01*
X41950000Y-85497500D01*
X41950000Y-85977500D01*
G37*
%TO.C,SW3*%
D19*
X38644000Y-96297000D02*
X38644000Y-93187000D01*
X40014000Y-92492000D02*
X41774000Y-92492000D01*
X40014000Y-96992000D02*
X41774000Y-96992000D01*
X43144000Y-96297000D02*
X43144000Y-93187000D01*
D13*
X39244000Y-97968000D02*
G75*
G02*
X39044000Y-97968000I-100000J0D01*
G01*
X39044000Y-97968000D02*
G75*
G02*
X39244000Y-97968000I100000J0D01*
G01*
%TO.C,D3*%
D16*
X39798989Y-56014067D02*
X38101933Y-54317011D01*
X39940411Y-52478533D02*
X38101933Y-54317011D01*
X39940411Y-52478533D02*
X41425335Y-53963457D01*
X41425335Y-54387721D02*
X39798989Y-56014067D01*
X41425335Y-54387721D02*
X41425335Y-53963457D01*
%TD*%
M02*
