%TF.GenerationSoftware,KiCad,Pcbnew,10.0.3*%
%TF.CreationDate,2026-07-22T11:06:49-07:00*%
%TF.ProjectId,c6remote,63367265-6d6f-4746-952e-6b696361645f,rev?*%
%TF.SameCoordinates,Original*%
%TF.FileFunction,Copper,L2,Bot*%
%TF.FilePolarity,Positive*%
%FSLAX46Y46*%
G04 Gerber Fmt 4.6, Leading zero omitted, Abs format (unit mm)*
G04 Created by KiCad (PCBNEW 10.0.3) date 2026-07-22 11:06:49*
%MOMM*%
%LPD*%
G01*
G04 APERTURE LIST*
G04 Aperture macros list*
%AMRoundRect*
0 Rectangle with rounded corners*
0 $1 Rounding radius*
0 $2 $3 $4 $5 $6 $7 $8 $9 X,Y pos of 4 corners*
0 Add a 4 corners polygon primitive as box body*
4,1,4,$2,$3,$4,$5,$6,$7,$8,$9,$2,$3,0*
0 Add four circle primitives for the rounded corners*
1,1,$1+$1,$2,$3*
1,1,$1+$1,$4,$5*
1,1,$1+$1,$6,$7*
1,1,$1+$1,$8,$9*
0 Add four rect primitives between the rounded corners*
20,1,$1+$1,$2,$3,$4,$5,0*
20,1,$1+$1,$4,$5,$6,$7,0*
20,1,$1+$1,$6,$7,$8,$9,0*
20,1,$1+$1,$8,$9,$2,$3,0*%
%AMFreePoly0*
4,1,64,0.031751,0.146088,0.079639,0.146088,0.235856,0.115014,0.383010,0.054061,0.515445,-0.034429,0.628071,-0.147055,0.716561,-0.279490,0.777514,-0.426644,0.808588,-0.582861,0.808588,-0.742139,0.777514,-0.898356,0.716561,-1.045510,0.628071,-1.177945,0.515445,-1.290571,0.383010,-1.379061,0.235856,-1.440014,0.079639,-1.471088,-0.079639,-1.471088,-0.235856,-1.440014,-0.383010,-1.379061,
-0.515445,-1.290571,-0.628071,-1.177945,-0.716561,-1.045510,-0.777514,-0.898356,-0.808588,-0.742139,-0.808588,-0.595028,-0.512500,-0.595028,-0.512500,-0.729972,-0.477574,-0.860317,-0.410102,-0.977182,-0.314682,-1.072602,-0.197817,-1.140074,-0.067472,-1.175000,0.067472,-1.175000,0.197817,-1.140074,0.314682,-1.072602,0.410102,-0.977182,0.477574,-0.860317,0.512500,-0.729972,0.512500,-0.595028,
0.477574,-0.464683,0.410102,-0.347818,0.314682,-0.252398,0.197817,-0.184926,0.067472,-0.150000,-0.067472,-0.150000,-0.197817,-0.184926,-0.314682,-0.252398,-0.410102,-0.347818,-0.477574,-0.464683,-0.512500,-0.595028,-0.808588,-0.595028,-0.808588,-0.582861,-0.777514,-0.426644,-0.716561,-0.279490,-0.628071,-0.147055,-0.515445,-0.034429,-0.383010,0.054061,-0.235856,0.115014,-0.079639,0.146088,
-0.031751,0.146088,-0.029264,0.147118,0.029264,0.147118,0.031751,0.146088,0.031751,0.146088,$1*%
G04 Aperture macros list end*
%TA.AperFunction,ComponentPad*%
%ADD10C,1.700000*%
%TD*%
%TA.AperFunction,ComponentPad*%
%ADD11RoundRect,0.275000X0.275000X-0.975000X0.275000X0.975000X-0.275000X0.975000X-0.275000X-0.975000X0*%
%TD*%
%TA.AperFunction,ComponentPad*%
%ADD12C,1.000000*%
%TD*%
%TA.AperFunction,ComponentPad*%
%ADD13R,1.800000X1.800000*%
%TD*%
%TA.AperFunction,ComponentPad*%
%ADD14C,1.800000*%
%TD*%
%TA.AperFunction,ComponentPad*%
%ADD15RoundRect,0.250000X1.000000X-1.000000X1.000000X1.000000X-1.000000X1.000000X-1.000000X-1.000000X0*%
%TD*%
%TA.AperFunction,ComponentPad*%
%ADD16C,2.500000*%
%TD*%
%TA.AperFunction,ComponentPad*%
%ADD17C,2.750000*%
%TD*%
%TA.AperFunction,SMDPad,CuDef*%
%ADD18RoundRect,0.250000X-0.250000X-1.500000X0.250000X-1.500000X0.250000X1.500000X-0.250000X1.500000X0*%
%TD*%
%TA.AperFunction,SMDPad,CuDef*%
%ADD19RoundRect,0.250001X-0.499999X-1.449999X0.499999X-1.449999X0.499999X1.449999X-0.499999X1.449999X0*%
%TD*%
%TA.AperFunction,SMDPad,CuDef*%
%ADD20RoundRect,0.200000X-0.275000X0.200000X-0.275000X-0.200000X0.275000X-0.200000X0.275000X0.200000X0*%
%TD*%
%TA.AperFunction,SMDPad,CuDef*%
%ADD21RoundRect,0.200000X-0.200000X-0.275000X0.200000X-0.275000X0.200000X0.275000X-0.200000X0.275000X0*%
%TD*%
%TA.AperFunction,SMDPad,CuDef*%
%ADD22R,0.600000X0.522000*%
%TD*%
%TA.AperFunction,SMDPad,CuDef*%
%ADD23FreePoly0,90.000000*%
%TD*%
%TA.AperFunction,SMDPad,CuDef*%
%ADD24RoundRect,0.200000X0.200000X0.275000X-0.200000X0.275000X-0.200000X-0.275000X0.200000X-0.275000X0*%
%TD*%
%TA.AperFunction,ComponentPad*%
%ADD25RoundRect,0.248400X-0.651600X-0.651600X0.651600X-0.651600X0.651600X0.651600X-0.651600X0.651600X0*%
%TD*%
%TA.AperFunction,ViaPad*%
%ADD26C,0.600000*%
%TD*%
%TA.AperFunction,Conductor*%
%ADD27C,0.200000*%
%TD*%
G04 APERTURE END LIST*
D10*
%TO.P,U1,24,GPIO5_MTDI_24*%
%TO.N,exp_int*%
X56218400Y-156261500D03*
%TO.P,U1,25,GPIO7_MTDO_25*%
%TO.N,unconnected-(U1-GPIO7_MTDO-Pad25)*%
X53678400Y-156261500D03*
%TO.P,U1,26,CHIP_EN_26*%
%TO.N,unconnected-(U1-CHIP_EN-Pad26)*%
X56218400Y-153721500D03*
%TO.P,U1,27,GND_27*%
%TO.N,GND*%
X53678400Y-153721500D03*
%TO.P,U1,28,GPIO4_MTMS_28*%
%TO.N,bat_sense*%
X56218400Y-151181500D03*
%TO.P,U1,29,GPIO6_MTCK_29*%
%TO.N,unconnected-(U1-GPIO6_MTCK-Pad29)*%
X53678400Y-151181500D03*
%TO.P,U1,30,GPIO9_BOOT_30*%
%TO.N,unconnected-(U1-GPIO9_BOOT-Pad30)*%
X56218400Y-148641500D03*
%TO.P,U1,31,3V3_31*%
%TO.N,+3.3V*%
X53771000Y-148698300D03*
D11*
%TO.P,U1,32,BAT_32*%
%TO.N,BAT*%
X56726400Y-142088300D03*
%TO.P,U1,33,GND_33*%
%TO.N,GND*%
X54186400Y-142088300D03*
%TD*%
D12*
%TO.P,TP_VCC1,1,1_1*%
%TO.N,VCC*%
X46785000Y-155250000D03*
%TD*%
D13*
%TO.P,D1,1,K_1*%
%TO.N,Net-(D1-K)*%
X64037455Y-33258000D03*
D14*
%TO.P,D1,2,A_2*%
%TO.N,Net-(D1-A)*%
X61497455Y-33258000D03*
%TD*%
D15*
%TO.P,ENC1,1,COM_B_1*%
%TO.N,GND*%
X50084764Y-83793690D03*
D16*
%TO.P,ENC1,2,S2_DOWN_2*%
%TO.N,ano_sw4*%
X61087345Y-82817923D03*
D17*
%TO.P,ENC1,3,ENCA_3*%
%TO.N,ano_enc2*%
X59885264Y-74261954D03*
D16*
%TO.P,ENC1,4,S1_CENTER_4*%
%TO.N,ano_sw3*%
X52227297Y-68824158D03*
%TO.P,ENC1,5,S5_LEFT_5*%
%TO.N,ano_sw5*%
X37187136Y-71320254D03*
%TO.P,ENC1,6,COM_A_6*%
%TO.N,GND*%
X46789646Y-61166136D03*
D17*
%TO.P,ENC1,7,ENCB_7*%
%TO.N,ano_enc1*%
X59885264Y-61166020D03*
D15*
%TO.P,ENC1,8,S4_UP_8*%
%TO.N,ano_sw2*%
X45587565Y-52610131D03*
D16*
%TO.P,ENC1,9,S3_RIGHT_9*%
%TO.N,ano_sw1*%
X69487774Y-64107590D03*
%TD*%
D18*
%TO.P,J1,1,Pin_1_1*%
%TO.N,BAT*%
X39250000Y-155250000D03*
%TO.P,J1,2,Pin_2_2*%
%TO.N,GND*%
X41250000Y-155250000D03*
D19*
%TO.P,J1,MP*%
%TO.N,N/C*%
X36900000Y-149500000D03*
X43600000Y-149500000D03*
%TD*%
D20*
%TO.P,R7,1*%
%TO.N,BAT*%
X58835000Y-142175000D03*
%TO.P,R7,2*%
%TO.N,bat_sense*%
X58835000Y-143825000D03*
%TD*%
D12*
%TO.P,TP_SD,1*%
%TO.N,sd*%
X63085000Y-155250000D03*
%TD*%
%TO.P,TP_ANO_ENC2,1*%
%TO.N,ano_enc2*%
X46835000Y-142500000D03*
%TD*%
D21*
%TO.P,R3,1*%
%TO.N,+3.3V*%
X57350000Y-33258000D03*
%TO.P,R3,2*%
%TO.N,Net-(D1-A)*%
X59000000Y-33258000D03*
%TD*%
D12*
%TO.P,TP_GPIO18_D10_MOSI,1*%
%TO.N,unconnected-(U1-GPIO18_D10_MOSI-Pad11)*%
X46835000Y-147750000D03*
%TD*%
D22*
%TO.P,MK1,1,SCK_1*%
%TO.N,sck*%
X54250000Y-34626000D03*
%TO.P,MK1,2,WS_2*%
%TO.N,ws*%
X54250000Y-35448000D03*
D23*
%TO.P,MK1,3,L/R_3*%
%TO.N,GND*%
X52687500Y-36700000D03*
D22*
%TO.P,MK1,4,SD_4*%
%TO.N,sd*%
X52450000Y-35448000D03*
%TO.P,MK1,5,VDD_5*%
%TO.N,+3.3V*%
X52450000Y-34626000D03*
%TO.P,MK1,6,GND_6*%
%TO.N,GND*%
X53350000Y-34626000D03*
%TD*%
D12*
%TO.P,TP_SCK,1*%
%TO.N,sck*%
X63085000Y-150250000D03*
%TD*%
D24*
%TO.P,R6,1*%
%TO.N,+3.3V*%
X50075000Y-33000000D03*
%TO.P,R6,2*%
%TO.N,Net-(U2-Vs)*%
X48425000Y-33000000D03*
%TD*%
D25*
%TO.P,U2,1,OUT_1*%
%TO.N,IR REC*%
X41000000Y-33020000D03*
D14*
%TO.P,U2,2,GND_2*%
%TO.N,GND*%
X43540000Y-33020000D03*
%TO.P,U2,3,Vs_3*%
%TO.N,Net-(U2-Vs)*%
X46080000Y-33020000D03*
%TD*%
D12*
%TO.P,TP_GND,1*%
%TO.N,GND*%
X46785000Y-152800000D03*
%TD*%
%TO.P,TP_IR_REC,1*%
%TO.N,IR REC*%
X63085000Y-140000000D03*
%TD*%
%TO.P,TP_SDA,1*%
%TO.N,sda*%
X63085000Y-145000000D03*
%TD*%
%TO.P,TP_SCL,1*%
%TO.N,scl*%
X63085000Y-142500000D03*
%TD*%
%TO.P,TP_3V3,1*%
%TO.N,+3.3V*%
X46785000Y-150200000D03*
%TD*%
D24*
%TO.P,R8,1*%
%TO.N,bat_sense*%
X51075000Y-152750000D03*
%TO.P,R8,2*%
%TO.N,GND*%
X49425000Y-152750000D03*
%TD*%
D12*
%TO.P,TP_WS,1*%
%TO.N,ws*%
X63085000Y-147500000D03*
%TD*%
%TO.P,TP_ANO_ENC1,1*%
%TO.N,ano_enc1*%
X46835000Y-145000000D03*
%TD*%
%TO.P,TP_LED1,1*%
%TO.N,led_1*%
X46835000Y-140000000D03*
%TD*%
%TO.P,TP_IR_EMIT,1*%
%TO.N,IR EMIT*%
X63085000Y-152750000D03*
%TD*%
D26*
%TO.N,+3.3V*%
X43250000Y-132250000D03*
X57250000Y-123250000D03*
X67750000Y-154175000D03*
%TO.N,GND*%
X53350000Y-33350000D03*
X50750000Y-36750000D03*
%TO.N,sd*%
X66000000Y-138000000D03*
%TO.N,IR EMIT*%
X69500000Y-39000000D03*
%TO.N,exp_int*%
X48250000Y-126600000D03*
X67750000Y-155825000D03*
X58085000Y-154500000D03*
X48250000Y-136750000D03*
%TO.N,ano_sw5*%
X47879000Y-74676000D03*
%TD*%
%TO.N,GND*%
D27*
X41250000Y-155250000D02*
X43700000Y-152800000D01*
X50750000Y-36750000D02*
X52637500Y-36750000D01*
X49425000Y-152750000D02*
X46835000Y-152750000D01*
X53350000Y-33350000D02*
X53350000Y-34626000D01*
X43700000Y-152800000D02*
X46785000Y-152800000D01*
X54024700Y-142250000D02*
X54186400Y-142088300D01*
X52637500Y-36750000D02*
X52687500Y-36700000D01*
X46835000Y-152750000D02*
X46785000Y-152800000D01*
%TO.N,sd*%
X66500000Y-44852315D02*
X65443685Y-43796000D01*
X66000000Y-80000000D02*
X68000000Y-78000000D01*
X58368628Y-38500000D02*
X50500000Y-38500000D01*
X50500000Y-38500000D02*
X49750000Y-37750000D01*
X66500000Y-66750000D02*
X66500000Y-44852315D01*
X49750000Y-36250000D02*
X50538000Y-35462000D01*
X63664628Y-43796000D02*
X58368628Y-38500000D01*
X65443685Y-43796000D02*
X63664628Y-43796000D01*
X66000000Y-138000000D02*
X66000000Y-80000000D01*
X68000000Y-78000000D02*
X68000000Y-68250000D01*
X50538000Y-35462000D02*
X52437455Y-35462000D01*
X68000000Y-68250000D02*
X66500000Y-66750000D01*
X49750000Y-37750000D02*
X49750000Y-36250000D01*
%TO.N,IR EMIT*%
X65250000Y-152750000D02*
X63085000Y-152750000D01*
X69500000Y-39000000D02*
X69500000Y-42750000D01*
X69500000Y-148500000D02*
X65250000Y-152750000D01*
X69500000Y-42750000D02*
X67800000Y-44450000D01*
X67800000Y-65800000D02*
X69500000Y-67500000D01*
X69500000Y-67500000D02*
X69500000Y-148500000D01*
X67800000Y-44450000D02*
X67800000Y-65800000D01*
%TO.N,sck*%
X67400000Y-44620943D02*
X65775057Y-42996000D01*
X65250000Y-150250000D02*
X69000000Y-146500000D01*
X54000000Y-34590000D02*
X54050000Y-34640000D01*
X63996000Y-42996000D02*
X55640000Y-34640000D01*
X69000000Y-67750000D02*
X67400000Y-66150000D01*
X54264000Y-34640000D02*
X54250000Y-34626000D01*
X65775057Y-42996000D02*
X63996000Y-42996000D01*
X63085000Y-150250000D02*
X65250000Y-150250000D01*
X69000000Y-146500000D02*
X69000000Y-67750000D01*
X55640000Y-34640000D02*
X54264000Y-34640000D01*
X67400000Y-66150000D02*
X67400000Y-44620943D01*
%TO.N,ws*%
X67000000Y-44786629D02*
X67000000Y-66500000D01*
X68500000Y-144250000D02*
X65250000Y-147500000D01*
X63830314Y-43396000D02*
X65609371Y-43396000D01*
X65250000Y-147500000D02*
X63085000Y-147500000D01*
X55896314Y-35462000D02*
X63830314Y-43396000D01*
X67000000Y-66500000D02*
X68500000Y-68000000D01*
X65609371Y-43396000D02*
X67000000Y-44786629D01*
X54264000Y-35462000D02*
X55896314Y-35462000D01*
X54250000Y-35448000D02*
X54264000Y-35462000D01*
X68500000Y-68000000D02*
X68500000Y-144250000D01*
%TO.N,IR REC*%
X66000000Y-55500000D02*
X66000000Y-67000000D01*
X67500000Y-68500000D02*
X67500000Y-77500000D01*
X64250000Y-53750000D02*
X66000000Y-55500000D01*
X41020000Y-33020000D02*
X61750000Y-53750000D01*
X41000000Y-33020000D02*
X41020000Y-33020000D01*
X65000000Y-80000000D02*
X65000000Y-138085000D01*
X61750000Y-53750000D02*
X64250000Y-53750000D01*
X65000000Y-138085000D02*
X63085000Y-140000000D01*
X67500000Y-77500000D02*
X65000000Y-80000000D01*
X66000000Y-67000000D02*
X67500000Y-68500000D01*
%TO.N,ano_enc2*%
X46835000Y-142500000D02*
X46835000Y-142540000D01*
X56388000Y-132947000D02*
X46835000Y-142500000D01*
X56388000Y-131362000D02*
X56388000Y-132947000D01*
X59885264Y-74261954D02*
X56388000Y-77759218D01*
X56388000Y-77759218D02*
X56388000Y-131362000D01*
%TO.N,ano_enc1*%
X63246000Y-70739000D02*
X63246000Y-75692000D01*
X58166000Y-133669000D02*
X46915000Y-144920000D01*
X63246000Y-75692000D02*
X58166000Y-80772000D01*
X59885264Y-67378264D02*
X63246000Y-70739000D01*
X58166000Y-132084000D02*
X58166000Y-133669000D01*
X46915000Y-144920000D02*
X46915000Y-145000000D01*
X59885264Y-61166020D02*
X59885264Y-67378264D01*
X58166000Y-80772000D02*
X58166000Y-132084000D01*
%TO.N,exp_int*%
X60585000Y-157000000D02*
X66575000Y-157000000D01*
X67910000Y-155985000D02*
X67750000Y-155825000D01*
X48250000Y-126600000D02*
X48250000Y-136750000D01*
X66575000Y-157000000D02*
X67750000Y-155825000D01*
X58085000Y-154500000D02*
X60585000Y-157000000D01*
%TO.N,bat_sense*%
X51075000Y-152750000D02*
X51325000Y-152500000D01*
X54899900Y-152500000D02*
X56218400Y-151181500D01*
X51325000Y-152500000D02*
X54899900Y-152500000D01*
X56218400Y-151181500D02*
X58835000Y-148564900D01*
X58835000Y-148564900D02*
X58835000Y-145750000D01*
X58835000Y-145750000D02*
X58835000Y-143825000D01*
%TO.N,BAT*%
X56813100Y-142175000D02*
X56726400Y-142088300D01*
X58760000Y-142250000D02*
X58685000Y-142175000D01*
X39250000Y-153500000D02*
X39250000Y-155250000D01*
X58685000Y-142175000D02*
X56813100Y-142175000D01*
X41000000Y-151750000D02*
X39250000Y-153500000D01*
X48500000Y-151750000D02*
X41000000Y-151750000D01*
X56726400Y-143523600D02*
X48500000Y-151750000D01*
X56726400Y-142088300D02*
X56726400Y-143523600D01*
%TO.N,Net-(U2-Vs)*%
X48425000Y-33000000D02*
X46100000Y-33000000D01*
X46100000Y-33000000D02*
X46080000Y-33020000D01*
%TO.N,Net-(D1-A)*%
X59000000Y-33258000D02*
X61497455Y-33258000D01*
%TO.N,ano_sw5*%
X47879000Y-74676000D02*
X46101000Y-72898000D01*
X38764882Y-72898000D02*
X37187136Y-71320254D01*
X46101000Y-72898000D02*
X38764882Y-72898000D01*
%TD*%
%TA.AperFunction,Conductor*%
%TO.N,+3.3V*%
G36*
X40279994Y-28734185D02*
G01*
X40325749Y-28786989D01*
X40336955Y-28838500D01*
X40336955Y-30779891D01*
X40371063Y-30907187D01*
X40404009Y-30964250D01*
X40436955Y-31021314D01*
X40530141Y-31114500D01*
X40644269Y-31180392D01*
X40771563Y-31214500D01*
X40771565Y-31214500D01*
X47003345Y-31214500D01*
X47003347Y-31214500D01*
X47130641Y-31180392D01*
X47244769Y-31114500D01*
X47337955Y-31021314D01*
X47403847Y-30907186D01*
X47437955Y-30779892D01*
X47437955Y-28838500D01*
X47457640Y-28771461D01*
X47510444Y-28725706D01*
X47561955Y-28714500D01*
X59112955Y-28714500D01*
X59179994Y-28734185D01*
X59225749Y-28786989D01*
X59236955Y-28838500D01*
X59236955Y-30779891D01*
X59271063Y-30907187D01*
X59304009Y-30964250D01*
X59336955Y-31021314D01*
X59430141Y-31114500D01*
X59544269Y-31180392D01*
X59671563Y-31214500D01*
X59671565Y-31214500D01*
X65903345Y-31214500D01*
X65903347Y-31214500D01*
X66030641Y-31180392D01*
X66144769Y-31114500D01*
X66237955Y-31021314D01*
X66303847Y-30907186D01*
X66337955Y-30779892D01*
X66337955Y-28838500D01*
X66357640Y-28771461D01*
X66410444Y-28725706D01*
X66461955Y-28714500D01*
X68833612Y-28714500D01*
X68841117Y-28714727D01*
X69131169Y-28732315D01*
X69146024Y-28734121D01*
X69428160Y-28785861D01*
X69442672Y-28789439D01*
X69716530Y-28874807D01*
X69730507Y-28880109D01*
X69992074Y-28997855D01*
X70005326Y-29004811D01*
X70250779Y-29153210D01*
X70263100Y-29161715D01*
X70488890Y-29338619D01*
X70500095Y-29348547D01*
X70702907Y-29551359D01*
X70712835Y-29562564D01*
X70889739Y-29788354D01*
X70898244Y-29800675D01*
X71046643Y-30046128D01*
X71053601Y-30059383D01*
X71171341Y-30320937D01*
X71176651Y-30334935D01*
X71262012Y-30608771D01*
X71265596Y-30623306D01*
X71317332Y-30905426D01*
X71319139Y-30920287D01*
X71336728Y-31210335D01*
X71336955Y-31217841D01*
X71336955Y-63674744D01*
X71317270Y-63741783D01*
X71264466Y-63787538D01*
X71195308Y-63797482D01*
X71131752Y-63768457D01*
X71095024Y-63713063D01*
X71017351Y-63474013D01*
X70974561Y-63390035D01*
X70899408Y-63242539D01*
X70746705Y-63032361D01*
X70563003Y-62848659D01*
X70462991Y-62775996D01*
X70352828Y-62695958D01*
X70352827Y-62695957D01*
X70352825Y-62695956D01*
X70280538Y-62659124D01*
X70121350Y-62578012D01*
X69874267Y-62497730D01*
X69617676Y-62457090D01*
X69617671Y-62457090D01*
X69357877Y-62457090D01*
X69357872Y-62457090D01*
X69101280Y-62497730D01*
X68854197Y-62578012D01*
X68622719Y-62695958D01*
X68497385Y-62787018D01*
X68431579Y-62810498D01*
X68363525Y-62794672D01*
X68314830Y-62744566D01*
X68300500Y-62686700D01*
X68300500Y-44708676D01*
X68320185Y-44641637D01*
X68336819Y-44620995D01*
X69017838Y-43939976D01*
X69900500Y-43057314D01*
X69966392Y-42943186D01*
X70000500Y-42815892D01*
X70000500Y-42684108D01*
X70000500Y-39541518D01*
X70020185Y-39474479D01*
X70036823Y-39453833D01*
X70044114Y-39446542D01*
X70120775Y-39331811D01*
X70173580Y-39204328D01*
X70200500Y-39068993D01*
X70200500Y-38931007D01*
X70200500Y-38931004D01*
X70173581Y-38795677D01*
X70173580Y-38795676D01*
X70173580Y-38795672D01*
X70173578Y-38795667D01*
X70120778Y-38668195D01*
X70120771Y-38668182D01*
X70044114Y-38553458D01*
X70044111Y-38553454D01*
X69946545Y-38455888D01*
X69946541Y-38455885D01*
X69831817Y-38379228D01*
X69831804Y-38379221D01*
X69704332Y-38326421D01*
X69704322Y-38326418D01*
X69568995Y-38299500D01*
X69568993Y-38299500D01*
X69431007Y-38299500D01*
X69431005Y-38299500D01*
X69295677Y-38326418D01*
X69295667Y-38326421D01*
X69168195Y-38379221D01*
X69168182Y-38379228D01*
X69053458Y-38455885D01*
X69053454Y-38455888D01*
X68955888Y-38553454D01*
X68955885Y-38553458D01*
X68879228Y-38668182D01*
X68879221Y-38668195D01*
X68826421Y-38795667D01*
X68826418Y-38795677D01*
X68799500Y-38931004D01*
X68799500Y-38931007D01*
X68799500Y-39068993D01*
X68799500Y-39068995D01*
X68799499Y-39068995D01*
X68826418Y-39204322D01*
X68826421Y-39204332D01*
X68879221Y-39331804D01*
X68879228Y-39331817D01*
X68955885Y-39446541D01*
X68963177Y-39453833D01*
X68996665Y-39515155D01*
X68999500Y-39541518D01*
X68999500Y-42491323D01*
X68979815Y-42558362D01*
X68963181Y-42579004D01*
X67602209Y-43939976D01*
X67540886Y-43973461D01*
X67471194Y-43968477D01*
X67426847Y-43939976D01*
X66082373Y-42595502D01*
X66082371Y-42595500D01*
X65990895Y-42542686D01*
X65968244Y-42529608D01*
X65904596Y-42512554D01*
X65840949Y-42495500D01*
X65840948Y-42495500D01*
X64254676Y-42495500D01*
X64187637Y-42475815D01*
X64166995Y-42459181D01*
X55947316Y-34239502D01*
X55947314Y-34239500D01*
X55884728Y-34203366D01*
X55833187Y-34173608D01*
X55730695Y-34146146D01*
X55705892Y-34139500D01*
X55705891Y-34139500D01*
X54942254Y-34139500D01*
X54875215Y-34119815D01*
X54854577Y-34103185D01*
X54788342Y-34036950D01*
X54730702Y-34007580D01*
X54675301Y-33979352D01*
X54581524Y-33964500D01*
X54013875Y-33964500D01*
X53946836Y-33944815D01*
X53901081Y-33892011D01*
X53891137Y-33822853D01*
X53910774Y-33771608D01*
X53970770Y-33681819D01*
X53970771Y-33681816D01*
X53970775Y-33681811D01*
X54008977Y-33589582D01*
X56450001Y-33589582D01*
X56456408Y-33660102D01*
X56456409Y-33660107D01*
X56506981Y-33822396D01*
X56594927Y-33967877D01*
X56715122Y-34088072D01*
X56860604Y-34176019D01*
X56860603Y-34176019D01*
X57022894Y-34226590D01*
X57022893Y-34226590D01*
X57093408Y-34232998D01*
X57093426Y-34232999D01*
X57099999Y-34232998D01*
X57100000Y-34232998D01*
X57100000Y-33508000D01*
X56450001Y-33508000D01*
X56450001Y-33589582D01*
X54008977Y-33589582D01*
X54023580Y-33554328D01*
X54050500Y-33418993D01*
X54050500Y-33281007D01*
X54050500Y-33281004D01*
X54023581Y-33145677D01*
X54023580Y-33145676D01*
X54023580Y-33145672D01*
X54023578Y-33145667D01*
X53970778Y-33018195D01*
X53970768Y-33018177D01*
X53953616Y-32992507D01*
X53953615Y-32992506D01*
X53909462Y-32926427D01*
X56450000Y-32926427D01*
X56450000Y-33008000D01*
X57100000Y-33008000D01*
X57100000Y-32283000D01*
X57600000Y-32283000D01*
X57600000Y-34232999D01*
X57606581Y-34232999D01*
X57677102Y-34226591D01*
X57677107Y-34226590D01*
X57839396Y-34176018D01*
X57984877Y-34088072D01*
X58105070Y-33967879D01*
X58130856Y-33925224D01*
X58182383Y-33878036D01*
X58251243Y-33866197D01*
X58315572Y-33893465D01*
X58335349Y-33913886D01*
X58371715Y-33961279D01*
X58371716Y-33961280D01*
X58371718Y-33961282D01*
X58497159Y-34057536D01*
X58643238Y-34118044D01*
X58760639Y-34133500D01*
X59239360Y-34133499D01*
X59239363Y-34133499D01*
X59356753Y-34118046D01*
X59356757Y-34118044D01*
X59356762Y-34118044D01*
X59502841Y-34057536D01*
X59628282Y-33961282D01*
X59724536Y-33835841D01*
X59724864Y-33835050D01*
X59725318Y-33834486D01*
X59728602Y-33828799D01*
X59729488Y-33829310D01*
X59768704Y-33780645D01*
X59834997Y-33758579D01*
X59839426Y-33758500D01*
X60216900Y-33758500D01*
X60283939Y-33778185D01*
X60327385Y-33826205D01*
X60344627Y-33860043D01*
X60380963Y-33931358D01*
X60385170Y-33939613D01*
X60505483Y-34105213D01*
X60650241Y-34249971D01*
X60797308Y-34356819D01*
X60815845Y-34370287D01*
X60932062Y-34429503D01*
X60998231Y-34463218D01*
X60998233Y-34463218D01*
X60998236Y-34463220D01*
X61068500Y-34486050D01*
X61192920Y-34526477D01*
X61294012Y-34542488D01*
X61395103Y-34558500D01*
X61395104Y-34558500D01*
X61599806Y-34558500D01*
X61599807Y-34558500D01*
X61801989Y-34526477D01*
X61996674Y-34463220D01*
X62179065Y-34370287D01*
X62314534Y-34271864D01*
X62344668Y-34249971D01*
X62344670Y-34249968D01*
X62344674Y-34249966D01*
X62489421Y-34105219D01*
X62512635Y-34073266D01*
X62567963Y-34030599D01*
X62637576Y-34024618D01*
X62699373Y-34057222D01*
X62733732Y-34118060D01*
X62736955Y-34146146D01*
X62736955Y-34189516D01*
X62744903Y-34239696D01*
X62751809Y-34283304D01*
X62809405Y-34396342D01*
X62809407Y-34396344D01*
X62809409Y-34396347D01*
X62899107Y-34486045D01*
X62899109Y-34486046D01*
X62899113Y-34486050D01*
X63012149Y-34543645D01*
X63012153Y-34543647D01*
X63105930Y-34558499D01*
X63105936Y-34558500D01*
X64968973Y-34558499D01*
X65062759Y-34543646D01*
X65175797Y-34486050D01*
X65265505Y-34396342D01*
X65323101Y-34283304D01*
X65323101Y-34283302D01*
X65323102Y-34283301D01*
X65337954Y-34189524D01*
X65337955Y-34189519D01*
X65337954Y-32326482D01*
X65323101Y-32232696D01*
X65265505Y-32119658D01*
X65265501Y-32119654D01*
X65265500Y-32119652D01*
X65175802Y-32029954D01*
X65175799Y-32029952D01*
X65175797Y-32029950D01*
X65096453Y-31989522D01*
X65062756Y-31972352D01*
X64968979Y-31957500D01*
X63105937Y-31957500D01*
X63024974Y-31970323D01*
X63012151Y-31972354D01*
X62899113Y-32029950D01*
X62899112Y-32029951D01*
X62899107Y-32029954D01*
X62809409Y-32119652D01*
X62809406Y-32119657D01*
X62809405Y-32119658D01*
X62799064Y-32139953D01*
X62751807Y-32232698D01*
X62736955Y-32326475D01*
X62736955Y-32369849D01*
X62717270Y-32436888D01*
X62664466Y-32482643D01*
X62595308Y-32492587D01*
X62531752Y-32463562D01*
X62512637Y-32442734D01*
X62489426Y-32410786D01*
X62344668Y-32266028D01*
X62179068Y-32145715D01*
X62179067Y-32145714D01*
X62179065Y-32145713D01*
X62106307Y-32108641D01*
X61996678Y-32052781D01*
X61801989Y-31989522D01*
X61627450Y-31961878D01*
X61599807Y-31957500D01*
X61395103Y-31957500D01*
X61370784Y-31961351D01*
X61192920Y-31989522D01*
X60998231Y-32052781D01*
X60815841Y-32145715D01*
X60650241Y-32266028D01*
X60505483Y-32410786D01*
X60385170Y-32576386D01*
X60327385Y-32689795D01*
X60279410Y-32740591D01*
X60216900Y-32757500D01*
X59839426Y-32757500D01*
X59772387Y-32737815D01*
X59726632Y-32685011D01*
X59724864Y-32680950D01*
X59724537Y-32680161D01*
X59724535Y-32680158D01*
X59701010Y-32649500D01*
X59661414Y-32597897D01*
X59628283Y-32554719D01*
X59556217Y-32499421D01*
X59502841Y-32458464D01*
X59464865Y-32442734D01*
X59356762Y-32397956D01*
X59356760Y-32397955D01*
X59239361Y-32382500D01*
X58760636Y-32382500D01*
X58643246Y-32397953D01*
X58643237Y-32397956D01*
X58497160Y-32458463D01*
X58497159Y-32458464D01*
X58371718Y-32554718D01*
X58371716Y-32554719D01*
X58371715Y-32554721D01*
X58335348Y-32602114D01*
X58278920Y-32643316D01*
X58209174Y-32647469D01*
X58148254Y-32613256D01*
X58130857Y-32590776D01*
X58105072Y-32548122D01*
X57984877Y-32427927D01*
X57839395Y-32339980D01*
X57839396Y-32339980D01*
X57677105Y-32289409D01*
X57677106Y-32289409D01*
X57606572Y-32283000D01*
X57600000Y-32283000D01*
X57100000Y-32283000D01*
X57099999Y-32282999D01*
X57093436Y-32283000D01*
X57093417Y-32283001D01*
X57022897Y-32289408D01*
X57022892Y-32289409D01*
X56860603Y-32339981D01*
X56715122Y-32427927D01*
X56594927Y-32548122D01*
X56506980Y-32693604D01*
X56456409Y-32855893D01*
X56450000Y-32926427D01*
X53909462Y-32926427D01*
X53894114Y-32903458D01*
X53894111Y-32903454D01*
X53796545Y-32805888D01*
X53796541Y-32805885D01*
X53681817Y-32729228D01*
X53681804Y-32729221D01*
X53554332Y-32676421D01*
X53554322Y-32676418D01*
X53418995Y-32649500D01*
X53418993Y-32649500D01*
X53281007Y-32649500D01*
X53281005Y-32649500D01*
X53145677Y-32676418D01*
X53145667Y-32676421D01*
X53018195Y-32729221D01*
X53018182Y-32729228D01*
X52903458Y-32805885D01*
X52903454Y-32805888D01*
X52805888Y-32903454D01*
X52805885Y-32903458D01*
X52729228Y-33018182D01*
X52729221Y-33018195D01*
X52676421Y-33145667D01*
X52676418Y-33145677D01*
X52649500Y-33281004D01*
X52649500Y-33281007D01*
X52649500Y-33418993D01*
X52649500Y-33418995D01*
X52649499Y-33418995D01*
X52676418Y-33554322D01*
X52676421Y-33554332D01*
X52729221Y-33681804D01*
X52729232Y-33681824D01*
X52734358Y-33689496D01*
X52755234Y-33756174D01*
X52736747Y-33823553D01*
X52718936Y-33846063D01*
X52700000Y-33864999D01*
X52700000Y-34139966D01*
X52686485Y-34196260D01*
X52664353Y-34239695D01*
X52664352Y-34239698D01*
X52649500Y-34333475D01*
X52649500Y-34502000D01*
X52629815Y-34569039D01*
X52577011Y-34614794D01*
X52525500Y-34626000D01*
X52450000Y-34626000D01*
X52450000Y-34662500D01*
X52430315Y-34729539D01*
X52377511Y-34775294D01*
X52326001Y-34786500D01*
X52118482Y-34786500D01*
X52037519Y-34799323D01*
X52024696Y-34801354D01*
X51911658Y-34858950D01*
X51911657Y-34858950D01*
X51904721Y-34862485D01*
X51848426Y-34876000D01*
X51650000Y-34876000D01*
X51633995Y-34892004D01*
X51630315Y-34904539D01*
X51577511Y-34950294D01*
X51526000Y-34961500D01*
X50472107Y-34961500D01*
X50397063Y-34981607D01*
X50397063Y-34981608D01*
X50344814Y-34995608D01*
X50344813Y-34995608D01*
X50344811Y-34995609D01*
X50230686Y-35061500D01*
X50230683Y-35061502D01*
X50137498Y-35154688D01*
X49425245Y-35866940D01*
X49425244Y-35866940D01*
X49425245Y-35866941D01*
X49349500Y-35942686D01*
X49283608Y-36056812D01*
X49262393Y-36135990D01*
X49249500Y-36184108D01*
X49249500Y-37684108D01*
X49249500Y-37815892D01*
X49260743Y-37857853D01*
X49283608Y-37943187D01*
X49286919Y-37948921D01*
X49349500Y-38057314D01*
X50192686Y-38900500D01*
X50306814Y-38966392D01*
X50434107Y-39000500D01*
X50434108Y-39000500D01*
X58109952Y-39000500D01*
X58176991Y-39020185D01*
X58197633Y-39036819D01*
X63357314Y-44196500D01*
X63471442Y-44262392D01*
X63598736Y-44296500D01*
X63730520Y-44296500D01*
X65185009Y-44296500D01*
X65252048Y-44316185D01*
X65272690Y-44332819D01*
X65963181Y-45023310D01*
X65996666Y-45084633D01*
X65999500Y-45110991D01*
X65999500Y-54492324D01*
X65979815Y-54559363D01*
X65927011Y-54605118D01*
X65857853Y-54615062D01*
X65794297Y-54586037D01*
X65787819Y-54580005D01*
X64557316Y-53349502D01*
X64557314Y-53349500D01*
X64500250Y-53316554D01*
X64443187Y-53283608D01*
X64379539Y-53266554D01*
X64315892Y-53249500D01*
X64315891Y-53249500D01*
X62008676Y-53249500D01*
X61941637Y-53229815D01*
X61920995Y-53213181D01*
X43221135Y-34513321D01*
X43187650Y-34451998D01*
X43192634Y-34382306D01*
X43234506Y-34326373D01*
X43299970Y-34301956D01*
X43328213Y-34303166D01*
X43437648Y-34320500D01*
X43437649Y-34320500D01*
X43642351Y-34320500D01*
X43642352Y-34320500D01*
X43844534Y-34288477D01*
X44039219Y-34225220D01*
X44221610Y-34132287D01*
X44352830Y-34036951D01*
X44387213Y-34011971D01*
X44387215Y-34011968D01*
X44387219Y-34011966D01*
X44531966Y-33867219D01*
X44531968Y-33867215D01*
X44531971Y-33867213D01*
X44652284Y-33701614D01*
X44652283Y-33701614D01*
X44652287Y-33701610D01*
X44699516Y-33608917D01*
X44747489Y-33558123D01*
X44815310Y-33541328D01*
X44881445Y-33563865D01*
X44920485Y-33608919D01*
X44967715Y-33701614D01*
X45088028Y-33867213D01*
X45232786Y-34011971D01*
X45378785Y-34118043D01*
X45398390Y-34132287D01*
X45510708Y-34189516D01*
X45580776Y-34225218D01*
X45580778Y-34225218D01*
X45580781Y-34225220D01*
X45685137Y-34259127D01*
X45775465Y-34288477D01*
X45876557Y-34304488D01*
X45977648Y-34320500D01*
X45977649Y-34320500D01*
X46182351Y-34320500D01*
X46182352Y-34320500D01*
X46203471Y-34317155D01*
X51650000Y-34317155D01*
X51650000Y-34376000D01*
X52200000Y-34376000D01*
X52200000Y-33865000D01*
X52102155Y-33865000D01*
X52042627Y-33871401D01*
X52042620Y-33871403D01*
X51907913Y-33921645D01*
X51907906Y-33921649D01*
X51792812Y-34007809D01*
X51792809Y-34007812D01*
X51706649Y-34122906D01*
X51706645Y-34122913D01*
X51656403Y-34257620D01*
X51656401Y-34257627D01*
X51650000Y-34317155D01*
X46203471Y-34317155D01*
X46384534Y-34288477D01*
X46579219Y-34225220D01*
X46761610Y-34132287D01*
X46892830Y-34036951D01*
X46927213Y-34011971D01*
X46927215Y-34011968D01*
X46927219Y-34011966D01*
X47071966Y-33867219D01*
X47071968Y-33867215D01*
X47071971Y-33867213D01*
X47192284Y-33701614D01*
X47192283Y-33701614D01*
X47192287Y-33701610D01*
X47260260Y-33568204D01*
X47270709Y-33557140D01*
X47277032Y-33543297D01*
X47294211Y-33532256D01*
X47308234Y-33517409D01*
X47323915Y-33513167D01*
X47335810Y-33505523D01*
X47370745Y-33500500D01*
X47585574Y-33500500D01*
X47652613Y-33520185D01*
X47698368Y-33572989D01*
X47700136Y-33577050D01*
X47700462Y-33577838D01*
X47700464Y-33577841D01*
X47786343Y-33689762D01*
X47796718Y-33703282D01*
X47922159Y-33799536D01*
X48068238Y-33860044D01*
X48185639Y-33875500D01*
X48664360Y-33875499D01*
X48664363Y-33875499D01*
X48781753Y-33860046D01*
X48781757Y-33860044D01*
X48781762Y-33860044D01*
X48927841Y-33799536D01*
X49053282Y-33703282D01*
X49089649Y-33655886D01*
X49146077Y-33614684D01*
X49215823Y-33610529D01*
X49276743Y-33644741D01*
X49294142Y-33667223D01*
X49319927Y-33709877D01*
X49440122Y-33830072D01*
X49585604Y-33918019D01*
X49585603Y-33918019D01*
X49747894Y-33968590D01*
X49747893Y-33968590D01*
X49818408Y-33974998D01*
X49818426Y-33974999D01*
X50325000Y-33974999D01*
X50331581Y-33974999D01*
X50402102Y-33968591D01*
X50402107Y-33968590D01*
X50564396Y-33918018D01*
X50709877Y-33830072D01*
X50830072Y-33709877D01*
X50918019Y-33564395D01*
X50968590Y-33402106D01*
X50975000Y-33331572D01*
X50975000Y-33250000D01*
X50325000Y-33250000D01*
X50325000Y-33974999D01*
X49818426Y-33974999D01*
X49824999Y-33974998D01*
X49825000Y-33974998D01*
X49825000Y-32750000D01*
X50325000Y-32750000D01*
X50974999Y-32750000D01*
X50974999Y-32668417D01*
X50968591Y-32597897D01*
X50968590Y-32597892D01*
X50918018Y-32435603D01*
X50830072Y-32290122D01*
X50709877Y-32169927D01*
X50564395Y-32081980D01*
X50564396Y-32081980D01*
X50402105Y-32031409D01*
X50402106Y-32031409D01*
X50331572Y-32025000D01*
X50325000Y-32025000D01*
X50325000Y-32750000D01*
X49825000Y-32750000D01*
X49825000Y-32025000D01*
X49824999Y-32024999D01*
X49818436Y-32025000D01*
X49818417Y-32025001D01*
X49747897Y-32031408D01*
X49747892Y-32031409D01*
X49585603Y-32081981D01*
X49440122Y-32169927D01*
X49319928Y-32290121D01*
X49319925Y-32290125D01*
X49294141Y-32332777D01*
X49242613Y-32379964D01*
X49173753Y-32391802D01*
X49109425Y-32364532D01*
X49089650Y-32344113D01*
X49069872Y-32318338D01*
X49053282Y-32296718D01*
X48927841Y-32200464D01*
X48861008Y-32172781D01*
X48781762Y-32139956D01*
X48781760Y-32139955D01*
X48664361Y-32124500D01*
X48185636Y-32124500D01*
X48068246Y-32139953D01*
X48068237Y-32139956D01*
X47922160Y-32200463D01*
X47796716Y-32296719D01*
X47700464Y-32422158D01*
X47700462Y-32422161D01*
X47700136Y-32422950D01*
X47699681Y-32423513D01*
X47696398Y-32429201D01*
X47695511Y-32428689D01*
X47687592Y-32438516D01*
X47679287Y-32456703D01*
X47666117Y-32465166D01*
X47656296Y-32477355D01*
X47637326Y-32483669D01*
X47620509Y-32494477D01*
X47592953Y-32498439D01*
X47590003Y-32499421D01*
X47585574Y-32499500D01*
X47350364Y-32499500D01*
X47283325Y-32479815D01*
X47239879Y-32431795D01*
X47239515Y-32431080D01*
X47192287Y-32338390D01*
X47192285Y-32338387D01*
X47192284Y-32338385D01*
X47071971Y-32172786D01*
X46927213Y-32028028D01*
X46761613Y-31907715D01*
X46761612Y-31907714D01*
X46761610Y-31907713D01*
X46704653Y-31878691D01*
X46579223Y-31814781D01*
X46384534Y-31751522D01*
X46200630Y-31722395D01*
X46182352Y-31719500D01*
X45977648Y-31719500D01*
X45959370Y-31722395D01*
X45775465Y-31751522D01*
X45580776Y-31814781D01*
X45398386Y-31907715D01*
X45232786Y-32028028D01*
X45088028Y-32172786D01*
X44967715Y-32338386D01*
X44920485Y-32431080D01*
X44872510Y-32481876D01*
X44804689Y-32498671D01*
X44738554Y-32476134D01*
X44699515Y-32431080D01*
X44695659Y-32423513D01*
X44652287Y-32338390D01*
X44622012Y-32296720D01*
X44531971Y-32172786D01*
X44387213Y-32028028D01*
X44221613Y-31907715D01*
X44221612Y-31907714D01*
X44221610Y-31907713D01*
X44164653Y-31878691D01*
X44039223Y-31814781D01*
X43844534Y-31751522D01*
X43660630Y-31722395D01*
X43642352Y-31719500D01*
X43437648Y-31719500D01*
X43419370Y-31722395D01*
X43235465Y-31751522D01*
X43040776Y-31814781D01*
X42858386Y-31907715D01*
X42692786Y-32028028D01*
X42548032Y-32172782D01*
X42498553Y-32240885D01*
X42443223Y-32283550D01*
X42373610Y-32289529D01*
X42311815Y-32256923D01*
X42279159Y-32202595D01*
X42251864Y-32108643D01*
X42181416Y-31989522D01*
X42168408Y-31967527D01*
X42168401Y-31967518D01*
X42052481Y-31851598D01*
X42052472Y-31851591D01*
X41966640Y-31800830D01*
X41911357Y-31768136D01*
X41753917Y-31722396D01*
X41753916Y-31722395D01*
X41753913Y-31722395D01*
X41717127Y-31719500D01*
X41717122Y-31719500D01*
X40282878Y-31719500D01*
X40282872Y-31719500D01*
X40246087Y-31722395D01*
X40246085Y-31722395D01*
X40167363Y-31745266D01*
X40088643Y-31768136D01*
X40088641Y-31768136D01*
X40088641Y-31768137D01*
X39947527Y-31851591D01*
X39947518Y-31851598D01*
X39831598Y-31967518D01*
X39831591Y-31967527D01*
X39763904Y-32081981D01*
X39748136Y-32108643D01*
X39737366Y-32145715D01*
X39702395Y-32266085D01*
X39702395Y-32266087D01*
X39699500Y-32302872D01*
X39699500Y-33737127D01*
X39702395Y-33773912D01*
X39702395Y-33773914D01*
X39702396Y-33773917D01*
X39748136Y-33931357D01*
X39776520Y-33979352D01*
X39831591Y-34072472D01*
X39831598Y-34072481D01*
X39947518Y-34188401D01*
X39947522Y-34188404D01*
X39947524Y-34188406D01*
X40088643Y-34271864D01*
X40246083Y-34317604D01*
X40282878Y-34320500D01*
X41561324Y-34320500D01*
X41628363Y-34340185D01*
X41649005Y-34356819D01*
X61442686Y-54150500D01*
X61556814Y-54216392D01*
X61684107Y-54250500D01*
X61684108Y-54250500D01*
X63991324Y-54250500D01*
X64058363Y-54270185D01*
X64079005Y-54286819D01*
X65463181Y-55670995D01*
X65496666Y-55732318D01*
X65499500Y-55758676D01*
X65499500Y-56595005D01*
X65479815Y-56662044D01*
X65427011Y-56707799D01*
X65357853Y-56717743D01*
X65294297Y-56688718D01*
X65287819Y-56682686D01*
X64174853Y-55569720D01*
X64174841Y-55569706D01*
X64074597Y-55469464D01*
X64074596Y-55469463D01*
X64074594Y-55469461D01*
X64071659Y-55467766D01*
X63960467Y-55403567D01*
X63833173Y-55369461D01*
X63833172Y-55369461D01*
X63701387Y-55369461D01*
X63574092Y-55403569D01*
X63459966Y-55469461D01*
X63459963Y-55469463D01*
X62929636Y-55999792D01*
X62306122Y-56623305D01*
X62306120Y-56623308D01*
X62240228Y-56737434D01*
X62206120Y-56864730D01*
X62206120Y-56996514D01*
X62223174Y-57060161D01*
X62240228Y-57123809D01*
X62273174Y-57180872D01*
X62306120Y-57237936D01*
X62306121Y-57237937D01*
X62306122Y-57237938D01*
X63715992Y-58647807D01*
X63716002Y-58647818D01*
X63720332Y-58652148D01*
X63720333Y-58652149D01*
X63813519Y-58745335D01*
X63927647Y-58811227D01*
X64054940Y-58845335D01*
X64054941Y-58845335D01*
X64054942Y-58845335D01*
X64186723Y-58845335D01*
X64186725Y-58845335D01*
X64314019Y-58811227D01*
X64428147Y-58745335D01*
X65051663Y-58121819D01*
X65110222Y-58063260D01*
X65110233Y-58063247D01*
X65287820Y-57885661D01*
X65349142Y-57852177D01*
X65418834Y-57857161D01*
X65474767Y-57899033D01*
X65499184Y-57964497D01*
X65499500Y-57973343D01*
X65499500Y-67065891D01*
X65533608Y-67193187D01*
X65545797Y-67214298D01*
X65599500Y-67307314D01*
X65599502Y-67307316D01*
X66963181Y-68670995D01*
X66996666Y-68732318D01*
X66999500Y-68758676D01*
X66999500Y-77241324D01*
X66979815Y-77308363D01*
X66963181Y-77329005D01*
X65862642Y-78429543D01*
X65801319Y-78463028D01*
X65731627Y-78458044D01*
X65675694Y-78416172D01*
X65651277Y-78350708D01*
X65655186Y-78309770D01*
X65657811Y-78299969D01*
X65681994Y-78209717D01*
X65681994Y-78077932D01*
X65647886Y-77950639D01*
X65618938Y-77900500D01*
X65581994Y-77836510D01*
X65488809Y-77743325D01*
X65488806Y-77743323D01*
X64958477Y-77212995D01*
X64428147Y-76682665D01*
X64371083Y-76649719D01*
X64314020Y-76616773D01*
X64250372Y-76599719D01*
X64186725Y-76582665D01*
X64054940Y-76582665D01*
X63927645Y-76616773D01*
X63813519Y-76682665D01*
X63813516Y-76682667D01*
X63720331Y-76775853D01*
X62381865Y-78114318D01*
X62381864Y-78114318D01*
X62381865Y-78114319D01*
X62306120Y-78190064D01*
X62240228Y-78304190D01*
X62206120Y-78431486D01*
X62206120Y-78563269D01*
X62240228Y-78690565D01*
X62250476Y-78708314D01*
X62306120Y-78804692D01*
X62836450Y-79335022D01*
X63459966Y-79958539D01*
X63558801Y-80015602D01*
X63574090Y-80024429D01*
X63574094Y-80024431D01*
X63701387Y-80058539D01*
X63701388Y-80058539D01*
X63701389Y-80058539D01*
X63833169Y-80058539D01*
X63833172Y-80058539D01*
X63926360Y-80033570D01*
X63960467Y-80024432D01*
X64001166Y-80000932D01*
X64074594Y-79958539D01*
X64167780Y-79865354D01*
X64167780Y-79865353D01*
X64177981Y-79855153D01*
X64177989Y-79855143D01*
X64318856Y-79714275D01*
X64380177Y-79680792D01*
X64449869Y-79685776D01*
X64505802Y-79727648D01*
X64530219Y-79793112D01*
X64526310Y-79834050D01*
X64520657Y-79855149D01*
X64499500Y-79934108D01*
X64499500Y-137826323D01*
X64479815Y-137893362D01*
X64463181Y-137914004D01*
X63307298Y-139069886D01*
X63245975Y-139103371D01*
X63195429Y-139103823D01*
X63173692Y-139099500D01*
X63173691Y-139099500D01*
X62996309Y-139099500D01*
X62996306Y-139099500D01*
X62822341Y-139134103D01*
X62822332Y-139134106D01*
X62658459Y-139201983D01*
X62658446Y-139201990D01*
X62510965Y-139300535D01*
X62510961Y-139300538D01*
X62385538Y-139425961D01*
X62385535Y-139425965D01*
X62286990Y-139573446D01*
X62286983Y-139573459D01*
X62219106Y-139737332D01*
X62219103Y-139737341D01*
X62184500Y-139911304D01*
X62184500Y-140088695D01*
X62219103Y-140262658D01*
X62219106Y-140262667D01*
X62286983Y-140426540D01*
X62286990Y-140426553D01*
X62385535Y-140574034D01*
X62385538Y-140574038D01*
X62510961Y-140699461D01*
X62510965Y-140699464D01*
X62658446Y-140798009D01*
X62658459Y-140798016D01*
X62745421Y-140834036D01*
X62822334Y-140865894D01*
X62822336Y-140865894D01*
X62822341Y-140865896D01*
X62996304Y-140900499D01*
X62996307Y-140900500D01*
X62996309Y-140900500D01*
X63173693Y-140900500D01*
X63173694Y-140900499D01*
X63231682Y-140888964D01*
X63347658Y-140865896D01*
X63347661Y-140865894D01*
X63347666Y-140865894D01*
X63511547Y-140798013D01*
X63659035Y-140699464D01*
X63784464Y-140574035D01*
X63883013Y-140426547D01*
X63950894Y-140262666D01*
X63985500Y-140088691D01*
X63985500Y-139911309D01*
X63981176Y-139889572D01*
X63987402Y-139819984D01*
X64015110Y-139777702D01*
X65313399Y-138479414D01*
X65374720Y-138445931D01*
X65444412Y-138450915D01*
X65488759Y-138479416D01*
X65553454Y-138544111D01*
X65553458Y-138544114D01*
X65668182Y-138620771D01*
X65668195Y-138620778D01*
X65795667Y-138673578D01*
X65795672Y-138673580D01*
X65795676Y-138673580D01*
X65795677Y-138673581D01*
X65931004Y-138700500D01*
X65931007Y-138700500D01*
X66068995Y-138700500D01*
X66160041Y-138682389D01*
X66204328Y-138673580D01*
X66331811Y-138620775D01*
X66446542Y-138544114D01*
X66544114Y-138446542D01*
X66620775Y-138331811D01*
X66673580Y-138204328D01*
X66700500Y-138068993D01*
X66700500Y-137931007D01*
X66700500Y-137931004D01*
X66673581Y-137795677D01*
X66673580Y-137795676D01*
X66673580Y-137795672D01*
X66673578Y-137795667D01*
X66620778Y-137668195D01*
X66620771Y-137668182D01*
X66544114Y-137553458D01*
X66544111Y-137553454D01*
X66536819Y-137546162D01*
X66503334Y-137484839D01*
X66500500Y-137458481D01*
X66500500Y-80258676D01*
X66520185Y-80191637D01*
X66536819Y-80170995D01*
X67787819Y-78919995D01*
X67849142Y-78886510D01*
X67918834Y-78891494D01*
X67974767Y-78933366D01*
X67999184Y-78998830D01*
X67999500Y-79007676D01*
X67999500Y-143991324D01*
X67979815Y-144058363D01*
X67963181Y-144079005D01*
X65079005Y-146963181D01*
X65017682Y-146996666D01*
X64991324Y-146999500D01*
X63899878Y-146999500D01*
X63832839Y-146979815D01*
X63796775Y-146944390D01*
X63784462Y-146925962D01*
X63659038Y-146800538D01*
X63659034Y-146800535D01*
X63511553Y-146701990D01*
X63511540Y-146701983D01*
X63347667Y-146634106D01*
X63347658Y-146634103D01*
X63173694Y-146599500D01*
X63173691Y-146599500D01*
X62996309Y-146599500D01*
X62996306Y-146599500D01*
X62822341Y-146634103D01*
X62822332Y-146634106D01*
X62658459Y-146701983D01*
X62658446Y-146701990D01*
X62510965Y-146800535D01*
X62510961Y-146800538D01*
X62385538Y-146925961D01*
X62385535Y-146925965D01*
X62286990Y-147073446D01*
X62286983Y-147073459D01*
X62219106Y-147237332D01*
X62219103Y-147237341D01*
X62184500Y-147411304D01*
X62184500Y-147588695D01*
X62219103Y-147762658D01*
X62219106Y-147762667D01*
X62286983Y-147926540D01*
X62286990Y-147926553D01*
X62385535Y-148074034D01*
X62385538Y-148074038D01*
X62510961Y-148199461D01*
X62510965Y-148199464D01*
X62658446Y-148298009D01*
X62658459Y-148298016D01*
X62733275Y-148329005D01*
X62822334Y-148365894D01*
X62822336Y-148365894D01*
X62822341Y-148365896D01*
X62996304Y-148400499D01*
X62996307Y-148400500D01*
X62996309Y-148400500D01*
X63173693Y-148400500D01*
X63173694Y-148400499D01*
X63231682Y-148388964D01*
X63347658Y-148365896D01*
X63347661Y-148365894D01*
X63347666Y-148365894D01*
X63511547Y-148298013D01*
X63659035Y-148199464D01*
X63784464Y-148074035D01*
X63796775Y-148055609D01*
X63850387Y-148010804D01*
X63899878Y-148000500D01*
X65315890Y-148000500D01*
X65315892Y-148000500D01*
X65443186Y-147966392D01*
X65557314Y-147900500D01*
X68287819Y-145169995D01*
X68349142Y-145136510D01*
X68418834Y-145141494D01*
X68474767Y-145183366D01*
X68499184Y-145248830D01*
X68499500Y-145257676D01*
X68499500Y-146241324D01*
X68479815Y-146308363D01*
X68463181Y-146329005D01*
X65079005Y-149713181D01*
X65017682Y-149746666D01*
X64991324Y-149749500D01*
X63899878Y-149749500D01*
X63832839Y-149729815D01*
X63796775Y-149694390D01*
X63784462Y-149675962D01*
X63659038Y-149550538D01*
X63659034Y-149550535D01*
X63511553Y-149451990D01*
X63511540Y-149451983D01*
X63347667Y-149384106D01*
X63347658Y-149384103D01*
X63173694Y-149349500D01*
X63173691Y-149349500D01*
X62996309Y-149349500D01*
X62996306Y-149349500D01*
X62822341Y-149384103D01*
X62822332Y-149384106D01*
X62658459Y-149451983D01*
X62658446Y-149451990D01*
X62510965Y-149550535D01*
X62510961Y-149550538D01*
X62385538Y-149675961D01*
X62385535Y-149675965D01*
X62286990Y-149823446D01*
X62286983Y-149823459D01*
X62219106Y-149987332D01*
X62219103Y-149987341D01*
X62184500Y-150161304D01*
X62184500Y-150338695D01*
X62219103Y-150512658D01*
X62219106Y-150512667D01*
X62286983Y-150676540D01*
X62286990Y-150676553D01*
X62385535Y-150824034D01*
X62385538Y-150824038D01*
X62510961Y-150949461D01*
X62510965Y-150949464D01*
X62658446Y-151048009D01*
X62658459Y-151048016D01*
X62743106Y-151083077D01*
X62822334Y-151115894D01*
X62822336Y-151115894D01*
X62822341Y-151115896D01*
X62996304Y-151150499D01*
X62996307Y-151150500D01*
X62996309Y-151150500D01*
X63173693Y-151150500D01*
X63173694Y-151150499D01*
X63231682Y-151138964D01*
X63347658Y-151115896D01*
X63347661Y-151115894D01*
X63347666Y-151115894D01*
X63511547Y-151048013D01*
X63659035Y-150949464D01*
X63784464Y-150824035D01*
X63796775Y-150805609D01*
X63850387Y-150760804D01*
X63899878Y-150750500D01*
X65315890Y-150750500D01*
X65315892Y-150750500D01*
X65443186Y-150716392D01*
X65557314Y-150650500D01*
X68787819Y-147419995D01*
X68849142Y-147386510D01*
X68918834Y-147391494D01*
X68974767Y-147433366D01*
X68999184Y-147498830D01*
X68999500Y-147507676D01*
X68999500Y-148241324D01*
X68979815Y-148308363D01*
X68963181Y-148329005D01*
X65079005Y-152213181D01*
X65017682Y-152246666D01*
X64991324Y-152249500D01*
X63899878Y-152249500D01*
X63832839Y-152229815D01*
X63796775Y-152194390D01*
X63784462Y-152175962D01*
X63659038Y-152050538D01*
X63659034Y-152050535D01*
X63511553Y-151951990D01*
X63511540Y-151951983D01*
X63347667Y-151884106D01*
X63347658Y-151884103D01*
X63173694Y-151849500D01*
X63173691Y-151849500D01*
X62996309Y-151849500D01*
X62996306Y-151849500D01*
X62822341Y-151884103D01*
X62822332Y-151884106D01*
X62658459Y-151951983D01*
X62658446Y-151951990D01*
X62510965Y-152050535D01*
X62510961Y-152050538D01*
X62385538Y-152175961D01*
X62385535Y-152175965D01*
X62286990Y-152323446D01*
X62286983Y-152323459D01*
X62219106Y-152487332D01*
X62219103Y-152487341D01*
X62184500Y-152661304D01*
X62184500Y-152838695D01*
X62219103Y-153012658D01*
X62219106Y-153012667D01*
X62286983Y-153176540D01*
X62286990Y-153176553D01*
X62385535Y-153324034D01*
X62385538Y-153324038D01*
X62510961Y-153449461D01*
X62510965Y-153449464D01*
X62658446Y-153548009D01*
X62658459Y-153548016D01*
X62759909Y-153590037D01*
X62822334Y-153615894D01*
X62822336Y-153615894D01*
X62822341Y-153615896D01*
X62996304Y-153650499D01*
X62996307Y-153650500D01*
X62996309Y-153650500D01*
X63173693Y-153650500D01*
X63173694Y-153650499D01*
X63231682Y-153638964D01*
X63347658Y-153615896D01*
X63347661Y-153615894D01*
X63347666Y-153615894D01*
X63511547Y-153548013D01*
X63659035Y-153449464D01*
X63784464Y-153324035D01*
X63796775Y-153305609D01*
X63850387Y-153260804D01*
X63899878Y-153250500D01*
X65315890Y-153250500D01*
X65315892Y-153250500D01*
X65443186Y-153216392D01*
X65557314Y-153150500D01*
X69900500Y-148807314D01*
X69966392Y-148693186D01*
X70000500Y-148565892D01*
X70000500Y-148434107D01*
X70000500Y-67434108D01*
X69966392Y-67306814D01*
X69900500Y-67192686D01*
X69807314Y-67099500D01*
X68336819Y-65629005D01*
X68322115Y-65602077D01*
X68305523Y-65576259D01*
X68304631Y-65570058D01*
X68303334Y-65567682D01*
X68300500Y-65541324D01*
X68300500Y-65528479D01*
X68320185Y-65461440D01*
X68372989Y-65415685D01*
X68442147Y-65405741D01*
X68497384Y-65428160D01*
X68622723Y-65519224D01*
X68717827Y-65567682D01*
X68854197Y-65637167D01*
X68854199Y-65637167D01*
X68854202Y-65637169D01*
X69101281Y-65717450D01*
X69233480Y-65738387D01*
X69357872Y-65758090D01*
X69357877Y-65758090D01*
X69617676Y-65758090D01*
X69731072Y-65740129D01*
X69874267Y-65717450D01*
X70121346Y-65637169D01*
X70352825Y-65519224D01*
X70563003Y-65366521D01*
X70746705Y-65182819D01*
X70899408Y-64972641D01*
X71017353Y-64741162D01*
X71095024Y-64502117D01*
X71134462Y-64444441D01*
X71198820Y-64417243D01*
X71267667Y-64429158D01*
X71319142Y-64476402D01*
X71336955Y-64540435D01*
X71336955Y-155210146D01*
X71336728Y-155217653D01*
X71319135Y-155507703D01*
X71317328Y-155522564D01*
X71265586Y-155804691D01*
X71262001Y-155819226D01*
X71176641Y-156093053D01*
X71171331Y-156107051D01*
X71053589Y-156368604D01*
X71046631Y-156381859D01*
X70898232Y-156627311D01*
X70889728Y-156639631D01*
X70712822Y-156865422D01*
X70702894Y-156876627D01*
X70500082Y-157079439D01*
X70488877Y-157089367D01*
X70263086Y-157266273D01*
X70250766Y-157274777D01*
X70005314Y-157423176D01*
X69992059Y-157430134D01*
X69730506Y-157547876D01*
X69716508Y-157553186D01*
X69442681Y-157638546D01*
X69428146Y-157642131D01*
X69146019Y-157693873D01*
X69131158Y-157695680D01*
X68841109Y-157713273D01*
X68833602Y-157713500D01*
X66787839Y-157713500D01*
X66720800Y-157693815D01*
X66675045Y-157641011D01*
X66665101Y-157571853D01*
X66694126Y-157508297D01*
X66752904Y-157470523D01*
X66755704Y-157469736D01*
X66768186Y-157466392D01*
X66882314Y-157400500D01*
X67720995Y-156561819D01*
X67780999Y-156528628D01*
X67794660Y-156525500D01*
X67818993Y-156525500D01*
X67954328Y-156498580D01*
X68004250Y-156477901D01*
X68103186Y-156451392D01*
X68217314Y-156385500D01*
X68310500Y-156292314D01*
X68376392Y-156178186D01*
X68400797Y-156087100D01*
X68406011Y-156071741D01*
X68408563Y-156065581D01*
X68423580Y-156029328D01*
X68450500Y-155893993D01*
X68450500Y-155756007D01*
X68450500Y-155756004D01*
X68423581Y-155620677D01*
X68423580Y-155620676D01*
X68423580Y-155620672D01*
X68382970Y-155522630D01*
X68370778Y-155493195D01*
X68370771Y-155493182D01*
X68294114Y-155378458D01*
X68294111Y-155378454D01*
X68196545Y-155280888D01*
X68196541Y-155280885D01*
X68081817Y-155204228D01*
X68081804Y-155204221D01*
X67954332Y-155151421D01*
X67954322Y-155151418D01*
X67818995Y-155124500D01*
X67818993Y-155124500D01*
X67681007Y-155124500D01*
X67681005Y-155124500D01*
X67545677Y-155151418D01*
X67545667Y-155151421D01*
X67418195Y-155204221D01*
X67418182Y-155204228D01*
X67303458Y-155280885D01*
X67303454Y-155280888D01*
X67205888Y-155378454D01*
X67205885Y-155378458D01*
X67129228Y-155493182D01*
X67129221Y-155493195D01*
X67076421Y-155620667D01*
X67076418Y-155620677D01*
X67049500Y-155756004D01*
X67049500Y-155766324D01*
X67029815Y-155833363D01*
X67013181Y-155854005D01*
X66404005Y-156463181D01*
X66342682Y-156496666D01*
X66316324Y-156499500D01*
X60843676Y-156499500D01*
X60776637Y-156479815D01*
X60755995Y-156463181D01*
X59454118Y-155161304D01*
X62184500Y-155161304D01*
X62184500Y-155338695D01*
X62219103Y-155512658D01*
X62219106Y-155512667D01*
X62286983Y-155676540D01*
X62286990Y-155676553D01*
X62385535Y-155824034D01*
X62385538Y-155824038D01*
X62510961Y-155949461D01*
X62510965Y-155949464D01*
X62658446Y-156048009D01*
X62658459Y-156048016D01*
X62752830Y-156087105D01*
X62822334Y-156115894D01*
X62822336Y-156115894D01*
X62822341Y-156115896D01*
X62996304Y-156150499D01*
X62996307Y-156150500D01*
X62996309Y-156150500D01*
X63173693Y-156150500D01*
X63173694Y-156150499D01*
X63231682Y-156138964D01*
X63347658Y-156115896D01*
X63347661Y-156115894D01*
X63347666Y-156115894D01*
X63511547Y-156048013D01*
X63659035Y-155949464D01*
X63784464Y-155824035D01*
X63883013Y-155676547D01*
X63950894Y-155512666D01*
X63951882Y-155507703D01*
X63985499Y-155338695D01*
X63985500Y-155338693D01*
X63985500Y-155161306D01*
X63985499Y-155161304D01*
X63950896Y-154987341D01*
X63950893Y-154987332D01*
X63944542Y-154972000D01*
X63926727Y-154928989D01*
X63883016Y-154823459D01*
X63883009Y-154823446D01*
X63784464Y-154675965D01*
X63784461Y-154675961D01*
X63659038Y-154550538D01*
X63659034Y-154550535D01*
X63511553Y-154451990D01*
X63511540Y-154451983D01*
X63347667Y-154384106D01*
X63347658Y-154384103D01*
X63173694Y-154349500D01*
X63173691Y-154349500D01*
X62996309Y-154349500D01*
X62996306Y-154349500D01*
X62822341Y-154384103D01*
X62822332Y-154384106D01*
X62658459Y-154451983D01*
X62658446Y-154451990D01*
X62510965Y-154550535D01*
X62510961Y-154550538D01*
X62385538Y-154675961D01*
X62385535Y-154675965D01*
X62286990Y-154823446D01*
X62286983Y-154823459D01*
X62219106Y-154987332D01*
X62219103Y-154987341D01*
X62184500Y-155161304D01*
X59454118Y-155161304D01*
X58821819Y-154529005D01*
X58788334Y-154467682D01*
X58785500Y-154441324D01*
X58785500Y-154431004D01*
X58758581Y-154295677D01*
X58758580Y-154295676D01*
X58758580Y-154295672D01*
X58719585Y-154201529D01*
X58705778Y-154168195D01*
X58705771Y-154168182D01*
X58629114Y-154053458D01*
X58629111Y-154053454D01*
X58531545Y-153955888D01*
X58531541Y-153955885D01*
X58416817Y-153879228D01*
X58416804Y-153879221D01*
X58289332Y-153826421D01*
X58289322Y-153826418D01*
X58153995Y-153799500D01*
X58153993Y-153799500D01*
X58016007Y-153799500D01*
X58016005Y-153799500D01*
X57880677Y-153826418D01*
X57880667Y-153826421D01*
X57753195Y-153879221D01*
X57753182Y-153879228D01*
X57660460Y-153941184D01*
X57593782Y-153962062D01*
X57526402Y-153943577D01*
X57479712Y-153891599D01*
X57468889Y-153824810D01*
X57468518Y-153824781D01*
X57468637Y-153823257D01*
X57468536Y-153822629D01*
X57468875Y-153820232D01*
X57468900Y-153819924D01*
X57468900Y-153623077D01*
X57438109Y-153428673D01*
X57405346Y-153327841D01*
X57377284Y-153241475D01*
X57377282Y-153241472D01*
X57377282Y-153241470D01*
X57306423Y-153102402D01*
X57287924Y-153066095D01*
X57172228Y-152906854D01*
X57033046Y-152767672D01*
X56886644Y-152661304D01*
X56873803Y-152651974D01*
X56697187Y-152561985D01*
X56646390Y-152514011D01*
X56629595Y-152446190D01*
X56652132Y-152380055D01*
X56697187Y-152341015D01*
X56873803Y-152251025D01*
X56873802Y-152251025D01*
X56873805Y-152251024D01*
X57033046Y-152135328D01*
X57172228Y-151996146D01*
X57287924Y-151836905D01*
X57377284Y-151661525D01*
X57438109Y-151474326D01*
X57439099Y-151468076D01*
X57468900Y-151279922D01*
X57468900Y-151083077D01*
X57447737Y-150949464D01*
X57438109Y-150888674D01*
X57407864Y-150795593D01*
X57405870Y-150725754D01*
X57438113Y-150669598D01*
X59132104Y-148975608D01*
X59132109Y-148975604D01*
X59142312Y-148965400D01*
X59142314Y-148965400D01*
X59235500Y-148872214D01*
X59301392Y-148758086D01*
X59318782Y-148693186D01*
X59335500Y-148630793D01*
X59335500Y-148499008D01*
X59335500Y-145684108D01*
X59335500Y-144911304D01*
X62184500Y-144911304D01*
X62184500Y-145088695D01*
X62219103Y-145262658D01*
X62219106Y-145262667D01*
X62286983Y-145426540D01*
X62286990Y-145426553D01*
X62385535Y-145574034D01*
X62385538Y-145574038D01*
X62510961Y-145699461D01*
X62510965Y-145699464D01*
X62658446Y-145798009D01*
X62658459Y-145798016D01*
X62781363Y-145848923D01*
X62822334Y-145865894D01*
X62822336Y-145865894D01*
X62822341Y-145865896D01*
X62996304Y-145900499D01*
X62996307Y-145900500D01*
X62996309Y-145900500D01*
X63173693Y-145900500D01*
X63173694Y-145900499D01*
X63231682Y-145888964D01*
X63347658Y-145865896D01*
X63347661Y-145865894D01*
X63347666Y-145865894D01*
X63511547Y-145798013D01*
X63659035Y-145699464D01*
X63784464Y-145574035D01*
X63883013Y-145426547D01*
X63950894Y-145262666D01*
X63953647Y-145248830D01*
X63985499Y-145088695D01*
X63985500Y-145088693D01*
X63985500Y-144911306D01*
X63985499Y-144911304D01*
X63950896Y-144737341D01*
X63950893Y-144737332D01*
X63883016Y-144573459D01*
X63883009Y-144573446D01*
X63784464Y-144425965D01*
X63784461Y-144425961D01*
X63659038Y-144300538D01*
X63659034Y-144300535D01*
X63511553Y-144201990D01*
X63511540Y-144201983D01*
X63347667Y-144134106D01*
X63347658Y-144134103D01*
X63173694Y-144099500D01*
X63173691Y-144099500D01*
X62996309Y-144099500D01*
X62996306Y-144099500D01*
X62822341Y-144134103D01*
X62822332Y-144134106D01*
X62658459Y-144201983D01*
X62658446Y-144201990D01*
X62510965Y-144300535D01*
X62510961Y-144300538D01*
X62385538Y-144425961D01*
X62385535Y-144425965D01*
X62286990Y-144573446D01*
X62286983Y-144573459D01*
X62219106Y-144737332D01*
X62219103Y-144737341D01*
X62184500Y-144911304D01*
X59335500Y-144911304D01*
X59335500Y-144664425D01*
X59355185Y-144597386D01*
X59407989Y-144551631D01*
X59412022Y-144549875D01*
X59412841Y-144549536D01*
X59538282Y-144453282D01*
X59634536Y-144327841D01*
X59695044Y-144181762D01*
X59710500Y-144064361D01*
X59710499Y-143585640D01*
X59710499Y-143585638D01*
X59710499Y-143585636D01*
X59695046Y-143468246D01*
X59695044Y-143468239D01*
X59695044Y-143468238D01*
X59634536Y-143322159D01*
X59538282Y-143196718D01*
X59538280Y-143196717D01*
X59538280Y-143196716D01*
X59410120Y-143098376D01*
X59368917Y-143041948D01*
X59364762Y-142972202D01*
X59398974Y-142911282D01*
X59410120Y-142901624D01*
X59431824Y-142884969D01*
X59538282Y-142803282D01*
X59634536Y-142677841D01*
X59695044Y-142531762D01*
X59710500Y-142414361D01*
X59710500Y-142411304D01*
X62184500Y-142411304D01*
X62184500Y-142588695D01*
X62219103Y-142762658D01*
X62219106Y-142762667D01*
X62286983Y-142926540D01*
X62286990Y-142926553D01*
X62385535Y-143074034D01*
X62385538Y-143074038D01*
X62510961Y-143199461D01*
X62510965Y-143199464D01*
X62658446Y-143298009D01*
X62658459Y-143298016D01*
X62766007Y-143342563D01*
X62822334Y-143365894D01*
X62822336Y-143365894D01*
X62822341Y-143365896D01*
X62996304Y-143400499D01*
X62996307Y-143400500D01*
X62996309Y-143400500D01*
X63173693Y-143400500D01*
X63173694Y-143400499D01*
X63231682Y-143388964D01*
X63347658Y-143365896D01*
X63347661Y-143365894D01*
X63347666Y-143365894D01*
X63511547Y-143298013D01*
X63659035Y-143199464D01*
X63784464Y-143074035D01*
X63883013Y-142926547D01*
X63950894Y-142762666D01*
X63958082Y-142726533D01*
X63985499Y-142588695D01*
X63985500Y-142588693D01*
X63985500Y-142411306D01*
X63985499Y-142411304D01*
X63950896Y-142237341D01*
X63950893Y-142237332D01*
X63883016Y-142073459D01*
X63883009Y-142073446D01*
X63784464Y-141925965D01*
X63784461Y-141925961D01*
X63659038Y-141800538D01*
X63659034Y-141800535D01*
X63511553Y-141701990D01*
X63511540Y-141701983D01*
X63347667Y-141634106D01*
X63347658Y-141634103D01*
X63173694Y-141599500D01*
X63173691Y-141599500D01*
X62996309Y-141599500D01*
X62996306Y-141599500D01*
X62822341Y-141634103D01*
X62822332Y-141634106D01*
X62658459Y-141701983D01*
X62658446Y-141701990D01*
X62510965Y-141800535D01*
X62510961Y-141800538D01*
X62385538Y-141925961D01*
X62385535Y-141925965D01*
X62286990Y-142073446D01*
X62286983Y-142073459D01*
X62219106Y-142237332D01*
X62219103Y-142237341D01*
X62184500Y-142411304D01*
X59710500Y-142411304D01*
X59710499Y-141935640D01*
X59710499Y-141935636D01*
X59695046Y-141818246D01*
X59695044Y-141818241D01*
X59695044Y-141818238D01*
X59634536Y-141672159D01*
X59538282Y-141546718D01*
X59412841Y-141450464D01*
X59266762Y-141389956D01*
X59266760Y-141389955D01*
X59149361Y-141374500D01*
X58520636Y-141374500D01*
X58403246Y-141389953D01*
X58403237Y-141389956D01*
X58257160Y-141450463D01*
X58131716Y-141546719D01*
X58091217Y-141599500D01*
X58077979Y-141616753D01*
X58070894Y-141625986D01*
X58067815Y-141628234D01*
X58066231Y-141631703D01*
X58039816Y-141648678D01*
X58014466Y-141667189D01*
X58009728Y-141668014D01*
X58007453Y-141669477D01*
X57972518Y-141674500D01*
X57800900Y-141674500D01*
X57733861Y-141654815D01*
X57688106Y-141602011D01*
X57676900Y-141550500D01*
X57676900Y-141058708D01*
X57676900Y-141058706D01*
X57670715Y-140990643D01*
X57621912Y-140834030D01*
X57621911Y-140834027D01*
X57537051Y-140693651D01*
X57537048Y-140693647D01*
X57421052Y-140577651D01*
X57421048Y-140577648D01*
X57280672Y-140492788D01*
X57280663Y-140492785D01*
X57124064Y-140443987D01*
X57124062Y-140443986D01*
X57124057Y-140443985D01*
X57055994Y-140437800D01*
X56396806Y-140437800D01*
X56328743Y-140443985D01*
X56328739Y-140443986D01*
X56328735Y-140443987D01*
X56172136Y-140492785D01*
X56172127Y-140492788D01*
X56031751Y-140577648D01*
X56031747Y-140577651D01*
X55915751Y-140693647D01*
X55915748Y-140693651D01*
X55830888Y-140834027D01*
X55830885Y-140834036D01*
X55782087Y-140990635D01*
X55782085Y-140990643D01*
X55775900Y-141058706D01*
X55775900Y-143117894D01*
X55782085Y-143185957D01*
X55782086Y-143185962D01*
X55782087Y-143185964D01*
X55830885Y-143342563D01*
X55830888Y-143342572D01*
X55919551Y-143489239D01*
X55937387Y-143556794D01*
X55915869Y-143623267D01*
X55901115Y-143641069D01*
X48329005Y-151213181D01*
X48267682Y-151246666D01*
X48241324Y-151249500D01*
X47412422Y-151249500D01*
X47345383Y-151229815D01*
X47299628Y-151177011D01*
X47289019Y-151113346D01*
X47294019Y-151062571D01*
X46785001Y-150553553D01*
X46785000Y-150553553D01*
X46275978Y-151062573D01*
X46280979Y-151113347D01*
X46267960Y-151181993D01*
X46219894Y-151232703D01*
X46157576Y-151249500D01*
X44855537Y-151249500D01*
X44788498Y-151229815D01*
X44742743Y-151177011D01*
X44732799Y-151107853D01*
X44736460Y-151090906D01*
X44738734Y-151083077D01*
X44747598Y-151052569D01*
X44750500Y-151015694D01*
X44750500Y-150101504D01*
X45785000Y-150101504D01*
X45785000Y-150298495D01*
X45823427Y-150491681D01*
X45823430Y-150491693D01*
X45898808Y-150673673D01*
X45898809Y-150673675D01*
X45922425Y-150709019D01*
X46431446Y-150200000D01*
X46431446Y-150199999D01*
X46381719Y-150150272D01*
X46535000Y-150150272D01*
X46535000Y-150249728D01*
X46573060Y-150341614D01*
X46643386Y-150411940D01*
X46735272Y-150450000D01*
X46834728Y-150450000D01*
X46926614Y-150411940D01*
X46996940Y-150341614D01*
X47035000Y-150249728D01*
X47035000Y-150199999D01*
X47138553Y-150199999D01*
X47138553Y-150200001D01*
X47647572Y-150709020D01*
X47647573Y-150709019D01*
X47671187Y-150673680D01*
X47671190Y-150673676D01*
X47746569Y-150491693D01*
X47746572Y-150491681D01*
X47784999Y-150298495D01*
X47785000Y-150298492D01*
X47785000Y-150101508D01*
X47784999Y-150101504D01*
X47746572Y-149908318D01*
X47746569Y-149908306D01*
X47671192Y-149726328D01*
X47647572Y-149690979D01*
X47138553Y-150199999D01*
X47035000Y-150199999D01*
X47035000Y-150150272D01*
X46996940Y-150058386D01*
X46926614Y-149988060D01*
X46834728Y-149950000D01*
X46735272Y-149950000D01*
X46643386Y-149988060D01*
X46573060Y-150058386D01*
X46535000Y-150150272D01*
X46381719Y-150150272D01*
X45922426Y-149690978D01*
X45922426Y-149690979D01*
X45898813Y-149726318D01*
X45898809Y-149726325D01*
X45823429Y-149908310D01*
X45823427Y-149908318D01*
X45785000Y-150101504D01*
X44750500Y-150101504D01*
X44750500Y-149337426D01*
X46275978Y-149337426D01*
X46785000Y-149846446D01*
X46785001Y-149846446D01*
X47294020Y-149337426D01*
X47258675Y-149313809D01*
X47258673Y-149313808D01*
X47076693Y-149238430D01*
X47076681Y-149238427D01*
X46883495Y-149200000D01*
X46686504Y-149200000D01*
X46493318Y-149238427D01*
X46493310Y-149238429D01*
X46311325Y-149313809D01*
X46311318Y-149313813D01*
X46275979Y-149337426D01*
X46275978Y-149337426D01*
X44750500Y-149337426D01*
X44750500Y-147984306D01*
X44747598Y-147947431D01*
X44747597Y-147947426D01*
X44701746Y-147789607D01*
X44701744Y-147789604D01*
X44701744Y-147789603D01*
X44625869Y-147661304D01*
X45934500Y-147661304D01*
X45934500Y-147838695D01*
X45969103Y-148012658D01*
X45969106Y-148012667D01*
X46036983Y-148176540D01*
X46036990Y-148176553D01*
X46135535Y-148324034D01*
X46135538Y-148324038D01*
X46260961Y-148449461D01*
X46260965Y-148449464D01*
X46408446Y-148548009D01*
X46408459Y-148548016D01*
X46531363Y-148598923D01*
X46572334Y-148615894D01*
X46572336Y-148615894D01*
X46572341Y-148615896D01*
X46746304Y-148650499D01*
X46746307Y-148650500D01*
X46746309Y-148650500D01*
X46923693Y-148650500D01*
X46923694Y-148650499D01*
X46981682Y-148638964D01*
X47097658Y-148615896D01*
X47097661Y-148615894D01*
X47097666Y-148615894D01*
X47261547Y-148548013D01*
X47409035Y-148449464D01*
X47534464Y-148324035D01*
X47633013Y-148176547D01*
X47700894Y-148012666D01*
X47701265Y-148010804D01*
X47735499Y-147838695D01*
X47735500Y-147838693D01*
X47735500Y-147661306D01*
X47735499Y-147661304D01*
X47700896Y-147487341D01*
X47700893Y-147487332D01*
X47633016Y-147323459D01*
X47633009Y-147323446D01*
X47534464Y-147175965D01*
X47534461Y-147175961D01*
X47409038Y-147050538D01*
X47409034Y-147050535D01*
X47261553Y-146951990D01*
X47261540Y-146951983D01*
X47097667Y-146884106D01*
X47097658Y-146884103D01*
X46923694Y-146849500D01*
X46923691Y-146849500D01*
X46746309Y-146849500D01*
X46746306Y-146849500D01*
X46572341Y-146884103D01*
X46572332Y-146884106D01*
X46408459Y-146951983D01*
X46408446Y-146951990D01*
X46260965Y-147050535D01*
X46260961Y-147050538D01*
X46135538Y-147175961D01*
X46135535Y-147175965D01*
X46036990Y-147323446D01*
X46036983Y-147323459D01*
X45969106Y-147487332D01*
X45969103Y-147487341D01*
X45934500Y-147661304D01*
X44625869Y-147661304D01*
X44618081Y-147648136D01*
X44618079Y-147648134D01*
X44618076Y-147648130D01*
X44501869Y-147531923D01*
X44501861Y-147531917D01*
X44423680Y-147485681D01*
X44360397Y-147448256D01*
X44360396Y-147448255D01*
X44360395Y-147448255D01*
X44360392Y-147448253D01*
X44202573Y-147402402D01*
X44202567Y-147402401D01*
X44165701Y-147399500D01*
X44165694Y-147399500D01*
X43034306Y-147399500D01*
X43034298Y-147399500D01*
X42997432Y-147402401D01*
X42997426Y-147402402D01*
X42839607Y-147448253D01*
X42839604Y-147448255D01*
X42698138Y-147531917D01*
X42698130Y-147531923D01*
X42581923Y-147648130D01*
X42581917Y-147648138D01*
X42498255Y-147789604D01*
X42498253Y-147789607D01*
X42452402Y-147947426D01*
X42452401Y-147947432D01*
X42449500Y-147984298D01*
X42449500Y-151015701D01*
X42452401Y-151052567D01*
X42463540Y-151090906D01*
X42463340Y-151160775D01*
X42425397Y-151219445D01*
X42361759Y-151248288D01*
X42344463Y-151249500D01*
X40934108Y-151249500D01*
X40806812Y-151283608D01*
X40692686Y-151349500D01*
X40692683Y-151349502D01*
X38975749Y-153066436D01*
X38914426Y-153099921D01*
X38897799Y-153102373D01*
X38897431Y-153102401D01*
X38897426Y-153102402D01*
X38739606Y-153148254D01*
X38739603Y-153148255D01*
X38598137Y-153231917D01*
X38598129Y-153231923D01*
X38481923Y-153348129D01*
X38481917Y-153348137D01*
X38398255Y-153489603D01*
X38398254Y-153489606D01*
X38352402Y-153647426D01*
X38352401Y-153647432D01*
X38349500Y-153684298D01*
X38349500Y-156815701D01*
X38352401Y-156852567D01*
X38352402Y-156852573D01*
X38398254Y-157010393D01*
X38398255Y-157010396D01*
X38481917Y-157151862D01*
X38481923Y-157151870D01*
X38598129Y-157268076D01*
X38598133Y-157268079D01*
X38598135Y-157268081D01*
X38739602Y-157351744D01*
X38781224Y-157363836D01*
X38897426Y-157397597D01*
X38897429Y-157397597D01*
X38897431Y-157397598D01*
X38934306Y-157400500D01*
X38934314Y-157400500D01*
X39565686Y-157400500D01*
X39565694Y-157400500D01*
X39602569Y-157397598D01*
X39602571Y-157397597D01*
X39602573Y-157397597D01*
X39644191Y-157385505D01*
X39760398Y-157351744D01*
X39901865Y-157268081D01*
X40018081Y-157151865D01*
X40101744Y-157010398D01*
X40117864Y-156954910D01*
X40130924Y-156909962D01*
X40168530Y-156851076D01*
X40232003Y-156821870D01*
X40301189Y-156831616D01*
X40354124Y-156877220D01*
X40369076Y-156909962D01*
X40398254Y-157010393D01*
X40398255Y-157010396D01*
X40481917Y-157151862D01*
X40481923Y-157151870D01*
X40598129Y-157268076D01*
X40598133Y-157268079D01*
X40598135Y-157268081D01*
X40739602Y-157351744D01*
X40781224Y-157363836D01*
X40897426Y-157397597D01*
X40897429Y-157397597D01*
X40897431Y-157397598D01*
X40934306Y-157400500D01*
X40934314Y-157400500D01*
X41565686Y-157400500D01*
X41565694Y-157400500D01*
X41602569Y-157397598D01*
X41602571Y-157397597D01*
X41602573Y-157397597D01*
X41644191Y-157385505D01*
X41760398Y-157351744D01*
X41901865Y-157268081D01*
X42018081Y-157151865D01*
X42101744Y-157010398D01*
X42140576Y-156876738D01*
X42147597Y-156852573D01*
X42147598Y-156852567D01*
X42150499Y-156815701D01*
X42150500Y-156815694D01*
X42150500Y-155161304D01*
X45884500Y-155161304D01*
X45884500Y-155338695D01*
X45919103Y-155512658D01*
X45919106Y-155512667D01*
X45986983Y-155676540D01*
X45986990Y-155676553D01*
X46085535Y-155824034D01*
X46085538Y-155824038D01*
X46210961Y-155949461D01*
X46210965Y-155949464D01*
X46358446Y-156048009D01*
X46358459Y-156048016D01*
X46452830Y-156087105D01*
X46522334Y-156115894D01*
X46522336Y-156115894D01*
X46522341Y-156115896D01*
X46696304Y-156150499D01*
X46696307Y-156150500D01*
X46696309Y-156150500D01*
X46873693Y-156150500D01*
X46873694Y-156150499D01*
X46931682Y-156138964D01*
X47047658Y-156115896D01*
X47047661Y-156115894D01*
X47047666Y-156115894D01*
X47211547Y-156048013D01*
X47359035Y-155949464D01*
X47484464Y-155824035D01*
X47583013Y-155676547D01*
X47650894Y-155512666D01*
X47651882Y-155507703D01*
X47685499Y-155338695D01*
X47685500Y-155338693D01*
X47685500Y-155161306D01*
X47685499Y-155161304D01*
X47650896Y-154987341D01*
X47650893Y-154987332D01*
X47644542Y-154972000D01*
X47626727Y-154928989D01*
X47583016Y-154823459D01*
X47583009Y-154823446D01*
X47484464Y-154675965D01*
X47484461Y-154675961D01*
X47359038Y-154550538D01*
X47359034Y-154550535D01*
X47211553Y-154451990D01*
X47211540Y-154451983D01*
X47047667Y-154384106D01*
X47047658Y-154384103D01*
X46873694Y-154349500D01*
X46873691Y-154349500D01*
X46696309Y-154349500D01*
X46696306Y-154349500D01*
X46522341Y-154384103D01*
X46522332Y-154384106D01*
X46358459Y-154451983D01*
X46358446Y-154451990D01*
X46210965Y-154550535D01*
X46210961Y-154550538D01*
X46085538Y-154675961D01*
X46085535Y-154675965D01*
X45986990Y-154823446D01*
X45986983Y-154823459D01*
X45919106Y-154987332D01*
X45919103Y-154987341D01*
X45884500Y-155161304D01*
X42150500Y-155161304D01*
X42150500Y-155108675D01*
X42170185Y-155041636D01*
X42186819Y-155020994D01*
X43870994Y-153336819D01*
X43932317Y-153303334D01*
X43958675Y-153300500D01*
X45970122Y-153300500D01*
X46037161Y-153320185D01*
X46073225Y-153355610D01*
X46085537Y-153374037D01*
X46210961Y-153499461D01*
X46210965Y-153499464D01*
X46358446Y-153598009D01*
X46358459Y-153598016D01*
X46481363Y-153648923D01*
X46522334Y-153665894D01*
X46522336Y-153665894D01*
X46522341Y-153665896D01*
X46696304Y-153700499D01*
X46696307Y-153700500D01*
X46696309Y-153700500D01*
X46873693Y-153700500D01*
X46873694Y-153700499D01*
X46931682Y-153688964D01*
X47047658Y-153665896D01*
X47047661Y-153665894D01*
X47047666Y-153665894D01*
X47211547Y-153598013D01*
X47359035Y-153499464D01*
X47484464Y-153374035D01*
X47530185Y-153305608D01*
X47583797Y-153260804D01*
X47633287Y-153250500D01*
X48585574Y-153250500D01*
X48652613Y-153270185D01*
X48698368Y-153322989D01*
X48700136Y-153327050D01*
X48700462Y-153327838D01*
X48700464Y-153327841D01*
X48787952Y-153441859D01*
X48796718Y-153453282D01*
X48922159Y-153549536D01*
X49068238Y-153610044D01*
X49185639Y-153625500D01*
X49664360Y-153625499D01*
X49664363Y-153625499D01*
X49781753Y-153610046D01*
X49781757Y-153610044D01*
X49781762Y-153610044D01*
X49927841Y-153549536D01*
X50053282Y-153453282D01*
X50149536Y-153327841D01*
X50149535Y-153327841D01*
X50151624Y-153325120D01*
X50208052Y-153283917D01*
X50277798Y-153279762D01*
X50338718Y-153313974D01*
X50348376Y-153325120D01*
X50437952Y-153441859D01*
X50446718Y-153453282D01*
X50572159Y-153549536D01*
X50718238Y-153610044D01*
X50835639Y-153625500D01*
X51314360Y-153625499D01*
X51314363Y-153625499D01*
X51431753Y-153610046D01*
X51431757Y-153610044D01*
X51431762Y-153610044D01*
X51577841Y-153549536D01*
X51703282Y-153453282D01*
X51799536Y-153327841D01*
X51860044Y-153181762D01*
X51869713Y-153108313D01*
X51897979Y-153044419D01*
X51956303Y-153005947D01*
X51992652Y-153000500D01*
X52439949Y-153000500D01*
X52506988Y-153020185D01*
X52552743Y-153072989D01*
X52562687Y-153142147D01*
X52550434Y-153180795D01*
X52519517Y-153241470D01*
X52458690Y-153428673D01*
X52427900Y-153623077D01*
X52427900Y-153819922D01*
X52458690Y-154014326D01*
X52519517Y-154201529D01*
X52608875Y-154376903D01*
X52608876Y-154376905D01*
X52724572Y-154536146D01*
X52863754Y-154675328D01*
X53022995Y-154791024D01*
X53146392Y-154853897D01*
X53199613Y-154881015D01*
X53250409Y-154928989D01*
X53267204Y-154996810D01*
X53244667Y-155062945D01*
X53199613Y-155101985D01*
X53022994Y-155191976D01*
X52961274Y-155236819D01*
X52863754Y-155307672D01*
X52863752Y-155307674D01*
X52863751Y-155307674D01*
X52724574Y-155446851D01*
X52724574Y-155446852D01*
X52724572Y-155446854D01*
X52690903Y-155493195D01*
X52608876Y-155606094D01*
X52519517Y-155781470D01*
X52458690Y-155968673D01*
X52427900Y-156163077D01*
X52427900Y-156359922D01*
X52458690Y-156554326D01*
X52519517Y-156741529D01*
X52605338Y-156909962D01*
X52608876Y-156916905D01*
X52724572Y-157076146D01*
X52863754Y-157215328D01*
X53022995Y-157331024D01*
X53063661Y-157351744D01*
X53198370Y-157420382D01*
X53198372Y-157420382D01*
X53198375Y-157420384D01*
X53322983Y-157460872D01*
X53355905Y-157471569D01*
X53413580Y-157511007D01*
X53440778Y-157575366D01*
X53428863Y-157644212D01*
X53381619Y-157695688D01*
X53317586Y-157713500D01*
X37841221Y-157713500D01*
X37833729Y-157713273D01*
X37543689Y-157695716D01*
X37528824Y-157693911D01*
X37246688Y-157642196D01*
X37232151Y-157638612D01*
X36958319Y-157553274D01*
X36944319Y-157547965D01*
X36682748Y-157430235D01*
X36669491Y-157423276D01*
X36424035Y-157274888D01*
X36411712Y-157266382D01*
X36185923Y-157089485D01*
X36174716Y-157079556D01*
X35971898Y-156876738D01*
X35961969Y-156865531D01*
X35785072Y-156639742D01*
X35776566Y-156627419D01*
X35628178Y-156381963D01*
X35621219Y-156368706D01*
X35617265Y-156359922D01*
X35503488Y-156107134D01*
X35498180Y-156093135D01*
X35498154Y-156093053D01*
X35412842Y-155819303D01*
X35409258Y-155804766D01*
X35385756Y-155676547D01*
X35357541Y-155522619D01*
X35355739Y-155507774D01*
X35338182Y-155217726D01*
X35337955Y-155210234D01*
X35337955Y-147984298D01*
X35749500Y-147984298D01*
X35749500Y-151015701D01*
X35752401Y-151052567D01*
X35752402Y-151052573D01*
X35798253Y-151210392D01*
X35798255Y-151210395D01*
X35798256Y-151210397D01*
X35803607Y-151219445D01*
X35881917Y-151351861D01*
X35881923Y-151351869D01*
X35998130Y-151468076D01*
X35998134Y-151468079D01*
X35998136Y-151468081D01*
X36139603Y-151551744D01*
X36139604Y-151551744D01*
X36139607Y-151551746D01*
X36297426Y-151597597D01*
X36297429Y-151597597D01*
X36297431Y-151597598D01*
X36334306Y-151600500D01*
X36334314Y-151600500D01*
X37465686Y-151600500D01*
X37465694Y-151600500D01*
X37502569Y-151597598D01*
X37502571Y-151597597D01*
X37502573Y-151597597D01*
X37660392Y-151551746D01*
X37660393Y-151551745D01*
X37660397Y-151551744D01*
X37801864Y-151468081D01*
X37918081Y-151351864D01*
X38001744Y-151210397D01*
X38001745Y-151210393D01*
X38001746Y-151210392D01*
X38047597Y-151052573D01*
X38047598Y-151052567D01*
X38047956Y-151048016D01*
X38050500Y-151015694D01*
X38050500Y-147984306D01*
X38047598Y-147947431D01*
X38047597Y-147947426D01*
X38001746Y-147789607D01*
X38001744Y-147789604D01*
X38001744Y-147789603D01*
X37918081Y-147648136D01*
X37918079Y-147648134D01*
X37918076Y-147648130D01*
X37801869Y-147531923D01*
X37801861Y-147531917D01*
X37723680Y-147485681D01*
X37660397Y-147448256D01*
X37660396Y-147448255D01*
X37660395Y-147448255D01*
X37660392Y-147448253D01*
X37502573Y-147402402D01*
X37502567Y-147402401D01*
X37465701Y-147399500D01*
X37465694Y-147399500D01*
X36334306Y-147399500D01*
X36334298Y-147399500D01*
X36297432Y-147402401D01*
X36297426Y-147402402D01*
X36139607Y-147448253D01*
X36139604Y-147448255D01*
X35998138Y-147531917D01*
X35998130Y-147531923D01*
X35881923Y-147648130D01*
X35881917Y-147648138D01*
X35798255Y-147789604D01*
X35798253Y-147789607D01*
X35752402Y-147947426D01*
X35752401Y-147947432D01*
X35749500Y-147984298D01*
X35337955Y-147984298D01*
X35337955Y-144911304D01*
X45934500Y-144911304D01*
X45934500Y-145088695D01*
X45969103Y-145262658D01*
X45969106Y-145262667D01*
X46036983Y-145426540D01*
X46036990Y-145426553D01*
X46135535Y-145574034D01*
X46135538Y-145574038D01*
X46260961Y-145699461D01*
X46260965Y-145699464D01*
X46408446Y-145798009D01*
X46408459Y-145798016D01*
X46531363Y-145848923D01*
X46572334Y-145865894D01*
X46572336Y-145865894D01*
X46572341Y-145865896D01*
X46746304Y-145900499D01*
X46746307Y-145900500D01*
X46746309Y-145900500D01*
X46923693Y-145900500D01*
X46923694Y-145900499D01*
X46981682Y-145888964D01*
X47097658Y-145865896D01*
X47097661Y-145865894D01*
X47097666Y-145865894D01*
X47261547Y-145798013D01*
X47409035Y-145699464D01*
X47534464Y-145574035D01*
X47633013Y-145426547D01*
X47700894Y-145262666D01*
X47703647Y-145248830D01*
X47735499Y-145088695D01*
X47735500Y-145088693D01*
X47735500Y-144911310D01*
X47735499Y-144911304D01*
X47731176Y-144889572D01*
X47737402Y-144819984D01*
X47765110Y-144777702D01*
X51484107Y-141058706D01*
X53235900Y-141058706D01*
X53235900Y-143117894D01*
X53242085Y-143185957D01*
X53242086Y-143185962D01*
X53242087Y-143185964D01*
X53290885Y-143342563D01*
X53290888Y-143342572D01*
X53375748Y-143482948D01*
X53375751Y-143482952D01*
X53491747Y-143598948D01*
X53491751Y-143598951D01*
X53632127Y-143683811D01*
X53632130Y-143683812D01*
X53788743Y-143732615D01*
X53856806Y-143738800D01*
X53856809Y-143738800D01*
X54515991Y-143738800D01*
X54515994Y-143738800D01*
X54584057Y-143732615D01*
X54740670Y-143683812D01*
X54881053Y-143598948D01*
X54997048Y-143482953D01*
X55081912Y-143342570D01*
X55130715Y-143185957D01*
X55136900Y-143117894D01*
X55136900Y-141058706D01*
X55130715Y-140990643D01*
X55081912Y-140834030D01*
X55081911Y-140834027D01*
X54997051Y-140693651D01*
X54997048Y-140693647D01*
X54881052Y-140577651D01*
X54881048Y-140577648D01*
X54740672Y-140492788D01*
X54740663Y-140492785D01*
X54584064Y-140443987D01*
X54584062Y-140443986D01*
X54584057Y-140443985D01*
X54515994Y-140437800D01*
X53856806Y-140437800D01*
X53788743Y-140443985D01*
X53788739Y-140443986D01*
X53788735Y-140443987D01*
X53632136Y-140492785D01*
X53632127Y-140492788D01*
X53491751Y-140577648D01*
X53491747Y-140577651D01*
X53375751Y-140693647D01*
X53375748Y-140693651D01*
X53290888Y-140834027D01*
X53290885Y-140834036D01*
X53242087Y-140990635D01*
X53242085Y-140990643D01*
X53235900Y-141058706D01*
X51484107Y-141058706D01*
X58566500Y-133976314D01*
X58632392Y-133862186D01*
X58666500Y-133734892D01*
X58666500Y-133603107D01*
X58666500Y-132018108D01*
X58666500Y-82688020D01*
X59436845Y-82688020D01*
X59436845Y-82947825D01*
X59477485Y-83204416D01*
X59557767Y-83451499D01*
X59638879Y-83610687D01*
X59675711Y-83682974D01*
X59828414Y-83893152D01*
X60012116Y-84076854D01*
X60222294Y-84229557D01*
X60369790Y-84304710D01*
X60453768Y-84347500D01*
X60453770Y-84347500D01*
X60453773Y-84347502D01*
X60700852Y-84427783D01*
X60833051Y-84448720D01*
X60957443Y-84468423D01*
X60957448Y-84468423D01*
X61217247Y-84468423D01*
X61330643Y-84450462D01*
X61473838Y-84427783D01*
X61720917Y-84347502D01*
X61952396Y-84229557D01*
X62162574Y-84076854D01*
X62346276Y-83893152D01*
X62498979Y-83682974D01*
X62616924Y-83451495D01*
X62697205Y-83204416D01*
X62719884Y-83061221D01*
X62737845Y-82947825D01*
X62737845Y-82688020D01*
X62713338Y-82533292D01*
X62697205Y-82431430D01*
X62616924Y-82184351D01*
X62616922Y-82184348D01*
X62616922Y-82184346D01*
X62574132Y-82100368D01*
X62498979Y-81952872D01*
X62346276Y-81742694D01*
X62162574Y-81558992D01*
X61952396Y-81406289D01*
X61880109Y-81369457D01*
X61720921Y-81288345D01*
X61473838Y-81208063D01*
X61217247Y-81167423D01*
X61217242Y-81167423D01*
X60957448Y-81167423D01*
X60957443Y-81167423D01*
X60700851Y-81208063D01*
X60453768Y-81288345D01*
X60222290Y-81406291D01*
X60012119Y-81558989D01*
X60012113Y-81558994D01*
X59828416Y-81742691D01*
X59828411Y-81742697D01*
X59675713Y-81952868D01*
X59557767Y-82184346D01*
X59477485Y-82431429D01*
X59436845Y-82688020D01*
X58666500Y-82688020D01*
X58666500Y-81030676D01*
X58686185Y-80963637D01*
X58702819Y-80942995D01*
X61148437Y-78497377D01*
X63646500Y-75999314D01*
X63712392Y-75885186D01*
X63746500Y-75757892D01*
X63746500Y-75626107D01*
X63746500Y-70673108D01*
X63712392Y-70545814D01*
X63646500Y-70431686D01*
X63553314Y-70338500D01*
X60422083Y-67207269D01*
X60388598Y-67145946D01*
X60385764Y-67119588D01*
X60385764Y-62963347D01*
X60405449Y-62896308D01*
X60458253Y-62850553D01*
X60462301Y-62848790D01*
X60592957Y-62794672D01*
X60672224Y-62761839D01*
X60672227Y-62761837D01*
X60672233Y-62761835D01*
X60873796Y-62645462D01*
X61058445Y-62503776D01*
X61223020Y-62339201D01*
X61364706Y-62154552D01*
X61481079Y-61952989D01*
X61570146Y-61737960D01*
X61630385Y-61513146D01*
X61660764Y-61282392D01*
X61660764Y-61049648D01*
X61630385Y-60818894D01*
X61570146Y-60594080D01*
X61544666Y-60532564D01*
X61481083Y-60379059D01*
X61481075Y-60379043D01*
X61364710Y-60177495D01*
X61364706Y-60177488D01*
X61223020Y-59992839D01*
X61223015Y-59992833D01*
X61058450Y-59828268D01*
X61058443Y-59828262D01*
X60873804Y-59686584D01*
X60873802Y-59686582D01*
X60873796Y-59686578D01*
X60873791Y-59686575D01*
X60873788Y-59686573D01*
X60672240Y-59570208D01*
X60672224Y-59570200D01*
X60457211Y-59481140D01*
X60232386Y-59420898D01*
X60001646Y-59390521D01*
X60001641Y-59390520D01*
X60001636Y-59390520D01*
X59768892Y-59390520D01*
X59768886Y-59390520D01*
X59768881Y-59390521D01*
X59538141Y-59420898D01*
X59313316Y-59481140D01*
X59098303Y-59570200D01*
X59098287Y-59570208D01*
X58896739Y-59686573D01*
X58896723Y-59686584D01*
X58712084Y-59828262D01*
X58712077Y-59828268D01*
X58547512Y-59992833D01*
X58547506Y-59992840D01*
X58405828Y-60177479D01*
X58405817Y-60177495D01*
X58289452Y-60379043D01*
X58289444Y-60379059D01*
X58200384Y-60594072D01*
X58140142Y-60818897D01*
X58109765Y-61049637D01*
X58109764Y-61049654D01*
X58109764Y-61282385D01*
X58109765Y-61282402D01*
X58111560Y-61296038D01*
X58140143Y-61513146D01*
X58150722Y-61552629D01*
X58200384Y-61737967D01*
X58289444Y-61952980D01*
X58289452Y-61952996D01*
X58405817Y-62154544D01*
X58405828Y-62154560D01*
X58547506Y-62339199D01*
X58547512Y-62339206D01*
X58712077Y-62503771D01*
X58712083Y-62503776D01*
X58896732Y-62645462D01*
X58896739Y-62645466D01*
X59098287Y-62761831D01*
X59098303Y-62761839D01*
X59257407Y-62827740D01*
X59308216Y-62848786D01*
X59362620Y-62892626D01*
X59384685Y-62958920D01*
X59384764Y-62963347D01*
X59384764Y-67444155D01*
X59418872Y-67571451D01*
X59451818Y-67628514D01*
X59484764Y-67685578D01*
X59484766Y-67685580D01*
X62709181Y-70909995D01*
X62742666Y-70971318D01*
X62745500Y-70997676D01*
X62745500Y-75433324D01*
X62725815Y-75500363D01*
X62709181Y-75521005D01*
X57765502Y-80464683D01*
X57765500Y-80464686D01*
X57699608Y-80578812D01*
X57665500Y-80706108D01*
X57665500Y-133410323D01*
X57645815Y-133477362D01*
X57629181Y-133498004D01*
X47057298Y-144069886D01*
X46995975Y-144103371D01*
X46945429Y-144103823D01*
X46923692Y-144099500D01*
X46923691Y-144099500D01*
X46746309Y-144099500D01*
X46746306Y-144099500D01*
X46572341Y-144134103D01*
X46572332Y-144134106D01*
X46408459Y-144201983D01*
X46408446Y-144201990D01*
X46260965Y-144300535D01*
X46260961Y-144300538D01*
X46135538Y-144425961D01*
X46135535Y-144425965D01*
X46036990Y-144573446D01*
X46036983Y-144573459D01*
X45969106Y-144737332D01*
X45969103Y-144737341D01*
X45934500Y-144911304D01*
X35337955Y-144911304D01*
X35337955Y-142411304D01*
X45934500Y-142411304D01*
X45934500Y-142588695D01*
X45969103Y-142762658D01*
X45969106Y-142762667D01*
X46036983Y-142926540D01*
X46036990Y-142926553D01*
X46135535Y-143074034D01*
X46135538Y-143074038D01*
X46260961Y-143199461D01*
X46260965Y-143199464D01*
X46408446Y-143298009D01*
X46408459Y-143298016D01*
X46516007Y-143342563D01*
X46572334Y-143365894D01*
X46572336Y-143365894D01*
X46572341Y-143365896D01*
X46746304Y-143400499D01*
X46746307Y-143400500D01*
X46746309Y-143400500D01*
X46923693Y-143400500D01*
X46923694Y-143400499D01*
X46981682Y-143388964D01*
X47097658Y-143365896D01*
X47097661Y-143365894D01*
X47097666Y-143365894D01*
X47261547Y-143298013D01*
X47409035Y-143199464D01*
X47534464Y-143074035D01*
X47633013Y-142926547D01*
X47700894Y-142762666D01*
X47708082Y-142726533D01*
X47735499Y-142588695D01*
X47735500Y-142588693D01*
X47735500Y-142411310D01*
X47734288Y-142405217D01*
X47731176Y-142389572D01*
X47737402Y-142319984D01*
X47765110Y-142277702D01*
X56788500Y-133254314D01*
X56854392Y-133140186D01*
X56888500Y-133012893D01*
X56888500Y-132881108D01*
X56888500Y-131296108D01*
X56888500Y-78017892D01*
X56908185Y-77950853D01*
X56924814Y-77930216D01*
X58968268Y-75886761D01*
X59029589Y-75853278D01*
X59099281Y-75858262D01*
X59103373Y-75859872D01*
X59313324Y-75946836D01*
X59538138Y-76007075D01*
X59768892Y-76037454D01*
X59768899Y-76037454D01*
X60001629Y-76037454D01*
X60001636Y-76037454D01*
X60232390Y-76007075D01*
X60457204Y-75946836D01*
X60602235Y-75886763D01*
X60672224Y-75857773D01*
X60672227Y-75857771D01*
X60672233Y-75857769D01*
X60873796Y-75741396D01*
X61058445Y-75599710D01*
X61223020Y-75435135D01*
X61364706Y-75250486D01*
X61481079Y-75048923D01*
X61498106Y-75007817D01*
X61570143Y-74833901D01*
X61570142Y-74833901D01*
X61570146Y-74833894D01*
X61630385Y-74609080D01*
X61660764Y-74378326D01*
X61660764Y-74145582D01*
X61630385Y-73914828D01*
X61570146Y-73690014D01*
X61570143Y-73690006D01*
X61481083Y-73474993D01*
X61481075Y-73474977D01*
X61364710Y-73273429D01*
X61364706Y-73273422D01*
X61223020Y-73088773D01*
X61223015Y-73088767D01*
X61058450Y-72924202D01*
X61058443Y-72924196D01*
X60873804Y-72782518D01*
X60873802Y-72782516D01*
X60873796Y-72782512D01*
X60873791Y-72782509D01*
X60873788Y-72782507D01*
X60672240Y-72666142D01*
X60672224Y-72666134D01*
X60457211Y-72577074D01*
X60232386Y-72516832D01*
X60001646Y-72486455D01*
X60001641Y-72486454D01*
X60001636Y-72486454D01*
X59768892Y-72486454D01*
X59768886Y-72486454D01*
X59768881Y-72486455D01*
X59538141Y-72516832D01*
X59313316Y-72577074D01*
X59098303Y-72666134D01*
X59098287Y-72666142D01*
X58896739Y-72782507D01*
X58896723Y-72782518D01*
X58712084Y-72924196D01*
X58712077Y-72924202D01*
X58547512Y-73088767D01*
X58547506Y-73088774D01*
X58405828Y-73273413D01*
X58405817Y-73273429D01*
X58289452Y-73474977D01*
X58289444Y-73474993D01*
X58200384Y-73690006D01*
X58140142Y-73914831D01*
X58109765Y-74145571D01*
X58109764Y-74145588D01*
X58109764Y-74378319D01*
X58109765Y-74378336D01*
X58139869Y-74607004D01*
X58140143Y-74609080D01*
X58176561Y-74744995D01*
X58200384Y-74833901D01*
X58287333Y-75043817D01*
X58294802Y-75113286D01*
X58263526Y-75175765D01*
X58260453Y-75178950D01*
X56063244Y-77376158D01*
X56063245Y-77376159D01*
X55987500Y-77451904D01*
X55921608Y-77566030D01*
X55887500Y-77693326D01*
X55887500Y-132688323D01*
X55867815Y-132755362D01*
X55851181Y-132776004D01*
X47057298Y-141569886D01*
X46995975Y-141603371D01*
X46945429Y-141603823D01*
X46923692Y-141599500D01*
X46923691Y-141599500D01*
X46746309Y-141599500D01*
X46746306Y-141599500D01*
X46572341Y-141634103D01*
X46572332Y-141634106D01*
X46408459Y-141701983D01*
X46408446Y-141701990D01*
X46260965Y-141800535D01*
X46260961Y-141800538D01*
X46135538Y-141925961D01*
X46135535Y-141925965D01*
X46036990Y-142073446D01*
X46036983Y-142073459D01*
X45969106Y-142237332D01*
X45969103Y-142237341D01*
X45934500Y-142411304D01*
X35337955Y-142411304D01*
X35337955Y-139911304D01*
X45934500Y-139911304D01*
X45934500Y-140088695D01*
X45969103Y-140262658D01*
X45969106Y-140262667D01*
X46036983Y-140426540D01*
X46036990Y-140426553D01*
X46135535Y-140574034D01*
X46135538Y-140574038D01*
X46260961Y-140699461D01*
X46260965Y-140699464D01*
X46408446Y-140798009D01*
X46408459Y-140798016D01*
X46495421Y-140834036D01*
X46572334Y-140865894D01*
X46572336Y-140865894D01*
X46572341Y-140865896D01*
X46746304Y-140900499D01*
X46746307Y-140900500D01*
X46746309Y-140900500D01*
X46923693Y-140900500D01*
X46923694Y-140900499D01*
X46981682Y-140888964D01*
X47097658Y-140865896D01*
X47097661Y-140865894D01*
X47097666Y-140865894D01*
X47261547Y-140798013D01*
X47409035Y-140699464D01*
X47534464Y-140574035D01*
X47633013Y-140426547D01*
X47700894Y-140262666D01*
X47735500Y-140088691D01*
X47735500Y-139911309D01*
X47735500Y-139911306D01*
X47735499Y-139911304D01*
X47700896Y-139737341D01*
X47700893Y-139737332D01*
X47633016Y-139573459D01*
X47633009Y-139573446D01*
X47534464Y-139425965D01*
X47534461Y-139425961D01*
X47409038Y-139300538D01*
X47409034Y-139300535D01*
X47261553Y-139201990D01*
X47261540Y-139201983D01*
X47097667Y-139134106D01*
X47097658Y-139134103D01*
X46923694Y-139099500D01*
X46923691Y-139099500D01*
X46746309Y-139099500D01*
X46746306Y-139099500D01*
X46572341Y-139134103D01*
X46572332Y-139134106D01*
X46408459Y-139201983D01*
X46408446Y-139201990D01*
X46260965Y-139300535D01*
X46260961Y-139300538D01*
X46135538Y-139425961D01*
X46135535Y-139425965D01*
X46036990Y-139573446D01*
X46036983Y-139573459D01*
X45969106Y-139737332D01*
X45969103Y-139737341D01*
X45934500Y-139911304D01*
X35337955Y-139911304D01*
X35337955Y-126668995D01*
X47549499Y-126668995D01*
X47576418Y-126804322D01*
X47576421Y-126804332D01*
X47629221Y-126931804D01*
X47629228Y-126931817D01*
X47705885Y-127046541D01*
X47713177Y-127053833D01*
X47746665Y-127115155D01*
X47749500Y-127141518D01*
X47749500Y-136208481D01*
X47729815Y-136275520D01*
X47713181Y-136296162D01*
X47705888Y-136303454D01*
X47705885Y-136303458D01*
X47629228Y-136418182D01*
X47629221Y-136418195D01*
X47576421Y-136545667D01*
X47576418Y-136545677D01*
X47549500Y-136681004D01*
X47549500Y-136681007D01*
X47549500Y-136818993D01*
X47549500Y-136818995D01*
X47549499Y-136818995D01*
X47576418Y-136954322D01*
X47576421Y-136954332D01*
X47629221Y-137081804D01*
X47629228Y-137081817D01*
X47705885Y-137196541D01*
X47705888Y-137196545D01*
X47803454Y-137294111D01*
X47803458Y-137294114D01*
X47918182Y-137370771D01*
X47918195Y-137370778D01*
X48045667Y-137423578D01*
X48045672Y-137423580D01*
X48045676Y-137423580D01*
X48045677Y-137423581D01*
X48181004Y-137450500D01*
X48181007Y-137450500D01*
X48318995Y-137450500D01*
X48410041Y-137432389D01*
X48454328Y-137423580D01*
X48581811Y-137370775D01*
X48696542Y-137294114D01*
X48794114Y-137196542D01*
X48870775Y-137081811D01*
X48923580Y-136954328D01*
X48950500Y-136818993D01*
X48950500Y-136681007D01*
X48950500Y-136681004D01*
X48923581Y-136545677D01*
X48923580Y-136545676D01*
X48923580Y-136545672D01*
X48923578Y-136545667D01*
X48870778Y-136418195D01*
X48870771Y-136418182D01*
X48794114Y-136303458D01*
X48794111Y-136303454D01*
X48786819Y-136296162D01*
X48753334Y-136234839D01*
X48750500Y-136208481D01*
X48750500Y-127141518D01*
X48770185Y-127074479D01*
X48786823Y-127053833D01*
X48794114Y-127046542D01*
X48870775Y-126931811D01*
X48923580Y-126804328D01*
X48950500Y-126668993D01*
X48950500Y-126531007D01*
X48950500Y-126531004D01*
X48923581Y-126395677D01*
X48923580Y-126395676D01*
X48923580Y-126395672D01*
X48923578Y-126395667D01*
X48870778Y-126268195D01*
X48870771Y-126268182D01*
X48794114Y-126153458D01*
X48794111Y-126153454D01*
X48696545Y-126055888D01*
X48696541Y-126055885D01*
X48581817Y-125979228D01*
X48581804Y-125979221D01*
X48454332Y-125926421D01*
X48454322Y-125926418D01*
X48318995Y-125899500D01*
X48318993Y-125899500D01*
X48181007Y-125899500D01*
X48181005Y-125899500D01*
X48045677Y-125926418D01*
X48045667Y-125926421D01*
X47918195Y-125979221D01*
X47918182Y-125979228D01*
X47803458Y-126055885D01*
X47803454Y-126055888D01*
X47705888Y-126153454D01*
X47705885Y-126153458D01*
X47629228Y-126268182D01*
X47629221Y-126268195D01*
X47576421Y-126395667D01*
X47576418Y-126395677D01*
X47549500Y-126531004D01*
X47549500Y-126531007D01*
X47549500Y-126668993D01*
X47549500Y-126668995D01*
X47549499Y-126668995D01*
X35337955Y-126668995D01*
X35337955Y-82727988D01*
X48434264Y-82727988D01*
X48434264Y-84859391D01*
X48437165Y-84896257D01*
X48437166Y-84896263D01*
X48483018Y-85054083D01*
X48483019Y-85054086D01*
X48566681Y-85195552D01*
X48566687Y-85195560D01*
X48682893Y-85311766D01*
X48682897Y-85311769D01*
X48682899Y-85311771D01*
X48824366Y-85395434D01*
X48865988Y-85407526D01*
X48982190Y-85441287D01*
X48982193Y-85441287D01*
X48982195Y-85441288D01*
X49019070Y-85444190D01*
X49019078Y-85444190D01*
X51150450Y-85444190D01*
X51150458Y-85444190D01*
X51187333Y-85441288D01*
X51187335Y-85441287D01*
X51187337Y-85441287D01*
X51228955Y-85429195D01*
X51345162Y-85395434D01*
X51486629Y-85311771D01*
X51602845Y-85195555D01*
X51686508Y-85054088D01*
X51732362Y-84896259D01*
X51735264Y-84859384D01*
X51735264Y-82727996D01*
X51732362Y-82691121D01*
X51731461Y-82688020D01*
X51686509Y-82533296D01*
X51686508Y-82533293D01*
X51686508Y-82533292D01*
X51602845Y-82391825D01*
X51602843Y-82391823D01*
X51602840Y-82391819D01*
X51486634Y-82275613D01*
X51486626Y-82275607D01*
X51345160Y-82191945D01*
X51345157Y-82191944D01*
X51187337Y-82146092D01*
X51187331Y-82146091D01*
X51150465Y-82143190D01*
X51150458Y-82143190D01*
X49019070Y-82143190D01*
X49019062Y-82143190D01*
X48982196Y-82146091D01*
X48982190Y-82146092D01*
X48824370Y-82191944D01*
X48824367Y-82191945D01*
X48682901Y-82275607D01*
X48682893Y-82275613D01*
X48566687Y-82391819D01*
X48566681Y-82391827D01*
X48483019Y-82533293D01*
X48483018Y-82533296D01*
X48437166Y-82691116D01*
X48437165Y-82691122D01*
X48434264Y-82727988D01*
X35337955Y-82727988D01*
X35337955Y-78077933D01*
X40992916Y-78077933D01*
X40992916Y-78209717D01*
X41009970Y-78273364D01*
X41027024Y-78337012D01*
X41034932Y-78350708D01*
X41092916Y-78451139D01*
X42600316Y-79958539D01*
X42699151Y-80015602D01*
X42714440Y-80024429D01*
X42714444Y-80024431D01*
X42841738Y-80058539D01*
X42841740Y-80058539D01*
X42973521Y-80058539D01*
X42973523Y-80058539D01*
X43100816Y-80024431D01*
X43214945Y-79958539D01*
X43308130Y-79865354D01*
X43308130Y-79865352D01*
X43318334Y-79855149D01*
X43318338Y-79855144D01*
X43838460Y-79335022D01*
X44368790Y-78804692D01*
X44434682Y-78690564D01*
X44468790Y-78563270D01*
X44468790Y-78431485D01*
X44434682Y-78304192D01*
X44368790Y-78190064D01*
X44275604Y-78096878D01*
X44275603Y-78096877D01*
X44271273Y-78092547D01*
X44271262Y-78092537D01*
X42861393Y-76682667D01*
X42861392Y-76682666D01*
X42861391Y-76682665D01*
X42804327Y-76649719D01*
X42747264Y-76616773D01*
X42683616Y-76599719D01*
X42619970Y-76582665D01*
X42488185Y-76582665D01*
X42360889Y-76616773D01*
X42246763Y-76682665D01*
X42246760Y-76682667D01*
X41716433Y-77212995D01*
X41168669Y-77760755D01*
X41168660Y-77760767D01*
X41092916Y-77836511D01*
X41027024Y-77950637D01*
X41009004Y-78017892D01*
X40992916Y-78077933D01*
X35337955Y-78077933D01*
X35337955Y-71753099D01*
X35357640Y-71686060D01*
X35410444Y-71640305D01*
X35479602Y-71630361D01*
X35543158Y-71659386D01*
X35579886Y-71714781D01*
X35621790Y-71843749D01*
X35657557Y-71953826D01*
X35775502Y-72185305D01*
X35928205Y-72395483D01*
X36111907Y-72579185D01*
X36322085Y-72731888D01*
X36428894Y-72786310D01*
X36553559Y-72849831D01*
X36553561Y-72849831D01*
X36553564Y-72849833D01*
X36800643Y-72930114D01*
X36932842Y-72951051D01*
X37057234Y-72970754D01*
X37057239Y-72970754D01*
X37317038Y-72970754D01*
X37430434Y-72952793D01*
X37573629Y-72930114D01*
X37820708Y-72849833D01*
X37865106Y-72827210D01*
X37933773Y-72814314D01*
X37998514Y-72840589D01*
X38009082Y-72850014D01*
X38364382Y-73205314D01*
X38457568Y-73298500D01*
X38571696Y-73364392D01*
X38698990Y-73398500D01*
X45842324Y-73398500D01*
X45909363Y-73418185D01*
X45930005Y-73434819D01*
X47142181Y-74646995D01*
X47175666Y-74708318D01*
X47178500Y-74734676D01*
X47178500Y-74744993D01*
X47178500Y-74744995D01*
X47178499Y-74744995D01*
X47205418Y-74880322D01*
X47205421Y-74880332D01*
X47258221Y-75007804D01*
X47258228Y-75007817D01*
X47334885Y-75122541D01*
X47334888Y-75122545D01*
X47432454Y-75220111D01*
X47432458Y-75220114D01*
X47547182Y-75296771D01*
X47547195Y-75296778D01*
X47674667Y-75349578D01*
X47674672Y-75349580D01*
X47674676Y-75349580D01*
X47674677Y-75349581D01*
X47810004Y-75376500D01*
X47810007Y-75376500D01*
X47947995Y-75376500D01*
X48039041Y-75358389D01*
X48083328Y-75349580D01*
X48210811Y-75296775D01*
X48325542Y-75220114D01*
X48423114Y-75122542D01*
X48499775Y-75007811D01*
X48552580Y-74880328D01*
X48579500Y-74744993D01*
X48579500Y-74607007D01*
X48579500Y-74607004D01*
X48552581Y-74471677D01*
X48552580Y-74471676D01*
X48552580Y-74471672D01*
X48513912Y-74378319D01*
X48499778Y-74344195D01*
X48499771Y-74344182D01*
X48423114Y-74229458D01*
X48423111Y-74229454D01*
X48325545Y-74131888D01*
X48325541Y-74131885D01*
X48210817Y-74055228D01*
X48210804Y-74055221D01*
X48083332Y-74002421D01*
X48083322Y-74002418D01*
X47947995Y-73975500D01*
X47947993Y-73975500D01*
X47937676Y-73975500D01*
X47870637Y-73955815D01*
X47849995Y-73939181D01*
X46408316Y-72497502D01*
X46408314Y-72497500D01*
X46351250Y-72464554D01*
X46294187Y-72431608D01*
X46230539Y-72414554D01*
X46166892Y-72397500D01*
X46166891Y-72397500D01*
X39023558Y-72397500D01*
X38956519Y-72377815D01*
X38935877Y-72361181D01*
X38716896Y-72142200D01*
X38683411Y-72080877D01*
X38688395Y-72011185D01*
X38694087Y-71998235D01*
X38716715Y-71953826D01*
X38796996Y-71706747D01*
X38819675Y-71563552D01*
X38837636Y-71450156D01*
X38837636Y-71190351D01*
X38809166Y-71010600D01*
X38796996Y-70933761D01*
X38716715Y-70686682D01*
X38716713Y-70686679D01*
X38716713Y-70686677D01*
X38673923Y-70602699D01*
X38598770Y-70455203D01*
X38446067Y-70245025D01*
X38262365Y-70061323D01*
X38052187Y-69908620D01*
X37979900Y-69871788D01*
X37820712Y-69790676D01*
X37573629Y-69710394D01*
X37317038Y-69669754D01*
X37317033Y-69669754D01*
X37057239Y-69669754D01*
X37057234Y-69669754D01*
X36800642Y-69710394D01*
X36553559Y-69790676D01*
X36322081Y-69908622D01*
X36111910Y-70061320D01*
X36111904Y-70061325D01*
X35928207Y-70245022D01*
X35928202Y-70245028D01*
X35775504Y-70455199D01*
X35657558Y-70686677D01*
X35579886Y-70925727D01*
X35540448Y-70983402D01*
X35476089Y-71010600D01*
X35407243Y-70998685D01*
X35355767Y-70951441D01*
X35337955Y-70887408D01*
X35337955Y-68694255D01*
X50576797Y-68694255D01*
X50576797Y-68954060D01*
X50617437Y-69210651D01*
X50697719Y-69457734D01*
X50778831Y-69616922D01*
X50815663Y-69689209D01*
X50968366Y-69899387D01*
X51152068Y-70083089D01*
X51362246Y-70235792D01*
X51509742Y-70310945D01*
X51593720Y-70353735D01*
X51593722Y-70353735D01*
X51593725Y-70353737D01*
X51840804Y-70434018D01*
X51973003Y-70454955D01*
X52097395Y-70474658D01*
X52097400Y-70474658D01*
X52357199Y-70474658D01*
X52480030Y-70455203D01*
X52613790Y-70434018D01*
X52860869Y-70353737D01*
X53092348Y-70235792D01*
X53302526Y-70083089D01*
X53486228Y-69899387D01*
X53638931Y-69689209D01*
X53756876Y-69457730D01*
X53837157Y-69210651D01*
X53859836Y-69067456D01*
X53877797Y-68954060D01*
X53877797Y-68694255D01*
X53856244Y-68558179D01*
X53837157Y-68437665D01*
X53756876Y-68190586D01*
X53756874Y-68190583D01*
X53756874Y-68190581D01*
X53714084Y-68106603D01*
X53638931Y-67959107D01*
X53486228Y-67748929D01*
X53302526Y-67565227D01*
X53135886Y-67444156D01*
X53092351Y-67412526D01*
X53092350Y-67412525D01*
X53092348Y-67412524D01*
X53020061Y-67375692D01*
X52860873Y-67294580D01*
X52613790Y-67214298D01*
X52357199Y-67173658D01*
X52357194Y-67173658D01*
X52097400Y-67173658D01*
X52097395Y-67173658D01*
X51840803Y-67214298D01*
X51593720Y-67294580D01*
X51362242Y-67412526D01*
X51152071Y-67565224D01*
X51152065Y-67565229D01*
X50968368Y-67748926D01*
X50968363Y-67748932D01*
X50815665Y-67959103D01*
X50697719Y-68190581D01*
X50617437Y-68437664D01*
X50576797Y-68694255D01*
X35337955Y-68694255D01*
X35337955Y-61036233D01*
X45139146Y-61036233D01*
X45139146Y-61296038D01*
X45179786Y-61552629D01*
X45260068Y-61799712D01*
X45378014Y-62031190D01*
X45530712Y-62241361D01*
X45530715Y-62241365D01*
X45714417Y-62425067D01*
X45924595Y-62577770D01*
X46057455Y-62645466D01*
X46156069Y-62695713D01*
X46156071Y-62695713D01*
X46156074Y-62695715D01*
X46403153Y-62775996D01*
X46535352Y-62796933D01*
X46659744Y-62816636D01*
X46659749Y-62816636D01*
X46919548Y-62816636D01*
X47032944Y-62798675D01*
X47176139Y-62775996D01*
X47423218Y-62695715D01*
X47654697Y-62577770D01*
X47864875Y-62425067D01*
X48048577Y-62241365D01*
X48201280Y-62031187D01*
X48319225Y-61799708D01*
X48399506Y-61552629D01*
X48422185Y-61409434D01*
X48440146Y-61296038D01*
X48440146Y-61036233D01*
X48405723Y-60818897D01*
X48399506Y-60779643D01*
X48319225Y-60532564D01*
X48319223Y-60532561D01*
X48319223Y-60532559D01*
X48276433Y-60448581D01*
X48201280Y-60301085D01*
X48048577Y-60090907D01*
X47864875Y-59907205D01*
X47864871Y-59907202D01*
X47654700Y-59754504D01*
X47654699Y-59754503D01*
X47654697Y-59754502D01*
X47582410Y-59717670D01*
X47423222Y-59636558D01*
X47176139Y-59556276D01*
X46919548Y-59515636D01*
X46919543Y-59515636D01*
X46659749Y-59515636D01*
X46659744Y-59515636D01*
X46403152Y-59556276D01*
X46156069Y-59636558D01*
X45924591Y-59754504D01*
X45714420Y-59907202D01*
X45714414Y-59907207D01*
X45530717Y-60090904D01*
X45530712Y-60090910D01*
X45378014Y-60301081D01*
X45260068Y-60532559D01*
X45179786Y-60779642D01*
X45139146Y-61036233D01*
X35337955Y-61036233D01*
X35337955Y-57218283D01*
X40992916Y-57218283D01*
X40992916Y-57350067D01*
X41027024Y-57477361D01*
X41044246Y-57507191D01*
X41092917Y-57591490D01*
X41092919Y-57591493D01*
X41564659Y-58063231D01*
X41623247Y-58121819D01*
X42153577Y-58652149D01*
X42246763Y-58745335D01*
X42360891Y-58811227D01*
X42488185Y-58845335D01*
X42488187Y-58845335D01*
X42619968Y-58845335D01*
X42619969Y-58845335D01*
X42619970Y-58845335D01*
X42747263Y-58811227D01*
X42861391Y-58745335D01*
X42954577Y-58652149D01*
X42954577Y-58652148D01*
X44265394Y-57341329D01*
X44265399Y-57341326D01*
X44275602Y-57331122D01*
X44275604Y-57331122D01*
X44368790Y-57237936D01*
X44434682Y-57123808D01*
X44468790Y-56996515D01*
X44468790Y-56864730D01*
X44434682Y-56737436D01*
X44368790Y-56623308D01*
X43745274Y-55999792D01*
X43315200Y-55569717D01*
X43315198Y-55569714D01*
X43214946Y-55469462D01*
X43214941Y-55469458D01*
X43100818Y-55403570D01*
X43100817Y-55403569D01*
X43100816Y-55403569D01*
X42973523Y-55369461D01*
X42841738Y-55369461D01*
X42714442Y-55403569D01*
X42600316Y-55469461D01*
X42600313Y-55469463D01*
X41092918Y-56976858D01*
X41092916Y-56976861D01*
X41027024Y-57090987D01*
X41018230Y-57123808D01*
X40992916Y-57218283D01*
X35337955Y-57218283D01*
X35337955Y-51544429D01*
X43937065Y-51544429D01*
X43937065Y-53675832D01*
X43939966Y-53712698D01*
X43939967Y-53712704D01*
X43985819Y-53870524D01*
X43985820Y-53870527D01*
X44069482Y-54011993D01*
X44069488Y-54012001D01*
X44185694Y-54128207D01*
X44185698Y-54128210D01*
X44185700Y-54128212D01*
X44327167Y-54211875D01*
X44368789Y-54223967D01*
X44484991Y-54257728D01*
X44484994Y-54257728D01*
X44484996Y-54257729D01*
X44521871Y-54260631D01*
X44521879Y-54260631D01*
X46653251Y-54260631D01*
X46653259Y-54260631D01*
X46690134Y-54257729D01*
X46690136Y-54257728D01*
X46690138Y-54257728D01*
X46731756Y-54245636D01*
X46847963Y-54211875D01*
X46989430Y-54128212D01*
X47105646Y-54011996D01*
X47189309Y-53870529D01*
X47235163Y-53712700D01*
X47238065Y-53675825D01*
X47238065Y-51544437D01*
X47235163Y-51507562D01*
X47189309Y-51349733D01*
X47105646Y-51208266D01*
X47105644Y-51208264D01*
X47105641Y-51208260D01*
X46989435Y-51092054D01*
X46989427Y-51092048D01*
X46847961Y-51008386D01*
X46847958Y-51008385D01*
X46690138Y-50962533D01*
X46690132Y-50962532D01*
X46653266Y-50959631D01*
X46653259Y-50959631D01*
X44521871Y-50959631D01*
X44521863Y-50959631D01*
X44484997Y-50962532D01*
X44484991Y-50962533D01*
X44327171Y-51008385D01*
X44327168Y-51008386D01*
X44185702Y-51092048D01*
X44185694Y-51092054D01*
X44069488Y-51208260D01*
X44069482Y-51208268D01*
X43985820Y-51349734D01*
X43985819Y-51349737D01*
X43939967Y-51507557D01*
X43939966Y-51507563D01*
X43937065Y-51544429D01*
X35337955Y-51544429D01*
X35337955Y-31217764D01*
X35338181Y-31210275D01*
X35348365Y-31041962D01*
X35355732Y-30920204D01*
X35357538Y-30905346D01*
X35395227Y-30699709D01*
X35409244Y-30623221D01*
X35412827Y-30608687D01*
X35498167Y-30334834D01*
X35503472Y-30320847D01*
X35621200Y-30059273D01*
X35628152Y-30046028D01*
X35776553Y-29800546D01*
X35785042Y-29788249D01*
X35961955Y-29562436D01*
X35971870Y-29551245D01*
X36174700Y-29348415D01*
X36185891Y-29338500D01*
X36411704Y-29161587D01*
X36424001Y-29153098D01*
X36669483Y-29004697D01*
X36682728Y-28997745D01*
X36944302Y-28880017D01*
X36958289Y-28874712D01*
X37232146Y-28789370D01*
X37246676Y-28785789D01*
X37528808Y-28734082D01*
X37543659Y-28732277D01*
X37833731Y-28714726D01*
X37841220Y-28714500D01*
X40212955Y-28714500D01*
X40279994Y-28734185D01*
G37*
%TD.AperFunction*%
%TA.AperFunction,Conductor*%
G36*
X58039557Y-142695185D02*
G01*
X58070892Y-142724013D01*
X58131718Y-142803282D01*
X58235555Y-142882959D01*
X58259880Y-142901624D01*
X58301082Y-142958053D01*
X58305237Y-143027799D01*
X58271024Y-143088719D01*
X58259880Y-143098376D01*
X58131718Y-143196718D01*
X58035463Y-143322160D01*
X57974956Y-143468237D01*
X57974955Y-143468239D01*
X57959500Y-143585638D01*
X57959500Y-144064363D01*
X57974953Y-144181753D01*
X57974956Y-144181762D01*
X58035464Y-144327841D01*
X58131718Y-144453282D01*
X58257159Y-144549536D01*
X58257944Y-144549861D01*
X58258507Y-144550315D01*
X58264196Y-144553599D01*
X58263684Y-144554485D01*
X58312350Y-144593697D01*
X58334421Y-144659989D01*
X58334500Y-144664425D01*
X58334500Y-148306224D01*
X58314815Y-148373263D01*
X58298181Y-148393905D01*
X57647808Y-149044277D01*
X57586485Y-149077762D01*
X57516793Y-149072778D01*
X57460860Y-149030906D01*
X57436443Y-148965442D01*
X57437654Y-148937198D01*
X57468900Y-148739922D01*
X57468900Y-148543077D01*
X57438109Y-148348673D01*
X57377282Y-148161470D01*
X57301463Y-148012667D01*
X57287924Y-147986095D01*
X57172228Y-147826854D01*
X57033046Y-147687672D01*
X56873805Y-147571976D01*
X56818261Y-147543675D01*
X56698429Y-147482617D01*
X56511226Y-147421790D01*
X56316822Y-147391000D01*
X56316817Y-147391000D01*
X56119983Y-147391000D01*
X56119978Y-147391000D01*
X55925573Y-147421790D01*
X55738370Y-147482617D01*
X55562994Y-147571976D01*
X55539983Y-147588695D01*
X55403754Y-147687672D01*
X55403752Y-147687674D01*
X55403751Y-147687674D01*
X55264574Y-147826851D01*
X55264574Y-147826852D01*
X55264572Y-147826854D01*
X55255969Y-147838695D01*
X55148875Y-147986095D01*
X55146546Y-147990667D01*
X55098568Y-148041460D01*
X55030746Y-148058252D01*
X54964613Y-148035710D01*
X54928882Y-147994468D01*
X54928171Y-147994904D01*
X54925626Y-147990752D01*
X54886270Y-147936582D01*
X54886269Y-147936582D01*
X54124554Y-148698299D01*
X54124554Y-148698300D01*
X54886270Y-149460017D01*
X54886270Y-149460016D01*
X54925624Y-149405852D01*
X54958415Y-149341495D01*
X55006388Y-149290699D01*
X55074209Y-149273903D01*
X55140344Y-149296440D01*
X55169217Y-149324902D01*
X55264572Y-149456146D01*
X55403754Y-149595328D01*
X55562995Y-149711024D01*
X55599875Y-149729815D01*
X55739613Y-149801015D01*
X55790409Y-149848989D01*
X55807204Y-149916810D01*
X55784667Y-149982945D01*
X55739613Y-150021985D01*
X55562994Y-150111976D01*
X55549202Y-150121997D01*
X55403754Y-150227672D01*
X55403752Y-150227674D01*
X55403751Y-150227674D01*
X55264574Y-150366851D01*
X55264574Y-150366852D01*
X55264572Y-150366854D01*
X55231815Y-150411940D01*
X55148876Y-150526094D01*
X55058885Y-150702713D01*
X55010911Y-150753509D01*
X54943090Y-150770304D01*
X54876955Y-150747767D01*
X54837915Y-150702713D01*
X54747923Y-150526094D01*
X54722929Y-150491693D01*
X54632228Y-150366854D01*
X54493046Y-150227672D01*
X54347598Y-150121997D01*
X54304933Y-150066666D01*
X54298954Y-149997053D01*
X54331560Y-149935258D01*
X54364190Y-149911194D01*
X54478552Y-149852924D01*
X54532716Y-149813570D01*
X54532717Y-149813570D01*
X53771000Y-149051854D01*
X53009282Y-149813569D01*
X53009282Y-149813570D01*
X53063452Y-149852926D01*
X53080592Y-149861660D01*
X53131388Y-149909635D01*
X53148182Y-149977456D01*
X53125644Y-150043591D01*
X53080592Y-150082628D01*
X53022997Y-150111974D01*
X53009202Y-150121997D01*
X52863754Y-150227672D01*
X52863752Y-150227674D01*
X52863751Y-150227674D01*
X52724574Y-150366851D01*
X52724574Y-150366852D01*
X52724572Y-150366854D01*
X52691815Y-150411940D01*
X52608876Y-150526094D01*
X52519517Y-150701470D01*
X52458690Y-150888673D01*
X52427900Y-151083077D01*
X52427900Y-151279922D01*
X52458690Y-151474326D01*
X52519517Y-151661529D01*
X52555859Y-151732853D01*
X52599858Y-151819206D01*
X52612754Y-151887874D01*
X52586478Y-151952615D01*
X52529371Y-151992872D01*
X52489373Y-151999500D01*
X51683838Y-151999500D01*
X51616799Y-151979815D01*
X51608364Y-151973885D01*
X51577841Y-151950464D01*
X51577838Y-151950463D01*
X51577836Y-151950461D01*
X51431765Y-151889957D01*
X51431760Y-151889955D01*
X51314361Y-151874500D01*
X50835636Y-151874500D01*
X50718246Y-151889953D01*
X50718237Y-151889956D01*
X50572160Y-151950463D01*
X50446718Y-152046718D01*
X50348376Y-152174880D01*
X50291947Y-152216082D01*
X50222201Y-152220237D01*
X50161281Y-152186024D01*
X50151624Y-152174880D01*
X50141957Y-152162282D01*
X50053282Y-152046718D01*
X49927841Y-151950464D01*
X49781762Y-151889956D01*
X49781760Y-151889955D01*
X49664362Y-151874500D01*
X49382674Y-151874500D01*
X49315635Y-151854815D01*
X49269880Y-151802011D01*
X49259936Y-151732853D01*
X49288961Y-151669297D01*
X49294979Y-151662833D01*
X52212314Y-148745499D01*
X52273632Y-148712017D01*
X52343324Y-148717001D01*
X52399257Y-148758873D01*
X52422463Y-148813785D01*
X52454242Y-149014427D01*
X52454242Y-149014430D01*
X52519904Y-149216517D01*
X52616375Y-149405850D01*
X52655728Y-149460016D01*
X53559060Y-148556686D01*
X53521000Y-148648572D01*
X53521000Y-148748028D01*
X53559060Y-148839914D01*
X53629386Y-148910240D01*
X53721272Y-148948300D01*
X53820728Y-148948300D01*
X53912614Y-148910240D01*
X53982940Y-148839914D01*
X54021000Y-148748028D01*
X54021000Y-148648572D01*
X53982940Y-148556686D01*
X53912614Y-148486360D01*
X53820728Y-148448300D01*
X53721272Y-148448300D01*
X53629386Y-148486360D01*
X53594223Y-148521523D01*
X54532716Y-147583028D01*
X54478550Y-147543675D01*
X54289217Y-147447204D01*
X54087128Y-147381542D01*
X53886485Y-147349763D01*
X53823350Y-147319834D01*
X53786419Y-147260522D01*
X53787417Y-147190660D01*
X53818198Y-147139615D01*
X57126899Y-143830915D01*
X57172499Y-143751934D01*
X57223064Y-143703721D01*
X57242987Y-143695553D01*
X57280670Y-143683812D01*
X57421053Y-143598948D01*
X57537048Y-143482953D01*
X57621912Y-143342570D01*
X57670715Y-143185957D01*
X57676900Y-143117894D01*
X57676900Y-142799500D01*
X57679450Y-142790814D01*
X57678162Y-142781853D01*
X57689140Y-142757812D01*
X57696585Y-142732461D01*
X57703425Y-142726533D01*
X57707187Y-142718297D01*
X57729421Y-142704007D01*
X57749389Y-142686706D01*
X57759903Y-142684418D01*
X57765965Y-142680523D01*
X57800900Y-142675500D01*
X57972518Y-142675500D01*
X58039557Y-142695185D01*
G37*
%TD.AperFunction*%
%TD*%
M02*
