%TF.GenerationSoftware,KiCad,Pcbnew,10.0.3*%
%TF.CreationDate,2026-08-21T08:41:32-07:00*%
%TF.ProjectId,c6remote,63367265-6d6f-4746-952e-6b696361645f,rev?*%
%TF.SameCoordinates,Original*%
%TF.FileFunction,Legend,Top*%
%TF.FilePolarity,Positive*%
%FSLAX46Y46*%
G04 Gerber Fmt 4.6, Leading zero omitted, Abs format (unit mm)*
G04 Created by KiCad (PCBNEW 10.0.3) date 2026-08-21 08:41:32*
%MOMM*%
%LPD*%
G01*
G04 APERTURE LIST*
%ADD10C,0.000000*%
%ADD11C,0.150000*%
%ADD12C,0.800000*%
%ADD13C,0.187500*%
%ADD14C,0.080000*%
%ADD15C,0.250000*%
%ADD16C,0.300000*%
%ADD17C,0.200000*%
%ADD18C,0.120000*%
%ADD19C,0.100000*%
%ADD20C,0.127000*%
%ADD21C,0.504000*%
G04 APERTURE END LIST*
D10*
G36*
X53825998Y-45736572D02*
G01*
X53836031Y-45736960D01*
X53846035Y-45737602D01*
X53856004Y-45738497D01*
X53865936Y-45739641D01*
X53875825Y-45741033D01*
X53885669Y-45742668D01*
X53895462Y-45744545D01*
X53905201Y-45746661D01*
X53914882Y-45749013D01*
X53924500Y-45751598D01*
X53934052Y-45754413D01*
X53943533Y-45757457D01*
X53952940Y-45760726D01*
X53962268Y-45764217D01*
X53971513Y-45767928D01*
X53980661Y-45771856D01*
X53989696Y-45775999D01*
X53998614Y-45780352D01*
X54007412Y-45784915D01*
X54016085Y-45789684D01*
X54024629Y-45794657D01*
X54033040Y-45799830D01*
X54041314Y-45805202D01*
X54049447Y-45810768D01*
X54057435Y-45816527D01*
X54065273Y-45822477D01*
X54072959Y-45828613D01*
X54080487Y-45834934D01*
X54087853Y-45841437D01*
X54095054Y-45848118D01*
X54102086Y-45854976D01*
X54109107Y-45862171D01*
X54115931Y-45869514D01*
X54122557Y-45877005D01*
X54128984Y-45884639D01*
X54135210Y-45892414D01*
X54141234Y-45900327D01*
X54147055Y-45908376D01*
X54152671Y-45916558D01*
X54158080Y-45924870D01*
X54163282Y-45933310D01*
X54168275Y-45941875D01*
X54173058Y-45950561D01*
X54177629Y-45959367D01*
X54181987Y-45968290D01*
X54186131Y-45977326D01*
X54190059Y-45986474D01*
X54193760Y-45995719D01*
X54197222Y-46005047D01*
X54200445Y-46014454D01*
X54203429Y-46023935D01*
X54206175Y-46033487D01*
X54208681Y-46043106D01*
X54210949Y-46052786D01*
X54212979Y-46062525D01*
X54214769Y-46072319D01*
X54216321Y-46082162D01*
X54217634Y-46092052D01*
X54218709Y-46101983D01*
X54219544Y-46111953D01*
X54220141Y-46121957D01*
X54220499Y-46131990D01*
X54220619Y-46142049D01*
X54220499Y-46151945D01*
X54220141Y-46161836D01*
X54219544Y-46171716D01*
X54218709Y-46181580D01*
X54217634Y-46191422D01*
X54216321Y-46201236D01*
X54214770Y-46211019D01*
X54212979Y-46220763D01*
X54210950Y-46230464D01*
X54208682Y-46240116D01*
X54206175Y-46249713D01*
X54203429Y-46259251D01*
X54200445Y-46268724D01*
X54197222Y-46278127D01*
X54193760Y-46287453D01*
X54190059Y-46296698D01*
X54186131Y-46305846D01*
X54181987Y-46314883D01*
X54177629Y-46323805D01*
X54173058Y-46332611D01*
X54168275Y-46341298D01*
X54163282Y-46349862D01*
X54158080Y-46358302D01*
X54152670Y-46366614D01*
X54147055Y-46374796D01*
X54141234Y-46382846D01*
X54135210Y-46390759D01*
X54128984Y-46398534D01*
X54122557Y-46406168D01*
X54115931Y-46413658D01*
X54109107Y-46421002D01*
X54102086Y-46428196D01*
X54095054Y-46435054D01*
X54087853Y-46441736D01*
X54080487Y-46448239D01*
X54072959Y-46454560D01*
X54065273Y-46460696D01*
X54057435Y-46466645D01*
X54049447Y-46472404D01*
X54041314Y-46477971D01*
X54033040Y-46483342D01*
X54024629Y-46488516D01*
X54016085Y-46493488D01*
X54007412Y-46498257D01*
X53998614Y-46502820D01*
X53989696Y-46507174D01*
X53980661Y-46511317D01*
X53971513Y-46515245D01*
X53962268Y-46518955D01*
X53952940Y-46522447D01*
X53943533Y-46525715D01*
X53934052Y-46528759D01*
X53924500Y-46531575D01*
X53914882Y-46534160D01*
X53905201Y-46536511D01*
X53895462Y-46538627D01*
X53885669Y-46540504D01*
X53875826Y-46542139D01*
X53865936Y-46543531D01*
X53856004Y-46544675D01*
X53846035Y-46545570D01*
X53836031Y-46546213D01*
X53825998Y-46546600D01*
X53815939Y-46546730D01*
X53806042Y-46546600D01*
X53796152Y-46546213D01*
X53786272Y-46545570D01*
X53776408Y-46544675D01*
X53766566Y-46543531D01*
X53756752Y-46542139D01*
X53746969Y-46540504D01*
X53737225Y-46538627D01*
X53727524Y-46536511D01*
X53717872Y-46534160D01*
X53708274Y-46531575D01*
X53698736Y-46528759D01*
X53689263Y-46525715D01*
X53679861Y-46522447D01*
X53670534Y-46518955D01*
X53661289Y-46515245D01*
X53652142Y-46511317D01*
X53643105Y-46507174D01*
X53634182Y-46502820D01*
X53625376Y-46498257D01*
X53616690Y-46493488D01*
X53608125Y-46488516D01*
X53599686Y-46483342D01*
X53591373Y-46477971D01*
X53583191Y-46472404D01*
X53575142Y-46466645D01*
X53567229Y-46460696D01*
X53559454Y-46454560D01*
X53551820Y-46448239D01*
X53544330Y-46441736D01*
X53536986Y-46435054D01*
X53529792Y-46428196D01*
X53522923Y-46421002D01*
X53516212Y-46413658D01*
X53509664Y-46406168D01*
X53503284Y-46398534D01*
X53497077Y-46390759D01*
X53491050Y-46382845D01*
X53485207Y-46374796D01*
X53479554Y-46366614D01*
X53474096Y-46358302D01*
X53468839Y-46349862D01*
X53463788Y-46341298D01*
X53458949Y-46332611D01*
X53454327Y-46323805D01*
X53449928Y-46314883D01*
X53445756Y-46305846D01*
X53441818Y-46296698D01*
X53438117Y-46287453D01*
X53434655Y-46278127D01*
X53431432Y-46268724D01*
X53428448Y-46259251D01*
X53425702Y-46249713D01*
X53423196Y-46240116D01*
X53420927Y-46230464D01*
X53418898Y-46220763D01*
X53417108Y-46211019D01*
X53415556Y-46201236D01*
X53414243Y-46191422D01*
X53413168Y-46181580D01*
X53412333Y-46171716D01*
X53411736Y-46161836D01*
X53411378Y-46151945D01*
X53411258Y-46142049D01*
X53411378Y-46131990D01*
X53411736Y-46121957D01*
X53412333Y-46111953D01*
X53413168Y-46101983D01*
X53414243Y-46092052D01*
X53415556Y-46082162D01*
X53417107Y-46072319D01*
X53418898Y-46062525D01*
X53420927Y-46052786D01*
X53423195Y-46043106D01*
X53425702Y-46033487D01*
X53428448Y-46023935D01*
X53431432Y-46014454D01*
X53434655Y-46005047D01*
X53438117Y-45995719D01*
X53441818Y-45986474D01*
X53445756Y-45977326D01*
X53449928Y-45968290D01*
X53454327Y-45959367D01*
X53458949Y-45950561D01*
X53463789Y-45941875D01*
X53468839Y-45933310D01*
X53474096Y-45924870D01*
X53479554Y-45916558D01*
X53485207Y-45908376D01*
X53491050Y-45900327D01*
X53497077Y-45892413D01*
X53503284Y-45884638D01*
X53509664Y-45877004D01*
X53516212Y-45869514D01*
X53522923Y-45862171D01*
X53529792Y-45854976D01*
X53536986Y-45848118D01*
X53544330Y-45841437D01*
X53551820Y-45834934D01*
X53559454Y-45828613D01*
X53567229Y-45822477D01*
X53575142Y-45816527D01*
X53583191Y-45810768D01*
X53591373Y-45805202D01*
X53599686Y-45799830D01*
X53608125Y-45794657D01*
X53616690Y-45789684D01*
X53625376Y-45784915D01*
X53634182Y-45780352D01*
X53643105Y-45775999D01*
X53652142Y-45771856D01*
X53661289Y-45767928D01*
X53670534Y-45764217D01*
X53679861Y-45760726D01*
X53689263Y-45757457D01*
X53698736Y-45754413D01*
X53708274Y-45751598D01*
X53717872Y-45749013D01*
X53727524Y-45746661D01*
X53737225Y-45744545D01*
X53746969Y-45742668D01*
X53756752Y-45741033D01*
X53766566Y-45739641D01*
X53776408Y-45738497D01*
X53786272Y-45737602D01*
X53796152Y-45736960D01*
X53806042Y-45736572D01*
X53815939Y-45736442D01*
X53825998Y-45736572D01*
G37*
G36*
X53247781Y-39992268D02*
G01*
X53253765Y-39992663D01*
X53259730Y-39993326D01*
X53265666Y-39994258D01*
X53271564Y-39995458D01*
X53277414Y-39996927D01*
X53283206Y-39998663D01*
X53288931Y-40000668D01*
X53294579Y-40002941D01*
X53300140Y-40005483D01*
X53305605Y-40008293D01*
X53310964Y-40011371D01*
X53316207Y-40014718D01*
X53321325Y-40018333D01*
X53326308Y-40022217D01*
X53331146Y-40026368D01*
X56934828Y-43269431D01*
X56934827Y-43269440D01*
X56942911Y-43277301D01*
X56950139Y-43285525D01*
X56956526Y-43294073D01*
X56962089Y-43302904D01*
X56966843Y-43311978D01*
X56970802Y-43321255D01*
X56973983Y-43330695D01*
X56976401Y-43340257D01*
X56978071Y-43349902D01*
X56979009Y-43359588D01*
X56979230Y-43369276D01*
X56978750Y-43378926D01*
X56977583Y-43388498D01*
X56975747Y-43397950D01*
X56973255Y-43407243D01*
X56970123Y-43416337D01*
X56966368Y-43425192D01*
X56962003Y-43433767D01*
X56957045Y-43442021D01*
X56951509Y-43449916D01*
X56945411Y-43457410D01*
X56938766Y-43464464D01*
X56931589Y-43471036D01*
X56923896Y-43477088D01*
X56915702Y-43482578D01*
X56907023Y-43487467D01*
X56897874Y-43491714D01*
X56888271Y-43495279D01*
X56878229Y-43498121D01*
X56867763Y-43500202D01*
X56856889Y-43501479D01*
X56845622Y-43501914D01*
X55834643Y-43501914D01*
X55834584Y-43501665D01*
X55834515Y-43501379D01*
X55834421Y-43501007D01*
X55618144Y-43501007D01*
X55613246Y-43500917D01*
X55608382Y-43500649D01*
X55603556Y-43500206D01*
X55598771Y-43499590D01*
X55594031Y-43498805D01*
X55589339Y-43497851D01*
X55584700Y-43496732D01*
X55580118Y-43495451D01*
X55575595Y-43494010D01*
X55571136Y-43492411D01*
X55566744Y-43490658D01*
X55562423Y-43488752D01*
X55558177Y-43486696D01*
X55554010Y-43484493D01*
X55549925Y-43482145D01*
X55545925Y-43479656D01*
X55542015Y-43477026D01*
X55538198Y-43474260D01*
X55534479Y-43471359D01*
X55530860Y-43468326D01*
X55527345Y-43465164D01*
X55523939Y-43461875D01*
X55520644Y-43458462D01*
X55517465Y-43454927D01*
X55514406Y-43451272D01*
X55511469Y-43447502D01*
X55508659Y-43443617D01*
X55505979Y-43439620D01*
X55503434Y-43435515D01*
X55501026Y-43431303D01*
X55498760Y-43426988D01*
X55496639Y-43422571D01*
X55480963Y-43389872D01*
X55463035Y-43355713D01*
X55442768Y-43320586D01*
X55420073Y-43284984D01*
X55394861Y-43249400D01*
X55367045Y-43214325D01*
X55336536Y-43180253D01*
X55303246Y-43147677D01*
X55267086Y-43117088D01*
X55247902Y-43102692D01*
X55227968Y-43088979D01*
X55207272Y-43076009D01*
X55185804Y-43063843D01*
X55163552Y-43052544D01*
X55140505Y-43042173D01*
X55116652Y-43032792D01*
X55091983Y-43024461D01*
X55066486Y-43017243D01*
X55040150Y-43011200D01*
X55012964Y-43006392D01*
X54984918Y-43002882D01*
X54955999Y-43000730D01*
X54926197Y-43000000D01*
X52750000Y-43000000D01*
X52706696Y-43001061D01*
X52664892Y-43004205D01*
X52624579Y-43009374D01*
X52585750Y-43016510D01*
X52548397Y-43025554D01*
X52512510Y-43036448D01*
X52478082Y-43049133D01*
X52445105Y-43063551D01*
X52413570Y-43079644D01*
X52383470Y-43097353D01*
X52354796Y-43116620D01*
X52327539Y-43137386D01*
X52301692Y-43159593D01*
X52277246Y-43183184D01*
X52254194Y-43208098D01*
X52232527Y-43234279D01*
X52212236Y-43261667D01*
X52193314Y-43290205D01*
X52175752Y-43319833D01*
X52159543Y-43350494D01*
X52144677Y-43382129D01*
X52131147Y-43414679D01*
X52108062Y-43482294D01*
X52090220Y-43552872D01*
X52077558Y-43625944D01*
X52070009Y-43701046D01*
X52067507Y-43777708D01*
X52083315Y-46526366D01*
X52083185Y-46533228D01*
X52082714Y-46540003D01*
X52081909Y-46546681D01*
X52080778Y-46553254D01*
X52079331Y-46559715D01*
X52077574Y-46566053D01*
X52075518Y-46572262D01*
X52073169Y-46578332D01*
X52070537Y-46584255D01*
X52067629Y-46590023D01*
X52064454Y-46595627D01*
X52061021Y-46601058D01*
X52057337Y-46606309D01*
X52053411Y-46611372D01*
X52049251Y-46616236D01*
X52044865Y-46620895D01*
X52040263Y-46625339D01*
X52035451Y-46629561D01*
X52030440Y-46633551D01*
X52025235Y-46637302D01*
X52019848Y-46640804D01*
X52014284Y-46644050D01*
X52008553Y-46647031D01*
X52002664Y-46649739D01*
X51996624Y-46652165D01*
X51990441Y-46654301D01*
X51984125Y-46656138D01*
X51977683Y-46657668D01*
X51971124Y-46658883D01*
X51964456Y-46659774D01*
X51957687Y-46660332D01*
X51950826Y-46660549D01*
X51500779Y-46663448D01*
X51500774Y-46663067D01*
X51500771Y-46662648D01*
X51500770Y-46661771D01*
X50627614Y-46662392D01*
X50620749Y-46662223D01*
X50613973Y-46661713D01*
X50607295Y-46660869D01*
X50600725Y-46659700D01*
X50594269Y-46658214D01*
X50587937Y-46656421D01*
X50581738Y-46654327D01*
X50575678Y-46651941D01*
X50569767Y-46649273D01*
X50564014Y-46646329D01*
X50558425Y-46643120D01*
X50553011Y-46639652D01*
X50547779Y-46635935D01*
X50542738Y-46631976D01*
X50537896Y-46627785D01*
X50533261Y-46623369D01*
X50528842Y-46618738D01*
X50524648Y-46613898D01*
X50520686Y-46608860D01*
X50516965Y-46603630D01*
X50513494Y-46598218D01*
X50510280Y-46592632D01*
X50507333Y-46586880D01*
X50504660Y-46580971D01*
X50502270Y-46574913D01*
X50500172Y-46568715D01*
X50498374Y-46562384D01*
X50496883Y-46555930D01*
X50495710Y-46549360D01*
X50494861Y-46542683D01*
X50494345Y-46535908D01*
X50494172Y-46529042D01*
X50494172Y-43635254D01*
X50493998Y-43628392D01*
X50493483Y-43621620D01*
X50492635Y-43614946D01*
X50491463Y-43608380D01*
X50489974Y-43601928D01*
X50488177Y-43595600D01*
X50486080Y-43589404D01*
X50483693Y-43583348D01*
X50481022Y-43577441D01*
X50478077Y-43571692D01*
X50474866Y-43566107D01*
X50471398Y-43560697D01*
X50467680Y-43555469D01*
X50463721Y-43550431D01*
X50459530Y-43545593D01*
X50455115Y-43540961D01*
X50450484Y-43536546D01*
X50445645Y-43532355D01*
X50440608Y-43528396D01*
X50435379Y-43524678D01*
X50429969Y-43521210D01*
X50424385Y-43517999D01*
X50418635Y-43515054D01*
X50412728Y-43512384D01*
X50406672Y-43509996D01*
X50400476Y-43507900D01*
X50394148Y-43506103D01*
X50387697Y-43504614D01*
X50381130Y-43503441D01*
X50374456Y-43502593D01*
X50367684Y-43502078D01*
X50360822Y-43501905D01*
X49655150Y-43501905D01*
X49643897Y-43501471D01*
X49633036Y-43500196D01*
X49622581Y-43498119D01*
X49612549Y-43495282D01*
X49602954Y-43491724D01*
X49593812Y-43487485D01*
X49585138Y-43482606D01*
X49576949Y-43477126D01*
X49569259Y-43471085D01*
X49562083Y-43464524D01*
X49555438Y-43457482D01*
X49549339Y-43450001D01*
X49543800Y-43442119D01*
X49538839Y-43433877D01*
X49534469Y-43425314D01*
X49530706Y-43416472D01*
X49527567Y-43407391D01*
X49525066Y-43398109D01*
X49523218Y-43388668D01*
X49522040Y-43379107D01*
X49521546Y-43369467D01*
X49521752Y-43359787D01*
X49522674Y-43350108D01*
X49524327Y-43340470D01*
X49526726Y-43330913D01*
X49529886Y-43321477D01*
X49533824Y-43312201D01*
X49538555Y-43303127D01*
X49544094Y-43294294D01*
X49550456Y-43285743D01*
X49557657Y-43277513D01*
X49565713Y-43269644D01*
X53152513Y-40026581D01*
X53157341Y-40022418D01*
X53162315Y-40018523D01*
X53167424Y-40014895D01*
X53172659Y-40011536D01*
X53178010Y-40008445D01*
X53183468Y-40005622D01*
X53189023Y-40003067D01*
X53194666Y-40000781D01*
X53200386Y-39998762D01*
X53206174Y-39997012D01*
X53212020Y-39995529D01*
X53217915Y-39994315D01*
X53223849Y-39993369D01*
X53229812Y-39992692D01*
X53235795Y-39992282D01*
X53241788Y-39992141D01*
X53247781Y-39992268D01*
G37*
G36*
X54837998Y-43307555D02*
G01*
X54847889Y-43307913D01*
X54857769Y-43308510D01*
X54867632Y-43309346D01*
X54877474Y-43310420D01*
X54887289Y-43311733D01*
X54897071Y-43313285D01*
X54906815Y-43315076D01*
X54916516Y-43317105D01*
X54926168Y-43319373D01*
X54935766Y-43321880D01*
X54945304Y-43324625D01*
X54954777Y-43327610D01*
X54964179Y-43330833D01*
X54973506Y-43334295D01*
X54982751Y-43337995D01*
X54991899Y-43341924D01*
X55000935Y-43346067D01*
X55009858Y-43350426D01*
X55018664Y-43354997D01*
X55027351Y-43359780D01*
X55035915Y-43364773D01*
X55044355Y-43369975D01*
X55052667Y-43375384D01*
X55060849Y-43381000D01*
X55068898Y-43386821D01*
X55076812Y-43392845D01*
X55084587Y-43399071D01*
X55092221Y-43405498D01*
X55099711Y-43412124D01*
X55107054Y-43418948D01*
X55114249Y-43425969D01*
X55121270Y-43433163D01*
X55128094Y-43440507D01*
X55134720Y-43447997D01*
X55141147Y-43455631D01*
X55147373Y-43463406D01*
X55153398Y-43471320D01*
X55159218Y-43479369D01*
X55164834Y-43487551D01*
X55170243Y-43495863D01*
X55175445Y-43504303D01*
X55180438Y-43512867D01*
X55185221Y-43521554D01*
X55189792Y-43530360D01*
X55194151Y-43539283D01*
X55198295Y-43548319D01*
X55202223Y-43557467D01*
X55205923Y-43566712D01*
X55209385Y-43576038D01*
X55212608Y-43585441D01*
X55215592Y-43594914D01*
X55218338Y-43604452D01*
X55220845Y-43614050D01*
X55223113Y-43623702D01*
X55225142Y-43633402D01*
X55226933Y-43643147D01*
X55228484Y-43652929D01*
X55229798Y-43662744D01*
X55230872Y-43672586D01*
X55231707Y-43682449D01*
X55232304Y-43692329D01*
X55232662Y-43702220D01*
X55232782Y-43712116D01*
X55232782Y-46950484D01*
X55232662Y-46960543D01*
X55232304Y-46970576D01*
X55231707Y-46980580D01*
X55230872Y-46990550D01*
X55229798Y-47000481D01*
X55228484Y-47010371D01*
X55226933Y-47020214D01*
X55225142Y-47030008D01*
X55223113Y-47039747D01*
X55220845Y-47049427D01*
X55218338Y-47059046D01*
X55215592Y-47068597D01*
X55212608Y-47078079D01*
X55209385Y-47087485D01*
X55205923Y-47096813D01*
X55202223Y-47106059D01*
X55198295Y-47115206D01*
X55194151Y-47124241D01*
X55189792Y-47133160D01*
X55185221Y-47141957D01*
X55180438Y-47150630D01*
X55175445Y-47159174D01*
X55170243Y-47167585D01*
X55164834Y-47175859D01*
X55159218Y-47183992D01*
X55153398Y-47191980D01*
X55147373Y-47199818D01*
X55141147Y-47207503D01*
X55134720Y-47215031D01*
X55128094Y-47222398D01*
X55121270Y-47229599D01*
X55114249Y-47236630D01*
X55107054Y-47243651D01*
X55099711Y-47250476D01*
X55092220Y-47257102D01*
X55084586Y-47263529D01*
X55076811Y-47269755D01*
X55068898Y-47275779D01*
X55060849Y-47281600D01*
X55052667Y-47287215D01*
X55044355Y-47292625D01*
X55035915Y-47297827D01*
X55027350Y-47302820D01*
X55018664Y-47307603D01*
X55009858Y-47312174D01*
X55000935Y-47316532D01*
X54991899Y-47320676D01*
X54982751Y-47324605D01*
X54973506Y-47328305D01*
X54964179Y-47331767D01*
X54954777Y-47334990D01*
X54945304Y-47337974D01*
X54935766Y-47340720D01*
X54926168Y-47343227D01*
X54916516Y-47345495D01*
X54906815Y-47347524D01*
X54897071Y-47349315D01*
X54887289Y-47350866D01*
X54877474Y-47352180D01*
X54867632Y-47353254D01*
X54857769Y-47354090D01*
X54847889Y-47354686D01*
X54837998Y-47355045D01*
X54828102Y-47355164D01*
X52803775Y-47355164D01*
X52793879Y-47355045D01*
X52783988Y-47354686D01*
X52774108Y-47354090D01*
X52764244Y-47353254D01*
X52754402Y-47352180D01*
X52744588Y-47350866D01*
X52734805Y-47349315D01*
X52725061Y-47347524D01*
X52715360Y-47345495D01*
X52705708Y-47343227D01*
X52696110Y-47340720D01*
X52686572Y-47337974D01*
X52677099Y-47334990D01*
X52667697Y-47331767D01*
X52658371Y-47328305D01*
X52649126Y-47324605D01*
X52639978Y-47320676D01*
X52630941Y-47316532D01*
X52622018Y-47312174D01*
X52613212Y-47307603D01*
X52604526Y-47302820D01*
X52595961Y-47297827D01*
X52587521Y-47292625D01*
X52579209Y-47287215D01*
X52571027Y-47281600D01*
X52562978Y-47275779D01*
X52555065Y-47269755D01*
X52547290Y-47263529D01*
X52539656Y-47257102D01*
X52532166Y-47250476D01*
X52524822Y-47243651D01*
X52517627Y-47236630D01*
X52510606Y-47229599D01*
X52503782Y-47222398D01*
X52497156Y-47215031D01*
X52490729Y-47207503D01*
X52484503Y-47199818D01*
X52478479Y-47191980D01*
X52472658Y-47183992D01*
X52467042Y-47175859D01*
X52461633Y-47167585D01*
X52456431Y-47159174D01*
X52451438Y-47150630D01*
X52446655Y-47141957D01*
X52442084Y-47133160D01*
X52437726Y-47124241D01*
X52433582Y-47115206D01*
X52429653Y-47106059D01*
X52425953Y-47096813D01*
X52422491Y-47087485D01*
X52419268Y-47078079D01*
X52416284Y-47068597D01*
X52413538Y-47059046D01*
X52411032Y-47049427D01*
X52408764Y-47039747D01*
X52406734Y-47030008D01*
X52404944Y-47020214D01*
X52403392Y-47010371D01*
X52402079Y-47000481D01*
X52401004Y-46990550D01*
X52400169Y-46980580D01*
X52399572Y-46970576D01*
X52399214Y-46960543D01*
X52399094Y-46950484D01*
X52399094Y-46142049D01*
X53006578Y-46142049D01*
X53006827Y-46161842D01*
X53007573Y-46181623D01*
X53008812Y-46201383D01*
X53010543Y-46221110D01*
X53012761Y-46240794D01*
X53015466Y-46260424D01*
X53018653Y-46279988D01*
X53022321Y-46299476D01*
X53026466Y-46318878D01*
X53031086Y-46338182D01*
X53036178Y-46357378D01*
X53041739Y-46376454D01*
X53047767Y-46395400D01*
X53054258Y-46414204D01*
X53061211Y-46432857D01*
X53068623Y-46451347D01*
X53076327Y-46469653D01*
X53084499Y-46487754D01*
X53093134Y-46505641D01*
X53102221Y-46523304D01*
X53111753Y-46540733D01*
X53121722Y-46557920D01*
X53132119Y-46574854D01*
X53142938Y-46591527D01*
X53154168Y-46607928D01*
X53165803Y-46624049D01*
X53177834Y-46639879D01*
X53190252Y-46655409D01*
X53203051Y-46670630D01*
X53216221Y-46685533D01*
X53229755Y-46700107D01*
X53243645Y-46714343D01*
X53257881Y-46728222D01*
X53272455Y-46741729D01*
X53287357Y-46754857D01*
X53302578Y-46767605D01*
X53318109Y-46779968D01*
X53333939Y-46791941D01*
X53350060Y-46803521D01*
X53366461Y-46814703D01*
X53383133Y-46825484D01*
X53400068Y-46835859D01*
X53417255Y-46845825D01*
X53434684Y-46855377D01*
X53452347Y-46864511D01*
X53470234Y-46873223D01*
X53488335Y-46881509D01*
X53506640Y-46889365D01*
X53525120Y-46896777D01*
X53543745Y-46903730D01*
X53562509Y-46910222D01*
X53581404Y-46916250D01*
X53600424Y-46921811D01*
X53619561Y-46926903D01*
X53638810Y-46931523D01*
X53658164Y-46935668D01*
X53677615Y-46939335D01*
X53697157Y-46942523D01*
X53716783Y-46945227D01*
X53736487Y-46947446D01*
X53756261Y-46949176D01*
X53776099Y-46950416D01*
X53795993Y-46951161D01*
X53815938Y-46951410D01*
X53835894Y-46951161D01*
X53855818Y-46950416D01*
X53875701Y-46949176D01*
X53895535Y-46947446D01*
X53915308Y-46945227D01*
X53935013Y-46942523D01*
X53954638Y-46939335D01*
X53974176Y-46935668D01*
X53993616Y-46931523D01*
X54012948Y-46926903D01*
X54032164Y-46921811D01*
X54051254Y-46916250D01*
X54070208Y-46910222D01*
X54089017Y-46903730D01*
X54107672Y-46896777D01*
X54126162Y-46889365D01*
X54144457Y-46881509D01*
X54162529Y-46873223D01*
X54180370Y-46864511D01*
X54197974Y-46855377D01*
X54215333Y-46845825D01*
X54232442Y-46835859D01*
X54249292Y-46825484D01*
X54265879Y-46814703D01*
X54282194Y-46803521D01*
X54298230Y-46791941D01*
X54313982Y-46779968D01*
X54329443Y-46767605D01*
X54344605Y-46754857D01*
X54359461Y-46741728D01*
X54374006Y-46728222D01*
X54388232Y-46714343D01*
X54402274Y-46700107D01*
X54415923Y-46685533D01*
X54429176Y-46670630D01*
X54442029Y-46655409D01*
X54454482Y-46639879D01*
X54466530Y-46624048D01*
X54478171Y-46607928D01*
X54489402Y-46591527D01*
X54500221Y-46574854D01*
X54510625Y-46557920D01*
X54520611Y-46540733D01*
X54530177Y-46523303D01*
X54539319Y-46505641D01*
X54548036Y-46487754D01*
X54556324Y-46469653D01*
X54564180Y-46451347D01*
X54571592Y-46432857D01*
X54578545Y-46414204D01*
X54585036Y-46395399D01*
X54591064Y-46376453D01*
X54596625Y-46357377D01*
X54601717Y-46338182D01*
X54606337Y-46318878D01*
X54610482Y-46299476D01*
X54614150Y-46279988D01*
X54617337Y-46260423D01*
X54620041Y-46240794D01*
X54622260Y-46221110D01*
X54623991Y-46201383D01*
X54625230Y-46181623D01*
X54625976Y-46161842D01*
X54626225Y-46142049D01*
X54625976Y-46122094D01*
X54625230Y-46102170D01*
X54623991Y-46082286D01*
X54622260Y-46062453D01*
X54620041Y-46042680D01*
X54617337Y-46022975D01*
X54614150Y-46003349D01*
X54610482Y-45983812D01*
X54606337Y-45964372D01*
X54601717Y-45945039D01*
X54596625Y-45925823D01*
X54591064Y-45906733D01*
X54585036Y-45887779D01*
X54578545Y-45868970D01*
X54571592Y-45850316D01*
X54564180Y-45831825D01*
X54556324Y-45813530D01*
X54548036Y-45795456D01*
X54539319Y-45777611D01*
X54530177Y-45759999D01*
X54520611Y-45742626D01*
X54510625Y-45725497D01*
X54500221Y-45708617D01*
X54489402Y-45691993D01*
X54478171Y-45675629D01*
X54466530Y-45659531D01*
X54454482Y-45643704D01*
X54442029Y-45628154D01*
X54429176Y-45612886D01*
X54415923Y-45597906D01*
X54402274Y-45583218D01*
X54388232Y-45568829D01*
X54374006Y-45554950D01*
X54359461Y-45541444D01*
X54344605Y-45528315D01*
X54329443Y-45515567D01*
X54313983Y-45503205D01*
X54298231Y-45491231D01*
X54282194Y-45479652D01*
X54265879Y-45468469D01*
X54249293Y-45457688D01*
X54232442Y-45447313D01*
X54215333Y-45437348D01*
X54197974Y-45427796D01*
X54180370Y-45418662D01*
X54162529Y-45409949D01*
X54144458Y-45401663D01*
X54126162Y-45393807D01*
X54107672Y-45386395D01*
X54089017Y-45379442D01*
X54070208Y-45372951D01*
X54051254Y-45366923D01*
X54032164Y-45361361D01*
X54012948Y-45356270D01*
X53993615Y-45351650D01*
X53974176Y-45347505D01*
X53954638Y-45343837D01*
X53935012Y-45340650D01*
X53915308Y-45337946D01*
X53895535Y-45335727D01*
X53875701Y-45333996D01*
X53855818Y-45332757D01*
X53835894Y-45332011D01*
X53815938Y-45331762D01*
X53795993Y-45332011D01*
X53776099Y-45332757D01*
X53756261Y-45333996D01*
X53736487Y-45335727D01*
X53716783Y-45337946D01*
X53697157Y-45340650D01*
X53677615Y-45343837D01*
X53658164Y-45347505D01*
X53638810Y-45351650D01*
X53619561Y-45356270D01*
X53600424Y-45361361D01*
X53581404Y-45366923D01*
X53562509Y-45372951D01*
X53543745Y-45379442D01*
X53525120Y-45386395D01*
X53506640Y-45393807D01*
X53488335Y-45401663D01*
X53470234Y-45409949D01*
X53452347Y-45418662D01*
X53434684Y-45427796D01*
X53417255Y-45437348D01*
X53400068Y-45447313D01*
X53383133Y-45457689D01*
X53366461Y-45468469D01*
X53350060Y-45479652D01*
X53333939Y-45491232D01*
X53318109Y-45503205D01*
X53302578Y-45515567D01*
X53287357Y-45528315D01*
X53272455Y-45541444D01*
X53257881Y-45554950D01*
X53243645Y-45568829D01*
X53229755Y-45583218D01*
X53216221Y-45597906D01*
X53203051Y-45612886D01*
X53190252Y-45628154D01*
X53177834Y-45643704D01*
X53165803Y-45659531D01*
X53154168Y-45675629D01*
X53142938Y-45691993D01*
X53132119Y-45708618D01*
X53121722Y-45725497D01*
X53111753Y-45742626D01*
X53102221Y-45759999D01*
X53093134Y-45777611D01*
X53084499Y-45795457D01*
X53076327Y-45813530D01*
X53068623Y-45831825D01*
X53061211Y-45850316D01*
X53054258Y-45868970D01*
X53047767Y-45887779D01*
X53041739Y-45906733D01*
X53036177Y-45925823D01*
X53031086Y-45945039D01*
X53026466Y-45964372D01*
X53022321Y-45983812D01*
X53018653Y-46003349D01*
X53015466Y-46022975D01*
X53012761Y-46042679D01*
X53010543Y-46062453D01*
X53008812Y-46082286D01*
X53007573Y-46102170D01*
X53006827Y-46122094D01*
X53006578Y-46142049D01*
X52399094Y-46142049D01*
X52399094Y-44793732D01*
X52399094Y-43845466D01*
X52803775Y-43845466D01*
X52803775Y-44793732D01*
X52803948Y-44800595D01*
X52804463Y-44807367D01*
X52805311Y-44814040D01*
X52806484Y-44820607D01*
X52807973Y-44827059D01*
X52809770Y-44833387D01*
X52811866Y-44839583D01*
X52814254Y-44845638D01*
X52816924Y-44851545D01*
X52819869Y-44857295D01*
X52823080Y-44862879D01*
X52826549Y-44868290D01*
X52830266Y-44873518D01*
X52834225Y-44878556D01*
X52838416Y-44883394D01*
X52842832Y-44888025D01*
X52847463Y-44892441D01*
X52852301Y-44896632D01*
X52857339Y-44900591D01*
X52862567Y-44904308D01*
X52867977Y-44907777D01*
X52873562Y-44910988D01*
X52879311Y-44913933D01*
X52885218Y-44916603D01*
X52891274Y-44918991D01*
X52897470Y-44921087D01*
X52903798Y-44922884D01*
X52910250Y-44924373D01*
X52916817Y-44925546D01*
X52923490Y-44926394D01*
X52930262Y-44926909D01*
X52937125Y-44927082D01*
X54694751Y-44927082D01*
X54701614Y-44926909D01*
X54708386Y-44926394D01*
X54715059Y-44925546D01*
X54721626Y-44924373D01*
X54728078Y-44922884D01*
X54734406Y-44921087D01*
X54740602Y-44918991D01*
X54746658Y-44916603D01*
X54752565Y-44913933D01*
X54758314Y-44910988D01*
X54763899Y-44907777D01*
X54769309Y-44904308D01*
X54774537Y-44900591D01*
X54779575Y-44896632D01*
X54784413Y-44892441D01*
X54789045Y-44888025D01*
X54793460Y-44883394D01*
X54797651Y-44878556D01*
X54801610Y-44873518D01*
X54805328Y-44868290D01*
X54808796Y-44862879D01*
X54812007Y-44857295D01*
X54814952Y-44851545D01*
X54817622Y-44845638D01*
X54820010Y-44839583D01*
X54822107Y-44833387D01*
X54823904Y-44827059D01*
X54825393Y-44820607D01*
X54826565Y-44814040D01*
X54827413Y-44807367D01*
X54827928Y-44800595D01*
X54828102Y-44793732D01*
X54828102Y-43845466D01*
X54827928Y-43838603D01*
X54827413Y-43831831D01*
X54826565Y-43825158D01*
X54825393Y-43818591D01*
X54823904Y-43812139D01*
X54822107Y-43805811D01*
X54820010Y-43799615D01*
X54817622Y-43793559D01*
X54814952Y-43787653D01*
X54812007Y-43781903D01*
X54808796Y-43776318D01*
X54805328Y-43770908D01*
X54801610Y-43765680D01*
X54797651Y-43760642D01*
X54793460Y-43755804D01*
X54789045Y-43751173D01*
X54784413Y-43746757D01*
X54779575Y-43742566D01*
X54774537Y-43738607D01*
X54769309Y-43734890D01*
X54763899Y-43731421D01*
X54758314Y-43728210D01*
X54752565Y-43725265D01*
X54746658Y-43722595D01*
X54740602Y-43720207D01*
X54734406Y-43718111D01*
X54728078Y-43716314D01*
X54721626Y-43714825D01*
X54715059Y-43713652D01*
X54708386Y-43712804D01*
X54701614Y-43712289D01*
X54694751Y-43712116D01*
X52937125Y-43712116D01*
X52930262Y-43712289D01*
X52923490Y-43712804D01*
X52916817Y-43713652D01*
X52910250Y-43714825D01*
X52903798Y-43716314D01*
X52897470Y-43718111D01*
X52891274Y-43720207D01*
X52885218Y-43722595D01*
X52879311Y-43725265D01*
X52873562Y-43728210D01*
X52867977Y-43731421D01*
X52862567Y-43734890D01*
X52857339Y-43738607D01*
X52852301Y-43742566D01*
X52847463Y-43746757D01*
X52842832Y-43751173D01*
X52838416Y-43755804D01*
X52834225Y-43760642D01*
X52830266Y-43765680D01*
X52826549Y-43770908D01*
X52823080Y-43776318D01*
X52819869Y-43781903D01*
X52816924Y-43787653D01*
X52814254Y-43793559D01*
X52811866Y-43799615D01*
X52809770Y-43805811D01*
X52807973Y-43812139D01*
X52806484Y-43818591D01*
X52805311Y-43825158D01*
X52804463Y-43831831D01*
X52803948Y-43838603D01*
X52803775Y-43845466D01*
X52399094Y-43845466D01*
X52399094Y-43712116D01*
X52399214Y-43702220D01*
X52399572Y-43692329D01*
X52400169Y-43682449D01*
X52401004Y-43672586D01*
X52402079Y-43662744D01*
X52403392Y-43652929D01*
X52404944Y-43643147D01*
X52406734Y-43633403D01*
X52408763Y-43623702D01*
X52411031Y-43614050D01*
X52413538Y-43604452D01*
X52416284Y-43594914D01*
X52419268Y-43585441D01*
X52422491Y-43576039D01*
X52425953Y-43566712D01*
X52429653Y-43557467D01*
X52433582Y-43548319D01*
X52437726Y-43539283D01*
X52442084Y-43530360D01*
X52446655Y-43521554D01*
X52451438Y-43512867D01*
X52456431Y-43504303D01*
X52461633Y-43495863D01*
X52467043Y-43487551D01*
X52472658Y-43479369D01*
X52478479Y-43471320D01*
X52484503Y-43463407D01*
X52490729Y-43455632D01*
X52497156Y-43447998D01*
X52503782Y-43440507D01*
X52510606Y-43433164D01*
X52517627Y-43425969D01*
X52524822Y-43418948D01*
X52532166Y-43412124D01*
X52539656Y-43405498D01*
X52547290Y-43399071D01*
X52555065Y-43392844D01*
X52562978Y-43386820D01*
X52571027Y-43381000D01*
X52579209Y-43375384D01*
X52587521Y-43369975D01*
X52595961Y-43364773D01*
X52604526Y-43359780D01*
X52613212Y-43354997D01*
X52622018Y-43350426D01*
X52630941Y-43346067D01*
X52639978Y-43341924D01*
X52649126Y-43337995D01*
X52658371Y-43334295D01*
X52667697Y-43330833D01*
X52677099Y-43327610D01*
X52686572Y-43324626D01*
X52696110Y-43321880D01*
X52705708Y-43319373D01*
X52715360Y-43317105D01*
X52725061Y-43315076D01*
X52734805Y-43313285D01*
X52744588Y-43311733D01*
X52754402Y-43310420D01*
X52764244Y-43309346D01*
X52774108Y-43308510D01*
X52783988Y-43307914D01*
X52793879Y-43307555D01*
X52803775Y-43307436D01*
X54828102Y-43307436D01*
X54837998Y-43307555D01*
G37*
D11*
X52750000Y-34800000D02*
X53950000Y-34800000D01*
X54500000Y-31575000D02*
G75*
G02*
X52200000Y-31575000I-1150000J0D01*
G01*
X52200000Y-31575000D02*
G75*
G02*
X54500000Y-31575000I1150000J0D01*
G01*
D12*
X53350000Y-33500000D02*
X53350000Y-33800000D01*
D11*
X53350000Y-34550000D02*
X53350000Y-34800000D01*
X54200000Y-33700000D02*
G75*
G02*
X52500000Y-33700000I-850000J0D01*
G01*
D13*
X45343571Y-139775472D02*
X45272142Y-139737377D01*
X45272142Y-139737377D02*
X45236428Y-139699281D01*
X45236428Y-139699281D02*
X45200714Y-139623091D01*
X45200714Y-139623091D02*
X45200714Y-139584996D01*
X45200714Y-139584996D02*
X45236428Y-139508805D01*
X45236428Y-139508805D02*
X45272142Y-139470710D01*
X45272142Y-139470710D02*
X45343571Y-139432615D01*
X45343571Y-139432615D02*
X45486428Y-139432615D01*
X45486428Y-139432615D02*
X45557857Y-139470710D01*
X45557857Y-139470710D02*
X45593571Y-139508805D01*
X45593571Y-139508805D02*
X45629285Y-139584996D01*
X45629285Y-139584996D02*
X45629285Y-139623091D01*
X45629285Y-139623091D02*
X45593571Y-139699281D01*
X45593571Y-139699281D02*
X45557857Y-139737377D01*
X45557857Y-139737377D02*
X45486428Y-139775472D01*
X45486428Y-139775472D02*
X45343571Y-139775472D01*
X45343571Y-139775472D02*
X45272142Y-139813567D01*
X45272142Y-139813567D02*
X45236428Y-139851662D01*
X45236428Y-139851662D02*
X45200714Y-139927853D01*
X45200714Y-139927853D02*
X45200714Y-140080234D01*
X45200714Y-140080234D02*
X45236428Y-140156424D01*
X45236428Y-140156424D02*
X45272142Y-140194520D01*
X45272142Y-140194520D02*
X45343571Y-140232615D01*
X45343571Y-140232615D02*
X45486428Y-140232615D01*
X45486428Y-140232615D02*
X45557857Y-140194520D01*
X45557857Y-140194520D02*
X45593571Y-140156424D01*
X45593571Y-140156424D02*
X45629285Y-140080234D01*
X45629285Y-140080234D02*
X45629285Y-139927853D01*
X45629285Y-139927853D02*
X45593571Y-139851662D01*
X45593571Y-139851662D02*
X45557857Y-139813567D01*
X45557857Y-139813567D02*
X45486428Y-139775472D01*
X45272142Y-142808525D02*
X45414999Y-142808525D01*
X45414999Y-142808525D02*
X45486428Y-142770430D01*
X45486428Y-142770430D02*
X45522142Y-142732334D01*
X45522142Y-142732334D02*
X45593571Y-142618049D01*
X45593571Y-142618049D02*
X45629285Y-142465668D01*
X45629285Y-142465668D02*
X45629285Y-142160906D01*
X45629285Y-142160906D02*
X45593571Y-142084715D01*
X45593571Y-142084715D02*
X45557857Y-142046620D01*
X45557857Y-142046620D02*
X45486428Y-142008525D01*
X45486428Y-142008525D02*
X45343571Y-142008525D01*
X45343571Y-142008525D02*
X45272142Y-142046620D01*
X45272142Y-142046620D02*
X45236428Y-142084715D01*
X45236428Y-142084715D02*
X45200714Y-142160906D01*
X45200714Y-142160906D02*
X45200714Y-142351382D01*
X45200714Y-142351382D02*
X45236428Y-142427572D01*
X45236428Y-142427572D02*
X45272142Y-142465668D01*
X45272142Y-142465668D02*
X45343571Y-142503763D01*
X45343571Y-142503763D02*
X45486428Y-142503763D01*
X45486428Y-142503763D02*
X45557857Y-142465668D01*
X45557857Y-142465668D02*
X45593571Y-142427572D01*
X45593571Y-142427572D02*
X45629285Y-142351382D01*
X45272142Y-145384435D02*
X44843571Y-145384435D01*
X45057856Y-145384435D02*
X45057856Y-144584435D01*
X45057856Y-144584435D02*
X44986428Y-144698720D01*
X44986428Y-144698720D02*
X44914999Y-144774911D01*
X44914999Y-144774911D02*
X44843571Y-144813006D01*
X45736428Y-144584435D02*
X45807857Y-144584435D01*
X45807857Y-144584435D02*
X45879285Y-144622530D01*
X45879285Y-144622530D02*
X45915000Y-144660625D01*
X45915000Y-144660625D02*
X45950714Y-144736816D01*
X45950714Y-144736816D02*
X45986428Y-144889197D01*
X45986428Y-144889197D02*
X45986428Y-145079673D01*
X45986428Y-145079673D02*
X45950714Y-145232054D01*
X45950714Y-145232054D02*
X45915000Y-145308244D01*
X45915000Y-145308244D02*
X45879285Y-145346340D01*
X45879285Y-145346340D02*
X45807857Y-145384435D01*
X45807857Y-145384435D02*
X45736428Y-145384435D01*
X45736428Y-145384435D02*
X45665000Y-145346340D01*
X45665000Y-145346340D02*
X45629285Y-145308244D01*
X45629285Y-145308244D02*
X45593571Y-145232054D01*
X45593571Y-145232054D02*
X45557857Y-145079673D01*
X45557857Y-145079673D02*
X45557857Y-144889197D01*
X45557857Y-144889197D02*
X45593571Y-144736816D01*
X45593571Y-144736816D02*
X45629285Y-144660625D01*
X45629285Y-144660625D02*
X45665000Y-144622530D01*
X45665000Y-144622530D02*
X45736428Y-144584435D01*
X45272142Y-147960345D02*
X44843571Y-147960345D01*
X45057856Y-147960345D02*
X45057856Y-147160345D01*
X45057856Y-147160345D02*
X44986428Y-147274630D01*
X44986428Y-147274630D02*
X44914999Y-147350821D01*
X44914999Y-147350821D02*
X44843571Y-147388916D01*
X45986428Y-147960345D02*
X45557857Y-147960345D01*
X45772142Y-147960345D02*
X45772142Y-147160345D01*
X45772142Y-147160345D02*
X45700714Y-147274630D01*
X45700714Y-147274630D02*
X45629285Y-147350821D01*
X45629285Y-147350821D02*
X45557857Y-147388916D01*
X45272142Y-150536255D02*
X44843571Y-150536255D01*
X45057856Y-150536255D02*
X45057856Y-149736255D01*
X45057856Y-149736255D02*
X44986428Y-149850540D01*
X44986428Y-149850540D02*
X44914999Y-149926731D01*
X44914999Y-149926731D02*
X44843571Y-149964826D01*
X45557857Y-149812445D02*
X45593571Y-149774350D01*
X45593571Y-149774350D02*
X45665000Y-149736255D01*
X45665000Y-149736255D02*
X45843571Y-149736255D01*
X45843571Y-149736255D02*
X45915000Y-149774350D01*
X45915000Y-149774350D02*
X45950714Y-149812445D01*
X45950714Y-149812445D02*
X45986428Y-149888636D01*
X45986428Y-149888636D02*
X45986428Y-149964826D01*
X45986428Y-149964826D02*
X45950714Y-150079112D01*
X45950714Y-150079112D02*
X45522142Y-150536255D01*
X45522142Y-150536255D02*
X45986428Y-150536255D01*
X44897144Y-152578831D02*
X44897144Y-153226450D01*
X44897144Y-153226450D02*
X44861429Y-153302641D01*
X44861429Y-153302641D02*
X44825715Y-153340736D01*
X44825715Y-153340736D02*
X44754286Y-153378831D01*
X44754286Y-153378831D02*
X44647144Y-153378831D01*
X44647144Y-153378831D02*
X44575715Y-153340736D01*
X44897144Y-153074070D02*
X44825715Y-153112165D01*
X44825715Y-153112165D02*
X44682858Y-153112165D01*
X44682858Y-153112165D02*
X44611429Y-153074070D01*
X44611429Y-153074070D02*
X44575715Y-153035974D01*
X44575715Y-153035974D02*
X44540001Y-152959784D01*
X44540001Y-152959784D02*
X44540001Y-152731212D01*
X44540001Y-152731212D02*
X44575715Y-152655022D01*
X44575715Y-152655022D02*
X44611429Y-152616927D01*
X44611429Y-152616927D02*
X44682858Y-152578831D01*
X44682858Y-152578831D02*
X44825715Y-152578831D01*
X44825715Y-152578831D02*
X44897144Y-152616927D01*
X45254286Y-152578831D02*
X45254286Y-153112165D01*
X45254286Y-152655022D02*
X45290000Y-152616927D01*
X45290000Y-152616927D02*
X45361429Y-152578831D01*
X45361429Y-152578831D02*
X45468572Y-152578831D01*
X45468572Y-152578831D02*
X45540000Y-152616927D01*
X45540000Y-152616927D02*
X45575715Y-152693117D01*
X45575715Y-152693117D02*
X45575715Y-153112165D01*
X46254286Y-153112165D02*
X46254286Y-152312165D01*
X46254286Y-153074070D02*
X46182857Y-153112165D01*
X46182857Y-153112165D02*
X46040000Y-153112165D01*
X46040000Y-153112165D02*
X45968571Y-153074070D01*
X45968571Y-153074070D02*
X45932857Y-153035974D01*
X45932857Y-153035974D02*
X45897143Y-152959784D01*
X45897143Y-152959784D02*
X45897143Y-152731212D01*
X45897143Y-152731212D02*
X45932857Y-152655022D01*
X45932857Y-152655022D02*
X45968571Y-152616927D01*
X45968571Y-152616927D02*
X46040000Y-152578831D01*
X46040000Y-152578831D02*
X46182857Y-152578831D01*
X46182857Y-152578831D02*
X46254286Y-152616927D01*
X44593571Y-155154741D02*
X44772143Y-155688075D01*
X44772143Y-155688075D02*
X44950714Y-155154741D01*
X45557858Y-155649980D02*
X45486429Y-155688075D01*
X45486429Y-155688075D02*
X45343572Y-155688075D01*
X45343572Y-155688075D02*
X45272143Y-155649980D01*
X45272143Y-155649980D02*
X45236429Y-155611884D01*
X45236429Y-155611884D02*
X45200715Y-155535694D01*
X45200715Y-155535694D02*
X45200715Y-155307122D01*
X45200715Y-155307122D02*
X45236429Y-155230932D01*
X45236429Y-155230932D02*
X45272143Y-155192837D01*
X45272143Y-155192837D02*
X45343572Y-155154741D01*
X45343572Y-155154741D02*
X45486429Y-155154741D01*
X45486429Y-155154741D02*
X45557858Y-155192837D01*
X46200715Y-155649980D02*
X46129286Y-155688075D01*
X46129286Y-155688075D02*
X45986429Y-155688075D01*
X45986429Y-155688075D02*
X45915000Y-155649980D01*
X45915000Y-155649980D02*
X45879286Y-155611884D01*
X45879286Y-155611884D02*
X45843572Y-155535694D01*
X45843572Y-155535694D02*
X45843572Y-155307122D01*
X45843572Y-155307122D02*
X45879286Y-155230932D01*
X45879286Y-155230932D02*
X45915000Y-155192837D01*
X45915000Y-155192837D02*
X45986429Y-155154741D01*
X45986429Y-155154741D02*
X46129286Y-155154741D01*
X46129286Y-155154741D02*
X46200715Y-155192837D01*
X66499999Y-139582615D02*
X66999999Y-139582615D01*
X66999999Y-139582615D02*
X66678571Y-140382615D01*
X66892857Y-142158525D02*
X66749999Y-142158525D01*
X66749999Y-142158525D02*
X66678571Y-142196620D01*
X66678571Y-142196620D02*
X66642857Y-142234715D01*
X66642857Y-142234715D02*
X66571428Y-142349001D01*
X66571428Y-142349001D02*
X66535714Y-142501382D01*
X66535714Y-142501382D02*
X66535714Y-142806144D01*
X66535714Y-142806144D02*
X66571428Y-142882334D01*
X66571428Y-142882334D02*
X66607142Y-142920430D01*
X66607142Y-142920430D02*
X66678571Y-142958525D01*
X66678571Y-142958525D02*
X66821428Y-142958525D01*
X66821428Y-142958525D02*
X66892857Y-142920430D01*
X66892857Y-142920430D02*
X66928571Y-142882334D01*
X66928571Y-142882334D02*
X66964285Y-142806144D01*
X66964285Y-142806144D02*
X66964285Y-142615668D01*
X66964285Y-142615668D02*
X66928571Y-142539477D01*
X66928571Y-142539477D02*
X66892857Y-142501382D01*
X66892857Y-142501382D02*
X66821428Y-142463287D01*
X66821428Y-142463287D02*
X66678571Y-142463287D01*
X66678571Y-142463287D02*
X66607142Y-142501382D01*
X66607142Y-142501382D02*
X66571428Y-142539477D01*
X66571428Y-142539477D02*
X66535714Y-142615668D01*
X66928571Y-144734435D02*
X66571428Y-144734435D01*
X66571428Y-144734435D02*
X66535714Y-145115387D01*
X66535714Y-145115387D02*
X66571428Y-145077292D01*
X66571428Y-145077292D02*
X66642857Y-145039197D01*
X66642857Y-145039197D02*
X66821428Y-145039197D01*
X66821428Y-145039197D02*
X66892857Y-145077292D01*
X66892857Y-145077292D02*
X66928571Y-145115387D01*
X66928571Y-145115387D02*
X66964285Y-145191578D01*
X66964285Y-145191578D02*
X66964285Y-145382054D01*
X66964285Y-145382054D02*
X66928571Y-145458244D01*
X66928571Y-145458244D02*
X66892857Y-145496340D01*
X66892857Y-145496340D02*
X66821428Y-145534435D01*
X66821428Y-145534435D02*
X66642857Y-145534435D01*
X66642857Y-145534435D02*
X66571428Y-145496340D01*
X66571428Y-145496340D02*
X66535714Y-145458244D01*
X66892857Y-147577011D02*
X66892857Y-148110345D01*
X66714285Y-147272250D02*
X66535714Y-147843678D01*
X66535714Y-147843678D02*
X66999999Y-147843678D01*
X66499999Y-149886255D02*
X66964285Y-149886255D01*
X66964285Y-149886255D02*
X66714285Y-150191017D01*
X66714285Y-150191017D02*
X66821428Y-150191017D01*
X66821428Y-150191017D02*
X66892857Y-150229112D01*
X66892857Y-150229112D02*
X66928571Y-150267207D01*
X66928571Y-150267207D02*
X66964285Y-150343398D01*
X66964285Y-150343398D02*
X66964285Y-150533874D01*
X66964285Y-150533874D02*
X66928571Y-150610064D01*
X66928571Y-150610064D02*
X66892857Y-150648160D01*
X66892857Y-150648160D02*
X66821428Y-150686255D01*
X66821428Y-150686255D02*
X66607142Y-150686255D01*
X66607142Y-150686255D02*
X66535714Y-150648160D01*
X66535714Y-150648160D02*
X66499999Y-150610064D01*
X66535714Y-152538355D02*
X66571428Y-152500260D01*
X66571428Y-152500260D02*
X66642857Y-152462165D01*
X66642857Y-152462165D02*
X66821428Y-152462165D01*
X66821428Y-152462165D02*
X66892857Y-152500260D01*
X66892857Y-152500260D02*
X66928571Y-152538355D01*
X66928571Y-152538355D02*
X66964285Y-152614546D01*
X66964285Y-152614546D02*
X66964285Y-152690736D01*
X66964285Y-152690736D02*
X66928571Y-152805022D01*
X66928571Y-152805022D02*
X66499999Y-153262165D01*
X66499999Y-153262165D02*
X66964285Y-153262165D01*
X66964285Y-155838075D02*
X66535714Y-155838075D01*
X66749999Y-155838075D02*
X66749999Y-155038075D01*
X66749999Y-155038075D02*
X66678571Y-155152360D01*
X66678571Y-155152360D02*
X66607142Y-155228551D01*
X66607142Y-155228551D02*
X66535714Y-155266646D01*
D14*
X50089761Y-138365935D02*
X50623095Y-139165935D01*
X50623095Y-138365935D02*
X50089761Y-139165935D01*
X50927857Y-139165935D02*
X50927857Y-138365935D01*
X51270713Y-138937363D02*
X51651666Y-138937363D01*
X51194523Y-139165935D02*
X51461190Y-138365935D01*
X51461190Y-138365935D02*
X51727856Y-139165935D01*
X52146904Y-138365935D02*
X52299285Y-138365935D01*
X52299285Y-138365935D02*
X52375475Y-138404030D01*
X52375475Y-138404030D02*
X52451666Y-138480220D01*
X52451666Y-138480220D02*
X52489761Y-138632601D01*
X52489761Y-138632601D02*
X52489761Y-138899268D01*
X52489761Y-138899268D02*
X52451666Y-139051649D01*
X52451666Y-139051649D02*
X52375475Y-139127840D01*
X52375475Y-139127840D02*
X52299285Y-139165935D01*
X52299285Y-139165935D02*
X52146904Y-139165935D01*
X52146904Y-139165935D02*
X52070713Y-139127840D01*
X52070713Y-139127840D02*
X51994523Y-139051649D01*
X51994523Y-139051649D02*
X51956427Y-138899268D01*
X51956427Y-138899268D02*
X51956427Y-138632601D01*
X51956427Y-138632601D02*
X51994523Y-138480220D01*
X51994523Y-138480220D02*
X52070713Y-138404030D01*
X52070713Y-138404030D02*
X52146904Y-138365935D01*
X52832618Y-138861173D02*
X53442142Y-138861173D01*
X53823094Y-138746887D02*
X54089760Y-138746887D01*
X54204046Y-139165935D02*
X53823094Y-139165935D01*
X53823094Y-139165935D02*
X53823094Y-138365935D01*
X53823094Y-138365935D02*
X54204046Y-138365935D01*
X54508808Y-139127840D02*
X54623094Y-139165935D01*
X54623094Y-139165935D02*
X54813570Y-139165935D01*
X54813570Y-139165935D02*
X54889761Y-139127840D01*
X54889761Y-139127840D02*
X54927856Y-139089744D01*
X54927856Y-139089744D02*
X54965951Y-139013554D01*
X54965951Y-139013554D02*
X54965951Y-138937363D01*
X54965951Y-138937363D02*
X54927856Y-138861173D01*
X54927856Y-138861173D02*
X54889761Y-138823078D01*
X54889761Y-138823078D02*
X54813570Y-138784982D01*
X54813570Y-138784982D02*
X54661189Y-138746887D01*
X54661189Y-138746887D02*
X54584999Y-138708792D01*
X54584999Y-138708792D02*
X54546904Y-138670697D01*
X54546904Y-138670697D02*
X54508808Y-138594506D01*
X54508808Y-138594506D02*
X54508808Y-138518316D01*
X54508808Y-138518316D02*
X54546904Y-138442125D01*
X54546904Y-138442125D02*
X54584999Y-138404030D01*
X54584999Y-138404030D02*
X54661189Y-138365935D01*
X54661189Y-138365935D02*
X54851666Y-138365935D01*
X54851666Y-138365935D02*
X54965951Y-138404030D01*
X55308809Y-139165935D02*
X55308809Y-138365935D01*
X55308809Y-138365935D02*
X55613571Y-138365935D01*
X55613571Y-138365935D02*
X55689761Y-138404030D01*
X55689761Y-138404030D02*
X55727856Y-138442125D01*
X55727856Y-138442125D02*
X55765952Y-138518316D01*
X55765952Y-138518316D02*
X55765952Y-138632601D01*
X55765952Y-138632601D02*
X55727856Y-138708792D01*
X55727856Y-138708792D02*
X55689761Y-138746887D01*
X55689761Y-138746887D02*
X55613571Y-138784982D01*
X55613571Y-138784982D02*
X55308809Y-138784982D01*
X56032618Y-138365935D02*
X56527856Y-138365935D01*
X56527856Y-138365935D02*
X56261190Y-138670697D01*
X56261190Y-138670697D02*
X56375475Y-138670697D01*
X56375475Y-138670697D02*
X56451666Y-138708792D01*
X56451666Y-138708792D02*
X56489761Y-138746887D01*
X56489761Y-138746887D02*
X56527856Y-138823078D01*
X56527856Y-138823078D02*
X56527856Y-139013554D01*
X56527856Y-139013554D02*
X56489761Y-139089744D01*
X56489761Y-139089744D02*
X56451666Y-139127840D01*
X56451666Y-139127840D02*
X56375475Y-139165935D01*
X56375475Y-139165935D02*
X56146904Y-139165935D01*
X56146904Y-139165935D02*
X56070713Y-139127840D01*
X56070713Y-139127840D02*
X56032618Y-139089744D01*
X56832618Y-138442125D02*
X56870714Y-138404030D01*
X56870714Y-138404030D02*
X56946904Y-138365935D01*
X56946904Y-138365935D02*
X57137380Y-138365935D01*
X57137380Y-138365935D02*
X57213571Y-138404030D01*
X57213571Y-138404030D02*
X57251666Y-138442125D01*
X57251666Y-138442125D02*
X57289761Y-138518316D01*
X57289761Y-138518316D02*
X57289761Y-138594506D01*
X57289761Y-138594506D02*
X57251666Y-138708792D01*
X57251666Y-138708792D02*
X56794523Y-139165935D01*
X56794523Y-139165935D02*
X57289761Y-139165935D01*
X57632619Y-138861173D02*
X58242143Y-138861173D01*
X59080238Y-139089744D02*
X59042142Y-139127840D01*
X59042142Y-139127840D02*
X58927857Y-139165935D01*
X58927857Y-139165935D02*
X58851666Y-139165935D01*
X58851666Y-139165935D02*
X58737380Y-139127840D01*
X58737380Y-139127840D02*
X58661190Y-139051649D01*
X58661190Y-139051649D02*
X58623095Y-138975459D01*
X58623095Y-138975459D02*
X58584999Y-138823078D01*
X58584999Y-138823078D02*
X58584999Y-138708792D01*
X58584999Y-138708792D02*
X58623095Y-138556411D01*
X58623095Y-138556411D02*
X58661190Y-138480220D01*
X58661190Y-138480220D02*
X58737380Y-138404030D01*
X58737380Y-138404030D02*
X58851666Y-138365935D01*
X58851666Y-138365935D02*
X58927857Y-138365935D01*
X58927857Y-138365935D02*
X59042142Y-138404030D01*
X59042142Y-138404030D02*
X59080238Y-138442125D01*
X59765952Y-138365935D02*
X59613571Y-138365935D01*
X59613571Y-138365935D02*
X59537380Y-138404030D01*
X59537380Y-138404030D02*
X59499285Y-138442125D01*
X59499285Y-138442125D02*
X59423095Y-138556411D01*
X59423095Y-138556411D02*
X59384999Y-138708792D01*
X59384999Y-138708792D02*
X59384999Y-139013554D01*
X59384999Y-139013554D02*
X59423095Y-139089744D01*
X59423095Y-139089744D02*
X59461190Y-139127840D01*
X59461190Y-139127840D02*
X59537380Y-139165935D01*
X59537380Y-139165935D02*
X59689761Y-139165935D01*
X59689761Y-139165935D02*
X59765952Y-139127840D01*
X59765952Y-139127840D02*
X59804047Y-139089744D01*
X59804047Y-139089744D02*
X59842142Y-139013554D01*
X59842142Y-139013554D02*
X59842142Y-138823078D01*
X59842142Y-138823078D02*
X59804047Y-138746887D01*
X59804047Y-138746887D02*
X59765952Y-138708792D01*
X59765952Y-138708792D02*
X59689761Y-138670697D01*
X59689761Y-138670697D02*
X59537380Y-138670697D01*
X59537380Y-138670697D02*
X59461190Y-138708792D01*
X59461190Y-138708792D02*
X59423095Y-138746887D01*
X59423095Y-138746887D02*
X59384999Y-138823078D01*
D15*
G36*
X37787788Y-31000000D02*
G01*
X37547331Y-31000000D01*
X37547331Y-30619164D01*
X37543545Y-30526474D01*
X37537577Y-30483522D01*
X37529562Y-30458452D01*
X37514306Y-30435919D01*
X37494025Y-30421205D01*
X37468567Y-30413047D01*
X37431926Y-30409909D01*
X37402687Y-30412584D01*
X37372453Y-30420839D01*
X37342506Y-30434416D01*
X37308278Y-30455704D01*
X37308278Y-31000000D01*
X37069165Y-31000000D01*
X37069165Y-29937055D01*
X37308278Y-29937055D01*
X37308278Y-30316608D01*
X37367828Y-30271061D01*
X37422645Y-30238633D01*
X37480705Y-30217755D01*
X37545988Y-30210607D01*
X37603872Y-30215726D01*
X37651930Y-30230132D01*
X37692069Y-30253094D01*
X37725628Y-30284856D01*
X37751274Y-30323154D01*
X37770673Y-30370451D01*
X37783242Y-30428628D01*
X37787788Y-30499973D01*
X37787788Y-31000000D01*
G37*
G36*
X38381423Y-30215496D02*
G01*
X38447324Y-30229379D01*
X38504520Y-30251435D01*
X38554287Y-30281342D01*
X38597575Y-30319295D01*
X38633772Y-30364216D01*
X38662381Y-30415443D01*
X38683497Y-30473890D01*
X38696775Y-30540738D01*
X38701439Y-30617393D01*
X38694258Y-30711244D01*
X38674000Y-30790485D01*
X38641851Y-30857669D01*
X38597942Y-30914759D01*
X38554783Y-30952677D01*
X38505063Y-30982576D01*
X38447815Y-31004645D01*
X38381741Y-31018548D01*
X38305278Y-31023447D01*
X38229424Y-31018568D01*
X38163670Y-31004704D01*
X38106502Y-30982660D01*
X38056665Y-30952746D01*
X38013224Y-30914759D01*
X37976883Y-30869808D01*
X37948185Y-30818625D01*
X37927021Y-30760311D01*
X37913723Y-30693696D01*
X37909137Y-30618736D01*
X38154274Y-30618736D01*
X38157528Y-30685271D01*
X38165876Y-30731760D01*
X38179865Y-30772023D01*
X38195918Y-30800575D01*
X38217603Y-30823622D01*
X38243728Y-30839288D01*
X38273533Y-30848362D01*
X38307293Y-30851500D01*
X38335834Y-30848530D01*
X38365667Y-30839288D01*
X38392595Y-30823881D01*
X38413172Y-30802651D01*
X38431467Y-30771218D01*
X38445290Y-30732431D01*
X38453092Y-30687392D01*
X38456220Y-30618736D01*
X38453106Y-30553716D01*
X38444923Y-30505713D01*
X38430872Y-30463567D01*
X38413844Y-30433478D01*
X38390709Y-30408788D01*
X38366033Y-30393789D01*
X38338164Y-30385481D01*
X38305278Y-30382554D01*
X38274166Y-30385100D01*
X38247148Y-30392384D01*
X38222963Y-30406138D01*
X38199337Y-30430059D01*
X38181686Y-30459737D01*
X38166548Y-30502660D01*
X38157660Y-30551846D01*
X38154274Y-30618736D01*
X37909137Y-30618736D01*
X37909055Y-30617393D01*
X37913753Y-30540085D01*
X37927105Y-30472892D01*
X37948305Y-30414356D01*
X37976984Y-30363249D01*
X38013224Y-30318623D01*
X38056629Y-30280897D01*
X38106445Y-30251169D01*
X38163612Y-30229251D01*
X38229386Y-30215460D01*
X38305278Y-30210607D01*
X38381423Y-30215496D01*
G37*
G36*
X39745456Y-31000000D02*
G01*
X39745456Y-30616416D01*
X39743379Y-30520673D01*
X39738989Y-30483713D01*
X39731106Y-30457109D01*
X39717839Y-30435621D01*
X39699294Y-30421205D01*
X39675319Y-30413097D01*
X39638905Y-30409909D01*
X39611946Y-30412854D01*
X39584927Y-30421877D01*
X39526858Y-30455704D01*
X39526858Y-31000000D01*
X39286401Y-31000000D01*
X39286401Y-30616416D01*
X39284020Y-30521039D01*
X39279337Y-30483752D01*
X39271380Y-30457109D01*
X39258113Y-30435621D01*
X39239568Y-30421205D01*
X39215670Y-30413082D01*
X39179850Y-30409909D01*
X39151027Y-30413278D01*
X39122453Y-30423586D01*
X39067804Y-30455704D01*
X39067804Y-31000000D01*
X38828690Y-31000000D01*
X38828690Y-30234054D01*
X39067804Y-30234054D01*
X39067804Y-30316608D01*
X39126793Y-30270766D01*
X39178446Y-30238633D01*
X39232909Y-30217780D01*
X39295255Y-30210607D01*
X39341172Y-30214493D01*
X39382059Y-30225739D01*
X39418842Y-30244129D01*
X39450997Y-30269562D01*
X39478047Y-30302467D01*
X39500175Y-30344024D01*
X39569741Y-30285243D01*
X39630295Y-30245167D01*
X39672127Y-30225647D01*
X39713272Y-30214324D01*
X39754309Y-30210607D01*
X39805792Y-30215048D01*
X39849930Y-30227704D01*
X39889115Y-30249118D01*
X39921677Y-30278995D01*
X39949520Y-30318974D01*
X39969854Y-30366922D01*
X39981426Y-30421875D01*
X39985913Y-30499973D01*
X39985913Y-31000000D01*
X39745456Y-31000000D01*
G37*
G36*
X40605161Y-30217420D02*
G01*
X40676736Y-30236325D01*
X40734922Y-30265843D01*
X40782083Y-30305678D01*
X40819234Y-30355372D01*
X40846881Y-30415731D01*
X40864575Y-30488939D01*
X40870927Y-30577765D01*
X40870927Y-30663921D01*
X40347026Y-30663921D01*
X40354764Y-30713839D01*
X40369557Y-30752093D01*
X40391949Y-30784109D01*
X40420115Y-30808452D01*
X40452852Y-30826176D01*
X40491801Y-30838494D01*
X40533884Y-30845234D01*
X40581316Y-30847592D01*
X40622707Y-30845237D01*
X40663320Y-30838189D01*
X40702454Y-30827122D01*
X40737081Y-30813459D01*
X40791364Y-30784883D01*
X40832031Y-30757711D01*
X40857310Y-30757711D01*
X40857310Y-30955792D01*
X40803699Y-30977407D01*
X40737081Y-30997618D01*
X40656787Y-31013677D01*
X40556036Y-31019539D01*
X40466866Y-31014702D01*
X40390698Y-31001088D01*
X40325681Y-30979755D01*
X40270218Y-30951342D01*
X40223011Y-30916041D01*
X40182413Y-30872530D01*
X40150565Y-30822428D01*
X40127146Y-30764773D01*
X40112424Y-30698235D01*
X40107240Y-30621179D01*
X40112002Y-30545850D01*
X40117447Y-30519330D01*
X40346293Y-30519330D01*
X40635293Y-30519330D01*
X40629840Y-30469350D01*
X40617734Y-30431439D01*
X40600061Y-30402948D01*
X40575315Y-30381505D01*
X40542389Y-30367965D01*
X40498639Y-30363014D01*
X40453995Y-30368059D01*
X40418348Y-30382192D01*
X40389646Y-30405024D01*
X40368026Y-30435185D01*
X40353401Y-30472674D01*
X40346293Y-30519330D01*
X40117447Y-30519330D01*
X40125629Y-30479475D01*
X40147444Y-30420764D01*
X40177209Y-30368640D01*
X40215135Y-30322287D01*
X40260114Y-30283263D01*
X40311680Y-30252523D01*
X40370795Y-30229867D01*
X40438744Y-30215619D01*
X40517080Y-30210607D01*
X40605161Y-30217420D01*
G37*
G36*
X41202730Y-31000000D02*
G01*
X41202730Y-30175436D01*
X40902129Y-30175436D01*
X40902129Y-29983949D01*
X41758749Y-29983949D01*
X41758749Y-30175436D01*
X41458208Y-30175436D01*
X41458208Y-31000000D01*
X41202730Y-31000000D01*
G37*
G36*
X42569086Y-31000000D02*
G01*
X42328629Y-31000000D01*
X42328629Y-30619164D01*
X42324843Y-30526474D01*
X42318875Y-30483522D01*
X42310860Y-30458452D01*
X42295604Y-30435919D01*
X42275323Y-30421205D01*
X42249865Y-30413047D01*
X42213224Y-30409909D01*
X42183985Y-30412584D01*
X42153751Y-30420839D01*
X42123804Y-30434416D01*
X42089576Y-30455704D01*
X42089576Y-31000000D01*
X41850462Y-31000000D01*
X41850462Y-29937055D01*
X42089576Y-29937055D01*
X42089576Y-30316608D01*
X42149126Y-30271061D01*
X42203943Y-30238633D01*
X42262003Y-30217755D01*
X42327286Y-30210607D01*
X42385170Y-30215726D01*
X42433228Y-30230132D01*
X42473367Y-30253094D01*
X42506926Y-30284856D01*
X42532572Y-30323154D01*
X42551971Y-30370451D01*
X42564540Y-30428628D01*
X42569086Y-30499973D01*
X42569086Y-31000000D01*
G37*
G36*
X42985459Y-31000000D02*
G01*
X42746345Y-31000000D01*
X42746345Y-30234054D01*
X42985459Y-30234054D01*
X42985459Y-31000000D01*
G37*
G36*
X42992298Y-30124633D02*
G01*
X42739506Y-30124633D01*
X42739506Y-29937055D01*
X42992298Y-29937055D01*
X42992298Y-30124633D01*
G37*
G36*
X43887020Y-31000000D02*
G01*
X43646563Y-31000000D01*
X43646563Y-30619164D01*
X43642778Y-30526474D01*
X43636809Y-30483522D01*
X43628795Y-30458452D01*
X43613538Y-30435919D01*
X43593257Y-30421205D01*
X43567799Y-30413047D01*
X43531159Y-30409909D01*
X43501919Y-30412584D01*
X43471685Y-30420839D01*
X43441738Y-30434416D01*
X43407511Y-30455704D01*
X43407511Y-31000000D01*
X43168397Y-31000000D01*
X43168397Y-30234054D01*
X43407511Y-30234054D01*
X43407511Y-30316608D01*
X43467061Y-30271061D01*
X43521877Y-30238633D01*
X43579937Y-30217755D01*
X43645220Y-30210607D01*
X43703104Y-30215726D01*
X43751162Y-30230132D01*
X43791302Y-30253094D01*
X43824861Y-30284856D01*
X43850507Y-30323154D01*
X43869905Y-30370451D01*
X43882474Y-30428628D01*
X43887020Y-30499973D01*
X43887020Y-31000000D01*
G37*
G36*
X44388257Y-30214836D02*
G01*
X44436567Y-30226788D01*
X44481349Y-30245420D01*
X44521319Y-30268248D01*
X44530173Y-30234054D01*
X44761776Y-30234054D01*
X44761776Y-30912438D01*
X44758008Y-30983031D01*
X44747453Y-31042789D01*
X44731002Y-31093300D01*
X44707210Y-31140574D01*
X44679198Y-31178843D01*
X44646982Y-31209316D01*
X44589384Y-31245278D01*
X44519243Y-31270376D01*
X44442478Y-31284277D01*
X44353952Y-31289183D01*
X44278496Y-31286664D01*
X44208749Y-31279352D01*
X44089559Y-31256699D01*
X44089559Y-31066434D01*
X44117586Y-31066434D01*
X44159595Y-31080111D01*
X44208444Y-31093850D01*
X44265780Y-31105024D01*
X44323177Y-31109420D01*
X44381337Y-31105987D01*
X44424599Y-31096903D01*
X44461495Y-31081014D01*
X44485782Y-31061366D01*
X44503062Y-31035745D01*
X44514419Y-31005434D01*
X44520382Y-30971101D01*
X44522662Y-30924040D01*
X44522662Y-30909691D01*
X44479552Y-30941518D01*
X44429423Y-30966782D01*
X44375578Y-30982927D01*
X44320429Y-30988276D01*
X44247280Y-30981659D01*
X44186002Y-30962954D01*
X44134287Y-30932968D01*
X44090536Y-30891250D01*
X44057634Y-30841334D01*
X44032349Y-30777672D01*
X44015719Y-30697150D01*
X44009994Y-30602067D01*
X44254178Y-30602067D01*
X44255949Y-30650169D01*
X44260651Y-30686697D01*
X44270118Y-30719640D01*
X44284892Y-30747941D01*
X44304666Y-30770825D01*
X44329650Y-30787325D01*
X44359610Y-30797054D01*
X44400358Y-30800697D01*
X44432119Y-30797982D01*
X44463556Y-30789767D01*
X44493682Y-30776481D01*
X44522662Y-30758199D01*
X44522662Y-30409542D01*
X44478943Y-30395865D01*
X44427041Y-30390369D01*
X44372346Y-30397119D01*
X44330188Y-30415872D01*
X44297532Y-30446240D01*
X44274544Y-30485733D01*
X44259639Y-30536645D01*
X44254178Y-30602067D01*
X44009994Y-30602067D01*
X44009630Y-30596022D01*
X44016131Y-30508698D01*
X44034543Y-30434089D01*
X44064889Y-30366714D01*
X44103908Y-30311723D01*
X44150596Y-30268867D01*
X44206368Y-30236924D01*
X44267790Y-30217168D01*
X44331420Y-30210607D01*
X44388257Y-30214836D01*
G37*
G36*
X45381054Y-30644382D02*
G01*
X44928167Y-30644382D01*
X44928167Y-30456803D01*
X45381054Y-30456803D01*
X45381054Y-30644382D01*
G37*
G36*
X45923762Y-31019539D02*
G01*
X45831285Y-31013359D01*
X45749861Y-30995664D01*
X45698928Y-30976527D01*
X45653473Y-30951927D01*
X45612901Y-30921842D01*
X45577826Y-30886154D01*
X45548049Y-30844593D01*
X45523447Y-30796484D01*
X45506122Y-30745160D01*
X45495183Y-30686240D01*
X45491330Y-30618492D01*
X45495565Y-30545721D01*
X45507471Y-30483863D01*
X45526134Y-30431280D01*
X45552570Y-30382126D01*
X45583959Y-30340011D01*
X45620412Y-30304213D01*
X45660429Y-30275407D01*
X45705217Y-30251838D01*
X45755356Y-30233504D01*
X45834148Y-30216384D01*
X45916923Y-30210607D01*
X45980229Y-30214248D01*
X46043929Y-30225261D01*
X46106910Y-30243977D01*
X46171729Y-30271912D01*
X46171729Y-30476343D01*
X46141016Y-30476343D01*
X46105783Y-30446423D01*
X46060354Y-30416564D01*
X46001614Y-30392445D01*
X45967695Y-30385129D01*
X45928524Y-30382554D01*
X45883861Y-30386846D01*
X45846202Y-30399043D01*
X45814138Y-30418760D01*
X45786741Y-30446484D01*
X45759869Y-30491668D01*
X45742737Y-30548038D01*
X45736549Y-30618492D01*
X45740508Y-30676969D01*
X45751383Y-30723824D01*
X45768089Y-30761213D01*
X45790161Y-30790867D01*
X45829147Y-30821976D01*
X45875870Y-30840926D01*
X45932615Y-30847592D01*
X45976140Y-30844838D01*
X46011811Y-30837212D01*
X46044462Y-30825367D01*
X46070613Y-30812177D01*
X46111584Y-30781952D01*
X46141016Y-30753803D01*
X46171729Y-30753803D01*
X46171729Y-30959822D01*
X46124224Y-30980399D01*
X46069269Y-30999633D01*
X46003995Y-31014349D01*
X45923762Y-31019539D01*
G37*
G36*
X46882964Y-29970943D02*
G01*
X46951658Y-29981629D01*
X46951658Y-30183251D01*
X46933217Y-30183251D01*
X46874477Y-30163224D01*
X46831884Y-30154955D01*
X46780871Y-30151988D01*
X46721138Y-30156425D01*
X46671642Y-30168826D01*
X46630557Y-30188302D01*
X46596467Y-30214637D01*
X46560101Y-30260167D01*
X46533182Y-30318987D01*
X46516539Y-30394338D01*
X46567312Y-30365233D01*
X46617961Y-30343108D01*
X46671684Y-30328928D01*
X46734465Y-30323935D01*
X46787998Y-30327689D01*
X46837230Y-30338651D01*
X46883137Y-30356880D01*
X46923020Y-30381393D01*
X46955285Y-30410652D01*
X46983127Y-30445736D01*
X47006673Y-30487334D01*
X47023126Y-30532194D01*
X47033858Y-30587555D01*
X47037753Y-30655556D01*
X47031018Y-30734460D01*
X47011637Y-30803718D01*
X46980116Y-30865097D01*
X46935965Y-30919888D01*
X46882085Y-30964059D01*
X46818880Y-30996177D01*
X46744520Y-31016321D01*
X46656551Y-31023447D01*
X46570758Y-31016745D01*
X46498038Y-30997801D01*
X46453431Y-30977727D01*
X46414239Y-30952564D01*
X46379885Y-30922208D01*
X46345064Y-30880401D01*
X46315397Y-30830195D01*
X46291042Y-30770350D01*
X46274630Y-30707580D01*
X46264085Y-30633995D01*
X46262019Y-30586680D01*
X46513791Y-30586680D01*
X46518099Y-30670602D01*
X46529117Y-30728768D01*
X46547606Y-30778344D01*
X46567769Y-30810101D01*
X46587144Y-30829355D01*
X46608374Y-30841852D01*
X46631817Y-30849078D01*
X46656551Y-30851500D01*
X46677236Y-30849074D01*
X46700942Y-30841181D01*
X46722969Y-30828245D01*
X46741303Y-30810101D01*
X46758815Y-30784122D01*
X46771651Y-30756001D01*
X46779151Y-30722874D01*
X46782275Y-30667341D01*
X46778892Y-30620083D01*
X46769941Y-30585336D01*
X46754766Y-30555681D01*
X46735136Y-30533557D01*
X46711055Y-30517280D01*
X46683906Y-30507056D01*
X46623090Y-30499790D01*
X46568074Y-30506690D01*
X46515135Y-30523909D01*
X46514463Y-30546685D01*
X46513791Y-30586680D01*
X46262019Y-30586680D01*
X46260328Y-30547967D01*
X46263766Y-30458760D01*
X46273556Y-30379769D01*
X46289027Y-30309891D01*
X46312425Y-30242656D01*
X46343592Y-30181536D01*
X46382633Y-30125854D01*
X46427553Y-30079605D01*
X46481356Y-30040097D01*
X46545176Y-30007213D01*
X46613439Y-29984150D01*
X46692126Y-29969559D01*
X46782947Y-29964410D01*
X46882964Y-29970943D01*
G37*
G36*
X48303236Y-30234054D02*
G01*
X48027975Y-31000000D01*
X47767001Y-31000000D01*
X47493755Y-30234054D01*
X47745141Y-30234054D01*
X47902251Y-30740797D01*
X48057345Y-30234054D01*
X48303236Y-30234054D01*
G37*
G36*
X49109055Y-31000000D02*
G01*
X48436898Y-31000000D01*
X48436898Y-30824145D01*
X48651344Y-30824145D01*
X48651344Y-30284856D01*
X48436898Y-30284856D01*
X48436898Y-30120725D01*
X48530443Y-30114680D01*
X48574316Y-30106205D01*
X48604937Y-30095141D01*
X48634346Y-30075886D01*
X48655740Y-30051666D01*
X48669745Y-30021996D01*
X48676623Y-29983949D01*
X48899372Y-29983949D01*
X48899372Y-30824145D01*
X49109055Y-30824145D01*
X49109055Y-31000000D01*
G37*
G36*
X49534159Y-31000000D02*
G01*
X49292359Y-31000000D01*
X49292359Y-30730355D01*
X49534159Y-30730355D01*
X49534159Y-31000000D01*
G37*
G36*
X50456603Y-30694452D02*
G01*
X50449521Y-30766421D01*
X50428943Y-30830312D01*
X50407670Y-30869189D01*
X50380803Y-30903867D01*
X50347976Y-30934726D01*
X50290076Y-30972269D01*
X50221214Y-31000549D01*
X50144207Y-31017237D01*
X50043955Y-31023447D01*
X49929431Y-31018073D01*
X49840073Y-31003602D01*
X49759373Y-30981406D01*
X49701710Y-30959150D01*
X49701710Y-30738171D01*
X49726317Y-30738171D01*
X49785659Y-30771494D01*
X49857781Y-30801369D01*
X49932222Y-30821812D01*
X49995473Y-30828053D01*
X50075707Y-30821519D01*
X50116420Y-30810725D01*
X50148491Y-30792821D01*
X50169399Y-30773498D01*
X50185677Y-30750261D01*
X50195755Y-30721987D01*
X50199721Y-30678698D01*
X50194269Y-30636669D01*
X50179876Y-30608539D01*
X50157145Y-30587573D01*
X50127303Y-30572941D01*
X50092660Y-30564004D01*
X50048718Y-30559813D01*
X49968118Y-30558408D01*
X49924398Y-30558408D01*
X49924398Y-30382554D01*
X49964698Y-30382554D01*
X50050061Y-30378401D01*
X50087260Y-30371900D01*
X50116373Y-30361854D01*
X50140930Y-30346013D01*
X50159055Y-30325340D01*
X50170231Y-30299215D01*
X50174442Y-30261898D01*
X50170624Y-30232889D01*
X50160093Y-30211217D01*
X50143994Y-30193674D01*
X50124555Y-30180504D01*
X50098612Y-30170362D01*
X50067219Y-30163956D01*
X50011166Y-30159804D01*
X49973551Y-30161999D01*
X49934656Y-30168719D01*
X49858819Y-30191189D01*
X49798674Y-30219521D01*
X49752268Y-30245778D01*
X49731080Y-30245778D01*
X49731080Y-30028463D01*
X49788558Y-30007724D01*
X49872802Y-29985232D01*
X49962733Y-29969634D01*
X50054885Y-29964410D01*
X50142622Y-29968649D01*
X50212361Y-29980163D01*
X50275560Y-30000037D01*
X50326056Y-30025898D01*
X50371938Y-30062826D01*
X50403969Y-30107597D01*
X50423261Y-30159546D01*
X50429920Y-30219277D01*
X50424194Y-30275404D01*
X50407479Y-30325644D01*
X50379667Y-30371318D01*
X50342650Y-30409728D01*
X50299011Y-30437650D01*
X50247532Y-30455704D01*
X50247532Y-30465108D01*
X50318240Y-30483548D01*
X50351560Y-30500129D01*
X50385529Y-30525863D01*
X50413219Y-30555758D01*
X50436453Y-30594495D01*
X50451281Y-30639066D01*
X50456603Y-30694452D01*
G37*
G36*
X41490754Y-32680000D02*
G01*
X40743432Y-32680000D01*
X40743432Y-32517761D01*
X40913852Y-32375307D01*
X40986471Y-32308312D01*
X41046721Y-32247934D01*
X41114194Y-32169795D01*
X41154676Y-32109631D01*
X41173499Y-32068884D01*
X41184500Y-32028198D01*
X41188137Y-31987021D01*
X41182985Y-31941411D01*
X41168686Y-31905795D01*
X41145761Y-31877845D01*
X41115414Y-31857476D01*
X41076803Y-31844509D01*
X41027609Y-31839804D01*
X40989384Y-31842220D01*
X40954153Y-31849269D01*
X40884177Y-31873571D01*
X40824704Y-31905383D01*
X40787823Y-31929685D01*
X40768040Y-31929685D01*
X40768040Y-31707852D01*
X40817536Y-31688931D01*
X40902617Y-31665903D01*
X40993578Y-31649645D01*
X41078839Y-31644410D01*
X41170498Y-31650349D01*
X41244806Y-31666732D01*
X41304844Y-31691971D01*
X41353123Y-31725315D01*
X41393141Y-31768806D01*
X41421982Y-31820084D01*
X41439993Y-31880708D01*
X41446363Y-31952889D01*
X41441736Y-32012283D01*
X41427763Y-32071158D01*
X41403987Y-32130148D01*
X41372139Y-32185468D01*
X41326161Y-32247185D01*
X41263303Y-32316261D01*
X41201542Y-32374941D01*
X41143746Y-32424888D01*
X41059727Y-32492421D01*
X41490754Y-32492421D01*
X41490754Y-32680000D01*
G37*
G36*
X42049524Y-31648672D02*
G01*
X42109984Y-31660529D01*
X42160102Y-31678909D01*
X42206097Y-31705631D01*
X42246114Y-31739706D01*
X42280697Y-31781735D01*
X42307966Y-31828134D01*
X42330528Y-31882837D01*
X42347985Y-31947088D01*
X42363267Y-32049245D01*
X42368807Y-32173257D01*
X42363135Y-32300911D01*
X42347619Y-32404188D01*
X42329907Y-32468897D01*
X42307234Y-32523567D01*
X42280025Y-32569541D01*
X42245904Y-32610133D01*
X42205802Y-32643335D01*
X42159064Y-32669619D01*
X42108328Y-32687716D01*
X42048124Y-32699308D01*
X41976736Y-32703447D01*
X41905768Y-32699317D01*
X41845731Y-32687734D01*
X41794959Y-32669619D01*
X41748317Y-32643273D01*
X41707995Y-32609631D01*
X41673387Y-32568136D01*
X41646108Y-32521793D01*
X41623448Y-32467206D01*
X41605792Y-32403150D01*
X41590284Y-32300865D01*
X41584634Y-32174600D01*
X41840754Y-32174600D01*
X41845283Y-32300301D01*
X41856679Y-32384635D01*
X41872139Y-32438260D01*
X41891572Y-32473723D01*
X41915030Y-32497211D01*
X41942920Y-32511065D01*
X41976736Y-32515868D01*
X42010519Y-32511066D01*
X42038379Y-32497215D01*
X42061808Y-32473728D01*
X42081211Y-32438260D01*
X42096685Y-32384605D01*
X42108111Y-32299892D01*
X42112657Y-32173257D01*
X42108134Y-32045619D01*
X42096814Y-31961083D01*
X42081578Y-31908253D01*
X42062385Y-31873556D01*
X42038997Y-31850457D01*
X42010960Y-31836758D01*
X41976736Y-31831988D01*
X41942828Y-31836736D01*
X41914915Y-31850404D01*
X41891497Y-31873502D01*
X41872139Y-31908253D01*
X41856767Y-31961123D01*
X41845330Y-32046034D01*
X41840754Y-32174600D01*
X41584634Y-32174600D01*
X41584604Y-32173928D01*
X41590266Y-32043606D01*
X41605426Y-31942997D01*
X41622914Y-31880661D01*
X41646118Y-31826077D01*
X41674791Y-31778316D01*
X41709856Y-31736896D01*
X41750621Y-31703502D01*
X41797706Y-31677566D01*
X41848857Y-31659713D01*
X41908080Y-31648406D01*
X41976736Y-31644410D01*
X42049524Y-31648672D01*
G37*
G36*
X43272750Y-32680000D02*
G01*
X42525428Y-32680000D01*
X42525428Y-32517761D01*
X42695848Y-32375307D01*
X42768466Y-32308312D01*
X42828716Y-32247934D01*
X42896190Y-32169795D01*
X42936672Y-32109631D01*
X42955494Y-32068884D01*
X42966496Y-32028198D01*
X42970133Y-31987021D01*
X42964981Y-31941411D01*
X42950681Y-31905795D01*
X42927757Y-31877845D01*
X42897410Y-31857476D01*
X42858799Y-31844509D01*
X42809604Y-31839804D01*
X42771380Y-31842220D01*
X42736148Y-31849269D01*
X42666173Y-31873571D01*
X42606700Y-31905383D01*
X42569819Y-31929685D01*
X42550035Y-31929685D01*
X42550035Y-31707852D01*
X42599532Y-31688931D01*
X42684613Y-31665903D01*
X42775574Y-31649645D01*
X42860834Y-31644410D01*
X42952493Y-31650349D01*
X43026802Y-31666732D01*
X43086840Y-31691971D01*
X43135119Y-31725315D01*
X43175137Y-31768806D01*
X43203977Y-31820084D01*
X43221988Y-31880708D01*
X43228359Y-31952889D01*
X43223732Y-32012283D01*
X43209759Y-32071158D01*
X43185983Y-32130148D01*
X43154135Y-32185468D01*
X43108157Y-32247185D01*
X43045299Y-32316261D01*
X42983538Y-32374941D01*
X42925742Y-32424888D01*
X42841722Y-32492421D01*
X43272750Y-32492421D01*
X43272750Y-32680000D01*
G37*
G36*
X44002853Y-31650943D02*
G01*
X44071546Y-31661629D01*
X44071546Y-31863251D01*
X44053106Y-31863251D01*
X43994365Y-31843224D01*
X43951772Y-31834955D01*
X43900759Y-31831988D01*
X43841027Y-31836425D01*
X43791530Y-31848826D01*
X43750446Y-31868302D01*
X43716356Y-31894637D01*
X43679990Y-31940167D01*
X43653070Y-31998987D01*
X43636428Y-32074338D01*
X43687200Y-32045233D01*
X43737849Y-32023108D01*
X43791573Y-32008928D01*
X43854353Y-32003935D01*
X43907886Y-32007689D01*
X43957118Y-32018651D01*
X44003026Y-32036880D01*
X44042909Y-32061393D01*
X44075174Y-32090652D01*
X44103016Y-32125736D01*
X44126562Y-32167334D01*
X44143015Y-32212194D01*
X44153747Y-32267555D01*
X44157642Y-32335556D01*
X44150906Y-32414460D01*
X44131526Y-32483718D01*
X44100005Y-32545097D01*
X44055854Y-32599888D01*
X44001973Y-32644059D01*
X43938769Y-32676177D01*
X43864408Y-32696321D01*
X43776440Y-32703447D01*
X43690647Y-32696745D01*
X43617926Y-32677801D01*
X43573320Y-32657727D01*
X43534128Y-32632564D01*
X43499774Y-32602208D01*
X43464953Y-32560401D01*
X43435285Y-32510195D01*
X43410930Y-32450350D01*
X43394519Y-32387580D01*
X43383974Y-32313995D01*
X43381908Y-32266680D01*
X43633680Y-32266680D01*
X43637987Y-32350602D01*
X43649006Y-32408768D01*
X43667494Y-32458344D01*
X43687657Y-32490101D01*
X43707033Y-32509355D01*
X43728263Y-32521852D01*
X43751706Y-32529078D01*
X43776440Y-32531500D01*
X43797125Y-32529074D01*
X43820831Y-32521181D01*
X43842857Y-32508245D01*
X43861192Y-32490101D01*
X43878703Y-32464122D01*
X43891539Y-32436001D01*
X43899040Y-32402874D01*
X43902164Y-32347341D01*
X43898781Y-32300083D01*
X43889829Y-32265336D01*
X43874655Y-32235681D01*
X43855025Y-32213557D01*
X43830944Y-32197280D01*
X43803795Y-32187056D01*
X43742978Y-32179790D01*
X43687963Y-32186690D01*
X43635023Y-32203909D01*
X43634351Y-32226685D01*
X43633680Y-32266680D01*
X43381908Y-32266680D01*
X43380217Y-32227967D01*
X43383654Y-32138760D01*
X43393445Y-32059769D01*
X43408915Y-31989891D01*
X43432314Y-31922656D01*
X43463480Y-31861536D01*
X43502521Y-31805854D01*
X43547442Y-31759605D01*
X43601245Y-31720097D01*
X43665065Y-31687213D01*
X43733327Y-31664150D01*
X43812015Y-31649559D01*
X43902835Y-31644410D01*
X44002853Y-31650943D01*
G37*
G36*
X44543790Y-32680000D02*
G01*
X44301989Y-32680000D01*
X44301989Y-32410355D01*
X44543790Y-32410355D01*
X44543790Y-32680000D01*
G37*
G36*
X45178749Y-31649777D02*
G01*
X45252033Y-31664499D01*
X45317835Y-31688606D01*
X45367193Y-31717194D01*
X45408454Y-31754360D01*
X45438207Y-31797794D01*
X45456613Y-31846802D01*
X45462814Y-31900132D01*
X45458106Y-31946856D01*
X45444195Y-31989979D01*
X45420805Y-32030436D01*
X45389563Y-32065515D01*
X45347344Y-32098070D01*
X45292028Y-32128011D01*
X45292028Y-32132102D01*
X45356413Y-32163861D01*
X45405169Y-32199620D01*
X45440955Y-32239202D01*
X45467151Y-32285465D01*
X45483191Y-32337903D01*
X45488765Y-32398021D01*
X45481939Y-32461408D01*
X45461776Y-32519471D01*
X45428841Y-32571408D01*
X45382886Y-32616374D01*
X45326606Y-32652099D01*
X45256185Y-32680305D01*
X45178268Y-32697350D01*
X45085032Y-32703447D01*
X44986113Y-32697216D01*
X44905391Y-32680000D01*
X44833272Y-32651360D01*
X44778996Y-32616374D01*
X44736547Y-32572328D01*
X44707249Y-32521852D01*
X44689878Y-32466027D01*
X44684046Y-32406875D01*
X44687221Y-32375307D01*
X44933357Y-32375307D01*
X44938675Y-32420869D01*
X44953748Y-32458160D01*
X44978420Y-32489063D01*
X45010788Y-32512171D01*
X45049802Y-32526445D01*
X45097305Y-32531500D01*
X45142734Y-32524966D01*
X45167185Y-32516517D01*
X45188224Y-32504694D01*
X45208097Y-32487393D01*
X45223395Y-32467630D01*
X45233049Y-32443938D01*
X45236707Y-32409928D01*
X45230860Y-32363714D01*
X45215519Y-32333053D01*
X45186937Y-32307816D01*
X45124660Y-32272908D01*
X45067568Y-32249094D01*
X45001684Y-32222533D01*
X44976996Y-32251743D01*
X44954179Y-32288661D01*
X44938638Y-32329700D01*
X44933357Y-32375307D01*
X44687221Y-32375307D01*
X44689710Y-32350568D01*
X44705868Y-32302862D01*
X44732162Y-32261978D01*
X44767212Y-32227107D01*
X44813118Y-32194849D01*
X44871869Y-32165380D01*
X44871869Y-32161350D01*
X44815304Y-32128257D01*
X44774596Y-32093118D01*
X44746817Y-32055898D01*
X44727237Y-32013405D01*
X44715386Y-31967645D01*
X44711340Y-31917840D01*
X44711890Y-31913016D01*
X44963460Y-31913016D01*
X44968980Y-31950842D01*
X44984282Y-31978717D01*
X45009127Y-32001398D01*
X45048823Y-32024635D01*
X45094252Y-32044357D01*
X45164289Y-32070858D01*
X45187913Y-32035750D01*
X45203184Y-32003874D01*
X45212293Y-31970064D01*
X45215519Y-31929991D01*
X45211516Y-31897030D01*
X45200118Y-31869924D01*
X45181325Y-31847315D01*
X45156869Y-31830626D01*
X45126458Y-31820128D01*
X45088451Y-31816357D01*
X45052076Y-31819738D01*
X45022365Y-31829202D01*
X44997959Y-31844262D01*
X44978457Y-31864777D01*
X44967240Y-31887392D01*
X44963460Y-31913016D01*
X44711890Y-31913016D01*
X44717519Y-31863624D01*
X44735948Y-31813060D01*
X44766088Y-31767373D01*
X44809709Y-31725376D01*
X44860662Y-31693158D01*
X44927556Y-31666514D01*
X45001552Y-31650180D01*
X45087780Y-31644410D01*
X45178749Y-31649777D01*
G37*
G36*
X45871494Y-32680000D02*
G01*
X45629693Y-32680000D01*
X45629693Y-32410355D01*
X45871494Y-32410355D01*
X45871494Y-32680000D01*
G37*
G36*
X46774093Y-32680000D02*
G01*
X46101937Y-32680000D01*
X46101937Y-32504145D01*
X46316382Y-32504145D01*
X46316382Y-31964856D01*
X46101937Y-31964856D01*
X46101937Y-31800725D01*
X46195482Y-31794680D01*
X46239354Y-31786205D01*
X46269976Y-31775141D01*
X46299384Y-31755886D01*
X46320779Y-31731666D01*
X46334784Y-31701996D01*
X46341661Y-31663949D01*
X46564411Y-31663949D01*
X46564411Y-32504145D01*
X46774093Y-32504145D01*
X46774093Y-32680000D01*
G37*
D16*
G36*
X46868032Y-49250000D02*
G01*
X46483301Y-49250000D01*
X46483301Y-48678746D01*
X46477244Y-48539711D01*
X46467694Y-48475283D01*
X46454871Y-48437678D01*
X46430460Y-48403879D01*
X46398011Y-48381808D01*
X46357278Y-48369570D01*
X46298653Y-48364863D01*
X46251870Y-48368876D01*
X46203496Y-48381258D01*
X46155581Y-48401625D01*
X46100817Y-48433557D01*
X46100817Y-49250000D01*
X45718235Y-49250000D01*
X45718235Y-47655582D01*
X46100817Y-47655582D01*
X46100817Y-48224912D01*
X46196097Y-48156592D01*
X46283803Y-48107950D01*
X46376699Y-48076633D01*
X46481151Y-48065910D01*
X46573766Y-48073590D01*
X46650659Y-48095199D01*
X46714882Y-48129641D01*
X46768576Y-48177285D01*
X46809610Y-48234731D01*
X46840648Y-48305676D01*
X46860758Y-48392942D01*
X46868032Y-48499960D01*
X46868032Y-49250000D01*
G37*
G36*
X47817848Y-48073244D02*
G01*
X47923290Y-48094069D01*
X48014804Y-48127153D01*
X48094430Y-48172013D01*
X48163692Y-48228942D01*
X48221606Y-48296325D01*
X48267380Y-48373165D01*
X48301167Y-48460835D01*
X48322411Y-48561108D01*
X48329874Y-48676090D01*
X48318384Y-48816867D01*
X48285972Y-48935728D01*
X48234532Y-49036504D01*
X48164278Y-49122138D01*
X48095224Y-49179015D01*
X48015672Y-49223865D01*
X47924075Y-49256967D01*
X47818356Y-49277822D01*
X47696015Y-49285170D01*
X47574650Y-49277853D01*
X47469444Y-49257056D01*
X47377975Y-49223991D01*
X47298236Y-49179120D01*
X47228730Y-49122138D01*
X47170584Y-49054712D01*
X47124667Y-48977938D01*
X47090804Y-48890467D01*
X47069529Y-48790545D01*
X47062191Y-48678105D01*
X47454410Y-48678105D01*
X47459617Y-48777906D01*
X47472973Y-48847640D01*
X47495355Y-48908035D01*
X47521040Y-48950863D01*
X47555736Y-48985433D01*
X47597537Y-49008932D01*
X47645224Y-49022544D01*
X47699239Y-49027250D01*
X47744906Y-49022795D01*
X47792638Y-49008932D01*
X47835723Y-48985821D01*
X47868646Y-48953977D01*
X47897918Y-48906828D01*
X47920035Y-48848647D01*
X47932519Y-48781088D01*
X47937523Y-48678105D01*
X47932541Y-48580574D01*
X47919449Y-48508570D01*
X47896967Y-48445350D01*
X47869721Y-48400218D01*
X47832705Y-48363182D01*
X47793224Y-48340683D01*
X47748634Y-48328221D01*
X47696015Y-48323831D01*
X47646237Y-48327650D01*
X47603008Y-48338577D01*
X47564312Y-48359207D01*
X47526511Y-48395088D01*
X47498268Y-48439606D01*
X47474047Y-48503990D01*
X47459828Y-48577769D01*
X47454410Y-48678105D01*
X47062191Y-48678105D01*
X47062059Y-48676090D01*
X47069575Y-48560128D01*
X47090939Y-48459338D01*
X47124860Y-48371534D01*
X47170746Y-48294874D01*
X47228730Y-48227935D01*
X47298177Y-48171345D01*
X47377883Y-48126753D01*
X47469351Y-48093876D01*
X47574588Y-48073191D01*
X47696015Y-48065910D01*
X47817848Y-48073244D01*
G37*
G36*
X50000300Y-49250000D02*
G01*
X50000300Y-48674624D01*
X49996978Y-48531010D01*
X49989954Y-48475569D01*
X49977341Y-48435663D01*
X49956114Y-48403432D01*
X49926441Y-48381808D01*
X49888082Y-48369645D01*
X49829819Y-48364863D01*
X49786685Y-48369281D01*
X49743454Y-48382815D01*
X49650544Y-48433557D01*
X49650544Y-49250000D01*
X49265813Y-49250000D01*
X49265813Y-48674624D01*
X49262003Y-48531559D01*
X49254511Y-48475628D01*
X49241780Y-48435663D01*
X49220552Y-48403432D01*
X49190879Y-48381808D01*
X49152643Y-48369624D01*
X49095332Y-48364863D01*
X49049214Y-48369917D01*
X49003496Y-48385380D01*
X48916057Y-48433557D01*
X48916057Y-49250000D01*
X48533475Y-49250000D01*
X48533475Y-48101081D01*
X48916057Y-48101081D01*
X48916057Y-48224912D01*
X49010440Y-48156149D01*
X49093084Y-48107950D01*
X49180226Y-48076670D01*
X49279979Y-48065910D01*
X49353447Y-48071739D01*
X49418866Y-48088609D01*
X49477718Y-48116194D01*
X49529167Y-48154343D01*
X49572447Y-48203701D01*
X49607851Y-48266037D01*
X49719157Y-48177865D01*
X49816043Y-48117751D01*
X49882975Y-48088471D01*
X49948806Y-48071487D01*
X50014466Y-48065910D01*
X50096838Y-48072572D01*
X50167460Y-48091556D01*
X50230155Y-48123677D01*
X50282254Y-48168492D01*
X50326803Y-48228461D01*
X50359337Y-48300383D01*
X50377854Y-48382813D01*
X50385031Y-48499960D01*
X50385031Y-49250000D01*
X50000300Y-49250000D01*
G37*
G36*
X51375829Y-48076130D02*
G01*
X51490348Y-48104488D01*
X51583446Y-48148765D01*
X51658904Y-48208517D01*
X51718346Y-48283058D01*
X51762581Y-48373596D01*
X51790891Y-48483409D01*
X51801054Y-48616647D01*
X51801054Y-48745882D01*
X50962812Y-48745882D01*
X50975194Y-48820758D01*
X50998863Y-48878140D01*
X51034689Y-48926163D01*
X51079756Y-48962678D01*
X51132135Y-48989264D01*
X51194452Y-49007741D01*
X51261786Y-49017852D01*
X51337676Y-49021388D01*
X51403902Y-49017855D01*
X51468883Y-49007283D01*
X51531498Y-48990683D01*
X51586902Y-48970189D01*
X51673754Y-48927324D01*
X51738821Y-48886566D01*
X51779267Y-48886566D01*
X51779267Y-49183688D01*
X51693489Y-49216111D01*
X51586902Y-49246427D01*
X51458430Y-49270516D01*
X51297230Y-49279309D01*
X51154557Y-49272053D01*
X51032687Y-49251632D01*
X50928661Y-49219632D01*
X50839919Y-49177014D01*
X50764389Y-49124062D01*
X50699432Y-49058795D01*
X50648475Y-48983642D01*
X50611005Y-48897160D01*
X50587450Y-48797352D01*
X50579156Y-48681769D01*
X50586775Y-48568776D01*
X50595487Y-48528995D01*
X50961640Y-48528995D01*
X51424041Y-48528995D01*
X51415315Y-48454025D01*
X51395945Y-48397159D01*
X51367669Y-48354422D01*
X51328076Y-48322258D01*
X51275393Y-48301948D01*
X51205394Y-48294521D01*
X51133964Y-48302089D01*
X51076928Y-48323288D01*
X51031005Y-48357536D01*
X50996413Y-48402778D01*
X50973013Y-48459011D01*
X50961640Y-48528995D01*
X50595487Y-48528995D01*
X50608578Y-48469213D01*
X50643482Y-48381146D01*
X50691106Y-48302960D01*
X50751787Y-48233430D01*
X50823754Y-48174895D01*
X50906259Y-48128784D01*
X51000843Y-48094801D01*
X51109562Y-48073429D01*
X51234899Y-48065910D01*
X51375829Y-48076130D01*
G37*
G36*
X52331940Y-49250000D02*
G01*
X52331940Y-48013154D01*
X51850977Y-48013154D01*
X51850977Y-47725924D01*
X53221570Y-47725924D01*
X53221570Y-48013154D01*
X52740705Y-48013154D01*
X52740705Y-49250000D01*
X52331940Y-49250000D01*
G37*
G36*
X54518109Y-49250000D02*
G01*
X54133378Y-49250000D01*
X54133378Y-48678746D01*
X54127320Y-48539711D01*
X54117771Y-48475283D01*
X54104948Y-48437678D01*
X54080537Y-48403879D01*
X54048088Y-48381808D01*
X54007355Y-48369570D01*
X53948730Y-48364863D01*
X53901947Y-48368876D01*
X53853573Y-48381258D01*
X53805657Y-48401625D01*
X53750893Y-48433557D01*
X53750893Y-49250000D01*
X53368311Y-49250000D01*
X53368311Y-47655582D01*
X53750893Y-47655582D01*
X53750893Y-48224912D01*
X53846174Y-48156592D01*
X53933880Y-48107950D01*
X54026776Y-48076633D01*
X54131228Y-48065910D01*
X54223843Y-48073590D01*
X54300736Y-48095199D01*
X54364959Y-48129641D01*
X54418653Y-48177285D01*
X54459687Y-48234731D01*
X54490724Y-48305676D01*
X54510835Y-48392942D01*
X54518109Y-48499960D01*
X54518109Y-49250000D01*
G37*
G36*
X55184306Y-49250000D02*
G01*
X54801724Y-49250000D01*
X54801724Y-48101081D01*
X55184306Y-48101081D01*
X55184306Y-49250000D01*
G37*
G36*
X55195248Y-47936950D02*
G01*
X54790782Y-47936950D01*
X54790782Y-47655582D01*
X55195248Y-47655582D01*
X55195248Y-47936950D01*
G37*
G36*
X56626804Y-49250000D02*
G01*
X56242073Y-49250000D01*
X56242073Y-48678746D01*
X56236015Y-48539711D01*
X56226466Y-48475283D01*
X56213643Y-48437678D01*
X56189232Y-48403879D01*
X56156783Y-48381808D01*
X56116050Y-48369570D01*
X56057425Y-48364863D01*
X56010642Y-48368876D01*
X55962268Y-48381258D01*
X55914352Y-48401625D01*
X55859588Y-48433557D01*
X55859588Y-49250000D01*
X55477006Y-49250000D01*
X55477006Y-48101081D01*
X55859588Y-48101081D01*
X55859588Y-48224912D01*
X55954869Y-48156592D01*
X56042575Y-48107950D01*
X56135471Y-48076633D01*
X56239923Y-48065910D01*
X56332538Y-48073590D01*
X56409431Y-48095199D01*
X56473654Y-48129641D01*
X56527348Y-48177285D01*
X56568382Y-48234731D01*
X56599420Y-48305676D01*
X56619530Y-48392942D01*
X56626804Y-48499960D01*
X56626804Y-49250000D01*
G37*
G36*
X57428783Y-48072254D02*
G01*
X57506078Y-48090182D01*
X57577729Y-48118130D01*
X57641682Y-48152372D01*
X57655848Y-48101081D01*
X58026413Y-48101081D01*
X58026413Y-49118658D01*
X58020384Y-49224547D01*
X58003496Y-49314184D01*
X57977174Y-49389951D01*
X57939107Y-49460861D01*
X57894288Y-49518265D01*
X57842743Y-49563974D01*
X57750585Y-49617917D01*
X57638360Y-49655565D01*
X57515536Y-49676416D01*
X57373894Y-49683775D01*
X57253165Y-49679996D01*
X57141570Y-49669029D01*
X56950865Y-49635048D01*
X56950865Y-49349651D01*
X56995708Y-49349651D01*
X57062924Y-49370167D01*
X57141082Y-49390775D01*
X57232819Y-49407536D01*
X57324655Y-49414131D01*
X57417710Y-49408980D01*
X57486930Y-49395355D01*
X57545964Y-49371521D01*
X57584822Y-49342049D01*
X57612470Y-49303618D01*
X57630642Y-49258151D01*
X57640182Y-49206652D01*
X57643831Y-49136060D01*
X57643831Y-49114536D01*
X57574854Y-49162277D01*
X57494648Y-49200174D01*
X57408497Y-49224391D01*
X57320258Y-49232414D01*
X57203219Y-49222488D01*
X57105175Y-49194431D01*
X57022431Y-49149452D01*
X56952429Y-49086876D01*
X56899786Y-49012002D01*
X56859330Y-48916508D01*
X56832721Y-48795725D01*
X56823562Y-48653101D01*
X57214257Y-48653101D01*
X57217090Y-48725254D01*
X57224613Y-48780046D01*
X57239759Y-48829460D01*
X57263399Y-48871912D01*
X57295037Y-48906237D01*
X57335011Y-48930988D01*
X57382948Y-48945581D01*
X57448144Y-48951046D01*
X57498962Y-48946973D01*
X57549260Y-48934651D01*
X57597463Y-48914722D01*
X57643831Y-48887299D01*
X57643831Y-48364314D01*
X57573880Y-48343797D01*
X57490837Y-48335554D01*
X57403326Y-48345679D01*
X57335872Y-48373808D01*
X57283622Y-48419360D01*
X57246841Y-48478600D01*
X57222993Y-48554968D01*
X57214257Y-48653101D01*
X56823562Y-48653101D01*
X56822980Y-48644033D01*
X56833380Y-48513047D01*
X56862840Y-48401133D01*
X56911393Y-48300072D01*
X56973824Y-48217585D01*
X57048524Y-48153300D01*
X57137760Y-48105386D01*
X57236035Y-48075752D01*
X57337844Y-48065910D01*
X57428783Y-48072254D01*
G37*
G36*
X58715569Y-49250000D02*
G01*
X58328688Y-49250000D01*
X58328688Y-48845533D01*
X58715569Y-48845533D01*
X58715569Y-49250000D01*
G37*
G36*
X59400133Y-49250000D02*
G01*
X59017551Y-49250000D01*
X59017551Y-48101081D01*
X59400133Y-48101081D01*
X59400133Y-49250000D01*
G37*
G36*
X59411075Y-47936950D02*
G01*
X59006609Y-47936950D01*
X59006609Y-47655582D01*
X59411075Y-47655582D01*
X59411075Y-47936950D01*
G37*
G36*
X60359034Y-48073244D02*
G01*
X60464476Y-48094069D01*
X60555990Y-48127153D01*
X60635616Y-48172013D01*
X60704878Y-48228942D01*
X60762792Y-48296325D01*
X60808567Y-48373165D01*
X60842353Y-48460835D01*
X60863597Y-48561108D01*
X60871061Y-48676090D01*
X60859570Y-48816867D01*
X60827158Y-48935728D01*
X60775719Y-49036504D01*
X60705464Y-49122138D01*
X60636410Y-49179015D01*
X60556858Y-49223865D01*
X60465261Y-49256967D01*
X60359543Y-49277822D01*
X60237202Y-49285170D01*
X60115836Y-49277853D01*
X60010630Y-49257056D01*
X59919161Y-49223991D01*
X59839422Y-49179120D01*
X59769916Y-49122138D01*
X59711770Y-49054712D01*
X59665854Y-48977938D01*
X59631991Y-48890467D01*
X59610715Y-48790545D01*
X59603377Y-48678105D01*
X59995597Y-48678105D01*
X60000803Y-48777906D01*
X60014159Y-48847640D01*
X60036541Y-48908035D01*
X60062226Y-48950863D01*
X60096922Y-48985433D01*
X60138723Y-49008932D01*
X60186411Y-49022544D01*
X60240426Y-49027250D01*
X60286092Y-49022795D01*
X60333824Y-49008932D01*
X60376909Y-48985821D01*
X60409833Y-48953977D01*
X60439104Y-48906828D01*
X60461221Y-48848647D01*
X60473705Y-48781088D01*
X60478709Y-48678105D01*
X60473727Y-48580574D01*
X60460635Y-48508570D01*
X60438153Y-48445350D01*
X60410907Y-48400218D01*
X60373891Y-48363182D01*
X60334410Y-48340683D01*
X60289821Y-48328221D01*
X60237202Y-48323831D01*
X60187424Y-48327650D01*
X60144194Y-48338577D01*
X60105498Y-48359207D01*
X60067697Y-48395088D01*
X60039455Y-48439606D01*
X60015234Y-48503990D01*
X60001014Y-48577769D01*
X59995597Y-48678105D01*
X59603377Y-48678105D01*
X59603245Y-48676090D01*
X59610762Y-48560128D01*
X59632125Y-48459338D01*
X59666046Y-48371534D01*
X59711932Y-48294874D01*
X59769916Y-48227935D01*
X59839364Y-48171345D01*
X59919070Y-48126753D01*
X60010537Y-48093876D01*
X60115775Y-48073191D01*
X60237202Y-48065910D01*
X60359034Y-48073244D01*
G37*
D11*
X60884819Y-119916666D02*
X60408628Y-120249999D01*
X60884819Y-120488094D02*
X59884819Y-120488094D01*
X59884819Y-120488094D02*
X59884819Y-120107142D01*
X59884819Y-120107142D02*
X59932438Y-120011904D01*
X59932438Y-120011904D02*
X59980057Y-119964285D01*
X59980057Y-119964285D02*
X60075295Y-119916666D01*
X60075295Y-119916666D02*
X60218152Y-119916666D01*
X60218152Y-119916666D02*
X60313390Y-119964285D01*
X60313390Y-119964285D02*
X60361009Y-120011904D01*
X60361009Y-120011904D02*
X60408628Y-120107142D01*
X60408628Y-120107142D02*
X60408628Y-120488094D01*
X60218152Y-119059523D02*
X60884819Y-119059523D01*
X59837200Y-119297618D02*
X60551485Y-119535713D01*
X60551485Y-119535713D02*
X60551485Y-118916666D01*
X55833333Y-123859580D02*
X55785714Y-123907200D01*
X55785714Y-123907200D02*
X55642857Y-123954819D01*
X55642857Y-123954819D02*
X55547619Y-123954819D01*
X55547619Y-123954819D02*
X55404762Y-123907200D01*
X55404762Y-123907200D02*
X55309524Y-123811961D01*
X55309524Y-123811961D02*
X55261905Y-123716723D01*
X55261905Y-123716723D02*
X55214286Y-123526247D01*
X55214286Y-123526247D02*
X55214286Y-123383390D01*
X55214286Y-123383390D02*
X55261905Y-123192914D01*
X55261905Y-123192914D02*
X55309524Y-123097676D01*
X55309524Y-123097676D02*
X55404762Y-123002438D01*
X55404762Y-123002438D02*
X55547619Y-122954819D01*
X55547619Y-122954819D02*
X55642857Y-122954819D01*
X55642857Y-122954819D02*
X55785714Y-123002438D01*
X55785714Y-123002438D02*
X55833333Y-123050057D01*
X56785714Y-123954819D02*
X56214286Y-123954819D01*
X56500000Y-123954819D02*
X56500000Y-122954819D01*
X56500000Y-122954819D02*
X56404762Y-123097676D01*
X56404762Y-123097676D02*
X56309524Y-123192914D01*
X56309524Y-123192914D02*
X56214286Y-123240533D01*
X67315791Y-52571675D02*
X68022898Y-51864569D01*
X68022898Y-51864569D02*
X68191257Y-52032927D01*
X68191257Y-52032927D02*
X68258600Y-52167614D01*
X68258600Y-52167614D02*
X68258600Y-52302301D01*
X68258600Y-52302301D02*
X68224928Y-52403317D01*
X68224928Y-52403317D02*
X68123913Y-52571675D01*
X68123913Y-52571675D02*
X68022898Y-52672691D01*
X68022898Y-52672691D02*
X67854539Y-52773706D01*
X67854539Y-52773706D02*
X67753524Y-52807378D01*
X67753524Y-52807378D02*
X67618837Y-52807378D01*
X67618837Y-52807378D02*
X67484150Y-52740034D01*
X67484150Y-52740034D02*
X67315791Y-52571675D01*
X68797348Y-53110423D02*
X68325944Y-53581828D01*
X68898363Y-52672691D02*
X68224928Y-53009408D01*
X68224928Y-53009408D02*
X68662661Y-53447141D01*
X68404761Y-30300057D02*
X68309523Y-30252438D01*
X68309523Y-30252438D02*
X68214285Y-30157200D01*
X68214285Y-30157200D02*
X68071428Y-30014342D01*
X68071428Y-30014342D02*
X67976190Y-29966723D01*
X67976190Y-29966723D02*
X67880952Y-29966723D01*
X67928571Y-30204819D02*
X67833333Y-30157200D01*
X67833333Y-30157200D02*
X67738095Y-30061961D01*
X67738095Y-30061961D02*
X67690476Y-29871485D01*
X67690476Y-29871485D02*
X67690476Y-29538152D01*
X67690476Y-29538152D02*
X67738095Y-29347676D01*
X67738095Y-29347676D02*
X67833333Y-29252438D01*
X67833333Y-29252438D02*
X67928571Y-29204819D01*
X67928571Y-29204819D02*
X68119047Y-29204819D01*
X68119047Y-29204819D02*
X68214285Y-29252438D01*
X68214285Y-29252438D02*
X68309523Y-29347676D01*
X68309523Y-29347676D02*
X68357142Y-29538152D01*
X68357142Y-29538152D02*
X68357142Y-29871485D01*
X68357142Y-29871485D02*
X68309523Y-30061961D01*
X68309523Y-30061961D02*
X68214285Y-30157200D01*
X68214285Y-30157200D02*
X68119047Y-30204819D01*
X68119047Y-30204819D02*
X67928571Y-30204819D01*
X69309523Y-30204819D02*
X68738095Y-30204819D01*
X69023809Y-30204819D02*
X69023809Y-29204819D01*
X69023809Y-29204819D02*
X68928571Y-29347676D01*
X68928571Y-29347676D02*
X68833333Y-29442914D01*
X68833333Y-29442914D02*
X68738095Y-29490533D01*
X36600057Y-140407738D02*
X36552438Y-140502976D01*
X36552438Y-140502976D02*
X36457200Y-140598214D01*
X36457200Y-140598214D02*
X36314342Y-140741071D01*
X36314342Y-140741071D02*
X36266723Y-140836309D01*
X36266723Y-140836309D02*
X36266723Y-140931547D01*
X36504819Y-140883928D02*
X36457200Y-140979166D01*
X36457200Y-140979166D02*
X36361961Y-141074404D01*
X36361961Y-141074404D02*
X36171485Y-141122023D01*
X36171485Y-141122023D02*
X35838152Y-141122023D01*
X35838152Y-141122023D02*
X35647676Y-141074404D01*
X35647676Y-141074404D02*
X35552438Y-140979166D01*
X35552438Y-140979166D02*
X35504819Y-140883928D01*
X35504819Y-140883928D02*
X35504819Y-140693452D01*
X35504819Y-140693452D02*
X35552438Y-140598214D01*
X35552438Y-140598214D02*
X35647676Y-140502976D01*
X35647676Y-140502976D02*
X35838152Y-140455357D01*
X35838152Y-140455357D02*
X36171485Y-140455357D01*
X36171485Y-140455357D02*
X36361961Y-140502976D01*
X36361961Y-140502976D02*
X36457200Y-140598214D01*
X36457200Y-140598214D02*
X36504819Y-140693452D01*
X36504819Y-140693452D02*
X36504819Y-140883928D01*
X35504819Y-140122023D02*
X35504819Y-139502976D01*
X35504819Y-139502976D02*
X35885771Y-139836309D01*
X35885771Y-139836309D02*
X35885771Y-139693452D01*
X35885771Y-139693452D02*
X35933390Y-139598214D01*
X35933390Y-139598214D02*
X35981009Y-139550595D01*
X35981009Y-139550595D02*
X36076247Y-139502976D01*
X36076247Y-139502976D02*
X36314342Y-139502976D01*
X36314342Y-139502976D02*
X36409580Y-139550595D01*
X36409580Y-139550595D02*
X36457200Y-139598214D01*
X36457200Y-139598214D02*
X36504819Y-139693452D01*
X36504819Y-139693452D02*
X36504819Y-139979166D01*
X36504819Y-139979166D02*
X36457200Y-140074404D01*
X36457200Y-140074404D02*
X36409580Y-140122023D01*
X63886476Y-103853200D02*
X64029333Y-103900819D01*
X64029333Y-103900819D02*
X64267428Y-103900819D01*
X64267428Y-103900819D02*
X64362666Y-103853200D01*
X64362666Y-103853200D02*
X64410285Y-103805580D01*
X64410285Y-103805580D02*
X64457904Y-103710342D01*
X64457904Y-103710342D02*
X64457904Y-103615104D01*
X64457904Y-103615104D02*
X64410285Y-103519866D01*
X64410285Y-103519866D02*
X64362666Y-103472247D01*
X64362666Y-103472247D02*
X64267428Y-103424628D01*
X64267428Y-103424628D02*
X64076952Y-103377009D01*
X64076952Y-103377009D02*
X63981714Y-103329390D01*
X63981714Y-103329390D02*
X63934095Y-103281771D01*
X63934095Y-103281771D02*
X63886476Y-103186533D01*
X63886476Y-103186533D02*
X63886476Y-103091295D01*
X63886476Y-103091295D02*
X63934095Y-102996057D01*
X63934095Y-102996057D02*
X63981714Y-102948438D01*
X63981714Y-102948438D02*
X64076952Y-102900819D01*
X64076952Y-102900819D02*
X64315047Y-102900819D01*
X64315047Y-102900819D02*
X64457904Y-102948438D01*
X64791238Y-102900819D02*
X65029333Y-103900819D01*
X65029333Y-103900819D02*
X65219809Y-103186533D01*
X65219809Y-103186533D02*
X65410285Y-103900819D01*
X65410285Y-103900819D02*
X65648381Y-102900819D01*
X66553142Y-103900819D02*
X65981714Y-103900819D01*
X66267428Y-103900819D02*
X66267428Y-102900819D01*
X66267428Y-102900819D02*
X66172190Y-103043676D01*
X66172190Y-103043676D02*
X66076952Y-103138914D01*
X66076952Y-103138914D02*
X65981714Y-103186533D01*
X67172190Y-102900819D02*
X67267428Y-102900819D01*
X67267428Y-102900819D02*
X67362666Y-102948438D01*
X67362666Y-102948438D02*
X67410285Y-102996057D01*
X67410285Y-102996057D02*
X67457904Y-103091295D01*
X67457904Y-103091295D02*
X67505523Y-103281771D01*
X67505523Y-103281771D02*
X67505523Y-103519866D01*
X67505523Y-103519866D02*
X67457904Y-103710342D01*
X67457904Y-103710342D02*
X67410285Y-103805580D01*
X67410285Y-103805580D02*
X67362666Y-103853200D01*
X67362666Y-103853200D02*
X67267428Y-103900819D01*
X67267428Y-103900819D02*
X67172190Y-103900819D01*
X67172190Y-103900819D02*
X67076952Y-103853200D01*
X67076952Y-103853200D02*
X67029333Y-103805580D01*
X67029333Y-103805580D02*
X66981714Y-103710342D01*
X66981714Y-103710342D02*
X66934095Y-103519866D01*
X66934095Y-103519866D02*
X66934095Y-103281771D01*
X66934095Y-103281771D02*
X66981714Y-103091295D01*
X66981714Y-103091295D02*
X67029333Y-102996057D01*
X67029333Y-102996057D02*
X67076952Y-102948438D01*
X67076952Y-102948438D02*
X67172190Y-102900819D01*
X64362667Y-116299200D02*
X64505524Y-116346819D01*
X64505524Y-116346819D02*
X64743619Y-116346819D01*
X64743619Y-116346819D02*
X64838857Y-116299200D01*
X64838857Y-116299200D02*
X64886476Y-116251580D01*
X64886476Y-116251580D02*
X64934095Y-116156342D01*
X64934095Y-116156342D02*
X64934095Y-116061104D01*
X64934095Y-116061104D02*
X64886476Y-115965866D01*
X64886476Y-115965866D02*
X64838857Y-115918247D01*
X64838857Y-115918247D02*
X64743619Y-115870628D01*
X64743619Y-115870628D02*
X64553143Y-115823009D01*
X64553143Y-115823009D02*
X64457905Y-115775390D01*
X64457905Y-115775390D02*
X64410286Y-115727771D01*
X64410286Y-115727771D02*
X64362667Y-115632533D01*
X64362667Y-115632533D02*
X64362667Y-115537295D01*
X64362667Y-115537295D02*
X64410286Y-115442057D01*
X64410286Y-115442057D02*
X64457905Y-115394438D01*
X64457905Y-115394438D02*
X64553143Y-115346819D01*
X64553143Y-115346819D02*
X64791238Y-115346819D01*
X64791238Y-115346819D02*
X64934095Y-115394438D01*
X65267429Y-115346819D02*
X65505524Y-116346819D01*
X65505524Y-116346819D02*
X65696000Y-115632533D01*
X65696000Y-115632533D02*
X65886476Y-116346819D01*
X65886476Y-116346819D02*
X66124572Y-115346819D01*
X66553143Y-116346819D02*
X66743619Y-116346819D01*
X66743619Y-116346819D02*
X66838857Y-116299200D01*
X66838857Y-116299200D02*
X66886476Y-116251580D01*
X66886476Y-116251580D02*
X66981714Y-116108723D01*
X66981714Y-116108723D02*
X67029333Y-115918247D01*
X67029333Y-115918247D02*
X67029333Y-115537295D01*
X67029333Y-115537295D02*
X66981714Y-115442057D01*
X66981714Y-115442057D02*
X66934095Y-115394438D01*
X66934095Y-115394438D02*
X66838857Y-115346819D01*
X66838857Y-115346819D02*
X66648381Y-115346819D01*
X66648381Y-115346819D02*
X66553143Y-115394438D01*
X66553143Y-115394438D02*
X66505524Y-115442057D01*
X66505524Y-115442057D02*
X66457905Y-115537295D01*
X66457905Y-115537295D02*
X66457905Y-115775390D01*
X66457905Y-115775390D02*
X66505524Y-115870628D01*
X66505524Y-115870628D02*
X66553143Y-115918247D01*
X66553143Y-115918247D02*
X66648381Y-115965866D01*
X66648381Y-115965866D02*
X66838857Y-115965866D01*
X66838857Y-115965866D02*
X66934095Y-115918247D01*
X66934095Y-115918247D02*
X66981714Y-115870628D01*
X66981714Y-115870628D02*
X67029333Y-115775390D01*
X48083333Y-35859580D02*
X48035714Y-35907200D01*
X48035714Y-35907200D02*
X47892857Y-35954819D01*
X47892857Y-35954819D02*
X47797619Y-35954819D01*
X47797619Y-35954819D02*
X47654762Y-35907200D01*
X47654762Y-35907200D02*
X47559524Y-35811961D01*
X47559524Y-35811961D02*
X47511905Y-35716723D01*
X47511905Y-35716723D02*
X47464286Y-35526247D01*
X47464286Y-35526247D02*
X47464286Y-35383390D01*
X47464286Y-35383390D02*
X47511905Y-35192914D01*
X47511905Y-35192914D02*
X47559524Y-35097676D01*
X47559524Y-35097676D02*
X47654762Y-35002438D01*
X47654762Y-35002438D02*
X47797619Y-34954819D01*
X47797619Y-34954819D02*
X47892857Y-34954819D01*
X47892857Y-34954819D02*
X48035714Y-35002438D01*
X48035714Y-35002438D02*
X48083333Y-35050057D01*
X48416667Y-34954819D02*
X49035714Y-34954819D01*
X49035714Y-34954819D02*
X48702381Y-35335771D01*
X48702381Y-35335771D02*
X48845238Y-35335771D01*
X48845238Y-35335771D02*
X48940476Y-35383390D01*
X48940476Y-35383390D02*
X48988095Y-35431009D01*
X48988095Y-35431009D02*
X49035714Y-35526247D01*
X49035714Y-35526247D02*
X49035714Y-35764342D01*
X49035714Y-35764342D02*
X48988095Y-35859580D01*
X48988095Y-35859580D02*
X48940476Y-35907200D01*
X48940476Y-35907200D02*
X48845238Y-35954819D01*
X48845238Y-35954819D02*
X48559524Y-35954819D01*
X48559524Y-35954819D02*
X48464286Y-35907200D01*
X48464286Y-35907200D02*
X48416667Y-35859580D01*
X39470667Y-116299200D02*
X39613524Y-116346819D01*
X39613524Y-116346819D02*
X39851619Y-116346819D01*
X39851619Y-116346819D02*
X39946857Y-116299200D01*
X39946857Y-116299200D02*
X39994476Y-116251580D01*
X39994476Y-116251580D02*
X40042095Y-116156342D01*
X40042095Y-116156342D02*
X40042095Y-116061104D01*
X40042095Y-116061104D02*
X39994476Y-115965866D01*
X39994476Y-115965866D02*
X39946857Y-115918247D01*
X39946857Y-115918247D02*
X39851619Y-115870628D01*
X39851619Y-115870628D02*
X39661143Y-115823009D01*
X39661143Y-115823009D02*
X39565905Y-115775390D01*
X39565905Y-115775390D02*
X39518286Y-115727771D01*
X39518286Y-115727771D02*
X39470667Y-115632533D01*
X39470667Y-115632533D02*
X39470667Y-115537295D01*
X39470667Y-115537295D02*
X39518286Y-115442057D01*
X39518286Y-115442057D02*
X39565905Y-115394438D01*
X39565905Y-115394438D02*
X39661143Y-115346819D01*
X39661143Y-115346819D02*
X39899238Y-115346819D01*
X39899238Y-115346819D02*
X40042095Y-115394438D01*
X40375429Y-115346819D02*
X40613524Y-116346819D01*
X40613524Y-116346819D02*
X40804000Y-115632533D01*
X40804000Y-115632533D02*
X40994476Y-116346819D01*
X40994476Y-116346819D02*
X41232572Y-115346819D01*
X42089714Y-115346819D02*
X41613524Y-115346819D01*
X41613524Y-115346819D02*
X41565905Y-115823009D01*
X41565905Y-115823009D02*
X41613524Y-115775390D01*
X41613524Y-115775390D02*
X41708762Y-115727771D01*
X41708762Y-115727771D02*
X41946857Y-115727771D01*
X41946857Y-115727771D02*
X42042095Y-115775390D01*
X42042095Y-115775390D02*
X42089714Y-115823009D01*
X42089714Y-115823009D02*
X42137333Y-115918247D01*
X42137333Y-115918247D02*
X42137333Y-116156342D01*
X42137333Y-116156342D02*
X42089714Y-116251580D01*
X42089714Y-116251580D02*
X42042095Y-116299200D01*
X42042095Y-116299200D02*
X41946857Y-116346819D01*
X41946857Y-116346819D02*
X41708762Y-116346819D01*
X41708762Y-116346819D02*
X41613524Y-116299200D01*
X41613524Y-116299200D02*
X41565905Y-116251580D01*
X39416667Y-44843200D02*
X39559524Y-44890819D01*
X39559524Y-44890819D02*
X39797619Y-44890819D01*
X39797619Y-44890819D02*
X39892857Y-44843200D01*
X39892857Y-44843200D02*
X39940476Y-44795580D01*
X39940476Y-44795580D02*
X39988095Y-44700342D01*
X39988095Y-44700342D02*
X39988095Y-44605104D01*
X39988095Y-44605104D02*
X39940476Y-44509866D01*
X39940476Y-44509866D02*
X39892857Y-44462247D01*
X39892857Y-44462247D02*
X39797619Y-44414628D01*
X39797619Y-44414628D02*
X39607143Y-44367009D01*
X39607143Y-44367009D02*
X39511905Y-44319390D01*
X39511905Y-44319390D02*
X39464286Y-44271771D01*
X39464286Y-44271771D02*
X39416667Y-44176533D01*
X39416667Y-44176533D02*
X39416667Y-44081295D01*
X39416667Y-44081295D02*
X39464286Y-43986057D01*
X39464286Y-43986057D02*
X39511905Y-43938438D01*
X39511905Y-43938438D02*
X39607143Y-43890819D01*
X39607143Y-43890819D02*
X39845238Y-43890819D01*
X39845238Y-43890819D02*
X39988095Y-43938438D01*
X40321429Y-43890819D02*
X40559524Y-44890819D01*
X40559524Y-44890819D02*
X40750000Y-44176533D01*
X40750000Y-44176533D02*
X40940476Y-44890819D01*
X40940476Y-44890819D02*
X41178572Y-43890819D01*
X41511905Y-43986057D02*
X41559524Y-43938438D01*
X41559524Y-43938438D02*
X41654762Y-43890819D01*
X41654762Y-43890819D02*
X41892857Y-43890819D01*
X41892857Y-43890819D02*
X41988095Y-43938438D01*
X41988095Y-43938438D02*
X42035714Y-43986057D01*
X42035714Y-43986057D02*
X42083333Y-44081295D01*
X42083333Y-44081295D02*
X42083333Y-44176533D01*
X42083333Y-44176533D02*
X42035714Y-44319390D01*
X42035714Y-44319390D02*
X41464286Y-44890819D01*
X41464286Y-44890819D02*
X42083333Y-44890819D01*
X51916667Y-103853200D02*
X52059524Y-103900819D01*
X52059524Y-103900819D02*
X52297619Y-103900819D01*
X52297619Y-103900819D02*
X52392857Y-103853200D01*
X52392857Y-103853200D02*
X52440476Y-103805580D01*
X52440476Y-103805580D02*
X52488095Y-103710342D01*
X52488095Y-103710342D02*
X52488095Y-103615104D01*
X52488095Y-103615104D02*
X52440476Y-103519866D01*
X52440476Y-103519866D02*
X52392857Y-103472247D01*
X52392857Y-103472247D02*
X52297619Y-103424628D01*
X52297619Y-103424628D02*
X52107143Y-103377009D01*
X52107143Y-103377009D02*
X52011905Y-103329390D01*
X52011905Y-103329390D02*
X51964286Y-103281771D01*
X51964286Y-103281771D02*
X51916667Y-103186533D01*
X51916667Y-103186533D02*
X51916667Y-103091295D01*
X51916667Y-103091295D02*
X51964286Y-102996057D01*
X51964286Y-102996057D02*
X52011905Y-102948438D01*
X52011905Y-102948438D02*
X52107143Y-102900819D01*
X52107143Y-102900819D02*
X52345238Y-102900819D01*
X52345238Y-102900819D02*
X52488095Y-102948438D01*
X52821429Y-102900819D02*
X53059524Y-103900819D01*
X53059524Y-103900819D02*
X53250000Y-103186533D01*
X53250000Y-103186533D02*
X53440476Y-103900819D01*
X53440476Y-103900819D02*
X53678572Y-102900819D01*
X53964286Y-102900819D02*
X54630952Y-102900819D01*
X54630952Y-102900819D02*
X54202381Y-103900819D01*
X69258333Y-156954819D02*
X68925000Y-156478628D01*
X68686905Y-156954819D02*
X68686905Y-155954819D01*
X68686905Y-155954819D02*
X69067857Y-155954819D01*
X69067857Y-155954819D02*
X69163095Y-156002438D01*
X69163095Y-156002438D02*
X69210714Y-156050057D01*
X69210714Y-156050057D02*
X69258333Y-156145295D01*
X69258333Y-156145295D02*
X69258333Y-156288152D01*
X69258333Y-156288152D02*
X69210714Y-156383390D01*
X69210714Y-156383390D02*
X69163095Y-156431009D01*
X69163095Y-156431009D02*
X69067857Y-156478628D01*
X69067857Y-156478628D02*
X68686905Y-156478628D01*
X69734524Y-156954819D02*
X69925000Y-156954819D01*
X69925000Y-156954819D02*
X70020238Y-156907200D01*
X70020238Y-156907200D02*
X70067857Y-156859580D01*
X70067857Y-156859580D02*
X70163095Y-156716723D01*
X70163095Y-156716723D02*
X70210714Y-156526247D01*
X70210714Y-156526247D02*
X70210714Y-156145295D01*
X70210714Y-156145295D02*
X70163095Y-156050057D01*
X70163095Y-156050057D02*
X70115476Y-156002438D01*
X70115476Y-156002438D02*
X70020238Y-155954819D01*
X70020238Y-155954819D02*
X69829762Y-155954819D01*
X69829762Y-155954819D02*
X69734524Y-156002438D01*
X69734524Y-156002438D02*
X69686905Y-156050057D01*
X69686905Y-156050057D02*
X69639286Y-156145295D01*
X69639286Y-156145295D02*
X69639286Y-156383390D01*
X69639286Y-156383390D02*
X69686905Y-156478628D01*
X69686905Y-156478628D02*
X69734524Y-156526247D01*
X69734524Y-156526247D02*
X69829762Y-156573866D01*
X69829762Y-156573866D02*
X70020238Y-156573866D01*
X70020238Y-156573866D02*
X70115476Y-156526247D01*
X70115476Y-156526247D02*
X70163095Y-156478628D01*
X70163095Y-156478628D02*
X70210714Y-156383390D01*
X39413577Y-103879200D02*
X39556434Y-103926819D01*
X39556434Y-103926819D02*
X39794529Y-103926819D01*
X39794529Y-103926819D02*
X39889767Y-103879200D01*
X39889767Y-103879200D02*
X39937386Y-103831580D01*
X39937386Y-103831580D02*
X39985005Y-103736342D01*
X39985005Y-103736342D02*
X39985005Y-103641104D01*
X39985005Y-103641104D02*
X39937386Y-103545866D01*
X39937386Y-103545866D02*
X39889767Y-103498247D01*
X39889767Y-103498247D02*
X39794529Y-103450628D01*
X39794529Y-103450628D02*
X39604053Y-103403009D01*
X39604053Y-103403009D02*
X39508815Y-103355390D01*
X39508815Y-103355390D02*
X39461196Y-103307771D01*
X39461196Y-103307771D02*
X39413577Y-103212533D01*
X39413577Y-103212533D02*
X39413577Y-103117295D01*
X39413577Y-103117295D02*
X39461196Y-103022057D01*
X39461196Y-103022057D02*
X39508815Y-102974438D01*
X39508815Y-102974438D02*
X39604053Y-102926819D01*
X39604053Y-102926819D02*
X39842148Y-102926819D01*
X39842148Y-102926819D02*
X39985005Y-102974438D01*
X40318339Y-102926819D02*
X40556434Y-103926819D01*
X40556434Y-103926819D02*
X40746910Y-103212533D01*
X40746910Y-103212533D02*
X40937386Y-103926819D01*
X40937386Y-103926819D02*
X41175482Y-102926819D01*
X41985005Y-103260152D02*
X41985005Y-103926819D01*
X41746910Y-102879200D02*
X41508815Y-103593485D01*
X41508815Y-103593485D02*
X42127862Y-103593485D01*
X68049693Y-83593517D02*
X67342587Y-82886410D01*
X67342587Y-82886410D02*
X67510945Y-82718051D01*
X67510945Y-82718051D02*
X67645632Y-82650708D01*
X67645632Y-82650708D02*
X67780319Y-82650708D01*
X67780319Y-82650708D02*
X67881335Y-82684380D01*
X67881335Y-82684380D02*
X68049693Y-82785395D01*
X68049693Y-82785395D02*
X68150709Y-82886410D01*
X68150709Y-82886410D02*
X68251724Y-83054769D01*
X68251724Y-83054769D02*
X68285396Y-83155784D01*
X68285396Y-83155784D02*
X68285396Y-83290471D01*
X68285396Y-83290471D02*
X68218052Y-83425158D01*
X68218052Y-83425158D02*
X68049693Y-83593517D01*
X68386411Y-81842586D02*
X68049693Y-82179303D01*
X68049693Y-82179303D02*
X68352739Y-82549693D01*
X68352739Y-82549693D02*
X68352739Y-82482349D01*
X68352739Y-82482349D02*
X68386411Y-82381334D01*
X68386411Y-82381334D02*
X68554770Y-82212975D01*
X68554770Y-82212975D02*
X68655785Y-82179303D01*
X68655785Y-82179303D02*
X68723128Y-82179303D01*
X68723128Y-82179303D02*
X68824144Y-82212975D01*
X68824144Y-82212975D02*
X68992502Y-82381334D01*
X68992502Y-82381334D02*
X69026174Y-82482349D01*
X69026174Y-82482349D02*
X69026174Y-82549693D01*
X69026174Y-82549693D02*
X68992502Y-82650708D01*
X68992502Y-82650708D02*
X68824144Y-82819067D01*
X68824144Y-82819067D02*
X68723128Y-82852738D01*
X68723128Y-82852738D02*
X68655785Y-82852738D01*
X64380667Y-44843200D02*
X64523524Y-44890819D01*
X64523524Y-44890819D02*
X64761619Y-44890819D01*
X64761619Y-44890819D02*
X64856857Y-44843200D01*
X64856857Y-44843200D02*
X64904476Y-44795580D01*
X64904476Y-44795580D02*
X64952095Y-44700342D01*
X64952095Y-44700342D02*
X64952095Y-44605104D01*
X64952095Y-44605104D02*
X64904476Y-44509866D01*
X64904476Y-44509866D02*
X64856857Y-44462247D01*
X64856857Y-44462247D02*
X64761619Y-44414628D01*
X64761619Y-44414628D02*
X64571143Y-44367009D01*
X64571143Y-44367009D02*
X64475905Y-44319390D01*
X64475905Y-44319390D02*
X64428286Y-44271771D01*
X64428286Y-44271771D02*
X64380667Y-44176533D01*
X64380667Y-44176533D02*
X64380667Y-44081295D01*
X64380667Y-44081295D02*
X64428286Y-43986057D01*
X64428286Y-43986057D02*
X64475905Y-43938438D01*
X64475905Y-43938438D02*
X64571143Y-43890819D01*
X64571143Y-43890819D02*
X64809238Y-43890819D01*
X64809238Y-43890819D02*
X64952095Y-43938438D01*
X65285429Y-43890819D02*
X65523524Y-44890819D01*
X65523524Y-44890819D02*
X65714000Y-44176533D01*
X65714000Y-44176533D02*
X65904476Y-44890819D01*
X65904476Y-44890819D02*
X66142572Y-43890819D01*
X67047333Y-44890819D02*
X66475905Y-44890819D01*
X66761619Y-44890819D02*
X66761619Y-43890819D01*
X66761619Y-43890819D02*
X66666381Y-44033676D01*
X66666381Y-44033676D02*
X66571143Y-44128914D01*
X66571143Y-44128914D02*
X66475905Y-44176533D01*
X36524819Y-144642857D02*
X36048628Y-144976190D01*
X36524819Y-145214285D02*
X35524819Y-145214285D01*
X35524819Y-145214285D02*
X35524819Y-144833333D01*
X35524819Y-144833333D02*
X35572438Y-144738095D01*
X35572438Y-144738095D02*
X35620057Y-144690476D01*
X35620057Y-144690476D02*
X35715295Y-144642857D01*
X35715295Y-144642857D02*
X35858152Y-144642857D01*
X35858152Y-144642857D02*
X35953390Y-144690476D01*
X35953390Y-144690476D02*
X36001009Y-144738095D01*
X36001009Y-144738095D02*
X36048628Y-144833333D01*
X36048628Y-144833333D02*
X36048628Y-145214285D01*
X36524819Y-143690476D02*
X36524819Y-144261904D01*
X36524819Y-143976190D02*
X35524819Y-143976190D01*
X35524819Y-143976190D02*
X35667676Y-144071428D01*
X35667676Y-144071428D02*
X35762914Y-144166666D01*
X35762914Y-144166666D02*
X35810533Y-144261904D01*
X36524819Y-142738095D02*
X36524819Y-143309523D01*
X36524819Y-143023809D02*
X35524819Y-143023809D01*
X35524819Y-143023809D02*
X35667676Y-143119047D01*
X35667676Y-143119047D02*
X35762914Y-143214285D01*
X35762914Y-143214285D02*
X35810533Y-143309523D01*
X63886476Y-91407200D02*
X64029333Y-91454819D01*
X64029333Y-91454819D02*
X64267428Y-91454819D01*
X64267428Y-91454819D02*
X64362666Y-91407200D01*
X64362666Y-91407200D02*
X64410285Y-91359580D01*
X64410285Y-91359580D02*
X64457904Y-91264342D01*
X64457904Y-91264342D02*
X64457904Y-91169104D01*
X64457904Y-91169104D02*
X64410285Y-91073866D01*
X64410285Y-91073866D02*
X64362666Y-91026247D01*
X64362666Y-91026247D02*
X64267428Y-90978628D01*
X64267428Y-90978628D02*
X64076952Y-90931009D01*
X64076952Y-90931009D02*
X63981714Y-90883390D01*
X63981714Y-90883390D02*
X63934095Y-90835771D01*
X63934095Y-90835771D02*
X63886476Y-90740533D01*
X63886476Y-90740533D02*
X63886476Y-90645295D01*
X63886476Y-90645295D02*
X63934095Y-90550057D01*
X63934095Y-90550057D02*
X63981714Y-90502438D01*
X63981714Y-90502438D02*
X64076952Y-90454819D01*
X64076952Y-90454819D02*
X64315047Y-90454819D01*
X64315047Y-90454819D02*
X64457904Y-90502438D01*
X64791238Y-90454819D02*
X65029333Y-91454819D01*
X65029333Y-91454819D02*
X65219809Y-90740533D01*
X65219809Y-90740533D02*
X65410285Y-91454819D01*
X65410285Y-91454819D02*
X65648381Y-90454819D01*
X66553142Y-91454819D02*
X65981714Y-91454819D01*
X66267428Y-91454819D02*
X66267428Y-90454819D01*
X66267428Y-90454819D02*
X66172190Y-90597676D01*
X66172190Y-90597676D02*
X66076952Y-90692914D01*
X66076952Y-90692914D02*
X65981714Y-90740533D01*
X67505523Y-91454819D02*
X66934095Y-91454819D01*
X67219809Y-91454819D02*
X67219809Y-90454819D01*
X67219809Y-90454819D02*
X67124571Y-90597676D01*
X67124571Y-90597676D02*
X67029333Y-90692914D01*
X67029333Y-90692914D02*
X66934095Y-90740533D01*
X52522095Y-125068819D02*
X52522095Y-125878342D01*
X52522095Y-125878342D02*
X52569714Y-125973580D01*
X52569714Y-125973580D02*
X52617333Y-126021200D01*
X52617333Y-126021200D02*
X52712571Y-126068819D01*
X52712571Y-126068819D02*
X52903047Y-126068819D01*
X52903047Y-126068819D02*
X52998285Y-126021200D01*
X52998285Y-126021200D02*
X53045904Y-125973580D01*
X53045904Y-125973580D02*
X53093523Y-125878342D01*
X53093523Y-125878342D02*
X53093523Y-125068819D01*
X53474476Y-125068819D02*
X54093523Y-125068819D01*
X54093523Y-125068819D02*
X53760190Y-125449771D01*
X53760190Y-125449771D02*
X53903047Y-125449771D01*
X53903047Y-125449771D02*
X53998285Y-125497390D01*
X53998285Y-125497390D02*
X54045904Y-125545009D01*
X54045904Y-125545009D02*
X54093523Y-125640247D01*
X54093523Y-125640247D02*
X54093523Y-125878342D01*
X54093523Y-125878342D02*
X54045904Y-125973580D01*
X54045904Y-125973580D02*
X53998285Y-126021200D01*
X53998285Y-126021200D02*
X53903047Y-126068819D01*
X53903047Y-126068819D02*
X53617333Y-126068819D01*
X53617333Y-126068819D02*
X53522095Y-126021200D01*
X53522095Y-126021200D02*
X53474476Y-125973580D01*
X37406482Y-82799693D02*
X38113589Y-82092587D01*
X38113589Y-82092587D02*
X38281948Y-82260945D01*
X38281948Y-82260945D02*
X38349291Y-82395632D01*
X38349291Y-82395632D02*
X38349291Y-82530319D01*
X38349291Y-82530319D02*
X38315619Y-82631335D01*
X38315619Y-82631335D02*
X38214604Y-82799693D01*
X38214604Y-82799693D02*
X38113589Y-82900709D01*
X38113589Y-82900709D02*
X37945230Y-83001724D01*
X37945230Y-83001724D02*
X37844215Y-83035396D01*
X37844215Y-83035396D02*
X37709528Y-83035396D01*
X37709528Y-83035396D02*
X37574841Y-82968052D01*
X37574841Y-82968052D02*
X37406482Y-82799693D01*
X38719680Y-82833365D02*
X38787024Y-82833365D01*
X38787024Y-82833365D02*
X38888039Y-82867037D01*
X38888039Y-82867037D02*
X39056398Y-83035396D01*
X39056398Y-83035396D02*
X39090070Y-83136411D01*
X39090070Y-83136411D02*
X39090070Y-83203754D01*
X39090070Y-83203754D02*
X39056398Y-83304770D01*
X39056398Y-83304770D02*
X38989054Y-83372113D01*
X38989054Y-83372113D02*
X38854367Y-83439457D01*
X38854367Y-83439457D02*
X38046245Y-83439457D01*
X38046245Y-83439457D02*
X38483978Y-83877189D01*
X67083333Y-36204819D02*
X66750000Y-35728628D01*
X66511905Y-36204819D02*
X66511905Y-35204819D01*
X66511905Y-35204819D02*
X66892857Y-35204819D01*
X66892857Y-35204819D02*
X66988095Y-35252438D01*
X66988095Y-35252438D02*
X67035714Y-35300057D01*
X67035714Y-35300057D02*
X67083333Y-35395295D01*
X67083333Y-35395295D02*
X67083333Y-35538152D01*
X67083333Y-35538152D02*
X67035714Y-35633390D01*
X67035714Y-35633390D02*
X66988095Y-35681009D01*
X66988095Y-35681009D02*
X66892857Y-35728628D01*
X66892857Y-35728628D02*
X66511905Y-35728628D01*
X68035714Y-36204819D02*
X67464286Y-36204819D01*
X67750000Y-36204819D02*
X67750000Y-35204819D01*
X67750000Y-35204819D02*
X67654762Y-35347676D01*
X67654762Y-35347676D02*
X67559524Y-35442914D01*
X67559524Y-35442914D02*
X67464286Y-35490533D01*
X51916667Y-116299200D02*
X52059524Y-116346819D01*
X52059524Y-116346819D02*
X52297619Y-116346819D01*
X52297619Y-116346819D02*
X52392857Y-116299200D01*
X52392857Y-116299200D02*
X52440476Y-116251580D01*
X52440476Y-116251580D02*
X52488095Y-116156342D01*
X52488095Y-116156342D02*
X52488095Y-116061104D01*
X52488095Y-116061104D02*
X52440476Y-115965866D01*
X52440476Y-115965866D02*
X52392857Y-115918247D01*
X52392857Y-115918247D02*
X52297619Y-115870628D01*
X52297619Y-115870628D02*
X52107143Y-115823009D01*
X52107143Y-115823009D02*
X52011905Y-115775390D01*
X52011905Y-115775390D02*
X51964286Y-115727771D01*
X51964286Y-115727771D02*
X51916667Y-115632533D01*
X51916667Y-115632533D02*
X51916667Y-115537295D01*
X51916667Y-115537295D02*
X51964286Y-115442057D01*
X51964286Y-115442057D02*
X52011905Y-115394438D01*
X52011905Y-115394438D02*
X52107143Y-115346819D01*
X52107143Y-115346819D02*
X52345238Y-115346819D01*
X52345238Y-115346819D02*
X52488095Y-115394438D01*
X52821429Y-115346819D02*
X53059524Y-116346819D01*
X53059524Y-116346819D02*
X53250000Y-115632533D01*
X53250000Y-115632533D02*
X53440476Y-116346819D01*
X53440476Y-116346819D02*
X53678572Y-115346819D01*
X54202381Y-115775390D02*
X54107143Y-115727771D01*
X54107143Y-115727771D02*
X54059524Y-115680152D01*
X54059524Y-115680152D02*
X54011905Y-115584914D01*
X54011905Y-115584914D02*
X54011905Y-115537295D01*
X54011905Y-115537295D02*
X54059524Y-115442057D01*
X54059524Y-115442057D02*
X54107143Y-115394438D01*
X54107143Y-115394438D02*
X54202381Y-115346819D01*
X54202381Y-115346819D02*
X54392857Y-115346819D01*
X54392857Y-115346819D02*
X54488095Y-115394438D01*
X54488095Y-115394438D02*
X54535714Y-115442057D01*
X54535714Y-115442057D02*
X54583333Y-115537295D01*
X54583333Y-115537295D02*
X54583333Y-115584914D01*
X54583333Y-115584914D02*
X54535714Y-115680152D01*
X54535714Y-115680152D02*
X54488095Y-115727771D01*
X54488095Y-115727771D02*
X54392857Y-115775390D01*
X54392857Y-115775390D02*
X54202381Y-115775390D01*
X54202381Y-115775390D02*
X54107143Y-115823009D01*
X54107143Y-115823009D02*
X54059524Y-115870628D01*
X54059524Y-115870628D02*
X54011905Y-115965866D01*
X54011905Y-115965866D02*
X54011905Y-116156342D01*
X54011905Y-116156342D02*
X54059524Y-116251580D01*
X54059524Y-116251580D02*
X54107143Y-116299200D01*
X54107143Y-116299200D02*
X54202381Y-116346819D01*
X54202381Y-116346819D02*
X54392857Y-116346819D01*
X54392857Y-116346819D02*
X54488095Y-116299200D01*
X54488095Y-116299200D02*
X54535714Y-116251580D01*
X54535714Y-116251580D02*
X54583333Y-116156342D01*
X54583333Y-116156342D02*
X54583333Y-115965866D01*
X54583333Y-115965866D02*
X54535714Y-115870628D01*
X54535714Y-115870628D02*
X54488095Y-115823009D01*
X54488095Y-115823009D02*
X54392857Y-115775390D01*
X61884819Y-123241666D02*
X61408628Y-123574999D01*
X61884819Y-123813094D02*
X60884819Y-123813094D01*
X60884819Y-123813094D02*
X60884819Y-123432142D01*
X60884819Y-123432142D02*
X60932438Y-123336904D01*
X60932438Y-123336904D02*
X60980057Y-123289285D01*
X60980057Y-123289285D02*
X61075295Y-123241666D01*
X61075295Y-123241666D02*
X61218152Y-123241666D01*
X61218152Y-123241666D02*
X61313390Y-123289285D01*
X61313390Y-123289285D02*
X61361009Y-123336904D01*
X61361009Y-123336904D02*
X61408628Y-123432142D01*
X61408628Y-123432142D02*
X61408628Y-123813094D01*
X60884819Y-122336904D02*
X60884819Y-122813094D01*
X60884819Y-122813094D02*
X61361009Y-122860713D01*
X61361009Y-122860713D02*
X61313390Y-122813094D01*
X61313390Y-122813094D02*
X61265771Y-122717856D01*
X61265771Y-122717856D02*
X61265771Y-122479761D01*
X61265771Y-122479761D02*
X61313390Y-122384523D01*
X61313390Y-122384523D02*
X61361009Y-122336904D01*
X61361009Y-122336904D02*
X61456247Y-122289285D01*
X61456247Y-122289285D02*
X61694342Y-122289285D01*
X61694342Y-122289285D02*
X61789580Y-122336904D01*
X61789580Y-122336904D02*
X61837200Y-122384523D01*
X61837200Y-122384523D02*
X61884819Y-122479761D01*
X61884819Y-122479761D02*
X61884819Y-122717856D01*
X61884819Y-122717856D02*
X61837200Y-122813094D01*
X61837200Y-122813094D02*
X61789580Y-122860713D01*
D17*
X49571428Y-87367219D02*
X50238095Y-87367219D01*
X50523809Y-88414838D02*
X49571428Y-88414838D01*
X49571428Y-88414838D02*
X49571428Y-86414838D01*
X49571428Y-86414838D02*
X50523809Y-86414838D01*
X51380952Y-88414838D02*
X51380952Y-86414838D01*
X51380952Y-86414838D02*
X52523809Y-88414838D01*
X52523809Y-88414838D02*
X52523809Y-86414838D01*
X54619047Y-88224361D02*
X54523809Y-88319600D01*
X54523809Y-88319600D02*
X54238095Y-88414838D01*
X54238095Y-88414838D02*
X54047619Y-88414838D01*
X54047619Y-88414838D02*
X53761904Y-88319600D01*
X53761904Y-88319600D02*
X53571428Y-88129123D01*
X53571428Y-88129123D02*
X53476190Y-87938647D01*
X53476190Y-87938647D02*
X53380952Y-87557695D01*
X53380952Y-87557695D02*
X53380952Y-87271980D01*
X53380952Y-87271980D02*
X53476190Y-86891028D01*
X53476190Y-86891028D02*
X53571428Y-86700552D01*
X53571428Y-86700552D02*
X53761904Y-86510076D01*
X53761904Y-86510076D02*
X54047619Y-86414838D01*
X54047619Y-86414838D02*
X54238095Y-86414838D01*
X54238095Y-86414838D02*
X54523809Y-86510076D01*
X54523809Y-86510076D02*
X54619047Y-86605314D01*
X56523809Y-88414838D02*
X55380952Y-88414838D01*
X55952380Y-88414838D02*
X55952380Y-86414838D01*
X55952380Y-86414838D02*
X55761904Y-86700552D01*
X55761904Y-86700552D02*
X55571428Y-86891028D01*
X55571428Y-86891028D02*
X55380952Y-86986266D01*
D11*
X51916667Y-91407200D02*
X52059524Y-91454819D01*
X52059524Y-91454819D02*
X52297619Y-91454819D01*
X52297619Y-91454819D02*
X52392857Y-91407200D01*
X52392857Y-91407200D02*
X52440476Y-91359580D01*
X52440476Y-91359580D02*
X52488095Y-91264342D01*
X52488095Y-91264342D02*
X52488095Y-91169104D01*
X52488095Y-91169104D02*
X52440476Y-91073866D01*
X52440476Y-91073866D02*
X52392857Y-91026247D01*
X52392857Y-91026247D02*
X52297619Y-90978628D01*
X52297619Y-90978628D02*
X52107143Y-90931009D01*
X52107143Y-90931009D02*
X52011905Y-90883390D01*
X52011905Y-90883390D02*
X51964286Y-90835771D01*
X51964286Y-90835771D02*
X51916667Y-90740533D01*
X51916667Y-90740533D02*
X51916667Y-90645295D01*
X51916667Y-90645295D02*
X51964286Y-90550057D01*
X51964286Y-90550057D02*
X52011905Y-90502438D01*
X52011905Y-90502438D02*
X52107143Y-90454819D01*
X52107143Y-90454819D02*
X52345238Y-90454819D01*
X52345238Y-90454819D02*
X52488095Y-90502438D01*
X52821429Y-90454819D02*
X53059524Y-91454819D01*
X53059524Y-91454819D02*
X53250000Y-90740533D01*
X53250000Y-90740533D02*
X53440476Y-91454819D01*
X53440476Y-91454819D02*
X53678572Y-90454819D01*
X54488095Y-90454819D02*
X54297619Y-90454819D01*
X54297619Y-90454819D02*
X54202381Y-90502438D01*
X54202381Y-90502438D02*
X54154762Y-90550057D01*
X54154762Y-90550057D02*
X54059524Y-90692914D01*
X54059524Y-90692914D02*
X54011905Y-90883390D01*
X54011905Y-90883390D02*
X54011905Y-91264342D01*
X54011905Y-91264342D02*
X54059524Y-91359580D01*
X54059524Y-91359580D02*
X54107143Y-91407200D01*
X54107143Y-91407200D02*
X54202381Y-91454819D01*
X54202381Y-91454819D02*
X54392857Y-91454819D01*
X54392857Y-91454819D02*
X54488095Y-91407200D01*
X54488095Y-91407200D02*
X54535714Y-91359580D01*
X54535714Y-91359580D02*
X54583333Y-91264342D01*
X54583333Y-91264342D02*
X54583333Y-91026247D01*
X54583333Y-91026247D02*
X54535714Y-90931009D01*
X54535714Y-90931009D02*
X54488095Y-90883390D01*
X54488095Y-90883390D02*
X54392857Y-90835771D01*
X54392857Y-90835771D02*
X54202381Y-90835771D01*
X54202381Y-90835771D02*
X54107143Y-90883390D01*
X54107143Y-90883390D02*
X54059524Y-90931009D01*
X54059524Y-90931009D02*
X54011905Y-91026247D01*
X40150057Y-84532738D02*
X40102438Y-84627976D01*
X40102438Y-84627976D02*
X40007200Y-84723214D01*
X40007200Y-84723214D02*
X39864342Y-84866071D01*
X39864342Y-84866071D02*
X39816723Y-84961309D01*
X39816723Y-84961309D02*
X39816723Y-85056547D01*
X40054819Y-85008928D02*
X40007200Y-85104166D01*
X40007200Y-85104166D02*
X39911961Y-85199404D01*
X39911961Y-85199404D02*
X39721485Y-85247023D01*
X39721485Y-85247023D02*
X39388152Y-85247023D01*
X39388152Y-85247023D02*
X39197676Y-85199404D01*
X39197676Y-85199404D02*
X39102438Y-85104166D01*
X39102438Y-85104166D02*
X39054819Y-85008928D01*
X39054819Y-85008928D02*
X39054819Y-84818452D01*
X39054819Y-84818452D02*
X39102438Y-84723214D01*
X39102438Y-84723214D02*
X39197676Y-84627976D01*
X39197676Y-84627976D02*
X39388152Y-84580357D01*
X39388152Y-84580357D02*
X39721485Y-84580357D01*
X39721485Y-84580357D02*
X39911961Y-84627976D01*
X39911961Y-84627976D02*
X40007200Y-84723214D01*
X40007200Y-84723214D02*
X40054819Y-84818452D01*
X40054819Y-84818452D02*
X40054819Y-85008928D01*
X39150057Y-84199404D02*
X39102438Y-84151785D01*
X39102438Y-84151785D02*
X39054819Y-84056547D01*
X39054819Y-84056547D02*
X39054819Y-83818452D01*
X39054819Y-83818452D02*
X39102438Y-83723214D01*
X39102438Y-83723214D02*
X39150057Y-83675595D01*
X39150057Y-83675595D02*
X39245295Y-83627976D01*
X39245295Y-83627976D02*
X39340533Y-83627976D01*
X39340533Y-83627976D02*
X39483390Y-83675595D01*
X39483390Y-83675595D02*
X40054819Y-84247023D01*
X40054819Y-84247023D02*
X40054819Y-83627976D01*
X39470667Y-91407200D02*
X39613524Y-91454819D01*
X39613524Y-91454819D02*
X39851619Y-91454819D01*
X39851619Y-91454819D02*
X39946857Y-91407200D01*
X39946857Y-91407200D02*
X39994476Y-91359580D01*
X39994476Y-91359580D02*
X40042095Y-91264342D01*
X40042095Y-91264342D02*
X40042095Y-91169104D01*
X40042095Y-91169104D02*
X39994476Y-91073866D01*
X39994476Y-91073866D02*
X39946857Y-91026247D01*
X39946857Y-91026247D02*
X39851619Y-90978628D01*
X39851619Y-90978628D02*
X39661143Y-90931009D01*
X39661143Y-90931009D02*
X39565905Y-90883390D01*
X39565905Y-90883390D02*
X39518286Y-90835771D01*
X39518286Y-90835771D02*
X39470667Y-90740533D01*
X39470667Y-90740533D02*
X39470667Y-90645295D01*
X39470667Y-90645295D02*
X39518286Y-90550057D01*
X39518286Y-90550057D02*
X39565905Y-90502438D01*
X39565905Y-90502438D02*
X39661143Y-90454819D01*
X39661143Y-90454819D02*
X39899238Y-90454819D01*
X39899238Y-90454819D02*
X40042095Y-90502438D01*
X40375429Y-90454819D02*
X40613524Y-91454819D01*
X40613524Y-91454819D02*
X40804000Y-90740533D01*
X40804000Y-90740533D02*
X40994476Y-91454819D01*
X40994476Y-91454819D02*
X41232572Y-90454819D01*
X41518286Y-90454819D02*
X42137333Y-90454819D01*
X42137333Y-90454819D02*
X41804000Y-90835771D01*
X41804000Y-90835771D02*
X41946857Y-90835771D01*
X41946857Y-90835771D02*
X42042095Y-90883390D01*
X42042095Y-90883390D02*
X42089714Y-90931009D01*
X42089714Y-90931009D02*
X42137333Y-91026247D01*
X42137333Y-91026247D02*
X42137333Y-91264342D01*
X42137333Y-91264342D02*
X42089714Y-91359580D01*
X42089714Y-91359580D02*
X42042095Y-91407200D01*
X42042095Y-91407200D02*
X41946857Y-91454819D01*
X41946857Y-91454819D02*
X41661143Y-91454819D01*
X41661143Y-91454819D02*
X41565905Y-91407200D01*
X41565905Y-91407200D02*
X41518286Y-91359580D01*
X38134038Y-53509056D02*
X37426932Y-52801949D01*
X37426932Y-52801949D02*
X37595290Y-52633590D01*
X37595290Y-52633590D02*
X37729977Y-52566247D01*
X37729977Y-52566247D02*
X37864664Y-52566247D01*
X37864664Y-52566247D02*
X37965680Y-52599919D01*
X37965680Y-52599919D02*
X38134038Y-52700934D01*
X38134038Y-52700934D02*
X38235054Y-52801949D01*
X38235054Y-52801949D02*
X38336069Y-52970308D01*
X38336069Y-52970308D02*
X38369741Y-53071323D01*
X38369741Y-53071323D02*
X38369741Y-53206010D01*
X38369741Y-53206010D02*
X38302397Y-53340697D01*
X38302397Y-53340697D02*
X38134038Y-53509056D01*
X38066695Y-52162186D02*
X38504428Y-51724453D01*
X38504428Y-51724453D02*
X38538099Y-52229529D01*
X38538099Y-52229529D02*
X38639115Y-52128514D01*
X38639115Y-52128514D02*
X38740130Y-52094842D01*
X38740130Y-52094842D02*
X38807473Y-52094842D01*
X38807473Y-52094842D02*
X38908489Y-52128514D01*
X38908489Y-52128514D02*
X39076847Y-52296873D01*
X39076847Y-52296873D02*
X39110519Y-52397888D01*
X39110519Y-52397888D02*
X39110519Y-52465232D01*
X39110519Y-52465232D02*
X39076847Y-52566247D01*
X39076847Y-52566247D02*
X38874817Y-52768277D01*
X38874817Y-52768277D02*
X38773802Y-52801949D01*
X38773802Y-52801949D02*
X38706458Y-52801949D01*
%TO.C,R4*%
D18*
X58477500Y-119512742D02*
X58477500Y-119987258D01*
X59522500Y-119512742D02*
X59522500Y-119987258D01*
%TO.C,C1*%
X56261252Y-124265000D02*
X55738748Y-124265000D01*
X56261252Y-125735000D02*
X55738748Y-125735000D01*
%TO.C,D4*%
X65037433Y-54175589D02*
X66734489Y-52478533D01*
X66663779Y-55801935D02*
X65037433Y-54175589D01*
X66663779Y-55801935D02*
X67088043Y-55801935D01*
X68572967Y-54317011D02*
X66734489Y-52478533D01*
X68572967Y-54317011D02*
X67088043Y-55801935D01*
%TO.C,U1*%
D19*
X47220000Y-139107000D02*
X47220000Y-156252000D01*
X49125000Y-158157000D02*
X63095000Y-158157000D01*
D20*
X51606000Y-159167000D02*
X51606000Y-158157000D01*
X60101272Y-159667000D02*
X52106000Y-159667000D01*
X60605000Y-158157000D02*
X60601272Y-159167272D01*
D19*
X63095000Y-137202000D02*
X49125000Y-137202000D01*
X65000000Y-139107000D02*
X65000000Y-156252000D01*
X47220000Y-139107000D02*
G75*
G02*
X49125000Y-137202000I1905000J0D01*
G01*
X49125000Y-158157000D02*
G75*
G02*
X47220000Y-156252000I0J1905000D01*
G01*
D20*
X52106000Y-159667000D02*
G75*
G02*
X51606000Y-159167000I0J500000D01*
G01*
X60601272Y-159167272D02*
G75*
G02*
X60101272Y-159667002I-500022J292D01*
G01*
D19*
X63095000Y-137202000D02*
G75*
G02*
X65000000Y-139107000I0J-1905000D01*
G01*
X65000000Y-156256000D02*
G75*
G02*
X63095000Y-158161000I-1905001J1D01*
G01*
D21*
X64188000Y-157024000D02*
G75*
G02*
X63684000Y-157024000I-252000J0D01*
G01*
X63684000Y-157024000D02*
G75*
G02*
X64188000Y-157024000I252000J0D01*
G01*
X65462000Y-157741000D02*
G75*
G02*
X64958000Y-157741000I-252000J0D01*
G01*
X64958000Y-157741000D02*
G75*
G02*
X65462000Y-157741000I252000J0D01*
G01*
%TO.C,Q1*%
D18*
X67552500Y-30740000D02*
X69072500Y-30740000D01*
X67552500Y-31740000D02*
X67552500Y-30740000D01*
X67552500Y-33860000D02*
X67552500Y-32860000D01*
X69072500Y-30740000D02*
X69072500Y-30790000D01*
X69072500Y-31910000D02*
X69072500Y-32690000D01*
X69072500Y-33810000D02*
X69072500Y-33860000D01*
X69072500Y-33860000D02*
X67552500Y-33860000D01*
X69612500Y-32680000D02*
X69372500Y-32350000D01*
X69852500Y-32350000D01*
X69612500Y-32680000D01*
G36*
X69612500Y-32680000D02*
G01*
X69372500Y-32350000D01*
X69852500Y-32350000D01*
X69612500Y-32680000D01*
G37*
%TO.C,Q3*%
X36890000Y-139552500D02*
X37890000Y-139552500D01*
X36890000Y-141072500D02*
X36890000Y-139552500D01*
X36940000Y-141072500D02*
X36890000Y-141072500D01*
X38840000Y-141072500D02*
X38060000Y-141072500D01*
X39010000Y-139552500D02*
X40010000Y-139552500D01*
X40010000Y-139552500D02*
X40010000Y-141072500D01*
X40010000Y-141072500D02*
X39960000Y-141072500D01*
X38070000Y-141612500D02*
X38400000Y-141372500D01*
X38400000Y-141852500D01*
X38070000Y-141612500D01*
G36*
X38400000Y-141852500D02*
G01*
X38070000Y-141612500D01*
X38400000Y-141372500D01*
X38400000Y-141852500D01*
G37*
%TO.C,SW10*%
D20*
X63536000Y-108743000D02*
X63536000Y-105633000D01*
X64906000Y-104938000D02*
X66666000Y-104938000D01*
X64906000Y-109438000D02*
X66666000Y-109438000D01*
X68036000Y-108743000D02*
X68036000Y-105633000D01*
D17*
X64136000Y-110414000D02*
G75*
G02*
X63936000Y-110414000I-100000J0D01*
G01*
X63936000Y-110414000D02*
G75*
G02*
X64136000Y-110414000I100000J0D01*
G01*
%TO.C,SW9*%
D20*
X63536000Y-121189000D02*
X63536000Y-118079000D01*
X64906000Y-117384000D02*
X66666000Y-117384000D01*
X64906000Y-121884000D02*
X66666000Y-121884000D01*
X68036000Y-121189000D02*
X68036000Y-118079000D01*
D17*
X64136000Y-122860000D02*
G75*
G02*
X63936000Y-122860000I-100000J0D01*
G01*
X63936000Y-122860000D02*
G75*
G02*
X64136000Y-122860000I100000J0D01*
G01*
%TO.C,C3*%
D18*
X45740000Y-35359420D02*
X45740000Y-35640580D01*
X46760000Y-35359420D02*
X46760000Y-35640580D01*
%TO.C,SW5*%
D20*
X38644000Y-121189000D02*
X38644000Y-118079000D01*
X40014000Y-117384000D02*
X41774000Y-117384000D01*
X40014000Y-121884000D02*
X41774000Y-121884000D01*
X43144000Y-121189000D02*
X43144000Y-118079000D01*
D17*
X39244000Y-122860000D02*
G75*
G02*
X39044000Y-122860000I-100000J0D01*
G01*
X39044000Y-122860000D02*
G75*
G02*
X39244000Y-122860000I100000J0D01*
G01*
%TO.C,SW2*%
D20*
X38644000Y-39131000D02*
X38644000Y-42241000D01*
X41774000Y-38436000D02*
X40014000Y-38436000D01*
X41774000Y-42936000D02*
X40014000Y-42936000D01*
X43144000Y-39131000D02*
X43144000Y-42241000D01*
D17*
X42744000Y-37460000D02*
G75*
G02*
X42544000Y-37460000I-100000J0D01*
G01*
X42544000Y-37460000D02*
G75*
G02*
X42744000Y-37460000I100000J0D01*
G01*
%TO.C,SW7*%
D20*
X51090000Y-108743000D02*
X51090000Y-105633000D01*
X52460000Y-104938000D02*
X54220000Y-104938000D01*
X52460000Y-109438000D02*
X54220000Y-109438000D01*
X55590000Y-108743000D02*
X55590000Y-105633000D01*
D17*
X51690000Y-110414000D02*
G75*
G02*
X51490000Y-110414000I-100000J0D01*
G01*
X51490000Y-110414000D02*
G75*
G02*
X51690000Y-110414000I100000J0D01*
G01*
%TO.C,R9*%
D18*
X69662258Y-154477500D02*
X69187742Y-154477500D01*
X69662258Y-155522500D02*
X69187742Y-155522500D01*
%TO.C,SW4*%
D20*
X38586910Y-108769000D02*
X38586910Y-105659000D01*
X39956910Y-104964000D02*
X41716910Y-104964000D01*
X39956910Y-109464000D02*
X41716910Y-109464000D01*
X43086910Y-108769000D02*
X43086910Y-105659000D01*
D17*
X39186910Y-110440000D02*
G75*
G02*
X38986910Y-110440000I-100000J0D01*
G01*
X38986910Y-110440000D02*
G75*
G02*
X39186910Y-110440000I100000J0D01*
G01*
%TO.C,D5*%
D18*
X65249565Y-81040379D02*
X65249565Y-81464643D01*
X65249565Y-81040379D02*
X66875911Y-79414033D01*
X66734489Y-82949567D02*
X65249565Y-81464643D01*
X66734489Y-82949567D02*
X68572967Y-81111089D01*
X66875911Y-79414033D02*
X68572967Y-81111089D01*
%TO.C,SW1*%
D20*
X63500000Y-39131000D02*
X63500000Y-42241000D01*
X66630000Y-38436000D02*
X64870000Y-38436000D01*
X66630000Y-42936000D02*
X64870000Y-42936000D01*
X68000000Y-39131000D02*
X68000000Y-42241000D01*
D17*
X67600000Y-37460000D02*
G75*
G02*
X67400000Y-37460000I-100000J0D01*
G01*
X67400000Y-37460000D02*
G75*
G02*
X67600000Y-37460000I100000J0D01*
G01*
%TO.C,R11*%
D18*
X36977500Y-144237258D02*
X36977500Y-143762742D01*
X38022500Y-144237258D02*
X38022500Y-143762742D01*
%TO.C,SW11*%
D20*
X63536000Y-96297000D02*
X63536000Y-93187000D01*
X64906000Y-92492000D02*
X66666000Y-92492000D01*
X64906000Y-96992000D02*
X66666000Y-96992000D01*
X68036000Y-96297000D02*
X68036000Y-93187000D01*
D17*
X64136000Y-97968000D02*
G75*
G02*
X63936000Y-97968000I-100000J0D01*
G01*
X63936000Y-97968000D02*
G75*
G02*
X64136000Y-97968000I100000J0D01*
G01*
%TO.C,U3*%
D18*
X50524000Y-126454000D02*
X56044000Y-126454000D01*
X50524000Y-126629000D02*
X50524000Y-126454000D01*
X50524000Y-134874000D02*
X50524000Y-134699000D01*
X56044000Y-126454000D02*
X56044000Y-126629000D01*
X56044000Y-134699000D02*
X56044000Y-134874000D01*
X56044000Y-134874000D02*
X50524000Y-134874000D01*
X49784000Y-126624000D02*
X49444000Y-126154000D01*
X50124000Y-126154000D01*
X49784000Y-126624000D01*
G36*
X49784000Y-126624000D02*
G01*
X49444000Y-126154000D01*
X50124000Y-126154000D01*
X49784000Y-126624000D01*
G37*
%TO.C,D2*%
X38101933Y-81111089D02*
X39586857Y-79626165D01*
X38101933Y-81111089D02*
X39940411Y-82949567D01*
X40011121Y-79626165D02*
X39586857Y-79626165D01*
X40011121Y-79626165D02*
X41637467Y-81252511D01*
X41637467Y-81252511D02*
X39940411Y-82949567D01*
%TO.C,R1*%
X68477500Y-35987258D02*
X68477500Y-35512742D01*
X69522500Y-35987258D02*
X69522500Y-35512742D01*
%TO.C,SW8*%
D20*
X51090000Y-121189000D02*
X51090000Y-118079000D01*
X52460000Y-117384000D02*
X54220000Y-117384000D01*
X52460000Y-121884000D02*
X54220000Y-121884000D01*
X55590000Y-121189000D02*
X55590000Y-118079000D01*
D17*
X51690000Y-122860000D02*
G75*
G02*
X51490000Y-122860000I-100000J0D01*
G01*
X51490000Y-122860000D02*
G75*
G02*
X51690000Y-122860000I100000J0D01*
G01*
%TO.C,R5*%
D18*
X59477500Y-122837742D02*
X59477500Y-123312258D01*
X60522500Y-122837742D02*
X60522500Y-123312258D01*
%TO.C,ENC1*%
D15*
X70537455Y-67714045D02*
G75*
G02*
X36137455Y-67714045I-17200000J0D01*
G01*
X36137455Y-67714045D02*
G75*
G02*
X70537455Y-67714045I17200000J0D01*
G01*
%TO.C,SW6*%
D20*
X51090000Y-96297000D02*
X51090000Y-93187000D01*
X52460000Y-92492000D02*
X54220000Y-92492000D01*
X52460000Y-96992000D02*
X54220000Y-96992000D01*
X55590000Y-96297000D02*
X55590000Y-93187000D01*
D17*
X51690000Y-97968000D02*
G75*
G02*
X51490000Y-97968000I-100000J0D01*
G01*
X51490000Y-97968000D02*
G75*
G02*
X51690000Y-97968000I100000J0D01*
G01*
%TO.C,Q2*%
D18*
X40440000Y-83677500D02*
X41440000Y-83677500D01*
X40440000Y-85197500D02*
X40440000Y-83677500D01*
X40490000Y-85197500D02*
X40440000Y-85197500D01*
X42390000Y-85197500D02*
X41610000Y-85197500D01*
X42560000Y-83677500D02*
X43560000Y-83677500D01*
X43560000Y-83677500D02*
X43560000Y-85197500D01*
X43560000Y-85197500D02*
X43510000Y-85197500D01*
X41620000Y-85737500D02*
X41950000Y-85497500D01*
X41950000Y-85977500D01*
X41620000Y-85737500D01*
G36*
X41950000Y-85977500D02*
G01*
X41620000Y-85737500D01*
X41950000Y-85497500D01*
X41950000Y-85977500D01*
G37*
%TO.C,SW3*%
D20*
X38644000Y-96297000D02*
X38644000Y-93187000D01*
X40014000Y-92492000D02*
X41774000Y-92492000D01*
X40014000Y-96992000D02*
X41774000Y-96992000D01*
X43144000Y-96297000D02*
X43144000Y-93187000D01*
D17*
X39244000Y-97968000D02*
G75*
G02*
X39044000Y-97968000I-100000J0D01*
G01*
X39044000Y-97968000D02*
G75*
G02*
X39244000Y-97968000I100000J0D01*
G01*
%TO.C,D3*%
D18*
X39798989Y-56014067D02*
X38101933Y-54317011D01*
X39940411Y-52478533D02*
X38101933Y-54317011D01*
X39940411Y-52478533D02*
X41425335Y-53963457D01*
X41425335Y-54387721D02*
X39798989Y-56014067D01*
X41425335Y-54387721D02*
X41425335Y-53963457D01*
%TD*%
M02*
