%TF.GenerationSoftware,KiCad,Pcbnew,10.0.3*%
%TF.CreationDate,2026-07-17T04:50:17-07:00*%
%TF.ProjectId,c6remote,63367265-6d6f-4746-952e-6b696361645f,rev?*%
%TF.SameCoordinates,Original*%
%TF.FileFunction,Paste,Top*%
%TF.FilePolarity,Positive*%
%FSLAX46Y46*%
G04 Gerber Fmt 4.6, Leading zero omitted, Abs format (unit mm)*
G04 Created by KiCad (PCBNEW 10.0.3) date 2026-07-17 04:50:17*
%MOMM*%
%LPD*%
G01*
G04 APERTURE LIST*
G04 Aperture macros list*
%AMRoundRect*
0 Rectangle with rounded corners*
0 $1 Rounding radius*
0 $2 $3 $4 $5 $6 $7 $8 $9 X,Y pos of 4 corners*
0 Add a 4 corners polygon primitive as box body*
4,1,4,$2,$3,$4,$5,$6,$7,$8,$9,$2,$3,0*
0 Add four circle primitives for the rounded corners*
1,1,$1+$1,$2,$3*
1,1,$1+$1,$4,$5*
1,1,$1+$1,$6,$7*
1,1,$1+$1,$8,$9*
0 Add four rect primitives between the rounded corners*
20,1,$1+$1,$2,$3,$4,$5,0*
20,1,$1+$1,$4,$5,$6,$7,0*
20,1,$1+$1,$6,$7,$8,$9,0*
20,1,$1+$1,$8,$9,$2,$3,0*%
G04 Aperture macros list end*
%ADD10C,0.010000*%
%ADD11RoundRect,0.200000X-0.275000X0.200000X-0.275000X-0.200000X0.275000X-0.200000X0.275000X0.200000X0*%
%ADD12RoundRect,0.250000X0.250000X0.475000X-0.250000X0.475000X-0.250000X-0.475000X0.250000X-0.475000X0*%
%ADD13RoundRect,0.500000X0.875000X0.500000X-0.875000X0.500000X-0.875000X-0.500000X0.875000X-0.500000X0*%
%ADD14C,1.700000*%
%ADD15RoundRect,0.150000X0.587500X0.150000X-0.587500X0.150000X-0.587500X-0.150000X0.587500X-0.150000X0*%
%ADD16RoundRect,0.250000X0.475000X-0.250000X0.475000X0.250000X-0.475000X0.250000X-0.475000X-0.250000X0*%
%ADD17RoundRect,0.225000X0.225000X0.250000X-0.225000X0.250000X-0.225000X-0.250000X0.225000X-0.250000X0*%
%ADD18RoundRect,0.200000X-0.200000X-0.275000X0.200000X-0.275000X0.200000X0.275000X-0.200000X0.275000X0*%
%ADD19RoundRect,0.100000X-0.850000X-0.100000X0.850000X-0.100000X0.850000X0.100000X-0.850000X0.100000X0*%
%ADD20RoundRect,0.200000X0.275000X-0.200000X0.275000X0.200000X-0.275000X0.200000X-0.275000X-0.200000X0*%
%ADD21R,0.850000X1.600000*%
G04 APERTURE END LIST*
D10*
%TO.C,SW10*%
X63411000Y-105988000D02*
X63211000Y-105988000D01*
X63211000Y-104888000D01*
X63411000Y-104888000D01*
X63411000Y-105088000D01*
X63911000Y-105088000D01*
X63911000Y-105788000D01*
X63411000Y-105788000D01*
X63411000Y-105988000D01*
G36*
X63411000Y-105088000D02*
G01*
X63911000Y-105088000D01*
X63911000Y-105788000D01*
X63411000Y-105788000D01*
X63411000Y-105988000D01*
X63211000Y-105988000D01*
X63211000Y-104888000D01*
X63411000Y-104888000D01*
X63411000Y-105088000D01*
G37*
X63411000Y-109488000D02*
X63211000Y-109488000D01*
X63211000Y-108388000D01*
X63411000Y-108388000D01*
X63411000Y-108588000D01*
X63911000Y-108588000D01*
X63911000Y-109288000D01*
X63411000Y-109288000D01*
X63411000Y-109488000D01*
G36*
X63411000Y-108588000D02*
G01*
X63911000Y-108588000D01*
X63911000Y-109288000D01*
X63411000Y-109288000D01*
X63411000Y-109488000D01*
X63211000Y-109488000D01*
X63211000Y-108388000D01*
X63411000Y-108388000D01*
X63411000Y-108588000D01*
G37*
X68161000Y-105788000D02*
X67661000Y-105788000D01*
X67661000Y-105088000D01*
X68161000Y-105088000D01*
X68161000Y-104888000D01*
X68361000Y-104888000D01*
X68361000Y-105988000D01*
X68161000Y-105988000D01*
X68161000Y-105788000D01*
G36*
X68361000Y-105988000D02*
G01*
X68161000Y-105988000D01*
X68161000Y-105788000D01*
X67661000Y-105788000D01*
X67661000Y-105088000D01*
X68161000Y-105088000D01*
X68161000Y-104888000D01*
X68361000Y-104888000D01*
X68361000Y-105988000D01*
G37*
X68161000Y-109288000D02*
X67661000Y-109288000D01*
X67661000Y-108588000D01*
X68161000Y-108588000D01*
X68161000Y-108388000D01*
X68361000Y-108388000D01*
X68361000Y-109488000D01*
X68161000Y-109488000D01*
X68161000Y-109288000D01*
G36*
X68361000Y-109488000D02*
G01*
X68161000Y-109488000D01*
X68161000Y-109288000D01*
X67661000Y-109288000D01*
X67661000Y-108588000D01*
X68161000Y-108588000D01*
X68161000Y-108388000D01*
X68361000Y-108388000D01*
X68361000Y-109488000D01*
G37*
%TO.C,SW9*%
X63411000Y-118434000D02*
X63211000Y-118434000D01*
X63211000Y-117334000D01*
X63411000Y-117334000D01*
X63411000Y-117534000D01*
X63911000Y-117534000D01*
X63911000Y-118234000D01*
X63411000Y-118234000D01*
X63411000Y-118434000D01*
G36*
X63411000Y-117534000D02*
G01*
X63911000Y-117534000D01*
X63911000Y-118234000D01*
X63411000Y-118234000D01*
X63411000Y-118434000D01*
X63211000Y-118434000D01*
X63211000Y-117334000D01*
X63411000Y-117334000D01*
X63411000Y-117534000D01*
G37*
X63411000Y-121934000D02*
X63211000Y-121934000D01*
X63211000Y-120834000D01*
X63411000Y-120834000D01*
X63411000Y-121034000D01*
X63911000Y-121034000D01*
X63911000Y-121734000D01*
X63411000Y-121734000D01*
X63411000Y-121934000D01*
G36*
X63411000Y-121034000D02*
G01*
X63911000Y-121034000D01*
X63911000Y-121734000D01*
X63411000Y-121734000D01*
X63411000Y-121934000D01*
X63211000Y-121934000D01*
X63211000Y-120834000D01*
X63411000Y-120834000D01*
X63411000Y-121034000D01*
G37*
X68161000Y-118234000D02*
X67661000Y-118234000D01*
X67661000Y-117534000D01*
X68161000Y-117534000D01*
X68161000Y-117334000D01*
X68361000Y-117334000D01*
X68361000Y-118434000D01*
X68161000Y-118434000D01*
X68161000Y-118234000D01*
G36*
X68361000Y-118434000D02*
G01*
X68161000Y-118434000D01*
X68161000Y-118234000D01*
X67661000Y-118234000D01*
X67661000Y-117534000D01*
X68161000Y-117534000D01*
X68161000Y-117334000D01*
X68361000Y-117334000D01*
X68361000Y-118434000D01*
G37*
X68161000Y-121734000D02*
X67661000Y-121734000D01*
X67661000Y-121034000D01*
X68161000Y-121034000D01*
X68161000Y-120834000D01*
X68361000Y-120834000D01*
X68361000Y-121934000D01*
X68161000Y-121934000D01*
X68161000Y-121734000D01*
G36*
X68361000Y-121934000D02*
G01*
X68161000Y-121934000D01*
X68161000Y-121734000D01*
X67661000Y-121734000D01*
X67661000Y-121034000D01*
X68161000Y-121034000D01*
X68161000Y-120834000D01*
X68361000Y-120834000D01*
X68361000Y-121934000D01*
G37*
%TO.C,SW5*%
X38519000Y-118434000D02*
X38319000Y-118434000D01*
X38319000Y-117334000D01*
X38519000Y-117334000D01*
X38519000Y-117534000D01*
X39019000Y-117534000D01*
X39019000Y-118234000D01*
X38519000Y-118234000D01*
X38519000Y-118434000D01*
G36*
X38519000Y-117534000D02*
G01*
X39019000Y-117534000D01*
X39019000Y-118234000D01*
X38519000Y-118234000D01*
X38519000Y-118434000D01*
X38319000Y-118434000D01*
X38319000Y-117334000D01*
X38519000Y-117334000D01*
X38519000Y-117534000D01*
G37*
X38519000Y-121934000D02*
X38319000Y-121934000D01*
X38319000Y-120834000D01*
X38519000Y-120834000D01*
X38519000Y-121034000D01*
X39019000Y-121034000D01*
X39019000Y-121734000D01*
X38519000Y-121734000D01*
X38519000Y-121934000D01*
G36*
X38519000Y-121034000D02*
G01*
X39019000Y-121034000D01*
X39019000Y-121734000D01*
X38519000Y-121734000D01*
X38519000Y-121934000D01*
X38319000Y-121934000D01*
X38319000Y-120834000D01*
X38519000Y-120834000D01*
X38519000Y-121034000D01*
G37*
X43269000Y-118234000D02*
X42769000Y-118234000D01*
X42769000Y-117534000D01*
X43269000Y-117534000D01*
X43269000Y-117334000D01*
X43469000Y-117334000D01*
X43469000Y-118434000D01*
X43269000Y-118434000D01*
X43269000Y-118234000D01*
G36*
X43469000Y-118434000D02*
G01*
X43269000Y-118434000D01*
X43269000Y-118234000D01*
X42769000Y-118234000D01*
X42769000Y-117534000D01*
X43269000Y-117534000D01*
X43269000Y-117334000D01*
X43469000Y-117334000D01*
X43469000Y-118434000D01*
G37*
X43269000Y-121734000D02*
X42769000Y-121734000D01*
X42769000Y-121034000D01*
X43269000Y-121034000D01*
X43269000Y-120834000D01*
X43469000Y-120834000D01*
X43469000Y-121934000D01*
X43269000Y-121934000D01*
X43269000Y-121734000D01*
G36*
X43469000Y-121934000D02*
G01*
X43269000Y-121934000D01*
X43269000Y-121734000D01*
X42769000Y-121734000D01*
X42769000Y-121034000D01*
X43269000Y-121034000D01*
X43269000Y-120834000D01*
X43469000Y-120834000D01*
X43469000Y-121934000D01*
G37*
%TO.C,SW2*%
X38519000Y-40456000D02*
X38319000Y-40456000D01*
X38319000Y-39356000D01*
X38519000Y-39356000D01*
X38519000Y-39556000D01*
X39019000Y-39556000D01*
X39019000Y-40256000D01*
X38519000Y-40256000D01*
X38519000Y-40456000D01*
G36*
X38519000Y-39556000D02*
G01*
X39019000Y-39556000D01*
X39019000Y-40256000D01*
X38519000Y-40256000D01*
X38519000Y-40456000D01*
X38319000Y-40456000D01*
X38319000Y-39356000D01*
X38519000Y-39356000D01*
X38519000Y-39556000D01*
G37*
X38519000Y-43956000D02*
X38319000Y-43956000D01*
X38319000Y-42856000D01*
X38519000Y-42856000D01*
X38519000Y-43056000D01*
X39019000Y-43056000D01*
X39019000Y-43756000D01*
X38519000Y-43756000D01*
X38519000Y-43956000D01*
G36*
X38519000Y-43056000D02*
G01*
X39019000Y-43056000D01*
X39019000Y-43756000D01*
X38519000Y-43756000D01*
X38519000Y-43956000D01*
X38319000Y-43956000D01*
X38319000Y-42856000D01*
X38519000Y-42856000D01*
X38519000Y-43056000D01*
G37*
X43269000Y-40256000D02*
X42769000Y-40256000D01*
X42769000Y-39556000D01*
X43269000Y-39556000D01*
X43269000Y-39356000D01*
X43469000Y-39356000D01*
X43469000Y-40456000D01*
X43269000Y-40456000D01*
X43269000Y-40256000D01*
G36*
X43469000Y-40456000D02*
G01*
X43269000Y-40456000D01*
X43269000Y-40256000D01*
X42769000Y-40256000D01*
X42769000Y-39556000D01*
X43269000Y-39556000D01*
X43269000Y-39356000D01*
X43469000Y-39356000D01*
X43469000Y-40456000D01*
G37*
X43269000Y-43756000D02*
X42769000Y-43756000D01*
X42769000Y-43056000D01*
X43269000Y-43056000D01*
X43269000Y-42856000D01*
X43469000Y-42856000D01*
X43469000Y-43956000D01*
X43269000Y-43956000D01*
X43269000Y-43756000D01*
G36*
X43469000Y-43956000D02*
G01*
X43269000Y-43956000D01*
X43269000Y-43756000D01*
X42769000Y-43756000D01*
X42769000Y-43056000D01*
X43269000Y-43056000D01*
X43269000Y-42856000D01*
X43469000Y-42856000D01*
X43469000Y-43956000D01*
G37*
%TO.C,SW7*%
X50965000Y-105988000D02*
X50765000Y-105988000D01*
X50765000Y-104888000D01*
X50965000Y-104888000D01*
X50965000Y-105088000D01*
X51465000Y-105088000D01*
X51465000Y-105788000D01*
X50965000Y-105788000D01*
X50965000Y-105988000D01*
G36*
X50965000Y-105088000D02*
G01*
X51465000Y-105088000D01*
X51465000Y-105788000D01*
X50965000Y-105788000D01*
X50965000Y-105988000D01*
X50765000Y-105988000D01*
X50765000Y-104888000D01*
X50965000Y-104888000D01*
X50965000Y-105088000D01*
G37*
X50965000Y-109488000D02*
X50765000Y-109488000D01*
X50765000Y-108388000D01*
X50965000Y-108388000D01*
X50965000Y-108588000D01*
X51465000Y-108588000D01*
X51465000Y-109288000D01*
X50965000Y-109288000D01*
X50965000Y-109488000D01*
G36*
X50965000Y-108588000D02*
G01*
X51465000Y-108588000D01*
X51465000Y-109288000D01*
X50965000Y-109288000D01*
X50965000Y-109488000D01*
X50765000Y-109488000D01*
X50765000Y-108388000D01*
X50965000Y-108388000D01*
X50965000Y-108588000D01*
G37*
X55715000Y-105788000D02*
X55215000Y-105788000D01*
X55215000Y-105088000D01*
X55715000Y-105088000D01*
X55715000Y-104888000D01*
X55915000Y-104888000D01*
X55915000Y-105988000D01*
X55715000Y-105988000D01*
X55715000Y-105788000D01*
G36*
X55915000Y-105988000D02*
G01*
X55715000Y-105988000D01*
X55715000Y-105788000D01*
X55215000Y-105788000D01*
X55215000Y-105088000D01*
X55715000Y-105088000D01*
X55715000Y-104888000D01*
X55915000Y-104888000D01*
X55915000Y-105988000D01*
G37*
X55715000Y-109288000D02*
X55215000Y-109288000D01*
X55215000Y-108588000D01*
X55715000Y-108588000D01*
X55715000Y-108388000D01*
X55915000Y-108388000D01*
X55915000Y-109488000D01*
X55715000Y-109488000D01*
X55715000Y-109288000D01*
G36*
X55915000Y-109488000D02*
G01*
X55715000Y-109488000D01*
X55715000Y-109288000D01*
X55215000Y-109288000D01*
X55215000Y-108588000D01*
X55715000Y-108588000D01*
X55715000Y-108388000D01*
X55915000Y-108388000D01*
X55915000Y-109488000D01*
G37*
%TO.C,SW4*%
X38461910Y-106014000D02*
X38261910Y-106014000D01*
X38261910Y-104914000D01*
X38461910Y-104914000D01*
X38461910Y-105114000D01*
X38961910Y-105114000D01*
X38961910Y-105814000D01*
X38461910Y-105814000D01*
X38461910Y-106014000D01*
G36*
X38461910Y-105114000D02*
G01*
X38961910Y-105114000D01*
X38961910Y-105814000D01*
X38461910Y-105814000D01*
X38461910Y-106014000D01*
X38261910Y-106014000D01*
X38261910Y-104914000D01*
X38461910Y-104914000D01*
X38461910Y-105114000D01*
G37*
X38461910Y-109514000D02*
X38261910Y-109514000D01*
X38261910Y-108414000D01*
X38461910Y-108414000D01*
X38461910Y-108614000D01*
X38961910Y-108614000D01*
X38961910Y-109314000D01*
X38461910Y-109314000D01*
X38461910Y-109514000D01*
G36*
X38461910Y-108614000D02*
G01*
X38961910Y-108614000D01*
X38961910Y-109314000D01*
X38461910Y-109314000D01*
X38461910Y-109514000D01*
X38261910Y-109514000D01*
X38261910Y-108414000D01*
X38461910Y-108414000D01*
X38461910Y-108614000D01*
G37*
X43211910Y-105814000D02*
X42711910Y-105814000D01*
X42711910Y-105114000D01*
X43211910Y-105114000D01*
X43211910Y-104914000D01*
X43411910Y-104914000D01*
X43411910Y-106014000D01*
X43211910Y-106014000D01*
X43211910Y-105814000D01*
G36*
X43411910Y-106014000D02*
G01*
X43211910Y-106014000D01*
X43211910Y-105814000D01*
X42711910Y-105814000D01*
X42711910Y-105114000D01*
X43211910Y-105114000D01*
X43211910Y-104914000D01*
X43411910Y-104914000D01*
X43411910Y-106014000D01*
G37*
X43211910Y-109314000D02*
X42711910Y-109314000D01*
X42711910Y-108614000D01*
X43211910Y-108614000D01*
X43211910Y-108414000D01*
X43411910Y-108414000D01*
X43411910Y-109514000D01*
X43211910Y-109514000D01*
X43211910Y-109314000D01*
G36*
X43411910Y-109514000D02*
G01*
X43211910Y-109514000D01*
X43211910Y-109314000D01*
X42711910Y-109314000D01*
X42711910Y-108614000D01*
X43211910Y-108614000D01*
X43211910Y-108414000D01*
X43411910Y-108414000D01*
X43411910Y-109514000D01*
G37*
%TO.C,SW1*%
X63411000Y-40456000D02*
X63211000Y-40456000D01*
X63211000Y-39356000D01*
X63411000Y-39356000D01*
X63411000Y-39556000D01*
X63911000Y-39556000D01*
X63911000Y-40256000D01*
X63411000Y-40256000D01*
X63411000Y-40456000D01*
G36*
X63411000Y-39556000D02*
G01*
X63911000Y-39556000D01*
X63911000Y-40256000D01*
X63411000Y-40256000D01*
X63411000Y-40456000D01*
X63211000Y-40456000D01*
X63211000Y-39356000D01*
X63411000Y-39356000D01*
X63411000Y-39556000D01*
G37*
X63411000Y-43956000D02*
X63211000Y-43956000D01*
X63211000Y-42856000D01*
X63411000Y-42856000D01*
X63411000Y-43056000D01*
X63911000Y-43056000D01*
X63911000Y-43756000D01*
X63411000Y-43756000D01*
X63411000Y-43956000D01*
G36*
X63411000Y-43056000D02*
G01*
X63911000Y-43056000D01*
X63911000Y-43756000D01*
X63411000Y-43756000D01*
X63411000Y-43956000D01*
X63211000Y-43956000D01*
X63211000Y-42856000D01*
X63411000Y-42856000D01*
X63411000Y-43056000D01*
G37*
X68161000Y-40256000D02*
X67661000Y-40256000D01*
X67661000Y-39556000D01*
X68161000Y-39556000D01*
X68161000Y-39356000D01*
X68361000Y-39356000D01*
X68361000Y-40456000D01*
X68161000Y-40456000D01*
X68161000Y-40256000D01*
G36*
X68361000Y-40456000D02*
G01*
X68161000Y-40456000D01*
X68161000Y-40256000D01*
X67661000Y-40256000D01*
X67661000Y-39556000D01*
X68161000Y-39556000D01*
X68161000Y-39356000D01*
X68361000Y-39356000D01*
X68361000Y-40456000D01*
G37*
X68161000Y-43756000D02*
X67661000Y-43756000D01*
X67661000Y-43056000D01*
X68161000Y-43056000D01*
X68161000Y-42856000D01*
X68361000Y-42856000D01*
X68361000Y-43956000D01*
X68161000Y-43956000D01*
X68161000Y-43756000D01*
G36*
X68361000Y-43956000D02*
G01*
X68161000Y-43956000D01*
X68161000Y-43756000D01*
X67661000Y-43756000D01*
X67661000Y-43056000D01*
X68161000Y-43056000D01*
X68161000Y-42856000D01*
X68361000Y-42856000D01*
X68361000Y-43956000D01*
G37*
%TO.C,SW11*%
X63411000Y-93542000D02*
X63211000Y-93542000D01*
X63211000Y-92442000D01*
X63411000Y-92442000D01*
X63411000Y-92642000D01*
X63911000Y-92642000D01*
X63911000Y-93342000D01*
X63411000Y-93342000D01*
X63411000Y-93542000D01*
G36*
X63411000Y-92642000D02*
G01*
X63911000Y-92642000D01*
X63911000Y-93342000D01*
X63411000Y-93342000D01*
X63411000Y-93542000D01*
X63211000Y-93542000D01*
X63211000Y-92442000D01*
X63411000Y-92442000D01*
X63411000Y-92642000D01*
G37*
X63411000Y-97042000D02*
X63211000Y-97042000D01*
X63211000Y-95942000D01*
X63411000Y-95942000D01*
X63411000Y-96142000D01*
X63911000Y-96142000D01*
X63911000Y-96842000D01*
X63411000Y-96842000D01*
X63411000Y-97042000D01*
G36*
X63411000Y-96142000D02*
G01*
X63911000Y-96142000D01*
X63911000Y-96842000D01*
X63411000Y-96842000D01*
X63411000Y-97042000D01*
X63211000Y-97042000D01*
X63211000Y-95942000D01*
X63411000Y-95942000D01*
X63411000Y-96142000D01*
G37*
X68161000Y-93342000D02*
X67661000Y-93342000D01*
X67661000Y-92642000D01*
X68161000Y-92642000D01*
X68161000Y-92442000D01*
X68361000Y-92442000D01*
X68361000Y-93542000D01*
X68161000Y-93542000D01*
X68161000Y-93342000D01*
G36*
X68361000Y-93542000D02*
G01*
X68161000Y-93542000D01*
X68161000Y-93342000D01*
X67661000Y-93342000D01*
X67661000Y-92642000D01*
X68161000Y-92642000D01*
X68161000Y-92442000D01*
X68361000Y-92442000D01*
X68361000Y-93542000D01*
G37*
X68161000Y-96842000D02*
X67661000Y-96842000D01*
X67661000Y-96142000D01*
X68161000Y-96142000D01*
X68161000Y-95942000D01*
X68361000Y-95942000D01*
X68361000Y-97042000D01*
X68161000Y-97042000D01*
X68161000Y-96842000D01*
G36*
X68361000Y-97042000D02*
G01*
X68161000Y-97042000D01*
X68161000Y-96842000D01*
X67661000Y-96842000D01*
X67661000Y-96142000D01*
X68161000Y-96142000D01*
X68161000Y-95942000D01*
X68361000Y-95942000D01*
X68361000Y-97042000D01*
G37*
%TO.C,SW8*%
X50965000Y-118434000D02*
X50765000Y-118434000D01*
X50765000Y-117334000D01*
X50965000Y-117334000D01*
X50965000Y-117534000D01*
X51465000Y-117534000D01*
X51465000Y-118234000D01*
X50965000Y-118234000D01*
X50965000Y-118434000D01*
G36*
X50965000Y-117534000D02*
G01*
X51465000Y-117534000D01*
X51465000Y-118234000D01*
X50965000Y-118234000D01*
X50965000Y-118434000D01*
X50765000Y-118434000D01*
X50765000Y-117334000D01*
X50965000Y-117334000D01*
X50965000Y-117534000D01*
G37*
X50965000Y-121934000D02*
X50765000Y-121934000D01*
X50765000Y-120834000D01*
X50965000Y-120834000D01*
X50965000Y-121034000D01*
X51465000Y-121034000D01*
X51465000Y-121734000D01*
X50965000Y-121734000D01*
X50965000Y-121934000D01*
G36*
X50965000Y-121034000D02*
G01*
X51465000Y-121034000D01*
X51465000Y-121734000D01*
X50965000Y-121734000D01*
X50965000Y-121934000D01*
X50765000Y-121934000D01*
X50765000Y-120834000D01*
X50965000Y-120834000D01*
X50965000Y-121034000D01*
G37*
X55715000Y-118234000D02*
X55215000Y-118234000D01*
X55215000Y-117534000D01*
X55715000Y-117534000D01*
X55715000Y-117334000D01*
X55915000Y-117334000D01*
X55915000Y-118434000D01*
X55715000Y-118434000D01*
X55715000Y-118234000D01*
G36*
X55915000Y-118434000D02*
G01*
X55715000Y-118434000D01*
X55715000Y-118234000D01*
X55215000Y-118234000D01*
X55215000Y-117534000D01*
X55715000Y-117534000D01*
X55715000Y-117334000D01*
X55915000Y-117334000D01*
X55915000Y-118434000D01*
G37*
X55715000Y-121734000D02*
X55215000Y-121734000D01*
X55215000Y-121034000D01*
X55715000Y-121034000D01*
X55715000Y-120834000D01*
X55915000Y-120834000D01*
X55915000Y-121934000D01*
X55715000Y-121934000D01*
X55715000Y-121734000D01*
G36*
X55915000Y-121934000D02*
G01*
X55715000Y-121934000D01*
X55715000Y-121734000D01*
X55215000Y-121734000D01*
X55215000Y-121034000D01*
X55715000Y-121034000D01*
X55715000Y-120834000D01*
X55915000Y-120834000D01*
X55915000Y-121934000D01*
G37*
%TO.C,SW6*%
X50965000Y-93542000D02*
X50765000Y-93542000D01*
X50765000Y-92442000D01*
X50965000Y-92442000D01*
X50965000Y-92642000D01*
X51465000Y-92642000D01*
X51465000Y-93342000D01*
X50965000Y-93342000D01*
X50965000Y-93542000D01*
G36*
X50965000Y-92642000D02*
G01*
X51465000Y-92642000D01*
X51465000Y-93342000D01*
X50965000Y-93342000D01*
X50965000Y-93542000D01*
X50765000Y-93542000D01*
X50765000Y-92442000D01*
X50965000Y-92442000D01*
X50965000Y-92642000D01*
G37*
X50965000Y-97042000D02*
X50765000Y-97042000D01*
X50765000Y-95942000D01*
X50965000Y-95942000D01*
X50965000Y-96142000D01*
X51465000Y-96142000D01*
X51465000Y-96842000D01*
X50965000Y-96842000D01*
X50965000Y-97042000D01*
G36*
X50965000Y-96142000D02*
G01*
X51465000Y-96142000D01*
X51465000Y-96842000D01*
X50965000Y-96842000D01*
X50965000Y-97042000D01*
X50765000Y-97042000D01*
X50765000Y-95942000D01*
X50965000Y-95942000D01*
X50965000Y-96142000D01*
G37*
X55715000Y-93342000D02*
X55215000Y-93342000D01*
X55215000Y-92642000D01*
X55715000Y-92642000D01*
X55715000Y-92442000D01*
X55915000Y-92442000D01*
X55915000Y-93542000D01*
X55715000Y-93542000D01*
X55715000Y-93342000D01*
G36*
X55915000Y-93542000D02*
G01*
X55715000Y-93542000D01*
X55715000Y-93342000D01*
X55215000Y-93342000D01*
X55215000Y-92642000D01*
X55715000Y-92642000D01*
X55715000Y-92442000D01*
X55915000Y-92442000D01*
X55915000Y-93542000D01*
G37*
X55715000Y-96842000D02*
X55215000Y-96842000D01*
X55215000Y-96142000D01*
X55715000Y-96142000D01*
X55715000Y-95942000D01*
X55915000Y-95942000D01*
X55915000Y-97042000D01*
X55715000Y-97042000D01*
X55715000Y-96842000D01*
G36*
X55915000Y-97042000D02*
G01*
X55715000Y-97042000D01*
X55715000Y-96842000D01*
X55215000Y-96842000D01*
X55215000Y-96142000D01*
X55715000Y-96142000D01*
X55715000Y-95942000D01*
X55915000Y-95942000D01*
X55915000Y-97042000D01*
G37*
%TO.C,SW3*%
X38519000Y-93542000D02*
X38319000Y-93542000D01*
X38319000Y-92442000D01*
X38519000Y-92442000D01*
X38519000Y-92642000D01*
X39019000Y-92642000D01*
X39019000Y-93342000D01*
X38519000Y-93342000D01*
X38519000Y-93542000D01*
G36*
X38519000Y-92642000D02*
G01*
X39019000Y-92642000D01*
X39019000Y-93342000D01*
X38519000Y-93342000D01*
X38519000Y-93542000D01*
X38319000Y-93542000D01*
X38319000Y-92442000D01*
X38519000Y-92442000D01*
X38519000Y-92642000D01*
G37*
X38519000Y-97042000D02*
X38319000Y-97042000D01*
X38319000Y-95942000D01*
X38519000Y-95942000D01*
X38519000Y-96142000D01*
X39019000Y-96142000D01*
X39019000Y-96842000D01*
X38519000Y-96842000D01*
X38519000Y-97042000D01*
G36*
X38519000Y-96142000D02*
G01*
X39019000Y-96142000D01*
X39019000Y-96842000D01*
X38519000Y-96842000D01*
X38519000Y-97042000D01*
X38319000Y-97042000D01*
X38319000Y-95942000D01*
X38519000Y-95942000D01*
X38519000Y-96142000D01*
G37*
X43269000Y-93342000D02*
X42769000Y-93342000D01*
X42769000Y-92642000D01*
X43269000Y-92642000D01*
X43269000Y-92442000D01*
X43469000Y-92442000D01*
X43469000Y-93542000D01*
X43269000Y-93542000D01*
X43269000Y-93342000D01*
G36*
X43469000Y-93542000D02*
G01*
X43269000Y-93542000D01*
X43269000Y-93342000D01*
X42769000Y-93342000D01*
X42769000Y-92642000D01*
X43269000Y-92642000D01*
X43269000Y-92442000D01*
X43469000Y-92442000D01*
X43469000Y-93542000D01*
G37*
X43269000Y-96842000D02*
X42769000Y-96842000D01*
X42769000Y-96142000D01*
X43269000Y-96142000D01*
X43269000Y-95942000D01*
X43469000Y-95942000D01*
X43469000Y-97042000D01*
X43269000Y-97042000D01*
X43269000Y-96842000D01*
G36*
X43469000Y-97042000D02*
G01*
X43269000Y-97042000D01*
X43269000Y-96842000D01*
X42769000Y-96842000D01*
X42769000Y-96142000D01*
X43269000Y-96142000D01*
X43269000Y-95942000D01*
X43469000Y-95942000D01*
X43469000Y-97042000D01*
G37*
%TD*%
D11*
%TO.C,R4*%
X59000000Y-118925000D03*
X59000000Y-120575000D03*
%TD*%
D12*
%TO.C,C1*%
X56950000Y-125000000D03*
X55050000Y-125000000D03*
%TD*%
D13*
%TO.C,U1*%
X61415000Y-155240000D03*
X61415000Y-152700000D03*
X61415000Y-150160000D03*
X61415000Y-147620000D03*
X61415000Y-145080000D03*
X61415000Y-142540000D03*
X61415000Y-140000000D03*
X45250000Y-140000000D03*
X45250000Y-142540000D03*
X45250000Y-145080000D03*
X45250000Y-147620000D03*
X45250000Y-150160000D03*
X45250000Y-152700000D03*
X45250000Y-155240000D03*
D14*
X54633400Y-156261500D03*
X52093400Y-156261500D03*
X54633400Y-153721500D03*
X52093400Y-153721500D03*
X54633400Y-151181500D03*
X52093400Y-151181500D03*
X54633400Y-148641500D03*
X52186000Y-148698300D03*
%TD*%
D15*
%TO.C,Q1*%
X69263500Y-32954000D03*
X69263500Y-31054000D03*
X67388500Y-32004000D03*
%TD*%
D16*
%TO.C,C2*%
X38500000Y-149650000D03*
X38500000Y-147750000D03*
%TD*%
D17*
%TO.C,C3*%
X41275000Y-35500000D03*
X39725000Y-35500000D03*
%TD*%
D18*
%TO.C,R6*%
X37675000Y-33000000D03*
X39325000Y-33000000D03*
%TD*%
D11*
%TO.C,R2*%
X39500000Y-144350000D03*
X39500000Y-146000000D03*
%TD*%
D19*
%TO.C,U3*%
X49784000Y-127089000D03*
X49784000Y-127739000D03*
X49784000Y-128389000D03*
X49784000Y-129039000D03*
X49784000Y-129689000D03*
X49784000Y-130339000D03*
X49784000Y-130989000D03*
X49784000Y-131639000D03*
X49784000Y-132289000D03*
X49784000Y-132939000D03*
X49784000Y-133589000D03*
X49784000Y-134239000D03*
X56784000Y-134239000D03*
X56784000Y-133589000D03*
X56784000Y-132939000D03*
X56784000Y-132289000D03*
X56784000Y-131639000D03*
X56784000Y-130989000D03*
X56784000Y-130339000D03*
X56784000Y-129689000D03*
X56784000Y-129039000D03*
X56784000Y-128389000D03*
X56784000Y-127739000D03*
X56784000Y-127089000D03*
%TD*%
D20*
%TO.C,R1*%
X69088000Y-37401000D03*
X69088000Y-35751000D03*
%TD*%
D21*
%TO.C,D2*%
X38475000Y-154950000D03*
X40225000Y-154950000D03*
X40225000Y-151450000D03*
X38475000Y-151450000D03*
%TD*%
D11*
%TO.C,R5*%
X60000000Y-122250000D03*
X60000000Y-123900000D03*
%TD*%
M02*
