%TF.GenerationSoftware,KiCad,Pcbnew,10.0.3*%
%TF.CreationDate,2026-07-17T11:12:47-07:00*%
%TF.ProjectId,c6remote,63367265-6d6f-4746-952e-6b696361645f,rev?*%
%TF.SameCoordinates,Original*%
%TF.FileFunction,Paste,Bot*%
%TF.FilePolarity,Positive*%
%FSLAX46Y46*%
G04 Gerber Fmt 4.6, Leading zero omitted, Abs format (unit mm)*
G04 Created by KiCad (PCBNEW 10.0.3) date 2026-07-17 11:12:47*
%MOMM*%
%LPD*%
G01*
G04 APERTURE LIST*
G04 Aperture macros list*
%AMRoundRect*
0 Rectangle with rounded corners*
0 $1 Rounding radius*
0 $2 $3 $4 $5 $6 $7 $8 $9 X,Y pos of 4 corners*
0 Add a 4 corners polygon primitive as box body*
4,1,4,$2,$3,$4,$5,$6,$7,$8,$9,$2,$3,0*
0 Add four circle primitives for the rounded corners*
1,1,$1+$1,$2,$3*
1,1,$1+$1,$4,$5*
1,1,$1+$1,$6,$7*
1,1,$1+$1,$8,$9*
0 Add four rect primitives between the rounded corners*
20,1,$1+$1,$2,$3,$4,$5,0*
20,1,$1+$1,$4,$5,$6,$7,0*
20,1,$1+$1,$6,$7,$8,$9,0*
20,1,$1+$1,$8,$9,$2,$3,0*%
G04 Aperture macros list end*
%ADD10C,0.000000*%
%ADD11RoundRect,0.250000X-0.250000X-1.500000X0.250000X-1.500000X0.250000X1.500000X-0.250000X1.500000X0*%
%ADD12RoundRect,0.250001X-0.499999X-1.449999X0.499999X-1.449999X0.499999X1.449999X-0.499999X1.449999X0*%
%ADD13RoundRect,0.200000X-0.275000X0.200000X-0.275000X-0.200000X0.275000X-0.200000X0.275000X0.200000X0*%
%ADD14RoundRect,0.200000X-0.200000X-0.275000X0.200000X-0.275000X0.200000X0.275000X-0.200000X0.275000X0*%
%ADD15RoundRect,0.200000X0.275000X-0.200000X0.275000X0.200000X-0.275000X0.200000X-0.275000X-0.200000X0*%
G04 APERTURE END LIST*
%TO.C,MK1*%
G36*
X52200000Y-34415000D02*
G01*
X52700000Y-34415000D01*
X52700000Y-34837000D01*
X52200000Y-34837000D01*
X52200000Y-34415000D01*
G37*
G36*
X52200000Y-35237000D02*
G01*
X52700000Y-35237000D01*
X52700000Y-35659000D01*
X52200000Y-35659000D01*
X52200000Y-35237000D01*
G37*
G36*
X53100000Y-34415000D02*
G01*
X53600000Y-34415000D01*
X53600000Y-34837000D01*
X53100000Y-34837000D01*
X53100000Y-34415000D01*
G37*
G36*
X54000000Y-35237000D02*
G01*
X54500000Y-35237000D01*
X54500000Y-35659000D01*
X54000000Y-35659000D01*
X54000000Y-35237000D01*
G37*
G36*
X54000000Y-34415000D02*
G01*
X54500000Y-34415000D01*
X54500000Y-34837000D01*
X54000000Y-34837000D01*
X54000000Y-34415000D01*
G37*
D10*
G36*
X52810700Y-36859800D02*
G01*
X52852900Y-36963200D01*
X52914700Y-37056300D01*
X52993700Y-37135300D01*
X53086800Y-37197100D01*
X53190200Y-37239300D01*
X53300000Y-37260300D01*
X53300000Y-37511000D01*
X53134500Y-37483400D01*
X52978300Y-37422500D01*
X52837800Y-37330800D01*
X52719200Y-37212200D01*
X52627500Y-37071700D01*
X52566600Y-36915500D01*
X52539000Y-36750000D01*
X52789700Y-36750000D01*
X52810700Y-36859800D01*
G37*
G36*
X53300000Y-36139700D02*
G01*
X53190200Y-36160700D01*
X53086800Y-36202900D01*
X52993700Y-36264700D01*
X52914700Y-36343700D01*
X52852900Y-36436800D01*
X52810700Y-36540200D01*
X52789700Y-36650000D01*
X52539000Y-36650000D01*
X52566600Y-36484500D01*
X52627500Y-36328300D01*
X52719200Y-36187800D01*
X52837800Y-36069200D01*
X52978300Y-35977500D01*
X53134500Y-35916600D01*
X53300000Y-35889000D01*
X53300000Y-36139700D01*
G37*
G36*
X54133400Y-36915500D02*
G01*
X54072500Y-37071700D01*
X53980800Y-37212200D01*
X53862200Y-37330800D01*
X53721700Y-37422500D01*
X53565500Y-37483400D01*
X53400000Y-37511000D01*
X53400000Y-37260300D01*
X53509800Y-37239300D01*
X53613200Y-37197100D01*
X53706300Y-37135300D01*
X53785300Y-37056300D01*
X53847100Y-36963200D01*
X53889300Y-36859800D01*
X53910300Y-36750000D01*
X54161000Y-36750000D01*
X54133400Y-36915500D01*
G37*
G36*
X53565500Y-35916600D02*
G01*
X53721700Y-35977500D01*
X53862200Y-36069200D01*
X53980800Y-36187800D01*
X54072500Y-36328300D01*
X54133400Y-36484500D01*
X54161000Y-36650000D01*
X53910300Y-36650000D01*
X53889300Y-36540200D01*
X53847100Y-36436800D01*
X53785300Y-36343700D01*
X53706300Y-36264700D01*
X53613200Y-36202900D01*
X53509800Y-36160700D01*
X53400000Y-36139700D01*
X53400000Y-35889000D01*
X53565500Y-35916600D01*
G37*
%TD*%
D11*
%TO.C,J1*%
X52900000Y-155700000D03*
X54900000Y-155700000D03*
D12*
X50550000Y-149950000D03*
X57250000Y-149950000D03*
%TD*%
D13*
%TO.C,R7*%
X57250000Y-142175000D03*
X57250000Y-143825000D03*
%TD*%
D14*
%TO.C,R3*%
X57350000Y-33258000D03*
X59000000Y-33258000D03*
%TD*%
D15*
%TO.C,R8*%
X50250000Y-144075000D03*
X50250000Y-142425000D03*
%TD*%
M02*
