%TF.GenerationSoftware,KiCad,Pcbnew,10.0.3*%
%TF.CreationDate,2026-07-17T10:11:53-07:00*%
%TF.ProjectId,c6remote,63367265-6d6f-4746-952e-6b696361645f,rev?*%
%TF.SameCoordinates,Original*%
%TF.FileFunction,Soldermask,Top*%
%TF.FilePolarity,Negative*%
%FSLAX46Y46*%
G04 Gerber Fmt 4.6, Leading zero omitted, Abs format (unit mm)*
G04 Created by KiCad (PCBNEW 10.0.3) date 2026-07-17 10:11:53*
%MOMM*%
%LPD*%
G01*
G04 APERTURE LIST*
G04 Aperture macros list*
%AMRoundRect*
0 Rectangle with rounded corners*
0 $1 Rounding radius*
0 $2 $3 $4 $5 $6 $7 $8 $9 X,Y pos of 4 corners*
0 Add a 4 corners polygon primitive as box body*
4,1,4,$2,$3,$4,$5,$6,$7,$8,$9,$2,$3,0*
0 Add four circle primitives for the rounded corners*
1,1,$1+$1,$2,$3*
1,1,$1+$1,$4,$5*
1,1,$1+$1,$6,$7*
1,1,$1+$1,$8,$9*
0 Add four rect primitives between the rounded corners*
20,1,$1+$1,$2,$3,$4,$5,0*
20,1,$1+$1,$4,$5,$6,$7,0*
20,1,$1+$1,$6,$7,$8,$9,0*
20,1,$1+$1,$8,$9,$2,$3,0*%
G04 Aperture macros list end*
%ADD10C,0.010000*%
%ADD11RoundRect,0.200000X-0.275000X0.200000X-0.275000X-0.200000X0.275000X-0.200000X0.275000X0.200000X0*%
%ADD12RoundRect,0.250000X0.250000X0.475000X-0.250000X0.475000X-0.250000X-0.475000X0.250000X-0.475000X0*%
%ADD13RoundRect,0.525400X0.900400X0.525400X-0.900400X0.525400X-0.900400X-0.525400X0.900400X-0.525400X0*%
%ADD14C,1.700000*%
%ADD15RoundRect,0.275000X0.275000X-0.975000X0.275000X0.975000X-0.275000X0.975000X-0.275000X-0.975000X0*%
%ADD16RoundRect,0.150000X0.587500X0.150000X-0.587500X0.150000X-0.587500X-0.150000X0.587500X-0.150000X0*%
%ADD17RoundRect,0.250000X0.475000X-0.250000X0.475000X0.250000X-0.475000X0.250000X-0.475000X-0.250000X0*%
%ADD18RoundRect,0.225000X0.225000X0.250000X-0.225000X0.250000X-0.225000X-0.250000X0.225000X-0.250000X0*%
%ADD19R,1.800000X1.800000*%
%ADD20C,1.800000*%
%ADD21RoundRect,0.200000X-0.200000X-0.275000X0.200000X-0.275000X0.200000X0.275000X-0.200000X0.275000X0*%
%ADD22RoundRect,0.248400X0.651600X0.651600X-0.651600X0.651600X-0.651600X-0.651600X0.651600X-0.651600X0*%
%ADD23RoundRect,0.100000X-0.850000X-0.100000X0.850000X-0.100000X0.850000X0.100000X-0.850000X0.100000X0*%
%ADD24RoundRect,0.200000X0.275000X-0.200000X0.275000X0.200000X-0.275000X0.200000X-0.275000X-0.200000X0*%
%ADD25R,0.850000X1.600000*%
%ADD26RoundRect,0.250000X1.000000X-1.000000X1.000000X1.000000X-1.000000X1.000000X-1.000000X-1.000000X0*%
%ADD27C,2.500000*%
%ADD28C,2.750000*%
%ADD29C,1.000000*%
%ADD30C,0.500000*%
G04 APERTURE END LIST*
D10*
%TO.C,SW10*%
X63111000Y-104788000D02*
X63111000Y-106088000D01*
X63511000Y-106088000D01*
X63511000Y-105888000D01*
X64011000Y-105888000D01*
X64011000Y-104988000D01*
X63511000Y-104988000D01*
X63511000Y-104788000D01*
X63111000Y-104788000D01*
G36*
X63511000Y-104988000D02*
G01*
X64011000Y-104988000D01*
X64011000Y-105888000D01*
X63511000Y-105888000D01*
X63511000Y-106088000D01*
X63111000Y-106088000D01*
X63111000Y-104788000D01*
X63511000Y-104788000D01*
X63511000Y-104988000D01*
G37*
X63511000Y-109588000D02*
X63111000Y-109588000D01*
X63111000Y-108288000D01*
X63511000Y-108288000D01*
X63511000Y-108488000D01*
X64011000Y-108488000D01*
X64011000Y-109388000D01*
X63511000Y-109388000D01*
X63511000Y-109588000D01*
G36*
X63511000Y-108488000D02*
G01*
X64011000Y-108488000D01*
X64011000Y-109388000D01*
X63511000Y-109388000D01*
X63511000Y-109588000D01*
X63111000Y-109588000D01*
X63111000Y-108288000D01*
X63511000Y-108288000D01*
X63511000Y-108488000D01*
G37*
X68061000Y-105888000D02*
X67561000Y-105888000D01*
X67561000Y-104988000D01*
X68061000Y-104988000D01*
X68061000Y-104788000D01*
X68461000Y-104788000D01*
X68461000Y-106088000D01*
X68061000Y-106088000D01*
X68061000Y-105888000D01*
G36*
X68461000Y-106088000D02*
G01*
X68061000Y-106088000D01*
X68061000Y-105888000D01*
X67561000Y-105888000D01*
X67561000Y-104988000D01*
X68061000Y-104988000D01*
X68061000Y-104788000D01*
X68461000Y-104788000D01*
X68461000Y-106088000D01*
G37*
X68061000Y-109388000D02*
X67561000Y-109388000D01*
X67561000Y-108488000D01*
X68061000Y-108488000D01*
X68061000Y-108288000D01*
X68461000Y-108288000D01*
X68461000Y-109588000D01*
X68061000Y-109588000D01*
X68061000Y-109388000D01*
G36*
X68461000Y-109588000D02*
G01*
X68061000Y-109588000D01*
X68061000Y-109388000D01*
X67561000Y-109388000D01*
X67561000Y-108488000D01*
X68061000Y-108488000D01*
X68061000Y-108288000D01*
X68461000Y-108288000D01*
X68461000Y-109588000D01*
G37*
%TO.C,SW9*%
X63111000Y-117234000D02*
X63111000Y-118534000D01*
X63511000Y-118534000D01*
X63511000Y-118334000D01*
X64011000Y-118334000D01*
X64011000Y-117434000D01*
X63511000Y-117434000D01*
X63511000Y-117234000D01*
X63111000Y-117234000D01*
G36*
X63511000Y-117434000D02*
G01*
X64011000Y-117434000D01*
X64011000Y-118334000D01*
X63511000Y-118334000D01*
X63511000Y-118534000D01*
X63111000Y-118534000D01*
X63111000Y-117234000D01*
X63511000Y-117234000D01*
X63511000Y-117434000D01*
G37*
X63511000Y-122034000D02*
X63111000Y-122034000D01*
X63111000Y-120734000D01*
X63511000Y-120734000D01*
X63511000Y-120934000D01*
X64011000Y-120934000D01*
X64011000Y-121834000D01*
X63511000Y-121834000D01*
X63511000Y-122034000D01*
G36*
X63511000Y-120934000D02*
G01*
X64011000Y-120934000D01*
X64011000Y-121834000D01*
X63511000Y-121834000D01*
X63511000Y-122034000D01*
X63111000Y-122034000D01*
X63111000Y-120734000D01*
X63511000Y-120734000D01*
X63511000Y-120934000D01*
G37*
X68061000Y-118334000D02*
X67561000Y-118334000D01*
X67561000Y-117434000D01*
X68061000Y-117434000D01*
X68061000Y-117234000D01*
X68461000Y-117234000D01*
X68461000Y-118534000D01*
X68061000Y-118534000D01*
X68061000Y-118334000D01*
G36*
X68461000Y-118534000D02*
G01*
X68061000Y-118534000D01*
X68061000Y-118334000D01*
X67561000Y-118334000D01*
X67561000Y-117434000D01*
X68061000Y-117434000D01*
X68061000Y-117234000D01*
X68461000Y-117234000D01*
X68461000Y-118534000D01*
G37*
X68061000Y-121834000D02*
X67561000Y-121834000D01*
X67561000Y-120934000D01*
X68061000Y-120934000D01*
X68061000Y-120734000D01*
X68461000Y-120734000D01*
X68461000Y-122034000D01*
X68061000Y-122034000D01*
X68061000Y-121834000D01*
G36*
X68461000Y-122034000D02*
G01*
X68061000Y-122034000D01*
X68061000Y-121834000D01*
X67561000Y-121834000D01*
X67561000Y-120934000D01*
X68061000Y-120934000D01*
X68061000Y-120734000D01*
X68461000Y-120734000D01*
X68461000Y-122034000D01*
G37*
%TO.C,SW5*%
X38219000Y-117234000D02*
X38219000Y-118534000D01*
X38619000Y-118534000D01*
X38619000Y-118334000D01*
X39119000Y-118334000D01*
X39119000Y-117434000D01*
X38619000Y-117434000D01*
X38619000Y-117234000D01*
X38219000Y-117234000D01*
G36*
X38619000Y-117434000D02*
G01*
X39119000Y-117434000D01*
X39119000Y-118334000D01*
X38619000Y-118334000D01*
X38619000Y-118534000D01*
X38219000Y-118534000D01*
X38219000Y-117234000D01*
X38619000Y-117234000D01*
X38619000Y-117434000D01*
G37*
X38619000Y-122034000D02*
X38219000Y-122034000D01*
X38219000Y-120734000D01*
X38619000Y-120734000D01*
X38619000Y-120934000D01*
X39119000Y-120934000D01*
X39119000Y-121834000D01*
X38619000Y-121834000D01*
X38619000Y-122034000D01*
G36*
X38619000Y-120934000D02*
G01*
X39119000Y-120934000D01*
X39119000Y-121834000D01*
X38619000Y-121834000D01*
X38619000Y-122034000D01*
X38219000Y-122034000D01*
X38219000Y-120734000D01*
X38619000Y-120734000D01*
X38619000Y-120934000D01*
G37*
X43169000Y-118334000D02*
X42669000Y-118334000D01*
X42669000Y-117434000D01*
X43169000Y-117434000D01*
X43169000Y-117234000D01*
X43569000Y-117234000D01*
X43569000Y-118534000D01*
X43169000Y-118534000D01*
X43169000Y-118334000D01*
G36*
X43569000Y-118534000D02*
G01*
X43169000Y-118534000D01*
X43169000Y-118334000D01*
X42669000Y-118334000D01*
X42669000Y-117434000D01*
X43169000Y-117434000D01*
X43169000Y-117234000D01*
X43569000Y-117234000D01*
X43569000Y-118534000D01*
G37*
X43169000Y-121834000D02*
X42669000Y-121834000D01*
X42669000Y-120934000D01*
X43169000Y-120934000D01*
X43169000Y-120734000D01*
X43569000Y-120734000D01*
X43569000Y-122034000D01*
X43169000Y-122034000D01*
X43169000Y-121834000D01*
G36*
X43569000Y-122034000D02*
G01*
X43169000Y-122034000D01*
X43169000Y-121834000D01*
X42669000Y-121834000D01*
X42669000Y-120934000D01*
X43169000Y-120934000D01*
X43169000Y-120734000D01*
X43569000Y-120734000D01*
X43569000Y-122034000D01*
G37*
%TO.C,SW2*%
X38219000Y-39256000D02*
X38219000Y-40556000D01*
X38619000Y-40556000D01*
X38619000Y-40356000D01*
X39119000Y-40356000D01*
X39119000Y-39456000D01*
X38619000Y-39456000D01*
X38619000Y-39256000D01*
X38219000Y-39256000D01*
G36*
X38619000Y-39456000D02*
G01*
X39119000Y-39456000D01*
X39119000Y-40356000D01*
X38619000Y-40356000D01*
X38619000Y-40556000D01*
X38219000Y-40556000D01*
X38219000Y-39256000D01*
X38619000Y-39256000D01*
X38619000Y-39456000D01*
G37*
X38619000Y-44056000D02*
X38219000Y-44056000D01*
X38219000Y-42756000D01*
X38619000Y-42756000D01*
X38619000Y-42956000D01*
X39119000Y-42956000D01*
X39119000Y-43856000D01*
X38619000Y-43856000D01*
X38619000Y-44056000D01*
G36*
X38619000Y-42956000D02*
G01*
X39119000Y-42956000D01*
X39119000Y-43856000D01*
X38619000Y-43856000D01*
X38619000Y-44056000D01*
X38219000Y-44056000D01*
X38219000Y-42756000D01*
X38619000Y-42756000D01*
X38619000Y-42956000D01*
G37*
X43169000Y-40356000D02*
X42669000Y-40356000D01*
X42669000Y-39456000D01*
X43169000Y-39456000D01*
X43169000Y-39256000D01*
X43569000Y-39256000D01*
X43569000Y-40556000D01*
X43169000Y-40556000D01*
X43169000Y-40356000D01*
G36*
X43569000Y-40556000D02*
G01*
X43169000Y-40556000D01*
X43169000Y-40356000D01*
X42669000Y-40356000D01*
X42669000Y-39456000D01*
X43169000Y-39456000D01*
X43169000Y-39256000D01*
X43569000Y-39256000D01*
X43569000Y-40556000D01*
G37*
X43169000Y-43856000D02*
X42669000Y-43856000D01*
X42669000Y-42956000D01*
X43169000Y-42956000D01*
X43169000Y-42756000D01*
X43569000Y-42756000D01*
X43569000Y-44056000D01*
X43169000Y-44056000D01*
X43169000Y-43856000D01*
G36*
X43569000Y-44056000D02*
G01*
X43169000Y-44056000D01*
X43169000Y-43856000D01*
X42669000Y-43856000D01*
X42669000Y-42956000D01*
X43169000Y-42956000D01*
X43169000Y-42756000D01*
X43569000Y-42756000D01*
X43569000Y-44056000D01*
G37*
%TO.C,SW7*%
X50665000Y-104788000D02*
X50665000Y-106088000D01*
X51065000Y-106088000D01*
X51065000Y-105888000D01*
X51565000Y-105888000D01*
X51565000Y-104988000D01*
X51065000Y-104988000D01*
X51065000Y-104788000D01*
X50665000Y-104788000D01*
G36*
X51065000Y-104988000D02*
G01*
X51565000Y-104988000D01*
X51565000Y-105888000D01*
X51065000Y-105888000D01*
X51065000Y-106088000D01*
X50665000Y-106088000D01*
X50665000Y-104788000D01*
X51065000Y-104788000D01*
X51065000Y-104988000D01*
G37*
X51065000Y-109588000D02*
X50665000Y-109588000D01*
X50665000Y-108288000D01*
X51065000Y-108288000D01*
X51065000Y-108488000D01*
X51565000Y-108488000D01*
X51565000Y-109388000D01*
X51065000Y-109388000D01*
X51065000Y-109588000D01*
G36*
X51065000Y-108488000D02*
G01*
X51565000Y-108488000D01*
X51565000Y-109388000D01*
X51065000Y-109388000D01*
X51065000Y-109588000D01*
X50665000Y-109588000D01*
X50665000Y-108288000D01*
X51065000Y-108288000D01*
X51065000Y-108488000D01*
G37*
X55615000Y-105888000D02*
X55115000Y-105888000D01*
X55115000Y-104988000D01*
X55615000Y-104988000D01*
X55615000Y-104788000D01*
X56015000Y-104788000D01*
X56015000Y-106088000D01*
X55615000Y-106088000D01*
X55615000Y-105888000D01*
G36*
X56015000Y-106088000D02*
G01*
X55615000Y-106088000D01*
X55615000Y-105888000D01*
X55115000Y-105888000D01*
X55115000Y-104988000D01*
X55615000Y-104988000D01*
X55615000Y-104788000D01*
X56015000Y-104788000D01*
X56015000Y-106088000D01*
G37*
X55615000Y-109388000D02*
X55115000Y-109388000D01*
X55115000Y-108488000D01*
X55615000Y-108488000D01*
X55615000Y-108288000D01*
X56015000Y-108288000D01*
X56015000Y-109588000D01*
X55615000Y-109588000D01*
X55615000Y-109388000D01*
G36*
X56015000Y-109588000D02*
G01*
X55615000Y-109588000D01*
X55615000Y-109388000D01*
X55115000Y-109388000D01*
X55115000Y-108488000D01*
X55615000Y-108488000D01*
X55615000Y-108288000D01*
X56015000Y-108288000D01*
X56015000Y-109588000D01*
G37*
%TO.C,SW4*%
X38161910Y-104814000D02*
X38161910Y-106114000D01*
X38561910Y-106114000D01*
X38561910Y-105914000D01*
X39061910Y-105914000D01*
X39061910Y-105014000D01*
X38561910Y-105014000D01*
X38561910Y-104814000D01*
X38161910Y-104814000D01*
G36*
X38561910Y-105014000D02*
G01*
X39061910Y-105014000D01*
X39061910Y-105914000D01*
X38561910Y-105914000D01*
X38561910Y-106114000D01*
X38161910Y-106114000D01*
X38161910Y-104814000D01*
X38561910Y-104814000D01*
X38561910Y-105014000D01*
G37*
X38561910Y-109614000D02*
X38161910Y-109614000D01*
X38161910Y-108314000D01*
X38561910Y-108314000D01*
X38561910Y-108514000D01*
X39061910Y-108514000D01*
X39061910Y-109414000D01*
X38561910Y-109414000D01*
X38561910Y-109614000D01*
G36*
X38561910Y-108514000D02*
G01*
X39061910Y-108514000D01*
X39061910Y-109414000D01*
X38561910Y-109414000D01*
X38561910Y-109614000D01*
X38161910Y-109614000D01*
X38161910Y-108314000D01*
X38561910Y-108314000D01*
X38561910Y-108514000D01*
G37*
X43111910Y-105914000D02*
X42611910Y-105914000D01*
X42611910Y-105014000D01*
X43111910Y-105014000D01*
X43111910Y-104814000D01*
X43511910Y-104814000D01*
X43511910Y-106114000D01*
X43111910Y-106114000D01*
X43111910Y-105914000D01*
G36*
X43511910Y-106114000D02*
G01*
X43111910Y-106114000D01*
X43111910Y-105914000D01*
X42611910Y-105914000D01*
X42611910Y-105014000D01*
X43111910Y-105014000D01*
X43111910Y-104814000D01*
X43511910Y-104814000D01*
X43511910Y-106114000D01*
G37*
X43111910Y-109414000D02*
X42611910Y-109414000D01*
X42611910Y-108514000D01*
X43111910Y-108514000D01*
X43111910Y-108314000D01*
X43511910Y-108314000D01*
X43511910Y-109614000D01*
X43111910Y-109614000D01*
X43111910Y-109414000D01*
G36*
X43511910Y-109614000D02*
G01*
X43111910Y-109614000D01*
X43111910Y-109414000D01*
X42611910Y-109414000D01*
X42611910Y-108514000D01*
X43111910Y-108514000D01*
X43111910Y-108314000D01*
X43511910Y-108314000D01*
X43511910Y-109614000D01*
G37*
%TO.C,SW1*%
X63111000Y-39256000D02*
X63111000Y-40556000D01*
X63511000Y-40556000D01*
X63511000Y-40356000D01*
X64011000Y-40356000D01*
X64011000Y-39456000D01*
X63511000Y-39456000D01*
X63511000Y-39256000D01*
X63111000Y-39256000D01*
G36*
X63511000Y-39456000D02*
G01*
X64011000Y-39456000D01*
X64011000Y-40356000D01*
X63511000Y-40356000D01*
X63511000Y-40556000D01*
X63111000Y-40556000D01*
X63111000Y-39256000D01*
X63511000Y-39256000D01*
X63511000Y-39456000D01*
G37*
X63511000Y-44056000D02*
X63111000Y-44056000D01*
X63111000Y-42756000D01*
X63511000Y-42756000D01*
X63511000Y-42956000D01*
X64011000Y-42956000D01*
X64011000Y-43856000D01*
X63511000Y-43856000D01*
X63511000Y-44056000D01*
G36*
X63511000Y-42956000D02*
G01*
X64011000Y-42956000D01*
X64011000Y-43856000D01*
X63511000Y-43856000D01*
X63511000Y-44056000D01*
X63111000Y-44056000D01*
X63111000Y-42756000D01*
X63511000Y-42756000D01*
X63511000Y-42956000D01*
G37*
X68061000Y-40356000D02*
X67561000Y-40356000D01*
X67561000Y-39456000D01*
X68061000Y-39456000D01*
X68061000Y-39256000D01*
X68461000Y-39256000D01*
X68461000Y-40556000D01*
X68061000Y-40556000D01*
X68061000Y-40356000D01*
G36*
X68461000Y-40556000D02*
G01*
X68061000Y-40556000D01*
X68061000Y-40356000D01*
X67561000Y-40356000D01*
X67561000Y-39456000D01*
X68061000Y-39456000D01*
X68061000Y-39256000D01*
X68461000Y-39256000D01*
X68461000Y-40556000D01*
G37*
X68061000Y-43856000D02*
X67561000Y-43856000D01*
X67561000Y-42956000D01*
X68061000Y-42956000D01*
X68061000Y-42756000D01*
X68461000Y-42756000D01*
X68461000Y-44056000D01*
X68061000Y-44056000D01*
X68061000Y-43856000D01*
G36*
X68461000Y-44056000D02*
G01*
X68061000Y-44056000D01*
X68061000Y-43856000D01*
X67561000Y-43856000D01*
X67561000Y-42956000D01*
X68061000Y-42956000D01*
X68061000Y-42756000D01*
X68461000Y-42756000D01*
X68461000Y-44056000D01*
G37*
%TO.C,SW11*%
X63111000Y-92342000D02*
X63111000Y-93642000D01*
X63511000Y-93642000D01*
X63511000Y-93442000D01*
X64011000Y-93442000D01*
X64011000Y-92542000D01*
X63511000Y-92542000D01*
X63511000Y-92342000D01*
X63111000Y-92342000D01*
G36*
X63511000Y-92542000D02*
G01*
X64011000Y-92542000D01*
X64011000Y-93442000D01*
X63511000Y-93442000D01*
X63511000Y-93642000D01*
X63111000Y-93642000D01*
X63111000Y-92342000D01*
X63511000Y-92342000D01*
X63511000Y-92542000D01*
G37*
X63511000Y-97142000D02*
X63111000Y-97142000D01*
X63111000Y-95842000D01*
X63511000Y-95842000D01*
X63511000Y-96042000D01*
X64011000Y-96042000D01*
X64011000Y-96942000D01*
X63511000Y-96942000D01*
X63511000Y-97142000D01*
G36*
X63511000Y-96042000D02*
G01*
X64011000Y-96042000D01*
X64011000Y-96942000D01*
X63511000Y-96942000D01*
X63511000Y-97142000D01*
X63111000Y-97142000D01*
X63111000Y-95842000D01*
X63511000Y-95842000D01*
X63511000Y-96042000D01*
G37*
X68061000Y-93442000D02*
X67561000Y-93442000D01*
X67561000Y-92542000D01*
X68061000Y-92542000D01*
X68061000Y-92342000D01*
X68461000Y-92342000D01*
X68461000Y-93642000D01*
X68061000Y-93642000D01*
X68061000Y-93442000D01*
G36*
X68461000Y-93642000D02*
G01*
X68061000Y-93642000D01*
X68061000Y-93442000D01*
X67561000Y-93442000D01*
X67561000Y-92542000D01*
X68061000Y-92542000D01*
X68061000Y-92342000D01*
X68461000Y-92342000D01*
X68461000Y-93642000D01*
G37*
X68061000Y-96942000D02*
X67561000Y-96942000D01*
X67561000Y-96042000D01*
X68061000Y-96042000D01*
X68061000Y-95842000D01*
X68461000Y-95842000D01*
X68461000Y-97142000D01*
X68061000Y-97142000D01*
X68061000Y-96942000D01*
G36*
X68461000Y-97142000D02*
G01*
X68061000Y-97142000D01*
X68061000Y-96942000D01*
X67561000Y-96942000D01*
X67561000Y-96042000D01*
X68061000Y-96042000D01*
X68061000Y-95842000D01*
X68461000Y-95842000D01*
X68461000Y-97142000D01*
G37*
%TO.C,SW8*%
X50665000Y-117234000D02*
X50665000Y-118534000D01*
X51065000Y-118534000D01*
X51065000Y-118334000D01*
X51565000Y-118334000D01*
X51565000Y-117434000D01*
X51065000Y-117434000D01*
X51065000Y-117234000D01*
X50665000Y-117234000D01*
G36*
X51065000Y-117434000D02*
G01*
X51565000Y-117434000D01*
X51565000Y-118334000D01*
X51065000Y-118334000D01*
X51065000Y-118534000D01*
X50665000Y-118534000D01*
X50665000Y-117234000D01*
X51065000Y-117234000D01*
X51065000Y-117434000D01*
G37*
X51065000Y-122034000D02*
X50665000Y-122034000D01*
X50665000Y-120734000D01*
X51065000Y-120734000D01*
X51065000Y-120934000D01*
X51565000Y-120934000D01*
X51565000Y-121834000D01*
X51065000Y-121834000D01*
X51065000Y-122034000D01*
G36*
X51065000Y-120934000D02*
G01*
X51565000Y-120934000D01*
X51565000Y-121834000D01*
X51065000Y-121834000D01*
X51065000Y-122034000D01*
X50665000Y-122034000D01*
X50665000Y-120734000D01*
X51065000Y-120734000D01*
X51065000Y-120934000D01*
G37*
X55615000Y-118334000D02*
X55115000Y-118334000D01*
X55115000Y-117434000D01*
X55615000Y-117434000D01*
X55615000Y-117234000D01*
X56015000Y-117234000D01*
X56015000Y-118534000D01*
X55615000Y-118534000D01*
X55615000Y-118334000D01*
G36*
X56015000Y-118534000D02*
G01*
X55615000Y-118534000D01*
X55615000Y-118334000D01*
X55115000Y-118334000D01*
X55115000Y-117434000D01*
X55615000Y-117434000D01*
X55615000Y-117234000D01*
X56015000Y-117234000D01*
X56015000Y-118534000D01*
G37*
X55615000Y-121834000D02*
X55115000Y-121834000D01*
X55115000Y-120934000D01*
X55615000Y-120934000D01*
X55615000Y-120734000D01*
X56015000Y-120734000D01*
X56015000Y-122034000D01*
X55615000Y-122034000D01*
X55615000Y-121834000D01*
G36*
X56015000Y-122034000D02*
G01*
X55615000Y-122034000D01*
X55615000Y-121834000D01*
X55115000Y-121834000D01*
X55115000Y-120934000D01*
X55615000Y-120934000D01*
X55615000Y-120734000D01*
X56015000Y-120734000D01*
X56015000Y-122034000D01*
G37*
%TO.C,SW6*%
X50665000Y-92342000D02*
X50665000Y-93642000D01*
X51065000Y-93642000D01*
X51065000Y-93442000D01*
X51565000Y-93442000D01*
X51565000Y-92542000D01*
X51065000Y-92542000D01*
X51065000Y-92342000D01*
X50665000Y-92342000D01*
G36*
X51065000Y-92542000D02*
G01*
X51565000Y-92542000D01*
X51565000Y-93442000D01*
X51065000Y-93442000D01*
X51065000Y-93642000D01*
X50665000Y-93642000D01*
X50665000Y-92342000D01*
X51065000Y-92342000D01*
X51065000Y-92542000D01*
G37*
X51065000Y-97142000D02*
X50665000Y-97142000D01*
X50665000Y-95842000D01*
X51065000Y-95842000D01*
X51065000Y-96042000D01*
X51565000Y-96042000D01*
X51565000Y-96942000D01*
X51065000Y-96942000D01*
X51065000Y-97142000D01*
G36*
X51065000Y-96042000D02*
G01*
X51565000Y-96042000D01*
X51565000Y-96942000D01*
X51065000Y-96942000D01*
X51065000Y-97142000D01*
X50665000Y-97142000D01*
X50665000Y-95842000D01*
X51065000Y-95842000D01*
X51065000Y-96042000D01*
G37*
X55615000Y-93442000D02*
X55115000Y-93442000D01*
X55115000Y-92542000D01*
X55615000Y-92542000D01*
X55615000Y-92342000D01*
X56015000Y-92342000D01*
X56015000Y-93642000D01*
X55615000Y-93642000D01*
X55615000Y-93442000D01*
G36*
X56015000Y-93642000D02*
G01*
X55615000Y-93642000D01*
X55615000Y-93442000D01*
X55115000Y-93442000D01*
X55115000Y-92542000D01*
X55615000Y-92542000D01*
X55615000Y-92342000D01*
X56015000Y-92342000D01*
X56015000Y-93642000D01*
G37*
X55615000Y-96942000D02*
X55115000Y-96942000D01*
X55115000Y-96042000D01*
X55615000Y-96042000D01*
X55615000Y-95842000D01*
X56015000Y-95842000D01*
X56015000Y-97142000D01*
X55615000Y-97142000D01*
X55615000Y-96942000D01*
G36*
X56015000Y-97142000D02*
G01*
X55615000Y-97142000D01*
X55615000Y-96942000D01*
X55115000Y-96942000D01*
X55115000Y-96042000D01*
X55615000Y-96042000D01*
X55615000Y-95842000D01*
X56015000Y-95842000D01*
X56015000Y-97142000D01*
G37*
%TO.C,SW3*%
X38219000Y-92342000D02*
X38219000Y-93642000D01*
X38619000Y-93642000D01*
X38619000Y-93442000D01*
X39119000Y-93442000D01*
X39119000Y-92542000D01*
X38619000Y-92542000D01*
X38619000Y-92342000D01*
X38219000Y-92342000D01*
G36*
X38619000Y-92542000D02*
G01*
X39119000Y-92542000D01*
X39119000Y-93442000D01*
X38619000Y-93442000D01*
X38619000Y-93642000D01*
X38219000Y-93642000D01*
X38219000Y-92342000D01*
X38619000Y-92342000D01*
X38619000Y-92542000D01*
G37*
X38619000Y-97142000D02*
X38219000Y-97142000D01*
X38219000Y-95842000D01*
X38619000Y-95842000D01*
X38619000Y-96042000D01*
X39119000Y-96042000D01*
X39119000Y-96942000D01*
X38619000Y-96942000D01*
X38619000Y-97142000D01*
G36*
X38619000Y-96042000D02*
G01*
X39119000Y-96042000D01*
X39119000Y-96942000D01*
X38619000Y-96942000D01*
X38619000Y-97142000D01*
X38219000Y-97142000D01*
X38219000Y-95842000D01*
X38619000Y-95842000D01*
X38619000Y-96042000D01*
G37*
X43169000Y-93442000D02*
X42669000Y-93442000D01*
X42669000Y-92542000D01*
X43169000Y-92542000D01*
X43169000Y-92342000D01*
X43569000Y-92342000D01*
X43569000Y-93642000D01*
X43169000Y-93642000D01*
X43169000Y-93442000D01*
G36*
X43569000Y-93642000D02*
G01*
X43169000Y-93642000D01*
X43169000Y-93442000D01*
X42669000Y-93442000D01*
X42669000Y-92542000D01*
X43169000Y-92542000D01*
X43169000Y-92342000D01*
X43569000Y-92342000D01*
X43569000Y-93642000D01*
G37*
X43169000Y-96942000D02*
X42669000Y-96942000D01*
X42669000Y-96042000D01*
X43169000Y-96042000D01*
X43169000Y-95842000D01*
X43569000Y-95842000D01*
X43569000Y-97142000D01*
X43169000Y-97142000D01*
X43169000Y-96942000D01*
G36*
X43569000Y-97142000D02*
G01*
X43169000Y-97142000D01*
X43169000Y-96942000D01*
X42669000Y-96942000D01*
X42669000Y-96042000D01*
X43169000Y-96042000D01*
X43169000Y-95842000D01*
X43569000Y-95842000D01*
X43569000Y-97142000D01*
G37*
%TD*%
D11*
%TO.C,R4*%
X59000000Y-118925000D03*
X59000000Y-120575000D03*
%TD*%
D12*
%TO.C,C1*%
X56950000Y-125000000D03*
X55050000Y-125000000D03*
%TD*%
D13*
%TO.C,U1*%
X61415000Y-155240000D03*
X61415000Y-152700000D03*
X61415000Y-150160000D03*
X61415000Y-147620000D03*
X61415000Y-145080000D03*
X61415000Y-142540000D03*
X61415000Y-140000000D03*
X45250000Y-140000000D03*
X45250000Y-142540000D03*
X45250000Y-145080000D03*
X45250000Y-147620000D03*
X45250000Y-150160000D03*
X45250000Y-152700000D03*
X45250000Y-155240000D03*
D14*
X54633400Y-156261500D03*
X52093400Y-156261500D03*
X54633400Y-153721500D03*
X52093400Y-153721500D03*
X54633400Y-151181500D03*
X52093400Y-151181500D03*
X54633400Y-148641500D03*
X52186000Y-148698300D03*
D15*
X55141400Y-142088300D03*
X52601400Y-142088300D03*
%TD*%
D16*
%TO.C,Q1*%
X69263500Y-32954000D03*
X69263500Y-31054000D03*
X67388500Y-32004000D03*
%TD*%
D17*
%TO.C,C2*%
X38500000Y-149650000D03*
X38500000Y-147750000D03*
%TD*%
D18*
%TO.C,C3*%
X41275000Y-35500000D03*
X39725000Y-35500000D03*
%TD*%
D11*
%TO.C,R9*%
X68750000Y-154175000D03*
X68750000Y-155825000D03*
%TD*%
D19*
%TO.C,D1*%
X64037455Y-33258000D03*
D20*
X61497455Y-33258000D03*
%TD*%
D21*
%TO.C,R6*%
X37675000Y-33000000D03*
X39325000Y-33000000D03*
%TD*%
D22*
%TO.C,U2*%
X46482000Y-33020000D03*
D20*
X43942000Y-33020000D03*
X41402000Y-33020000D03*
%TD*%
D11*
%TO.C,R2*%
X39500000Y-144350000D03*
X39500000Y-146000000D03*
%TD*%
D23*
%TO.C,U3*%
X49784000Y-127089000D03*
X49784000Y-127739000D03*
X49784000Y-128389000D03*
X49784000Y-129039000D03*
X49784000Y-129689000D03*
X49784000Y-130339000D03*
X49784000Y-130989000D03*
X49784000Y-131639000D03*
X49784000Y-132289000D03*
X49784000Y-132939000D03*
X49784000Y-133589000D03*
X49784000Y-134239000D03*
X56784000Y-134239000D03*
X56784000Y-133589000D03*
X56784000Y-132939000D03*
X56784000Y-132289000D03*
X56784000Y-131639000D03*
X56784000Y-130989000D03*
X56784000Y-130339000D03*
X56784000Y-129689000D03*
X56784000Y-129039000D03*
X56784000Y-128389000D03*
X56784000Y-127739000D03*
X56784000Y-127089000D03*
%TD*%
D24*
%TO.C,R1*%
X69088000Y-37401000D03*
X69088000Y-35751000D03*
%TD*%
D25*
%TO.C,D2*%
X38475000Y-154950000D03*
X40225000Y-154950000D03*
X40225000Y-151450000D03*
X38475000Y-151450000D03*
%TD*%
D11*
%TO.C,R5*%
X60000000Y-122250000D03*
X60000000Y-123900000D03*
%TD*%
D26*
%TO.C,ENC1*%
X50084764Y-83793690D03*
D27*
X61087345Y-82817923D03*
D28*
X59885264Y-74261954D03*
D27*
X52227297Y-68824158D03*
X37187136Y-71320254D03*
X46789646Y-61166136D03*
D28*
X59885264Y-61166020D03*
D26*
X45587565Y-52610131D03*
D27*
X69487774Y-64107590D03*
%TD*%
D29*
%TO.C,TP_SD*%
X61500000Y-155250000D03*
%TD*%
%TO.C,TP_ANO_ENC2*%
X45250000Y-142500000D03*
%TD*%
%TO.C,TP_GPIO18_D10_MOSI*%
X45250000Y-147750000D03*
%TD*%
D30*
%TO.C,MK1*%
X53350000Y-36700000D03*
%TD*%
D29*
%TO.C,TP_SCK*%
X61500000Y-150250000D03*
%TD*%
%TO.C,TP_GND*%
X45200000Y-152800000D03*
%TD*%
%TO.C,TP_VCC*%
X45200000Y-155200000D03*
%TD*%
%TO.C,TP_IR_REC*%
X61500000Y-140000000D03*
%TD*%
%TO.C,TP_SDA*%
X61500000Y-145000000D03*
%TD*%
%TO.C,TP_SCL*%
X61500000Y-142500000D03*
%TD*%
%TO.C,TP_3V3*%
X45200000Y-150200000D03*
%TD*%
%TO.C,TP_WS*%
X61500000Y-147500000D03*
%TD*%
%TO.C,TP_ANO_ENC1*%
X45250000Y-145000000D03*
%TD*%
%TO.C,TP_LED1*%
X45250000Y-140000000D03*
%TD*%
%TO.C,TP_IR_EMIT*%
X61500000Y-152750000D03*
%TD*%
M02*
