M48
; DRILL file KiCad 10.0.2 date 2026-05-11T23:16:53
; FORMAT={-:-/ absolute / metric / decimal}
; #@! TF.CreationDate,2026-05-11T23:16:53-07:00
; #@! TF.GenerationSoftware,Kicad,Pcbnew,10.0.2
; #@! TF.FileFunction,MixedPlating,1,2
FMAT,2
METRIC
; #@! TA.AperFunction,Plated,PTH,ViaDrill
T1C0.300
; #@! TA.AperFunction,Plated,PTH,ComponentDrill
T2C0.889
; #@! TA.AperFunction,Plated,PTH,ComponentDrill
T3C0.900
; #@! TA.AperFunction,Plated,PTH,ComponentDrill
T4C1.700
; #@! TA.AperFunction,NonPlated,NPTH,ComponentDrill
T5C0.500
%
G90
G05
T1
X47.879Y-74.676
X53.34Y-33.528
X55.372Y-125.476
X59.69Y-33.274
X65.782Y-141.99
X67.564Y-37.846
T2
X45.72Y-140.081
X45.72Y-142.621
X45.72Y-145.161
X45.72Y-147.701
X45.72Y-150.241
X45.72Y-152.781
X45.72Y-155.321
X60.96Y-140.081
X60.96Y-142.621
X60.96Y-145.161
X60.96Y-147.701
X60.96Y-150.241
X60.96Y-152.781
X60.96Y-155.321
T3
X41.402Y-33.02
X43.942Y-33.02
X46.482Y-33.02
X61.497Y-33.258
X64.037Y-33.258
T4
X37.187Y-71.32
X45.588Y-52.61
X46.79Y-61.166
X50.085Y-83.794
X52.227Y-68.824
X59.885Y-61.166
X59.885Y-74.262
X61.087Y-82.818
X69.488Y-64.108
T5
X53.337Y-36.714
M30
