%TF.GenerationSoftware,KiCad,Pcbnew,10.0.2*%
%TF.CreationDate,2026-05-23T13:51:48-07:00*%
%TF.ProjectId,c6remote,63367265-6d6f-4746-952e-6b696361645f,rev?*%
%TF.SameCoordinates,Original*%
%TF.FileFunction,Paste,Bot*%
%TF.FilePolarity,Positive*%
%FSLAX46Y46*%
G04 Gerber Fmt 4.6, Leading zero omitted, Abs format (unit mm)*
G04 Created by KiCad (PCBNEW 10.0.2) date 2026-05-23 13:51:48*
%MOMM*%
%LPD*%
G01*
G04 APERTURE LIST*
G04 Aperture macros list*
%AMRoundRect*
0 Rectangle with rounded corners*
0 $1 Rounding radius*
0 $2 $3 $4 $5 $6 $7 $8 $9 X,Y pos of 4 corners*
0 Add a 4 corners polygon primitive as box body*
4,1,4,$2,$3,$4,$5,$6,$7,$8,$9,$2,$3,0*
0 Add four circle primitives for the rounded corners*
1,1,$1+$1,$2,$3*
1,1,$1+$1,$4,$5*
1,1,$1+$1,$6,$7*
1,1,$1+$1,$8,$9*
0 Add four rect primitives between the rounded corners*
20,1,$1+$1,$2,$3,$4,$5,0*
20,1,$1+$1,$4,$5,$6,$7,0*
20,1,$1+$1,$6,$7,$8,$9,0*
20,1,$1+$1,$8,$9,$2,$3,0*%
G04 Aperture macros list end*
%ADD10C,0.000000*%
%ADD11RoundRect,0.250000X-0.350000X-0.625000X0.350000X-0.625000X0.350000X0.625000X-0.350000X0.625000X0*%
%ADD12O,1.200000X1.750000*%
G04 APERTURE END LIST*
%TO.C,MK1*%
G36*
X52900000Y-34429000D02*
G01*
X53400000Y-34429000D01*
X53400000Y-34851000D01*
X52900000Y-34851000D01*
X52900000Y-34429000D01*
G37*
G36*
X52900000Y-35251000D02*
G01*
X53400000Y-35251000D01*
X53400000Y-35673000D01*
X52900000Y-35673000D01*
X52900000Y-35251000D01*
G37*
G36*
X53800000Y-34429000D02*
G01*
X54300000Y-34429000D01*
X54300000Y-34851000D01*
X53800000Y-34851000D01*
X53800000Y-34429000D01*
G37*
G36*
X54700000Y-35251000D02*
G01*
X55200000Y-35251000D01*
X55200000Y-35673000D01*
X54700000Y-35673000D01*
X54700000Y-35251000D01*
G37*
G36*
X54700000Y-34429000D02*
G01*
X55200000Y-34429000D01*
X55200000Y-34851000D01*
X54700000Y-34851000D01*
X54700000Y-34429000D01*
G37*
D10*
G36*
X53510700Y-36873800D02*
G01*
X53552900Y-36977200D01*
X53614700Y-37070300D01*
X53693700Y-37149300D01*
X53786800Y-37211100D01*
X53890200Y-37253300D01*
X54000000Y-37274300D01*
X54000000Y-37525000D01*
X53834500Y-37497400D01*
X53678300Y-37436500D01*
X53537800Y-37344800D01*
X53419200Y-37226200D01*
X53327500Y-37085700D01*
X53266600Y-36929500D01*
X53239000Y-36764000D01*
X53489700Y-36764000D01*
X53510700Y-36873800D01*
G37*
G36*
X54000000Y-36153700D02*
G01*
X53890200Y-36174700D01*
X53786800Y-36216900D01*
X53693700Y-36278700D01*
X53614700Y-36357700D01*
X53552900Y-36450800D01*
X53510700Y-36554200D01*
X53489700Y-36664000D01*
X53239000Y-36664000D01*
X53266600Y-36498500D01*
X53327500Y-36342300D01*
X53419200Y-36201800D01*
X53537800Y-36083200D01*
X53678300Y-35991500D01*
X53834500Y-35930600D01*
X54000000Y-35903000D01*
X54000000Y-36153700D01*
G37*
G36*
X54833400Y-36929500D02*
G01*
X54772500Y-37085700D01*
X54680800Y-37226200D01*
X54562200Y-37344800D01*
X54421700Y-37436500D01*
X54265500Y-37497400D01*
X54100000Y-37525000D01*
X54100000Y-37274300D01*
X54209800Y-37253300D01*
X54313200Y-37211100D01*
X54406300Y-37149300D01*
X54485300Y-37070300D01*
X54547100Y-36977200D01*
X54589300Y-36873800D01*
X54610300Y-36764000D01*
X54861000Y-36764000D01*
X54833400Y-36929500D01*
G37*
G36*
X54265500Y-35930600D02*
G01*
X54421700Y-35991500D01*
X54562200Y-36083200D01*
X54680800Y-36201800D01*
X54772500Y-36342300D01*
X54833400Y-36498500D01*
X54861000Y-36664000D01*
X54610300Y-36664000D01*
X54589300Y-36554200D01*
X54547100Y-36450800D01*
X54485300Y-36357700D01*
X54406300Y-36278700D01*
X54313200Y-36216900D01*
X54209800Y-36174700D01*
X54100000Y-36153700D01*
X54100000Y-35903000D01*
X54265500Y-35930600D01*
G37*
%TD*%
D11*
%TO.C,J1*%
X52900000Y-155700000D03*
D12*
X54900000Y-155700000D03*
%TD*%
M02*
