M48
; DRILL file KiCad 10.0.3 date 2026-08-03T10:20:29
; FORMAT={-:-/ absolute / metric / decimal}
; #@! TF.CreationDate,2026-08-03T10:20:29-07:00
; #@! TF.GenerationSoftware,Kicad,Pcbnew,10.0.3
; #@! TF.FileFunction,MixedPlating,1,2
FMAT,2
METRIC
; #@! TA.AperFunction,Plated,PTH,ViaDrill
T1C0.300
; #@! TA.AperFunction,Plated,PTH,ComponentDrill
T2C0.500
; #@! TA.AperFunction,Plated,PTH,ComponentDrill
T3C0.900
; #@! TA.AperFunction,Plated,PTH,ComponentDrill
T4C1.700
; #@! TA.AperFunction,NonPlated,NPTH,ComponentDrill
T5C0.500
%
G90
G05
T1
X38.75Y-56.0
X38.75Y-63.75
X39.5Y-58.0
X41.0Y-87.25
X41.0Y-142.25
X42.25Y-133.75
X42.25Y-137.914
X43.0Y-87.25
X44.5Y-154.25
X45.5Y-69.5
X45.75Y-143.75
X47.25Y-134.5
X49.784Y-126.284
X50.125Y-142.125
X50.976Y-77.773
X53.0Y-146.75
X54.25Y-73.25
X55.418Y-31.582
X56.0Y-32.75
X56.5Y-35.0
X57.25Y-123.25
X60.0Y-156.25
X63.25Y-62.5
X63.75Y-54.0
X64.5Y-73.0
X65.25Y-136.0
X66.0Y-134.75
X66.75Y-146.75
X66.75Y-149.25
X66.75Y-151.75
X67.3Y-156.3
X70.25Y-41.25
X70.25Y-153.5
T2
X54.843Y-151.181
X54.843Y-153.721
X54.843Y-156.261
X54.936Y-148.698
X55.351Y-142.088
X57.383Y-148.641
X57.383Y-151.181
X57.383Y-153.721
X57.383Y-156.261
X57.891Y-142.088
T3
X40.983Y-31.262
X43.523Y-31.262
X46.063Y-31.262
X61.96Y-32.75
X64.5Y-32.75
T4
X37.187Y-71.32
X45.588Y-52.61
X46.79Y-61.166
X50.085Y-83.794
X52.227Y-68.824
X59.885Y-61.166
X59.885Y-74.262
X61.087Y-82.818
X69.488Y-64.108
T5
X53.35Y-31.582
M30
