%TF.GenerationSoftware,KiCad,Pcbnew,10.0.3*%
%TF.CreationDate,2026-07-27T08:10:23-07:00*%
%TF.ProjectId,c6remote,63367265-6d6f-4746-952e-6b696361645f,rev?*%
%TF.SameCoordinates,Original*%
%TF.FileFunction,Copper,L2,Bot*%
%TF.FilePolarity,Positive*%
%FSLAX46Y46*%
G04 Gerber Fmt 4.6, Leading zero omitted, Abs format (unit mm)*
G04 Created by KiCad (PCBNEW 10.0.3) date 2026-07-27 08:10:23*
%MOMM*%
%LPD*%
G01*
G04 APERTURE LIST*
G04 Aperture macros list*
%AMRoundRect*
0 Rectangle with rounded corners*
0 $1 Rounding radius*
0 $2 $3 $4 $5 $6 $7 $8 $9 X,Y pos of 4 corners*
0 Add a 4 corners polygon primitive as box body*
4,1,4,$2,$3,$4,$5,$6,$7,$8,$9,$2,$3,0*
0 Add four circle primitives for the rounded corners*
1,1,$1+$1,$2,$3*
1,1,$1+$1,$4,$5*
1,1,$1+$1,$6,$7*
1,1,$1+$1,$8,$9*
0 Add four rect primitives between the rounded corners*
20,1,$1+$1,$2,$3,$4,$5,0*
20,1,$1+$1,$4,$5,$6,$7,0*
20,1,$1+$1,$6,$7,$8,$9,0*
20,1,$1+$1,$8,$9,$2,$3,0*%
%AMFreePoly0*
4,1,64,0.031751,0.146088,0.079639,0.146088,0.235856,0.115014,0.383010,0.054061,0.515445,-0.034429,0.628071,-0.147055,0.716561,-0.279490,0.777514,-0.426644,0.808588,-0.582861,0.808588,-0.742139,0.777514,-0.898356,0.716561,-1.045510,0.628071,-1.177945,0.515445,-1.290571,0.383010,-1.379061,0.235856,-1.440014,0.079639,-1.471088,-0.079639,-1.471088,-0.235856,-1.440014,-0.383010,-1.379061,
-0.515445,-1.290571,-0.628071,-1.177945,-0.716561,-1.045510,-0.777514,-0.898356,-0.808588,-0.742139,-0.808588,-0.595028,-0.512500,-0.595028,-0.512500,-0.729972,-0.477574,-0.860317,-0.410102,-0.977182,-0.314682,-1.072602,-0.197817,-1.140074,-0.067472,-1.175000,0.067472,-1.175000,0.197817,-1.140074,0.314682,-1.072602,0.410102,-0.977182,0.477574,-0.860317,0.512500,-0.729972,0.512500,-0.595028,
0.477574,-0.464683,0.410102,-0.347818,0.314682,-0.252398,0.197817,-0.184926,0.067472,-0.150000,-0.067472,-0.150000,-0.197817,-0.184926,-0.314682,-0.252398,-0.410102,-0.347818,-0.477574,-0.464683,-0.512500,-0.595028,-0.808588,-0.595028,-0.808588,-0.582861,-0.777514,-0.426644,-0.716561,-0.279490,-0.628071,-0.147055,-0.515445,-0.034429,-0.383010,0.054061,-0.235856,0.115014,-0.079639,0.146088,
-0.031751,0.146088,-0.029264,0.147118,0.029264,0.147118,0.031751,0.146088,0.031751,0.146088,$1*%
G04 Aperture macros list end*
%TA.AperFunction,ComponentPad*%
%ADD10C,1.700000*%
%TD*%
%TA.AperFunction,ComponentPad*%
%ADD11RoundRect,0.275000X0.275000X-0.975000X0.275000X0.975000X-0.275000X0.975000X-0.275000X-0.975000X0*%
%TD*%
%TA.AperFunction,ComponentPad*%
%ADD12C,1.000000*%
%TD*%
%TA.AperFunction,ComponentPad*%
%ADD13R,1.800000X1.800000*%
%TD*%
%TA.AperFunction,ComponentPad*%
%ADD14C,1.800000*%
%TD*%
%TA.AperFunction,ComponentPad*%
%ADD15RoundRect,0.250000X1.000000X-1.000000X1.000000X1.000000X-1.000000X1.000000X-1.000000X-1.000000X0*%
%TD*%
%TA.AperFunction,ComponentPad*%
%ADD16C,2.500000*%
%TD*%
%TA.AperFunction,ComponentPad*%
%ADD17C,2.750000*%
%TD*%
%TA.AperFunction,SMDPad,CuDef*%
%ADD18RoundRect,0.250000X-0.250000X-1.500000X0.250000X-1.500000X0.250000X1.500000X-0.250000X1.500000X0*%
%TD*%
%TA.AperFunction,SMDPad,CuDef*%
%ADD19RoundRect,0.250001X-0.499999X-1.449999X0.499999X-1.449999X0.499999X1.449999X-0.499999X1.449999X0*%
%TD*%
%TA.AperFunction,SMDPad,CuDef*%
%ADD20RoundRect,0.200000X-0.275000X0.200000X-0.275000X-0.200000X0.275000X-0.200000X0.275000X0.200000X0*%
%TD*%
%TA.AperFunction,SMDPad,CuDef*%
%ADD21RoundRect,0.200000X-0.200000X-0.275000X0.200000X-0.275000X0.200000X0.275000X-0.200000X0.275000X0*%
%TD*%
%TA.AperFunction,SMDPad,CuDef*%
%ADD22R,0.600000X0.522000*%
%TD*%
%TA.AperFunction,SMDPad,CuDef*%
%ADD23FreePoly0,90.000000*%
%TD*%
%TA.AperFunction,SMDPad,CuDef*%
%ADD24RoundRect,0.200000X0.200000X0.275000X-0.200000X0.275000X-0.200000X-0.275000X0.200000X-0.275000X0*%
%TD*%
%TA.AperFunction,ComponentPad*%
%ADD25RoundRect,0.248400X-0.651600X-0.651600X0.651600X-0.651600X0.651600X0.651600X-0.651600X0.651600X0*%
%TD*%
%TA.AperFunction,ViaPad*%
%ADD26C,0.600000*%
%TD*%
%TA.AperFunction,Conductor*%
%ADD27C,0.200000*%
%TD*%
G04 APERTURE END LIST*
D10*
%TO.P,U1,24,GPIO5_MTDI_24*%
%TO.N,exp_int*%
X57383400Y-156261500D03*
%TO.P,U1,25,GPIO7_MTDO_25*%
%TO.N,unconnected-(U1-GPIO7_MTDO-Pad25)*%
X54843400Y-156261500D03*
%TO.P,U1,26,CHIP_EN_26*%
%TO.N,unconnected-(U1-CHIP_EN-Pad26)*%
X57383400Y-153721500D03*
%TO.P,U1,27,GND_27*%
%TO.N,GND*%
X54843400Y-153721500D03*
%TO.P,U1,28,GPIO4_MTMS_28*%
%TO.N,bat_sense*%
X57383400Y-151181500D03*
%TO.P,U1,29,GPIO6_MTCK_29*%
%TO.N,unconnected-(U1-GPIO6_MTCK-Pad29)*%
X54843400Y-151181500D03*
%TO.P,U1,30,GPIO9_BOOT_30*%
%TO.N,unconnected-(U1-GPIO9_BOOT-Pad30)*%
X57383400Y-148641500D03*
%TO.P,U1,31,3V3_31*%
%TO.N,+3.3V*%
X54936000Y-148698300D03*
D11*
%TO.P,U1,32,BAT_32*%
%TO.N,BAT*%
X57891400Y-142088300D03*
%TO.P,U1,33,GND_33*%
%TO.N,GND*%
X55351400Y-142088300D03*
%TD*%
D12*
%TO.P,TP_VCC1,1,1_1*%
%TO.N,VCC*%
X47950000Y-155250000D03*
%TD*%
D13*
%TO.P,D1,1,K_1*%
%TO.N,Net-(D1-K)*%
X64037455Y-33258000D03*
D14*
%TO.P,D1,2,A_2*%
%TO.N,Net-(D1-A)*%
X61497455Y-33258000D03*
%TD*%
D15*
%TO.P,ENC1,1,COM_B_1*%
%TO.N,GND*%
X50084764Y-83793690D03*
D16*
%TO.P,ENC1,2,S2_DOWN_2*%
%TO.N,ano_sw4*%
X61087345Y-82817923D03*
D17*
%TO.P,ENC1,3,ENCA_3*%
%TO.N,ano_enc2*%
X59885264Y-74261954D03*
D16*
%TO.P,ENC1,4,S1_CENTER_4*%
%TO.N,ano_sw3*%
X52227297Y-68824158D03*
%TO.P,ENC1,5,S5_LEFT_5*%
%TO.N,ano_sw5*%
X37187136Y-71320254D03*
%TO.P,ENC1,6,COM_A_6*%
%TO.N,GND*%
X46789646Y-61166136D03*
D17*
%TO.P,ENC1,7,ENCB_7*%
%TO.N,ano_enc1*%
X59885264Y-61166020D03*
D15*
%TO.P,ENC1,8,S4_UP_8*%
%TO.N,ano_sw2*%
X45587565Y-52610131D03*
D16*
%TO.P,ENC1,9,S3_RIGHT_9*%
%TO.N,ano_sw1*%
X69487774Y-64107590D03*
%TD*%
D18*
%TO.P,J1,1,Pin_1_1*%
%TO.N,BAT*%
X39250000Y-155250000D03*
%TO.P,J1,2,Pin_2_2*%
%TO.N,GND*%
X41250000Y-155250000D03*
D19*
%TO.P,J1,MP*%
%TO.N,N/C*%
X36900000Y-149500000D03*
X43600000Y-149500000D03*
%TD*%
D20*
%TO.P,R7,1*%
%TO.N,BAT*%
X60000000Y-142175000D03*
%TO.P,R7,2*%
%TO.N,bat_sense*%
X60000000Y-143825000D03*
%TD*%
D12*
%TO.P,TP_SD,1*%
%TO.N,sd*%
X64250000Y-155250000D03*
%TD*%
%TO.P,TP_ANO_ENC2,1*%
%TO.N,ano_enc2*%
X48000000Y-142500000D03*
%TD*%
D21*
%TO.P,R3,1*%
%TO.N,+3.3V*%
X57350000Y-33258000D03*
%TO.P,R3,2*%
%TO.N,Net-(D1-A)*%
X59000000Y-33258000D03*
%TD*%
D12*
%TO.P,TP_GPIO18_D10_MOSI,1*%
%TO.N,unconnected-(U1-GPIO18_D10_MOSI-Pad11)*%
X48000000Y-147750000D03*
%TD*%
D22*
%TO.P,MK1,1,SCK_1*%
%TO.N,sck*%
X54250000Y-34626000D03*
%TO.P,MK1,2,WS_2*%
%TO.N,ws*%
X54250000Y-35448000D03*
D23*
%TO.P,MK1,3,L/R_3*%
%TO.N,GND*%
X52687500Y-36700000D03*
D22*
%TO.P,MK1,4,SD_4*%
%TO.N,sd*%
X52450000Y-35448000D03*
%TO.P,MK1,5,VDD_5*%
%TO.N,+3.3V*%
X52450000Y-34626000D03*
%TO.P,MK1,6,GND_6*%
%TO.N,GND*%
X53350000Y-34626000D03*
%TD*%
D12*
%TO.P,TP_SCK,1*%
%TO.N,sck*%
X64250000Y-150250000D03*
%TD*%
D24*
%TO.P,R6,1*%
%TO.N,+3.3V*%
X50075000Y-33000000D03*
%TO.P,R6,2*%
%TO.N,Net-(U2-Vs)*%
X48425000Y-33000000D03*
%TD*%
D25*
%TO.P,U2,1,OUT_1*%
%TO.N,IR REC*%
X41000000Y-33020000D03*
D14*
%TO.P,U2,2,GND_2*%
%TO.N,GND*%
X43540000Y-33020000D03*
%TO.P,U2,3,Vs_3*%
%TO.N,Net-(U2-Vs)*%
X46080000Y-33020000D03*
%TD*%
D12*
%TO.P,TP_GND,1*%
%TO.N,GND*%
X47950000Y-152800000D03*
%TD*%
%TO.P,TP_IR_REC,1*%
%TO.N,IR REC*%
X64250000Y-140000000D03*
%TD*%
%TO.P,TP_SDA,1*%
%TO.N,sda*%
X64250000Y-145000000D03*
%TD*%
%TO.P,TP_SCL,1*%
%TO.N,scl*%
X64250000Y-142500000D03*
%TD*%
%TO.P,TP_3V3,1*%
%TO.N,+3.3V*%
X47950000Y-150200000D03*
%TD*%
D24*
%TO.P,R8,1*%
%TO.N,bat_sense*%
X52240000Y-152750000D03*
%TO.P,R8,2*%
%TO.N,GND*%
X50590000Y-152750000D03*
%TD*%
D12*
%TO.P,TP_WS,1*%
%TO.N,ws*%
X64250000Y-147500000D03*
%TD*%
%TO.P,TP_ANO_ENC1,1*%
%TO.N,ano_enc1*%
X48000000Y-145000000D03*
%TD*%
%TO.P,TP_LED1,1*%
%TO.N,led_1*%
X48000000Y-140000000D03*
%TD*%
%TO.P,TP_IR_EMIT,1*%
%TO.N,IR EMIT*%
X64250000Y-152750000D03*
%TD*%
D26*
%TO.N,+3.3V*%
X40788939Y-81217155D03*
X57250000Y-123250000D03*
X69000000Y-154175000D03*
X67250000Y-83500000D03*
X63750000Y-54000000D03*
X39834345Y-55165539D03*
%TO.N,GND*%
X60500000Y-92500000D03*
X53350000Y-33350000D03*
X64036000Y-92512000D03*
X44709000Y-135914000D03*
X42809000Y-137914000D03*
X50750000Y-36750000D03*
%TO.N,led_4*%
X63250000Y-62500000D03*
X64500000Y-73000000D03*
%TO.N,sd*%
X66000000Y-135250000D03*
%TO.N,IR EMIT*%
X70250000Y-41250000D03*
%TO.N,exp_int*%
X49784000Y-127035800D03*
X69000000Y-155825000D03*
X60000000Y-156250000D03*
X47250000Y-134500000D03*
%TO.N,ano_sw5*%
X49476500Y-76273500D03*
%TO.N,led_2*%
X38950461Y-54281655D03*
X38375000Y-63375000D03*
%TD*%
%TO.N,GND*%
D27*
X64036000Y-92512000D02*
X60512000Y-92512000D01*
X50750000Y-36750000D02*
X52637500Y-36750000D01*
X50590000Y-152750000D02*
X48000000Y-152750000D01*
X53350000Y-33350000D02*
X53350000Y-34626000D01*
X41250000Y-155250000D02*
X43700000Y-152800000D01*
X52637500Y-36750000D02*
X52687500Y-36700000D01*
X44709000Y-135914000D02*
X42809000Y-137914000D01*
X60512000Y-92512000D02*
X60500000Y-92500000D01*
X48000000Y-152750000D02*
X47950000Y-152800000D01*
X43700000Y-152800000D02*
X47950000Y-152800000D01*
%TO.N,led_4*%
X63250000Y-66750000D02*
X63250000Y-62500000D01*
X64500000Y-68000000D02*
X63250000Y-66750000D01*
X64500000Y-73000000D02*
X64500000Y-68000000D01*
%TO.N,sd*%
X67500000Y-54750000D02*
X65500000Y-52750000D01*
X64750000Y-65937500D02*
X64750000Y-61625000D01*
X66000000Y-135250000D02*
X66000000Y-82250000D01*
X64750000Y-61625000D02*
X67500000Y-58875000D01*
X49750000Y-36250000D02*
X50538000Y-35462000D01*
X67750000Y-80500000D02*
X67750000Y-68937500D01*
X67500000Y-58875000D02*
X67500000Y-54750000D01*
X66000000Y-82250000D02*
X67750000Y-80500000D01*
X49750000Y-37750000D02*
X49750000Y-36250000D01*
X50500000Y-38500000D02*
X49750000Y-37750000D01*
X67750000Y-68937500D02*
X64750000Y-65937500D01*
X65500000Y-52750000D02*
X65500000Y-46000000D01*
X65500000Y-46000000D02*
X58000000Y-38500000D01*
X58000000Y-38500000D02*
X50500000Y-38500000D01*
X50538000Y-35462000D02*
X52437455Y-35462000D01*
%TO.N,IR EMIT*%
X67000000Y-65250000D02*
X70000000Y-68250000D01*
X70000000Y-148000000D02*
X65250000Y-152750000D01*
X65250000Y-152750000D02*
X64250000Y-152750000D01*
X70250000Y-41250000D02*
X70250000Y-59000000D01*
X67000000Y-62250000D02*
X67000000Y-65250000D01*
X70000000Y-68250000D02*
X70000000Y-148000000D01*
X70250000Y-59000000D02*
X67000000Y-62250000D01*
%TO.N,sck*%
X54000000Y-34590000D02*
X54050000Y-34640000D01*
X66250000Y-65500000D02*
X69250000Y-68500000D01*
X54264000Y-34640000D02*
X56265000Y-34640000D01*
X67000000Y-51750000D02*
X69000000Y-53750000D01*
X54250000Y-34626000D02*
X54264000Y-34640000D01*
X69000000Y-59200000D02*
X66250000Y-61950000D01*
X69250000Y-146250000D02*
X65250000Y-150250000D01*
X69250000Y-68500000D02*
X69250000Y-146250000D01*
X64250000Y-150250000D02*
X65250000Y-150250000D01*
X66250000Y-61950000D02*
X66250000Y-65500000D01*
X67000000Y-45375000D02*
X67000000Y-51750000D01*
X56265000Y-34640000D02*
X67000000Y-45375000D01*
X69000000Y-53750000D02*
X69000000Y-59200000D01*
%TO.N,ws*%
X65250000Y-147500000D02*
X64250000Y-147500000D01*
X68500000Y-144250000D02*
X65250000Y-147500000D01*
X65500000Y-61750000D02*
X65500000Y-65671875D01*
X68500000Y-68671875D02*
X68500000Y-144250000D01*
X54250000Y-35448000D02*
X54264000Y-35462000D01*
X66250000Y-52250000D02*
X68250000Y-54250000D01*
X65500000Y-65671875D02*
X68500000Y-68671875D01*
X68250000Y-54250000D02*
X68250000Y-59000000D01*
X54264000Y-35462000D02*
X55962000Y-35462000D01*
X68250000Y-59000000D02*
X65500000Y-61750000D01*
X66250000Y-45750000D02*
X66250000Y-52250000D01*
X55962000Y-35462000D02*
X66250000Y-45750000D01*
%TO.N,IR REC*%
X41000000Y-33020000D02*
X41000000Y-34500000D01*
X66750000Y-55250000D02*
X66750000Y-58500000D01*
X67000000Y-69500000D02*
X67000000Y-79750000D01*
X65250000Y-139000000D02*
X64250000Y-140000000D01*
X64750000Y-46500000D02*
X64750000Y-53250000D01*
X64000000Y-66500000D02*
X67000000Y-69500000D01*
X41000000Y-34500000D02*
X46000000Y-39500000D01*
X64000000Y-61250000D02*
X64000000Y-66500000D01*
X65250000Y-81500000D02*
X65250000Y-139000000D01*
X46000000Y-39500000D02*
X57750000Y-39500000D01*
X64750000Y-53250000D02*
X66750000Y-55250000D01*
X66750000Y-58500000D02*
X64000000Y-61250000D01*
X67000000Y-79750000D02*
X65250000Y-81500000D01*
X57750000Y-39500000D02*
X64750000Y-46500000D01*
%TO.N,ano_enc2*%
X56388000Y-135112000D02*
X49000000Y-142500000D01*
X48000000Y-142500000D02*
X48000000Y-142540000D01*
X49000000Y-142500000D02*
X48000000Y-142500000D01*
X59885264Y-74261954D02*
X56388000Y-77759218D01*
X56388000Y-77759218D02*
X56388000Y-135112000D01*
%TO.N,ano_enc1*%
X46000000Y-143000000D02*
X48000000Y-145000000D01*
X59885264Y-70614736D02*
X57000000Y-73500000D01*
X46000000Y-82250000D02*
X46000000Y-143000000D01*
X57000000Y-73500000D02*
X54750000Y-73500000D01*
X54750000Y-73500000D02*
X46000000Y-82250000D01*
X59885264Y-61166020D02*
X59885264Y-70614736D01*
X48080000Y-144920000D02*
X48080000Y-145000000D01*
%TO.N,exp_int*%
X58738500Y-156261500D02*
X57383400Y-156261500D01*
X47250000Y-134500000D02*
X47250000Y-128750000D01*
X60750000Y-157000000D02*
X68500000Y-157000000D01*
X60000000Y-156250000D02*
X60750000Y-157000000D01*
X48964200Y-127035800D02*
X49784000Y-127035800D01*
X68500000Y-157000000D02*
X69000000Y-156500000D01*
X58750000Y-156250000D02*
X58738500Y-156261500D01*
X60000000Y-156250000D02*
X58750000Y-156250000D01*
X47250000Y-128750000D02*
X48964200Y-127035800D01*
X69000000Y-156500000D02*
X69000000Y-155825000D01*
%TO.N,bat_sense*%
X60000000Y-143825000D02*
X60000000Y-148564900D01*
X52240000Y-149010000D02*
X57425000Y-143825000D01*
X57425000Y-143825000D02*
X60000000Y-143825000D01*
X52240000Y-152750000D02*
X52240000Y-149010000D01*
X60000000Y-148564900D02*
X57383400Y-151181500D01*
%TO.N,BAT*%
X60000000Y-142175000D02*
X57978100Y-142175000D01*
X57891400Y-142088300D02*
X57891400Y-142358600D01*
X57891400Y-142358600D02*
X48500000Y-151750000D01*
X57978100Y-142175000D02*
X57891400Y-142088300D01*
X39250000Y-153500000D02*
X39250000Y-155250000D01*
X41000000Y-151750000D02*
X39250000Y-153500000D01*
X48500000Y-151750000D02*
X41000000Y-151750000D01*
%TO.N,Net-(U2-Vs)*%
X48425000Y-33000000D02*
X46100000Y-33000000D01*
X46100000Y-33000000D02*
X46080000Y-33020000D01*
%TO.N,Net-(D1-A)*%
X59000000Y-33258000D02*
X61497455Y-33258000D01*
%TO.N,ano_sw5*%
X49476500Y-76273500D02*
X44453000Y-71250000D01*
X44453000Y-71250000D02*
X37257390Y-71250000D01*
X37257390Y-71250000D02*
X37187136Y-71320254D01*
%TO.N,led_2*%
X38250000Y-63250000D02*
X38250000Y-54982116D01*
X38250000Y-54982116D02*
X38950461Y-54281655D01*
X38375000Y-63375000D02*
X38250000Y-63250000D01*
%TD*%
%TA.AperFunction,Conductor*%
%TO.N,+3.3V*%
G36*
X40279994Y-28734185D02*
G01*
X40325749Y-28786989D01*
X40336955Y-28838500D01*
X40336955Y-30779891D01*
X40371063Y-30907187D01*
X40404009Y-30964250D01*
X40436955Y-31021314D01*
X40530141Y-31114500D01*
X40644269Y-31180392D01*
X40771563Y-31214500D01*
X40771565Y-31214500D01*
X47003345Y-31214500D01*
X47003347Y-31214500D01*
X47130641Y-31180392D01*
X47244769Y-31114500D01*
X47337955Y-31021314D01*
X47403847Y-30907186D01*
X47437955Y-30779892D01*
X47437955Y-28838500D01*
X47457640Y-28771461D01*
X47510444Y-28725706D01*
X47561955Y-28714500D01*
X59112955Y-28714500D01*
X59179994Y-28734185D01*
X59225749Y-28786989D01*
X59236955Y-28838500D01*
X59236955Y-30779891D01*
X59271063Y-30907187D01*
X59304009Y-30964250D01*
X59336955Y-31021314D01*
X59430141Y-31114500D01*
X59544269Y-31180392D01*
X59671563Y-31214500D01*
X59671565Y-31214500D01*
X65903345Y-31214500D01*
X65903347Y-31214500D01*
X66030641Y-31180392D01*
X66144769Y-31114500D01*
X66237955Y-31021314D01*
X66303847Y-30907186D01*
X66337955Y-30779892D01*
X66337955Y-28838500D01*
X66357640Y-28771461D01*
X66410444Y-28725706D01*
X66461955Y-28714500D01*
X68833612Y-28714500D01*
X68841117Y-28714727D01*
X69131169Y-28732315D01*
X69146024Y-28734121D01*
X69428160Y-28785861D01*
X69442672Y-28789439D01*
X69716530Y-28874807D01*
X69730507Y-28880109D01*
X69992074Y-28997855D01*
X70005326Y-29004811D01*
X70250779Y-29153210D01*
X70263100Y-29161715D01*
X70488890Y-29338619D01*
X70500095Y-29348547D01*
X70702907Y-29551359D01*
X70712835Y-29562564D01*
X70889739Y-29788354D01*
X70898244Y-29800675D01*
X71046643Y-30046128D01*
X71053601Y-30059383D01*
X71171341Y-30320937D01*
X71176651Y-30334935D01*
X71262012Y-30608771D01*
X71265596Y-30623306D01*
X71317332Y-30905426D01*
X71319139Y-30920287D01*
X71336728Y-31210335D01*
X71336955Y-31217841D01*
X71336955Y-63674744D01*
X71317270Y-63741783D01*
X71264466Y-63787538D01*
X71195308Y-63797482D01*
X71131752Y-63768457D01*
X71095024Y-63713063D01*
X71017351Y-63474013D01*
X70942341Y-63326800D01*
X70899408Y-63242539D01*
X70746705Y-63032361D01*
X70563003Y-62848659D01*
X70462991Y-62775996D01*
X70352828Y-62695958D01*
X70352827Y-62695957D01*
X70352825Y-62695956D01*
X70280538Y-62659124D01*
X70121350Y-62578012D01*
X69874267Y-62497730D01*
X69617676Y-62457090D01*
X69617671Y-62457090D01*
X69357877Y-62457090D01*
X69357872Y-62457090D01*
X69101280Y-62497730D01*
X68854197Y-62578012D01*
X68622719Y-62695958D01*
X68412548Y-62848656D01*
X68412542Y-62848661D01*
X68228845Y-63032358D01*
X68228840Y-63032364D01*
X68076142Y-63242535D01*
X67958196Y-63474013D01*
X67877914Y-63721096D01*
X67837274Y-63977687D01*
X67837274Y-64237492D01*
X67877914Y-64494083D01*
X67958196Y-64741166D01*
X68076142Y-64972644D01*
X68153418Y-65079005D01*
X68228843Y-65182819D01*
X68412545Y-65366521D01*
X68622723Y-65519224D01*
X68770219Y-65594377D01*
X68854197Y-65637167D01*
X68854199Y-65637167D01*
X68854202Y-65637169D01*
X69101281Y-65717450D01*
X69233480Y-65738387D01*
X69357872Y-65758090D01*
X69357877Y-65758090D01*
X69617676Y-65758090D01*
X69731072Y-65740129D01*
X69874267Y-65717450D01*
X70121346Y-65637169D01*
X70352825Y-65519224D01*
X70563003Y-65366521D01*
X70746705Y-65182819D01*
X70899408Y-64972641D01*
X71017353Y-64741162D01*
X71095024Y-64502117D01*
X71134462Y-64444441D01*
X71198820Y-64417243D01*
X71267667Y-64429158D01*
X71319142Y-64476402D01*
X71336955Y-64540435D01*
X71336955Y-155210146D01*
X71336728Y-155217653D01*
X71319135Y-155507703D01*
X71317328Y-155522564D01*
X71265586Y-155804691D01*
X71262001Y-155819226D01*
X71176641Y-156093053D01*
X71171331Y-156107051D01*
X71053589Y-156368604D01*
X71046631Y-156381859D01*
X70898232Y-156627311D01*
X70889728Y-156639631D01*
X70712822Y-156865422D01*
X70702894Y-156876627D01*
X70500082Y-157079439D01*
X70488877Y-157089367D01*
X70263086Y-157266273D01*
X70250766Y-157274777D01*
X70005314Y-157423176D01*
X69992059Y-157430134D01*
X69730506Y-157547876D01*
X69716508Y-157553186D01*
X69442681Y-157638546D01*
X69428146Y-157642131D01*
X69146019Y-157693873D01*
X69131158Y-157695680D01*
X68841109Y-157713273D01*
X68833602Y-157713500D01*
X68712839Y-157713500D01*
X68645800Y-157693815D01*
X68600045Y-157641011D01*
X68590101Y-157571853D01*
X68619126Y-157508297D01*
X68677904Y-157470523D01*
X68680704Y-157469736D01*
X68693186Y-157466392D01*
X68807314Y-157400500D01*
X69400500Y-156807314D01*
X69466392Y-156693186D01*
X69500500Y-156565892D01*
X69500500Y-156434107D01*
X69500500Y-156366518D01*
X69520185Y-156299479D01*
X69536823Y-156278833D01*
X69544114Y-156271542D01*
X69620775Y-156156811D01*
X69673580Y-156029328D01*
X69695687Y-155918189D01*
X69700500Y-155893995D01*
X69700500Y-155756004D01*
X69673581Y-155620677D01*
X69673580Y-155620676D01*
X69673580Y-155620672D01*
X69655251Y-155576421D01*
X69620778Y-155493195D01*
X69620771Y-155493182D01*
X69544114Y-155378458D01*
X69544111Y-155378454D01*
X69446545Y-155280888D01*
X69446541Y-155280885D01*
X69331817Y-155204228D01*
X69331804Y-155204221D01*
X69204332Y-155151421D01*
X69204322Y-155151418D01*
X69068995Y-155124500D01*
X69068993Y-155124500D01*
X68931007Y-155124500D01*
X68931005Y-155124500D01*
X68795677Y-155151418D01*
X68795667Y-155151421D01*
X68668195Y-155204221D01*
X68668182Y-155204228D01*
X68553458Y-155280885D01*
X68553454Y-155280888D01*
X68455888Y-155378454D01*
X68455885Y-155378458D01*
X68379228Y-155493182D01*
X68379221Y-155493195D01*
X68326421Y-155620667D01*
X68326418Y-155620677D01*
X68299500Y-155756004D01*
X68299500Y-155756007D01*
X68299500Y-155893993D01*
X68299500Y-155893995D01*
X68299499Y-155893995D01*
X68326418Y-156029322D01*
X68326421Y-156029332D01*
X68379221Y-156156804D01*
X68379227Y-156156815D01*
X68425287Y-156225749D01*
X68434772Y-156256045D01*
X68445868Y-156285792D01*
X68445137Y-156289148D01*
X68446164Y-156292426D01*
X68437766Y-156323034D01*
X68431017Y-156354065D01*
X68428234Y-156357782D01*
X68427679Y-156359806D01*
X68409866Y-156382320D01*
X68329003Y-156463182D01*
X68267683Y-156496666D01*
X68241324Y-156499500D01*
X61008676Y-156499500D01*
X60941637Y-156479815D01*
X60920995Y-156463181D01*
X60736819Y-156279005D01*
X60703334Y-156217682D01*
X60700500Y-156191324D01*
X60700500Y-156181004D01*
X60673581Y-156045677D01*
X60673580Y-156045676D01*
X60673580Y-156045672D01*
X60666808Y-156029322D01*
X60620778Y-155918195D01*
X60620771Y-155918182D01*
X60544114Y-155803458D01*
X60544111Y-155803454D01*
X60446545Y-155705888D01*
X60446541Y-155705885D01*
X60331817Y-155629228D01*
X60331804Y-155629221D01*
X60204332Y-155576421D01*
X60204322Y-155576418D01*
X60068995Y-155549500D01*
X60068993Y-155549500D01*
X59931007Y-155549500D01*
X59931005Y-155549500D01*
X59795677Y-155576418D01*
X59795667Y-155576421D01*
X59668195Y-155629221D01*
X59668182Y-155629228D01*
X59553458Y-155705885D01*
X59553454Y-155705888D01*
X59546162Y-155713181D01*
X59484839Y-155746666D01*
X59458481Y-155749500D01*
X58815892Y-155749500D01*
X58684107Y-155749500D01*
X58656955Y-155756775D01*
X58624864Y-155761000D01*
X58607840Y-155761000D01*
X58540801Y-155741315D01*
X58497355Y-155693295D01*
X58460351Y-155620672D01*
X58452924Y-155606095D01*
X58337228Y-155446854D01*
X58198046Y-155307672D01*
X58063814Y-155210146D01*
X58038803Y-155191974D01*
X57978609Y-155161304D01*
X63349500Y-155161304D01*
X63349500Y-155338695D01*
X63384103Y-155512658D01*
X63384106Y-155512667D01*
X63451983Y-155676540D01*
X63451990Y-155676553D01*
X63550535Y-155824034D01*
X63550538Y-155824038D01*
X63675961Y-155949461D01*
X63675965Y-155949464D01*
X63823446Y-156048009D01*
X63823459Y-156048016D01*
X63932190Y-156093053D01*
X63987334Y-156115894D01*
X63987336Y-156115894D01*
X63987341Y-156115896D01*
X64161304Y-156150499D01*
X64161307Y-156150500D01*
X64161309Y-156150500D01*
X64338693Y-156150500D01*
X64338694Y-156150499D01*
X64396682Y-156138964D01*
X64512658Y-156115896D01*
X64512661Y-156115894D01*
X64512666Y-156115894D01*
X64676547Y-156048013D01*
X64824035Y-155949464D01*
X64949464Y-155824035D01*
X65048013Y-155676547D01*
X65115894Y-155512666D01*
X65116882Y-155507703D01*
X65150499Y-155338695D01*
X65150500Y-155338693D01*
X65150500Y-155161306D01*
X65150499Y-155161304D01*
X65115896Y-154987341D01*
X65115893Y-154987332D01*
X65109542Y-154972000D01*
X65091727Y-154928989D01*
X65048016Y-154823459D01*
X65048009Y-154823446D01*
X64949464Y-154675965D01*
X64949461Y-154675961D01*
X64824038Y-154550538D01*
X64824034Y-154550535D01*
X64676553Y-154451990D01*
X64676540Y-154451983D01*
X64512667Y-154384106D01*
X64512658Y-154384103D01*
X64338694Y-154349500D01*
X64338691Y-154349500D01*
X64161309Y-154349500D01*
X64161306Y-154349500D01*
X63987341Y-154384103D01*
X63987332Y-154384106D01*
X63823459Y-154451983D01*
X63823446Y-154451990D01*
X63675965Y-154550535D01*
X63675961Y-154550538D01*
X63550538Y-154675961D01*
X63550535Y-154675965D01*
X63451990Y-154823446D01*
X63451983Y-154823459D01*
X63384106Y-154987332D01*
X63384103Y-154987341D01*
X63349500Y-155161304D01*
X57978609Y-155161304D01*
X57862187Y-155101985D01*
X57811390Y-155054011D01*
X57794595Y-154986190D01*
X57817132Y-154920055D01*
X57862187Y-154881015D01*
X58038803Y-154791025D01*
X58038802Y-154791025D01*
X58038805Y-154791024D01*
X58198046Y-154675328D01*
X58337228Y-154536146D01*
X58452924Y-154376905D01*
X58542284Y-154201525D01*
X58603109Y-154014326D01*
X58633900Y-153819922D01*
X58633900Y-153623077D01*
X58603109Y-153428673D01*
X58570346Y-153327841D01*
X58542284Y-153241475D01*
X58542282Y-153241472D01*
X58542282Y-153241470D01*
X58471423Y-153102402D01*
X58452924Y-153066095D01*
X58337228Y-152906854D01*
X58198046Y-152767672D01*
X58051644Y-152661304D01*
X58038803Y-152651974D01*
X57862187Y-152561985D01*
X57811390Y-152514011D01*
X57794595Y-152446190D01*
X57817132Y-152380055D01*
X57862187Y-152341015D01*
X58038803Y-152251025D01*
X58038802Y-152251025D01*
X58038805Y-152251024D01*
X58198046Y-152135328D01*
X58337228Y-151996146D01*
X58452924Y-151836905D01*
X58542284Y-151661525D01*
X58603109Y-151474326D01*
X58604099Y-151468076D01*
X58633900Y-151279922D01*
X58633900Y-151083077D01*
X58612737Y-150949464D01*
X58603109Y-150888674D01*
X58572864Y-150795593D01*
X58570870Y-150725754D01*
X58603113Y-150669598D01*
X60297104Y-148975608D01*
X60297109Y-148975604D01*
X60307312Y-148965400D01*
X60307314Y-148965400D01*
X60400500Y-148872214D01*
X60466392Y-148758086D01*
X60481236Y-148702686D01*
X60500500Y-148630793D01*
X60500500Y-148499008D01*
X60500500Y-144911304D01*
X63349500Y-144911304D01*
X63349500Y-145088695D01*
X63384103Y-145262658D01*
X63384106Y-145262667D01*
X63451983Y-145426540D01*
X63451990Y-145426553D01*
X63550535Y-145574034D01*
X63550538Y-145574038D01*
X63675961Y-145699461D01*
X63675965Y-145699464D01*
X63823446Y-145798009D01*
X63823459Y-145798016D01*
X63946363Y-145848923D01*
X63987334Y-145865894D01*
X63987336Y-145865894D01*
X63987341Y-145865896D01*
X64161304Y-145900499D01*
X64161307Y-145900500D01*
X64161309Y-145900500D01*
X64338693Y-145900500D01*
X64338694Y-145900499D01*
X64396682Y-145888964D01*
X64512658Y-145865896D01*
X64512661Y-145865894D01*
X64512666Y-145865894D01*
X64676547Y-145798013D01*
X64824035Y-145699464D01*
X64949464Y-145574035D01*
X65048013Y-145426547D01*
X65115894Y-145262666D01*
X65150500Y-145088691D01*
X65150500Y-144911309D01*
X65150500Y-144911306D01*
X65150499Y-144911304D01*
X65115896Y-144737341D01*
X65115893Y-144737332D01*
X65048016Y-144573459D01*
X65048009Y-144573446D01*
X64949464Y-144425965D01*
X64949461Y-144425961D01*
X64824038Y-144300538D01*
X64824034Y-144300535D01*
X64676553Y-144201990D01*
X64676540Y-144201983D01*
X64512667Y-144134106D01*
X64512658Y-144134103D01*
X64338694Y-144099500D01*
X64338691Y-144099500D01*
X64161309Y-144099500D01*
X64161306Y-144099500D01*
X63987341Y-144134103D01*
X63987332Y-144134106D01*
X63823459Y-144201983D01*
X63823446Y-144201990D01*
X63675965Y-144300535D01*
X63675961Y-144300538D01*
X63550538Y-144425961D01*
X63550535Y-144425965D01*
X63451990Y-144573446D01*
X63451983Y-144573459D01*
X63384106Y-144737332D01*
X63384103Y-144737341D01*
X63349500Y-144911304D01*
X60500500Y-144911304D01*
X60500500Y-144664425D01*
X60520185Y-144597386D01*
X60572989Y-144551631D01*
X60577022Y-144549875D01*
X60577841Y-144549536D01*
X60703282Y-144453282D01*
X60799536Y-144327841D01*
X60860044Y-144181762D01*
X60875500Y-144064361D01*
X60875499Y-143585640D01*
X60875499Y-143585636D01*
X60860046Y-143468246D01*
X60860044Y-143468241D01*
X60860044Y-143468238D01*
X60799536Y-143322159D01*
X60703282Y-143196718D01*
X60703280Y-143196717D01*
X60703280Y-143196716D01*
X60575120Y-143098376D01*
X60533917Y-143041948D01*
X60529762Y-142972202D01*
X60563974Y-142911282D01*
X60575120Y-142901624D01*
X60669759Y-142829005D01*
X60703282Y-142803282D01*
X60799536Y-142677841D01*
X60860044Y-142531762D01*
X60875500Y-142414361D01*
X60875500Y-142411304D01*
X63349500Y-142411304D01*
X63349500Y-142588695D01*
X63384103Y-142762658D01*
X63384106Y-142762667D01*
X63451983Y-142926540D01*
X63451990Y-142926553D01*
X63550535Y-143074034D01*
X63550538Y-143074038D01*
X63675961Y-143199461D01*
X63675965Y-143199464D01*
X63823446Y-143298009D01*
X63823459Y-143298016D01*
X63931007Y-143342563D01*
X63987334Y-143365894D01*
X63987336Y-143365894D01*
X63987341Y-143365896D01*
X64161304Y-143400499D01*
X64161307Y-143400500D01*
X64161309Y-143400500D01*
X64338693Y-143400500D01*
X64338694Y-143400499D01*
X64396682Y-143388964D01*
X64512658Y-143365896D01*
X64512661Y-143365894D01*
X64512666Y-143365894D01*
X64676547Y-143298013D01*
X64824035Y-143199464D01*
X64949464Y-143074035D01*
X65048013Y-142926547D01*
X65115894Y-142762666D01*
X65120140Y-142741324D01*
X65150499Y-142588695D01*
X65150500Y-142588693D01*
X65150500Y-142411306D01*
X65150499Y-142411304D01*
X65115896Y-142237341D01*
X65115893Y-142237332D01*
X65048016Y-142073459D01*
X65048009Y-142073446D01*
X64949464Y-141925965D01*
X64949461Y-141925961D01*
X64824038Y-141800538D01*
X64824034Y-141800535D01*
X64676553Y-141701990D01*
X64676540Y-141701983D01*
X64512667Y-141634106D01*
X64512658Y-141634103D01*
X64338694Y-141599500D01*
X64338691Y-141599500D01*
X64161309Y-141599500D01*
X64161306Y-141599500D01*
X63987341Y-141634103D01*
X63987332Y-141634106D01*
X63823459Y-141701983D01*
X63823446Y-141701990D01*
X63675965Y-141800535D01*
X63675961Y-141800538D01*
X63550538Y-141925961D01*
X63550535Y-141925965D01*
X63451990Y-142073446D01*
X63451983Y-142073459D01*
X63384106Y-142237332D01*
X63384103Y-142237341D01*
X63349500Y-142411304D01*
X60875500Y-142411304D01*
X60875499Y-141935640D01*
X60875499Y-141935636D01*
X60860046Y-141818246D01*
X60860044Y-141818241D01*
X60860044Y-141818238D01*
X60799536Y-141672159D01*
X60703282Y-141546718D01*
X60577841Y-141450464D01*
X60431762Y-141389956D01*
X60431760Y-141389955D01*
X60314361Y-141374500D01*
X59685636Y-141374500D01*
X59568246Y-141389953D01*
X59568237Y-141389956D01*
X59422160Y-141450463D01*
X59296716Y-141546719D01*
X59235894Y-141625986D01*
X59232815Y-141628234D01*
X59231231Y-141631703D01*
X59204816Y-141648678D01*
X59179466Y-141667189D01*
X59174728Y-141668014D01*
X59172453Y-141669477D01*
X59137518Y-141674500D01*
X58965900Y-141674500D01*
X58898861Y-141654815D01*
X58853106Y-141602011D01*
X58841900Y-141550500D01*
X58841900Y-141058708D01*
X58841900Y-141058706D01*
X58835715Y-140990643D01*
X58786912Y-140834030D01*
X58786911Y-140834027D01*
X58702051Y-140693651D01*
X58702048Y-140693647D01*
X58586052Y-140577651D01*
X58586048Y-140577648D01*
X58445672Y-140492788D01*
X58445663Y-140492785D01*
X58289064Y-140443987D01*
X58289062Y-140443986D01*
X58289057Y-140443985D01*
X58220994Y-140437800D01*
X57561806Y-140437800D01*
X57493743Y-140443985D01*
X57493739Y-140443986D01*
X57493735Y-140443987D01*
X57337136Y-140492785D01*
X57337127Y-140492788D01*
X57196751Y-140577648D01*
X57196747Y-140577651D01*
X57080751Y-140693647D01*
X57080748Y-140693651D01*
X56995888Y-140834027D01*
X56995885Y-140834036D01*
X56947087Y-140990635D01*
X56947085Y-140990645D01*
X56940900Y-141058708D01*
X56940900Y-142549924D01*
X56921215Y-142616963D01*
X56904581Y-142637605D01*
X56513581Y-143028605D01*
X56452258Y-143062090D01*
X56382566Y-143057106D01*
X56326633Y-143015234D01*
X56302216Y-142949770D01*
X56301900Y-142940924D01*
X56301900Y-141058708D01*
X56301900Y-141058706D01*
X56295715Y-140990643D01*
X56246912Y-140834030D01*
X56246911Y-140834027D01*
X56162051Y-140693651D01*
X56162048Y-140693647D01*
X56046052Y-140577651D01*
X56046048Y-140577648D01*
X55905672Y-140492788D01*
X55905663Y-140492785D01*
X55749064Y-140443987D01*
X55749062Y-140443986D01*
X55749057Y-140443985D01*
X55680994Y-140437800D01*
X55021806Y-140437800D01*
X54953743Y-140443985D01*
X54953739Y-140443986D01*
X54953735Y-140443987D01*
X54797136Y-140492785D01*
X54797127Y-140492788D01*
X54656751Y-140577648D01*
X54656747Y-140577651D01*
X54540751Y-140693647D01*
X54540748Y-140693651D01*
X54455888Y-140834027D01*
X54455885Y-140834036D01*
X54407087Y-140990635D01*
X54407085Y-140990643D01*
X54400900Y-141058706D01*
X54400900Y-143117894D01*
X54407085Y-143185957D01*
X54407086Y-143185962D01*
X54407087Y-143185964D01*
X54455885Y-143342563D01*
X54455888Y-143342572D01*
X54540748Y-143482948D01*
X54540751Y-143482952D01*
X54656747Y-143598948D01*
X54656751Y-143598951D01*
X54797127Y-143683811D01*
X54797130Y-143683812D01*
X54953743Y-143732615D01*
X55021806Y-143738800D01*
X55021809Y-143738800D01*
X55504024Y-143738800D01*
X55571063Y-143758485D01*
X55616818Y-143811289D01*
X55626762Y-143880447D01*
X55597737Y-143944003D01*
X55591705Y-143950481D01*
X49161681Y-150380504D01*
X49100358Y-150413989D01*
X49030666Y-150409005D01*
X48974733Y-150367133D01*
X48950316Y-150301669D01*
X48950000Y-150292823D01*
X48950000Y-150101508D01*
X48949999Y-150101504D01*
X48911572Y-149908318D01*
X48911569Y-149908306D01*
X48836192Y-149726328D01*
X48812572Y-149690979D01*
X48161940Y-150341613D01*
X48200000Y-150249728D01*
X48200000Y-150150272D01*
X48161940Y-150058386D01*
X48091614Y-149988060D01*
X47999728Y-149950000D01*
X47900272Y-149950000D01*
X47808386Y-149988060D01*
X47738060Y-150058386D01*
X47700000Y-150150272D01*
X47700000Y-150249728D01*
X47738060Y-150341614D01*
X47808386Y-150411940D01*
X47900272Y-150450000D01*
X47999728Y-150450000D01*
X48091614Y-150411940D01*
X47440978Y-151062572D01*
X47445979Y-151113347D01*
X47432960Y-151181993D01*
X47384894Y-151232703D01*
X47322576Y-151249500D01*
X44855537Y-151249500D01*
X44788498Y-151229815D01*
X44742743Y-151177011D01*
X44732799Y-151107853D01*
X44736460Y-151090906D01*
X44738734Y-151083077D01*
X44747598Y-151052569D01*
X44750500Y-151015694D01*
X44750500Y-150101504D01*
X46950000Y-150101504D01*
X46950000Y-150298495D01*
X46988427Y-150491681D01*
X46988430Y-150491693D01*
X47063808Y-150673673D01*
X47063809Y-150673675D01*
X47087425Y-150709019D01*
X47596446Y-150200000D01*
X47596446Y-150199999D01*
X47087426Y-149690978D01*
X47087426Y-149690979D01*
X47063813Y-149726318D01*
X47063809Y-149726325D01*
X46988429Y-149908310D01*
X46988427Y-149908318D01*
X46950000Y-150101504D01*
X44750500Y-150101504D01*
X44750500Y-149337426D01*
X47440978Y-149337426D01*
X47950000Y-149846446D01*
X47950001Y-149846446D01*
X48459020Y-149337426D01*
X48423675Y-149313809D01*
X48423673Y-149313808D01*
X48241693Y-149238430D01*
X48241681Y-149238427D01*
X48048495Y-149200000D01*
X47851504Y-149200000D01*
X47658318Y-149238427D01*
X47658310Y-149238429D01*
X47476325Y-149313809D01*
X47476318Y-149313813D01*
X47440979Y-149337426D01*
X47440978Y-149337426D01*
X44750500Y-149337426D01*
X44750500Y-147984306D01*
X44747598Y-147947431D01*
X44747597Y-147947426D01*
X44701746Y-147789607D01*
X44701744Y-147789604D01*
X44701744Y-147789603D01*
X44625869Y-147661304D01*
X47099500Y-147661304D01*
X47099500Y-147838695D01*
X47134103Y-148012658D01*
X47134106Y-148012667D01*
X47201983Y-148176540D01*
X47201990Y-148176553D01*
X47300535Y-148324034D01*
X47300538Y-148324038D01*
X47425961Y-148449461D01*
X47425965Y-148449464D01*
X47573446Y-148548009D01*
X47573459Y-148548016D01*
X47659110Y-148583493D01*
X47737334Y-148615894D01*
X47737336Y-148615894D01*
X47737341Y-148615896D01*
X47911304Y-148650499D01*
X47911307Y-148650500D01*
X47911309Y-148650500D01*
X48088693Y-148650500D01*
X48088694Y-148650499D01*
X48146682Y-148638964D01*
X48262658Y-148615896D01*
X48262661Y-148615894D01*
X48262666Y-148615894D01*
X48426547Y-148548013D01*
X48574035Y-148449464D01*
X48699464Y-148324035D01*
X48798013Y-148176547D01*
X48865894Y-148012666D01*
X48866265Y-148010804D01*
X48900499Y-147838695D01*
X48900500Y-147838693D01*
X48900500Y-147661306D01*
X48900499Y-147661304D01*
X48865896Y-147487341D01*
X48865893Y-147487332D01*
X48798016Y-147323459D01*
X48798009Y-147323446D01*
X48699464Y-147175965D01*
X48699461Y-147175961D01*
X48574038Y-147050538D01*
X48574034Y-147050535D01*
X48426553Y-146951990D01*
X48426540Y-146951983D01*
X48262667Y-146884106D01*
X48262658Y-146884103D01*
X48088694Y-146849500D01*
X48088691Y-146849500D01*
X47911309Y-146849500D01*
X47911306Y-146849500D01*
X47737341Y-146884103D01*
X47737332Y-146884106D01*
X47573459Y-146951983D01*
X47573446Y-146951990D01*
X47425965Y-147050535D01*
X47425961Y-147050538D01*
X47300538Y-147175961D01*
X47300535Y-147175965D01*
X47201990Y-147323446D01*
X47201983Y-147323459D01*
X47134106Y-147487332D01*
X47134103Y-147487341D01*
X47099500Y-147661304D01*
X44625869Y-147661304D01*
X44618081Y-147648136D01*
X44618079Y-147648134D01*
X44618076Y-147648130D01*
X44501869Y-147531923D01*
X44501861Y-147531917D01*
X44423680Y-147485681D01*
X44360397Y-147448256D01*
X44360396Y-147448255D01*
X44360395Y-147448255D01*
X44360392Y-147448253D01*
X44202573Y-147402402D01*
X44202567Y-147402401D01*
X44165701Y-147399500D01*
X44165694Y-147399500D01*
X43034306Y-147399500D01*
X43034298Y-147399500D01*
X42997432Y-147402401D01*
X42997426Y-147402402D01*
X42839607Y-147448253D01*
X42839604Y-147448255D01*
X42698138Y-147531917D01*
X42698130Y-147531923D01*
X42581923Y-147648130D01*
X42581917Y-147648138D01*
X42498255Y-147789604D01*
X42498253Y-147789607D01*
X42452402Y-147947426D01*
X42452401Y-147947432D01*
X42449500Y-147984298D01*
X42449500Y-151015701D01*
X42452401Y-151052567D01*
X42463540Y-151090906D01*
X42463340Y-151160775D01*
X42425397Y-151219445D01*
X42361759Y-151248288D01*
X42344463Y-151249500D01*
X40934108Y-151249500D01*
X40806812Y-151283608D01*
X40692686Y-151349500D01*
X40692683Y-151349502D01*
X38975749Y-153066436D01*
X38914426Y-153099921D01*
X38897799Y-153102373D01*
X38897431Y-153102401D01*
X38897426Y-153102402D01*
X38739606Y-153148254D01*
X38739603Y-153148255D01*
X38598137Y-153231917D01*
X38598129Y-153231923D01*
X38481923Y-153348129D01*
X38481917Y-153348137D01*
X38398255Y-153489603D01*
X38398254Y-153489606D01*
X38352402Y-153647426D01*
X38352401Y-153647432D01*
X38349500Y-153684298D01*
X38349500Y-156815701D01*
X38352401Y-156852567D01*
X38352402Y-156852573D01*
X38398254Y-157010393D01*
X38398255Y-157010396D01*
X38481917Y-157151862D01*
X38481923Y-157151870D01*
X38598129Y-157268076D01*
X38598133Y-157268079D01*
X38598135Y-157268081D01*
X38739602Y-157351744D01*
X38781224Y-157363836D01*
X38897426Y-157397597D01*
X38897429Y-157397597D01*
X38897431Y-157397598D01*
X38934306Y-157400500D01*
X38934314Y-157400500D01*
X39565686Y-157400500D01*
X39565694Y-157400500D01*
X39602569Y-157397598D01*
X39602571Y-157397597D01*
X39602573Y-157397597D01*
X39644191Y-157385505D01*
X39760398Y-157351744D01*
X39901865Y-157268081D01*
X40018081Y-157151865D01*
X40101744Y-157010398D01*
X40126968Y-156923578D01*
X40130924Y-156909962D01*
X40168530Y-156851076D01*
X40232003Y-156821870D01*
X40301189Y-156831616D01*
X40354124Y-156877220D01*
X40369076Y-156909962D01*
X40398254Y-157010393D01*
X40398255Y-157010396D01*
X40481917Y-157151862D01*
X40481923Y-157151870D01*
X40598129Y-157268076D01*
X40598133Y-157268079D01*
X40598135Y-157268081D01*
X40739602Y-157351744D01*
X40781224Y-157363836D01*
X40897426Y-157397597D01*
X40897429Y-157397597D01*
X40897431Y-157397598D01*
X40934306Y-157400500D01*
X40934314Y-157400500D01*
X41565686Y-157400500D01*
X41565694Y-157400500D01*
X41602569Y-157397598D01*
X41602571Y-157397597D01*
X41602573Y-157397597D01*
X41644191Y-157385505D01*
X41760398Y-157351744D01*
X41901865Y-157268081D01*
X42018081Y-157151865D01*
X42101744Y-157010398D01*
X42140576Y-156876738D01*
X42147597Y-156852573D01*
X42147598Y-156852567D01*
X42150499Y-156815701D01*
X42150500Y-156815694D01*
X42150500Y-155161304D01*
X47049500Y-155161304D01*
X47049500Y-155338695D01*
X47084103Y-155512658D01*
X47084106Y-155512667D01*
X47151983Y-155676540D01*
X47151990Y-155676553D01*
X47250535Y-155824034D01*
X47250538Y-155824038D01*
X47375961Y-155949461D01*
X47375965Y-155949464D01*
X47523446Y-156048009D01*
X47523459Y-156048016D01*
X47632190Y-156093053D01*
X47687334Y-156115894D01*
X47687336Y-156115894D01*
X47687341Y-156115896D01*
X47861304Y-156150499D01*
X47861307Y-156150500D01*
X47861309Y-156150500D01*
X48038693Y-156150500D01*
X48038694Y-156150499D01*
X48096682Y-156138964D01*
X48212658Y-156115896D01*
X48212661Y-156115894D01*
X48212666Y-156115894D01*
X48376547Y-156048013D01*
X48524035Y-155949464D01*
X48649464Y-155824035D01*
X48748013Y-155676547D01*
X48815894Y-155512666D01*
X48816882Y-155507703D01*
X48850499Y-155338695D01*
X48850500Y-155338693D01*
X48850500Y-155161306D01*
X48850499Y-155161304D01*
X48815896Y-154987341D01*
X48815893Y-154987332D01*
X48809542Y-154972000D01*
X48791727Y-154928989D01*
X48748016Y-154823459D01*
X48748009Y-154823446D01*
X48649464Y-154675965D01*
X48649461Y-154675961D01*
X48524038Y-154550538D01*
X48524034Y-154550535D01*
X48376553Y-154451990D01*
X48376540Y-154451983D01*
X48212667Y-154384106D01*
X48212658Y-154384103D01*
X48038694Y-154349500D01*
X48038691Y-154349500D01*
X47861309Y-154349500D01*
X47861306Y-154349500D01*
X47687341Y-154384103D01*
X47687332Y-154384106D01*
X47523459Y-154451983D01*
X47523446Y-154451990D01*
X47375965Y-154550535D01*
X47375961Y-154550538D01*
X47250538Y-154675961D01*
X47250535Y-154675965D01*
X47151990Y-154823446D01*
X47151983Y-154823459D01*
X47084106Y-154987332D01*
X47084103Y-154987341D01*
X47049500Y-155161304D01*
X42150500Y-155161304D01*
X42150500Y-155108675D01*
X42170185Y-155041636D01*
X42186819Y-155020994D01*
X43870994Y-153336819D01*
X43932317Y-153303334D01*
X43958675Y-153300500D01*
X47135122Y-153300500D01*
X47202161Y-153320185D01*
X47238225Y-153355610D01*
X47250537Y-153374037D01*
X47375961Y-153499461D01*
X47375965Y-153499464D01*
X47523446Y-153598009D01*
X47523459Y-153598016D01*
X47646363Y-153648923D01*
X47687334Y-153665894D01*
X47687336Y-153665894D01*
X47687341Y-153665896D01*
X47861304Y-153700499D01*
X47861307Y-153700500D01*
X47861309Y-153700500D01*
X48038693Y-153700500D01*
X48038694Y-153700499D01*
X48096682Y-153688964D01*
X48212658Y-153665896D01*
X48212661Y-153665894D01*
X48212666Y-153665894D01*
X48376547Y-153598013D01*
X48524035Y-153499464D01*
X48649464Y-153374035D01*
X48695185Y-153305608D01*
X48748797Y-153260804D01*
X48798287Y-153250500D01*
X49750574Y-153250500D01*
X49817613Y-153270185D01*
X49863368Y-153322989D01*
X49865136Y-153327050D01*
X49865462Y-153327838D01*
X49865464Y-153327841D01*
X49952952Y-153441859D01*
X49961718Y-153453282D01*
X50087159Y-153549536D01*
X50233238Y-153610044D01*
X50350639Y-153625500D01*
X50829360Y-153625499D01*
X50829363Y-153625499D01*
X50946753Y-153610046D01*
X50946757Y-153610044D01*
X50946762Y-153610044D01*
X51092841Y-153549536D01*
X51218282Y-153453282D01*
X51314536Y-153327841D01*
X51314535Y-153327841D01*
X51316624Y-153325120D01*
X51373052Y-153283917D01*
X51442798Y-153279762D01*
X51503718Y-153313974D01*
X51513376Y-153325120D01*
X51602952Y-153441859D01*
X51611718Y-153453282D01*
X51737159Y-153549536D01*
X51883238Y-153610044D01*
X52000639Y-153625500D01*
X52479360Y-153625499D01*
X52479363Y-153625499D01*
X52596753Y-153610046D01*
X52596757Y-153610044D01*
X52596762Y-153610044D01*
X52742841Y-153549536D01*
X52868282Y-153453282D01*
X52964536Y-153327841D01*
X53025044Y-153181762D01*
X53040500Y-153064361D01*
X53040499Y-152435640D01*
X53040499Y-152435639D01*
X53040499Y-152435636D01*
X53025046Y-152318246D01*
X53025044Y-152318241D01*
X53025044Y-152318238D01*
X52964536Y-152172159D01*
X52868282Y-152046718D01*
X52868280Y-152046717D01*
X52868280Y-152046716D01*
X52820608Y-152010137D01*
X52789013Y-151985893D01*
X52747811Y-151929466D01*
X52740500Y-151887518D01*
X52740500Y-149268674D01*
X52760185Y-149201635D01*
X52776814Y-149180998D01*
X53374321Y-148583491D01*
X53435642Y-148550008D01*
X53505334Y-148554992D01*
X53561267Y-148596864D01*
X53585684Y-148662328D01*
X53586000Y-148671174D01*
X53586000Y-148804546D01*
X53619242Y-149014427D01*
X53619242Y-149014430D01*
X53684904Y-149216517D01*
X53781375Y-149405850D01*
X53820728Y-149460016D01*
X54724060Y-148556686D01*
X54686000Y-148648572D01*
X54686000Y-148748028D01*
X54724060Y-148839914D01*
X54794386Y-148910240D01*
X54886272Y-148948300D01*
X54985728Y-148948300D01*
X55077614Y-148910240D01*
X55147940Y-148839914D01*
X55186000Y-148748028D01*
X55186000Y-148648572D01*
X55147940Y-148556686D01*
X55077614Y-148486360D01*
X54985728Y-148448300D01*
X54886272Y-148448300D01*
X54794386Y-148486360D01*
X54759223Y-148521523D01*
X55697716Y-147583028D01*
X55643550Y-147543675D01*
X55454217Y-147447204D01*
X55252129Y-147381542D01*
X55042246Y-147348300D01*
X54908874Y-147348300D01*
X54841835Y-147328615D01*
X54796080Y-147275811D01*
X54786136Y-147206653D01*
X54815161Y-147143097D01*
X54821179Y-147136633D01*
X57595994Y-144361819D01*
X57657317Y-144328334D01*
X57683675Y-144325500D01*
X59137518Y-144325500D01*
X59204557Y-144345185D01*
X59235892Y-144374013D01*
X59296718Y-144453282D01*
X59422159Y-144549536D01*
X59422944Y-144549861D01*
X59423507Y-144550315D01*
X59429196Y-144553599D01*
X59428684Y-144554485D01*
X59477350Y-144593697D01*
X59499421Y-144659989D01*
X59499500Y-144664425D01*
X59499500Y-148306224D01*
X59479815Y-148373263D01*
X59463181Y-148393905D01*
X58812808Y-149044277D01*
X58751485Y-149077762D01*
X58681793Y-149072778D01*
X58625860Y-149030906D01*
X58601443Y-148965442D01*
X58602654Y-148937198D01*
X58633900Y-148739922D01*
X58633900Y-148543077D01*
X58603109Y-148348673D01*
X58554626Y-148199461D01*
X58542284Y-148161475D01*
X58542282Y-148161472D01*
X58542282Y-148161470D01*
X58466463Y-148012667D01*
X58452924Y-147986095D01*
X58337228Y-147826854D01*
X58198046Y-147687672D01*
X58038805Y-147571976D01*
X57983261Y-147543675D01*
X57863429Y-147482617D01*
X57676226Y-147421790D01*
X57481822Y-147391000D01*
X57481817Y-147391000D01*
X57284983Y-147391000D01*
X57284978Y-147391000D01*
X57090573Y-147421790D01*
X56903370Y-147482617D01*
X56727994Y-147571976D01*
X56704983Y-147588695D01*
X56568754Y-147687672D01*
X56568752Y-147687674D01*
X56568751Y-147687674D01*
X56429574Y-147826851D01*
X56429574Y-147826852D01*
X56429572Y-147826854D01*
X56420969Y-147838695D01*
X56313875Y-147986095D01*
X56311546Y-147990667D01*
X56263568Y-148041460D01*
X56195746Y-148058252D01*
X56129613Y-148035710D01*
X56093882Y-147994468D01*
X56093171Y-147994904D01*
X56090626Y-147990752D01*
X56051270Y-147936582D01*
X56051269Y-147936582D01*
X55289554Y-148698299D01*
X55289554Y-148698300D01*
X56051270Y-149460017D01*
X56051270Y-149460016D01*
X56090624Y-149405852D01*
X56123415Y-149341495D01*
X56171388Y-149290699D01*
X56239209Y-149273903D01*
X56305344Y-149296440D01*
X56334217Y-149324902D01*
X56429572Y-149456146D01*
X56568754Y-149595328D01*
X56727995Y-149711024D01*
X56803509Y-149749500D01*
X56904613Y-149801015D01*
X56955409Y-149848989D01*
X56972204Y-149916810D01*
X56949667Y-149982945D01*
X56904613Y-150021985D01*
X56727994Y-150111976D01*
X56714202Y-150121997D01*
X56568754Y-150227672D01*
X56568752Y-150227674D01*
X56568751Y-150227674D01*
X56429574Y-150366851D01*
X56429574Y-150366852D01*
X56429572Y-150366854D01*
X56396815Y-150411940D01*
X56313876Y-150526094D01*
X56223885Y-150702713D01*
X56175911Y-150753509D01*
X56108090Y-150770304D01*
X56041955Y-150747767D01*
X56002915Y-150702713D01*
X55912923Y-150526094D01*
X55887929Y-150491693D01*
X55797228Y-150366854D01*
X55658046Y-150227672D01*
X55512598Y-150121997D01*
X55469933Y-150066666D01*
X55463954Y-149997053D01*
X55496560Y-149935258D01*
X55529190Y-149911194D01*
X55643552Y-149852924D01*
X55697716Y-149813570D01*
X55697717Y-149813570D01*
X54936000Y-149051854D01*
X54174282Y-149813569D01*
X54174282Y-149813570D01*
X54228452Y-149852926D01*
X54245592Y-149861660D01*
X54296388Y-149909635D01*
X54313182Y-149977456D01*
X54290644Y-150043591D01*
X54245592Y-150082628D01*
X54187997Y-150111974D01*
X54174202Y-150121997D01*
X54028754Y-150227672D01*
X54028752Y-150227674D01*
X54028751Y-150227674D01*
X53889574Y-150366851D01*
X53889574Y-150366852D01*
X53889572Y-150366854D01*
X53856815Y-150411940D01*
X53773876Y-150526094D01*
X53684517Y-150701470D01*
X53623690Y-150888673D01*
X53592900Y-151083077D01*
X53592900Y-151279922D01*
X53623690Y-151474326D01*
X53684517Y-151661529D01*
X53773875Y-151836903D01*
X53773876Y-151836905D01*
X53889572Y-151996146D01*
X54028754Y-152135328D01*
X54187995Y-152251024D01*
X54283135Y-152299500D01*
X54364613Y-152341015D01*
X54415409Y-152388989D01*
X54432204Y-152456810D01*
X54409667Y-152522945D01*
X54364613Y-152561985D01*
X54187994Y-152651976D01*
X54097141Y-152717985D01*
X54028754Y-152767672D01*
X54028752Y-152767674D01*
X54028751Y-152767674D01*
X53889574Y-152906851D01*
X53889574Y-152906852D01*
X53889572Y-152906854D01*
X53839885Y-152975241D01*
X53773876Y-153066094D01*
X53684517Y-153241470D01*
X53623690Y-153428673D01*
X53592900Y-153623077D01*
X53592900Y-153819922D01*
X53623690Y-154014326D01*
X53684517Y-154201529D01*
X53773875Y-154376903D01*
X53773876Y-154376905D01*
X53889572Y-154536146D01*
X54028754Y-154675328D01*
X54187995Y-154791024D01*
X54251641Y-154823453D01*
X54364613Y-154881015D01*
X54415409Y-154928989D01*
X54432204Y-154996810D01*
X54409667Y-155062945D01*
X54364613Y-155101985D01*
X54187994Y-155191976D01*
X54152553Y-155217726D01*
X54028754Y-155307672D01*
X54028752Y-155307674D01*
X54028751Y-155307674D01*
X53889574Y-155446851D01*
X53889574Y-155446852D01*
X53889572Y-155446854D01*
X53855903Y-155493195D01*
X53773876Y-155606094D01*
X53684517Y-155781470D01*
X53623690Y-155968673D01*
X53592900Y-156163077D01*
X53592900Y-156359922D01*
X53623690Y-156554326D01*
X53684517Y-156741529D01*
X53770338Y-156909962D01*
X53773876Y-156916905D01*
X53889572Y-157076146D01*
X54028754Y-157215328D01*
X54187995Y-157331024D01*
X54228661Y-157351744D01*
X54363370Y-157420382D01*
X54363372Y-157420382D01*
X54363375Y-157420384D01*
X54487983Y-157460872D01*
X54520905Y-157471569D01*
X54578580Y-157511007D01*
X54605778Y-157575366D01*
X54593863Y-157644212D01*
X54546619Y-157695688D01*
X54482586Y-157713500D01*
X37841221Y-157713500D01*
X37833729Y-157713273D01*
X37543689Y-157695716D01*
X37528824Y-157693911D01*
X37246688Y-157642196D01*
X37232151Y-157638612D01*
X36958319Y-157553274D01*
X36944319Y-157547965D01*
X36682748Y-157430235D01*
X36669491Y-157423276D01*
X36424035Y-157274888D01*
X36411712Y-157266382D01*
X36185923Y-157089485D01*
X36174716Y-157079556D01*
X35971898Y-156876738D01*
X35961969Y-156865531D01*
X35916357Y-156807313D01*
X35785072Y-156639742D01*
X35776566Y-156627419D01*
X35628178Y-156381963D01*
X35621219Y-156368706D01*
X35617265Y-156359922D01*
X35503488Y-156107134D01*
X35498180Y-156093135D01*
X35498154Y-156093053D01*
X35412842Y-155819303D01*
X35409258Y-155804766D01*
X35401236Y-155761000D01*
X35357541Y-155522619D01*
X35355739Y-155507774D01*
X35338182Y-155217726D01*
X35337955Y-155210234D01*
X35337955Y-147984298D01*
X35749500Y-147984298D01*
X35749500Y-151015701D01*
X35752401Y-151052567D01*
X35752402Y-151052573D01*
X35798253Y-151210392D01*
X35798255Y-151210395D01*
X35881917Y-151351861D01*
X35881923Y-151351869D01*
X35998130Y-151468076D01*
X35998134Y-151468079D01*
X35998136Y-151468081D01*
X36139603Y-151551744D01*
X36139604Y-151551744D01*
X36139607Y-151551746D01*
X36297426Y-151597597D01*
X36297429Y-151597597D01*
X36297431Y-151597598D01*
X36334306Y-151600500D01*
X36334314Y-151600500D01*
X37465686Y-151600500D01*
X37465694Y-151600500D01*
X37502569Y-151597598D01*
X37502571Y-151597597D01*
X37502573Y-151597597D01*
X37660392Y-151551746D01*
X37660393Y-151551745D01*
X37660397Y-151551744D01*
X37801864Y-151468081D01*
X37918081Y-151351864D01*
X38001744Y-151210397D01*
X38001745Y-151210393D01*
X38001746Y-151210392D01*
X38047597Y-151052573D01*
X38047598Y-151052567D01*
X38047956Y-151048016D01*
X38050500Y-151015694D01*
X38050500Y-147984306D01*
X38047598Y-147947431D01*
X38047597Y-147947426D01*
X38001746Y-147789607D01*
X38001744Y-147789604D01*
X38001744Y-147789603D01*
X37918081Y-147648136D01*
X37918079Y-147648134D01*
X37918076Y-147648130D01*
X37801869Y-147531923D01*
X37801861Y-147531917D01*
X37723680Y-147485681D01*
X37660397Y-147448256D01*
X37660396Y-147448255D01*
X37660395Y-147448255D01*
X37660392Y-147448253D01*
X37502573Y-147402402D01*
X37502567Y-147402401D01*
X37465701Y-147399500D01*
X37465694Y-147399500D01*
X36334306Y-147399500D01*
X36334298Y-147399500D01*
X36297432Y-147402401D01*
X36297426Y-147402402D01*
X36139607Y-147448253D01*
X36139604Y-147448255D01*
X35998138Y-147531917D01*
X35998130Y-147531923D01*
X35881923Y-147648130D01*
X35881917Y-147648138D01*
X35798255Y-147789604D01*
X35798253Y-147789607D01*
X35752402Y-147947426D01*
X35752401Y-147947432D01*
X35749500Y-147984298D01*
X35337955Y-147984298D01*
X35337955Y-137982995D01*
X42108499Y-137982995D01*
X42135418Y-138118322D01*
X42135421Y-138118332D01*
X42188221Y-138245804D01*
X42188228Y-138245817D01*
X42264885Y-138360541D01*
X42264888Y-138360545D01*
X42362454Y-138458111D01*
X42362458Y-138458114D01*
X42477182Y-138534771D01*
X42477195Y-138534778D01*
X42604667Y-138587578D01*
X42604672Y-138587580D01*
X42604676Y-138587580D01*
X42604677Y-138587581D01*
X42740004Y-138614500D01*
X42740007Y-138614500D01*
X42877995Y-138614500D01*
X42969041Y-138596389D01*
X43013328Y-138587580D01*
X43140811Y-138534775D01*
X43255542Y-138458114D01*
X43353114Y-138360542D01*
X43429775Y-138245811D01*
X43482580Y-138118328D01*
X43509500Y-137982993D01*
X43509500Y-137952820D01*
X43529185Y-137885781D01*
X43543600Y-137867415D01*
X43564888Y-137845007D01*
X44697518Y-136652764D01*
X44757961Y-136617720D01*
X44775278Y-136614767D01*
X44777988Y-136614500D01*
X44777993Y-136614500D01*
X44913328Y-136587580D01*
X45040811Y-136534775D01*
X45155542Y-136458114D01*
X45253114Y-136360542D01*
X45272398Y-136331682D01*
X45326010Y-136286877D01*
X45395335Y-136278170D01*
X45458363Y-136308324D01*
X45495082Y-136367767D01*
X45499500Y-136400573D01*
X45499500Y-142934108D01*
X45499500Y-143065892D01*
X45513433Y-143117891D01*
X45533608Y-143193187D01*
X45566554Y-143250250D01*
X45599500Y-143307314D01*
X45599502Y-143307316D01*
X47069886Y-144777700D01*
X47103371Y-144839023D01*
X47103824Y-144889566D01*
X47099500Y-144911309D01*
X47099500Y-145088695D01*
X47134103Y-145262658D01*
X47134106Y-145262667D01*
X47201983Y-145426540D01*
X47201990Y-145426553D01*
X47300535Y-145574034D01*
X47300538Y-145574038D01*
X47425961Y-145699461D01*
X47425965Y-145699464D01*
X47573446Y-145798009D01*
X47573459Y-145798016D01*
X47696363Y-145848923D01*
X47737334Y-145865894D01*
X47737336Y-145865894D01*
X47737341Y-145865896D01*
X47911304Y-145900499D01*
X47911307Y-145900500D01*
X47911309Y-145900500D01*
X48088693Y-145900500D01*
X48088694Y-145900499D01*
X48146682Y-145888964D01*
X48262658Y-145865896D01*
X48262661Y-145865894D01*
X48262666Y-145865894D01*
X48426547Y-145798013D01*
X48574035Y-145699464D01*
X48699464Y-145574035D01*
X48798013Y-145426547D01*
X48865894Y-145262666D01*
X48900500Y-145088691D01*
X48900500Y-144911309D01*
X48900500Y-144911306D01*
X48900499Y-144911304D01*
X48865896Y-144737341D01*
X48865893Y-144737332D01*
X48798016Y-144573459D01*
X48798009Y-144573446D01*
X48699464Y-144425965D01*
X48699461Y-144425961D01*
X48574038Y-144300538D01*
X48574034Y-144300535D01*
X48426553Y-144201990D01*
X48426540Y-144201983D01*
X48262667Y-144134106D01*
X48262658Y-144134103D01*
X48088694Y-144099500D01*
X48088691Y-144099500D01*
X47911309Y-144099500D01*
X47906426Y-144100471D01*
X47889566Y-144103824D01*
X47819975Y-144097592D01*
X47777700Y-144069886D01*
X46536819Y-142829005D01*
X46503334Y-142767682D01*
X46500500Y-142741324D01*
X46500500Y-142411304D01*
X47099500Y-142411304D01*
X47099500Y-142588695D01*
X47134103Y-142762658D01*
X47134106Y-142762667D01*
X47201983Y-142926540D01*
X47201990Y-142926553D01*
X47300535Y-143074034D01*
X47300538Y-143074038D01*
X47425961Y-143199461D01*
X47425965Y-143199464D01*
X47573446Y-143298009D01*
X47573459Y-143298016D01*
X47681007Y-143342563D01*
X47737334Y-143365894D01*
X47737336Y-143365894D01*
X47737341Y-143365896D01*
X47911304Y-143400499D01*
X47911307Y-143400500D01*
X47911309Y-143400500D01*
X48088693Y-143400500D01*
X48088694Y-143400499D01*
X48146682Y-143388964D01*
X48262658Y-143365896D01*
X48262661Y-143365894D01*
X48262666Y-143365894D01*
X48426547Y-143298013D01*
X48574035Y-143199464D01*
X48699464Y-143074035D01*
X48711775Y-143055609D01*
X48765387Y-143010804D01*
X48814878Y-143000500D01*
X49065890Y-143000500D01*
X49065892Y-143000500D01*
X49193186Y-142966392D01*
X49307314Y-142900500D01*
X56788500Y-135419314D01*
X56854392Y-135305186D01*
X56888500Y-135177892D01*
X56888500Y-135046107D01*
X56888500Y-82688020D01*
X59436845Y-82688020D01*
X59436845Y-82947825D01*
X59477485Y-83204416D01*
X59557767Y-83451499D01*
X59638879Y-83610687D01*
X59675711Y-83682974D01*
X59828414Y-83893152D01*
X60012116Y-84076854D01*
X60222294Y-84229557D01*
X60369790Y-84304710D01*
X60453768Y-84347500D01*
X60453770Y-84347500D01*
X60453773Y-84347502D01*
X60700852Y-84427783D01*
X60833051Y-84448720D01*
X60957443Y-84468423D01*
X60957448Y-84468423D01*
X61217247Y-84468423D01*
X61330643Y-84450462D01*
X61473838Y-84427783D01*
X61720917Y-84347502D01*
X61952396Y-84229557D01*
X62162574Y-84076854D01*
X62346276Y-83893152D01*
X62498979Y-83682974D01*
X62616924Y-83451495D01*
X62697205Y-83204416D01*
X62719884Y-83061221D01*
X62737845Y-82947825D01*
X62737845Y-82688020D01*
X62709439Y-82508676D01*
X62697205Y-82431430D01*
X62616924Y-82184351D01*
X62616922Y-82184348D01*
X62616922Y-82184346D01*
X62551939Y-82056812D01*
X62498979Y-81952872D01*
X62346276Y-81742694D01*
X62162574Y-81558992D01*
X61952396Y-81406289D01*
X61880109Y-81369457D01*
X61720921Y-81288345D01*
X61473838Y-81208063D01*
X61217247Y-81167423D01*
X61217242Y-81167423D01*
X60957448Y-81167423D01*
X60957443Y-81167423D01*
X60700851Y-81208063D01*
X60453768Y-81288345D01*
X60222290Y-81406291D01*
X60012119Y-81558989D01*
X60012113Y-81558994D01*
X59828416Y-81742691D01*
X59828411Y-81742697D01*
X59675713Y-81952868D01*
X59557767Y-82184346D01*
X59477485Y-82431429D01*
X59436845Y-82688020D01*
X56888500Y-82688020D01*
X56888500Y-78017892D01*
X56908185Y-77950853D01*
X56924814Y-77930216D01*
X58968268Y-75886761D01*
X59029589Y-75853278D01*
X59099281Y-75858262D01*
X59103373Y-75859872D01*
X59313324Y-75946836D01*
X59538138Y-76007075D01*
X59768892Y-76037454D01*
X59768899Y-76037454D01*
X60001629Y-76037454D01*
X60001636Y-76037454D01*
X60232390Y-76007075D01*
X60457204Y-75946836D01*
X60602235Y-75886763D01*
X60672224Y-75857773D01*
X60672227Y-75857771D01*
X60672233Y-75857769D01*
X60873796Y-75741396D01*
X61058445Y-75599710D01*
X61223020Y-75435135D01*
X61364706Y-75250486D01*
X61481079Y-75048923D01*
X61570146Y-74833894D01*
X61630385Y-74609080D01*
X61660764Y-74378326D01*
X61660764Y-74145582D01*
X61630385Y-73914828D01*
X61570146Y-73690014D01*
X61570143Y-73690006D01*
X61481083Y-73474993D01*
X61481075Y-73474977D01*
X61364710Y-73273429D01*
X61364706Y-73273422D01*
X61223020Y-73088773D01*
X61223015Y-73088767D01*
X61058450Y-72924202D01*
X61058443Y-72924196D01*
X60873804Y-72782518D01*
X60873802Y-72782516D01*
X60873796Y-72782512D01*
X60873791Y-72782509D01*
X60873788Y-72782507D01*
X60672240Y-72666142D01*
X60672224Y-72666134D01*
X60457211Y-72577074D01*
X60369075Y-72553458D01*
X60232390Y-72516833D01*
X60232389Y-72516832D01*
X60232386Y-72516832D01*
X60001646Y-72486455D01*
X60001641Y-72486454D01*
X60001636Y-72486454D01*
X59768892Y-72486454D01*
X59768886Y-72486454D01*
X59768881Y-72486455D01*
X59538141Y-72516832D01*
X59313316Y-72577074D01*
X59098303Y-72666134D01*
X59098287Y-72666142D01*
X58896739Y-72782507D01*
X58896723Y-72782518D01*
X58712084Y-72924196D01*
X58712077Y-72924202D01*
X58547512Y-73088767D01*
X58547506Y-73088774D01*
X58405828Y-73273413D01*
X58405817Y-73273429D01*
X58289452Y-73474977D01*
X58289444Y-73474993D01*
X58200384Y-73690006D01*
X58140142Y-73914831D01*
X58109765Y-74145571D01*
X58109764Y-74145588D01*
X58109764Y-74378319D01*
X58109765Y-74378336D01*
X58140142Y-74609076D01*
X58200384Y-74833901D01*
X58287333Y-75043817D01*
X58294802Y-75113286D01*
X58263526Y-75175765D01*
X58260453Y-75178950D01*
X56063244Y-77376158D01*
X56063245Y-77376159D01*
X55987500Y-77451904D01*
X55921608Y-77566030D01*
X55887500Y-77693326D01*
X55887500Y-134853324D01*
X55867815Y-134920363D01*
X55851181Y-134941005D01*
X48870524Y-141921662D01*
X48809201Y-141955147D01*
X48739509Y-141950163D01*
X48695162Y-141921662D01*
X48574038Y-141800538D01*
X48574034Y-141800535D01*
X48426553Y-141701990D01*
X48426540Y-141701983D01*
X48262667Y-141634106D01*
X48262658Y-141634103D01*
X48088694Y-141599500D01*
X48088691Y-141599500D01*
X47911309Y-141599500D01*
X47911306Y-141599500D01*
X47737341Y-141634103D01*
X47737332Y-141634106D01*
X47573459Y-141701983D01*
X47573446Y-141701990D01*
X47425965Y-141800535D01*
X47425961Y-141800538D01*
X47300538Y-141925961D01*
X47300535Y-141925965D01*
X47201990Y-142073446D01*
X47201983Y-142073459D01*
X47134106Y-142237332D01*
X47134103Y-142237341D01*
X47099500Y-142411304D01*
X46500500Y-142411304D01*
X46500500Y-139911304D01*
X47099500Y-139911304D01*
X47099500Y-140088695D01*
X47134103Y-140262658D01*
X47134106Y-140262667D01*
X47201983Y-140426540D01*
X47201990Y-140426553D01*
X47300535Y-140574034D01*
X47300538Y-140574038D01*
X47425961Y-140699461D01*
X47425965Y-140699464D01*
X47573446Y-140798009D01*
X47573459Y-140798016D01*
X47660421Y-140834036D01*
X47737334Y-140865894D01*
X47737336Y-140865894D01*
X47737341Y-140865896D01*
X47911304Y-140900499D01*
X47911307Y-140900500D01*
X47911309Y-140900500D01*
X48088693Y-140900500D01*
X48088694Y-140900499D01*
X48146682Y-140888964D01*
X48262658Y-140865896D01*
X48262661Y-140865894D01*
X48262666Y-140865894D01*
X48426547Y-140798013D01*
X48574035Y-140699464D01*
X48699464Y-140574035D01*
X48798013Y-140426547D01*
X48865894Y-140262666D01*
X48900500Y-140088691D01*
X48900500Y-139911309D01*
X48900500Y-139911306D01*
X48900499Y-139911304D01*
X48865896Y-139737341D01*
X48865893Y-139737332D01*
X48798016Y-139573459D01*
X48798009Y-139573446D01*
X48699464Y-139425965D01*
X48699461Y-139425961D01*
X48574038Y-139300538D01*
X48574034Y-139300535D01*
X48426553Y-139201990D01*
X48426540Y-139201983D01*
X48262667Y-139134106D01*
X48262658Y-139134103D01*
X48088694Y-139099500D01*
X48088691Y-139099500D01*
X47911309Y-139099500D01*
X47911306Y-139099500D01*
X47737341Y-139134103D01*
X47737332Y-139134106D01*
X47573459Y-139201983D01*
X47573446Y-139201990D01*
X47425965Y-139300535D01*
X47425961Y-139300538D01*
X47300538Y-139425961D01*
X47300535Y-139425965D01*
X47201990Y-139573446D01*
X47201983Y-139573459D01*
X47134106Y-139737332D01*
X47134103Y-139737341D01*
X47099500Y-139911304D01*
X46500500Y-139911304D01*
X46500500Y-135040519D01*
X46520185Y-134973480D01*
X46572989Y-134927725D01*
X46642147Y-134917781D01*
X46705703Y-134946806D01*
X46712181Y-134952838D01*
X46803454Y-135044111D01*
X46803458Y-135044114D01*
X46918182Y-135120771D01*
X46918195Y-135120778D01*
X47045667Y-135173578D01*
X47045672Y-135173580D01*
X47045676Y-135173580D01*
X47045677Y-135173581D01*
X47181004Y-135200500D01*
X47181007Y-135200500D01*
X47318995Y-135200500D01*
X47432660Y-135177890D01*
X47454328Y-135173580D01*
X47581811Y-135120775D01*
X47696542Y-135044114D01*
X47794114Y-134946542D01*
X47870775Y-134831811D01*
X47923580Y-134704328D01*
X47950500Y-134568993D01*
X47950500Y-134431007D01*
X47950500Y-134431004D01*
X47923581Y-134295677D01*
X47923580Y-134295676D01*
X47923580Y-134295672D01*
X47923578Y-134295667D01*
X47870778Y-134168195D01*
X47870771Y-134168182D01*
X47794114Y-134053458D01*
X47794111Y-134053454D01*
X47786819Y-134046162D01*
X47753334Y-133984839D01*
X47750500Y-133958481D01*
X47750500Y-129008676D01*
X47770185Y-128941637D01*
X47786819Y-128920995D01*
X49135195Y-127572619D01*
X49162122Y-127557915D01*
X49187941Y-127541323D01*
X49194141Y-127540431D01*
X49196518Y-127539134D01*
X49222876Y-127536300D01*
X49242481Y-127536300D01*
X49309520Y-127555985D01*
X49330162Y-127572619D01*
X49337454Y-127579911D01*
X49337458Y-127579914D01*
X49452182Y-127656571D01*
X49452195Y-127656578D01*
X49579667Y-127709378D01*
X49579672Y-127709380D01*
X49579676Y-127709380D01*
X49579677Y-127709381D01*
X49715004Y-127736300D01*
X49715007Y-127736300D01*
X49852995Y-127736300D01*
X49944041Y-127718189D01*
X49988328Y-127709380D01*
X50115811Y-127656575D01*
X50230542Y-127579914D01*
X50328114Y-127482342D01*
X50404775Y-127367611D01*
X50457580Y-127240128D01*
X50484500Y-127104793D01*
X50484500Y-126966807D01*
X50484500Y-126966804D01*
X50457581Y-126831477D01*
X50457580Y-126831476D01*
X50457580Y-126831472D01*
X50457578Y-126831467D01*
X50404778Y-126703995D01*
X50404771Y-126703982D01*
X50328114Y-126589258D01*
X50328111Y-126589254D01*
X50230545Y-126491688D01*
X50230541Y-126491685D01*
X50115817Y-126415028D01*
X50115804Y-126415021D01*
X49988332Y-126362221D01*
X49988322Y-126362218D01*
X49852995Y-126335300D01*
X49852993Y-126335300D01*
X49715007Y-126335300D01*
X49715005Y-126335300D01*
X49579677Y-126362218D01*
X49579667Y-126362221D01*
X49452195Y-126415021D01*
X49452182Y-126415028D01*
X49337458Y-126491685D01*
X49337454Y-126491688D01*
X49330162Y-126498981D01*
X49268839Y-126532466D01*
X49242481Y-126535300D01*
X48898308Y-126535300D01*
X48771012Y-126569408D01*
X48656886Y-126635300D01*
X48656883Y-126635302D01*
X46849502Y-128442683D01*
X46849500Y-128442686D01*
X46783608Y-128556812D01*
X46749500Y-128684108D01*
X46749500Y-133958481D01*
X46740855Y-133987921D01*
X46734332Y-134017908D01*
X46730577Y-134022923D01*
X46729815Y-134025520D01*
X46713181Y-134046162D01*
X46712181Y-134047162D01*
X46650858Y-134080647D01*
X46581166Y-134075663D01*
X46525233Y-134033791D01*
X46500816Y-133968327D01*
X46500500Y-133959481D01*
X46500500Y-82727988D01*
X48434264Y-82727988D01*
X48434264Y-84859391D01*
X48437165Y-84896257D01*
X48437166Y-84896263D01*
X48483018Y-85054083D01*
X48483019Y-85054086D01*
X48566681Y-85195552D01*
X48566687Y-85195560D01*
X48682893Y-85311766D01*
X48682897Y-85311769D01*
X48682899Y-85311771D01*
X48824366Y-85395434D01*
X48865988Y-85407526D01*
X48982190Y-85441287D01*
X48982193Y-85441287D01*
X48982195Y-85441288D01*
X49019070Y-85444190D01*
X49019078Y-85444190D01*
X51150450Y-85444190D01*
X51150458Y-85444190D01*
X51187333Y-85441288D01*
X51187335Y-85441287D01*
X51187337Y-85441287D01*
X51228955Y-85429195D01*
X51345162Y-85395434D01*
X51486629Y-85311771D01*
X51602845Y-85195555D01*
X51686508Y-85054088D01*
X51732362Y-84896259D01*
X51735264Y-84859384D01*
X51735264Y-82727996D01*
X51732362Y-82691121D01*
X51731461Y-82688020D01*
X51686509Y-82533296D01*
X51686508Y-82533293D01*
X51686508Y-82533292D01*
X51602845Y-82391825D01*
X51602843Y-82391823D01*
X51602840Y-82391819D01*
X51486634Y-82275613D01*
X51486626Y-82275607D01*
X51345160Y-82191945D01*
X51345157Y-82191944D01*
X51187337Y-82146092D01*
X51187331Y-82146091D01*
X51150465Y-82143190D01*
X51150458Y-82143190D01*
X49019070Y-82143190D01*
X49019062Y-82143190D01*
X48982196Y-82146091D01*
X48982190Y-82146092D01*
X48824370Y-82191944D01*
X48824367Y-82191945D01*
X48682901Y-82275607D01*
X48682893Y-82275613D01*
X48566687Y-82391819D01*
X48566681Y-82391827D01*
X48483019Y-82533293D01*
X48483018Y-82533296D01*
X48437166Y-82691116D01*
X48437165Y-82691122D01*
X48434264Y-82727988D01*
X46500500Y-82727988D01*
X46500500Y-82508676D01*
X46520185Y-82441637D01*
X46536819Y-82420995D01*
X54920995Y-74036819D01*
X54982318Y-74003334D01*
X55008676Y-74000500D01*
X57065890Y-74000500D01*
X57065892Y-74000500D01*
X57193186Y-73966392D01*
X57307314Y-73900500D01*
X60285763Y-70922051D01*
X60351656Y-70807922D01*
X60385764Y-70680629D01*
X60385764Y-70548844D01*
X60385764Y-62963347D01*
X60405449Y-62896308D01*
X60458253Y-62850553D01*
X60462301Y-62848790D01*
X60638045Y-62775996D01*
X60672224Y-62761839D01*
X60672227Y-62761837D01*
X60672233Y-62761835D01*
X60873796Y-62645462D01*
X61058445Y-62503776D01*
X61223020Y-62339201D01*
X61364706Y-62154552D01*
X61481079Y-61952989D01*
X61511632Y-61879228D01*
X61570143Y-61737967D01*
X61570142Y-61737967D01*
X61570146Y-61737960D01*
X61630385Y-61513146D01*
X61660764Y-61282392D01*
X61660764Y-61049648D01*
X61630385Y-60818894D01*
X61570146Y-60594080D01*
X61544666Y-60532564D01*
X61481083Y-60379059D01*
X61481075Y-60379043D01*
X61364710Y-60177495D01*
X61364706Y-60177488D01*
X61223020Y-59992839D01*
X61223015Y-59992833D01*
X61058450Y-59828268D01*
X61058443Y-59828262D01*
X60873804Y-59686584D01*
X60873802Y-59686582D01*
X60873796Y-59686578D01*
X60873791Y-59686575D01*
X60873788Y-59686573D01*
X60672240Y-59570208D01*
X60672224Y-59570200D01*
X60457211Y-59481140D01*
X60450896Y-59479448D01*
X60232390Y-59420899D01*
X60232389Y-59420898D01*
X60232386Y-59420898D01*
X60001646Y-59390521D01*
X60001641Y-59390520D01*
X60001636Y-59390520D01*
X59768892Y-59390520D01*
X59768886Y-59390520D01*
X59768881Y-59390521D01*
X59538141Y-59420898D01*
X59313316Y-59481140D01*
X59098303Y-59570200D01*
X59098287Y-59570208D01*
X58896739Y-59686573D01*
X58896723Y-59686584D01*
X58712084Y-59828262D01*
X58712077Y-59828268D01*
X58547512Y-59992833D01*
X58547506Y-59992840D01*
X58405828Y-60177479D01*
X58405817Y-60177495D01*
X58289452Y-60379043D01*
X58289444Y-60379059D01*
X58200384Y-60594072D01*
X58140142Y-60818897D01*
X58109765Y-61049637D01*
X58109764Y-61049654D01*
X58109764Y-61282385D01*
X58109765Y-61282402D01*
X58111560Y-61296038D01*
X58140143Y-61513146D01*
X58186006Y-61684310D01*
X58200384Y-61737967D01*
X58289444Y-61952980D01*
X58289452Y-61952996D01*
X58405817Y-62154544D01*
X58405828Y-62154560D01*
X58547506Y-62339199D01*
X58547512Y-62339206D01*
X58712077Y-62503771D01*
X58712084Y-62503777D01*
X58797078Y-62568995D01*
X58896732Y-62645462D01*
X58896739Y-62645466D01*
X59098287Y-62761831D01*
X59098303Y-62761839D01*
X59239294Y-62820238D01*
X59308216Y-62848786D01*
X59362620Y-62892626D01*
X59384685Y-62958920D01*
X59384764Y-62963347D01*
X59384764Y-70356060D01*
X59365079Y-70423099D01*
X59348445Y-70443741D01*
X56829005Y-72963181D01*
X56767682Y-72996666D01*
X56741324Y-72999500D01*
X54684108Y-72999500D01*
X54556812Y-73033608D01*
X54442686Y-73099500D01*
X54442683Y-73099502D01*
X45599502Y-81942683D01*
X45599500Y-81942686D01*
X45533608Y-82056812D01*
X45499500Y-82184108D01*
X45499500Y-135427426D01*
X45479815Y-135494465D01*
X45427011Y-135540220D01*
X45357853Y-135550164D01*
X45294297Y-135521139D01*
X45272399Y-135496318D01*
X45253116Y-135467460D01*
X45253111Y-135467454D01*
X45155545Y-135369888D01*
X45155541Y-135369885D01*
X45040817Y-135293228D01*
X45040804Y-135293221D01*
X44913332Y-135240421D01*
X44913322Y-135240418D01*
X44777995Y-135213500D01*
X44777993Y-135213500D01*
X44640007Y-135213500D01*
X44640005Y-135213500D01*
X44504677Y-135240418D01*
X44504667Y-135240421D01*
X44377195Y-135293221D01*
X44377182Y-135293228D01*
X44262458Y-135369885D01*
X44262454Y-135369888D01*
X44164888Y-135467454D01*
X44164885Y-135467458D01*
X44088228Y-135582182D01*
X44088221Y-135582195D01*
X44035421Y-135709667D01*
X44035418Y-135709677D01*
X44008500Y-135845004D01*
X44008500Y-135875178D01*
X43988815Y-135942217D01*
X43974400Y-135960583D01*
X42820483Y-137175233D01*
X42760038Y-137210279D01*
X42742737Y-137213231D01*
X42740003Y-137213500D01*
X42604677Y-137240418D01*
X42604667Y-137240421D01*
X42477195Y-137293221D01*
X42477182Y-137293228D01*
X42362458Y-137369885D01*
X42362454Y-137369888D01*
X42264888Y-137467454D01*
X42264885Y-137467458D01*
X42188228Y-137582182D01*
X42188221Y-137582195D01*
X42135421Y-137709667D01*
X42135418Y-137709677D01*
X42108500Y-137845004D01*
X42108500Y-137845007D01*
X42108500Y-137982993D01*
X42108500Y-137982995D01*
X42108499Y-137982995D01*
X35337955Y-137982995D01*
X35337955Y-78180170D01*
X40230353Y-78180170D01*
X40230353Y-78461033D01*
X40261795Y-78740096D01*
X40261798Y-78740114D01*
X40324292Y-79013919D01*
X40324296Y-79013931D01*
X40417053Y-79279013D01*
X40538906Y-79532044D01*
X40538908Y-79532047D01*
X40688330Y-79769850D01*
X40863437Y-79989427D01*
X41062028Y-80188018D01*
X41281605Y-80363125D01*
X41519408Y-80512547D01*
X41772445Y-80634403D01*
X41971533Y-80704067D01*
X42037523Y-80727158D01*
X42037535Y-80727162D01*
X42311344Y-80789657D01*
X42311350Y-80789657D01*
X42311358Y-80789659D01*
X42497400Y-80810620D01*
X42590422Y-80821101D01*
X42590425Y-80821102D01*
X42590428Y-80821102D01*
X42871281Y-80821102D01*
X42871282Y-80821101D01*
X43013908Y-80805031D01*
X43150347Y-80789659D01*
X43150352Y-80789658D01*
X43150362Y-80789657D01*
X43424171Y-80727162D01*
X43689261Y-80634403D01*
X43942298Y-80512547D01*
X44180101Y-80363125D01*
X44399678Y-80188018D01*
X44598269Y-79989427D01*
X44773376Y-79769850D01*
X44922798Y-79532047D01*
X45044654Y-79279010D01*
X45137413Y-79013920D01*
X45199908Y-78740111D01*
X45231353Y-78461027D01*
X45231353Y-78180177D01*
X45199908Y-77901093D01*
X45137413Y-77627284D01*
X45044654Y-77362194D01*
X44922798Y-77109157D01*
X44773376Y-76871354D01*
X44598269Y-76651777D01*
X44399678Y-76453186D01*
X44180101Y-76278079D01*
X43942298Y-76128657D01*
X43942295Y-76128655D01*
X43689264Y-76006802D01*
X43424182Y-75914045D01*
X43424170Y-75914041D01*
X43150365Y-75851547D01*
X43150347Y-75851544D01*
X42871284Y-75820102D01*
X42871278Y-75820102D01*
X42590428Y-75820102D01*
X42590421Y-75820102D01*
X42311358Y-75851544D01*
X42311340Y-75851547D01*
X42037535Y-75914041D01*
X42037523Y-75914045D01*
X41772441Y-76006802D01*
X41519410Y-76128655D01*
X41281606Y-76278078D01*
X41062028Y-76453185D01*
X40863436Y-76651777D01*
X40688329Y-76871355D01*
X40538906Y-77109159D01*
X40417053Y-77362190D01*
X40324296Y-77627272D01*
X40324292Y-77627284D01*
X40261798Y-77901089D01*
X40261795Y-77901107D01*
X40230353Y-78180170D01*
X35337955Y-78180170D01*
X35337955Y-71753099D01*
X35357640Y-71686060D01*
X35410444Y-71640305D01*
X35479602Y-71630361D01*
X35543158Y-71659386D01*
X35579886Y-71714781D01*
X35597888Y-71770185D01*
X35657557Y-71953826D01*
X35775502Y-72185305D01*
X35928205Y-72395483D01*
X36111907Y-72579185D01*
X36322085Y-72731888D01*
X36469581Y-72807041D01*
X36553559Y-72849831D01*
X36553561Y-72849831D01*
X36553564Y-72849833D01*
X36800643Y-72930114D01*
X36932842Y-72951051D01*
X37057234Y-72970754D01*
X37057239Y-72970754D01*
X37317038Y-72970754D01*
X37430434Y-72952793D01*
X37573629Y-72930114D01*
X37820708Y-72849833D01*
X38052187Y-72731888D01*
X38262365Y-72579185D01*
X38446067Y-72395483D01*
X38598770Y-72185305D01*
X38716715Y-71953826D01*
X38754940Y-71836179D01*
X38794378Y-71778506D01*
X38858736Y-71751308D01*
X38872871Y-71750500D01*
X44194324Y-71750500D01*
X44261363Y-71770185D01*
X44282005Y-71786819D01*
X48739681Y-76244495D01*
X48773166Y-76305818D01*
X48776000Y-76332176D01*
X48776000Y-76342493D01*
X48776000Y-76342495D01*
X48775999Y-76342495D01*
X48802918Y-76477822D01*
X48802921Y-76477832D01*
X48855721Y-76605304D01*
X48855728Y-76605317D01*
X48932385Y-76720041D01*
X48932388Y-76720045D01*
X49029954Y-76817611D01*
X49029958Y-76817614D01*
X49144682Y-76894271D01*
X49144695Y-76894278D01*
X49272167Y-76947078D01*
X49272172Y-76947080D01*
X49272176Y-76947080D01*
X49272177Y-76947081D01*
X49407504Y-76974000D01*
X49407507Y-76974000D01*
X49545495Y-76974000D01*
X49636541Y-76955889D01*
X49680828Y-76947080D01*
X49808311Y-76894275D01*
X49923042Y-76817614D01*
X50020614Y-76720042D01*
X50097275Y-76605311D01*
X50150080Y-76477828D01*
X50177000Y-76342493D01*
X50177000Y-76204507D01*
X50177000Y-76204504D01*
X50150081Y-76069177D01*
X50150080Y-76069176D01*
X50150080Y-76069172D01*
X50099407Y-75946836D01*
X50097278Y-75941695D01*
X50097271Y-75941682D01*
X50020614Y-75826958D01*
X50020611Y-75826954D01*
X49923045Y-75729388D01*
X49923041Y-75729385D01*
X49808317Y-75652728D01*
X49808304Y-75652721D01*
X49680832Y-75599921D01*
X49680822Y-75599918D01*
X49545495Y-75573000D01*
X49545493Y-75573000D01*
X49535176Y-75573000D01*
X49468137Y-75553315D01*
X49447495Y-75536681D01*
X44760316Y-70849502D01*
X44760314Y-70849500D01*
X44688299Y-70807922D01*
X44663543Y-70793629D01*
X55218936Y-70793629D01*
X55218936Y-70998332D01*
X55250958Y-71200515D01*
X55314217Y-71395204D01*
X55407151Y-71577594D01*
X55527464Y-71743194D01*
X55672222Y-71887952D01*
X55827185Y-72000537D01*
X55837826Y-72008268D01*
X55954043Y-72067484D01*
X56020212Y-72101199D01*
X56020214Y-72101199D01*
X56020217Y-72101201D01*
X56124573Y-72135108D01*
X56214901Y-72164458D01*
X56315993Y-72180469D01*
X56417084Y-72196481D01*
X56417085Y-72196481D01*
X56621787Y-72196481D01*
X56621788Y-72196481D01*
X56823970Y-72164458D01*
X57018655Y-72101201D01*
X57201046Y-72008268D01*
X57294026Y-71940713D01*
X57366649Y-71887952D01*
X57366651Y-71887949D01*
X57366655Y-71887947D01*
X57511402Y-71743200D01*
X57511404Y-71743196D01*
X57511407Y-71743194D01*
X57586159Y-71640305D01*
X57631723Y-71577591D01*
X57724656Y-71395200D01*
X57787913Y-71200515D01*
X57819936Y-70998333D01*
X57819936Y-70793629D01*
X57809829Y-70729815D01*
X57787913Y-70591446D01*
X57749966Y-70474658D01*
X57724656Y-70396762D01*
X57724654Y-70396759D01*
X57724654Y-70396757D01*
X57690939Y-70330588D01*
X57631723Y-70214371D01*
X57623992Y-70203730D01*
X57511407Y-70048767D01*
X57366649Y-69904009D01*
X57201049Y-69783696D01*
X57201048Y-69783695D01*
X57201046Y-69783694D01*
X57144089Y-69754672D01*
X57018659Y-69690762D01*
X56823970Y-69627503D01*
X56649431Y-69599859D01*
X56621788Y-69595481D01*
X56417084Y-69595481D01*
X56392765Y-69599332D01*
X56214901Y-69627503D01*
X56020212Y-69690762D01*
X55837822Y-69783696D01*
X55672222Y-69904009D01*
X55527464Y-70048767D01*
X55407151Y-70214367D01*
X55314217Y-70396757D01*
X55250958Y-70591446D01*
X55218936Y-70793629D01*
X44663543Y-70793629D01*
X44646187Y-70783608D01*
X44582539Y-70766554D01*
X44518892Y-70749500D01*
X44518891Y-70749500D01*
X38824710Y-70749500D01*
X38757671Y-70729815D01*
X38714225Y-70681795D01*
X38668190Y-70591447D01*
X38598770Y-70455203D01*
X38446067Y-70245025D01*
X38262365Y-70061323D01*
X38052187Y-69908620D01*
X37979900Y-69871788D01*
X37820712Y-69790676D01*
X37573629Y-69710394D01*
X37317038Y-69669754D01*
X37317033Y-69669754D01*
X37057239Y-69669754D01*
X37057234Y-69669754D01*
X36800642Y-69710394D01*
X36553559Y-69790676D01*
X36322081Y-69908622D01*
X36111910Y-70061320D01*
X36111904Y-70061325D01*
X35928207Y-70245022D01*
X35928202Y-70245028D01*
X35775504Y-70455199D01*
X35657558Y-70686677D01*
X35579886Y-70925727D01*
X35540448Y-70983402D01*
X35476089Y-71010600D01*
X35407243Y-70998685D01*
X35355767Y-70951441D01*
X35337955Y-70887408D01*
X35337955Y-68694255D01*
X50576797Y-68694255D01*
X50576797Y-68954060D01*
X50617437Y-69210651D01*
X50697719Y-69457734D01*
X50767906Y-69595481D01*
X50806382Y-69670995D01*
X50815665Y-69689212D01*
X50884310Y-69783694D01*
X50968366Y-69899387D01*
X51152068Y-70083089D01*
X51362246Y-70235792D01*
X51509742Y-70310945D01*
X51593720Y-70353735D01*
X51593722Y-70353735D01*
X51593725Y-70353737D01*
X51840804Y-70434018D01*
X51973003Y-70454955D01*
X52097395Y-70474658D01*
X52097400Y-70474658D01*
X52357199Y-70474658D01*
X52480030Y-70455203D01*
X52613790Y-70434018D01*
X52860869Y-70353737D01*
X53092348Y-70235792D01*
X53302526Y-70083089D01*
X53486228Y-69899387D01*
X53638931Y-69689209D01*
X53756876Y-69457730D01*
X53837157Y-69210651D01*
X53859836Y-69067456D01*
X53877797Y-68954060D01*
X53877797Y-68694255D01*
X53848245Y-68507676D01*
X53837157Y-68437665D01*
X53756876Y-68190586D01*
X53756874Y-68190583D01*
X53756874Y-68190581D01*
X53688714Y-68056812D01*
X53638931Y-67959107D01*
X53486228Y-67748929D01*
X53302526Y-67565227D01*
X53092348Y-67412524D01*
X53020061Y-67375692D01*
X52860873Y-67294580D01*
X52613790Y-67214298D01*
X52357199Y-67173658D01*
X52357194Y-67173658D01*
X52097400Y-67173658D01*
X52097395Y-67173658D01*
X51840803Y-67214298D01*
X51593720Y-67294580D01*
X51362242Y-67412526D01*
X51152071Y-67565224D01*
X51152065Y-67565229D01*
X50968368Y-67748926D01*
X50968363Y-67748932D01*
X50815665Y-67959103D01*
X50697719Y-68190581D01*
X50617437Y-68437664D01*
X50576797Y-68694255D01*
X35337955Y-68694255D01*
X35337955Y-64429667D01*
X48854974Y-64429667D01*
X48854974Y-64634370D01*
X48886996Y-64836553D01*
X48950255Y-65031242D01*
X49014165Y-65156672D01*
X49027488Y-65182819D01*
X49043189Y-65213632D01*
X49163502Y-65379232D01*
X49308260Y-65523990D01*
X49463223Y-65636575D01*
X49473864Y-65644306D01*
X49590081Y-65703522D01*
X49656250Y-65737237D01*
X49656252Y-65737237D01*
X49656255Y-65737239D01*
X49720428Y-65758090D01*
X49850939Y-65800496D01*
X49952031Y-65816507D01*
X50053122Y-65832519D01*
X50053123Y-65832519D01*
X50257825Y-65832519D01*
X50257826Y-65832519D01*
X50460008Y-65800496D01*
X50654693Y-65737239D01*
X50837084Y-65644306D01*
X50930064Y-65576751D01*
X51002687Y-65523990D01*
X51002689Y-65523987D01*
X51002693Y-65523985D01*
X51147440Y-65379238D01*
X51147442Y-65379234D01*
X51147445Y-65379232D01*
X51200206Y-65306609D01*
X51267761Y-65213629D01*
X51360694Y-65031238D01*
X51423951Y-64836553D01*
X51455974Y-64634371D01*
X51455974Y-64429667D01*
X51454006Y-64417243D01*
X51423951Y-64227484D01*
X51374568Y-64075500D01*
X51360694Y-64032800D01*
X51360692Y-64032797D01*
X51360692Y-64032795D01*
X51302766Y-63919111D01*
X51267761Y-63850409D01*
X51246788Y-63821542D01*
X51147445Y-63684805D01*
X51002687Y-63540047D01*
X50837087Y-63419734D01*
X50837086Y-63419733D01*
X50837084Y-63419732D01*
X50780127Y-63390710D01*
X50654697Y-63326800D01*
X50460008Y-63263541D01*
X50285469Y-63235897D01*
X50257826Y-63231519D01*
X50053122Y-63231519D01*
X50028803Y-63235370D01*
X49850939Y-63263541D01*
X49656250Y-63326800D01*
X49473860Y-63419734D01*
X49308260Y-63540047D01*
X49163502Y-63684805D01*
X49043189Y-63850405D01*
X48950255Y-64032795D01*
X48886996Y-64227484D01*
X48854974Y-64429667D01*
X35337955Y-64429667D01*
X35337955Y-63443995D01*
X37674499Y-63443995D01*
X37701418Y-63579322D01*
X37701421Y-63579332D01*
X37754221Y-63706804D01*
X37754228Y-63706817D01*
X37830885Y-63821541D01*
X37830888Y-63821545D01*
X37928454Y-63919111D01*
X37928458Y-63919114D01*
X38043182Y-63995771D01*
X38043195Y-63995778D01*
X38170667Y-64048578D01*
X38170672Y-64048580D01*
X38170676Y-64048580D01*
X38170677Y-64048581D01*
X38306004Y-64075500D01*
X38306007Y-64075500D01*
X38443995Y-64075500D01*
X38535041Y-64057389D01*
X38579328Y-64048580D01*
X38706811Y-63995775D01*
X38821542Y-63919114D01*
X38919114Y-63821542D01*
X38995775Y-63706811D01*
X39048580Y-63579328D01*
X39075500Y-63443993D01*
X39075500Y-63306007D01*
X39075500Y-63306004D01*
X39048581Y-63170677D01*
X39048580Y-63170676D01*
X39048580Y-63170672D01*
X39048578Y-63170667D01*
X38995778Y-63043195D01*
X38995771Y-63043182D01*
X38919114Y-62928458D01*
X38919111Y-62928454D01*
X38821543Y-62830886D01*
X38805607Y-62820238D01*
X38760803Y-62766625D01*
X38750500Y-62717137D01*
X38750500Y-61036233D01*
X45139146Y-61036233D01*
X45139146Y-61296038D01*
X45179786Y-61552629D01*
X45260068Y-61799712D01*
X45378014Y-62031190D01*
X45477554Y-62168195D01*
X45530715Y-62241365D01*
X45714417Y-62425067D01*
X45924595Y-62577770D01*
X46057455Y-62645466D01*
X46156069Y-62695713D01*
X46156071Y-62695713D01*
X46156074Y-62695715D01*
X46403153Y-62775996D01*
X46535352Y-62796933D01*
X46659744Y-62816636D01*
X46659749Y-62816636D01*
X46919548Y-62816636D01*
X47032944Y-62798675D01*
X47176139Y-62775996D01*
X47423218Y-62695715D01*
X47654697Y-62577770D01*
X47864875Y-62425067D01*
X48048577Y-62241365D01*
X48201280Y-62031187D01*
X48319225Y-61799708D01*
X48399506Y-61552629D01*
X48422185Y-61409434D01*
X48440146Y-61296038D01*
X48440146Y-61036233D01*
X48405723Y-60818897D01*
X48399506Y-60779643D01*
X48319225Y-60532564D01*
X48319223Y-60532561D01*
X48319223Y-60532559D01*
X48276433Y-60448581D01*
X48201280Y-60301085D01*
X48048577Y-60090907D01*
X47864875Y-59907205D01*
X47864871Y-59907202D01*
X47654700Y-59754504D01*
X47654699Y-59754503D01*
X47654697Y-59754502D01*
X47582410Y-59717670D01*
X47423222Y-59636558D01*
X47176139Y-59556276D01*
X46919548Y-59515636D01*
X46919543Y-59515636D01*
X46659749Y-59515636D01*
X46659744Y-59515636D01*
X46403152Y-59556276D01*
X46156069Y-59636558D01*
X45924591Y-59754504D01*
X45714420Y-59907202D01*
X45714414Y-59907207D01*
X45530717Y-60090904D01*
X45530712Y-60090910D01*
X45378014Y-60301081D01*
X45260068Y-60532559D01*
X45179786Y-60779642D01*
X45139146Y-61036233D01*
X38750500Y-61036233D01*
X38750500Y-56966966D01*
X40230353Y-56966966D01*
X40230353Y-57247829D01*
X40261795Y-57526892D01*
X40261798Y-57526910D01*
X40324292Y-57800715D01*
X40324296Y-57800727D01*
X40417053Y-58065809D01*
X40538906Y-58318840D01*
X40538908Y-58318843D01*
X40688330Y-58556646D01*
X40695365Y-58565467D01*
X40859083Y-58770764D01*
X40863437Y-58776223D01*
X41062028Y-58974814D01*
X41281605Y-59149921D01*
X41519408Y-59299343D01*
X41772445Y-59421199D01*
X41938911Y-59479448D01*
X42037523Y-59513954D01*
X42037529Y-59513956D01*
X42037535Y-59513958D01*
X42311344Y-59576453D01*
X42311350Y-59576453D01*
X42311358Y-59576455D01*
X42497400Y-59597416D01*
X42590422Y-59607897D01*
X42590425Y-59607898D01*
X42590428Y-59607898D01*
X42871281Y-59607898D01*
X42871282Y-59607897D01*
X43013908Y-59591827D01*
X43150347Y-59576455D01*
X43150352Y-59576454D01*
X43150362Y-59576453D01*
X43424171Y-59513958D01*
X43689261Y-59421199D01*
X43942298Y-59299343D01*
X44180101Y-59149921D01*
X44399678Y-58974814D01*
X44598269Y-58776223D01*
X44773376Y-58556646D01*
X44922798Y-58318843D01*
X45044654Y-58065806D01*
X45137413Y-57800716D01*
X45199908Y-57526907D01*
X45231353Y-57247823D01*
X45231353Y-56966973D01*
X45199908Y-56687889D01*
X45137413Y-56414080D01*
X45044654Y-56148990D01*
X44922798Y-55895953D01*
X44773376Y-55658150D01*
X44598269Y-55438573D01*
X44399678Y-55239982D01*
X44180101Y-55064875D01*
X44005612Y-54955236D01*
X43942295Y-54915451D01*
X43689264Y-54793598D01*
X43424182Y-54700841D01*
X43424170Y-54700837D01*
X43150365Y-54638343D01*
X43150347Y-54638340D01*
X42871284Y-54606898D01*
X42871278Y-54606898D01*
X42590428Y-54606898D01*
X42590421Y-54606898D01*
X42311358Y-54638340D01*
X42311340Y-54638343D01*
X42037535Y-54700837D01*
X42037523Y-54700841D01*
X41772441Y-54793598D01*
X41519410Y-54915451D01*
X41281606Y-55064874D01*
X41062028Y-55239981D01*
X40863436Y-55438573D01*
X40688329Y-55658151D01*
X40538906Y-55895955D01*
X40417053Y-56148986D01*
X40324296Y-56414068D01*
X40324292Y-56414080D01*
X40261798Y-56687885D01*
X40261795Y-56687903D01*
X40230353Y-56966966D01*
X38750500Y-56966966D01*
X38750500Y-55240792D01*
X38759144Y-55211351D01*
X38765668Y-55181365D01*
X38769422Y-55176349D01*
X38770185Y-55173753D01*
X38786819Y-55153111D01*
X38921456Y-55018474D01*
X38982779Y-54984989D01*
X39009137Y-54982155D01*
X39019456Y-54982155D01*
X39110502Y-54964044D01*
X39154789Y-54955235D01*
X39282272Y-54902430D01*
X39397003Y-54825769D01*
X39494575Y-54728197D01*
X39571236Y-54613466D01*
X39624041Y-54485983D01*
X39650961Y-54350648D01*
X39650961Y-54212662D01*
X39650961Y-54212659D01*
X39624042Y-54077332D01*
X39624041Y-54077331D01*
X39624041Y-54077327D01*
X39596979Y-54011993D01*
X39571239Y-53949850D01*
X39571232Y-53949837D01*
X39494575Y-53835113D01*
X39494572Y-53835109D01*
X39397006Y-53737543D01*
X39397002Y-53737540D01*
X39282278Y-53660883D01*
X39282265Y-53660876D01*
X39154793Y-53608076D01*
X39154783Y-53608073D01*
X39019456Y-53581155D01*
X39019454Y-53581155D01*
X38881468Y-53581155D01*
X38881466Y-53581155D01*
X38746138Y-53608073D01*
X38746128Y-53608076D01*
X38618656Y-53660876D01*
X38618643Y-53660883D01*
X38503919Y-53737540D01*
X38503915Y-53737543D01*
X38406349Y-53835109D01*
X38406346Y-53835113D01*
X38329689Y-53949837D01*
X38329682Y-53949850D01*
X38276882Y-54077322D01*
X38276879Y-54077332D01*
X38249961Y-54212659D01*
X38249961Y-54222979D01*
X38230276Y-54290018D01*
X38213642Y-54310660D01*
X37849502Y-54674799D01*
X37849500Y-54674802D01*
X37783608Y-54788928D01*
X37749500Y-54916224D01*
X37749500Y-63029930D01*
X37740061Y-63077382D01*
X37701421Y-63170667D01*
X37701418Y-63170677D01*
X37674500Y-63306004D01*
X37674500Y-63306007D01*
X37674500Y-63443993D01*
X37674500Y-63443995D01*
X37674499Y-63443995D01*
X35337955Y-63443995D01*
X35337955Y-51544429D01*
X43937065Y-51544429D01*
X43937065Y-53675832D01*
X43939966Y-53712698D01*
X43939967Y-53712704D01*
X43985819Y-53870524D01*
X43985820Y-53870527D01*
X44069482Y-54011993D01*
X44069488Y-54012001D01*
X44185694Y-54128207D01*
X44185698Y-54128210D01*
X44185700Y-54128212D01*
X44327167Y-54211875D01*
X44329866Y-54212659D01*
X44484991Y-54257728D01*
X44484994Y-54257728D01*
X44484996Y-54257729D01*
X44521871Y-54260631D01*
X44521879Y-54260631D01*
X46653251Y-54260631D01*
X46653259Y-54260631D01*
X46690134Y-54257729D01*
X46690136Y-54257728D01*
X46690138Y-54257728D01*
X46731756Y-54245636D01*
X46847963Y-54211875D01*
X46989430Y-54128212D01*
X47105646Y-54011996D01*
X47189309Y-53870529D01*
X47235163Y-53712700D01*
X47238065Y-53675825D01*
X47238065Y-51544437D01*
X47235163Y-51507562D01*
X47230445Y-51491324D01*
X47189310Y-51349737D01*
X47189309Y-51349734D01*
X47189309Y-51349733D01*
X47105646Y-51208266D01*
X47105644Y-51208264D01*
X47105641Y-51208260D01*
X46989435Y-51092054D01*
X46989427Y-51092048D01*
X46847961Y-51008386D01*
X46847958Y-51008385D01*
X46690138Y-50962533D01*
X46690132Y-50962532D01*
X46653266Y-50959631D01*
X46653259Y-50959631D01*
X44521871Y-50959631D01*
X44521863Y-50959631D01*
X44484997Y-50962532D01*
X44484991Y-50962533D01*
X44327171Y-51008385D01*
X44327168Y-51008386D01*
X44185702Y-51092048D01*
X44185694Y-51092054D01*
X44069488Y-51208260D01*
X44069482Y-51208268D01*
X43985820Y-51349734D01*
X43985819Y-51349737D01*
X43939967Y-51507557D01*
X43939966Y-51507563D01*
X43937065Y-51544429D01*
X35337955Y-51544429D01*
X35337955Y-32302872D01*
X39699500Y-32302872D01*
X39699500Y-33737127D01*
X39702395Y-33773912D01*
X39702395Y-33773914D01*
X39702396Y-33773917D01*
X39748136Y-33931357D01*
X39774200Y-33975428D01*
X39831591Y-34072472D01*
X39831598Y-34072481D01*
X39947518Y-34188401D01*
X39947522Y-34188404D01*
X39947524Y-34188406D01*
X40088643Y-34271864D01*
X40246083Y-34317604D01*
X40282878Y-34320500D01*
X40375500Y-34320500D01*
X40442539Y-34340185D01*
X40488294Y-34392989D01*
X40499500Y-34444500D01*
X40499500Y-34565891D01*
X40533608Y-34693187D01*
X40554596Y-34729539D01*
X40599500Y-34807314D01*
X45599500Y-39807314D01*
X45692686Y-39900500D01*
X45806814Y-39966392D01*
X45934108Y-40000500D01*
X57491324Y-40000500D01*
X57558363Y-40020185D01*
X57579005Y-40036819D01*
X64213181Y-46670995D01*
X64246666Y-46732318D01*
X64249500Y-46758676D01*
X64249500Y-53315891D01*
X64283608Y-53443187D01*
X64316554Y-53500250D01*
X64349500Y-53557314D01*
X64349502Y-53557316D01*
X66213181Y-55420995D01*
X66246666Y-55482318D01*
X66249500Y-55508676D01*
X66249500Y-55646170D01*
X66229815Y-55713209D01*
X66177011Y-55758964D01*
X66107853Y-55768908D01*
X66044297Y-55739883D01*
X66020507Y-55712143D01*
X65986582Y-55658153D01*
X65986581Y-55658152D01*
X65986580Y-55658150D01*
X65811473Y-55438573D01*
X65612882Y-55239982D01*
X65393305Y-55064875D01*
X65218816Y-54955236D01*
X65155499Y-54915451D01*
X64902468Y-54793598D01*
X64637386Y-54700841D01*
X64637374Y-54700837D01*
X64363569Y-54638343D01*
X64363551Y-54638340D01*
X64084488Y-54606898D01*
X64084482Y-54606898D01*
X63803632Y-54606898D01*
X63803625Y-54606898D01*
X63524562Y-54638340D01*
X63524544Y-54638343D01*
X63250739Y-54700837D01*
X63250727Y-54700841D01*
X62985645Y-54793598D01*
X62732614Y-54915451D01*
X62494810Y-55064874D01*
X62275232Y-55239981D01*
X62076640Y-55438573D01*
X61901533Y-55658151D01*
X61752110Y-55895955D01*
X61630257Y-56148986D01*
X61537500Y-56414068D01*
X61537496Y-56414080D01*
X61475002Y-56687885D01*
X61474999Y-56687903D01*
X61443557Y-56966966D01*
X61443557Y-57247829D01*
X61474999Y-57526892D01*
X61475002Y-57526910D01*
X61537496Y-57800715D01*
X61537500Y-57800727D01*
X61630257Y-58065809D01*
X61752110Y-58318840D01*
X61752112Y-58318843D01*
X61901534Y-58556646D01*
X61908569Y-58565467D01*
X62072287Y-58770764D01*
X62076641Y-58776223D01*
X62275232Y-58974814D01*
X62494809Y-59149921D01*
X62732612Y-59299343D01*
X62985649Y-59421199D01*
X63152115Y-59479448D01*
X63250727Y-59513954D01*
X63250733Y-59513956D01*
X63250739Y-59513958D01*
X63524548Y-59576453D01*
X63524554Y-59576453D01*
X63524562Y-59576455D01*
X63710604Y-59597416D01*
X63803626Y-59607897D01*
X63803629Y-59607898D01*
X63803632Y-59607898D01*
X64084485Y-59607898D01*
X64084486Y-59607897D01*
X64227112Y-59591827D01*
X64363551Y-59576455D01*
X64363556Y-59576454D01*
X64363566Y-59576453D01*
X64637375Y-59513958D01*
X64725816Y-59483010D01*
X64795594Y-59479448D01*
X64856222Y-59514177D01*
X64888449Y-59576170D01*
X64882045Y-59645745D01*
X64854452Y-59687733D01*
X63675244Y-60866940D01*
X63675245Y-60866941D01*
X63599500Y-60942686D01*
X63533608Y-61056812D01*
X63499500Y-61184108D01*
X63499500Y-61684310D01*
X63479815Y-61751349D01*
X63427011Y-61797104D01*
X63357853Y-61807048D01*
X63351310Y-61805928D01*
X63318993Y-61799500D01*
X63181007Y-61799500D01*
X63181005Y-61799500D01*
X63045677Y-61826418D01*
X63045667Y-61826421D01*
X62918195Y-61879221D01*
X62918182Y-61879228D01*
X62803458Y-61955885D01*
X62803454Y-61955888D01*
X62705888Y-62053454D01*
X62705885Y-62053458D01*
X62629228Y-62168182D01*
X62629221Y-62168195D01*
X62576421Y-62295667D01*
X62576418Y-62295677D01*
X62549500Y-62431004D01*
X62549500Y-62431007D01*
X62549500Y-62568993D01*
X62549500Y-62568995D01*
X62549499Y-62568995D01*
X62576418Y-62704322D01*
X62576421Y-62704332D01*
X62629221Y-62831804D01*
X62629228Y-62831817D01*
X62705885Y-62946541D01*
X62713177Y-62953833D01*
X62746665Y-63015155D01*
X62749500Y-63041518D01*
X62749500Y-66815891D01*
X62783608Y-66943187D01*
X62816554Y-67000250D01*
X62849500Y-67057314D01*
X62849502Y-67057316D01*
X63963181Y-68170995D01*
X63996666Y-68232318D01*
X63999500Y-68258676D01*
X63999500Y-72458481D01*
X63979815Y-72525520D01*
X63963181Y-72546162D01*
X63955888Y-72553454D01*
X63955885Y-72553458D01*
X63879228Y-72668182D01*
X63879221Y-72668195D01*
X63826421Y-72795667D01*
X63826418Y-72795677D01*
X63799500Y-72931004D01*
X63799500Y-72931007D01*
X63799500Y-73068993D01*
X63799500Y-73068995D01*
X63799499Y-73068995D01*
X63826418Y-73204322D01*
X63826421Y-73204332D01*
X63879221Y-73331804D01*
X63879228Y-73331817D01*
X63955885Y-73446541D01*
X63955888Y-73446545D01*
X64053454Y-73544111D01*
X64053458Y-73544114D01*
X64168182Y-73620771D01*
X64168195Y-73620778D01*
X64295667Y-73673578D01*
X64295672Y-73673580D01*
X64295676Y-73673580D01*
X64295677Y-73673581D01*
X64431004Y-73700500D01*
X64431007Y-73700500D01*
X64568995Y-73700500D01*
X64660041Y-73682389D01*
X64704328Y-73673580D01*
X64831811Y-73620775D01*
X64946542Y-73544114D01*
X65044114Y-73446542D01*
X65120775Y-73331811D01*
X65173580Y-73204328D01*
X65182389Y-73160041D01*
X65200500Y-73068995D01*
X65200500Y-72931004D01*
X65173581Y-72795677D01*
X65173580Y-72795676D01*
X65173580Y-72795672D01*
X65173578Y-72795667D01*
X65120778Y-72668195D01*
X65120771Y-72668182D01*
X65044114Y-72553458D01*
X65044111Y-72553454D01*
X65036819Y-72546162D01*
X65003334Y-72484839D01*
X65000500Y-72458481D01*
X65000500Y-68507676D01*
X65020185Y-68440637D01*
X65072989Y-68394882D01*
X65142147Y-68384938D01*
X65205703Y-68413963D01*
X65212181Y-68419995D01*
X66463181Y-69670995D01*
X66496666Y-69732318D01*
X66499500Y-69758676D01*
X66499500Y-77322957D01*
X66479815Y-77389996D01*
X66427011Y-77435751D01*
X66357853Y-77445695D01*
X66294297Y-77416670D01*
X66259407Y-77365309D01*
X66259368Y-77365329D01*
X66259363Y-77365319D01*
X66259183Y-77365394D01*
X66258742Y-77364330D01*
X66258460Y-77363914D01*
X66257858Y-77362194D01*
X66238962Y-77322957D01*
X66136003Y-77109159D01*
X66093847Y-77042068D01*
X65986580Y-76871354D01*
X65811473Y-76651777D01*
X65612882Y-76453186D01*
X65393305Y-76278079D01*
X65155502Y-76128657D01*
X65155499Y-76128655D01*
X64902468Y-76006802D01*
X64637386Y-75914045D01*
X64637374Y-75914041D01*
X64363569Y-75851547D01*
X64363551Y-75851544D01*
X64084488Y-75820102D01*
X64084482Y-75820102D01*
X63803632Y-75820102D01*
X63803625Y-75820102D01*
X63524562Y-75851544D01*
X63524544Y-75851547D01*
X63250739Y-75914041D01*
X63250727Y-75914045D01*
X62985645Y-76006802D01*
X62732614Y-76128655D01*
X62494810Y-76278078D01*
X62275232Y-76453185D01*
X62076640Y-76651777D01*
X61901533Y-76871355D01*
X61752110Y-77109159D01*
X61630257Y-77362190D01*
X61537500Y-77627272D01*
X61537496Y-77627284D01*
X61475002Y-77901089D01*
X61474999Y-77901107D01*
X61443557Y-78180170D01*
X61443557Y-78461033D01*
X61474999Y-78740096D01*
X61475002Y-78740114D01*
X61537496Y-79013919D01*
X61537500Y-79013931D01*
X61630257Y-79279013D01*
X61752110Y-79532044D01*
X61752112Y-79532047D01*
X61901534Y-79769850D01*
X62076641Y-79989427D01*
X62275232Y-80188018D01*
X62494809Y-80363125D01*
X62732612Y-80512547D01*
X62985649Y-80634403D01*
X63184737Y-80704067D01*
X63250727Y-80727158D01*
X63250739Y-80727162D01*
X63524548Y-80789657D01*
X63524554Y-80789657D01*
X63524562Y-80789659D01*
X63710604Y-80810620D01*
X63803626Y-80821101D01*
X63803629Y-80821102D01*
X63803632Y-80821102D01*
X64084485Y-80821102D01*
X64084486Y-80821101D01*
X64227112Y-80805031D01*
X64363551Y-80789659D01*
X64363556Y-80789658D01*
X64363566Y-80789657D01*
X64637375Y-80727162D01*
X64902465Y-80634403D01*
X65155502Y-80512547D01*
X65230326Y-80465531D01*
X65297562Y-80446531D01*
X65364397Y-80466898D01*
X65409612Y-80520166D01*
X65418850Y-80589422D01*
X65389178Y-80652679D01*
X65383979Y-80658206D01*
X64942686Y-81099500D01*
X64849502Y-81192683D01*
X64849500Y-81192686D01*
X64783608Y-81306812D01*
X64749500Y-81434108D01*
X64749500Y-91935481D01*
X64729815Y-92002520D01*
X64677011Y-92048275D01*
X64607853Y-92058219D01*
X64544297Y-92029194D01*
X64537819Y-92023162D01*
X64482545Y-91967888D01*
X64482541Y-91967885D01*
X64367817Y-91891228D01*
X64367804Y-91891221D01*
X64240332Y-91838421D01*
X64240322Y-91838418D01*
X64104995Y-91811500D01*
X64104993Y-91811500D01*
X63967007Y-91811500D01*
X63967005Y-91811500D01*
X63831677Y-91838418D01*
X63831667Y-91838421D01*
X63704195Y-91891221D01*
X63704182Y-91891228D01*
X63589458Y-91967885D01*
X63589454Y-91967888D01*
X63582162Y-91975181D01*
X63520839Y-92008666D01*
X63494481Y-92011500D01*
X61053519Y-92011500D01*
X60986480Y-91991815D01*
X60965838Y-91975181D01*
X60946545Y-91955888D01*
X60946541Y-91955885D01*
X60831817Y-91879228D01*
X60831804Y-91879221D01*
X60704332Y-91826421D01*
X60704322Y-91826418D01*
X60568995Y-91799500D01*
X60568993Y-91799500D01*
X60431007Y-91799500D01*
X60431005Y-91799500D01*
X60295677Y-91826418D01*
X60295667Y-91826421D01*
X60168195Y-91879221D01*
X60168182Y-91879228D01*
X60053458Y-91955885D01*
X60053454Y-91955888D01*
X59955888Y-92053454D01*
X59955885Y-92053458D01*
X59879228Y-92168182D01*
X59879221Y-92168195D01*
X59826421Y-92295667D01*
X59826418Y-92295677D01*
X59799500Y-92431004D01*
X59799500Y-92431007D01*
X59799500Y-92568993D01*
X59799500Y-92568995D01*
X59799499Y-92568995D01*
X59826418Y-92704322D01*
X59826421Y-92704332D01*
X59879221Y-92831804D01*
X59879228Y-92831817D01*
X59955885Y-92946541D01*
X59955888Y-92946545D01*
X60053454Y-93044111D01*
X60053458Y-93044114D01*
X60168182Y-93120771D01*
X60168195Y-93120778D01*
X60295667Y-93173578D01*
X60295672Y-93173580D01*
X60295676Y-93173580D01*
X60295677Y-93173581D01*
X60431004Y-93200500D01*
X60431007Y-93200500D01*
X60568995Y-93200500D01*
X60660041Y-93182389D01*
X60704328Y-93173580D01*
X60831811Y-93120775D01*
X60946542Y-93044114D01*
X60950767Y-93040647D01*
X61015077Y-93013334D01*
X61029432Y-93012500D01*
X63494481Y-93012500D01*
X63561520Y-93032185D01*
X63582162Y-93048819D01*
X63589454Y-93056111D01*
X63589458Y-93056114D01*
X63704182Y-93132771D01*
X63704195Y-93132778D01*
X63831667Y-93185578D01*
X63831672Y-93185580D01*
X63831676Y-93185580D01*
X63831677Y-93185581D01*
X63967004Y-93212500D01*
X63967007Y-93212500D01*
X64104995Y-93212500D01*
X64196041Y-93194389D01*
X64240328Y-93185580D01*
X64367811Y-93132775D01*
X64482542Y-93056114D01*
X64506471Y-93032185D01*
X64537819Y-93000838D01*
X64599142Y-92967353D01*
X64668834Y-92972337D01*
X64724767Y-93014209D01*
X64749184Y-93079673D01*
X64749500Y-93088519D01*
X64749500Y-138741323D01*
X64729815Y-138808362D01*
X64713181Y-138829004D01*
X64472298Y-139069886D01*
X64410975Y-139103371D01*
X64360429Y-139103823D01*
X64338692Y-139099500D01*
X64338691Y-139099500D01*
X64161309Y-139099500D01*
X64161306Y-139099500D01*
X63987341Y-139134103D01*
X63987332Y-139134106D01*
X63823459Y-139201983D01*
X63823446Y-139201990D01*
X63675965Y-139300535D01*
X63675961Y-139300538D01*
X63550538Y-139425961D01*
X63550535Y-139425965D01*
X63451990Y-139573446D01*
X63451983Y-139573459D01*
X63384106Y-139737332D01*
X63384103Y-139737341D01*
X63349500Y-139911304D01*
X63349500Y-140088695D01*
X63384103Y-140262658D01*
X63384106Y-140262667D01*
X63451983Y-140426540D01*
X63451990Y-140426553D01*
X63550535Y-140574034D01*
X63550538Y-140574038D01*
X63675961Y-140699461D01*
X63675965Y-140699464D01*
X63823446Y-140798009D01*
X63823459Y-140798016D01*
X63910421Y-140834036D01*
X63987334Y-140865894D01*
X63987336Y-140865894D01*
X63987341Y-140865896D01*
X64161304Y-140900499D01*
X64161307Y-140900500D01*
X64161309Y-140900500D01*
X64338693Y-140900500D01*
X64338694Y-140900499D01*
X64396682Y-140888964D01*
X64512658Y-140865896D01*
X64512661Y-140865894D01*
X64512666Y-140865894D01*
X64676547Y-140798013D01*
X64824035Y-140699464D01*
X64949464Y-140574035D01*
X65048013Y-140426547D01*
X65115894Y-140262666D01*
X65150500Y-140088691D01*
X65150500Y-139911309D01*
X65146176Y-139889572D01*
X65152402Y-139819984D01*
X65180109Y-139777703D01*
X65650500Y-139307314D01*
X65716392Y-139193186D01*
X65750500Y-139065892D01*
X65750500Y-138934107D01*
X65750500Y-136065689D01*
X65770185Y-135998650D01*
X65822989Y-135952895D01*
X65892147Y-135942951D01*
X65898682Y-135944070D01*
X65918103Y-135947933D01*
X65931006Y-135950500D01*
X65931007Y-135950500D01*
X66068995Y-135950500D01*
X66160041Y-135932389D01*
X66204328Y-135923580D01*
X66331811Y-135870775D01*
X66446542Y-135794114D01*
X66544114Y-135696542D01*
X66620775Y-135581811D01*
X66673580Y-135454328D01*
X66700500Y-135318993D01*
X66700500Y-135181007D01*
X66700500Y-135181004D01*
X66673581Y-135045677D01*
X66673580Y-135045676D01*
X66673580Y-135045672D01*
X66671446Y-135040519D01*
X66620778Y-134918195D01*
X66620771Y-134918182D01*
X66544114Y-134803458D01*
X66544111Y-134803454D01*
X66536819Y-134796162D01*
X66503334Y-134734839D01*
X66500500Y-134708481D01*
X66500500Y-82508676D01*
X66520185Y-82441637D01*
X66536819Y-82420995D01*
X67787819Y-81169995D01*
X67849142Y-81136510D01*
X67918834Y-81141494D01*
X67974767Y-81183366D01*
X67999184Y-81248830D01*
X67999500Y-81257676D01*
X67999500Y-143991324D01*
X67979815Y-144058363D01*
X67963181Y-144079005D01*
X65120524Y-146921662D01*
X65059201Y-146955147D01*
X64989509Y-146950163D01*
X64945162Y-146921662D01*
X64824038Y-146800538D01*
X64824034Y-146800535D01*
X64676553Y-146701990D01*
X64676540Y-146701983D01*
X64512667Y-146634106D01*
X64512658Y-146634103D01*
X64338694Y-146599500D01*
X64338691Y-146599500D01*
X64161309Y-146599500D01*
X64161306Y-146599500D01*
X63987341Y-146634103D01*
X63987332Y-146634106D01*
X63823459Y-146701983D01*
X63823446Y-146701990D01*
X63675965Y-146800535D01*
X63675961Y-146800538D01*
X63550538Y-146925961D01*
X63550535Y-146925965D01*
X63451990Y-147073446D01*
X63451983Y-147073459D01*
X63384106Y-147237332D01*
X63384103Y-147237341D01*
X63349500Y-147411304D01*
X63349500Y-147588695D01*
X63384103Y-147762658D01*
X63384106Y-147762667D01*
X63451983Y-147926540D01*
X63451990Y-147926553D01*
X63550535Y-148074034D01*
X63550538Y-148074038D01*
X63675961Y-148199461D01*
X63675965Y-148199464D01*
X63823446Y-148298009D01*
X63823459Y-148298016D01*
X63945758Y-148348673D01*
X63987334Y-148365894D01*
X63987336Y-148365894D01*
X63987341Y-148365896D01*
X64161304Y-148400499D01*
X64161307Y-148400500D01*
X64161309Y-148400500D01*
X64338693Y-148400500D01*
X64338694Y-148400499D01*
X64396682Y-148388964D01*
X64512658Y-148365896D01*
X64512661Y-148365894D01*
X64512666Y-148365894D01*
X64676547Y-148298013D01*
X64824035Y-148199464D01*
X64949464Y-148074035D01*
X64961775Y-148055609D01*
X65015387Y-148010804D01*
X65064878Y-148000500D01*
X65315890Y-148000500D01*
X65315892Y-148000500D01*
X65443186Y-147966392D01*
X65557314Y-147900500D01*
X68537819Y-144919995D01*
X68599142Y-144886510D01*
X68668834Y-144891494D01*
X68724767Y-144933366D01*
X68749184Y-144998830D01*
X68749500Y-145007676D01*
X68749500Y-145991324D01*
X68729815Y-146058363D01*
X68713181Y-146079005D01*
X65120524Y-149671662D01*
X65059201Y-149705147D01*
X64989509Y-149700163D01*
X64945162Y-149671662D01*
X64824038Y-149550538D01*
X64824034Y-149550535D01*
X64676553Y-149451990D01*
X64676540Y-149451983D01*
X64512667Y-149384106D01*
X64512658Y-149384103D01*
X64338694Y-149349500D01*
X64338691Y-149349500D01*
X64161309Y-149349500D01*
X64161306Y-149349500D01*
X63987341Y-149384103D01*
X63987332Y-149384106D01*
X63823459Y-149451983D01*
X63823446Y-149451990D01*
X63675965Y-149550535D01*
X63675961Y-149550538D01*
X63550538Y-149675961D01*
X63550535Y-149675965D01*
X63451990Y-149823446D01*
X63451983Y-149823459D01*
X63384106Y-149987332D01*
X63384103Y-149987341D01*
X63349500Y-150161304D01*
X63349500Y-150338695D01*
X63384103Y-150512658D01*
X63384106Y-150512667D01*
X63451983Y-150676540D01*
X63451990Y-150676553D01*
X63550535Y-150824034D01*
X63550538Y-150824038D01*
X63675961Y-150949461D01*
X63675965Y-150949464D01*
X63823446Y-151048009D01*
X63823459Y-151048016D01*
X63908106Y-151083077D01*
X63987334Y-151115894D01*
X63987336Y-151115894D01*
X63987341Y-151115896D01*
X64161304Y-151150499D01*
X64161307Y-151150500D01*
X64161309Y-151150500D01*
X64338693Y-151150500D01*
X64338694Y-151150499D01*
X64396682Y-151138964D01*
X64512658Y-151115896D01*
X64512661Y-151115894D01*
X64512666Y-151115894D01*
X64676547Y-151048013D01*
X64824035Y-150949464D01*
X64949464Y-150824035D01*
X64961775Y-150805609D01*
X65015387Y-150760804D01*
X65064878Y-150750500D01*
X65315890Y-150750500D01*
X65315892Y-150750500D01*
X65443186Y-150716392D01*
X65557314Y-150650500D01*
X69287819Y-146919993D01*
X69349142Y-146886509D01*
X69418834Y-146891493D01*
X69474767Y-146933365D01*
X69499184Y-146998829D01*
X69499500Y-147007675D01*
X69499500Y-147741324D01*
X69479815Y-147808363D01*
X69463181Y-147829005D01*
X65120524Y-152171662D01*
X65059201Y-152205147D01*
X64989509Y-152200163D01*
X64945162Y-152171662D01*
X64824038Y-152050538D01*
X64824034Y-152050535D01*
X64676553Y-151951990D01*
X64676540Y-151951983D01*
X64512667Y-151884106D01*
X64512658Y-151884103D01*
X64338694Y-151849500D01*
X64338691Y-151849500D01*
X64161309Y-151849500D01*
X64161306Y-151849500D01*
X63987341Y-151884103D01*
X63987332Y-151884106D01*
X63823459Y-151951983D01*
X63823446Y-151951990D01*
X63675965Y-152050535D01*
X63675961Y-152050538D01*
X63550538Y-152175961D01*
X63550535Y-152175965D01*
X63451990Y-152323446D01*
X63451983Y-152323459D01*
X63384106Y-152487332D01*
X63384103Y-152487341D01*
X63349500Y-152661304D01*
X63349500Y-152838695D01*
X63384103Y-153012658D01*
X63384106Y-153012667D01*
X63451983Y-153176540D01*
X63451990Y-153176553D01*
X63550535Y-153324034D01*
X63550538Y-153324038D01*
X63675961Y-153449461D01*
X63675965Y-153449464D01*
X63823446Y-153548009D01*
X63823459Y-153548016D01*
X63924909Y-153590037D01*
X63987334Y-153615894D01*
X63987336Y-153615894D01*
X63987341Y-153615896D01*
X64161304Y-153650499D01*
X64161307Y-153650500D01*
X64161309Y-153650500D01*
X64338693Y-153650500D01*
X64338694Y-153650499D01*
X64396682Y-153638964D01*
X64512658Y-153615896D01*
X64512661Y-153615894D01*
X64512666Y-153615894D01*
X64676547Y-153548013D01*
X64824035Y-153449464D01*
X64949464Y-153324035D01*
X64961775Y-153305609D01*
X65015387Y-153260804D01*
X65064878Y-153250500D01*
X65315890Y-153250500D01*
X65315892Y-153250500D01*
X65443186Y-153216392D01*
X65557314Y-153150500D01*
X70400499Y-148307315D01*
X70400500Y-148307311D01*
X70400503Y-148307309D01*
X70429210Y-148257588D01*
X70462767Y-148199464D01*
X70466392Y-148193186D01*
X70500500Y-148065892D01*
X70500500Y-68184108D01*
X70466392Y-68056814D01*
X70400500Y-67942686D01*
X70307314Y-67849500D01*
X67536819Y-65079005D01*
X67503334Y-65017682D01*
X67500500Y-64991324D01*
X67500500Y-62508676D01*
X67520185Y-62441637D01*
X67536819Y-62420995D01*
X69090874Y-60866940D01*
X70650500Y-59307314D01*
X70716392Y-59193186D01*
X70750500Y-59065893D01*
X70750500Y-58934108D01*
X70750500Y-41791518D01*
X70770185Y-41724479D01*
X70786823Y-41703833D01*
X70794114Y-41696542D01*
X70870775Y-41581811D01*
X70923580Y-41454328D01*
X70950500Y-41318993D01*
X70950500Y-41181007D01*
X70950500Y-41181004D01*
X70923581Y-41045677D01*
X70923580Y-41045676D01*
X70923580Y-41045672D01*
X70923578Y-41045667D01*
X70870778Y-40918195D01*
X70870771Y-40918182D01*
X70794114Y-40803458D01*
X70794111Y-40803454D01*
X70696545Y-40705888D01*
X70696541Y-40705885D01*
X70581817Y-40629228D01*
X70581804Y-40629221D01*
X70454332Y-40576421D01*
X70454322Y-40576418D01*
X70318995Y-40549500D01*
X70318993Y-40549500D01*
X70181007Y-40549500D01*
X70181005Y-40549500D01*
X70045677Y-40576418D01*
X70045667Y-40576421D01*
X69918195Y-40629221D01*
X69918182Y-40629228D01*
X69803458Y-40705885D01*
X69803454Y-40705888D01*
X69705888Y-40803454D01*
X69705885Y-40803458D01*
X69629228Y-40918182D01*
X69629221Y-40918195D01*
X69576421Y-41045667D01*
X69576418Y-41045677D01*
X69549500Y-41181004D01*
X69549500Y-41181007D01*
X69549500Y-41318993D01*
X69549500Y-41318995D01*
X69549499Y-41318995D01*
X69576418Y-41454322D01*
X69576421Y-41454332D01*
X69629221Y-41581804D01*
X69629228Y-41581817D01*
X69705885Y-41696541D01*
X69713177Y-41703833D01*
X69746665Y-41765155D01*
X69749500Y-41791518D01*
X69749500Y-58741324D01*
X69740855Y-58770764D01*
X69734332Y-58800751D01*
X69730577Y-58805766D01*
X69729815Y-58808363D01*
X69713181Y-58829005D01*
X69712181Y-58830005D01*
X69650858Y-58863490D01*
X69581166Y-58858506D01*
X69525233Y-58816634D01*
X69500816Y-58751170D01*
X69500500Y-58742324D01*
X69500500Y-53684110D01*
X69500500Y-53684108D01*
X69466392Y-53556814D01*
X69400500Y-53442686D01*
X69307314Y-53349500D01*
X67536819Y-51579005D01*
X67503334Y-51517682D01*
X67500500Y-51491324D01*
X67500500Y-45309110D01*
X67500500Y-45309108D01*
X67466392Y-45181814D01*
X67400500Y-45067686D01*
X67307314Y-44974500D01*
X56693243Y-34360429D01*
X56659758Y-34299106D01*
X56664742Y-34229414D01*
X56706614Y-34173481D01*
X56772078Y-34149064D01*
X56840351Y-34163916D01*
X56845075Y-34166632D01*
X56860601Y-34176018D01*
X56860603Y-34176019D01*
X57022894Y-34226590D01*
X57022893Y-34226590D01*
X57093408Y-34232998D01*
X57093426Y-34232999D01*
X57099999Y-34232998D01*
X57100000Y-34232998D01*
X57100000Y-33508000D01*
X56450001Y-33508000D01*
X56450001Y-33589582D01*
X56456408Y-33660102D01*
X56456409Y-33660107D01*
X56506981Y-33822396D01*
X56594927Y-33967877D01*
X56602478Y-33975428D01*
X56635963Y-34036751D01*
X56630979Y-34106443D01*
X56589107Y-34162376D01*
X56523643Y-34186793D01*
X56466661Y-34174397D01*
X56465700Y-34176720D01*
X56458188Y-34173609D01*
X56458187Y-34173608D01*
X56458186Y-34173608D01*
X56330892Y-34139500D01*
X56330891Y-34139500D01*
X54942254Y-34139500D01*
X54875215Y-34119815D01*
X54854577Y-34103185D01*
X54788342Y-34036950D01*
X54730702Y-34007580D01*
X54675301Y-33979352D01*
X54581524Y-33964500D01*
X54013875Y-33964500D01*
X53946836Y-33944815D01*
X53901081Y-33892011D01*
X53891137Y-33822853D01*
X53910774Y-33771608D01*
X53970770Y-33681819D01*
X53970771Y-33681816D01*
X53970775Y-33681811D01*
X54023580Y-33554328D01*
X54050500Y-33418993D01*
X54050500Y-33281007D01*
X54050500Y-33281004D01*
X54023581Y-33145677D01*
X54023580Y-33145676D01*
X54023580Y-33145672D01*
X54023578Y-33145667D01*
X53970778Y-33018195D01*
X53970768Y-33018177D01*
X53953616Y-32992507D01*
X53953615Y-32992506D01*
X53909462Y-32926427D01*
X56450000Y-32926427D01*
X56450000Y-33008000D01*
X57100000Y-33008000D01*
X57100000Y-32283000D01*
X57600000Y-32283000D01*
X57600000Y-34232999D01*
X57606581Y-34232999D01*
X57677102Y-34226591D01*
X57677107Y-34226590D01*
X57839396Y-34176018D01*
X57984877Y-34088072D01*
X58105070Y-33967879D01*
X58130856Y-33925224D01*
X58182383Y-33878036D01*
X58251243Y-33866197D01*
X58315572Y-33893465D01*
X58335349Y-33913886D01*
X58371715Y-33961279D01*
X58371716Y-33961280D01*
X58371718Y-33961282D01*
X58497159Y-34057536D01*
X58643238Y-34118044D01*
X58760639Y-34133500D01*
X59239360Y-34133499D01*
X59239363Y-34133499D01*
X59356753Y-34118046D01*
X59356757Y-34118044D01*
X59356762Y-34118044D01*
X59502841Y-34057536D01*
X59628282Y-33961282D01*
X59724536Y-33835841D01*
X59724864Y-33835050D01*
X59725318Y-33834486D01*
X59728602Y-33828799D01*
X59729488Y-33829310D01*
X59768704Y-33780645D01*
X59834997Y-33758579D01*
X59839426Y-33758500D01*
X60216900Y-33758500D01*
X60283939Y-33778185D01*
X60327385Y-33826205D01*
X60344627Y-33860043D01*
X60380963Y-33931358D01*
X60385170Y-33939613D01*
X60505483Y-34105213D01*
X60650241Y-34249971D01*
X60805204Y-34362556D01*
X60815845Y-34370287D01*
X60932062Y-34429503D01*
X60998231Y-34463218D01*
X60998233Y-34463218D01*
X60998236Y-34463220D01*
X61068500Y-34486050D01*
X61192920Y-34526477D01*
X61294012Y-34542488D01*
X61395103Y-34558500D01*
X61395104Y-34558500D01*
X61599806Y-34558500D01*
X61599807Y-34558500D01*
X61801989Y-34526477D01*
X61996674Y-34463220D01*
X62179065Y-34370287D01*
X62314534Y-34271864D01*
X62344668Y-34249971D01*
X62344670Y-34249968D01*
X62344674Y-34249966D01*
X62489421Y-34105219D01*
X62512635Y-34073266D01*
X62567963Y-34030599D01*
X62637576Y-34024618D01*
X62699373Y-34057222D01*
X62733732Y-34118060D01*
X62736955Y-34146146D01*
X62736955Y-34189516D01*
X62744903Y-34239696D01*
X62751809Y-34283304D01*
X62809405Y-34396342D01*
X62809407Y-34396344D01*
X62809409Y-34396347D01*
X62899107Y-34486045D01*
X62899109Y-34486046D01*
X62899113Y-34486050D01*
X63012149Y-34543645D01*
X63012153Y-34543647D01*
X63105930Y-34558499D01*
X63105936Y-34558500D01*
X64968973Y-34558499D01*
X65062759Y-34543646D01*
X65175797Y-34486050D01*
X65265505Y-34396342D01*
X65323101Y-34283304D01*
X65323101Y-34283302D01*
X65323102Y-34283301D01*
X65337954Y-34189524D01*
X65337955Y-34189519D01*
X65337954Y-32326482D01*
X65323101Y-32232696D01*
X65265505Y-32119658D01*
X65265501Y-32119654D01*
X65265500Y-32119652D01*
X65175802Y-32029954D01*
X65175799Y-32029952D01*
X65175797Y-32029950D01*
X65096453Y-31989522D01*
X65062756Y-31972352D01*
X64968979Y-31957500D01*
X63105937Y-31957500D01*
X63024974Y-31970323D01*
X63012151Y-31972354D01*
X62899113Y-32029950D01*
X62899112Y-32029951D01*
X62899107Y-32029954D01*
X62809409Y-32119652D01*
X62809406Y-32119657D01*
X62809405Y-32119658D01*
X62799064Y-32139953D01*
X62751807Y-32232698D01*
X62736955Y-32326475D01*
X62736955Y-32369849D01*
X62717270Y-32436888D01*
X62664466Y-32482643D01*
X62595308Y-32492587D01*
X62531752Y-32463562D01*
X62512637Y-32442734D01*
X62489426Y-32410786D01*
X62344668Y-32266028D01*
X62179068Y-32145715D01*
X62179067Y-32145714D01*
X62179065Y-32145713D01*
X62106307Y-32108641D01*
X61996678Y-32052781D01*
X61801989Y-31989522D01*
X61627450Y-31961878D01*
X61599807Y-31957500D01*
X61395103Y-31957500D01*
X61370784Y-31961351D01*
X61192920Y-31989522D01*
X60998231Y-32052781D01*
X60815841Y-32145715D01*
X60650241Y-32266028D01*
X60505483Y-32410786D01*
X60385170Y-32576386D01*
X60327385Y-32689795D01*
X60279410Y-32740591D01*
X60216900Y-32757500D01*
X59839426Y-32757500D01*
X59772387Y-32737815D01*
X59726632Y-32685011D01*
X59724864Y-32680950D01*
X59724537Y-32680161D01*
X59724535Y-32680158D01*
X59701010Y-32649500D01*
X59661414Y-32597897D01*
X59628283Y-32554719D01*
X59556217Y-32499421D01*
X59502841Y-32458464D01*
X59464865Y-32442734D01*
X59356762Y-32397956D01*
X59356760Y-32397955D01*
X59239361Y-32382500D01*
X58760636Y-32382500D01*
X58643246Y-32397953D01*
X58643237Y-32397956D01*
X58497160Y-32458463D01*
X58497159Y-32458464D01*
X58371718Y-32554718D01*
X58371716Y-32554719D01*
X58371715Y-32554721D01*
X58335348Y-32602114D01*
X58278920Y-32643316D01*
X58209174Y-32647469D01*
X58148254Y-32613256D01*
X58130857Y-32590776D01*
X58105072Y-32548122D01*
X57984877Y-32427927D01*
X57839395Y-32339980D01*
X57839396Y-32339980D01*
X57677105Y-32289409D01*
X57677106Y-32289409D01*
X57606572Y-32283000D01*
X57600000Y-32283000D01*
X57100000Y-32283000D01*
X57099999Y-32282999D01*
X57093436Y-32283000D01*
X57093417Y-32283001D01*
X57022897Y-32289408D01*
X57022892Y-32289409D01*
X56860603Y-32339981D01*
X56715122Y-32427927D01*
X56594927Y-32548122D01*
X56506980Y-32693604D01*
X56456409Y-32855893D01*
X56450000Y-32926427D01*
X53909462Y-32926427D01*
X53894114Y-32903458D01*
X53894111Y-32903454D01*
X53796545Y-32805888D01*
X53796541Y-32805885D01*
X53681817Y-32729228D01*
X53681804Y-32729221D01*
X53554332Y-32676421D01*
X53554322Y-32676418D01*
X53418995Y-32649500D01*
X53418993Y-32649500D01*
X53281007Y-32649500D01*
X53281005Y-32649500D01*
X53145677Y-32676418D01*
X53145667Y-32676421D01*
X53018195Y-32729221D01*
X53018182Y-32729228D01*
X52903458Y-32805885D01*
X52903454Y-32805888D01*
X52805888Y-32903454D01*
X52805885Y-32903458D01*
X52729228Y-33018182D01*
X52729221Y-33018195D01*
X52676421Y-33145667D01*
X52676418Y-33145677D01*
X52649500Y-33281004D01*
X52649500Y-33281007D01*
X52649500Y-33418993D01*
X52649500Y-33418995D01*
X52649499Y-33418995D01*
X52676418Y-33554322D01*
X52676421Y-33554332D01*
X52729221Y-33681804D01*
X52729232Y-33681824D01*
X52734358Y-33689496D01*
X52755234Y-33756174D01*
X52736747Y-33823553D01*
X52718936Y-33846063D01*
X52700000Y-33864999D01*
X52700000Y-34139966D01*
X52686485Y-34196260D01*
X52664353Y-34239695D01*
X52664352Y-34239698D01*
X52649500Y-34333475D01*
X52649500Y-34502000D01*
X52629815Y-34569039D01*
X52577011Y-34614794D01*
X52525500Y-34626000D01*
X52450000Y-34626000D01*
X52450000Y-34662500D01*
X52430315Y-34729539D01*
X52377511Y-34775294D01*
X52326001Y-34786500D01*
X52118482Y-34786500D01*
X52037519Y-34799323D01*
X52024696Y-34801354D01*
X51911658Y-34858950D01*
X51911657Y-34858950D01*
X51904721Y-34862485D01*
X51848426Y-34876000D01*
X51650000Y-34876000D01*
X51633995Y-34892004D01*
X51630315Y-34904539D01*
X51577511Y-34950294D01*
X51526000Y-34961500D01*
X50472107Y-34961500D01*
X50397063Y-34981607D01*
X50397063Y-34981608D01*
X50344814Y-34995608D01*
X50344813Y-34995608D01*
X50344811Y-34995609D01*
X50230686Y-35061500D01*
X50230683Y-35061502D01*
X50137498Y-35154688D01*
X49425245Y-35866940D01*
X49425244Y-35866940D01*
X49425245Y-35866941D01*
X49349500Y-35942686D01*
X49283608Y-36056812D01*
X49262393Y-36135990D01*
X49249500Y-36184108D01*
X49249500Y-37684108D01*
X49249500Y-37815892D01*
X49260743Y-37857853D01*
X49283608Y-37943187D01*
X49286919Y-37948921D01*
X49349500Y-38057314D01*
X49349502Y-38057316D01*
X50080005Y-38787819D01*
X50113490Y-38849142D01*
X50108506Y-38918834D01*
X50066634Y-38974767D01*
X50001170Y-38999184D01*
X49992324Y-38999500D01*
X46258676Y-38999500D01*
X46191637Y-38979815D01*
X46170995Y-38963181D01*
X41725119Y-34517305D01*
X41691634Y-34455982D01*
X41696618Y-34386290D01*
X41738490Y-34330357D01*
X41778203Y-34310548D01*
X41911357Y-34271864D01*
X42052476Y-34188406D01*
X42168406Y-34072476D01*
X42251864Y-33931357D01*
X42279159Y-33837403D01*
X42316764Y-33778520D01*
X42380236Y-33749313D01*
X42449423Y-33759059D01*
X42498553Y-33799115D01*
X42548028Y-33867213D01*
X42692786Y-34011971D01*
X42822818Y-34106443D01*
X42858390Y-34132287D01*
X42970708Y-34189516D01*
X43040776Y-34225218D01*
X43040778Y-34225218D01*
X43040781Y-34225220D01*
X43145137Y-34259127D01*
X43235465Y-34288477D01*
X43336557Y-34304488D01*
X43437648Y-34320500D01*
X43437649Y-34320500D01*
X43642351Y-34320500D01*
X43642352Y-34320500D01*
X43844534Y-34288477D01*
X44039219Y-34225220D01*
X44221610Y-34132287D01*
X44352830Y-34036951D01*
X44387213Y-34011971D01*
X44387215Y-34011968D01*
X44387219Y-34011966D01*
X44531966Y-33867219D01*
X44531968Y-33867215D01*
X44531971Y-33867213D01*
X44652284Y-33701614D01*
X44652283Y-33701614D01*
X44652287Y-33701610D01*
X44699516Y-33608917D01*
X44747489Y-33558123D01*
X44815310Y-33541328D01*
X44881445Y-33563865D01*
X44920485Y-33608919D01*
X44967715Y-33701614D01*
X45088028Y-33867213D01*
X45232786Y-34011971D01*
X45362818Y-34106443D01*
X45398390Y-34132287D01*
X45510708Y-34189516D01*
X45580776Y-34225218D01*
X45580778Y-34225218D01*
X45580781Y-34225220D01*
X45685137Y-34259127D01*
X45775465Y-34288477D01*
X45876557Y-34304488D01*
X45977648Y-34320500D01*
X45977649Y-34320500D01*
X46182351Y-34320500D01*
X46182352Y-34320500D01*
X46203471Y-34317155D01*
X51650000Y-34317155D01*
X51650000Y-34376000D01*
X52200000Y-34376000D01*
X52200000Y-33865000D01*
X52102155Y-33865000D01*
X52042627Y-33871401D01*
X52042620Y-33871403D01*
X51907913Y-33921645D01*
X51907906Y-33921649D01*
X51792812Y-34007809D01*
X51792809Y-34007812D01*
X51706649Y-34122906D01*
X51706645Y-34122913D01*
X51656403Y-34257620D01*
X51656401Y-34257627D01*
X51650000Y-34317155D01*
X46203471Y-34317155D01*
X46384534Y-34288477D01*
X46579219Y-34225220D01*
X46761610Y-34132287D01*
X46892830Y-34036951D01*
X46927213Y-34011971D01*
X46927215Y-34011968D01*
X46927219Y-34011966D01*
X47071966Y-33867219D01*
X47071968Y-33867215D01*
X47071971Y-33867213D01*
X47192284Y-33701614D01*
X47192283Y-33701614D01*
X47192287Y-33701610D01*
X47260260Y-33568204D01*
X47270709Y-33557140D01*
X47277032Y-33543297D01*
X47294211Y-33532256D01*
X47308234Y-33517409D01*
X47323915Y-33513167D01*
X47335810Y-33505523D01*
X47370745Y-33500500D01*
X47585574Y-33500500D01*
X47652613Y-33520185D01*
X47698368Y-33572989D01*
X47700136Y-33577050D01*
X47700462Y-33577838D01*
X47700464Y-33577841D01*
X47786343Y-33689762D01*
X47796718Y-33703282D01*
X47922159Y-33799536D01*
X48068238Y-33860044D01*
X48185639Y-33875500D01*
X48664360Y-33875499D01*
X48664363Y-33875499D01*
X48781753Y-33860046D01*
X48781757Y-33860044D01*
X48781762Y-33860044D01*
X48927841Y-33799536D01*
X49053282Y-33703282D01*
X49089649Y-33655886D01*
X49146077Y-33614684D01*
X49215823Y-33610529D01*
X49276743Y-33644741D01*
X49294142Y-33667223D01*
X49319927Y-33709877D01*
X49440122Y-33830072D01*
X49585604Y-33918019D01*
X49585603Y-33918019D01*
X49747894Y-33968590D01*
X49747893Y-33968590D01*
X49818408Y-33974998D01*
X49818426Y-33974999D01*
X50325000Y-33974999D01*
X50331581Y-33974999D01*
X50402102Y-33968591D01*
X50402107Y-33968590D01*
X50564396Y-33918018D01*
X50709877Y-33830072D01*
X50830072Y-33709877D01*
X50918019Y-33564395D01*
X50968590Y-33402106D01*
X50975000Y-33331572D01*
X50975000Y-33250000D01*
X50325000Y-33250000D01*
X50325000Y-33974999D01*
X49818426Y-33974999D01*
X49824999Y-33974998D01*
X49825000Y-33974998D01*
X49825000Y-32750000D01*
X50325000Y-32750000D01*
X50974999Y-32750000D01*
X50974999Y-32668417D01*
X50968591Y-32597897D01*
X50968590Y-32597892D01*
X50918018Y-32435603D01*
X50830072Y-32290122D01*
X50709877Y-32169927D01*
X50564395Y-32081980D01*
X50564396Y-32081980D01*
X50402105Y-32031409D01*
X50402106Y-32031409D01*
X50331572Y-32025000D01*
X50325000Y-32025000D01*
X50325000Y-32750000D01*
X49825000Y-32750000D01*
X49825000Y-32025000D01*
X49824999Y-32024999D01*
X49818436Y-32025000D01*
X49818417Y-32025001D01*
X49747897Y-32031408D01*
X49747892Y-32031409D01*
X49585603Y-32081981D01*
X49440122Y-32169927D01*
X49319928Y-32290121D01*
X49319925Y-32290125D01*
X49294141Y-32332777D01*
X49242613Y-32379964D01*
X49173753Y-32391802D01*
X49109425Y-32364532D01*
X49089650Y-32344113D01*
X49069872Y-32318338D01*
X49053282Y-32296718D01*
X48927841Y-32200464D01*
X48861008Y-32172781D01*
X48781762Y-32139956D01*
X48781760Y-32139955D01*
X48664361Y-32124500D01*
X48185636Y-32124500D01*
X48068246Y-32139953D01*
X48068237Y-32139956D01*
X47922160Y-32200463D01*
X47796716Y-32296719D01*
X47700464Y-32422158D01*
X47700462Y-32422161D01*
X47700136Y-32422950D01*
X47699681Y-32423513D01*
X47696398Y-32429201D01*
X47695511Y-32428689D01*
X47687592Y-32438516D01*
X47679287Y-32456703D01*
X47666117Y-32465166D01*
X47656296Y-32477355D01*
X47637326Y-32483669D01*
X47620509Y-32494477D01*
X47592953Y-32498439D01*
X47590003Y-32499421D01*
X47585574Y-32499500D01*
X47350364Y-32499500D01*
X47283325Y-32479815D01*
X47239879Y-32431795D01*
X47239515Y-32431080D01*
X47192287Y-32338390D01*
X47192285Y-32338387D01*
X47192284Y-32338385D01*
X47071971Y-32172786D01*
X46927213Y-32028028D01*
X46761613Y-31907715D01*
X46761612Y-31907714D01*
X46761610Y-31907713D01*
X46704653Y-31878691D01*
X46579223Y-31814781D01*
X46384534Y-31751522D01*
X46200630Y-31722395D01*
X46182352Y-31719500D01*
X45977648Y-31719500D01*
X45959370Y-31722395D01*
X45775465Y-31751522D01*
X45580776Y-31814781D01*
X45398386Y-31907715D01*
X45232786Y-32028028D01*
X45088028Y-32172786D01*
X44967715Y-32338386D01*
X44920485Y-32431080D01*
X44872510Y-32481876D01*
X44804689Y-32498671D01*
X44738554Y-32476134D01*
X44699515Y-32431080D01*
X44695659Y-32423513D01*
X44652287Y-32338390D01*
X44622012Y-32296720D01*
X44531971Y-32172786D01*
X44387213Y-32028028D01*
X44221613Y-31907715D01*
X44221612Y-31907714D01*
X44221610Y-31907713D01*
X44164653Y-31878691D01*
X44039223Y-31814781D01*
X43844534Y-31751522D01*
X43660630Y-31722395D01*
X43642352Y-31719500D01*
X43437648Y-31719500D01*
X43419370Y-31722395D01*
X43235465Y-31751522D01*
X43040776Y-31814781D01*
X42858386Y-31907715D01*
X42692786Y-32028028D01*
X42548032Y-32172782D01*
X42498553Y-32240885D01*
X42443223Y-32283550D01*
X42373610Y-32289529D01*
X42311815Y-32256923D01*
X42279159Y-32202595D01*
X42251864Y-32108643D01*
X42181416Y-31989522D01*
X42168408Y-31967527D01*
X42168401Y-31967518D01*
X42052481Y-31851598D01*
X42052472Y-31851591D01*
X41966640Y-31800830D01*
X41911357Y-31768136D01*
X41753917Y-31722396D01*
X41753916Y-31722395D01*
X41753913Y-31722395D01*
X41717127Y-31719500D01*
X41717122Y-31719500D01*
X40282878Y-31719500D01*
X40282872Y-31719500D01*
X40246087Y-31722395D01*
X40246085Y-31722395D01*
X40167363Y-31745266D01*
X40088643Y-31768136D01*
X40088641Y-31768136D01*
X40088641Y-31768137D01*
X39947527Y-31851591D01*
X39947518Y-31851598D01*
X39831598Y-31967518D01*
X39831591Y-31967527D01*
X39763904Y-32081981D01*
X39748136Y-32108643D01*
X39737366Y-32145715D01*
X39702395Y-32266085D01*
X39702395Y-32266087D01*
X39699500Y-32302872D01*
X35337955Y-32302872D01*
X35337955Y-31217764D01*
X35338181Y-31210275D01*
X35348365Y-31041962D01*
X35355732Y-30920204D01*
X35357538Y-30905346D01*
X35395227Y-30699709D01*
X35409244Y-30623221D01*
X35412827Y-30608687D01*
X35498167Y-30334834D01*
X35503472Y-30320847D01*
X35621200Y-30059273D01*
X35628152Y-30046028D01*
X35776553Y-29800546D01*
X35785042Y-29788249D01*
X35961955Y-29562436D01*
X35971870Y-29551245D01*
X36174700Y-29348415D01*
X36185891Y-29338500D01*
X36411704Y-29161587D01*
X36424001Y-29153098D01*
X36669483Y-29004697D01*
X36682728Y-28997745D01*
X36944302Y-28880017D01*
X36958289Y-28874712D01*
X37232146Y-28789370D01*
X37246676Y-28785789D01*
X37528808Y-28734082D01*
X37543659Y-28732277D01*
X37833731Y-28714726D01*
X37841220Y-28714500D01*
X40212955Y-28714500D01*
X40279994Y-28734185D01*
G37*
%TD.AperFunction*%
%TD*%
M02*
