%TF.GenerationSoftware,KiCad,Pcbnew,10.0.3*%
%TF.CreationDate,2026-07-22T05:40:28-07:00*%
%TF.ProjectId,c6remote,63367265-6d6f-4746-952e-6b696361645f,rev?*%
%TF.SameCoordinates,Original*%
%TF.FileFunction,Legend,Top*%
%TF.FilePolarity,Positive*%
%FSLAX46Y46*%
G04 Gerber Fmt 4.6, Leading zero omitted, Abs format (unit mm)*
G04 Created by KiCad (PCBNEW 10.0.3) date 2026-07-22 05:40:28*
%MOMM*%
%LPD*%
G01*
G04 APERTURE LIST*
%ADD10C,0.000000*%
%ADD11C,0.200000*%
%ADD12C,0.187500*%
%ADD13C,0.080000*%
%ADD14C,0.120000*%
%ADD15C,0.300000*%
%ADD16C,0.150000*%
%ADD17C,0.100000*%
%ADD18C,0.127000*%
%ADD19C,0.504000*%
G04 APERTURE END LIST*
D10*
G36*
X53894852Y-44060204D02*
G01*
X53904885Y-44060592D01*
X53914889Y-44061234D01*
X53924858Y-44062129D01*
X53934790Y-44063273D01*
X53944679Y-44064665D01*
X53954523Y-44066300D01*
X53964316Y-44068177D01*
X53974055Y-44070293D01*
X53983736Y-44072645D01*
X53993354Y-44075230D01*
X54002906Y-44078045D01*
X54012387Y-44081089D01*
X54021794Y-44084358D01*
X54031122Y-44087849D01*
X54040367Y-44091560D01*
X54049515Y-44095488D01*
X54058550Y-44099631D01*
X54067468Y-44103984D01*
X54076266Y-44108547D01*
X54084939Y-44113316D01*
X54093483Y-44118289D01*
X54101894Y-44123462D01*
X54110168Y-44128834D01*
X54118301Y-44134400D01*
X54126289Y-44140159D01*
X54134127Y-44146109D01*
X54141813Y-44152245D01*
X54149341Y-44158566D01*
X54156707Y-44165069D01*
X54163908Y-44171750D01*
X54170940Y-44178608D01*
X54177961Y-44185803D01*
X54184785Y-44193146D01*
X54191411Y-44200637D01*
X54197838Y-44208271D01*
X54204064Y-44216046D01*
X54210088Y-44223959D01*
X54215909Y-44232008D01*
X54221525Y-44240190D01*
X54226934Y-44248502D01*
X54232136Y-44256942D01*
X54237129Y-44265507D01*
X54241912Y-44274193D01*
X54246483Y-44282999D01*
X54250841Y-44291922D01*
X54254985Y-44300958D01*
X54258913Y-44310106D01*
X54262614Y-44319351D01*
X54266076Y-44328679D01*
X54269299Y-44338086D01*
X54272283Y-44347567D01*
X54275029Y-44357119D01*
X54277535Y-44366738D01*
X54279803Y-44376418D01*
X54281833Y-44386157D01*
X54283623Y-44395951D01*
X54285175Y-44405794D01*
X54286488Y-44415684D01*
X54287563Y-44425615D01*
X54288398Y-44435585D01*
X54288995Y-44445589D01*
X54289353Y-44455622D01*
X54289473Y-44465681D01*
X54289353Y-44475577D01*
X54288995Y-44485468D01*
X54288398Y-44495348D01*
X54287563Y-44505212D01*
X54286488Y-44515054D01*
X54285175Y-44524868D01*
X54283624Y-44534651D01*
X54281833Y-44544395D01*
X54279804Y-44554096D01*
X54277536Y-44563748D01*
X54275029Y-44573345D01*
X54272283Y-44582883D01*
X54269299Y-44592356D01*
X54266076Y-44601759D01*
X54262614Y-44611085D01*
X54258913Y-44620330D01*
X54254985Y-44629478D01*
X54250841Y-44638515D01*
X54246483Y-44647437D01*
X54241912Y-44656243D01*
X54237129Y-44664930D01*
X54232136Y-44673494D01*
X54226934Y-44681934D01*
X54221524Y-44690246D01*
X54215909Y-44698428D01*
X54210088Y-44706478D01*
X54204064Y-44714391D01*
X54197838Y-44722166D01*
X54191411Y-44729800D01*
X54184785Y-44737290D01*
X54177961Y-44744634D01*
X54170940Y-44751828D01*
X54163908Y-44758686D01*
X54156707Y-44765368D01*
X54149341Y-44771871D01*
X54141813Y-44778192D01*
X54134127Y-44784328D01*
X54126289Y-44790277D01*
X54118301Y-44796036D01*
X54110168Y-44801603D01*
X54101894Y-44806974D01*
X54093483Y-44812148D01*
X54084939Y-44817120D01*
X54076266Y-44821889D01*
X54067468Y-44826452D01*
X54058550Y-44830806D01*
X54049515Y-44834949D01*
X54040367Y-44838877D01*
X54031122Y-44842587D01*
X54021794Y-44846079D01*
X54012387Y-44849347D01*
X54002906Y-44852391D01*
X53993354Y-44855207D01*
X53983736Y-44857792D01*
X53974055Y-44860143D01*
X53964316Y-44862259D01*
X53954523Y-44864136D01*
X53944680Y-44865771D01*
X53934790Y-44867163D01*
X53924858Y-44868307D01*
X53914889Y-44869202D01*
X53904885Y-44869845D01*
X53894852Y-44870232D01*
X53884793Y-44870362D01*
X53874896Y-44870232D01*
X53865006Y-44869845D01*
X53855126Y-44869202D01*
X53845262Y-44868307D01*
X53835420Y-44867163D01*
X53825606Y-44865771D01*
X53815823Y-44864136D01*
X53806079Y-44862259D01*
X53796378Y-44860143D01*
X53786726Y-44857792D01*
X53777128Y-44855207D01*
X53767590Y-44852391D01*
X53758117Y-44849347D01*
X53748715Y-44846079D01*
X53739388Y-44842587D01*
X53730143Y-44838877D01*
X53720996Y-44834949D01*
X53711959Y-44830806D01*
X53703036Y-44826452D01*
X53694230Y-44821889D01*
X53685544Y-44817120D01*
X53676979Y-44812148D01*
X53668540Y-44806974D01*
X53660227Y-44801603D01*
X53652045Y-44796036D01*
X53643996Y-44790277D01*
X53636083Y-44784328D01*
X53628308Y-44778192D01*
X53620674Y-44771871D01*
X53613184Y-44765368D01*
X53605840Y-44758686D01*
X53598646Y-44751828D01*
X53591777Y-44744634D01*
X53585066Y-44737290D01*
X53578518Y-44729800D01*
X53572138Y-44722166D01*
X53565931Y-44714391D01*
X53559904Y-44706477D01*
X53554061Y-44698428D01*
X53548408Y-44690246D01*
X53542950Y-44681934D01*
X53537693Y-44673494D01*
X53532642Y-44664930D01*
X53527803Y-44656243D01*
X53523181Y-44647437D01*
X53518782Y-44638515D01*
X53514610Y-44629478D01*
X53510672Y-44620330D01*
X53506971Y-44611085D01*
X53503509Y-44601759D01*
X53500286Y-44592356D01*
X53497302Y-44582883D01*
X53494556Y-44573345D01*
X53492050Y-44563748D01*
X53489781Y-44554096D01*
X53487752Y-44544395D01*
X53485962Y-44534651D01*
X53484410Y-44524868D01*
X53483097Y-44515054D01*
X53482022Y-44505212D01*
X53481187Y-44495348D01*
X53480590Y-44485468D01*
X53480232Y-44475577D01*
X53480112Y-44465681D01*
X53480232Y-44455622D01*
X53480590Y-44445589D01*
X53481187Y-44435585D01*
X53482022Y-44425615D01*
X53483097Y-44415684D01*
X53484410Y-44405794D01*
X53485961Y-44395951D01*
X53487752Y-44386157D01*
X53489781Y-44376418D01*
X53492049Y-44366738D01*
X53494556Y-44357119D01*
X53497302Y-44347567D01*
X53500286Y-44338086D01*
X53503509Y-44328679D01*
X53506971Y-44319351D01*
X53510672Y-44310106D01*
X53514610Y-44300958D01*
X53518782Y-44291922D01*
X53523181Y-44282999D01*
X53527803Y-44274193D01*
X53532643Y-44265507D01*
X53537693Y-44256942D01*
X53542950Y-44248502D01*
X53548408Y-44240190D01*
X53554061Y-44232008D01*
X53559904Y-44223959D01*
X53565931Y-44216045D01*
X53572138Y-44208270D01*
X53578518Y-44200636D01*
X53585066Y-44193146D01*
X53591777Y-44185803D01*
X53598646Y-44178608D01*
X53605840Y-44171750D01*
X53613184Y-44165069D01*
X53620674Y-44158566D01*
X53628308Y-44152245D01*
X53636083Y-44146109D01*
X53643996Y-44140159D01*
X53652045Y-44134400D01*
X53660227Y-44128834D01*
X53668540Y-44123462D01*
X53676979Y-44118289D01*
X53685544Y-44113316D01*
X53694230Y-44108547D01*
X53703036Y-44103984D01*
X53711959Y-44099631D01*
X53720996Y-44095488D01*
X53730143Y-44091560D01*
X53739388Y-44087849D01*
X53748715Y-44084358D01*
X53758117Y-44081089D01*
X53767590Y-44078045D01*
X53777128Y-44075230D01*
X53786726Y-44072645D01*
X53796378Y-44070293D01*
X53806079Y-44068177D01*
X53815823Y-44066300D01*
X53825606Y-44064665D01*
X53835420Y-44063273D01*
X53845262Y-44062129D01*
X53855126Y-44061234D01*
X53865006Y-44060592D01*
X53874896Y-44060204D01*
X53884793Y-44060074D01*
X53894852Y-44060204D01*
G37*
G36*
X53316635Y-38315900D02*
G01*
X53322619Y-38316295D01*
X53328584Y-38316958D01*
X53334520Y-38317890D01*
X53340418Y-38319090D01*
X53346268Y-38320559D01*
X53352060Y-38322295D01*
X53357785Y-38324300D01*
X53363433Y-38326573D01*
X53368994Y-38329115D01*
X53374459Y-38331925D01*
X53379818Y-38335003D01*
X53385061Y-38338350D01*
X53390179Y-38341965D01*
X53395162Y-38345849D01*
X53400000Y-38350000D01*
X57003682Y-41593063D01*
X57003681Y-41593072D01*
X57011765Y-41600933D01*
X57018993Y-41609157D01*
X57025380Y-41617705D01*
X57030943Y-41626536D01*
X57035697Y-41635610D01*
X57039656Y-41644887D01*
X57042837Y-41654327D01*
X57045255Y-41663889D01*
X57046925Y-41673534D01*
X57047863Y-41683220D01*
X57048084Y-41692908D01*
X57047604Y-41702558D01*
X57046437Y-41712130D01*
X57044601Y-41721582D01*
X57042109Y-41730875D01*
X57038977Y-41739969D01*
X57035222Y-41748824D01*
X57030857Y-41757399D01*
X57025899Y-41765653D01*
X57020363Y-41773548D01*
X57014265Y-41781042D01*
X57007620Y-41788096D01*
X57000443Y-41794668D01*
X56992750Y-41800720D01*
X56984556Y-41806210D01*
X56975877Y-41811099D01*
X56966728Y-41815346D01*
X56957125Y-41818911D01*
X56947083Y-41821753D01*
X56936617Y-41823834D01*
X56925743Y-41825111D01*
X56914476Y-41825546D01*
X55903497Y-41825546D01*
X55903438Y-41825297D01*
X55903369Y-41825011D01*
X55903275Y-41824639D01*
X55686998Y-41824639D01*
X55682100Y-41824549D01*
X55677236Y-41824281D01*
X55672410Y-41823838D01*
X55667625Y-41823222D01*
X55662885Y-41822437D01*
X55658193Y-41821483D01*
X55653554Y-41820364D01*
X55648972Y-41819083D01*
X55644449Y-41817642D01*
X55639990Y-41816043D01*
X55635598Y-41814290D01*
X55631277Y-41812384D01*
X55627031Y-41810328D01*
X55622864Y-41808125D01*
X55618779Y-41805777D01*
X55614779Y-41803288D01*
X55610869Y-41800658D01*
X55607052Y-41797892D01*
X55603333Y-41794991D01*
X55599714Y-41791958D01*
X55596199Y-41788796D01*
X55592793Y-41785507D01*
X55589498Y-41782094D01*
X55586319Y-41778559D01*
X55583260Y-41774904D01*
X55580323Y-41771134D01*
X55577513Y-41767249D01*
X55574833Y-41763252D01*
X55572288Y-41759147D01*
X55569880Y-41754935D01*
X55567614Y-41750620D01*
X55565493Y-41746203D01*
X55549817Y-41713504D01*
X55531889Y-41679345D01*
X55511622Y-41644218D01*
X55488927Y-41608616D01*
X55463715Y-41573032D01*
X55435899Y-41537957D01*
X55405390Y-41503885D01*
X55372100Y-41471309D01*
X55335940Y-41440720D01*
X55316756Y-41426324D01*
X55296822Y-41412611D01*
X55276126Y-41399641D01*
X55254658Y-41387475D01*
X55232406Y-41376176D01*
X55209359Y-41365805D01*
X55185506Y-41356424D01*
X55160837Y-41348093D01*
X55135340Y-41340875D01*
X55109004Y-41334832D01*
X55081818Y-41330024D01*
X55053772Y-41326514D01*
X55024853Y-41324362D01*
X54995051Y-41323632D01*
X52818854Y-41323632D01*
X52775550Y-41324693D01*
X52733746Y-41327837D01*
X52693433Y-41333006D01*
X52654604Y-41340142D01*
X52617251Y-41349186D01*
X52581364Y-41360080D01*
X52546936Y-41372765D01*
X52513959Y-41387183D01*
X52482424Y-41403276D01*
X52452324Y-41420985D01*
X52423650Y-41440252D01*
X52396393Y-41461018D01*
X52370546Y-41483225D01*
X52346100Y-41506816D01*
X52323048Y-41531730D01*
X52301381Y-41557911D01*
X52281090Y-41585299D01*
X52262168Y-41613837D01*
X52244606Y-41643465D01*
X52228397Y-41674126D01*
X52213531Y-41705761D01*
X52200001Y-41738311D01*
X52176916Y-41805926D01*
X52159074Y-41876504D01*
X52146412Y-41949576D01*
X52138863Y-42024678D01*
X52136361Y-42101340D01*
X52152169Y-44849998D01*
X52152039Y-44856860D01*
X52151568Y-44863635D01*
X52150763Y-44870313D01*
X52149632Y-44876886D01*
X52148185Y-44883347D01*
X52146428Y-44889685D01*
X52144372Y-44895894D01*
X52142023Y-44901964D01*
X52139391Y-44907887D01*
X52136483Y-44913655D01*
X52133308Y-44919259D01*
X52129875Y-44924690D01*
X52126191Y-44929941D01*
X52122265Y-44935004D01*
X52118105Y-44939868D01*
X52113719Y-44944527D01*
X52109117Y-44948971D01*
X52104305Y-44953193D01*
X52099294Y-44957183D01*
X52094089Y-44960934D01*
X52088702Y-44964436D01*
X52083138Y-44967682D01*
X52077407Y-44970663D01*
X52071518Y-44973371D01*
X52065478Y-44975797D01*
X52059295Y-44977933D01*
X52052979Y-44979770D01*
X52046537Y-44981300D01*
X52039978Y-44982515D01*
X52033310Y-44983406D01*
X52026541Y-44983964D01*
X52019680Y-44984181D01*
X51569633Y-44987080D01*
X51569628Y-44986699D01*
X51569625Y-44986280D01*
X51569624Y-44985403D01*
X50696468Y-44986024D01*
X50689603Y-44985855D01*
X50682827Y-44985345D01*
X50676149Y-44984501D01*
X50669579Y-44983332D01*
X50663123Y-44981846D01*
X50656791Y-44980053D01*
X50650592Y-44977959D01*
X50644532Y-44975573D01*
X50638621Y-44972905D01*
X50632868Y-44969961D01*
X50627279Y-44966752D01*
X50621865Y-44963284D01*
X50616633Y-44959567D01*
X50611592Y-44955608D01*
X50606750Y-44951417D01*
X50602115Y-44947001D01*
X50597696Y-44942370D01*
X50593502Y-44937530D01*
X50589540Y-44932492D01*
X50585819Y-44927262D01*
X50582348Y-44921850D01*
X50579134Y-44916264D01*
X50576187Y-44910512D01*
X50573514Y-44904603D01*
X50571124Y-44898545D01*
X50569026Y-44892347D01*
X50567228Y-44886016D01*
X50565737Y-44879562D01*
X50564564Y-44872992D01*
X50563715Y-44866315D01*
X50563199Y-44859540D01*
X50563026Y-44852674D01*
X50563026Y-41958886D01*
X50562852Y-41952024D01*
X50562337Y-41945252D01*
X50561489Y-41938578D01*
X50560317Y-41932012D01*
X50558828Y-41925560D01*
X50557031Y-41919232D01*
X50554934Y-41913036D01*
X50552547Y-41906980D01*
X50549876Y-41901073D01*
X50546931Y-41895324D01*
X50543720Y-41889739D01*
X50540252Y-41884329D01*
X50536534Y-41879101D01*
X50532575Y-41874063D01*
X50528384Y-41869225D01*
X50523969Y-41864593D01*
X50519338Y-41860178D01*
X50514499Y-41855987D01*
X50509462Y-41852028D01*
X50504233Y-41848310D01*
X50498823Y-41844842D01*
X50493239Y-41841631D01*
X50487489Y-41838686D01*
X50481582Y-41836016D01*
X50475526Y-41833628D01*
X50469330Y-41831532D01*
X50463002Y-41829735D01*
X50456551Y-41828246D01*
X50449984Y-41827073D01*
X50443310Y-41826225D01*
X50436538Y-41825710D01*
X50429676Y-41825537D01*
X49724004Y-41825537D01*
X49712751Y-41825103D01*
X49701890Y-41823828D01*
X49691435Y-41821751D01*
X49681403Y-41818914D01*
X49671808Y-41815356D01*
X49662666Y-41811117D01*
X49653992Y-41806238D01*
X49645803Y-41800758D01*
X49638113Y-41794717D01*
X49630937Y-41788156D01*
X49624292Y-41781114D01*
X49618193Y-41773633D01*
X49612654Y-41765751D01*
X49607693Y-41757509D01*
X49603323Y-41748946D01*
X49599560Y-41740104D01*
X49596421Y-41731023D01*
X49593920Y-41721741D01*
X49592072Y-41712300D01*
X49590894Y-41702739D01*
X49590400Y-41693099D01*
X49590606Y-41683419D01*
X49591528Y-41673740D01*
X49593181Y-41664102D01*
X49595580Y-41654545D01*
X49598740Y-41645109D01*
X49602678Y-41635833D01*
X49607409Y-41626759D01*
X49612948Y-41617926D01*
X49619310Y-41609375D01*
X49626511Y-41601145D01*
X49634567Y-41593276D01*
X53221367Y-38350213D01*
X53226195Y-38346050D01*
X53231169Y-38342155D01*
X53236278Y-38338527D01*
X53241513Y-38335168D01*
X53246864Y-38332077D01*
X53252322Y-38329254D01*
X53257877Y-38326699D01*
X53263520Y-38324413D01*
X53269240Y-38322394D01*
X53275028Y-38320644D01*
X53280874Y-38319161D01*
X53286769Y-38317947D01*
X53292703Y-38317001D01*
X53298666Y-38316324D01*
X53304649Y-38315914D01*
X53310642Y-38315773D01*
X53316635Y-38315900D01*
G37*
G36*
X54906852Y-41631187D02*
G01*
X54916743Y-41631545D01*
X54926623Y-41632142D01*
X54936486Y-41632978D01*
X54946328Y-41634052D01*
X54956143Y-41635365D01*
X54965925Y-41636917D01*
X54975669Y-41638708D01*
X54985370Y-41640737D01*
X54995022Y-41643005D01*
X55004620Y-41645512D01*
X55014158Y-41648257D01*
X55023631Y-41651242D01*
X55033033Y-41654465D01*
X55042360Y-41657927D01*
X55051605Y-41661627D01*
X55060753Y-41665556D01*
X55069789Y-41669699D01*
X55078712Y-41674058D01*
X55087518Y-41678629D01*
X55096205Y-41683412D01*
X55104769Y-41688405D01*
X55113209Y-41693607D01*
X55121521Y-41699016D01*
X55129703Y-41704632D01*
X55137752Y-41710453D01*
X55145666Y-41716477D01*
X55153441Y-41722703D01*
X55161075Y-41729130D01*
X55168565Y-41735756D01*
X55175908Y-41742580D01*
X55183103Y-41749601D01*
X55190124Y-41756795D01*
X55196948Y-41764139D01*
X55203574Y-41771629D01*
X55210001Y-41779263D01*
X55216227Y-41787038D01*
X55222252Y-41794952D01*
X55228072Y-41803001D01*
X55233688Y-41811183D01*
X55239097Y-41819495D01*
X55244299Y-41827935D01*
X55249292Y-41836499D01*
X55254075Y-41845186D01*
X55258646Y-41853992D01*
X55263005Y-41862915D01*
X55267149Y-41871951D01*
X55271077Y-41881099D01*
X55274777Y-41890344D01*
X55278239Y-41899670D01*
X55281462Y-41909073D01*
X55284446Y-41918546D01*
X55287192Y-41928084D01*
X55289699Y-41937682D01*
X55291967Y-41947334D01*
X55293996Y-41957034D01*
X55295787Y-41966779D01*
X55297338Y-41976561D01*
X55298652Y-41986376D01*
X55299726Y-41996218D01*
X55300561Y-42006081D01*
X55301158Y-42015961D01*
X55301516Y-42025852D01*
X55301636Y-42035748D01*
X55301636Y-45274116D01*
X55301516Y-45284175D01*
X55301158Y-45294208D01*
X55300561Y-45304212D01*
X55299726Y-45314182D01*
X55298652Y-45324113D01*
X55297338Y-45334003D01*
X55295787Y-45343846D01*
X55293996Y-45353640D01*
X55291967Y-45363379D01*
X55289699Y-45373059D01*
X55287192Y-45382678D01*
X55284446Y-45392229D01*
X55281462Y-45401711D01*
X55278239Y-45411117D01*
X55274777Y-45420445D01*
X55271077Y-45429691D01*
X55267149Y-45438838D01*
X55263005Y-45447873D01*
X55258646Y-45456792D01*
X55254075Y-45465589D01*
X55249292Y-45474262D01*
X55244299Y-45482806D01*
X55239097Y-45491217D01*
X55233688Y-45499491D01*
X55228072Y-45507624D01*
X55222252Y-45515612D01*
X55216227Y-45523450D01*
X55210001Y-45531135D01*
X55203574Y-45538663D01*
X55196948Y-45546030D01*
X55190124Y-45553231D01*
X55183103Y-45560262D01*
X55175908Y-45567283D01*
X55168565Y-45574108D01*
X55161074Y-45580734D01*
X55153440Y-45587161D01*
X55145665Y-45593387D01*
X55137752Y-45599411D01*
X55129703Y-45605232D01*
X55121521Y-45610847D01*
X55113209Y-45616257D01*
X55104769Y-45621459D01*
X55096204Y-45626452D01*
X55087518Y-45631235D01*
X55078712Y-45635806D01*
X55069789Y-45640164D01*
X55060753Y-45644308D01*
X55051605Y-45648237D01*
X55042360Y-45651937D01*
X55033033Y-45655399D01*
X55023631Y-45658622D01*
X55014158Y-45661606D01*
X55004620Y-45664352D01*
X54995022Y-45666859D01*
X54985370Y-45669127D01*
X54975669Y-45671156D01*
X54965925Y-45672947D01*
X54956143Y-45674498D01*
X54946328Y-45675812D01*
X54936486Y-45676886D01*
X54926623Y-45677722D01*
X54916743Y-45678318D01*
X54906852Y-45678677D01*
X54896956Y-45678796D01*
X52872629Y-45678796D01*
X52862733Y-45678677D01*
X52852842Y-45678318D01*
X52842962Y-45677722D01*
X52833098Y-45676886D01*
X52823256Y-45675812D01*
X52813442Y-45674498D01*
X52803659Y-45672947D01*
X52793915Y-45671156D01*
X52784214Y-45669127D01*
X52774562Y-45666859D01*
X52764964Y-45664352D01*
X52755426Y-45661606D01*
X52745953Y-45658622D01*
X52736551Y-45655399D01*
X52727225Y-45651937D01*
X52717980Y-45648237D01*
X52708832Y-45644308D01*
X52699795Y-45640164D01*
X52690872Y-45635806D01*
X52682066Y-45631235D01*
X52673380Y-45626452D01*
X52664815Y-45621459D01*
X52656375Y-45616257D01*
X52648063Y-45610847D01*
X52639881Y-45605232D01*
X52631832Y-45599411D01*
X52623919Y-45593387D01*
X52616144Y-45587161D01*
X52608510Y-45580734D01*
X52601020Y-45574108D01*
X52593676Y-45567283D01*
X52586481Y-45560262D01*
X52579460Y-45553231D01*
X52572636Y-45546030D01*
X52566010Y-45538663D01*
X52559583Y-45531135D01*
X52553357Y-45523450D01*
X52547333Y-45515612D01*
X52541512Y-45507624D01*
X52535896Y-45499491D01*
X52530487Y-45491217D01*
X52525285Y-45482806D01*
X52520292Y-45474262D01*
X52515509Y-45465589D01*
X52510938Y-45456792D01*
X52506580Y-45447873D01*
X52502436Y-45438838D01*
X52498507Y-45429691D01*
X52494807Y-45420445D01*
X52491345Y-45411117D01*
X52488122Y-45401711D01*
X52485138Y-45392229D01*
X52482392Y-45382678D01*
X52479886Y-45373059D01*
X52477618Y-45363379D01*
X52475588Y-45353640D01*
X52473798Y-45343846D01*
X52472246Y-45334003D01*
X52470933Y-45324113D01*
X52469858Y-45314182D01*
X52469023Y-45304212D01*
X52468426Y-45294208D01*
X52468068Y-45284175D01*
X52467948Y-45274116D01*
X52467948Y-44465681D01*
X53075432Y-44465681D01*
X53075681Y-44485474D01*
X53076427Y-44505255D01*
X53077666Y-44525015D01*
X53079397Y-44544742D01*
X53081615Y-44564426D01*
X53084320Y-44584056D01*
X53087507Y-44603620D01*
X53091175Y-44623108D01*
X53095320Y-44642510D01*
X53099940Y-44661814D01*
X53105032Y-44681010D01*
X53110593Y-44700086D01*
X53116621Y-44719032D01*
X53123112Y-44737836D01*
X53130065Y-44756489D01*
X53137477Y-44774979D01*
X53145181Y-44793285D01*
X53153353Y-44811386D01*
X53161988Y-44829273D01*
X53171075Y-44846936D01*
X53180607Y-44864365D01*
X53190576Y-44881552D01*
X53200973Y-44898486D01*
X53211792Y-44915159D01*
X53223022Y-44931560D01*
X53234657Y-44947681D01*
X53246688Y-44963511D01*
X53259106Y-44979041D01*
X53271905Y-44994262D01*
X53285075Y-45009165D01*
X53298609Y-45023739D01*
X53312499Y-45037975D01*
X53326735Y-45051854D01*
X53341309Y-45065361D01*
X53356211Y-45078489D01*
X53371432Y-45091237D01*
X53386963Y-45103600D01*
X53402793Y-45115573D01*
X53418914Y-45127153D01*
X53435315Y-45138335D01*
X53451987Y-45149116D01*
X53468922Y-45159491D01*
X53486109Y-45169457D01*
X53503538Y-45179009D01*
X53521201Y-45188143D01*
X53539088Y-45196855D01*
X53557189Y-45205141D01*
X53575494Y-45212997D01*
X53593974Y-45220409D01*
X53612599Y-45227362D01*
X53631363Y-45233854D01*
X53650258Y-45239882D01*
X53669278Y-45245443D01*
X53688415Y-45250535D01*
X53707664Y-45255155D01*
X53727018Y-45259300D01*
X53746469Y-45262967D01*
X53766011Y-45266155D01*
X53785637Y-45268859D01*
X53805341Y-45271078D01*
X53825115Y-45272808D01*
X53844953Y-45274048D01*
X53864847Y-45274793D01*
X53884792Y-45275042D01*
X53904748Y-45274793D01*
X53924672Y-45274048D01*
X53944555Y-45272808D01*
X53964389Y-45271078D01*
X53984162Y-45268859D01*
X54003867Y-45266155D01*
X54023492Y-45262967D01*
X54043030Y-45259300D01*
X54062470Y-45255155D01*
X54081802Y-45250535D01*
X54101018Y-45245443D01*
X54120108Y-45239882D01*
X54139062Y-45233854D01*
X54157871Y-45227362D01*
X54176526Y-45220409D01*
X54195016Y-45212997D01*
X54213311Y-45205141D01*
X54231383Y-45196855D01*
X54249224Y-45188143D01*
X54266828Y-45179009D01*
X54284187Y-45169457D01*
X54301296Y-45159491D01*
X54318146Y-45149116D01*
X54334733Y-45138335D01*
X54351048Y-45127153D01*
X54367084Y-45115573D01*
X54382836Y-45103600D01*
X54398297Y-45091237D01*
X54413459Y-45078489D01*
X54428315Y-45065360D01*
X54442860Y-45051854D01*
X54457086Y-45037975D01*
X54471128Y-45023739D01*
X54484777Y-45009165D01*
X54498030Y-44994262D01*
X54510883Y-44979041D01*
X54523336Y-44963511D01*
X54535384Y-44947680D01*
X54547025Y-44931560D01*
X54558256Y-44915159D01*
X54569075Y-44898486D01*
X54579479Y-44881552D01*
X54589465Y-44864365D01*
X54599031Y-44846935D01*
X54608173Y-44829273D01*
X54616890Y-44811386D01*
X54625178Y-44793285D01*
X54633034Y-44774979D01*
X54640446Y-44756489D01*
X54647399Y-44737836D01*
X54653890Y-44719031D01*
X54659918Y-44700085D01*
X54665479Y-44681009D01*
X54670571Y-44661814D01*
X54675191Y-44642510D01*
X54679336Y-44623108D01*
X54683004Y-44603620D01*
X54686191Y-44584055D01*
X54688895Y-44564426D01*
X54691114Y-44544742D01*
X54692845Y-44525015D01*
X54694084Y-44505255D01*
X54694830Y-44485474D01*
X54695079Y-44465681D01*
X54694830Y-44445726D01*
X54694084Y-44425802D01*
X54692845Y-44405918D01*
X54691114Y-44386085D01*
X54688895Y-44366312D01*
X54686191Y-44346607D01*
X54683004Y-44326981D01*
X54679336Y-44307444D01*
X54675191Y-44288004D01*
X54670571Y-44268671D01*
X54665479Y-44249455D01*
X54659918Y-44230365D01*
X54653890Y-44211411D01*
X54647399Y-44192602D01*
X54640446Y-44173948D01*
X54633034Y-44155457D01*
X54625178Y-44137162D01*
X54616890Y-44119088D01*
X54608173Y-44101243D01*
X54599031Y-44083631D01*
X54589465Y-44066258D01*
X54579479Y-44049129D01*
X54569075Y-44032249D01*
X54558256Y-44015625D01*
X54547025Y-43999261D01*
X54535384Y-43983163D01*
X54523336Y-43967336D01*
X54510883Y-43951786D01*
X54498030Y-43936518D01*
X54484777Y-43921538D01*
X54471128Y-43906850D01*
X54457086Y-43892461D01*
X54442860Y-43878582D01*
X54428315Y-43865076D01*
X54413459Y-43851947D01*
X54398297Y-43839199D01*
X54382837Y-43826837D01*
X54367085Y-43814863D01*
X54351048Y-43803284D01*
X54334733Y-43792101D01*
X54318147Y-43781320D01*
X54301296Y-43770945D01*
X54284187Y-43760980D01*
X54266828Y-43751428D01*
X54249224Y-43742294D01*
X54231383Y-43733581D01*
X54213312Y-43725295D01*
X54195016Y-43717439D01*
X54176526Y-43710027D01*
X54157871Y-43703074D01*
X54139062Y-43696583D01*
X54120108Y-43690555D01*
X54101018Y-43684993D01*
X54081802Y-43679902D01*
X54062469Y-43675282D01*
X54043030Y-43671137D01*
X54023492Y-43667469D01*
X54003866Y-43664282D01*
X53984162Y-43661578D01*
X53964389Y-43659359D01*
X53944555Y-43657628D01*
X53924672Y-43656389D01*
X53904748Y-43655643D01*
X53884792Y-43655394D01*
X53864847Y-43655643D01*
X53844953Y-43656389D01*
X53825115Y-43657628D01*
X53805341Y-43659359D01*
X53785637Y-43661578D01*
X53766011Y-43664282D01*
X53746469Y-43667469D01*
X53727018Y-43671137D01*
X53707664Y-43675282D01*
X53688415Y-43679902D01*
X53669278Y-43684993D01*
X53650258Y-43690555D01*
X53631363Y-43696583D01*
X53612599Y-43703074D01*
X53593974Y-43710027D01*
X53575494Y-43717439D01*
X53557189Y-43725295D01*
X53539088Y-43733581D01*
X53521201Y-43742294D01*
X53503538Y-43751428D01*
X53486109Y-43760980D01*
X53468922Y-43770945D01*
X53451987Y-43781321D01*
X53435315Y-43792101D01*
X53418914Y-43803284D01*
X53402793Y-43814864D01*
X53386963Y-43826837D01*
X53371432Y-43839199D01*
X53356211Y-43851947D01*
X53341309Y-43865076D01*
X53326735Y-43878582D01*
X53312499Y-43892461D01*
X53298609Y-43906850D01*
X53285075Y-43921538D01*
X53271905Y-43936518D01*
X53259106Y-43951786D01*
X53246688Y-43967336D01*
X53234657Y-43983163D01*
X53223022Y-43999261D01*
X53211792Y-44015625D01*
X53200973Y-44032250D01*
X53190576Y-44049129D01*
X53180607Y-44066258D01*
X53171075Y-44083631D01*
X53161988Y-44101243D01*
X53153353Y-44119089D01*
X53145181Y-44137162D01*
X53137477Y-44155457D01*
X53130065Y-44173948D01*
X53123112Y-44192602D01*
X53116621Y-44211411D01*
X53110593Y-44230365D01*
X53105031Y-44249455D01*
X53099940Y-44268671D01*
X53095320Y-44288004D01*
X53091175Y-44307444D01*
X53087507Y-44326981D01*
X53084320Y-44346607D01*
X53081615Y-44366311D01*
X53079397Y-44386085D01*
X53077666Y-44405918D01*
X53076427Y-44425802D01*
X53075681Y-44445726D01*
X53075432Y-44465681D01*
X52467948Y-44465681D01*
X52467948Y-43117364D01*
X52467948Y-42169098D01*
X52872629Y-42169098D01*
X52872629Y-43117364D01*
X52872802Y-43124227D01*
X52873317Y-43130999D01*
X52874165Y-43137672D01*
X52875338Y-43144239D01*
X52876827Y-43150691D01*
X52878624Y-43157019D01*
X52880720Y-43163215D01*
X52883108Y-43169270D01*
X52885778Y-43175177D01*
X52888723Y-43180927D01*
X52891934Y-43186511D01*
X52895403Y-43191922D01*
X52899120Y-43197150D01*
X52903079Y-43202188D01*
X52907270Y-43207026D01*
X52911686Y-43211657D01*
X52916317Y-43216073D01*
X52921155Y-43220264D01*
X52926193Y-43224223D01*
X52931421Y-43227940D01*
X52936831Y-43231409D01*
X52942416Y-43234620D01*
X52948165Y-43237565D01*
X52954072Y-43240235D01*
X52960128Y-43242623D01*
X52966324Y-43244719D01*
X52972652Y-43246516D01*
X52979104Y-43248005D01*
X52985671Y-43249178D01*
X52992344Y-43250026D01*
X52999116Y-43250541D01*
X53005979Y-43250714D01*
X54763605Y-43250714D01*
X54770468Y-43250541D01*
X54777240Y-43250026D01*
X54783913Y-43249178D01*
X54790480Y-43248005D01*
X54796932Y-43246516D01*
X54803260Y-43244719D01*
X54809456Y-43242623D01*
X54815512Y-43240235D01*
X54821419Y-43237565D01*
X54827168Y-43234620D01*
X54832753Y-43231409D01*
X54838163Y-43227940D01*
X54843391Y-43224223D01*
X54848429Y-43220264D01*
X54853267Y-43216073D01*
X54857899Y-43211657D01*
X54862314Y-43207026D01*
X54866505Y-43202188D01*
X54870464Y-43197150D01*
X54874182Y-43191922D01*
X54877650Y-43186511D01*
X54880861Y-43180927D01*
X54883806Y-43175177D01*
X54886476Y-43169270D01*
X54888864Y-43163215D01*
X54890961Y-43157019D01*
X54892758Y-43150691D01*
X54894247Y-43144239D01*
X54895419Y-43137672D01*
X54896267Y-43130999D01*
X54896782Y-43124227D01*
X54896956Y-43117364D01*
X54896956Y-42169098D01*
X54896782Y-42162235D01*
X54896267Y-42155463D01*
X54895419Y-42148790D01*
X54894247Y-42142223D01*
X54892758Y-42135771D01*
X54890961Y-42129443D01*
X54888864Y-42123247D01*
X54886476Y-42117191D01*
X54883806Y-42111285D01*
X54880861Y-42105535D01*
X54877650Y-42099950D01*
X54874182Y-42094540D01*
X54870464Y-42089312D01*
X54866505Y-42084274D01*
X54862314Y-42079436D01*
X54857899Y-42074805D01*
X54853267Y-42070389D01*
X54848429Y-42066198D01*
X54843391Y-42062239D01*
X54838163Y-42058522D01*
X54832753Y-42055053D01*
X54827168Y-42051842D01*
X54821419Y-42048897D01*
X54815512Y-42046227D01*
X54809456Y-42043839D01*
X54803260Y-42041743D01*
X54796932Y-42039946D01*
X54790480Y-42038457D01*
X54783913Y-42037284D01*
X54777240Y-42036436D01*
X54770468Y-42035921D01*
X54763605Y-42035748D01*
X53005979Y-42035748D01*
X52999116Y-42035921D01*
X52992344Y-42036436D01*
X52985671Y-42037284D01*
X52979104Y-42038457D01*
X52972652Y-42039946D01*
X52966324Y-42041743D01*
X52960128Y-42043839D01*
X52954072Y-42046227D01*
X52948165Y-42048897D01*
X52942416Y-42051842D01*
X52936831Y-42055053D01*
X52931421Y-42058522D01*
X52926193Y-42062239D01*
X52921155Y-42066198D01*
X52916317Y-42070389D01*
X52911686Y-42074805D01*
X52907270Y-42079436D01*
X52903079Y-42084274D01*
X52899120Y-42089312D01*
X52895403Y-42094540D01*
X52891934Y-42099950D01*
X52888723Y-42105535D01*
X52885778Y-42111285D01*
X52883108Y-42117191D01*
X52880720Y-42123247D01*
X52878624Y-42129443D01*
X52876827Y-42135771D01*
X52875338Y-42142223D01*
X52874165Y-42148790D01*
X52873317Y-42155463D01*
X52872802Y-42162235D01*
X52872629Y-42169098D01*
X52467948Y-42169098D01*
X52467948Y-42035748D01*
X52468068Y-42025852D01*
X52468426Y-42015961D01*
X52469023Y-42006081D01*
X52469858Y-41996218D01*
X52470933Y-41986376D01*
X52472246Y-41976561D01*
X52473798Y-41966779D01*
X52475588Y-41957035D01*
X52477617Y-41947334D01*
X52479885Y-41937682D01*
X52482392Y-41928084D01*
X52485138Y-41918546D01*
X52488122Y-41909073D01*
X52491345Y-41899671D01*
X52494807Y-41890344D01*
X52498507Y-41881099D01*
X52502436Y-41871951D01*
X52506580Y-41862915D01*
X52510938Y-41853992D01*
X52515509Y-41845186D01*
X52520292Y-41836499D01*
X52525285Y-41827935D01*
X52530487Y-41819495D01*
X52535897Y-41811183D01*
X52541512Y-41803001D01*
X52547333Y-41794952D01*
X52553357Y-41787039D01*
X52559583Y-41779264D01*
X52566010Y-41771630D01*
X52572636Y-41764139D01*
X52579460Y-41756796D01*
X52586481Y-41749601D01*
X52593676Y-41742580D01*
X52601020Y-41735756D01*
X52608510Y-41729130D01*
X52616144Y-41722703D01*
X52623919Y-41716476D01*
X52631832Y-41710452D01*
X52639881Y-41704632D01*
X52648063Y-41699016D01*
X52656375Y-41693607D01*
X52664815Y-41688405D01*
X52673380Y-41683412D01*
X52682066Y-41678629D01*
X52690872Y-41674058D01*
X52699795Y-41669699D01*
X52708832Y-41665556D01*
X52717980Y-41661627D01*
X52727225Y-41657927D01*
X52736551Y-41654465D01*
X52745953Y-41651242D01*
X52755426Y-41648258D01*
X52764964Y-41645512D01*
X52774562Y-41643005D01*
X52784214Y-41640737D01*
X52793915Y-41638708D01*
X52803659Y-41636917D01*
X52813442Y-41635365D01*
X52823256Y-41634052D01*
X52833098Y-41632978D01*
X52842962Y-41632142D01*
X52852842Y-41631546D01*
X52862733Y-41631187D01*
X52872629Y-41631068D01*
X54896956Y-41631068D01*
X54906852Y-41631187D01*
G37*
D11*
X59500000Y-32400000D02*
X59000000Y-32850000D01*
X59500000Y-32400000D02*
X60000000Y-32850000D01*
X59500000Y-34100000D02*
X59500000Y-32400000D01*
D12*
X42528571Y-139775472D02*
X42457142Y-139737377D01*
X42457142Y-139737377D02*
X42421428Y-139699281D01*
X42421428Y-139699281D02*
X42385714Y-139623091D01*
X42385714Y-139623091D02*
X42385714Y-139584996D01*
X42385714Y-139584996D02*
X42421428Y-139508805D01*
X42421428Y-139508805D02*
X42457142Y-139470710D01*
X42457142Y-139470710D02*
X42528571Y-139432615D01*
X42528571Y-139432615D02*
X42671428Y-139432615D01*
X42671428Y-139432615D02*
X42742857Y-139470710D01*
X42742857Y-139470710D02*
X42778571Y-139508805D01*
X42778571Y-139508805D02*
X42814285Y-139584996D01*
X42814285Y-139584996D02*
X42814285Y-139623091D01*
X42814285Y-139623091D02*
X42778571Y-139699281D01*
X42778571Y-139699281D02*
X42742857Y-139737377D01*
X42742857Y-139737377D02*
X42671428Y-139775472D01*
X42671428Y-139775472D02*
X42528571Y-139775472D01*
X42528571Y-139775472D02*
X42457142Y-139813567D01*
X42457142Y-139813567D02*
X42421428Y-139851662D01*
X42421428Y-139851662D02*
X42385714Y-139927853D01*
X42385714Y-139927853D02*
X42385714Y-140080234D01*
X42385714Y-140080234D02*
X42421428Y-140156424D01*
X42421428Y-140156424D02*
X42457142Y-140194520D01*
X42457142Y-140194520D02*
X42528571Y-140232615D01*
X42528571Y-140232615D02*
X42671428Y-140232615D01*
X42671428Y-140232615D02*
X42742857Y-140194520D01*
X42742857Y-140194520D02*
X42778571Y-140156424D01*
X42778571Y-140156424D02*
X42814285Y-140080234D01*
X42814285Y-140080234D02*
X42814285Y-139927853D01*
X42814285Y-139927853D02*
X42778571Y-139851662D01*
X42778571Y-139851662D02*
X42742857Y-139813567D01*
X42742857Y-139813567D02*
X42671428Y-139775472D01*
X42457142Y-142808525D02*
X42599999Y-142808525D01*
X42599999Y-142808525D02*
X42671428Y-142770430D01*
X42671428Y-142770430D02*
X42707142Y-142732334D01*
X42707142Y-142732334D02*
X42778571Y-142618049D01*
X42778571Y-142618049D02*
X42814285Y-142465668D01*
X42814285Y-142465668D02*
X42814285Y-142160906D01*
X42814285Y-142160906D02*
X42778571Y-142084715D01*
X42778571Y-142084715D02*
X42742857Y-142046620D01*
X42742857Y-142046620D02*
X42671428Y-142008525D01*
X42671428Y-142008525D02*
X42528571Y-142008525D01*
X42528571Y-142008525D02*
X42457142Y-142046620D01*
X42457142Y-142046620D02*
X42421428Y-142084715D01*
X42421428Y-142084715D02*
X42385714Y-142160906D01*
X42385714Y-142160906D02*
X42385714Y-142351382D01*
X42385714Y-142351382D02*
X42421428Y-142427572D01*
X42421428Y-142427572D02*
X42457142Y-142465668D01*
X42457142Y-142465668D02*
X42528571Y-142503763D01*
X42528571Y-142503763D02*
X42671428Y-142503763D01*
X42671428Y-142503763D02*
X42742857Y-142465668D01*
X42742857Y-142465668D02*
X42778571Y-142427572D01*
X42778571Y-142427572D02*
X42814285Y-142351382D01*
X42457142Y-145384435D02*
X42028571Y-145384435D01*
X42242856Y-145384435D02*
X42242856Y-144584435D01*
X42242856Y-144584435D02*
X42171428Y-144698720D01*
X42171428Y-144698720D02*
X42099999Y-144774911D01*
X42099999Y-144774911D02*
X42028571Y-144813006D01*
X42921428Y-144584435D02*
X42992857Y-144584435D01*
X42992857Y-144584435D02*
X43064285Y-144622530D01*
X43064285Y-144622530D02*
X43100000Y-144660625D01*
X43100000Y-144660625D02*
X43135714Y-144736816D01*
X43135714Y-144736816D02*
X43171428Y-144889197D01*
X43171428Y-144889197D02*
X43171428Y-145079673D01*
X43171428Y-145079673D02*
X43135714Y-145232054D01*
X43135714Y-145232054D02*
X43100000Y-145308244D01*
X43100000Y-145308244D02*
X43064285Y-145346340D01*
X43064285Y-145346340D02*
X42992857Y-145384435D01*
X42992857Y-145384435D02*
X42921428Y-145384435D01*
X42921428Y-145384435D02*
X42850000Y-145346340D01*
X42850000Y-145346340D02*
X42814285Y-145308244D01*
X42814285Y-145308244D02*
X42778571Y-145232054D01*
X42778571Y-145232054D02*
X42742857Y-145079673D01*
X42742857Y-145079673D02*
X42742857Y-144889197D01*
X42742857Y-144889197D02*
X42778571Y-144736816D01*
X42778571Y-144736816D02*
X42814285Y-144660625D01*
X42814285Y-144660625D02*
X42850000Y-144622530D01*
X42850000Y-144622530D02*
X42921428Y-144584435D01*
X42457142Y-147960345D02*
X42028571Y-147960345D01*
X42242856Y-147960345D02*
X42242856Y-147160345D01*
X42242856Y-147160345D02*
X42171428Y-147274630D01*
X42171428Y-147274630D02*
X42099999Y-147350821D01*
X42099999Y-147350821D02*
X42028571Y-147388916D01*
X43171428Y-147960345D02*
X42742857Y-147960345D01*
X42957142Y-147960345D02*
X42957142Y-147160345D01*
X42957142Y-147160345D02*
X42885714Y-147274630D01*
X42885714Y-147274630D02*
X42814285Y-147350821D01*
X42814285Y-147350821D02*
X42742857Y-147388916D01*
X42457142Y-150536255D02*
X42028571Y-150536255D01*
X42242856Y-150536255D02*
X42242856Y-149736255D01*
X42242856Y-149736255D02*
X42171428Y-149850540D01*
X42171428Y-149850540D02*
X42099999Y-149926731D01*
X42099999Y-149926731D02*
X42028571Y-149964826D01*
X42742857Y-149812445D02*
X42778571Y-149774350D01*
X42778571Y-149774350D02*
X42850000Y-149736255D01*
X42850000Y-149736255D02*
X43028571Y-149736255D01*
X43028571Y-149736255D02*
X43100000Y-149774350D01*
X43100000Y-149774350D02*
X43135714Y-149812445D01*
X43135714Y-149812445D02*
X43171428Y-149888636D01*
X43171428Y-149888636D02*
X43171428Y-149964826D01*
X43171428Y-149964826D02*
X43135714Y-150079112D01*
X43135714Y-150079112D02*
X42707142Y-150536255D01*
X42707142Y-150536255D02*
X43171428Y-150536255D01*
X42082144Y-152578831D02*
X42082144Y-153226450D01*
X42082144Y-153226450D02*
X42046429Y-153302641D01*
X42046429Y-153302641D02*
X42010715Y-153340736D01*
X42010715Y-153340736D02*
X41939286Y-153378831D01*
X41939286Y-153378831D02*
X41832144Y-153378831D01*
X41832144Y-153378831D02*
X41760715Y-153340736D01*
X42082144Y-153074070D02*
X42010715Y-153112165D01*
X42010715Y-153112165D02*
X41867858Y-153112165D01*
X41867858Y-153112165D02*
X41796429Y-153074070D01*
X41796429Y-153074070D02*
X41760715Y-153035974D01*
X41760715Y-153035974D02*
X41725001Y-152959784D01*
X41725001Y-152959784D02*
X41725001Y-152731212D01*
X41725001Y-152731212D02*
X41760715Y-152655022D01*
X41760715Y-152655022D02*
X41796429Y-152616927D01*
X41796429Y-152616927D02*
X41867858Y-152578831D01*
X41867858Y-152578831D02*
X42010715Y-152578831D01*
X42010715Y-152578831D02*
X42082144Y-152616927D01*
X42439286Y-152578831D02*
X42439286Y-153112165D01*
X42439286Y-152655022D02*
X42475000Y-152616927D01*
X42475000Y-152616927D02*
X42546429Y-152578831D01*
X42546429Y-152578831D02*
X42653572Y-152578831D01*
X42653572Y-152578831D02*
X42725000Y-152616927D01*
X42725000Y-152616927D02*
X42760715Y-152693117D01*
X42760715Y-152693117D02*
X42760715Y-153112165D01*
X43439286Y-153112165D02*
X43439286Y-152312165D01*
X43439286Y-153074070D02*
X43367857Y-153112165D01*
X43367857Y-153112165D02*
X43225000Y-153112165D01*
X43225000Y-153112165D02*
X43153571Y-153074070D01*
X43153571Y-153074070D02*
X43117857Y-153035974D01*
X43117857Y-153035974D02*
X43082143Y-152959784D01*
X43082143Y-152959784D02*
X43082143Y-152731212D01*
X43082143Y-152731212D02*
X43117857Y-152655022D01*
X43117857Y-152655022D02*
X43153571Y-152616927D01*
X43153571Y-152616927D02*
X43225000Y-152578831D01*
X43225000Y-152578831D02*
X43367857Y-152578831D01*
X43367857Y-152578831D02*
X43439286Y-152616927D01*
X41778571Y-155154741D02*
X41957143Y-155688075D01*
X41957143Y-155688075D02*
X42135714Y-155154741D01*
X42742858Y-155649980D02*
X42671429Y-155688075D01*
X42671429Y-155688075D02*
X42528572Y-155688075D01*
X42528572Y-155688075D02*
X42457143Y-155649980D01*
X42457143Y-155649980D02*
X42421429Y-155611884D01*
X42421429Y-155611884D02*
X42385715Y-155535694D01*
X42385715Y-155535694D02*
X42385715Y-155307122D01*
X42385715Y-155307122D02*
X42421429Y-155230932D01*
X42421429Y-155230932D02*
X42457143Y-155192837D01*
X42457143Y-155192837D02*
X42528572Y-155154741D01*
X42528572Y-155154741D02*
X42671429Y-155154741D01*
X42671429Y-155154741D02*
X42742858Y-155192837D01*
X43385715Y-155649980D02*
X43314286Y-155688075D01*
X43314286Y-155688075D02*
X43171429Y-155688075D01*
X43171429Y-155688075D02*
X43100000Y-155649980D01*
X43100000Y-155649980D02*
X43064286Y-155611884D01*
X43064286Y-155611884D02*
X43028572Y-155535694D01*
X43028572Y-155535694D02*
X43028572Y-155307122D01*
X43028572Y-155307122D02*
X43064286Y-155230932D01*
X43064286Y-155230932D02*
X43100000Y-155192837D01*
X43100000Y-155192837D02*
X43171429Y-155154741D01*
X43171429Y-155154741D02*
X43314286Y-155154741D01*
X43314286Y-155154741D02*
X43385715Y-155192837D01*
X63549999Y-139432615D02*
X64049999Y-139432615D01*
X64049999Y-139432615D02*
X63728571Y-140232615D01*
X63942857Y-142008525D02*
X63799999Y-142008525D01*
X63799999Y-142008525D02*
X63728571Y-142046620D01*
X63728571Y-142046620D02*
X63692857Y-142084715D01*
X63692857Y-142084715D02*
X63621428Y-142199001D01*
X63621428Y-142199001D02*
X63585714Y-142351382D01*
X63585714Y-142351382D02*
X63585714Y-142656144D01*
X63585714Y-142656144D02*
X63621428Y-142732334D01*
X63621428Y-142732334D02*
X63657142Y-142770430D01*
X63657142Y-142770430D02*
X63728571Y-142808525D01*
X63728571Y-142808525D02*
X63871428Y-142808525D01*
X63871428Y-142808525D02*
X63942857Y-142770430D01*
X63942857Y-142770430D02*
X63978571Y-142732334D01*
X63978571Y-142732334D02*
X64014285Y-142656144D01*
X64014285Y-142656144D02*
X64014285Y-142465668D01*
X64014285Y-142465668D02*
X63978571Y-142389477D01*
X63978571Y-142389477D02*
X63942857Y-142351382D01*
X63942857Y-142351382D02*
X63871428Y-142313287D01*
X63871428Y-142313287D02*
X63728571Y-142313287D01*
X63728571Y-142313287D02*
X63657142Y-142351382D01*
X63657142Y-142351382D02*
X63621428Y-142389477D01*
X63621428Y-142389477D02*
X63585714Y-142465668D01*
X63978571Y-144584435D02*
X63621428Y-144584435D01*
X63621428Y-144584435D02*
X63585714Y-144965387D01*
X63585714Y-144965387D02*
X63621428Y-144927292D01*
X63621428Y-144927292D02*
X63692857Y-144889197D01*
X63692857Y-144889197D02*
X63871428Y-144889197D01*
X63871428Y-144889197D02*
X63942857Y-144927292D01*
X63942857Y-144927292D02*
X63978571Y-144965387D01*
X63978571Y-144965387D02*
X64014285Y-145041578D01*
X64014285Y-145041578D02*
X64014285Y-145232054D01*
X64014285Y-145232054D02*
X63978571Y-145308244D01*
X63978571Y-145308244D02*
X63942857Y-145346340D01*
X63942857Y-145346340D02*
X63871428Y-145384435D01*
X63871428Y-145384435D02*
X63692857Y-145384435D01*
X63692857Y-145384435D02*
X63621428Y-145346340D01*
X63621428Y-145346340D02*
X63585714Y-145308244D01*
X63942857Y-147427011D02*
X63942857Y-147960345D01*
X63764285Y-147122250D02*
X63585714Y-147693678D01*
X63585714Y-147693678D02*
X64049999Y-147693678D01*
X63549999Y-149736255D02*
X64014285Y-149736255D01*
X64014285Y-149736255D02*
X63764285Y-150041017D01*
X63764285Y-150041017D02*
X63871428Y-150041017D01*
X63871428Y-150041017D02*
X63942857Y-150079112D01*
X63942857Y-150079112D02*
X63978571Y-150117207D01*
X63978571Y-150117207D02*
X64014285Y-150193398D01*
X64014285Y-150193398D02*
X64014285Y-150383874D01*
X64014285Y-150383874D02*
X63978571Y-150460064D01*
X63978571Y-150460064D02*
X63942857Y-150498160D01*
X63942857Y-150498160D02*
X63871428Y-150536255D01*
X63871428Y-150536255D02*
X63657142Y-150536255D01*
X63657142Y-150536255D02*
X63585714Y-150498160D01*
X63585714Y-150498160D02*
X63549999Y-150460064D01*
X63585714Y-152388355D02*
X63621428Y-152350260D01*
X63621428Y-152350260D02*
X63692857Y-152312165D01*
X63692857Y-152312165D02*
X63871428Y-152312165D01*
X63871428Y-152312165D02*
X63942857Y-152350260D01*
X63942857Y-152350260D02*
X63978571Y-152388355D01*
X63978571Y-152388355D02*
X64014285Y-152464546D01*
X64014285Y-152464546D02*
X64014285Y-152540736D01*
X64014285Y-152540736D02*
X63978571Y-152655022D01*
X63978571Y-152655022D02*
X63549999Y-153112165D01*
X63549999Y-153112165D02*
X64014285Y-153112165D01*
X64014285Y-155688075D02*
X63585714Y-155688075D01*
X63799999Y-155688075D02*
X63799999Y-154888075D01*
X63799999Y-154888075D02*
X63728571Y-155002360D01*
X63728571Y-155002360D02*
X63657142Y-155078551D01*
X63657142Y-155078551D02*
X63585714Y-155116646D01*
D13*
X48504761Y-138365935D02*
X49038095Y-139165935D01*
X49038095Y-138365935D02*
X48504761Y-139165935D01*
X49342857Y-139165935D02*
X49342857Y-138365935D01*
X49685713Y-138937363D02*
X50066666Y-138937363D01*
X49609523Y-139165935D02*
X49876190Y-138365935D01*
X49876190Y-138365935D02*
X50142856Y-139165935D01*
X50561904Y-138365935D02*
X50714285Y-138365935D01*
X50714285Y-138365935D02*
X50790475Y-138404030D01*
X50790475Y-138404030D02*
X50866666Y-138480220D01*
X50866666Y-138480220D02*
X50904761Y-138632601D01*
X50904761Y-138632601D02*
X50904761Y-138899268D01*
X50904761Y-138899268D02*
X50866666Y-139051649D01*
X50866666Y-139051649D02*
X50790475Y-139127840D01*
X50790475Y-139127840D02*
X50714285Y-139165935D01*
X50714285Y-139165935D02*
X50561904Y-139165935D01*
X50561904Y-139165935D02*
X50485713Y-139127840D01*
X50485713Y-139127840D02*
X50409523Y-139051649D01*
X50409523Y-139051649D02*
X50371427Y-138899268D01*
X50371427Y-138899268D02*
X50371427Y-138632601D01*
X50371427Y-138632601D02*
X50409523Y-138480220D01*
X50409523Y-138480220D02*
X50485713Y-138404030D01*
X50485713Y-138404030D02*
X50561904Y-138365935D01*
X51247618Y-138861173D02*
X51857142Y-138861173D01*
X52238094Y-138746887D02*
X52504760Y-138746887D01*
X52619046Y-139165935D02*
X52238094Y-139165935D01*
X52238094Y-139165935D02*
X52238094Y-138365935D01*
X52238094Y-138365935D02*
X52619046Y-138365935D01*
X52923808Y-139127840D02*
X53038094Y-139165935D01*
X53038094Y-139165935D02*
X53228570Y-139165935D01*
X53228570Y-139165935D02*
X53304761Y-139127840D01*
X53304761Y-139127840D02*
X53342856Y-139089744D01*
X53342856Y-139089744D02*
X53380951Y-139013554D01*
X53380951Y-139013554D02*
X53380951Y-138937363D01*
X53380951Y-138937363D02*
X53342856Y-138861173D01*
X53342856Y-138861173D02*
X53304761Y-138823078D01*
X53304761Y-138823078D02*
X53228570Y-138784982D01*
X53228570Y-138784982D02*
X53076189Y-138746887D01*
X53076189Y-138746887D02*
X52999999Y-138708792D01*
X52999999Y-138708792D02*
X52961904Y-138670697D01*
X52961904Y-138670697D02*
X52923808Y-138594506D01*
X52923808Y-138594506D02*
X52923808Y-138518316D01*
X52923808Y-138518316D02*
X52961904Y-138442125D01*
X52961904Y-138442125D02*
X52999999Y-138404030D01*
X52999999Y-138404030D02*
X53076189Y-138365935D01*
X53076189Y-138365935D02*
X53266666Y-138365935D01*
X53266666Y-138365935D02*
X53380951Y-138404030D01*
X53723809Y-139165935D02*
X53723809Y-138365935D01*
X53723809Y-138365935D02*
X54028571Y-138365935D01*
X54028571Y-138365935D02*
X54104761Y-138404030D01*
X54104761Y-138404030D02*
X54142856Y-138442125D01*
X54142856Y-138442125D02*
X54180952Y-138518316D01*
X54180952Y-138518316D02*
X54180952Y-138632601D01*
X54180952Y-138632601D02*
X54142856Y-138708792D01*
X54142856Y-138708792D02*
X54104761Y-138746887D01*
X54104761Y-138746887D02*
X54028571Y-138784982D01*
X54028571Y-138784982D02*
X53723809Y-138784982D01*
X54447618Y-138365935D02*
X54942856Y-138365935D01*
X54942856Y-138365935D02*
X54676190Y-138670697D01*
X54676190Y-138670697D02*
X54790475Y-138670697D01*
X54790475Y-138670697D02*
X54866666Y-138708792D01*
X54866666Y-138708792D02*
X54904761Y-138746887D01*
X54904761Y-138746887D02*
X54942856Y-138823078D01*
X54942856Y-138823078D02*
X54942856Y-139013554D01*
X54942856Y-139013554D02*
X54904761Y-139089744D01*
X54904761Y-139089744D02*
X54866666Y-139127840D01*
X54866666Y-139127840D02*
X54790475Y-139165935D01*
X54790475Y-139165935D02*
X54561904Y-139165935D01*
X54561904Y-139165935D02*
X54485713Y-139127840D01*
X54485713Y-139127840D02*
X54447618Y-139089744D01*
X55247618Y-138442125D02*
X55285714Y-138404030D01*
X55285714Y-138404030D02*
X55361904Y-138365935D01*
X55361904Y-138365935D02*
X55552380Y-138365935D01*
X55552380Y-138365935D02*
X55628571Y-138404030D01*
X55628571Y-138404030D02*
X55666666Y-138442125D01*
X55666666Y-138442125D02*
X55704761Y-138518316D01*
X55704761Y-138518316D02*
X55704761Y-138594506D01*
X55704761Y-138594506D02*
X55666666Y-138708792D01*
X55666666Y-138708792D02*
X55209523Y-139165935D01*
X55209523Y-139165935D02*
X55704761Y-139165935D01*
X56047619Y-138861173D02*
X56657143Y-138861173D01*
X57495238Y-139089744D02*
X57457142Y-139127840D01*
X57457142Y-139127840D02*
X57342857Y-139165935D01*
X57342857Y-139165935D02*
X57266666Y-139165935D01*
X57266666Y-139165935D02*
X57152380Y-139127840D01*
X57152380Y-139127840D02*
X57076190Y-139051649D01*
X57076190Y-139051649D02*
X57038095Y-138975459D01*
X57038095Y-138975459D02*
X56999999Y-138823078D01*
X56999999Y-138823078D02*
X56999999Y-138708792D01*
X56999999Y-138708792D02*
X57038095Y-138556411D01*
X57038095Y-138556411D02*
X57076190Y-138480220D01*
X57076190Y-138480220D02*
X57152380Y-138404030D01*
X57152380Y-138404030D02*
X57266666Y-138365935D01*
X57266666Y-138365935D02*
X57342857Y-138365935D01*
X57342857Y-138365935D02*
X57457142Y-138404030D01*
X57457142Y-138404030D02*
X57495238Y-138442125D01*
X58180952Y-138365935D02*
X58028571Y-138365935D01*
X58028571Y-138365935D02*
X57952380Y-138404030D01*
X57952380Y-138404030D02*
X57914285Y-138442125D01*
X57914285Y-138442125D02*
X57838095Y-138556411D01*
X57838095Y-138556411D02*
X57799999Y-138708792D01*
X57799999Y-138708792D02*
X57799999Y-139013554D01*
X57799999Y-139013554D02*
X57838095Y-139089744D01*
X57838095Y-139089744D02*
X57876190Y-139127840D01*
X57876190Y-139127840D02*
X57952380Y-139165935D01*
X57952380Y-139165935D02*
X58104761Y-139165935D01*
X58104761Y-139165935D02*
X58180952Y-139127840D01*
X58180952Y-139127840D02*
X58219047Y-139089744D01*
X58219047Y-139089744D02*
X58257142Y-139013554D01*
X58257142Y-139013554D02*
X58257142Y-138823078D01*
X58257142Y-138823078D02*
X58219047Y-138746887D01*
X58219047Y-138746887D02*
X58180952Y-138708792D01*
X58180952Y-138708792D02*
X58104761Y-138670697D01*
X58104761Y-138670697D02*
X57952380Y-138670697D01*
X57952380Y-138670697D02*
X57876190Y-138708792D01*
X57876190Y-138708792D02*
X57838095Y-138746887D01*
X57838095Y-138746887D02*
X57799999Y-138823078D01*
D14*
X58194807Y-35745238D02*
X58232902Y-35630952D01*
X58232902Y-35630952D02*
X58270998Y-35592857D01*
X58270998Y-35592857D02*
X58347188Y-35554761D01*
X58347188Y-35554761D02*
X58461474Y-35554761D01*
X58461474Y-35554761D02*
X58537664Y-35592857D01*
X58537664Y-35592857D02*
X58575760Y-35630952D01*
X58575760Y-35630952D02*
X58613855Y-35707142D01*
X58613855Y-35707142D02*
X58613855Y-36011904D01*
X58613855Y-36011904D02*
X57813855Y-36011904D01*
X57813855Y-36011904D02*
X57813855Y-35745238D01*
X57813855Y-35745238D02*
X57851950Y-35669047D01*
X57851950Y-35669047D02*
X57890045Y-35630952D01*
X57890045Y-35630952D02*
X57966236Y-35592857D01*
X57966236Y-35592857D02*
X58042426Y-35592857D01*
X58042426Y-35592857D02*
X58118617Y-35630952D01*
X58118617Y-35630952D02*
X58156712Y-35669047D01*
X58156712Y-35669047D02*
X58194807Y-35745238D01*
X58194807Y-35745238D02*
X58194807Y-36011904D01*
X58194807Y-35211904D02*
X58194807Y-34945238D01*
X58613855Y-34830952D02*
X58613855Y-35211904D01*
X58613855Y-35211904D02*
X57813855Y-35211904D01*
X57813855Y-35211904D02*
X57813855Y-34830952D01*
X58613855Y-34488094D02*
X57813855Y-34488094D01*
X57813855Y-34488094D02*
X58613855Y-34030951D01*
X58613855Y-34030951D02*
X57813855Y-34030951D01*
X58613855Y-33649999D02*
X57813855Y-33649999D01*
X57813855Y-33649999D02*
X57813855Y-33459523D01*
X57813855Y-33459523D02*
X57851950Y-33345237D01*
X57851950Y-33345237D02*
X57928140Y-33269047D01*
X57928140Y-33269047D02*
X58004331Y-33230952D01*
X58004331Y-33230952D02*
X58156712Y-33192856D01*
X58156712Y-33192856D02*
X58270998Y-33192856D01*
X58270998Y-33192856D02*
X58423379Y-33230952D01*
X58423379Y-33230952D02*
X58499569Y-33269047D01*
X58499569Y-33269047D02*
X58575760Y-33345237D01*
X58575760Y-33345237D02*
X58613855Y-33459523D01*
X58613855Y-33459523D02*
X58613855Y-33649999D01*
X58613855Y-32202380D02*
X58613855Y-32049999D01*
X58613855Y-32049999D02*
X58575760Y-31973809D01*
X58575760Y-31973809D02*
X58537664Y-31935713D01*
X58537664Y-31935713D02*
X58423379Y-31859523D01*
X58423379Y-31859523D02*
X58270998Y-31821428D01*
X58270998Y-31821428D02*
X57966236Y-31821428D01*
X57966236Y-31821428D02*
X57890045Y-31859523D01*
X57890045Y-31859523D02*
X57851950Y-31897618D01*
X57851950Y-31897618D02*
X57813855Y-31973809D01*
X57813855Y-31973809D02*
X57813855Y-32126190D01*
X57813855Y-32126190D02*
X57851950Y-32202380D01*
X57851950Y-32202380D02*
X57890045Y-32240475D01*
X57890045Y-32240475D02*
X57966236Y-32278571D01*
X57966236Y-32278571D02*
X58156712Y-32278571D01*
X58156712Y-32278571D02*
X58232902Y-32240475D01*
X58232902Y-32240475D02*
X58270998Y-32202380D01*
X58270998Y-32202380D02*
X58309093Y-32126190D01*
X58309093Y-32126190D02*
X58309093Y-31973809D01*
X58309093Y-31973809D02*
X58270998Y-31897618D01*
X58270998Y-31897618D02*
X58232902Y-31859523D01*
X58232902Y-31859523D02*
X58156712Y-31821428D01*
X57813855Y-31326189D02*
X57813855Y-31249999D01*
X57813855Y-31249999D02*
X57851950Y-31173808D01*
X57851950Y-31173808D02*
X57890045Y-31135713D01*
X57890045Y-31135713D02*
X57966236Y-31097618D01*
X57966236Y-31097618D02*
X58118617Y-31059523D01*
X58118617Y-31059523D02*
X58309093Y-31059523D01*
X58309093Y-31059523D02*
X58461474Y-31097618D01*
X58461474Y-31097618D02*
X58537664Y-31135713D01*
X58537664Y-31135713D02*
X58575760Y-31173808D01*
X58575760Y-31173808D02*
X58613855Y-31249999D01*
X58613855Y-31249999D02*
X58613855Y-31326189D01*
X58613855Y-31326189D02*
X58575760Y-31402380D01*
X58575760Y-31402380D02*
X58537664Y-31440475D01*
X58537664Y-31440475D02*
X58461474Y-31478570D01*
X58461474Y-31478570D02*
X58309093Y-31516666D01*
X58309093Y-31516666D02*
X58118617Y-31516666D01*
X58118617Y-31516666D02*
X57966236Y-31478570D01*
X57966236Y-31478570D02*
X57890045Y-31440475D01*
X57890045Y-31440475D02*
X57851950Y-31402380D01*
X57851950Y-31402380D02*
X57813855Y-31326189D01*
X57813855Y-30602380D02*
X57851950Y-30678570D01*
X57851950Y-30678570D02*
X57928140Y-30716665D01*
X57928140Y-30716665D02*
X58004331Y-30678570D01*
X58004331Y-30678570D02*
X58042426Y-30602380D01*
X58042426Y-30602380D02*
X58004331Y-30526189D01*
X58004331Y-30526189D02*
X57928140Y-30488094D01*
X57928140Y-30488094D02*
X57851950Y-30526189D01*
X57851950Y-30526189D02*
X57813855Y-30602380D01*
D15*
G36*
X46277091Y-47950000D02*
G01*
X45892360Y-47950000D01*
X45892360Y-47340662D01*
X45886303Y-47192358D01*
X45876753Y-47123635D01*
X45863930Y-47083524D01*
X45839519Y-47047471D01*
X45807070Y-47023928D01*
X45766337Y-47010875D01*
X45707712Y-47005854D01*
X45660929Y-47010134D01*
X45612555Y-47023342D01*
X45564640Y-47045066D01*
X45509876Y-47079127D01*
X45509876Y-47950000D01*
X45127294Y-47950000D01*
X45127294Y-46249288D01*
X45509876Y-46249288D01*
X45509876Y-46856573D01*
X45605156Y-46783699D01*
X45692862Y-46731814D01*
X45785758Y-46698408D01*
X45890210Y-46686971D01*
X45982825Y-46695163D01*
X46059718Y-46718212D01*
X46123941Y-46754951D01*
X46177635Y-46805771D01*
X46218669Y-46867046D01*
X46249707Y-46942721D01*
X46269817Y-47035805D01*
X46277091Y-47149958D01*
X46277091Y-47950000D01*
G37*
G36*
X47226907Y-46694793D02*
G01*
X47332349Y-46717007D01*
X47423863Y-46752296D01*
X47503489Y-46800147D01*
X47572751Y-46860872D01*
X47630665Y-46932746D01*
X47676439Y-47014710D01*
X47710226Y-47108224D01*
X47731470Y-47215182D01*
X47738933Y-47337829D01*
X47727443Y-47487991D01*
X47695031Y-47614777D01*
X47643591Y-47722271D01*
X47573337Y-47813614D01*
X47504283Y-47874283D01*
X47424731Y-47922122D01*
X47333134Y-47957432D01*
X47227415Y-47979676D01*
X47105074Y-47987515D01*
X46983709Y-47979710D01*
X46878503Y-47957527D01*
X46787034Y-47922257D01*
X46707295Y-47874395D01*
X46637789Y-47813614D01*
X46579643Y-47741693D01*
X46533726Y-47659801D01*
X46499863Y-47566498D01*
X46478588Y-47459915D01*
X46471250Y-47339979D01*
X46863469Y-47339979D01*
X46868676Y-47446433D01*
X46882032Y-47520816D01*
X46904414Y-47585238D01*
X46930099Y-47630921D01*
X46964795Y-47667795D01*
X47006596Y-47692861D01*
X47054283Y-47707380D01*
X47108298Y-47712400D01*
X47153965Y-47707649D01*
X47201697Y-47692861D01*
X47244782Y-47668210D01*
X47277705Y-47634242D01*
X47306977Y-47583949D01*
X47329094Y-47521891D01*
X47341578Y-47449827D01*
X47346582Y-47339979D01*
X47341600Y-47235946D01*
X47328508Y-47159141D01*
X47306026Y-47091707D01*
X47278780Y-47043565D01*
X47241764Y-47004061D01*
X47202283Y-46980062D01*
X47157693Y-46966769D01*
X47105074Y-46962086D01*
X47055296Y-46966160D01*
X47012067Y-46977815D01*
X46973371Y-46999821D01*
X46935570Y-47038094D01*
X46907327Y-47085579D01*
X46883106Y-47154256D01*
X46868887Y-47232954D01*
X46863469Y-47339979D01*
X46471250Y-47339979D01*
X46471118Y-47337829D01*
X46478634Y-47214137D01*
X46499998Y-47106627D01*
X46533919Y-47012970D01*
X46579805Y-46931198D01*
X46637789Y-46859797D01*
X46707236Y-46799435D01*
X46786942Y-46751870D01*
X46878410Y-46716801D01*
X46983647Y-46694737D01*
X47105074Y-46686971D01*
X47226907Y-46694793D01*
G37*
G36*
X49409359Y-47950000D02*
G01*
X49409359Y-47336266D01*
X49406037Y-47183077D01*
X49399013Y-47123940D01*
X49386400Y-47081374D01*
X49365173Y-47046995D01*
X49335500Y-47023928D01*
X49297141Y-47010955D01*
X49238878Y-47005854D01*
X49195744Y-47010566D01*
X49152513Y-47025003D01*
X49059603Y-47079127D01*
X49059603Y-47950000D01*
X48674872Y-47950000D01*
X48674872Y-47336266D01*
X48671062Y-47183663D01*
X48663570Y-47124003D01*
X48650839Y-47081374D01*
X48629611Y-47046995D01*
X48599938Y-47023928D01*
X48561702Y-47010932D01*
X48504391Y-47005854D01*
X48458273Y-47011245D01*
X48412555Y-47027739D01*
X48325116Y-47079127D01*
X48325116Y-47950000D01*
X47942534Y-47950000D01*
X47942534Y-46724487D01*
X48325116Y-46724487D01*
X48325116Y-46856573D01*
X48419499Y-46783225D01*
X48502143Y-46731814D01*
X48589285Y-46698448D01*
X48689038Y-46686971D01*
X48762506Y-46693188D01*
X48827925Y-46711183D01*
X48886777Y-46740607D01*
X48938226Y-46781299D01*
X48981506Y-46833948D01*
X49016910Y-46900439D01*
X49128216Y-46806389D01*
X49225102Y-46742267D01*
X49292034Y-46711036D01*
X49357865Y-46692919D01*
X49423525Y-46686971D01*
X49505897Y-46694077D01*
X49576519Y-46714326D01*
X49639214Y-46748589D01*
X49691313Y-46796392D01*
X49735862Y-46860359D01*
X49768396Y-46937076D01*
X49786913Y-47025001D01*
X49794090Y-47149958D01*
X49794090Y-47950000D01*
X49409359Y-47950000D01*
G37*
G36*
X50784888Y-46697872D02*
G01*
X50899407Y-46728120D01*
X50992505Y-46775350D01*
X51067963Y-46839085D01*
X51127405Y-46918596D01*
X51171640Y-47015170D01*
X51199950Y-47132303D01*
X51210113Y-47274424D01*
X51210113Y-47412274D01*
X50371871Y-47412274D01*
X50384253Y-47492142D01*
X50407922Y-47553349D01*
X50443748Y-47604574D01*
X50488815Y-47643524D01*
X50541194Y-47671882D01*
X50603511Y-47691591D01*
X50670845Y-47702375D01*
X50746735Y-47706147D01*
X50812961Y-47702379D01*
X50877942Y-47691102D01*
X50940557Y-47673395D01*
X50995961Y-47651535D01*
X51082813Y-47605812D01*
X51147880Y-47562337D01*
X51188326Y-47562337D01*
X51188326Y-47879267D01*
X51102548Y-47913852D01*
X50995961Y-47946189D01*
X50867489Y-47971884D01*
X50706289Y-47981263D01*
X50563616Y-47973523D01*
X50441746Y-47951741D01*
X50337720Y-47917608D01*
X50248978Y-47872148D01*
X50173448Y-47815666D01*
X50108491Y-47746048D01*
X50057534Y-47665884D01*
X50020064Y-47573637D01*
X49996509Y-47467176D01*
X49988215Y-47343886D01*
X49995834Y-47223361D01*
X50004545Y-47180928D01*
X50370699Y-47180928D01*
X50833100Y-47180928D01*
X50824374Y-47100960D01*
X50805004Y-47040303D01*
X50776728Y-46994717D01*
X50737135Y-46960409D01*
X50684452Y-46938745D01*
X50614453Y-46930823D01*
X50543023Y-46938895D01*
X50485987Y-46961507D01*
X50440064Y-46998039D01*
X50405472Y-47046296D01*
X50382072Y-47106279D01*
X50370699Y-47180928D01*
X50004545Y-47180928D01*
X50017637Y-47117160D01*
X50052541Y-47023223D01*
X50100165Y-46939824D01*
X50160846Y-46865659D01*
X50232813Y-46803221D01*
X50315318Y-46754037D01*
X50409902Y-46717788D01*
X50518621Y-46694991D01*
X50643958Y-46686971D01*
X50784888Y-46697872D01*
G37*
G36*
X51740999Y-47950000D02*
G01*
X51740999Y-46630697D01*
X51260036Y-46630697D01*
X51260036Y-46324319D01*
X52630629Y-46324319D01*
X52630629Y-46630697D01*
X52149764Y-46630697D01*
X52149764Y-47950000D01*
X51740999Y-47950000D01*
G37*
G36*
X53927168Y-47950000D02*
G01*
X53542437Y-47950000D01*
X53542437Y-47340662D01*
X53536379Y-47192358D01*
X53526830Y-47123635D01*
X53514007Y-47083524D01*
X53489596Y-47047471D01*
X53457147Y-47023928D01*
X53416414Y-47010875D01*
X53357789Y-47005854D01*
X53311006Y-47010134D01*
X53262632Y-47023342D01*
X53214716Y-47045066D01*
X53159952Y-47079127D01*
X53159952Y-47950000D01*
X52777370Y-47950000D01*
X52777370Y-46249288D01*
X53159952Y-46249288D01*
X53159952Y-46856573D01*
X53255233Y-46783699D01*
X53342939Y-46731814D01*
X53435835Y-46698408D01*
X53540287Y-46686971D01*
X53632902Y-46695163D01*
X53709795Y-46718212D01*
X53774018Y-46754951D01*
X53827712Y-46805771D01*
X53868746Y-46867046D01*
X53899783Y-46942721D01*
X53919894Y-47035805D01*
X53927168Y-47149958D01*
X53927168Y-47950000D01*
G37*
G36*
X54593365Y-47950000D02*
G01*
X54210783Y-47950000D01*
X54210783Y-46724487D01*
X54593365Y-46724487D01*
X54593365Y-47950000D01*
G37*
G36*
X54604307Y-46549413D02*
G01*
X54199841Y-46549413D01*
X54199841Y-46249288D01*
X54604307Y-46249288D01*
X54604307Y-46549413D01*
G37*
G36*
X56035863Y-47950000D02*
G01*
X55651132Y-47950000D01*
X55651132Y-47340662D01*
X55645074Y-47192358D01*
X55635525Y-47123635D01*
X55622702Y-47083524D01*
X55598291Y-47047471D01*
X55565842Y-47023928D01*
X55525109Y-47010875D01*
X55466484Y-47005854D01*
X55419701Y-47010134D01*
X55371327Y-47023342D01*
X55323411Y-47045066D01*
X55268647Y-47079127D01*
X55268647Y-47950000D01*
X54886065Y-47950000D01*
X54886065Y-46724487D01*
X55268647Y-46724487D01*
X55268647Y-46856573D01*
X55363928Y-46783699D01*
X55451634Y-46731814D01*
X55544530Y-46698408D01*
X55648982Y-46686971D01*
X55741597Y-46695163D01*
X55818490Y-46718212D01*
X55882713Y-46754951D01*
X55936407Y-46805771D01*
X55977441Y-46867046D01*
X56008479Y-46942721D01*
X56028589Y-47035805D01*
X56035863Y-47149958D01*
X56035863Y-47950000D01*
G37*
G36*
X56837842Y-46693738D02*
G01*
X56915137Y-46712861D01*
X56986788Y-46742672D01*
X57050741Y-46779197D01*
X57064907Y-46724487D01*
X57435472Y-46724487D01*
X57435472Y-47809902D01*
X57429443Y-47922850D01*
X57412555Y-48018463D01*
X57386233Y-48099281D01*
X57348166Y-48174919D01*
X57303347Y-48236150D01*
X57251802Y-48284905D01*
X57159644Y-48342445D01*
X57047419Y-48382602D01*
X56924595Y-48404844D01*
X56782953Y-48412693D01*
X56662224Y-48408663D01*
X56550629Y-48396964D01*
X56359924Y-48360718D01*
X56359924Y-48056294D01*
X56404767Y-48056294D01*
X56471983Y-48078178D01*
X56550141Y-48100160D01*
X56641878Y-48118039D01*
X56733714Y-48125073D01*
X56826769Y-48119579D01*
X56895989Y-48105045D01*
X56955023Y-48079622D01*
X56993881Y-48048185D01*
X57021529Y-48007192D01*
X57039701Y-47958695D01*
X57049241Y-47903762D01*
X57052890Y-47828464D01*
X57052890Y-47805505D01*
X56983913Y-47856429D01*
X56903707Y-47896852D01*
X56817556Y-47922684D01*
X56729317Y-47931242D01*
X56612278Y-47920654D01*
X56514234Y-47890726D01*
X56431490Y-47842749D01*
X56361488Y-47776001D01*
X56308845Y-47696135D01*
X56268389Y-47594275D01*
X56241780Y-47465440D01*
X56232621Y-47313307D01*
X56623316Y-47313307D01*
X56626149Y-47390271D01*
X56633672Y-47448715D01*
X56648818Y-47501424D01*
X56672458Y-47546706D01*
X56704096Y-47583320D01*
X56744070Y-47609720D01*
X56792007Y-47625287D01*
X56857203Y-47631116D01*
X56908021Y-47626771D01*
X56958319Y-47613628D01*
X57006522Y-47592371D01*
X57052890Y-47563119D01*
X57052890Y-47005268D01*
X56982939Y-46983384D01*
X56899896Y-46974591D01*
X56812385Y-46985391D01*
X56744931Y-47015396D01*
X56692681Y-47063984D01*
X56655900Y-47127173D01*
X56632052Y-47208632D01*
X56623316Y-47313307D01*
X56232621Y-47313307D01*
X56232039Y-47303635D01*
X56242439Y-47163917D01*
X56271899Y-47044542D01*
X56320452Y-46936743D01*
X56382883Y-46848757D01*
X56457583Y-46780187D01*
X56546819Y-46729078D01*
X56645094Y-46697469D01*
X56746903Y-46686971D01*
X56837842Y-46693738D01*
G37*
G36*
X58426317Y-47381011D02*
G01*
X57701697Y-47381011D01*
X57701697Y-47080886D01*
X58426317Y-47080886D01*
X58426317Y-47381011D01*
G37*
G36*
X59294649Y-47981263D02*
G01*
X59146687Y-47971374D01*
X59016407Y-47943063D01*
X58934915Y-47912444D01*
X58862186Y-47873084D01*
X58797273Y-47824947D01*
X58741151Y-47767846D01*
X58693508Y-47701350D01*
X58654146Y-47624375D01*
X58626426Y-47542257D01*
X58608923Y-47447985D01*
X58602758Y-47339588D01*
X58609535Y-47223153D01*
X58628584Y-47124182D01*
X58658445Y-47040048D01*
X58700743Y-46961401D01*
X58750965Y-46894018D01*
X58809289Y-46836741D01*
X58873316Y-46790652D01*
X58944978Y-46752941D01*
X59025200Y-46723607D01*
X59151267Y-46696215D01*
X59283707Y-46686971D01*
X59384996Y-46692796D01*
X59486917Y-46710418D01*
X59587686Y-46740364D01*
X59691397Y-46785059D01*
X59691397Y-47112149D01*
X59642255Y-47112149D01*
X59585884Y-47064277D01*
X59513197Y-47016503D01*
X59419213Y-46977913D01*
X59364942Y-46966207D01*
X59302269Y-46962086D01*
X59230808Y-46968954D01*
X59170553Y-46988469D01*
X59119251Y-47020017D01*
X59075416Y-47064375D01*
X59032420Y-47136669D01*
X59005010Y-47226861D01*
X58995109Y-47339588D01*
X59001443Y-47433150D01*
X59018843Y-47508118D01*
X59045573Y-47567942D01*
X59080887Y-47615387D01*
X59143266Y-47665162D01*
X59218023Y-47695481D01*
X59308815Y-47706147D01*
X59378454Y-47701741D01*
X59435528Y-47689539D01*
X59487769Y-47670588D01*
X59529610Y-47649483D01*
X59595165Y-47601123D01*
X59642255Y-47556085D01*
X59691397Y-47556085D01*
X59691397Y-47885715D01*
X59615388Y-47918639D01*
X59527461Y-47949413D01*
X59423023Y-47972958D01*
X59294649Y-47981263D01*
G37*
G36*
X60829373Y-46303510D02*
G01*
X60939282Y-46320607D01*
X60939282Y-46643203D01*
X60909778Y-46643203D01*
X60815793Y-46611158D01*
X60747644Y-46597928D01*
X60666023Y-46593182D01*
X60570451Y-46600280D01*
X60491257Y-46620122D01*
X60425522Y-46651284D01*
X60370978Y-46693419D01*
X60312792Y-46766268D01*
X60269721Y-46860379D01*
X60243093Y-46980942D01*
X60324329Y-46934373D01*
X60405367Y-46898974D01*
X60491325Y-46876286D01*
X60591774Y-46868297D01*
X60677427Y-46874302D01*
X60756198Y-46891842D01*
X60829650Y-46921008D01*
X60893462Y-46960230D01*
X60945087Y-47007044D01*
X60989634Y-47063178D01*
X61027307Y-47129734D01*
X61053632Y-47201511D01*
X61070803Y-47290089D01*
X61077035Y-47398890D01*
X61066259Y-47525136D01*
X61035250Y-47635950D01*
X60984816Y-47734156D01*
X60914174Y-47821821D01*
X60827966Y-47892494D01*
X60726838Y-47943883D01*
X60607862Y-47976114D01*
X60467112Y-47987515D01*
X60329843Y-47976792D01*
X60213490Y-47946482D01*
X60142121Y-47914363D01*
X60079413Y-47874102D01*
X60024446Y-47825533D01*
X59968733Y-47758642D01*
X59921265Y-47678312D01*
X59882297Y-47582561D01*
X59856039Y-47482129D01*
X59839167Y-47364392D01*
X59835860Y-47288688D01*
X60238696Y-47288688D01*
X60245588Y-47422963D01*
X60263218Y-47516029D01*
X60292799Y-47595350D01*
X60325060Y-47646161D01*
X60356061Y-47676969D01*
X60390029Y-47696964D01*
X60427537Y-47708525D01*
X60467112Y-47712400D01*
X60500208Y-47708518D01*
X60538138Y-47695889D01*
X60573380Y-47675192D01*
X60602716Y-47646161D01*
X60630734Y-47604596D01*
X60651271Y-47559602D01*
X60663272Y-47506598D01*
X60668270Y-47417745D01*
X60662858Y-47342134D01*
X60648536Y-47286538D01*
X60624256Y-47239090D01*
X60592848Y-47203691D01*
X60554319Y-47177648D01*
X60510880Y-47161290D01*
X60413574Y-47149665D01*
X60325549Y-47160704D01*
X60240846Y-47188255D01*
X60239771Y-47224696D01*
X60238696Y-47288688D01*
X59835860Y-47288688D01*
X59833155Y-47226748D01*
X59838655Y-47084016D01*
X59854321Y-46957631D01*
X59879073Y-46845826D01*
X59916511Y-46738249D01*
X59966377Y-46640458D01*
X60028843Y-46551367D01*
X60100716Y-46477368D01*
X60186801Y-46414156D01*
X60288912Y-46361542D01*
X60398132Y-46324640D01*
X60524033Y-46301294D01*
X60669345Y-46293056D01*
X60829373Y-46303510D01*
G37*
G36*
X52063498Y-49012319D02*
G01*
X51503889Y-50638000D01*
X51077636Y-50638000D01*
X50518027Y-49012319D01*
X50942130Y-49012319D01*
X51296184Y-50113952D01*
X51650337Y-49012319D01*
X52063498Y-49012319D01*
G37*
G36*
X52876245Y-48987875D02*
G01*
X52972982Y-49006846D01*
X53053170Y-49036255D01*
X53126762Y-49079010D01*
X53190790Y-49133530D01*
X53246122Y-49200777D01*
X53289753Y-49275015D01*
X53325852Y-49362539D01*
X53353784Y-49465341D01*
X53378235Y-49628792D01*
X53387099Y-49827211D01*
X53378024Y-50031458D01*
X53353198Y-50196702D01*
X53324858Y-50300235D01*
X53288581Y-50387707D01*
X53245047Y-50461265D01*
X53190454Y-50526214D01*
X53126290Y-50579336D01*
X53051509Y-50621391D01*
X52970331Y-50650346D01*
X52874005Y-50668893D01*
X52759785Y-50675515D01*
X52646237Y-50668908D01*
X52550177Y-50650375D01*
X52468941Y-50621391D01*
X52394315Y-50579237D01*
X52329799Y-50525410D01*
X52274426Y-50459018D01*
X52230780Y-50384870D01*
X52194523Y-50297530D01*
X52166275Y-50195041D01*
X52141461Y-50031385D01*
X52132422Y-49829360D01*
X52542214Y-49829360D01*
X52549460Y-50030481D01*
X52567694Y-50165417D01*
X52592430Y-50251217D01*
X52623522Y-50307957D01*
X52661055Y-50345539D01*
X52705680Y-50367704D01*
X52759785Y-50375390D01*
X52813838Y-50367706D01*
X52858413Y-50345544D01*
X52895900Y-50307964D01*
X52926945Y-50251217D01*
X52951702Y-50165368D01*
X52969985Y-50029827D01*
X52977259Y-49827211D01*
X52970022Y-49622991D01*
X52951910Y-49487734D01*
X52927531Y-49403205D01*
X52896823Y-49347690D01*
X52859402Y-49310732D01*
X52814543Y-49288813D01*
X52759785Y-49281182D01*
X52705532Y-49288779D01*
X52660871Y-49310647D01*
X52623403Y-49347604D01*
X52592430Y-49403205D01*
X52567835Y-49487797D01*
X52549535Y-49623655D01*
X52542214Y-49829360D01*
X52132422Y-49829360D01*
X52132374Y-49828286D01*
X52141433Y-49619769D01*
X52165689Y-49458795D01*
X52193670Y-49359058D01*
X52230797Y-49271724D01*
X52276673Y-49195306D01*
X52332777Y-49129034D01*
X52398000Y-49075603D01*
X52473337Y-49034106D01*
X52555179Y-49005541D01*
X52649935Y-48987450D01*
X52759785Y-48981056D01*
X52876245Y-48987875D01*
G37*
G36*
X54015877Y-50638000D02*
G01*
X53628997Y-50638000D01*
X53628997Y-50206569D01*
X54015877Y-50206569D01*
X54015877Y-50638000D01*
G37*
G36*
X55460036Y-50638000D02*
G01*
X54384586Y-50638000D01*
X54384586Y-50356632D01*
X54727699Y-50356632D01*
X54727699Y-49493771D01*
X54384586Y-49493771D01*
X54384586Y-49231161D01*
X54534258Y-49221489D01*
X54604454Y-49207928D01*
X54653449Y-49190226D01*
X54700502Y-49159418D01*
X54734733Y-49120665D01*
X54757141Y-49073194D01*
X54768145Y-49012319D01*
X55124545Y-49012319D01*
X55124545Y-50356632D01*
X55460036Y-50356632D01*
X55460036Y-50638000D01*
G37*
D16*
X60884819Y-119916666D02*
X60408628Y-120249999D01*
X60884819Y-120488094D02*
X59884819Y-120488094D01*
X59884819Y-120488094D02*
X59884819Y-120107142D01*
X59884819Y-120107142D02*
X59932438Y-120011904D01*
X59932438Y-120011904D02*
X59980057Y-119964285D01*
X59980057Y-119964285D02*
X60075295Y-119916666D01*
X60075295Y-119916666D02*
X60218152Y-119916666D01*
X60218152Y-119916666D02*
X60313390Y-119964285D01*
X60313390Y-119964285D02*
X60361009Y-120011904D01*
X60361009Y-120011904D02*
X60408628Y-120107142D01*
X60408628Y-120107142D02*
X60408628Y-120488094D01*
X60218152Y-119059523D02*
X60884819Y-119059523D01*
X59837200Y-119297618D02*
X60551485Y-119535713D01*
X60551485Y-119535713D02*
X60551485Y-118916666D01*
X55833333Y-123859580D02*
X55785714Y-123907200D01*
X55785714Y-123907200D02*
X55642857Y-123954819D01*
X55642857Y-123954819D02*
X55547619Y-123954819D01*
X55547619Y-123954819D02*
X55404762Y-123907200D01*
X55404762Y-123907200D02*
X55309524Y-123811961D01*
X55309524Y-123811961D02*
X55261905Y-123716723D01*
X55261905Y-123716723D02*
X55214286Y-123526247D01*
X55214286Y-123526247D02*
X55214286Y-123383390D01*
X55214286Y-123383390D02*
X55261905Y-123192914D01*
X55261905Y-123192914D02*
X55309524Y-123097676D01*
X55309524Y-123097676D02*
X55404762Y-123002438D01*
X55404762Y-123002438D02*
X55547619Y-122954819D01*
X55547619Y-122954819D02*
X55642857Y-122954819D01*
X55642857Y-122954819D02*
X55785714Y-123002438D01*
X55785714Y-123002438D02*
X55833333Y-123050057D01*
X56785714Y-123954819D02*
X56214286Y-123954819D01*
X56500000Y-123954819D02*
X56500000Y-122954819D01*
X56500000Y-122954819D02*
X56404762Y-123097676D01*
X56404762Y-123097676D02*
X56309524Y-123192914D01*
X56309524Y-123192914D02*
X56214286Y-123240533D01*
X68230761Y-34954057D02*
X68135523Y-34906438D01*
X68135523Y-34906438D02*
X68040285Y-34811200D01*
X68040285Y-34811200D02*
X67897428Y-34668342D01*
X67897428Y-34668342D02*
X67802190Y-34620723D01*
X67802190Y-34620723D02*
X67706952Y-34620723D01*
X67754571Y-34858819D02*
X67659333Y-34811200D01*
X67659333Y-34811200D02*
X67564095Y-34715961D01*
X67564095Y-34715961D02*
X67516476Y-34525485D01*
X67516476Y-34525485D02*
X67516476Y-34192152D01*
X67516476Y-34192152D02*
X67564095Y-34001676D01*
X67564095Y-34001676D02*
X67659333Y-33906438D01*
X67659333Y-33906438D02*
X67754571Y-33858819D01*
X67754571Y-33858819D02*
X67945047Y-33858819D01*
X67945047Y-33858819D02*
X68040285Y-33906438D01*
X68040285Y-33906438D02*
X68135523Y-34001676D01*
X68135523Y-34001676D02*
X68183142Y-34192152D01*
X68183142Y-34192152D02*
X68183142Y-34525485D01*
X68183142Y-34525485D02*
X68135523Y-34715961D01*
X68135523Y-34715961D02*
X68040285Y-34811200D01*
X68040285Y-34811200D02*
X67945047Y-34858819D01*
X67945047Y-34858819D02*
X67754571Y-34858819D01*
X69135523Y-34858819D02*
X68564095Y-34858819D01*
X68849809Y-34858819D02*
X68849809Y-33858819D01*
X68849809Y-33858819D02*
X68754571Y-34001676D01*
X68754571Y-34001676D02*
X68659333Y-34096914D01*
X68659333Y-34096914D02*
X68564095Y-34144533D01*
X63564476Y-104172200D02*
X63707333Y-104219819D01*
X63707333Y-104219819D02*
X63945428Y-104219819D01*
X63945428Y-104219819D02*
X64040666Y-104172200D01*
X64040666Y-104172200D02*
X64088285Y-104124580D01*
X64088285Y-104124580D02*
X64135904Y-104029342D01*
X64135904Y-104029342D02*
X64135904Y-103934104D01*
X64135904Y-103934104D02*
X64088285Y-103838866D01*
X64088285Y-103838866D02*
X64040666Y-103791247D01*
X64040666Y-103791247D02*
X63945428Y-103743628D01*
X63945428Y-103743628D02*
X63754952Y-103696009D01*
X63754952Y-103696009D02*
X63659714Y-103648390D01*
X63659714Y-103648390D02*
X63612095Y-103600771D01*
X63612095Y-103600771D02*
X63564476Y-103505533D01*
X63564476Y-103505533D02*
X63564476Y-103410295D01*
X63564476Y-103410295D02*
X63612095Y-103315057D01*
X63612095Y-103315057D02*
X63659714Y-103267438D01*
X63659714Y-103267438D02*
X63754952Y-103219819D01*
X63754952Y-103219819D02*
X63993047Y-103219819D01*
X63993047Y-103219819D02*
X64135904Y-103267438D01*
X64469238Y-103219819D02*
X64707333Y-104219819D01*
X64707333Y-104219819D02*
X64897809Y-103505533D01*
X64897809Y-103505533D02*
X65088285Y-104219819D01*
X65088285Y-104219819D02*
X65326381Y-103219819D01*
X66231142Y-104219819D02*
X65659714Y-104219819D01*
X65945428Y-104219819D02*
X65945428Y-103219819D01*
X65945428Y-103219819D02*
X65850190Y-103362676D01*
X65850190Y-103362676D02*
X65754952Y-103457914D01*
X65754952Y-103457914D02*
X65659714Y-103505533D01*
X66850190Y-103219819D02*
X66945428Y-103219819D01*
X66945428Y-103219819D02*
X67040666Y-103267438D01*
X67040666Y-103267438D02*
X67088285Y-103315057D01*
X67088285Y-103315057D02*
X67135904Y-103410295D01*
X67135904Y-103410295D02*
X67183523Y-103600771D01*
X67183523Y-103600771D02*
X67183523Y-103838866D01*
X67183523Y-103838866D02*
X67135904Y-104029342D01*
X67135904Y-104029342D02*
X67088285Y-104124580D01*
X67088285Y-104124580D02*
X67040666Y-104172200D01*
X67040666Y-104172200D02*
X66945428Y-104219819D01*
X66945428Y-104219819D02*
X66850190Y-104219819D01*
X66850190Y-104219819D02*
X66754952Y-104172200D01*
X66754952Y-104172200D02*
X66707333Y-104124580D01*
X66707333Y-104124580D02*
X66659714Y-104029342D01*
X66659714Y-104029342D02*
X66612095Y-103838866D01*
X66612095Y-103838866D02*
X66612095Y-103600771D01*
X66612095Y-103600771D02*
X66659714Y-103410295D01*
X66659714Y-103410295D02*
X66707333Y-103315057D01*
X66707333Y-103315057D02*
X66754952Y-103267438D01*
X66754952Y-103267438D02*
X66850190Y-103219819D01*
X64040667Y-116618200D02*
X64183524Y-116665819D01*
X64183524Y-116665819D02*
X64421619Y-116665819D01*
X64421619Y-116665819D02*
X64516857Y-116618200D01*
X64516857Y-116618200D02*
X64564476Y-116570580D01*
X64564476Y-116570580D02*
X64612095Y-116475342D01*
X64612095Y-116475342D02*
X64612095Y-116380104D01*
X64612095Y-116380104D02*
X64564476Y-116284866D01*
X64564476Y-116284866D02*
X64516857Y-116237247D01*
X64516857Y-116237247D02*
X64421619Y-116189628D01*
X64421619Y-116189628D02*
X64231143Y-116142009D01*
X64231143Y-116142009D02*
X64135905Y-116094390D01*
X64135905Y-116094390D02*
X64088286Y-116046771D01*
X64088286Y-116046771D02*
X64040667Y-115951533D01*
X64040667Y-115951533D02*
X64040667Y-115856295D01*
X64040667Y-115856295D02*
X64088286Y-115761057D01*
X64088286Y-115761057D02*
X64135905Y-115713438D01*
X64135905Y-115713438D02*
X64231143Y-115665819D01*
X64231143Y-115665819D02*
X64469238Y-115665819D01*
X64469238Y-115665819D02*
X64612095Y-115713438D01*
X64945429Y-115665819D02*
X65183524Y-116665819D01*
X65183524Y-116665819D02*
X65374000Y-115951533D01*
X65374000Y-115951533D02*
X65564476Y-116665819D01*
X65564476Y-116665819D02*
X65802572Y-115665819D01*
X66231143Y-116665819D02*
X66421619Y-116665819D01*
X66421619Y-116665819D02*
X66516857Y-116618200D01*
X66516857Y-116618200D02*
X66564476Y-116570580D01*
X66564476Y-116570580D02*
X66659714Y-116427723D01*
X66659714Y-116427723D02*
X66707333Y-116237247D01*
X66707333Y-116237247D02*
X66707333Y-115856295D01*
X66707333Y-115856295D02*
X66659714Y-115761057D01*
X66659714Y-115761057D02*
X66612095Y-115713438D01*
X66612095Y-115713438D02*
X66516857Y-115665819D01*
X66516857Y-115665819D02*
X66326381Y-115665819D01*
X66326381Y-115665819D02*
X66231143Y-115713438D01*
X66231143Y-115713438D02*
X66183524Y-115761057D01*
X66183524Y-115761057D02*
X66135905Y-115856295D01*
X66135905Y-115856295D02*
X66135905Y-116094390D01*
X66135905Y-116094390D02*
X66183524Y-116189628D01*
X66183524Y-116189628D02*
X66231143Y-116237247D01*
X66231143Y-116237247D02*
X66326381Y-116284866D01*
X66326381Y-116284866D02*
X66516857Y-116284866D01*
X66516857Y-116284866D02*
X66612095Y-116237247D01*
X66612095Y-116237247D02*
X66659714Y-116189628D01*
X66659714Y-116189628D02*
X66707333Y-116094390D01*
X37179580Y-148866666D02*
X37227200Y-148914285D01*
X37227200Y-148914285D02*
X37274819Y-149057142D01*
X37274819Y-149057142D02*
X37274819Y-149152380D01*
X37274819Y-149152380D02*
X37227200Y-149295237D01*
X37227200Y-149295237D02*
X37131961Y-149390475D01*
X37131961Y-149390475D02*
X37036723Y-149438094D01*
X37036723Y-149438094D02*
X36846247Y-149485713D01*
X36846247Y-149485713D02*
X36703390Y-149485713D01*
X36703390Y-149485713D02*
X36512914Y-149438094D01*
X36512914Y-149438094D02*
X36417676Y-149390475D01*
X36417676Y-149390475D02*
X36322438Y-149295237D01*
X36322438Y-149295237D02*
X36274819Y-149152380D01*
X36274819Y-149152380D02*
X36274819Y-149057142D01*
X36274819Y-149057142D02*
X36322438Y-148914285D01*
X36322438Y-148914285D02*
X36370057Y-148866666D01*
X36370057Y-148485713D02*
X36322438Y-148438094D01*
X36322438Y-148438094D02*
X36274819Y-148342856D01*
X36274819Y-148342856D02*
X36274819Y-148104761D01*
X36274819Y-148104761D02*
X36322438Y-148009523D01*
X36322438Y-148009523D02*
X36370057Y-147961904D01*
X36370057Y-147961904D02*
X36465295Y-147914285D01*
X36465295Y-147914285D02*
X36560533Y-147914285D01*
X36560533Y-147914285D02*
X36703390Y-147961904D01*
X36703390Y-147961904D02*
X37274819Y-148533332D01*
X37274819Y-148533332D02*
X37274819Y-147914285D01*
X40333333Y-37289580D02*
X40285714Y-37337200D01*
X40285714Y-37337200D02*
X40142857Y-37384819D01*
X40142857Y-37384819D02*
X40047619Y-37384819D01*
X40047619Y-37384819D02*
X39904762Y-37337200D01*
X39904762Y-37337200D02*
X39809524Y-37241961D01*
X39809524Y-37241961D02*
X39761905Y-37146723D01*
X39761905Y-37146723D02*
X39714286Y-36956247D01*
X39714286Y-36956247D02*
X39714286Y-36813390D01*
X39714286Y-36813390D02*
X39761905Y-36622914D01*
X39761905Y-36622914D02*
X39809524Y-36527676D01*
X39809524Y-36527676D02*
X39904762Y-36432438D01*
X39904762Y-36432438D02*
X40047619Y-36384819D01*
X40047619Y-36384819D02*
X40142857Y-36384819D01*
X40142857Y-36384819D02*
X40285714Y-36432438D01*
X40285714Y-36432438D02*
X40333333Y-36480057D01*
X40666667Y-36384819D02*
X41285714Y-36384819D01*
X41285714Y-36384819D02*
X40952381Y-36765771D01*
X40952381Y-36765771D02*
X41095238Y-36765771D01*
X41095238Y-36765771D02*
X41190476Y-36813390D01*
X41190476Y-36813390D02*
X41238095Y-36861009D01*
X41238095Y-36861009D02*
X41285714Y-36956247D01*
X41285714Y-36956247D02*
X41285714Y-37194342D01*
X41285714Y-37194342D02*
X41238095Y-37289580D01*
X41238095Y-37289580D02*
X41190476Y-37337200D01*
X41190476Y-37337200D02*
X41095238Y-37384819D01*
X41095238Y-37384819D02*
X40809524Y-37384819D01*
X40809524Y-37384819D02*
X40714286Y-37337200D01*
X40714286Y-37337200D02*
X40666667Y-37289580D01*
X39148667Y-116618200D02*
X39291524Y-116665819D01*
X39291524Y-116665819D02*
X39529619Y-116665819D01*
X39529619Y-116665819D02*
X39624857Y-116618200D01*
X39624857Y-116618200D02*
X39672476Y-116570580D01*
X39672476Y-116570580D02*
X39720095Y-116475342D01*
X39720095Y-116475342D02*
X39720095Y-116380104D01*
X39720095Y-116380104D02*
X39672476Y-116284866D01*
X39672476Y-116284866D02*
X39624857Y-116237247D01*
X39624857Y-116237247D02*
X39529619Y-116189628D01*
X39529619Y-116189628D02*
X39339143Y-116142009D01*
X39339143Y-116142009D02*
X39243905Y-116094390D01*
X39243905Y-116094390D02*
X39196286Y-116046771D01*
X39196286Y-116046771D02*
X39148667Y-115951533D01*
X39148667Y-115951533D02*
X39148667Y-115856295D01*
X39148667Y-115856295D02*
X39196286Y-115761057D01*
X39196286Y-115761057D02*
X39243905Y-115713438D01*
X39243905Y-115713438D02*
X39339143Y-115665819D01*
X39339143Y-115665819D02*
X39577238Y-115665819D01*
X39577238Y-115665819D02*
X39720095Y-115713438D01*
X40053429Y-115665819D02*
X40291524Y-116665819D01*
X40291524Y-116665819D02*
X40482000Y-115951533D01*
X40482000Y-115951533D02*
X40672476Y-116665819D01*
X40672476Y-116665819D02*
X40910572Y-115665819D01*
X41767714Y-115665819D02*
X41291524Y-115665819D01*
X41291524Y-115665819D02*
X41243905Y-116142009D01*
X41243905Y-116142009D02*
X41291524Y-116094390D01*
X41291524Y-116094390D02*
X41386762Y-116046771D01*
X41386762Y-116046771D02*
X41624857Y-116046771D01*
X41624857Y-116046771D02*
X41720095Y-116094390D01*
X41720095Y-116094390D02*
X41767714Y-116142009D01*
X41767714Y-116142009D02*
X41815333Y-116237247D01*
X41815333Y-116237247D02*
X41815333Y-116475342D01*
X41815333Y-116475342D02*
X41767714Y-116570580D01*
X41767714Y-116570580D02*
X41720095Y-116618200D01*
X41720095Y-116618200D02*
X41624857Y-116665819D01*
X41624857Y-116665819D02*
X41386762Y-116665819D01*
X41386762Y-116665819D02*
X41291524Y-116618200D01*
X41291524Y-116618200D02*
X41243905Y-116570580D01*
X44166667Y-41907200D02*
X44309524Y-41954819D01*
X44309524Y-41954819D02*
X44547619Y-41954819D01*
X44547619Y-41954819D02*
X44642857Y-41907200D01*
X44642857Y-41907200D02*
X44690476Y-41859580D01*
X44690476Y-41859580D02*
X44738095Y-41764342D01*
X44738095Y-41764342D02*
X44738095Y-41669104D01*
X44738095Y-41669104D02*
X44690476Y-41573866D01*
X44690476Y-41573866D02*
X44642857Y-41526247D01*
X44642857Y-41526247D02*
X44547619Y-41478628D01*
X44547619Y-41478628D02*
X44357143Y-41431009D01*
X44357143Y-41431009D02*
X44261905Y-41383390D01*
X44261905Y-41383390D02*
X44214286Y-41335771D01*
X44214286Y-41335771D02*
X44166667Y-41240533D01*
X44166667Y-41240533D02*
X44166667Y-41145295D01*
X44166667Y-41145295D02*
X44214286Y-41050057D01*
X44214286Y-41050057D02*
X44261905Y-41002438D01*
X44261905Y-41002438D02*
X44357143Y-40954819D01*
X44357143Y-40954819D02*
X44595238Y-40954819D01*
X44595238Y-40954819D02*
X44738095Y-41002438D01*
X45071429Y-40954819D02*
X45309524Y-41954819D01*
X45309524Y-41954819D02*
X45500000Y-41240533D01*
X45500000Y-41240533D02*
X45690476Y-41954819D01*
X45690476Y-41954819D02*
X45928572Y-40954819D01*
X46261905Y-41050057D02*
X46309524Y-41002438D01*
X46309524Y-41002438D02*
X46404762Y-40954819D01*
X46404762Y-40954819D02*
X46642857Y-40954819D01*
X46642857Y-40954819D02*
X46738095Y-41002438D01*
X46738095Y-41002438D02*
X46785714Y-41050057D01*
X46785714Y-41050057D02*
X46833333Y-41145295D01*
X46833333Y-41145295D02*
X46833333Y-41240533D01*
X46833333Y-41240533D02*
X46785714Y-41383390D01*
X46785714Y-41383390D02*
X46214286Y-41954819D01*
X46214286Y-41954819D02*
X46833333Y-41954819D01*
X51594667Y-104172200D02*
X51737524Y-104219819D01*
X51737524Y-104219819D02*
X51975619Y-104219819D01*
X51975619Y-104219819D02*
X52070857Y-104172200D01*
X52070857Y-104172200D02*
X52118476Y-104124580D01*
X52118476Y-104124580D02*
X52166095Y-104029342D01*
X52166095Y-104029342D02*
X52166095Y-103934104D01*
X52166095Y-103934104D02*
X52118476Y-103838866D01*
X52118476Y-103838866D02*
X52070857Y-103791247D01*
X52070857Y-103791247D02*
X51975619Y-103743628D01*
X51975619Y-103743628D02*
X51785143Y-103696009D01*
X51785143Y-103696009D02*
X51689905Y-103648390D01*
X51689905Y-103648390D02*
X51642286Y-103600771D01*
X51642286Y-103600771D02*
X51594667Y-103505533D01*
X51594667Y-103505533D02*
X51594667Y-103410295D01*
X51594667Y-103410295D02*
X51642286Y-103315057D01*
X51642286Y-103315057D02*
X51689905Y-103267438D01*
X51689905Y-103267438D02*
X51785143Y-103219819D01*
X51785143Y-103219819D02*
X52023238Y-103219819D01*
X52023238Y-103219819D02*
X52166095Y-103267438D01*
X52499429Y-103219819D02*
X52737524Y-104219819D01*
X52737524Y-104219819D02*
X52928000Y-103505533D01*
X52928000Y-103505533D02*
X53118476Y-104219819D01*
X53118476Y-104219819D02*
X53356572Y-103219819D01*
X53642286Y-103219819D02*
X54308952Y-103219819D01*
X54308952Y-103219819D02*
X53880381Y-104219819D01*
X69634819Y-155166666D02*
X69158628Y-155499999D01*
X69634819Y-155738094D02*
X68634819Y-155738094D01*
X68634819Y-155738094D02*
X68634819Y-155357142D01*
X68634819Y-155357142D02*
X68682438Y-155261904D01*
X68682438Y-155261904D02*
X68730057Y-155214285D01*
X68730057Y-155214285D02*
X68825295Y-155166666D01*
X68825295Y-155166666D02*
X68968152Y-155166666D01*
X68968152Y-155166666D02*
X69063390Y-155214285D01*
X69063390Y-155214285D02*
X69111009Y-155261904D01*
X69111009Y-155261904D02*
X69158628Y-155357142D01*
X69158628Y-155357142D02*
X69158628Y-155738094D01*
X69634819Y-154690475D02*
X69634819Y-154499999D01*
X69634819Y-154499999D02*
X69587200Y-154404761D01*
X69587200Y-154404761D02*
X69539580Y-154357142D01*
X69539580Y-154357142D02*
X69396723Y-154261904D01*
X69396723Y-154261904D02*
X69206247Y-154214285D01*
X69206247Y-154214285D02*
X68825295Y-154214285D01*
X68825295Y-154214285D02*
X68730057Y-154261904D01*
X68730057Y-154261904D02*
X68682438Y-154309523D01*
X68682438Y-154309523D02*
X68634819Y-154404761D01*
X68634819Y-154404761D02*
X68634819Y-154595237D01*
X68634819Y-154595237D02*
X68682438Y-154690475D01*
X68682438Y-154690475D02*
X68730057Y-154738094D01*
X68730057Y-154738094D02*
X68825295Y-154785713D01*
X68825295Y-154785713D02*
X69063390Y-154785713D01*
X69063390Y-154785713D02*
X69158628Y-154738094D01*
X69158628Y-154738094D02*
X69206247Y-154690475D01*
X69206247Y-154690475D02*
X69253866Y-154595237D01*
X69253866Y-154595237D02*
X69253866Y-154404761D01*
X69253866Y-154404761D02*
X69206247Y-154309523D01*
X69206247Y-154309523D02*
X69158628Y-154261904D01*
X69158628Y-154261904D02*
X69063390Y-154214285D01*
X62029360Y-36672819D02*
X62029360Y-35672819D01*
X62029360Y-35672819D02*
X62267455Y-35672819D01*
X62267455Y-35672819D02*
X62410312Y-35720438D01*
X62410312Y-35720438D02*
X62505550Y-35815676D01*
X62505550Y-35815676D02*
X62553169Y-35910914D01*
X62553169Y-35910914D02*
X62600788Y-36101390D01*
X62600788Y-36101390D02*
X62600788Y-36244247D01*
X62600788Y-36244247D02*
X62553169Y-36434723D01*
X62553169Y-36434723D02*
X62505550Y-36529961D01*
X62505550Y-36529961D02*
X62410312Y-36625200D01*
X62410312Y-36625200D02*
X62267455Y-36672819D01*
X62267455Y-36672819D02*
X62029360Y-36672819D01*
X63553169Y-36672819D02*
X62981741Y-36672819D01*
X63267455Y-36672819D02*
X63267455Y-35672819D01*
X63267455Y-35672819D02*
X63172217Y-35815676D01*
X63172217Y-35815676D02*
X63076979Y-35910914D01*
X63076979Y-35910914D02*
X62981741Y-35958533D01*
X39091577Y-104198200D02*
X39234434Y-104245819D01*
X39234434Y-104245819D02*
X39472529Y-104245819D01*
X39472529Y-104245819D02*
X39567767Y-104198200D01*
X39567767Y-104198200D02*
X39615386Y-104150580D01*
X39615386Y-104150580D02*
X39663005Y-104055342D01*
X39663005Y-104055342D02*
X39663005Y-103960104D01*
X39663005Y-103960104D02*
X39615386Y-103864866D01*
X39615386Y-103864866D02*
X39567767Y-103817247D01*
X39567767Y-103817247D02*
X39472529Y-103769628D01*
X39472529Y-103769628D02*
X39282053Y-103722009D01*
X39282053Y-103722009D02*
X39186815Y-103674390D01*
X39186815Y-103674390D02*
X39139196Y-103626771D01*
X39139196Y-103626771D02*
X39091577Y-103531533D01*
X39091577Y-103531533D02*
X39091577Y-103436295D01*
X39091577Y-103436295D02*
X39139196Y-103341057D01*
X39139196Y-103341057D02*
X39186815Y-103293438D01*
X39186815Y-103293438D02*
X39282053Y-103245819D01*
X39282053Y-103245819D02*
X39520148Y-103245819D01*
X39520148Y-103245819D02*
X39663005Y-103293438D01*
X39996339Y-103245819D02*
X40234434Y-104245819D01*
X40234434Y-104245819D02*
X40424910Y-103531533D01*
X40424910Y-103531533D02*
X40615386Y-104245819D01*
X40615386Y-104245819D02*
X40853482Y-103245819D01*
X41663005Y-103579152D02*
X41663005Y-104245819D01*
X41424910Y-103198200D02*
X41186815Y-103912485D01*
X41186815Y-103912485D02*
X41805862Y-103912485D01*
X38333333Y-32024819D02*
X38000000Y-31548628D01*
X37761905Y-32024819D02*
X37761905Y-31024819D01*
X37761905Y-31024819D02*
X38142857Y-31024819D01*
X38142857Y-31024819D02*
X38238095Y-31072438D01*
X38238095Y-31072438D02*
X38285714Y-31120057D01*
X38285714Y-31120057D02*
X38333333Y-31215295D01*
X38333333Y-31215295D02*
X38333333Y-31358152D01*
X38333333Y-31358152D02*
X38285714Y-31453390D01*
X38285714Y-31453390D02*
X38238095Y-31501009D01*
X38238095Y-31501009D02*
X38142857Y-31548628D01*
X38142857Y-31548628D02*
X37761905Y-31548628D01*
X39190476Y-31024819D02*
X39000000Y-31024819D01*
X39000000Y-31024819D02*
X38904762Y-31072438D01*
X38904762Y-31072438D02*
X38857143Y-31120057D01*
X38857143Y-31120057D02*
X38761905Y-31262914D01*
X38761905Y-31262914D02*
X38714286Y-31453390D01*
X38714286Y-31453390D02*
X38714286Y-31834342D01*
X38714286Y-31834342D02*
X38761905Y-31929580D01*
X38761905Y-31929580D02*
X38809524Y-31977200D01*
X38809524Y-31977200D02*
X38904762Y-32024819D01*
X38904762Y-32024819D02*
X39095238Y-32024819D01*
X39095238Y-32024819D02*
X39190476Y-31977200D01*
X39190476Y-31977200D02*
X39238095Y-31929580D01*
X39238095Y-31929580D02*
X39285714Y-31834342D01*
X39285714Y-31834342D02*
X39285714Y-31596247D01*
X39285714Y-31596247D02*
X39238095Y-31501009D01*
X39238095Y-31501009D02*
X39190476Y-31453390D01*
X39190476Y-31453390D02*
X39095238Y-31405771D01*
X39095238Y-31405771D02*
X38904762Y-31405771D01*
X38904762Y-31405771D02*
X38809524Y-31453390D01*
X38809524Y-31453390D02*
X38761905Y-31501009D01*
X38761905Y-31501009D02*
X38714286Y-31596247D01*
X43220095Y-34724819D02*
X43220095Y-35534342D01*
X43220095Y-35534342D02*
X43267714Y-35629580D01*
X43267714Y-35629580D02*
X43315333Y-35677200D01*
X43315333Y-35677200D02*
X43410571Y-35724819D01*
X43410571Y-35724819D02*
X43601047Y-35724819D01*
X43601047Y-35724819D02*
X43696285Y-35677200D01*
X43696285Y-35677200D02*
X43743904Y-35629580D01*
X43743904Y-35629580D02*
X43791523Y-35534342D01*
X43791523Y-35534342D02*
X43791523Y-34724819D01*
X44220095Y-34820057D02*
X44267714Y-34772438D01*
X44267714Y-34772438D02*
X44362952Y-34724819D01*
X44362952Y-34724819D02*
X44601047Y-34724819D01*
X44601047Y-34724819D02*
X44696285Y-34772438D01*
X44696285Y-34772438D02*
X44743904Y-34820057D01*
X44743904Y-34820057D02*
X44791523Y-34915295D01*
X44791523Y-34915295D02*
X44791523Y-35010533D01*
X44791523Y-35010533D02*
X44743904Y-35153390D01*
X44743904Y-35153390D02*
X44172476Y-35724819D01*
X44172476Y-35724819D02*
X44791523Y-35724819D01*
X41384819Y-145341666D02*
X40908628Y-145674999D01*
X41384819Y-145913094D02*
X40384819Y-145913094D01*
X40384819Y-145913094D02*
X40384819Y-145532142D01*
X40384819Y-145532142D02*
X40432438Y-145436904D01*
X40432438Y-145436904D02*
X40480057Y-145389285D01*
X40480057Y-145389285D02*
X40575295Y-145341666D01*
X40575295Y-145341666D02*
X40718152Y-145341666D01*
X40718152Y-145341666D02*
X40813390Y-145389285D01*
X40813390Y-145389285D02*
X40861009Y-145436904D01*
X40861009Y-145436904D02*
X40908628Y-145532142D01*
X40908628Y-145532142D02*
X40908628Y-145913094D01*
X40480057Y-144960713D02*
X40432438Y-144913094D01*
X40432438Y-144913094D02*
X40384819Y-144817856D01*
X40384819Y-144817856D02*
X40384819Y-144579761D01*
X40384819Y-144579761D02*
X40432438Y-144484523D01*
X40432438Y-144484523D02*
X40480057Y-144436904D01*
X40480057Y-144436904D02*
X40575295Y-144389285D01*
X40575295Y-144389285D02*
X40670533Y-144389285D01*
X40670533Y-144389285D02*
X40813390Y-144436904D01*
X40813390Y-144436904D02*
X41384819Y-145008332D01*
X41384819Y-145008332D02*
X41384819Y-144389285D01*
X60166667Y-41907200D02*
X60309524Y-41954819D01*
X60309524Y-41954819D02*
X60547619Y-41954819D01*
X60547619Y-41954819D02*
X60642857Y-41907200D01*
X60642857Y-41907200D02*
X60690476Y-41859580D01*
X60690476Y-41859580D02*
X60738095Y-41764342D01*
X60738095Y-41764342D02*
X60738095Y-41669104D01*
X60738095Y-41669104D02*
X60690476Y-41573866D01*
X60690476Y-41573866D02*
X60642857Y-41526247D01*
X60642857Y-41526247D02*
X60547619Y-41478628D01*
X60547619Y-41478628D02*
X60357143Y-41431009D01*
X60357143Y-41431009D02*
X60261905Y-41383390D01*
X60261905Y-41383390D02*
X60214286Y-41335771D01*
X60214286Y-41335771D02*
X60166667Y-41240533D01*
X60166667Y-41240533D02*
X60166667Y-41145295D01*
X60166667Y-41145295D02*
X60214286Y-41050057D01*
X60214286Y-41050057D02*
X60261905Y-41002438D01*
X60261905Y-41002438D02*
X60357143Y-40954819D01*
X60357143Y-40954819D02*
X60595238Y-40954819D01*
X60595238Y-40954819D02*
X60738095Y-41002438D01*
X61071429Y-40954819D02*
X61309524Y-41954819D01*
X61309524Y-41954819D02*
X61500000Y-41240533D01*
X61500000Y-41240533D02*
X61690476Y-41954819D01*
X61690476Y-41954819D02*
X61928572Y-40954819D01*
X62833333Y-41954819D02*
X62261905Y-41954819D01*
X62547619Y-41954819D02*
X62547619Y-40954819D01*
X62547619Y-40954819D02*
X62452381Y-41097676D01*
X62452381Y-41097676D02*
X62357143Y-41192914D01*
X62357143Y-41192914D02*
X62261905Y-41240533D01*
X63564476Y-91726200D02*
X63707333Y-91773819D01*
X63707333Y-91773819D02*
X63945428Y-91773819D01*
X63945428Y-91773819D02*
X64040666Y-91726200D01*
X64040666Y-91726200D02*
X64088285Y-91678580D01*
X64088285Y-91678580D02*
X64135904Y-91583342D01*
X64135904Y-91583342D02*
X64135904Y-91488104D01*
X64135904Y-91488104D02*
X64088285Y-91392866D01*
X64088285Y-91392866D02*
X64040666Y-91345247D01*
X64040666Y-91345247D02*
X63945428Y-91297628D01*
X63945428Y-91297628D02*
X63754952Y-91250009D01*
X63754952Y-91250009D02*
X63659714Y-91202390D01*
X63659714Y-91202390D02*
X63612095Y-91154771D01*
X63612095Y-91154771D02*
X63564476Y-91059533D01*
X63564476Y-91059533D02*
X63564476Y-90964295D01*
X63564476Y-90964295D02*
X63612095Y-90869057D01*
X63612095Y-90869057D02*
X63659714Y-90821438D01*
X63659714Y-90821438D02*
X63754952Y-90773819D01*
X63754952Y-90773819D02*
X63993047Y-90773819D01*
X63993047Y-90773819D02*
X64135904Y-90821438D01*
X64469238Y-90773819D02*
X64707333Y-91773819D01*
X64707333Y-91773819D02*
X64897809Y-91059533D01*
X64897809Y-91059533D02*
X65088285Y-91773819D01*
X65088285Y-91773819D02*
X65326381Y-90773819D01*
X66231142Y-91773819D02*
X65659714Y-91773819D01*
X65945428Y-91773819D02*
X65945428Y-90773819D01*
X65945428Y-90773819D02*
X65850190Y-90916676D01*
X65850190Y-90916676D02*
X65754952Y-91011914D01*
X65754952Y-91011914D02*
X65659714Y-91059533D01*
X67183523Y-91773819D02*
X66612095Y-91773819D01*
X66897809Y-91773819D02*
X66897809Y-90773819D01*
X66897809Y-90773819D02*
X66802571Y-90916676D01*
X66802571Y-90916676D02*
X66707333Y-91011914D01*
X66707333Y-91011914D02*
X66612095Y-91059533D01*
X52522095Y-125068819D02*
X52522095Y-125878342D01*
X52522095Y-125878342D02*
X52569714Y-125973580D01*
X52569714Y-125973580D02*
X52617333Y-126021200D01*
X52617333Y-126021200D02*
X52712571Y-126068819D01*
X52712571Y-126068819D02*
X52903047Y-126068819D01*
X52903047Y-126068819D02*
X52998285Y-126021200D01*
X52998285Y-126021200D02*
X53045904Y-125973580D01*
X53045904Y-125973580D02*
X53093523Y-125878342D01*
X53093523Y-125878342D02*
X53093523Y-125068819D01*
X53474476Y-125068819D02*
X54093523Y-125068819D01*
X54093523Y-125068819D02*
X53760190Y-125449771D01*
X53760190Y-125449771D02*
X53903047Y-125449771D01*
X53903047Y-125449771D02*
X53998285Y-125497390D01*
X53998285Y-125497390D02*
X54045904Y-125545009D01*
X54045904Y-125545009D02*
X54093523Y-125640247D01*
X54093523Y-125640247D02*
X54093523Y-125878342D01*
X54093523Y-125878342D02*
X54045904Y-125973580D01*
X54045904Y-125973580D02*
X53998285Y-126021200D01*
X53998285Y-126021200D02*
X53903047Y-126068819D01*
X53903047Y-126068819D02*
X53617333Y-126068819D01*
X53617333Y-126068819D02*
X53522095Y-126021200D01*
X53522095Y-126021200D02*
X53474476Y-125973580D01*
X68112819Y-36742666D02*
X67636628Y-37075999D01*
X68112819Y-37314094D02*
X67112819Y-37314094D01*
X67112819Y-37314094D02*
X67112819Y-36933142D01*
X67112819Y-36933142D02*
X67160438Y-36837904D01*
X67160438Y-36837904D02*
X67208057Y-36790285D01*
X67208057Y-36790285D02*
X67303295Y-36742666D01*
X67303295Y-36742666D02*
X67446152Y-36742666D01*
X67446152Y-36742666D02*
X67541390Y-36790285D01*
X67541390Y-36790285D02*
X67589009Y-36837904D01*
X67589009Y-36837904D02*
X67636628Y-36933142D01*
X67636628Y-36933142D02*
X67636628Y-37314094D01*
X68112819Y-35790285D02*
X68112819Y-36361713D01*
X68112819Y-36075999D02*
X67112819Y-36075999D01*
X67112819Y-36075999D02*
X67255676Y-36171237D01*
X67255676Y-36171237D02*
X67350914Y-36266475D01*
X67350914Y-36266475D02*
X67398533Y-36361713D01*
X51594667Y-116618200D02*
X51737524Y-116665819D01*
X51737524Y-116665819D02*
X51975619Y-116665819D01*
X51975619Y-116665819D02*
X52070857Y-116618200D01*
X52070857Y-116618200D02*
X52118476Y-116570580D01*
X52118476Y-116570580D02*
X52166095Y-116475342D01*
X52166095Y-116475342D02*
X52166095Y-116380104D01*
X52166095Y-116380104D02*
X52118476Y-116284866D01*
X52118476Y-116284866D02*
X52070857Y-116237247D01*
X52070857Y-116237247D02*
X51975619Y-116189628D01*
X51975619Y-116189628D02*
X51785143Y-116142009D01*
X51785143Y-116142009D02*
X51689905Y-116094390D01*
X51689905Y-116094390D02*
X51642286Y-116046771D01*
X51642286Y-116046771D02*
X51594667Y-115951533D01*
X51594667Y-115951533D02*
X51594667Y-115856295D01*
X51594667Y-115856295D02*
X51642286Y-115761057D01*
X51642286Y-115761057D02*
X51689905Y-115713438D01*
X51689905Y-115713438D02*
X51785143Y-115665819D01*
X51785143Y-115665819D02*
X52023238Y-115665819D01*
X52023238Y-115665819D02*
X52166095Y-115713438D01*
X52499429Y-115665819D02*
X52737524Y-116665819D01*
X52737524Y-116665819D02*
X52928000Y-115951533D01*
X52928000Y-115951533D02*
X53118476Y-116665819D01*
X53118476Y-116665819D02*
X53356572Y-115665819D01*
X53880381Y-116094390D02*
X53785143Y-116046771D01*
X53785143Y-116046771D02*
X53737524Y-115999152D01*
X53737524Y-115999152D02*
X53689905Y-115903914D01*
X53689905Y-115903914D02*
X53689905Y-115856295D01*
X53689905Y-115856295D02*
X53737524Y-115761057D01*
X53737524Y-115761057D02*
X53785143Y-115713438D01*
X53785143Y-115713438D02*
X53880381Y-115665819D01*
X53880381Y-115665819D02*
X54070857Y-115665819D01*
X54070857Y-115665819D02*
X54166095Y-115713438D01*
X54166095Y-115713438D02*
X54213714Y-115761057D01*
X54213714Y-115761057D02*
X54261333Y-115856295D01*
X54261333Y-115856295D02*
X54261333Y-115903914D01*
X54261333Y-115903914D02*
X54213714Y-115999152D01*
X54213714Y-115999152D02*
X54166095Y-116046771D01*
X54166095Y-116046771D02*
X54070857Y-116094390D01*
X54070857Y-116094390D02*
X53880381Y-116094390D01*
X53880381Y-116094390D02*
X53785143Y-116142009D01*
X53785143Y-116142009D02*
X53737524Y-116189628D01*
X53737524Y-116189628D02*
X53689905Y-116284866D01*
X53689905Y-116284866D02*
X53689905Y-116475342D01*
X53689905Y-116475342D02*
X53737524Y-116570580D01*
X53737524Y-116570580D02*
X53785143Y-116618200D01*
X53785143Y-116618200D02*
X53880381Y-116665819D01*
X53880381Y-116665819D02*
X54070857Y-116665819D01*
X54070857Y-116665819D02*
X54166095Y-116618200D01*
X54166095Y-116618200D02*
X54213714Y-116570580D01*
X54213714Y-116570580D02*
X54261333Y-116475342D01*
X54261333Y-116475342D02*
X54261333Y-116284866D01*
X54261333Y-116284866D02*
X54213714Y-116189628D01*
X54213714Y-116189628D02*
X54166095Y-116142009D01*
X54166095Y-116142009D02*
X54070857Y-116094390D01*
X37054819Y-153938094D02*
X36054819Y-153938094D01*
X36054819Y-153938094D02*
X36054819Y-153699999D01*
X36054819Y-153699999D02*
X36102438Y-153557142D01*
X36102438Y-153557142D02*
X36197676Y-153461904D01*
X36197676Y-153461904D02*
X36292914Y-153414285D01*
X36292914Y-153414285D02*
X36483390Y-153366666D01*
X36483390Y-153366666D02*
X36626247Y-153366666D01*
X36626247Y-153366666D02*
X36816723Y-153414285D01*
X36816723Y-153414285D02*
X36911961Y-153461904D01*
X36911961Y-153461904D02*
X37007200Y-153557142D01*
X37007200Y-153557142D02*
X37054819Y-153699999D01*
X37054819Y-153699999D02*
X37054819Y-153938094D01*
X36150057Y-152985713D02*
X36102438Y-152938094D01*
X36102438Y-152938094D02*
X36054819Y-152842856D01*
X36054819Y-152842856D02*
X36054819Y-152604761D01*
X36054819Y-152604761D02*
X36102438Y-152509523D01*
X36102438Y-152509523D02*
X36150057Y-152461904D01*
X36150057Y-152461904D02*
X36245295Y-152414285D01*
X36245295Y-152414285D02*
X36340533Y-152414285D01*
X36340533Y-152414285D02*
X36483390Y-152461904D01*
X36483390Y-152461904D02*
X37054819Y-153033332D01*
X37054819Y-153033332D02*
X37054819Y-152414285D01*
X38837295Y-156171428D02*
X38837295Y-156628571D01*
X38837295Y-156399999D02*
X38037295Y-156399999D01*
X38037295Y-156399999D02*
X38151580Y-156476190D01*
X38151580Y-156476190D02*
X38227771Y-156552380D01*
X38227771Y-156552380D02*
X38265866Y-156628571D01*
X61884819Y-123241666D02*
X61408628Y-123574999D01*
X61884819Y-123813094D02*
X60884819Y-123813094D01*
X60884819Y-123813094D02*
X60884819Y-123432142D01*
X60884819Y-123432142D02*
X60932438Y-123336904D01*
X60932438Y-123336904D02*
X60980057Y-123289285D01*
X60980057Y-123289285D02*
X61075295Y-123241666D01*
X61075295Y-123241666D02*
X61218152Y-123241666D01*
X61218152Y-123241666D02*
X61313390Y-123289285D01*
X61313390Y-123289285D02*
X61361009Y-123336904D01*
X61361009Y-123336904D02*
X61408628Y-123432142D01*
X61408628Y-123432142D02*
X61408628Y-123813094D01*
X60884819Y-122336904D02*
X60884819Y-122813094D01*
X60884819Y-122813094D02*
X61361009Y-122860713D01*
X61361009Y-122860713D02*
X61313390Y-122813094D01*
X61313390Y-122813094D02*
X61265771Y-122717856D01*
X61265771Y-122717856D02*
X61265771Y-122479761D01*
X61265771Y-122479761D02*
X61313390Y-122384523D01*
X61313390Y-122384523D02*
X61361009Y-122336904D01*
X61361009Y-122336904D02*
X61456247Y-122289285D01*
X61456247Y-122289285D02*
X61694342Y-122289285D01*
X61694342Y-122289285D02*
X61789580Y-122336904D01*
X61789580Y-122336904D02*
X61837200Y-122384523D01*
X61837200Y-122384523D02*
X61884819Y-122479761D01*
X61884819Y-122479761D02*
X61884819Y-122717856D01*
X61884819Y-122717856D02*
X61837200Y-122813094D01*
X61837200Y-122813094D02*
X61789580Y-122860713D01*
D11*
X49571428Y-88367219D02*
X50238095Y-88367219D01*
X50523809Y-89414838D02*
X49571428Y-89414838D01*
X49571428Y-89414838D02*
X49571428Y-87414838D01*
X49571428Y-87414838D02*
X50523809Y-87414838D01*
X51380952Y-89414838D02*
X51380952Y-87414838D01*
X51380952Y-87414838D02*
X52523809Y-89414838D01*
X52523809Y-89414838D02*
X52523809Y-87414838D01*
X54619047Y-89224361D02*
X54523809Y-89319600D01*
X54523809Y-89319600D02*
X54238095Y-89414838D01*
X54238095Y-89414838D02*
X54047619Y-89414838D01*
X54047619Y-89414838D02*
X53761904Y-89319600D01*
X53761904Y-89319600D02*
X53571428Y-89129123D01*
X53571428Y-89129123D02*
X53476190Y-88938647D01*
X53476190Y-88938647D02*
X53380952Y-88557695D01*
X53380952Y-88557695D02*
X53380952Y-88271980D01*
X53380952Y-88271980D02*
X53476190Y-87891028D01*
X53476190Y-87891028D02*
X53571428Y-87700552D01*
X53571428Y-87700552D02*
X53761904Y-87510076D01*
X53761904Y-87510076D02*
X54047619Y-87414838D01*
X54047619Y-87414838D02*
X54238095Y-87414838D01*
X54238095Y-87414838D02*
X54523809Y-87510076D01*
X54523809Y-87510076D02*
X54619047Y-87605314D01*
X56523809Y-89414838D02*
X55380952Y-89414838D01*
X55952380Y-89414838D02*
X55952380Y-87414838D01*
X55952380Y-87414838D02*
X55761904Y-87700552D01*
X55761904Y-87700552D02*
X55571428Y-87891028D01*
X55571428Y-87891028D02*
X55380952Y-87986266D01*
D16*
X51594667Y-91726200D02*
X51737524Y-91773819D01*
X51737524Y-91773819D02*
X51975619Y-91773819D01*
X51975619Y-91773819D02*
X52070857Y-91726200D01*
X52070857Y-91726200D02*
X52118476Y-91678580D01*
X52118476Y-91678580D02*
X52166095Y-91583342D01*
X52166095Y-91583342D02*
X52166095Y-91488104D01*
X52166095Y-91488104D02*
X52118476Y-91392866D01*
X52118476Y-91392866D02*
X52070857Y-91345247D01*
X52070857Y-91345247D02*
X51975619Y-91297628D01*
X51975619Y-91297628D02*
X51785143Y-91250009D01*
X51785143Y-91250009D02*
X51689905Y-91202390D01*
X51689905Y-91202390D02*
X51642286Y-91154771D01*
X51642286Y-91154771D02*
X51594667Y-91059533D01*
X51594667Y-91059533D02*
X51594667Y-90964295D01*
X51594667Y-90964295D02*
X51642286Y-90869057D01*
X51642286Y-90869057D02*
X51689905Y-90821438D01*
X51689905Y-90821438D02*
X51785143Y-90773819D01*
X51785143Y-90773819D02*
X52023238Y-90773819D01*
X52023238Y-90773819D02*
X52166095Y-90821438D01*
X52499429Y-90773819D02*
X52737524Y-91773819D01*
X52737524Y-91773819D02*
X52928000Y-91059533D01*
X52928000Y-91059533D02*
X53118476Y-91773819D01*
X53118476Y-91773819D02*
X53356572Y-90773819D01*
X54166095Y-90773819D02*
X53975619Y-90773819D01*
X53975619Y-90773819D02*
X53880381Y-90821438D01*
X53880381Y-90821438D02*
X53832762Y-90869057D01*
X53832762Y-90869057D02*
X53737524Y-91011914D01*
X53737524Y-91011914D02*
X53689905Y-91202390D01*
X53689905Y-91202390D02*
X53689905Y-91583342D01*
X53689905Y-91583342D02*
X53737524Y-91678580D01*
X53737524Y-91678580D02*
X53785143Y-91726200D01*
X53785143Y-91726200D02*
X53880381Y-91773819D01*
X53880381Y-91773819D02*
X54070857Y-91773819D01*
X54070857Y-91773819D02*
X54166095Y-91726200D01*
X54166095Y-91726200D02*
X54213714Y-91678580D01*
X54213714Y-91678580D02*
X54261333Y-91583342D01*
X54261333Y-91583342D02*
X54261333Y-91345247D01*
X54261333Y-91345247D02*
X54213714Y-91250009D01*
X54213714Y-91250009D02*
X54166095Y-91202390D01*
X54166095Y-91202390D02*
X54070857Y-91154771D01*
X54070857Y-91154771D02*
X53880381Y-91154771D01*
X53880381Y-91154771D02*
X53785143Y-91202390D01*
X53785143Y-91202390D02*
X53737524Y-91250009D01*
X53737524Y-91250009D02*
X53689905Y-91345247D01*
X39148667Y-91726200D02*
X39291524Y-91773819D01*
X39291524Y-91773819D02*
X39529619Y-91773819D01*
X39529619Y-91773819D02*
X39624857Y-91726200D01*
X39624857Y-91726200D02*
X39672476Y-91678580D01*
X39672476Y-91678580D02*
X39720095Y-91583342D01*
X39720095Y-91583342D02*
X39720095Y-91488104D01*
X39720095Y-91488104D02*
X39672476Y-91392866D01*
X39672476Y-91392866D02*
X39624857Y-91345247D01*
X39624857Y-91345247D02*
X39529619Y-91297628D01*
X39529619Y-91297628D02*
X39339143Y-91250009D01*
X39339143Y-91250009D02*
X39243905Y-91202390D01*
X39243905Y-91202390D02*
X39196286Y-91154771D01*
X39196286Y-91154771D02*
X39148667Y-91059533D01*
X39148667Y-91059533D02*
X39148667Y-90964295D01*
X39148667Y-90964295D02*
X39196286Y-90869057D01*
X39196286Y-90869057D02*
X39243905Y-90821438D01*
X39243905Y-90821438D02*
X39339143Y-90773819D01*
X39339143Y-90773819D02*
X39577238Y-90773819D01*
X39577238Y-90773819D02*
X39720095Y-90821438D01*
X40053429Y-90773819D02*
X40291524Y-91773819D01*
X40291524Y-91773819D02*
X40482000Y-91059533D01*
X40482000Y-91059533D02*
X40672476Y-91773819D01*
X40672476Y-91773819D02*
X40910572Y-90773819D01*
X41196286Y-90773819D02*
X41815333Y-90773819D01*
X41815333Y-90773819D02*
X41482000Y-91154771D01*
X41482000Y-91154771D02*
X41624857Y-91154771D01*
X41624857Y-91154771D02*
X41720095Y-91202390D01*
X41720095Y-91202390D02*
X41767714Y-91250009D01*
X41767714Y-91250009D02*
X41815333Y-91345247D01*
X41815333Y-91345247D02*
X41815333Y-91583342D01*
X41815333Y-91583342D02*
X41767714Y-91678580D01*
X41767714Y-91678580D02*
X41720095Y-91726200D01*
X41720095Y-91726200D02*
X41624857Y-91773819D01*
X41624857Y-91773819D02*
X41339143Y-91773819D01*
X41339143Y-91773819D02*
X41243905Y-91726200D01*
X41243905Y-91726200D02*
X41196286Y-91678580D01*
%TO.C,R4*%
D14*
X58477500Y-119512742D02*
X58477500Y-119987258D01*
X59522500Y-119512742D02*
X59522500Y-119987258D01*
%TO.C,C1*%
X56261252Y-124265000D02*
X55738748Y-124265000D01*
X56261252Y-125735000D02*
X55738748Y-125735000D01*
%TO.C,U1*%
D17*
X44470000Y-139107000D02*
X44470000Y-156252000D01*
X46375000Y-158157000D02*
X60345000Y-158157000D01*
D18*
X48856000Y-159167000D02*
X48856000Y-158157000D01*
X57351272Y-159667000D02*
X49356000Y-159667000D01*
X57855000Y-158157000D02*
X57851272Y-159167272D01*
D17*
X60345000Y-137202000D02*
X46375000Y-137202000D01*
X62250000Y-139107000D02*
X62250000Y-156252000D01*
X44470000Y-139107000D02*
G75*
G02*
X46375000Y-137202000I1905000J0D01*
G01*
X46375000Y-158157000D02*
G75*
G02*
X44470000Y-156252000I0J1905000D01*
G01*
D18*
X49356000Y-159667000D02*
G75*
G02*
X48856000Y-159167000I0J500000D01*
G01*
X57851272Y-159167272D02*
G75*
G02*
X57351272Y-159667002I-500022J292D01*
G01*
D17*
X60345000Y-137202000D02*
G75*
G02*
X62250000Y-139107000I0J-1905000D01*
G01*
X62250000Y-156256000D02*
G75*
G02*
X60345000Y-158161000I-1905001J1D01*
G01*
D19*
X61438000Y-157024000D02*
G75*
G02*
X60934000Y-157024000I-252000J0D01*
G01*
X60934000Y-157024000D02*
G75*
G02*
X61438000Y-157024000I252000J0D01*
G01*
X62712000Y-157741000D02*
G75*
G02*
X62208000Y-157741000I-252000J0D01*
G01*
X62208000Y-157741000D02*
G75*
G02*
X62712000Y-157741000I252000J0D01*
G01*
%TO.C,Q1*%
D14*
X67566000Y-30444000D02*
X69086000Y-30444000D01*
X67566000Y-31444000D02*
X67566000Y-30444000D01*
X67566000Y-33564000D02*
X67566000Y-32564000D01*
X69086000Y-30444000D02*
X69086000Y-30494000D01*
X69086000Y-31614000D02*
X69086000Y-32394000D01*
X69086000Y-33514000D02*
X69086000Y-33564000D01*
X69086000Y-33564000D02*
X67566000Y-33564000D01*
X69626000Y-32384000D02*
X69386000Y-32054000D01*
X69866000Y-32054000D01*
X69626000Y-32384000D01*
G36*
X69626000Y-32384000D02*
G01*
X69386000Y-32054000D01*
X69866000Y-32054000D01*
X69626000Y-32384000D01*
G37*
%TO.C,SW10*%
D18*
X63536000Y-106308000D02*
X63536000Y-108068000D01*
X64231000Y-104938000D02*
X67341000Y-104938000D01*
X64231000Y-109438000D02*
X67341000Y-109438000D01*
X68036000Y-106308000D02*
X68036000Y-108068000D01*
D11*
X62660000Y-105438000D02*
G75*
G02*
X62460000Y-105438000I-100000J0D01*
G01*
X62460000Y-105438000D02*
G75*
G02*
X62660000Y-105438000I100000J0D01*
G01*
%TO.C,SW9*%
D18*
X63536000Y-118754000D02*
X63536000Y-120514000D01*
X64231000Y-117384000D02*
X67341000Y-117384000D01*
X64231000Y-121884000D02*
X67341000Y-121884000D01*
X68036000Y-118754000D02*
X68036000Y-120514000D01*
D11*
X62660000Y-117884000D02*
G75*
G02*
X62460000Y-117884000I-100000J0D01*
G01*
X62460000Y-117884000D02*
G75*
G02*
X62660000Y-117884000I100000J0D01*
G01*
%TO.C,C2*%
D14*
X37765000Y-148961252D02*
X37765000Y-148438748D01*
X39235000Y-148961252D02*
X39235000Y-148438748D01*
%TO.C,C3*%
X40640580Y-34990000D02*
X40359420Y-34990000D01*
X40640580Y-36010000D02*
X40359420Y-36010000D01*
%TO.C,SW5*%
D18*
X38644000Y-118754000D02*
X38644000Y-120514000D01*
X39339000Y-117384000D02*
X42449000Y-117384000D01*
X39339000Y-121884000D02*
X42449000Y-121884000D01*
X43144000Y-118754000D02*
X43144000Y-120514000D01*
D11*
X37768000Y-117884000D02*
G75*
G02*
X37568000Y-117884000I-100000J0D01*
G01*
X37568000Y-117884000D02*
G75*
G02*
X37768000Y-117884000I100000J0D01*
G01*
%TO.C,SW2*%
D18*
X38644000Y-40776000D02*
X38644000Y-42536000D01*
X39339000Y-39406000D02*
X42449000Y-39406000D01*
X39339000Y-43906000D02*
X42449000Y-43906000D01*
X43144000Y-40776000D02*
X43144000Y-42536000D01*
D11*
X37768000Y-39906000D02*
G75*
G02*
X37568000Y-39906000I-100000J0D01*
G01*
X37568000Y-39906000D02*
G75*
G02*
X37768000Y-39906000I100000J0D01*
G01*
%TO.C,SW7*%
D18*
X51090000Y-106308000D02*
X51090000Y-108068000D01*
X51785000Y-104938000D02*
X54895000Y-104938000D01*
X51785000Y-109438000D02*
X54895000Y-109438000D01*
X55590000Y-106308000D02*
X55590000Y-108068000D01*
D11*
X50214000Y-105438000D02*
G75*
G02*
X50014000Y-105438000I-100000J0D01*
G01*
X50014000Y-105438000D02*
G75*
G02*
X50214000Y-105438000I100000J0D01*
G01*
%TO.C,R9*%
D14*
X67227500Y-154762742D02*
X67227500Y-155237258D01*
X68272500Y-154762742D02*
X68272500Y-155237258D01*
%TO.C,D1*%
X64327455Y-32178000D02*
X64327455Y-32022000D01*
X64327455Y-34494000D02*
X64327455Y-34338000D01*
X61096018Y-32178000D02*
G75*
G02*
X64327455Y-32022484I1671437J-1080000D01*
G01*
X61726494Y-32178000D02*
G75*
G02*
X63808416Y-32178000I1040961J-1080000D01*
G01*
X63808416Y-34338000D02*
G75*
G02*
X61726494Y-34338000I-1040961J1080000D01*
G01*
X64327455Y-34493516D02*
G75*
G02*
X61096018Y-34338000I-1560000J1235516D01*
G01*
%TO.C,SW4*%
D18*
X38586910Y-106334000D02*
X38586910Y-108094000D01*
X39281910Y-104964000D02*
X42391910Y-104964000D01*
X39281910Y-109464000D02*
X42391910Y-109464000D01*
X43086910Y-106334000D02*
X43086910Y-108094000D01*
D11*
X37710910Y-105464000D02*
G75*
G02*
X37510910Y-105464000I-100000J0D01*
G01*
X37510910Y-105464000D02*
G75*
G02*
X37710910Y-105464000I100000J0D01*
G01*
%TO.C,R6*%
D14*
X38262742Y-32477500D02*
X38737258Y-32477500D01*
X38262742Y-33522500D02*
X38737258Y-33522500D01*
%TO.C,U2*%
X40782000Y-30720000D02*
X40782000Y-31920000D01*
X40782000Y-30720000D02*
X41242000Y-30720000D01*
X40862000Y-34380000D02*
X43942000Y-34380000D01*
X46442000Y-30720000D02*
X46662000Y-30720000D01*
X41242000Y-30720000D02*
G75*
G02*
X46442000Y-30720000I2600000J-1100000D01*
G01*
%TO.C,R2*%
X38977500Y-144937742D02*
X38977500Y-145412258D01*
X40022500Y-144937742D02*
X40022500Y-145412258D01*
%TO.C,SW1*%
D18*
X63536000Y-40776000D02*
X63536000Y-42536000D01*
X64231000Y-39406000D02*
X67341000Y-39406000D01*
X64231000Y-43906000D02*
X67341000Y-43906000D01*
X68036000Y-40776000D02*
X68036000Y-42536000D01*
D11*
X62660000Y-39906000D02*
G75*
G02*
X62460000Y-39906000I-100000J0D01*
G01*
X62460000Y-39906000D02*
G75*
G02*
X62660000Y-39906000I100000J0D01*
G01*
%TO.C,SW11*%
D18*
X63536000Y-93862000D02*
X63536000Y-95622000D01*
X64231000Y-92492000D02*
X67341000Y-92492000D01*
X64231000Y-96992000D02*
X67341000Y-96992000D01*
X68036000Y-93862000D02*
X68036000Y-95622000D01*
D11*
X62660000Y-92992000D02*
G75*
G02*
X62460000Y-92992000I-100000J0D01*
G01*
X62460000Y-92992000D02*
G75*
G02*
X62660000Y-92992000I100000J0D01*
G01*
%TO.C,U3*%
D14*
X50524000Y-126454000D02*
X56044000Y-126454000D01*
X50524000Y-126629000D02*
X50524000Y-126454000D01*
X50524000Y-134874000D02*
X50524000Y-134699000D01*
X56044000Y-126454000D02*
X56044000Y-126629000D01*
X56044000Y-134699000D02*
X56044000Y-134874000D01*
X56044000Y-134874000D02*
X50524000Y-134874000D01*
X49784000Y-126624000D02*
X49444000Y-126154000D01*
X50124000Y-126154000D01*
X49784000Y-126624000D01*
G36*
X49784000Y-126624000D02*
G01*
X49444000Y-126154000D01*
X50124000Y-126154000D01*
X49784000Y-126624000D01*
G37*
%TO.C,R1*%
X68565500Y-36813258D02*
X68565500Y-36338742D01*
X69610500Y-36813258D02*
X69610500Y-36338742D01*
%TO.C,SW8*%
D18*
X51090000Y-118754000D02*
X51090000Y-120514000D01*
X51785000Y-117384000D02*
X54895000Y-117384000D01*
X51785000Y-121884000D02*
X54895000Y-121884000D01*
X55590000Y-118754000D02*
X55590000Y-120514000D01*
D11*
X50214000Y-117884000D02*
G75*
G02*
X50014000Y-117884000I-100000J0D01*
G01*
X50014000Y-117884000D02*
G75*
G02*
X50214000Y-117884000I100000J0D01*
G01*
%TO.C,D2*%
D14*
X37350000Y-156000000D02*
X37350000Y-150400000D01*
X37350000Y-156000000D02*
X41350000Y-156000000D01*
X40750000Y-150400000D02*
X37350000Y-150400000D01*
X40750000Y-150400000D02*
X41350000Y-151000000D01*
X41350000Y-156000000D02*
X41350000Y-151000000D01*
%TO.C,R5*%
X59477500Y-122837742D02*
X59477500Y-123312258D01*
X60522500Y-122837742D02*
X60522500Y-123312258D01*
%TO.C,SW6*%
D18*
X51090000Y-93862000D02*
X51090000Y-95622000D01*
X51785000Y-92492000D02*
X54895000Y-92492000D01*
X51785000Y-96992000D02*
X54895000Y-96992000D01*
X55590000Y-93862000D02*
X55590000Y-95622000D01*
D11*
X50214000Y-92992000D02*
G75*
G02*
X50014000Y-92992000I-100000J0D01*
G01*
X50014000Y-92992000D02*
G75*
G02*
X50214000Y-92992000I100000J0D01*
G01*
%TO.C,SW3*%
D18*
X38644000Y-93862000D02*
X38644000Y-95622000D01*
X39339000Y-92492000D02*
X42449000Y-92492000D01*
X39339000Y-96992000D02*
X42449000Y-96992000D01*
X43144000Y-93862000D02*
X43144000Y-95622000D01*
D11*
X37768000Y-92992000D02*
G75*
G02*
X37568000Y-92992000I-100000J0D01*
G01*
X37568000Y-92992000D02*
G75*
G02*
X37768000Y-92992000I100000J0D01*
G01*
%TD*%
M02*
