M48
; DRILL file KiCad 10.0.3 date 2026-07-27T11:41:55
; FORMAT={-:-/ absolute / metric / decimal}
; #@! TF.CreationDate,2026-07-27T11:41:55-07:00
; #@! TF.GenerationSoftware,Kicad,Pcbnew,10.0.3
; #@! TF.FileFunction,MixedPlating,1,2
FMAT,2
METRIC
; #@! TA.AperFunction,Plated,PTH,ViaDrill
T1C0.300
; #@! TA.AperFunction,Plated,PTH,ComponentDrill
T2C0.500
; #@! TA.AperFunction,Plated,PTH,ComponentDrill
T3C0.900
; #@! TA.AperFunction,Plated,PTH,ComponentDrill
T4C1.700
; #@! TA.AperFunction,NonPlated,NPTH,ComponentDrill
T5C0.500
%
G90
G05
T1
X38.375Y-63.375
X38.95Y-54.282
X39.834Y-55.166
X40.789Y-81.217
X42.809Y-137.914
X44.709Y-135.914
X47.25Y-134.5
X49.476Y-76.273
X49.784Y-127.036
X53.25Y-34.75
X55.0Y-29.75
X57.25Y-123.25
X60.0Y-156.25
X60.5Y-92.5
X63.25Y-62.5
X63.75Y-54.0
X64.036Y-92.512
X64.5Y-73.0
X66.0Y-135.25
X67.25Y-83.5
X69.0Y-154.175
X69.0Y-155.825
X70.25Y-41.25
T2
X47.95Y-150.2
X47.95Y-152.8
X47.95Y-155.25
X48.0Y-140.0
X48.0Y-142.5
X48.0Y-145.0
X48.0Y-147.75
X54.843Y-151.181
X54.843Y-153.721
X54.843Y-156.261
X54.936Y-148.698
X55.351Y-142.088
X57.383Y-148.641
X57.383Y-151.181
X57.383Y-153.721
X57.383Y-156.261
X57.891Y-142.088
X64.25Y-140.0
X64.25Y-142.5
X64.25Y-145.0
X64.25Y-147.5
X64.25Y-150.25
X64.25Y-152.75
X64.25Y-155.25
T3
X40.983Y-31.262
X43.523Y-31.262
X46.063Y-31.262
X61.46Y-32.275
X64.0Y-32.275
T4
X37.187Y-71.32
X45.588Y-52.61
X46.79Y-61.166
X50.085Y-83.794
X52.227Y-68.824
X59.885Y-61.166
X59.885Y-74.262
X61.087Y-82.818
X69.488Y-64.108
T5
X53.35Y-33.002
M30
