  0
SECTION
  2
HEADER
  9
$ANGBASE
  50
0.0
  9
$ANGDIR
  70
1
  9
$MEASUREMENT
  70
1
  9
$INSUNITS
  70
4
  0
ENDSEC
  0
SECTION
  2
TABLES
  0
TABLE
  2
LTYPE
  70
4
  0
LTYPE
  5
40F
  2
CONTINUOUS
  70
0
  3
Solid line
  72
65
  73
0
  40
0.0
  0
LTYPE
  5
410
  2
DASHDOT
 70
0
  3
Dash Dot ____ _ ____ _
 72
65
 73
4
 40
2.0
 49
1.25
 49
-0.25
 49
0.25
 49
-0.25
  0
LTYPE
  5
411
  2
DASHED
 70
0
  3
Dashed __ __ __ __ __
 72
65
 73
2
 40
0.75
 49
0.5
 49
-0.25
  0
LTYPE
  5
43B
  2
DOTTED
 70
0
  3
Dotted .  .  .  .
 72
65
 73
2
 40
0.2
 49
0.0
 49
-0.2
  0
ENDTAB
  0
TABLE
  2
STYLE
  70
4
  0
STYLE
  2
KICAD
  70
0
  40
0
  41
1
  42
1
  50
0
  71
0
  3
isocp.shx
  0
STYLE
  2
KICADB
  70
0
  40
0
  41
1
  42
1
  50
0
  71
0
  3
isocp.shx
  0
STYLE
  2
KICADI
  70
0
  40
0
  41
1
  42
1
  50
15
  71
0
  3
isocp.shx
  0
STYLE
  2
KICADBI
  70
0
  40
0
  41
1
  42
1
  50
15
  71
0
  3
isocp.shx
  0
ENDTAB
  0
TABLE
  2
LAYER
  70
1
  0
LAYER
  2
Edge.Cuts
  70
0
  62
254
  420
13685453
  6
CONTINUOUS
  0
ENDTAB
  0
ENDSEC
  0
SECTION
  2
ENTITIES
0
LINE
8
Edge.Cuts
6
CONTINUOUS
10
34.8374549999999985
20
-31.2139999999999986
11
34.8374549999999985
21
-155.2139999999999986
0
ARC
8
Edge.Cuts
10
37.8375199999999978
20
-31.2140699999999995
40
3.0000650008166487
50
90.00124138
51
179.99866313
0
LINE
8
Edge.Cuts
6
CONTINUOUS
10
37.8374549999999985
20
-28.2139999999999986
11
68.8374549999999914
21
-28.2139999999999986
0
ARC
8
Edge.Cuts
10
37.8375999999999948
20
-155.2138999999999953
40
3.0001000035040497
50
-179.99809023
51
-90.00276920
0
LINE
8
Edge.Cuts
6
CONTINUOUS
10
37.8374549999999985
20
-158.2139999999999986
11
68.8374549999999914
21
-158.2139999999999986
0
CIRCLE
8
Edge.Cuts
10
42.7308529999999962
20
-57.1073979999999963
40
2.
0
CIRCLE
8
Edge.Cuts
10
42.7308529999999962
20
-78.3206019999999938
40
2.
0
CIRCLE
8
Edge.Cuts
10
50.1554739999999981
20
-64.5320189999999911
40
0.7999999999999999
0
CIRCLE
8
Edge.Cuts
10
56.5194359999999989
20
-70.8959809999999919
40
0.7999999999999999
0
CIRCLE
8
Edge.Cuts
10
63.9440569999999937
20
-57.1073979999999963
40
2.
0
CIRCLE
8
Edge.Cuts
10
63.9440569999999937
20
-78.3206019999999938
40
2.
0
ARC
8
Edge.Cuts
10
68.8370000000000033
20
-31.2144999999999975
40
3.0005000344984167
50
0.00954785
51
89.99131159
0
LINE
8
Edge.Cuts
6
CONTINUOUS
10
71.8374549999999914
20
-31.2139999999999986
11
71.8374549999999914
21
-155.2139999999999986
0
ARC
8
Edge.Cuts
10
68.8369199999999921
20
-155.2134700000000009
40
3.0005350468083187
50
-89.98978406
51
-0.01012045
0
CIRCLE
8
Edge.Cuts
10
57.3833999999999946
20
-156.2614999999999839
40
0.25
0
CIRCLE
8
Edge.Cuts
10
54.8433999999999955
20
-156.2614999999999839
40
0.25
0
CIRCLE
8
Edge.Cuts
10
57.3833999999999946
20
-153.7214999999999918
40
0.25
0
CIRCLE
8
Edge.Cuts
10
54.8433999999999955
20
-153.7214999999999918
40
0.25
0
CIRCLE
8
Edge.Cuts
10
57.3833999999999946
20
-151.1814999999999998
40
0.25
0
CIRCLE
8
Edge.Cuts
10
54.8433999999999955
20
-151.1814999999999998
40
0.25
0
CIRCLE
8
Edge.Cuts
10
57.3833999999999946
20
-148.6414999999999793
40
0.25
0
CIRCLE
8
Edge.Cuts
10
54.9359999999999999
20
-148.698299999999989
40
0.25
0
CIRCLE
8
Edge.Cuts
10
57.8913999999999973
20
-142.0883000000000038
40
0.25
0
CIRCLE
8
Edge.Cuts
10
55.3513999999999982
20
-142.0883000000000038
40
0.25
0
CIRCLE
8
Edge.Cuts
10
38.5
20
-131.75
40
1.199999
0
CIRCLE
8
Edge.Cuts
10
53.25
20
-38.25
40
1.199999
0
CIRCLE
8
Edge.Cuts
10
68.25
20
-131.75
40
1.199999
0
CIRCLE
8
Edge.Cuts
10
50.0847639999999998
20
-83.793689999999998
40
0.85
0
CIRCLE
8
Edge.Cuts
10
61.0873449999999991
20
-82.8179229999999933
40
0.85
0
CIRCLE
8
Edge.Cuts
10
59.8852639999999994
20
-74.2619540000000029
40
0.85
0
CIRCLE
8
Edge.Cuts
10
52.2272970000000001
20
-68.8241579999999971
40
0.85
0
CIRCLE
8
Edge.Cuts
10
37.1871359999999953
20
-71.3202539999999914
40
0.85
0
CIRCLE
8
Edge.Cuts
10
46.7896459999999976
20
-61.1661359999999945
40
0.85
0
CIRCLE
8
Edge.Cuts
10
59.8852639999999994
20
-61.1660199999999961
40
0.85
0
CIRCLE
8
Edge.Cuts
10
45.5875649999999979
20
-52.6101309999999955
40
0.85
0
CIRCLE
8
Edge.Cuts
10
69.4877740000000017
20
-64.1075900000000019
40
0.85
0
CIRCLE
8
Edge.Cuts
10
53.3499999999999943
20
-31.5749999999999993
40
0.249999
0
CIRCLE
8
Edge.Cuts
10
61.9799999999999969
20
-32.75
40
0.45
0
CIRCLE
8
Edge.Cuts
10
64.519999999999996
20
-32.75
40
0.45
  0
ENDSEC
  0
EOF
